G04 #@! TF.GenerationSoftware,KiCad,Pcbnew,5.1.6-c6e7f7d~87~ubuntu18.04.1*
G04 #@! TF.CreationDate,2020-08-19T11:53:39-04:00*
G04 #@! TF.ProjectId,four_pole_lpf,666f7572-5f70-46f6-9c65-5f6c70662e6b,rev?*
G04 #@! TF.SameCoordinates,Original*
G04 #@! TF.FileFunction,Paste,Top*
G04 #@! TF.FilePolarity,Positive*
%FSLAX46Y46*%
G04 Gerber Fmt 4.6, Leading zero omitted, Abs format (unit mm)*
G04 Created by KiCad (PCBNEW 5.1.6-c6e7f7d~87~ubuntu18.04.1) date 2020-08-19 11:53:39*
%MOMM*%
%LPD*%
G01*
G04 APERTURE LIST*
%ADD10R,1.200000X0.900000*%
%ADD11R,1.900000X0.800000*%
%ADD12R,1.500000X0.550000*%
%ADD13R,0.800000X1.900000*%
G04 APERTURE END LIST*
G36*
G01*
X138792800Y-99117999D02*
X138792800Y-100018001D01*
G75*
G02*
X138542801Y-100268000I-249999J0D01*
G01*
X137892799Y-100268000D01*
G75*
G02*
X137642800Y-100018001I0J249999D01*
G01*
X137642800Y-99117999D01*
G75*
G02*
X137892799Y-98868000I249999J0D01*
G01*
X138542801Y-98868000D01*
G75*
G02*
X138792800Y-99117999I0J-249999D01*
G01*
G37*
G36*
G01*
X140842800Y-99117999D02*
X140842800Y-100018001D01*
G75*
G02*
X140592801Y-100268000I-249999J0D01*
G01*
X139942799Y-100268000D01*
G75*
G02*
X139692800Y-100018001I0J249999D01*
G01*
X139692800Y-99117999D01*
G75*
G02*
X139942799Y-98868000I249999J0D01*
G01*
X140592801Y-98868000D01*
G75*
G02*
X140842800Y-99117999I0J-249999D01*
G01*
G37*
D10*
X113030000Y-96268000D03*
X113030000Y-99568000D03*
X110236000Y-99567000D03*
X110236000Y-96267000D03*
G36*
G01*
X135613000Y-80367000D02*
X135913000Y-80367000D01*
G75*
G02*
X136063000Y-80517000I0J-150000D01*
G01*
X136063000Y-82167000D01*
G75*
G02*
X135913000Y-82317000I-150000J0D01*
G01*
X135613000Y-82317000D01*
G75*
G02*
X135463000Y-82167000I0J150000D01*
G01*
X135463000Y-80517000D01*
G75*
G02*
X135613000Y-80367000I150000J0D01*
G01*
G37*
G36*
G01*
X134343000Y-80367000D02*
X134643000Y-80367000D01*
G75*
G02*
X134793000Y-80517000I0J-150000D01*
G01*
X134793000Y-82167000D01*
G75*
G02*
X134643000Y-82317000I-150000J0D01*
G01*
X134343000Y-82317000D01*
G75*
G02*
X134193000Y-82167000I0J150000D01*
G01*
X134193000Y-80517000D01*
G75*
G02*
X134343000Y-80367000I150000J0D01*
G01*
G37*
G36*
G01*
X133073000Y-80367000D02*
X133373000Y-80367000D01*
G75*
G02*
X133523000Y-80517000I0J-150000D01*
G01*
X133523000Y-82167000D01*
G75*
G02*
X133373000Y-82317000I-150000J0D01*
G01*
X133073000Y-82317000D01*
G75*
G02*
X132923000Y-82167000I0J150000D01*
G01*
X132923000Y-80517000D01*
G75*
G02*
X133073000Y-80367000I150000J0D01*
G01*
G37*
G36*
G01*
X131803000Y-80367000D02*
X132103000Y-80367000D01*
G75*
G02*
X132253000Y-80517000I0J-150000D01*
G01*
X132253000Y-82167000D01*
G75*
G02*
X132103000Y-82317000I-150000J0D01*
G01*
X131803000Y-82317000D01*
G75*
G02*
X131653000Y-82167000I0J150000D01*
G01*
X131653000Y-80517000D01*
G75*
G02*
X131803000Y-80367000I150000J0D01*
G01*
G37*
G36*
G01*
X131803000Y-75417000D02*
X132103000Y-75417000D01*
G75*
G02*
X132253000Y-75567000I0J-150000D01*
G01*
X132253000Y-77217000D01*
G75*
G02*
X132103000Y-77367000I-150000J0D01*
G01*
X131803000Y-77367000D01*
G75*
G02*
X131653000Y-77217000I0J150000D01*
G01*
X131653000Y-75567000D01*
G75*
G02*
X131803000Y-75417000I150000J0D01*
G01*
G37*
G36*
G01*
X133073000Y-75417000D02*
X133373000Y-75417000D01*
G75*
G02*
X133523000Y-75567000I0J-150000D01*
G01*
X133523000Y-77217000D01*
G75*
G02*
X133373000Y-77367000I-150000J0D01*
G01*
X133073000Y-77367000D01*
G75*
G02*
X132923000Y-77217000I0J150000D01*
G01*
X132923000Y-75567000D01*
G75*
G02*
X133073000Y-75417000I150000J0D01*
G01*
G37*
G36*
G01*
X134343000Y-75417000D02*
X134643000Y-75417000D01*
G75*
G02*
X134793000Y-75567000I0J-150000D01*
G01*
X134793000Y-77217000D01*
G75*
G02*
X134643000Y-77367000I-150000J0D01*
G01*
X134343000Y-77367000D01*
G75*
G02*
X134193000Y-77217000I0J150000D01*
G01*
X134193000Y-75567000D01*
G75*
G02*
X134343000Y-75417000I150000J0D01*
G01*
G37*
G36*
G01*
X135613000Y-75417000D02*
X135913000Y-75417000D01*
G75*
G02*
X136063000Y-75567000I0J-150000D01*
G01*
X136063000Y-77217000D01*
G75*
G02*
X135913000Y-77367000I-150000J0D01*
G01*
X135613000Y-77367000D01*
G75*
G02*
X135463000Y-77217000I0J150000D01*
G01*
X135463000Y-75567000D01*
G75*
G02*
X135613000Y-75417000I150000J0D01*
G01*
G37*
G36*
G01*
X124691000Y-99290000D02*
X124991000Y-99290000D01*
G75*
G02*
X125141000Y-99440000I0J-150000D01*
G01*
X125141000Y-101090000D01*
G75*
G02*
X124991000Y-101240000I-150000J0D01*
G01*
X124691000Y-101240000D01*
G75*
G02*
X124541000Y-101090000I0J150000D01*
G01*
X124541000Y-99440000D01*
G75*
G02*
X124691000Y-99290000I150000J0D01*
G01*
G37*
G36*
G01*
X123421000Y-99290000D02*
X123721000Y-99290000D01*
G75*
G02*
X123871000Y-99440000I0J-150000D01*
G01*
X123871000Y-101090000D01*
G75*
G02*
X123721000Y-101240000I-150000J0D01*
G01*
X123421000Y-101240000D01*
G75*
G02*
X123271000Y-101090000I0J150000D01*
G01*
X123271000Y-99440000D01*
G75*
G02*
X123421000Y-99290000I150000J0D01*
G01*
G37*
G36*
G01*
X122151000Y-99290000D02*
X122451000Y-99290000D01*
G75*
G02*
X122601000Y-99440000I0J-150000D01*
G01*
X122601000Y-101090000D01*
G75*
G02*
X122451000Y-101240000I-150000J0D01*
G01*
X122151000Y-101240000D01*
G75*
G02*
X122001000Y-101090000I0J150000D01*
G01*
X122001000Y-99440000D01*
G75*
G02*
X122151000Y-99290000I150000J0D01*
G01*
G37*
G36*
G01*
X120881000Y-99290000D02*
X121181000Y-99290000D01*
G75*
G02*
X121331000Y-99440000I0J-150000D01*
G01*
X121331000Y-101090000D01*
G75*
G02*
X121181000Y-101240000I-150000J0D01*
G01*
X120881000Y-101240000D01*
G75*
G02*
X120731000Y-101090000I0J150000D01*
G01*
X120731000Y-99440000D01*
G75*
G02*
X120881000Y-99290000I150000J0D01*
G01*
G37*
G36*
G01*
X120881000Y-94340000D02*
X121181000Y-94340000D01*
G75*
G02*
X121331000Y-94490000I0J-150000D01*
G01*
X121331000Y-96140000D01*
G75*
G02*
X121181000Y-96290000I-150000J0D01*
G01*
X120881000Y-96290000D01*
G75*
G02*
X120731000Y-96140000I0J150000D01*
G01*
X120731000Y-94490000D01*
G75*
G02*
X120881000Y-94340000I150000J0D01*
G01*
G37*
G36*
G01*
X122151000Y-94340000D02*
X122451000Y-94340000D01*
G75*
G02*
X122601000Y-94490000I0J-150000D01*
G01*
X122601000Y-96140000D01*
G75*
G02*
X122451000Y-96290000I-150000J0D01*
G01*
X122151000Y-96290000D01*
G75*
G02*
X122001000Y-96140000I0J150000D01*
G01*
X122001000Y-94490000D01*
G75*
G02*
X122151000Y-94340000I150000J0D01*
G01*
G37*
G36*
G01*
X123421000Y-94340000D02*
X123721000Y-94340000D01*
G75*
G02*
X123871000Y-94490000I0J-150000D01*
G01*
X123871000Y-96140000D01*
G75*
G02*
X123721000Y-96290000I-150000J0D01*
G01*
X123421000Y-96290000D01*
G75*
G02*
X123271000Y-96140000I0J150000D01*
G01*
X123271000Y-94490000D01*
G75*
G02*
X123421000Y-94340000I150000J0D01*
G01*
G37*
G36*
G01*
X124691000Y-94340000D02*
X124991000Y-94340000D01*
G75*
G02*
X125141000Y-94490000I0J-150000D01*
G01*
X125141000Y-96140000D01*
G75*
G02*
X124991000Y-96290000I-150000J0D01*
G01*
X124691000Y-96290000D01*
G75*
G02*
X124541000Y-96140000I0J150000D01*
G01*
X124541000Y-94490000D01*
G75*
G02*
X124691000Y-94340000I150000J0D01*
G01*
G37*
G36*
G01*
X126088000Y-80367000D02*
X126388000Y-80367000D01*
G75*
G02*
X126538000Y-80517000I0J-150000D01*
G01*
X126538000Y-82167000D01*
G75*
G02*
X126388000Y-82317000I-150000J0D01*
G01*
X126088000Y-82317000D01*
G75*
G02*
X125938000Y-82167000I0J150000D01*
G01*
X125938000Y-80517000D01*
G75*
G02*
X126088000Y-80367000I150000J0D01*
G01*
G37*
G36*
G01*
X124818000Y-80367000D02*
X125118000Y-80367000D01*
G75*
G02*
X125268000Y-80517000I0J-150000D01*
G01*
X125268000Y-82167000D01*
G75*
G02*
X125118000Y-82317000I-150000J0D01*
G01*
X124818000Y-82317000D01*
G75*
G02*
X124668000Y-82167000I0J150000D01*
G01*
X124668000Y-80517000D01*
G75*
G02*
X124818000Y-80367000I150000J0D01*
G01*
G37*
G36*
G01*
X123548000Y-80367000D02*
X123848000Y-80367000D01*
G75*
G02*
X123998000Y-80517000I0J-150000D01*
G01*
X123998000Y-82167000D01*
G75*
G02*
X123848000Y-82317000I-150000J0D01*
G01*
X123548000Y-82317000D01*
G75*
G02*
X123398000Y-82167000I0J150000D01*
G01*
X123398000Y-80517000D01*
G75*
G02*
X123548000Y-80367000I150000J0D01*
G01*
G37*
G36*
G01*
X122278000Y-80367000D02*
X122578000Y-80367000D01*
G75*
G02*
X122728000Y-80517000I0J-150000D01*
G01*
X122728000Y-82167000D01*
G75*
G02*
X122578000Y-82317000I-150000J0D01*
G01*
X122278000Y-82317000D01*
G75*
G02*
X122128000Y-82167000I0J150000D01*
G01*
X122128000Y-80517000D01*
G75*
G02*
X122278000Y-80367000I150000J0D01*
G01*
G37*
G36*
G01*
X122278000Y-75417000D02*
X122578000Y-75417000D01*
G75*
G02*
X122728000Y-75567000I0J-150000D01*
G01*
X122728000Y-77217000D01*
G75*
G02*
X122578000Y-77367000I-150000J0D01*
G01*
X122278000Y-77367000D01*
G75*
G02*
X122128000Y-77217000I0J150000D01*
G01*
X122128000Y-75567000D01*
G75*
G02*
X122278000Y-75417000I150000J0D01*
G01*
G37*
G36*
G01*
X123548000Y-75417000D02*
X123848000Y-75417000D01*
G75*
G02*
X123998000Y-75567000I0J-150000D01*
G01*
X123998000Y-77217000D01*
G75*
G02*
X123848000Y-77367000I-150000J0D01*
G01*
X123548000Y-77367000D01*
G75*
G02*
X123398000Y-77217000I0J150000D01*
G01*
X123398000Y-75567000D01*
G75*
G02*
X123548000Y-75417000I150000J0D01*
G01*
G37*
G36*
G01*
X124818000Y-75417000D02*
X125118000Y-75417000D01*
G75*
G02*
X125268000Y-75567000I0J-150000D01*
G01*
X125268000Y-77217000D01*
G75*
G02*
X125118000Y-77367000I-150000J0D01*
G01*
X124818000Y-77367000D01*
G75*
G02*
X124668000Y-77217000I0J150000D01*
G01*
X124668000Y-75567000D01*
G75*
G02*
X124818000Y-75417000I150000J0D01*
G01*
G37*
G36*
G01*
X126088000Y-75417000D02*
X126388000Y-75417000D01*
G75*
G02*
X126538000Y-75567000I0J-150000D01*
G01*
X126538000Y-77217000D01*
G75*
G02*
X126388000Y-77367000I-150000J0D01*
G01*
X126088000Y-77367000D01*
G75*
G02*
X125938000Y-77217000I0J150000D01*
G01*
X125938000Y-75567000D01*
G75*
G02*
X126088000Y-75417000I150000J0D01*
G01*
G37*
G36*
G01*
X103228000Y-80367000D02*
X103528000Y-80367000D01*
G75*
G02*
X103678000Y-80517000I0J-150000D01*
G01*
X103678000Y-82167000D01*
G75*
G02*
X103528000Y-82317000I-150000J0D01*
G01*
X103228000Y-82317000D01*
G75*
G02*
X103078000Y-82167000I0J150000D01*
G01*
X103078000Y-80517000D01*
G75*
G02*
X103228000Y-80367000I150000J0D01*
G01*
G37*
G36*
G01*
X101958000Y-80367000D02*
X102258000Y-80367000D01*
G75*
G02*
X102408000Y-80517000I0J-150000D01*
G01*
X102408000Y-82167000D01*
G75*
G02*
X102258000Y-82317000I-150000J0D01*
G01*
X101958000Y-82317000D01*
G75*
G02*
X101808000Y-82167000I0J150000D01*
G01*
X101808000Y-80517000D01*
G75*
G02*
X101958000Y-80367000I150000J0D01*
G01*
G37*
G36*
G01*
X100688000Y-80367000D02*
X100988000Y-80367000D01*
G75*
G02*
X101138000Y-80517000I0J-150000D01*
G01*
X101138000Y-82167000D01*
G75*
G02*
X100988000Y-82317000I-150000J0D01*
G01*
X100688000Y-82317000D01*
G75*
G02*
X100538000Y-82167000I0J150000D01*
G01*
X100538000Y-80517000D01*
G75*
G02*
X100688000Y-80367000I150000J0D01*
G01*
G37*
G36*
G01*
X99418000Y-80367000D02*
X99718000Y-80367000D01*
G75*
G02*
X99868000Y-80517000I0J-150000D01*
G01*
X99868000Y-82167000D01*
G75*
G02*
X99718000Y-82317000I-150000J0D01*
G01*
X99418000Y-82317000D01*
G75*
G02*
X99268000Y-82167000I0J150000D01*
G01*
X99268000Y-80517000D01*
G75*
G02*
X99418000Y-80367000I150000J0D01*
G01*
G37*
G36*
G01*
X99418000Y-75417000D02*
X99718000Y-75417000D01*
G75*
G02*
X99868000Y-75567000I0J-150000D01*
G01*
X99868000Y-77217000D01*
G75*
G02*
X99718000Y-77367000I-150000J0D01*
G01*
X99418000Y-77367000D01*
G75*
G02*
X99268000Y-77217000I0J150000D01*
G01*
X99268000Y-75567000D01*
G75*
G02*
X99418000Y-75417000I150000J0D01*
G01*
G37*
G36*
G01*
X100688000Y-75417000D02*
X100988000Y-75417000D01*
G75*
G02*
X101138000Y-75567000I0J-150000D01*
G01*
X101138000Y-77217000D01*
G75*
G02*
X100988000Y-77367000I-150000J0D01*
G01*
X100688000Y-77367000D01*
G75*
G02*
X100538000Y-77217000I0J150000D01*
G01*
X100538000Y-75567000D01*
G75*
G02*
X100688000Y-75417000I150000J0D01*
G01*
G37*
G36*
G01*
X101958000Y-75417000D02*
X102258000Y-75417000D01*
G75*
G02*
X102408000Y-75567000I0J-150000D01*
G01*
X102408000Y-77217000D01*
G75*
G02*
X102258000Y-77367000I-150000J0D01*
G01*
X101958000Y-77367000D01*
G75*
G02*
X101808000Y-77217000I0J150000D01*
G01*
X101808000Y-75567000D01*
G75*
G02*
X101958000Y-75417000I150000J0D01*
G01*
G37*
G36*
G01*
X103228000Y-75417000D02*
X103528000Y-75417000D01*
G75*
G02*
X103678000Y-75567000I0J-150000D01*
G01*
X103678000Y-77217000D01*
G75*
G02*
X103528000Y-77367000I-150000J0D01*
G01*
X103228000Y-77367000D01*
G75*
G02*
X103078000Y-77217000I0J150000D01*
G01*
X103078000Y-75567000D01*
G75*
G02*
X103228000Y-75417000I150000J0D01*
G01*
G37*
G36*
G01*
X117198000Y-80367000D02*
X117498000Y-80367000D01*
G75*
G02*
X117648000Y-80517000I0J-150000D01*
G01*
X117648000Y-82167000D01*
G75*
G02*
X117498000Y-82317000I-150000J0D01*
G01*
X117198000Y-82317000D01*
G75*
G02*
X117048000Y-82167000I0J150000D01*
G01*
X117048000Y-80517000D01*
G75*
G02*
X117198000Y-80367000I150000J0D01*
G01*
G37*
G36*
G01*
X115928000Y-80367000D02*
X116228000Y-80367000D01*
G75*
G02*
X116378000Y-80517000I0J-150000D01*
G01*
X116378000Y-82167000D01*
G75*
G02*
X116228000Y-82317000I-150000J0D01*
G01*
X115928000Y-82317000D01*
G75*
G02*
X115778000Y-82167000I0J150000D01*
G01*
X115778000Y-80517000D01*
G75*
G02*
X115928000Y-80367000I150000J0D01*
G01*
G37*
G36*
G01*
X114658000Y-80367000D02*
X114958000Y-80367000D01*
G75*
G02*
X115108000Y-80517000I0J-150000D01*
G01*
X115108000Y-82167000D01*
G75*
G02*
X114958000Y-82317000I-150000J0D01*
G01*
X114658000Y-82317000D01*
G75*
G02*
X114508000Y-82167000I0J150000D01*
G01*
X114508000Y-80517000D01*
G75*
G02*
X114658000Y-80367000I150000J0D01*
G01*
G37*
G36*
G01*
X113388000Y-80367000D02*
X113688000Y-80367000D01*
G75*
G02*
X113838000Y-80517000I0J-150000D01*
G01*
X113838000Y-82167000D01*
G75*
G02*
X113688000Y-82317000I-150000J0D01*
G01*
X113388000Y-82317000D01*
G75*
G02*
X113238000Y-82167000I0J150000D01*
G01*
X113238000Y-80517000D01*
G75*
G02*
X113388000Y-80367000I150000J0D01*
G01*
G37*
G36*
G01*
X112118000Y-80367000D02*
X112418000Y-80367000D01*
G75*
G02*
X112568000Y-80517000I0J-150000D01*
G01*
X112568000Y-82167000D01*
G75*
G02*
X112418000Y-82317000I-150000J0D01*
G01*
X112118000Y-82317000D01*
G75*
G02*
X111968000Y-82167000I0J150000D01*
G01*
X111968000Y-80517000D01*
G75*
G02*
X112118000Y-80367000I150000J0D01*
G01*
G37*
G36*
G01*
X110848000Y-80367000D02*
X111148000Y-80367000D01*
G75*
G02*
X111298000Y-80517000I0J-150000D01*
G01*
X111298000Y-82167000D01*
G75*
G02*
X111148000Y-82317000I-150000J0D01*
G01*
X110848000Y-82317000D01*
G75*
G02*
X110698000Y-82167000I0J150000D01*
G01*
X110698000Y-80517000D01*
G75*
G02*
X110848000Y-80367000I150000J0D01*
G01*
G37*
G36*
G01*
X109578000Y-80367000D02*
X109878000Y-80367000D01*
G75*
G02*
X110028000Y-80517000I0J-150000D01*
G01*
X110028000Y-82167000D01*
G75*
G02*
X109878000Y-82317000I-150000J0D01*
G01*
X109578000Y-82317000D01*
G75*
G02*
X109428000Y-82167000I0J150000D01*
G01*
X109428000Y-80517000D01*
G75*
G02*
X109578000Y-80367000I150000J0D01*
G01*
G37*
G36*
G01*
X108308000Y-80367000D02*
X108608000Y-80367000D01*
G75*
G02*
X108758000Y-80517000I0J-150000D01*
G01*
X108758000Y-82167000D01*
G75*
G02*
X108608000Y-82317000I-150000J0D01*
G01*
X108308000Y-82317000D01*
G75*
G02*
X108158000Y-82167000I0J150000D01*
G01*
X108158000Y-80517000D01*
G75*
G02*
X108308000Y-80367000I150000J0D01*
G01*
G37*
G36*
G01*
X108308000Y-75417000D02*
X108608000Y-75417000D01*
G75*
G02*
X108758000Y-75567000I0J-150000D01*
G01*
X108758000Y-77217000D01*
G75*
G02*
X108608000Y-77367000I-150000J0D01*
G01*
X108308000Y-77367000D01*
G75*
G02*
X108158000Y-77217000I0J150000D01*
G01*
X108158000Y-75567000D01*
G75*
G02*
X108308000Y-75417000I150000J0D01*
G01*
G37*
G36*
G01*
X109578000Y-75417000D02*
X109878000Y-75417000D01*
G75*
G02*
X110028000Y-75567000I0J-150000D01*
G01*
X110028000Y-77217000D01*
G75*
G02*
X109878000Y-77367000I-150000J0D01*
G01*
X109578000Y-77367000D01*
G75*
G02*
X109428000Y-77217000I0J150000D01*
G01*
X109428000Y-75567000D01*
G75*
G02*
X109578000Y-75417000I150000J0D01*
G01*
G37*
G36*
G01*
X110848000Y-75417000D02*
X111148000Y-75417000D01*
G75*
G02*
X111298000Y-75567000I0J-150000D01*
G01*
X111298000Y-77217000D01*
G75*
G02*
X111148000Y-77367000I-150000J0D01*
G01*
X110848000Y-77367000D01*
G75*
G02*
X110698000Y-77217000I0J150000D01*
G01*
X110698000Y-75567000D01*
G75*
G02*
X110848000Y-75417000I150000J0D01*
G01*
G37*
G36*
G01*
X112118000Y-75417000D02*
X112418000Y-75417000D01*
G75*
G02*
X112568000Y-75567000I0J-150000D01*
G01*
X112568000Y-77217000D01*
G75*
G02*
X112418000Y-77367000I-150000J0D01*
G01*
X112118000Y-77367000D01*
G75*
G02*
X111968000Y-77217000I0J150000D01*
G01*
X111968000Y-75567000D01*
G75*
G02*
X112118000Y-75417000I150000J0D01*
G01*
G37*
G36*
G01*
X113388000Y-75417000D02*
X113688000Y-75417000D01*
G75*
G02*
X113838000Y-75567000I0J-150000D01*
G01*
X113838000Y-77217000D01*
G75*
G02*
X113688000Y-77367000I-150000J0D01*
G01*
X113388000Y-77367000D01*
G75*
G02*
X113238000Y-77217000I0J150000D01*
G01*
X113238000Y-75567000D01*
G75*
G02*
X113388000Y-75417000I150000J0D01*
G01*
G37*
G36*
G01*
X114658000Y-75417000D02*
X114958000Y-75417000D01*
G75*
G02*
X115108000Y-75567000I0J-150000D01*
G01*
X115108000Y-77217000D01*
G75*
G02*
X114958000Y-77367000I-150000J0D01*
G01*
X114658000Y-77367000D01*
G75*
G02*
X114508000Y-77217000I0J150000D01*
G01*
X114508000Y-75567000D01*
G75*
G02*
X114658000Y-75417000I150000J0D01*
G01*
G37*
G36*
G01*
X115928000Y-75417000D02*
X116228000Y-75417000D01*
G75*
G02*
X116378000Y-75567000I0J-150000D01*
G01*
X116378000Y-77217000D01*
G75*
G02*
X116228000Y-77367000I-150000J0D01*
G01*
X115928000Y-77367000D01*
G75*
G02*
X115778000Y-77217000I0J150000D01*
G01*
X115778000Y-75567000D01*
G75*
G02*
X115928000Y-75417000I150000J0D01*
G01*
G37*
G36*
G01*
X117198000Y-75417000D02*
X117498000Y-75417000D01*
G75*
G02*
X117648000Y-75567000I0J-150000D01*
G01*
X117648000Y-77217000D01*
G75*
G02*
X117498000Y-77367000I-150000J0D01*
G01*
X117198000Y-77367000D01*
G75*
G02*
X117048000Y-77217000I0J150000D01*
G01*
X117048000Y-75567000D01*
G75*
G02*
X117198000Y-75417000I150000J0D01*
G01*
G37*
G36*
G01*
X135312999Y-71697000D02*
X136213001Y-71697000D01*
G75*
G02*
X136463000Y-71946999I0J-249999D01*
G01*
X136463000Y-72597001D01*
G75*
G02*
X136213001Y-72847000I-249999J0D01*
G01*
X135312999Y-72847000D01*
G75*
G02*
X135063000Y-72597001I0J249999D01*
G01*
X135063000Y-71946999D01*
G75*
G02*
X135312999Y-71697000I249999J0D01*
G01*
G37*
G36*
G01*
X135312999Y-69647000D02*
X136213001Y-69647000D01*
G75*
G02*
X136463000Y-69896999I0J-249999D01*
G01*
X136463000Y-70547001D01*
G75*
G02*
X136213001Y-70797000I-249999J0D01*
G01*
X135312999Y-70797000D01*
G75*
G02*
X135063000Y-70547001I0J249999D01*
G01*
X135063000Y-69896999D01*
G75*
G02*
X135312999Y-69647000I249999J0D01*
G01*
G37*
G36*
G01*
X133673001Y-70797000D02*
X132772999Y-70797000D01*
G75*
G02*
X132523000Y-70547001I0J249999D01*
G01*
X132523000Y-69896999D01*
G75*
G02*
X132772999Y-69647000I249999J0D01*
G01*
X133673001Y-69647000D01*
G75*
G02*
X133923000Y-69896999I0J-249999D01*
G01*
X133923000Y-70547001D01*
G75*
G02*
X133673001Y-70797000I-249999J0D01*
G01*
G37*
G36*
G01*
X133673001Y-72847000D02*
X132772999Y-72847000D01*
G75*
G02*
X132523000Y-72597001I0J249999D01*
G01*
X132523000Y-71946999D01*
G75*
G02*
X132772999Y-71697000I249999J0D01*
G01*
X133673001Y-71697000D01*
G75*
G02*
X133923000Y-71946999I0J-249999D01*
G01*
X133923000Y-72597001D01*
G75*
G02*
X133673001Y-72847000I-249999J0D01*
G01*
G37*
G36*
G01*
X131133001Y-70797000D02*
X130232999Y-70797000D01*
G75*
G02*
X129983000Y-70547001I0J249999D01*
G01*
X129983000Y-69896999D01*
G75*
G02*
X130232999Y-69647000I249999J0D01*
G01*
X131133001Y-69647000D01*
G75*
G02*
X131383000Y-69896999I0J-249999D01*
G01*
X131383000Y-70547001D01*
G75*
G02*
X131133001Y-70797000I-249999J0D01*
G01*
G37*
G36*
G01*
X131133001Y-72847000D02*
X130232999Y-72847000D01*
G75*
G02*
X129983000Y-72597001I0J249999D01*
G01*
X129983000Y-71946999D01*
G75*
G02*
X130232999Y-71697000I249999J0D01*
G01*
X131133001Y-71697000D01*
G75*
G02*
X131383000Y-71946999I0J-249999D01*
G01*
X131383000Y-72597001D01*
G75*
G02*
X131133001Y-72847000I-249999J0D01*
G01*
G37*
G36*
G01*
X128593001Y-70797000D02*
X127692999Y-70797000D01*
G75*
G02*
X127443000Y-70547001I0J249999D01*
G01*
X127443000Y-69896999D01*
G75*
G02*
X127692999Y-69647000I249999J0D01*
G01*
X128593001Y-69647000D01*
G75*
G02*
X128843000Y-69896999I0J-249999D01*
G01*
X128843000Y-70547001D01*
G75*
G02*
X128593001Y-70797000I-249999J0D01*
G01*
G37*
G36*
G01*
X128593001Y-72847000D02*
X127692999Y-72847000D01*
G75*
G02*
X127443000Y-72597001I0J249999D01*
G01*
X127443000Y-71946999D01*
G75*
G02*
X127692999Y-71697000I249999J0D01*
G01*
X128593001Y-71697000D01*
G75*
G02*
X128843000Y-71946999I0J-249999D01*
G01*
X128843000Y-72597001D01*
G75*
G02*
X128593001Y-72847000I-249999J0D01*
G01*
G37*
G36*
G01*
X119830001Y-105459000D02*
X118929999Y-105459000D01*
G75*
G02*
X118680000Y-105209001I0J249999D01*
G01*
X118680000Y-104558999D01*
G75*
G02*
X118929999Y-104309000I249999J0D01*
G01*
X119830001Y-104309000D01*
G75*
G02*
X120080000Y-104558999I0J-249999D01*
G01*
X120080000Y-105209001D01*
G75*
G02*
X119830001Y-105459000I-249999J0D01*
G01*
G37*
G36*
G01*
X119830001Y-107509000D02*
X118929999Y-107509000D01*
G75*
G02*
X118680000Y-107259001I0J249999D01*
G01*
X118680000Y-106608999D01*
G75*
G02*
X118929999Y-106359000I249999J0D01*
G01*
X119830001Y-106359000D01*
G75*
G02*
X120080000Y-106608999I0J-249999D01*
G01*
X120080000Y-107259001D01*
G75*
G02*
X119830001Y-107509000I-249999J0D01*
G01*
G37*
G36*
G01*
X137852999Y-71697000D02*
X138753001Y-71697000D01*
G75*
G02*
X139003000Y-71946999I0J-249999D01*
G01*
X139003000Y-72597001D01*
G75*
G02*
X138753001Y-72847000I-249999J0D01*
G01*
X137852999Y-72847000D01*
G75*
G02*
X137603000Y-72597001I0J249999D01*
G01*
X137603000Y-71946999D01*
G75*
G02*
X137852999Y-71697000I249999J0D01*
G01*
G37*
G36*
G01*
X137852999Y-69647000D02*
X138753001Y-69647000D01*
G75*
G02*
X139003000Y-69896999I0J-249999D01*
G01*
X139003000Y-70547001D01*
G75*
G02*
X138753001Y-70797000I-249999J0D01*
G01*
X137852999Y-70797000D01*
G75*
G02*
X137603000Y-70547001I0J249999D01*
G01*
X137603000Y-69896999D01*
G75*
G02*
X137852999Y-69647000I249999J0D01*
G01*
G37*
G36*
G01*
X140392999Y-71697000D02*
X141293001Y-71697000D01*
G75*
G02*
X141543000Y-71946999I0J-249999D01*
G01*
X141543000Y-72597001D01*
G75*
G02*
X141293001Y-72847000I-249999J0D01*
G01*
X140392999Y-72847000D01*
G75*
G02*
X140143000Y-72597001I0J249999D01*
G01*
X140143000Y-71946999D01*
G75*
G02*
X140392999Y-71697000I249999J0D01*
G01*
G37*
G36*
G01*
X140392999Y-69647000D02*
X141293001Y-69647000D01*
G75*
G02*
X141543000Y-69896999I0J-249999D01*
G01*
X141543000Y-70547001D01*
G75*
G02*
X141293001Y-70797000I-249999J0D01*
G01*
X140392999Y-70797000D01*
G75*
G02*
X140143000Y-70547001I0J249999D01*
G01*
X140143000Y-69896999D01*
G75*
G02*
X140392999Y-69647000I249999J0D01*
G01*
G37*
G36*
G01*
X123462201Y-112503800D02*
X122562199Y-112503800D01*
G75*
G02*
X122312200Y-112253801I0J249999D01*
G01*
X122312200Y-111603799D01*
G75*
G02*
X122562199Y-111353800I249999J0D01*
G01*
X123462201Y-111353800D01*
G75*
G02*
X123712200Y-111603799I0J-249999D01*
G01*
X123712200Y-112253801D01*
G75*
G02*
X123462201Y-112503800I-249999J0D01*
G01*
G37*
G36*
G01*
X123462201Y-114553800D02*
X122562199Y-114553800D01*
G75*
G02*
X122312200Y-114303801I0J249999D01*
G01*
X122312200Y-113653799D01*
G75*
G02*
X122562199Y-113403800I249999J0D01*
G01*
X123462201Y-113403800D01*
G75*
G02*
X123712200Y-113653799I0J-249999D01*
G01*
X123712200Y-114303801D01*
G75*
G02*
X123462201Y-114553800I-249999J0D01*
G01*
G37*
G36*
G01*
X138801800Y-107652399D02*
X138801800Y-108552401D01*
G75*
G02*
X138551801Y-108802400I-249999J0D01*
G01*
X137901799Y-108802400D01*
G75*
G02*
X137651800Y-108552401I0J249999D01*
G01*
X137651800Y-107652399D01*
G75*
G02*
X137901799Y-107402400I249999J0D01*
G01*
X138551801Y-107402400D01*
G75*
G02*
X138801800Y-107652399I0J-249999D01*
G01*
G37*
G36*
G01*
X140851800Y-107652399D02*
X140851800Y-108552401D01*
G75*
G02*
X140601801Y-108802400I-249999J0D01*
G01*
X139951799Y-108802400D01*
G75*
G02*
X139701800Y-108552401I0J249999D01*
G01*
X139701800Y-107652399D01*
G75*
G02*
X139951799Y-107402400I249999J0D01*
G01*
X140601801Y-107402400D01*
G75*
G02*
X140851800Y-107652399I0J-249999D01*
G01*
G37*
G36*
G01*
X135312999Y-86937000D02*
X136213001Y-86937000D01*
G75*
G02*
X136463000Y-87186999I0J-249999D01*
G01*
X136463000Y-87837001D01*
G75*
G02*
X136213001Y-88087000I-249999J0D01*
G01*
X135312999Y-88087000D01*
G75*
G02*
X135063000Y-87837001I0J249999D01*
G01*
X135063000Y-87186999D01*
G75*
G02*
X135312999Y-86937000I249999J0D01*
G01*
G37*
G36*
G01*
X135312999Y-84887000D02*
X136213001Y-84887000D01*
G75*
G02*
X136463000Y-85136999I0J-249999D01*
G01*
X136463000Y-85787001D01*
G75*
G02*
X136213001Y-86037000I-249999J0D01*
G01*
X135312999Y-86037000D01*
G75*
G02*
X135063000Y-85787001I0J249999D01*
G01*
X135063000Y-85136999D01*
G75*
G02*
X135312999Y-84887000I249999J0D01*
G01*
G37*
G36*
G01*
X132772999Y-86937000D02*
X133673001Y-86937000D01*
G75*
G02*
X133923000Y-87186999I0J-249999D01*
G01*
X133923000Y-87837001D01*
G75*
G02*
X133673001Y-88087000I-249999J0D01*
G01*
X132772999Y-88087000D01*
G75*
G02*
X132523000Y-87837001I0J249999D01*
G01*
X132523000Y-87186999D01*
G75*
G02*
X132772999Y-86937000I249999J0D01*
G01*
G37*
G36*
G01*
X132772999Y-84887000D02*
X133673001Y-84887000D01*
G75*
G02*
X133923000Y-85136999I0J-249999D01*
G01*
X133923000Y-85787001D01*
G75*
G02*
X133673001Y-86037000I-249999J0D01*
G01*
X132772999Y-86037000D01*
G75*
G02*
X132523000Y-85787001I0J249999D01*
G01*
X132523000Y-85136999D01*
G75*
G02*
X132772999Y-84887000I249999J0D01*
G01*
G37*
G36*
G01*
X129168200Y-108552401D02*
X129168200Y-107652399D01*
G75*
G02*
X129418199Y-107402400I249999J0D01*
G01*
X130068201Y-107402400D01*
G75*
G02*
X130318200Y-107652399I0J-249999D01*
G01*
X130318200Y-108552401D01*
G75*
G02*
X130068201Y-108802400I-249999J0D01*
G01*
X129418199Y-108802400D01*
G75*
G02*
X129168200Y-108552401I0J249999D01*
G01*
G37*
G36*
G01*
X127118200Y-108552401D02*
X127118200Y-107652399D01*
G75*
G02*
X127368199Y-107402400I249999J0D01*
G01*
X128018201Y-107402400D01*
G75*
G02*
X128268200Y-107652399I0J-249999D01*
G01*
X128268200Y-108552401D01*
G75*
G02*
X128018201Y-108802400I-249999J0D01*
G01*
X127368199Y-108802400D01*
G75*
G02*
X127118200Y-108552401I0J249999D01*
G01*
G37*
G36*
G01*
X131133001Y-86037000D02*
X130232999Y-86037000D01*
G75*
G02*
X129983000Y-85787001I0J249999D01*
G01*
X129983000Y-85136999D01*
G75*
G02*
X130232999Y-84887000I249999J0D01*
G01*
X131133001Y-84887000D01*
G75*
G02*
X131383000Y-85136999I0J-249999D01*
G01*
X131383000Y-85787001D01*
G75*
G02*
X131133001Y-86037000I-249999J0D01*
G01*
G37*
G36*
G01*
X131133001Y-88087000D02*
X130232999Y-88087000D01*
G75*
G02*
X129983000Y-87837001I0J249999D01*
G01*
X129983000Y-87186999D01*
G75*
G02*
X130232999Y-86937000I249999J0D01*
G01*
X131133001Y-86937000D01*
G75*
G02*
X131383000Y-87186999I0J-249999D01*
G01*
X131383000Y-87837001D01*
G75*
G02*
X131133001Y-88087000I-249999J0D01*
G01*
G37*
G36*
G01*
X137852999Y-86937000D02*
X138753001Y-86937000D01*
G75*
G02*
X139003000Y-87186999I0J-249999D01*
G01*
X139003000Y-87837001D01*
G75*
G02*
X138753001Y-88087000I-249999J0D01*
G01*
X137852999Y-88087000D01*
G75*
G02*
X137603000Y-87837001I0J249999D01*
G01*
X137603000Y-87186999D01*
G75*
G02*
X137852999Y-86937000I249999J0D01*
G01*
G37*
G36*
G01*
X137852999Y-84887000D02*
X138753001Y-84887000D01*
G75*
G02*
X139003000Y-85136999I0J-249999D01*
G01*
X139003000Y-85787001D01*
G75*
G02*
X138753001Y-86037000I-249999J0D01*
G01*
X137852999Y-86037000D01*
G75*
G02*
X137603000Y-85787001I0J249999D01*
G01*
X137603000Y-85136999D01*
G75*
G02*
X137852999Y-84887000I249999J0D01*
G01*
G37*
G36*
G01*
X119703001Y-74933500D02*
X118802999Y-74933500D01*
G75*
G02*
X118553000Y-74683501I0J249999D01*
G01*
X118553000Y-74033499D01*
G75*
G02*
X118802999Y-73783500I249999J0D01*
G01*
X119703001Y-73783500D01*
G75*
G02*
X119953000Y-74033499I0J-249999D01*
G01*
X119953000Y-74683501D01*
G75*
G02*
X119703001Y-74933500I-249999J0D01*
G01*
G37*
G36*
G01*
X119703001Y-76983500D02*
X118802999Y-76983500D01*
G75*
G02*
X118553000Y-76733501I0J249999D01*
G01*
X118553000Y-76083499D01*
G75*
G02*
X118802999Y-75833500I249999J0D01*
G01*
X119703001Y-75833500D01*
G75*
G02*
X119953000Y-76083499I0J-249999D01*
G01*
X119953000Y-76733501D01*
G75*
G02*
X119703001Y-76983500I-249999J0D01*
G01*
G37*
G36*
G01*
X118687001Y-97467000D02*
X117786999Y-97467000D01*
G75*
G02*
X117537000Y-97217001I0J249999D01*
G01*
X117537000Y-96566999D01*
G75*
G02*
X117786999Y-96317000I249999J0D01*
G01*
X118687001Y-96317000D01*
G75*
G02*
X118937000Y-96566999I0J-249999D01*
G01*
X118937000Y-97217001D01*
G75*
G02*
X118687001Y-97467000I-249999J0D01*
G01*
G37*
G36*
G01*
X118687001Y-99517000D02*
X117786999Y-99517000D01*
G75*
G02*
X117537000Y-99267001I0J249999D01*
G01*
X117537000Y-98616999D01*
G75*
G02*
X117786999Y-98367000I249999J0D01*
G01*
X118687001Y-98367000D01*
G75*
G02*
X118937000Y-98616999I0J-249999D01*
G01*
X118937000Y-99267001D01*
G75*
G02*
X118687001Y-99517000I-249999J0D01*
G01*
G37*
G36*
G01*
X107245999Y-98231000D02*
X108146001Y-98231000D01*
G75*
G02*
X108396000Y-98480999I0J-249999D01*
G01*
X108396000Y-99131001D01*
G75*
G02*
X108146001Y-99381000I-249999J0D01*
G01*
X107245999Y-99381000D01*
G75*
G02*
X106996000Y-99131001I0J249999D01*
G01*
X106996000Y-98480999D01*
G75*
G02*
X107245999Y-98231000I249999J0D01*
G01*
G37*
G36*
G01*
X107245999Y-96181000D02*
X108146001Y-96181000D01*
G75*
G02*
X108396000Y-96430999I0J-249999D01*
G01*
X108396000Y-97081001D01*
G75*
G02*
X108146001Y-97331000I-249999J0D01*
G01*
X107245999Y-97331000D01*
G75*
G02*
X106996000Y-97081001I0J249999D01*
G01*
X106996000Y-96430999D01*
G75*
G02*
X107245999Y-96181000I249999J0D01*
G01*
G37*
G36*
G01*
X104959999Y-98231000D02*
X105860001Y-98231000D01*
G75*
G02*
X106110000Y-98480999I0J-249999D01*
G01*
X106110000Y-99131001D01*
G75*
G02*
X105860001Y-99381000I-249999J0D01*
G01*
X104959999Y-99381000D01*
G75*
G02*
X104710000Y-99131001I0J249999D01*
G01*
X104710000Y-98480999D01*
G75*
G02*
X104959999Y-98231000I249999J0D01*
G01*
G37*
G36*
G01*
X104959999Y-96181000D02*
X105860001Y-96181000D01*
G75*
G02*
X106110000Y-96430999I0J-249999D01*
G01*
X106110000Y-97081001D01*
G75*
G02*
X105860001Y-97331000I-249999J0D01*
G01*
X104959999Y-97331000D01*
G75*
G02*
X104710000Y-97081001I0J249999D01*
G01*
X104710000Y-96430999D01*
G75*
G02*
X104959999Y-96181000I249999J0D01*
G01*
G37*
G36*
G01*
X105733001Y-86037000D02*
X104832999Y-86037000D01*
G75*
G02*
X104583000Y-85787001I0J249999D01*
G01*
X104583000Y-85136999D01*
G75*
G02*
X104832999Y-84887000I249999J0D01*
G01*
X105733001Y-84887000D01*
G75*
G02*
X105983000Y-85136999I0J-249999D01*
G01*
X105983000Y-85787001D01*
G75*
G02*
X105733001Y-86037000I-249999J0D01*
G01*
G37*
G36*
G01*
X105733001Y-88087000D02*
X104832999Y-88087000D01*
G75*
G02*
X104583000Y-87837001I0J249999D01*
G01*
X104583000Y-87186999D01*
G75*
G02*
X104832999Y-86937000I249999J0D01*
G01*
X105733001Y-86937000D01*
G75*
G02*
X105983000Y-87186999I0J-249999D01*
G01*
X105983000Y-87837001D01*
G75*
G02*
X105733001Y-88087000I-249999J0D01*
G01*
G37*
G36*
G01*
X110813001Y-86037000D02*
X109912999Y-86037000D01*
G75*
G02*
X109663000Y-85787001I0J249999D01*
G01*
X109663000Y-85136999D01*
G75*
G02*
X109912999Y-84887000I249999J0D01*
G01*
X110813001Y-84887000D01*
G75*
G02*
X111063000Y-85136999I0J-249999D01*
G01*
X111063000Y-85787001D01*
G75*
G02*
X110813001Y-86037000I-249999J0D01*
G01*
G37*
G36*
G01*
X110813001Y-88087000D02*
X109912999Y-88087000D01*
G75*
G02*
X109663000Y-87837001I0J249999D01*
G01*
X109663000Y-87186999D01*
G75*
G02*
X109912999Y-86937000I249999J0D01*
G01*
X110813001Y-86937000D01*
G75*
G02*
X111063000Y-87186999I0J-249999D01*
G01*
X111063000Y-87837001D01*
G75*
G02*
X110813001Y-88087000I-249999J0D01*
G01*
G37*
G36*
G01*
X107372999Y-86937000D02*
X108273001Y-86937000D01*
G75*
G02*
X108523000Y-87186999I0J-249999D01*
G01*
X108523000Y-87837001D01*
G75*
G02*
X108273001Y-88087000I-249999J0D01*
G01*
X107372999Y-88087000D01*
G75*
G02*
X107123000Y-87837001I0J249999D01*
G01*
X107123000Y-87186999D01*
G75*
G02*
X107372999Y-86937000I249999J0D01*
G01*
G37*
G36*
G01*
X107372999Y-84887000D02*
X108273001Y-84887000D01*
G75*
G02*
X108523000Y-85136999I0J-249999D01*
G01*
X108523000Y-85787001D01*
G75*
G02*
X108273001Y-86037000I-249999J0D01*
G01*
X107372999Y-86037000D01*
G75*
G02*
X107123000Y-85787001I0J249999D01*
G01*
X107123000Y-85136999D01*
G75*
G02*
X107372999Y-84887000I249999J0D01*
G01*
G37*
G36*
G01*
X123513001Y-86037000D02*
X122612999Y-86037000D01*
G75*
G02*
X122363000Y-85787001I0J249999D01*
G01*
X122363000Y-85136999D01*
G75*
G02*
X122612999Y-84887000I249999J0D01*
G01*
X123513001Y-84887000D01*
G75*
G02*
X123763000Y-85136999I0J-249999D01*
G01*
X123763000Y-85787001D01*
G75*
G02*
X123513001Y-86037000I-249999J0D01*
G01*
G37*
G36*
G01*
X123513001Y-88087000D02*
X122612999Y-88087000D01*
G75*
G02*
X122363000Y-87837001I0J249999D01*
G01*
X122363000Y-87186999D01*
G75*
G02*
X122612999Y-86937000I249999J0D01*
G01*
X123513001Y-86937000D01*
G75*
G02*
X123763000Y-87186999I0J-249999D01*
G01*
X123763000Y-87837001D01*
G75*
G02*
X123513001Y-88087000I-249999J0D01*
G01*
G37*
G36*
G01*
X118433001Y-86037000D02*
X117532999Y-86037000D01*
G75*
G02*
X117283000Y-85787001I0J249999D01*
G01*
X117283000Y-85136999D01*
G75*
G02*
X117532999Y-84887000I249999J0D01*
G01*
X118433001Y-84887000D01*
G75*
G02*
X118683000Y-85136999I0J-249999D01*
G01*
X118683000Y-85787001D01*
G75*
G02*
X118433001Y-86037000I-249999J0D01*
G01*
G37*
G36*
G01*
X118433001Y-88087000D02*
X117532999Y-88087000D01*
G75*
G02*
X117283000Y-87837001I0J249999D01*
G01*
X117283000Y-87186999D01*
G75*
G02*
X117532999Y-86937000I249999J0D01*
G01*
X118433001Y-86937000D01*
G75*
G02*
X118683000Y-87186999I0J-249999D01*
G01*
X118683000Y-87837001D01*
G75*
G02*
X118433001Y-88087000I-249999J0D01*
G01*
G37*
G36*
G01*
X120072999Y-86937000D02*
X120973001Y-86937000D01*
G75*
G02*
X121223000Y-87186999I0J-249999D01*
G01*
X121223000Y-87837001D01*
G75*
G02*
X120973001Y-88087000I-249999J0D01*
G01*
X120072999Y-88087000D01*
G75*
G02*
X119823000Y-87837001I0J249999D01*
G01*
X119823000Y-87186999D01*
G75*
G02*
X120072999Y-86937000I249999J0D01*
G01*
G37*
G36*
G01*
X120072999Y-84887000D02*
X120973001Y-84887000D01*
G75*
G02*
X121223000Y-85136999I0J-249999D01*
G01*
X121223000Y-85787001D01*
G75*
G02*
X120973001Y-86037000I-249999J0D01*
G01*
X120072999Y-86037000D01*
G75*
G02*
X119823000Y-85787001I0J249999D01*
G01*
X119823000Y-85136999D01*
G75*
G02*
X120072999Y-84887000I249999J0D01*
G01*
G37*
G36*
G01*
X122612999Y-71697000D02*
X123513001Y-71697000D01*
G75*
G02*
X123763000Y-71946999I0J-249999D01*
G01*
X123763000Y-72597001D01*
G75*
G02*
X123513001Y-72847000I-249999J0D01*
G01*
X122612999Y-72847000D01*
G75*
G02*
X122363000Y-72597001I0J249999D01*
G01*
X122363000Y-71946999D01*
G75*
G02*
X122612999Y-71697000I249999J0D01*
G01*
G37*
G36*
G01*
X122612999Y-69647000D02*
X123513001Y-69647000D01*
G75*
G02*
X123763000Y-69896999I0J-249999D01*
G01*
X123763000Y-70547001D01*
G75*
G02*
X123513001Y-70797000I-249999J0D01*
G01*
X122612999Y-70797000D01*
G75*
G02*
X122363000Y-70547001I0J249999D01*
G01*
X122363000Y-69896999D01*
G75*
G02*
X122612999Y-69647000I249999J0D01*
G01*
G37*
G36*
G01*
X117532999Y-71697000D02*
X118433001Y-71697000D01*
G75*
G02*
X118683000Y-71946999I0J-249999D01*
G01*
X118683000Y-72597001D01*
G75*
G02*
X118433001Y-72847000I-249999J0D01*
G01*
X117532999Y-72847000D01*
G75*
G02*
X117283000Y-72597001I0J249999D01*
G01*
X117283000Y-71946999D01*
G75*
G02*
X117532999Y-71697000I249999J0D01*
G01*
G37*
G36*
G01*
X117532999Y-69647000D02*
X118433001Y-69647000D01*
G75*
G02*
X118683000Y-69896999I0J-249999D01*
G01*
X118683000Y-70547001D01*
G75*
G02*
X118433001Y-70797000I-249999J0D01*
G01*
X117532999Y-70797000D01*
G75*
G02*
X117283000Y-70547001I0J249999D01*
G01*
X117283000Y-69896999D01*
G75*
G02*
X117532999Y-69647000I249999J0D01*
G01*
G37*
G36*
G01*
X120973001Y-70797000D02*
X120072999Y-70797000D01*
G75*
G02*
X119823000Y-70547001I0J249999D01*
G01*
X119823000Y-69896999D01*
G75*
G02*
X120072999Y-69647000I249999J0D01*
G01*
X120973001Y-69647000D01*
G75*
G02*
X121223000Y-69896999I0J-249999D01*
G01*
X121223000Y-70547001D01*
G75*
G02*
X120973001Y-70797000I-249999J0D01*
G01*
G37*
G36*
G01*
X120973001Y-72847000D02*
X120072999Y-72847000D01*
G75*
G02*
X119823000Y-72597001I0J249999D01*
G01*
X119823000Y-71946999D01*
G75*
G02*
X120072999Y-71697000I249999J0D01*
G01*
X120973001Y-71697000D01*
G75*
G02*
X121223000Y-71946999I0J-249999D01*
G01*
X121223000Y-72597001D01*
G75*
G02*
X120973001Y-72847000I-249999J0D01*
G01*
G37*
G36*
G01*
X93668001Y-95816000D02*
X92767999Y-95816000D01*
G75*
G02*
X92518000Y-95566001I0J249999D01*
G01*
X92518000Y-94915999D01*
G75*
G02*
X92767999Y-94666000I249999J0D01*
G01*
X93668001Y-94666000D01*
G75*
G02*
X93918000Y-94915999I0J-249999D01*
G01*
X93918000Y-95566001D01*
G75*
G02*
X93668001Y-95816000I-249999J0D01*
G01*
G37*
G36*
G01*
X93668001Y-97866000D02*
X92767999Y-97866000D01*
G75*
G02*
X92518000Y-97616001I0J249999D01*
G01*
X92518000Y-96965999D01*
G75*
G02*
X92767999Y-96716000I249999J0D01*
G01*
X93668001Y-96716000D01*
G75*
G02*
X93918000Y-96965999I0J-249999D01*
G01*
X93918000Y-97616001D01*
G75*
G02*
X93668001Y-97866000I-249999J0D01*
G01*
G37*
G36*
G01*
X107372999Y-71697000D02*
X108273001Y-71697000D01*
G75*
G02*
X108523000Y-71946999I0J-249999D01*
G01*
X108523000Y-72597001D01*
G75*
G02*
X108273001Y-72847000I-249999J0D01*
G01*
X107372999Y-72847000D01*
G75*
G02*
X107123000Y-72597001I0J249999D01*
G01*
X107123000Y-71946999D01*
G75*
G02*
X107372999Y-71697000I249999J0D01*
G01*
G37*
G36*
G01*
X107372999Y-69647000D02*
X108273001Y-69647000D01*
G75*
G02*
X108523000Y-69896999I0J-249999D01*
G01*
X108523000Y-70547001D01*
G75*
G02*
X108273001Y-70797000I-249999J0D01*
G01*
X107372999Y-70797000D01*
G75*
G02*
X107123000Y-70547001I0J249999D01*
G01*
X107123000Y-69896999D01*
G75*
G02*
X107372999Y-69647000I249999J0D01*
G01*
G37*
G36*
G01*
X109912999Y-71697000D02*
X110813001Y-71697000D01*
G75*
G02*
X111063000Y-71946999I0J-249999D01*
G01*
X111063000Y-72597001D01*
G75*
G02*
X110813001Y-72847000I-249999J0D01*
G01*
X109912999Y-72847000D01*
G75*
G02*
X109663000Y-72597001I0J249999D01*
G01*
X109663000Y-71946999D01*
G75*
G02*
X109912999Y-71697000I249999J0D01*
G01*
G37*
G36*
G01*
X109912999Y-69647000D02*
X110813001Y-69647000D01*
G75*
G02*
X111063000Y-69896999I0J-249999D01*
G01*
X111063000Y-70547001D01*
G75*
G02*
X110813001Y-70797000I-249999J0D01*
G01*
X109912999Y-70797000D01*
G75*
G02*
X109663000Y-70547001I0J249999D01*
G01*
X109663000Y-69896999D01*
G75*
G02*
X109912999Y-69647000I249999J0D01*
G01*
G37*
G36*
G01*
X105733001Y-70797000D02*
X104832999Y-70797000D01*
G75*
G02*
X104583000Y-70547001I0J249999D01*
G01*
X104583000Y-69896999D01*
G75*
G02*
X104832999Y-69647000I249999J0D01*
G01*
X105733001Y-69647000D01*
G75*
G02*
X105983000Y-69896999I0J-249999D01*
G01*
X105983000Y-70547001D01*
G75*
G02*
X105733001Y-70797000I-249999J0D01*
G01*
G37*
G36*
G01*
X105733001Y-72847000D02*
X104832999Y-72847000D01*
G75*
G02*
X104583000Y-72597001I0J249999D01*
G01*
X104583000Y-71946999D01*
G75*
G02*
X104832999Y-71697000I249999J0D01*
G01*
X105733001Y-71697000D01*
G75*
G02*
X105983000Y-71946999I0J-249999D01*
G01*
X105983000Y-72597001D01*
G75*
G02*
X105733001Y-72847000I-249999J0D01*
G01*
G37*
G36*
G01*
X103193001Y-70797000D02*
X102292999Y-70797000D01*
G75*
G02*
X102043000Y-70547001I0J249999D01*
G01*
X102043000Y-69896999D01*
G75*
G02*
X102292999Y-69647000I249999J0D01*
G01*
X103193001Y-69647000D01*
G75*
G02*
X103443000Y-69896999I0J-249999D01*
G01*
X103443000Y-70547001D01*
G75*
G02*
X103193001Y-70797000I-249999J0D01*
G01*
G37*
G36*
G01*
X103193001Y-72847000D02*
X102292999Y-72847000D01*
G75*
G02*
X102043000Y-72597001I0J249999D01*
G01*
X102043000Y-71946999D01*
G75*
G02*
X102292999Y-71697000I249999J0D01*
G01*
X103193001Y-71697000D01*
G75*
G02*
X103443000Y-71946999I0J-249999D01*
G01*
X103443000Y-72597001D01*
G75*
G02*
X103193001Y-72847000I-249999J0D01*
G01*
G37*
G36*
G01*
X95954001Y-82599000D02*
X95053999Y-82599000D01*
G75*
G02*
X94804000Y-82349001I0J249999D01*
G01*
X94804000Y-81698999D01*
G75*
G02*
X95053999Y-81449000I249999J0D01*
G01*
X95954001Y-81449000D01*
G75*
G02*
X96204000Y-81698999I0J-249999D01*
G01*
X96204000Y-82349001D01*
G75*
G02*
X95954001Y-82599000I-249999J0D01*
G01*
G37*
G36*
G01*
X95954001Y-84649000D02*
X95053999Y-84649000D01*
G75*
G02*
X94804000Y-84399001I0J249999D01*
G01*
X94804000Y-83748999D01*
G75*
G02*
X95053999Y-83499000I249999J0D01*
G01*
X95954001Y-83499000D01*
G75*
G02*
X96204000Y-83748999I0J-249999D01*
G01*
X96204000Y-84399001D01*
G75*
G02*
X95954001Y-84649000I-249999J0D01*
G01*
G37*
G36*
G01*
X92767999Y-90620000D02*
X93668001Y-90620000D01*
G75*
G02*
X93918000Y-90869999I0J-249999D01*
G01*
X93918000Y-91520001D01*
G75*
G02*
X93668001Y-91770000I-249999J0D01*
G01*
X92767999Y-91770000D01*
G75*
G02*
X92518000Y-91520001I0J249999D01*
G01*
X92518000Y-90869999D01*
G75*
G02*
X92767999Y-90620000I249999J0D01*
G01*
G37*
G36*
G01*
X92767999Y-88570000D02*
X93668001Y-88570000D01*
G75*
G02*
X93918000Y-88819999I0J-249999D01*
G01*
X93918000Y-89470001D01*
G75*
G02*
X93668001Y-89720000I-249999J0D01*
G01*
X92767999Y-89720000D01*
G75*
G02*
X92518000Y-89470001I0J249999D01*
G01*
X92518000Y-88819999D01*
G75*
G02*
X92767999Y-88570000I249999J0D01*
G01*
G37*
D11*
X128830200Y-112953800D03*
X125830200Y-113903800D03*
X125830200Y-112003800D03*
X135688200Y-112953800D03*
X132688200Y-113903800D03*
X132688200Y-112003800D03*
X142570200Y-112953800D03*
X139570200Y-113903800D03*
X139570200Y-112003800D03*
D12*
X135638200Y-107146799D03*
X135638200Y-108096799D03*
X135638200Y-109046799D03*
X132738200Y-109046799D03*
X132738200Y-108096799D03*
X132738200Y-107146799D03*
D13*
X99314000Y-91440000D03*
X98364000Y-88440000D03*
X100264000Y-88440000D03*
X99314000Y-97282000D03*
X98364000Y-94282000D03*
X100264000Y-94282000D03*
D10*
X143967200Y-110285800D03*
X143967200Y-106985800D03*
X116332000Y-108076000D03*
X116332000Y-104776000D03*
X95758000Y-91438000D03*
X95758000Y-88138000D03*
X95758000Y-95124000D03*
X95758000Y-98424000D03*
G36*
G01*
X116147001Y-97467000D02*
X115246999Y-97467000D01*
G75*
G02*
X114997000Y-97217001I0J249999D01*
G01*
X114997000Y-96566999D01*
G75*
G02*
X115246999Y-96317000I249999J0D01*
G01*
X116147001Y-96317000D01*
G75*
G02*
X116397000Y-96566999I0J-249999D01*
G01*
X116397000Y-97217001D01*
G75*
G02*
X116147001Y-97467000I-249999J0D01*
G01*
G37*
G36*
G01*
X116147001Y-99517000D02*
X115246999Y-99517000D01*
G75*
G02*
X114997000Y-99267001I0J249999D01*
G01*
X114997000Y-98616999D01*
G75*
G02*
X115246999Y-98367000I249999J0D01*
G01*
X116147001Y-98367000D01*
G75*
G02*
X116397000Y-98616999I0J-249999D01*
G01*
X116397000Y-99267001D01*
G75*
G02*
X116147001Y-99517000I-249999J0D01*
G01*
G37*
G36*
G01*
X103193001Y-86037000D02*
X102292999Y-86037000D01*
G75*
G02*
X102043000Y-85787001I0J249999D01*
G01*
X102043000Y-85136999D01*
G75*
G02*
X102292999Y-84887000I249999J0D01*
G01*
X103193001Y-84887000D01*
G75*
G02*
X103443000Y-85136999I0J-249999D01*
G01*
X103443000Y-85787001D01*
G75*
G02*
X103193001Y-86037000I-249999J0D01*
G01*
G37*
G36*
G01*
X103193001Y-88087000D02*
X102292999Y-88087000D01*
G75*
G02*
X102043000Y-87837001I0J249999D01*
G01*
X102043000Y-87186999D01*
G75*
G02*
X102292999Y-86937000I249999J0D01*
G01*
X103193001Y-86937000D01*
G75*
G02*
X103443000Y-87186999I0J-249999D01*
G01*
X103443000Y-87837001D01*
G75*
G02*
X103193001Y-88087000I-249999J0D01*
G01*
G37*
G36*
G01*
X112452999Y-86937000D02*
X113353001Y-86937000D01*
G75*
G02*
X113603000Y-87186999I0J-249999D01*
G01*
X113603000Y-87837001D01*
G75*
G02*
X113353001Y-88087000I-249999J0D01*
G01*
X112452999Y-88087000D01*
G75*
G02*
X112203000Y-87837001I0J249999D01*
G01*
X112203000Y-87186999D01*
G75*
G02*
X112452999Y-86937000I249999J0D01*
G01*
G37*
G36*
G01*
X112452999Y-84887000D02*
X113353001Y-84887000D01*
G75*
G02*
X113603000Y-85136999I0J-249999D01*
G01*
X113603000Y-85787001D01*
G75*
G02*
X113353001Y-86037000I-249999J0D01*
G01*
X112452999Y-86037000D01*
G75*
G02*
X112203000Y-85787001I0J249999D01*
G01*
X112203000Y-85136999D01*
G75*
G02*
X112452999Y-84887000I249999J0D01*
G01*
G37*
G36*
G01*
X126053001Y-86037000D02*
X125152999Y-86037000D01*
G75*
G02*
X124903000Y-85787001I0J249999D01*
G01*
X124903000Y-85136999D01*
G75*
G02*
X125152999Y-84887000I249999J0D01*
G01*
X126053001Y-84887000D01*
G75*
G02*
X126303000Y-85136999I0J-249999D01*
G01*
X126303000Y-85787001D01*
G75*
G02*
X126053001Y-86037000I-249999J0D01*
G01*
G37*
G36*
G01*
X126053001Y-88087000D02*
X125152999Y-88087000D01*
G75*
G02*
X124903000Y-87837001I0J249999D01*
G01*
X124903000Y-87186999D01*
G75*
G02*
X125152999Y-86937000I249999J0D01*
G01*
X126053001Y-86937000D01*
G75*
G02*
X126303000Y-87186999I0J-249999D01*
G01*
X126303000Y-87837001D01*
G75*
G02*
X126053001Y-88087000I-249999J0D01*
G01*
G37*
G36*
G01*
X114992999Y-86937000D02*
X115893001Y-86937000D01*
G75*
G02*
X116143000Y-87186999I0J-249999D01*
G01*
X116143000Y-87837001D01*
G75*
G02*
X115893001Y-88087000I-249999J0D01*
G01*
X114992999Y-88087000D01*
G75*
G02*
X114743000Y-87837001I0J249999D01*
G01*
X114743000Y-87186999D01*
G75*
G02*
X114992999Y-86937000I249999J0D01*
G01*
G37*
G36*
G01*
X114992999Y-84887000D02*
X115893001Y-84887000D01*
G75*
G02*
X116143000Y-85136999I0J-249999D01*
G01*
X116143000Y-85787001D01*
G75*
G02*
X115893001Y-86037000I-249999J0D01*
G01*
X114992999Y-86037000D01*
G75*
G02*
X114743000Y-85787001I0J249999D01*
G01*
X114743000Y-85136999D01*
G75*
G02*
X114992999Y-84887000I249999J0D01*
G01*
G37*
G36*
G01*
X125152999Y-71697000D02*
X126053001Y-71697000D01*
G75*
G02*
X126303000Y-71946999I0J-249999D01*
G01*
X126303000Y-72597001D01*
G75*
G02*
X126053001Y-72847000I-249999J0D01*
G01*
X125152999Y-72847000D01*
G75*
G02*
X124903000Y-72597001I0J249999D01*
G01*
X124903000Y-71946999D01*
G75*
G02*
X125152999Y-71697000I249999J0D01*
G01*
G37*
G36*
G01*
X125152999Y-69647000D02*
X126053001Y-69647000D01*
G75*
G02*
X126303000Y-69896999I0J-249999D01*
G01*
X126303000Y-70547001D01*
G75*
G02*
X126053001Y-70797000I-249999J0D01*
G01*
X125152999Y-70797000D01*
G75*
G02*
X124903000Y-70547001I0J249999D01*
G01*
X124903000Y-69896999D01*
G75*
G02*
X125152999Y-69647000I249999J0D01*
G01*
G37*
G36*
G01*
X115893001Y-70797000D02*
X114992999Y-70797000D01*
G75*
G02*
X114743000Y-70547001I0J249999D01*
G01*
X114743000Y-69896999D01*
G75*
G02*
X114992999Y-69647000I249999J0D01*
G01*
X115893001Y-69647000D01*
G75*
G02*
X116143000Y-69896999I0J-249999D01*
G01*
X116143000Y-70547001D01*
G75*
G02*
X115893001Y-70797000I-249999J0D01*
G01*
G37*
G36*
G01*
X115893001Y-72847000D02*
X114992999Y-72847000D01*
G75*
G02*
X114743000Y-72597001I0J249999D01*
G01*
X114743000Y-71946999D01*
G75*
G02*
X114992999Y-71697000I249999J0D01*
G01*
X115893001Y-71697000D01*
G75*
G02*
X116143000Y-71946999I0J-249999D01*
G01*
X116143000Y-72597001D01*
G75*
G02*
X115893001Y-72847000I-249999J0D01*
G01*
G37*
G36*
G01*
X99752999Y-71697000D02*
X100653001Y-71697000D01*
G75*
G02*
X100903000Y-71946999I0J-249999D01*
G01*
X100903000Y-72597001D01*
G75*
G02*
X100653001Y-72847000I-249999J0D01*
G01*
X99752999Y-72847000D01*
G75*
G02*
X99503000Y-72597001I0J249999D01*
G01*
X99503000Y-71946999D01*
G75*
G02*
X99752999Y-71697000I249999J0D01*
G01*
G37*
G36*
G01*
X99752999Y-69647000D02*
X100653001Y-69647000D01*
G75*
G02*
X100903000Y-69896999I0J-249999D01*
G01*
X100903000Y-70547001D01*
G75*
G02*
X100653001Y-70797000I-249999J0D01*
G01*
X99752999Y-70797000D01*
G75*
G02*
X99503000Y-70547001I0J249999D01*
G01*
X99503000Y-69896999D01*
G75*
G02*
X99752999Y-69647000I249999J0D01*
G01*
G37*
G36*
G01*
X113353001Y-70797000D02*
X112452999Y-70797000D01*
G75*
G02*
X112203000Y-70547001I0J249999D01*
G01*
X112203000Y-69896999D01*
G75*
G02*
X112452999Y-69647000I249999J0D01*
G01*
X113353001Y-69647000D01*
G75*
G02*
X113603000Y-69896999I0J-249999D01*
G01*
X113603000Y-70547001D01*
G75*
G02*
X113353001Y-70797000I-249999J0D01*
G01*
G37*
G36*
G01*
X113353001Y-72847000D02*
X112452999Y-72847000D01*
G75*
G02*
X112203000Y-72597001I0J249999D01*
G01*
X112203000Y-71946999D01*
G75*
G02*
X112452999Y-71697000I249999J0D01*
G01*
X113353001Y-71697000D01*
G75*
G02*
X113603000Y-71946999I0J-249999D01*
G01*
X113603000Y-72597001D01*
G75*
G02*
X113353001Y-72847000I-249999J0D01*
G01*
G37*
M02*
