M48
; DRILL file {KiCad 5.1.6-c6e7f7d~87~ubuntu18.04.1} date Wed Aug 19 11:53:34 2020
; FORMAT={3:3/ absolute / metric / suppress leading zeros}
; #@! TF.CreationDate,2020-08-19T11:53:34-04:00
; #@! TF.GenerationSoftware,Kicad,Pcbnew,5.1.6-c6e7f7d~87~ubuntu18.04.1
FMAT,2
METRIC,TZ
T1C0.400
T2C0.800
T3C1.000
%
G90
G05
T1
X95707Y-87262
X99822Y-73660
X101219Y-83947
X102108Y-74752
X103759Y-70993
X104005Y-79434
X104140Y-78359
X104267Y-74168
X104775Y-83947
X106185Y-71120
X109102Y-72272
X109211Y-85462
X109601Y-83058
X109728Y-74930
X110998Y-74968
X110998Y-82804
X111811Y-99619
X114808Y-74930
X114808Y-82804
X116078Y-74803
X116332Y-82804
X117729Y-79375
X119262Y-85462
X119262Y-72272
X120523Y-76391
X120523Y-79375
X121793Y-98425
X123977Y-110947
X124587Y-78359
X124714Y-79375
X126746Y-86487
X127189Y-100265
X127381Y-74930
X130810Y-82931
X132013Y-85462
X132207Y-71120
X132791Y-109880
X134502Y-87512
X134557Y-79375
X135636Y-78359
X135788Y-106375
X136042Y-84023
X137033Y-71120
X137096Y-89344
X137312Y-98603
X140665Y-106020
X140818Y-73254
T2
X97790Y-81915
X97790Y-96774
X98425Y-86360
X105918Y-76200
X107442Y-78359
X107442Y-81280
X113665Y-115570
X114173Y-72263
X114173Y-85471
X119888Y-81026
X121031Y-102235
X123698Y-74676
X126238Y-105156
X127508Y-101727
X128905Y-87503
X128905Y-115570
X129159Y-76454
X129667Y-93599
X133858Y-97536
X133985Y-93218
X138557Y-93218
X138557Y-97536
X142037Y-108001
X142240Y-115570
X142900Y-101905
X143764Y-90551
X147422Y-91796
X148336Y-79248
X105410Y-106680
X105410Y-109220
X105410Y-111760
X140375Y-81090
X142875Y-81090
X99060Y-106680
X99060Y-109220
X99060Y-111760
X111760Y-106680
X111760Y-109220
X111760Y-111760
T3
X147320Y-96520
X147320Y-99060
X147320Y-101600
X147320Y-104140
X147320Y-106680
X147320Y-109220
X147320Y-111760
X147320Y-114300
X147320Y-68580
X147320Y-71120
X147320Y-73660
X147320Y-76200
X93980Y-106680
X93980Y-109220
X93980Y-111760
X93980Y-114300
X93980Y-68580
X93980Y-71120
X93980Y-73660
X93980Y-76200
T0
M30
