G04 #@! TF.GenerationSoftware,KiCad,Pcbnew,5.1.6-c6e7f7d~87~ubuntu18.04.1*
G04 #@! TF.CreationDate,2020-08-19T11:53:39-04:00*
G04 #@! TF.ProjectId,four_pole_lpf,666f7572-5f70-46f6-9c65-5f6c70662e6b,rev?*
G04 #@! TF.SameCoordinates,Original*
G04 #@! TF.FileFunction,Legend,Bot*
G04 #@! TF.FilePolarity,Positive*
%FSLAX46Y46*%
G04 Gerber Fmt 4.6, Leading zero omitted, Abs format (unit mm)*
G04 Created by KiCad (PCBNEW 5.1.6-c6e7f7d~87~ubuntu18.04.1) date 2020-08-19 11:53:39*
%MOMM*%
%LPD*%
G01*
G04 APERTURE LIST*
%ADD10C,0.150000*%
%ADD11C,0.120000*%
G04 APERTURE END LIST*
D10*
X144746023Y-68604761D02*
X144603166Y-68652380D01*
X144365071Y-68652380D01*
X144269833Y-68604761D01*
X144222214Y-68557142D01*
X144174595Y-68461904D01*
X144174595Y-68366666D01*
X144222214Y-68271428D01*
X144269833Y-68223809D01*
X144365071Y-68176190D01*
X144555547Y-68128571D01*
X144650785Y-68080952D01*
X144698404Y-68033333D01*
X144746023Y-67938095D01*
X144746023Y-67842857D01*
X144698404Y-67747619D01*
X144650785Y-67700000D01*
X144555547Y-67652380D01*
X144317452Y-67652380D01*
X144174595Y-67700000D01*
X143793642Y-68604761D02*
X143650785Y-68652380D01*
X143412690Y-68652380D01*
X143317452Y-68604761D01*
X143269833Y-68557142D01*
X143222214Y-68461904D01*
X143222214Y-68366666D01*
X143269833Y-68271428D01*
X143317452Y-68223809D01*
X143412690Y-68176190D01*
X143603166Y-68128571D01*
X143698404Y-68080952D01*
X143746023Y-68033333D01*
X143793642Y-67938095D01*
X143793642Y-67842857D01*
X143746023Y-67747619D01*
X143698404Y-67700000D01*
X143603166Y-67652380D01*
X143365071Y-67652380D01*
X143222214Y-67700000D01*
X142793642Y-68652380D02*
X142793642Y-67652380D01*
X142365071Y-67747619D02*
X142317452Y-67700000D01*
X142222214Y-67652380D01*
X141984119Y-67652380D01*
X141888880Y-67700000D01*
X141841261Y-67747619D01*
X141793642Y-67842857D01*
X141793642Y-67938095D01*
X141841261Y-68080952D01*
X142412690Y-68652380D01*
X141793642Y-68652380D01*
X140841261Y-68652380D02*
X141412690Y-68652380D01*
X141126976Y-68652380D02*
X141126976Y-67652380D01*
X141222214Y-67795238D01*
X141317452Y-67890476D01*
X141412690Y-67938095D01*
X139984119Y-67652380D02*
X140174595Y-67652380D01*
X140269833Y-67700000D01*
X140317452Y-67747619D01*
X140412690Y-67890476D01*
X140460309Y-68080952D01*
X140460309Y-68461904D01*
X140412690Y-68557142D01*
X140365071Y-68604761D01*
X140269833Y-68652380D01*
X140079357Y-68652380D01*
X139984119Y-68604761D01*
X139936500Y-68557142D01*
X139888880Y-68461904D01*
X139888880Y-68223809D01*
X139936500Y-68128571D01*
X139984119Y-68080952D01*
X140079357Y-68033333D01*
X140269833Y-68033333D01*
X140365071Y-68080952D01*
X140412690Y-68128571D01*
X140460309Y-68223809D01*
X139031738Y-67985714D02*
X139031738Y-68652380D01*
X139269833Y-67604761D02*
X139507928Y-68319047D01*
X138888880Y-68319047D01*
X137365071Y-68604761D02*
X137460309Y-68652380D01*
X137650785Y-68652380D01*
X137746023Y-68604761D01*
X137793642Y-68509523D01*
X137793642Y-68128571D01*
X137746023Y-68033333D01*
X137650785Y-67985714D01*
X137460309Y-67985714D01*
X137365071Y-68033333D01*
X137317452Y-68128571D01*
X137317452Y-68223809D01*
X137793642Y-68319047D01*
X136984119Y-68652380D02*
X136460309Y-67985714D01*
X136984119Y-67985714D02*
X136460309Y-68652380D01*
X136079357Y-67985714D02*
X136079357Y-68985714D01*
X136079357Y-68033333D02*
X135984119Y-67985714D01*
X135793642Y-67985714D01*
X135698404Y-68033333D01*
X135650785Y-68080952D01*
X135603166Y-68176190D01*
X135603166Y-68461904D01*
X135650785Y-68557142D01*
X135698404Y-68604761D01*
X135793642Y-68652380D01*
X135984119Y-68652380D01*
X136079357Y-68604761D01*
X134793642Y-68604761D02*
X134888880Y-68652380D01*
X135079357Y-68652380D01*
X135174595Y-68604761D01*
X135222214Y-68509523D01*
X135222214Y-68128571D01*
X135174595Y-68033333D01*
X135079357Y-67985714D01*
X134888880Y-67985714D01*
X134793642Y-68033333D01*
X134746023Y-68128571D01*
X134746023Y-68223809D01*
X135222214Y-68319047D01*
X134317452Y-68652380D02*
X134317452Y-67985714D01*
X134317452Y-68176190D02*
X134269833Y-68080952D01*
X134222214Y-68033333D01*
X134126976Y-67985714D01*
X134031738Y-67985714D01*
X133698404Y-68652380D02*
X133698404Y-67985714D01*
X133698404Y-67652380D02*
X133746023Y-67700000D01*
X133698404Y-67747619D01*
X133650785Y-67700000D01*
X133698404Y-67652380D01*
X133698404Y-67747619D01*
X133222214Y-68652380D02*
X133222214Y-67985714D01*
X133222214Y-68080952D02*
X133174595Y-68033333D01*
X133079357Y-67985714D01*
X132936500Y-67985714D01*
X132841261Y-68033333D01*
X132793642Y-68128571D01*
X132793642Y-68652380D01*
X132793642Y-68128571D02*
X132746023Y-68033333D01*
X132650785Y-67985714D01*
X132507928Y-67985714D01*
X132412690Y-68033333D01*
X132365071Y-68128571D01*
X132365071Y-68652380D01*
X131507928Y-68604761D02*
X131603166Y-68652380D01*
X131793642Y-68652380D01*
X131888880Y-68604761D01*
X131936500Y-68509523D01*
X131936500Y-68128571D01*
X131888880Y-68033333D01*
X131793642Y-67985714D01*
X131603166Y-67985714D01*
X131507928Y-68033333D01*
X131460309Y-68128571D01*
X131460309Y-68223809D01*
X131936500Y-68319047D01*
X131031738Y-67985714D02*
X131031738Y-68652380D01*
X131031738Y-68080952D02*
X130984119Y-68033333D01*
X130888880Y-67985714D01*
X130746023Y-67985714D01*
X130650785Y-68033333D01*
X130603166Y-68128571D01*
X130603166Y-68652380D01*
X130269833Y-67985714D02*
X129888880Y-67985714D01*
X130126976Y-67652380D02*
X130126976Y-68509523D01*
X130079357Y-68604761D01*
X129984119Y-68652380D01*
X129888880Y-68652380D01*
X129174595Y-68604761D02*
X129269833Y-68652380D01*
X129460309Y-68652380D01*
X129555547Y-68604761D01*
X129603166Y-68509523D01*
X129603166Y-68128571D01*
X129555547Y-68033333D01*
X129460309Y-67985714D01*
X129269833Y-67985714D01*
X129174595Y-68033333D01*
X129126976Y-68128571D01*
X129126976Y-68223809D01*
X129603166Y-68319047D01*
X128698404Y-68652380D02*
X128698404Y-67985714D01*
X128698404Y-68176190D02*
X128650785Y-68080952D01*
X128603166Y-68033333D01*
X128507928Y-67985714D01*
X128412690Y-67985714D01*
X128126976Y-68604761D02*
X128031738Y-68652380D01*
X127841261Y-68652380D01*
X127746023Y-68604761D01*
X127698404Y-68509523D01*
X127698404Y-68461904D01*
X127746023Y-68366666D01*
X127841261Y-68319047D01*
X127984119Y-68319047D01*
X128079357Y-68271428D01*
X128126976Y-68176190D01*
X128126976Y-68128571D01*
X128079357Y-68033333D01*
X127984119Y-67985714D01*
X127841261Y-67985714D01*
X127746023Y-68033333D01*
X126031738Y-68652380D02*
X126507928Y-68652380D01*
X126507928Y-67652380D01*
X125698404Y-68652380D02*
X125698404Y-67652380D01*
X125317452Y-67652380D01*
X125222214Y-67700000D01*
X125174595Y-67747619D01*
X125126976Y-67842857D01*
X125126976Y-67985714D01*
X125174595Y-68080952D01*
X125222214Y-68128571D01*
X125317452Y-68176190D01*
X125698404Y-68176190D01*
X124365071Y-68128571D02*
X124698404Y-68128571D01*
X124698404Y-68652380D02*
X124698404Y-67652380D01*
X124222214Y-67652380D01*
X144698404Y-70302380D02*
X144698404Y-69635714D01*
X144698404Y-69826190D02*
X144650785Y-69730952D01*
X144603166Y-69683333D01*
X144507928Y-69635714D01*
X144412690Y-69635714D01*
X143698404Y-70254761D02*
X143793642Y-70302380D01*
X143984119Y-70302380D01*
X144079357Y-70254761D01*
X144126976Y-70159523D01*
X144126976Y-69778571D01*
X144079357Y-69683333D01*
X143984119Y-69635714D01*
X143793642Y-69635714D01*
X143698404Y-69683333D01*
X143650785Y-69778571D01*
X143650785Y-69873809D01*
X144126976Y-69969047D01*
X143317452Y-69635714D02*
X143079357Y-70302380D01*
X142841261Y-69635714D01*
X141507928Y-69302380D02*
X141412690Y-69302380D01*
X141317452Y-69350000D01*
X141269833Y-69397619D01*
X141222214Y-69492857D01*
X141174595Y-69683333D01*
X141174595Y-69921428D01*
X141222214Y-70111904D01*
X141269833Y-70207142D01*
X141317452Y-70254761D01*
X141412690Y-70302380D01*
X141507928Y-70302380D01*
X141603166Y-70254761D01*
X141650785Y-70207142D01*
X141698404Y-70111904D01*
X141746023Y-69921428D01*
X141746023Y-69683333D01*
X141698404Y-69492857D01*
X141650785Y-69397619D01*
X141603166Y-69350000D01*
X141507928Y-69302380D01*
X144746023Y-71047619D02*
X144698404Y-71000000D01*
X144603166Y-70952380D01*
X144365071Y-70952380D01*
X144269833Y-71000000D01*
X144222214Y-71047619D01*
X144174595Y-71142857D01*
X144174595Y-71238095D01*
X144222214Y-71380952D01*
X144793642Y-71952380D01*
X144174595Y-71952380D01*
X143555547Y-70952380D02*
X143460309Y-70952380D01*
X143365071Y-71000000D01*
X143317452Y-71047619D01*
X143269833Y-71142857D01*
X143222214Y-71333333D01*
X143222214Y-71571428D01*
X143269833Y-71761904D01*
X143317452Y-71857142D01*
X143365071Y-71904761D01*
X143460309Y-71952380D01*
X143555547Y-71952380D01*
X143650785Y-71904761D01*
X143698404Y-71857142D01*
X143746023Y-71761904D01*
X143793642Y-71571428D01*
X143793642Y-71333333D01*
X143746023Y-71142857D01*
X143698404Y-71047619D01*
X143650785Y-71000000D01*
X143555547Y-70952380D01*
X142841261Y-71047619D02*
X142793642Y-71000000D01*
X142698404Y-70952380D01*
X142460309Y-70952380D01*
X142365071Y-71000000D01*
X142317452Y-71047619D01*
X142269833Y-71142857D01*
X142269833Y-71238095D01*
X142317452Y-71380952D01*
X142888880Y-71952380D01*
X142269833Y-71952380D01*
X141650785Y-70952380D02*
X141555547Y-70952380D01*
X141460309Y-71000000D01*
X141412690Y-71047619D01*
X141365071Y-71142857D01*
X141317452Y-71333333D01*
X141317452Y-71571428D01*
X141365071Y-71761904D01*
X141412690Y-71857142D01*
X141460309Y-71904761D01*
X141555547Y-71952380D01*
X141650785Y-71952380D01*
X141746023Y-71904761D01*
X141793642Y-71857142D01*
X141841261Y-71761904D01*
X141888880Y-71571428D01*
X141888880Y-71333333D01*
X141841261Y-71142857D01*
X141793642Y-71047619D01*
X141746023Y-71000000D01*
X141650785Y-70952380D01*
X140888880Y-71571428D02*
X140126976Y-71571428D01*
X139460309Y-70952380D02*
X139365071Y-70952380D01*
X139269833Y-71000000D01*
X139222214Y-71047619D01*
X139174595Y-71142857D01*
X139126976Y-71333333D01*
X139126976Y-71571428D01*
X139174595Y-71761904D01*
X139222214Y-71857142D01*
X139269833Y-71904761D01*
X139365071Y-71952380D01*
X139460309Y-71952380D01*
X139555547Y-71904761D01*
X139603166Y-71857142D01*
X139650785Y-71761904D01*
X139698404Y-71571428D01*
X139698404Y-71333333D01*
X139650785Y-71142857D01*
X139603166Y-71047619D01*
X139555547Y-71000000D01*
X139460309Y-70952380D01*
X138555547Y-71380952D02*
X138650785Y-71333333D01*
X138698404Y-71285714D01*
X138746023Y-71190476D01*
X138746023Y-71142857D01*
X138698404Y-71047619D01*
X138650785Y-71000000D01*
X138555547Y-70952380D01*
X138365071Y-70952380D01*
X138269833Y-71000000D01*
X138222214Y-71047619D01*
X138174595Y-71142857D01*
X138174595Y-71190476D01*
X138222214Y-71285714D01*
X138269833Y-71333333D01*
X138365071Y-71380952D01*
X138555547Y-71380952D01*
X138650785Y-71428571D01*
X138698404Y-71476190D01*
X138746023Y-71571428D01*
X138746023Y-71761904D01*
X138698404Y-71857142D01*
X138650785Y-71904761D01*
X138555547Y-71952380D01*
X138365071Y-71952380D01*
X138269833Y-71904761D01*
X138222214Y-71857142D01*
X138174595Y-71761904D01*
X138174595Y-71571428D01*
X138222214Y-71476190D01*
X138269833Y-71428571D01*
X138365071Y-71380952D01*
X137746023Y-71571428D02*
X136984119Y-71571428D01*
X135984119Y-71952380D02*
X136555547Y-71952380D01*
X136269833Y-71952380D02*
X136269833Y-70952380D01*
X136365071Y-71095238D01*
X136460309Y-71190476D01*
X136555547Y-71238095D01*
X135650785Y-70952380D02*
X134984119Y-70952380D01*
X135412690Y-71952380D01*
D11*
X148650000Y-115630000D02*
X145990000Y-115630000D01*
X148650000Y-97790000D02*
X148650000Y-115630000D01*
X145990000Y-97790000D02*
X145990000Y-115630000D01*
X148650000Y-97790000D02*
X145990000Y-97790000D01*
X148650000Y-96520000D02*
X148650000Y-95190000D01*
X148650000Y-95190000D02*
X147320000Y-95190000D01*
X148650000Y-77530000D02*
X145990000Y-77530000D01*
X148650000Y-69850000D02*
X148650000Y-77530000D01*
X145990000Y-69850000D02*
X145990000Y-77530000D01*
X148650000Y-69850000D02*
X145990000Y-69850000D01*
X148650000Y-68580000D02*
X148650000Y-67250000D01*
X148650000Y-67250000D02*
X147320000Y-67250000D01*
X95310000Y-115630000D02*
X92650000Y-115630000D01*
X95310000Y-107950000D02*
X95310000Y-115630000D01*
X92650000Y-107950000D02*
X92650000Y-115630000D01*
X95310000Y-107950000D02*
X92650000Y-107950000D01*
X95310000Y-106680000D02*
X95310000Y-105350000D01*
X95310000Y-105350000D02*
X93980000Y-105350000D01*
X95310000Y-77530000D02*
X92650000Y-77530000D01*
X95310000Y-69850000D02*
X95310000Y-77530000D01*
X92650000Y-69850000D02*
X92650000Y-77530000D01*
X95310000Y-69850000D02*
X92650000Y-69850000D01*
X95310000Y-68580000D02*
X95310000Y-67250000D01*
X95310000Y-67250000D02*
X93980000Y-67250000D01*
X119753748Y-98246000D02*
X120276252Y-98246000D01*
X119753748Y-96826000D02*
X120276252Y-96826000D01*
X125220252Y-99493000D02*
X124697748Y-99493000D01*
X125220252Y-100913000D02*
X124697748Y-100913000D01*
X134113748Y-77545000D02*
X134636252Y-77545000D01*
X134113748Y-76125000D02*
X134636252Y-76125000D01*
X134745252Y-80316000D02*
X134222748Y-80316000D01*
X134745252Y-81736000D02*
X134222748Y-81736000D01*
X125274000Y-76582748D02*
X125274000Y-77105252D01*
X126694000Y-76582748D02*
X126694000Y-77105252D01*
X125274000Y-80646748D02*
X125274000Y-81169252D01*
X126694000Y-80646748D02*
X126694000Y-81169252D01*
X102287000Y-76945748D02*
X102287000Y-77468252D01*
X103707000Y-76945748D02*
X103707000Y-77468252D01*
X102287000Y-81154748D02*
X102287000Y-81677252D01*
X103707000Y-81154748D02*
X103707000Y-81677252D01*
X108764000Y-78233748D02*
X108764000Y-78756252D01*
X110184000Y-78233748D02*
X110184000Y-78756252D01*
X117296000Y-78484252D02*
X117296000Y-77961748D01*
X115876000Y-78484252D02*
X115876000Y-77961748D01*
X142985748Y-109930000D02*
X143508252Y-109930000D01*
X142985748Y-108510000D02*
X143508252Y-108510000D01*
X143348452Y-111050000D02*
X142825948Y-111050000D01*
X143348452Y-112470000D02*
X142825948Y-112470000D01*
D10*
X147653333Y-93642380D02*
X147653333Y-94356666D01*
X147700952Y-94499523D01*
X147796190Y-94594761D01*
X147939047Y-94642380D01*
X148034285Y-94642380D01*
X146748571Y-93975714D02*
X146748571Y-94642380D01*
X146986666Y-93594761D02*
X147224761Y-94309047D01*
X146605714Y-94309047D01*
X147653333Y-78192380D02*
X147653333Y-78906666D01*
X147700952Y-79049523D01*
X147796190Y-79144761D01*
X147939047Y-79192380D01*
X148034285Y-79192380D01*
X147272380Y-78192380D02*
X146653333Y-78192380D01*
X146986666Y-78573333D01*
X146843809Y-78573333D01*
X146748571Y-78620952D01*
X146700952Y-78668571D01*
X146653333Y-78763809D01*
X146653333Y-79001904D01*
X146700952Y-79097142D01*
X146748571Y-79144761D01*
X146843809Y-79192380D01*
X147129523Y-79192380D01*
X147224761Y-79144761D01*
X147272380Y-79097142D01*
X94313333Y-103802380D02*
X94313333Y-104516666D01*
X94360952Y-104659523D01*
X94456190Y-104754761D01*
X94599047Y-104802380D01*
X94694285Y-104802380D01*
X93884761Y-103897619D02*
X93837142Y-103850000D01*
X93741904Y-103802380D01*
X93503809Y-103802380D01*
X93408571Y-103850000D01*
X93360952Y-103897619D01*
X93313333Y-103992857D01*
X93313333Y-104088095D01*
X93360952Y-104230952D01*
X93932380Y-104802380D01*
X93313333Y-104802380D01*
X94313333Y-78192380D02*
X94313333Y-78906666D01*
X94360952Y-79049523D01*
X94456190Y-79144761D01*
X94599047Y-79192380D01*
X94694285Y-79192380D01*
X93313333Y-79192380D02*
X93884761Y-79192380D01*
X93599047Y-79192380D02*
X93599047Y-78192380D01*
X93694285Y-78335238D01*
X93789523Y-78430476D01*
X93884761Y-78478095D01*
X117959142Y-96893142D02*
X118006761Y-96845523D01*
X118054380Y-96702666D01*
X118054380Y-96607428D01*
X118006761Y-96464571D01*
X117911523Y-96369333D01*
X117816285Y-96321714D01*
X117625809Y-96274095D01*
X117482952Y-96274095D01*
X117292476Y-96321714D01*
X117197238Y-96369333D01*
X117102000Y-96464571D01*
X117054380Y-96607428D01*
X117054380Y-96702666D01*
X117102000Y-96845523D01*
X117149619Y-96893142D01*
X117149619Y-97274095D02*
X117102000Y-97321714D01*
X117054380Y-97416952D01*
X117054380Y-97655047D01*
X117102000Y-97750285D01*
X117149619Y-97797904D01*
X117244857Y-97845523D01*
X117340095Y-97845523D01*
X117482952Y-97797904D01*
X118054380Y-97226476D01*
X118054380Y-97845523D01*
X118054380Y-98797904D02*
X118054380Y-98226476D01*
X118054380Y-98512190D02*
X117054380Y-98512190D01*
X117197238Y-98416952D01*
X117292476Y-98321714D01*
X117340095Y-98226476D01*
X122912142Y-99560142D02*
X122959761Y-99512523D01*
X123007380Y-99369666D01*
X123007380Y-99274428D01*
X122959761Y-99131571D01*
X122864523Y-99036333D01*
X122769285Y-98988714D01*
X122578809Y-98941095D01*
X122435952Y-98941095D01*
X122245476Y-98988714D01*
X122150238Y-99036333D01*
X122055000Y-99131571D01*
X122007380Y-99274428D01*
X122007380Y-99369666D01*
X122055000Y-99512523D01*
X122102619Y-99560142D01*
X122102619Y-99941095D02*
X122055000Y-99988714D01*
X122007380Y-100083952D01*
X122007380Y-100322047D01*
X122055000Y-100417285D01*
X122102619Y-100464904D01*
X122197857Y-100512523D01*
X122293095Y-100512523D01*
X122435952Y-100464904D01*
X123007380Y-99893476D01*
X123007380Y-100512523D01*
X122007380Y-101131571D02*
X122007380Y-101226809D01*
X122055000Y-101322047D01*
X122102619Y-101369666D01*
X122197857Y-101417285D01*
X122388333Y-101464904D01*
X122626428Y-101464904D01*
X122816904Y-101417285D01*
X122912142Y-101369666D01*
X122959761Y-101322047D01*
X123007380Y-101226809D01*
X123007380Y-101131571D01*
X122959761Y-101036333D01*
X122912142Y-100988714D01*
X122816904Y-100941095D01*
X122626428Y-100893476D01*
X122388333Y-100893476D01*
X122197857Y-100941095D01*
X122102619Y-100988714D01*
X122055000Y-101036333D01*
X122007380Y-101131571D01*
X132310142Y-76192142D02*
X132357761Y-76144523D01*
X132405380Y-76001666D01*
X132405380Y-75906428D01*
X132357761Y-75763571D01*
X132262523Y-75668333D01*
X132167285Y-75620714D01*
X131976809Y-75573095D01*
X131833952Y-75573095D01*
X131643476Y-75620714D01*
X131548238Y-75668333D01*
X131453000Y-75763571D01*
X131405380Y-75906428D01*
X131405380Y-76001666D01*
X131453000Y-76144523D01*
X131500619Y-76192142D01*
X132405380Y-77144523D02*
X132405380Y-76573095D01*
X132405380Y-76858809D02*
X131405380Y-76858809D01*
X131548238Y-76763571D01*
X131643476Y-76668333D01*
X131691095Y-76573095D01*
X132405380Y-77620714D02*
X132405380Y-77811190D01*
X132357761Y-77906428D01*
X132310142Y-77954047D01*
X132167285Y-78049285D01*
X131976809Y-78096904D01*
X131595857Y-78096904D01*
X131500619Y-78049285D01*
X131453000Y-78001666D01*
X131405380Y-77906428D01*
X131405380Y-77715952D01*
X131453000Y-77620714D01*
X131500619Y-77573095D01*
X131595857Y-77525476D01*
X131833952Y-77525476D01*
X131929190Y-77573095D01*
X131976809Y-77620714D01*
X132024428Y-77715952D01*
X132024428Y-77906428D01*
X131976809Y-78001666D01*
X131929190Y-78049285D01*
X131833952Y-78096904D01*
X132437142Y-80383142D02*
X132484761Y-80335523D01*
X132532380Y-80192666D01*
X132532380Y-80097428D01*
X132484761Y-79954571D01*
X132389523Y-79859333D01*
X132294285Y-79811714D01*
X132103809Y-79764095D01*
X131960952Y-79764095D01*
X131770476Y-79811714D01*
X131675238Y-79859333D01*
X131580000Y-79954571D01*
X131532380Y-80097428D01*
X131532380Y-80192666D01*
X131580000Y-80335523D01*
X131627619Y-80383142D01*
X132532380Y-81335523D02*
X132532380Y-80764095D01*
X132532380Y-81049809D02*
X131532380Y-81049809D01*
X131675238Y-80954571D01*
X131770476Y-80859333D01*
X131818095Y-80764095D01*
X131960952Y-81906952D02*
X131913333Y-81811714D01*
X131865714Y-81764095D01*
X131770476Y-81716476D01*
X131722857Y-81716476D01*
X131627619Y-81764095D01*
X131580000Y-81811714D01*
X131532380Y-81906952D01*
X131532380Y-82097428D01*
X131580000Y-82192666D01*
X131627619Y-82240285D01*
X131722857Y-82287904D01*
X131770476Y-82287904D01*
X131865714Y-82240285D01*
X131913333Y-82192666D01*
X131960952Y-82097428D01*
X131960952Y-81906952D01*
X132008571Y-81811714D01*
X132056190Y-81764095D01*
X132151428Y-81716476D01*
X132341904Y-81716476D01*
X132437142Y-81764095D01*
X132484761Y-81811714D01*
X132532380Y-81906952D01*
X132532380Y-82097428D01*
X132484761Y-82192666D01*
X132437142Y-82240285D01*
X132341904Y-82287904D01*
X132151428Y-82287904D01*
X132056190Y-82240285D01*
X132008571Y-82192666D01*
X131960952Y-82097428D01*
X124691142Y-76201142D02*
X124738761Y-76153523D01*
X124786380Y-76010666D01*
X124786380Y-75915428D01*
X124738761Y-75772571D01*
X124643523Y-75677333D01*
X124548285Y-75629714D01*
X124357809Y-75582095D01*
X124214952Y-75582095D01*
X124024476Y-75629714D01*
X123929238Y-75677333D01*
X123834000Y-75772571D01*
X123786380Y-75915428D01*
X123786380Y-76010666D01*
X123834000Y-76153523D01*
X123881619Y-76201142D01*
X124786380Y-77153523D02*
X124786380Y-76582095D01*
X124786380Y-76867809D02*
X123786380Y-76867809D01*
X123929238Y-76772571D01*
X124024476Y-76677333D01*
X124072095Y-76582095D01*
X123786380Y-77486857D02*
X123786380Y-78153523D01*
X124786380Y-77724952D01*
X124691142Y-80265142D02*
X124738761Y-80217523D01*
X124786380Y-80074666D01*
X124786380Y-79979428D01*
X124738761Y-79836571D01*
X124643523Y-79741333D01*
X124548285Y-79693714D01*
X124357809Y-79646095D01*
X124214952Y-79646095D01*
X124024476Y-79693714D01*
X123929238Y-79741333D01*
X123834000Y-79836571D01*
X123786380Y-79979428D01*
X123786380Y-80074666D01*
X123834000Y-80217523D01*
X123881619Y-80265142D01*
X124786380Y-81217523D02*
X124786380Y-80646095D01*
X124786380Y-80931809D02*
X123786380Y-80931809D01*
X123929238Y-80836571D01*
X124024476Y-80741333D01*
X124072095Y-80646095D01*
X123786380Y-82074666D02*
X123786380Y-81884190D01*
X123834000Y-81788952D01*
X123881619Y-81741333D01*
X124024476Y-81646095D01*
X124214952Y-81598476D01*
X124595904Y-81598476D01*
X124691142Y-81646095D01*
X124738761Y-81693714D01*
X124786380Y-81788952D01*
X124786380Y-81979428D01*
X124738761Y-82074666D01*
X124691142Y-82122285D01*
X124595904Y-82169904D01*
X124357809Y-82169904D01*
X124262571Y-82122285D01*
X124214952Y-82074666D01*
X124167333Y-81979428D01*
X124167333Y-81788952D01*
X124214952Y-81693714D01*
X124262571Y-81646095D01*
X124357809Y-81598476D01*
X101704142Y-76564142D02*
X101751761Y-76516523D01*
X101799380Y-76373666D01*
X101799380Y-76278428D01*
X101751761Y-76135571D01*
X101656523Y-76040333D01*
X101561285Y-75992714D01*
X101370809Y-75945095D01*
X101227952Y-75945095D01*
X101037476Y-75992714D01*
X100942238Y-76040333D01*
X100847000Y-76135571D01*
X100799380Y-76278428D01*
X100799380Y-76373666D01*
X100847000Y-76516523D01*
X100894619Y-76564142D01*
X101799380Y-77516523D02*
X101799380Y-76945095D01*
X101799380Y-77230809D02*
X100799380Y-77230809D01*
X100942238Y-77135571D01*
X101037476Y-77040333D01*
X101085095Y-76945095D01*
X100799380Y-78421285D02*
X100799380Y-77945095D01*
X101275571Y-77897476D01*
X101227952Y-77945095D01*
X101180333Y-78040333D01*
X101180333Y-78278428D01*
X101227952Y-78373666D01*
X101275571Y-78421285D01*
X101370809Y-78468904D01*
X101608904Y-78468904D01*
X101704142Y-78421285D01*
X101751761Y-78373666D01*
X101799380Y-78278428D01*
X101799380Y-78040333D01*
X101751761Y-77945095D01*
X101704142Y-77897476D01*
X101704142Y-80773142D02*
X101751761Y-80725523D01*
X101799380Y-80582666D01*
X101799380Y-80487428D01*
X101751761Y-80344571D01*
X101656523Y-80249333D01*
X101561285Y-80201714D01*
X101370809Y-80154095D01*
X101227952Y-80154095D01*
X101037476Y-80201714D01*
X100942238Y-80249333D01*
X100847000Y-80344571D01*
X100799380Y-80487428D01*
X100799380Y-80582666D01*
X100847000Y-80725523D01*
X100894619Y-80773142D01*
X101799380Y-81725523D02*
X101799380Y-81154095D01*
X101799380Y-81439809D02*
X100799380Y-81439809D01*
X100942238Y-81344571D01*
X101037476Y-81249333D01*
X101085095Y-81154095D01*
X101132714Y-82582666D02*
X101799380Y-82582666D01*
X100751761Y-82344571D02*
X101466047Y-82106476D01*
X101466047Y-82725523D01*
X108181142Y-77852142D02*
X108228761Y-77804523D01*
X108276380Y-77661666D01*
X108276380Y-77566428D01*
X108228761Y-77423571D01*
X108133523Y-77328333D01*
X108038285Y-77280714D01*
X107847809Y-77233095D01*
X107704952Y-77233095D01*
X107514476Y-77280714D01*
X107419238Y-77328333D01*
X107324000Y-77423571D01*
X107276380Y-77566428D01*
X107276380Y-77661666D01*
X107324000Y-77804523D01*
X107371619Y-77852142D01*
X108276380Y-78804523D02*
X108276380Y-78233095D01*
X108276380Y-78518809D02*
X107276380Y-78518809D01*
X107419238Y-78423571D01*
X107514476Y-78328333D01*
X107562095Y-78233095D01*
X107276380Y-79137857D02*
X107276380Y-79756904D01*
X107657333Y-79423571D01*
X107657333Y-79566428D01*
X107704952Y-79661666D01*
X107752571Y-79709285D01*
X107847809Y-79756904D01*
X108085904Y-79756904D01*
X108181142Y-79709285D01*
X108228761Y-79661666D01*
X108276380Y-79566428D01*
X108276380Y-79280714D01*
X108228761Y-79185476D01*
X108181142Y-79137857D01*
X118593142Y-77580142D02*
X118640761Y-77532523D01*
X118688380Y-77389666D01*
X118688380Y-77294428D01*
X118640761Y-77151571D01*
X118545523Y-77056333D01*
X118450285Y-77008714D01*
X118259809Y-76961095D01*
X118116952Y-76961095D01*
X117926476Y-77008714D01*
X117831238Y-77056333D01*
X117736000Y-77151571D01*
X117688380Y-77294428D01*
X117688380Y-77389666D01*
X117736000Y-77532523D01*
X117783619Y-77580142D01*
X118688380Y-78532523D02*
X118688380Y-77961095D01*
X118688380Y-78246809D02*
X117688380Y-78246809D01*
X117831238Y-78151571D01*
X117926476Y-78056333D01*
X117974095Y-77961095D01*
X117783619Y-78913476D02*
X117736000Y-78961095D01*
X117688380Y-79056333D01*
X117688380Y-79294428D01*
X117736000Y-79389666D01*
X117783619Y-79437285D01*
X117878857Y-79484904D01*
X117974095Y-79484904D01*
X118116952Y-79437285D01*
X118688380Y-78865857D01*
X118688380Y-79484904D01*
X140596857Y-109577142D02*
X140644476Y-109624761D01*
X140787333Y-109672380D01*
X140882571Y-109672380D01*
X141025428Y-109624761D01*
X141120666Y-109529523D01*
X141168285Y-109434285D01*
X141215904Y-109243809D01*
X141215904Y-109100952D01*
X141168285Y-108910476D01*
X141120666Y-108815238D01*
X141025428Y-108720000D01*
X140882571Y-108672380D01*
X140787333Y-108672380D01*
X140644476Y-108720000D01*
X140596857Y-108767619D01*
X139644476Y-109672380D02*
X140215904Y-109672380D01*
X139930190Y-109672380D02*
X139930190Y-108672380D01*
X140025428Y-108815238D01*
X140120666Y-108910476D01*
X140215904Y-108958095D01*
X138692095Y-109672380D02*
X139263523Y-109672380D01*
X138977809Y-109672380D02*
X138977809Y-108672380D01*
X139073047Y-108815238D01*
X139168285Y-108910476D01*
X139263523Y-108958095D01*
X140419057Y-112117142D02*
X140466676Y-112164761D01*
X140609533Y-112212380D01*
X140704771Y-112212380D01*
X140847628Y-112164761D01*
X140942866Y-112069523D01*
X140990485Y-111974285D01*
X141038104Y-111783809D01*
X141038104Y-111640952D01*
X140990485Y-111450476D01*
X140942866Y-111355238D01*
X140847628Y-111260000D01*
X140704771Y-111212380D01*
X140609533Y-111212380D01*
X140466676Y-111260000D01*
X140419057Y-111307619D01*
X139466676Y-112212380D02*
X140038104Y-112212380D01*
X139752390Y-112212380D02*
X139752390Y-111212380D01*
X139847628Y-111355238D01*
X139942866Y-111450476D01*
X140038104Y-111498095D01*
X138847628Y-111212380D02*
X138752390Y-111212380D01*
X138657152Y-111260000D01*
X138609533Y-111307619D01*
X138561914Y-111402857D01*
X138514295Y-111593333D01*
X138514295Y-111831428D01*
X138561914Y-112021904D01*
X138609533Y-112117142D01*
X138657152Y-112164761D01*
X138752390Y-112212380D01*
X138847628Y-112212380D01*
X138942866Y-112164761D01*
X138990485Y-112117142D01*
X139038104Y-112021904D01*
X139085723Y-111831428D01*
X139085723Y-111593333D01*
X139038104Y-111402857D01*
X138990485Y-111307619D01*
X138942866Y-111260000D01*
X138847628Y-111212380D01*
M02*
