G04 #@! TF.GenerationSoftware,KiCad,Pcbnew,5.1.6-c6e7f7d~87~ubuntu18.04.1*
G04 #@! TF.CreationDate,2020-08-19T11:53:39-04:00*
G04 #@! TF.ProjectId,four_pole_lpf,666f7572-5f70-46f6-9c65-5f6c70662e6b,rev?*
G04 #@! TF.SameCoordinates,Original*
G04 #@! TF.FileFunction,Paste,Bot*
G04 #@! TF.FilePolarity,Positive*
%FSLAX46Y46*%
G04 Gerber Fmt 4.6, Leading zero omitted, Abs format (unit mm)*
G04 Created by KiCad (PCBNEW 5.1.6-c6e7f7d~87~ubuntu18.04.1) date 2020-08-19 11:53:39*
%MOMM*%
%LPD*%
G01*
G04 APERTURE LIST*
G04 APERTURE END LIST*
G36*
G01*
X120465000Y-97986001D02*
X120465000Y-97085999D01*
G75*
G02*
X120714999Y-96836000I249999J0D01*
G01*
X121365001Y-96836000D01*
G75*
G02*
X121615000Y-97085999I0J-249999D01*
G01*
X121615000Y-97986001D01*
G75*
G02*
X121365001Y-98236000I-249999J0D01*
G01*
X120714999Y-98236000D01*
G75*
G02*
X120465000Y-97986001I0J249999D01*
G01*
G37*
G36*
G01*
X118415000Y-97986001D02*
X118415000Y-97085999D01*
G75*
G02*
X118664999Y-96836000I249999J0D01*
G01*
X119315001Y-96836000D01*
G75*
G02*
X119565000Y-97085999I0J-249999D01*
G01*
X119565000Y-97986001D01*
G75*
G02*
X119315001Y-98236000I-249999J0D01*
G01*
X118664999Y-98236000D01*
G75*
G02*
X118415000Y-97986001I0J249999D01*
G01*
G37*
G36*
G01*
X124509000Y-99752999D02*
X124509000Y-100653001D01*
G75*
G02*
X124259001Y-100903000I-249999J0D01*
G01*
X123608999Y-100903000D01*
G75*
G02*
X123359000Y-100653001I0J249999D01*
G01*
X123359000Y-99752999D01*
G75*
G02*
X123608999Y-99503000I249999J0D01*
G01*
X124259001Y-99503000D01*
G75*
G02*
X124509000Y-99752999I0J-249999D01*
G01*
G37*
G36*
G01*
X126559000Y-99752999D02*
X126559000Y-100653001D01*
G75*
G02*
X126309001Y-100903000I-249999J0D01*
G01*
X125658999Y-100903000D01*
G75*
G02*
X125409000Y-100653001I0J249999D01*
G01*
X125409000Y-99752999D01*
G75*
G02*
X125658999Y-99503000I249999J0D01*
G01*
X126309001Y-99503000D01*
G75*
G02*
X126559000Y-99752999I0J-249999D01*
G01*
G37*
G36*
G01*
X134825000Y-77285001D02*
X134825000Y-76384999D01*
G75*
G02*
X135074999Y-76135000I249999J0D01*
G01*
X135725001Y-76135000D01*
G75*
G02*
X135975000Y-76384999I0J-249999D01*
G01*
X135975000Y-77285001D01*
G75*
G02*
X135725001Y-77535000I-249999J0D01*
G01*
X135074999Y-77535000D01*
G75*
G02*
X134825000Y-77285001I0J249999D01*
G01*
G37*
G36*
G01*
X132775000Y-77285001D02*
X132775000Y-76384999D01*
G75*
G02*
X133024999Y-76135000I249999J0D01*
G01*
X133675001Y-76135000D01*
G75*
G02*
X133925000Y-76384999I0J-249999D01*
G01*
X133925000Y-77285001D01*
G75*
G02*
X133675001Y-77535000I-249999J0D01*
G01*
X133024999Y-77535000D01*
G75*
G02*
X132775000Y-77285001I0J249999D01*
G01*
G37*
G36*
G01*
X134034000Y-80575999D02*
X134034000Y-81476001D01*
G75*
G02*
X133784001Y-81726000I-249999J0D01*
G01*
X133133999Y-81726000D01*
G75*
G02*
X132884000Y-81476001I0J249999D01*
G01*
X132884000Y-80575999D01*
G75*
G02*
X133133999Y-80326000I249999J0D01*
G01*
X133784001Y-80326000D01*
G75*
G02*
X134034000Y-80575999I0J-249999D01*
G01*
G37*
G36*
G01*
X136084000Y-80575999D02*
X136084000Y-81476001D01*
G75*
G02*
X135834001Y-81726000I-249999J0D01*
G01*
X135183999Y-81726000D01*
G75*
G02*
X134934000Y-81476001I0J249999D01*
G01*
X134934000Y-80575999D01*
G75*
G02*
X135183999Y-80326000I249999J0D01*
G01*
X135834001Y-80326000D01*
G75*
G02*
X136084000Y-80575999I0J-249999D01*
G01*
G37*
G36*
G01*
X125533999Y-77294000D02*
X126434001Y-77294000D01*
G75*
G02*
X126684000Y-77543999I0J-249999D01*
G01*
X126684000Y-78194001D01*
G75*
G02*
X126434001Y-78444000I-249999J0D01*
G01*
X125533999Y-78444000D01*
G75*
G02*
X125284000Y-78194001I0J249999D01*
G01*
X125284000Y-77543999D01*
G75*
G02*
X125533999Y-77294000I249999J0D01*
G01*
G37*
G36*
G01*
X125533999Y-75244000D02*
X126434001Y-75244000D01*
G75*
G02*
X126684000Y-75493999I0J-249999D01*
G01*
X126684000Y-76144001D01*
G75*
G02*
X126434001Y-76394000I-249999J0D01*
G01*
X125533999Y-76394000D01*
G75*
G02*
X125284000Y-76144001I0J249999D01*
G01*
X125284000Y-75493999D01*
G75*
G02*
X125533999Y-75244000I249999J0D01*
G01*
G37*
G36*
G01*
X125533999Y-81358000D02*
X126434001Y-81358000D01*
G75*
G02*
X126684000Y-81607999I0J-249999D01*
G01*
X126684000Y-82258001D01*
G75*
G02*
X126434001Y-82508000I-249999J0D01*
G01*
X125533999Y-82508000D01*
G75*
G02*
X125284000Y-82258001I0J249999D01*
G01*
X125284000Y-81607999D01*
G75*
G02*
X125533999Y-81358000I249999J0D01*
G01*
G37*
G36*
G01*
X125533999Y-79308000D02*
X126434001Y-79308000D01*
G75*
G02*
X126684000Y-79557999I0J-249999D01*
G01*
X126684000Y-80208001D01*
G75*
G02*
X126434001Y-80458000I-249999J0D01*
G01*
X125533999Y-80458000D01*
G75*
G02*
X125284000Y-80208001I0J249999D01*
G01*
X125284000Y-79557999D01*
G75*
G02*
X125533999Y-79308000I249999J0D01*
G01*
G37*
G36*
G01*
X102546999Y-77657000D02*
X103447001Y-77657000D01*
G75*
G02*
X103697000Y-77906999I0J-249999D01*
G01*
X103697000Y-78557001D01*
G75*
G02*
X103447001Y-78807000I-249999J0D01*
G01*
X102546999Y-78807000D01*
G75*
G02*
X102297000Y-78557001I0J249999D01*
G01*
X102297000Y-77906999D01*
G75*
G02*
X102546999Y-77657000I249999J0D01*
G01*
G37*
G36*
G01*
X102546999Y-75607000D02*
X103447001Y-75607000D01*
G75*
G02*
X103697000Y-75856999I0J-249999D01*
G01*
X103697000Y-76507001D01*
G75*
G02*
X103447001Y-76757000I-249999J0D01*
G01*
X102546999Y-76757000D01*
G75*
G02*
X102297000Y-76507001I0J249999D01*
G01*
X102297000Y-75856999D01*
G75*
G02*
X102546999Y-75607000I249999J0D01*
G01*
G37*
G36*
G01*
X102546999Y-81866000D02*
X103447001Y-81866000D01*
G75*
G02*
X103697000Y-82115999I0J-249999D01*
G01*
X103697000Y-82766001D01*
G75*
G02*
X103447001Y-83016000I-249999J0D01*
G01*
X102546999Y-83016000D01*
G75*
G02*
X102297000Y-82766001I0J249999D01*
G01*
X102297000Y-82115999D01*
G75*
G02*
X102546999Y-81866000I249999J0D01*
G01*
G37*
G36*
G01*
X102546999Y-79816000D02*
X103447001Y-79816000D01*
G75*
G02*
X103697000Y-80065999I0J-249999D01*
G01*
X103697000Y-80716001D01*
G75*
G02*
X103447001Y-80966000I-249999J0D01*
G01*
X102546999Y-80966000D01*
G75*
G02*
X102297000Y-80716001I0J249999D01*
G01*
X102297000Y-80065999D01*
G75*
G02*
X102546999Y-79816000I249999J0D01*
G01*
G37*
G36*
G01*
X109023999Y-78945000D02*
X109924001Y-78945000D01*
G75*
G02*
X110174000Y-79194999I0J-249999D01*
G01*
X110174000Y-79845001D01*
G75*
G02*
X109924001Y-80095000I-249999J0D01*
G01*
X109023999Y-80095000D01*
G75*
G02*
X108774000Y-79845001I0J249999D01*
G01*
X108774000Y-79194999D01*
G75*
G02*
X109023999Y-78945000I249999J0D01*
G01*
G37*
G36*
G01*
X109023999Y-76895000D02*
X109924001Y-76895000D01*
G75*
G02*
X110174000Y-77144999I0J-249999D01*
G01*
X110174000Y-77795001D01*
G75*
G02*
X109924001Y-78045000I-249999J0D01*
G01*
X109023999Y-78045000D01*
G75*
G02*
X108774000Y-77795001I0J249999D01*
G01*
X108774000Y-77144999D01*
G75*
G02*
X109023999Y-76895000I249999J0D01*
G01*
G37*
G36*
G01*
X117036001Y-77773000D02*
X116135999Y-77773000D01*
G75*
G02*
X115886000Y-77523001I0J249999D01*
G01*
X115886000Y-76872999D01*
G75*
G02*
X116135999Y-76623000I249999J0D01*
G01*
X117036001Y-76623000D01*
G75*
G02*
X117286000Y-76872999I0J-249999D01*
G01*
X117286000Y-77523001D01*
G75*
G02*
X117036001Y-77773000I-249999J0D01*
G01*
G37*
G36*
G01*
X117036001Y-79823000D02*
X116135999Y-79823000D01*
G75*
G02*
X115886000Y-79573001I0J249999D01*
G01*
X115886000Y-78922999D01*
G75*
G02*
X116135999Y-78673000I249999J0D01*
G01*
X117036001Y-78673000D01*
G75*
G02*
X117286000Y-78922999I0J-249999D01*
G01*
X117286000Y-79573001D01*
G75*
G02*
X117036001Y-79823000I-249999J0D01*
G01*
G37*
G36*
G01*
X143697000Y-109670001D02*
X143697000Y-108769999D01*
G75*
G02*
X143946999Y-108520000I249999J0D01*
G01*
X144597001Y-108520000D01*
G75*
G02*
X144847000Y-108769999I0J-249999D01*
G01*
X144847000Y-109670001D01*
G75*
G02*
X144597001Y-109920000I-249999J0D01*
G01*
X143946999Y-109920000D01*
G75*
G02*
X143697000Y-109670001I0J249999D01*
G01*
G37*
G36*
G01*
X141647000Y-109670001D02*
X141647000Y-108769999D01*
G75*
G02*
X141896999Y-108520000I249999J0D01*
G01*
X142547001Y-108520000D01*
G75*
G02*
X142797000Y-108769999I0J-249999D01*
G01*
X142797000Y-109670001D01*
G75*
G02*
X142547001Y-109920000I-249999J0D01*
G01*
X141896999Y-109920000D01*
G75*
G02*
X141647000Y-109670001I0J249999D01*
G01*
G37*
G36*
G01*
X142637200Y-111309999D02*
X142637200Y-112210001D01*
G75*
G02*
X142387201Y-112460000I-249999J0D01*
G01*
X141737199Y-112460000D01*
G75*
G02*
X141487200Y-112210001I0J249999D01*
G01*
X141487200Y-111309999D01*
G75*
G02*
X141737199Y-111060000I249999J0D01*
G01*
X142387201Y-111060000D01*
G75*
G02*
X142637200Y-111309999I0J-249999D01*
G01*
G37*
G36*
G01*
X144687200Y-111309999D02*
X144687200Y-112210001D01*
G75*
G02*
X144437201Y-112460000I-249999J0D01*
G01*
X143787199Y-112460000D01*
G75*
G02*
X143537200Y-112210001I0J249999D01*
G01*
X143537200Y-111309999D01*
G75*
G02*
X143787199Y-111060000I249999J0D01*
G01*
X144437201Y-111060000D01*
G75*
G02*
X144687200Y-111309999I0J-249999D01*
G01*
G37*
M02*
