G04 #@! TF.GenerationSoftware,KiCad,Pcbnew,5.1.6-c6e7f7d~87~ubuntu18.04.1*
G04 #@! TF.CreationDate,2020-08-18T13:24:46-04:00*
G04 #@! TF.ProjectId,arp_4072_LPF,6172705f-3430-4373-925f-4c50462e6b69,1*
G04 #@! TF.SameCoordinates,Original*
G04 #@! TF.FileFunction,Legend,Top*
G04 #@! TF.FilePolarity,Positive*
%FSLAX46Y46*%
G04 Gerber Fmt 4.6, Leading zero omitted, Abs format (unit mm)*
G04 Created by KiCad (PCBNEW 5.1.6-c6e7f7d~87~ubuntu18.04.1) date 2020-08-18 13:24:46*
%MOMM*%
%LPD*%
G01*
G04 APERTURE LIST*
%ADD10C,0.150000*%
%ADD11C,0.120000*%
%ADD12C,0.125000*%
%ADD13C,0.127000*%
G04 APERTURE END LIST*
D10*
X144081904Y-125515714D02*
X144462857Y-125515714D01*
X144224761Y-126182380D02*
X144224761Y-125325238D01*
X144272380Y-125230000D01*
X144367619Y-125182380D01*
X144462857Y-125182380D01*
X145177142Y-126134761D02*
X145081904Y-126182380D01*
X144891428Y-126182380D01*
X144796190Y-126134761D01*
X144748571Y-126039523D01*
X144748571Y-125658571D01*
X144796190Y-125563333D01*
X144891428Y-125515714D01*
X145081904Y-125515714D01*
X145177142Y-125563333D01*
X145224761Y-125658571D01*
X145224761Y-125753809D01*
X144748571Y-125849047D01*
X146034285Y-126134761D02*
X145939047Y-126182380D01*
X145748571Y-126182380D01*
X145653333Y-126134761D01*
X145605714Y-126039523D01*
X145605714Y-125658571D01*
X145653333Y-125563333D01*
X145748571Y-125515714D01*
X145939047Y-125515714D01*
X146034285Y-125563333D01*
X146081904Y-125658571D01*
X146081904Y-125753809D01*
X145605714Y-125849047D01*
X146939047Y-126182380D02*
X146939047Y-125182380D01*
X146939047Y-126134761D02*
X146843809Y-126182380D01*
X146653333Y-126182380D01*
X146558095Y-126134761D01*
X146510476Y-126087142D01*
X146462857Y-125991904D01*
X146462857Y-125706190D01*
X146510476Y-125610952D01*
X146558095Y-125563333D01*
X146653333Y-125515714D01*
X146843809Y-125515714D01*
X146939047Y-125563333D01*
X147415238Y-126182380D02*
X147415238Y-125182380D01*
X147415238Y-125563333D02*
X147510476Y-125515714D01*
X147700952Y-125515714D01*
X147796190Y-125563333D01*
X147843809Y-125610952D01*
X147891428Y-125706190D01*
X147891428Y-125991904D01*
X147843809Y-126087142D01*
X147796190Y-126134761D01*
X147700952Y-126182380D01*
X147510476Y-126182380D01*
X147415238Y-126134761D01*
X148748571Y-126182380D02*
X148748571Y-125658571D01*
X148700952Y-125563333D01*
X148605714Y-125515714D01*
X148415238Y-125515714D01*
X148320000Y-125563333D01*
X148748571Y-126134761D02*
X148653333Y-126182380D01*
X148415238Y-126182380D01*
X148320000Y-126134761D01*
X148272380Y-126039523D01*
X148272380Y-125944285D01*
X148320000Y-125849047D01*
X148415238Y-125801428D01*
X148653333Y-125801428D01*
X148748571Y-125753809D01*
X149653333Y-126134761D02*
X149558095Y-126182380D01*
X149367619Y-126182380D01*
X149272380Y-126134761D01*
X149224761Y-126087142D01*
X149177142Y-125991904D01*
X149177142Y-125706190D01*
X149224761Y-125610952D01*
X149272380Y-125563333D01*
X149367619Y-125515714D01*
X149558095Y-125515714D01*
X149653333Y-125563333D01*
X150081904Y-126182380D02*
X150081904Y-125182380D01*
X150177142Y-125801428D02*
X150462857Y-126182380D01*
X150462857Y-125515714D02*
X150081904Y-125896666D01*
X139208095Y-126182380D02*
X139112857Y-126134761D01*
X139065238Y-126087142D01*
X139017619Y-125991904D01*
X139017619Y-125706190D01*
X139065238Y-125610952D01*
X139112857Y-125563333D01*
X139208095Y-125515714D01*
X139350952Y-125515714D01*
X139446190Y-125563333D01*
X139493809Y-125610952D01*
X139541428Y-125706190D01*
X139541428Y-125991904D01*
X139493809Y-126087142D01*
X139446190Y-126134761D01*
X139350952Y-126182380D01*
X139208095Y-126182380D01*
X139827142Y-125515714D02*
X140208095Y-125515714D01*
X139970000Y-126182380D02*
X139970000Y-125325238D01*
X140017619Y-125230000D01*
X140112857Y-125182380D01*
X140208095Y-125182380D01*
X140398571Y-125515714D02*
X140779523Y-125515714D01*
X140541428Y-126182380D02*
X140541428Y-125325238D01*
X140589047Y-125230000D01*
X140684285Y-125182380D01*
X140779523Y-125182380D01*
X141065238Y-126134761D02*
X141160476Y-126182380D01*
X141350952Y-126182380D01*
X141446190Y-126134761D01*
X141493809Y-126039523D01*
X141493809Y-125991904D01*
X141446190Y-125896666D01*
X141350952Y-125849047D01*
X141208095Y-125849047D01*
X141112857Y-125801428D01*
X141065238Y-125706190D01*
X141065238Y-125658571D01*
X141112857Y-125563333D01*
X141208095Y-125515714D01*
X141350952Y-125515714D01*
X141446190Y-125563333D01*
X142303333Y-126134761D02*
X142208095Y-126182380D01*
X142017619Y-126182380D01*
X141922380Y-126134761D01*
X141874761Y-126039523D01*
X141874761Y-125658571D01*
X141922380Y-125563333D01*
X142017619Y-125515714D01*
X142208095Y-125515714D01*
X142303333Y-125563333D01*
X142350952Y-125658571D01*
X142350952Y-125753809D01*
X141874761Y-125849047D01*
X142636666Y-125515714D02*
X143017619Y-125515714D01*
X142779523Y-125182380D02*
X142779523Y-126039523D01*
X142827142Y-126134761D01*
X142922380Y-126182380D01*
X143017619Y-126182380D01*
X133215238Y-126182380D02*
X133215238Y-125182380D01*
X133215238Y-126134761D02*
X133120000Y-126182380D01*
X132929523Y-126182380D01*
X132834285Y-126134761D01*
X132786666Y-126087142D01*
X132739047Y-125991904D01*
X132739047Y-125706190D01*
X132786666Y-125610952D01*
X132834285Y-125563333D01*
X132929523Y-125515714D01*
X133120000Y-125515714D01*
X133215238Y-125563333D01*
X134072380Y-126134761D02*
X133977142Y-126182380D01*
X133786666Y-126182380D01*
X133691428Y-126134761D01*
X133643809Y-126039523D01*
X133643809Y-125658571D01*
X133691428Y-125563333D01*
X133786666Y-125515714D01*
X133977142Y-125515714D01*
X134072380Y-125563333D01*
X134120000Y-125658571D01*
X134120000Y-125753809D01*
X133643809Y-125849047D01*
X134548571Y-125515714D02*
X134548571Y-126515714D01*
X134548571Y-125563333D02*
X134643809Y-125515714D01*
X134834285Y-125515714D01*
X134929523Y-125563333D01*
X134977142Y-125610952D01*
X135024761Y-125706190D01*
X135024761Y-125991904D01*
X134977142Y-126087142D01*
X134929523Y-126134761D01*
X134834285Y-126182380D01*
X134643809Y-126182380D01*
X134548571Y-126134761D01*
X135310476Y-125515714D02*
X135691428Y-125515714D01*
X135453333Y-125182380D02*
X135453333Y-126039523D01*
X135500952Y-126134761D01*
X135596190Y-126182380D01*
X135691428Y-126182380D01*
X136024761Y-126182380D02*
X136024761Y-125182380D01*
X136453333Y-126182380D02*
X136453333Y-125658571D01*
X136405714Y-125563333D01*
X136310476Y-125515714D01*
X136167619Y-125515714D01*
X136072380Y-125563333D01*
X136024761Y-125610952D01*
D11*
X149852748Y-94436000D02*
X150375252Y-94436000D01*
X149852748Y-93016000D02*
X150375252Y-93016000D01*
D12*
X163080000Y-82370000D02*
X164580000Y-82370000D01*
X163080000Y-85270000D02*
X163080000Y-82370000D01*
X164580000Y-85270000D02*
X163080000Y-85270000D01*
X164580000Y-82370000D02*
X164580000Y-85270000D01*
X163430000Y-82670000D02*
G75*
G03*
X163430000Y-82670000I-50000J0D01*
G01*
D11*
X137434000Y-102108000D02*
X137434000Y-98658000D01*
X137434000Y-102108000D02*
X137434000Y-104058000D01*
X132314000Y-102108000D02*
X132314000Y-100158000D01*
X132314000Y-102108000D02*
X132314000Y-104058000D01*
X172609000Y-96079000D02*
X172609000Y-92629000D01*
X172609000Y-96079000D02*
X172609000Y-98029000D01*
X167489000Y-96079000D02*
X167489000Y-94129000D01*
X167489000Y-96079000D02*
X167489000Y-98029000D01*
X161280000Y-96012000D02*
X161280000Y-92562000D01*
X161280000Y-96012000D02*
X161280000Y-97962000D01*
X152410000Y-96012000D02*
X152410000Y-94062000D01*
X152410000Y-96012000D02*
X152410000Y-97962000D01*
X149850000Y-124265000D02*
X144780000Y-124265000D01*
X149850000Y-114495000D02*
X144780000Y-114495000D01*
X144780000Y-114495000D02*
X144780000Y-124265000D01*
X149850000Y-114495000D02*
X149850000Y-124265000D01*
X143500000Y-124265000D02*
X138430000Y-124265000D01*
X143500000Y-114495000D02*
X138430000Y-114495000D01*
X138430000Y-114495000D02*
X138430000Y-124265000D01*
X143500000Y-114495000D02*
X143500000Y-124265000D01*
X137150000Y-124265000D02*
X132080000Y-124265000D01*
X137150000Y-114495000D02*
X132080000Y-114495000D01*
X132080000Y-114495000D02*
X132080000Y-124265000D01*
X137150000Y-114495000D02*
X137150000Y-124265000D01*
X153468000Y-120651748D02*
X153468000Y-121174252D01*
X154888000Y-120651748D02*
X154888000Y-121174252D01*
X158317000Y-124204252D02*
X158317000Y-123681748D01*
X156897000Y-124204252D02*
X156897000Y-123681748D01*
X161536748Y-118312000D02*
X162059252Y-118312000D01*
X161536748Y-116892000D02*
X162059252Y-116892000D01*
X161527748Y-120598000D02*
X162050252Y-120598000D01*
X161527748Y-119178000D02*
X162050252Y-119178000D01*
X170740000Y-101855748D02*
X170740000Y-102378252D01*
X172160000Y-101855748D02*
X172160000Y-102378252D01*
X167819000Y-101855748D02*
X167819000Y-102378252D01*
X169239000Y-101855748D02*
X169239000Y-102378252D01*
X171203252Y-119178000D02*
X170680748Y-119178000D01*
X171203252Y-120598000D02*
X170680748Y-120598000D01*
X170689748Y-118312000D02*
X171212252Y-118312000D01*
X170689748Y-116892000D02*
X171212252Y-116892000D01*
X166318000Y-102378252D02*
X166318000Y-101855748D01*
X164898000Y-102378252D02*
X164898000Y-101855748D01*
X173661000Y-101855748D02*
X173661000Y-102378252D01*
X175081000Y-101855748D02*
X175081000Y-102378252D01*
X138505000Y-96264252D02*
X138505000Y-95741748D01*
X137085000Y-96264252D02*
X137085000Y-95741748D01*
X129742000Y-96264252D02*
X129742000Y-95741748D01*
X128322000Y-96264252D02*
X128322000Y-95741748D01*
X135584000Y-96264252D02*
X135584000Y-95741748D01*
X134164000Y-96264252D02*
X134164000Y-95741748D01*
X170613000Y-89772748D02*
X170613000Y-90295252D01*
X172033000Y-89772748D02*
X172033000Y-90295252D01*
X169112000Y-90295252D02*
X169112000Y-89772748D01*
X167692000Y-90295252D02*
X167692000Y-89772748D01*
X161088000Y-111870748D02*
X161088000Y-112393252D01*
X162508000Y-111870748D02*
X162508000Y-112393252D01*
X152256748Y-104850000D02*
X152779252Y-104850000D01*
X152256748Y-103430000D02*
X152779252Y-103430000D01*
X165429000Y-112393252D02*
X165429000Y-111870748D01*
X164009000Y-112393252D02*
X164009000Y-111870748D01*
X156828748Y-104850000D02*
X157351252Y-104850000D01*
X156828748Y-103430000D02*
X157351252Y-103430000D01*
X166930000Y-111870748D02*
X166930000Y-112393252D01*
X168350000Y-111870748D02*
X168350000Y-112393252D01*
X158167000Y-111870748D02*
X158167000Y-112393252D01*
X159587000Y-111870748D02*
X159587000Y-112393252D01*
X161545748Y-104850000D02*
X162068252Y-104850000D01*
X161545748Y-103430000D02*
X162068252Y-103430000D01*
X156666000Y-112411252D02*
X156666000Y-111888748D01*
X155246000Y-112411252D02*
X155246000Y-111888748D01*
X161418748Y-101548000D02*
X161941252Y-101548000D01*
X161418748Y-100128000D02*
X161941252Y-100128000D01*
X152325000Y-111888748D02*
X152325000Y-112411252D01*
X153745000Y-111888748D02*
X153745000Y-112411252D01*
X146541748Y-90499000D02*
X147064252Y-90499000D01*
X146541748Y-89079000D02*
X147064252Y-89079000D01*
X166445000Y-80534252D02*
X166445000Y-80011748D01*
X165025000Y-80534252D02*
X165025000Y-80011748D01*
X161418748Y-88594000D02*
X161941252Y-88594000D01*
X161418748Y-87174000D02*
X161941252Y-87174000D01*
X142111252Y-86920000D02*
X141588748Y-86920000D01*
X142111252Y-88340000D02*
X141588748Y-88340000D01*
X162104000Y-79993748D02*
X162104000Y-80516252D01*
X163524000Y-79993748D02*
X163524000Y-80516252D01*
X142111252Y-89079000D02*
X141588748Y-89079000D01*
X142111252Y-90499000D02*
X141588748Y-90499000D01*
X156988252Y-87174000D02*
X156465748Y-87174000D01*
X156988252Y-88594000D02*
X156465748Y-88594000D01*
X160603000Y-80534252D02*
X160603000Y-80011748D01*
X159183000Y-80534252D02*
X159183000Y-80011748D01*
X157682000Y-80516252D02*
X157682000Y-79993748D01*
X156262000Y-80516252D02*
X156262000Y-79993748D01*
X152906252Y-87174000D02*
X152383748Y-87174000D01*
X152906252Y-88594000D02*
X152383748Y-88594000D01*
X153341000Y-79993748D02*
X153341000Y-80516252D01*
X154761000Y-79993748D02*
X154761000Y-80516252D01*
X144542252Y-77522000D02*
X144019748Y-77522000D01*
X144542252Y-78942000D02*
X144019748Y-78942000D01*
X144019748Y-80974000D02*
X144542252Y-80974000D01*
X144019748Y-79554000D02*
X144542252Y-79554000D01*
X151840000Y-80534252D02*
X151840000Y-80011748D01*
X150420000Y-80534252D02*
X150420000Y-80011748D01*
X139683748Y-81990000D02*
X140206252Y-81990000D01*
X139683748Y-80570000D02*
X140206252Y-80570000D01*
X137085000Y-107951748D02*
X137085000Y-108474252D01*
X138505000Y-107951748D02*
X138505000Y-108474252D01*
X135634252Y-79554000D02*
X135111748Y-79554000D01*
X135634252Y-80974000D02*
X135111748Y-80974000D01*
X135634252Y-77522000D02*
X135111748Y-77522000D01*
X135634252Y-78942000D02*
X135111748Y-78942000D01*
X135584000Y-108474252D02*
X135584000Y-107951748D01*
X134164000Y-108474252D02*
X134164000Y-107951748D01*
X162201000Y-125659000D02*
X160741000Y-125659000D01*
X162201000Y-122499000D02*
X159041000Y-122499000D01*
X162201000Y-122499000D02*
X162201000Y-123429000D01*
X162201000Y-125659000D02*
X162201000Y-124729000D01*
X167868000Y-125659000D02*
X166408000Y-125659000D01*
X167868000Y-122499000D02*
X164708000Y-122499000D01*
X167868000Y-122499000D02*
X167868000Y-123429000D01*
X167868000Y-125659000D02*
X167868000Y-124729000D01*
X173456000Y-125659000D02*
X171996000Y-125659000D01*
X173456000Y-122499000D02*
X170296000Y-122499000D01*
X173456000Y-122499000D02*
X173456000Y-123429000D01*
X173456000Y-125659000D02*
X173456000Y-124729000D01*
D12*
X165694000Y-117930000D02*
X167194000Y-117930000D01*
X165694000Y-120830000D02*
X165694000Y-117930000D01*
X167194000Y-120830000D02*
X165694000Y-120830000D01*
X167194000Y-117930000D02*
X167194000Y-120830000D01*
X166044000Y-118230000D02*
G75*
G03*
X166044000Y-118230000I-50000J0D01*
G01*
X162879000Y-107135000D02*
X164379000Y-107135000D01*
X162879000Y-110035000D02*
X162879000Y-107135000D01*
X164379000Y-110035000D02*
X162879000Y-110035000D01*
X164379000Y-107135000D02*
X164379000Y-110035000D01*
X163229000Y-107435000D02*
G75*
G03*
X163229000Y-107435000I-50000J0D01*
G01*
X154010000Y-107135000D02*
X155510000Y-107135000D01*
X154010000Y-110035000D02*
X154010000Y-107135000D01*
X155510000Y-110035000D02*
X154010000Y-110035000D01*
X155510000Y-107135000D02*
X155510000Y-110035000D01*
X154360000Y-107435000D02*
G75*
G03*
X154360000Y-107435000I-50000J0D01*
G01*
X145607000Y-85611000D02*
X147107000Y-85611000D01*
X145607000Y-88511000D02*
X145607000Y-85611000D01*
X147107000Y-88511000D02*
X145607000Y-88511000D01*
X147107000Y-85611000D02*
X147107000Y-88511000D01*
X145957000Y-85911000D02*
G75*
G03*
X145957000Y-85911000I-50000J0D01*
G01*
X154645000Y-82309000D02*
X156145000Y-82309000D01*
X154645000Y-85209000D02*
X154645000Y-82309000D01*
X156145000Y-85209000D02*
X154645000Y-85209000D01*
X156145000Y-82309000D02*
X156145000Y-85209000D01*
X154995000Y-82609000D02*
G75*
G03*
X154995000Y-82609000I-50000J0D01*
G01*
X139130000Y-77036000D02*
X140630000Y-77036000D01*
X139130000Y-79936000D02*
X139130000Y-77036000D01*
X140630000Y-79936000D02*
X139130000Y-79936000D01*
X140630000Y-77036000D02*
X140630000Y-79936000D01*
X139480000Y-77336000D02*
G75*
G03*
X139480000Y-77336000I-50000J0D01*
G01*
D11*
X150638000Y-122646000D02*
X150638000Y-118746000D01*
X152638000Y-122646000D02*
X152638000Y-118746000D01*
X150638000Y-122646000D02*
X152638000Y-122646000D01*
X139970252Y-98858000D02*
X139447748Y-98858000D01*
X139970252Y-100278000D02*
X139447748Y-100278000D01*
X139175748Y-105358000D02*
X139698252Y-105358000D01*
X139175748Y-103938000D02*
X139698252Y-103938000D01*
X165083748Y-94182000D02*
X165606252Y-94182000D01*
X165083748Y-92762000D02*
X165606252Y-92762000D01*
X174499748Y-99008000D02*
X175022252Y-99008000D01*
X174499748Y-97588000D02*
X175022252Y-97588000D01*
X179077252Y-108510000D02*
X178554748Y-108510000D01*
X179077252Y-109930000D02*
X178554748Y-109930000D01*
X175022252Y-108510000D02*
X174499748Y-108510000D01*
X175022252Y-109930000D02*
X174499748Y-109930000D01*
X141426000Y-96264252D02*
X141426000Y-95741748D01*
X140006000Y-96264252D02*
X140006000Y-95741748D01*
X131243000Y-95750748D02*
X131243000Y-96273252D01*
X132663000Y-95750748D02*
X132663000Y-96273252D01*
X173385241Y-85593000D02*
X173385241Y-84963000D01*
X173700241Y-85278000D02*
X173070241Y-85278000D01*
X166959000Y-83841000D02*
X166959000Y-83037000D01*
X166999000Y-84072000D02*
X166999000Y-82806000D01*
X167039000Y-84241000D02*
X167039000Y-82637000D01*
X167079000Y-84379000D02*
X167079000Y-82499000D01*
X167119000Y-84498000D02*
X167119000Y-82380000D01*
X167159000Y-84604000D02*
X167159000Y-82274000D01*
X167199000Y-84701000D02*
X167199000Y-82177000D01*
X167239000Y-84789000D02*
X167239000Y-82089000D01*
X167279000Y-84871000D02*
X167279000Y-82007000D01*
X167319000Y-84948000D02*
X167319000Y-81930000D01*
X167359000Y-85020000D02*
X167359000Y-81858000D01*
X167399000Y-85089000D02*
X167399000Y-81789000D01*
X167439000Y-85153000D02*
X167439000Y-81725000D01*
X167479000Y-85215000D02*
X167479000Y-81663000D01*
X167519000Y-85273000D02*
X167519000Y-81605000D01*
X167559000Y-85329000D02*
X167559000Y-81549000D01*
X167599000Y-85383000D02*
X167599000Y-81495000D01*
X167639000Y-85434000D02*
X167639000Y-81444000D01*
X167679000Y-85483000D02*
X167679000Y-81395000D01*
X167719000Y-85531000D02*
X167719000Y-81347000D01*
X167759000Y-85576000D02*
X167759000Y-81302000D01*
X167799000Y-85621000D02*
X167799000Y-81257000D01*
X167839000Y-85663000D02*
X167839000Y-81215000D01*
X167879000Y-85704000D02*
X167879000Y-81174000D01*
X167919000Y-82399000D02*
X167919000Y-81134000D01*
X167919000Y-85744000D02*
X167919000Y-84479000D01*
X167959000Y-82399000D02*
X167959000Y-81096000D01*
X167959000Y-85782000D02*
X167959000Y-84479000D01*
X167999000Y-82399000D02*
X167999000Y-81059000D01*
X167999000Y-85819000D02*
X167999000Y-84479000D01*
X168039000Y-82399000D02*
X168039000Y-81023000D01*
X168039000Y-85855000D02*
X168039000Y-84479000D01*
X168079000Y-82399000D02*
X168079000Y-80989000D01*
X168079000Y-85889000D02*
X168079000Y-84479000D01*
X168119000Y-82399000D02*
X168119000Y-80955000D01*
X168119000Y-85923000D02*
X168119000Y-84479000D01*
X168159000Y-82399000D02*
X168159000Y-80923000D01*
X168159000Y-85955000D02*
X168159000Y-84479000D01*
X168199000Y-82399000D02*
X168199000Y-80891000D01*
X168199000Y-85987000D02*
X168199000Y-84479000D01*
X168239000Y-82399000D02*
X168239000Y-80861000D01*
X168239000Y-86017000D02*
X168239000Y-84479000D01*
X168279000Y-82399000D02*
X168279000Y-80832000D01*
X168279000Y-86046000D02*
X168279000Y-84479000D01*
X168319000Y-82399000D02*
X168319000Y-80803000D01*
X168319000Y-86075000D02*
X168319000Y-84479000D01*
X168359000Y-82399000D02*
X168359000Y-80775000D01*
X168359000Y-86103000D02*
X168359000Y-84479000D01*
X168399000Y-82399000D02*
X168399000Y-80749000D01*
X168399000Y-86129000D02*
X168399000Y-84479000D01*
X168439000Y-82399000D02*
X168439000Y-80723000D01*
X168439000Y-86155000D02*
X168439000Y-84479000D01*
X168479000Y-82399000D02*
X168479000Y-80697000D01*
X168479000Y-86181000D02*
X168479000Y-84479000D01*
X168519000Y-82399000D02*
X168519000Y-80673000D01*
X168519000Y-86205000D02*
X168519000Y-84479000D01*
X168559000Y-82399000D02*
X168559000Y-80649000D01*
X168559000Y-86229000D02*
X168559000Y-84479000D01*
X168599000Y-82399000D02*
X168599000Y-80627000D01*
X168599000Y-86251000D02*
X168599000Y-84479000D01*
X168639000Y-82399000D02*
X168639000Y-80605000D01*
X168639000Y-86273000D02*
X168639000Y-84479000D01*
X168679000Y-82399000D02*
X168679000Y-80583000D01*
X168679000Y-86295000D02*
X168679000Y-84479000D01*
X168719000Y-82399000D02*
X168719000Y-80563000D01*
X168719000Y-86315000D02*
X168719000Y-84479000D01*
X168759000Y-82399000D02*
X168759000Y-80543000D01*
X168759000Y-86335000D02*
X168759000Y-84479000D01*
X168799000Y-82399000D02*
X168799000Y-80523000D01*
X168799000Y-86355000D02*
X168799000Y-84479000D01*
X168839000Y-82399000D02*
X168839000Y-80505000D01*
X168839000Y-86373000D02*
X168839000Y-84479000D01*
X168879000Y-82399000D02*
X168879000Y-80487000D01*
X168879000Y-86391000D02*
X168879000Y-84479000D01*
X168919000Y-82399000D02*
X168919000Y-80469000D01*
X168919000Y-86409000D02*
X168919000Y-84479000D01*
X168959000Y-82399000D02*
X168959000Y-80453000D01*
X168959000Y-86425000D02*
X168959000Y-84479000D01*
X168999000Y-82399000D02*
X168999000Y-80437000D01*
X168999000Y-86441000D02*
X168999000Y-84479000D01*
X169039000Y-82399000D02*
X169039000Y-80421000D01*
X169039000Y-86457000D02*
X169039000Y-84479000D01*
X169079000Y-82399000D02*
X169079000Y-80406000D01*
X169079000Y-86472000D02*
X169079000Y-84479000D01*
X169119000Y-82399000D02*
X169119000Y-80392000D01*
X169119000Y-86486000D02*
X169119000Y-84479000D01*
X169159000Y-82399000D02*
X169159000Y-80378000D01*
X169159000Y-86500000D02*
X169159000Y-84479000D01*
X169199000Y-82399000D02*
X169199000Y-80365000D01*
X169199000Y-86513000D02*
X169199000Y-84479000D01*
X169239000Y-82399000D02*
X169239000Y-80353000D01*
X169239000Y-86525000D02*
X169239000Y-84479000D01*
X169279000Y-82399000D02*
X169279000Y-80341000D01*
X169279000Y-86537000D02*
X169279000Y-84479000D01*
X169319000Y-82399000D02*
X169319000Y-80329000D01*
X169319000Y-86549000D02*
X169319000Y-84479000D01*
X169359000Y-82399000D02*
X169359000Y-80318000D01*
X169359000Y-86560000D02*
X169359000Y-84479000D01*
X169399000Y-82399000D02*
X169399000Y-80308000D01*
X169399000Y-86570000D02*
X169399000Y-84479000D01*
X169439000Y-82399000D02*
X169439000Y-80298000D01*
X169439000Y-86580000D02*
X169439000Y-84479000D01*
X169479000Y-82399000D02*
X169479000Y-80289000D01*
X169479000Y-86589000D02*
X169479000Y-84479000D01*
X169520000Y-82399000D02*
X169520000Y-80280000D01*
X169520000Y-86598000D02*
X169520000Y-84479000D01*
X169560000Y-82399000D02*
X169560000Y-80272000D01*
X169560000Y-86606000D02*
X169560000Y-84479000D01*
X169600000Y-82399000D02*
X169600000Y-80264000D01*
X169600000Y-86614000D02*
X169600000Y-84479000D01*
X169640000Y-82399000D02*
X169640000Y-80257000D01*
X169640000Y-86621000D02*
X169640000Y-84479000D01*
X169680000Y-82399000D02*
X169680000Y-80250000D01*
X169680000Y-86628000D02*
X169680000Y-84479000D01*
X169720000Y-82399000D02*
X169720000Y-80244000D01*
X169720000Y-86634000D02*
X169720000Y-84479000D01*
X169760000Y-82399000D02*
X169760000Y-80238000D01*
X169760000Y-86640000D02*
X169760000Y-84479000D01*
X169800000Y-82399000D02*
X169800000Y-80233000D01*
X169800000Y-86645000D02*
X169800000Y-84479000D01*
X169840000Y-82399000D02*
X169840000Y-80228000D01*
X169840000Y-86650000D02*
X169840000Y-84479000D01*
X169880000Y-82399000D02*
X169880000Y-80224000D01*
X169880000Y-86654000D02*
X169880000Y-84479000D01*
X169920000Y-82399000D02*
X169920000Y-80221000D01*
X169920000Y-86657000D02*
X169920000Y-84479000D01*
X169960000Y-82399000D02*
X169960000Y-80217000D01*
X169960000Y-86661000D02*
X169960000Y-84479000D01*
X170000000Y-86663000D02*
X170000000Y-80215000D01*
X170040000Y-86666000D02*
X170040000Y-80212000D01*
X170080000Y-86667000D02*
X170080000Y-80211000D01*
X170120000Y-86669000D02*
X170120000Y-80209000D01*
X170160000Y-86669000D02*
X170160000Y-80209000D01*
X170200000Y-86669000D02*
X170200000Y-80209000D01*
X173470000Y-83439000D02*
G75*
G03*
X173470000Y-83439000I-3270000J0D01*
G01*
X156846748Y-101548000D02*
X157369252Y-101548000D01*
X156846748Y-100128000D02*
X157369252Y-100128000D01*
X152797252Y-100128000D02*
X152274748Y-100128000D01*
X152797252Y-101548000D02*
X152274748Y-101548000D01*
X158624748Y-91896000D02*
X159147252Y-91896000D01*
X158624748Y-90476000D02*
X159147252Y-90476000D01*
X154448252Y-90476000D02*
X153925748Y-90476000D01*
X154448252Y-91896000D02*
X153925748Y-91896000D01*
X131243000Y-107951748D02*
X131243000Y-108474252D01*
X132663000Y-107951748D02*
X132663000Y-108474252D01*
D10*
X149471142Y-92433142D02*
X149423523Y-92480761D01*
X149280666Y-92528380D01*
X149185428Y-92528380D01*
X149042571Y-92480761D01*
X148947333Y-92385523D01*
X148899714Y-92290285D01*
X148852095Y-92099809D01*
X148852095Y-91956952D01*
X148899714Y-91766476D01*
X148947333Y-91671238D01*
X149042571Y-91576000D01*
X149185428Y-91528380D01*
X149280666Y-91528380D01*
X149423523Y-91576000D01*
X149471142Y-91623619D01*
X150423523Y-92528380D02*
X149852095Y-92528380D01*
X150137809Y-92528380D02*
X150137809Y-91528380D01*
X150042571Y-91671238D01*
X149947333Y-91766476D01*
X149852095Y-91814095D01*
X151328285Y-91528380D02*
X150852095Y-91528380D01*
X150804476Y-92004571D01*
X150852095Y-91956952D01*
X150947333Y-91909333D01*
X151185428Y-91909333D01*
X151280666Y-91956952D01*
X151328285Y-92004571D01*
X151375904Y-92099809D01*
X151375904Y-92337904D01*
X151328285Y-92433142D01*
X151280666Y-92480761D01*
X151185428Y-92528380D01*
X150947333Y-92528380D01*
X150852095Y-92480761D01*
X150804476Y-92433142D01*
D13*
X164108190Y-83868380D02*
X164084000Y-83916761D01*
X164035619Y-83965142D01*
X163963047Y-84037714D01*
X163938857Y-84086095D01*
X163938857Y-84134476D01*
X164059809Y-84110285D02*
X164035619Y-84158666D01*
X163987238Y-84207047D01*
X163890476Y-84231238D01*
X163721142Y-84231238D01*
X163624380Y-84207047D01*
X163576000Y-84158666D01*
X163551809Y-84110285D01*
X163551809Y-84013523D01*
X163576000Y-83965142D01*
X163624380Y-83916761D01*
X163721142Y-83892571D01*
X163890476Y-83892571D01*
X163987238Y-83916761D01*
X164035619Y-83965142D01*
X164059809Y-84013523D01*
X164059809Y-84110285D01*
X163551809Y-83723238D02*
X163551809Y-83408761D01*
X163745333Y-83578095D01*
X163745333Y-83505523D01*
X163769523Y-83457142D01*
X163793714Y-83432952D01*
X163842095Y-83408761D01*
X163963047Y-83408761D01*
X164011428Y-83432952D01*
X164035619Y-83457142D01*
X164059809Y-83505523D01*
X164059809Y-83650666D01*
X164035619Y-83699047D01*
X164011428Y-83723238D01*
D10*
X137795095Y-101560380D02*
X137795095Y-102369904D01*
X137842714Y-102465142D01*
X137890333Y-102512761D01*
X137985571Y-102560380D01*
X138176047Y-102560380D01*
X138271285Y-102512761D01*
X138318904Y-102465142D01*
X138366523Y-102369904D01*
X138366523Y-101560380D01*
X138747476Y-101560380D02*
X139366523Y-101560380D01*
X139033190Y-101941333D01*
X139176047Y-101941333D01*
X139271285Y-101988952D01*
X139318904Y-102036571D01*
X139366523Y-102131809D01*
X139366523Y-102369904D01*
X139318904Y-102465142D01*
X139271285Y-102512761D01*
X139176047Y-102560380D01*
X138890333Y-102560380D01*
X138795095Y-102512761D01*
X138747476Y-102465142D01*
X172974095Y-95591380D02*
X172974095Y-96400904D01*
X173021714Y-96496142D01*
X173069333Y-96543761D01*
X173164571Y-96591380D01*
X173355047Y-96591380D01*
X173450285Y-96543761D01*
X173497904Y-96496142D01*
X173545523Y-96400904D01*
X173545523Y-95591380D01*
X173974095Y-95686619D02*
X174021714Y-95639000D01*
X174116952Y-95591380D01*
X174355047Y-95591380D01*
X174450285Y-95639000D01*
X174497904Y-95686619D01*
X174545523Y-95781857D01*
X174545523Y-95877095D01*
X174497904Y-96019952D01*
X173926476Y-96591380D01*
X174545523Y-96591380D01*
X161671095Y-95464380D02*
X161671095Y-96273904D01*
X161718714Y-96369142D01*
X161766333Y-96416761D01*
X161861571Y-96464380D01*
X162052047Y-96464380D01*
X162147285Y-96416761D01*
X162194904Y-96369142D01*
X162242523Y-96273904D01*
X162242523Y-95464380D01*
X163242523Y-96464380D02*
X162671095Y-96464380D01*
X162956809Y-96464380D02*
X162956809Y-95464380D01*
X162861571Y-95607238D01*
X162766333Y-95702476D01*
X162671095Y-95750095D01*
X146724761Y-114117380D02*
X146391428Y-113641190D01*
X146153333Y-114117380D02*
X146153333Y-113117380D01*
X146534285Y-113117380D01*
X146629523Y-113165000D01*
X146677142Y-113212619D01*
X146724761Y-113307857D01*
X146724761Y-113450714D01*
X146677142Y-113545952D01*
X146629523Y-113593571D01*
X146534285Y-113641190D01*
X146153333Y-113641190D01*
X147010476Y-113117380D02*
X147343809Y-114117380D01*
X147677142Y-113117380D01*
X147915238Y-113117380D02*
X148534285Y-113117380D01*
X148200952Y-113498333D01*
X148343809Y-113498333D01*
X148439047Y-113545952D01*
X148486666Y-113593571D01*
X148534285Y-113688809D01*
X148534285Y-113926904D01*
X148486666Y-114022142D01*
X148439047Y-114069761D01*
X148343809Y-114117380D01*
X148058095Y-114117380D01*
X147962857Y-114069761D01*
X147915238Y-114022142D01*
X140374761Y-114117380D02*
X140041428Y-113641190D01*
X139803333Y-114117380D02*
X139803333Y-113117380D01*
X140184285Y-113117380D01*
X140279523Y-113165000D01*
X140327142Y-113212619D01*
X140374761Y-113307857D01*
X140374761Y-113450714D01*
X140327142Y-113545952D01*
X140279523Y-113593571D01*
X140184285Y-113641190D01*
X139803333Y-113641190D01*
X140660476Y-113117380D02*
X140993809Y-114117380D01*
X141327142Y-113117380D01*
X141612857Y-113212619D02*
X141660476Y-113165000D01*
X141755714Y-113117380D01*
X141993809Y-113117380D01*
X142089047Y-113165000D01*
X142136666Y-113212619D01*
X142184285Y-113307857D01*
X142184285Y-113403095D01*
X142136666Y-113545952D01*
X141565238Y-114117380D01*
X142184285Y-114117380D01*
X134024761Y-114117380D02*
X133691428Y-113641190D01*
X133453333Y-114117380D02*
X133453333Y-113117380D01*
X133834285Y-113117380D01*
X133929523Y-113165000D01*
X133977142Y-113212619D01*
X134024761Y-113307857D01*
X134024761Y-113450714D01*
X133977142Y-113545952D01*
X133929523Y-113593571D01*
X133834285Y-113641190D01*
X133453333Y-113641190D01*
X134310476Y-113117380D02*
X134643809Y-114117380D01*
X134977142Y-113117380D01*
X135834285Y-114117380D02*
X135262857Y-114117380D01*
X135548571Y-114117380D02*
X135548571Y-113117380D01*
X135453333Y-113260238D01*
X135358095Y-113355476D01*
X135262857Y-113403095D01*
X153535142Y-118707380D02*
X153201809Y-118231190D01*
X152963714Y-118707380D02*
X152963714Y-117707380D01*
X153344666Y-117707380D01*
X153439904Y-117755000D01*
X153487523Y-117802619D01*
X153535142Y-117897857D01*
X153535142Y-118040714D01*
X153487523Y-118135952D01*
X153439904Y-118183571D01*
X153344666Y-118231190D01*
X152963714Y-118231190D01*
X154392285Y-118040714D02*
X154392285Y-118707380D01*
X154154190Y-117659761D02*
X153916095Y-118374047D01*
X154535142Y-118374047D01*
X155344666Y-118040714D02*
X155344666Y-118707380D01*
X155106571Y-117659761D02*
X154868476Y-118374047D01*
X155487523Y-118374047D01*
X156964142Y-121982380D02*
X156630809Y-121506190D01*
X156392714Y-121982380D02*
X156392714Y-120982380D01*
X156773666Y-120982380D01*
X156868904Y-121030000D01*
X156916523Y-121077619D01*
X156964142Y-121172857D01*
X156964142Y-121315714D01*
X156916523Y-121410952D01*
X156868904Y-121458571D01*
X156773666Y-121506190D01*
X156392714Y-121506190D01*
X157821285Y-121315714D02*
X157821285Y-121982380D01*
X157583190Y-120934761D02*
X157345095Y-121649047D01*
X157964142Y-121649047D01*
X158249857Y-120982380D02*
X158868904Y-120982380D01*
X158535571Y-121363333D01*
X158678428Y-121363333D01*
X158773666Y-121410952D01*
X158821285Y-121458571D01*
X158868904Y-121553809D01*
X158868904Y-121791904D01*
X158821285Y-121887142D01*
X158773666Y-121934761D01*
X158678428Y-121982380D01*
X158392714Y-121982380D01*
X158297476Y-121934761D01*
X158249857Y-121887142D01*
X157971142Y-118054380D02*
X157637809Y-117578190D01*
X157399714Y-118054380D02*
X157399714Y-117054380D01*
X157780666Y-117054380D01*
X157875904Y-117102000D01*
X157923523Y-117149619D01*
X157971142Y-117244857D01*
X157971142Y-117387714D01*
X157923523Y-117482952D01*
X157875904Y-117530571D01*
X157780666Y-117578190D01*
X157399714Y-117578190D01*
X158828285Y-117387714D02*
X158828285Y-118054380D01*
X158590190Y-117006761D02*
X158352095Y-117721047D01*
X158971142Y-117721047D01*
X159304476Y-117149619D02*
X159352095Y-117102000D01*
X159447333Y-117054380D01*
X159685428Y-117054380D01*
X159780666Y-117102000D01*
X159828285Y-117149619D01*
X159875904Y-117244857D01*
X159875904Y-117340095D01*
X159828285Y-117482952D01*
X159256857Y-118054380D01*
X159875904Y-118054380D01*
X157971142Y-120340380D02*
X157637809Y-119864190D01*
X157399714Y-120340380D02*
X157399714Y-119340380D01*
X157780666Y-119340380D01*
X157875904Y-119388000D01*
X157923523Y-119435619D01*
X157971142Y-119530857D01*
X157971142Y-119673714D01*
X157923523Y-119768952D01*
X157875904Y-119816571D01*
X157780666Y-119864190D01*
X157399714Y-119864190D01*
X158828285Y-119673714D02*
X158828285Y-120340380D01*
X158590190Y-119292761D02*
X158352095Y-120007047D01*
X158971142Y-120007047D01*
X159875904Y-120340380D02*
X159304476Y-120340380D01*
X159590190Y-120340380D02*
X159590190Y-119340380D01*
X159494952Y-119483238D01*
X159399714Y-119578476D01*
X159304476Y-119626095D01*
X170807142Y-105100380D02*
X170473809Y-104624190D01*
X170235714Y-105100380D02*
X170235714Y-104100380D01*
X170616666Y-104100380D01*
X170711904Y-104148000D01*
X170759523Y-104195619D01*
X170807142Y-104290857D01*
X170807142Y-104433714D01*
X170759523Y-104528952D01*
X170711904Y-104576571D01*
X170616666Y-104624190D01*
X170235714Y-104624190D01*
X171664285Y-104433714D02*
X171664285Y-105100380D01*
X171426190Y-104052761D02*
X171188095Y-104767047D01*
X171807142Y-104767047D01*
X172378571Y-104100380D02*
X172473809Y-104100380D01*
X172569047Y-104148000D01*
X172616666Y-104195619D01*
X172664285Y-104290857D01*
X172711904Y-104481333D01*
X172711904Y-104719428D01*
X172664285Y-104909904D01*
X172616666Y-105005142D01*
X172569047Y-105052761D01*
X172473809Y-105100380D01*
X172378571Y-105100380D01*
X172283333Y-105052761D01*
X172235714Y-105005142D01*
X172188095Y-104909904D01*
X172140476Y-104719428D01*
X172140476Y-104481333D01*
X172188095Y-104290857D01*
X172235714Y-104195619D01*
X172283333Y-104148000D01*
X172378571Y-104100380D01*
X167886142Y-105100380D02*
X167552809Y-104624190D01*
X167314714Y-105100380D02*
X167314714Y-104100380D01*
X167695666Y-104100380D01*
X167790904Y-104148000D01*
X167838523Y-104195619D01*
X167886142Y-104290857D01*
X167886142Y-104433714D01*
X167838523Y-104528952D01*
X167790904Y-104576571D01*
X167695666Y-104624190D01*
X167314714Y-104624190D01*
X168219476Y-104100380D02*
X168838523Y-104100380D01*
X168505190Y-104481333D01*
X168648047Y-104481333D01*
X168743285Y-104528952D01*
X168790904Y-104576571D01*
X168838523Y-104671809D01*
X168838523Y-104909904D01*
X168790904Y-105005142D01*
X168743285Y-105052761D01*
X168648047Y-105100380D01*
X168362333Y-105100380D01*
X168267095Y-105052761D01*
X168219476Y-105005142D01*
X169314714Y-105100380D02*
X169505190Y-105100380D01*
X169600428Y-105052761D01*
X169648047Y-105005142D01*
X169743285Y-104862285D01*
X169790904Y-104671809D01*
X169790904Y-104290857D01*
X169743285Y-104195619D01*
X169695666Y-104148000D01*
X169600428Y-104100380D01*
X169409952Y-104100380D01*
X169314714Y-104148000D01*
X169267095Y-104195619D01*
X169219476Y-104290857D01*
X169219476Y-104528952D01*
X169267095Y-104624190D01*
X169314714Y-104671809D01*
X169409952Y-104719428D01*
X169600428Y-104719428D01*
X169695666Y-104671809D01*
X169743285Y-104624190D01*
X169790904Y-104528952D01*
X173610142Y-120340380D02*
X173276809Y-119864190D01*
X173038714Y-120340380D02*
X173038714Y-119340380D01*
X173419666Y-119340380D01*
X173514904Y-119388000D01*
X173562523Y-119435619D01*
X173610142Y-119530857D01*
X173610142Y-119673714D01*
X173562523Y-119768952D01*
X173514904Y-119816571D01*
X173419666Y-119864190D01*
X173038714Y-119864190D01*
X173943476Y-119340380D02*
X174562523Y-119340380D01*
X174229190Y-119721333D01*
X174372047Y-119721333D01*
X174467285Y-119768952D01*
X174514904Y-119816571D01*
X174562523Y-119911809D01*
X174562523Y-120149904D01*
X174514904Y-120245142D01*
X174467285Y-120292761D01*
X174372047Y-120340380D01*
X174086333Y-120340380D01*
X173991095Y-120292761D01*
X173943476Y-120245142D01*
X175133952Y-119768952D02*
X175038714Y-119721333D01*
X174991095Y-119673714D01*
X174943476Y-119578476D01*
X174943476Y-119530857D01*
X174991095Y-119435619D01*
X175038714Y-119388000D01*
X175133952Y-119340380D01*
X175324428Y-119340380D01*
X175419666Y-119388000D01*
X175467285Y-119435619D01*
X175514904Y-119530857D01*
X175514904Y-119578476D01*
X175467285Y-119673714D01*
X175419666Y-119721333D01*
X175324428Y-119768952D01*
X175133952Y-119768952D01*
X175038714Y-119816571D01*
X174991095Y-119864190D01*
X174943476Y-119959428D01*
X174943476Y-120149904D01*
X174991095Y-120245142D01*
X175038714Y-120292761D01*
X175133952Y-120340380D01*
X175324428Y-120340380D01*
X175419666Y-120292761D01*
X175467285Y-120245142D01*
X175514904Y-120149904D01*
X175514904Y-119959428D01*
X175467285Y-119864190D01*
X175419666Y-119816571D01*
X175324428Y-119768952D01*
X173601142Y-118054380D02*
X173267809Y-117578190D01*
X173029714Y-118054380D02*
X173029714Y-117054380D01*
X173410666Y-117054380D01*
X173505904Y-117102000D01*
X173553523Y-117149619D01*
X173601142Y-117244857D01*
X173601142Y-117387714D01*
X173553523Y-117482952D01*
X173505904Y-117530571D01*
X173410666Y-117578190D01*
X173029714Y-117578190D01*
X173934476Y-117054380D02*
X174553523Y-117054380D01*
X174220190Y-117435333D01*
X174363047Y-117435333D01*
X174458285Y-117482952D01*
X174505904Y-117530571D01*
X174553523Y-117625809D01*
X174553523Y-117863904D01*
X174505904Y-117959142D01*
X174458285Y-118006761D01*
X174363047Y-118054380D01*
X174077333Y-118054380D01*
X173982095Y-118006761D01*
X173934476Y-117959142D01*
X174886857Y-117054380D02*
X175553523Y-117054380D01*
X175124952Y-118054380D01*
X164965142Y-105100380D02*
X164631809Y-104624190D01*
X164393714Y-105100380D02*
X164393714Y-104100380D01*
X164774666Y-104100380D01*
X164869904Y-104148000D01*
X164917523Y-104195619D01*
X164965142Y-104290857D01*
X164965142Y-104433714D01*
X164917523Y-104528952D01*
X164869904Y-104576571D01*
X164774666Y-104624190D01*
X164393714Y-104624190D01*
X165298476Y-104100380D02*
X165917523Y-104100380D01*
X165584190Y-104481333D01*
X165727047Y-104481333D01*
X165822285Y-104528952D01*
X165869904Y-104576571D01*
X165917523Y-104671809D01*
X165917523Y-104909904D01*
X165869904Y-105005142D01*
X165822285Y-105052761D01*
X165727047Y-105100380D01*
X165441333Y-105100380D01*
X165346095Y-105052761D01*
X165298476Y-105005142D01*
X166774666Y-104100380D02*
X166584190Y-104100380D01*
X166488952Y-104148000D01*
X166441333Y-104195619D01*
X166346095Y-104338476D01*
X166298476Y-104528952D01*
X166298476Y-104909904D01*
X166346095Y-105005142D01*
X166393714Y-105052761D01*
X166488952Y-105100380D01*
X166679428Y-105100380D01*
X166774666Y-105052761D01*
X166822285Y-105005142D01*
X166869904Y-104909904D01*
X166869904Y-104671809D01*
X166822285Y-104576571D01*
X166774666Y-104528952D01*
X166679428Y-104481333D01*
X166488952Y-104481333D01*
X166393714Y-104528952D01*
X166346095Y-104576571D01*
X166298476Y-104671809D01*
X173728142Y-105100380D02*
X173394809Y-104624190D01*
X173156714Y-105100380D02*
X173156714Y-104100380D01*
X173537666Y-104100380D01*
X173632904Y-104148000D01*
X173680523Y-104195619D01*
X173728142Y-104290857D01*
X173728142Y-104433714D01*
X173680523Y-104528952D01*
X173632904Y-104576571D01*
X173537666Y-104624190D01*
X173156714Y-104624190D01*
X174061476Y-104100380D02*
X174680523Y-104100380D01*
X174347190Y-104481333D01*
X174490047Y-104481333D01*
X174585285Y-104528952D01*
X174632904Y-104576571D01*
X174680523Y-104671809D01*
X174680523Y-104909904D01*
X174632904Y-105005142D01*
X174585285Y-105052761D01*
X174490047Y-105100380D01*
X174204333Y-105100380D01*
X174109095Y-105052761D01*
X174061476Y-105005142D01*
X175585285Y-104100380D02*
X175109095Y-104100380D01*
X175061476Y-104576571D01*
X175109095Y-104528952D01*
X175204333Y-104481333D01*
X175442428Y-104481333D01*
X175537666Y-104528952D01*
X175585285Y-104576571D01*
X175632904Y-104671809D01*
X175632904Y-104909904D01*
X175585285Y-105005142D01*
X175537666Y-105052761D01*
X175442428Y-105100380D01*
X175204333Y-105100380D01*
X175109095Y-105052761D01*
X175061476Y-105005142D01*
X137152142Y-94051380D02*
X136818809Y-93575190D01*
X136580714Y-94051380D02*
X136580714Y-93051380D01*
X136961666Y-93051380D01*
X137056904Y-93099000D01*
X137104523Y-93146619D01*
X137152142Y-93241857D01*
X137152142Y-93384714D01*
X137104523Y-93479952D01*
X137056904Y-93527571D01*
X136961666Y-93575190D01*
X136580714Y-93575190D01*
X137485476Y-93051380D02*
X138104523Y-93051380D01*
X137771190Y-93432333D01*
X137914047Y-93432333D01*
X138009285Y-93479952D01*
X138056904Y-93527571D01*
X138104523Y-93622809D01*
X138104523Y-93860904D01*
X138056904Y-93956142D01*
X138009285Y-94003761D01*
X137914047Y-94051380D01*
X137628333Y-94051380D01*
X137533095Y-94003761D01*
X137485476Y-93956142D01*
X138961666Y-93384714D02*
X138961666Y-94051380D01*
X138723571Y-93003761D02*
X138485476Y-93718047D01*
X139104523Y-93718047D01*
X128516142Y-94051380D02*
X128182809Y-93575190D01*
X127944714Y-94051380D02*
X127944714Y-93051380D01*
X128325666Y-93051380D01*
X128420904Y-93099000D01*
X128468523Y-93146619D01*
X128516142Y-93241857D01*
X128516142Y-93384714D01*
X128468523Y-93479952D01*
X128420904Y-93527571D01*
X128325666Y-93575190D01*
X127944714Y-93575190D01*
X128849476Y-93051380D02*
X129468523Y-93051380D01*
X129135190Y-93432333D01*
X129278047Y-93432333D01*
X129373285Y-93479952D01*
X129420904Y-93527571D01*
X129468523Y-93622809D01*
X129468523Y-93860904D01*
X129420904Y-93956142D01*
X129373285Y-94003761D01*
X129278047Y-94051380D01*
X128992333Y-94051380D01*
X128897095Y-94003761D01*
X128849476Y-93956142D01*
X129801857Y-93051380D02*
X130420904Y-93051380D01*
X130087571Y-93432333D01*
X130230428Y-93432333D01*
X130325666Y-93479952D01*
X130373285Y-93527571D01*
X130420904Y-93622809D01*
X130420904Y-93860904D01*
X130373285Y-93956142D01*
X130325666Y-94003761D01*
X130230428Y-94051380D01*
X129944714Y-94051380D01*
X129849476Y-94003761D01*
X129801857Y-93956142D01*
X134231142Y-94051380D02*
X133897809Y-93575190D01*
X133659714Y-94051380D02*
X133659714Y-93051380D01*
X134040666Y-93051380D01*
X134135904Y-93099000D01*
X134183523Y-93146619D01*
X134231142Y-93241857D01*
X134231142Y-93384714D01*
X134183523Y-93479952D01*
X134135904Y-93527571D01*
X134040666Y-93575190D01*
X133659714Y-93575190D01*
X134564476Y-93051380D02*
X135183523Y-93051380D01*
X134850190Y-93432333D01*
X134993047Y-93432333D01*
X135088285Y-93479952D01*
X135135904Y-93527571D01*
X135183523Y-93622809D01*
X135183523Y-93860904D01*
X135135904Y-93956142D01*
X135088285Y-94003761D01*
X134993047Y-94051380D01*
X134707333Y-94051380D01*
X134612095Y-94003761D01*
X134564476Y-93956142D01*
X135564476Y-93146619D02*
X135612095Y-93099000D01*
X135707333Y-93051380D01*
X135945428Y-93051380D01*
X136040666Y-93099000D01*
X136088285Y-93146619D01*
X136135904Y-93241857D01*
X136135904Y-93337095D01*
X136088285Y-93479952D01*
X135516857Y-94051380D01*
X136135904Y-94051380D01*
X170680142Y-87955380D02*
X170346809Y-87479190D01*
X170108714Y-87955380D02*
X170108714Y-86955380D01*
X170489666Y-86955380D01*
X170584904Y-87003000D01*
X170632523Y-87050619D01*
X170680142Y-87145857D01*
X170680142Y-87288714D01*
X170632523Y-87383952D01*
X170584904Y-87431571D01*
X170489666Y-87479190D01*
X170108714Y-87479190D01*
X171013476Y-86955380D02*
X171632523Y-86955380D01*
X171299190Y-87336333D01*
X171442047Y-87336333D01*
X171537285Y-87383952D01*
X171584904Y-87431571D01*
X171632523Y-87526809D01*
X171632523Y-87764904D01*
X171584904Y-87860142D01*
X171537285Y-87907761D01*
X171442047Y-87955380D01*
X171156333Y-87955380D01*
X171061095Y-87907761D01*
X171013476Y-87860142D01*
X172584904Y-87955380D02*
X172013476Y-87955380D01*
X172299190Y-87955380D02*
X172299190Y-86955380D01*
X172203952Y-87098238D01*
X172108714Y-87193476D01*
X172013476Y-87241095D01*
X167759142Y-87955380D02*
X167425809Y-87479190D01*
X167187714Y-87955380D02*
X167187714Y-86955380D01*
X167568666Y-86955380D01*
X167663904Y-87003000D01*
X167711523Y-87050619D01*
X167759142Y-87145857D01*
X167759142Y-87288714D01*
X167711523Y-87383952D01*
X167663904Y-87431571D01*
X167568666Y-87479190D01*
X167187714Y-87479190D01*
X168092476Y-86955380D02*
X168711523Y-86955380D01*
X168378190Y-87336333D01*
X168521047Y-87336333D01*
X168616285Y-87383952D01*
X168663904Y-87431571D01*
X168711523Y-87526809D01*
X168711523Y-87764904D01*
X168663904Y-87860142D01*
X168616285Y-87907761D01*
X168521047Y-87955380D01*
X168235333Y-87955380D01*
X168140095Y-87907761D01*
X168092476Y-87860142D01*
X169330571Y-86955380D02*
X169425809Y-86955380D01*
X169521047Y-87003000D01*
X169568666Y-87050619D01*
X169616285Y-87145857D01*
X169663904Y-87336333D01*
X169663904Y-87574428D01*
X169616285Y-87764904D01*
X169568666Y-87860142D01*
X169521047Y-87907761D01*
X169425809Y-87955380D01*
X169330571Y-87955380D01*
X169235333Y-87907761D01*
X169187714Y-87860142D01*
X169140095Y-87764904D01*
X169092476Y-87574428D01*
X169092476Y-87336333D01*
X169140095Y-87145857D01*
X169187714Y-87050619D01*
X169235333Y-87003000D01*
X169330571Y-86955380D01*
X161155142Y-115133380D02*
X160821809Y-114657190D01*
X160583714Y-115133380D02*
X160583714Y-114133380D01*
X160964666Y-114133380D01*
X161059904Y-114181000D01*
X161107523Y-114228619D01*
X161155142Y-114323857D01*
X161155142Y-114466714D01*
X161107523Y-114561952D01*
X161059904Y-114609571D01*
X160964666Y-114657190D01*
X160583714Y-114657190D01*
X161536095Y-114228619D02*
X161583714Y-114181000D01*
X161678952Y-114133380D01*
X161917047Y-114133380D01*
X162012285Y-114181000D01*
X162059904Y-114228619D01*
X162107523Y-114323857D01*
X162107523Y-114419095D01*
X162059904Y-114561952D01*
X161488476Y-115133380D01*
X162107523Y-115133380D01*
X162583714Y-115133380D02*
X162774190Y-115133380D01*
X162869428Y-115085761D01*
X162917047Y-115038142D01*
X163012285Y-114895285D01*
X163059904Y-114704809D01*
X163059904Y-114323857D01*
X163012285Y-114228619D01*
X162964666Y-114181000D01*
X162869428Y-114133380D01*
X162678952Y-114133380D01*
X162583714Y-114181000D01*
X162536095Y-114228619D01*
X162488476Y-114323857D01*
X162488476Y-114561952D01*
X162536095Y-114657190D01*
X162583714Y-114704809D01*
X162678952Y-114752428D01*
X162869428Y-114752428D01*
X162964666Y-114704809D01*
X163012285Y-114657190D01*
X163059904Y-114561952D01*
X151866142Y-106370380D02*
X151532809Y-105894190D01*
X151294714Y-106370380D02*
X151294714Y-105370380D01*
X151675666Y-105370380D01*
X151770904Y-105418000D01*
X151818523Y-105465619D01*
X151866142Y-105560857D01*
X151866142Y-105703714D01*
X151818523Y-105798952D01*
X151770904Y-105846571D01*
X151675666Y-105894190D01*
X151294714Y-105894190D01*
X152247095Y-105465619D02*
X152294714Y-105418000D01*
X152389952Y-105370380D01*
X152628047Y-105370380D01*
X152723285Y-105418000D01*
X152770904Y-105465619D01*
X152818523Y-105560857D01*
X152818523Y-105656095D01*
X152770904Y-105798952D01*
X152199476Y-106370380D01*
X152818523Y-106370380D01*
X153389952Y-105798952D02*
X153294714Y-105751333D01*
X153247095Y-105703714D01*
X153199476Y-105608476D01*
X153199476Y-105560857D01*
X153247095Y-105465619D01*
X153294714Y-105418000D01*
X153389952Y-105370380D01*
X153580428Y-105370380D01*
X153675666Y-105418000D01*
X153723285Y-105465619D01*
X153770904Y-105560857D01*
X153770904Y-105608476D01*
X153723285Y-105703714D01*
X153675666Y-105751333D01*
X153580428Y-105798952D01*
X153389952Y-105798952D01*
X153294714Y-105846571D01*
X153247095Y-105894190D01*
X153199476Y-105989428D01*
X153199476Y-106179904D01*
X153247095Y-106275142D01*
X153294714Y-106322761D01*
X153389952Y-106370380D01*
X153580428Y-106370380D01*
X153675666Y-106322761D01*
X153723285Y-106275142D01*
X153770904Y-106179904D01*
X153770904Y-105989428D01*
X153723285Y-105894190D01*
X153675666Y-105846571D01*
X153580428Y-105798952D01*
X164076142Y-115115380D02*
X163742809Y-114639190D01*
X163504714Y-115115380D02*
X163504714Y-114115380D01*
X163885666Y-114115380D01*
X163980904Y-114163000D01*
X164028523Y-114210619D01*
X164076142Y-114305857D01*
X164076142Y-114448714D01*
X164028523Y-114543952D01*
X163980904Y-114591571D01*
X163885666Y-114639190D01*
X163504714Y-114639190D01*
X164457095Y-114210619D02*
X164504714Y-114163000D01*
X164599952Y-114115380D01*
X164838047Y-114115380D01*
X164933285Y-114163000D01*
X164980904Y-114210619D01*
X165028523Y-114305857D01*
X165028523Y-114401095D01*
X164980904Y-114543952D01*
X164409476Y-115115380D01*
X165028523Y-115115380D01*
X165361857Y-114115380D02*
X166028523Y-114115380D01*
X165599952Y-115115380D01*
X156456142Y-106370380D02*
X156122809Y-105894190D01*
X155884714Y-106370380D02*
X155884714Y-105370380D01*
X156265666Y-105370380D01*
X156360904Y-105418000D01*
X156408523Y-105465619D01*
X156456142Y-105560857D01*
X156456142Y-105703714D01*
X156408523Y-105798952D01*
X156360904Y-105846571D01*
X156265666Y-105894190D01*
X155884714Y-105894190D01*
X156837095Y-105465619D02*
X156884714Y-105418000D01*
X156979952Y-105370380D01*
X157218047Y-105370380D01*
X157313285Y-105418000D01*
X157360904Y-105465619D01*
X157408523Y-105560857D01*
X157408523Y-105656095D01*
X157360904Y-105798952D01*
X156789476Y-106370380D01*
X157408523Y-106370380D01*
X158265666Y-105370380D02*
X158075190Y-105370380D01*
X157979952Y-105418000D01*
X157932333Y-105465619D01*
X157837095Y-105608476D01*
X157789476Y-105798952D01*
X157789476Y-106179904D01*
X157837095Y-106275142D01*
X157884714Y-106322761D01*
X157979952Y-106370380D01*
X158170428Y-106370380D01*
X158265666Y-106322761D01*
X158313285Y-106275142D01*
X158360904Y-106179904D01*
X158360904Y-105941809D01*
X158313285Y-105846571D01*
X158265666Y-105798952D01*
X158170428Y-105751333D01*
X157979952Y-105751333D01*
X157884714Y-105798952D01*
X157837095Y-105846571D01*
X157789476Y-105941809D01*
X166997142Y-115133380D02*
X166663809Y-114657190D01*
X166425714Y-115133380D02*
X166425714Y-114133380D01*
X166806666Y-114133380D01*
X166901904Y-114181000D01*
X166949523Y-114228619D01*
X166997142Y-114323857D01*
X166997142Y-114466714D01*
X166949523Y-114561952D01*
X166901904Y-114609571D01*
X166806666Y-114657190D01*
X166425714Y-114657190D01*
X167378095Y-114228619D02*
X167425714Y-114181000D01*
X167520952Y-114133380D01*
X167759047Y-114133380D01*
X167854285Y-114181000D01*
X167901904Y-114228619D01*
X167949523Y-114323857D01*
X167949523Y-114419095D01*
X167901904Y-114561952D01*
X167330476Y-115133380D01*
X167949523Y-115133380D01*
X168854285Y-114133380D02*
X168378095Y-114133380D01*
X168330476Y-114609571D01*
X168378095Y-114561952D01*
X168473333Y-114514333D01*
X168711428Y-114514333D01*
X168806666Y-114561952D01*
X168854285Y-114609571D01*
X168901904Y-114704809D01*
X168901904Y-114942904D01*
X168854285Y-115038142D01*
X168806666Y-115085761D01*
X168711428Y-115133380D01*
X168473333Y-115133380D01*
X168378095Y-115085761D01*
X168330476Y-115038142D01*
X158361142Y-115133380D02*
X158027809Y-114657190D01*
X157789714Y-115133380D02*
X157789714Y-114133380D01*
X158170666Y-114133380D01*
X158265904Y-114181000D01*
X158313523Y-114228619D01*
X158361142Y-114323857D01*
X158361142Y-114466714D01*
X158313523Y-114561952D01*
X158265904Y-114609571D01*
X158170666Y-114657190D01*
X157789714Y-114657190D01*
X158742095Y-114228619D02*
X158789714Y-114181000D01*
X158884952Y-114133380D01*
X159123047Y-114133380D01*
X159218285Y-114181000D01*
X159265904Y-114228619D01*
X159313523Y-114323857D01*
X159313523Y-114419095D01*
X159265904Y-114561952D01*
X158694476Y-115133380D01*
X159313523Y-115133380D01*
X160170666Y-114466714D02*
X160170666Y-115133380D01*
X159932571Y-114085761D02*
X159694476Y-114800047D01*
X160313523Y-114800047D01*
X161164142Y-106370380D02*
X160830809Y-105894190D01*
X160592714Y-106370380D02*
X160592714Y-105370380D01*
X160973666Y-105370380D01*
X161068904Y-105418000D01*
X161116523Y-105465619D01*
X161164142Y-105560857D01*
X161164142Y-105703714D01*
X161116523Y-105798952D01*
X161068904Y-105846571D01*
X160973666Y-105894190D01*
X160592714Y-105894190D01*
X161545095Y-105465619D02*
X161592714Y-105418000D01*
X161687952Y-105370380D01*
X161926047Y-105370380D01*
X162021285Y-105418000D01*
X162068904Y-105465619D01*
X162116523Y-105560857D01*
X162116523Y-105656095D01*
X162068904Y-105798952D01*
X161497476Y-106370380D01*
X162116523Y-106370380D01*
X162449857Y-105370380D02*
X163068904Y-105370380D01*
X162735571Y-105751333D01*
X162878428Y-105751333D01*
X162973666Y-105798952D01*
X163021285Y-105846571D01*
X163068904Y-105941809D01*
X163068904Y-106179904D01*
X163021285Y-106275142D01*
X162973666Y-106322761D01*
X162878428Y-106370380D01*
X162592714Y-106370380D01*
X162497476Y-106322761D01*
X162449857Y-106275142D01*
X155313142Y-115133380D02*
X154979809Y-114657190D01*
X154741714Y-115133380D02*
X154741714Y-114133380D01*
X155122666Y-114133380D01*
X155217904Y-114181000D01*
X155265523Y-114228619D01*
X155313142Y-114323857D01*
X155313142Y-114466714D01*
X155265523Y-114561952D01*
X155217904Y-114609571D01*
X155122666Y-114657190D01*
X154741714Y-114657190D01*
X155694095Y-114228619D02*
X155741714Y-114181000D01*
X155836952Y-114133380D01*
X156075047Y-114133380D01*
X156170285Y-114181000D01*
X156217904Y-114228619D01*
X156265523Y-114323857D01*
X156265523Y-114419095D01*
X156217904Y-114561952D01*
X155646476Y-115133380D01*
X156265523Y-115133380D01*
X156646476Y-114228619D02*
X156694095Y-114181000D01*
X156789333Y-114133380D01*
X157027428Y-114133380D01*
X157122666Y-114181000D01*
X157170285Y-114228619D01*
X157217904Y-114323857D01*
X157217904Y-114419095D01*
X157170285Y-114561952D01*
X156598857Y-115133380D01*
X157217904Y-115133380D01*
X161282142Y-103068380D02*
X160948809Y-102592190D01*
X160710714Y-103068380D02*
X160710714Y-102068380D01*
X161091666Y-102068380D01*
X161186904Y-102116000D01*
X161234523Y-102163619D01*
X161282142Y-102258857D01*
X161282142Y-102401714D01*
X161234523Y-102496952D01*
X161186904Y-102544571D01*
X161091666Y-102592190D01*
X160710714Y-102592190D01*
X161663095Y-102163619D02*
X161710714Y-102116000D01*
X161805952Y-102068380D01*
X162044047Y-102068380D01*
X162139285Y-102116000D01*
X162186904Y-102163619D01*
X162234523Y-102258857D01*
X162234523Y-102354095D01*
X162186904Y-102496952D01*
X161615476Y-103068380D01*
X162234523Y-103068380D01*
X163186904Y-103068380D02*
X162615476Y-103068380D01*
X162901190Y-103068380D02*
X162901190Y-102068380D01*
X162805952Y-102211238D01*
X162710714Y-102306476D01*
X162615476Y-102354095D01*
X152392142Y-115133380D02*
X152058809Y-114657190D01*
X151820714Y-115133380D02*
X151820714Y-114133380D01*
X152201666Y-114133380D01*
X152296904Y-114181000D01*
X152344523Y-114228619D01*
X152392142Y-114323857D01*
X152392142Y-114466714D01*
X152344523Y-114561952D01*
X152296904Y-114609571D01*
X152201666Y-114657190D01*
X151820714Y-114657190D01*
X152773095Y-114228619D02*
X152820714Y-114181000D01*
X152915952Y-114133380D01*
X153154047Y-114133380D01*
X153249285Y-114181000D01*
X153296904Y-114228619D01*
X153344523Y-114323857D01*
X153344523Y-114419095D01*
X153296904Y-114561952D01*
X152725476Y-115133380D01*
X153344523Y-115133380D01*
X153963571Y-114133380D02*
X154058809Y-114133380D01*
X154154047Y-114181000D01*
X154201666Y-114228619D01*
X154249285Y-114323857D01*
X154296904Y-114514333D01*
X154296904Y-114752428D01*
X154249285Y-114942904D01*
X154201666Y-115038142D01*
X154154047Y-115085761D01*
X154058809Y-115133380D01*
X153963571Y-115133380D01*
X153868333Y-115085761D01*
X153820714Y-115038142D01*
X153773095Y-114942904D01*
X153725476Y-114752428D01*
X153725476Y-114514333D01*
X153773095Y-114323857D01*
X153820714Y-114228619D01*
X153868333Y-114181000D01*
X153963571Y-114133380D01*
X146169142Y-91892380D02*
X145835809Y-91416190D01*
X145597714Y-91892380D02*
X145597714Y-90892380D01*
X145978666Y-90892380D01*
X146073904Y-90940000D01*
X146121523Y-90987619D01*
X146169142Y-91082857D01*
X146169142Y-91225714D01*
X146121523Y-91320952D01*
X146073904Y-91368571D01*
X145978666Y-91416190D01*
X145597714Y-91416190D01*
X147121523Y-91892380D02*
X146550095Y-91892380D01*
X146835809Y-91892380D02*
X146835809Y-90892380D01*
X146740571Y-91035238D01*
X146645333Y-91130476D01*
X146550095Y-91178095D01*
X147597714Y-91892380D02*
X147788190Y-91892380D01*
X147883428Y-91844761D01*
X147931047Y-91797142D01*
X148026285Y-91654285D01*
X148073904Y-91463809D01*
X148073904Y-91082857D01*
X148026285Y-90987619D01*
X147978666Y-90940000D01*
X147883428Y-90892380D01*
X147692952Y-90892380D01*
X147597714Y-90940000D01*
X147550095Y-90987619D01*
X147502476Y-91082857D01*
X147502476Y-91320952D01*
X147550095Y-91416190D01*
X147597714Y-91463809D01*
X147692952Y-91511428D01*
X147883428Y-91511428D01*
X147978666Y-91463809D01*
X148026285Y-91416190D01*
X148073904Y-91320952D01*
X165092142Y-78303380D02*
X164758809Y-77827190D01*
X164520714Y-78303380D02*
X164520714Y-77303380D01*
X164901666Y-77303380D01*
X164996904Y-77351000D01*
X165044523Y-77398619D01*
X165092142Y-77493857D01*
X165092142Y-77636714D01*
X165044523Y-77731952D01*
X164996904Y-77779571D01*
X164901666Y-77827190D01*
X164520714Y-77827190D01*
X166044523Y-78303380D02*
X165473095Y-78303380D01*
X165758809Y-78303380D02*
X165758809Y-77303380D01*
X165663571Y-77446238D01*
X165568333Y-77541476D01*
X165473095Y-77589095D01*
X166615952Y-77731952D02*
X166520714Y-77684333D01*
X166473095Y-77636714D01*
X166425476Y-77541476D01*
X166425476Y-77493857D01*
X166473095Y-77398619D01*
X166520714Y-77351000D01*
X166615952Y-77303380D01*
X166806428Y-77303380D01*
X166901666Y-77351000D01*
X166949285Y-77398619D01*
X166996904Y-77493857D01*
X166996904Y-77541476D01*
X166949285Y-77636714D01*
X166901666Y-77684333D01*
X166806428Y-77731952D01*
X166615952Y-77731952D01*
X166520714Y-77779571D01*
X166473095Y-77827190D01*
X166425476Y-77922428D01*
X166425476Y-78112904D01*
X166473095Y-78208142D01*
X166520714Y-78255761D01*
X166615952Y-78303380D01*
X166806428Y-78303380D01*
X166901666Y-78255761D01*
X166949285Y-78208142D01*
X166996904Y-78112904D01*
X166996904Y-77922428D01*
X166949285Y-77827190D01*
X166901666Y-77779571D01*
X166806428Y-77731952D01*
X161028142Y-86812380D02*
X160694809Y-86336190D01*
X160456714Y-86812380D02*
X160456714Y-85812380D01*
X160837666Y-85812380D01*
X160932904Y-85860000D01*
X160980523Y-85907619D01*
X161028142Y-86002857D01*
X161028142Y-86145714D01*
X160980523Y-86240952D01*
X160932904Y-86288571D01*
X160837666Y-86336190D01*
X160456714Y-86336190D01*
X161980523Y-86812380D02*
X161409095Y-86812380D01*
X161694809Y-86812380D02*
X161694809Y-85812380D01*
X161599571Y-85955238D01*
X161504333Y-86050476D01*
X161409095Y-86098095D01*
X162313857Y-85812380D02*
X162980523Y-85812380D01*
X162551952Y-86812380D01*
X137914142Y-88082380D02*
X137580809Y-87606190D01*
X137342714Y-88082380D02*
X137342714Y-87082380D01*
X137723666Y-87082380D01*
X137818904Y-87130000D01*
X137866523Y-87177619D01*
X137914142Y-87272857D01*
X137914142Y-87415714D01*
X137866523Y-87510952D01*
X137818904Y-87558571D01*
X137723666Y-87606190D01*
X137342714Y-87606190D01*
X138866523Y-88082380D02*
X138295095Y-88082380D01*
X138580809Y-88082380D02*
X138580809Y-87082380D01*
X138485571Y-87225238D01*
X138390333Y-87320476D01*
X138295095Y-87368095D01*
X139723666Y-87082380D02*
X139533190Y-87082380D01*
X139437952Y-87130000D01*
X139390333Y-87177619D01*
X139295095Y-87320476D01*
X139247476Y-87510952D01*
X139247476Y-87891904D01*
X139295095Y-87987142D01*
X139342714Y-88034761D01*
X139437952Y-88082380D01*
X139628428Y-88082380D01*
X139723666Y-88034761D01*
X139771285Y-87987142D01*
X139818904Y-87891904D01*
X139818904Y-87653809D01*
X139771285Y-87558571D01*
X139723666Y-87510952D01*
X139628428Y-87463333D01*
X139437952Y-87463333D01*
X139342714Y-87510952D01*
X139295095Y-87558571D01*
X139247476Y-87653809D01*
X162171142Y-78303380D02*
X161837809Y-77827190D01*
X161599714Y-78303380D02*
X161599714Y-77303380D01*
X161980666Y-77303380D01*
X162075904Y-77351000D01*
X162123523Y-77398619D01*
X162171142Y-77493857D01*
X162171142Y-77636714D01*
X162123523Y-77731952D01*
X162075904Y-77779571D01*
X161980666Y-77827190D01*
X161599714Y-77827190D01*
X163123523Y-78303380D02*
X162552095Y-78303380D01*
X162837809Y-78303380D02*
X162837809Y-77303380D01*
X162742571Y-77446238D01*
X162647333Y-77541476D01*
X162552095Y-77589095D01*
X164028285Y-77303380D02*
X163552095Y-77303380D01*
X163504476Y-77779571D01*
X163552095Y-77731952D01*
X163647333Y-77684333D01*
X163885428Y-77684333D01*
X163980666Y-77731952D01*
X164028285Y-77779571D01*
X164075904Y-77874809D01*
X164075904Y-78112904D01*
X164028285Y-78208142D01*
X163980666Y-78255761D01*
X163885428Y-78303380D01*
X163647333Y-78303380D01*
X163552095Y-78255761D01*
X163504476Y-78208142D01*
X137914142Y-90241380D02*
X137580809Y-89765190D01*
X137342714Y-90241380D02*
X137342714Y-89241380D01*
X137723666Y-89241380D01*
X137818904Y-89289000D01*
X137866523Y-89336619D01*
X137914142Y-89431857D01*
X137914142Y-89574714D01*
X137866523Y-89669952D01*
X137818904Y-89717571D01*
X137723666Y-89765190D01*
X137342714Y-89765190D01*
X138866523Y-90241380D02*
X138295095Y-90241380D01*
X138580809Y-90241380D02*
X138580809Y-89241380D01*
X138485571Y-89384238D01*
X138390333Y-89479476D01*
X138295095Y-89527095D01*
X139723666Y-89574714D02*
X139723666Y-90241380D01*
X139485571Y-89193761D02*
X139247476Y-89908047D01*
X139866523Y-89908047D01*
X156075142Y-86812380D02*
X155741809Y-86336190D01*
X155503714Y-86812380D02*
X155503714Y-85812380D01*
X155884666Y-85812380D01*
X155979904Y-85860000D01*
X156027523Y-85907619D01*
X156075142Y-86002857D01*
X156075142Y-86145714D01*
X156027523Y-86240952D01*
X155979904Y-86288571D01*
X155884666Y-86336190D01*
X155503714Y-86336190D01*
X157027523Y-86812380D02*
X156456095Y-86812380D01*
X156741809Y-86812380D02*
X156741809Y-85812380D01*
X156646571Y-85955238D01*
X156551333Y-86050476D01*
X156456095Y-86098095D01*
X157360857Y-85812380D02*
X157979904Y-85812380D01*
X157646571Y-86193333D01*
X157789428Y-86193333D01*
X157884666Y-86240952D01*
X157932285Y-86288571D01*
X157979904Y-86383809D01*
X157979904Y-86621904D01*
X157932285Y-86717142D01*
X157884666Y-86764761D01*
X157789428Y-86812380D01*
X157503714Y-86812380D01*
X157408476Y-86764761D01*
X157360857Y-86717142D01*
X159250142Y-78303380D02*
X158916809Y-77827190D01*
X158678714Y-78303380D02*
X158678714Y-77303380D01*
X159059666Y-77303380D01*
X159154904Y-77351000D01*
X159202523Y-77398619D01*
X159250142Y-77493857D01*
X159250142Y-77636714D01*
X159202523Y-77731952D01*
X159154904Y-77779571D01*
X159059666Y-77827190D01*
X158678714Y-77827190D01*
X160202523Y-78303380D02*
X159631095Y-78303380D01*
X159916809Y-78303380D02*
X159916809Y-77303380D01*
X159821571Y-77446238D01*
X159726333Y-77541476D01*
X159631095Y-77589095D01*
X160583476Y-77398619D02*
X160631095Y-77351000D01*
X160726333Y-77303380D01*
X160964428Y-77303380D01*
X161059666Y-77351000D01*
X161107285Y-77398619D01*
X161154904Y-77493857D01*
X161154904Y-77589095D01*
X161107285Y-77731952D01*
X160535857Y-78303380D01*
X161154904Y-78303380D01*
X156329142Y-78303380D02*
X155995809Y-77827190D01*
X155757714Y-78303380D02*
X155757714Y-77303380D01*
X156138666Y-77303380D01*
X156233904Y-77351000D01*
X156281523Y-77398619D01*
X156329142Y-77493857D01*
X156329142Y-77636714D01*
X156281523Y-77731952D01*
X156233904Y-77779571D01*
X156138666Y-77827190D01*
X155757714Y-77827190D01*
X157281523Y-78303380D02*
X156710095Y-78303380D01*
X156995809Y-78303380D02*
X156995809Y-77303380D01*
X156900571Y-77446238D01*
X156805333Y-77541476D01*
X156710095Y-77589095D01*
X158233904Y-78303380D02*
X157662476Y-78303380D01*
X157948190Y-78303380D02*
X157948190Y-77303380D01*
X157852952Y-77446238D01*
X157757714Y-77541476D01*
X157662476Y-77589095D01*
X152011142Y-86812380D02*
X151677809Y-86336190D01*
X151439714Y-86812380D02*
X151439714Y-85812380D01*
X151820666Y-85812380D01*
X151915904Y-85860000D01*
X151963523Y-85907619D01*
X152011142Y-86002857D01*
X152011142Y-86145714D01*
X151963523Y-86240952D01*
X151915904Y-86288571D01*
X151820666Y-86336190D01*
X151439714Y-86336190D01*
X152963523Y-86812380D02*
X152392095Y-86812380D01*
X152677809Y-86812380D02*
X152677809Y-85812380D01*
X152582571Y-85955238D01*
X152487333Y-86050476D01*
X152392095Y-86098095D01*
X153582571Y-85812380D02*
X153677809Y-85812380D01*
X153773047Y-85860000D01*
X153820666Y-85907619D01*
X153868285Y-86002857D01*
X153915904Y-86193333D01*
X153915904Y-86431428D01*
X153868285Y-86621904D01*
X153820666Y-86717142D01*
X153773047Y-86764761D01*
X153677809Y-86812380D01*
X153582571Y-86812380D01*
X153487333Y-86764761D01*
X153439714Y-86717142D01*
X153392095Y-86621904D01*
X153344476Y-86431428D01*
X153344476Y-86193333D01*
X153392095Y-86002857D01*
X153439714Y-85907619D01*
X153487333Y-85860000D01*
X153582571Y-85812380D01*
X153884333Y-78294380D02*
X153551000Y-77818190D01*
X153312904Y-78294380D02*
X153312904Y-77294380D01*
X153693857Y-77294380D01*
X153789095Y-77342000D01*
X153836714Y-77389619D01*
X153884333Y-77484857D01*
X153884333Y-77627714D01*
X153836714Y-77722952D01*
X153789095Y-77770571D01*
X153693857Y-77818190D01*
X153312904Y-77818190D01*
X154360523Y-78294380D02*
X154551000Y-78294380D01*
X154646238Y-78246761D01*
X154693857Y-78199142D01*
X154789095Y-78056285D01*
X154836714Y-77865809D01*
X154836714Y-77484857D01*
X154789095Y-77389619D01*
X154741476Y-77342000D01*
X154646238Y-77294380D01*
X154455761Y-77294380D01*
X154360523Y-77342000D01*
X154312904Y-77389619D01*
X154265285Y-77484857D01*
X154265285Y-77722952D01*
X154312904Y-77818190D01*
X154360523Y-77865809D01*
X154455761Y-77913428D01*
X154646238Y-77913428D01*
X154741476Y-77865809D01*
X154789095Y-77818190D01*
X154836714Y-77722952D01*
X146899333Y-78684380D02*
X146566000Y-78208190D01*
X146327904Y-78684380D02*
X146327904Y-77684380D01*
X146708857Y-77684380D01*
X146804095Y-77732000D01*
X146851714Y-77779619D01*
X146899333Y-77874857D01*
X146899333Y-78017714D01*
X146851714Y-78112952D01*
X146804095Y-78160571D01*
X146708857Y-78208190D01*
X146327904Y-78208190D01*
X147470761Y-78112952D02*
X147375523Y-78065333D01*
X147327904Y-78017714D01*
X147280285Y-77922476D01*
X147280285Y-77874857D01*
X147327904Y-77779619D01*
X147375523Y-77732000D01*
X147470761Y-77684380D01*
X147661238Y-77684380D01*
X147756476Y-77732000D01*
X147804095Y-77779619D01*
X147851714Y-77874857D01*
X147851714Y-77922476D01*
X147804095Y-78017714D01*
X147756476Y-78065333D01*
X147661238Y-78112952D01*
X147470761Y-78112952D01*
X147375523Y-78160571D01*
X147327904Y-78208190D01*
X147280285Y-78303428D01*
X147280285Y-78493904D01*
X147327904Y-78589142D01*
X147375523Y-78636761D01*
X147470761Y-78684380D01*
X147661238Y-78684380D01*
X147756476Y-78636761D01*
X147804095Y-78589142D01*
X147851714Y-78493904D01*
X147851714Y-78303428D01*
X147804095Y-78208190D01*
X147756476Y-78160571D01*
X147661238Y-78112952D01*
X146899333Y-80716380D02*
X146566000Y-80240190D01*
X146327904Y-80716380D02*
X146327904Y-79716380D01*
X146708857Y-79716380D01*
X146804095Y-79764000D01*
X146851714Y-79811619D01*
X146899333Y-79906857D01*
X146899333Y-80049714D01*
X146851714Y-80144952D01*
X146804095Y-80192571D01*
X146708857Y-80240190D01*
X146327904Y-80240190D01*
X147232666Y-79716380D02*
X147899333Y-79716380D01*
X147470761Y-80716380D01*
X150963333Y-78303380D02*
X150630000Y-77827190D01*
X150391904Y-78303380D02*
X150391904Y-77303380D01*
X150772857Y-77303380D01*
X150868095Y-77351000D01*
X150915714Y-77398619D01*
X150963333Y-77493857D01*
X150963333Y-77636714D01*
X150915714Y-77731952D01*
X150868095Y-77779571D01*
X150772857Y-77827190D01*
X150391904Y-77827190D01*
X151820476Y-77303380D02*
X151630000Y-77303380D01*
X151534761Y-77351000D01*
X151487142Y-77398619D01*
X151391904Y-77541476D01*
X151344285Y-77731952D01*
X151344285Y-78112904D01*
X151391904Y-78208142D01*
X151439523Y-78255761D01*
X151534761Y-78303380D01*
X151725238Y-78303380D01*
X151820476Y-78255761D01*
X151868095Y-78208142D01*
X151915714Y-78112904D01*
X151915714Y-77874809D01*
X151868095Y-77779571D01*
X151820476Y-77731952D01*
X151725238Y-77684333D01*
X151534761Y-77684333D01*
X151439523Y-77731952D01*
X151391904Y-77779571D01*
X151344285Y-77874809D01*
X139787333Y-83510380D02*
X139454000Y-83034190D01*
X139215904Y-83510380D02*
X139215904Y-82510380D01*
X139596857Y-82510380D01*
X139692095Y-82558000D01*
X139739714Y-82605619D01*
X139787333Y-82700857D01*
X139787333Y-82843714D01*
X139739714Y-82938952D01*
X139692095Y-82986571D01*
X139596857Y-83034190D01*
X139215904Y-83034190D01*
X140692095Y-82510380D02*
X140215904Y-82510380D01*
X140168285Y-82986571D01*
X140215904Y-82938952D01*
X140311142Y-82891333D01*
X140549238Y-82891333D01*
X140644476Y-82938952D01*
X140692095Y-82986571D01*
X140739714Y-83081809D01*
X140739714Y-83319904D01*
X140692095Y-83415142D01*
X140644476Y-83462761D01*
X140549238Y-83510380D01*
X140311142Y-83510380D01*
X140215904Y-83462761D01*
X140168285Y-83415142D01*
X137628333Y-111196380D02*
X137295000Y-110720190D01*
X137056904Y-111196380D02*
X137056904Y-110196380D01*
X137437857Y-110196380D01*
X137533095Y-110244000D01*
X137580714Y-110291619D01*
X137628333Y-110386857D01*
X137628333Y-110529714D01*
X137580714Y-110624952D01*
X137533095Y-110672571D01*
X137437857Y-110720190D01*
X137056904Y-110720190D01*
X138485476Y-110529714D02*
X138485476Y-111196380D01*
X138247380Y-110148761D02*
X138009285Y-110863047D01*
X138628333Y-110863047D01*
X132421333Y-80716380D02*
X132088000Y-80240190D01*
X131849904Y-80716380D02*
X131849904Y-79716380D01*
X132230857Y-79716380D01*
X132326095Y-79764000D01*
X132373714Y-79811619D01*
X132421333Y-79906857D01*
X132421333Y-80049714D01*
X132373714Y-80144952D01*
X132326095Y-80192571D01*
X132230857Y-80240190D01*
X131849904Y-80240190D01*
X132754666Y-79716380D02*
X133373714Y-79716380D01*
X133040380Y-80097333D01*
X133183238Y-80097333D01*
X133278476Y-80144952D01*
X133326095Y-80192571D01*
X133373714Y-80287809D01*
X133373714Y-80525904D01*
X133326095Y-80621142D01*
X133278476Y-80668761D01*
X133183238Y-80716380D01*
X132897523Y-80716380D01*
X132802285Y-80668761D01*
X132754666Y-80621142D01*
X132421333Y-78684380D02*
X132088000Y-78208190D01*
X131849904Y-78684380D02*
X131849904Y-77684380D01*
X132230857Y-77684380D01*
X132326095Y-77732000D01*
X132373714Y-77779619D01*
X132421333Y-77874857D01*
X132421333Y-78017714D01*
X132373714Y-78112952D01*
X132326095Y-78160571D01*
X132230857Y-78208190D01*
X131849904Y-78208190D01*
X132802285Y-77779619D02*
X132849904Y-77732000D01*
X132945142Y-77684380D01*
X133183238Y-77684380D01*
X133278476Y-77732000D01*
X133326095Y-77779619D01*
X133373714Y-77874857D01*
X133373714Y-77970095D01*
X133326095Y-78112952D01*
X132754666Y-78684380D01*
X133373714Y-78684380D01*
X134707333Y-111196380D02*
X134374000Y-110720190D01*
X134135904Y-111196380D02*
X134135904Y-110196380D01*
X134516857Y-110196380D01*
X134612095Y-110244000D01*
X134659714Y-110291619D01*
X134707333Y-110386857D01*
X134707333Y-110529714D01*
X134659714Y-110624952D01*
X134612095Y-110672571D01*
X134516857Y-110720190D01*
X134135904Y-110720190D01*
X135659714Y-111196380D02*
X135088285Y-111196380D01*
X135374000Y-111196380D02*
X135374000Y-110196380D01*
X135278761Y-110339238D01*
X135183523Y-110434476D01*
X135088285Y-110482095D01*
X160845571Y-122213619D02*
X160750333Y-122166000D01*
X160655095Y-122070761D01*
X160512238Y-121927904D01*
X160417000Y-121880285D01*
X160321761Y-121880285D01*
X160369380Y-122118380D02*
X160274142Y-122070761D01*
X160178904Y-121975523D01*
X160131285Y-121785047D01*
X160131285Y-121451714D01*
X160178904Y-121261238D01*
X160274142Y-121166000D01*
X160369380Y-121118380D01*
X160559857Y-121118380D01*
X160655095Y-121166000D01*
X160750333Y-121261238D01*
X160797952Y-121451714D01*
X160797952Y-121785047D01*
X160750333Y-121975523D01*
X160655095Y-122070761D01*
X160559857Y-122118380D01*
X160369380Y-122118380D01*
X161750333Y-122118380D02*
X161178904Y-122118380D01*
X161464619Y-122118380D02*
X161464619Y-121118380D01*
X161369380Y-121261238D01*
X161274142Y-121356476D01*
X161178904Y-121404095D01*
X162369380Y-121118380D02*
X162464619Y-121118380D01*
X162559857Y-121166000D01*
X162607476Y-121213619D01*
X162655095Y-121308857D01*
X162702714Y-121499333D01*
X162702714Y-121737428D01*
X162655095Y-121927904D01*
X162607476Y-122023142D01*
X162559857Y-122070761D01*
X162464619Y-122118380D01*
X162369380Y-122118380D01*
X162274142Y-122070761D01*
X162226523Y-122023142D01*
X162178904Y-121927904D01*
X162131285Y-121737428D01*
X162131285Y-121499333D01*
X162178904Y-121308857D01*
X162226523Y-121213619D01*
X162274142Y-121166000D01*
X162369380Y-121118380D01*
X166988761Y-122213619D02*
X166893523Y-122166000D01*
X166798285Y-122070761D01*
X166655428Y-121927904D01*
X166560190Y-121880285D01*
X166464952Y-121880285D01*
X166512571Y-122118380D02*
X166417333Y-122070761D01*
X166322095Y-121975523D01*
X166274476Y-121785047D01*
X166274476Y-121451714D01*
X166322095Y-121261238D01*
X166417333Y-121166000D01*
X166512571Y-121118380D01*
X166703047Y-121118380D01*
X166798285Y-121166000D01*
X166893523Y-121261238D01*
X166941142Y-121451714D01*
X166941142Y-121785047D01*
X166893523Y-121975523D01*
X166798285Y-122070761D01*
X166703047Y-122118380D01*
X166512571Y-122118380D01*
X167417333Y-122118380D02*
X167607809Y-122118380D01*
X167703047Y-122070761D01*
X167750666Y-122023142D01*
X167845904Y-121880285D01*
X167893523Y-121689809D01*
X167893523Y-121308857D01*
X167845904Y-121213619D01*
X167798285Y-121166000D01*
X167703047Y-121118380D01*
X167512571Y-121118380D01*
X167417333Y-121166000D01*
X167369714Y-121213619D01*
X167322095Y-121308857D01*
X167322095Y-121546952D01*
X167369714Y-121642190D01*
X167417333Y-121689809D01*
X167512571Y-121737428D01*
X167703047Y-121737428D01*
X167798285Y-121689809D01*
X167845904Y-121642190D01*
X167893523Y-121546952D01*
X172600761Y-122213619D02*
X172505523Y-122166000D01*
X172410285Y-122070761D01*
X172267428Y-121927904D01*
X172172190Y-121880285D01*
X172076952Y-121880285D01*
X172124571Y-122118380D02*
X172029333Y-122070761D01*
X171934095Y-121975523D01*
X171886476Y-121785047D01*
X171886476Y-121451714D01*
X171934095Y-121261238D01*
X172029333Y-121166000D01*
X172124571Y-121118380D01*
X172315047Y-121118380D01*
X172410285Y-121166000D01*
X172505523Y-121261238D01*
X172553142Y-121451714D01*
X172553142Y-121785047D01*
X172505523Y-121975523D01*
X172410285Y-122070761D01*
X172315047Y-122118380D01*
X172124571Y-122118380D01*
X173124571Y-121546952D02*
X173029333Y-121499333D01*
X172981714Y-121451714D01*
X172934095Y-121356476D01*
X172934095Y-121308857D01*
X172981714Y-121213619D01*
X173029333Y-121166000D01*
X173124571Y-121118380D01*
X173315047Y-121118380D01*
X173410285Y-121166000D01*
X173457904Y-121213619D01*
X173505523Y-121308857D01*
X173505523Y-121356476D01*
X173457904Y-121451714D01*
X173410285Y-121499333D01*
X173315047Y-121546952D01*
X173124571Y-121546952D01*
X173029333Y-121594571D01*
X172981714Y-121642190D01*
X172934095Y-121737428D01*
X172934095Y-121927904D01*
X172981714Y-122023142D01*
X173029333Y-122070761D01*
X173124571Y-122118380D01*
X173315047Y-122118380D01*
X173410285Y-122070761D01*
X173457904Y-122023142D01*
X173505523Y-121927904D01*
X173505523Y-121737428D01*
X173457904Y-121642190D01*
X173410285Y-121594571D01*
X173315047Y-121546952D01*
D13*
X166722190Y-119428380D02*
X166698000Y-119476761D01*
X166649619Y-119525142D01*
X166577047Y-119597714D01*
X166552857Y-119646095D01*
X166552857Y-119694476D01*
X166673809Y-119670285D02*
X166649619Y-119718666D01*
X166601238Y-119767047D01*
X166504476Y-119791238D01*
X166335142Y-119791238D01*
X166238380Y-119767047D01*
X166190000Y-119718666D01*
X166165809Y-119670285D01*
X166165809Y-119573523D01*
X166190000Y-119525142D01*
X166238380Y-119476761D01*
X166335142Y-119452571D01*
X166504476Y-119452571D01*
X166601238Y-119476761D01*
X166649619Y-119525142D01*
X166673809Y-119573523D01*
X166673809Y-119670285D01*
X166165809Y-119283238D02*
X166165809Y-118944571D01*
X166673809Y-119162285D01*
X163907190Y-108633380D02*
X163883000Y-108681761D01*
X163834619Y-108730142D01*
X163762047Y-108802714D01*
X163737857Y-108851095D01*
X163737857Y-108899476D01*
X163858809Y-108875285D02*
X163834619Y-108923666D01*
X163786238Y-108972047D01*
X163689476Y-108996238D01*
X163520142Y-108996238D01*
X163423380Y-108972047D01*
X163375000Y-108923666D01*
X163350809Y-108875285D01*
X163350809Y-108778523D01*
X163375000Y-108730142D01*
X163423380Y-108681761D01*
X163520142Y-108657571D01*
X163689476Y-108657571D01*
X163786238Y-108681761D01*
X163834619Y-108730142D01*
X163858809Y-108778523D01*
X163858809Y-108875285D01*
X163350809Y-108222142D02*
X163350809Y-108318904D01*
X163375000Y-108367285D01*
X163399190Y-108391476D01*
X163471761Y-108439857D01*
X163568523Y-108464047D01*
X163762047Y-108464047D01*
X163810428Y-108439857D01*
X163834619Y-108415666D01*
X163858809Y-108367285D01*
X163858809Y-108270523D01*
X163834619Y-108222142D01*
X163810428Y-108197952D01*
X163762047Y-108173761D01*
X163641095Y-108173761D01*
X163592714Y-108197952D01*
X163568523Y-108222142D01*
X163544333Y-108270523D01*
X163544333Y-108367285D01*
X163568523Y-108415666D01*
X163592714Y-108439857D01*
X163641095Y-108464047D01*
X155038190Y-108633380D02*
X155014000Y-108681761D01*
X154965619Y-108730142D01*
X154893047Y-108802714D01*
X154868857Y-108851095D01*
X154868857Y-108899476D01*
X154989809Y-108875285D02*
X154965619Y-108923666D01*
X154917238Y-108972047D01*
X154820476Y-108996238D01*
X154651142Y-108996238D01*
X154554380Y-108972047D01*
X154506000Y-108923666D01*
X154481809Y-108875285D01*
X154481809Y-108778523D01*
X154506000Y-108730142D01*
X154554380Y-108681761D01*
X154651142Y-108657571D01*
X154820476Y-108657571D01*
X154917238Y-108681761D01*
X154965619Y-108730142D01*
X154989809Y-108778523D01*
X154989809Y-108875285D01*
X154481809Y-108197952D02*
X154481809Y-108439857D01*
X154723714Y-108464047D01*
X154699523Y-108439857D01*
X154675333Y-108391476D01*
X154675333Y-108270523D01*
X154699523Y-108222142D01*
X154723714Y-108197952D01*
X154772095Y-108173761D01*
X154893047Y-108173761D01*
X154941428Y-108197952D01*
X154965619Y-108222142D01*
X154989809Y-108270523D01*
X154989809Y-108391476D01*
X154965619Y-108439857D01*
X154941428Y-108464047D01*
X146635190Y-87109380D02*
X146611000Y-87157761D01*
X146562619Y-87206142D01*
X146490047Y-87278714D01*
X146465857Y-87327095D01*
X146465857Y-87375476D01*
X146586809Y-87351285D02*
X146562619Y-87399666D01*
X146514238Y-87448047D01*
X146417476Y-87472238D01*
X146248142Y-87472238D01*
X146151380Y-87448047D01*
X146103000Y-87399666D01*
X146078809Y-87351285D01*
X146078809Y-87254523D01*
X146103000Y-87206142D01*
X146151380Y-87157761D01*
X146248142Y-87133571D01*
X146417476Y-87133571D01*
X146514238Y-87157761D01*
X146562619Y-87206142D01*
X146586809Y-87254523D01*
X146586809Y-87351285D01*
X146248142Y-86698142D02*
X146586809Y-86698142D01*
X146054619Y-86819095D02*
X146417476Y-86940047D01*
X146417476Y-86625571D01*
X155673190Y-83807380D02*
X155649000Y-83855761D01*
X155600619Y-83904142D01*
X155528047Y-83976714D01*
X155503857Y-84025095D01*
X155503857Y-84073476D01*
X155624809Y-84049285D02*
X155600619Y-84097666D01*
X155552238Y-84146047D01*
X155455476Y-84170238D01*
X155286142Y-84170238D01*
X155189380Y-84146047D01*
X155141000Y-84097666D01*
X155116809Y-84049285D01*
X155116809Y-83952523D01*
X155141000Y-83904142D01*
X155189380Y-83855761D01*
X155286142Y-83831571D01*
X155455476Y-83831571D01*
X155552238Y-83855761D01*
X155600619Y-83904142D01*
X155624809Y-83952523D01*
X155624809Y-84049285D01*
X155165190Y-83638047D02*
X155141000Y-83613857D01*
X155116809Y-83565476D01*
X155116809Y-83444523D01*
X155141000Y-83396142D01*
X155165190Y-83371952D01*
X155213571Y-83347761D01*
X155261952Y-83347761D01*
X155334523Y-83371952D01*
X155624809Y-83662238D01*
X155624809Y-83347761D01*
X140158190Y-78534380D02*
X140134000Y-78582761D01*
X140085619Y-78631142D01*
X140013047Y-78703714D01*
X139988857Y-78752095D01*
X139988857Y-78800476D01*
X140109809Y-78776285D02*
X140085619Y-78824666D01*
X140037238Y-78873047D01*
X139940476Y-78897238D01*
X139771142Y-78897238D01*
X139674380Y-78873047D01*
X139626000Y-78824666D01*
X139601809Y-78776285D01*
X139601809Y-78679523D01*
X139626000Y-78631142D01*
X139674380Y-78582761D01*
X139771142Y-78558571D01*
X139940476Y-78558571D01*
X140037238Y-78582761D01*
X140085619Y-78631142D01*
X140109809Y-78679523D01*
X140109809Y-78776285D01*
X140109809Y-78074761D02*
X140109809Y-78365047D01*
X140109809Y-78219904D02*
X139601809Y-78219904D01*
X139674380Y-78268285D01*
X139722761Y-78316666D01*
X139746952Y-78365047D01*
D10*
X150899904Y-117801380D02*
X150899904Y-116801380D01*
X151138000Y-116801380D01*
X151280857Y-116849000D01*
X151376095Y-116944238D01*
X151423714Y-117039476D01*
X151471333Y-117229952D01*
X151471333Y-117372809D01*
X151423714Y-117563285D01*
X151376095Y-117658523D01*
X151280857Y-117753761D01*
X151138000Y-117801380D01*
X150899904Y-117801380D01*
X152423714Y-117801380D02*
X151852285Y-117801380D01*
X152138000Y-117801380D02*
X152138000Y-116801380D01*
X152042761Y-116944238D01*
X151947523Y-117039476D01*
X151852285Y-117087095D01*
X142359142Y-99925142D02*
X142311523Y-99972761D01*
X142168666Y-100020380D01*
X142073428Y-100020380D01*
X141930571Y-99972761D01*
X141835333Y-99877523D01*
X141787714Y-99782285D01*
X141740095Y-99591809D01*
X141740095Y-99448952D01*
X141787714Y-99258476D01*
X141835333Y-99163238D01*
X141930571Y-99068000D01*
X142073428Y-99020380D01*
X142168666Y-99020380D01*
X142311523Y-99068000D01*
X142359142Y-99115619D01*
X143311523Y-100020380D02*
X142740095Y-100020380D01*
X143025809Y-100020380D02*
X143025809Y-99020380D01*
X142930571Y-99163238D01*
X142835333Y-99258476D01*
X142740095Y-99306095D01*
X144168666Y-99353714D02*
X144168666Y-100020380D01*
X143930571Y-98972761D02*
X143692476Y-99687047D01*
X144311523Y-99687047D01*
X142105142Y-105005142D02*
X142057523Y-105052761D01*
X141914666Y-105100380D01*
X141819428Y-105100380D01*
X141676571Y-105052761D01*
X141581333Y-104957523D01*
X141533714Y-104862285D01*
X141486095Y-104671809D01*
X141486095Y-104528952D01*
X141533714Y-104338476D01*
X141581333Y-104243238D01*
X141676571Y-104148000D01*
X141819428Y-104100380D01*
X141914666Y-104100380D01*
X142057523Y-104148000D01*
X142105142Y-104195619D01*
X143057523Y-105100380D02*
X142486095Y-105100380D01*
X142771809Y-105100380D02*
X142771809Y-104100380D01*
X142676571Y-104243238D01*
X142581333Y-104338476D01*
X142486095Y-104386095D01*
X143390857Y-104100380D02*
X144009904Y-104100380D01*
X143676571Y-104481333D01*
X143819428Y-104481333D01*
X143914666Y-104528952D01*
X143962285Y-104576571D01*
X144009904Y-104671809D01*
X144009904Y-104909904D01*
X143962285Y-105005142D01*
X143914666Y-105052761D01*
X143819428Y-105100380D01*
X143533714Y-105100380D01*
X143438476Y-105052761D01*
X143390857Y-105005142D01*
X164702142Y-92179142D02*
X164654523Y-92226761D01*
X164511666Y-92274380D01*
X164416428Y-92274380D01*
X164273571Y-92226761D01*
X164178333Y-92131523D01*
X164130714Y-92036285D01*
X164083095Y-91845809D01*
X164083095Y-91702952D01*
X164130714Y-91512476D01*
X164178333Y-91417238D01*
X164273571Y-91322000D01*
X164416428Y-91274380D01*
X164511666Y-91274380D01*
X164654523Y-91322000D01*
X164702142Y-91369619D01*
X165654523Y-92274380D02*
X165083095Y-92274380D01*
X165368809Y-92274380D02*
X165368809Y-91274380D01*
X165273571Y-91417238D01*
X165178333Y-91512476D01*
X165083095Y-91560095D01*
X166035476Y-91369619D02*
X166083095Y-91322000D01*
X166178333Y-91274380D01*
X166416428Y-91274380D01*
X166511666Y-91322000D01*
X166559285Y-91369619D01*
X166606904Y-91464857D01*
X166606904Y-91560095D01*
X166559285Y-91702952D01*
X165987857Y-92274380D01*
X166606904Y-92274380D01*
X177411142Y-98655142D02*
X177363523Y-98702761D01*
X177220666Y-98750380D01*
X177125428Y-98750380D01*
X176982571Y-98702761D01*
X176887333Y-98607523D01*
X176839714Y-98512285D01*
X176792095Y-98321809D01*
X176792095Y-98178952D01*
X176839714Y-97988476D01*
X176887333Y-97893238D01*
X176982571Y-97798000D01*
X177125428Y-97750380D01*
X177220666Y-97750380D01*
X177363523Y-97798000D01*
X177411142Y-97845619D01*
X178363523Y-98750380D02*
X177792095Y-98750380D01*
X178077809Y-98750380D02*
X178077809Y-97750380D01*
X177982571Y-97893238D01*
X177887333Y-97988476D01*
X177792095Y-98036095D01*
X179315904Y-98750380D02*
X178744476Y-98750380D01*
X179030190Y-98750380D02*
X179030190Y-97750380D01*
X178934952Y-97893238D01*
X178839714Y-97988476D01*
X178744476Y-98036095D01*
X178173142Y-111227142D02*
X178125523Y-111274761D01*
X177982666Y-111322380D01*
X177887428Y-111322380D01*
X177744571Y-111274761D01*
X177649333Y-111179523D01*
X177601714Y-111084285D01*
X177554095Y-110893809D01*
X177554095Y-110750952D01*
X177601714Y-110560476D01*
X177649333Y-110465238D01*
X177744571Y-110370000D01*
X177887428Y-110322380D01*
X177982666Y-110322380D01*
X178125523Y-110370000D01*
X178173142Y-110417619D01*
X179125523Y-111322380D02*
X178554095Y-111322380D01*
X178839809Y-111322380D02*
X178839809Y-110322380D01*
X178744571Y-110465238D01*
X178649333Y-110560476D01*
X178554095Y-110608095D01*
X179744571Y-110322380D02*
X179839809Y-110322380D01*
X179935047Y-110370000D01*
X179982666Y-110417619D01*
X180030285Y-110512857D01*
X180077904Y-110703333D01*
X180077904Y-110941428D01*
X180030285Y-111131904D01*
X179982666Y-111227142D01*
X179935047Y-111274761D01*
X179839809Y-111322380D01*
X179744571Y-111322380D01*
X179649333Y-111274761D01*
X179601714Y-111227142D01*
X179554095Y-111131904D01*
X179506476Y-110941428D01*
X179506476Y-110703333D01*
X179554095Y-110512857D01*
X179601714Y-110417619D01*
X179649333Y-110370000D01*
X179744571Y-110322380D01*
X174594333Y-111227142D02*
X174546714Y-111274761D01*
X174403857Y-111322380D01*
X174308619Y-111322380D01*
X174165761Y-111274761D01*
X174070523Y-111179523D01*
X174022904Y-111084285D01*
X173975285Y-110893809D01*
X173975285Y-110750952D01*
X174022904Y-110560476D01*
X174070523Y-110465238D01*
X174165761Y-110370000D01*
X174308619Y-110322380D01*
X174403857Y-110322380D01*
X174546714Y-110370000D01*
X174594333Y-110417619D01*
X175070523Y-111322380D02*
X175261000Y-111322380D01*
X175356238Y-111274761D01*
X175403857Y-111227142D01*
X175499095Y-111084285D01*
X175546714Y-110893809D01*
X175546714Y-110512857D01*
X175499095Y-110417619D01*
X175451476Y-110370000D01*
X175356238Y-110322380D01*
X175165761Y-110322380D01*
X175070523Y-110370000D01*
X175022904Y-110417619D01*
X174975285Y-110512857D01*
X174975285Y-110750952D01*
X175022904Y-110846190D01*
X175070523Y-110893809D01*
X175165761Y-110941428D01*
X175356238Y-110941428D01*
X175451476Y-110893809D01*
X175499095Y-110846190D01*
X175546714Y-110750952D01*
X140549333Y-93947142D02*
X140501714Y-93994761D01*
X140358857Y-94042380D01*
X140263619Y-94042380D01*
X140120761Y-93994761D01*
X140025523Y-93899523D01*
X139977904Y-93804285D01*
X139930285Y-93613809D01*
X139930285Y-93470952D01*
X139977904Y-93280476D01*
X140025523Y-93185238D01*
X140120761Y-93090000D01*
X140263619Y-93042380D01*
X140358857Y-93042380D01*
X140501714Y-93090000D01*
X140549333Y-93137619D01*
X141120761Y-93470952D02*
X141025523Y-93423333D01*
X140977904Y-93375714D01*
X140930285Y-93280476D01*
X140930285Y-93232857D01*
X140977904Y-93137619D01*
X141025523Y-93090000D01*
X141120761Y-93042380D01*
X141311238Y-93042380D01*
X141406476Y-93090000D01*
X141454095Y-93137619D01*
X141501714Y-93232857D01*
X141501714Y-93280476D01*
X141454095Y-93375714D01*
X141406476Y-93423333D01*
X141311238Y-93470952D01*
X141120761Y-93470952D01*
X141025523Y-93518571D01*
X140977904Y-93566190D01*
X140930285Y-93661428D01*
X140930285Y-93851904D01*
X140977904Y-93947142D01*
X141025523Y-93994761D01*
X141120761Y-94042380D01*
X141311238Y-94042380D01*
X141406476Y-93994761D01*
X141454095Y-93947142D01*
X141501714Y-93851904D01*
X141501714Y-93661428D01*
X141454095Y-93566190D01*
X141406476Y-93518571D01*
X141311238Y-93470952D01*
X131786333Y-93956142D02*
X131738714Y-94003761D01*
X131595857Y-94051380D01*
X131500619Y-94051380D01*
X131357761Y-94003761D01*
X131262523Y-93908523D01*
X131214904Y-93813285D01*
X131167285Y-93622809D01*
X131167285Y-93479952D01*
X131214904Y-93289476D01*
X131262523Y-93194238D01*
X131357761Y-93099000D01*
X131500619Y-93051380D01*
X131595857Y-93051380D01*
X131738714Y-93099000D01*
X131786333Y-93146619D01*
X132119666Y-93051380D02*
X132786333Y-93051380D01*
X132357761Y-94051380D01*
X170013333Y-79605142D02*
X169965714Y-79652761D01*
X169822857Y-79700380D01*
X169727619Y-79700380D01*
X169584761Y-79652761D01*
X169489523Y-79557523D01*
X169441904Y-79462285D01*
X169394285Y-79271809D01*
X169394285Y-79128952D01*
X169441904Y-78938476D01*
X169489523Y-78843238D01*
X169584761Y-78748000D01*
X169727619Y-78700380D01*
X169822857Y-78700380D01*
X169965714Y-78748000D01*
X170013333Y-78795619D01*
X170870476Y-78700380D02*
X170680000Y-78700380D01*
X170584761Y-78748000D01*
X170537142Y-78795619D01*
X170441904Y-78938476D01*
X170394285Y-79128952D01*
X170394285Y-79509904D01*
X170441904Y-79605142D01*
X170489523Y-79652761D01*
X170584761Y-79700380D01*
X170775238Y-79700380D01*
X170870476Y-79652761D01*
X170918095Y-79605142D01*
X170965714Y-79509904D01*
X170965714Y-79271809D01*
X170918095Y-79176571D01*
X170870476Y-79128952D01*
X170775238Y-79081333D01*
X170584761Y-79081333D01*
X170489523Y-79128952D01*
X170441904Y-79176571D01*
X170394285Y-79271809D01*
X157186333Y-102973142D02*
X157138714Y-103020761D01*
X156995857Y-103068380D01*
X156900619Y-103068380D01*
X156757761Y-103020761D01*
X156662523Y-102925523D01*
X156614904Y-102830285D01*
X156567285Y-102639809D01*
X156567285Y-102496952D01*
X156614904Y-102306476D01*
X156662523Y-102211238D01*
X156757761Y-102116000D01*
X156900619Y-102068380D01*
X156995857Y-102068380D01*
X157138714Y-102116000D01*
X157186333Y-102163619D01*
X158091095Y-102068380D02*
X157614904Y-102068380D01*
X157567285Y-102544571D01*
X157614904Y-102496952D01*
X157710142Y-102449333D01*
X157948238Y-102449333D01*
X158043476Y-102496952D01*
X158091095Y-102544571D01*
X158138714Y-102639809D01*
X158138714Y-102877904D01*
X158091095Y-102973142D01*
X158043476Y-103020761D01*
X157948238Y-103068380D01*
X157710142Y-103068380D01*
X157614904Y-103020761D01*
X157567285Y-102973142D01*
X152369333Y-102845142D02*
X152321714Y-102892761D01*
X152178857Y-102940380D01*
X152083619Y-102940380D01*
X151940761Y-102892761D01*
X151845523Y-102797523D01*
X151797904Y-102702285D01*
X151750285Y-102511809D01*
X151750285Y-102368952D01*
X151797904Y-102178476D01*
X151845523Y-102083238D01*
X151940761Y-101988000D01*
X152083619Y-101940380D01*
X152178857Y-101940380D01*
X152321714Y-101988000D01*
X152369333Y-102035619D01*
X153226476Y-102273714D02*
X153226476Y-102940380D01*
X152988380Y-101892761D02*
X152750285Y-102607047D01*
X153369333Y-102607047D01*
X158710333Y-90019142D02*
X158662714Y-90066761D01*
X158519857Y-90114380D01*
X158424619Y-90114380D01*
X158281761Y-90066761D01*
X158186523Y-89971523D01*
X158138904Y-89876285D01*
X158091285Y-89685809D01*
X158091285Y-89542952D01*
X158138904Y-89352476D01*
X158186523Y-89257238D01*
X158281761Y-89162000D01*
X158424619Y-89114380D01*
X158519857Y-89114380D01*
X158662714Y-89162000D01*
X158710333Y-89209619D01*
X159043666Y-89114380D02*
X159662714Y-89114380D01*
X159329380Y-89495333D01*
X159472238Y-89495333D01*
X159567476Y-89542952D01*
X159615095Y-89590571D01*
X159662714Y-89685809D01*
X159662714Y-89923904D01*
X159615095Y-90019142D01*
X159567476Y-90066761D01*
X159472238Y-90114380D01*
X159186523Y-90114380D01*
X159091285Y-90066761D01*
X159043666Y-90019142D01*
X154029333Y-90019142D02*
X153981714Y-90066761D01*
X153838857Y-90114380D01*
X153743619Y-90114380D01*
X153600761Y-90066761D01*
X153505523Y-89971523D01*
X153457904Y-89876285D01*
X153410285Y-89685809D01*
X153410285Y-89542952D01*
X153457904Y-89352476D01*
X153505523Y-89257238D01*
X153600761Y-89162000D01*
X153743619Y-89114380D01*
X153838857Y-89114380D01*
X153981714Y-89162000D01*
X154029333Y-89209619D01*
X154410285Y-89209619D02*
X154457904Y-89162000D01*
X154553142Y-89114380D01*
X154791238Y-89114380D01*
X154886476Y-89162000D01*
X154934095Y-89209619D01*
X154981714Y-89304857D01*
X154981714Y-89400095D01*
X154934095Y-89542952D01*
X154362666Y-90114380D01*
X154981714Y-90114380D01*
X131786333Y-111101142D02*
X131738714Y-111148761D01*
X131595857Y-111196380D01*
X131500619Y-111196380D01*
X131357761Y-111148761D01*
X131262523Y-111053523D01*
X131214904Y-110958285D01*
X131167285Y-110767809D01*
X131167285Y-110624952D01*
X131214904Y-110434476D01*
X131262523Y-110339238D01*
X131357761Y-110244000D01*
X131500619Y-110196380D01*
X131595857Y-110196380D01*
X131738714Y-110244000D01*
X131786333Y-110291619D01*
X132738714Y-111196380D02*
X132167285Y-111196380D01*
X132453000Y-111196380D02*
X132453000Y-110196380D01*
X132357761Y-110339238D01*
X132262523Y-110434476D01*
X132167285Y-110482095D01*
M02*
