G04 #@! TF.GenerationSoftware,KiCad,Pcbnew,5.1.6-c6e7f7d~87~ubuntu18.04.1*
G04 #@! TF.CreationDate,2020-07-29T17:57:34-04:00*
G04 #@! TF.ProjectId,arp_4072_LPF,6172705f-3430-4373-925f-4c50462e6b69,0*
G04 #@! TF.SameCoordinates,Original*
G04 #@! TF.FileFunction,Paste,Top*
G04 #@! TF.FilePolarity,Positive*
%FSLAX46Y46*%
G04 Gerber Fmt 4.6, Leading zero omitted, Abs format (unit mm)*
G04 Created by KiCad (PCBNEW 5.1.6-c6e7f7d~87~ubuntu18.04.1) date 2020-07-29 17:57:34*
%MOMM*%
%LPD*%
G01*
G04 APERTURE LIST*
%ADD10R,1.500000X0.550000*%
%ADD11R,1.900000X0.800000*%
%ADD12R,1.200000X0.900000*%
G04 APERTURE END LIST*
G36*
G01*
X150564000Y-94176001D02*
X150564000Y-93275999D01*
G75*
G02*
X150813999Y-93026000I249999J0D01*
G01*
X151464001Y-93026000D01*
G75*
G02*
X151714000Y-93275999I0J-249999D01*
G01*
X151714000Y-94176001D01*
G75*
G02*
X151464001Y-94426000I-249999J0D01*
G01*
X150813999Y-94426000D01*
G75*
G02*
X150564000Y-94176001I0J249999D01*
G01*
G37*
G36*
G01*
X148514000Y-94176001D02*
X148514000Y-93275999D01*
G75*
G02*
X148763999Y-93026000I249999J0D01*
G01*
X149414001Y-93026000D01*
G75*
G02*
X149664000Y-93275999I0J-249999D01*
G01*
X149664000Y-94176001D01*
G75*
G02*
X149414001Y-94426000I-249999J0D01*
G01*
X148763999Y-94426000D01*
G75*
G02*
X148514000Y-94176001I0J249999D01*
G01*
G37*
D10*
X165280000Y-82870000D03*
X165280000Y-83820000D03*
X165280000Y-84770000D03*
X162380000Y-84770000D03*
X162380000Y-83820000D03*
X162380000Y-82870000D03*
G36*
G01*
X136629000Y-103608000D02*
X136929000Y-103608000D01*
G75*
G02*
X137079000Y-103758000I0J-150000D01*
G01*
X137079000Y-105408000D01*
G75*
G02*
X136929000Y-105558000I-150000J0D01*
G01*
X136629000Y-105558000D01*
G75*
G02*
X136479000Y-105408000I0J150000D01*
G01*
X136479000Y-103758000D01*
G75*
G02*
X136629000Y-103608000I150000J0D01*
G01*
G37*
G36*
G01*
X135359000Y-103608000D02*
X135659000Y-103608000D01*
G75*
G02*
X135809000Y-103758000I0J-150000D01*
G01*
X135809000Y-105408000D01*
G75*
G02*
X135659000Y-105558000I-150000J0D01*
G01*
X135359000Y-105558000D01*
G75*
G02*
X135209000Y-105408000I0J150000D01*
G01*
X135209000Y-103758000D01*
G75*
G02*
X135359000Y-103608000I150000J0D01*
G01*
G37*
G36*
G01*
X134089000Y-103608000D02*
X134389000Y-103608000D01*
G75*
G02*
X134539000Y-103758000I0J-150000D01*
G01*
X134539000Y-105408000D01*
G75*
G02*
X134389000Y-105558000I-150000J0D01*
G01*
X134089000Y-105558000D01*
G75*
G02*
X133939000Y-105408000I0J150000D01*
G01*
X133939000Y-103758000D01*
G75*
G02*
X134089000Y-103608000I150000J0D01*
G01*
G37*
G36*
G01*
X132819000Y-103608000D02*
X133119000Y-103608000D01*
G75*
G02*
X133269000Y-103758000I0J-150000D01*
G01*
X133269000Y-105408000D01*
G75*
G02*
X133119000Y-105558000I-150000J0D01*
G01*
X132819000Y-105558000D01*
G75*
G02*
X132669000Y-105408000I0J150000D01*
G01*
X132669000Y-103758000D01*
G75*
G02*
X132819000Y-103608000I150000J0D01*
G01*
G37*
G36*
G01*
X132819000Y-98658000D02*
X133119000Y-98658000D01*
G75*
G02*
X133269000Y-98808000I0J-150000D01*
G01*
X133269000Y-100458000D01*
G75*
G02*
X133119000Y-100608000I-150000J0D01*
G01*
X132819000Y-100608000D01*
G75*
G02*
X132669000Y-100458000I0J150000D01*
G01*
X132669000Y-98808000D01*
G75*
G02*
X132819000Y-98658000I150000J0D01*
G01*
G37*
G36*
G01*
X134089000Y-98658000D02*
X134389000Y-98658000D01*
G75*
G02*
X134539000Y-98808000I0J-150000D01*
G01*
X134539000Y-100458000D01*
G75*
G02*
X134389000Y-100608000I-150000J0D01*
G01*
X134089000Y-100608000D01*
G75*
G02*
X133939000Y-100458000I0J150000D01*
G01*
X133939000Y-98808000D01*
G75*
G02*
X134089000Y-98658000I150000J0D01*
G01*
G37*
G36*
G01*
X135359000Y-98658000D02*
X135659000Y-98658000D01*
G75*
G02*
X135809000Y-98808000I0J-150000D01*
G01*
X135809000Y-100458000D01*
G75*
G02*
X135659000Y-100608000I-150000J0D01*
G01*
X135359000Y-100608000D01*
G75*
G02*
X135209000Y-100458000I0J150000D01*
G01*
X135209000Y-98808000D01*
G75*
G02*
X135359000Y-98658000I150000J0D01*
G01*
G37*
G36*
G01*
X136629000Y-98658000D02*
X136929000Y-98658000D01*
G75*
G02*
X137079000Y-98808000I0J-150000D01*
G01*
X137079000Y-100458000D01*
G75*
G02*
X136929000Y-100608000I-150000J0D01*
G01*
X136629000Y-100608000D01*
G75*
G02*
X136479000Y-100458000I0J150000D01*
G01*
X136479000Y-98808000D01*
G75*
G02*
X136629000Y-98658000I150000J0D01*
G01*
G37*
G36*
G01*
X171804000Y-97579000D02*
X172104000Y-97579000D01*
G75*
G02*
X172254000Y-97729000I0J-150000D01*
G01*
X172254000Y-99379000D01*
G75*
G02*
X172104000Y-99529000I-150000J0D01*
G01*
X171804000Y-99529000D01*
G75*
G02*
X171654000Y-99379000I0J150000D01*
G01*
X171654000Y-97729000D01*
G75*
G02*
X171804000Y-97579000I150000J0D01*
G01*
G37*
G36*
G01*
X170534000Y-97579000D02*
X170834000Y-97579000D01*
G75*
G02*
X170984000Y-97729000I0J-150000D01*
G01*
X170984000Y-99379000D01*
G75*
G02*
X170834000Y-99529000I-150000J0D01*
G01*
X170534000Y-99529000D01*
G75*
G02*
X170384000Y-99379000I0J150000D01*
G01*
X170384000Y-97729000D01*
G75*
G02*
X170534000Y-97579000I150000J0D01*
G01*
G37*
G36*
G01*
X169264000Y-97579000D02*
X169564000Y-97579000D01*
G75*
G02*
X169714000Y-97729000I0J-150000D01*
G01*
X169714000Y-99379000D01*
G75*
G02*
X169564000Y-99529000I-150000J0D01*
G01*
X169264000Y-99529000D01*
G75*
G02*
X169114000Y-99379000I0J150000D01*
G01*
X169114000Y-97729000D01*
G75*
G02*
X169264000Y-97579000I150000J0D01*
G01*
G37*
G36*
G01*
X167994000Y-97579000D02*
X168294000Y-97579000D01*
G75*
G02*
X168444000Y-97729000I0J-150000D01*
G01*
X168444000Y-99379000D01*
G75*
G02*
X168294000Y-99529000I-150000J0D01*
G01*
X167994000Y-99529000D01*
G75*
G02*
X167844000Y-99379000I0J150000D01*
G01*
X167844000Y-97729000D01*
G75*
G02*
X167994000Y-97579000I150000J0D01*
G01*
G37*
G36*
G01*
X167994000Y-92629000D02*
X168294000Y-92629000D01*
G75*
G02*
X168444000Y-92779000I0J-150000D01*
G01*
X168444000Y-94429000D01*
G75*
G02*
X168294000Y-94579000I-150000J0D01*
G01*
X167994000Y-94579000D01*
G75*
G02*
X167844000Y-94429000I0J150000D01*
G01*
X167844000Y-92779000D01*
G75*
G02*
X167994000Y-92629000I150000J0D01*
G01*
G37*
G36*
G01*
X169264000Y-92629000D02*
X169564000Y-92629000D01*
G75*
G02*
X169714000Y-92779000I0J-150000D01*
G01*
X169714000Y-94429000D01*
G75*
G02*
X169564000Y-94579000I-150000J0D01*
G01*
X169264000Y-94579000D01*
G75*
G02*
X169114000Y-94429000I0J150000D01*
G01*
X169114000Y-92779000D01*
G75*
G02*
X169264000Y-92629000I150000J0D01*
G01*
G37*
G36*
G01*
X170534000Y-92629000D02*
X170834000Y-92629000D01*
G75*
G02*
X170984000Y-92779000I0J-150000D01*
G01*
X170984000Y-94429000D01*
G75*
G02*
X170834000Y-94579000I-150000J0D01*
G01*
X170534000Y-94579000D01*
G75*
G02*
X170384000Y-94429000I0J150000D01*
G01*
X170384000Y-92779000D01*
G75*
G02*
X170534000Y-92629000I150000J0D01*
G01*
G37*
G36*
G01*
X171804000Y-92629000D02*
X172104000Y-92629000D01*
G75*
G02*
X172254000Y-92779000I0J-150000D01*
G01*
X172254000Y-94429000D01*
G75*
G02*
X172104000Y-94579000I-150000J0D01*
G01*
X171804000Y-94579000D01*
G75*
G02*
X171654000Y-94429000I0J150000D01*
G01*
X171654000Y-92779000D01*
G75*
G02*
X171804000Y-92629000I150000J0D01*
G01*
G37*
G36*
G01*
X160505000Y-97512000D02*
X160805000Y-97512000D01*
G75*
G02*
X160955000Y-97662000I0J-150000D01*
G01*
X160955000Y-99312000D01*
G75*
G02*
X160805000Y-99462000I-150000J0D01*
G01*
X160505000Y-99462000D01*
G75*
G02*
X160355000Y-99312000I0J150000D01*
G01*
X160355000Y-97662000D01*
G75*
G02*
X160505000Y-97512000I150000J0D01*
G01*
G37*
G36*
G01*
X159235000Y-97512000D02*
X159535000Y-97512000D01*
G75*
G02*
X159685000Y-97662000I0J-150000D01*
G01*
X159685000Y-99312000D01*
G75*
G02*
X159535000Y-99462000I-150000J0D01*
G01*
X159235000Y-99462000D01*
G75*
G02*
X159085000Y-99312000I0J150000D01*
G01*
X159085000Y-97662000D01*
G75*
G02*
X159235000Y-97512000I150000J0D01*
G01*
G37*
G36*
G01*
X157965000Y-97512000D02*
X158265000Y-97512000D01*
G75*
G02*
X158415000Y-97662000I0J-150000D01*
G01*
X158415000Y-99312000D01*
G75*
G02*
X158265000Y-99462000I-150000J0D01*
G01*
X157965000Y-99462000D01*
G75*
G02*
X157815000Y-99312000I0J150000D01*
G01*
X157815000Y-97662000D01*
G75*
G02*
X157965000Y-97512000I150000J0D01*
G01*
G37*
G36*
G01*
X156695000Y-97512000D02*
X156995000Y-97512000D01*
G75*
G02*
X157145000Y-97662000I0J-150000D01*
G01*
X157145000Y-99312000D01*
G75*
G02*
X156995000Y-99462000I-150000J0D01*
G01*
X156695000Y-99462000D01*
G75*
G02*
X156545000Y-99312000I0J150000D01*
G01*
X156545000Y-97662000D01*
G75*
G02*
X156695000Y-97512000I150000J0D01*
G01*
G37*
G36*
G01*
X155425000Y-97512000D02*
X155725000Y-97512000D01*
G75*
G02*
X155875000Y-97662000I0J-150000D01*
G01*
X155875000Y-99312000D01*
G75*
G02*
X155725000Y-99462000I-150000J0D01*
G01*
X155425000Y-99462000D01*
G75*
G02*
X155275000Y-99312000I0J150000D01*
G01*
X155275000Y-97662000D01*
G75*
G02*
X155425000Y-97512000I150000J0D01*
G01*
G37*
G36*
G01*
X154155000Y-97512000D02*
X154455000Y-97512000D01*
G75*
G02*
X154605000Y-97662000I0J-150000D01*
G01*
X154605000Y-99312000D01*
G75*
G02*
X154455000Y-99462000I-150000J0D01*
G01*
X154155000Y-99462000D01*
G75*
G02*
X154005000Y-99312000I0J150000D01*
G01*
X154005000Y-97662000D01*
G75*
G02*
X154155000Y-97512000I150000J0D01*
G01*
G37*
G36*
G01*
X152885000Y-97512000D02*
X153185000Y-97512000D01*
G75*
G02*
X153335000Y-97662000I0J-150000D01*
G01*
X153335000Y-99312000D01*
G75*
G02*
X153185000Y-99462000I-150000J0D01*
G01*
X152885000Y-99462000D01*
G75*
G02*
X152735000Y-99312000I0J150000D01*
G01*
X152735000Y-97662000D01*
G75*
G02*
X152885000Y-97512000I150000J0D01*
G01*
G37*
G36*
G01*
X152885000Y-92562000D02*
X153185000Y-92562000D01*
G75*
G02*
X153335000Y-92712000I0J-150000D01*
G01*
X153335000Y-94362000D01*
G75*
G02*
X153185000Y-94512000I-150000J0D01*
G01*
X152885000Y-94512000D01*
G75*
G02*
X152735000Y-94362000I0J150000D01*
G01*
X152735000Y-92712000D01*
G75*
G02*
X152885000Y-92562000I150000J0D01*
G01*
G37*
G36*
G01*
X154155000Y-92562000D02*
X154455000Y-92562000D01*
G75*
G02*
X154605000Y-92712000I0J-150000D01*
G01*
X154605000Y-94362000D01*
G75*
G02*
X154455000Y-94512000I-150000J0D01*
G01*
X154155000Y-94512000D01*
G75*
G02*
X154005000Y-94362000I0J150000D01*
G01*
X154005000Y-92712000D01*
G75*
G02*
X154155000Y-92562000I150000J0D01*
G01*
G37*
G36*
G01*
X155425000Y-92562000D02*
X155725000Y-92562000D01*
G75*
G02*
X155875000Y-92712000I0J-150000D01*
G01*
X155875000Y-94362000D01*
G75*
G02*
X155725000Y-94512000I-150000J0D01*
G01*
X155425000Y-94512000D01*
G75*
G02*
X155275000Y-94362000I0J150000D01*
G01*
X155275000Y-92712000D01*
G75*
G02*
X155425000Y-92562000I150000J0D01*
G01*
G37*
G36*
G01*
X156695000Y-92562000D02*
X156995000Y-92562000D01*
G75*
G02*
X157145000Y-92712000I0J-150000D01*
G01*
X157145000Y-94362000D01*
G75*
G02*
X156995000Y-94512000I-150000J0D01*
G01*
X156695000Y-94512000D01*
G75*
G02*
X156545000Y-94362000I0J150000D01*
G01*
X156545000Y-92712000D01*
G75*
G02*
X156695000Y-92562000I150000J0D01*
G01*
G37*
G36*
G01*
X157965000Y-92562000D02*
X158265000Y-92562000D01*
G75*
G02*
X158415000Y-92712000I0J-150000D01*
G01*
X158415000Y-94362000D01*
G75*
G02*
X158265000Y-94512000I-150000J0D01*
G01*
X157965000Y-94512000D01*
G75*
G02*
X157815000Y-94362000I0J150000D01*
G01*
X157815000Y-92712000D01*
G75*
G02*
X157965000Y-92562000I150000J0D01*
G01*
G37*
G36*
G01*
X159235000Y-92562000D02*
X159535000Y-92562000D01*
G75*
G02*
X159685000Y-92712000I0J-150000D01*
G01*
X159685000Y-94362000D01*
G75*
G02*
X159535000Y-94512000I-150000J0D01*
G01*
X159235000Y-94512000D01*
G75*
G02*
X159085000Y-94362000I0J150000D01*
G01*
X159085000Y-92712000D01*
G75*
G02*
X159235000Y-92562000I150000J0D01*
G01*
G37*
G36*
G01*
X160505000Y-92562000D02*
X160805000Y-92562000D01*
G75*
G02*
X160955000Y-92712000I0J-150000D01*
G01*
X160955000Y-94362000D01*
G75*
G02*
X160805000Y-94512000I-150000J0D01*
G01*
X160505000Y-94512000D01*
G75*
G02*
X160355000Y-94362000I0J150000D01*
G01*
X160355000Y-92712000D01*
G75*
G02*
X160505000Y-92562000I150000J0D01*
G01*
G37*
G36*
G01*
X154628001Y-117542000D02*
X153727999Y-117542000D01*
G75*
G02*
X153478000Y-117292001I0J249999D01*
G01*
X153478000Y-116641999D01*
G75*
G02*
X153727999Y-116392000I249999J0D01*
G01*
X154628001Y-116392000D01*
G75*
G02*
X154878000Y-116641999I0J-249999D01*
G01*
X154878000Y-117292001D01*
G75*
G02*
X154628001Y-117542000I-249999J0D01*
G01*
G37*
G36*
G01*
X154628001Y-119592000D02*
X153727999Y-119592000D01*
G75*
G02*
X153478000Y-119342001I0J249999D01*
G01*
X153478000Y-118691999D01*
G75*
G02*
X153727999Y-118442000I249999J0D01*
G01*
X154628001Y-118442000D01*
G75*
G02*
X154878000Y-118691999I0J-249999D01*
G01*
X154878000Y-119342001D01*
G75*
G02*
X154628001Y-119592000I-249999J0D01*
G01*
G37*
G36*
G01*
X158057001Y-123493000D02*
X157156999Y-123493000D01*
G75*
G02*
X156907000Y-123243001I0J249999D01*
G01*
X156907000Y-122592999D01*
G75*
G02*
X157156999Y-122343000I249999J0D01*
G01*
X158057001Y-122343000D01*
G75*
G02*
X158307000Y-122592999I0J-249999D01*
G01*
X158307000Y-123243001D01*
G75*
G02*
X158057001Y-123493000I-249999J0D01*
G01*
G37*
G36*
G01*
X158057001Y-125543000D02*
X157156999Y-125543000D01*
G75*
G02*
X156907000Y-125293001I0J249999D01*
G01*
X156907000Y-124642999D01*
G75*
G02*
X157156999Y-124393000I249999J0D01*
G01*
X158057001Y-124393000D01*
G75*
G02*
X158307000Y-124642999I0J-249999D01*
G01*
X158307000Y-125293001D01*
G75*
G02*
X158057001Y-125543000I-249999J0D01*
G01*
G37*
G36*
G01*
X162248000Y-118052001D02*
X162248000Y-117151999D01*
G75*
G02*
X162497999Y-116902000I249999J0D01*
G01*
X163148001Y-116902000D01*
G75*
G02*
X163398000Y-117151999I0J-249999D01*
G01*
X163398000Y-118052001D01*
G75*
G02*
X163148001Y-118302000I-249999J0D01*
G01*
X162497999Y-118302000D01*
G75*
G02*
X162248000Y-118052001I0J249999D01*
G01*
G37*
G36*
G01*
X160198000Y-118052001D02*
X160198000Y-117151999D01*
G75*
G02*
X160447999Y-116902000I249999J0D01*
G01*
X161098001Y-116902000D01*
G75*
G02*
X161348000Y-117151999I0J-249999D01*
G01*
X161348000Y-118052001D01*
G75*
G02*
X161098001Y-118302000I-249999J0D01*
G01*
X160447999Y-118302000D01*
G75*
G02*
X160198000Y-118052001I0J249999D01*
G01*
G37*
G36*
G01*
X162239000Y-120338001D02*
X162239000Y-119437999D01*
G75*
G02*
X162488999Y-119188000I249999J0D01*
G01*
X163139001Y-119188000D01*
G75*
G02*
X163389000Y-119437999I0J-249999D01*
G01*
X163389000Y-120338001D01*
G75*
G02*
X163139001Y-120588000I-249999J0D01*
G01*
X162488999Y-120588000D01*
G75*
G02*
X162239000Y-120338001I0J249999D01*
G01*
G37*
G36*
G01*
X160189000Y-120338001D02*
X160189000Y-119437999D01*
G75*
G02*
X160438999Y-119188000I249999J0D01*
G01*
X161089001Y-119188000D01*
G75*
G02*
X161339000Y-119437999I0J-249999D01*
G01*
X161339000Y-120338001D01*
G75*
G02*
X161089001Y-120588000I-249999J0D01*
G01*
X160438999Y-120588000D01*
G75*
G02*
X160189000Y-120338001I0J249999D01*
G01*
G37*
G36*
G01*
X170999999Y-102567000D02*
X171900001Y-102567000D01*
G75*
G02*
X172150000Y-102816999I0J-249999D01*
G01*
X172150000Y-103467001D01*
G75*
G02*
X171900001Y-103717000I-249999J0D01*
G01*
X170999999Y-103717000D01*
G75*
G02*
X170750000Y-103467001I0J249999D01*
G01*
X170750000Y-102816999D01*
G75*
G02*
X170999999Y-102567000I249999J0D01*
G01*
G37*
G36*
G01*
X170999999Y-100517000D02*
X171900001Y-100517000D01*
G75*
G02*
X172150000Y-100766999I0J-249999D01*
G01*
X172150000Y-101417001D01*
G75*
G02*
X171900001Y-101667000I-249999J0D01*
G01*
X170999999Y-101667000D01*
G75*
G02*
X170750000Y-101417001I0J249999D01*
G01*
X170750000Y-100766999D01*
G75*
G02*
X170999999Y-100517000I249999J0D01*
G01*
G37*
G36*
G01*
X168078999Y-102567000D02*
X168979001Y-102567000D01*
G75*
G02*
X169229000Y-102816999I0J-249999D01*
G01*
X169229000Y-103467001D01*
G75*
G02*
X168979001Y-103717000I-249999J0D01*
G01*
X168078999Y-103717000D01*
G75*
G02*
X167829000Y-103467001I0J249999D01*
G01*
X167829000Y-102816999D01*
G75*
G02*
X168078999Y-102567000I249999J0D01*
G01*
G37*
G36*
G01*
X168078999Y-100517000D02*
X168979001Y-100517000D01*
G75*
G02*
X169229000Y-100766999I0J-249999D01*
G01*
X169229000Y-101417001D01*
G75*
G02*
X168979001Y-101667000I-249999J0D01*
G01*
X168078999Y-101667000D01*
G75*
G02*
X167829000Y-101417001I0J249999D01*
G01*
X167829000Y-100766999D01*
G75*
G02*
X168078999Y-100517000I249999J0D01*
G01*
G37*
G36*
G01*
X170492000Y-119437999D02*
X170492000Y-120338001D01*
G75*
G02*
X170242001Y-120588000I-249999J0D01*
G01*
X169591999Y-120588000D01*
G75*
G02*
X169342000Y-120338001I0J249999D01*
G01*
X169342000Y-119437999D01*
G75*
G02*
X169591999Y-119188000I249999J0D01*
G01*
X170242001Y-119188000D01*
G75*
G02*
X170492000Y-119437999I0J-249999D01*
G01*
G37*
G36*
G01*
X172542000Y-119437999D02*
X172542000Y-120338001D01*
G75*
G02*
X172292001Y-120588000I-249999J0D01*
G01*
X171641999Y-120588000D01*
G75*
G02*
X171392000Y-120338001I0J249999D01*
G01*
X171392000Y-119437999D01*
G75*
G02*
X171641999Y-119188000I249999J0D01*
G01*
X172292001Y-119188000D01*
G75*
G02*
X172542000Y-119437999I0J-249999D01*
G01*
G37*
G36*
G01*
X171401000Y-118052001D02*
X171401000Y-117151999D01*
G75*
G02*
X171650999Y-116902000I249999J0D01*
G01*
X172301001Y-116902000D01*
G75*
G02*
X172551000Y-117151999I0J-249999D01*
G01*
X172551000Y-118052001D01*
G75*
G02*
X172301001Y-118302000I-249999J0D01*
G01*
X171650999Y-118302000D01*
G75*
G02*
X171401000Y-118052001I0J249999D01*
G01*
G37*
G36*
G01*
X169351000Y-118052001D02*
X169351000Y-117151999D01*
G75*
G02*
X169600999Y-116902000I249999J0D01*
G01*
X170251001Y-116902000D01*
G75*
G02*
X170501000Y-117151999I0J-249999D01*
G01*
X170501000Y-118052001D01*
G75*
G02*
X170251001Y-118302000I-249999J0D01*
G01*
X169600999Y-118302000D01*
G75*
G02*
X169351000Y-118052001I0J249999D01*
G01*
G37*
G36*
G01*
X166058001Y-101667000D02*
X165157999Y-101667000D01*
G75*
G02*
X164908000Y-101417001I0J249999D01*
G01*
X164908000Y-100766999D01*
G75*
G02*
X165157999Y-100517000I249999J0D01*
G01*
X166058001Y-100517000D01*
G75*
G02*
X166308000Y-100766999I0J-249999D01*
G01*
X166308000Y-101417001D01*
G75*
G02*
X166058001Y-101667000I-249999J0D01*
G01*
G37*
G36*
G01*
X166058001Y-103717000D02*
X165157999Y-103717000D01*
G75*
G02*
X164908000Y-103467001I0J249999D01*
G01*
X164908000Y-102816999D01*
G75*
G02*
X165157999Y-102567000I249999J0D01*
G01*
X166058001Y-102567000D01*
G75*
G02*
X166308000Y-102816999I0J-249999D01*
G01*
X166308000Y-103467001D01*
G75*
G02*
X166058001Y-103717000I-249999J0D01*
G01*
G37*
G36*
G01*
X173920999Y-102567000D02*
X174821001Y-102567000D01*
G75*
G02*
X175071000Y-102816999I0J-249999D01*
G01*
X175071000Y-103467001D01*
G75*
G02*
X174821001Y-103717000I-249999J0D01*
G01*
X173920999Y-103717000D01*
G75*
G02*
X173671000Y-103467001I0J249999D01*
G01*
X173671000Y-102816999D01*
G75*
G02*
X173920999Y-102567000I249999J0D01*
G01*
G37*
G36*
G01*
X173920999Y-100517000D02*
X174821001Y-100517000D01*
G75*
G02*
X175071000Y-100766999I0J-249999D01*
G01*
X175071000Y-101417001D01*
G75*
G02*
X174821001Y-101667000I-249999J0D01*
G01*
X173920999Y-101667000D01*
G75*
G02*
X173671000Y-101417001I0J249999D01*
G01*
X173671000Y-100766999D01*
G75*
G02*
X173920999Y-100517000I249999J0D01*
G01*
G37*
G36*
G01*
X138245001Y-95553000D02*
X137344999Y-95553000D01*
G75*
G02*
X137095000Y-95303001I0J249999D01*
G01*
X137095000Y-94652999D01*
G75*
G02*
X137344999Y-94403000I249999J0D01*
G01*
X138245001Y-94403000D01*
G75*
G02*
X138495000Y-94652999I0J-249999D01*
G01*
X138495000Y-95303001D01*
G75*
G02*
X138245001Y-95553000I-249999J0D01*
G01*
G37*
G36*
G01*
X138245001Y-97603000D02*
X137344999Y-97603000D01*
G75*
G02*
X137095000Y-97353001I0J249999D01*
G01*
X137095000Y-96702999D01*
G75*
G02*
X137344999Y-96453000I249999J0D01*
G01*
X138245001Y-96453000D01*
G75*
G02*
X138495000Y-96702999I0J-249999D01*
G01*
X138495000Y-97353001D01*
G75*
G02*
X138245001Y-97603000I-249999J0D01*
G01*
G37*
G36*
G01*
X129482001Y-95553000D02*
X128581999Y-95553000D01*
G75*
G02*
X128332000Y-95303001I0J249999D01*
G01*
X128332000Y-94652999D01*
G75*
G02*
X128581999Y-94403000I249999J0D01*
G01*
X129482001Y-94403000D01*
G75*
G02*
X129732000Y-94652999I0J-249999D01*
G01*
X129732000Y-95303001D01*
G75*
G02*
X129482001Y-95553000I-249999J0D01*
G01*
G37*
G36*
G01*
X129482001Y-97603000D02*
X128581999Y-97603000D01*
G75*
G02*
X128332000Y-97353001I0J249999D01*
G01*
X128332000Y-96702999D01*
G75*
G02*
X128581999Y-96453000I249999J0D01*
G01*
X129482001Y-96453000D01*
G75*
G02*
X129732000Y-96702999I0J-249999D01*
G01*
X129732000Y-97353001D01*
G75*
G02*
X129482001Y-97603000I-249999J0D01*
G01*
G37*
G36*
G01*
X135324001Y-95553000D02*
X134423999Y-95553000D01*
G75*
G02*
X134174000Y-95303001I0J249999D01*
G01*
X134174000Y-94652999D01*
G75*
G02*
X134423999Y-94403000I249999J0D01*
G01*
X135324001Y-94403000D01*
G75*
G02*
X135574000Y-94652999I0J-249999D01*
G01*
X135574000Y-95303001D01*
G75*
G02*
X135324001Y-95553000I-249999J0D01*
G01*
G37*
G36*
G01*
X135324001Y-97603000D02*
X134423999Y-97603000D01*
G75*
G02*
X134174000Y-97353001I0J249999D01*
G01*
X134174000Y-96702999D01*
G75*
G02*
X134423999Y-96453000I249999J0D01*
G01*
X135324001Y-96453000D01*
G75*
G02*
X135574000Y-96702999I0J-249999D01*
G01*
X135574000Y-97353001D01*
G75*
G02*
X135324001Y-97603000I-249999J0D01*
G01*
G37*
G36*
G01*
X170872999Y-90484000D02*
X171773001Y-90484000D01*
G75*
G02*
X172023000Y-90733999I0J-249999D01*
G01*
X172023000Y-91384001D01*
G75*
G02*
X171773001Y-91634000I-249999J0D01*
G01*
X170872999Y-91634000D01*
G75*
G02*
X170623000Y-91384001I0J249999D01*
G01*
X170623000Y-90733999D01*
G75*
G02*
X170872999Y-90484000I249999J0D01*
G01*
G37*
G36*
G01*
X170872999Y-88434000D02*
X171773001Y-88434000D01*
G75*
G02*
X172023000Y-88683999I0J-249999D01*
G01*
X172023000Y-89334001D01*
G75*
G02*
X171773001Y-89584000I-249999J0D01*
G01*
X170872999Y-89584000D01*
G75*
G02*
X170623000Y-89334001I0J249999D01*
G01*
X170623000Y-88683999D01*
G75*
G02*
X170872999Y-88434000I249999J0D01*
G01*
G37*
G36*
G01*
X168852001Y-89584000D02*
X167951999Y-89584000D01*
G75*
G02*
X167702000Y-89334001I0J249999D01*
G01*
X167702000Y-88683999D01*
G75*
G02*
X167951999Y-88434000I249999J0D01*
G01*
X168852001Y-88434000D01*
G75*
G02*
X169102000Y-88683999I0J-249999D01*
G01*
X169102000Y-89334001D01*
G75*
G02*
X168852001Y-89584000I-249999J0D01*
G01*
G37*
G36*
G01*
X168852001Y-91634000D02*
X167951999Y-91634000D01*
G75*
G02*
X167702000Y-91384001I0J249999D01*
G01*
X167702000Y-90733999D01*
G75*
G02*
X167951999Y-90484000I249999J0D01*
G01*
X168852001Y-90484000D01*
G75*
G02*
X169102000Y-90733999I0J-249999D01*
G01*
X169102000Y-91384001D01*
G75*
G02*
X168852001Y-91634000I-249999J0D01*
G01*
G37*
G36*
G01*
X162248001Y-111682000D02*
X161347999Y-111682000D01*
G75*
G02*
X161098000Y-111432001I0J249999D01*
G01*
X161098000Y-110781999D01*
G75*
G02*
X161347999Y-110532000I249999J0D01*
G01*
X162248001Y-110532000D01*
G75*
G02*
X162498000Y-110781999I0J-249999D01*
G01*
X162498000Y-111432001D01*
G75*
G02*
X162248001Y-111682000I-249999J0D01*
G01*
G37*
G36*
G01*
X162248001Y-113732000D02*
X161347999Y-113732000D01*
G75*
G02*
X161098000Y-113482001I0J249999D01*
G01*
X161098000Y-112831999D01*
G75*
G02*
X161347999Y-112582000I249999J0D01*
G01*
X162248001Y-112582000D01*
G75*
G02*
X162498000Y-112831999I0J-249999D01*
G01*
X162498000Y-113482001D01*
G75*
G02*
X162248001Y-113732000I-249999J0D01*
G01*
G37*
G36*
G01*
X152968000Y-104590001D02*
X152968000Y-103689999D01*
G75*
G02*
X153217999Y-103440000I249999J0D01*
G01*
X153868001Y-103440000D01*
G75*
G02*
X154118000Y-103689999I0J-249999D01*
G01*
X154118000Y-104590001D01*
G75*
G02*
X153868001Y-104840000I-249999J0D01*
G01*
X153217999Y-104840000D01*
G75*
G02*
X152968000Y-104590001I0J249999D01*
G01*
G37*
G36*
G01*
X150918000Y-104590001D02*
X150918000Y-103689999D01*
G75*
G02*
X151167999Y-103440000I249999J0D01*
G01*
X151818001Y-103440000D01*
G75*
G02*
X152068000Y-103689999I0J-249999D01*
G01*
X152068000Y-104590001D01*
G75*
G02*
X151818001Y-104840000I-249999J0D01*
G01*
X151167999Y-104840000D01*
G75*
G02*
X150918000Y-104590001I0J249999D01*
G01*
G37*
G36*
G01*
X165169001Y-111682000D02*
X164268999Y-111682000D01*
G75*
G02*
X164019000Y-111432001I0J249999D01*
G01*
X164019000Y-110781999D01*
G75*
G02*
X164268999Y-110532000I249999J0D01*
G01*
X165169001Y-110532000D01*
G75*
G02*
X165419000Y-110781999I0J-249999D01*
G01*
X165419000Y-111432001D01*
G75*
G02*
X165169001Y-111682000I-249999J0D01*
G01*
G37*
G36*
G01*
X165169001Y-113732000D02*
X164268999Y-113732000D01*
G75*
G02*
X164019000Y-113482001I0J249999D01*
G01*
X164019000Y-112831999D01*
G75*
G02*
X164268999Y-112582000I249999J0D01*
G01*
X165169001Y-112582000D01*
G75*
G02*
X165419000Y-112831999I0J-249999D01*
G01*
X165419000Y-113482001D01*
G75*
G02*
X165169001Y-113732000I-249999J0D01*
G01*
G37*
G36*
G01*
X157540000Y-104590001D02*
X157540000Y-103689999D01*
G75*
G02*
X157789999Y-103440000I249999J0D01*
G01*
X158440001Y-103440000D01*
G75*
G02*
X158690000Y-103689999I0J-249999D01*
G01*
X158690000Y-104590001D01*
G75*
G02*
X158440001Y-104840000I-249999J0D01*
G01*
X157789999Y-104840000D01*
G75*
G02*
X157540000Y-104590001I0J249999D01*
G01*
G37*
G36*
G01*
X155490000Y-104590001D02*
X155490000Y-103689999D01*
G75*
G02*
X155739999Y-103440000I249999J0D01*
G01*
X156390001Y-103440000D01*
G75*
G02*
X156640000Y-103689999I0J-249999D01*
G01*
X156640000Y-104590001D01*
G75*
G02*
X156390001Y-104840000I-249999J0D01*
G01*
X155739999Y-104840000D01*
G75*
G02*
X155490000Y-104590001I0J249999D01*
G01*
G37*
G36*
G01*
X168090001Y-111682000D02*
X167189999Y-111682000D01*
G75*
G02*
X166940000Y-111432001I0J249999D01*
G01*
X166940000Y-110781999D01*
G75*
G02*
X167189999Y-110532000I249999J0D01*
G01*
X168090001Y-110532000D01*
G75*
G02*
X168340000Y-110781999I0J-249999D01*
G01*
X168340000Y-111432001D01*
G75*
G02*
X168090001Y-111682000I-249999J0D01*
G01*
G37*
G36*
G01*
X168090001Y-113732000D02*
X167189999Y-113732000D01*
G75*
G02*
X166940000Y-113482001I0J249999D01*
G01*
X166940000Y-112831999D01*
G75*
G02*
X167189999Y-112582000I249999J0D01*
G01*
X168090001Y-112582000D01*
G75*
G02*
X168340000Y-112831999I0J-249999D01*
G01*
X168340000Y-113482001D01*
G75*
G02*
X168090001Y-113732000I-249999J0D01*
G01*
G37*
G36*
G01*
X159327001Y-111682000D02*
X158426999Y-111682000D01*
G75*
G02*
X158177000Y-111432001I0J249999D01*
G01*
X158177000Y-110781999D01*
G75*
G02*
X158426999Y-110532000I249999J0D01*
G01*
X159327001Y-110532000D01*
G75*
G02*
X159577000Y-110781999I0J-249999D01*
G01*
X159577000Y-111432001D01*
G75*
G02*
X159327001Y-111682000I-249999J0D01*
G01*
G37*
G36*
G01*
X159327001Y-113732000D02*
X158426999Y-113732000D01*
G75*
G02*
X158177000Y-113482001I0J249999D01*
G01*
X158177000Y-112831999D01*
G75*
G02*
X158426999Y-112582000I249999J0D01*
G01*
X159327001Y-112582000D01*
G75*
G02*
X159577000Y-112831999I0J-249999D01*
G01*
X159577000Y-113482001D01*
G75*
G02*
X159327001Y-113732000I-249999J0D01*
G01*
G37*
G36*
G01*
X162257000Y-104590001D02*
X162257000Y-103689999D01*
G75*
G02*
X162506999Y-103440000I249999J0D01*
G01*
X163157001Y-103440000D01*
G75*
G02*
X163407000Y-103689999I0J-249999D01*
G01*
X163407000Y-104590001D01*
G75*
G02*
X163157001Y-104840000I-249999J0D01*
G01*
X162506999Y-104840000D01*
G75*
G02*
X162257000Y-104590001I0J249999D01*
G01*
G37*
G36*
G01*
X160207000Y-104590001D02*
X160207000Y-103689999D01*
G75*
G02*
X160456999Y-103440000I249999J0D01*
G01*
X161107001Y-103440000D01*
G75*
G02*
X161357000Y-103689999I0J-249999D01*
G01*
X161357000Y-104590001D01*
G75*
G02*
X161107001Y-104840000I-249999J0D01*
G01*
X160456999Y-104840000D01*
G75*
G02*
X160207000Y-104590001I0J249999D01*
G01*
G37*
G36*
G01*
X156406001Y-111700000D02*
X155505999Y-111700000D01*
G75*
G02*
X155256000Y-111450001I0J249999D01*
G01*
X155256000Y-110799999D01*
G75*
G02*
X155505999Y-110550000I249999J0D01*
G01*
X156406001Y-110550000D01*
G75*
G02*
X156656000Y-110799999I0J-249999D01*
G01*
X156656000Y-111450001D01*
G75*
G02*
X156406001Y-111700000I-249999J0D01*
G01*
G37*
G36*
G01*
X156406001Y-113750000D02*
X155505999Y-113750000D01*
G75*
G02*
X155256000Y-113500001I0J249999D01*
G01*
X155256000Y-112849999D01*
G75*
G02*
X155505999Y-112600000I249999J0D01*
G01*
X156406001Y-112600000D01*
G75*
G02*
X156656000Y-112849999I0J-249999D01*
G01*
X156656000Y-113500001D01*
G75*
G02*
X156406001Y-113750000I-249999J0D01*
G01*
G37*
G36*
G01*
X162130000Y-101288001D02*
X162130000Y-100387999D01*
G75*
G02*
X162379999Y-100138000I249999J0D01*
G01*
X163030001Y-100138000D01*
G75*
G02*
X163280000Y-100387999I0J-249999D01*
G01*
X163280000Y-101288001D01*
G75*
G02*
X163030001Y-101538000I-249999J0D01*
G01*
X162379999Y-101538000D01*
G75*
G02*
X162130000Y-101288001I0J249999D01*
G01*
G37*
G36*
G01*
X160080000Y-101288001D02*
X160080000Y-100387999D01*
G75*
G02*
X160329999Y-100138000I249999J0D01*
G01*
X160980001Y-100138000D01*
G75*
G02*
X161230000Y-100387999I0J-249999D01*
G01*
X161230000Y-101288001D01*
G75*
G02*
X160980001Y-101538000I-249999J0D01*
G01*
X160329999Y-101538000D01*
G75*
G02*
X160080000Y-101288001I0J249999D01*
G01*
G37*
G36*
G01*
X153485001Y-111700000D02*
X152584999Y-111700000D01*
G75*
G02*
X152335000Y-111450001I0J249999D01*
G01*
X152335000Y-110799999D01*
G75*
G02*
X152584999Y-110550000I249999J0D01*
G01*
X153485001Y-110550000D01*
G75*
G02*
X153735000Y-110799999I0J-249999D01*
G01*
X153735000Y-111450001D01*
G75*
G02*
X153485001Y-111700000I-249999J0D01*
G01*
G37*
G36*
G01*
X153485001Y-113750000D02*
X152584999Y-113750000D01*
G75*
G02*
X152335000Y-113500001I0J249999D01*
G01*
X152335000Y-112849999D01*
G75*
G02*
X152584999Y-112600000I249999J0D01*
G01*
X153485001Y-112600000D01*
G75*
G02*
X153735000Y-112849999I0J-249999D01*
G01*
X153735000Y-113500001D01*
G75*
G02*
X153485001Y-113750000I-249999J0D01*
G01*
G37*
G36*
G01*
X147253000Y-90239001D02*
X147253000Y-89338999D01*
G75*
G02*
X147502999Y-89089000I249999J0D01*
G01*
X148153001Y-89089000D01*
G75*
G02*
X148403000Y-89338999I0J-249999D01*
G01*
X148403000Y-90239001D01*
G75*
G02*
X148153001Y-90489000I-249999J0D01*
G01*
X147502999Y-90489000D01*
G75*
G02*
X147253000Y-90239001I0J249999D01*
G01*
G37*
G36*
G01*
X145203000Y-90239001D02*
X145203000Y-89338999D01*
G75*
G02*
X145452999Y-89089000I249999J0D01*
G01*
X146103001Y-89089000D01*
G75*
G02*
X146353000Y-89338999I0J-249999D01*
G01*
X146353000Y-90239001D01*
G75*
G02*
X146103001Y-90489000I-249999J0D01*
G01*
X145452999Y-90489000D01*
G75*
G02*
X145203000Y-90239001I0J249999D01*
G01*
G37*
G36*
G01*
X165284999Y-80723000D02*
X166185001Y-80723000D01*
G75*
G02*
X166435000Y-80972999I0J-249999D01*
G01*
X166435000Y-81623001D01*
G75*
G02*
X166185001Y-81873000I-249999J0D01*
G01*
X165284999Y-81873000D01*
G75*
G02*
X165035000Y-81623001I0J249999D01*
G01*
X165035000Y-80972999D01*
G75*
G02*
X165284999Y-80723000I249999J0D01*
G01*
G37*
G36*
G01*
X165284999Y-78673000D02*
X166185001Y-78673000D01*
G75*
G02*
X166435000Y-78922999I0J-249999D01*
G01*
X166435000Y-79573001D01*
G75*
G02*
X166185001Y-79823000I-249999J0D01*
G01*
X165284999Y-79823000D01*
G75*
G02*
X165035000Y-79573001I0J249999D01*
G01*
X165035000Y-78922999D01*
G75*
G02*
X165284999Y-78673000I249999J0D01*
G01*
G37*
G36*
G01*
X162130000Y-88334001D02*
X162130000Y-87433999D01*
G75*
G02*
X162379999Y-87184000I249999J0D01*
G01*
X163030001Y-87184000D01*
G75*
G02*
X163280000Y-87433999I0J-249999D01*
G01*
X163280000Y-88334001D01*
G75*
G02*
X163030001Y-88584000I-249999J0D01*
G01*
X162379999Y-88584000D01*
G75*
G02*
X162130000Y-88334001I0J249999D01*
G01*
G37*
G36*
G01*
X160080000Y-88334001D02*
X160080000Y-87433999D01*
G75*
G02*
X160329999Y-87184000I249999J0D01*
G01*
X160980001Y-87184000D01*
G75*
G02*
X161230000Y-87433999I0J-249999D01*
G01*
X161230000Y-88334001D01*
G75*
G02*
X160980001Y-88584000I-249999J0D01*
G01*
X160329999Y-88584000D01*
G75*
G02*
X160080000Y-88334001I0J249999D01*
G01*
G37*
G36*
G01*
X141400000Y-87179999D02*
X141400000Y-88080001D01*
G75*
G02*
X141150001Y-88330000I-249999J0D01*
G01*
X140499999Y-88330000D01*
G75*
G02*
X140250000Y-88080001I0J249999D01*
G01*
X140250000Y-87179999D01*
G75*
G02*
X140499999Y-86930000I249999J0D01*
G01*
X141150001Y-86930000D01*
G75*
G02*
X141400000Y-87179999I0J-249999D01*
G01*
G37*
G36*
G01*
X143450000Y-87179999D02*
X143450000Y-88080001D01*
G75*
G02*
X143200001Y-88330000I-249999J0D01*
G01*
X142549999Y-88330000D01*
G75*
G02*
X142300000Y-88080001I0J249999D01*
G01*
X142300000Y-87179999D01*
G75*
G02*
X142549999Y-86930000I249999J0D01*
G01*
X143200001Y-86930000D01*
G75*
G02*
X143450000Y-87179999I0J-249999D01*
G01*
G37*
G36*
G01*
X162363999Y-80705000D02*
X163264001Y-80705000D01*
G75*
G02*
X163514000Y-80954999I0J-249999D01*
G01*
X163514000Y-81605001D01*
G75*
G02*
X163264001Y-81855000I-249999J0D01*
G01*
X162363999Y-81855000D01*
G75*
G02*
X162114000Y-81605001I0J249999D01*
G01*
X162114000Y-80954999D01*
G75*
G02*
X162363999Y-80705000I249999J0D01*
G01*
G37*
G36*
G01*
X162363999Y-78655000D02*
X163264001Y-78655000D01*
G75*
G02*
X163514000Y-78904999I0J-249999D01*
G01*
X163514000Y-79555001D01*
G75*
G02*
X163264001Y-79805000I-249999J0D01*
G01*
X162363999Y-79805000D01*
G75*
G02*
X162114000Y-79555001I0J249999D01*
G01*
X162114000Y-78904999D01*
G75*
G02*
X162363999Y-78655000I249999J0D01*
G01*
G37*
G36*
G01*
X141400000Y-89338999D02*
X141400000Y-90239001D01*
G75*
G02*
X141150001Y-90489000I-249999J0D01*
G01*
X140499999Y-90489000D01*
G75*
G02*
X140250000Y-90239001I0J249999D01*
G01*
X140250000Y-89338999D01*
G75*
G02*
X140499999Y-89089000I249999J0D01*
G01*
X141150001Y-89089000D01*
G75*
G02*
X141400000Y-89338999I0J-249999D01*
G01*
G37*
G36*
G01*
X143450000Y-89338999D02*
X143450000Y-90239001D01*
G75*
G02*
X143200001Y-90489000I-249999J0D01*
G01*
X142549999Y-90489000D01*
G75*
G02*
X142300000Y-90239001I0J249999D01*
G01*
X142300000Y-89338999D01*
G75*
G02*
X142549999Y-89089000I249999J0D01*
G01*
X143200001Y-89089000D01*
G75*
G02*
X143450000Y-89338999I0J-249999D01*
G01*
G37*
G36*
G01*
X152986000Y-88334001D02*
X152986000Y-87433999D01*
G75*
G02*
X153235999Y-87184000I249999J0D01*
G01*
X153886001Y-87184000D01*
G75*
G02*
X154136000Y-87433999I0J-249999D01*
G01*
X154136000Y-88334001D01*
G75*
G02*
X153886001Y-88584000I-249999J0D01*
G01*
X153235999Y-88584000D01*
G75*
G02*
X152986000Y-88334001I0J249999D01*
G01*
G37*
G36*
G01*
X150936000Y-88334001D02*
X150936000Y-87433999D01*
G75*
G02*
X151185999Y-87184000I249999J0D01*
G01*
X151836001Y-87184000D01*
G75*
G02*
X152086000Y-87433999I0J-249999D01*
G01*
X152086000Y-88334001D01*
G75*
G02*
X151836001Y-88584000I-249999J0D01*
G01*
X151185999Y-88584000D01*
G75*
G02*
X150936000Y-88334001I0J249999D01*
G01*
G37*
G36*
G01*
X159442999Y-80723000D02*
X160343001Y-80723000D01*
G75*
G02*
X160593000Y-80972999I0J-249999D01*
G01*
X160593000Y-81623001D01*
G75*
G02*
X160343001Y-81873000I-249999J0D01*
G01*
X159442999Y-81873000D01*
G75*
G02*
X159193000Y-81623001I0J249999D01*
G01*
X159193000Y-80972999D01*
G75*
G02*
X159442999Y-80723000I249999J0D01*
G01*
G37*
G36*
G01*
X159442999Y-78673000D02*
X160343001Y-78673000D01*
G75*
G02*
X160593000Y-78922999I0J-249999D01*
G01*
X160593000Y-79573001D01*
G75*
G02*
X160343001Y-79823000I-249999J0D01*
G01*
X159442999Y-79823000D01*
G75*
G02*
X159193000Y-79573001I0J249999D01*
G01*
X159193000Y-78922999D01*
G75*
G02*
X159442999Y-78673000I249999J0D01*
G01*
G37*
G36*
G01*
X156521999Y-80705000D02*
X157422001Y-80705000D01*
G75*
G02*
X157672000Y-80954999I0J-249999D01*
G01*
X157672000Y-81605001D01*
G75*
G02*
X157422001Y-81855000I-249999J0D01*
G01*
X156521999Y-81855000D01*
G75*
G02*
X156272000Y-81605001I0J249999D01*
G01*
X156272000Y-80954999D01*
G75*
G02*
X156521999Y-80705000I249999J0D01*
G01*
G37*
G36*
G01*
X156521999Y-78655000D02*
X157422001Y-78655000D01*
G75*
G02*
X157672000Y-78904999I0J-249999D01*
G01*
X157672000Y-79555001D01*
G75*
G02*
X157422001Y-79805000I-249999J0D01*
G01*
X156521999Y-79805000D01*
G75*
G02*
X156272000Y-79555001I0J249999D01*
G01*
X156272000Y-78904999D01*
G75*
G02*
X156521999Y-78655000I249999J0D01*
G01*
G37*
G36*
G01*
X157558000Y-88334001D02*
X157558000Y-87433999D01*
G75*
G02*
X157807999Y-87184000I249999J0D01*
G01*
X158458001Y-87184000D01*
G75*
G02*
X158708000Y-87433999I0J-249999D01*
G01*
X158708000Y-88334001D01*
G75*
G02*
X158458001Y-88584000I-249999J0D01*
G01*
X157807999Y-88584000D01*
G75*
G02*
X157558000Y-88334001I0J249999D01*
G01*
G37*
G36*
G01*
X155508000Y-88334001D02*
X155508000Y-87433999D01*
G75*
G02*
X155757999Y-87184000I249999J0D01*
G01*
X156408001Y-87184000D01*
G75*
G02*
X156658000Y-87433999I0J-249999D01*
G01*
X156658000Y-88334001D01*
G75*
G02*
X156408001Y-88584000I-249999J0D01*
G01*
X155757999Y-88584000D01*
G75*
G02*
X155508000Y-88334001I0J249999D01*
G01*
G37*
G36*
G01*
X153600999Y-80705000D02*
X154501001Y-80705000D01*
G75*
G02*
X154751000Y-80954999I0J-249999D01*
G01*
X154751000Y-81605001D01*
G75*
G02*
X154501001Y-81855000I-249999J0D01*
G01*
X153600999Y-81855000D01*
G75*
G02*
X153351000Y-81605001I0J249999D01*
G01*
X153351000Y-80954999D01*
G75*
G02*
X153600999Y-80705000I249999J0D01*
G01*
G37*
G36*
G01*
X153600999Y-78655000D02*
X154501001Y-78655000D01*
G75*
G02*
X154751000Y-78904999I0J-249999D01*
G01*
X154751000Y-79555001D01*
G75*
G02*
X154501001Y-79805000I-249999J0D01*
G01*
X153600999Y-79805000D01*
G75*
G02*
X153351000Y-79555001I0J249999D01*
G01*
X153351000Y-78904999D01*
G75*
G02*
X153600999Y-78655000I249999J0D01*
G01*
G37*
G36*
G01*
X143831000Y-77781999D02*
X143831000Y-78682001D01*
G75*
G02*
X143581001Y-78932000I-249999J0D01*
G01*
X142930999Y-78932000D01*
G75*
G02*
X142681000Y-78682001I0J249999D01*
G01*
X142681000Y-77781999D01*
G75*
G02*
X142930999Y-77532000I249999J0D01*
G01*
X143581001Y-77532000D01*
G75*
G02*
X143831000Y-77781999I0J-249999D01*
G01*
G37*
G36*
G01*
X145881000Y-77781999D02*
X145881000Y-78682001D01*
G75*
G02*
X145631001Y-78932000I-249999J0D01*
G01*
X144980999Y-78932000D01*
G75*
G02*
X144731000Y-78682001I0J249999D01*
G01*
X144731000Y-77781999D01*
G75*
G02*
X144980999Y-77532000I249999J0D01*
G01*
X145631001Y-77532000D01*
G75*
G02*
X145881000Y-77781999I0J-249999D01*
G01*
G37*
G36*
G01*
X144731000Y-80714001D02*
X144731000Y-79813999D01*
G75*
G02*
X144980999Y-79564000I249999J0D01*
G01*
X145631001Y-79564000D01*
G75*
G02*
X145881000Y-79813999I0J-249999D01*
G01*
X145881000Y-80714001D01*
G75*
G02*
X145631001Y-80964000I-249999J0D01*
G01*
X144980999Y-80964000D01*
G75*
G02*
X144731000Y-80714001I0J249999D01*
G01*
G37*
G36*
G01*
X142681000Y-80714001D02*
X142681000Y-79813999D01*
G75*
G02*
X142930999Y-79564000I249999J0D01*
G01*
X143581001Y-79564000D01*
G75*
G02*
X143831000Y-79813999I0J-249999D01*
G01*
X143831000Y-80714001D01*
G75*
G02*
X143581001Y-80964000I-249999J0D01*
G01*
X142930999Y-80964000D01*
G75*
G02*
X142681000Y-80714001I0J249999D01*
G01*
G37*
G36*
G01*
X150679999Y-80723000D02*
X151580001Y-80723000D01*
G75*
G02*
X151830000Y-80972999I0J-249999D01*
G01*
X151830000Y-81623001D01*
G75*
G02*
X151580001Y-81873000I-249999J0D01*
G01*
X150679999Y-81873000D01*
G75*
G02*
X150430000Y-81623001I0J249999D01*
G01*
X150430000Y-80972999D01*
G75*
G02*
X150679999Y-80723000I249999J0D01*
G01*
G37*
G36*
G01*
X150679999Y-78673000D02*
X151580001Y-78673000D01*
G75*
G02*
X151830000Y-78922999I0J-249999D01*
G01*
X151830000Y-79573001D01*
G75*
G02*
X151580001Y-79823000I-249999J0D01*
G01*
X150679999Y-79823000D01*
G75*
G02*
X150430000Y-79573001I0J249999D01*
G01*
X150430000Y-78922999D01*
G75*
G02*
X150679999Y-78673000I249999J0D01*
G01*
G37*
G36*
G01*
X140395000Y-81730001D02*
X140395000Y-80829999D01*
G75*
G02*
X140644999Y-80580000I249999J0D01*
G01*
X141295001Y-80580000D01*
G75*
G02*
X141545000Y-80829999I0J-249999D01*
G01*
X141545000Y-81730001D01*
G75*
G02*
X141295001Y-81980000I-249999J0D01*
G01*
X140644999Y-81980000D01*
G75*
G02*
X140395000Y-81730001I0J249999D01*
G01*
G37*
G36*
G01*
X138345000Y-81730001D02*
X138345000Y-80829999D01*
G75*
G02*
X138594999Y-80580000I249999J0D01*
G01*
X139245001Y-80580000D01*
G75*
G02*
X139495000Y-80829999I0J-249999D01*
G01*
X139495000Y-81730001D01*
G75*
G02*
X139245001Y-81980000I-249999J0D01*
G01*
X138594999Y-81980000D01*
G75*
G02*
X138345000Y-81730001I0J249999D01*
G01*
G37*
G36*
G01*
X137344999Y-108663000D02*
X138245001Y-108663000D01*
G75*
G02*
X138495000Y-108912999I0J-249999D01*
G01*
X138495000Y-109563001D01*
G75*
G02*
X138245001Y-109813000I-249999J0D01*
G01*
X137344999Y-109813000D01*
G75*
G02*
X137095000Y-109563001I0J249999D01*
G01*
X137095000Y-108912999D01*
G75*
G02*
X137344999Y-108663000I249999J0D01*
G01*
G37*
G36*
G01*
X137344999Y-106613000D02*
X138245001Y-106613000D01*
G75*
G02*
X138495000Y-106862999I0J-249999D01*
G01*
X138495000Y-107513001D01*
G75*
G02*
X138245001Y-107763000I-249999J0D01*
G01*
X137344999Y-107763000D01*
G75*
G02*
X137095000Y-107513001I0J249999D01*
G01*
X137095000Y-106862999D01*
G75*
G02*
X137344999Y-106613000I249999J0D01*
G01*
G37*
G36*
G01*
X134923000Y-79813999D02*
X134923000Y-80714001D01*
G75*
G02*
X134673001Y-80964000I-249999J0D01*
G01*
X134022999Y-80964000D01*
G75*
G02*
X133773000Y-80714001I0J249999D01*
G01*
X133773000Y-79813999D01*
G75*
G02*
X134022999Y-79564000I249999J0D01*
G01*
X134673001Y-79564000D01*
G75*
G02*
X134923000Y-79813999I0J-249999D01*
G01*
G37*
G36*
G01*
X136973000Y-79813999D02*
X136973000Y-80714001D01*
G75*
G02*
X136723001Y-80964000I-249999J0D01*
G01*
X136072999Y-80964000D01*
G75*
G02*
X135823000Y-80714001I0J249999D01*
G01*
X135823000Y-79813999D01*
G75*
G02*
X136072999Y-79564000I249999J0D01*
G01*
X136723001Y-79564000D01*
G75*
G02*
X136973000Y-79813999I0J-249999D01*
G01*
G37*
G36*
G01*
X134923000Y-77781999D02*
X134923000Y-78682001D01*
G75*
G02*
X134673001Y-78932000I-249999J0D01*
G01*
X134022999Y-78932000D01*
G75*
G02*
X133773000Y-78682001I0J249999D01*
G01*
X133773000Y-77781999D01*
G75*
G02*
X134022999Y-77532000I249999J0D01*
G01*
X134673001Y-77532000D01*
G75*
G02*
X134923000Y-77781999I0J-249999D01*
G01*
G37*
G36*
G01*
X136973000Y-77781999D02*
X136973000Y-78682001D01*
G75*
G02*
X136723001Y-78932000I-249999J0D01*
G01*
X136072999Y-78932000D01*
G75*
G02*
X135823000Y-78682001I0J249999D01*
G01*
X135823000Y-77781999D01*
G75*
G02*
X136072999Y-77532000I249999J0D01*
G01*
X136723001Y-77532000D01*
G75*
G02*
X136973000Y-77781999I0J-249999D01*
G01*
G37*
G36*
G01*
X135324001Y-107763000D02*
X134423999Y-107763000D01*
G75*
G02*
X134174000Y-107513001I0J249999D01*
G01*
X134174000Y-106862999D01*
G75*
G02*
X134423999Y-106613000I249999J0D01*
G01*
X135324001Y-106613000D01*
G75*
G02*
X135574000Y-106862999I0J-249999D01*
G01*
X135574000Y-107513001D01*
G75*
G02*
X135324001Y-107763000I-249999J0D01*
G01*
G37*
G36*
G01*
X135324001Y-109813000D02*
X134423999Y-109813000D01*
G75*
G02*
X134174000Y-109563001I0J249999D01*
G01*
X134174000Y-108912999D01*
G75*
G02*
X134423999Y-108663000I249999J0D01*
G01*
X135324001Y-108663000D01*
G75*
G02*
X135574000Y-108912999I0J-249999D01*
G01*
X135574000Y-109563001D01*
G75*
G02*
X135324001Y-109813000I-249999J0D01*
G01*
G37*
D11*
X162941000Y-124079000D03*
X159941000Y-125029000D03*
X159941000Y-123129000D03*
X168608000Y-124079000D03*
X165608000Y-125029000D03*
X165608000Y-123129000D03*
X174196000Y-124079000D03*
X171196000Y-125029000D03*
X171196000Y-123129000D03*
D10*
X167894000Y-118430000D03*
X167894000Y-119380000D03*
X167894000Y-120330000D03*
X164994000Y-120330000D03*
X164994000Y-119380000D03*
X164994000Y-118430000D03*
X165079000Y-107635000D03*
X165079000Y-108585000D03*
X165079000Y-109535000D03*
X162179000Y-109535000D03*
X162179000Y-108585000D03*
X162179000Y-107635000D03*
X156210000Y-107635000D03*
X156210000Y-108585000D03*
X156210000Y-109535000D03*
X153310000Y-109535000D03*
X153310000Y-108585000D03*
X153310000Y-107635000D03*
X147807000Y-86111000D03*
X147807000Y-87061000D03*
X147807000Y-88011000D03*
X144907000Y-88011000D03*
X144907000Y-87061000D03*
X144907000Y-86111000D03*
X156845000Y-82809000D03*
X156845000Y-83759000D03*
X156845000Y-84709000D03*
X153945000Y-84709000D03*
X153945000Y-83759000D03*
X153945000Y-82809000D03*
X141330000Y-77536000D03*
X141330000Y-78486000D03*
X141330000Y-79436000D03*
X138430000Y-79436000D03*
X138430000Y-78486000D03*
X138430000Y-77536000D03*
D12*
X151384000Y-120142000D03*
X151384000Y-116842000D03*
G36*
G01*
X139259000Y-99117999D02*
X139259000Y-100018001D01*
G75*
G02*
X139009001Y-100268000I-249999J0D01*
G01*
X138358999Y-100268000D01*
G75*
G02*
X138109000Y-100018001I0J249999D01*
G01*
X138109000Y-99117999D01*
G75*
G02*
X138358999Y-98868000I249999J0D01*
G01*
X139009001Y-98868000D01*
G75*
G02*
X139259000Y-99117999I0J-249999D01*
G01*
G37*
G36*
G01*
X141309000Y-99117999D02*
X141309000Y-100018001D01*
G75*
G02*
X141059001Y-100268000I-249999J0D01*
G01*
X140408999Y-100268000D01*
G75*
G02*
X140159000Y-100018001I0J249999D01*
G01*
X140159000Y-99117999D01*
G75*
G02*
X140408999Y-98868000I249999J0D01*
G01*
X141059001Y-98868000D01*
G75*
G02*
X141309000Y-99117999I0J-249999D01*
G01*
G37*
G36*
G01*
X139887000Y-105098001D02*
X139887000Y-104197999D01*
G75*
G02*
X140136999Y-103948000I249999J0D01*
G01*
X140787001Y-103948000D01*
G75*
G02*
X141037000Y-104197999I0J-249999D01*
G01*
X141037000Y-105098001D01*
G75*
G02*
X140787001Y-105348000I-249999J0D01*
G01*
X140136999Y-105348000D01*
G75*
G02*
X139887000Y-105098001I0J249999D01*
G01*
G37*
G36*
G01*
X137837000Y-105098001D02*
X137837000Y-104197999D01*
G75*
G02*
X138086999Y-103948000I249999J0D01*
G01*
X138737001Y-103948000D01*
G75*
G02*
X138987000Y-104197999I0J-249999D01*
G01*
X138987000Y-105098001D01*
G75*
G02*
X138737001Y-105348000I-249999J0D01*
G01*
X138086999Y-105348000D01*
G75*
G02*
X137837000Y-105098001I0J249999D01*
G01*
G37*
G36*
G01*
X165795000Y-93922001D02*
X165795000Y-93021999D01*
G75*
G02*
X166044999Y-92772000I249999J0D01*
G01*
X166695001Y-92772000D01*
G75*
G02*
X166945000Y-93021999I0J-249999D01*
G01*
X166945000Y-93922001D01*
G75*
G02*
X166695001Y-94172000I-249999J0D01*
G01*
X166044999Y-94172000D01*
G75*
G02*
X165795000Y-93922001I0J249999D01*
G01*
G37*
G36*
G01*
X163745000Y-93922001D02*
X163745000Y-93021999D01*
G75*
G02*
X163994999Y-92772000I249999J0D01*
G01*
X164645001Y-92772000D01*
G75*
G02*
X164895000Y-93021999I0J-249999D01*
G01*
X164895000Y-93922001D01*
G75*
G02*
X164645001Y-94172000I-249999J0D01*
G01*
X163994999Y-94172000D01*
G75*
G02*
X163745000Y-93922001I0J249999D01*
G01*
G37*
G36*
G01*
X175211000Y-98748001D02*
X175211000Y-97847999D01*
G75*
G02*
X175460999Y-97598000I249999J0D01*
G01*
X176111001Y-97598000D01*
G75*
G02*
X176361000Y-97847999I0J-249999D01*
G01*
X176361000Y-98748001D01*
G75*
G02*
X176111001Y-98998000I-249999J0D01*
G01*
X175460999Y-98998000D01*
G75*
G02*
X175211000Y-98748001I0J249999D01*
G01*
G37*
G36*
G01*
X173161000Y-98748001D02*
X173161000Y-97847999D01*
G75*
G02*
X173410999Y-97598000I249999J0D01*
G01*
X174061001Y-97598000D01*
G75*
G02*
X174311000Y-97847999I0J-249999D01*
G01*
X174311000Y-98748001D01*
G75*
G02*
X174061001Y-98998000I-249999J0D01*
G01*
X173410999Y-98998000D01*
G75*
G02*
X173161000Y-98748001I0J249999D01*
G01*
G37*
G36*
G01*
X178366000Y-108769999D02*
X178366000Y-109670001D01*
G75*
G02*
X178116001Y-109920000I-249999J0D01*
G01*
X177465999Y-109920000D01*
G75*
G02*
X177216000Y-109670001I0J249999D01*
G01*
X177216000Y-108769999D01*
G75*
G02*
X177465999Y-108520000I249999J0D01*
G01*
X178116001Y-108520000D01*
G75*
G02*
X178366000Y-108769999I0J-249999D01*
G01*
G37*
G36*
G01*
X180416000Y-108769999D02*
X180416000Y-109670001D01*
G75*
G02*
X180166001Y-109920000I-249999J0D01*
G01*
X179515999Y-109920000D01*
G75*
G02*
X179266000Y-109670001I0J249999D01*
G01*
X179266000Y-108769999D01*
G75*
G02*
X179515999Y-108520000I249999J0D01*
G01*
X180166001Y-108520000D01*
G75*
G02*
X180416000Y-108769999I0J-249999D01*
G01*
G37*
G36*
G01*
X174311000Y-108769999D02*
X174311000Y-109670001D01*
G75*
G02*
X174061001Y-109920000I-249999J0D01*
G01*
X173410999Y-109920000D01*
G75*
G02*
X173161000Y-109670001I0J249999D01*
G01*
X173161000Y-108769999D01*
G75*
G02*
X173410999Y-108520000I249999J0D01*
G01*
X174061001Y-108520000D01*
G75*
G02*
X174311000Y-108769999I0J-249999D01*
G01*
G37*
G36*
G01*
X176361000Y-108769999D02*
X176361000Y-109670001D01*
G75*
G02*
X176111001Y-109920000I-249999J0D01*
G01*
X175460999Y-109920000D01*
G75*
G02*
X175211000Y-109670001I0J249999D01*
G01*
X175211000Y-108769999D01*
G75*
G02*
X175460999Y-108520000I249999J0D01*
G01*
X176111001Y-108520000D01*
G75*
G02*
X176361000Y-108769999I0J-249999D01*
G01*
G37*
G36*
G01*
X141166001Y-95553000D02*
X140265999Y-95553000D01*
G75*
G02*
X140016000Y-95303001I0J249999D01*
G01*
X140016000Y-94652999D01*
G75*
G02*
X140265999Y-94403000I249999J0D01*
G01*
X141166001Y-94403000D01*
G75*
G02*
X141416000Y-94652999I0J-249999D01*
G01*
X141416000Y-95303001D01*
G75*
G02*
X141166001Y-95553000I-249999J0D01*
G01*
G37*
G36*
G01*
X141166001Y-97603000D02*
X140265999Y-97603000D01*
G75*
G02*
X140016000Y-97353001I0J249999D01*
G01*
X140016000Y-96702999D01*
G75*
G02*
X140265999Y-96453000I249999J0D01*
G01*
X141166001Y-96453000D01*
G75*
G02*
X141416000Y-96702999I0J-249999D01*
G01*
X141416000Y-97353001D01*
G75*
G02*
X141166001Y-97603000I-249999J0D01*
G01*
G37*
G36*
G01*
X131502999Y-96462000D02*
X132403001Y-96462000D01*
G75*
G02*
X132653000Y-96711999I0J-249999D01*
G01*
X132653000Y-97362001D01*
G75*
G02*
X132403001Y-97612000I-249999J0D01*
G01*
X131502999Y-97612000D01*
G75*
G02*
X131253000Y-97362001I0J249999D01*
G01*
X131253000Y-96711999D01*
G75*
G02*
X131502999Y-96462000I249999J0D01*
G01*
G37*
G36*
G01*
X131502999Y-94412000D02*
X132403001Y-94412000D01*
G75*
G02*
X132653000Y-94661999I0J-249999D01*
G01*
X132653000Y-95312001D01*
G75*
G02*
X132403001Y-95562000I-249999J0D01*
G01*
X131502999Y-95562000D01*
G75*
G02*
X131253000Y-95312001I0J249999D01*
G01*
X131253000Y-94661999D01*
G75*
G02*
X131502999Y-94412000I249999J0D01*
G01*
G37*
G36*
G01*
X157558000Y-101288001D02*
X157558000Y-100387999D01*
G75*
G02*
X157807999Y-100138000I249999J0D01*
G01*
X158458001Y-100138000D01*
G75*
G02*
X158708000Y-100387999I0J-249999D01*
G01*
X158708000Y-101288001D01*
G75*
G02*
X158458001Y-101538000I-249999J0D01*
G01*
X157807999Y-101538000D01*
G75*
G02*
X157558000Y-101288001I0J249999D01*
G01*
G37*
G36*
G01*
X155508000Y-101288001D02*
X155508000Y-100387999D01*
G75*
G02*
X155757999Y-100138000I249999J0D01*
G01*
X156408001Y-100138000D01*
G75*
G02*
X156658000Y-100387999I0J-249999D01*
G01*
X156658000Y-101288001D01*
G75*
G02*
X156408001Y-101538000I-249999J0D01*
G01*
X155757999Y-101538000D01*
G75*
G02*
X155508000Y-101288001I0J249999D01*
G01*
G37*
G36*
G01*
X152086000Y-100387999D02*
X152086000Y-101288001D01*
G75*
G02*
X151836001Y-101538000I-249999J0D01*
G01*
X151185999Y-101538000D01*
G75*
G02*
X150936000Y-101288001I0J249999D01*
G01*
X150936000Y-100387999D01*
G75*
G02*
X151185999Y-100138000I249999J0D01*
G01*
X151836001Y-100138000D01*
G75*
G02*
X152086000Y-100387999I0J-249999D01*
G01*
G37*
G36*
G01*
X154136000Y-100387999D02*
X154136000Y-101288001D01*
G75*
G02*
X153886001Y-101538000I-249999J0D01*
G01*
X153235999Y-101538000D01*
G75*
G02*
X152986000Y-101288001I0J249999D01*
G01*
X152986000Y-100387999D01*
G75*
G02*
X153235999Y-100138000I249999J0D01*
G01*
X153886001Y-100138000D01*
G75*
G02*
X154136000Y-100387999I0J-249999D01*
G01*
G37*
G36*
G01*
X159336000Y-91636001D02*
X159336000Y-90735999D01*
G75*
G02*
X159585999Y-90486000I249999J0D01*
G01*
X160236001Y-90486000D01*
G75*
G02*
X160486000Y-90735999I0J-249999D01*
G01*
X160486000Y-91636001D01*
G75*
G02*
X160236001Y-91886000I-249999J0D01*
G01*
X159585999Y-91886000D01*
G75*
G02*
X159336000Y-91636001I0J249999D01*
G01*
G37*
G36*
G01*
X157286000Y-91636001D02*
X157286000Y-90735999D01*
G75*
G02*
X157535999Y-90486000I249999J0D01*
G01*
X158186001Y-90486000D01*
G75*
G02*
X158436000Y-90735999I0J-249999D01*
G01*
X158436000Y-91636001D01*
G75*
G02*
X158186001Y-91886000I-249999J0D01*
G01*
X157535999Y-91886000D01*
G75*
G02*
X157286000Y-91636001I0J249999D01*
G01*
G37*
G36*
G01*
X153737000Y-90735999D02*
X153737000Y-91636001D01*
G75*
G02*
X153487001Y-91886000I-249999J0D01*
G01*
X152836999Y-91886000D01*
G75*
G02*
X152587000Y-91636001I0J249999D01*
G01*
X152587000Y-90735999D01*
G75*
G02*
X152836999Y-90486000I249999J0D01*
G01*
X153487001Y-90486000D01*
G75*
G02*
X153737000Y-90735999I0J-249999D01*
G01*
G37*
G36*
G01*
X155787000Y-90735999D02*
X155787000Y-91636001D01*
G75*
G02*
X155537001Y-91886000I-249999J0D01*
G01*
X154886999Y-91886000D01*
G75*
G02*
X154637000Y-91636001I0J249999D01*
G01*
X154637000Y-90735999D01*
G75*
G02*
X154886999Y-90486000I249999J0D01*
G01*
X155537001Y-90486000D01*
G75*
G02*
X155787000Y-90735999I0J-249999D01*
G01*
G37*
G36*
G01*
X131502999Y-108663000D02*
X132403001Y-108663000D01*
G75*
G02*
X132653000Y-108912999I0J-249999D01*
G01*
X132653000Y-109563001D01*
G75*
G02*
X132403001Y-109813000I-249999J0D01*
G01*
X131502999Y-109813000D01*
G75*
G02*
X131253000Y-109563001I0J249999D01*
G01*
X131253000Y-108912999D01*
G75*
G02*
X131502999Y-108663000I249999J0D01*
G01*
G37*
G36*
G01*
X131502999Y-106613000D02*
X132403001Y-106613000D01*
G75*
G02*
X132653000Y-106862999I0J-249999D01*
G01*
X132653000Y-107513001D01*
G75*
G02*
X132403001Y-107763000I-249999J0D01*
G01*
X131502999Y-107763000D01*
G75*
G02*
X131253000Y-107513001I0J249999D01*
G01*
X131253000Y-106862999D01*
G75*
G02*
X131502999Y-106613000I249999J0D01*
G01*
G37*
M02*
