M48
; DRILL file {KiCad 5.1.6-c6e7f7d~87~ubuntu18.04.1} date Wed Jul 29 17:57:30 2020
; FORMAT={-:-/ absolute / metric / decimal}
; #@! TF.CreationDate,2020-07-29T17:57:30-04:00
; #@! TF.GenerationSoftware,Kicad,Pcbnew,5.1.6-c6e7f7d~87~ubuntu18.04.1
FMAT,2
METRIC
T1C0.400
T2C0.800
T3C1.000
%
G90
G05
T1
X135.534Y-103.073
X137.338Y-102.845
X138.582Y-82.652
X139.929Y-82.333
X144.526Y-89.154
X146.526Y-78.467
X151.079Y-83.21
X151.536Y-86.716
X152.578Y-81.432
X155.232Y-101.689
X155.522Y-82.356
X155.956Y-123.952
X156.845Y-92.202
X157.165Y-103.04
X157.216Y-114.132
X158.242Y-102.24
X158.42Y-79.324
X159.309Y-87.782
X160.426Y-108.179
X160.985Y-92.05
X161.748Y-93.681
X163.402Y-98.86
X164.941Y-99.815
X165.079Y-106.883
X165.557Y-104.75
X167.386Y-107.899
X172.834Y-99.929
X176.073Y-124.816
X176.174Y-94.082
T2
X134.518Y-87.63
X134.569Y-92.075
X137.16Y-124.46
X138.862Y-92.075
X138.887Y-87.63
X140.818Y-84.684
X142.646Y-104.648
X142.646Y-108.204
X143.51Y-93.726
X143.51Y-99.568
X143.967Y-119.431
X146.05Y-83.82
X146.355Y-104.648
X146.355Y-108.204
X146.66Y-93.726
X149.25Y-79.299
X150.495Y-90.17
X151.308Y-98.806
X154.229Y-121.31
X158.496Y-119.888
X161.925Y-98.425
X165.456Y-87.884
X165.456Y-91.338
X166.37Y-99.06
X168.758Y-79.019
X171.856Y-79.019
X173.736Y-105.969
X173.736Y-112.065
X173.863Y-87.173
X173.863Y-91.516
X175.108Y-119.888
X178.689Y-87.224
X178.689Y-91.491
X134.62Y-116.84
X134.62Y-119.38
X134.62Y-121.92
X147.32Y-116.84
X147.32Y-119.38
X147.32Y-121.92
X140.97Y-116.84
X140.97Y-119.38
X140.97Y-121.92
X168.95Y-83.439
X171.45Y-83.439
T3
X182.88Y-106.68
X182.88Y-109.22
X182.88Y-111.76
X182.88Y-114.3
X182.88Y-116.84
X182.88Y-119.38
X182.88Y-121.92
X182.88Y-124.46
X129.54Y-78.74
X129.54Y-81.28
X129.54Y-83.82
X129.54Y-86.36
X129.54Y-116.84
X129.54Y-119.38
X129.54Y-121.92
X129.54Y-124.46
X182.88Y-78.74
X182.88Y-81.28
X182.88Y-83.82
X182.88Y-86.36
T0
M30
