G04 #@! TF.GenerationSoftware,KiCad,Pcbnew,5.1.6-c6e7f7d~87~ubuntu18.04.1*
G04 #@! TF.CreationDate,2020-08-13T12:50:30-04:00*
G04 #@! TF.ProjectId,arp_4072_LPF,6172705f-3430-4373-925f-4c50462e6b69,1*
G04 #@! TF.SameCoordinates,Original*
G04 #@! TF.FileFunction,Copper,L2,Bot*
G04 #@! TF.FilePolarity,Positive*
%FSLAX46Y46*%
G04 Gerber Fmt 4.6, Leading zero omitted, Abs format (unit mm)*
G04 Created by KiCad (PCBNEW 5.1.6-c6e7f7d~87~ubuntu18.04.1) date 2020-08-13 12:50:30*
%MOMM*%
%LPD*%
G01*
G04 APERTURE LIST*
G04 #@! TA.AperFunction,ComponentPad*
%ADD10C,1.440000*%
G04 #@! TD*
G04 #@! TA.AperFunction,ComponentPad*
%ADD11O,1.700000X1.700000*%
G04 #@! TD*
G04 #@! TA.AperFunction,ComponentPad*
%ADD12R,1.700000X1.700000*%
G04 #@! TD*
G04 #@! TA.AperFunction,ComponentPad*
%ADD13C,1.600000*%
G04 #@! TD*
G04 #@! TA.AperFunction,ComponentPad*
%ADD14R,1.600000X1.600000*%
G04 #@! TD*
G04 #@! TA.AperFunction,ViaPad*
%ADD15C,1.000000*%
G04 #@! TD*
G04 #@! TA.AperFunction,ViaPad*
%ADD16C,0.800000*%
G04 #@! TD*
G04 #@! TA.AperFunction,Conductor*
%ADD17C,0.500000*%
G04 #@! TD*
G04 #@! TA.AperFunction,Conductor*
%ADD18C,0.400000*%
G04 #@! TD*
G04 #@! TA.AperFunction,Conductor*
%ADD19C,0.254000*%
G04 #@! TD*
G04 APERTURE END LIST*
D10*
X147320000Y-121920000D03*
X147320000Y-119380000D03*
X147320000Y-116840000D03*
X140970000Y-121920000D03*
X140970000Y-119380000D03*
X140970000Y-116840000D03*
X134620000Y-121920000D03*
X134620000Y-119380000D03*
X134620000Y-116840000D03*
D11*
X182880000Y-124460000D03*
X182880000Y-121920000D03*
X182880000Y-119380000D03*
X182880000Y-116840000D03*
X182880000Y-114300000D03*
X182880000Y-111760000D03*
X182880000Y-109220000D03*
D12*
X182880000Y-106680000D03*
D11*
X182880000Y-86360000D03*
X182880000Y-83820000D03*
X182880000Y-81280000D03*
D12*
X182880000Y-78740000D03*
D11*
X129540000Y-124460000D03*
X129540000Y-121920000D03*
X129540000Y-119380000D03*
D12*
X129540000Y-116840000D03*
D11*
X129540000Y-86360000D03*
X129540000Y-83820000D03*
X129540000Y-81280000D03*
D12*
X129540000Y-78740000D03*
D13*
X168950000Y-83439000D03*
D14*
X171450000Y-83439000D03*
D15*
X163322000Y-98298000D03*
X166370000Y-99060000D03*
X165455600Y-91338400D03*
X165455600Y-87884000D03*
X150495000Y-90170000D03*
X146659600Y-93726000D03*
X143510000Y-93726000D03*
X138861800Y-92075000D03*
X138887200Y-87630000D03*
X143510000Y-99568000D03*
X142646400Y-104648000D03*
X146354800Y-104648000D03*
X146354800Y-108204000D03*
X142646400Y-108204000D03*
X173736000Y-105968800D03*
X173736000Y-112064800D03*
X175107600Y-119888000D03*
X158496000Y-119888000D03*
X143967200Y-119430800D03*
X137160000Y-124460000D03*
D16*
X165557200Y-104749600D03*
X167386000Y-107899200D03*
D15*
X134518400Y-87630000D03*
X134569200Y-92075000D03*
X173863000Y-87172800D03*
X178689000Y-87223600D03*
X171856400Y-79019400D03*
X173863000Y-91516200D03*
X178689000Y-91490800D03*
X146050000Y-83820000D03*
X140817600Y-84683600D03*
X151307800Y-98806000D03*
X168757600Y-79019400D03*
X149250400Y-79298800D03*
D16*
X155956000Y-123952000D03*
X138582400Y-82651600D03*
X137337796Y-102844604D03*
X144526000Y-89154000D03*
X162560000Y-99568000D03*
X156845000Y-92202000D03*
X155067000Y-101854000D03*
X176072800Y-124815600D03*
X176174400Y-94081600D03*
X164954494Y-99828892D03*
X155448000Y-81026000D03*
X137668000Y-80391000D03*
X161544000Y-93472000D03*
X158490193Y-82925193D03*
X157216190Y-114132010D03*
X151079200Y-83210400D03*
X158419800Y-79324200D03*
X156210000Y-106807000D03*
X159664446Y-99715874D03*
X161544000Y-106426000D03*
X163830000Y-105156000D03*
X149098000Y-122936000D03*
X135509000Y-102997000D03*
X152595010Y-80205010D03*
X172834390Y-99929010D03*
X146525707Y-78467493D03*
X159737180Y-102285016D03*
X160909000Y-109474000D03*
D17*
X139799999Y-118010001D02*
X140970000Y-116840000D01*
X139799999Y-122481601D02*
X139799999Y-118010001D01*
X155956000Y-123952000D02*
X141270398Y-123952000D01*
X141270398Y-123952000D02*
X139799999Y-122481601D01*
X181102000Y-123952000D02*
X181610000Y-124460000D01*
X155956000Y-123952000D02*
X181102000Y-123952000D01*
X181610000Y-124460000D02*
X182880000Y-124460000D01*
X138582400Y-82651600D02*
X137337796Y-83896204D01*
X143941796Y-89738204D02*
X137337796Y-89738204D01*
X144526000Y-89154000D02*
X143941796Y-89738204D01*
X137337796Y-83896204D02*
X137337796Y-89738204D01*
X137337796Y-89738204D02*
X137337796Y-102844604D01*
D18*
X156845000Y-94773001D02*
X156845000Y-92202000D01*
X162560000Y-99568000D02*
X161639999Y-99568000D01*
X161639999Y-99568000D02*
X156845000Y-94773001D01*
X168950000Y-94575000D02*
X168950000Y-83439000D01*
X162814000Y-100711000D02*
X168950000Y-94575000D01*
X155067000Y-101854000D02*
X158115000Y-98806000D01*
X161798000Y-100711000D02*
X162814000Y-100711000D01*
X159893000Y-98806000D02*
X161798000Y-100711000D01*
X158115000Y-98806000D02*
X159893000Y-98806000D01*
X127762000Y-88138000D02*
X129540000Y-86360000D01*
X127762000Y-125730000D02*
X127762000Y-88138000D01*
X128524000Y-126492000D02*
X127762000Y-125730000D01*
X176072800Y-124815600D02*
X174396400Y-126492000D01*
X174396400Y-126492000D02*
X128524000Y-126492000D01*
X176174400Y-94081600D02*
X176174400Y-100584000D01*
X176174400Y-100584000D02*
X173786800Y-102971600D01*
X173786800Y-102971600D02*
X168097202Y-102971600D01*
X168097202Y-102971600D02*
X164954494Y-99828892D01*
X138303000Y-81026000D02*
X137668000Y-80391000D01*
X155448000Y-81026000D02*
X138303000Y-81026000D01*
X158490193Y-90418193D02*
X158490193Y-82925193D01*
X161544000Y-93472000D02*
X158490193Y-90418193D01*
X148539200Y-85750400D02*
X151079200Y-83210400D01*
X157216190Y-114132010D02*
X148539200Y-105455020D01*
X148539200Y-105455020D02*
X148539200Y-85750400D01*
X154533600Y-83210400D02*
X158419800Y-79324200D01*
X151079200Y-83210400D02*
X154533600Y-83210400D01*
X158602126Y-99715874D02*
X159664446Y-99715874D01*
X156210000Y-106807000D02*
X156210000Y-102108000D01*
X156210000Y-102108000D02*
X158602126Y-99715874D01*
X161544000Y-106426000D02*
X162560000Y-106426000D01*
X162560000Y-106426000D02*
X163830000Y-105156000D01*
X149098000Y-121158000D02*
X147320000Y-119380000D01*
X149098000Y-122936000D02*
X149098000Y-121158000D01*
X135509000Y-102997000D02*
X135509000Y-79883000D01*
X135509000Y-79883000D02*
X136144000Y-79248000D01*
X136144000Y-79248000D02*
X141097000Y-79248000D01*
X142047801Y-80198801D02*
X149925199Y-80198801D01*
X141097000Y-79248000D02*
X142047801Y-80198801D01*
X149931408Y-80205010D02*
X152595010Y-80205010D01*
X149925199Y-80198801D02*
X149931408Y-80205010D01*
X147777200Y-77216000D02*
X147904200Y-77216000D01*
X170150001Y-97244621D02*
X172834390Y-99929010D01*
X170150001Y-78379801D02*
X170150001Y-97244621D01*
X168681400Y-76911200D02*
X170150001Y-78379801D01*
X147777200Y-77216000D02*
X148082000Y-76911200D01*
X148082000Y-76911200D02*
X168681400Y-76911200D01*
X147777200Y-77216000D02*
X146525707Y-78467493D01*
X159737180Y-108302180D02*
X159737180Y-102285016D01*
X160909000Y-109474000D02*
X159737180Y-108302180D01*
D19*
G36*
X146368932Y-77443400D02*
G01*
X146223809Y-77472267D01*
X146035451Y-77550288D01*
X145865933Y-77663556D01*
X145721770Y-77807719D01*
X145608502Y-77977237D01*
X145530481Y-78165595D01*
X145490707Y-78365554D01*
X145490707Y-78569432D01*
X145530481Y-78769391D01*
X145608502Y-78957749D01*
X145721770Y-79127267D01*
X145865933Y-79271430D01*
X146004176Y-79363801D01*
X142393669Y-79363801D01*
X141716445Y-78686578D01*
X141690291Y-78654709D01*
X141563146Y-78550364D01*
X141418087Y-78472828D01*
X141260689Y-78425082D01*
X141138019Y-78413000D01*
X141138018Y-78413000D01*
X141097000Y-78408960D01*
X141055982Y-78413000D01*
X136185018Y-78413000D01*
X136144000Y-78408960D01*
X136102982Y-78413000D01*
X136102981Y-78413000D01*
X135980311Y-78425082D01*
X135884157Y-78454250D01*
X135822913Y-78472828D01*
X135677854Y-78550364D01*
X135585004Y-78626564D01*
X135550709Y-78654709D01*
X135524562Y-78686569D01*
X134947573Y-79263559D01*
X134915710Y-79289709D01*
X134849809Y-79370010D01*
X134811364Y-79416855D01*
X134733828Y-79561914D01*
X134686082Y-79719312D01*
X134669960Y-79883000D01*
X134674001Y-79924029D01*
X134674000Y-102383715D01*
X134591795Y-102506744D01*
X134513774Y-102695102D01*
X134474000Y-102895061D01*
X134474000Y-103098939D01*
X134513774Y-103298898D01*
X134591795Y-103487256D01*
X134705063Y-103656774D01*
X134849226Y-103800937D01*
X135018744Y-103914205D01*
X135207102Y-103992226D01*
X135407061Y-104032000D01*
X135610939Y-104032000D01*
X135810898Y-103992226D01*
X135999256Y-103914205D01*
X136168774Y-103800937D01*
X136312937Y-103656774D01*
X136426205Y-103487256D01*
X136463025Y-103398366D01*
X136533859Y-103504378D01*
X136678022Y-103648541D01*
X136847540Y-103761809D01*
X137035898Y-103839830D01*
X137235857Y-103879604D01*
X137439735Y-103879604D01*
X137639694Y-103839830D01*
X137828052Y-103761809D01*
X137997570Y-103648541D01*
X138141733Y-103504378D01*
X138255001Y-103334860D01*
X138333022Y-103146502D01*
X138372796Y-102946543D01*
X138372796Y-102742665D01*
X138333022Y-102542706D01*
X138255001Y-102354348D01*
X138222796Y-102306150D01*
X138222796Y-90623204D01*
X143898327Y-90623204D01*
X143941796Y-90627485D01*
X143985265Y-90623204D01*
X143985273Y-90623204D01*
X144115286Y-90610399D01*
X144282109Y-90559793D01*
X144435855Y-90477615D01*
X144570613Y-90367021D01*
X144598330Y-90333248D01*
X144771043Y-90160535D01*
X144827898Y-90149226D01*
X145016256Y-90071205D01*
X145185774Y-89957937D01*
X145329937Y-89813774D01*
X145443205Y-89644256D01*
X145521226Y-89455898D01*
X145561000Y-89255939D01*
X145561000Y-89052061D01*
X145521226Y-88852102D01*
X145443205Y-88663744D01*
X145329937Y-88494226D01*
X145185774Y-88350063D01*
X145016256Y-88236795D01*
X144827898Y-88158774D01*
X144627939Y-88119000D01*
X144424061Y-88119000D01*
X144224102Y-88158774D01*
X144035744Y-88236795D01*
X143866226Y-88350063D01*
X143722063Y-88494226D01*
X143608795Y-88663744D01*
X143530774Y-88852102D01*
X143530555Y-88853204D01*
X138222796Y-88853204D01*
X138222796Y-84262782D01*
X138827444Y-83658135D01*
X138884298Y-83646826D01*
X139072656Y-83568805D01*
X139242174Y-83455537D01*
X139386337Y-83311374D01*
X139499605Y-83141856D01*
X139577626Y-82953498D01*
X139617400Y-82753539D01*
X139617400Y-82549661D01*
X139577626Y-82349702D01*
X139499605Y-82161344D01*
X139386337Y-81991826D01*
X139255511Y-81861000D01*
X154702133Y-81861000D01*
X154187733Y-82375400D01*
X151692485Y-82375400D01*
X151569456Y-82293195D01*
X151381098Y-82215174D01*
X151181139Y-82175400D01*
X150977261Y-82175400D01*
X150777302Y-82215174D01*
X150588944Y-82293195D01*
X150419426Y-82406463D01*
X150275263Y-82550626D01*
X150161995Y-82720144D01*
X150083974Y-82908502D01*
X150055108Y-83053625D01*
X147977774Y-85130959D01*
X147945910Y-85157109D01*
X147871374Y-85247932D01*
X147841564Y-85284255D01*
X147764028Y-85429314D01*
X147716282Y-85586712D01*
X147700160Y-85750400D01*
X147704201Y-85791429D01*
X147704200Y-105414002D01*
X147700160Y-105455020D01*
X147704200Y-105496038D01*
X147716282Y-105618708D01*
X147764028Y-105776106D01*
X147841564Y-105921165D01*
X147945909Y-106048311D01*
X147977779Y-106074466D01*
X156192098Y-114288787D01*
X156220964Y-114433908D01*
X156298985Y-114622266D01*
X156412253Y-114791784D01*
X156556416Y-114935947D01*
X156725934Y-115049215D01*
X156914292Y-115127236D01*
X157114251Y-115167010D01*
X157318129Y-115167010D01*
X157518088Y-115127236D01*
X157706446Y-115049215D01*
X157875964Y-114935947D01*
X158020127Y-114791784D01*
X158133395Y-114622266D01*
X158211416Y-114433908D01*
X158251190Y-114233949D01*
X158251190Y-114030071D01*
X158211416Y-113830112D01*
X158133395Y-113641754D01*
X158020127Y-113472236D01*
X157875964Y-113328073D01*
X157706446Y-113214805D01*
X157518088Y-113136784D01*
X157372967Y-113107918D01*
X149374200Y-105109153D01*
X149374200Y-86096267D01*
X151235975Y-84234492D01*
X151381098Y-84205626D01*
X151569456Y-84127605D01*
X151692485Y-84045400D01*
X154492582Y-84045400D01*
X154533600Y-84049440D01*
X154574618Y-84045400D01*
X154574619Y-84045400D01*
X154697289Y-84033318D01*
X154854687Y-83985572D01*
X154999746Y-83908036D01*
X155126891Y-83803691D01*
X155153046Y-83771821D01*
X156101613Y-82823254D01*
X157455193Y-82823254D01*
X157455193Y-83027132D01*
X157494967Y-83227091D01*
X157572988Y-83415449D01*
X157655194Y-83538479D01*
X157655193Y-90377174D01*
X157651153Y-90418193D01*
X157655193Y-90459211D01*
X157667275Y-90581881D01*
X157715021Y-90739279D01*
X157792557Y-90884338D01*
X157896902Y-91011484D01*
X157928772Y-91037639D01*
X160519908Y-93628775D01*
X160548774Y-93773898D01*
X160626795Y-93962256D01*
X160740063Y-94131774D01*
X160884226Y-94275937D01*
X161053744Y-94389205D01*
X161242102Y-94467226D01*
X161442061Y-94507000D01*
X161645939Y-94507000D01*
X161845898Y-94467226D01*
X162034256Y-94389205D01*
X162203774Y-94275937D01*
X162347937Y-94131774D01*
X162461205Y-93962256D01*
X162539226Y-93773898D01*
X162579000Y-93573939D01*
X162579000Y-93370061D01*
X162539226Y-93170102D01*
X162461205Y-92981744D01*
X162347937Y-92812226D01*
X162203774Y-92668063D01*
X162034256Y-92554795D01*
X161845898Y-92476774D01*
X161700775Y-92447908D01*
X159325193Y-90072326D01*
X159325193Y-83538478D01*
X159407398Y-83415449D01*
X159485419Y-83227091D01*
X159525193Y-83027132D01*
X159525193Y-82823254D01*
X159485419Y-82623295D01*
X159407398Y-82434937D01*
X159294130Y-82265419D01*
X159149967Y-82121256D01*
X158980449Y-82007988D01*
X158792091Y-81929967D01*
X158592132Y-81890193D01*
X158388254Y-81890193D01*
X158188295Y-81929967D01*
X157999937Y-82007988D01*
X157830419Y-82121256D01*
X157686256Y-82265419D01*
X157572988Y-82434937D01*
X157494967Y-82623295D01*
X157455193Y-82823254D01*
X156101613Y-82823254D01*
X158576577Y-80348292D01*
X158721698Y-80319426D01*
X158910056Y-80241405D01*
X159079574Y-80128137D01*
X159223737Y-79983974D01*
X159337005Y-79814456D01*
X159415026Y-79626098D01*
X159454800Y-79426139D01*
X159454800Y-79222261D01*
X159415026Y-79022302D01*
X159337005Y-78833944D01*
X159223737Y-78664426D01*
X159079574Y-78520263D01*
X158910056Y-78406995D01*
X158721698Y-78328974D01*
X158521739Y-78289200D01*
X158317861Y-78289200D01*
X158117902Y-78328974D01*
X157929544Y-78406995D01*
X157760026Y-78520263D01*
X157615863Y-78664426D01*
X157502595Y-78833944D01*
X157424574Y-79022302D01*
X157395708Y-79167423D01*
X156224421Y-80338710D01*
X156107774Y-80222063D01*
X155938256Y-80108795D01*
X155749898Y-80030774D01*
X155549939Y-79991000D01*
X155346061Y-79991000D01*
X155146102Y-80030774D01*
X154957744Y-80108795D01*
X154834715Y-80191000D01*
X153630010Y-80191000D01*
X153630010Y-80103071D01*
X153590236Y-79903112D01*
X153512215Y-79714754D01*
X153398947Y-79545236D01*
X153254784Y-79401073D01*
X153085266Y-79287805D01*
X152896908Y-79209784D01*
X152696949Y-79170010D01*
X152493071Y-79170010D01*
X152293112Y-79209784D01*
X152104754Y-79287805D01*
X151981725Y-79370010D01*
X150029259Y-79370010D01*
X149966218Y-79363801D01*
X149966217Y-79363801D01*
X149925199Y-79359761D01*
X149884181Y-79363801D01*
X147047238Y-79363801D01*
X147185481Y-79271430D01*
X147329644Y-79127267D01*
X147442912Y-78957749D01*
X147520933Y-78769391D01*
X147549800Y-78624268D01*
X148164437Y-78009630D01*
X148225287Y-77991172D01*
X148370346Y-77913636D01*
X148497491Y-77809291D01*
X148549268Y-77746200D01*
X168335533Y-77746200D01*
X169315001Y-78725669D01*
X169315001Y-82048491D01*
X169091335Y-82004000D01*
X168808665Y-82004000D01*
X168531426Y-82059147D01*
X168270273Y-82167320D01*
X168035241Y-82324363D01*
X167835363Y-82524241D01*
X167678320Y-82759273D01*
X167570147Y-83020426D01*
X167515000Y-83297665D01*
X167515000Y-83580335D01*
X167570147Y-83857574D01*
X167678320Y-84118727D01*
X167835363Y-84353759D01*
X168035241Y-84553637D01*
X168115001Y-84606931D01*
X168115000Y-94229132D01*
X163392764Y-98951369D01*
X163363937Y-98908226D01*
X163219774Y-98764063D01*
X163050256Y-98650795D01*
X162861898Y-98572774D01*
X162661939Y-98533000D01*
X162458061Y-98533000D01*
X162258102Y-98572774D01*
X162069744Y-98650795D01*
X161970186Y-98717318D01*
X157680000Y-94427134D01*
X157680000Y-92815285D01*
X157762205Y-92692256D01*
X157840226Y-92503898D01*
X157880000Y-92303939D01*
X157880000Y-92100061D01*
X157840226Y-91900102D01*
X157762205Y-91711744D01*
X157648937Y-91542226D01*
X157504774Y-91398063D01*
X157335256Y-91284795D01*
X157146898Y-91206774D01*
X156946939Y-91167000D01*
X156743061Y-91167000D01*
X156543102Y-91206774D01*
X156354744Y-91284795D01*
X156185226Y-91398063D01*
X156041063Y-91542226D01*
X155927795Y-91711744D01*
X155849774Y-91900102D01*
X155810000Y-92100061D01*
X155810000Y-92303939D01*
X155849774Y-92503898D01*
X155927795Y-92692256D01*
X156010001Y-92815286D01*
X156010000Y-94731982D01*
X156005960Y-94773001D01*
X156010000Y-94814019D01*
X156022082Y-94936689D01*
X156069828Y-95094087D01*
X156147364Y-95239146D01*
X156251709Y-95366292D01*
X156283579Y-95392447D01*
X158862131Y-97971000D01*
X158156018Y-97971000D01*
X158115000Y-97966960D01*
X158073981Y-97971000D01*
X157951311Y-97983082D01*
X157793913Y-98030828D01*
X157648854Y-98108364D01*
X157521709Y-98212709D01*
X157495563Y-98244568D01*
X154910225Y-100829907D01*
X154765102Y-100858774D01*
X154576744Y-100936795D01*
X154407226Y-101050063D01*
X154263063Y-101194226D01*
X154149795Y-101363744D01*
X154071774Y-101552102D01*
X154032000Y-101752061D01*
X154032000Y-101955939D01*
X154071774Y-102155898D01*
X154149795Y-102344256D01*
X154263063Y-102513774D01*
X154407226Y-102657937D01*
X154576744Y-102771205D01*
X154765102Y-102849226D01*
X154965061Y-102889000D01*
X155168939Y-102889000D01*
X155368898Y-102849226D01*
X155375001Y-102846698D01*
X155375000Y-106193715D01*
X155292795Y-106316744D01*
X155214774Y-106505102D01*
X155175000Y-106705061D01*
X155175000Y-106908939D01*
X155214774Y-107108898D01*
X155292795Y-107297256D01*
X155406063Y-107466774D01*
X155550226Y-107610937D01*
X155719744Y-107724205D01*
X155908102Y-107802226D01*
X156108061Y-107842000D01*
X156311939Y-107842000D01*
X156511898Y-107802226D01*
X156700256Y-107724205D01*
X156869774Y-107610937D01*
X157013937Y-107466774D01*
X157127205Y-107297256D01*
X157205226Y-107108898D01*
X157245000Y-106908939D01*
X157245000Y-106705061D01*
X157205226Y-106505102D01*
X157127205Y-106316744D01*
X157045000Y-106193715D01*
X157045000Y-102453867D01*
X157315790Y-102183077D01*
X158702180Y-102183077D01*
X158702180Y-102386955D01*
X158741954Y-102586914D01*
X158819975Y-102775272D01*
X158902181Y-102898302D01*
X158902180Y-108261161D01*
X158898140Y-108302180D01*
X158902180Y-108343198D01*
X158914262Y-108465868D01*
X158962008Y-108623266D01*
X159039544Y-108768325D01*
X159143889Y-108895471D01*
X159175758Y-108921625D01*
X159884908Y-109630776D01*
X159913774Y-109775898D01*
X159991795Y-109964256D01*
X160105063Y-110133774D01*
X160249226Y-110277937D01*
X160418744Y-110391205D01*
X160607102Y-110469226D01*
X160807061Y-110509000D01*
X161010939Y-110509000D01*
X161210898Y-110469226D01*
X161399256Y-110391205D01*
X161568774Y-110277937D01*
X161712937Y-110133774D01*
X161826205Y-109964256D01*
X161904226Y-109775898D01*
X161944000Y-109575939D01*
X161944000Y-109372061D01*
X161904226Y-109172102D01*
X161826205Y-108983744D01*
X161712937Y-108814226D01*
X161568774Y-108670063D01*
X161399256Y-108556795D01*
X161210898Y-108478774D01*
X161065776Y-108449908D01*
X160572180Y-107956313D01*
X160572180Y-107530000D01*
X181391928Y-107530000D01*
X181404188Y-107654482D01*
X181440498Y-107774180D01*
X181499463Y-107884494D01*
X181578815Y-107981185D01*
X181675506Y-108060537D01*
X181785820Y-108119502D01*
X181866466Y-108143966D01*
X181782412Y-108219731D01*
X181608359Y-108453080D01*
X181483175Y-108715901D01*
X181438524Y-108863110D01*
X181559845Y-109093000D01*
X182753000Y-109093000D01*
X182753000Y-106807000D01*
X183007000Y-106807000D01*
X183007000Y-109093000D01*
X184200155Y-109093000D01*
X184321476Y-108863110D01*
X184276825Y-108715901D01*
X184151641Y-108453080D01*
X183977588Y-108219731D01*
X183893534Y-108143966D01*
X183974180Y-108119502D01*
X184084494Y-108060537D01*
X184181185Y-107981185D01*
X184260537Y-107884494D01*
X184319502Y-107774180D01*
X184355812Y-107654482D01*
X184368072Y-107530000D01*
X184365000Y-106965750D01*
X184206250Y-106807000D01*
X183007000Y-106807000D01*
X182753000Y-106807000D01*
X181553750Y-106807000D01*
X181395000Y-106965750D01*
X181391928Y-107530000D01*
X160572180Y-107530000D01*
X160572180Y-106784405D01*
X160626795Y-106916256D01*
X160740063Y-107085774D01*
X160884226Y-107229937D01*
X161053744Y-107343205D01*
X161242102Y-107421226D01*
X161442061Y-107461000D01*
X161645939Y-107461000D01*
X161845898Y-107421226D01*
X162034256Y-107343205D01*
X162157285Y-107261000D01*
X162518982Y-107261000D01*
X162560000Y-107265040D01*
X162601018Y-107261000D01*
X162601019Y-107261000D01*
X162723689Y-107248918D01*
X162881087Y-107201172D01*
X163026146Y-107123636D01*
X163153291Y-107019291D01*
X163179446Y-106987421D01*
X163986775Y-106180092D01*
X164131898Y-106151226D01*
X164320256Y-106073205D01*
X164489774Y-105959937D01*
X164619711Y-105830000D01*
X181391928Y-105830000D01*
X181395000Y-106394250D01*
X181553750Y-106553000D01*
X182753000Y-106553000D01*
X182753000Y-105353750D01*
X183007000Y-105353750D01*
X183007000Y-106553000D01*
X184206250Y-106553000D01*
X184365000Y-106394250D01*
X184368072Y-105830000D01*
X184355812Y-105705518D01*
X184319502Y-105585820D01*
X184260537Y-105475506D01*
X184181185Y-105378815D01*
X184084494Y-105299463D01*
X183974180Y-105240498D01*
X183854482Y-105204188D01*
X183730000Y-105191928D01*
X183165750Y-105195000D01*
X183007000Y-105353750D01*
X182753000Y-105353750D01*
X182594250Y-105195000D01*
X182030000Y-105191928D01*
X181905518Y-105204188D01*
X181785820Y-105240498D01*
X181675506Y-105299463D01*
X181578815Y-105378815D01*
X181499463Y-105475506D01*
X181440498Y-105585820D01*
X181404188Y-105705518D01*
X181391928Y-105830000D01*
X164619711Y-105830000D01*
X164633937Y-105815774D01*
X164747205Y-105646256D01*
X164825226Y-105457898D01*
X164865000Y-105257939D01*
X164865000Y-105054061D01*
X164825226Y-104854102D01*
X164747205Y-104665744D01*
X164633937Y-104496226D01*
X164489774Y-104352063D01*
X164320256Y-104238795D01*
X164131898Y-104160774D01*
X163931939Y-104121000D01*
X163728061Y-104121000D01*
X163528102Y-104160774D01*
X163339744Y-104238795D01*
X163170226Y-104352063D01*
X163026063Y-104496226D01*
X162912795Y-104665744D01*
X162834774Y-104854102D01*
X162805908Y-104999225D01*
X162214133Y-105591000D01*
X162157285Y-105591000D01*
X162034256Y-105508795D01*
X161845898Y-105430774D01*
X161645939Y-105391000D01*
X161442061Y-105391000D01*
X161242102Y-105430774D01*
X161053744Y-105508795D01*
X160884226Y-105622063D01*
X160740063Y-105766226D01*
X160626795Y-105935744D01*
X160572180Y-106067595D01*
X160572180Y-102898301D01*
X160654385Y-102775272D01*
X160732406Y-102586914D01*
X160772180Y-102386955D01*
X160772180Y-102183077D01*
X160732406Y-101983118D01*
X160654385Y-101794760D01*
X160541117Y-101625242D01*
X160396954Y-101481079D01*
X160227436Y-101367811D01*
X160039078Y-101289790D01*
X159839119Y-101250016D01*
X159635241Y-101250016D01*
X159435282Y-101289790D01*
X159246924Y-101367811D01*
X159077406Y-101481079D01*
X158933243Y-101625242D01*
X158819975Y-101794760D01*
X158741954Y-101983118D01*
X158702180Y-102183077D01*
X157315790Y-102183077D01*
X158947994Y-100550874D01*
X159051161Y-100550874D01*
X159174190Y-100633079D01*
X159362548Y-100711100D01*
X159562507Y-100750874D01*
X159766385Y-100750874D01*
X159966344Y-100711100D01*
X160154702Y-100633079D01*
X160324220Y-100519811D01*
X160375081Y-100468950D01*
X161178563Y-101272432D01*
X161204709Y-101304291D01*
X161236568Y-101330437D01*
X161236570Y-101330439D01*
X161331854Y-101408636D01*
X161476913Y-101486172D01*
X161634311Y-101533918D01*
X161798000Y-101550040D01*
X161839018Y-101546000D01*
X162772982Y-101546000D01*
X162814000Y-101550040D01*
X162855018Y-101546000D01*
X162855019Y-101546000D01*
X162977689Y-101533918D01*
X163135087Y-101486172D01*
X163280146Y-101408636D01*
X163407291Y-101304291D01*
X163433446Y-101272421D01*
X164183879Y-100521988D01*
X164294720Y-100632829D01*
X164464238Y-100746097D01*
X164652596Y-100824118D01*
X164797719Y-100852985D01*
X167477761Y-103533027D01*
X167503911Y-103564891D01*
X167631056Y-103669236D01*
X167776115Y-103746772D01*
X167933513Y-103794518D01*
X168056183Y-103806600D01*
X168056193Y-103806600D01*
X168097201Y-103810639D01*
X168138209Y-103806600D01*
X173745782Y-103806600D01*
X173786800Y-103810640D01*
X173827818Y-103806600D01*
X173827819Y-103806600D01*
X173950489Y-103794518D01*
X174107887Y-103746772D01*
X174252946Y-103669236D01*
X174380091Y-103564891D01*
X174406246Y-103533021D01*
X176735827Y-101203441D01*
X176767691Y-101177291D01*
X176872036Y-101050146D01*
X176949572Y-100905087D01*
X176997318Y-100747689D01*
X177009400Y-100625019D01*
X177009400Y-100625009D01*
X177013439Y-100584001D01*
X177009400Y-100542993D01*
X177009400Y-94694885D01*
X177091605Y-94571856D01*
X177169626Y-94383498D01*
X177209400Y-94183539D01*
X177209400Y-93979661D01*
X177169626Y-93779702D01*
X177091605Y-93591344D01*
X176978337Y-93421826D01*
X176834174Y-93277663D01*
X176664656Y-93164395D01*
X176476298Y-93086374D01*
X176276339Y-93046600D01*
X176072461Y-93046600D01*
X175872502Y-93086374D01*
X175684144Y-93164395D01*
X175514626Y-93277663D01*
X175370463Y-93421826D01*
X175257195Y-93591344D01*
X175179174Y-93779702D01*
X175139400Y-93979661D01*
X175139400Y-94183539D01*
X175179174Y-94383498D01*
X175257195Y-94571856D01*
X175339400Y-94694885D01*
X175339401Y-100238131D01*
X173440933Y-102136600D01*
X168443070Y-102136600D01*
X165978587Y-99672117D01*
X165949720Y-99526994D01*
X165871699Y-99338636D01*
X165758431Y-99169118D01*
X165647590Y-99058277D01*
X169315002Y-95390866D01*
X169315002Y-97203592D01*
X169310961Y-97244621D01*
X169327083Y-97408309D01*
X169374829Y-97565707D01*
X169374830Y-97565708D01*
X169452366Y-97710767D01*
X169556711Y-97837912D01*
X169588575Y-97864062D01*
X171810298Y-100085785D01*
X171839164Y-100230908D01*
X171917185Y-100419266D01*
X172030453Y-100588784D01*
X172174616Y-100732947D01*
X172344134Y-100846215D01*
X172532492Y-100924236D01*
X172732451Y-100964010D01*
X172936329Y-100964010D01*
X173136288Y-100924236D01*
X173324646Y-100846215D01*
X173494164Y-100732947D01*
X173638327Y-100588784D01*
X173751595Y-100419266D01*
X173829616Y-100230908D01*
X173869390Y-100030949D01*
X173869390Y-99827071D01*
X173829616Y-99627112D01*
X173751595Y-99438754D01*
X173638327Y-99269236D01*
X173494164Y-99125073D01*
X173324646Y-99011805D01*
X173136288Y-98933784D01*
X172991165Y-98904918D01*
X170985001Y-96898754D01*
X170985001Y-84877072D01*
X172250000Y-84877072D01*
X172374482Y-84864812D01*
X172494180Y-84828502D01*
X172604494Y-84769537D01*
X172701185Y-84690185D01*
X172780537Y-84593494D01*
X172839502Y-84483180D01*
X172875812Y-84363482D01*
X172888072Y-84239000D01*
X172888072Y-83673740D01*
X181395000Y-83673740D01*
X181395000Y-83966260D01*
X181452068Y-84253158D01*
X181564010Y-84523411D01*
X181726525Y-84766632D01*
X181933368Y-84973475D01*
X182107760Y-85090000D01*
X181933368Y-85206525D01*
X181726525Y-85413368D01*
X181564010Y-85656589D01*
X181452068Y-85926842D01*
X181395000Y-86213740D01*
X181395000Y-86506260D01*
X181452068Y-86793158D01*
X181564010Y-87063411D01*
X181726525Y-87306632D01*
X181933368Y-87513475D01*
X182176589Y-87675990D01*
X182446842Y-87787932D01*
X182733740Y-87845000D01*
X183026260Y-87845000D01*
X183313158Y-87787932D01*
X183583411Y-87675990D01*
X183826632Y-87513475D01*
X184033475Y-87306632D01*
X184195990Y-87063411D01*
X184307932Y-86793158D01*
X184365000Y-86506260D01*
X184365000Y-86213740D01*
X184307932Y-85926842D01*
X184195990Y-85656589D01*
X184033475Y-85413368D01*
X183826632Y-85206525D01*
X183652240Y-85090000D01*
X183826632Y-84973475D01*
X184033475Y-84766632D01*
X184195990Y-84523411D01*
X184307932Y-84253158D01*
X184365000Y-83966260D01*
X184365000Y-83673740D01*
X184307932Y-83386842D01*
X184195990Y-83116589D01*
X184033475Y-82873368D01*
X183826632Y-82666525D01*
X183644466Y-82544805D01*
X183761355Y-82475178D01*
X183977588Y-82280269D01*
X184151641Y-82046920D01*
X184276825Y-81784099D01*
X184321476Y-81636890D01*
X184200155Y-81407000D01*
X183007000Y-81407000D01*
X183007000Y-81427000D01*
X182753000Y-81427000D01*
X182753000Y-81407000D01*
X181559845Y-81407000D01*
X181438524Y-81636890D01*
X181483175Y-81784099D01*
X181608359Y-82046920D01*
X181782412Y-82280269D01*
X181998645Y-82475178D01*
X182115534Y-82544805D01*
X181933368Y-82666525D01*
X181726525Y-82873368D01*
X181564010Y-83116589D01*
X181452068Y-83386842D01*
X181395000Y-83673740D01*
X172888072Y-83673740D01*
X172888072Y-82639000D01*
X172875812Y-82514518D01*
X172839502Y-82394820D01*
X172780537Y-82284506D01*
X172701185Y-82187815D01*
X172604494Y-82108463D01*
X172494180Y-82049498D01*
X172374482Y-82013188D01*
X172250000Y-82000928D01*
X170985001Y-82000928D01*
X170985001Y-79590000D01*
X181391928Y-79590000D01*
X181404188Y-79714482D01*
X181440498Y-79834180D01*
X181499463Y-79944494D01*
X181578815Y-80041185D01*
X181675506Y-80120537D01*
X181785820Y-80179502D01*
X181866466Y-80203966D01*
X181782412Y-80279731D01*
X181608359Y-80513080D01*
X181483175Y-80775901D01*
X181438524Y-80923110D01*
X181559845Y-81153000D01*
X182753000Y-81153000D01*
X182753000Y-78867000D01*
X183007000Y-78867000D01*
X183007000Y-81153000D01*
X184200155Y-81153000D01*
X184321476Y-80923110D01*
X184276825Y-80775901D01*
X184151641Y-80513080D01*
X183977588Y-80279731D01*
X183893534Y-80203966D01*
X183974180Y-80179502D01*
X184084494Y-80120537D01*
X184181185Y-80041185D01*
X184260537Y-79944494D01*
X184319502Y-79834180D01*
X184355812Y-79714482D01*
X184368072Y-79590000D01*
X184365000Y-79025750D01*
X184206250Y-78867000D01*
X183007000Y-78867000D01*
X182753000Y-78867000D01*
X181553750Y-78867000D01*
X181395000Y-79025750D01*
X181391928Y-79590000D01*
X170985001Y-79590000D01*
X170985001Y-78420808D01*
X170989040Y-78379800D01*
X170985001Y-78338792D01*
X170985001Y-78338782D01*
X170972919Y-78216112D01*
X170925173Y-78058714D01*
X170847637Y-77913655D01*
X170828224Y-77890000D01*
X181391928Y-77890000D01*
X181395000Y-78454250D01*
X181553750Y-78613000D01*
X182753000Y-78613000D01*
X182753000Y-77413750D01*
X183007000Y-77413750D01*
X183007000Y-78613000D01*
X184206250Y-78613000D01*
X184365000Y-78454250D01*
X184368072Y-77890000D01*
X184355812Y-77765518D01*
X184319502Y-77645820D01*
X184260537Y-77535506D01*
X184181185Y-77438815D01*
X184084494Y-77359463D01*
X183974180Y-77300498D01*
X183854482Y-77264188D01*
X183730000Y-77251928D01*
X183165750Y-77255000D01*
X183007000Y-77413750D01*
X182753000Y-77413750D01*
X182594250Y-77255000D01*
X182030000Y-77251928D01*
X181905518Y-77264188D01*
X181785820Y-77300498D01*
X181675506Y-77359463D01*
X181578815Y-77438815D01*
X181499463Y-77535506D01*
X181440498Y-77645820D01*
X181404188Y-77765518D01*
X181391928Y-77890000D01*
X170828224Y-77890000D01*
X170743292Y-77786510D01*
X170711429Y-77760361D01*
X169811067Y-76860000D01*
X184760000Y-76860000D01*
X184760001Y-126340000D01*
X175729268Y-126340000D01*
X176229576Y-125839692D01*
X176374698Y-125810826D01*
X176563056Y-125732805D01*
X176732574Y-125619537D01*
X176876737Y-125475374D01*
X176990005Y-125305856D01*
X177068026Y-125117498D01*
X177107800Y-124917539D01*
X177107800Y-124837000D01*
X180735422Y-124837000D01*
X180953466Y-125055044D01*
X180981183Y-125088817D01*
X181115941Y-125199411D01*
X181269687Y-125281589D01*
X181436510Y-125332195D01*
X181566523Y-125345000D01*
X181566533Y-125345000D01*
X181609999Y-125349281D01*
X181653465Y-125345000D01*
X181685344Y-125345000D01*
X181726525Y-125406632D01*
X181933368Y-125613475D01*
X182176589Y-125775990D01*
X182446842Y-125887932D01*
X182733740Y-125945000D01*
X183026260Y-125945000D01*
X183313158Y-125887932D01*
X183583411Y-125775990D01*
X183826632Y-125613475D01*
X184033475Y-125406632D01*
X184195990Y-125163411D01*
X184307932Y-124893158D01*
X184365000Y-124606260D01*
X184365000Y-124313740D01*
X184307932Y-124026842D01*
X184195990Y-123756589D01*
X184033475Y-123513368D01*
X183826632Y-123306525D01*
X183652240Y-123190000D01*
X183826632Y-123073475D01*
X184033475Y-122866632D01*
X184195990Y-122623411D01*
X184307932Y-122353158D01*
X184365000Y-122066260D01*
X184365000Y-121773740D01*
X184307932Y-121486842D01*
X184195990Y-121216589D01*
X184033475Y-120973368D01*
X183826632Y-120766525D01*
X183652240Y-120650000D01*
X183826632Y-120533475D01*
X184033475Y-120326632D01*
X184195990Y-120083411D01*
X184307932Y-119813158D01*
X184365000Y-119526260D01*
X184365000Y-119233740D01*
X184307932Y-118946842D01*
X184195990Y-118676589D01*
X184033475Y-118433368D01*
X183826632Y-118226525D01*
X183652240Y-118110000D01*
X183826632Y-117993475D01*
X184033475Y-117786632D01*
X184195990Y-117543411D01*
X184307932Y-117273158D01*
X184365000Y-116986260D01*
X184365000Y-116693740D01*
X184307932Y-116406842D01*
X184195990Y-116136589D01*
X184033475Y-115893368D01*
X183826632Y-115686525D01*
X183652240Y-115570000D01*
X183826632Y-115453475D01*
X184033475Y-115246632D01*
X184195990Y-115003411D01*
X184307932Y-114733158D01*
X184365000Y-114446260D01*
X184365000Y-114153740D01*
X184307932Y-113866842D01*
X184195990Y-113596589D01*
X184033475Y-113353368D01*
X183826632Y-113146525D01*
X183652240Y-113030000D01*
X183826632Y-112913475D01*
X184033475Y-112706632D01*
X184195990Y-112463411D01*
X184307932Y-112193158D01*
X184365000Y-111906260D01*
X184365000Y-111613740D01*
X184307932Y-111326842D01*
X184195990Y-111056589D01*
X184033475Y-110813368D01*
X183826632Y-110606525D01*
X183644466Y-110484805D01*
X183761355Y-110415178D01*
X183977588Y-110220269D01*
X184151641Y-109986920D01*
X184276825Y-109724099D01*
X184321476Y-109576890D01*
X184200155Y-109347000D01*
X183007000Y-109347000D01*
X183007000Y-109367000D01*
X182753000Y-109367000D01*
X182753000Y-109347000D01*
X181559845Y-109347000D01*
X181438524Y-109576890D01*
X181483175Y-109724099D01*
X181608359Y-109986920D01*
X181782412Y-110220269D01*
X181998645Y-110415178D01*
X182115534Y-110484805D01*
X181933368Y-110606525D01*
X181726525Y-110813368D01*
X181564010Y-111056589D01*
X181452068Y-111326842D01*
X181395000Y-111613740D01*
X181395000Y-111906260D01*
X181452068Y-112193158D01*
X181564010Y-112463411D01*
X181726525Y-112706632D01*
X181933368Y-112913475D01*
X182107760Y-113030000D01*
X181933368Y-113146525D01*
X181726525Y-113353368D01*
X181564010Y-113596589D01*
X181452068Y-113866842D01*
X181395000Y-114153740D01*
X181395000Y-114446260D01*
X181452068Y-114733158D01*
X181564010Y-115003411D01*
X181726525Y-115246632D01*
X181933368Y-115453475D01*
X182107760Y-115570000D01*
X181933368Y-115686525D01*
X181726525Y-115893368D01*
X181564010Y-116136589D01*
X181452068Y-116406842D01*
X181395000Y-116693740D01*
X181395000Y-116986260D01*
X181452068Y-117273158D01*
X181564010Y-117543411D01*
X181726525Y-117786632D01*
X181933368Y-117993475D01*
X182107760Y-118110000D01*
X181933368Y-118226525D01*
X181726525Y-118433368D01*
X181564010Y-118676589D01*
X181452068Y-118946842D01*
X181395000Y-119233740D01*
X181395000Y-119526260D01*
X181452068Y-119813158D01*
X181564010Y-120083411D01*
X181726525Y-120326632D01*
X181933368Y-120533475D01*
X182107760Y-120650000D01*
X181933368Y-120766525D01*
X181726525Y-120973368D01*
X181564010Y-121216589D01*
X181452068Y-121486842D01*
X181395000Y-121773740D01*
X181395000Y-122066260D01*
X181452068Y-122353158D01*
X181564010Y-122623411D01*
X181726525Y-122866632D01*
X181933368Y-123073475D01*
X182107760Y-123190000D01*
X181933368Y-123306525D01*
X181820736Y-123419158D01*
X181758534Y-123356956D01*
X181730817Y-123323183D01*
X181596059Y-123212589D01*
X181442313Y-123130411D01*
X181275490Y-123079805D01*
X181145477Y-123067000D01*
X181145469Y-123067000D01*
X181102000Y-123062719D01*
X181058531Y-123067000D01*
X156494454Y-123067000D01*
X156446256Y-123034795D01*
X156257898Y-122956774D01*
X156057939Y-122917000D01*
X155854061Y-122917000D01*
X155654102Y-122956774D01*
X155465744Y-123034795D01*
X155417546Y-123067000D01*
X150127219Y-123067000D01*
X150133000Y-123037939D01*
X150133000Y-122834061D01*
X150093226Y-122634102D01*
X150015205Y-122445744D01*
X149933000Y-122322715D01*
X149933000Y-121199018D01*
X149937040Y-121158000D01*
X149920918Y-120994312D01*
X149917924Y-120984440D01*
X149873172Y-120836913D01*
X149795636Y-120691854D01*
X149734264Y-120617072D01*
X149717439Y-120596570D01*
X149717437Y-120596568D01*
X149691291Y-120564709D01*
X149659432Y-120538563D01*
X148668251Y-119547384D01*
X148675000Y-119513456D01*
X148675000Y-119246544D01*
X148622928Y-118984761D01*
X148520785Y-118738167D01*
X148372497Y-118516238D01*
X148183762Y-118327503D01*
X147961833Y-118179215D01*
X147794734Y-118110000D01*
X147961833Y-118040785D01*
X148183762Y-117892497D01*
X148372497Y-117703762D01*
X148520785Y-117481833D01*
X148622928Y-117235239D01*
X148675000Y-116973456D01*
X148675000Y-116706544D01*
X148622928Y-116444761D01*
X148520785Y-116198167D01*
X148372497Y-115976238D01*
X148183762Y-115787503D01*
X147961833Y-115639215D01*
X147715239Y-115537072D01*
X147453456Y-115485000D01*
X147186544Y-115485000D01*
X146924761Y-115537072D01*
X146678167Y-115639215D01*
X146456238Y-115787503D01*
X146267503Y-115976238D01*
X146119215Y-116198167D01*
X146017072Y-116444761D01*
X145965000Y-116706544D01*
X145965000Y-116973456D01*
X146017072Y-117235239D01*
X146119215Y-117481833D01*
X146267503Y-117703762D01*
X146456238Y-117892497D01*
X146678167Y-118040785D01*
X146845266Y-118110000D01*
X146678167Y-118179215D01*
X146456238Y-118327503D01*
X146267503Y-118516238D01*
X146119215Y-118738167D01*
X146017072Y-118984761D01*
X145965000Y-119246544D01*
X145965000Y-119513456D01*
X146017072Y-119775239D01*
X146119215Y-120021833D01*
X146267503Y-120243762D01*
X146456238Y-120432497D01*
X146678167Y-120580785D01*
X146845266Y-120650000D01*
X146678167Y-120719215D01*
X146456238Y-120867503D01*
X146267503Y-121056238D01*
X146119215Y-121278167D01*
X146017072Y-121524761D01*
X145965000Y-121786544D01*
X145965000Y-122053456D01*
X146017072Y-122315239D01*
X146119215Y-122561833D01*
X146267503Y-122783762D01*
X146456238Y-122972497D01*
X146597672Y-123067000D01*
X141670463Y-123067000D01*
X141725955Y-122855560D01*
X140970000Y-122099605D01*
X140955858Y-122113748D01*
X140776253Y-121934143D01*
X140790395Y-121920000D01*
X141149605Y-121920000D01*
X141905560Y-122675955D01*
X142141368Y-122614068D01*
X142254266Y-122372210D01*
X142317811Y-122112973D01*
X142329561Y-121846320D01*
X142289063Y-121582499D01*
X142197875Y-121331647D01*
X142141368Y-121225932D01*
X141905560Y-121164045D01*
X141149605Y-121920000D01*
X140790395Y-121920000D01*
X140776253Y-121905858D01*
X140955858Y-121726253D01*
X140970000Y-121740395D01*
X141725955Y-120984440D01*
X141664068Y-120748632D01*
X141448993Y-120648236D01*
X141611833Y-120580785D01*
X141833762Y-120432497D01*
X142022497Y-120243762D01*
X142170785Y-120021833D01*
X142272928Y-119775239D01*
X142325000Y-119513456D01*
X142325000Y-119246544D01*
X142272928Y-118984761D01*
X142170785Y-118738167D01*
X142022497Y-118516238D01*
X141833762Y-118327503D01*
X141611833Y-118179215D01*
X141444734Y-118110000D01*
X141611833Y-118040785D01*
X141833762Y-117892497D01*
X142022497Y-117703762D01*
X142170785Y-117481833D01*
X142272928Y-117235239D01*
X142325000Y-116973456D01*
X142325000Y-116706544D01*
X142272928Y-116444761D01*
X142170785Y-116198167D01*
X142022497Y-115976238D01*
X141833762Y-115787503D01*
X141611833Y-115639215D01*
X141365239Y-115537072D01*
X141103456Y-115485000D01*
X140836544Y-115485000D01*
X140574761Y-115537072D01*
X140328167Y-115639215D01*
X140106238Y-115787503D01*
X139917503Y-115976238D01*
X139769215Y-116198167D01*
X139667072Y-116444761D01*
X139615000Y-116706544D01*
X139615000Y-116943422D01*
X139204950Y-117353472D01*
X139171183Y-117381184D01*
X139143470Y-117414952D01*
X139143467Y-117414955D01*
X139060589Y-117515942D01*
X138978411Y-117669688D01*
X138927804Y-117836511D01*
X138910718Y-118010001D01*
X138915000Y-118053480D01*
X138914999Y-122438132D01*
X138910718Y-122481601D01*
X138914999Y-122525070D01*
X138914999Y-122525077D01*
X138927804Y-122655090D01*
X138978410Y-122821913D01*
X139060588Y-122975659D01*
X139171182Y-123110418D01*
X139204955Y-123138135D01*
X140613868Y-124547049D01*
X140641581Y-124580817D01*
X140675349Y-124608530D01*
X140675351Y-124608532D01*
X140728210Y-124651912D01*
X140776339Y-124691411D01*
X140930085Y-124773589D01*
X141096908Y-124824195D01*
X141226921Y-124837000D01*
X141226931Y-124837000D01*
X141270397Y-124841281D01*
X141313863Y-124837000D01*
X155417546Y-124837000D01*
X155465744Y-124869205D01*
X155654102Y-124947226D01*
X155854061Y-124987000D01*
X156057939Y-124987000D01*
X156257898Y-124947226D01*
X156446256Y-124869205D01*
X156494454Y-124837000D01*
X174870532Y-124837000D01*
X174050533Y-125657000D01*
X130421492Y-125657000D01*
X130486632Y-125613475D01*
X130693475Y-125406632D01*
X130855990Y-125163411D01*
X130967932Y-124893158D01*
X131025000Y-124606260D01*
X131025000Y-124313740D01*
X130967932Y-124026842D01*
X130855990Y-123756589D01*
X130693475Y-123513368D01*
X130486632Y-123306525D01*
X130312240Y-123190000D01*
X130486632Y-123073475D01*
X130693475Y-122866632D01*
X130855990Y-122623411D01*
X130967932Y-122353158D01*
X131025000Y-122066260D01*
X131025000Y-121773740D01*
X130967932Y-121486842D01*
X130855990Y-121216589D01*
X130693475Y-120973368D01*
X130486632Y-120766525D01*
X130304466Y-120644805D01*
X130421355Y-120575178D01*
X130637588Y-120380269D01*
X130811641Y-120146920D01*
X130936825Y-119884099D01*
X130981476Y-119736890D01*
X130860155Y-119507000D01*
X129667000Y-119507000D01*
X129667000Y-119527000D01*
X129413000Y-119527000D01*
X129413000Y-119507000D01*
X129393000Y-119507000D01*
X129393000Y-119253000D01*
X129413000Y-119253000D01*
X129413000Y-116967000D01*
X129667000Y-116967000D01*
X129667000Y-119253000D01*
X130860155Y-119253000D01*
X130863562Y-119246544D01*
X133265000Y-119246544D01*
X133265000Y-119513456D01*
X133317072Y-119775239D01*
X133419215Y-120021833D01*
X133567503Y-120243762D01*
X133756238Y-120432497D01*
X133978167Y-120580785D01*
X134145266Y-120650000D01*
X133978167Y-120719215D01*
X133756238Y-120867503D01*
X133567503Y-121056238D01*
X133419215Y-121278167D01*
X133317072Y-121524761D01*
X133265000Y-121786544D01*
X133265000Y-122053456D01*
X133317072Y-122315239D01*
X133419215Y-122561833D01*
X133567503Y-122783762D01*
X133756238Y-122972497D01*
X133978167Y-123120785D01*
X134224761Y-123222928D01*
X134486544Y-123275000D01*
X134753456Y-123275000D01*
X135015239Y-123222928D01*
X135261833Y-123120785D01*
X135483762Y-122972497D01*
X135672497Y-122783762D01*
X135820785Y-122561833D01*
X135922928Y-122315239D01*
X135975000Y-122053456D01*
X135975000Y-121786544D01*
X135922928Y-121524761D01*
X135820785Y-121278167D01*
X135672497Y-121056238D01*
X135483762Y-120867503D01*
X135261833Y-120719215D01*
X135094734Y-120650000D01*
X135261833Y-120580785D01*
X135483762Y-120432497D01*
X135672497Y-120243762D01*
X135820785Y-120021833D01*
X135922928Y-119775239D01*
X135975000Y-119513456D01*
X135975000Y-119246544D01*
X135922928Y-118984761D01*
X135820785Y-118738167D01*
X135672497Y-118516238D01*
X135483762Y-118327503D01*
X135261833Y-118179215D01*
X135093676Y-118109562D01*
X135208353Y-118067875D01*
X135314068Y-118011368D01*
X135375955Y-117775560D01*
X134620000Y-117019605D01*
X133864045Y-117775560D01*
X133925932Y-118011368D01*
X134141007Y-118111764D01*
X133978167Y-118179215D01*
X133756238Y-118327503D01*
X133567503Y-118516238D01*
X133419215Y-118738167D01*
X133317072Y-118984761D01*
X133265000Y-119246544D01*
X130863562Y-119246544D01*
X130981476Y-119023110D01*
X130936825Y-118875901D01*
X130811641Y-118613080D01*
X130637588Y-118379731D01*
X130553534Y-118303966D01*
X130634180Y-118279502D01*
X130744494Y-118220537D01*
X130841185Y-118141185D01*
X130920537Y-118044494D01*
X130979502Y-117934180D01*
X131015812Y-117814482D01*
X131028072Y-117690000D01*
X131025000Y-117125750D01*
X130866250Y-116967000D01*
X129667000Y-116967000D01*
X129413000Y-116967000D01*
X129393000Y-116967000D01*
X129393000Y-116913680D01*
X133260439Y-116913680D01*
X133300937Y-117177501D01*
X133392125Y-117428353D01*
X133448632Y-117534068D01*
X133684440Y-117595955D01*
X134440395Y-116840000D01*
X134799605Y-116840000D01*
X135555560Y-117595955D01*
X135791368Y-117534068D01*
X135904266Y-117292210D01*
X135967811Y-117032973D01*
X135979561Y-116766320D01*
X135939063Y-116502499D01*
X135847875Y-116251647D01*
X135791368Y-116145932D01*
X135555560Y-116084045D01*
X134799605Y-116840000D01*
X134440395Y-116840000D01*
X133684440Y-116084045D01*
X133448632Y-116145932D01*
X133335734Y-116387790D01*
X133272189Y-116647027D01*
X133260439Y-116913680D01*
X129393000Y-116913680D01*
X129393000Y-116713000D01*
X129413000Y-116713000D01*
X129413000Y-115513750D01*
X129667000Y-115513750D01*
X129667000Y-116713000D01*
X130866250Y-116713000D01*
X131025000Y-116554250D01*
X131028072Y-115990000D01*
X131019646Y-115904440D01*
X133864045Y-115904440D01*
X134620000Y-116660395D01*
X135375955Y-115904440D01*
X135314068Y-115668632D01*
X135072210Y-115555734D01*
X134812973Y-115492189D01*
X134546320Y-115480439D01*
X134282499Y-115520937D01*
X134031647Y-115612125D01*
X133925932Y-115668632D01*
X133864045Y-115904440D01*
X131019646Y-115904440D01*
X131015812Y-115865518D01*
X130979502Y-115745820D01*
X130920537Y-115635506D01*
X130841185Y-115538815D01*
X130744494Y-115459463D01*
X130634180Y-115400498D01*
X130514482Y-115364188D01*
X130390000Y-115351928D01*
X129825750Y-115355000D01*
X129667000Y-115513750D01*
X129413000Y-115513750D01*
X129254250Y-115355000D01*
X128690000Y-115351928D01*
X128597000Y-115361087D01*
X128597000Y-88483867D01*
X129262061Y-87818807D01*
X129393740Y-87845000D01*
X129686260Y-87845000D01*
X129973158Y-87787932D01*
X130243411Y-87675990D01*
X130486632Y-87513475D01*
X130693475Y-87306632D01*
X130855990Y-87063411D01*
X130967932Y-86793158D01*
X131025000Y-86506260D01*
X131025000Y-86213740D01*
X130967932Y-85926842D01*
X130855990Y-85656589D01*
X130693475Y-85413368D01*
X130486632Y-85206525D01*
X130312240Y-85090000D01*
X130486632Y-84973475D01*
X130693475Y-84766632D01*
X130855990Y-84523411D01*
X130967932Y-84253158D01*
X131025000Y-83966260D01*
X131025000Y-83673740D01*
X130967932Y-83386842D01*
X130855990Y-83116589D01*
X130693475Y-82873368D01*
X130486632Y-82666525D01*
X130304466Y-82544805D01*
X130421355Y-82475178D01*
X130637588Y-82280269D01*
X130811641Y-82046920D01*
X130936825Y-81784099D01*
X130981476Y-81636890D01*
X130860155Y-81407000D01*
X129667000Y-81407000D01*
X129667000Y-81427000D01*
X129413000Y-81427000D01*
X129413000Y-81407000D01*
X128219845Y-81407000D01*
X128098524Y-81636890D01*
X128143175Y-81784099D01*
X128268359Y-82046920D01*
X128442412Y-82280269D01*
X128658645Y-82475178D01*
X128775534Y-82544805D01*
X128593368Y-82666525D01*
X128386525Y-82873368D01*
X128224010Y-83116589D01*
X128112068Y-83386842D01*
X128055000Y-83673740D01*
X128055000Y-83966260D01*
X128112068Y-84253158D01*
X128224010Y-84523411D01*
X128386525Y-84766632D01*
X128593368Y-84973475D01*
X128767760Y-85090000D01*
X128593368Y-85206525D01*
X128386525Y-85413368D01*
X128224010Y-85656589D01*
X128112068Y-85926842D01*
X128055000Y-86213740D01*
X128055000Y-86506260D01*
X128081193Y-86637939D01*
X127660000Y-87059132D01*
X127660000Y-79590000D01*
X128051928Y-79590000D01*
X128064188Y-79714482D01*
X128100498Y-79834180D01*
X128159463Y-79944494D01*
X128238815Y-80041185D01*
X128335506Y-80120537D01*
X128445820Y-80179502D01*
X128526466Y-80203966D01*
X128442412Y-80279731D01*
X128268359Y-80513080D01*
X128143175Y-80775901D01*
X128098524Y-80923110D01*
X128219845Y-81153000D01*
X129413000Y-81153000D01*
X129413000Y-78867000D01*
X129667000Y-78867000D01*
X129667000Y-81153000D01*
X130860155Y-81153000D01*
X130981476Y-80923110D01*
X130936825Y-80775901D01*
X130811641Y-80513080D01*
X130637588Y-80279731D01*
X130553534Y-80203966D01*
X130634180Y-80179502D01*
X130744494Y-80120537D01*
X130841185Y-80041185D01*
X130920537Y-79944494D01*
X130979502Y-79834180D01*
X131015812Y-79714482D01*
X131028072Y-79590000D01*
X131025000Y-79025750D01*
X130866250Y-78867000D01*
X129667000Y-78867000D01*
X129413000Y-78867000D01*
X128213750Y-78867000D01*
X128055000Y-79025750D01*
X128051928Y-79590000D01*
X127660000Y-79590000D01*
X127660000Y-77890000D01*
X128051928Y-77890000D01*
X128055000Y-78454250D01*
X128213750Y-78613000D01*
X129413000Y-78613000D01*
X129413000Y-77413750D01*
X129667000Y-77413750D01*
X129667000Y-78613000D01*
X130866250Y-78613000D01*
X131025000Y-78454250D01*
X131028072Y-77890000D01*
X131015812Y-77765518D01*
X130979502Y-77645820D01*
X130920537Y-77535506D01*
X130841185Y-77438815D01*
X130744494Y-77359463D01*
X130634180Y-77300498D01*
X130514482Y-77264188D01*
X130390000Y-77251928D01*
X129825750Y-77255000D01*
X129667000Y-77413750D01*
X129413000Y-77413750D01*
X129254250Y-77255000D01*
X128690000Y-77251928D01*
X128565518Y-77264188D01*
X128445820Y-77300498D01*
X128335506Y-77359463D01*
X128238815Y-77438815D01*
X128159463Y-77535506D01*
X128100498Y-77645820D01*
X128064188Y-77765518D01*
X128051928Y-77890000D01*
X127660000Y-77890000D01*
X127660000Y-76860000D01*
X146952332Y-76860000D01*
X146368932Y-77443400D01*
G37*
X146368932Y-77443400D02*
X146223809Y-77472267D01*
X146035451Y-77550288D01*
X145865933Y-77663556D01*
X145721770Y-77807719D01*
X145608502Y-77977237D01*
X145530481Y-78165595D01*
X145490707Y-78365554D01*
X145490707Y-78569432D01*
X145530481Y-78769391D01*
X145608502Y-78957749D01*
X145721770Y-79127267D01*
X145865933Y-79271430D01*
X146004176Y-79363801D01*
X142393669Y-79363801D01*
X141716445Y-78686578D01*
X141690291Y-78654709D01*
X141563146Y-78550364D01*
X141418087Y-78472828D01*
X141260689Y-78425082D01*
X141138019Y-78413000D01*
X141138018Y-78413000D01*
X141097000Y-78408960D01*
X141055982Y-78413000D01*
X136185018Y-78413000D01*
X136144000Y-78408960D01*
X136102982Y-78413000D01*
X136102981Y-78413000D01*
X135980311Y-78425082D01*
X135884157Y-78454250D01*
X135822913Y-78472828D01*
X135677854Y-78550364D01*
X135585004Y-78626564D01*
X135550709Y-78654709D01*
X135524562Y-78686569D01*
X134947573Y-79263559D01*
X134915710Y-79289709D01*
X134849809Y-79370010D01*
X134811364Y-79416855D01*
X134733828Y-79561914D01*
X134686082Y-79719312D01*
X134669960Y-79883000D01*
X134674001Y-79924029D01*
X134674000Y-102383715D01*
X134591795Y-102506744D01*
X134513774Y-102695102D01*
X134474000Y-102895061D01*
X134474000Y-103098939D01*
X134513774Y-103298898D01*
X134591795Y-103487256D01*
X134705063Y-103656774D01*
X134849226Y-103800937D01*
X135018744Y-103914205D01*
X135207102Y-103992226D01*
X135407061Y-104032000D01*
X135610939Y-104032000D01*
X135810898Y-103992226D01*
X135999256Y-103914205D01*
X136168774Y-103800937D01*
X136312937Y-103656774D01*
X136426205Y-103487256D01*
X136463025Y-103398366D01*
X136533859Y-103504378D01*
X136678022Y-103648541D01*
X136847540Y-103761809D01*
X137035898Y-103839830D01*
X137235857Y-103879604D01*
X137439735Y-103879604D01*
X137639694Y-103839830D01*
X137828052Y-103761809D01*
X137997570Y-103648541D01*
X138141733Y-103504378D01*
X138255001Y-103334860D01*
X138333022Y-103146502D01*
X138372796Y-102946543D01*
X138372796Y-102742665D01*
X138333022Y-102542706D01*
X138255001Y-102354348D01*
X138222796Y-102306150D01*
X138222796Y-90623204D01*
X143898327Y-90623204D01*
X143941796Y-90627485D01*
X143985265Y-90623204D01*
X143985273Y-90623204D01*
X144115286Y-90610399D01*
X144282109Y-90559793D01*
X144435855Y-90477615D01*
X144570613Y-90367021D01*
X144598330Y-90333248D01*
X144771043Y-90160535D01*
X144827898Y-90149226D01*
X145016256Y-90071205D01*
X145185774Y-89957937D01*
X145329937Y-89813774D01*
X145443205Y-89644256D01*
X145521226Y-89455898D01*
X145561000Y-89255939D01*
X145561000Y-89052061D01*
X145521226Y-88852102D01*
X145443205Y-88663744D01*
X145329937Y-88494226D01*
X145185774Y-88350063D01*
X145016256Y-88236795D01*
X144827898Y-88158774D01*
X144627939Y-88119000D01*
X144424061Y-88119000D01*
X144224102Y-88158774D01*
X144035744Y-88236795D01*
X143866226Y-88350063D01*
X143722063Y-88494226D01*
X143608795Y-88663744D01*
X143530774Y-88852102D01*
X143530555Y-88853204D01*
X138222796Y-88853204D01*
X138222796Y-84262782D01*
X138827444Y-83658135D01*
X138884298Y-83646826D01*
X139072656Y-83568805D01*
X139242174Y-83455537D01*
X139386337Y-83311374D01*
X139499605Y-83141856D01*
X139577626Y-82953498D01*
X139617400Y-82753539D01*
X139617400Y-82549661D01*
X139577626Y-82349702D01*
X139499605Y-82161344D01*
X139386337Y-81991826D01*
X139255511Y-81861000D01*
X154702133Y-81861000D01*
X154187733Y-82375400D01*
X151692485Y-82375400D01*
X151569456Y-82293195D01*
X151381098Y-82215174D01*
X151181139Y-82175400D01*
X150977261Y-82175400D01*
X150777302Y-82215174D01*
X150588944Y-82293195D01*
X150419426Y-82406463D01*
X150275263Y-82550626D01*
X150161995Y-82720144D01*
X150083974Y-82908502D01*
X150055108Y-83053625D01*
X147977774Y-85130959D01*
X147945910Y-85157109D01*
X147871374Y-85247932D01*
X147841564Y-85284255D01*
X147764028Y-85429314D01*
X147716282Y-85586712D01*
X147700160Y-85750400D01*
X147704201Y-85791429D01*
X147704200Y-105414002D01*
X147700160Y-105455020D01*
X147704200Y-105496038D01*
X147716282Y-105618708D01*
X147764028Y-105776106D01*
X147841564Y-105921165D01*
X147945909Y-106048311D01*
X147977779Y-106074466D01*
X156192098Y-114288787D01*
X156220964Y-114433908D01*
X156298985Y-114622266D01*
X156412253Y-114791784D01*
X156556416Y-114935947D01*
X156725934Y-115049215D01*
X156914292Y-115127236D01*
X157114251Y-115167010D01*
X157318129Y-115167010D01*
X157518088Y-115127236D01*
X157706446Y-115049215D01*
X157875964Y-114935947D01*
X158020127Y-114791784D01*
X158133395Y-114622266D01*
X158211416Y-114433908D01*
X158251190Y-114233949D01*
X158251190Y-114030071D01*
X158211416Y-113830112D01*
X158133395Y-113641754D01*
X158020127Y-113472236D01*
X157875964Y-113328073D01*
X157706446Y-113214805D01*
X157518088Y-113136784D01*
X157372967Y-113107918D01*
X149374200Y-105109153D01*
X149374200Y-86096267D01*
X151235975Y-84234492D01*
X151381098Y-84205626D01*
X151569456Y-84127605D01*
X151692485Y-84045400D01*
X154492582Y-84045400D01*
X154533600Y-84049440D01*
X154574618Y-84045400D01*
X154574619Y-84045400D01*
X154697289Y-84033318D01*
X154854687Y-83985572D01*
X154999746Y-83908036D01*
X155126891Y-83803691D01*
X155153046Y-83771821D01*
X156101613Y-82823254D01*
X157455193Y-82823254D01*
X157455193Y-83027132D01*
X157494967Y-83227091D01*
X157572988Y-83415449D01*
X157655194Y-83538479D01*
X157655193Y-90377174D01*
X157651153Y-90418193D01*
X157655193Y-90459211D01*
X157667275Y-90581881D01*
X157715021Y-90739279D01*
X157792557Y-90884338D01*
X157896902Y-91011484D01*
X157928772Y-91037639D01*
X160519908Y-93628775D01*
X160548774Y-93773898D01*
X160626795Y-93962256D01*
X160740063Y-94131774D01*
X160884226Y-94275937D01*
X161053744Y-94389205D01*
X161242102Y-94467226D01*
X161442061Y-94507000D01*
X161645939Y-94507000D01*
X161845898Y-94467226D01*
X162034256Y-94389205D01*
X162203774Y-94275937D01*
X162347937Y-94131774D01*
X162461205Y-93962256D01*
X162539226Y-93773898D01*
X162579000Y-93573939D01*
X162579000Y-93370061D01*
X162539226Y-93170102D01*
X162461205Y-92981744D01*
X162347937Y-92812226D01*
X162203774Y-92668063D01*
X162034256Y-92554795D01*
X161845898Y-92476774D01*
X161700775Y-92447908D01*
X159325193Y-90072326D01*
X159325193Y-83538478D01*
X159407398Y-83415449D01*
X159485419Y-83227091D01*
X159525193Y-83027132D01*
X159525193Y-82823254D01*
X159485419Y-82623295D01*
X159407398Y-82434937D01*
X159294130Y-82265419D01*
X159149967Y-82121256D01*
X158980449Y-82007988D01*
X158792091Y-81929967D01*
X158592132Y-81890193D01*
X158388254Y-81890193D01*
X158188295Y-81929967D01*
X157999937Y-82007988D01*
X157830419Y-82121256D01*
X157686256Y-82265419D01*
X157572988Y-82434937D01*
X157494967Y-82623295D01*
X157455193Y-82823254D01*
X156101613Y-82823254D01*
X158576577Y-80348292D01*
X158721698Y-80319426D01*
X158910056Y-80241405D01*
X159079574Y-80128137D01*
X159223737Y-79983974D01*
X159337005Y-79814456D01*
X159415026Y-79626098D01*
X159454800Y-79426139D01*
X159454800Y-79222261D01*
X159415026Y-79022302D01*
X159337005Y-78833944D01*
X159223737Y-78664426D01*
X159079574Y-78520263D01*
X158910056Y-78406995D01*
X158721698Y-78328974D01*
X158521739Y-78289200D01*
X158317861Y-78289200D01*
X158117902Y-78328974D01*
X157929544Y-78406995D01*
X157760026Y-78520263D01*
X157615863Y-78664426D01*
X157502595Y-78833944D01*
X157424574Y-79022302D01*
X157395708Y-79167423D01*
X156224421Y-80338710D01*
X156107774Y-80222063D01*
X155938256Y-80108795D01*
X155749898Y-80030774D01*
X155549939Y-79991000D01*
X155346061Y-79991000D01*
X155146102Y-80030774D01*
X154957744Y-80108795D01*
X154834715Y-80191000D01*
X153630010Y-80191000D01*
X153630010Y-80103071D01*
X153590236Y-79903112D01*
X153512215Y-79714754D01*
X153398947Y-79545236D01*
X153254784Y-79401073D01*
X153085266Y-79287805D01*
X152896908Y-79209784D01*
X152696949Y-79170010D01*
X152493071Y-79170010D01*
X152293112Y-79209784D01*
X152104754Y-79287805D01*
X151981725Y-79370010D01*
X150029259Y-79370010D01*
X149966218Y-79363801D01*
X149966217Y-79363801D01*
X149925199Y-79359761D01*
X149884181Y-79363801D01*
X147047238Y-79363801D01*
X147185481Y-79271430D01*
X147329644Y-79127267D01*
X147442912Y-78957749D01*
X147520933Y-78769391D01*
X147549800Y-78624268D01*
X148164437Y-78009630D01*
X148225287Y-77991172D01*
X148370346Y-77913636D01*
X148497491Y-77809291D01*
X148549268Y-77746200D01*
X168335533Y-77746200D01*
X169315001Y-78725669D01*
X169315001Y-82048491D01*
X169091335Y-82004000D01*
X168808665Y-82004000D01*
X168531426Y-82059147D01*
X168270273Y-82167320D01*
X168035241Y-82324363D01*
X167835363Y-82524241D01*
X167678320Y-82759273D01*
X167570147Y-83020426D01*
X167515000Y-83297665D01*
X167515000Y-83580335D01*
X167570147Y-83857574D01*
X167678320Y-84118727D01*
X167835363Y-84353759D01*
X168035241Y-84553637D01*
X168115001Y-84606931D01*
X168115000Y-94229132D01*
X163392764Y-98951369D01*
X163363937Y-98908226D01*
X163219774Y-98764063D01*
X163050256Y-98650795D01*
X162861898Y-98572774D01*
X162661939Y-98533000D01*
X162458061Y-98533000D01*
X162258102Y-98572774D01*
X162069744Y-98650795D01*
X161970186Y-98717318D01*
X157680000Y-94427134D01*
X157680000Y-92815285D01*
X157762205Y-92692256D01*
X157840226Y-92503898D01*
X157880000Y-92303939D01*
X157880000Y-92100061D01*
X157840226Y-91900102D01*
X157762205Y-91711744D01*
X157648937Y-91542226D01*
X157504774Y-91398063D01*
X157335256Y-91284795D01*
X157146898Y-91206774D01*
X156946939Y-91167000D01*
X156743061Y-91167000D01*
X156543102Y-91206774D01*
X156354744Y-91284795D01*
X156185226Y-91398063D01*
X156041063Y-91542226D01*
X155927795Y-91711744D01*
X155849774Y-91900102D01*
X155810000Y-92100061D01*
X155810000Y-92303939D01*
X155849774Y-92503898D01*
X155927795Y-92692256D01*
X156010001Y-92815286D01*
X156010000Y-94731982D01*
X156005960Y-94773001D01*
X156010000Y-94814019D01*
X156022082Y-94936689D01*
X156069828Y-95094087D01*
X156147364Y-95239146D01*
X156251709Y-95366292D01*
X156283579Y-95392447D01*
X158862131Y-97971000D01*
X158156018Y-97971000D01*
X158115000Y-97966960D01*
X158073981Y-97971000D01*
X157951311Y-97983082D01*
X157793913Y-98030828D01*
X157648854Y-98108364D01*
X157521709Y-98212709D01*
X157495563Y-98244568D01*
X154910225Y-100829907D01*
X154765102Y-100858774D01*
X154576744Y-100936795D01*
X154407226Y-101050063D01*
X154263063Y-101194226D01*
X154149795Y-101363744D01*
X154071774Y-101552102D01*
X154032000Y-101752061D01*
X154032000Y-101955939D01*
X154071774Y-102155898D01*
X154149795Y-102344256D01*
X154263063Y-102513774D01*
X154407226Y-102657937D01*
X154576744Y-102771205D01*
X154765102Y-102849226D01*
X154965061Y-102889000D01*
X155168939Y-102889000D01*
X155368898Y-102849226D01*
X155375001Y-102846698D01*
X155375000Y-106193715D01*
X155292795Y-106316744D01*
X155214774Y-106505102D01*
X155175000Y-106705061D01*
X155175000Y-106908939D01*
X155214774Y-107108898D01*
X155292795Y-107297256D01*
X155406063Y-107466774D01*
X155550226Y-107610937D01*
X155719744Y-107724205D01*
X155908102Y-107802226D01*
X156108061Y-107842000D01*
X156311939Y-107842000D01*
X156511898Y-107802226D01*
X156700256Y-107724205D01*
X156869774Y-107610937D01*
X157013937Y-107466774D01*
X157127205Y-107297256D01*
X157205226Y-107108898D01*
X157245000Y-106908939D01*
X157245000Y-106705061D01*
X157205226Y-106505102D01*
X157127205Y-106316744D01*
X157045000Y-106193715D01*
X157045000Y-102453867D01*
X157315790Y-102183077D01*
X158702180Y-102183077D01*
X158702180Y-102386955D01*
X158741954Y-102586914D01*
X158819975Y-102775272D01*
X158902181Y-102898302D01*
X158902180Y-108261161D01*
X158898140Y-108302180D01*
X158902180Y-108343198D01*
X158914262Y-108465868D01*
X158962008Y-108623266D01*
X159039544Y-108768325D01*
X159143889Y-108895471D01*
X159175758Y-108921625D01*
X159884908Y-109630776D01*
X159913774Y-109775898D01*
X159991795Y-109964256D01*
X160105063Y-110133774D01*
X160249226Y-110277937D01*
X160418744Y-110391205D01*
X160607102Y-110469226D01*
X160807061Y-110509000D01*
X161010939Y-110509000D01*
X161210898Y-110469226D01*
X161399256Y-110391205D01*
X161568774Y-110277937D01*
X161712937Y-110133774D01*
X161826205Y-109964256D01*
X161904226Y-109775898D01*
X161944000Y-109575939D01*
X161944000Y-109372061D01*
X161904226Y-109172102D01*
X161826205Y-108983744D01*
X161712937Y-108814226D01*
X161568774Y-108670063D01*
X161399256Y-108556795D01*
X161210898Y-108478774D01*
X161065776Y-108449908D01*
X160572180Y-107956313D01*
X160572180Y-107530000D01*
X181391928Y-107530000D01*
X181404188Y-107654482D01*
X181440498Y-107774180D01*
X181499463Y-107884494D01*
X181578815Y-107981185D01*
X181675506Y-108060537D01*
X181785820Y-108119502D01*
X181866466Y-108143966D01*
X181782412Y-108219731D01*
X181608359Y-108453080D01*
X181483175Y-108715901D01*
X181438524Y-108863110D01*
X181559845Y-109093000D01*
X182753000Y-109093000D01*
X182753000Y-106807000D01*
X183007000Y-106807000D01*
X183007000Y-109093000D01*
X184200155Y-109093000D01*
X184321476Y-108863110D01*
X184276825Y-108715901D01*
X184151641Y-108453080D01*
X183977588Y-108219731D01*
X183893534Y-108143966D01*
X183974180Y-108119502D01*
X184084494Y-108060537D01*
X184181185Y-107981185D01*
X184260537Y-107884494D01*
X184319502Y-107774180D01*
X184355812Y-107654482D01*
X184368072Y-107530000D01*
X184365000Y-106965750D01*
X184206250Y-106807000D01*
X183007000Y-106807000D01*
X182753000Y-106807000D01*
X181553750Y-106807000D01*
X181395000Y-106965750D01*
X181391928Y-107530000D01*
X160572180Y-107530000D01*
X160572180Y-106784405D01*
X160626795Y-106916256D01*
X160740063Y-107085774D01*
X160884226Y-107229937D01*
X161053744Y-107343205D01*
X161242102Y-107421226D01*
X161442061Y-107461000D01*
X161645939Y-107461000D01*
X161845898Y-107421226D01*
X162034256Y-107343205D01*
X162157285Y-107261000D01*
X162518982Y-107261000D01*
X162560000Y-107265040D01*
X162601018Y-107261000D01*
X162601019Y-107261000D01*
X162723689Y-107248918D01*
X162881087Y-107201172D01*
X163026146Y-107123636D01*
X163153291Y-107019291D01*
X163179446Y-106987421D01*
X163986775Y-106180092D01*
X164131898Y-106151226D01*
X164320256Y-106073205D01*
X164489774Y-105959937D01*
X164619711Y-105830000D01*
X181391928Y-105830000D01*
X181395000Y-106394250D01*
X181553750Y-106553000D01*
X182753000Y-106553000D01*
X182753000Y-105353750D01*
X183007000Y-105353750D01*
X183007000Y-106553000D01*
X184206250Y-106553000D01*
X184365000Y-106394250D01*
X184368072Y-105830000D01*
X184355812Y-105705518D01*
X184319502Y-105585820D01*
X184260537Y-105475506D01*
X184181185Y-105378815D01*
X184084494Y-105299463D01*
X183974180Y-105240498D01*
X183854482Y-105204188D01*
X183730000Y-105191928D01*
X183165750Y-105195000D01*
X183007000Y-105353750D01*
X182753000Y-105353750D01*
X182594250Y-105195000D01*
X182030000Y-105191928D01*
X181905518Y-105204188D01*
X181785820Y-105240498D01*
X181675506Y-105299463D01*
X181578815Y-105378815D01*
X181499463Y-105475506D01*
X181440498Y-105585820D01*
X181404188Y-105705518D01*
X181391928Y-105830000D01*
X164619711Y-105830000D01*
X164633937Y-105815774D01*
X164747205Y-105646256D01*
X164825226Y-105457898D01*
X164865000Y-105257939D01*
X164865000Y-105054061D01*
X164825226Y-104854102D01*
X164747205Y-104665744D01*
X164633937Y-104496226D01*
X164489774Y-104352063D01*
X164320256Y-104238795D01*
X164131898Y-104160774D01*
X163931939Y-104121000D01*
X163728061Y-104121000D01*
X163528102Y-104160774D01*
X163339744Y-104238795D01*
X163170226Y-104352063D01*
X163026063Y-104496226D01*
X162912795Y-104665744D01*
X162834774Y-104854102D01*
X162805908Y-104999225D01*
X162214133Y-105591000D01*
X162157285Y-105591000D01*
X162034256Y-105508795D01*
X161845898Y-105430774D01*
X161645939Y-105391000D01*
X161442061Y-105391000D01*
X161242102Y-105430774D01*
X161053744Y-105508795D01*
X160884226Y-105622063D01*
X160740063Y-105766226D01*
X160626795Y-105935744D01*
X160572180Y-106067595D01*
X160572180Y-102898301D01*
X160654385Y-102775272D01*
X160732406Y-102586914D01*
X160772180Y-102386955D01*
X160772180Y-102183077D01*
X160732406Y-101983118D01*
X160654385Y-101794760D01*
X160541117Y-101625242D01*
X160396954Y-101481079D01*
X160227436Y-101367811D01*
X160039078Y-101289790D01*
X159839119Y-101250016D01*
X159635241Y-101250016D01*
X159435282Y-101289790D01*
X159246924Y-101367811D01*
X159077406Y-101481079D01*
X158933243Y-101625242D01*
X158819975Y-101794760D01*
X158741954Y-101983118D01*
X158702180Y-102183077D01*
X157315790Y-102183077D01*
X158947994Y-100550874D01*
X159051161Y-100550874D01*
X159174190Y-100633079D01*
X159362548Y-100711100D01*
X159562507Y-100750874D01*
X159766385Y-100750874D01*
X159966344Y-100711100D01*
X160154702Y-100633079D01*
X160324220Y-100519811D01*
X160375081Y-100468950D01*
X161178563Y-101272432D01*
X161204709Y-101304291D01*
X161236568Y-101330437D01*
X161236570Y-101330439D01*
X161331854Y-101408636D01*
X161476913Y-101486172D01*
X161634311Y-101533918D01*
X161798000Y-101550040D01*
X161839018Y-101546000D01*
X162772982Y-101546000D01*
X162814000Y-101550040D01*
X162855018Y-101546000D01*
X162855019Y-101546000D01*
X162977689Y-101533918D01*
X163135087Y-101486172D01*
X163280146Y-101408636D01*
X163407291Y-101304291D01*
X163433446Y-101272421D01*
X164183879Y-100521988D01*
X164294720Y-100632829D01*
X164464238Y-100746097D01*
X164652596Y-100824118D01*
X164797719Y-100852985D01*
X167477761Y-103533027D01*
X167503911Y-103564891D01*
X167631056Y-103669236D01*
X167776115Y-103746772D01*
X167933513Y-103794518D01*
X168056183Y-103806600D01*
X168056193Y-103806600D01*
X168097201Y-103810639D01*
X168138209Y-103806600D01*
X173745782Y-103806600D01*
X173786800Y-103810640D01*
X173827818Y-103806600D01*
X173827819Y-103806600D01*
X173950489Y-103794518D01*
X174107887Y-103746772D01*
X174252946Y-103669236D01*
X174380091Y-103564891D01*
X174406246Y-103533021D01*
X176735827Y-101203441D01*
X176767691Y-101177291D01*
X176872036Y-101050146D01*
X176949572Y-100905087D01*
X176997318Y-100747689D01*
X177009400Y-100625019D01*
X177009400Y-100625009D01*
X177013439Y-100584001D01*
X177009400Y-100542993D01*
X177009400Y-94694885D01*
X177091605Y-94571856D01*
X177169626Y-94383498D01*
X177209400Y-94183539D01*
X177209400Y-93979661D01*
X177169626Y-93779702D01*
X177091605Y-93591344D01*
X176978337Y-93421826D01*
X176834174Y-93277663D01*
X176664656Y-93164395D01*
X176476298Y-93086374D01*
X176276339Y-93046600D01*
X176072461Y-93046600D01*
X175872502Y-93086374D01*
X175684144Y-93164395D01*
X175514626Y-93277663D01*
X175370463Y-93421826D01*
X175257195Y-93591344D01*
X175179174Y-93779702D01*
X175139400Y-93979661D01*
X175139400Y-94183539D01*
X175179174Y-94383498D01*
X175257195Y-94571856D01*
X175339400Y-94694885D01*
X175339401Y-100238131D01*
X173440933Y-102136600D01*
X168443070Y-102136600D01*
X165978587Y-99672117D01*
X165949720Y-99526994D01*
X165871699Y-99338636D01*
X165758431Y-99169118D01*
X165647590Y-99058277D01*
X169315002Y-95390866D01*
X169315002Y-97203592D01*
X169310961Y-97244621D01*
X169327083Y-97408309D01*
X169374829Y-97565707D01*
X169374830Y-97565708D01*
X169452366Y-97710767D01*
X169556711Y-97837912D01*
X169588575Y-97864062D01*
X171810298Y-100085785D01*
X171839164Y-100230908D01*
X171917185Y-100419266D01*
X172030453Y-100588784D01*
X172174616Y-100732947D01*
X172344134Y-100846215D01*
X172532492Y-100924236D01*
X172732451Y-100964010D01*
X172936329Y-100964010D01*
X173136288Y-100924236D01*
X173324646Y-100846215D01*
X173494164Y-100732947D01*
X173638327Y-100588784D01*
X173751595Y-100419266D01*
X173829616Y-100230908D01*
X173869390Y-100030949D01*
X173869390Y-99827071D01*
X173829616Y-99627112D01*
X173751595Y-99438754D01*
X173638327Y-99269236D01*
X173494164Y-99125073D01*
X173324646Y-99011805D01*
X173136288Y-98933784D01*
X172991165Y-98904918D01*
X170985001Y-96898754D01*
X170985001Y-84877072D01*
X172250000Y-84877072D01*
X172374482Y-84864812D01*
X172494180Y-84828502D01*
X172604494Y-84769537D01*
X172701185Y-84690185D01*
X172780537Y-84593494D01*
X172839502Y-84483180D01*
X172875812Y-84363482D01*
X172888072Y-84239000D01*
X172888072Y-83673740D01*
X181395000Y-83673740D01*
X181395000Y-83966260D01*
X181452068Y-84253158D01*
X181564010Y-84523411D01*
X181726525Y-84766632D01*
X181933368Y-84973475D01*
X182107760Y-85090000D01*
X181933368Y-85206525D01*
X181726525Y-85413368D01*
X181564010Y-85656589D01*
X181452068Y-85926842D01*
X181395000Y-86213740D01*
X181395000Y-86506260D01*
X181452068Y-86793158D01*
X181564010Y-87063411D01*
X181726525Y-87306632D01*
X181933368Y-87513475D01*
X182176589Y-87675990D01*
X182446842Y-87787932D01*
X182733740Y-87845000D01*
X183026260Y-87845000D01*
X183313158Y-87787932D01*
X183583411Y-87675990D01*
X183826632Y-87513475D01*
X184033475Y-87306632D01*
X184195990Y-87063411D01*
X184307932Y-86793158D01*
X184365000Y-86506260D01*
X184365000Y-86213740D01*
X184307932Y-85926842D01*
X184195990Y-85656589D01*
X184033475Y-85413368D01*
X183826632Y-85206525D01*
X183652240Y-85090000D01*
X183826632Y-84973475D01*
X184033475Y-84766632D01*
X184195990Y-84523411D01*
X184307932Y-84253158D01*
X184365000Y-83966260D01*
X184365000Y-83673740D01*
X184307932Y-83386842D01*
X184195990Y-83116589D01*
X184033475Y-82873368D01*
X183826632Y-82666525D01*
X183644466Y-82544805D01*
X183761355Y-82475178D01*
X183977588Y-82280269D01*
X184151641Y-82046920D01*
X184276825Y-81784099D01*
X184321476Y-81636890D01*
X184200155Y-81407000D01*
X183007000Y-81407000D01*
X183007000Y-81427000D01*
X182753000Y-81427000D01*
X182753000Y-81407000D01*
X181559845Y-81407000D01*
X181438524Y-81636890D01*
X181483175Y-81784099D01*
X181608359Y-82046920D01*
X181782412Y-82280269D01*
X181998645Y-82475178D01*
X182115534Y-82544805D01*
X181933368Y-82666525D01*
X181726525Y-82873368D01*
X181564010Y-83116589D01*
X181452068Y-83386842D01*
X181395000Y-83673740D01*
X172888072Y-83673740D01*
X172888072Y-82639000D01*
X172875812Y-82514518D01*
X172839502Y-82394820D01*
X172780537Y-82284506D01*
X172701185Y-82187815D01*
X172604494Y-82108463D01*
X172494180Y-82049498D01*
X172374482Y-82013188D01*
X172250000Y-82000928D01*
X170985001Y-82000928D01*
X170985001Y-79590000D01*
X181391928Y-79590000D01*
X181404188Y-79714482D01*
X181440498Y-79834180D01*
X181499463Y-79944494D01*
X181578815Y-80041185D01*
X181675506Y-80120537D01*
X181785820Y-80179502D01*
X181866466Y-80203966D01*
X181782412Y-80279731D01*
X181608359Y-80513080D01*
X181483175Y-80775901D01*
X181438524Y-80923110D01*
X181559845Y-81153000D01*
X182753000Y-81153000D01*
X182753000Y-78867000D01*
X183007000Y-78867000D01*
X183007000Y-81153000D01*
X184200155Y-81153000D01*
X184321476Y-80923110D01*
X184276825Y-80775901D01*
X184151641Y-80513080D01*
X183977588Y-80279731D01*
X183893534Y-80203966D01*
X183974180Y-80179502D01*
X184084494Y-80120537D01*
X184181185Y-80041185D01*
X184260537Y-79944494D01*
X184319502Y-79834180D01*
X184355812Y-79714482D01*
X184368072Y-79590000D01*
X184365000Y-79025750D01*
X184206250Y-78867000D01*
X183007000Y-78867000D01*
X182753000Y-78867000D01*
X181553750Y-78867000D01*
X181395000Y-79025750D01*
X181391928Y-79590000D01*
X170985001Y-79590000D01*
X170985001Y-78420808D01*
X170989040Y-78379800D01*
X170985001Y-78338792D01*
X170985001Y-78338782D01*
X170972919Y-78216112D01*
X170925173Y-78058714D01*
X170847637Y-77913655D01*
X170828224Y-77890000D01*
X181391928Y-77890000D01*
X181395000Y-78454250D01*
X181553750Y-78613000D01*
X182753000Y-78613000D01*
X182753000Y-77413750D01*
X183007000Y-77413750D01*
X183007000Y-78613000D01*
X184206250Y-78613000D01*
X184365000Y-78454250D01*
X184368072Y-77890000D01*
X184355812Y-77765518D01*
X184319502Y-77645820D01*
X184260537Y-77535506D01*
X184181185Y-77438815D01*
X184084494Y-77359463D01*
X183974180Y-77300498D01*
X183854482Y-77264188D01*
X183730000Y-77251928D01*
X183165750Y-77255000D01*
X183007000Y-77413750D01*
X182753000Y-77413750D01*
X182594250Y-77255000D01*
X182030000Y-77251928D01*
X181905518Y-77264188D01*
X181785820Y-77300498D01*
X181675506Y-77359463D01*
X181578815Y-77438815D01*
X181499463Y-77535506D01*
X181440498Y-77645820D01*
X181404188Y-77765518D01*
X181391928Y-77890000D01*
X170828224Y-77890000D01*
X170743292Y-77786510D01*
X170711429Y-77760361D01*
X169811067Y-76860000D01*
X184760000Y-76860000D01*
X184760001Y-126340000D01*
X175729268Y-126340000D01*
X176229576Y-125839692D01*
X176374698Y-125810826D01*
X176563056Y-125732805D01*
X176732574Y-125619537D01*
X176876737Y-125475374D01*
X176990005Y-125305856D01*
X177068026Y-125117498D01*
X177107800Y-124917539D01*
X177107800Y-124837000D01*
X180735422Y-124837000D01*
X180953466Y-125055044D01*
X180981183Y-125088817D01*
X181115941Y-125199411D01*
X181269687Y-125281589D01*
X181436510Y-125332195D01*
X181566523Y-125345000D01*
X181566533Y-125345000D01*
X181609999Y-125349281D01*
X181653465Y-125345000D01*
X181685344Y-125345000D01*
X181726525Y-125406632D01*
X181933368Y-125613475D01*
X182176589Y-125775990D01*
X182446842Y-125887932D01*
X182733740Y-125945000D01*
X183026260Y-125945000D01*
X183313158Y-125887932D01*
X183583411Y-125775990D01*
X183826632Y-125613475D01*
X184033475Y-125406632D01*
X184195990Y-125163411D01*
X184307932Y-124893158D01*
X184365000Y-124606260D01*
X184365000Y-124313740D01*
X184307932Y-124026842D01*
X184195990Y-123756589D01*
X184033475Y-123513368D01*
X183826632Y-123306525D01*
X183652240Y-123190000D01*
X183826632Y-123073475D01*
X184033475Y-122866632D01*
X184195990Y-122623411D01*
X184307932Y-122353158D01*
X184365000Y-122066260D01*
X184365000Y-121773740D01*
X184307932Y-121486842D01*
X184195990Y-121216589D01*
X184033475Y-120973368D01*
X183826632Y-120766525D01*
X183652240Y-120650000D01*
X183826632Y-120533475D01*
X184033475Y-120326632D01*
X184195990Y-120083411D01*
X184307932Y-119813158D01*
X184365000Y-119526260D01*
X184365000Y-119233740D01*
X184307932Y-118946842D01*
X184195990Y-118676589D01*
X184033475Y-118433368D01*
X183826632Y-118226525D01*
X183652240Y-118110000D01*
X183826632Y-117993475D01*
X184033475Y-117786632D01*
X184195990Y-117543411D01*
X184307932Y-117273158D01*
X184365000Y-116986260D01*
X184365000Y-116693740D01*
X184307932Y-116406842D01*
X184195990Y-116136589D01*
X184033475Y-115893368D01*
X183826632Y-115686525D01*
X183652240Y-115570000D01*
X183826632Y-115453475D01*
X184033475Y-115246632D01*
X184195990Y-115003411D01*
X184307932Y-114733158D01*
X184365000Y-114446260D01*
X184365000Y-114153740D01*
X184307932Y-113866842D01*
X184195990Y-113596589D01*
X184033475Y-113353368D01*
X183826632Y-113146525D01*
X183652240Y-113030000D01*
X183826632Y-112913475D01*
X184033475Y-112706632D01*
X184195990Y-112463411D01*
X184307932Y-112193158D01*
X184365000Y-111906260D01*
X184365000Y-111613740D01*
X184307932Y-111326842D01*
X184195990Y-111056589D01*
X184033475Y-110813368D01*
X183826632Y-110606525D01*
X183644466Y-110484805D01*
X183761355Y-110415178D01*
X183977588Y-110220269D01*
X184151641Y-109986920D01*
X184276825Y-109724099D01*
X184321476Y-109576890D01*
X184200155Y-109347000D01*
X183007000Y-109347000D01*
X183007000Y-109367000D01*
X182753000Y-109367000D01*
X182753000Y-109347000D01*
X181559845Y-109347000D01*
X181438524Y-109576890D01*
X181483175Y-109724099D01*
X181608359Y-109986920D01*
X181782412Y-110220269D01*
X181998645Y-110415178D01*
X182115534Y-110484805D01*
X181933368Y-110606525D01*
X181726525Y-110813368D01*
X181564010Y-111056589D01*
X181452068Y-111326842D01*
X181395000Y-111613740D01*
X181395000Y-111906260D01*
X181452068Y-112193158D01*
X181564010Y-112463411D01*
X181726525Y-112706632D01*
X181933368Y-112913475D01*
X182107760Y-113030000D01*
X181933368Y-113146525D01*
X181726525Y-113353368D01*
X181564010Y-113596589D01*
X181452068Y-113866842D01*
X181395000Y-114153740D01*
X181395000Y-114446260D01*
X181452068Y-114733158D01*
X181564010Y-115003411D01*
X181726525Y-115246632D01*
X181933368Y-115453475D01*
X182107760Y-115570000D01*
X181933368Y-115686525D01*
X181726525Y-115893368D01*
X181564010Y-116136589D01*
X181452068Y-116406842D01*
X181395000Y-116693740D01*
X181395000Y-116986260D01*
X181452068Y-117273158D01*
X181564010Y-117543411D01*
X181726525Y-117786632D01*
X181933368Y-117993475D01*
X182107760Y-118110000D01*
X181933368Y-118226525D01*
X181726525Y-118433368D01*
X181564010Y-118676589D01*
X181452068Y-118946842D01*
X181395000Y-119233740D01*
X181395000Y-119526260D01*
X181452068Y-119813158D01*
X181564010Y-120083411D01*
X181726525Y-120326632D01*
X181933368Y-120533475D01*
X182107760Y-120650000D01*
X181933368Y-120766525D01*
X181726525Y-120973368D01*
X181564010Y-121216589D01*
X181452068Y-121486842D01*
X181395000Y-121773740D01*
X181395000Y-122066260D01*
X181452068Y-122353158D01*
X181564010Y-122623411D01*
X181726525Y-122866632D01*
X181933368Y-123073475D01*
X182107760Y-123190000D01*
X181933368Y-123306525D01*
X181820736Y-123419158D01*
X181758534Y-123356956D01*
X181730817Y-123323183D01*
X181596059Y-123212589D01*
X181442313Y-123130411D01*
X181275490Y-123079805D01*
X181145477Y-123067000D01*
X181145469Y-123067000D01*
X181102000Y-123062719D01*
X181058531Y-123067000D01*
X156494454Y-123067000D01*
X156446256Y-123034795D01*
X156257898Y-122956774D01*
X156057939Y-122917000D01*
X155854061Y-122917000D01*
X155654102Y-122956774D01*
X155465744Y-123034795D01*
X155417546Y-123067000D01*
X150127219Y-123067000D01*
X150133000Y-123037939D01*
X150133000Y-122834061D01*
X150093226Y-122634102D01*
X150015205Y-122445744D01*
X149933000Y-122322715D01*
X149933000Y-121199018D01*
X149937040Y-121158000D01*
X149920918Y-120994312D01*
X149917924Y-120984440D01*
X149873172Y-120836913D01*
X149795636Y-120691854D01*
X149734264Y-120617072D01*
X149717439Y-120596570D01*
X149717437Y-120596568D01*
X149691291Y-120564709D01*
X149659432Y-120538563D01*
X148668251Y-119547384D01*
X148675000Y-119513456D01*
X148675000Y-119246544D01*
X148622928Y-118984761D01*
X148520785Y-118738167D01*
X148372497Y-118516238D01*
X148183762Y-118327503D01*
X147961833Y-118179215D01*
X147794734Y-118110000D01*
X147961833Y-118040785D01*
X148183762Y-117892497D01*
X148372497Y-117703762D01*
X148520785Y-117481833D01*
X148622928Y-117235239D01*
X148675000Y-116973456D01*
X148675000Y-116706544D01*
X148622928Y-116444761D01*
X148520785Y-116198167D01*
X148372497Y-115976238D01*
X148183762Y-115787503D01*
X147961833Y-115639215D01*
X147715239Y-115537072D01*
X147453456Y-115485000D01*
X147186544Y-115485000D01*
X146924761Y-115537072D01*
X146678167Y-115639215D01*
X146456238Y-115787503D01*
X146267503Y-115976238D01*
X146119215Y-116198167D01*
X146017072Y-116444761D01*
X145965000Y-116706544D01*
X145965000Y-116973456D01*
X146017072Y-117235239D01*
X146119215Y-117481833D01*
X146267503Y-117703762D01*
X146456238Y-117892497D01*
X146678167Y-118040785D01*
X146845266Y-118110000D01*
X146678167Y-118179215D01*
X146456238Y-118327503D01*
X146267503Y-118516238D01*
X146119215Y-118738167D01*
X146017072Y-118984761D01*
X145965000Y-119246544D01*
X145965000Y-119513456D01*
X146017072Y-119775239D01*
X146119215Y-120021833D01*
X146267503Y-120243762D01*
X146456238Y-120432497D01*
X146678167Y-120580785D01*
X146845266Y-120650000D01*
X146678167Y-120719215D01*
X146456238Y-120867503D01*
X146267503Y-121056238D01*
X146119215Y-121278167D01*
X146017072Y-121524761D01*
X145965000Y-121786544D01*
X145965000Y-122053456D01*
X146017072Y-122315239D01*
X146119215Y-122561833D01*
X146267503Y-122783762D01*
X146456238Y-122972497D01*
X146597672Y-123067000D01*
X141670463Y-123067000D01*
X141725955Y-122855560D01*
X140970000Y-122099605D01*
X140955858Y-122113748D01*
X140776253Y-121934143D01*
X140790395Y-121920000D01*
X141149605Y-121920000D01*
X141905560Y-122675955D01*
X142141368Y-122614068D01*
X142254266Y-122372210D01*
X142317811Y-122112973D01*
X142329561Y-121846320D01*
X142289063Y-121582499D01*
X142197875Y-121331647D01*
X142141368Y-121225932D01*
X141905560Y-121164045D01*
X141149605Y-121920000D01*
X140790395Y-121920000D01*
X140776253Y-121905858D01*
X140955858Y-121726253D01*
X140970000Y-121740395D01*
X141725955Y-120984440D01*
X141664068Y-120748632D01*
X141448993Y-120648236D01*
X141611833Y-120580785D01*
X141833762Y-120432497D01*
X142022497Y-120243762D01*
X142170785Y-120021833D01*
X142272928Y-119775239D01*
X142325000Y-119513456D01*
X142325000Y-119246544D01*
X142272928Y-118984761D01*
X142170785Y-118738167D01*
X142022497Y-118516238D01*
X141833762Y-118327503D01*
X141611833Y-118179215D01*
X141444734Y-118110000D01*
X141611833Y-118040785D01*
X141833762Y-117892497D01*
X142022497Y-117703762D01*
X142170785Y-117481833D01*
X142272928Y-117235239D01*
X142325000Y-116973456D01*
X142325000Y-116706544D01*
X142272928Y-116444761D01*
X142170785Y-116198167D01*
X142022497Y-115976238D01*
X141833762Y-115787503D01*
X141611833Y-115639215D01*
X141365239Y-115537072D01*
X141103456Y-115485000D01*
X140836544Y-115485000D01*
X140574761Y-115537072D01*
X140328167Y-115639215D01*
X140106238Y-115787503D01*
X139917503Y-115976238D01*
X139769215Y-116198167D01*
X139667072Y-116444761D01*
X139615000Y-116706544D01*
X139615000Y-116943422D01*
X139204950Y-117353472D01*
X139171183Y-117381184D01*
X139143470Y-117414952D01*
X139143467Y-117414955D01*
X139060589Y-117515942D01*
X138978411Y-117669688D01*
X138927804Y-117836511D01*
X138910718Y-118010001D01*
X138915000Y-118053480D01*
X138914999Y-122438132D01*
X138910718Y-122481601D01*
X138914999Y-122525070D01*
X138914999Y-122525077D01*
X138927804Y-122655090D01*
X138978410Y-122821913D01*
X139060588Y-122975659D01*
X139171182Y-123110418D01*
X139204955Y-123138135D01*
X140613868Y-124547049D01*
X140641581Y-124580817D01*
X140675349Y-124608530D01*
X140675351Y-124608532D01*
X140728210Y-124651912D01*
X140776339Y-124691411D01*
X140930085Y-124773589D01*
X141096908Y-124824195D01*
X141226921Y-124837000D01*
X141226931Y-124837000D01*
X141270397Y-124841281D01*
X141313863Y-124837000D01*
X155417546Y-124837000D01*
X155465744Y-124869205D01*
X155654102Y-124947226D01*
X155854061Y-124987000D01*
X156057939Y-124987000D01*
X156257898Y-124947226D01*
X156446256Y-124869205D01*
X156494454Y-124837000D01*
X174870532Y-124837000D01*
X174050533Y-125657000D01*
X130421492Y-125657000D01*
X130486632Y-125613475D01*
X130693475Y-125406632D01*
X130855990Y-125163411D01*
X130967932Y-124893158D01*
X131025000Y-124606260D01*
X131025000Y-124313740D01*
X130967932Y-124026842D01*
X130855990Y-123756589D01*
X130693475Y-123513368D01*
X130486632Y-123306525D01*
X130312240Y-123190000D01*
X130486632Y-123073475D01*
X130693475Y-122866632D01*
X130855990Y-122623411D01*
X130967932Y-122353158D01*
X131025000Y-122066260D01*
X131025000Y-121773740D01*
X130967932Y-121486842D01*
X130855990Y-121216589D01*
X130693475Y-120973368D01*
X130486632Y-120766525D01*
X130304466Y-120644805D01*
X130421355Y-120575178D01*
X130637588Y-120380269D01*
X130811641Y-120146920D01*
X130936825Y-119884099D01*
X130981476Y-119736890D01*
X130860155Y-119507000D01*
X129667000Y-119507000D01*
X129667000Y-119527000D01*
X129413000Y-119527000D01*
X129413000Y-119507000D01*
X129393000Y-119507000D01*
X129393000Y-119253000D01*
X129413000Y-119253000D01*
X129413000Y-116967000D01*
X129667000Y-116967000D01*
X129667000Y-119253000D01*
X130860155Y-119253000D01*
X130863562Y-119246544D01*
X133265000Y-119246544D01*
X133265000Y-119513456D01*
X133317072Y-119775239D01*
X133419215Y-120021833D01*
X133567503Y-120243762D01*
X133756238Y-120432497D01*
X133978167Y-120580785D01*
X134145266Y-120650000D01*
X133978167Y-120719215D01*
X133756238Y-120867503D01*
X133567503Y-121056238D01*
X133419215Y-121278167D01*
X133317072Y-121524761D01*
X133265000Y-121786544D01*
X133265000Y-122053456D01*
X133317072Y-122315239D01*
X133419215Y-122561833D01*
X133567503Y-122783762D01*
X133756238Y-122972497D01*
X133978167Y-123120785D01*
X134224761Y-123222928D01*
X134486544Y-123275000D01*
X134753456Y-123275000D01*
X135015239Y-123222928D01*
X135261833Y-123120785D01*
X135483762Y-122972497D01*
X135672497Y-122783762D01*
X135820785Y-122561833D01*
X135922928Y-122315239D01*
X135975000Y-122053456D01*
X135975000Y-121786544D01*
X135922928Y-121524761D01*
X135820785Y-121278167D01*
X135672497Y-121056238D01*
X135483762Y-120867503D01*
X135261833Y-120719215D01*
X135094734Y-120650000D01*
X135261833Y-120580785D01*
X135483762Y-120432497D01*
X135672497Y-120243762D01*
X135820785Y-120021833D01*
X135922928Y-119775239D01*
X135975000Y-119513456D01*
X135975000Y-119246544D01*
X135922928Y-118984761D01*
X135820785Y-118738167D01*
X135672497Y-118516238D01*
X135483762Y-118327503D01*
X135261833Y-118179215D01*
X135093676Y-118109562D01*
X135208353Y-118067875D01*
X135314068Y-118011368D01*
X135375955Y-117775560D01*
X134620000Y-117019605D01*
X133864045Y-117775560D01*
X133925932Y-118011368D01*
X134141007Y-118111764D01*
X133978167Y-118179215D01*
X133756238Y-118327503D01*
X133567503Y-118516238D01*
X133419215Y-118738167D01*
X133317072Y-118984761D01*
X133265000Y-119246544D01*
X130863562Y-119246544D01*
X130981476Y-119023110D01*
X130936825Y-118875901D01*
X130811641Y-118613080D01*
X130637588Y-118379731D01*
X130553534Y-118303966D01*
X130634180Y-118279502D01*
X130744494Y-118220537D01*
X130841185Y-118141185D01*
X130920537Y-118044494D01*
X130979502Y-117934180D01*
X131015812Y-117814482D01*
X131028072Y-117690000D01*
X131025000Y-117125750D01*
X130866250Y-116967000D01*
X129667000Y-116967000D01*
X129413000Y-116967000D01*
X129393000Y-116967000D01*
X129393000Y-116913680D01*
X133260439Y-116913680D01*
X133300937Y-117177501D01*
X133392125Y-117428353D01*
X133448632Y-117534068D01*
X133684440Y-117595955D01*
X134440395Y-116840000D01*
X134799605Y-116840000D01*
X135555560Y-117595955D01*
X135791368Y-117534068D01*
X135904266Y-117292210D01*
X135967811Y-117032973D01*
X135979561Y-116766320D01*
X135939063Y-116502499D01*
X135847875Y-116251647D01*
X135791368Y-116145932D01*
X135555560Y-116084045D01*
X134799605Y-116840000D01*
X134440395Y-116840000D01*
X133684440Y-116084045D01*
X133448632Y-116145932D01*
X133335734Y-116387790D01*
X133272189Y-116647027D01*
X133260439Y-116913680D01*
X129393000Y-116913680D01*
X129393000Y-116713000D01*
X129413000Y-116713000D01*
X129413000Y-115513750D01*
X129667000Y-115513750D01*
X129667000Y-116713000D01*
X130866250Y-116713000D01*
X131025000Y-116554250D01*
X131028072Y-115990000D01*
X131019646Y-115904440D01*
X133864045Y-115904440D01*
X134620000Y-116660395D01*
X135375955Y-115904440D01*
X135314068Y-115668632D01*
X135072210Y-115555734D01*
X134812973Y-115492189D01*
X134546320Y-115480439D01*
X134282499Y-115520937D01*
X134031647Y-115612125D01*
X133925932Y-115668632D01*
X133864045Y-115904440D01*
X131019646Y-115904440D01*
X131015812Y-115865518D01*
X130979502Y-115745820D01*
X130920537Y-115635506D01*
X130841185Y-115538815D01*
X130744494Y-115459463D01*
X130634180Y-115400498D01*
X130514482Y-115364188D01*
X130390000Y-115351928D01*
X129825750Y-115355000D01*
X129667000Y-115513750D01*
X129413000Y-115513750D01*
X129254250Y-115355000D01*
X128690000Y-115351928D01*
X128597000Y-115361087D01*
X128597000Y-88483867D01*
X129262061Y-87818807D01*
X129393740Y-87845000D01*
X129686260Y-87845000D01*
X129973158Y-87787932D01*
X130243411Y-87675990D01*
X130486632Y-87513475D01*
X130693475Y-87306632D01*
X130855990Y-87063411D01*
X130967932Y-86793158D01*
X131025000Y-86506260D01*
X131025000Y-86213740D01*
X130967932Y-85926842D01*
X130855990Y-85656589D01*
X130693475Y-85413368D01*
X130486632Y-85206525D01*
X130312240Y-85090000D01*
X130486632Y-84973475D01*
X130693475Y-84766632D01*
X130855990Y-84523411D01*
X130967932Y-84253158D01*
X131025000Y-83966260D01*
X131025000Y-83673740D01*
X130967932Y-83386842D01*
X130855990Y-83116589D01*
X130693475Y-82873368D01*
X130486632Y-82666525D01*
X130304466Y-82544805D01*
X130421355Y-82475178D01*
X130637588Y-82280269D01*
X130811641Y-82046920D01*
X130936825Y-81784099D01*
X130981476Y-81636890D01*
X130860155Y-81407000D01*
X129667000Y-81407000D01*
X129667000Y-81427000D01*
X129413000Y-81427000D01*
X129413000Y-81407000D01*
X128219845Y-81407000D01*
X128098524Y-81636890D01*
X128143175Y-81784099D01*
X128268359Y-82046920D01*
X128442412Y-82280269D01*
X128658645Y-82475178D01*
X128775534Y-82544805D01*
X128593368Y-82666525D01*
X128386525Y-82873368D01*
X128224010Y-83116589D01*
X128112068Y-83386842D01*
X128055000Y-83673740D01*
X128055000Y-83966260D01*
X128112068Y-84253158D01*
X128224010Y-84523411D01*
X128386525Y-84766632D01*
X128593368Y-84973475D01*
X128767760Y-85090000D01*
X128593368Y-85206525D01*
X128386525Y-85413368D01*
X128224010Y-85656589D01*
X128112068Y-85926842D01*
X128055000Y-86213740D01*
X128055000Y-86506260D01*
X128081193Y-86637939D01*
X127660000Y-87059132D01*
X127660000Y-79590000D01*
X128051928Y-79590000D01*
X128064188Y-79714482D01*
X128100498Y-79834180D01*
X128159463Y-79944494D01*
X128238815Y-80041185D01*
X128335506Y-80120537D01*
X128445820Y-80179502D01*
X128526466Y-80203966D01*
X128442412Y-80279731D01*
X128268359Y-80513080D01*
X128143175Y-80775901D01*
X128098524Y-80923110D01*
X128219845Y-81153000D01*
X129413000Y-81153000D01*
X129413000Y-78867000D01*
X129667000Y-78867000D01*
X129667000Y-81153000D01*
X130860155Y-81153000D01*
X130981476Y-80923110D01*
X130936825Y-80775901D01*
X130811641Y-80513080D01*
X130637588Y-80279731D01*
X130553534Y-80203966D01*
X130634180Y-80179502D01*
X130744494Y-80120537D01*
X130841185Y-80041185D01*
X130920537Y-79944494D01*
X130979502Y-79834180D01*
X131015812Y-79714482D01*
X131028072Y-79590000D01*
X131025000Y-79025750D01*
X130866250Y-78867000D01*
X129667000Y-78867000D01*
X129413000Y-78867000D01*
X128213750Y-78867000D01*
X128055000Y-79025750D01*
X128051928Y-79590000D01*
X127660000Y-79590000D01*
X127660000Y-77890000D01*
X128051928Y-77890000D01*
X128055000Y-78454250D01*
X128213750Y-78613000D01*
X129413000Y-78613000D01*
X129413000Y-77413750D01*
X129667000Y-77413750D01*
X129667000Y-78613000D01*
X130866250Y-78613000D01*
X131025000Y-78454250D01*
X131028072Y-77890000D01*
X131015812Y-77765518D01*
X130979502Y-77645820D01*
X130920537Y-77535506D01*
X130841185Y-77438815D01*
X130744494Y-77359463D01*
X130634180Y-77300498D01*
X130514482Y-77264188D01*
X130390000Y-77251928D01*
X129825750Y-77255000D01*
X129667000Y-77413750D01*
X129413000Y-77413750D01*
X129254250Y-77255000D01*
X128690000Y-77251928D01*
X128565518Y-77264188D01*
X128445820Y-77300498D01*
X128335506Y-77359463D01*
X128238815Y-77438815D01*
X128159463Y-77535506D01*
X128100498Y-77645820D01*
X128064188Y-77765518D01*
X128051928Y-77890000D01*
X127660000Y-77890000D01*
X127660000Y-76860000D01*
X146952332Y-76860000D01*
X146368932Y-77443400D01*
M02*
