G04 #@! TF.GenerationSoftware,KiCad,Pcbnew,5.1.6-c6e7f7d~87~ubuntu18.04.1*
G04 #@! TF.CreationDate,2020-07-29T17:57:34-04:00*
G04 #@! TF.ProjectId,arp_4072_LPF,6172705f-3430-4373-925f-4c50462e6b69,0*
G04 #@! TF.SameCoordinates,Original*
G04 #@! TF.FileFunction,Legend,Bot*
G04 #@! TF.FilePolarity,Positive*
%FSLAX46Y46*%
G04 Gerber Fmt 4.6, Leading zero omitted, Abs format (unit mm)*
G04 Created by KiCad (PCBNEW 5.1.6-c6e7f7d~87~ubuntu18.04.1) date 2020-07-29 17:57:34*
%MOMM*%
%LPD*%
G01*
G04 APERTURE LIST*
%ADD10C,0.150000*%
%ADD11C,0.120000*%
G04 APERTURE END LIST*
D10*
X180210833Y-77510714D02*
X180210833Y-78320238D01*
X180258452Y-78415476D01*
X180306071Y-78463095D01*
X180401309Y-78510714D01*
X180544166Y-78510714D01*
X180639404Y-78463095D01*
X180210833Y-78129761D02*
X180306071Y-78177380D01*
X180496547Y-78177380D01*
X180591785Y-78129761D01*
X180639404Y-78082142D01*
X180687023Y-77986904D01*
X180687023Y-77701190D01*
X180639404Y-77605952D01*
X180591785Y-77558333D01*
X180496547Y-77510714D01*
X180306071Y-77510714D01*
X180210833Y-77558333D01*
X179734642Y-78177380D02*
X179734642Y-77510714D01*
X179734642Y-77177380D02*
X179782261Y-77225000D01*
X179734642Y-77272619D01*
X179687023Y-77225000D01*
X179734642Y-77177380D01*
X179734642Y-77272619D01*
X179401309Y-77510714D02*
X179020357Y-77510714D01*
X179258452Y-77177380D02*
X179258452Y-78034523D01*
X179210833Y-78129761D01*
X179115595Y-78177380D01*
X179020357Y-78177380D01*
X178687023Y-78177380D02*
X178687023Y-77177380D01*
X178258452Y-78177380D02*
X178258452Y-77653571D01*
X178306071Y-77558333D01*
X178401309Y-77510714D01*
X178544166Y-77510714D01*
X178639404Y-77558333D01*
X178687023Y-77605952D01*
X177353690Y-77510714D02*
X177353690Y-78177380D01*
X177782261Y-77510714D02*
X177782261Y-78034523D01*
X177734642Y-78129761D01*
X177639404Y-78177380D01*
X177496547Y-78177380D01*
X177401309Y-78129761D01*
X177353690Y-78082142D01*
X176877500Y-78177380D02*
X176877500Y-77177380D01*
X176877500Y-77558333D02*
X176782261Y-77510714D01*
X176591785Y-77510714D01*
X176496547Y-77558333D01*
X176448928Y-77605952D01*
X176401309Y-77701190D01*
X176401309Y-77986904D01*
X176448928Y-78082142D01*
X176496547Y-78129761D01*
X176591785Y-78177380D01*
X176782261Y-78177380D01*
X176877500Y-78129761D01*
X175972738Y-78082142D02*
X175925119Y-78129761D01*
X175972738Y-78177380D01*
X176020357Y-78129761D01*
X175972738Y-78082142D01*
X175972738Y-78177380D01*
X175067976Y-78129761D02*
X175163214Y-78177380D01*
X175353690Y-78177380D01*
X175448928Y-78129761D01*
X175496547Y-78082142D01*
X175544166Y-77986904D01*
X175544166Y-77701190D01*
X175496547Y-77605952D01*
X175448928Y-77558333D01*
X175353690Y-77510714D01*
X175163214Y-77510714D01*
X175067976Y-77558333D01*
X174496547Y-78177380D02*
X174591785Y-78129761D01*
X174639404Y-78082142D01*
X174687023Y-77986904D01*
X174687023Y-77701190D01*
X174639404Y-77605952D01*
X174591785Y-77558333D01*
X174496547Y-77510714D01*
X174353690Y-77510714D01*
X174258452Y-77558333D01*
X174210833Y-77605952D01*
X174163214Y-77701190D01*
X174163214Y-77986904D01*
X174210833Y-78082142D01*
X174258452Y-78129761D01*
X174353690Y-78177380D01*
X174496547Y-78177380D01*
X173734642Y-78177380D02*
X173734642Y-77510714D01*
X173734642Y-77605952D02*
X173687023Y-77558333D01*
X173591785Y-77510714D01*
X173448928Y-77510714D01*
X173353690Y-77558333D01*
X173306071Y-77653571D01*
X173306071Y-78177380D01*
X173306071Y-77653571D02*
X173258452Y-77558333D01*
X173163214Y-77510714D01*
X173020357Y-77510714D01*
X172925119Y-77558333D01*
X172877500Y-77653571D01*
X172877500Y-78177380D01*
X171687023Y-77129761D02*
X172544166Y-78415476D01*
X171067976Y-77177380D02*
X171067976Y-77891666D01*
X171115595Y-78034523D01*
X171210833Y-78129761D01*
X171353690Y-78177380D01*
X171448928Y-78177380D01*
X170448928Y-78177380D02*
X170544166Y-78129761D01*
X170591785Y-78082142D01*
X170639404Y-77986904D01*
X170639404Y-77701190D01*
X170591785Y-77605952D01*
X170544166Y-77558333D01*
X170448928Y-77510714D01*
X170306071Y-77510714D01*
X170210833Y-77558333D01*
X170163214Y-77605952D01*
X170115595Y-77701190D01*
X170115595Y-77986904D01*
X170163214Y-78082142D01*
X170210833Y-78129761D01*
X170306071Y-78177380D01*
X170448928Y-78177380D01*
X169687023Y-78177380D02*
X169687023Y-77510714D01*
X169687023Y-77701190D02*
X169639404Y-77605952D01*
X169591785Y-77558333D01*
X169496547Y-77510714D01*
X169401309Y-77510714D01*
X168639404Y-78177380D02*
X168639404Y-77177380D01*
X168639404Y-78129761D02*
X168734642Y-78177380D01*
X168925119Y-78177380D01*
X169020357Y-78129761D01*
X169067976Y-78082142D01*
X169115595Y-77986904D01*
X169115595Y-77701190D01*
X169067976Y-77605952D01*
X169020357Y-77558333D01*
X168925119Y-77510714D01*
X168734642Y-77510714D01*
X168639404Y-77558333D01*
X167734642Y-78177380D02*
X167734642Y-77653571D01*
X167782261Y-77558333D01*
X167877500Y-77510714D01*
X168067976Y-77510714D01*
X168163214Y-77558333D01*
X167734642Y-78129761D02*
X167829880Y-78177380D01*
X168067976Y-78177380D01*
X168163214Y-78129761D01*
X168210833Y-78034523D01*
X168210833Y-77939285D01*
X168163214Y-77844047D01*
X168067976Y-77796428D01*
X167829880Y-77796428D01*
X167734642Y-77748809D01*
X167258452Y-77510714D02*
X167258452Y-78177380D01*
X167258452Y-77605952D02*
X167210833Y-77558333D01*
X167115595Y-77510714D01*
X166972738Y-77510714D01*
X166877500Y-77558333D01*
X166829880Y-77653571D01*
X166829880Y-78177380D01*
X166401309Y-77891666D02*
X165925119Y-77891666D01*
X166496547Y-78177380D02*
X166163214Y-77177380D01*
X165829880Y-78177380D01*
X165067976Y-78129761D02*
X165163214Y-78177380D01*
X165353690Y-78177380D01*
X165448928Y-78129761D01*
X165496547Y-78082142D01*
X165544166Y-77986904D01*
X165544166Y-77701190D01*
X165496547Y-77605952D01*
X165448928Y-77558333D01*
X165353690Y-77510714D01*
X165163214Y-77510714D01*
X165067976Y-77558333D01*
X164258452Y-78129761D02*
X164353690Y-78177380D01*
X164544166Y-78177380D01*
X164639404Y-78129761D01*
X164687023Y-78034523D01*
X164687023Y-77653571D01*
X164639404Y-77558333D01*
X164544166Y-77510714D01*
X164353690Y-77510714D01*
X164258452Y-77558333D01*
X164210833Y-77653571D01*
X164210833Y-77748809D01*
X164687023Y-77844047D01*
X163925119Y-77510714D02*
X163544166Y-77510714D01*
X163782261Y-77177380D02*
X163782261Y-78034523D01*
X163734642Y-78129761D01*
X163639404Y-78177380D01*
X163544166Y-78177380D01*
X163067976Y-78177380D02*
X163163214Y-78129761D01*
X163210833Y-78082142D01*
X163258452Y-77986904D01*
X163258452Y-77701190D01*
X163210833Y-77605952D01*
X163163214Y-77558333D01*
X163067976Y-77510714D01*
X162925119Y-77510714D01*
X162829880Y-77558333D01*
X162782261Y-77605952D01*
X162734642Y-77701190D01*
X162734642Y-77986904D01*
X162782261Y-78082142D01*
X162829880Y-78129761D01*
X162925119Y-78177380D01*
X163067976Y-78177380D01*
X161591785Y-77129761D02*
X162448928Y-78415476D01*
X160829880Y-78177380D02*
X160829880Y-77653571D01*
X160877500Y-77558333D01*
X160972738Y-77510714D01*
X161163214Y-77510714D01*
X161258452Y-77558333D01*
X160829880Y-78129761D02*
X160925119Y-78177380D01*
X161163214Y-78177380D01*
X161258452Y-78129761D01*
X161306071Y-78034523D01*
X161306071Y-77939285D01*
X161258452Y-77844047D01*
X161163214Y-77796428D01*
X160925119Y-77796428D01*
X160829880Y-77748809D01*
X160353690Y-78177380D02*
X160353690Y-77510714D01*
X160353690Y-77701190D02*
X160306071Y-77605952D01*
X160258452Y-77558333D01*
X160163214Y-77510714D01*
X160067976Y-77510714D01*
X159734642Y-77510714D02*
X159734642Y-78510714D01*
X159734642Y-77558333D02*
X159639404Y-77510714D01*
X159448928Y-77510714D01*
X159353690Y-77558333D01*
X159306071Y-77605952D01*
X159258452Y-77701190D01*
X159258452Y-77986904D01*
X159306071Y-78082142D01*
X159353690Y-78129761D01*
X159448928Y-78177380D01*
X159639404Y-78177380D01*
X159734642Y-78129761D01*
X159067976Y-78272619D02*
X158306071Y-78272619D01*
X157639404Y-77510714D02*
X157639404Y-78177380D01*
X157877500Y-77129761D02*
X158115595Y-77844047D01*
X157496547Y-77844047D01*
X156925119Y-77177380D02*
X156829880Y-77177380D01*
X156734642Y-77225000D01*
X156687023Y-77272619D01*
X156639404Y-77367857D01*
X156591785Y-77558333D01*
X156591785Y-77796428D01*
X156639404Y-77986904D01*
X156687023Y-78082142D01*
X156734642Y-78129761D01*
X156829880Y-78177380D01*
X156925119Y-78177380D01*
X157020357Y-78129761D01*
X157067976Y-78082142D01*
X157115595Y-77986904D01*
X157163214Y-77796428D01*
X157163214Y-77558333D01*
X157115595Y-77367857D01*
X157067976Y-77272619D01*
X157020357Y-77225000D01*
X156925119Y-77177380D01*
X156258452Y-77177380D02*
X155591785Y-77177380D01*
X156020357Y-78177380D01*
X155258452Y-77272619D02*
X155210833Y-77225000D01*
X155115595Y-77177380D01*
X154877500Y-77177380D01*
X154782261Y-77225000D01*
X154734642Y-77272619D01*
X154687023Y-77367857D01*
X154687023Y-77463095D01*
X154734642Y-77605952D01*
X155306071Y-78177380D01*
X154687023Y-78177380D01*
X154496547Y-78272619D02*
X153734642Y-78272619D01*
X153496547Y-77510714D02*
X153496547Y-78510714D01*
X153496547Y-77558333D02*
X153401309Y-77510714D01*
X153210833Y-77510714D01*
X153115595Y-77558333D01*
X153067976Y-77605952D01*
X153020357Y-77701190D01*
X153020357Y-77986904D01*
X153067976Y-78082142D01*
X153115595Y-78129761D01*
X153210833Y-78177380D01*
X153401309Y-78177380D01*
X153496547Y-78129761D01*
X152448928Y-78177380D02*
X152544166Y-78129761D01*
X152591785Y-78034523D01*
X152591785Y-77177380D01*
X151639404Y-77510714D02*
X151639404Y-78177380D01*
X152067976Y-77510714D02*
X152067976Y-78034523D01*
X152020357Y-78129761D01*
X151925119Y-78177380D01*
X151782261Y-78177380D01*
X151687023Y-78129761D01*
X151639404Y-78082142D01*
X150734642Y-77510714D02*
X150734642Y-78320238D01*
X150782261Y-78415476D01*
X150829880Y-78463095D01*
X150925119Y-78510714D01*
X151067976Y-78510714D01*
X151163214Y-78463095D01*
X150734642Y-78129761D02*
X150829880Y-78177380D01*
X151020357Y-78177380D01*
X151115595Y-78129761D01*
X151163214Y-78082142D01*
X151210833Y-77986904D01*
X151210833Y-77701190D01*
X151163214Y-77605952D01*
X151115595Y-77558333D01*
X151020357Y-77510714D01*
X150829880Y-77510714D01*
X150734642Y-77558333D01*
X150496547Y-78272619D02*
X149734642Y-78272619D01*
X149496547Y-78177380D02*
X149496547Y-77510714D01*
X149496547Y-77177380D02*
X149544166Y-77225000D01*
X149496547Y-77272619D01*
X149448928Y-77225000D01*
X149496547Y-77177380D01*
X149496547Y-77272619D01*
X149020357Y-77510714D02*
X149020357Y-78177380D01*
X149020357Y-77605952D02*
X148972738Y-77558333D01*
X148877500Y-77510714D01*
X148734642Y-77510714D01*
X148639404Y-77558333D01*
X148591785Y-77653571D01*
X148591785Y-78177380D01*
X148353690Y-78272619D02*
X147591785Y-78272619D01*
X147353690Y-78177380D02*
X147353690Y-77177380D01*
X147353690Y-77558333D02*
X147258452Y-77510714D01*
X147067976Y-77510714D01*
X146972738Y-77558333D01*
X146925119Y-77605952D01*
X146877500Y-77701190D01*
X146877500Y-77986904D01*
X146925119Y-78082142D01*
X146972738Y-78129761D01*
X147067976Y-78177380D01*
X147258452Y-78177380D01*
X147353690Y-78129761D01*
X146306071Y-78177380D02*
X146401309Y-78129761D01*
X146448928Y-78082142D01*
X146496547Y-77986904D01*
X146496547Y-77701190D01*
X146448928Y-77605952D01*
X146401309Y-77558333D01*
X146306071Y-77510714D01*
X146163214Y-77510714D01*
X146067976Y-77558333D01*
X146020357Y-77605952D01*
X145972738Y-77701190D01*
X145972738Y-77986904D01*
X146020357Y-78082142D01*
X146067976Y-78129761D01*
X146163214Y-78177380D01*
X146306071Y-78177380D01*
X145115595Y-78177380D02*
X145115595Y-77653571D01*
X145163214Y-77558333D01*
X145258452Y-77510714D01*
X145448928Y-77510714D01*
X145544166Y-77558333D01*
X145115595Y-78129761D02*
X145210833Y-78177380D01*
X145448928Y-78177380D01*
X145544166Y-78129761D01*
X145591785Y-78034523D01*
X145591785Y-77939285D01*
X145544166Y-77844047D01*
X145448928Y-77796428D01*
X145210833Y-77796428D01*
X145115595Y-77748809D01*
X144639404Y-78177380D02*
X144639404Y-77510714D01*
X144639404Y-77701190D02*
X144591785Y-77605952D01*
X144544166Y-77558333D01*
X144448928Y-77510714D01*
X144353690Y-77510714D01*
X143591785Y-78177380D02*
X143591785Y-77177380D01*
X143591785Y-78129761D02*
X143687023Y-78177380D01*
X143877500Y-78177380D01*
X143972738Y-78129761D01*
X144020357Y-78082142D01*
X144067976Y-77986904D01*
X144067976Y-77701190D01*
X144020357Y-77605952D01*
X143972738Y-77558333D01*
X143877500Y-77510714D01*
X143687023Y-77510714D01*
X143591785Y-77558333D01*
X180639404Y-79827380D02*
X180639404Y-79160714D01*
X180639404Y-79351190D02*
X180591785Y-79255952D01*
X180544166Y-79208333D01*
X180448928Y-79160714D01*
X180353690Y-79160714D01*
X179639404Y-79779761D02*
X179734642Y-79827380D01*
X179925119Y-79827380D01*
X180020357Y-79779761D01*
X180067976Y-79684523D01*
X180067976Y-79303571D01*
X180020357Y-79208333D01*
X179925119Y-79160714D01*
X179734642Y-79160714D01*
X179639404Y-79208333D01*
X179591785Y-79303571D01*
X179591785Y-79398809D01*
X180067976Y-79494047D01*
X179258452Y-79160714D02*
X179020357Y-79827380D01*
X178782261Y-79160714D01*
X177448928Y-78827380D02*
X177353690Y-78827380D01*
X177258452Y-78875000D01*
X177210833Y-78922619D01*
X177163214Y-79017857D01*
X177115595Y-79208333D01*
X177115595Y-79446428D01*
X177163214Y-79636904D01*
X177210833Y-79732142D01*
X177258452Y-79779761D01*
X177353690Y-79827380D01*
X177448928Y-79827380D01*
X177544166Y-79779761D01*
X177591785Y-79732142D01*
X177639404Y-79636904D01*
X177687023Y-79446428D01*
X177687023Y-79208333D01*
X177639404Y-79017857D01*
X177591785Y-78922619D01*
X177544166Y-78875000D01*
X177448928Y-78827380D01*
X180687023Y-80572619D02*
X180639404Y-80525000D01*
X180544166Y-80477380D01*
X180306071Y-80477380D01*
X180210833Y-80525000D01*
X180163214Y-80572619D01*
X180115595Y-80667857D01*
X180115595Y-80763095D01*
X180163214Y-80905952D01*
X180734642Y-81477380D01*
X180115595Y-81477380D01*
X179496547Y-80477380D02*
X179401309Y-80477380D01*
X179306071Y-80525000D01*
X179258452Y-80572619D01*
X179210833Y-80667857D01*
X179163214Y-80858333D01*
X179163214Y-81096428D01*
X179210833Y-81286904D01*
X179258452Y-81382142D01*
X179306071Y-81429761D01*
X179401309Y-81477380D01*
X179496547Y-81477380D01*
X179591785Y-81429761D01*
X179639404Y-81382142D01*
X179687023Y-81286904D01*
X179734642Y-81096428D01*
X179734642Y-80858333D01*
X179687023Y-80667857D01*
X179639404Y-80572619D01*
X179591785Y-80525000D01*
X179496547Y-80477380D01*
X178782261Y-80572619D02*
X178734642Y-80525000D01*
X178639404Y-80477380D01*
X178401309Y-80477380D01*
X178306071Y-80525000D01*
X178258452Y-80572619D01*
X178210833Y-80667857D01*
X178210833Y-80763095D01*
X178258452Y-80905952D01*
X178829880Y-81477380D01*
X178210833Y-81477380D01*
X177591785Y-80477380D02*
X177496547Y-80477380D01*
X177401309Y-80525000D01*
X177353690Y-80572619D01*
X177306071Y-80667857D01*
X177258452Y-80858333D01*
X177258452Y-81096428D01*
X177306071Y-81286904D01*
X177353690Y-81382142D01*
X177401309Y-81429761D01*
X177496547Y-81477380D01*
X177591785Y-81477380D01*
X177687023Y-81429761D01*
X177734642Y-81382142D01*
X177782261Y-81286904D01*
X177829880Y-81096428D01*
X177829880Y-80858333D01*
X177782261Y-80667857D01*
X177734642Y-80572619D01*
X177687023Y-80525000D01*
X177591785Y-80477380D01*
X176829880Y-81096428D02*
X176067976Y-81096428D01*
X175401309Y-80477380D02*
X175306071Y-80477380D01*
X175210833Y-80525000D01*
X175163214Y-80572619D01*
X175115595Y-80667857D01*
X175067976Y-80858333D01*
X175067976Y-81096428D01*
X175115595Y-81286904D01*
X175163214Y-81382142D01*
X175210833Y-81429761D01*
X175306071Y-81477380D01*
X175401309Y-81477380D01*
X175496547Y-81429761D01*
X175544166Y-81382142D01*
X175591785Y-81286904D01*
X175639404Y-81096428D01*
X175639404Y-80858333D01*
X175591785Y-80667857D01*
X175544166Y-80572619D01*
X175496547Y-80525000D01*
X175401309Y-80477380D01*
X174734642Y-80477380D02*
X174067976Y-80477380D01*
X174496547Y-81477380D01*
X173687023Y-81096428D02*
X172925119Y-81096428D01*
X172496547Y-80572619D02*
X172448928Y-80525000D01*
X172353690Y-80477380D01*
X172115595Y-80477380D01*
X172020357Y-80525000D01*
X171972738Y-80572619D01*
X171925119Y-80667857D01*
X171925119Y-80763095D01*
X171972738Y-80905952D01*
X172544166Y-81477380D01*
X171925119Y-81477380D01*
X171448928Y-81477380D02*
X171258452Y-81477380D01*
X171163214Y-81429761D01*
X171115595Y-81382142D01*
X171020357Y-81239285D01*
X170972738Y-81048809D01*
X170972738Y-80667857D01*
X171020357Y-80572619D01*
X171067976Y-80525000D01*
X171163214Y-80477380D01*
X171353690Y-80477380D01*
X171448928Y-80525000D01*
X171496547Y-80572619D01*
X171544166Y-80667857D01*
X171544166Y-80905952D01*
X171496547Y-81001190D01*
X171448928Y-81048809D01*
X171353690Y-81096428D01*
X171163214Y-81096428D01*
X171067976Y-81048809D01*
X171020357Y-81001190D01*
X170972738Y-80905952D01*
D11*
X184210000Y-125790000D02*
X181550000Y-125790000D01*
X184210000Y-107950000D02*
X184210000Y-125790000D01*
X181550000Y-107950000D02*
X181550000Y-125790000D01*
X184210000Y-107950000D02*
X181550000Y-107950000D01*
X184210000Y-106680000D02*
X184210000Y-105350000D01*
X184210000Y-105350000D02*
X182880000Y-105350000D01*
X184210000Y-87690000D02*
X181550000Y-87690000D01*
X184210000Y-80010000D02*
X184210000Y-87690000D01*
X181550000Y-80010000D02*
X181550000Y-87690000D01*
X184210000Y-80010000D02*
X181550000Y-80010000D01*
X184210000Y-78740000D02*
X184210000Y-77410000D01*
X184210000Y-77410000D02*
X182880000Y-77410000D01*
X130870000Y-125790000D02*
X128210000Y-125790000D01*
X130870000Y-118110000D02*
X130870000Y-125790000D01*
X128210000Y-118110000D02*
X128210000Y-125790000D01*
X130870000Y-118110000D02*
X128210000Y-118110000D01*
X130870000Y-116840000D02*
X130870000Y-115510000D01*
X130870000Y-115510000D02*
X129540000Y-115510000D01*
X130870000Y-87690000D02*
X128210000Y-87690000D01*
X130870000Y-80010000D02*
X130870000Y-87690000D01*
X128210000Y-80010000D02*
X128210000Y-87690000D01*
X130870000Y-80010000D02*
X128210000Y-80010000D01*
X130870000Y-78740000D02*
X130870000Y-77410000D01*
X130870000Y-77410000D02*
X129540000Y-77410000D01*
D10*
X183213333Y-103802380D02*
X183213333Y-104516666D01*
X183260952Y-104659523D01*
X183356190Y-104754761D01*
X183499047Y-104802380D01*
X183594285Y-104802380D01*
X182308571Y-104135714D02*
X182308571Y-104802380D01*
X182546666Y-103754761D02*
X182784761Y-104469047D01*
X182165714Y-104469047D01*
X183213333Y-88352380D02*
X183213333Y-89066666D01*
X183260952Y-89209523D01*
X183356190Y-89304761D01*
X183499047Y-89352380D01*
X183594285Y-89352380D01*
X182832380Y-88352380D02*
X182213333Y-88352380D01*
X182546666Y-88733333D01*
X182403809Y-88733333D01*
X182308571Y-88780952D01*
X182260952Y-88828571D01*
X182213333Y-88923809D01*
X182213333Y-89161904D01*
X182260952Y-89257142D01*
X182308571Y-89304761D01*
X182403809Y-89352380D01*
X182689523Y-89352380D01*
X182784761Y-89304761D01*
X182832380Y-89257142D01*
X129873333Y-113962380D02*
X129873333Y-114676666D01*
X129920952Y-114819523D01*
X130016190Y-114914761D01*
X130159047Y-114962380D01*
X130254285Y-114962380D01*
X129444761Y-114057619D02*
X129397142Y-114010000D01*
X129301904Y-113962380D01*
X129063809Y-113962380D01*
X128968571Y-114010000D01*
X128920952Y-114057619D01*
X128873333Y-114152857D01*
X128873333Y-114248095D01*
X128920952Y-114390952D01*
X129492380Y-114962380D01*
X128873333Y-114962380D01*
X129873333Y-88352380D02*
X129873333Y-89066666D01*
X129920952Y-89209523D01*
X130016190Y-89304761D01*
X130159047Y-89352380D01*
X130254285Y-89352380D01*
X128873333Y-89352380D02*
X129444761Y-89352380D01*
X129159047Y-89352380D02*
X129159047Y-88352380D01*
X129254285Y-88495238D01*
X129349523Y-88590476D01*
X129444761Y-88638095D01*
M02*
