G04 #@! TF.GenerationSoftware,KiCad,Pcbnew,5.1.6-c6e7f7d~87~ubuntu18.04.1*
G04 #@! TF.CreationDate,2020-08-01T21:00:34-04:00*
G04 #@! TF.ProjectId,CEM3320_LPF_plug_in_board,43454d33-3332-4305-9f4c-50465f706c75,1*
G04 #@! TF.SameCoordinates,Original*
G04 #@! TF.FileFunction,Copper,L1,Top*
G04 #@! TF.FilePolarity,Positive*
%FSLAX46Y46*%
G04 Gerber Fmt 4.6, Leading zero omitted, Abs format (unit mm)*
G04 Created by KiCad (PCBNEW 5.1.6-c6e7f7d~87~ubuntu18.04.1) date 2020-08-01 21:00:34*
%MOMM*%
%LPD*%
G01*
G04 APERTURE LIST*
G04 #@! TA.AperFunction,EtchedComponent*
%ADD10C,0.100000*%
G04 #@! TD*
G04 #@! TA.AperFunction,ComponentPad*
%ADD11C,1.600000*%
G04 #@! TD*
G04 #@! TA.AperFunction,ComponentPad*
%ADD12O,1.600000X1.600000*%
G04 #@! TD*
G04 #@! TA.AperFunction,ComponentPad*
%ADD13R,1.600000X1.600000*%
G04 #@! TD*
G04 #@! TA.AperFunction,ComponentPad*
%ADD14C,1.440000*%
G04 #@! TD*
G04 #@! TA.AperFunction,ComponentPad*
%ADD15O,1.700000X1.700000*%
G04 #@! TD*
G04 #@! TA.AperFunction,ComponentPad*
%ADD16R,1.700000X1.700000*%
G04 #@! TD*
G04 #@! TA.AperFunction,ViaPad*
%ADD17C,1.000000*%
G04 #@! TD*
G04 #@! TA.AperFunction,ViaPad*
%ADD18C,0.800000*%
G04 #@! TD*
G04 #@! TA.AperFunction,Conductor*
%ADD19C,0.400000*%
G04 #@! TD*
G04 #@! TA.AperFunction,Conductor*
%ADD20C,0.762000*%
G04 #@! TD*
G04 #@! TA.AperFunction,Conductor*
%ADD21C,1.000000*%
G04 #@! TD*
G04 #@! TA.AperFunction,Conductor*
%ADD22C,0.250000*%
G04 #@! TD*
G04 #@! TA.AperFunction,Conductor*
%ADD23C,0.254000*%
G04 #@! TD*
G04 APERTURE END LIST*
D10*
G36*
X166116000Y-80772000D02*
G01*
X166116000Y-81153000D01*
X165163500Y-81153000D01*
X165163500Y-80772000D01*
X166116000Y-80772000D01*
G37*
X166116000Y-80772000D02*
X166116000Y-81153000D01*
X165163500Y-81153000D01*
X165163500Y-80772000D01*
X166116000Y-80772000D01*
G36*
X166116000Y-84328000D02*
G01*
X166116000Y-84709000D01*
X165163500Y-84709000D01*
X165163500Y-84328000D01*
X166116000Y-84328000D01*
G37*
X166116000Y-84328000D02*
X166116000Y-84709000D01*
X165163500Y-84709000D01*
X165163500Y-84328000D01*
X166116000Y-84328000D01*
G36*
X153416000Y-80645000D02*
G01*
X153416000Y-81026000D01*
X152463500Y-81026000D01*
X152463500Y-80645000D01*
X153416000Y-80645000D01*
G37*
X153416000Y-80645000D02*
X153416000Y-81026000D01*
X152463500Y-81026000D01*
X152463500Y-80645000D01*
X153416000Y-80645000D01*
G36*
X153416000Y-84201000D02*
G01*
X153416000Y-84582000D01*
X152463500Y-84582000D01*
X152463500Y-84201000D01*
X153416000Y-84201000D01*
G37*
X153416000Y-84201000D02*
X153416000Y-84582000D01*
X152463500Y-84582000D01*
X152463500Y-84201000D01*
X153416000Y-84201000D01*
G36*
X153670000Y-103886000D02*
G01*
X153670000Y-103505000D01*
X154622500Y-103505000D01*
X154622500Y-103886000D01*
X153670000Y-103886000D01*
G37*
X153670000Y-103886000D02*
X153670000Y-103505000D01*
X154622500Y-103505000D01*
X154622500Y-103886000D01*
X153670000Y-103886000D01*
G36*
X153670000Y-100330000D02*
G01*
X153670000Y-99949000D01*
X154622500Y-99949000D01*
X154622500Y-100330000D01*
X153670000Y-100330000D01*
G37*
X153670000Y-100330000D02*
X153670000Y-99949000D01*
X154622500Y-99949000D01*
X154622500Y-100330000D01*
X153670000Y-100330000D01*
G36*
X158877000Y-103886000D02*
G01*
X158877000Y-103505000D01*
X159829500Y-103505000D01*
X159829500Y-103886000D01*
X158877000Y-103886000D01*
G37*
X158877000Y-103886000D02*
X158877000Y-103505000D01*
X159829500Y-103505000D01*
X159829500Y-103886000D01*
X158877000Y-103886000D01*
G36*
X158877000Y-100330000D02*
G01*
X158877000Y-99949000D01*
X159829500Y-99949000D01*
X159829500Y-100330000D01*
X158877000Y-100330000D01*
G37*
X158877000Y-100330000D02*
X158877000Y-99949000D01*
X159829500Y-99949000D01*
X159829500Y-100330000D01*
X158877000Y-100330000D01*
G04 #@! TA.AperFunction,SMDPad,CuDef*
G36*
G01*
X166052500Y-82296000D02*
X165163500Y-82296000D01*
G75*
G02*
X164846000Y-81978500I0J317500D01*
G01*
X164846000Y-81343500D01*
G75*
G02*
X165163500Y-81026000I317500J0D01*
G01*
X166052500Y-81026000D01*
G75*
G02*
X166370000Y-81343500I0J-317500D01*
G01*
X166370000Y-81978500D01*
G75*
G02*
X166052500Y-82296000I-317500J0D01*
G01*
G37*
G04 #@! TD.AperFunction*
G04 #@! TA.AperFunction,SMDPad,CuDef*
G36*
G01*
X166052500Y-84391500D02*
X165163500Y-84391500D01*
G75*
G02*
X164846000Y-84074000I0J317500D01*
G01*
X164846000Y-83439000D01*
G75*
G02*
X165163500Y-83121500I317500J0D01*
G01*
X166052500Y-83121500D01*
G75*
G02*
X166370000Y-83439000I0J-317500D01*
G01*
X166370000Y-84074000D01*
G75*
G02*
X166052500Y-84391500I-317500J0D01*
G01*
G37*
G04 #@! TD.AperFunction*
D11*
X165608000Y-80217000D03*
X165608000Y-85217000D03*
G04 #@! TA.AperFunction,SMDPad,CuDef*
G36*
G01*
X153352500Y-82169000D02*
X152463500Y-82169000D01*
G75*
G02*
X152146000Y-81851500I0J317500D01*
G01*
X152146000Y-81216500D01*
G75*
G02*
X152463500Y-80899000I317500J0D01*
G01*
X153352500Y-80899000D01*
G75*
G02*
X153670000Y-81216500I0J-317500D01*
G01*
X153670000Y-81851500D01*
G75*
G02*
X153352500Y-82169000I-317500J0D01*
G01*
G37*
G04 #@! TD.AperFunction*
G04 #@! TA.AperFunction,SMDPad,CuDef*
G36*
G01*
X153352500Y-84264500D02*
X152463500Y-84264500D01*
G75*
G02*
X152146000Y-83947000I0J317500D01*
G01*
X152146000Y-83312000D01*
G75*
G02*
X152463500Y-82994500I317500J0D01*
G01*
X153352500Y-82994500D01*
G75*
G02*
X153670000Y-83312000I0J-317500D01*
G01*
X153670000Y-83947000D01*
G75*
G02*
X153352500Y-84264500I-317500J0D01*
G01*
G37*
G04 #@! TD.AperFunction*
X152908000Y-80090000D03*
X152908000Y-85090000D03*
G04 #@! TA.AperFunction,SMDPad,CuDef*
G36*
G01*
X153733500Y-102362000D02*
X154622500Y-102362000D01*
G75*
G02*
X154940000Y-102679500I0J-317500D01*
G01*
X154940000Y-103314500D01*
G75*
G02*
X154622500Y-103632000I-317500J0D01*
G01*
X153733500Y-103632000D01*
G75*
G02*
X153416000Y-103314500I0J317500D01*
G01*
X153416000Y-102679500D01*
G75*
G02*
X153733500Y-102362000I317500J0D01*
G01*
G37*
G04 #@! TD.AperFunction*
G04 #@! TA.AperFunction,SMDPad,CuDef*
G36*
G01*
X153733500Y-100266500D02*
X154622500Y-100266500D01*
G75*
G02*
X154940000Y-100584000I0J-317500D01*
G01*
X154940000Y-101219000D01*
G75*
G02*
X154622500Y-101536500I-317500J0D01*
G01*
X153733500Y-101536500D01*
G75*
G02*
X153416000Y-101219000I0J317500D01*
G01*
X153416000Y-100584000D01*
G75*
G02*
X153733500Y-100266500I317500J0D01*
G01*
G37*
G04 #@! TD.AperFunction*
X154178000Y-104441000D03*
X154178000Y-99441000D03*
G04 #@! TA.AperFunction,SMDPad,CuDef*
G36*
G01*
X158940500Y-102362000D02*
X159829500Y-102362000D01*
G75*
G02*
X160147000Y-102679500I0J-317500D01*
G01*
X160147000Y-103314500D01*
G75*
G02*
X159829500Y-103632000I-317500J0D01*
G01*
X158940500Y-103632000D01*
G75*
G02*
X158623000Y-103314500I0J317500D01*
G01*
X158623000Y-102679500D01*
G75*
G02*
X158940500Y-102362000I317500J0D01*
G01*
G37*
G04 #@! TD.AperFunction*
G04 #@! TA.AperFunction,SMDPad,CuDef*
G36*
G01*
X158940500Y-100266500D02*
X159829500Y-100266500D01*
G75*
G02*
X160147000Y-100584000I0J-317500D01*
G01*
X160147000Y-101219000D01*
G75*
G02*
X159829500Y-101536500I-317500J0D01*
G01*
X158940500Y-101536500D01*
G75*
G02*
X158623000Y-101219000I0J317500D01*
G01*
X158623000Y-100584000D01*
G75*
G02*
X158940500Y-100266500I317500J0D01*
G01*
G37*
G04 #@! TD.AperFunction*
X159385000Y-104441000D03*
X159385000Y-99441000D03*
X173228000Y-102696000D03*
X173228000Y-107696000D03*
X174832000Y-88138000D03*
X179832000Y-88138000D03*
D12*
X147828000Y-88138000D03*
X168148000Y-95758000D03*
X150368000Y-88138000D03*
X165608000Y-95758000D03*
X152908000Y-88138000D03*
X163068000Y-95758000D03*
X155448000Y-88138000D03*
X160528000Y-95758000D03*
X157988000Y-88138000D03*
X157988000Y-95758000D03*
X160528000Y-88138000D03*
X155448000Y-95758000D03*
X163068000Y-88138000D03*
X152908000Y-95758000D03*
X165608000Y-88138000D03*
X150368000Y-95758000D03*
X168148000Y-88138000D03*
D13*
X147828000Y-95758000D03*
D14*
X147320000Y-116840000D03*
X147320000Y-119380000D03*
X147320000Y-121920000D03*
X140970000Y-116840000D03*
X140970000Y-119380000D03*
X140970000Y-121920000D03*
X134620000Y-116840000D03*
X134620000Y-119380000D03*
X134620000Y-121920000D03*
G04 #@! TA.AperFunction,SMDPad,CuDef*
G36*
G01*
X172904999Y-113471000D02*
X173805001Y-113471000D01*
G75*
G02*
X174055000Y-113720999I0J-249999D01*
G01*
X174055000Y-114371001D01*
G75*
G02*
X173805001Y-114621000I-249999J0D01*
G01*
X172904999Y-114621000D01*
G75*
G02*
X172655000Y-114371001I0J249999D01*
G01*
X172655000Y-113720999D01*
G75*
G02*
X172904999Y-113471000I249999J0D01*
G01*
G37*
G04 #@! TD.AperFunction*
G04 #@! TA.AperFunction,SMDPad,CuDef*
G36*
G01*
X172904999Y-111421000D02*
X173805001Y-111421000D01*
G75*
G02*
X174055000Y-111670999I0J-249999D01*
G01*
X174055000Y-112321001D01*
G75*
G02*
X173805001Y-112571000I-249999J0D01*
G01*
X172904999Y-112571000D01*
G75*
G02*
X172655000Y-112321001I0J249999D01*
G01*
X172655000Y-111670999D01*
G75*
G02*
X172904999Y-111421000I249999J0D01*
G01*
G37*
G04 #@! TD.AperFunction*
G04 #@! TA.AperFunction,SMDPad,CuDef*
G36*
G01*
X157803001Y-111555000D02*
X156902999Y-111555000D01*
G75*
G02*
X156653000Y-111305001I0J249999D01*
G01*
X156653000Y-110654999D01*
G75*
G02*
X156902999Y-110405000I249999J0D01*
G01*
X157803001Y-110405000D01*
G75*
G02*
X158053000Y-110654999I0J-249999D01*
G01*
X158053000Y-111305001D01*
G75*
G02*
X157803001Y-111555000I-249999J0D01*
G01*
G37*
G04 #@! TD.AperFunction*
G04 #@! TA.AperFunction,SMDPad,CuDef*
G36*
G01*
X157803001Y-113605000D02*
X156902999Y-113605000D01*
G75*
G02*
X156653000Y-113355001I0J249999D01*
G01*
X156653000Y-112704999D01*
G75*
G02*
X156902999Y-112455000I249999J0D01*
G01*
X157803001Y-112455000D01*
G75*
G02*
X158053000Y-112704999I0J-249999D01*
G01*
X158053000Y-113355001D01*
G75*
G02*
X157803001Y-113605000I-249999J0D01*
G01*
G37*
G04 #@! TD.AperFunction*
G04 #@! TA.AperFunction,SMDPad,CuDef*
G36*
G01*
X166727000Y-111783000D02*
X166727000Y-111483000D01*
G75*
G02*
X166877000Y-111333000I150000J0D01*
G01*
X168527000Y-111333000D01*
G75*
G02*
X168677000Y-111483000I0J-150000D01*
G01*
X168677000Y-111783000D01*
G75*
G02*
X168527000Y-111933000I-150000J0D01*
G01*
X166877000Y-111933000D01*
G75*
G02*
X166727000Y-111783000I0J150000D01*
G01*
G37*
G04 #@! TD.AperFunction*
G04 #@! TA.AperFunction,SMDPad,CuDef*
G36*
G01*
X166727000Y-113053000D02*
X166727000Y-112753000D01*
G75*
G02*
X166877000Y-112603000I150000J0D01*
G01*
X168527000Y-112603000D01*
G75*
G02*
X168677000Y-112753000I0J-150000D01*
G01*
X168677000Y-113053000D01*
G75*
G02*
X168527000Y-113203000I-150000J0D01*
G01*
X166877000Y-113203000D01*
G75*
G02*
X166727000Y-113053000I0J150000D01*
G01*
G37*
G04 #@! TD.AperFunction*
G04 #@! TA.AperFunction,SMDPad,CuDef*
G36*
G01*
X166727000Y-114323000D02*
X166727000Y-114023000D01*
G75*
G02*
X166877000Y-113873000I150000J0D01*
G01*
X168527000Y-113873000D01*
G75*
G02*
X168677000Y-114023000I0J-150000D01*
G01*
X168677000Y-114323000D01*
G75*
G02*
X168527000Y-114473000I-150000J0D01*
G01*
X166877000Y-114473000D01*
G75*
G02*
X166727000Y-114323000I0J150000D01*
G01*
G37*
G04 #@! TD.AperFunction*
G04 #@! TA.AperFunction,SMDPad,CuDef*
G36*
G01*
X166727000Y-115593000D02*
X166727000Y-115293000D01*
G75*
G02*
X166877000Y-115143000I150000J0D01*
G01*
X168527000Y-115143000D01*
G75*
G02*
X168677000Y-115293000I0J-150000D01*
G01*
X168677000Y-115593000D01*
G75*
G02*
X168527000Y-115743000I-150000J0D01*
G01*
X166877000Y-115743000D01*
G75*
G02*
X166727000Y-115593000I0J150000D01*
G01*
G37*
G04 #@! TD.AperFunction*
G04 #@! TA.AperFunction,SMDPad,CuDef*
G36*
G01*
X161777000Y-115593000D02*
X161777000Y-115293000D01*
G75*
G02*
X161927000Y-115143000I150000J0D01*
G01*
X163577000Y-115143000D01*
G75*
G02*
X163727000Y-115293000I0J-150000D01*
G01*
X163727000Y-115593000D01*
G75*
G02*
X163577000Y-115743000I-150000J0D01*
G01*
X161927000Y-115743000D01*
G75*
G02*
X161777000Y-115593000I0J150000D01*
G01*
G37*
G04 #@! TD.AperFunction*
G04 #@! TA.AperFunction,SMDPad,CuDef*
G36*
G01*
X161777000Y-114323000D02*
X161777000Y-114023000D01*
G75*
G02*
X161927000Y-113873000I150000J0D01*
G01*
X163577000Y-113873000D01*
G75*
G02*
X163727000Y-114023000I0J-150000D01*
G01*
X163727000Y-114323000D01*
G75*
G02*
X163577000Y-114473000I-150000J0D01*
G01*
X161927000Y-114473000D01*
G75*
G02*
X161777000Y-114323000I0J150000D01*
G01*
G37*
G04 #@! TD.AperFunction*
G04 #@! TA.AperFunction,SMDPad,CuDef*
G36*
G01*
X161777000Y-113053000D02*
X161777000Y-112753000D01*
G75*
G02*
X161927000Y-112603000I150000J0D01*
G01*
X163577000Y-112603000D01*
G75*
G02*
X163727000Y-112753000I0J-150000D01*
G01*
X163727000Y-113053000D01*
G75*
G02*
X163577000Y-113203000I-150000J0D01*
G01*
X161927000Y-113203000D01*
G75*
G02*
X161777000Y-113053000I0J150000D01*
G01*
G37*
G04 #@! TD.AperFunction*
G04 #@! TA.AperFunction,SMDPad,CuDef*
G36*
G01*
X161777000Y-111783000D02*
X161777000Y-111483000D01*
G75*
G02*
X161927000Y-111333000I150000J0D01*
G01*
X163577000Y-111333000D01*
G75*
G02*
X163727000Y-111483000I0J-150000D01*
G01*
X163727000Y-111783000D01*
G75*
G02*
X163577000Y-111933000I-150000J0D01*
G01*
X161927000Y-111933000D01*
G75*
G02*
X161777000Y-111783000I0J150000D01*
G01*
G37*
G04 #@! TD.AperFunction*
G04 #@! TA.AperFunction,SMDPad,CuDef*
G36*
G01*
X170757001Y-116889000D02*
X169856999Y-116889000D01*
G75*
G02*
X169607000Y-116639001I0J249999D01*
G01*
X169607000Y-115988999D01*
G75*
G02*
X169856999Y-115739000I249999J0D01*
G01*
X170757001Y-115739000D01*
G75*
G02*
X171007000Y-115988999I0J-249999D01*
G01*
X171007000Y-116639001D01*
G75*
G02*
X170757001Y-116889000I-249999J0D01*
G01*
G37*
G04 #@! TD.AperFunction*
G04 #@! TA.AperFunction,SMDPad,CuDef*
G36*
G01*
X170757001Y-118939000D02*
X169856999Y-118939000D01*
G75*
G02*
X169607000Y-118689001I0J249999D01*
G01*
X169607000Y-118038999D01*
G75*
G02*
X169856999Y-117789000I249999J0D01*
G01*
X170757001Y-117789000D01*
G75*
G02*
X171007000Y-118038999I0J-249999D01*
G01*
X171007000Y-118689001D01*
G75*
G02*
X170757001Y-118939000I-249999J0D01*
G01*
G37*
G04 #@! TD.AperFunction*
G04 #@! TA.AperFunction,SMDPad,CuDef*
G36*
G01*
X175952999Y-113471000D02*
X176853001Y-113471000D01*
G75*
G02*
X177103000Y-113720999I0J-249999D01*
G01*
X177103000Y-114371001D01*
G75*
G02*
X176853001Y-114621000I-249999J0D01*
G01*
X175952999Y-114621000D01*
G75*
G02*
X175703000Y-114371001I0J249999D01*
G01*
X175703000Y-113720999D01*
G75*
G02*
X175952999Y-113471000I249999J0D01*
G01*
G37*
G04 #@! TD.AperFunction*
G04 #@! TA.AperFunction,SMDPad,CuDef*
G36*
G01*
X175952999Y-111421000D02*
X176853001Y-111421000D01*
G75*
G02*
X177103000Y-111670999I0J-249999D01*
G01*
X177103000Y-112321001D01*
G75*
G02*
X176853001Y-112571000I-249999J0D01*
G01*
X175952999Y-112571000D01*
G75*
G02*
X175703000Y-112321001I0J249999D01*
G01*
X175703000Y-111670999D01*
G75*
G02*
X175952999Y-111421000I249999J0D01*
G01*
G37*
G04 #@! TD.AperFunction*
G04 #@! TA.AperFunction,SMDPad,CuDef*
G36*
G01*
X173805001Y-116907000D02*
X172904999Y-116907000D01*
G75*
G02*
X172655000Y-116657001I0J249999D01*
G01*
X172655000Y-116006999D01*
G75*
G02*
X172904999Y-115757000I249999J0D01*
G01*
X173805001Y-115757000D01*
G75*
G02*
X174055000Y-116006999I0J-249999D01*
G01*
X174055000Y-116657001D01*
G75*
G02*
X173805001Y-116907000I-249999J0D01*
G01*
G37*
G04 #@! TD.AperFunction*
G04 #@! TA.AperFunction,SMDPad,CuDef*
G36*
G01*
X173805001Y-118957000D02*
X172904999Y-118957000D01*
G75*
G02*
X172655000Y-118707001I0J249999D01*
G01*
X172655000Y-118056999D01*
G75*
G02*
X172904999Y-117807000I249999J0D01*
G01*
X173805001Y-117807000D01*
G75*
G02*
X174055000Y-118056999I0J-249999D01*
G01*
X174055000Y-118707001D01*
G75*
G02*
X173805001Y-118957000I-249999J0D01*
G01*
G37*
G04 #@! TD.AperFunction*
G04 #@! TA.AperFunction,SMDPad,CuDef*
G36*
G01*
X169856999Y-113480000D02*
X170757001Y-113480000D01*
G75*
G02*
X171007000Y-113729999I0J-249999D01*
G01*
X171007000Y-114380001D01*
G75*
G02*
X170757001Y-114630000I-249999J0D01*
G01*
X169856999Y-114630000D01*
G75*
G02*
X169607000Y-114380001I0J249999D01*
G01*
X169607000Y-113729999D01*
G75*
G02*
X169856999Y-113480000I249999J0D01*
G01*
G37*
G04 #@! TD.AperFunction*
G04 #@! TA.AperFunction,SMDPad,CuDef*
G36*
G01*
X169856999Y-111430000D02*
X170757001Y-111430000D01*
G75*
G02*
X171007000Y-111679999I0J-249999D01*
G01*
X171007000Y-112330001D01*
G75*
G02*
X170757001Y-112580000I-249999J0D01*
G01*
X169856999Y-112580000D01*
G75*
G02*
X169607000Y-112330001I0J249999D01*
G01*
X169607000Y-111679999D01*
G75*
G02*
X169856999Y-111430000I249999J0D01*
G01*
G37*
G04 #@! TD.AperFunction*
G04 #@! TA.AperFunction,SMDPad,CuDef*
G36*
G01*
X158563000Y-85147999D02*
X158563000Y-86048001D01*
G75*
G02*
X158313001Y-86298000I-249999J0D01*
G01*
X157662999Y-86298000D01*
G75*
G02*
X157413000Y-86048001I0J249999D01*
G01*
X157413000Y-85147999D01*
G75*
G02*
X157662999Y-84898000I249999J0D01*
G01*
X158313001Y-84898000D01*
G75*
G02*
X158563000Y-85147999I0J-249999D01*
G01*
G37*
G04 #@! TD.AperFunction*
G04 #@! TA.AperFunction,SMDPad,CuDef*
G36*
G01*
X160613000Y-85147999D02*
X160613000Y-86048001D01*
G75*
G02*
X160363001Y-86298000I-249999J0D01*
G01*
X159712999Y-86298000D01*
G75*
G02*
X159463000Y-86048001I0J249999D01*
G01*
X159463000Y-85147999D01*
G75*
G02*
X159712999Y-84898000I249999J0D01*
G01*
X160363001Y-84898000D01*
G75*
G02*
X160613000Y-85147999I0J-249999D01*
G01*
G37*
G04 #@! TD.AperFunction*
G04 #@! TA.AperFunction,SMDPad,CuDef*
G36*
G01*
X148278000Y-82746001D02*
X148278000Y-81845999D01*
G75*
G02*
X148527999Y-81596000I249999J0D01*
G01*
X149178001Y-81596000D01*
G75*
G02*
X149428000Y-81845999I0J-249999D01*
G01*
X149428000Y-82746001D01*
G75*
G02*
X149178001Y-82996000I-249999J0D01*
G01*
X148527999Y-82996000D01*
G75*
G02*
X148278000Y-82746001I0J249999D01*
G01*
G37*
G04 #@! TD.AperFunction*
G04 #@! TA.AperFunction,SMDPad,CuDef*
G36*
G01*
X146228000Y-82746001D02*
X146228000Y-81845999D01*
G75*
G02*
X146477999Y-81596000I249999J0D01*
G01*
X147128001Y-81596000D01*
G75*
G02*
X147378000Y-81845999I0J-249999D01*
G01*
X147378000Y-82746001D01*
G75*
G02*
X147128001Y-82996000I-249999J0D01*
G01*
X146477999Y-82996000D01*
G75*
G02*
X146228000Y-82746001I0J249999D01*
G01*
G37*
G04 #@! TD.AperFunction*
G04 #@! TA.AperFunction,SMDPad,CuDef*
G36*
G01*
X158554000Y-81845999D02*
X158554000Y-82746001D01*
G75*
G02*
X158304001Y-82996000I-249999J0D01*
G01*
X157653999Y-82996000D01*
G75*
G02*
X157404000Y-82746001I0J249999D01*
G01*
X157404000Y-81845999D01*
G75*
G02*
X157653999Y-81596000I249999J0D01*
G01*
X158304001Y-81596000D01*
G75*
G02*
X158554000Y-81845999I0J-249999D01*
G01*
G37*
G04 #@! TD.AperFunction*
G04 #@! TA.AperFunction,SMDPad,CuDef*
G36*
G01*
X160604000Y-81845999D02*
X160604000Y-82746001D01*
G75*
G02*
X160354001Y-82996000I-249999J0D01*
G01*
X159703999Y-82996000D01*
G75*
G02*
X159454000Y-82746001I0J249999D01*
G01*
X159454000Y-81845999D01*
G75*
G02*
X159703999Y-81596000I249999J0D01*
G01*
X160354001Y-81596000D01*
G75*
G02*
X160604000Y-81845999I0J-249999D01*
G01*
G37*
G04 #@! TD.AperFunction*
G04 #@! TA.AperFunction,SMDPad,CuDef*
G36*
G01*
X166058001Y-98601000D02*
X165157999Y-98601000D01*
G75*
G02*
X164908000Y-98351001I0J249999D01*
G01*
X164908000Y-97700999D01*
G75*
G02*
X165157999Y-97451000I249999J0D01*
G01*
X166058001Y-97451000D01*
G75*
G02*
X166308000Y-97700999I0J-249999D01*
G01*
X166308000Y-98351001D01*
G75*
G02*
X166058001Y-98601000I-249999J0D01*
G01*
G37*
G04 #@! TD.AperFunction*
G04 #@! TA.AperFunction,SMDPad,CuDef*
G36*
G01*
X166058001Y-100651000D02*
X165157999Y-100651000D01*
G75*
G02*
X164908000Y-100401001I0J249999D01*
G01*
X164908000Y-99750999D01*
G75*
G02*
X165157999Y-99501000I249999J0D01*
G01*
X166058001Y-99501000D01*
G75*
G02*
X166308000Y-99750999I0J-249999D01*
G01*
X166308000Y-100401001D01*
G75*
G02*
X166058001Y-100651000I-249999J0D01*
G01*
G37*
G04 #@! TD.AperFunction*
G04 #@! TA.AperFunction,SMDPad,CuDef*
G36*
G01*
X168459999Y-99510000D02*
X169360001Y-99510000D01*
G75*
G02*
X169610000Y-99759999I0J-249999D01*
G01*
X169610000Y-100410001D01*
G75*
G02*
X169360001Y-100660000I-249999J0D01*
G01*
X168459999Y-100660000D01*
G75*
G02*
X168210000Y-100410001I0J249999D01*
G01*
X168210000Y-99759999D01*
G75*
G02*
X168459999Y-99510000I249999J0D01*
G01*
G37*
G04 #@! TD.AperFunction*
G04 #@! TA.AperFunction,SMDPad,CuDef*
G36*
G01*
X168459999Y-97460000D02*
X169360001Y-97460000D01*
G75*
G02*
X169610000Y-97709999I0J-249999D01*
G01*
X169610000Y-98360001D01*
G75*
G02*
X169360001Y-98610000I-249999J0D01*
G01*
X168459999Y-98610000D01*
G75*
G02*
X168210000Y-98360001I0J249999D01*
G01*
X168210000Y-97709999D01*
G75*
G02*
X168459999Y-97460000I249999J0D01*
G01*
G37*
G04 #@! TD.AperFunction*
G04 #@! TA.AperFunction,SMDPad,CuDef*
G36*
G01*
X158545000Y-78543999D02*
X158545000Y-79444001D01*
G75*
G02*
X158295001Y-79694000I-249999J0D01*
G01*
X157644999Y-79694000D01*
G75*
G02*
X157395000Y-79444001I0J249999D01*
G01*
X157395000Y-78543999D01*
G75*
G02*
X157644999Y-78294000I249999J0D01*
G01*
X158295001Y-78294000D01*
G75*
G02*
X158545000Y-78543999I0J-249999D01*
G01*
G37*
G04 #@! TD.AperFunction*
G04 #@! TA.AperFunction,SMDPad,CuDef*
G36*
G01*
X160595000Y-78543999D02*
X160595000Y-79444001D01*
G75*
G02*
X160345001Y-79694000I-249999J0D01*
G01*
X159694999Y-79694000D01*
G75*
G02*
X159445000Y-79444001I0J249999D01*
G01*
X159445000Y-78543999D01*
G75*
G02*
X159694999Y-78294000I249999J0D01*
G01*
X160345001Y-78294000D01*
G75*
G02*
X160595000Y-78543999I0J-249999D01*
G01*
G37*
G04 #@! TD.AperFunction*
G04 #@! TA.AperFunction,SMDPad,CuDef*
G36*
G01*
X148269000Y-79444001D02*
X148269000Y-78543999D01*
G75*
G02*
X148518999Y-78294000I249999J0D01*
G01*
X149169001Y-78294000D01*
G75*
G02*
X149419000Y-78543999I0J-249999D01*
G01*
X149419000Y-79444001D01*
G75*
G02*
X149169001Y-79694000I-249999J0D01*
G01*
X148518999Y-79694000D01*
G75*
G02*
X148269000Y-79444001I0J249999D01*
G01*
G37*
G04 #@! TD.AperFunction*
G04 #@! TA.AperFunction,SMDPad,CuDef*
G36*
G01*
X146219000Y-79444001D02*
X146219000Y-78543999D01*
G75*
G02*
X146468999Y-78294000I249999J0D01*
G01*
X147119001Y-78294000D01*
G75*
G02*
X147369000Y-78543999I0J-249999D01*
G01*
X147369000Y-79444001D01*
G75*
G02*
X147119001Y-79694000I-249999J0D01*
G01*
X146468999Y-79694000D01*
G75*
G02*
X146219000Y-79444001I0J249999D01*
G01*
G37*
G04 #@! TD.AperFunction*
G04 #@! TA.AperFunction,SMDPad,CuDef*
G36*
G01*
X147378000Y-85147999D02*
X147378000Y-86048001D01*
G75*
G02*
X147128001Y-86298000I-249999J0D01*
G01*
X146477999Y-86298000D01*
G75*
G02*
X146228000Y-86048001I0J249999D01*
G01*
X146228000Y-85147999D01*
G75*
G02*
X146477999Y-84898000I249999J0D01*
G01*
X147128001Y-84898000D01*
G75*
G02*
X147378000Y-85147999I0J-249999D01*
G01*
G37*
G04 #@! TD.AperFunction*
G04 #@! TA.AperFunction,SMDPad,CuDef*
G36*
G01*
X149428000Y-85147999D02*
X149428000Y-86048001D01*
G75*
G02*
X149178001Y-86298000I-249999J0D01*
G01*
X148527999Y-86298000D01*
G75*
G02*
X148278000Y-86048001I0J249999D01*
G01*
X148278000Y-85147999D01*
G75*
G02*
X148527999Y-84898000I249999J0D01*
G01*
X149178001Y-84898000D01*
G75*
G02*
X149428000Y-85147999I0J-249999D01*
G01*
G37*
G04 #@! TD.AperFunction*
G04 #@! TA.AperFunction,SMDPad,CuDef*
G36*
G01*
X143697000Y-102050001D02*
X143697000Y-101149999D01*
G75*
G02*
X143946999Y-100900000I249999J0D01*
G01*
X144597001Y-100900000D01*
G75*
G02*
X144847000Y-101149999I0J-249999D01*
G01*
X144847000Y-102050001D01*
G75*
G02*
X144597001Y-102300000I-249999J0D01*
G01*
X143946999Y-102300000D01*
G75*
G02*
X143697000Y-102050001I0J249999D01*
G01*
G37*
G04 #@! TD.AperFunction*
G04 #@! TA.AperFunction,SMDPad,CuDef*
G36*
G01*
X141647000Y-102050001D02*
X141647000Y-101149999D01*
G75*
G02*
X141896999Y-100900000I249999J0D01*
G01*
X142547001Y-100900000D01*
G75*
G02*
X142797000Y-101149999I0J-249999D01*
G01*
X142797000Y-102050001D01*
G75*
G02*
X142547001Y-102300000I-249999J0D01*
G01*
X141896999Y-102300000D01*
G75*
G02*
X141647000Y-102050001I0J249999D01*
G01*
G37*
G04 #@! TD.AperFunction*
G04 #@! TA.AperFunction,SMDPad,CuDef*
G36*
G01*
X148269000Y-105352001D02*
X148269000Y-104451999D01*
G75*
G02*
X148518999Y-104202000I249999J0D01*
G01*
X149169001Y-104202000D01*
G75*
G02*
X149419000Y-104451999I0J-249999D01*
G01*
X149419000Y-105352001D01*
G75*
G02*
X149169001Y-105602000I-249999J0D01*
G01*
X148518999Y-105602000D01*
G75*
G02*
X148269000Y-105352001I0J249999D01*
G01*
G37*
G04 #@! TD.AperFunction*
G04 #@! TA.AperFunction,SMDPad,CuDef*
G36*
G01*
X146219000Y-105352001D02*
X146219000Y-104451999D01*
G75*
G02*
X146468999Y-104202000I249999J0D01*
G01*
X147119001Y-104202000D01*
G75*
G02*
X147369000Y-104451999I0J-249999D01*
G01*
X147369000Y-105352001D01*
G75*
G02*
X147119001Y-105602000I-249999J0D01*
G01*
X146468999Y-105602000D01*
G75*
G02*
X146219000Y-105352001I0J249999D01*
G01*
G37*
G04 #@! TD.AperFunction*
G04 #@! TA.AperFunction,SMDPad,CuDef*
G36*
G01*
X172025000Y-91751999D02*
X172025000Y-92652001D01*
G75*
G02*
X171775001Y-92902000I-249999J0D01*
G01*
X171124999Y-92902000D01*
G75*
G02*
X170875000Y-92652001I0J249999D01*
G01*
X170875000Y-91751999D01*
G75*
G02*
X171124999Y-91502000I249999J0D01*
G01*
X171775001Y-91502000D01*
G75*
G02*
X172025000Y-91751999I0J-249999D01*
G01*
G37*
G04 #@! TD.AperFunction*
G04 #@! TA.AperFunction,SMDPad,CuDef*
G36*
G01*
X174075000Y-91751999D02*
X174075000Y-92652001D01*
G75*
G02*
X173825001Y-92902000I-249999J0D01*
G01*
X173174999Y-92902000D01*
G75*
G02*
X172925000Y-92652001I0J249999D01*
G01*
X172925000Y-91751999D01*
G75*
G02*
X173174999Y-91502000I249999J0D01*
G01*
X173825001Y-91502000D01*
G75*
G02*
X174075000Y-91751999I0J-249999D01*
G01*
G37*
G04 #@! TD.AperFunction*
G04 #@! TA.AperFunction,SMDPad,CuDef*
G36*
G01*
X148269000Y-102050001D02*
X148269000Y-101149999D01*
G75*
G02*
X148518999Y-100900000I249999J0D01*
G01*
X149169001Y-100900000D01*
G75*
G02*
X149419000Y-101149999I0J-249999D01*
G01*
X149419000Y-102050001D01*
G75*
G02*
X149169001Y-102300000I-249999J0D01*
G01*
X148518999Y-102300000D01*
G75*
G02*
X148269000Y-102050001I0J249999D01*
G01*
G37*
G04 #@! TD.AperFunction*
G04 #@! TA.AperFunction,SMDPad,CuDef*
G36*
G01*
X146219000Y-102050001D02*
X146219000Y-101149999D01*
G75*
G02*
X146468999Y-100900000I249999J0D01*
G01*
X147119001Y-100900000D01*
G75*
G02*
X147369000Y-101149999I0J-249999D01*
G01*
X147369000Y-102050001D01*
G75*
G02*
X147119001Y-102300000I-249999J0D01*
G01*
X146468999Y-102300000D01*
G75*
G02*
X146219000Y-102050001I0J249999D01*
G01*
G37*
G04 #@! TD.AperFunction*
G04 #@! TA.AperFunction,SMDPad,CuDef*
G36*
G01*
X159696999Y-112473000D02*
X160597001Y-112473000D01*
G75*
G02*
X160847000Y-112722999I0J-249999D01*
G01*
X160847000Y-113373001D01*
G75*
G02*
X160597001Y-113623000I-249999J0D01*
G01*
X159696999Y-113623000D01*
G75*
G02*
X159447000Y-113373001I0J249999D01*
G01*
X159447000Y-112722999D01*
G75*
G02*
X159696999Y-112473000I249999J0D01*
G01*
G37*
G04 #@! TD.AperFunction*
G04 #@! TA.AperFunction,SMDPad,CuDef*
G36*
G01*
X159696999Y-110423000D02*
X160597001Y-110423000D01*
G75*
G02*
X160847000Y-110672999I0J-249999D01*
G01*
X160847000Y-111323001D01*
G75*
G02*
X160597001Y-111573000I-249999J0D01*
G01*
X159696999Y-111573000D01*
G75*
G02*
X159447000Y-111323001I0J249999D01*
G01*
X159447000Y-110672999D01*
G75*
G02*
X159696999Y-110423000I249999J0D01*
G01*
G37*
G04 #@! TD.AperFunction*
G04 #@! TA.AperFunction,SMDPad,CuDef*
G36*
G01*
X147369000Y-97847999D02*
X147369000Y-98748001D01*
G75*
G02*
X147119001Y-98998000I-249999J0D01*
G01*
X146468999Y-98998000D01*
G75*
G02*
X146219000Y-98748001I0J249999D01*
G01*
X146219000Y-97847999D01*
G75*
G02*
X146468999Y-97598000I249999J0D01*
G01*
X147119001Y-97598000D01*
G75*
G02*
X147369000Y-97847999I0J-249999D01*
G01*
G37*
G04 #@! TD.AperFunction*
G04 #@! TA.AperFunction,SMDPad,CuDef*
G36*
G01*
X149419000Y-97847999D02*
X149419000Y-98748001D01*
G75*
G02*
X149169001Y-98998000I-249999J0D01*
G01*
X148518999Y-98998000D01*
G75*
G02*
X148269000Y-98748001I0J249999D01*
G01*
X148269000Y-97847999D01*
G75*
G02*
X148518999Y-97598000I249999J0D01*
G01*
X149169001Y-97598000D01*
G75*
G02*
X149419000Y-97847999I0J-249999D01*
G01*
G37*
G04 #@! TD.AperFunction*
G04 #@! TA.AperFunction,SMDPad,CuDef*
G36*
G01*
X154108999Y-112455000D02*
X155009001Y-112455000D01*
G75*
G02*
X155259000Y-112704999I0J-249999D01*
G01*
X155259000Y-113355001D01*
G75*
G02*
X155009001Y-113605000I-249999J0D01*
G01*
X154108999Y-113605000D01*
G75*
G02*
X153859000Y-113355001I0J249999D01*
G01*
X153859000Y-112704999D01*
G75*
G02*
X154108999Y-112455000I249999J0D01*
G01*
G37*
G04 #@! TD.AperFunction*
G04 #@! TA.AperFunction,SMDPad,CuDef*
G36*
G01*
X154108999Y-110405000D02*
X155009001Y-110405000D01*
G75*
G02*
X155259000Y-110654999I0J-249999D01*
G01*
X155259000Y-111305001D01*
G75*
G02*
X155009001Y-111555000I-249999J0D01*
G01*
X154108999Y-111555000D01*
G75*
G02*
X153859000Y-111305001I0J249999D01*
G01*
X153859000Y-110654999D01*
G75*
G02*
X154108999Y-110405000I249999J0D01*
G01*
G37*
G04 #@! TD.AperFunction*
G04 #@! TA.AperFunction,SMDPad,CuDef*
G36*
G01*
X152215001Y-111555000D02*
X151314999Y-111555000D01*
G75*
G02*
X151065000Y-111305001I0J249999D01*
G01*
X151065000Y-110654999D01*
G75*
G02*
X151314999Y-110405000I249999J0D01*
G01*
X152215001Y-110405000D01*
G75*
G02*
X152465000Y-110654999I0J-249999D01*
G01*
X152465000Y-111305001D01*
G75*
G02*
X152215001Y-111555000I-249999J0D01*
G01*
G37*
G04 #@! TD.AperFunction*
G04 #@! TA.AperFunction,SMDPad,CuDef*
G36*
G01*
X152215001Y-113605000D02*
X151314999Y-113605000D01*
G75*
G02*
X151065000Y-113355001I0J249999D01*
G01*
X151065000Y-112704999D01*
G75*
G02*
X151314999Y-112455000I249999J0D01*
G01*
X152215001Y-112455000D01*
G75*
G02*
X152465000Y-112704999I0J-249999D01*
G01*
X152465000Y-113355001D01*
G75*
G02*
X152215001Y-113605000I-249999J0D01*
G01*
G37*
G04 #@! TD.AperFunction*
G04 #@! TA.AperFunction,SMDPad,CuDef*
G36*
G01*
X142797000Y-97847999D02*
X142797000Y-98748001D01*
G75*
G02*
X142547001Y-98998000I-249999J0D01*
G01*
X141896999Y-98998000D01*
G75*
G02*
X141647000Y-98748001I0J249999D01*
G01*
X141647000Y-97847999D01*
G75*
G02*
X141896999Y-97598000I249999J0D01*
G01*
X142547001Y-97598000D01*
G75*
G02*
X142797000Y-97847999I0J-249999D01*
G01*
G37*
G04 #@! TD.AperFunction*
G04 #@! TA.AperFunction,SMDPad,CuDef*
G36*
G01*
X144847000Y-97847999D02*
X144847000Y-98748001D01*
G75*
G02*
X144597001Y-98998000I-249999J0D01*
G01*
X143946999Y-98998000D01*
G75*
G02*
X143697000Y-98748001I0J249999D01*
G01*
X143697000Y-97847999D01*
G75*
G02*
X143946999Y-97598000I249999J0D01*
G01*
X144597001Y-97598000D01*
G75*
G02*
X144847000Y-97847999I0J-249999D01*
G01*
G37*
G04 #@! TD.AperFunction*
D15*
X182880000Y-124460000D03*
X182880000Y-121920000D03*
X182880000Y-119380000D03*
X182880000Y-116840000D03*
X182880000Y-114300000D03*
X182880000Y-111760000D03*
X182880000Y-109220000D03*
D16*
X182880000Y-106680000D03*
D15*
X182880000Y-86360000D03*
X182880000Y-83820000D03*
X182880000Y-81280000D03*
D16*
X182880000Y-78740000D03*
D15*
X129540000Y-86360000D03*
X129540000Y-83820000D03*
X129540000Y-81280000D03*
D16*
X129540000Y-78740000D03*
D15*
X129540000Y-124460000D03*
X129540000Y-121920000D03*
X129540000Y-119380000D03*
D16*
X129540000Y-116840000D03*
G04 #@! TA.AperFunction,SMDPad,CuDef*
G36*
G01*
X172907000Y-95954001D02*
X172907000Y-95053999D01*
G75*
G02*
X173156999Y-94804000I249999J0D01*
G01*
X173807001Y-94804000D01*
G75*
G02*
X174057000Y-95053999I0J-249999D01*
G01*
X174057000Y-95954001D01*
G75*
G02*
X173807001Y-96204000I-249999J0D01*
G01*
X173156999Y-96204000D01*
G75*
G02*
X172907000Y-95954001I0J249999D01*
G01*
G37*
G04 #@! TD.AperFunction*
G04 #@! TA.AperFunction,SMDPad,CuDef*
G36*
G01*
X170857000Y-95954001D02*
X170857000Y-95053999D01*
G75*
G02*
X171106999Y-94804000I249999J0D01*
G01*
X171757001Y-94804000D01*
G75*
G02*
X172007000Y-95053999I0J-249999D01*
G01*
X172007000Y-95954001D01*
G75*
G02*
X171757001Y-96204000I-249999J0D01*
G01*
X171106999Y-96204000D01*
G75*
G02*
X170857000Y-95954001I0J249999D01*
G01*
G37*
G04 #@! TD.AperFunction*
G04 #@! TA.AperFunction,SMDPad,CuDef*
G36*
G01*
X172007000Y-98101999D02*
X172007000Y-99002001D01*
G75*
G02*
X171757001Y-99252000I-249999J0D01*
G01*
X171106999Y-99252000D01*
G75*
G02*
X170857000Y-99002001I0J249999D01*
G01*
X170857000Y-98101999D01*
G75*
G02*
X171106999Y-97852000I249999J0D01*
G01*
X171757001Y-97852000D01*
G75*
G02*
X172007000Y-98101999I0J-249999D01*
G01*
G37*
G04 #@! TD.AperFunction*
G04 #@! TA.AperFunction,SMDPad,CuDef*
G36*
G01*
X174057000Y-98101999D02*
X174057000Y-99002001D01*
G75*
G02*
X173807001Y-99252000I-249999J0D01*
G01*
X173156999Y-99252000D01*
G75*
G02*
X172907000Y-99002001I0J249999D01*
G01*
X172907000Y-98101999D01*
G75*
G02*
X173156999Y-97852000I249999J0D01*
G01*
X173807001Y-97852000D01*
G75*
G02*
X174057000Y-98101999I0J-249999D01*
G01*
G37*
G04 #@! TD.AperFunction*
G04 #@! TA.AperFunction,SMDPad,CuDef*
G36*
G01*
X179257000Y-120846001D02*
X179257000Y-119945999D01*
G75*
G02*
X179506999Y-119696000I249999J0D01*
G01*
X180157001Y-119696000D01*
G75*
G02*
X180407000Y-119945999I0J-249999D01*
G01*
X180407000Y-120846001D01*
G75*
G02*
X180157001Y-121096000I-249999J0D01*
G01*
X179506999Y-121096000D01*
G75*
G02*
X179257000Y-120846001I0J249999D01*
G01*
G37*
G04 #@! TD.AperFunction*
G04 #@! TA.AperFunction,SMDPad,CuDef*
G36*
G01*
X177207000Y-120846001D02*
X177207000Y-119945999D01*
G75*
G02*
X177456999Y-119696000I249999J0D01*
G01*
X178107001Y-119696000D01*
G75*
G02*
X178357000Y-119945999I0J-249999D01*
G01*
X178357000Y-120846001D01*
G75*
G02*
X178107001Y-121096000I-249999J0D01*
G01*
X177456999Y-121096000D01*
G75*
G02*
X177207000Y-120846001I0J249999D01*
G01*
G37*
G04 #@! TD.AperFunction*
G04 #@! TA.AperFunction,SMDPad,CuDef*
G36*
G01*
X178357000Y-123247999D02*
X178357000Y-124148001D01*
G75*
G02*
X178107001Y-124398000I-249999J0D01*
G01*
X177456999Y-124398000D01*
G75*
G02*
X177207000Y-124148001I0J249999D01*
G01*
X177207000Y-123247999D01*
G75*
G02*
X177456999Y-122998000I249999J0D01*
G01*
X178107001Y-122998000D01*
G75*
G02*
X178357000Y-123247999I0J-249999D01*
G01*
G37*
G04 #@! TD.AperFunction*
G04 #@! TA.AperFunction,SMDPad,CuDef*
G36*
G01*
X180407000Y-123247999D02*
X180407000Y-124148001D01*
G75*
G02*
X180157001Y-124398000I-249999J0D01*
G01*
X179506999Y-124398000D01*
G75*
G02*
X179257000Y-124148001I0J249999D01*
G01*
X179257000Y-123247999D01*
G75*
G02*
X179506999Y-122998000I249999J0D01*
G01*
X180157001Y-122998000D01*
G75*
G02*
X180407000Y-123247999I0J-249999D01*
G01*
G37*
G04 #@! TD.AperFunction*
D17*
X176530000Y-100965000D03*
X176530000Y-104775000D03*
X170180000Y-108585000D03*
X164465000Y-108585000D03*
X159385000Y-108585000D03*
X153670000Y-108585000D03*
X148590000Y-108585000D03*
X177165000Y-85725000D03*
X179070000Y-92075000D03*
X158750000Y-92710000D03*
X165100000Y-90170000D03*
X145415000Y-92075000D03*
X140970000Y-92075000D03*
X133350000Y-93980000D03*
D18*
X165862000Y-121920000D03*
X164846006Y-120180010D03*
X173482000Y-90932000D03*
X171069000Y-94107000D03*
X170687992Y-105410000D03*
X171958000Y-115316000D03*
X159258000Y-115062000D03*
X167894000Y-99060000D03*
X161798000Y-110236000D03*
D19*
X165608000Y-80344000D02*
X165608000Y-81770000D01*
X152908000Y-80090000D02*
X152908000Y-81534000D01*
X159512000Y-102879000D02*
X159512000Y-104314000D01*
X154178000Y-102879000D02*
X154178000Y-104314000D01*
X157988000Y-97980500D02*
X159385000Y-99377500D01*
X157988000Y-95758000D02*
X157988000Y-97980500D01*
X159385000Y-99377500D02*
X159385000Y-100838000D01*
D20*
X182372000Y-124968000D02*
X182880000Y-124460000D01*
X182880000Y-121920000D02*
X182880000Y-124460000D01*
D19*
X165862000Y-112268000D02*
X165862000Y-121920000D01*
X166497000Y-111633000D02*
X165862000Y-112268000D01*
X167702000Y-111633000D02*
X166497000Y-111633000D01*
X173228000Y-98298000D02*
X173482000Y-98552000D01*
X173228000Y-97282000D02*
X173228000Y-98298000D01*
X171448011Y-93302009D02*
X172466000Y-94319998D01*
X172466000Y-96520000D02*
X173228000Y-97282000D01*
X163152009Y-93302009D02*
X171448011Y-93302009D01*
X157988000Y-88138000D02*
X163152009Y-93302009D01*
X172466000Y-94319998D02*
X172466000Y-96520000D01*
X178856990Y-122722990D02*
X179832000Y-123698000D01*
X178856990Y-100370990D02*
X178856990Y-122722990D01*
X173228000Y-97282000D02*
X175768000Y-97282000D01*
X175768000Y-97282000D02*
X178856990Y-100370990D01*
D21*
X182118000Y-123698000D02*
X182880000Y-124460000D01*
X179832000Y-123698000D02*
X182118000Y-123698000D01*
D20*
X182880000Y-116840000D02*
X182880000Y-119380000D01*
X181864000Y-120396000D02*
X182880000Y-119380000D01*
X179832000Y-120396000D02*
X181864000Y-120396000D01*
D19*
X179832000Y-120396000D02*
X179832000Y-99568000D01*
X175768000Y-95504000D02*
X173482000Y-95504000D01*
X179832000Y-99568000D02*
X175768000Y-95504000D01*
X173482000Y-92220000D02*
X173500000Y-92202000D01*
X173482000Y-95504000D02*
X173482000Y-92220000D01*
X148844000Y-82287000D02*
X148853000Y-82296000D01*
X148844000Y-78994000D02*
X148844000Y-82287000D01*
X173500000Y-90950000D02*
X173482000Y-90932000D01*
X173500000Y-92202000D02*
X173500000Y-90950000D01*
X170287993Y-105809999D02*
X170687992Y-105410000D01*
X149751999Y-105809999D02*
X170287993Y-105809999D01*
X148844000Y-104902000D02*
X149751999Y-105809999D01*
X170864020Y-93902020D02*
X171069000Y-94107000D01*
X162736020Y-93902020D02*
X170864020Y-93902020D01*
X158496000Y-89662000D02*
X162736020Y-93902020D01*
X155067000Y-89662000D02*
X158496000Y-89662000D01*
X148853000Y-82296000D02*
X149107000Y-82550000D01*
X154178000Y-88773000D02*
X155067000Y-89662000D01*
X149126010Y-82569010D02*
X148853000Y-82296000D01*
X153624224Y-82569010D02*
X149126010Y-82569010D01*
X154178000Y-83122786D02*
X153624224Y-82569010D01*
X154178000Y-88773000D02*
X154178000Y-83122786D01*
X164846006Y-115951006D02*
X164846006Y-120180010D01*
X162752000Y-115443000D02*
X164338000Y-115443000D01*
X164338000Y-115443000D02*
X164846006Y-115951006D01*
X170316000Y-111996000D02*
X170307000Y-112005000D01*
X173355000Y-111996000D02*
X170316000Y-111996000D01*
X169409000Y-112903000D02*
X170307000Y-112005000D01*
X167702000Y-112903000D02*
X169409000Y-112903000D01*
X173355000Y-107823000D02*
X173228000Y-107696000D01*
X173355000Y-111996000D02*
X173355000Y-107823000D01*
X182880000Y-83820000D02*
X182880000Y-86360000D01*
X181102000Y-88138000D02*
X182880000Y-86360000D01*
X179832000Y-88138000D02*
X181102000Y-88138000D01*
X170307000Y-116314000D02*
X170960000Y-116314000D01*
X170960000Y-116314000D02*
X171958000Y-115316000D01*
X129540000Y-83820000D02*
X129540000Y-86360000D01*
X141478000Y-98298000D02*
X129540000Y-86360000D01*
X142222000Y-98298000D02*
X141478000Y-98298000D01*
X176403000Y-111996000D02*
X176403000Y-107061000D01*
X140208000Y-103886000D02*
X140208000Y-100312000D01*
X170765979Y-106602021D02*
X142924021Y-106602021D01*
X140208000Y-100312000D02*
X142222000Y-98298000D01*
X175552002Y-106210002D02*
X171157998Y-106210002D01*
X171157998Y-106210002D02*
X170765979Y-106602021D01*
X176403000Y-107061000D02*
X175552002Y-106210002D01*
X142924021Y-106602021D02*
X140208000Y-103886000D01*
X182880000Y-111760000D02*
X182880000Y-114300000D01*
X147320000Y-119380000D02*
X147320000Y-121920000D01*
X144272000Y-98298000D02*
X146794000Y-98298000D01*
X147828000Y-95758000D02*
X146794000Y-96792000D01*
X146794000Y-96792000D02*
X146794000Y-98298000D01*
X143020000Y-110980000D02*
X151765000Y-110980000D01*
X134620000Y-119380000D02*
X143020000Y-110980000D01*
X153484010Y-112054990D02*
X154559000Y-110980000D01*
X148295010Y-112054990D02*
X153484010Y-112054990D01*
X140970000Y-119380000D02*
X148295010Y-112054990D01*
X148844000Y-98298000D02*
X148844000Y-101600000D01*
X154108001Y-95321997D02*
X154108001Y-96334001D01*
X154108001Y-96334001D02*
X152144002Y-98298000D01*
X154871999Y-94557999D02*
X154108001Y-95321997D01*
X161867999Y-94557999D02*
X154871999Y-94557999D01*
X152144002Y-98298000D02*
X148844000Y-98298000D01*
X163068000Y-95758000D02*
X161867999Y-94557999D01*
X144272000Y-101600000D02*
X146794000Y-101600000D01*
X146794000Y-104902000D02*
X146794000Y-101600000D01*
X149167999Y-96958001D02*
X150368000Y-95758000D01*
X147868990Y-97578754D02*
X148489743Y-96958001D01*
X147868990Y-100525010D02*
X147868990Y-97578754D01*
X146794000Y-101600000D02*
X147868990Y-100525010D01*
X148489743Y-96958001D02*
X149167999Y-96958001D01*
X164592000Y-92202000D02*
X171450000Y-92202000D01*
X160528000Y-88138000D02*
X164592000Y-92202000D01*
X143197010Y-100624990D02*
X143197010Y-89203990D01*
X143197010Y-89203990D02*
X146803000Y-85598000D01*
X142222000Y-101600000D02*
X143197010Y-100624990D01*
X143746410Y-106002010D02*
X142222000Y-104477600D01*
X147591590Y-106002010D02*
X143746410Y-106002010D01*
X147769010Y-105824590D02*
X147591590Y-106002010D01*
X142222000Y-104477600D02*
X142222000Y-101600000D01*
X147769010Y-104282734D02*
X147769010Y-105824590D01*
X148674010Y-103801990D02*
X148249754Y-103801990D01*
X150539490Y-101936510D02*
X148674010Y-103801990D01*
X161290000Y-96520000D02*
X161290000Y-100745256D01*
X160126704Y-101936510D02*
X150539490Y-101936510D01*
X160528000Y-95758000D02*
X161290000Y-96520000D01*
X148249754Y-103801990D02*
X147769010Y-104282734D01*
X160547010Y-101516204D02*
X160126704Y-101936510D01*
X161290000Y-100745256D02*
X160547010Y-101488246D01*
X160547010Y-101488246D02*
X160547010Y-101516204D01*
X148853000Y-86623000D02*
X150368000Y-88138000D01*
X148853000Y-85598000D02*
X148853000Y-86623000D01*
X148853000Y-84591000D02*
X148853000Y-85598000D01*
X147828000Y-83566000D02*
X148853000Y-84591000D01*
X146794000Y-78994000D02*
X147828000Y-80028000D01*
X147828000Y-80028000D02*
X147828000Y-83566000D01*
X147894010Y-77893990D02*
X146794000Y-78994000D01*
X156869990Y-77893990D02*
X147894010Y-77893990D01*
X157970000Y-78994000D02*
X156869990Y-77893990D01*
X160020000Y-80255000D02*
X157979000Y-82296000D01*
X160020000Y-78994000D02*
X160020000Y-80255000D01*
X155448000Y-84827000D02*
X155448000Y-88138000D01*
X157979000Y-82296000D02*
X155448000Y-84827000D01*
X147320000Y-116840000D02*
X157480000Y-116840000D01*
X157480000Y-116840000D02*
X159258000Y-115062000D01*
X167894000Y-99069000D02*
X167894000Y-99060000D01*
X168910000Y-100085000D02*
X167894000Y-99069000D01*
X168148000Y-97273000D02*
X168910000Y-98035000D01*
X168148000Y-95758000D02*
X168148000Y-97273000D01*
X165608000Y-95758000D02*
X165608000Y-98026000D01*
X146803000Y-82296000D02*
X145818990Y-81311990D01*
X145818990Y-78274754D02*
X146877744Y-77216000D01*
X145818990Y-81311990D02*
X145818990Y-78274754D01*
X146877744Y-77216000D02*
X160274000Y-77216000D01*
X160995010Y-81329990D02*
X160029000Y-82296000D01*
X160995010Y-77937010D02*
X160995010Y-81329990D01*
X160274000Y-77216000D02*
X160995010Y-77937010D01*
X157988000Y-84337000D02*
X157988000Y-85598000D01*
X160029000Y-82296000D02*
X157988000Y-84337000D01*
X147828000Y-84582000D02*
X147828000Y-88138000D01*
X146812000Y-83566000D02*
X147828000Y-84582000D01*
X146803000Y-82296000D02*
X146812000Y-82305000D01*
X146812000Y-82305000D02*
X146812000Y-83566000D01*
D22*
X168647000Y-115325000D02*
X168656000Y-115316000D01*
D19*
X167702000Y-115759000D02*
X170307000Y-118364000D01*
X167702000Y-115443000D02*
X167702000Y-115759000D01*
X173337000Y-118364000D02*
X173355000Y-118382000D01*
X170307000Y-118364000D02*
X173337000Y-118364000D01*
X152908000Y-83584000D02*
X152908000Y-85090000D01*
X152908000Y-85090000D02*
X152908000Y-88138000D01*
X154178000Y-100829000D02*
X154178000Y-99314000D01*
X154178000Y-99314000D02*
X155448000Y-98044000D01*
X155448000Y-98044000D02*
X155448000Y-95758000D01*
X165608000Y-83820000D02*
X165608000Y-85344000D01*
X165608000Y-85344000D02*
X165608000Y-88138000D01*
X168148000Y-88138000D02*
X174832000Y-88138000D01*
X162914510Y-82721490D02*
X160038000Y-85598000D01*
X166349704Y-82721490D02*
X162914510Y-82721490D01*
X168148000Y-84519786D02*
X166349704Y-82721490D01*
X168148000Y-88138000D02*
X168148000Y-84519786D01*
X160782000Y-111633000D02*
X160147000Y-110998000D01*
X162752000Y-111633000D02*
X160782000Y-111633000D01*
X157371000Y-110998000D02*
X157353000Y-110980000D01*
X160147000Y-110998000D02*
X157371000Y-110998000D01*
X161798000Y-111633000D02*
X161798000Y-110236000D01*
X162752000Y-111633000D02*
X161798000Y-111633000D01*
X151765000Y-113030000D02*
X154559000Y-113030000D01*
X154559000Y-113030000D02*
X157353000Y-113030000D01*
X160129000Y-113030000D02*
X160147000Y-113048000D01*
X157353000Y-113030000D02*
X160129000Y-113030000D01*
X162607000Y-113048000D02*
X162752000Y-112903000D01*
X160147000Y-113048000D02*
X162607000Y-113048000D01*
X166577000Y-102696000D02*
X173228000Y-102696000D01*
X165608000Y-100076000D02*
X165608000Y-101727000D01*
X165608000Y-101727000D02*
X166577000Y-102696000D01*
X170189000Y-114173000D02*
X170307000Y-114055000D01*
X167702000Y-114173000D02*
X170189000Y-114173000D01*
X173346000Y-114055000D02*
X173355000Y-114046000D01*
X170307000Y-114055000D02*
X173346000Y-114055000D01*
X173355000Y-114046000D02*
X176403000Y-114046000D01*
X129540000Y-121920000D02*
X129540000Y-124460000D01*
X134620000Y-116840000D02*
X129540000Y-121920000D01*
D23*
G36*
X145257564Y-77655313D02*
G01*
X145225700Y-77681463D01*
X145185620Y-77730301D01*
X145121354Y-77808609D01*
X145043818Y-77953668D01*
X144996072Y-78111066D01*
X144979950Y-78274754D01*
X144983991Y-78315782D01*
X144983990Y-81270971D01*
X144979950Y-81311990D01*
X144983990Y-81353008D01*
X144996072Y-81475678D01*
X145043818Y-81633076D01*
X145121354Y-81778135D01*
X145225699Y-81905281D01*
X145257569Y-81931436D01*
X145589928Y-82263795D01*
X145589928Y-82746001D01*
X145606992Y-82919255D01*
X145657528Y-83085851D01*
X145739595Y-83239387D01*
X145850038Y-83373962D01*
X145977001Y-83478158D01*
X145977001Y-83524972D01*
X145972960Y-83566000D01*
X145989082Y-83729688D01*
X146036828Y-83887086D01*
X146112988Y-84029570D01*
X146114365Y-84032146D01*
X146218710Y-84159291D01*
X146250574Y-84185441D01*
X146338773Y-84273641D01*
X146304745Y-84276992D01*
X146138149Y-84327528D01*
X145984613Y-84409595D01*
X145850038Y-84520038D01*
X145739595Y-84654613D01*
X145657528Y-84808149D01*
X145606992Y-84974745D01*
X145589928Y-85147999D01*
X145589928Y-85630203D01*
X142635584Y-88584549D01*
X142603720Y-88610699D01*
X142577572Y-88642561D01*
X142499374Y-88737845D01*
X142421838Y-88882904D01*
X142374092Y-89040302D01*
X142357970Y-89203990D01*
X142362011Y-89245019D01*
X142362010Y-96959928D01*
X141896999Y-96959928D01*
X141723745Y-96976992D01*
X141557149Y-97027528D01*
X141447178Y-97086309D01*
X130998807Y-86637940D01*
X131025000Y-86506260D01*
X131025000Y-86213740D01*
X130967932Y-85926842D01*
X130855990Y-85656589D01*
X130693475Y-85413368D01*
X130486632Y-85206525D01*
X130375000Y-85131935D01*
X130375000Y-85048065D01*
X130486632Y-84973475D01*
X130693475Y-84766632D01*
X130855990Y-84523411D01*
X130967932Y-84253158D01*
X131025000Y-83966260D01*
X131025000Y-83673740D01*
X130967932Y-83386842D01*
X130855990Y-83116589D01*
X130693475Y-82873368D01*
X130486632Y-82666525D01*
X130304466Y-82544805D01*
X130421355Y-82475178D01*
X130637588Y-82280269D01*
X130811641Y-82046920D01*
X130936825Y-81784099D01*
X130981476Y-81636890D01*
X130860155Y-81407000D01*
X129667000Y-81407000D01*
X129667000Y-81427000D01*
X129413000Y-81427000D01*
X129413000Y-81407000D01*
X128219845Y-81407000D01*
X128098524Y-81636890D01*
X128143175Y-81784099D01*
X128268359Y-82046920D01*
X128442412Y-82280269D01*
X128658645Y-82475178D01*
X128775534Y-82544805D01*
X128593368Y-82666525D01*
X128386525Y-82873368D01*
X128224010Y-83116589D01*
X128112068Y-83386842D01*
X128055000Y-83673740D01*
X128055000Y-83966260D01*
X128112068Y-84253158D01*
X128224010Y-84523411D01*
X128386525Y-84766632D01*
X128593368Y-84973475D01*
X128705000Y-85048065D01*
X128705001Y-85131935D01*
X128593368Y-85206525D01*
X128386525Y-85413368D01*
X128224010Y-85656589D01*
X128112068Y-85926842D01*
X128055000Y-86213740D01*
X128055000Y-86506260D01*
X128112068Y-86793158D01*
X128224010Y-87063411D01*
X128386525Y-87306632D01*
X128593368Y-87513475D01*
X128836589Y-87675990D01*
X129106842Y-87787932D01*
X129393740Y-87845000D01*
X129686260Y-87845000D01*
X129817940Y-87818807D01*
X140669132Y-98670001D01*
X139646574Y-99692559D01*
X139614710Y-99718709D01*
X139566298Y-99777699D01*
X139510364Y-99845855D01*
X139432828Y-99990914D01*
X139385082Y-100148312D01*
X139368960Y-100312000D01*
X139373001Y-100353028D01*
X139373000Y-103844981D01*
X139368960Y-103886000D01*
X139382526Y-104023738D01*
X139385082Y-104049688D01*
X139432828Y-104207086D01*
X139510364Y-104352145D01*
X139614709Y-104479291D01*
X139646579Y-104505446D01*
X142304584Y-107163453D01*
X142330730Y-107195312D01*
X142362589Y-107221458D01*
X142362591Y-107221460D01*
X142411467Y-107261571D01*
X142457875Y-107299657D01*
X142602934Y-107377193D01*
X142760332Y-107424939D01*
X142883002Y-107437021D01*
X142883003Y-107437021D01*
X142924021Y-107441061D01*
X142965039Y-107437021D01*
X170724961Y-107437021D01*
X170765979Y-107441061D01*
X170806997Y-107437021D01*
X170806998Y-107437021D01*
X170929668Y-107424939D01*
X171087066Y-107377193D01*
X171232125Y-107299657D01*
X171359270Y-107195312D01*
X171385424Y-107163443D01*
X171503865Y-107045002D01*
X171944420Y-107045002D01*
X171848147Y-107277426D01*
X171793000Y-107554665D01*
X171793000Y-107837335D01*
X171848147Y-108114574D01*
X171956320Y-108375727D01*
X172113363Y-108610759D01*
X172313241Y-108810637D01*
X172520001Y-108948789D01*
X172520000Y-110874661D01*
X172411613Y-110932595D01*
X172277038Y-111043038D01*
X172180229Y-111161000D01*
X171474385Y-111161000D01*
X171384962Y-111052038D01*
X171250387Y-110941595D01*
X171096851Y-110859528D01*
X170930255Y-110808992D01*
X170757001Y-110791928D01*
X169856999Y-110791928D01*
X169683745Y-110808992D01*
X169517149Y-110859528D01*
X169363613Y-110941595D01*
X169229038Y-111052038D01*
X169202932Y-111083849D01*
X169182258Y-111045171D01*
X169084251Y-110925749D01*
X168964829Y-110827742D01*
X168828582Y-110754916D01*
X168680745Y-110710071D01*
X168527000Y-110694928D01*
X166877000Y-110694928D01*
X166723255Y-110710071D01*
X166575418Y-110754916D01*
X166501536Y-110794407D01*
X166497000Y-110793960D01*
X166455982Y-110798000D01*
X166455981Y-110798000D01*
X166333311Y-110810082D01*
X166199978Y-110850528D01*
X166175913Y-110857828D01*
X166030854Y-110935364D01*
X165954532Y-110998000D01*
X165903709Y-111039709D01*
X165877562Y-111071569D01*
X165300578Y-111648555D01*
X165268709Y-111674709D01*
X165179838Y-111783000D01*
X165164364Y-111801855D01*
X165086828Y-111946914D01*
X165039082Y-112104312D01*
X165022960Y-112268000D01*
X165027000Y-112309019D01*
X165027000Y-114951133D01*
X164957446Y-114881579D01*
X164931291Y-114849709D01*
X164804146Y-114745364D01*
X164659087Y-114667828D01*
X164501689Y-114620082D01*
X164379019Y-114608000D01*
X164379018Y-114608000D01*
X164350474Y-114605189D01*
X164352812Y-114597482D01*
X164365072Y-114473000D01*
X164362000Y-114458750D01*
X164203250Y-114300000D01*
X162879000Y-114300000D01*
X162879000Y-114320000D01*
X162625000Y-114320000D01*
X162625000Y-114300000D01*
X161300750Y-114300000D01*
X161142000Y-114458750D01*
X161138928Y-114473000D01*
X161151188Y-114597482D01*
X161187498Y-114717180D01*
X161246463Y-114827494D01*
X161270730Y-114857064D01*
X161198916Y-114991418D01*
X161154071Y-115139255D01*
X161138928Y-115293000D01*
X161138928Y-115593000D01*
X161154071Y-115746745D01*
X161198916Y-115894582D01*
X161271742Y-116030829D01*
X161369749Y-116150251D01*
X161489171Y-116248258D01*
X161625418Y-116321084D01*
X161773255Y-116365929D01*
X161927000Y-116381072D01*
X163577000Y-116381072D01*
X163730745Y-116365929D01*
X163878582Y-116321084D01*
X163959186Y-116278000D01*
X163992133Y-116278000D01*
X164011006Y-116296873D01*
X164011007Y-119566724D01*
X163928801Y-119689754D01*
X163850780Y-119878112D01*
X163811006Y-120078071D01*
X163811006Y-120281949D01*
X163850780Y-120481908D01*
X163928801Y-120670266D01*
X164042069Y-120839784D01*
X164186232Y-120983947D01*
X164355750Y-121097215D01*
X164544108Y-121175236D01*
X164744067Y-121215010D01*
X164947945Y-121215010D01*
X165027001Y-121199285D01*
X165027001Y-121306714D01*
X164944795Y-121429744D01*
X164866774Y-121618102D01*
X164827000Y-121818061D01*
X164827000Y-122021939D01*
X164866774Y-122221898D01*
X164944795Y-122410256D01*
X165058063Y-122579774D01*
X165202226Y-122723937D01*
X165371744Y-122837205D01*
X165560102Y-122915226D01*
X165760061Y-122955000D01*
X165963939Y-122955000D01*
X166163898Y-122915226D01*
X166352256Y-122837205D01*
X166521774Y-122723937D01*
X166665937Y-122579774D01*
X166779205Y-122410256D01*
X166857226Y-122221898D01*
X166897000Y-122021939D01*
X166897000Y-121818061D01*
X166857226Y-121618102D01*
X166779205Y-121429744D01*
X166697000Y-121306715D01*
X166697000Y-121096000D01*
X176568928Y-121096000D01*
X176581188Y-121220482D01*
X176617498Y-121340180D01*
X176676463Y-121450494D01*
X176755815Y-121547185D01*
X176852506Y-121626537D01*
X176962820Y-121685502D01*
X177082518Y-121721812D01*
X177207000Y-121734072D01*
X177496250Y-121731000D01*
X177655000Y-121572250D01*
X177655000Y-120523000D01*
X176730750Y-120523000D01*
X176572000Y-120681750D01*
X176568928Y-121096000D01*
X166697000Y-121096000D01*
X166697000Y-119696000D01*
X176568928Y-119696000D01*
X176572000Y-120110250D01*
X176730750Y-120269000D01*
X177655000Y-120269000D01*
X177655000Y-119219750D01*
X177496250Y-119061000D01*
X177207000Y-119057928D01*
X177082518Y-119070188D01*
X176962820Y-119106498D01*
X176852506Y-119165463D01*
X176755815Y-119244815D01*
X176676463Y-119341506D01*
X176617498Y-119451820D01*
X176581188Y-119571518D01*
X176568928Y-119696000D01*
X166697000Y-119696000D01*
X166697000Y-116357965D01*
X166723255Y-116365929D01*
X166877000Y-116381072D01*
X167143205Y-116381072D01*
X168968928Y-118206796D01*
X168968928Y-118689001D01*
X168985992Y-118862255D01*
X169036528Y-119028851D01*
X169118595Y-119182387D01*
X169229038Y-119316962D01*
X169363613Y-119427405D01*
X169517149Y-119509472D01*
X169683745Y-119560008D01*
X169856999Y-119577072D01*
X170757001Y-119577072D01*
X170930255Y-119560008D01*
X171096851Y-119509472D01*
X171250387Y-119427405D01*
X171384962Y-119316962D01*
X171481771Y-119199000D01*
X172165854Y-119199000D01*
X172166595Y-119200387D01*
X172277038Y-119334962D01*
X172411613Y-119445405D01*
X172565149Y-119527472D01*
X172731745Y-119578008D01*
X172904999Y-119595072D01*
X173805001Y-119595072D01*
X173978255Y-119578008D01*
X174144851Y-119527472D01*
X174298387Y-119445405D01*
X174432962Y-119334962D01*
X174543405Y-119200387D01*
X174625472Y-119046851D01*
X174676008Y-118880255D01*
X174693072Y-118707001D01*
X174693072Y-118056999D01*
X174676008Y-117883745D01*
X174625472Y-117717149D01*
X174543405Y-117563613D01*
X174432962Y-117429038D01*
X174426406Y-117423658D01*
X174506185Y-117358185D01*
X174585537Y-117261494D01*
X174644502Y-117151180D01*
X174680812Y-117031482D01*
X174693072Y-116907000D01*
X174690000Y-116617750D01*
X174531250Y-116459000D01*
X173482000Y-116459000D01*
X173482000Y-116479000D01*
X173228000Y-116479000D01*
X173228000Y-116459000D01*
X173208000Y-116459000D01*
X173208000Y-116205000D01*
X173228000Y-116205000D01*
X173228000Y-116185000D01*
X173482000Y-116185000D01*
X173482000Y-116205000D01*
X174531250Y-116205000D01*
X174690000Y-116046250D01*
X174693072Y-115757000D01*
X174680812Y-115632518D01*
X174644502Y-115512820D01*
X174585537Y-115402506D01*
X174506185Y-115305815D01*
X174409494Y-115226463D01*
X174299180Y-115167498D01*
X174229339Y-115146312D01*
X174298387Y-115109405D01*
X174432962Y-114998962D01*
X174529771Y-114881000D01*
X175228229Y-114881000D01*
X175325038Y-114998962D01*
X175459613Y-115109405D01*
X175613149Y-115191472D01*
X175779745Y-115242008D01*
X175952999Y-115259072D01*
X176853001Y-115259072D01*
X177026255Y-115242008D01*
X177192851Y-115191472D01*
X177346387Y-115109405D01*
X177480962Y-114998962D01*
X177591405Y-114864387D01*
X177673472Y-114710851D01*
X177724008Y-114544255D01*
X177741072Y-114371001D01*
X177741072Y-113720999D01*
X177724008Y-113547745D01*
X177673472Y-113381149D01*
X177591405Y-113227613D01*
X177480962Y-113093038D01*
X177393184Y-113021000D01*
X177480962Y-112948962D01*
X177591405Y-112814387D01*
X177673472Y-112660851D01*
X177724008Y-112494255D01*
X177741072Y-112321001D01*
X177741072Y-111670999D01*
X177724008Y-111497745D01*
X177673472Y-111331149D01*
X177591405Y-111177613D01*
X177480962Y-111043038D01*
X177346387Y-110932595D01*
X177238000Y-110874661D01*
X177238000Y-107102018D01*
X177242040Y-107061000D01*
X177225918Y-106897311D01*
X177178172Y-106739913D01*
X177100636Y-106594854D01*
X177022439Y-106499570D01*
X177022437Y-106499568D01*
X176996291Y-106467709D01*
X176964432Y-106441563D01*
X176171447Y-105648580D01*
X176145293Y-105616711D01*
X176018148Y-105512366D01*
X175873089Y-105434830D01*
X175715691Y-105387084D01*
X175593021Y-105375002D01*
X175593020Y-105375002D01*
X175552002Y-105370962D01*
X175510984Y-105375002D01*
X171722992Y-105375002D01*
X171722992Y-105308061D01*
X171683218Y-105108102D01*
X171605197Y-104919744D01*
X171491929Y-104750226D01*
X171347766Y-104606063D01*
X171178248Y-104492795D01*
X170989890Y-104414774D01*
X170789931Y-104375000D01*
X170586053Y-104375000D01*
X170386094Y-104414774D01*
X170197736Y-104492795D01*
X170028218Y-104606063D01*
X169884055Y-104750226D01*
X169770787Y-104919744D01*
X169747899Y-104974999D01*
X160719861Y-104974999D01*
X160742571Y-104927004D01*
X160811300Y-104652816D01*
X160825217Y-104370488D01*
X160783787Y-104090870D01*
X160718832Y-103909237D01*
X160736502Y-103876180D01*
X160772812Y-103756482D01*
X160785072Y-103632000D01*
X160782000Y-103282750D01*
X160623250Y-103124000D01*
X160398479Y-103124000D01*
X160359343Y-103076014D01*
X160318914Y-103025731D01*
X160317073Y-103024187D01*
X160315556Y-103022326D01*
X160265884Y-102981234D01*
X160216502Y-102939797D01*
X160214398Y-102938640D01*
X160212547Y-102937109D01*
X160155861Y-102906459D01*
X160099350Y-102875392D01*
X160097058Y-102874665D01*
X160094948Y-102873524D01*
X160083564Y-102870000D01*
X160623250Y-102870000D01*
X160782000Y-102711250D01*
X160784211Y-102459870D01*
X161108431Y-102135650D01*
X161140301Y-102109495D01*
X161244646Y-101982349D01*
X161257130Y-101958994D01*
X161851431Y-101364693D01*
X161883291Y-101338547D01*
X161914777Y-101300182D01*
X161965090Y-101238874D01*
X161987636Y-101211402D01*
X162065172Y-101066343D01*
X162112918Y-100908945D01*
X162125000Y-100786275D01*
X162125000Y-100786274D01*
X162129040Y-100745256D01*
X162125000Y-100704238D01*
X162125000Y-96844396D01*
X162153241Y-96872637D01*
X162388273Y-97029680D01*
X162649426Y-97137853D01*
X162926665Y-97193000D01*
X163209335Y-97193000D01*
X163486574Y-97137853D01*
X163747727Y-97029680D01*
X163982759Y-96872637D01*
X164182637Y-96672759D01*
X164338000Y-96440241D01*
X164493363Y-96672759D01*
X164693241Y-96872637D01*
X164755315Y-96914114D01*
X164664613Y-96962595D01*
X164530038Y-97073038D01*
X164419595Y-97207613D01*
X164337528Y-97361149D01*
X164286992Y-97527745D01*
X164269928Y-97700999D01*
X164269928Y-98351001D01*
X164286992Y-98524255D01*
X164337528Y-98690851D01*
X164419595Y-98844387D01*
X164530038Y-98978962D01*
X164617816Y-99051000D01*
X164530038Y-99123038D01*
X164419595Y-99257613D01*
X164337528Y-99411149D01*
X164286992Y-99577745D01*
X164269928Y-99750999D01*
X164269928Y-100401001D01*
X164286992Y-100574255D01*
X164337528Y-100740851D01*
X164419595Y-100894387D01*
X164530038Y-101028962D01*
X164664613Y-101139405D01*
X164773001Y-101197340D01*
X164773001Y-101685972D01*
X164768960Y-101727000D01*
X164785082Y-101890688D01*
X164832828Y-102048086D01*
X164906482Y-102185882D01*
X164910365Y-102193146D01*
X165014710Y-102320291D01*
X165046574Y-102346441D01*
X165957563Y-103257432D01*
X165983709Y-103289291D01*
X166015568Y-103315437D01*
X166015570Y-103315439D01*
X166110854Y-103393636D01*
X166255913Y-103471172D01*
X166413311Y-103518918D01*
X166577000Y-103535040D01*
X166618018Y-103531000D01*
X172060070Y-103531000D01*
X172113363Y-103610759D01*
X172313241Y-103810637D01*
X172548273Y-103967680D01*
X172809426Y-104075853D01*
X173086665Y-104131000D01*
X173369335Y-104131000D01*
X173646574Y-104075853D01*
X173907727Y-103967680D01*
X174142759Y-103810637D01*
X174342637Y-103610759D01*
X174499680Y-103375727D01*
X174607853Y-103114574D01*
X174663000Y-102837335D01*
X174663000Y-102554665D01*
X174607853Y-102277426D01*
X174499680Y-102016273D01*
X174342637Y-101781241D01*
X174142759Y-101581363D01*
X173907727Y-101424320D01*
X173646574Y-101316147D01*
X173369335Y-101261000D01*
X173086665Y-101261000D01*
X172809426Y-101316147D01*
X172548273Y-101424320D01*
X172313241Y-101581363D01*
X172113363Y-101781241D01*
X172060070Y-101861000D01*
X166922868Y-101861000D01*
X166443000Y-101381132D01*
X166443000Y-101197339D01*
X166551387Y-101139405D01*
X166685962Y-101028962D01*
X166796405Y-100894387D01*
X166878472Y-100740851D01*
X166929008Y-100574255D01*
X166946072Y-100401001D01*
X166946072Y-99750999D01*
X166929008Y-99577745D01*
X166878472Y-99411149D01*
X166796405Y-99257613D01*
X166685962Y-99123038D01*
X166598184Y-99051000D01*
X166685962Y-98978962D01*
X166796405Y-98844387D01*
X166878472Y-98690851D01*
X166929008Y-98524255D01*
X166946072Y-98351001D01*
X166946072Y-97700999D01*
X166929008Y-97527745D01*
X166878472Y-97361149D01*
X166796405Y-97207613D01*
X166685962Y-97073038D01*
X166551387Y-96962595D01*
X166460685Y-96914114D01*
X166522759Y-96872637D01*
X166722637Y-96672759D01*
X166878000Y-96440241D01*
X167033363Y-96672759D01*
X167233241Y-96872637D01*
X167313001Y-96925931D01*
X167313001Y-97231972D01*
X167308960Y-97273000D01*
X167325082Y-97436688D01*
X167372828Y-97594086D01*
X167450364Y-97739145D01*
X167450365Y-97739146D01*
X167554710Y-97866291D01*
X167571928Y-97880421D01*
X167571928Y-98073130D01*
X167403744Y-98142795D01*
X167234226Y-98256063D01*
X167090063Y-98400226D01*
X166976795Y-98569744D01*
X166898774Y-98758102D01*
X166859000Y-98958061D01*
X166859000Y-99161939D01*
X166898774Y-99361898D01*
X166976795Y-99550256D01*
X167090063Y-99719774D01*
X167234226Y-99863937D01*
X167403744Y-99977205D01*
X167571928Y-100046870D01*
X167571928Y-100410001D01*
X167588992Y-100583255D01*
X167639528Y-100749851D01*
X167721595Y-100903387D01*
X167832038Y-101037962D01*
X167966613Y-101148405D01*
X168120149Y-101230472D01*
X168286745Y-101281008D01*
X168459999Y-101298072D01*
X169360001Y-101298072D01*
X169533255Y-101281008D01*
X169699851Y-101230472D01*
X169853387Y-101148405D01*
X169987962Y-101037962D01*
X170098405Y-100903387D01*
X170180472Y-100749851D01*
X170231008Y-100583255D01*
X170248072Y-100410001D01*
X170248072Y-99759999D01*
X170231008Y-99586745D01*
X170180472Y-99420149D01*
X170098405Y-99266613D01*
X169987962Y-99132038D01*
X169900184Y-99060000D01*
X169987962Y-98987962D01*
X170098405Y-98853387D01*
X170180472Y-98699851D01*
X170222000Y-98562951D01*
X170222000Y-98679002D01*
X170380748Y-98679002D01*
X170222000Y-98837750D01*
X170218928Y-99252000D01*
X170231188Y-99376482D01*
X170267498Y-99496180D01*
X170326463Y-99606494D01*
X170405815Y-99703185D01*
X170502506Y-99782537D01*
X170612820Y-99841502D01*
X170732518Y-99877812D01*
X170857000Y-99890072D01*
X171146250Y-99887000D01*
X171305000Y-99728250D01*
X171305000Y-98679000D01*
X171285000Y-98679000D01*
X171285000Y-98425000D01*
X171305000Y-98425000D01*
X171305000Y-97375750D01*
X171146250Y-97217000D01*
X170857000Y-97213928D01*
X170732518Y-97226188D01*
X170612820Y-97262498D01*
X170502506Y-97321463D01*
X170405815Y-97400815D01*
X170326463Y-97497506D01*
X170267498Y-97607820D01*
X170245236Y-97681207D01*
X170231008Y-97536745D01*
X170180472Y-97370149D01*
X170098405Y-97216613D01*
X169987962Y-97082038D01*
X169853387Y-96971595D01*
X169699851Y-96889528D01*
X169533255Y-96838992D01*
X169360001Y-96821928D01*
X169113468Y-96821928D01*
X169262637Y-96672759D01*
X169419680Y-96437727D01*
X169516492Y-96204000D01*
X170218928Y-96204000D01*
X170231188Y-96328482D01*
X170267498Y-96448180D01*
X170326463Y-96558494D01*
X170405815Y-96655185D01*
X170502506Y-96734537D01*
X170612820Y-96793502D01*
X170732518Y-96829812D01*
X170857000Y-96842072D01*
X171146250Y-96839000D01*
X171305000Y-96680250D01*
X171305000Y-95631000D01*
X170380750Y-95631000D01*
X170222000Y-95789750D01*
X170218928Y-96204000D01*
X169516492Y-96204000D01*
X169527853Y-96176574D01*
X169583000Y-95899335D01*
X169583000Y-95616665D01*
X169527853Y-95339426D01*
X169419680Y-95078273D01*
X169262637Y-94843241D01*
X169156416Y-94737020D01*
X170225525Y-94737020D01*
X170218928Y-94804000D01*
X170222000Y-95218250D01*
X170380750Y-95377000D01*
X171305000Y-95377000D01*
X171305000Y-95357000D01*
X171559000Y-95357000D01*
X171559000Y-95377000D01*
X171579000Y-95377000D01*
X171579000Y-95631000D01*
X171559000Y-95631000D01*
X171559000Y-96680250D01*
X171678197Y-96799447D01*
X171690828Y-96841086D01*
X171768364Y-96986145D01*
X171787273Y-97009185D01*
X171872710Y-97113291D01*
X171904574Y-97139441D01*
X171979354Y-97214222D01*
X171717750Y-97217000D01*
X171559000Y-97375750D01*
X171559000Y-98425000D01*
X171579000Y-98425000D01*
X171579000Y-98679000D01*
X171559000Y-98679000D01*
X171559000Y-99728250D01*
X171717750Y-99887000D01*
X172007000Y-99890072D01*
X172131482Y-99877812D01*
X172251180Y-99841502D01*
X172361494Y-99782537D01*
X172458185Y-99703185D01*
X172523658Y-99623406D01*
X172529038Y-99629962D01*
X172663613Y-99740405D01*
X172817149Y-99822472D01*
X172983745Y-99873008D01*
X173156999Y-99890072D01*
X173807001Y-99890072D01*
X173980255Y-99873008D01*
X174146851Y-99822472D01*
X174300387Y-99740405D01*
X174434962Y-99629962D01*
X174545405Y-99495387D01*
X174627472Y-99341851D01*
X174678008Y-99175255D01*
X174695072Y-99002001D01*
X174695072Y-98117000D01*
X175422133Y-98117000D01*
X178021990Y-100716859D01*
X178021991Y-119106759D01*
X177909000Y-119219750D01*
X177909000Y-120269000D01*
X177929000Y-120269000D01*
X177929000Y-120523000D01*
X177909000Y-120523000D01*
X177909000Y-121572250D01*
X178021991Y-121685241D01*
X178021991Y-122408759D01*
X177909000Y-122521750D01*
X177909000Y-123571000D01*
X177929000Y-123571000D01*
X177929000Y-123825000D01*
X177909000Y-123825000D01*
X177909000Y-124874250D01*
X178067750Y-125033000D01*
X178357000Y-125036072D01*
X178481482Y-125023812D01*
X178601180Y-124987502D01*
X178711494Y-124928537D01*
X178808185Y-124849185D01*
X178873658Y-124769406D01*
X178879038Y-124775962D01*
X179013613Y-124886405D01*
X179167149Y-124968472D01*
X179333745Y-125019008D01*
X179506999Y-125036072D01*
X180157001Y-125036072D01*
X180330255Y-125019008D01*
X180496851Y-124968472D01*
X180650387Y-124886405D01*
X180715461Y-124833000D01*
X181364382Y-124833000D01*
X181351085Y-124968000D01*
X181370702Y-125167170D01*
X181428799Y-125358687D01*
X181523141Y-125535189D01*
X181650105Y-125689895D01*
X181804811Y-125816859D01*
X181981313Y-125911201D01*
X182172830Y-125969298D01*
X182372000Y-125988915D01*
X182571170Y-125969298D01*
X182683930Y-125935092D01*
X182733740Y-125945000D01*
X183026260Y-125945000D01*
X183313158Y-125887932D01*
X183583411Y-125775990D01*
X183826632Y-125613475D01*
X184033475Y-125406632D01*
X184195990Y-125163411D01*
X184307932Y-124893158D01*
X184365000Y-124606260D01*
X184365000Y-124313740D01*
X184307932Y-124026842D01*
X184195990Y-123756589D01*
X184033475Y-123513368D01*
X183896000Y-123375893D01*
X183896000Y-123004107D01*
X184033475Y-122866632D01*
X184195990Y-122623411D01*
X184307932Y-122353158D01*
X184365000Y-122066260D01*
X184365000Y-121773740D01*
X184307932Y-121486842D01*
X184195990Y-121216589D01*
X184033475Y-120973368D01*
X183826632Y-120766525D01*
X183652240Y-120650000D01*
X183826632Y-120533475D01*
X184033475Y-120326632D01*
X184195990Y-120083411D01*
X184307932Y-119813158D01*
X184365000Y-119526260D01*
X184365000Y-119233740D01*
X184307932Y-118946842D01*
X184195990Y-118676589D01*
X184033475Y-118433368D01*
X183896000Y-118295893D01*
X183896000Y-117924107D01*
X184033475Y-117786632D01*
X184195990Y-117543411D01*
X184307932Y-117273158D01*
X184365000Y-116986260D01*
X184365000Y-116693740D01*
X184307932Y-116406842D01*
X184195990Y-116136589D01*
X184033475Y-115893368D01*
X183826632Y-115686525D01*
X183652240Y-115570000D01*
X183826632Y-115453475D01*
X184033475Y-115246632D01*
X184195990Y-115003411D01*
X184307932Y-114733158D01*
X184365000Y-114446260D01*
X184365000Y-114153740D01*
X184307932Y-113866842D01*
X184195990Y-113596589D01*
X184033475Y-113353368D01*
X183826632Y-113146525D01*
X183715000Y-113071935D01*
X183715000Y-112988065D01*
X183826632Y-112913475D01*
X184033475Y-112706632D01*
X184195990Y-112463411D01*
X184307932Y-112193158D01*
X184365000Y-111906260D01*
X184365000Y-111613740D01*
X184307932Y-111326842D01*
X184195990Y-111056589D01*
X184033475Y-110813368D01*
X183826632Y-110606525D01*
X183644466Y-110484805D01*
X183761355Y-110415178D01*
X183977588Y-110220269D01*
X184151641Y-109986920D01*
X184276825Y-109724099D01*
X184321476Y-109576890D01*
X184200155Y-109347000D01*
X183007000Y-109347000D01*
X183007000Y-109367000D01*
X182753000Y-109367000D01*
X182753000Y-109347000D01*
X181559845Y-109347000D01*
X181438524Y-109576890D01*
X181483175Y-109724099D01*
X181608359Y-109986920D01*
X181782412Y-110220269D01*
X181998645Y-110415178D01*
X182115534Y-110484805D01*
X181933368Y-110606525D01*
X181726525Y-110813368D01*
X181564010Y-111056589D01*
X181452068Y-111326842D01*
X181395000Y-111613740D01*
X181395000Y-111906260D01*
X181452068Y-112193158D01*
X181564010Y-112463411D01*
X181726525Y-112706632D01*
X181933368Y-112913475D01*
X182045000Y-112988065D01*
X182045001Y-113071935D01*
X181933368Y-113146525D01*
X181726525Y-113353368D01*
X181564010Y-113596589D01*
X181452068Y-113866842D01*
X181395000Y-114153740D01*
X181395000Y-114446260D01*
X181452068Y-114733158D01*
X181564010Y-115003411D01*
X181726525Y-115246632D01*
X181933368Y-115453475D01*
X182107760Y-115570000D01*
X181933368Y-115686525D01*
X181726525Y-115893368D01*
X181564010Y-116136589D01*
X181452068Y-116406842D01*
X181395000Y-116693740D01*
X181395000Y-116986260D01*
X181452068Y-117273158D01*
X181564010Y-117543411D01*
X181726525Y-117786632D01*
X181864000Y-117924107D01*
X181864001Y-118295892D01*
X181726525Y-118433368D01*
X181564010Y-118676589D01*
X181452068Y-118946842D01*
X181395000Y-119233740D01*
X181395000Y-119380000D01*
X180835813Y-119380000D01*
X180784962Y-119318038D01*
X180667000Y-119221229D01*
X180667000Y-107530000D01*
X181391928Y-107530000D01*
X181404188Y-107654482D01*
X181440498Y-107774180D01*
X181499463Y-107884494D01*
X181578815Y-107981185D01*
X181675506Y-108060537D01*
X181785820Y-108119502D01*
X181866466Y-108143966D01*
X181782412Y-108219731D01*
X181608359Y-108453080D01*
X181483175Y-108715901D01*
X181438524Y-108863110D01*
X181559845Y-109093000D01*
X182753000Y-109093000D01*
X182753000Y-106807000D01*
X183007000Y-106807000D01*
X183007000Y-109093000D01*
X184200155Y-109093000D01*
X184321476Y-108863110D01*
X184276825Y-108715901D01*
X184151641Y-108453080D01*
X183977588Y-108219731D01*
X183893534Y-108143966D01*
X183974180Y-108119502D01*
X184084494Y-108060537D01*
X184181185Y-107981185D01*
X184260537Y-107884494D01*
X184319502Y-107774180D01*
X184355812Y-107654482D01*
X184368072Y-107530000D01*
X184365000Y-106965750D01*
X184206250Y-106807000D01*
X183007000Y-106807000D01*
X182753000Y-106807000D01*
X181553750Y-106807000D01*
X181395000Y-106965750D01*
X181391928Y-107530000D01*
X180667000Y-107530000D01*
X180667000Y-105830000D01*
X181391928Y-105830000D01*
X181395000Y-106394250D01*
X181553750Y-106553000D01*
X182753000Y-106553000D01*
X182753000Y-105353750D01*
X183007000Y-105353750D01*
X183007000Y-106553000D01*
X184206250Y-106553000D01*
X184365000Y-106394250D01*
X184368072Y-105830000D01*
X184355812Y-105705518D01*
X184319502Y-105585820D01*
X184260537Y-105475506D01*
X184181185Y-105378815D01*
X184084494Y-105299463D01*
X183974180Y-105240498D01*
X183854482Y-105204188D01*
X183730000Y-105191928D01*
X183165750Y-105195000D01*
X183007000Y-105353750D01*
X182753000Y-105353750D01*
X182594250Y-105195000D01*
X182030000Y-105191928D01*
X181905518Y-105204188D01*
X181785820Y-105240498D01*
X181675506Y-105299463D01*
X181578815Y-105378815D01*
X181499463Y-105475506D01*
X181440498Y-105585820D01*
X181404188Y-105705518D01*
X181391928Y-105830000D01*
X180667000Y-105830000D01*
X180667000Y-99609018D01*
X180671040Y-99568000D01*
X180654918Y-99404311D01*
X180607172Y-99246913D01*
X180529636Y-99101854D01*
X180451439Y-99006570D01*
X180451437Y-99006568D01*
X180425291Y-98974709D01*
X180393432Y-98948563D01*
X176387446Y-94942579D01*
X176361291Y-94910709D01*
X176234146Y-94806364D01*
X176089087Y-94728828D01*
X175931689Y-94681082D01*
X175809019Y-94669000D01*
X175809018Y-94669000D01*
X175768000Y-94664960D01*
X175726982Y-94669000D01*
X174603339Y-94669000D01*
X174545405Y-94560613D01*
X174434962Y-94426038D01*
X174317000Y-94329229D01*
X174317000Y-93391146D01*
X174318387Y-93390405D01*
X174452962Y-93279962D01*
X174563405Y-93145387D01*
X174645472Y-92991851D01*
X174696008Y-92825255D01*
X174713072Y-92652001D01*
X174713072Y-91751999D01*
X174696008Y-91578745D01*
X174645472Y-91412149D01*
X174563405Y-91258613D01*
X174490082Y-91169268D01*
X174517000Y-91033939D01*
X174517000Y-90830061D01*
X174477226Y-90630102D01*
X174399205Y-90441744D01*
X174285937Y-90272226D01*
X174141774Y-90128063D01*
X173972256Y-90014795D01*
X173783898Y-89936774D01*
X173583939Y-89897000D01*
X173380061Y-89897000D01*
X173180102Y-89936774D01*
X172991744Y-90014795D01*
X172822226Y-90128063D01*
X172678063Y-90272226D01*
X172564795Y-90441744D01*
X172486774Y-90630102D01*
X172447000Y-90830061D01*
X172447000Y-91033939D01*
X172480942Y-91204577D01*
X172475000Y-91211816D01*
X172402962Y-91124038D01*
X172268387Y-91013595D01*
X172114851Y-90931528D01*
X171948255Y-90880992D01*
X171775001Y-90863928D01*
X171124999Y-90863928D01*
X170951745Y-90880992D01*
X170785149Y-90931528D01*
X170631613Y-91013595D01*
X170497038Y-91124038D01*
X170386595Y-91258613D01*
X170328661Y-91367000D01*
X164937869Y-91367000D01*
X163143868Y-89573000D01*
X163209335Y-89573000D01*
X163486574Y-89517853D01*
X163747727Y-89409680D01*
X163982759Y-89252637D01*
X164182637Y-89052759D01*
X164338000Y-88820241D01*
X164493363Y-89052759D01*
X164693241Y-89252637D01*
X164928273Y-89409680D01*
X165189426Y-89517853D01*
X165466665Y-89573000D01*
X165749335Y-89573000D01*
X166026574Y-89517853D01*
X166287727Y-89409680D01*
X166522759Y-89252637D01*
X166722637Y-89052759D01*
X166878000Y-88820241D01*
X167033363Y-89052759D01*
X167233241Y-89252637D01*
X167468273Y-89409680D01*
X167729426Y-89517853D01*
X168006665Y-89573000D01*
X168289335Y-89573000D01*
X168566574Y-89517853D01*
X168827727Y-89409680D01*
X169062759Y-89252637D01*
X169262637Y-89052759D01*
X169315930Y-88973000D01*
X173664070Y-88973000D01*
X173717363Y-89052759D01*
X173917241Y-89252637D01*
X174152273Y-89409680D01*
X174413426Y-89517853D01*
X174690665Y-89573000D01*
X174973335Y-89573000D01*
X175250574Y-89517853D01*
X175511727Y-89409680D01*
X175746759Y-89252637D01*
X175946637Y-89052759D01*
X176103680Y-88817727D01*
X176211853Y-88556574D01*
X176267000Y-88279335D01*
X176267000Y-87996665D01*
X178397000Y-87996665D01*
X178397000Y-88279335D01*
X178452147Y-88556574D01*
X178560320Y-88817727D01*
X178717363Y-89052759D01*
X178917241Y-89252637D01*
X179152273Y-89409680D01*
X179413426Y-89517853D01*
X179690665Y-89573000D01*
X179973335Y-89573000D01*
X180250574Y-89517853D01*
X180511727Y-89409680D01*
X180746759Y-89252637D01*
X180946637Y-89052759D01*
X180999930Y-88973000D01*
X181060982Y-88973000D01*
X181102000Y-88977040D01*
X181143018Y-88973000D01*
X181143019Y-88973000D01*
X181265689Y-88960918D01*
X181423087Y-88913172D01*
X181568146Y-88835636D01*
X181695291Y-88731291D01*
X181721446Y-88699421D01*
X182602061Y-87818807D01*
X182733740Y-87845000D01*
X183026260Y-87845000D01*
X183313158Y-87787932D01*
X183583411Y-87675990D01*
X183826632Y-87513475D01*
X184033475Y-87306632D01*
X184195990Y-87063411D01*
X184307932Y-86793158D01*
X184365000Y-86506260D01*
X184365000Y-86213740D01*
X184307932Y-85926842D01*
X184195990Y-85656589D01*
X184033475Y-85413368D01*
X183826632Y-85206525D01*
X183715000Y-85131935D01*
X183715000Y-85048065D01*
X183826632Y-84973475D01*
X184033475Y-84766632D01*
X184195990Y-84523411D01*
X184307932Y-84253158D01*
X184365000Y-83966260D01*
X184365000Y-83673740D01*
X184307932Y-83386842D01*
X184195990Y-83116589D01*
X184033475Y-82873368D01*
X183826632Y-82666525D01*
X183644466Y-82544805D01*
X183761355Y-82475178D01*
X183977588Y-82280269D01*
X184151641Y-82046920D01*
X184276825Y-81784099D01*
X184321476Y-81636890D01*
X184200155Y-81407000D01*
X183007000Y-81407000D01*
X183007000Y-81427000D01*
X182753000Y-81427000D01*
X182753000Y-81407000D01*
X181559845Y-81407000D01*
X181438524Y-81636890D01*
X181483175Y-81784099D01*
X181608359Y-82046920D01*
X181782412Y-82280269D01*
X181998645Y-82475178D01*
X182115534Y-82544805D01*
X181933368Y-82666525D01*
X181726525Y-82873368D01*
X181564010Y-83116589D01*
X181452068Y-83386842D01*
X181395000Y-83673740D01*
X181395000Y-83966260D01*
X181452068Y-84253158D01*
X181564010Y-84523411D01*
X181726525Y-84766632D01*
X181933368Y-84973475D01*
X182045000Y-85048065D01*
X182045001Y-85131935D01*
X181933368Y-85206525D01*
X181726525Y-85413368D01*
X181564010Y-85656589D01*
X181452068Y-85926842D01*
X181395000Y-86213740D01*
X181395000Y-86506260D01*
X181421193Y-86637939D01*
X180891264Y-87167868D01*
X180746759Y-87023363D01*
X180511727Y-86866320D01*
X180250574Y-86758147D01*
X179973335Y-86703000D01*
X179690665Y-86703000D01*
X179413426Y-86758147D01*
X179152273Y-86866320D01*
X178917241Y-87023363D01*
X178717363Y-87223241D01*
X178560320Y-87458273D01*
X178452147Y-87719426D01*
X178397000Y-87996665D01*
X176267000Y-87996665D01*
X176211853Y-87719426D01*
X176103680Y-87458273D01*
X175946637Y-87223241D01*
X175746759Y-87023363D01*
X175511727Y-86866320D01*
X175250574Y-86758147D01*
X174973335Y-86703000D01*
X174690665Y-86703000D01*
X174413426Y-86758147D01*
X174152273Y-86866320D01*
X173917241Y-87023363D01*
X173717363Y-87223241D01*
X173664070Y-87303000D01*
X169315930Y-87303000D01*
X169262637Y-87223241D01*
X169062759Y-87023363D01*
X168983000Y-86970070D01*
X168983000Y-84560804D01*
X168987040Y-84519786D01*
X168980402Y-84452394D01*
X168970918Y-84356097D01*
X168923172Y-84198699D01*
X168845636Y-84053640D01*
X168781396Y-83975363D01*
X168767439Y-83958356D01*
X168767437Y-83958354D01*
X168741291Y-83926495D01*
X168709432Y-83900349D01*
X167007211Y-82198130D01*
X167005000Y-81946750D01*
X166846250Y-81788000D01*
X166372837Y-81788000D01*
X166374736Y-81787008D01*
X166377033Y-81786314D01*
X166433886Y-81756084D01*
X166491081Y-81726184D01*
X166492955Y-81724677D01*
X166495073Y-81723551D01*
X166544986Y-81682843D01*
X166595269Y-81642414D01*
X166596813Y-81640573D01*
X166598674Y-81639056D01*
X166639783Y-81589364D01*
X166681203Y-81540002D01*
X166682360Y-81537898D01*
X166683891Y-81536047D01*
X166684998Y-81534000D01*
X166846250Y-81534000D01*
X167005000Y-81375250D01*
X167008072Y-81026000D01*
X166995812Y-80901518D01*
X166959502Y-80781820D01*
X166942939Y-80750834D01*
X166965571Y-80703004D01*
X167034300Y-80428816D01*
X167048217Y-80146488D01*
X167006787Y-79866870D01*
X166911603Y-79600708D01*
X166905880Y-79590000D01*
X181391928Y-79590000D01*
X181404188Y-79714482D01*
X181440498Y-79834180D01*
X181499463Y-79944494D01*
X181578815Y-80041185D01*
X181675506Y-80120537D01*
X181785820Y-80179502D01*
X181866466Y-80203966D01*
X181782412Y-80279731D01*
X181608359Y-80513080D01*
X181483175Y-80775901D01*
X181438524Y-80923110D01*
X181559845Y-81153000D01*
X182753000Y-81153000D01*
X182753000Y-78867000D01*
X183007000Y-78867000D01*
X183007000Y-81153000D01*
X184200155Y-81153000D01*
X184321476Y-80923110D01*
X184276825Y-80775901D01*
X184151641Y-80513080D01*
X183977588Y-80279731D01*
X183893534Y-80203966D01*
X183974180Y-80179502D01*
X184084494Y-80120537D01*
X184181185Y-80041185D01*
X184260537Y-79944494D01*
X184319502Y-79834180D01*
X184355812Y-79714482D01*
X184368072Y-79590000D01*
X184365000Y-79025750D01*
X184206250Y-78867000D01*
X183007000Y-78867000D01*
X182753000Y-78867000D01*
X181553750Y-78867000D01*
X181395000Y-79025750D01*
X181391928Y-79590000D01*
X166905880Y-79590000D01*
X166844671Y-79475486D01*
X166600702Y-79403903D01*
X165917605Y-80087000D01*
X165298395Y-80087000D01*
X164615298Y-79403903D01*
X164371329Y-79475486D01*
X164250429Y-79730996D01*
X164181700Y-80005184D01*
X164167783Y-80287512D01*
X164209213Y-80567130D01*
X164274168Y-80748763D01*
X164256498Y-80781820D01*
X164220188Y-80901518D01*
X164207928Y-81026000D01*
X164211000Y-81375250D01*
X164369750Y-81534000D01*
X164594521Y-81534000D01*
X164633657Y-81581986D01*
X164674086Y-81632269D01*
X164675927Y-81633813D01*
X164677444Y-81635674D01*
X164727116Y-81676766D01*
X164776498Y-81718203D01*
X164778602Y-81719360D01*
X164780453Y-81720891D01*
X164837139Y-81751541D01*
X164893650Y-81782608D01*
X164895942Y-81783335D01*
X164898052Y-81784476D01*
X164909436Y-81788000D01*
X164369750Y-81788000D01*
X164271260Y-81886490D01*
X162955517Y-81886490D01*
X162914509Y-81882451D01*
X162873501Y-81886490D01*
X162873491Y-81886490D01*
X162750821Y-81898572D01*
X162593423Y-81946318D01*
X162448364Y-82023854D01*
X162321219Y-82128199D01*
X162295069Y-82160063D01*
X160195205Y-84259928D01*
X159712999Y-84259928D01*
X159539745Y-84276992D01*
X159373149Y-84327528D01*
X159219613Y-84409595D01*
X159085038Y-84520038D01*
X159013000Y-84607816D01*
X158961186Y-84544681D01*
X159871796Y-83634072D01*
X160354001Y-83634072D01*
X160527255Y-83617008D01*
X160693851Y-83566472D01*
X160847387Y-83484405D01*
X160981962Y-83373962D01*
X161092405Y-83239387D01*
X161174472Y-83085851D01*
X161225008Y-82919255D01*
X161242072Y-82746001D01*
X161242072Y-82263796D01*
X161556436Y-81949432D01*
X161588301Y-81923281D01*
X161692646Y-81796136D01*
X161770182Y-81651077D01*
X161817928Y-81493679D01*
X161830010Y-81371009D01*
X161830010Y-81370999D01*
X161834049Y-81329991D01*
X161830010Y-81288983D01*
X161830010Y-79224298D01*
X164794903Y-79224298D01*
X165608000Y-80037395D01*
X166421097Y-79224298D01*
X166349514Y-78980329D01*
X166094004Y-78859429D01*
X165819816Y-78790700D01*
X165537488Y-78776783D01*
X165257870Y-78818213D01*
X164991708Y-78913397D01*
X164866486Y-78980329D01*
X164794903Y-79224298D01*
X161830010Y-79224298D01*
X161830010Y-77978028D01*
X161834050Y-77937009D01*
X161829420Y-77890000D01*
X181391928Y-77890000D01*
X181395000Y-78454250D01*
X181553750Y-78613000D01*
X182753000Y-78613000D01*
X182753000Y-77413750D01*
X183007000Y-77413750D01*
X183007000Y-78613000D01*
X184206250Y-78613000D01*
X184365000Y-78454250D01*
X184368072Y-77890000D01*
X184355812Y-77765518D01*
X184319502Y-77645820D01*
X184260537Y-77535506D01*
X184181185Y-77438815D01*
X184084494Y-77359463D01*
X183974180Y-77300498D01*
X183854482Y-77264188D01*
X183730000Y-77251928D01*
X183165750Y-77255000D01*
X183007000Y-77413750D01*
X182753000Y-77413750D01*
X182594250Y-77255000D01*
X182030000Y-77251928D01*
X181905518Y-77264188D01*
X181785820Y-77300498D01*
X181675506Y-77359463D01*
X181578815Y-77438815D01*
X181499463Y-77535506D01*
X181440498Y-77645820D01*
X181404188Y-77765518D01*
X181391928Y-77890000D01*
X161829420Y-77890000D01*
X161817928Y-77773321D01*
X161770182Y-77615923D01*
X161692646Y-77470864D01*
X161657340Y-77427844D01*
X161588301Y-77343719D01*
X161556437Y-77317569D01*
X161098867Y-76860000D01*
X184760000Y-76860000D01*
X184760001Y-126340000D01*
X127660000Y-126340000D01*
X127660000Y-121773740D01*
X128055000Y-121773740D01*
X128055000Y-122066260D01*
X128112068Y-122353158D01*
X128224010Y-122623411D01*
X128386525Y-122866632D01*
X128593368Y-123073475D01*
X128705000Y-123148065D01*
X128705001Y-123231935D01*
X128593368Y-123306525D01*
X128386525Y-123513368D01*
X128224010Y-123756589D01*
X128112068Y-124026842D01*
X128055000Y-124313740D01*
X128055000Y-124606260D01*
X128112068Y-124893158D01*
X128224010Y-125163411D01*
X128386525Y-125406632D01*
X128593368Y-125613475D01*
X128836589Y-125775990D01*
X129106842Y-125887932D01*
X129393740Y-125945000D01*
X129686260Y-125945000D01*
X129973158Y-125887932D01*
X130243411Y-125775990D01*
X130486632Y-125613475D01*
X130693475Y-125406632D01*
X130855990Y-125163411D01*
X130967932Y-124893158D01*
X131025000Y-124606260D01*
X131025000Y-124398000D01*
X176568928Y-124398000D01*
X176581188Y-124522482D01*
X176617498Y-124642180D01*
X176676463Y-124752494D01*
X176755815Y-124849185D01*
X176852506Y-124928537D01*
X176962820Y-124987502D01*
X177082518Y-125023812D01*
X177207000Y-125036072D01*
X177496250Y-125033000D01*
X177655000Y-124874250D01*
X177655000Y-123825000D01*
X176730750Y-123825000D01*
X176572000Y-123983750D01*
X176568928Y-124398000D01*
X131025000Y-124398000D01*
X131025000Y-124313740D01*
X130967932Y-124026842D01*
X130855990Y-123756589D01*
X130693475Y-123513368D01*
X130486632Y-123306525D01*
X130375000Y-123231935D01*
X130375000Y-123148065D01*
X130486632Y-123073475D01*
X130693475Y-122866632D01*
X130700873Y-122855560D01*
X133864045Y-122855560D01*
X133925932Y-123091368D01*
X134167790Y-123204266D01*
X134427027Y-123267811D01*
X134693680Y-123279561D01*
X134957501Y-123239063D01*
X135208353Y-123147875D01*
X135314068Y-123091368D01*
X135375955Y-122855560D01*
X134620000Y-122099605D01*
X133864045Y-122855560D01*
X130700873Y-122855560D01*
X130855990Y-122623411D01*
X130967932Y-122353158D01*
X131025000Y-122066260D01*
X131025000Y-121993680D01*
X133260439Y-121993680D01*
X133300937Y-122257501D01*
X133392125Y-122508353D01*
X133448632Y-122614068D01*
X133684440Y-122675955D01*
X134440395Y-121920000D01*
X134799605Y-121920000D01*
X135555560Y-122675955D01*
X135791368Y-122614068D01*
X135904266Y-122372210D01*
X135967811Y-122112973D01*
X135979561Y-121846320D01*
X135939063Y-121582499D01*
X135847875Y-121331647D01*
X135791368Y-121225932D01*
X135555560Y-121164045D01*
X134799605Y-121920000D01*
X134440395Y-121920000D01*
X133684440Y-121164045D01*
X133448632Y-121225932D01*
X133335734Y-121467790D01*
X133272189Y-121727027D01*
X133260439Y-121993680D01*
X131025000Y-121993680D01*
X131025000Y-121773740D01*
X130998807Y-121642060D01*
X133265000Y-119375868D01*
X133265000Y-119513456D01*
X133317072Y-119775239D01*
X133419215Y-120021833D01*
X133567503Y-120243762D01*
X133756238Y-120432497D01*
X133978167Y-120580785D01*
X134146324Y-120650438D01*
X134031647Y-120692125D01*
X133925932Y-120748632D01*
X133864045Y-120984440D01*
X134620000Y-121740395D01*
X135375955Y-120984440D01*
X135314068Y-120748632D01*
X135098993Y-120648236D01*
X135261833Y-120580785D01*
X135483762Y-120432497D01*
X135672497Y-120243762D01*
X135820785Y-120021833D01*
X135922928Y-119775239D01*
X135975000Y-119513456D01*
X135975000Y-119246544D01*
X135968251Y-119212616D01*
X138267187Y-116913680D01*
X139610439Y-116913680D01*
X139650937Y-117177501D01*
X139742125Y-117428353D01*
X139798632Y-117534068D01*
X140034440Y-117595955D01*
X140790395Y-116840000D01*
X140034440Y-116084045D01*
X139798632Y-116145932D01*
X139685734Y-116387790D01*
X139622189Y-116647027D01*
X139610439Y-116913680D01*
X138267187Y-116913680D01*
X139276427Y-115904440D01*
X140214045Y-115904440D01*
X140970000Y-116660395D01*
X141725955Y-115904440D01*
X141664068Y-115668632D01*
X141422210Y-115555734D01*
X141162973Y-115492189D01*
X140896320Y-115480439D01*
X140632499Y-115520937D01*
X140381647Y-115612125D01*
X140275932Y-115668632D01*
X140214045Y-115904440D01*
X139276427Y-115904440D01*
X143365869Y-111815000D01*
X147354132Y-111815000D01*
X142326184Y-116842948D01*
X142329561Y-116766320D01*
X142289063Y-116502499D01*
X142197875Y-116251647D01*
X142141368Y-116145932D01*
X141905560Y-116084045D01*
X141149605Y-116840000D01*
X141163748Y-116854143D01*
X140984143Y-117033748D01*
X140970000Y-117019605D01*
X140214045Y-117775560D01*
X140275932Y-118011368D01*
X140491007Y-118111764D01*
X140328167Y-118179215D01*
X140106238Y-118327503D01*
X139917503Y-118516238D01*
X139769215Y-118738167D01*
X139667072Y-118984761D01*
X139615000Y-119246544D01*
X139615000Y-119513456D01*
X139667072Y-119775239D01*
X139769215Y-120021833D01*
X139917503Y-120243762D01*
X140106238Y-120432497D01*
X140328167Y-120580785D01*
X140495266Y-120650000D01*
X140328167Y-120719215D01*
X140106238Y-120867503D01*
X139917503Y-121056238D01*
X139769215Y-121278167D01*
X139667072Y-121524761D01*
X139615000Y-121786544D01*
X139615000Y-122053456D01*
X139667072Y-122315239D01*
X139769215Y-122561833D01*
X139917503Y-122783762D01*
X140106238Y-122972497D01*
X140328167Y-123120785D01*
X140574761Y-123222928D01*
X140836544Y-123275000D01*
X141103456Y-123275000D01*
X141365239Y-123222928D01*
X141611833Y-123120785D01*
X141833762Y-122972497D01*
X142022497Y-122783762D01*
X142170785Y-122561833D01*
X142272928Y-122315239D01*
X142325000Y-122053456D01*
X142325000Y-121786544D01*
X142272928Y-121524761D01*
X142170785Y-121278167D01*
X142022497Y-121056238D01*
X141833762Y-120867503D01*
X141611833Y-120719215D01*
X141444734Y-120650000D01*
X141611833Y-120580785D01*
X141833762Y-120432497D01*
X142022497Y-120243762D01*
X142170785Y-120021833D01*
X142272928Y-119775239D01*
X142325000Y-119513456D01*
X142325000Y-119246544D01*
X142318251Y-119212616D01*
X148640878Y-112889990D01*
X150426928Y-112889990D01*
X150426928Y-113355001D01*
X150443992Y-113528255D01*
X150494528Y-113694851D01*
X150576595Y-113848387D01*
X150687038Y-113982962D01*
X150821613Y-114093405D01*
X150975149Y-114175472D01*
X151141745Y-114226008D01*
X151314999Y-114243072D01*
X152215001Y-114243072D01*
X152388255Y-114226008D01*
X152554851Y-114175472D01*
X152708387Y-114093405D01*
X152842962Y-113982962D01*
X152939771Y-113865000D01*
X153384229Y-113865000D01*
X153481038Y-113982962D01*
X153615613Y-114093405D01*
X153769149Y-114175472D01*
X153935745Y-114226008D01*
X154108999Y-114243072D01*
X155009001Y-114243072D01*
X155182255Y-114226008D01*
X155348851Y-114175472D01*
X155502387Y-114093405D01*
X155636962Y-113982962D01*
X155733771Y-113865000D01*
X156178229Y-113865000D01*
X156275038Y-113982962D01*
X156409613Y-114093405D01*
X156563149Y-114175472D01*
X156729745Y-114226008D01*
X156902999Y-114243072D01*
X157803001Y-114243072D01*
X157976255Y-114226008D01*
X158142851Y-114175472D01*
X158296387Y-114093405D01*
X158430962Y-113982962D01*
X158527771Y-113865000D01*
X158957854Y-113865000D01*
X158958595Y-113866387D01*
X159069038Y-114000962D01*
X159111553Y-114035853D01*
X158956102Y-114066774D01*
X158767744Y-114144795D01*
X158598226Y-114258063D01*
X158454063Y-114402226D01*
X158340795Y-114571744D01*
X158262774Y-114760102D01*
X158233908Y-114905224D01*
X157134133Y-116005000D01*
X148391715Y-116005000D01*
X148372497Y-115976238D01*
X148183762Y-115787503D01*
X147961833Y-115639215D01*
X147715239Y-115537072D01*
X147453456Y-115485000D01*
X147186544Y-115485000D01*
X146924761Y-115537072D01*
X146678167Y-115639215D01*
X146456238Y-115787503D01*
X146267503Y-115976238D01*
X146119215Y-116198167D01*
X146017072Y-116444761D01*
X145965000Y-116706544D01*
X145965000Y-116973456D01*
X146017072Y-117235239D01*
X146119215Y-117481833D01*
X146267503Y-117703762D01*
X146456238Y-117892497D01*
X146678167Y-118040785D01*
X146845266Y-118110000D01*
X146678167Y-118179215D01*
X146456238Y-118327503D01*
X146267503Y-118516238D01*
X146119215Y-118738167D01*
X146017072Y-118984761D01*
X145965000Y-119246544D01*
X145965000Y-119513456D01*
X146017072Y-119775239D01*
X146119215Y-120021833D01*
X146267503Y-120243762D01*
X146456238Y-120432497D01*
X146485000Y-120451715D01*
X146485001Y-120848284D01*
X146456238Y-120867503D01*
X146267503Y-121056238D01*
X146119215Y-121278167D01*
X146017072Y-121524761D01*
X145965000Y-121786544D01*
X145965000Y-122053456D01*
X146017072Y-122315239D01*
X146119215Y-122561833D01*
X146267503Y-122783762D01*
X146456238Y-122972497D01*
X146678167Y-123120785D01*
X146924761Y-123222928D01*
X147186544Y-123275000D01*
X147453456Y-123275000D01*
X147715239Y-123222928D01*
X147961833Y-123120785D01*
X148145594Y-122998000D01*
X176568928Y-122998000D01*
X176572000Y-123412250D01*
X176730750Y-123571000D01*
X177655000Y-123571000D01*
X177655000Y-122521750D01*
X177496250Y-122363000D01*
X177207000Y-122359928D01*
X177082518Y-122372188D01*
X176962820Y-122408498D01*
X176852506Y-122467463D01*
X176755815Y-122546815D01*
X176676463Y-122643506D01*
X176617498Y-122753820D01*
X176581188Y-122873518D01*
X176568928Y-122998000D01*
X148145594Y-122998000D01*
X148183762Y-122972497D01*
X148372497Y-122783762D01*
X148520785Y-122561833D01*
X148622928Y-122315239D01*
X148675000Y-122053456D01*
X148675000Y-121786544D01*
X148622928Y-121524761D01*
X148520785Y-121278167D01*
X148372497Y-121056238D01*
X148183762Y-120867503D01*
X148155000Y-120848285D01*
X148155000Y-120451715D01*
X148183762Y-120432497D01*
X148372497Y-120243762D01*
X148520785Y-120021833D01*
X148622928Y-119775239D01*
X148675000Y-119513456D01*
X148675000Y-119246544D01*
X148622928Y-118984761D01*
X148520785Y-118738167D01*
X148372497Y-118516238D01*
X148183762Y-118327503D01*
X147961833Y-118179215D01*
X147794734Y-118110000D01*
X147961833Y-118040785D01*
X148183762Y-117892497D01*
X148372497Y-117703762D01*
X148391715Y-117675000D01*
X157438982Y-117675000D01*
X157480000Y-117679040D01*
X157521018Y-117675000D01*
X157521019Y-117675000D01*
X157643689Y-117662918D01*
X157801087Y-117615172D01*
X157946146Y-117537636D01*
X158073291Y-117433291D01*
X158099446Y-117401421D01*
X159414776Y-116086092D01*
X159559898Y-116057226D01*
X159748256Y-115979205D01*
X159917774Y-115865937D01*
X160061937Y-115721774D01*
X160175205Y-115552256D01*
X160253226Y-115363898D01*
X160293000Y-115163939D01*
X160293000Y-114960061D01*
X160253226Y-114760102D01*
X160175205Y-114571744D01*
X160061937Y-114402226D01*
X159920783Y-114261072D01*
X160597001Y-114261072D01*
X160770255Y-114244008D01*
X160936851Y-114193472D01*
X161090387Y-114111405D01*
X161224962Y-114000962D01*
X161238823Y-113984073D01*
X161300750Y-114046000D01*
X162625000Y-114046000D01*
X162625000Y-114026000D01*
X162879000Y-114026000D01*
X162879000Y-114046000D01*
X164203250Y-114046000D01*
X164362000Y-113887250D01*
X164365072Y-113873000D01*
X164352812Y-113748518D01*
X164316502Y-113628820D01*
X164257537Y-113518506D01*
X164233270Y-113488936D01*
X164305084Y-113354582D01*
X164349929Y-113206745D01*
X164365072Y-113053000D01*
X164365072Y-112753000D01*
X164349929Y-112599255D01*
X164305084Y-112451418D01*
X164232258Y-112315171D01*
X164193546Y-112268000D01*
X164232258Y-112220829D01*
X164305084Y-112084582D01*
X164349929Y-111936745D01*
X164365072Y-111783000D01*
X164365072Y-111483000D01*
X164349929Y-111329255D01*
X164305084Y-111181418D01*
X164232258Y-111045171D01*
X164134251Y-110925749D01*
X164014829Y-110827742D01*
X163878582Y-110754916D01*
X163730745Y-110710071D01*
X163577000Y-110694928D01*
X162728182Y-110694928D01*
X162793226Y-110537898D01*
X162833000Y-110337939D01*
X162833000Y-110134061D01*
X162793226Y-109934102D01*
X162715205Y-109745744D01*
X162601937Y-109576226D01*
X162457774Y-109432063D01*
X162288256Y-109318795D01*
X162099898Y-109240774D01*
X161899939Y-109201000D01*
X161696061Y-109201000D01*
X161496102Y-109240774D01*
X161307744Y-109318795D01*
X161138226Y-109432063D01*
X160994063Y-109576226D01*
X160880795Y-109745744D01*
X160847758Y-109825502D01*
X160770255Y-109801992D01*
X160597001Y-109784928D01*
X159696999Y-109784928D01*
X159523745Y-109801992D01*
X159357149Y-109852528D01*
X159203613Y-109934595D01*
X159069038Y-110045038D01*
X158972229Y-110163000D01*
X158542146Y-110163000D01*
X158541405Y-110161613D01*
X158430962Y-110027038D01*
X158296387Y-109916595D01*
X158142851Y-109834528D01*
X157976255Y-109783992D01*
X157803001Y-109766928D01*
X156902999Y-109766928D01*
X156729745Y-109783992D01*
X156563149Y-109834528D01*
X156409613Y-109916595D01*
X156275038Y-110027038D01*
X156164595Y-110161613D01*
X156082528Y-110315149D01*
X156031992Y-110481745D01*
X156014928Y-110654999D01*
X156014928Y-111305001D01*
X156031992Y-111478255D01*
X156082528Y-111644851D01*
X156164595Y-111798387D01*
X156275038Y-111932962D01*
X156362816Y-112005000D01*
X156275038Y-112077038D01*
X156178229Y-112195000D01*
X155733771Y-112195000D01*
X155636962Y-112077038D01*
X155549184Y-112005000D01*
X155636962Y-111932962D01*
X155747405Y-111798387D01*
X155829472Y-111644851D01*
X155880008Y-111478255D01*
X155897072Y-111305001D01*
X155897072Y-110654999D01*
X155880008Y-110481745D01*
X155829472Y-110315149D01*
X155747405Y-110161613D01*
X155636962Y-110027038D01*
X155502387Y-109916595D01*
X155348851Y-109834528D01*
X155182255Y-109783992D01*
X155009001Y-109766928D01*
X154108999Y-109766928D01*
X153935745Y-109783992D01*
X153769149Y-109834528D01*
X153615613Y-109916595D01*
X153481038Y-110027038D01*
X153370595Y-110161613D01*
X153288528Y-110315149D01*
X153237992Y-110481745D01*
X153220928Y-110654999D01*
X153220928Y-111137205D01*
X153138143Y-111219990D01*
X153103072Y-111219990D01*
X153103072Y-110654999D01*
X153086008Y-110481745D01*
X153035472Y-110315149D01*
X152953405Y-110161613D01*
X152842962Y-110027038D01*
X152708387Y-109916595D01*
X152554851Y-109834528D01*
X152388255Y-109783992D01*
X152215001Y-109766928D01*
X151314999Y-109766928D01*
X151141745Y-109783992D01*
X150975149Y-109834528D01*
X150821613Y-109916595D01*
X150687038Y-110027038D01*
X150590229Y-110145000D01*
X143061018Y-110145000D01*
X143020000Y-110140960D01*
X142856311Y-110157082D01*
X142698913Y-110204828D01*
X142553854Y-110282364D01*
X142486136Y-110337939D01*
X142426709Y-110386709D01*
X142400563Y-110418568D01*
X135975000Y-116844133D01*
X135975000Y-116706544D01*
X135922928Y-116444761D01*
X135820785Y-116198167D01*
X135672497Y-115976238D01*
X135483762Y-115787503D01*
X135261833Y-115639215D01*
X135015239Y-115537072D01*
X134753456Y-115485000D01*
X134486544Y-115485000D01*
X134224761Y-115537072D01*
X133978167Y-115639215D01*
X133756238Y-115787503D01*
X133567503Y-115976238D01*
X133419215Y-116198167D01*
X133317072Y-116444761D01*
X133265000Y-116706544D01*
X133265000Y-116973456D01*
X133271748Y-117007383D01*
X131025000Y-119254132D01*
X131025000Y-119252998D01*
X130860156Y-119252998D01*
X130981476Y-119023110D01*
X130936825Y-118875901D01*
X130811641Y-118613080D01*
X130637588Y-118379731D01*
X130553534Y-118303966D01*
X130634180Y-118279502D01*
X130744494Y-118220537D01*
X130841185Y-118141185D01*
X130920537Y-118044494D01*
X130979502Y-117934180D01*
X131015812Y-117814482D01*
X131028072Y-117690000D01*
X131025000Y-117125750D01*
X130866250Y-116967000D01*
X129667000Y-116967000D01*
X129667000Y-119253000D01*
X129687000Y-119253000D01*
X129687000Y-119507000D01*
X129667000Y-119507000D01*
X129667000Y-119527000D01*
X129413000Y-119527000D01*
X129413000Y-119507000D01*
X128219845Y-119507000D01*
X128098524Y-119736890D01*
X128143175Y-119884099D01*
X128268359Y-120146920D01*
X128442412Y-120380269D01*
X128658645Y-120575178D01*
X128775534Y-120644805D01*
X128593368Y-120766525D01*
X128386525Y-120973368D01*
X128224010Y-121216589D01*
X128112068Y-121486842D01*
X128055000Y-121773740D01*
X127660000Y-121773740D01*
X127660000Y-117690000D01*
X128051928Y-117690000D01*
X128064188Y-117814482D01*
X128100498Y-117934180D01*
X128159463Y-118044494D01*
X128238815Y-118141185D01*
X128335506Y-118220537D01*
X128445820Y-118279502D01*
X128526466Y-118303966D01*
X128442412Y-118379731D01*
X128268359Y-118613080D01*
X128143175Y-118875901D01*
X128098524Y-119023110D01*
X128219845Y-119253000D01*
X129413000Y-119253000D01*
X129413000Y-116967000D01*
X128213750Y-116967000D01*
X128055000Y-117125750D01*
X128051928Y-117690000D01*
X127660000Y-117690000D01*
X127660000Y-115990000D01*
X128051928Y-115990000D01*
X128055000Y-116554250D01*
X128213750Y-116713000D01*
X129413000Y-116713000D01*
X129413000Y-115513750D01*
X129667000Y-115513750D01*
X129667000Y-116713000D01*
X130866250Y-116713000D01*
X131025000Y-116554250D01*
X131028072Y-115990000D01*
X131015812Y-115865518D01*
X130979502Y-115745820D01*
X130920537Y-115635506D01*
X130841185Y-115538815D01*
X130744494Y-115459463D01*
X130634180Y-115400498D01*
X130514482Y-115364188D01*
X130390000Y-115351928D01*
X129825750Y-115355000D01*
X129667000Y-115513750D01*
X129413000Y-115513750D01*
X129254250Y-115355000D01*
X128690000Y-115351928D01*
X128565518Y-115364188D01*
X128445820Y-115400498D01*
X128335506Y-115459463D01*
X128238815Y-115538815D01*
X128159463Y-115635506D01*
X128100498Y-115745820D01*
X128064188Y-115865518D01*
X128051928Y-115990000D01*
X127660000Y-115990000D01*
X127660000Y-79590000D01*
X128051928Y-79590000D01*
X128064188Y-79714482D01*
X128100498Y-79834180D01*
X128159463Y-79944494D01*
X128238815Y-80041185D01*
X128335506Y-80120537D01*
X128445820Y-80179502D01*
X128526466Y-80203966D01*
X128442412Y-80279731D01*
X128268359Y-80513080D01*
X128143175Y-80775901D01*
X128098524Y-80923110D01*
X128219845Y-81153000D01*
X129413000Y-81153000D01*
X129413000Y-78867000D01*
X129667000Y-78867000D01*
X129667000Y-81153000D01*
X130860155Y-81153000D01*
X130981476Y-80923110D01*
X130936825Y-80775901D01*
X130811641Y-80513080D01*
X130637588Y-80279731D01*
X130553534Y-80203966D01*
X130634180Y-80179502D01*
X130744494Y-80120537D01*
X130841185Y-80041185D01*
X130920537Y-79944494D01*
X130979502Y-79834180D01*
X131015812Y-79714482D01*
X131028072Y-79590000D01*
X131025000Y-79025750D01*
X130866250Y-78867000D01*
X129667000Y-78867000D01*
X129413000Y-78867000D01*
X128213750Y-78867000D01*
X128055000Y-79025750D01*
X128051928Y-79590000D01*
X127660000Y-79590000D01*
X127660000Y-77890000D01*
X128051928Y-77890000D01*
X128055000Y-78454250D01*
X128213750Y-78613000D01*
X129413000Y-78613000D01*
X129413000Y-77413750D01*
X129667000Y-77413750D01*
X129667000Y-78613000D01*
X130866250Y-78613000D01*
X131025000Y-78454250D01*
X131028072Y-77890000D01*
X131015812Y-77765518D01*
X130979502Y-77645820D01*
X130920537Y-77535506D01*
X130841185Y-77438815D01*
X130744494Y-77359463D01*
X130634180Y-77300498D01*
X130514482Y-77264188D01*
X130390000Y-77251928D01*
X129825750Y-77255000D01*
X129667000Y-77413750D01*
X129413000Y-77413750D01*
X129254250Y-77255000D01*
X128690000Y-77251928D01*
X128565518Y-77264188D01*
X128445820Y-77300498D01*
X128335506Y-77359463D01*
X128238815Y-77438815D01*
X128159463Y-77535506D01*
X128100498Y-77645820D01*
X128064188Y-77765518D01*
X128051928Y-77890000D01*
X127660000Y-77890000D01*
X127660000Y-76860000D01*
X146052876Y-76860000D01*
X145257564Y-77655313D01*
G37*
X145257564Y-77655313D02*
X145225700Y-77681463D01*
X145185620Y-77730301D01*
X145121354Y-77808609D01*
X145043818Y-77953668D01*
X144996072Y-78111066D01*
X144979950Y-78274754D01*
X144983991Y-78315782D01*
X144983990Y-81270971D01*
X144979950Y-81311990D01*
X144983990Y-81353008D01*
X144996072Y-81475678D01*
X145043818Y-81633076D01*
X145121354Y-81778135D01*
X145225699Y-81905281D01*
X145257569Y-81931436D01*
X145589928Y-82263795D01*
X145589928Y-82746001D01*
X145606992Y-82919255D01*
X145657528Y-83085851D01*
X145739595Y-83239387D01*
X145850038Y-83373962D01*
X145977001Y-83478158D01*
X145977001Y-83524972D01*
X145972960Y-83566000D01*
X145989082Y-83729688D01*
X146036828Y-83887086D01*
X146112988Y-84029570D01*
X146114365Y-84032146D01*
X146218710Y-84159291D01*
X146250574Y-84185441D01*
X146338773Y-84273641D01*
X146304745Y-84276992D01*
X146138149Y-84327528D01*
X145984613Y-84409595D01*
X145850038Y-84520038D01*
X145739595Y-84654613D01*
X145657528Y-84808149D01*
X145606992Y-84974745D01*
X145589928Y-85147999D01*
X145589928Y-85630203D01*
X142635584Y-88584549D01*
X142603720Y-88610699D01*
X142577572Y-88642561D01*
X142499374Y-88737845D01*
X142421838Y-88882904D01*
X142374092Y-89040302D01*
X142357970Y-89203990D01*
X142362011Y-89245019D01*
X142362010Y-96959928D01*
X141896999Y-96959928D01*
X141723745Y-96976992D01*
X141557149Y-97027528D01*
X141447178Y-97086309D01*
X130998807Y-86637940D01*
X131025000Y-86506260D01*
X131025000Y-86213740D01*
X130967932Y-85926842D01*
X130855990Y-85656589D01*
X130693475Y-85413368D01*
X130486632Y-85206525D01*
X130375000Y-85131935D01*
X130375000Y-85048065D01*
X130486632Y-84973475D01*
X130693475Y-84766632D01*
X130855990Y-84523411D01*
X130967932Y-84253158D01*
X131025000Y-83966260D01*
X131025000Y-83673740D01*
X130967932Y-83386842D01*
X130855990Y-83116589D01*
X130693475Y-82873368D01*
X130486632Y-82666525D01*
X130304466Y-82544805D01*
X130421355Y-82475178D01*
X130637588Y-82280269D01*
X130811641Y-82046920D01*
X130936825Y-81784099D01*
X130981476Y-81636890D01*
X130860155Y-81407000D01*
X129667000Y-81407000D01*
X129667000Y-81427000D01*
X129413000Y-81427000D01*
X129413000Y-81407000D01*
X128219845Y-81407000D01*
X128098524Y-81636890D01*
X128143175Y-81784099D01*
X128268359Y-82046920D01*
X128442412Y-82280269D01*
X128658645Y-82475178D01*
X128775534Y-82544805D01*
X128593368Y-82666525D01*
X128386525Y-82873368D01*
X128224010Y-83116589D01*
X128112068Y-83386842D01*
X128055000Y-83673740D01*
X128055000Y-83966260D01*
X128112068Y-84253158D01*
X128224010Y-84523411D01*
X128386525Y-84766632D01*
X128593368Y-84973475D01*
X128705000Y-85048065D01*
X128705001Y-85131935D01*
X128593368Y-85206525D01*
X128386525Y-85413368D01*
X128224010Y-85656589D01*
X128112068Y-85926842D01*
X128055000Y-86213740D01*
X128055000Y-86506260D01*
X128112068Y-86793158D01*
X128224010Y-87063411D01*
X128386525Y-87306632D01*
X128593368Y-87513475D01*
X128836589Y-87675990D01*
X129106842Y-87787932D01*
X129393740Y-87845000D01*
X129686260Y-87845000D01*
X129817940Y-87818807D01*
X140669132Y-98670001D01*
X139646574Y-99692559D01*
X139614710Y-99718709D01*
X139566298Y-99777699D01*
X139510364Y-99845855D01*
X139432828Y-99990914D01*
X139385082Y-100148312D01*
X139368960Y-100312000D01*
X139373001Y-100353028D01*
X139373000Y-103844981D01*
X139368960Y-103886000D01*
X139382526Y-104023738D01*
X139385082Y-104049688D01*
X139432828Y-104207086D01*
X139510364Y-104352145D01*
X139614709Y-104479291D01*
X139646579Y-104505446D01*
X142304584Y-107163453D01*
X142330730Y-107195312D01*
X142362589Y-107221458D01*
X142362591Y-107221460D01*
X142411467Y-107261571D01*
X142457875Y-107299657D01*
X142602934Y-107377193D01*
X142760332Y-107424939D01*
X142883002Y-107437021D01*
X142883003Y-107437021D01*
X142924021Y-107441061D01*
X142965039Y-107437021D01*
X170724961Y-107437021D01*
X170765979Y-107441061D01*
X170806997Y-107437021D01*
X170806998Y-107437021D01*
X170929668Y-107424939D01*
X171087066Y-107377193D01*
X171232125Y-107299657D01*
X171359270Y-107195312D01*
X171385424Y-107163443D01*
X171503865Y-107045002D01*
X171944420Y-107045002D01*
X171848147Y-107277426D01*
X171793000Y-107554665D01*
X171793000Y-107837335D01*
X171848147Y-108114574D01*
X171956320Y-108375727D01*
X172113363Y-108610759D01*
X172313241Y-108810637D01*
X172520001Y-108948789D01*
X172520000Y-110874661D01*
X172411613Y-110932595D01*
X172277038Y-111043038D01*
X172180229Y-111161000D01*
X171474385Y-111161000D01*
X171384962Y-111052038D01*
X171250387Y-110941595D01*
X171096851Y-110859528D01*
X170930255Y-110808992D01*
X170757001Y-110791928D01*
X169856999Y-110791928D01*
X169683745Y-110808992D01*
X169517149Y-110859528D01*
X169363613Y-110941595D01*
X169229038Y-111052038D01*
X169202932Y-111083849D01*
X169182258Y-111045171D01*
X169084251Y-110925749D01*
X168964829Y-110827742D01*
X168828582Y-110754916D01*
X168680745Y-110710071D01*
X168527000Y-110694928D01*
X166877000Y-110694928D01*
X166723255Y-110710071D01*
X166575418Y-110754916D01*
X166501536Y-110794407D01*
X166497000Y-110793960D01*
X166455982Y-110798000D01*
X166455981Y-110798000D01*
X166333311Y-110810082D01*
X166199978Y-110850528D01*
X166175913Y-110857828D01*
X166030854Y-110935364D01*
X165954532Y-110998000D01*
X165903709Y-111039709D01*
X165877562Y-111071569D01*
X165300578Y-111648555D01*
X165268709Y-111674709D01*
X165179838Y-111783000D01*
X165164364Y-111801855D01*
X165086828Y-111946914D01*
X165039082Y-112104312D01*
X165022960Y-112268000D01*
X165027000Y-112309019D01*
X165027000Y-114951133D01*
X164957446Y-114881579D01*
X164931291Y-114849709D01*
X164804146Y-114745364D01*
X164659087Y-114667828D01*
X164501689Y-114620082D01*
X164379019Y-114608000D01*
X164379018Y-114608000D01*
X164350474Y-114605189D01*
X164352812Y-114597482D01*
X164365072Y-114473000D01*
X164362000Y-114458750D01*
X164203250Y-114300000D01*
X162879000Y-114300000D01*
X162879000Y-114320000D01*
X162625000Y-114320000D01*
X162625000Y-114300000D01*
X161300750Y-114300000D01*
X161142000Y-114458750D01*
X161138928Y-114473000D01*
X161151188Y-114597482D01*
X161187498Y-114717180D01*
X161246463Y-114827494D01*
X161270730Y-114857064D01*
X161198916Y-114991418D01*
X161154071Y-115139255D01*
X161138928Y-115293000D01*
X161138928Y-115593000D01*
X161154071Y-115746745D01*
X161198916Y-115894582D01*
X161271742Y-116030829D01*
X161369749Y-116150251D01*
X161489171Y-116248258D01*
X161625418Y-116321084D01*
X161773255Y-116365929D01*
X161927000Y-116381072D01*
X163577000Y-116381072D01*
X163730745Y-116365929D01*
X163878582Y-116321084D01*
X163959186Y-116278000D01*
X163992133Y-116278000D01*
X164011006Y-116296873D01*
X164011007Y-119566724D01*
X163928801Y-119689754D01*
X163850780Y-119878112D01*
X163811006Y-120078071D01*
X163811006Y-120281949D01*
X163850780Y-120481908D01*
X163928801Y-120670266D01*
X164042069Y-120839784D01*
X164186232Y-120983947D01*
X164355750Y-121097215D01*
X164544108Y-121175236D01*
X164744067Y-121215010D01*
X164947945Y-121215010D01*
X165027001Y-121199285D01*
X165027001Y-121306714D01*
X164944795Y-121429744D01*
X164866774Y-121618102D01*
X164827000Y-121818061D01*
X164827000Y-122021939D01*
X164866774Y-122221898D01*
X164944795Y-122410256D01*
X165058063Y-122579774D01*
X165202226Y-122723937D01*
X165371744Y-122837205D01*
X165560102Y-122915226D01*
X165760061Y-122955000D01*
X165963939Y-122955000D01*
X166163898Y-122915226D01*
X166352256Y-122837205D01*
X166521774Y-122723937D01*
X166665937Y-122579774D01*
X166779205Y-122410256D01*
X166857226Y-122221898D01*
X166897000Y-122021939D01*
X166897000Y-121818061D01*
X166857226Y-121618102D01*
X166779205Y-121429744D01*
X166697000Y-121306715D01*
X166697000Y-121096000D01*
X176568928Y-121096000D01*
X176581188Y-121220482D01*
X176617498Y-121340180D01*
X176676463Y-121450494D01*
X176755815Y-121547185D01*
X176852506Y-121626537D01*
X176962820Y-121685502D01*
X177082518Y-121721812D01*
X177207000Y-121734072D01*
X177496250Y-121731000D01*
X177655000Y-121572250D01*
X177655000Y-120523000D01*
X176730750Y-120523000D01*
X176572000Y-120681750D01*
X176568928Y-121096000D01*
X166697000Y-121096000D01*
X166697000Y-119696000D01*
X176568928Y-119696000D01*
X176572000Y-120110250D01*
X176730750Y-120269000D01*
X177655000Y-120269000D01*
X177655000Y-119219750D01*
X177496250Y-119061000D01*
X177207000Y-119057928D01*
X177082518Y-119070188D01*
X176962820Y-119106498D01*
X176852506Y-119165463D01*
X176755815Y-119244815D01*
X176676463Y-119341506D01*
X176617498Y-119451820D01*
X176581188Y-119571518D01*
X176568928Y-119696000D01*
X166697000Y-119696000D01*
X166697000Y-116357965D01*
X166723255Y-116365929D01*
X166877000Y-116381072D01*
X167143205Y-116381072D01*
X168968928Y-118206796D01*
X168968928Y-118689001D01*
X168985992Y-118862255D01*
X169036528Y-119028851D01*
X169118595Y-119182387D01*
X169229038Y-119316962D01*
X169363613Y-119427405D01*
X169517149Y-119509472D01*
X169683745Y-119560008D01*
X169856999Y-119577072D01*
X170757001Y-119577072D01*
X170930255Y-119560008D01*
X171096851Y-119509472D01*
X171250387Y-119427405D01*
X171384962Y-119316962D01*
X171481771Y-119199000D01*
X172165854Y-119199000D01*
X172166595Y-119200387D01*
X172277038Y-119334962D01*
X172411613Y-119445405D01*
X172565149Y-119527472D01*
X172731745Y-119578008D01*
X172904999Y-119595072D01*
X173805001Y-119595072D01*
X173978255Y-119578008D01*
X174144851Y-119527472D01*
X174298387Y-119445405D01*
X174432962Y-119334962D01*
X174543405Y-119200387D01*
X174625472Y-119046851D01*
X174676008Y-118880255D01*
X174693072Y-118707001D01*
X174693072Y-118056999D01*
X174676008Y-117883745D01*
X174625472Y-117717149D01*
X174543405Y-117563613D01*
X174432962Y-117429038D01*
X174426406Y-117423658D01*
X174506185Y-117358185D01*
X174585537Y-117261494D01*
X174644502Y-117151180D01*
X174680812Y-117031482D01*
X174693072Y-116907000D01*
X174690000Y-116617750D01*
X174531250Y-116459000D01*
X173482000Y-116459000D01*
X173482000Y-116479000D01*
X173228000Y-116479000D01*
X173228000Y-116459000D01*
X173208000Y-116459000D01*
X173208000Y-116205000D01*
X173228000Y-116205000D01*
X173228000Y-116185000D01*
X173482000Y-116185000D01*
X173482000Y-116205000D01*
X174531250Y-116205000D01*
X174690000Y-116046250D01*
X174693072Y-115757000D01*
X174680812Y-115632518D01*
X174644502Y-115512820D01*
X174585537Y-115402506D01*
X174506185Y-115305815D01*
X174409494Y-115226463D01*
X174299180Y-115167498D01*
X174229339Y-115146312D01*
X174298387Y-115109405D01*
X174432962Y-114998962D01*
X174529771Y-114881000D01*
X175228229Y-114881000D01*
X175325038Y-114998962D01*
X175459613Y-115109405D01*
X175613149Y-115191472D01*
X175779745Y-115242008D01*
X175952999Y-115259072D01*
X176853001Y-115259072D01*
X177026255Y-115242008D01*
X177192851Y-115191472D01*
X177346387Y-115109405D01*
X177480962Y-114998962D01*
X177591405Y-114864387D01*
X177673472Y-114710851D01*
X177724008Y-114544255D01*
X177741072Y-114371001D01*
X177741072Y-113720999D01*
X177724008Y-113547745D01*
X177673472Y-113381149D01*
X177591405Y-113227613D01*
X177480962Y-113093038D01*
X177393184Y-113021000D01*
X177480962Y-112948962D01*
X177591405Y-112814387D01*
X177673472Y-112660851D01*
X177724008Y-112494255D01*
X177741072Y-112321001D01*
X177741072Y-111670999D01*
X177724008Y-111497745D01*
X177673472Y-111331149D01*
X177591405Y-111177613D01*
X177480962Y-111043038D01*
X177346387Y-110932595D01*
X177238000Y-110874661D01*
X177238000Y-107102018D01*
X177242040Y-107061000D01*
X177225918Y-106897311D01*
X177178172Y-106739913D01*
X177100636Y-106594854D01*
X177022439Y-106499570D01*
X177022437Y-106499568D01*
X176996291Y-106467709D01*
X176964432Y-106441563D01*
X176171447Y-105648580D01*
X176145293Y-105616711D01*
X176018148Y-105512366D01*
X175873089Y-105434830D01*
X175715691Y-105387084D01*
X175593021Y-105375002D01*
X175593020Y-105375002D01*
X175552002Y-105370962D01*
X175510984Y-105375002D01*
X171722992Y-105375002D01*
X171722992Y-105308061D01*
X171683218Y-105108102D01*
X171605197Y-104919744D01*
X171491929Y-104750226D01*
X171347766Y-104606063D01*
X171178248Y-104492795D01*
X170989890Y-104414774D01*
X170789931Y-104375000D01*
X170586053Y-104375000D01*
X170386094Y-104414774D01*
X170197736Y-104492795D01*
X170028218Y-104606063D01*
X169884055Y-104750226D01*
X169770787Y-104919744D01*
X169747899Y-104974999D01*
X160719861Y-104974999D01*
X160742571Y-104927004D01*
X160811300Y-104652816D01*
X160825217Y-104370488D01*
X160783787Y-104090870D01*
X160718832Y-103909237D01*
X160736502Y-103876180D01*
X160772812Y-103756482D01*
X160785072Y-103632000D01*
X160782000Y-103282750D01*
X160623250Y-103124000D01*
X160398479Y-103124000D01*
X160359343Y-103076014D01*
X160318914Y-103025731D01*
X160317073Y-103024187D01*
X160315556Y-103022326D01*
X160265884Y-102981234D01*
X160216502Y-102939797D01*
X160214398Y-102938640D01*
X160212547Y-102937109D01*
X160155861Y-102906459D01*
X160099350Y-102875392D01*
X160097058Y-102874665D01*
X160094948Y-102873524D01*
X160083564Y-102870000D01*
X160623250Y-102870000D01*
X160782000Y-102711250D01*
X160784211Y-102459870D01*
X161108431Y-102135650D01*
X161140301Y-102109495D01*
X161244646Y-101982349D01*
X161257130Y-101958994D01*
X161851431Y-101364693D01*
X161883291Y-101338547D01*
X161914777Y-101300182D01*
X161965090Y-101238874D01*
X161987636Y-101211402D01*
X162065172Y-101066343D01*
X162112918Y-100908945D01*
X162125000Y-100786275D01*
X162125000Y-100786274D01*
X162129040Y-100745256D01*
X162125000Y-100704238D01*
X162125000Y-96844396D01*
X162153241Y-96872637D01*
X162388273Y-97029680D01*
X162649426Y-97137853D01*
X162926665Y-97193000D01*
X163209335Y-97193000D01*
X163486574Y-97137853D01*
X163747727Y-97029680D01*
X163982759Y-96872637D01*
X164182637Y-96672759D01*
X164338000Y-96440241D01*
X164493363Y-96672759D01*
X164693241Y-96872637D01*
X164755315Y-96914114D01*
X164664613Y-96962595D01*
X164530038Y-97073038D01*
X164419595Y-97207613D01*
X164337528Y-97361149D01*
X164286992Y-97527745D01*
X164269928Y-97700999D01*
X164269928Y-98351001D01*
X164286992Y-98524255D01*
X164337528Y-98690851D01*
X164419595Y-98844387D01*
X164530038Y-98978962D01*
X164617816Y-99051000D01*
X164530038Y-99123038D01*
X164419595Y-99257613D01*
X164337528Y-99411149D01*
X164286992Y-99577745D01*
X164269928Y-99750999D01*
X164269928Y-100401001D01*
X164286992Y-100574255D01*
X164337528Y-100740851D01*
X164419595Y-100894387D01*
X164530038Y-101028962D01*
X164664613Y-101139405D01*
X164773001Y-101197340D01*
X164773001Y-101685972D01*
X164768960Y-101727000D01*
X164785082Y-101890688D01*
X164832828Y-102048086D01*
X164906482Y-102185882D01*
X164910365Y-102193146D01*
X165014710Y-102320291D01*
X165046574Y-102346441D01*
X165957563Y-103257432D01*
X165983709Y-103289291D01*
X166015568Y-103315437D01*
X166015570Y-103315439D01*
X166110854Y-103393636D01*
X166255913Y-103471172D01*
X166413311Y-103518918D01*
X166577000Y-103535040D01*
X166618018Y-103531000D01*
X172060070Y-103531000D01*
X172113363Y-103610759D01*
X172313241Y-103810637D01*
X172548273Y-103967680D01*
X172809426Y-104075853D01*
X173086665Y-104131000D01*
X173369335Y-104131000D01*
X173646574Y-104075853D01*
X173907727Y-103967680D01*
X174142759Y-103810637D01*
X174342637Y-103610759D01*
X174499680Y-103375727D01*
X174607853Y-103114574D01*
X174663000Y-102837335D01*
X174663000Y-102554665D01*
X174607853Y-102277426D01*
X174499680Y-102016273D01*
X174342637Y-101781241D01*
X174142759Y-101581363D01*
X173907727Y-101424320D01*
X173646574Y-101316147D01*
X173369335Y-101261000D01*
X173086665Y-101261000D01*
X172809426Y-101316147D01*
X172548273Y-101424320D01*
X172313241Y-101581363D01*
X172113363Y-101781241D01*
X172060070Y-101861000D01*
X166922868Y-101861000D01*
X166443000Y-101381132D01*
X166443000Y-101197339D01*
X166551387Y-101139405D01*
X166685962Y-101028962D01*
X166796405Y-100894387D01*
X166878472Y-100740851D01*
X166929008Y-100574255D01*
X166946072Y-100401001D01*
X166946072Y-99750999D01*
X166929008Y-99577745D01*
X166878472Y-99411149D01*
X166796405Y-99257613D01*
X166685962Y-99123038D01*
X166598184Y-99051000D01*
X166685962Y-98978962D01*
X166796405Y-98844387D01*
X166878472Y-98690851D01*
X166929008Y-98524255D01*
X166946072Y-98351001D01*
X166946072Y-97700999D01*
X166929008Y-97527745D01*
X166878472Y-97361149D01*
X166796405Y-97207613D01*
X166685962Y-97073038D01*
X166551387Y-96962595D01*
X166460685Y-96914114D01*
X166522759Y-96872637D01*
X166722637Y-96672759D01*
X166878000Y-96440241D01*
X167033363Y-96672759D01*
X167233241Y-96872637D01*
X167313001Y-96925931D01*
X167313001Y-97231972D01*
X167308960Y-97273000D01*
X167325082Y-97436688D01*
X167372828Y-97594086D01*
X167450364Y-97739145D01*
X167450365Y-97739146D01*
X167554710Y-97866291D01*
X167571928Y-97880421D01*
X167571928Y-98073130D01*
X167403744Y-98142795D01*
X167234226Y-98256063D01*
X167090063Y-98400226D01*
X166976795Y-98569744D01*
X166898774Y-98758102D01*
X166859000Y-98958061D01*
X166859000Y-99161939D01*
X166898774Y-99361898D01*
X166976795Y-99550256D01*
X167090063Y-99719774D01*
X167234226Y-99863937D01*
X167403744Y-99977205D01*
X167571928Y-100046870D01*
X167571928Y-100410001D01*
X167588992Y-100583255D01*
X167639528Y-100749851D01*
X167721595Y-100903387D01*
X167832038Y-101037962D01*
X167966613Y-101148405D01*
X168120149Y-101230472D01*
X168286745Y-101281008D01*
X168459999Y-101298072D01*
X169360001Y-101298072D01*
X169533255Y-101281008D01*
X169699851Y-101230472D01*
X169853387Y-101148405D01*
X169987962Y-101037962D01*
X170098405Y-100903387D01*
X170180472Y-100749851D01*
X170231008Y-100583255D01*
X170248072Y-100410001D01*
X170248072Y-99759999D01*
X170231008Y-99586745D01*
X170180472Y-99420149D01*
X170098405Y-99266613D01*
X169987962Y-99132038D01*
X169900184Y-99060000D01*
X169987962Y-98987962D01*
X170098405Y-98853387D01*
X170180472Y-98699851D01*
X170222000Y-98562951D01*
X170222000Y-98679002D01*
X170380748Y-98679002D01*
X170222000Y-98837750D01*
X170218928Y-99252000D01*
X170231188Y-99376482D01*
X170267498Y-99496180D01*
X170326463Y-99606494D01*
X170405815Y-99703185D01*
X170502506Y-99782537D01*
X170612820Y-99841502D01*
X170732518Y-99877812D01*
X170857000Y-99890072D01*
X171146250Y-99887000D01*
X171305000Y-99728250D01*
X171305000Y-98679000D01*
X171285000Y-98679000D01*
X171285000Y-98425000D01*
X171305000Y-98425000D01*
X171305000Y-97375750D01*
X171146250Y-97217000D01*
X170857000Y-97213928D01*
X170732518Y-97226188D01*
X170612820Y-97262498D01*
X170502506Y-97321463D01*
X170405815Y-97400815D01*
X170326463Y-97497506D01*
X170267498Y-97607820D01*
X170245236Y-97681207D01*
X170231008Y-97536745D01*
X170180472Y-97370149D01*
X170098405Y-97216613D01*
X169987962Y-97082038D01*
X169853387Y-96971595D01*
X169699851Y-96889528D01*
X169533255Y-96838992D01*
X169360001Y-96821928D01*
X169113468Y-96821928D01*
X169262637Y-96672759D01*
X169419680Y-96437727D01*
X169516492Y-96204000D01*
X170218928Y-96204000D01*
X170231188Y-96328482D01*
X170267498Y-96448180D01*
X170326463Y-96558494D01*
X170405815Y-96655185D01*
X170502506Y-96734537D01*
X170612820Y-96793502D01*
X170732518Y-96829812D01*
X170857000Y-96842072D01*
X171146250Y-96839000D01*
X171305000Y-96680250D01*
X171305000Y-95631000D01*
X170380750Y-95631000D01*
X170222000Y-95789750D01*
X170218928Y-96204000D01*
X169516492Y-96204000D01*
X169527853Y-96176574D01*
X169583000Y-95899335D01*
X169583000Y-95616665D01*
X169527853Y-95339426D01*
X169419680Y-95078273D01*
X169262637Y-94843241D01*
X169156416Y-94737020D01*
X170225525Y-94737020D01*
X170218928Y-94804000D01*
X170222000Y-95218250D01*
X170380750Y-95377000D01*
X171305000Y-95377000D01*
X171305000Y-95357000D01*
X171559000Y-95357000D01*
X171559000Y-95377000D01*
X171579000Y-95377000D01*
X171579000Y-95631000D01*
X171559000Y-95631000D01*
X171559000Y-96680250D01*
X171678197Y-96799447D01*
X171690828Y-96841086D01*
X171768364Y-96986145D01*
X171787273Y-97009185D01*
X171872710Y-97113291D01*
X171904574Y-97139441D01*
X171979354Y-97214222D01*
X171717750Y-97217000D01*
X171559000Y-97375750D01*
X171559000Y-98425000D01*
X171579000Y-98425000D01*
X171579000Y-98679000D01*
X171559000Y-98679000D01*
X171559000Y-99728250D01*
X171717750Y-99887000D01*
X172007000Y-99890072D01*
X172131482Y-99877812D01*
X172251180Y-99841502D01*
X172361494Y-99782537D01*
X172458185Y-99703185D01*
X172523658Y-99623406D01*
X172529038Y-99629962D01*
X172663613Y-99740405D01*
X172817149Y-99822472D01*
X172983745Y-99873008D01*
X173156999Y-99890072D01*
X173807001Y-99890072D01*
X173980255Y-99873008D01*
X174146851Y-99822472D01*
X174300387Y-99740405D01*
X174434962Y-99629962D01*
X174545405Y-99495387D01*
X174627472Y-99341851D01*
X174678008Y-99175255D01*
X174695072Y-99002001D01*
X174695072Y-98117000D01*
X175422133Y-98117000D01*
X178021990Y-100716859D01*
X178021991Y-119106759D01*
X177909000Y-119219750D01*
X177909000Y-120269000D01*
X177929000Y-120269000D01*
X177929000Y-120523000D01*
X177909000Y-120523000D01*
X177909000Y-121572250D01*
X178021991Y-121685241D01*
X178021991Y-122408759D01*
X177909000Y-122521750D01*
X177909000Y-123571000D01*
X177929000Y-123571000D01*
X177929000Y-123825000D01*
X177909000Y-123825000D01*
X177909000Y-124874250D01*
X178067750Y-125033000D01*
X178357000Y-125036072D01*
X178481482Y-125023812D01*
X178601180Y-124987502D01*
X178711494Y-124928537D01*
X178808185Y-124849185D01*
X178873658Y-124769406D01*
X178879038Y-124775962D01*
X179013613Y-124886405D01*
X179167149Y-124968472D01*
X179333745Y-125019008D01*
X179506999Y-125036072D01*
X180157001Y-125036072D01*
X180330255Y-125019008D01*
X180496851Y-124968472D01*
X180650387Y-124886405D01*
X180715461Y-124833000D01*
X181364382Y-124833000D01*
X181351085Y-124968000D01*
X181370702Y-125167170D01*
X181428799Y-125358687D01*
X181523141Y-125535189D01*
X181650105Y-125689895D01*
X181804811Y-125816859D01*
X181981313Y-125911201D01*
X182172830Y-125969298D01*
X182372000Y-125988915D01*
X182571170Y-125969298D01*
X182683930Y-125935092D01*
X182733740Y-125945000D01*
X183026260Y-125945000D01*
X183313158Y-125887932D01*
X183583411Y-125775990D01*
X183826632Y-125613475D01*
X184033475Y-125406632D01*
X184195990Y-125163411D01*
X184307932Y-124893158D01*
X184365000Y-124606260D01*
X184365000Y-124313740D01*
X184307932Y-124026842D01*
X184195990Y-123756589D01*
X184033475Y-123513368D01*
X183896000Y-123375893D01*
X183896000Y-123004107D01*
X184033475Y-122866632D01*
X184195990Y-122623411D01*
X184307932Y-122353158D01*
X184365000Y-122066260D01*
X184365000Y-121773740D01*
X184307932Y-121486842D01*
X184195990Y-121216589D01*
X184033475Y-120973368D01*
X183826632Y-120766525D01*
X183652240Y-120650000D01*
X183826632Y-120533475D01*
X184033475Y-120326632D01*
X184195990Y-120083411D01*
X184307932Y-119813158D01*
X184365000Y-119526260D01*
X184365000Y-119233740D01*
X184307932Y-118946842D01*
X184195990Y-118676589D01*
X184033475Y-118433368D01*
X183896000Y-118295893D01*
X183896000Y-117924107D01*
X184033475Y-117786632D01*
X184195990Y-117543411D01*
X184307932Y-117273158D01*
X184365000Y-116986260D01*
X184365000Y-116693740D01*
X184307932Y-116406842D01*
X184195990Y-116136589D01*
X184033475Y-115893368D01*
X183826632Y-115686525D01*
X183652240Y-115570000D01*
X183826632Y-115453475D01*
X184033475Y-115246632D01*
X184195990Y-115003411D01*
X184307932Y-114733158D01*
X184365000Y-114446260D01*
X184365000Y-114153740D01*
X184307932Y-113866842D01*
X184195990Y-113596589D01*
X184033475Y-113353368D01*
X183826632Y-113146525D01*
X183715000Y-113071935D01*
X183715000Y-112988065D01*
X183826632Y-112913475D01*
X184033475Y-112706632D01*
X184195990Y-112463411D01*
X184307932Y-112193158D01*
X184365000Y-111906260D01*
X184365000Y-111613740D01*
X184307932Y-111326842D01*
X184195990Y-111056589D01*
X184033475Y-110813368D01*
X183826632Y-110606525D01*
X183644466Y-110484805D01*
X183761355Y-110415178D01*
X183977588Y-110220269D01*
X184151641Y-109986920D01*
X184276825Y-109724099D01*
X184321476Y-109576890D01*
X184200155Y-109347000D01*
X183007000Y-109347000D01*
X183007000Y-109367000D01*
X182753000Y-109367000D01*
X182753000Y-109347000D01*
X181559845Y-109347000D01*
X181438524Y-109576890D01*
X181483175Y-109724099D01*
X181608359Y-109986920D01*
X181782412Y-110220269D01*
X181998645Y-110415178D01*
X182115534Y-110484805D01*
X181933368Y-110606525D01*
X181726525Y-110813368D01*
X181564010Y-111056589D01*
X181452068Y-111326842D01*
X181395000Y-111613740D01*
X181395000Y-111906260D01*
X181452068Y-112193158D01*
X181564010Y-112463411D01*
X181726525Y-112706632D01*
X181933368Y-112913475D01*
X182045000Y-112988065D01*
X182045001Y-113071935D01*
X181933368Y-113146525D01*
X181726525Y-113353368D01*
X181564010Y-113596589D01*
X181452068Y-113866842D01*
X181395000Y-114153740D01*
X181395000Y-114446260D01*
X181452068Y-114733158D01*
X181564010Y-115003411D01*
X181726525Y-115246632D01*
X181933368Y-115453475D01*
X182107760Y-115570000D01*
X181933368Y-115686525D01*
X181726525Y-115893368D01*
X181564010Y-116136589D01*
X181452068Y-116406842D01*
X181395000Y-116693740D01*
X181395000Y-116986260D01*
X181452068Y-117273158D01*
X181564010Y-117543411D01*
X181726525Y-117786632D01*
X181864000Y-117924107D01*
X181864001Y-118295892D01*
X181726525Y-118433368D01*
X181564010Y-118676589D01*
X181452068Y-118946842D01*
X181395000Y-119233740D01*
X181395000Y-119380000D01*
X180835813Y-119380000D01*
X180784962Y-119318038D01*
X180667000Y-119221229D01*
X180667000Y-107530000D01*
X181391928Y-107530000D01*
X181404188Y-107654482D01*
X181440498Y-107774180D01*
X181499463Y-107884494D01*
X181578815Y-107981185D01*
X181675506Y-108060537D01*
X181785820Y-108119502D01*
X181866466Y-108143966D01*
X181782412Y-108219731D01*
X181608359Y-108453080D01*
X181483175Y-108715901D01*
X181438524Y-108863110D01*
X181559845Y-109093000D01*
X182753000Y-109093000D01*
X182753000Y-106807000D01*
X183007000Y-106807000D01*
X183007000Y-109093000D01*
X184200155Y-109093000D01*
X184321476Y-108863110D01*
X184276825Y-108715901D01*
X184151641Y-108453080D01*
X183977588Y-108219731D01*
X183893534Y-108143966D01*
X183974180Y-108119502D01*
X184084494Y-108060537D01*
X184181185Y-107981185D01*
X184260537Y-107884494D01*
X184319502Y-107774180D01*
X184355812Y-107654482D01*
X184368072Y-107530000D01*
X184365000Y-106965750D01*
X184206250Y-106807000D01*
X183007000Y-106807000D01*
X182753000Y-106807000D01*
X181553750Y-106807000D01*
X181395000Y-106965750D01*
X181391928Y-107530000D01*
X180667000Y-107530000D01*
X180667000Y-105830000D01*
X181391928Y-105830000D01*
X181395000Y-106394250D01*
X181553750Y-106553000D01*
X182753000Y-106553000D01*
X182753000Y-105353750D01*
X183007000Y-105353750D01*
X183007000Y-106553000D01*
X184206250Y-106553000D01*
X184365000Y-106394250D01*
X184368072Y-105830000D01*
X184355812Y-105705518D01*
X184319502Y-105585820D01*
X184260537Y-105475506D01*
X184181185Y-105378815D01*
X184084494Y-105299463D01*
X183974180Y-105240498D01*
X183854482Y-105204188D01*
X183730000Y-105191928D01*
X183165750Y-105195000D01*
X183007000Y-105353750D01*
X182753000Y-105353750D01*
X182594250Y-105195000D01*
X182030000Y-105191928D01*
X181905518Y-105204188D01*
X181785820Y-105240498D01*
X181675506Y-105299463D01*
X181578815Y-105378815D01*
X181499463Y-105475506D01*
X181440498Y-105585820D01*
X181404188Y-105705518D01*
X181391928Y-105830000D01*
X180667000Y-105830000D01*
X180667000Y-99609018D01*
X180671040Y-99568000D01*
X180654918Y-99404311D01*
X180607172Y-99246913D01*
X180529636Y-99101854D01*
X180451439Y-99006570D01*
X180451437Y-99006568D01*
X180425291Y-98974709D01*
X180393432Y-98948563D01*
X176387446Y-94942579D01*
X176361291Y-94910709D01*
X176234146Y-94806364D01*
X176089087Y-94728828D01*
X175931689Y-94681082D01*
X175809019Y-94669000D01*
X175809018Y-94669000D01*
X175768000Y-94664960D01*
X175726982Y-94669000D01*
X174603339Y-94669000D01*
X174545405Y-94560613D01*
X174434962Y-94426038D01*
X174317000Y-94329229D01*
X174317000Y-93391146D01*
X174318387Y-93390405D01*
X174452962Y-93279962D01*
X174563405Y-93145387D01*
X174645472Y-92991851D01*
X174696008Y-92825255D01*
X174713072Y-92652001D01*
X174713072Y-91751999D01*
X174696008Y-91578745D01*
X174645472Y-91412149D01*
X174563405Y-91258613D01*
X174490082Y-91169268D01*
X174517000Y-91033939D01*
X174517000Y-90830061D01*
X174477226Y-90630102D01*
X174399205Y-90441744D01*
X174285937Y-90272226D01*
X174141774Y-90128063D01*
X173972256Y-90014795D01*
X173783898Y-89936774D01*
X173583939Y-89897000D01*
X173380061Y-89897000D01*
X173180102Y-89936774D01*
X172991744Y-90014795D01*
X172822226Y-90128063D01*
X172678063Y-90272226D01*
X172564795Y-90441744D01*
X172486774Y-90630102D01*
X172447000Y-90830061D01*
X172447000Y-91033939D01*
X172480942Y-91204577D01*
X172475000Y-91211816D01*
X172402962Y-91124038D01*
X172268387Y-91013595D01*
X172114851Y-90931528D01*
X171948255Y-90880992D01*
X171775001Y-90863928D01*
X171124999Y-90863928D01*
X170951745Y-90880992D01*
X170785149Y-90931528D01*
X170631613Y-91013595D01*
X170497038Y-91124038D01*
X170386595Y-91258613D01*
X170328661Y-91367000D01*
X164937869Y-91367000D01*
X163143868Y-89573000D01*
X163209335Y-89573000D01*
X163486574Y-89517853D01*
X163747727Y-89409680D01*
X163982759Y-89252637D01*
X164182637Y-89052759D01*
X164338000Y-88820241D01*
X164493363Y-89052759D01*
X164693241Y-89252637D01*
X164928273Y-89409680D01*
X165189426Y-89517853D01*
X165466665Y-89573000D01*
X165749335Y-89573000D01*
X166026574Y-89517853D01*
X166287727Y-89409680D01*
X166522759Y-89252637D01*
X166722637Y-89052759D01*
X166878000Y-88820241D01*
X167033363Y-89052759D01*
X167233241Y-89252637D01*
X167468273Y-89409680D01*
X167729426Y-89517853D01*
X168006665Y-89573000D01*
X168289335Y-89573000D01*
X168566574Y-89517853D01*
X168827727Y-89409680D01*
X169062759Y-89252637D01*
X169262637Y-89052759D01*
X169315930Y-88973000D01*
X173664070Y-88973000D01*
X173717363Y-89052759D01*
X173917241Y-89252637D01*
X174152273Y-89409680D01*
X174413426Y-89517853D01*
X174690665Y-89573000D01*
X174973335Y-89573000D01*
X175250574Y-89517853D01*
X175511727Y-89409680D01*
X175746759Y-89252637D01*
X175946637Y-89052759D01*
X176103680Y-88817727D01*
X176211853Y-88556574D01*
X176267000Y-88279335D01*
X176267000Y-87996665D01*
X178397000Y-87996665D01*
X178397000Y-88279335D01*
X178452147Y-88556574D01*
X178560320Y-88817727D01*
X178717363Y-89052759D01*
X178917241Y-89252637D01*
X179152273Y-89409680D01*
X179413426Y-89517853D01*
X179690665Y-89573000D01*
X179973335Y-89573000D01*
X180250574Y-89517853D01*
X180511727Y-89409680D01*
X180746759Y-89252637D01*
X180946637Y-89052759D01*
X180999930Y-88973000D01*
X181060982Y-88973000D01*
X181102000Y-88977040D01*
X181143018Y-88973000D01*
X181143019Y-88973000D01*
X181265689Y-88960918D01*
X181423087Y-88913172D01*
X181568146Y-88835636D01*
X181695291Y-88731291D01*
X181721446Y-88699421D01*
X182602061Y-87818807D01*
X182733740Y-87845000D01*
X183026260Y-87845000D01*
X183313158Y-87787932D01*
X183583411Y-87675990D01*
X183826632Y-87513475D01*
X184033475Y-87306632D01*
X184195990Y-87063411D01*
X184307932Y-86793158D01*
X184365000Y-86506260D01*
X184365000Y-86213740D01*
X184307932Y-85926842D01*
X184195990Y-85656589D01*
X184033475Y-85413368D01*
X183826632Y-85206525D01*
X183715000Y-85131935D01*
X183715000Y-85048065D01*
X183826632Y-84973475D01*
X184033475Y-84766632D01*
X184195990Y-84523411D01*
X184307932Y-84253158D01*
X184365000Y-83966260D01*
X184365000Y-83673740D01*
X184307932Y-83386842D01*
X184195990Y-83116589D01*
X184033475Y-82873368D01*
X183826632Y-82666525D01*
X183644466Y-82544805D01*
X183761355Y-82475178D01*
X183977588Y-82280269D01*
X184151641Y-82046920D01*
X184276825Y-81784099D01*
X184321476Y-81636890D01*
X184200155Y-81407000D01*
X183007000Y-81407000D01*
X183007000Y-81427000D01*
X182753000Y-81427000D01*
X182753000Y-81407000D01*
X181559845Y-81407000D01*
X181438524Y-81636890D01*
X181483175Y-81784099D01*
X181608359Y-82046920D01*
X181782412Y-82280269D01*
X181998645Y-82475178D01*
X182115534Y-82544805D01*
X181933368Y-82666525D01*
X181726525Y-82873368D01*
X181564010Y-83116589D01*
X181452068Y-83386842D01*
X181395000Y-83673740D01*
X181395000Y-83966260D01*
X181452068Y-84253158D01*
X181564010Y-84523411D01*
X181726525Y-84766632D01*
X181933368Y-84973475D01*
X182045000Y-85048065D01*
X182045001Y-85131935D01*
X181933368Y-85206525D01*
X181726525Y-85413368D01*
X181564010Y-85656589D01*
X181452068Y-85926842D01*
X181395000Y-86213740D01*
X181395000Y-86506260D01*
X181421193Y-86637939D01*
X180891264Y-87167868D01*
X180746759Y-87023363D01*
X180511727Y-86866320D01*
X180250574Y-86758147D01*
X179973335Y-86703000D01*
X179690665Y-86703000D01*
X179413426Y-86758147D01*
X179152273Y-86866320D01*
X178917241Y-87023363D01*
X178717363Y-87223241D01*
X178560320Y-87458273D01*
X178452147Y-87719426D01*
X178397000Y-87996665D01*
X176267000Y-87996665D01*
X176211853Y-87719426D01*
X176103680Y-87458273D01*
X175946637Y-87223241D01*
X175746759Y-87023363D01*
X175511727Y-86866320D01*
X175250574Y-86758147D01*
X174973335Y-86703000D01*
X174690665Y-86703000D01*
X174413426Y-86758147D01*
X174152273Y-86866320D01*
X173917241Y-87023363D01*
X173717363Y-87223241D01*
X173664070Y-87303000D01*
X169315930Y-87303000D01*
X169262637Y-87223241D01*
X169062759Y-87023363D01*
X168983000Y-86970070D01*
X168983000Y-84560804D01*
X168987040Y-84519786D01*
X168980402Y-84452394D01*
X168970918Y-84356097D01*
X168923172Y-84198699D01*
X168845636Y-84053640D01*
X168781396Y-83975363D01*
X168767439Y-83958356D01*
X168767437Y-83958354D01*
X168741291Y-83926495D01*
X168709432Y-83900349D01*
X167007211Y-82198130D01*
X167005000Y-81946750D01*
X166846250Y-81788000D01*
X166372837Y-81788000D01*
X166374736Y-81787008D01*
X166377033Y-81786314D01*
X166433886Y-81756084D01*
X166491081Y-81726184D01*
X166492955Y-81724677D01*
X166495073Y-81723551D01*
X166544986Y-81682843D01*
X166595269Y-81642414D01*
X166596813Y-81640573D01*
X166598674Y-81639056D01*
X166639783Y-81589364D01*
X166681203Y-81540002D01*
X166682360Y-81537898D01*
X166683891Y-81536047D01*
X166684998Y-81534000D01*
X166846250Y-81534000D01*
X167005000Y-81375250D01*
X167008072Y-81026000D01*
X166995812Y-80901518D01*
X166959502Y-80781820D01*
X166942939Y-80750834D01*
X166965571Y-80703004D01*
X167034300Y-80428816D01*
X167048217Y-80146488D01*
X167006787Y-79866870D01*
X166911603Y-79600708D01*
X166905880Y-79590000D01*
X181391928Y-79590000D01*
X181404188Y-79714482D01*
X181440498Y-79834180D01*
X181499463Y-79944494D01*
X181578815Y-80041185D01*
X181675506Y-80120537D01*
X181785820Y-80179502D01*
X181866466Y-80203966D01*
X181782412Y-80279731D01*
X181608359Y-80513080D01*
X181483175Y-80775901D01*
X181438524Y-80923110D01*
X181559845Y-81153000D01*
X182753000Y-81153000D01*
X182753000Y-78867000D01*
X183007000Y-78867000D01*
X183007000Y-81153000D01*
X184200155Y-81153000D01*
X184321476Y-80923110D01*
X184276825Y-80775901D01*
X184151641Y-80513080D01*
X183977588Y-80279731D01*
X183893534Y-80203966D01*
X183974180Y-80179502D01*
X184084494Y-80120537D01*
X184181185Y-80041185D01*
X184260537Y-79944494D01*
X184319502Y-79834180D01*
X184355812Y-79714482D01*
X184368072Y-79590000D01*
X184365000Y-79025750D01*
X184206250Y-78867000D01*
X183007000Y-78867000D01*
X182753000Y-78867000D01*
X181553750Y-78867000D01*
X181395000Y-79025750D01*
X181391928Y-79590000D01*
X166905880Y-79590000D01*
X166844671Y-79475486D01*
X166600702Y-79403903D01*
X165917605Y-80087000D01*
X165298395Y-80087000D01*
X164615298Y-79403903D01*
X164371329Y-79475486D01*
X164250429Y-79730996D01*
X164181700Y-80005184D01*
X164167783Y-80287512D01*
X164209213Y-80567130D01*
X164274168Y-80748763D01*
X164256498Y-80781820D01*
X164220188Y-80901518D01*
X164207928Y-81026000D01*
X164211000Y-81375250D01*
X164369750Y-81534000D01*
X164594521Y-81534000D01*
X164633657Y-81581986D01*
X164674086Y-81632269D01*
X164675927Y-81633813D01*
X164677444Y-81635674D01*
X164727116Y-81676766D01*
X164776498Y-81718203D01*
X164778602Y-81719360D01*
X164780453Y-81720891D01*
X164837139Y-81751541D01*
X164893650Y-81782608D01*
X164895942Y-81783335D01*
X164898052Y-81784476D01*
X164909436Y-81788000D01*
X164369750Y-81788000D01*
X164271260Y-81886490D01*
X162955517Y-81886490D01*
X162914509Y-81882451D01*
X162873501Y-81886490D01*
X162873491Y-81886490D01*
X162750821Y-81898572D01*
X162593423Y-81946318D01*
X162448364Y-82023854D01*
X162321219Y-82128199D01*
X162295069Y-82160063D01*
X160195205Y-84259928D01*
X159712999Y-84259928D01*
X159539745Y-84276992D01*
X159373149Y-84327528D01*
X159219613Y-84409595D01*
X159085038Y-84520038D01*
X159013000Y-84607816D01*
X158961186Y-84544681D01*
X159871796Y-83634072D01*
X160354001Y-83634072D01*
X160527255Y-83617008D01*
X160693851Y-83566472D01*
X160847387Y-83484405D01*
X160981962Y-83373962D01*
X161092405Y-83239387D01*
X161174472Y-83085851D01*
X161225008Y-82919255D01*
X161242072Y-82746001D01*
X161242072Y-82263796D01*
X161556436Y-81949432D01*
X161588301Y-81923281D01*
X161692646Y-81796136D01*
X161770182Y-81651077D01*
X161817928Y-81493679D01*
X161830010Y-81371009D01*
X161830010Y-81370999D01*
X161834049Y-81329991D01*
X161830010Y-81288983D01*
X161830010Y-79224298D01*
X164794903Y-79224298D01*
X165608000Y-80037395D01*
X166421097Y-79224298D01*
X166349514Y-78980329D01*
X166094004Y-78859429D01*
X165819816Y-78790700D01*
X165537488Y-78776783D01*
X165257870Y-78818213D01*
X164991708Y-78913397D01*
X164866486Y-78980329D01*
X164794903Y-79224298D01*
X161830010Y-79224298D01*
X161830010Y-77978028D01*
X161834050Y-77937009D01*
X161829420Y-77890000D01*
X181391928Y-77890000D01*
X181395000Y-78454250D01*
X181553750Y-78613000D01*
X182753000Y-78613000D01*
X182753000Y-77413750D01*
X183007000Y-77413750D01*
X183007000Y-78613000D01*
X184206250Y-78613000D01*
X184365000Y-78454250D01*
X184368072Y-77890000D01*
X184355812Y-77765518D01*
X184319502Y-77645820D01*
X184260537Y-77535506D01*
X184181185Y-77438815D01*
X184084494Y-77359463D01*
X183974180Y-77300498D01*
X183854482Y-77264188D01*
X183730000Y-77251928D01*
X183165750Y-77255000D01*
X183007000Y-77413750D01*
X182753000Y-77413750D01*
X182594250Y-77255000D01*
X182030000Y-77251928D01*
X181905518Y-77264188D01*
X181785820Y-77300498D01*
X181675506Y-77359463D01*
X181578815Y-77438815D01*
X181499463Y-77535506D01*
X181440498Y-77645820D01*
X181404188Y-77765518D01*
X181391928Y-77890000D01*
X161829420Y-77890000D01*
X161817928Y-77773321D01*
X161770182Y-77615923D01*
X161692646Y-77470864D01*
X161657340Y-77427844D01*
X161588301Y-77343719D01*
X161556437Y-77317569D01*
X161098867Y-76860000D01*
X184760000Y-76860000D01*
X184760001Y-126340000D01*
X127660000Y-126340000D01*
X127660000Y-121773740D01*
X128055000Y-121773740D01*
X128055000Y-122066260D01*
X128112068Y-122353158D01*
X128224010Y-122623411D01*
X128386525Y-122866632D01*
X128593368Y-123073475D01*
X128705000Y-123148065D01*
X128705001Y-123231935D01*
X128593368Y-123306525D01*
X128386525Y-123513368D01*
X128224010Y-123756589D01*
X128112068Y-124026842D01*
X128055000Y-124313740D01*
X128055000Y-124606260D01*
X128112068Y-124893158D01*
X128224010Y-125163411D01*
X128386525Y-125406632D01*
X128593368Y-125613475D01*
X128836589Y-125775990D01*
X129106842Y-125887932D01*
X129393740Y-125945000D01*
X129686260Y-125945000D01*
X129973158Y-125887932D01*
X130243411Y-125775990D01*
X130486632Y-125613475D01*
X130693475Y-125406632D01*
X130855990Y-125163411D01*
X130967932Y-124893158D01*
X131025000Y-124606260D01*
X131025000Y-124398000D01*
X176568928Y-124398000D01*
X176581188Y-124522482D01*
X176617498Y-124642180D01*
X176676463Y-124752494D01*
X176755815Y-124849185D01*
X176852506Y-124928537D01*
X176962820Y-124987502D01*
X177082518Y-125023812D01*
X177207000Y-125036072D01*
X177496250Y-125033000D01*
X177655000Y-124874250D01*
X177655000Y-123825000D01*
X176730750Y-123825000D01*
X176572000Y-123983750D01*
X176568928Y-124398000D01*
X131025000Y-124398000D01*
X131025000Y-124313740D01*
X130967932Y-124026842D01*
X130855990Y-123756589D01*
X130693475Y-123513368D01*
X130486632Y-123306525D01*
X130375000Y-123231935D01*
X130375000Y-123148065D01*
X130486632Y-123073475D01*
X130693475Y-122866632D01*
X130700873Y-122855560D01*
X133864045Y-122855560D01*
X133925932Y-123091368D01*
X134167790Y-123204266D01*
X134427027Y-123267811D01*
X134693680Y-123279561D01*
X134957501Y-123239063D01*
X135208353Y-123147875D01*
X135314068Y-123091368D01*
X135375955Y-122855560D01*
X134620000Y-122099605D01*
X133864045Y-122855560D01*
X130700873Y-122855560D01*
X130855990Y-122623411D01*
X130967932Y-122353158D01*
X131025000Y-122066260D01*
X131025000Y-121993680D01*
X133260439Y-121993680D01*
X133300937Y-122257501D01*
X133392125Y-122508353D01*
X133448632Y-122614068D01*
X133684440Y-122675955D01*
X134440395Y-121920000D01*
X134799605Y-121920000D01*
X135555560Y-122675955D01*
X135791368Y-122614068D01*
X135904266Y-122372210D01*
X135967811Y-122112973D01*
X135979561Y-121846320D01*
X135939063Y-121582499D01*
X135847875Y-121331647D01*
X135791368Y-121225932D01*
X135555560Y-121164045D01*
X134799605Y-121920000D01*
X134440395Y-121920000D01*
X133684440Y-121164045D01*
X133448632Y-121225932D01*
X133335734Y-121467790D01*
X133272189Y-121727027D01*
X133260439Y-121993680D01*
X131025000Y-121993680D01*
X131025000Y-121773740D01*
X130998807Y-121642060D01*
X133265000Y-119375868D01*
X133265000Y-119513456D01*
X133317072Y-119775239D01*
X133419215Y-120021833D01*
X133567503Y-120243762D01*
X133756238Y-120432497D01*
X133978167Y-120580785D01*
X134146324Y-120650438D01*
X134031647Y-120692125D01*
X133925932Y-120748632D01*
X133864045Y-120984440D01*
X134620000Y-121740395D01*
X135375955Y-120984440D01*
X135314068Y-120748632D01*
X135098993Y-120648236D01*
X135261833Y-120580785D01*
X135483762Y-120432497D01*
X135672497Y-120243762D01*
X135820785Y-120021833D01*
X135922928Y-119775239D01*
X135975000Y-119513456D01*
X135975000Y-119246544D01*
X135968251Y-119212616D01*
X138267187Y-116913680D01*
X139610439Y-116913680D01*
X139650937Y-117177501D01*
X139742125Y-117428353D01*
X139798632Y-117534068D01*
X140034440Y-117595955D01*
X140790395Y-116840000D01*
X140034440Y-116084045D01*
X139798632Y-116145932D01*
X139685734Y-116387790D01*
X139622189Y-116647027D01*
X139610439Y-116913680D01*
X138267187Y-116913680D01*
X139276427Y-115904440D01*
X140214045Y-115904440D01*
X140970000Y-116660395D01*
X141725955Y-115904440D01*
X141664068Y-115668632D01*
X141422210Y-115555734D01*
X141162973Y-115492189D01*
X140896320Y-115480439D01*
X140632499Y-115520937D01*
X140381647Y-115612125D01*
X140275932Y-115668632D01*
X140214045Y-115904440D01*
X139276427Y-115904440D01*
X143365869Y-111815000D01*
X147354132Y-111815000D01*
X142326184Y-116842948D01*
X142329561Y-116766320D01*
X142289063Y-116502499D01*
X142197875Y-116251647D01*
X142141368Y-116145932D01*
X141905560Y-116084045D01*
X141149605Y-116840000D01*
X141163748Y-116854143D01*
X140984143Y-117033748D01*
X140970000Y-117019605D01*
X140214045Y-117775560D01*
X140275932Y-118011368D01*
X140491007Y-118111764D01*
X140328167Y-118179215D01*
X140106238Y-118327503D01*
X139917503Y-118516238D01*
X139769215Y-118738167D01*
X139667072Y-118984761D01*
X139615000Y-119246544D01*
X139615000Y-119513456D01*
X139667072Y-119775239D01*
X139769215Y-120021833D01*
X139917503Y-120243762D01*
X140106238Y-120432497D01*
X140328167Y-120580785D01*
X140495266Y-120650000D01*
X140328167Y-120719215D01*
X140106238Y-120867503D01*
X139917503Y-121056238D01*
X139769215Y-121278167D01*
X139667072Y-121524761D01*
X139615000Y-121786544D01*
X139615000Y-122053456D01*
X139667072Y-122315239D01*
X139769215Y-122561833D01*
X139917503Y-122783762D01*
X140106238Y-122972497D01*
X140328167Y-123120785D01*
X140574761Y-123222928D01*
X140836544Y-123275000D01*
X141103456Y-123275000D01*
X141365239Y-123222928D01*
X141611833Y-123120785D01*
X141833762Y-122972497D01*
X142022497Y-122783762D01*
X142170785Y-122561833D01*
X142272928Y-122315239D01*
X142325000Y-122053456D01*
X142325000Y-121786544D01*
X142272928Y-121524761D01*
X142170785Y-121278167D01*
X142022497Y-121056238D01*
X141833762Y-120867503D01*
X141611833Y-120719215D01*
X141444734Y-120650000D01*
X141611833Y-120580785D01*
X141833762Y-120432497D01*
X142022497Y-120243762D01*
X142170785Y-120021833D01*
X142272928Y-119775239D01*
X142325000Y-119513456D01*
X142325000Y-119246544D01*
X142318251Y-119212616D01*
X148640878Y-112889990D01*
X150426928Y-112889990D01*
X150426928Y-113355001D01*
X150443992Y-113528255D01*
X150494528Y-113694851D01*
X150576595Y-113848387D01*
X150687038Y-113982962D01*
X150821613Y-114093405D01*
X150975149Y-114175472D01*
X151141745Y-114226008D01*
X151314999Y-114243072D01*
X152215001Y-114243072D01*
X152388255Y-114226008D01*
X152554851Y-114175472D01*
X152708387Y-114093405D01*
X152842962Y-113982962D01*
X152939771Y-113865000D01*
X153384229Y-113865000D01*
X153481038Y-113982962D01*
X153615613Y-114093405D01*
X153769149Y-114175472D01*
X153935745Y-114226008D01*
X154108999Y-114243072D01*
X155009001Y-114243072D01*
X155182255Y-114226008D01*
X155348851Y-114175472D01*
X155502387Y-114093405D01*
X155636962Y-113982962D01*
X155733771Y-113865000D01*
X156178229Y-113865000D01*
X156275038Y-113982962D01*
X156409613Y-114093405D01*
X156563149Y-114175472D01*
X156729745Y-114226008D01*
X156902999Y-114243072D01*
X157803001Y-114243072D01*
X157976255Y-114226008D01*
X158142851Y-114175472D01*
X158296387Y-114093405D01*
X158430962Y-113982962D01*
X158527771Y-113865000D01*
X158957854Y-113865000D01*
X158958595Y-113866387D01*
X159069038Y-114000962D01*
X159111553Y-114035853D01*
X158956102Y-114066774D01*
X158767744Y-114144795D01*
X158598226Y-114258063D01*
X158454063Y-114402226D01*
X158340795Y-114571744D01*
X158262774Y-114760102D01*
X158233908Y-114905224D01*
X157134133Y-116005000D01*
X148391715Y-116005000D01*
X148372497Y-115976238D01*
X148183762Y-115787503D01*
X147961833Y-115639215D01*
X147715239Y-115537072D01*
X147453456Y-115485000D01*
X147186544Y-115485000D01*
X146924761Y-115537072D01*
X146678167Y-115639215D01*
X146456238Y-115787503D01*
X146267503Y-115976238D01*
X146119215Y-116198167D01*
X146017072Y-116444761D01*
X145965000Y-116706544D01*
X145965000Y-116973456D01*
X146017072Y-117235239D01*
X146119215Y-117481833D01*
X146267503Y-117703762D01*
X146456238Y-117892497D01*
X146678167Y-118040785D01*
X146845266Y-118110000D01*
X146678167Y-118179215D01*
X146456238Y-118327503D01*
X146267503Y-118516238D01*
X146119215Y-118738167D01*
X146017072Y-118984761D01*
X145965000Y-119246544D01*
X145965000Y-119513456D01*
X146017072Y-119775239D01*
X146119215Y-120021833D01*
X146267503Y-120243762D01*
X146456238Y-120432497D01*
X146485000Y-120451715D01*
X146485001Y-120848284D01*
X146456238Y-120867503D01*
X146267503Y-121056238D01*
X146119215Y-121278167D01*
X146017072Y-121524761D01*
X145965000Y-121786544D01*
X145965000Y-122053456D01*
X146017072Y-122315239D01*
X146119215Y-122561833D01*
X146267503Y-122783762D01*
X146456238Y-122972497D01*
X146678167Y-123120785D01*
X146924761Y-123222928D01*
X147186544Y-123275000D01*
X147453456Y-123275000D01*
X147715239Y-123222928D01*
X147961833Y-123120785D01*
X148145594Y-122998000D01*
X176568928Y-122998000D01*
X176572000Y-123412250D01*
X176730750Y-123571000D01*
X177655000Y-123571000D01*
X177655000Y-122521750D01*
X177496250Y-122363000D01*
X177207000Y-122359928D01*
X177082518Y-122372188D01*
X176962820Y-122408498D01*
X176852506Y-122467463D01*
X176755815Y-122546815D01*
X176676463Y-122643506D01*
X176617498Y-122753820D01*
X176581188Y-122873518D01*
X176568928Y-122998000D01*
X148145594Y-122998000D01*
X148183762Y-122972497D01*
X148372497Y-122783762D01*
X148520785Y-122561833D01*
X148622928Y-122315239D01*
X148675000Y-122053456D01*
X148675000Y-121786544D01*
X148622928Y-121524761D01*
X148520785Y-121278167D01*
X148372497Y-121056238D01*
X148183762Y-120867503D01*
X148155000Y-120848285D01*
X148155000Y-120451715D01*
X148183762Y-120432497D01*
X148372497Y-120243762D01*
X148520785Y-120021833D01*
X148622928Y-119775239D01*
X148675000Y-119513456D01*
X148675000Y-119246544D01*
X148622928Y-118984761D01*
X148520785Y-118738167D01*
X148372497Y-118516238D01*
X148183762Y-118327503D01*
X147961833Y-118179215D01*
X147794734Y-118110000D01*
X147961833Y-118040785D01*
X148183762Y-117892497D01*
X148372497Y-117703762D01*
X148391715Y-117675000D01*
X157438982Y-117675000D01*
X157480000Y-117679040D01*
X157521018Y-117675000D01*
X157521019Y-117675000D01*
X157643689Y-117662918D01*
X157801087Y-117615172D01*
X157946146Y-117537636D01*
X158073291Y-117433291D01*
X158099446Y-117401421D01*
X159414776Y-116086092D01*
X159559898Y-116057226D01*
X159748256Y-115979205D01*
X159917774Y-115865937D01*
X160061937Y-115721774D01*
X160175205Y-115552256D01*
X160253226Y-115363898D01*
X160293000Y-115163939D01*
X160293000Y-114960061D01*
X160253226Y-114760102D01*
X160175205Y-114571744D01*
X160061937Y-114402226D01*
X159920783Y-114261072D01*
X160597001Y-114261072D01*
X160770255Y-114244008D01*
X160936851Y-114193472D01*
X161090387Y-114111405D01*
X161224962Y-114000962D01*
X161238823Y-113984073D01*
X161300750Y-114046000D01*
X162625000Y-114046000D01*
X162625000Y-114026000D01*
X162879000Y-114026000D01*
X162879000Y-114046000D01*
X164203250Y-114046000D01*
X164362000Y-113887250D01*
X164365072Y-113873000D01*
X164352812Y-113748518D01*
X164316502Y-113628820D01*
X164257537Y-113518506D01*
X164233270Y-113488936D01*
X164305084Y-113354582D01*
X164349929Y-113206745D01*
X164365072Y-113053000D01*
X164365072Y-112753000D01*
X164349929Y-112599255D01*
X164305084Y-112451418D01*
X164232258Y-112315171D01*
X164193546Y-112268000D01*
X164232258Y-112220829D01*
X164305084Y-112084582D01*
X164349929Y-111936745D01*
X164365072Y-111783000D01*
X164365072Y-111483000D01*
X164349929Y-111329255D01*
X164305084Y-111181418D01*
X164232258Y-111045171D01*
X164134251Y-110925749D01*
X164014829Y-110827742D01*
X163878582Y-110754916D01*
X163730745Y-110710071D01*
X163577000Y-110694928D01*
X162728182Y-110694928D01*
X162793226Y-110537898D01*
X162833000Y-110337939D01*
X162833000Y-110134061D01*
X162793226Y-109934102D01*
X162715205Y-109745744D01*
X162601937Y-109576226D01*
X162457774Y-109432063D01*
X162288256Y-109318795D01*
X162099898Y-109240774D01*
X161899939Y-109201000D01*
X161696061Y-109201000D01*
X161496102Y-109240774D01*
X161307744Y-109318795D01*
X161138226Y-109432063D01*
X160994063Y-109576226D01*
X160880795Y-109745744D01*
X160847758Y-109825502D01*
X160770255Y-109801992D01*
X160597001Y-109784928D01*
X159696999Y-109784928D01*
X159523745Y-109801992D01*
X159357149Y-109852528D01*
X159203613Y-109934595D01*
X159069038Y-110045038D01*
X158972229Y-110163000D01*
X158542146Y-110163000D01*
X158541405Y-110161613D01*
X158430962Y-110027038D01*
X158296387Y-109916595D01*
X158142851Y-109834528D01*
X157976255Y-109783992D01*
X157803001Y-109766928D01*
X156902999Y-109766928D01*
X156729745Y-109783992D01*
X156563149Y-109834528D01*
X156409613Y-109916595D01*
X156275038Y-110027038D01*
X156164595Y-110161613D01*
X156082528Y-110315149D01*
X156031992Y-110481745D01*
X156014928Y-110654999D01*
X156014928Y-111305001D01*
X156031992Y-111478255D01*
X156082528Y-111644851D01*
X156164595Y-111798387D01*
X156275038Y-111932962D01*
X156362816Y-112005000D01*
X156275038Y-112077038D01*
X156178229Y-112195000D01*
X155733771Y-112195000D01*
X155636962Y-112077038D01*
X155549184Y-112005000D01*
X155636962Y-111932962D01*
X155747405Y-111798387D01*
X155829472Y-111644851D01*
X155880008Y-111478255D01*
X155897072Y-111305001D01*
X155897072Y-110654999D01*
X155880008Y-110481745D01*
X155829472Y-110315149D01*
X155747405Y-110161613D01*
X155636962Y-110027038D01*
X155502387Y-109916595D01*
X155348851Y-109834528D01*
X155182255Y-109783992D01*
X155009001Y-109766928D01*
X154108999Y-109766928D01*
X153935745Y-109783992D01*
X153769149Y-109834528D01*
X153615613Y-109916595D01*
X153481038Y-110027038D01*
X153370595Y-110161613D01*
X153288528Y-110315149D01*
X153237992Y-110481745D01*
X153220928Y-110654999D01*
X153220928Y-111137205D01*
X153138143Y-111219990D01*
X153103072Y-111219990D01*
X153103072Y-110654999D01*
X153086008Y-110481745D01*
X153035472Y-110315149D01*
X152953405Y-110161613D01*
X152842962Y-110027038D01*
X152708387Y-109916595D01*
X152554851Y-109834528D01*
X152388255Y-109783992D01*
X152215001Y-109766928D01*
X151314999Y-109766928D01*
X151141745Y-109783992D01*
X150975149Y-109834528D01*
X150821613Y-109916595D01*
X150687038Y-110027038D01*
X150590229Y-110145000D01*
X143061018Y-110145000D01*
X143020000Y-110140960D01*
X142856311Y-110157082D01*
X142698913Y-110204828D01*
X142553854Y-110282364D01*
X142486136Y-110337939D01*
X142426709Y-110386709D01*
X142400563Y-110418568D01*
X135975000Y-116844133D01*
X135975000Y-116706544D01*
X135922928Y-116444761D01*
X135820785Y-116198167D01*
X135672497Y-115976238D01*
X135483762Y-115787503D01*
X135261833Y-115639215D01*
X135015239Y-115537072D01*
X134753456Y-115485000D01*
X134486544Y-115485000D01*
X134224761Y-115537072D01*
X133978167Y-115639215D01*
X133756238Y-115787503D01*
X133567503Y-115976238D01*
X133419215Y-116198167D01*
X133317072Y-116444761D01*
X133265000Y-116706544D01*
X133265000Y-116973456D01*
X133271748Y-117007383D01*
X131025000Y-119254132D01*
X131025000Y-119252998D01*
X130860156Y-119252998D01*
X130981476Y-119023110D01*
X130936825Y-118875901D01*
X130811641Y-118613080D01*
X130637588Y-118379731D01*
X130553534Y-118303966D01*
X130634180Y-118279502D01*
X130744494Y-118220537D01*
X130841185Y-118141185D01*
X130920537Y-118044494D01*
X130979502Y-117934180D01*
X131015812Y-117814482D01*
X131028072Y-117690000D01*
X131025000Y-117125750D01*
X130866250Y-116967000D01*
X129667000Y-116967000D01*
X129667000Y-119253000D01*
X129687000Y-119253000D01*
X129687000Y-119507000D01*
X129667000Y-119507000D01*
X129667000Y-119527000D01*
X129413000Y-119527000D01*
X129413000Y-119507000D01*
X128219845Y-119507000D01*
X128098524Y-119736890D01*
X128143175Y-119884099D01*
X128268359Y-120146920D01*
X128442412Y-120380269D01*
X128658645Y-120575178D01*
X128775534Y-120644805D01*
X128593368Y-120766525D01*
X128386525Y-120973368D01*
X128224010Y-121216589D01*
X128112068Y-121486842D01*
X128055000Y-121773740D01*
X127660000Y-121773740D01*
X127660000Y-117690000D01*
X128051928Y-117690000D01*
X128064188Y-117814482D01*
X128100498Y-117934180D01*
X128159463Y-118044494D01*
X128238815Y-118141185D01*
X128335506Y-118220537D01*
X128445820Y-118279502D01*
X128526466Y-118303966D01*
X128442412Y-118379731D01*
X128268359Y-118613080D01*
X128143175Y-118875901D01*
X128098524Y-119023110D01*
X128219845Y-119253000D01*
X129413000Y-119253000D01*
X129413000Y-116967000D01*
X128213750Y-116967000D01*
X128055000Y-117125750D01*
X128051928Y-117690000D01*
X127660000Y-117690000D01*
X127660000Y-115990000D01*
X128051928Y-115990000D01*
X128055000Y-116554250D01*
X128213750Y-116713000D01*
X129413000Y-116713000D01*
X129413000Y-115513750D01*
X129667000Y-115513750D01*
X129667000Y-116713000D01*
X130866250Y-116713000D01*
X131025000Y-116554250D01*
X131028072Y-115990000D01*
X131015812Y-115865518D01*
X130979502Y-115745820D01*
X130920537Y-115635506D01*
X130841185Y-115538815D01*
X130744494Y-115459463D01*
X130634180Y-115400498D01*
X130514482Y-115364188D01*
X130390000Y-115351928D01*
X129825750Y-115355000D01*
X129667000Y-115513750D01*
X129413000Y-115513750D01*
X129254250Y-115355000D01*
X128690000Y-115351928D01*
X128565518Y-115364188D01*
X128445820Y-115400498D01*
X128335506Y-115459463D01*
X128238815Y-115538815D01*
X128159463Y-115635506D01*
X128100498Y-115745820D01*
X128064188Y-115865518D01*
X128051928Y-115990000D01*
X127660000Y-115990000D01*
X127660000Y-79590000D01*
X128051928Y-79590000D01*
X128064188Y-79714482D01*
X128100498Y-79834180D01*
X128159463Y-79944494D01*
X128238815Y-80041185D01*
X128335506Y-80120537D01*
X128445820Y-80179502D01*
X128526466Y-80203966D01*
X128442412Y-80279731D01*
X128268359Y-80513080D01*
X128143175Y-80775901D01*
X128098524Y-80923110D01*
X128219845Y-81153000D01*
X129413000Y-81153000D01*
X129413000Y-78867000D01*
X129667000Y-78867000D01*
X129667000Y-81153000D01*
X130860155Y-81153000D01*
X130981476Y-80923110D01*
X130936825Y-80775901D01*
X130811641Y-80513080D01*
X130637588Y-80279731D01*
X130553534Y-80203966D01*
X130634180Y-80179502D01*
X130744494Y-80120537D01*
X130841185Y-80041185D01*
X130920537Y-79944494D01*
X130979502Y-79834180D01*
X131015812Y-79714482D01*
X131028072Y-79590000D01*
X131025000Y-79025750D01*
X130866250Y-78867000D01*
X129667000Y-78867000D01*
X129413000Y-78867000D01*
X128213750Y-78867000D01*
X128055000Y-79025750D01*
X128051928Y-79590000D01*
X127660000Y-79590000D01*
X127660000Y-77890000D01*
X128051928Y-77890000D01*
X128055000Y-78454250D01*
X128213750Y-78613000D01*
X129413000Y-78613000D01*
X129413000Y-77413750D01*
X129667000Y-77413750D01*
X129667000Y-78613000D01*
X130866250Y-78613000D01*
X131025000Y-78454250D01*
X131028072Y-77890000D01*
X131015812Y-77765518D01*
X130979502Y-77645820D01*
X130920537Y-77535506D01*
X130841185Y-77438815D01*
X130744494Y-77359463D01*
X130634180Y-77300498D01*
X130514482Y-77264188D01*
X130390000Y-77251928D01*
X129825750Y-77255000D01*
X129667000Y-77413750D01*
X129413000Y-77413750D01*
X129254250Y-77255000D01*
X128690000Y-77251928D01*
X128565518Y-77264188D01*
X128445820Y-77300498D01*
X128335506Y-77359463D01*
X128238815Y-77438815D01*
X128159463Y-77535506D01*
X128100498Y-77645820D01*
X128064188Y-77765518D01*
X128051928Y-77890000D01*
X127660000Y-77890000D01*
X127660000Y-76860000D01*
X146052876Y-76860000D01*
X145257564Y-77655313D01*
G36*
X146993001Y-86970069D02*
G01*
X146913241Y-87023363D01*
X146713363Y-87223241D01*
X146556320Y-87458273D01*
X146448147Y-87719426D01*
X146393000Y-87996665D01*
X146393000Y-88279335D01*
X146448147Y-88556574D01*
X146556320Y-88817727D01*
X146713363Y-89052759D01*
X146913241Y-89252637D01*
X147148273Y-89409680D01*
X147409426Y-89517853D01*
X147686665Y-89573000D01*
X147969335Y-89573000D01*
X148246574Y-89517853D01*
X148507727Y-89409680D01*
X148742759Y-89252637D01*
X148942637Y-89052759D01*
X149098000Y-88820241D01*
X149253363Y-89052759D01*
X149453241Y-89252637D01*
X149688273Y-89409680D01*
X149949426Y-89517853D01*
X150226665Y-89573000D01*
X150509335Y-89573000D01*
X150786574Y-89517853D01*
X151047727Y-89409680D01*
X151282759Y-89252637D01*
X151482637Y-89052759D01*
X151638000Y-88820241D01*
X151793363Y-89052759D01*
X151993241Y-89252637D01*
X152228273Y-89409680D01*
X152489426Y-89517853D01*
X152766665Y-89573000D01*
X153049335Y-89573000D01*
X153326574Y-89517853D01*
X153587727Y-89409680D01*
X153615206Y-89391319D01*
X153616578Y-89392445D01*
X154447563Y-90223432D01*
X154473709Y-90255291D01*
X154505568Y-90281437D01*
X154505570Y-90281439D01*
X154600854Y-90359636D01*
X154745913Y-90437172D01*
X154903311Y-90484918D01*
X155067000Y-90501040D01*
X155108018Y-90497000D01*
X158150133Y-90497000D01*
X161376130Y-93722999D01*
X154913006Y-93722999D01*
X154871998Y-93718960D01*
X154830990Y-93722999D01*
X154830980Y-93722999D01*
X154708310Y-93735081D01*
X154550912Y-93782827D01*
X154405853Y-93860363D01*
X154278708Y-93964708D01*
X154252557Y-93996573D01*
X153689496Y-94559635D01*
X153645420Y-94526963D01*
X153391087Y-94406754D01*
X153257039Y-94366096D01*
X153035000Y-94488085D01*
X153035000Y-95631000D01*
X153055000Y-95631000D01*
X153055000Y-95885000D01*
X153035000Y-95885000D01*
X153035000Y-95905000D01*
X152781000Y-95905000D01*
X152781000Y-95885000D01*
X152761000Y-95885000D01*
X152761000Y-95631000D01*
X152781000Y-95631000D01*
X152781000Y-94488085D01*
X152558961Y-94366096D01*
X152424913Y-94406754D01*
X152170580Y-94526963D01*
X151944586Y-94694481D01*
X151755615Y-94902869D01*
X151644067Y-95088865D01*
X151639680Y-95078273D01*
X151482637Y-94843241D01*
X151282759Y-94643363D01*
X151047727Y-94486320D01*
X150786574Y-94378147D01*
X150509335Y-94323000D01*
X150226665Y-94323000D01*
X149949426Y-94378147D01*
X149688273Y-94486320D01*
X149453241Y-94643363D01*
X149254643Y-94841961D01*
X149253812Y-94833518D01*
X149217502Y-94713820D01*
X149158537Y-94603506D01*
X149079185Y-94506815D01*
X148982494Y-94427463D01*
X148872180Y-94368498D01*
X148752482Y-94332188D01*
X148628000Y-94319928D01*
X147028000Y-94319928D01*
X146903518Y-94332188D01*
X146783820Y-94368498D01*
X146673506Y-94427463D01*
X146576815Y-94506815D01*
X146497463Y-94603506D01*
X146438498Y-94713820D01*
X146402188Y-94833518D01*
X146389928Y-94958000D01*
X146389928Y-96015205D01*
X146232578Y-96172555D01*
X146200709Y-96198709D01*
X146122629Y-96293851D01*
X146096364Y-96325855D01*
X146018828Y-96470914D01*
X145971082Y-96628312D01*
X145954960Y-96792000D01*
X145959000Y-96833019D01*
X145959000Y-97123229D01*
X145841038Y-97220038D01*
X145730595Y-97354613D01*
X145672661Y-97463000D01*
X145393339Y-97463000D01*
X145335405Y-97354613D01*
X145224962Y-97220038D01*
X145090387Y-97109595D01*
X144936851Y-97027528D01*
X144770255Y-96976992D01*
X144597001Y-96959928D01*
X144032010Y-96959928D01*
X144032010Y-89549857D01*
X146645797Y-86936072D01*
X146993001Y-86936072D01*
X146993001Y-86970069D01*
G37*
X146993001Y-86970069D02*
X146913241Y-87023363D01*
X146713363Y-87223241D01*
X146556320Y-87458273D01*
X146448147Y-87719426D01*
X146393000Y-87996665D01*
X146393000Y-88279335D01*
X146448147Y-88556574D01*
X146556320Y-88817727D01*
X146713363Y-89052759D01*
X146913241Y-89252637D01*
X147148273Y-89409680D01*
X147409426Y-89517853D01*
X147686665Y-89573000D01*
X147969335Y-89573000D01*
X148246574Y-89517853D01*
X148507727Y-89409680D01*
X148742759Y-89252637D01*
X148942637Y-89052759D01*
X149098000Y-88820241D01*
X149253363Y-89052759D01*
X149453241Y-89252637D01*
X149688273Y-89409680D01*
X149949426Y-89517853D01*
X150226665Y-89573000D01*
X150509335Y-89573000D01*
X150786574Y-89517853D01*
X151047727Y-89409680D01*
X151282759Y-89252637D01*
X151482637Y-89052759D01*
X151638000Y-88820241D01*
X151793363Y-89052759D01*
X151993241Y-89252637D01*
X152228273Y-89409680D01*
X152489426Y-89517853D01*
X152766665Y-89573000D01*
X153049335Y-89573000D01*
X153326574Y-89517853D01*
X153587727Y-89409680D01*
X153615206Y-89391319D01*
X153616578Y-89392445D01*
X154447563Y-90223432D01*
X154473709Y-90255291D01*
X154505568Y-90281437D01*
X154505570Y-90281439D01*
X154600854Y-90359636D01*
X154745913Y-90437172D01*
X154903311Y-90484918D01*
X155067000Y-90501040D01*
X155108018Y-90497000D01*
X158150133Y-90497000D01*
X161376130Y-93722999D01*
X154913006Y-93722999D01*
X154871998Y-93718960D01*
X154830990Y-93722999D01*
X154830980Y-93722999D01*
X154708310Y-93735081D01*
X154550912Y-93782827D01*
X154405853Y-93860363D01*
X154278708Y-93964708D01*
X154252557Y-93996573D01*
X153689496Y-94559635D01*
X153645420Y-94526963D01*
X153391087Y-94406754D01*
X153257039Y-94366096D01*
X153035000Y-94488085D01*
X153035000Y-95631000D01*
X153055000Y-95631000D01*
X153055000Y-95885000D01*
X153035000Y-95885000D01*
X153035000Y-95905000D01*
X152781000Y-95905000D01*
X152781000Y-95885000D01*
X152761000Y-95885000D01*
X152761000Y-95631000D01*
X152781000Y-95631000D01*
X152781000Y-94488085D01*
X152558961Y-94366096D01*
X152424913Y-94406754D01*
X152170580Y-94526963D01*
X151944586Y-94694481D01*
X151755615Y-94902869D01*
X151644067Y-95088865D01*
X151639680Y-95078273D01*
X151482637Y-94843241D01*
X151282759Y-94643363D01*
X151047727Y-94486320D01*
X150786574Y-94378147D01*
X150509335Y-94323000D01*
X150226665Y-94323000D01*
X149949426Y-94378147D01*
X149688273Y-94486320D01*
X149453241Y-94643363D01*
X149254643Y-94841961D01*
X149253812Y-94833518D01*
X149217502Y-94713820D01*
X149158537Y-94603506D01*
X149079185Y-94506815D01*
X148982494Y-94427463D01*
X148872180Y-94368498D01*
X148752482Y-94332188D01*
X148628000Y-94319928D01*
X147028000Y-94319928D01*
X146903518Y-94332188D01*
X146783820Y-94368498D01*
X146673506Y-94427463D01*
X146576815Y-94506815D01*
X146497463Y-94603506D01*
X146438498Y-94713820D01*
X146402188Y-94833518D01*
X146389928Y-94958000D01*
X146389928Y-96015205D01*
X146232578Y-96172555D01*
X146200709Y-96198709D01*
X146122629Y-96293851D01*
X146096364Y-96325855D01*
X146018828Y-96470914D01*
X145971082Y-96628312D01*
X145954960Y-96792000D01*
X145959000Y-96833019D01*
X145959000Y-97123229D01*
X145841038Y-97220038D01*
X145730595Y-97354613D01*
X145672661Y-97463000D01*
X145393339Y-97463000D01*
X145335405Y-97354613D01*
X145224962Y-97220038D01*
X145090387Y-97109595D01*
X144936851Y-97027528D01*
X144770255Y-96976992D01*
X144597001Y-96959928D01*
X144032010Y-96959928D01*
X144032010Y-89549857D01*
X146645797Y-86936072D01*
X146993001Y-86936072D01*
X146993001Y-86970069D01*
M02*
