G04 #@! TF.GenerationSoftware,KiCad,Pcbnew,5.1.6-c6e7f7d~87~ubuntu18.04.1*
G04 #@! TF.CreationDate,2020-08-01T21:00:35-04:00*
G04 #@! TF.ProjectId,CEM3320_LPF_plug_in_board,43454d33-3332-4305-9f4c-50465f706c75,1*
G04 #@! TF.SameCoordinates,Original*
G04 #@! TF.FileFunction,Legend,Bot*
G04 #@! TF.FilePolarity,Positive*
%FSLAX46Y46*%
G04 Gerber Fmt 4.6, Leading zero omitted, Abs format (unit mm)*
G04 Created by KiCad (PCBNEW 5.1.6-c6e7f7d~87~ubuntu18.04.1) date 2020-08-01 21:00:35*
%MOMM*%
%LPD*%
G01*
G04 APERTURE LIST*
%ADD10C,0.150000*%
%ADD11C,0.120000*%
G04 APERTURE END LIST*
D10*
X176384976Y-78336142D02*
X176432595Y-78383761D01*
X176575452Y-78431380D01*
X176670690Y-78431380D01*
X176813547Y-78383761D01*
X176908785Y-78288523D01*
X176956404Y-78193285D01*
X177004023Y-78002809D01*
X177004023Y-77859952D01*
X176956404Y-77669476D01*
X176908785Y-77574238D01*
X176813547Y-77479000D01*
X176670690Y-77431380D01*
X176575452Y-77431380D01*
X176432595Y-77479000D01*
X176384976Y-77526619D01*
X175956404Y-77907571D02*
X175623071Y-77907571D01*
X175480214Y-78431380D02*
X175956404Y-78431380D01*
X175956404Y-77431380D01*
X175480214Y-77431380D01*
X175051642Y-78431380D02*
X175051642Y-77431380D01*
X174718309Y-78145666D01*
X174384976Y-77431380D01*
X174384976Y-78431380D01*
X174004023Y-77431380D02*
X173384976Y-77431380D01*
X173718309Y-77812333D01*
X173575452Y-77812333D01*
X173480214Y-77859952D01*
X173432595Y-77907571D01*
X173384976Y-78002809D01*
X173384976Y-78240904D01*
X173432595Y-78336142D01*
X173480214Y-78383761D01*
X173575452Y-78431380D01*
X173861166Y-78431380D01*
X173956404Y-78383761D01*
X174004023Y-78336142D01*
X173051642Y-77431380D02*
X172432595Y-77431380D01*
X172765928Y-77812333D01*
X172623071Y-77812333D01*
X172527833Y-77859952D01*
X172480214Y-77907571D01*
X172432595Y-78002809D01*
X172432595Y-78240904D01*
X172480214Y-78336142D01*
X172527833Y-78383761D01*
X172623071Y-78431380D01*
X172908785Y-78431380D01*
X173004023Y-78383761D01*
X173051642Y-78336142D01*
X172051642Y-77526619D02*
X172004023Y-77479000D01*
X171908785Y-77431380D01*
X171670690Y-77431380D01*
X171575452Y-77479000D01*
X171527833Y-77526619D01*
X171480214Y-77621857D01*
X171480214Y-77717095D01*
X171527833Y-77859952D01*
X172099261Y-78431380D01*
X171480214Y-78431380D01*
X170861166Y-77431380D02*
X170765928Y-77431380D01*
X170670690Y-77479000D01*
X170623071Y-77526619D01*
X170575452Y-77621857D01*
X170527833Y-77812333D01*
X170527833Y-78050428D01*
X170575452Y-78240904D01*
X170623071Y-78336142D01*
X170670690Y-78383761D01*
X170765928Y-78431380D01*
X170861166Y-78431380D01*
X170956404Y-78383761D01*
X171004023Y-78336142D01*
X171051642Y-78240904D01*
X171099261Y-78050428D01*
X171099261Y-77812333D01*
X171051642Y-77621857D01*
X171004023Y-77526619D01*
X170956404Y-77479000D01*
X170861166Y-77431380D01*
X170337357Y-78526619D02*
X169575452Y-78526619D01*
X168861166Y-78431380D02*
X169337357Y-78431380D01*
X169337357Y-77431380D01*
X168527833Y-78431380D02*
X168527833Y-77431380D01*
X168146880Y-77431380D01*
X168051642Y-77479000D01*
X168004023Y-77526619D01*
X167956404Y-77621857D01*
X167956404Y-77764714D01*
X168004023Y-77859952D01*
X168051642Y-77907571D01*
X168146880Y-77955190D01*
X168527833Y-77955190D01*
X167194500Y-77907571D02*
X167527833Y-77907571D01*
X167527833Y-78431380D02*
X167527833Y-77431380D01*
X167051642Y-77431380D01*
X166908785Y-78526619D02*
X166146880Y-78526619D01*
X165908785Y-77764714D02*
X165908785Y-78764714D01*
X165908785Y-77812333D02*
X165813547Y-77764714D01*
X165623071Y-77764714D01*
X165527833Y-77812333D01*
X165480214Y-77859952D01*
X165432595Y-77955190D01*
X165432595Y-78240904D01*
X165480214Y-78336142D01*
X165527833Y-78383761D01*
X165623071Y-78431380D01*
X165813547Y-78431380D01*
X165908785Y-78383761D01*
X164861166Y-78431380D02*
X164956404Y-78383761D01*
X165004023Y-78288523D01*
X165004023Y-77431380D01*
X164051642Y-77764714D02*
X164051642Y-78431380D01*
X164480214Y-77764714D02*
X164480214Y-78288523D01*
X164432595Y-78383761D01*
X164337357Y-78431380D01*
X164194500Y-78431380D01*
X164099261Y-78383761D01*
X164051642Y-78336142D01*
X163146880Y-77764714D02*
X163146880Y-78574238D01*
X163194500Y-78669476D01*
X163242119Y-78717095D01*
X163337357Y-78764714D01*
X163480214Y-78764714D01*
X163575452Y-78717095D01*
X163146880Y-78383761D02*
X163242119Y-78431380D01*
X163432595Y-78431380D01*
X163527833Y-78383761D01*
X163575452Y-78336142D01*
X163623071Y-78240904D01*
X163623071Y-77955190D01*
X163575452Y-77859952D01*
X163527833Y-77812333D01*
X163432595Y-77764714D01*
X163242119Y-77764714D01*
X163146880Y-77812333D01*
X162908785Y-78526619D02*
X162146880Y-78526619D01*
X161908785Y-78431380D02*
X161908785Y-77764714D01*
X161908785Y-77431380D02*
X161956404Y-77479000D01*
X161908785Y-77526619D01*
X161861166Y-77479000D01*
X161908785Y-77431380D01*
X161908785Y-77526619D01*
X161432595Y-77764714D02*
X161432595Y-78431380D01*
X161432595Y-77859952D02*
X161384976Y-77812333D01*
X161289738Y-77764714D01*
X161146880Y-77764714D01*
X161051642Y-77812333D01*
X161004023Y-77907571D01*
X161004023Y-78431380D01*
X160765928Y-78526619D02*
X160004023Y-78526619D01*
X159765928Y-78431380D02*
X159765928Y-77431380D01*
X159765928Y-77812333D02*
X159670690Y-77764714D01*
X159480214Y-77764714D01*
X159384976Y-77812333D01*
X159337357Y-77859952D01*
X159289738Y-77955190D01*
X159289738Y-78240904D01*
X159337357Y-78336142D01*
X159384976Y-78383761D01*
X159480214Y-78431380D01*
X159670690Y-78431380D01*
X159765928Y-78383761D01*
X158718309Y-78431380D02*
X158813547Y-78383761D01*
X158861166Y-78336142D01*
X158908785Y-78240904D01*
X158908785Y-77955190D01*
X158861166Y-77859952D01*
X158813547Y-77812333D01*
X158718309Y-77764714D01*
X158575452Y-77764714D01*
X158480214Y-77812333D01*
X158432595Y-77859952D01*
X158384976Y-77955190D01*
X158384976Y-78240904D01*
X158432595Y-78336142D01*
X158480214Y-78383761D01*
X158575452Y-78431380D01*
X158718309Y-78431380D01*
X157527833Y-78431380D02*
X157527833Y-77907571D01*
X157575452Y-77812333D01*
X157670690Y-77764714D01*
X157861166Y-77764714D01*
X157956404Y-77812333D01*
X157527833Y-78383761D02*
X157623071Y-78431380D01*
X157861166Y-78431380D01*
X157956404Y-78383761D01*
X158004023Y-78288523D01*
X158004023Y-78193285D01*
X157956404Y-78098047D01*
X157861166Y-78050428D01*
X157623071Y-78050428D01*
X157527833Y-78002809D01*
X157051642Y-78431380D02*
X157051642Y-77764714D01*
X157051642Y-77955190D02*
X157004023Y-77859952D01*
X156956404Y-77812333D01*
X156861166Y-77764714D01*
X156765928Y-77764714D01*
X156004023Y-78431380D02*
X156004023Y-77431380D01*
X156004023Y-78383761D02*
X156099261Y-78431380D01*
X156289738Y-78431380D01*
X156384976Y-78383761D01*
X156432595Y-78336142D01*
X156480214Y-78240904D01*
X156480214Y-77955190D01*
X156432595Y-77859952D01*
X156384976Y-77812333D01*
X156289738Y-77764714D01*
X156099261Y-77764714D01*
X156004023Y-77812333D01*
X176956404Y-80081380D02*
X176956404Y-79414714D01*
X176956404Y-79605190D02*
X176908785Y-79509952D01*
X176861166Y-79462333D01*
X176765928Y-79414714D01*
X176670690Y-79414714D01*
X175956404Y-80033761D02*
X176051642Y-80081380D01*
X176242119Y-80081380D01*
X176337357Y-80033761D01*
X176384976Y-79938523D01*
X176384976Y-79557571D01*
X176337357Y-79462333D01*
X176242119Y-79414714D01*
X176051642Y-79414714D01*
X175956404Y-79462333D01*
X175908785Y-79557571D01*
X175908785Y-79652809D01*
X176384976Y-79748047D01*
X175575452Y-79414714D02*
X175337357Y-80081380D01*
X175099261Y-79414714D01*
X174194500Y-80081380D02*
X174765928Y-80081380D01*
X174480214Y-80081380D02*
X174480214Y-79081380D01*
X174575452Y-79224238D01*
X174670690Y-79319476D01*
X174765928Y-79367095D01*
X173765928Y-79986142D02*
X173718309Y-80033761D01*
X173765928Y-80081380D01*
X173813547Y-80033761D01*
X173765928Y-79986142D01*
X173765928Y-80081380D01*
X172765928Y-80081380D02*
X173337357Y-80081380D01*
X173051642Y-80081380D02*
X173051642Y-79081380D01*
X173146880Y-79224238D01*
X173242119Y-79319476D01*
X173337357Y-79367095D01*
X177004023Y-80826619D02*
X176956404Y-80779000D01*
X176861166Y-80731380D01*
X176623071Y-80731380D01*
X176527833Y-80779000D01*
X176480214Y-80826619D01*
X176432595Y-80921857D01*
X176432595Y-81017095D01*
X176480214Y-81159952D01*
X177051642Y-81731380D01*
X176432595Y-81731380D01*
X175813547Y-80731380D02*
X175718309Y-80731380D01*
X175623071Y-80779000D01*
X175575452Y-80826619D01*
X175527833Y-80921857D01*
X175480214Y-81112333D01*
X175480214Y-81350428D01*
X175527833Y-81540904D01*
X175575452Y-81636142D01*
X175623071Y-81683761D01*
X175718309Y-81731380D01*
X175813547Y-81731380D01*
X175908785Y-81683761D01*
X175956404Y-81636142D01*
X176004023Y-81540904D01*
X176051642Y-81350428D01*
X176051642Y-81112333D01*
X176004023Y-80921857D01*
X175956404Y-80826619D01*
X175908785Y-80779000D01*
X175813547Y-80731380D01*
X174527833Y-81731380D02*
X175099261Y-81731380D01*
X174813547Y-81731380D02*
X174813547Y-80731380D01*
X174908785Y-80874238D01*
X175004023Y-80969476D01*
X175099261Y-81017095D01*
X174051642Y-81731380D02*
X173861166Y-81731380D01*
X173765928Y-81683761D01*
X173718309Y-81636142D01*
X173623071Y-81493285D01*
X173575452Y-81302809D01*
X173575452Y-80921857D01*
X173623071Y-80826619D01*
X173670690Y-80779000D01*
X173765928Y-80731380D01*
X173956404Y-80731380D01*
X174051642Y-80779000D01*
X174099261Y-80826619D01*
X174146880Y-80921857D01*
X174146880Y-81159952D01*
X174099261Y-81255190D01*
X174051642Y-81302809D01*
X173956404Y-81350428D01*
X173765928Y-81350428D01*
X173670690Y-81302809D01*
X173623071Y-81255190D01*
X173575452Y-81159952D01*
X173146880Y-81350428D02*
X172384976Y-81350428D01*
X171718309Y-80731380D02*
X171623071Y-80731380D01*
X171527833Y-80779000D01*
X171480214Y-80826619D01*
X171432595Y-80921857D01*
X171384976Y-81112333D01*
X171384976Y-81350428D01*
X171432595Y-81540904D01*
X171480214Y-81636142D01*
X171527833Y-81683761D01*
X171623071Y-81731380D01*
X171718309Y-81731380D01*
X171813547Y-81683761D01*
X171861166Y-81636142D01*
X171908785Y-81540904D01*
X171956404Y-81350428D01*
X171956404Y-81112333D01*
X171908785Y-80921857D01*
X171861166Y-80826619D01*
X171813547Y-80779000D01*
X171718309Y-80731380D01*
X170527833Y-80731380D02*
X170718309Y-80731380D01*
X170813547Y-80779000D01*
X170861166Y-80826619D01*
X170956404Y-80969476D01*
X171004023Y-81159952D01*
X171004023Y-81540904D01*
X170956404Y-81636142D01*
X170908785Y-81683761D01*
X170813547Y-81731380D01*
X170623071Y-81731380D01*
X170527833Y-81683761D01*
X170480214Y-81636142D01*
X170432595Y-81540904D01*
X170432595Y-81302809D01*
X170480214Y-81207571D01*
X170527833Y-81159952D01*
X170623071Y-81112333D01*
X170813547Y-81112333D01*
X170908785Y-81159952D01*
X170956404Y-81207571D01*
X171004023Y-81302809D01*
X170004023Y-81350428D02*
X169242119Y-81350428D01*
X168575452Y-80731380D02*
X168480214Y-80731380D01*
X168384976Y-80779000D01*
X168337357Y-80826619D01*
X168289738Y-80921857D01*
X168242119Y-81112333D01*
X168242119Y-81350428D01*
X168289738Y-81540904D01*
X168337357Y-81636142D01*
X168384976Y-81683761D01*
X168480214Y-81731380D01*
X168575452Y-81731380D01*
X168670690Y-81683761D01*
X168718309Y-81636142D01*
X168765928Y-81540904D01*
X168813547Y-81350428D01*
X168813547Y-81112333D01*
X168765928Y-80921857D01*
X168718309Y-80826619D01*
X168670690Y-80779000D01*
X168575452Y-80731380D01*
X167765928Y-81731380D02*
X167575452Y-81731380D01*
X167480214Y-81683761D01*
X167432595Y-81636142D01*
X167337357Y-81493285D01*
X167289738Y-81302809D01*
X167289738Y-80921857D01*
X167337357Y-80826619D01*
X167384976Y-80779000D01*
X167480214Y-80731380D01*
X167670690Y-80731380D01*
X167765928Y-80779000D01*
X167813547Y-80826619D01*
X167861166Y-80921857D01*
X167861166Y-81159952D01*
X167813547Y-81255190D01*
X167765928Y-81302809D01*
X167670690Y-81350428D01*
X167480214Y-81350428D01*
X167384976Y-81302809D01*
X167337357Y-81255190D01*
X167289738Y-81159952D01*
D11*
X184210000Y-105350000D02*
X182880000Y-105350000D01*
X184210000Y-106680000D02*
X184210000Y-105350000D01*
X184210000Y-107950000D02*
X181550000Y-107950000D01*
X181550000Y-107950000D02*
X181550000Y-125790000D01*
X184210000Y-107950000D02*
X184210000Y-125790000D01*
X184210000Y-125790000D02*
X181550000Y-125790000D01*
X184210000Y-77410000D02*
X182880000Y-77410000D01*
X184210000Y-78740000D02*
X184210000Y-77410000D01*
X184210000Y-80010000D02*
X181550000Y-80010000D01*
X181550000Y-80010000D02*
X181550000Y-87690000D01*
X184210000Y-80010000D02*
X184210000Y-87690000D01*
X184210000Y-87690000D02*
X181550000Y-87690000D01*
X130870000Y-77410000D02*
X129540000Y-77410000D01*
X130870000Y-78740000D02*
X130870000Y-77410000D01*
X130870000Y-80010000D02*
X128210000Y-80010000D01*
X128210000Y-80010000D02*
X128210000Y-87690000D01*
X130870000Y-80010000D02*
X130870000Y-87690000D01*
X130870000Y-87690000D02*
X128210000Y-87690000D01*
X130870000Y-115510000D02*
X129540000Y-115510000D01*
X130870000Y-116840000D02*
X130870000Y-115510000D01*
X130870000Y-118110000D02*
X128210000Y-118110000D01*
X128210000Y-118110000D02*
X128210000Y-125790000D01*
X130870000Y-118110000D02*
X130870000Y-125790000D01*
X130870000Y-125790000D02*
X128210000Y-125790000D01*
D10*
X180419333Y-106132380D02*
X180419333Y-106846666D01*
X180466952Y-106989523D01*
X180562190Y-107084761D01*
X180705047Y-107132380D01*
X180800285Y-107132380D01*
X179514571Y-106465714D02*
X179514571Y-107132380D01*
X179752666Y-106084761D02*
X179990761Y-106799047D01*
X179371714Y-106799047D01*
X180165333Y-78192380D02*
X180165333Y-78906666D01*
X180212952Y-79049523D01*
X180308190Y-79144761D01*
X180451047Y-79192380D01*
X180546285Y-79192380D01*
X179784380Y-78192380D02*
X179165333Y-78192380D01*
X179498666Y-78573333D01*
X179355809Y-78573333D01*
X179260571Y-78620952D01*
X179212952Y-78668571D01*
X179165333Y-78763809D01*
X179165333Y-79001904D01*
X179212952Y-79097142D01*
X179260571Y-79144761D01*
X179355809Y-79192380D01*
X179641523Y-79192380D01*
X179736761Y-79144761D01*
X179784380Y-79097142D01*
X132667333Y-78192380D02*
X132667333Y-78906666D01*
X132714952Y-79049523D01*
X132810190Y-79144761D01*
X132953047Y-79192380D01*
X133048285Y-79192380D01*
X131667333Y-79192380D02*
X132238761Y-79192380D01*
X131953047Y-79192380D02*
X131953047Y-78192380D01*
X132048285Y-78335238D01*
X132143523Y-78430476D01*
X132238761Y-78478095D01*
X132667333Y-116292380D02*
X132667333Y-117006666D01*
X132714952Y-117149523D01*
X132810190Y-117244761D01*
X132953047Y-117292380D01*
X133048285Y-117292380D01*
X132238761Y-116387619D02*
X132191142Y-116340000D01*
X132095904Y-116292380D01*
X131857809Y-116292380D01*
X131762571Y-116340000D01*
X131714952Y-116387619D01*
X131667333Y-116482857D01*
X131667333Y-116578095D01*
X131714952Y-116720952D01*
X132286380Y-117292380D01*
X131667333Y-117292380D01*
M02*
