M48
; DRILL file {KiCad 5.1.6-c6e7f7d~87~ubuntu18.04.1} date Tue Aug 18 13:39:26 2020
; FORMAT={-:-/ absolute / metric / decimal}
; #@! TF.CreationDate,2020-08-18T13:39:26-04:00
; #@! TF.GenerationSoftware,Kicad,Pcbnew,5.1.6-c6e7f7d~87~ubuntu18.04.1
FMAT,2
METRIC
T1C0.400
T2C0.800
T3C1.000
%
G90
G05
T1
X107.95Y-74.803
X107.95Y-86.995
X108.585Y-88.63
X108.91Y-74.522
X109.639Y-82.931
X109.677Y-68.775
X110.338Y-114.503
X110.439Y-83.718
X110.871Y-74.803
X111.138Y-97.638
X111.836Y-78.567
X114.097Y-79.883
X117.729Y-70.476
X122.555Y-82.677
X123.335Y-70.467
X123.825Y-82.677
X125.73Y-91.186
X131.075Y-70.451
X131.216Y-66.939
X132.627Y-67.539
X132.715Y-82.677
X132.831Y-71.476
X133.985Y-82.677
X136.55Y-69.139
T2
X99.695Y-74.295
X102.489Y-76.327
X105.41Y-83.566
X107.95Y-94.742
X107.95Y-100.33
X111.506Y-100.33
X113.284Y-94.742
X115.443Y-75.819
X115.443Y-81.915
X117.094Y-109.22
X118.999Y-75.819
X118.999Y-81.915
X120.904Y-102.616
X120.904Y-109.22
X123.444Y-101.346
X127.127Y-75.819
X127.127Y-81.915
X132.334Y-103.124
X136.144Y-114.808
X136.398Y-103.124
X137.541Y-75.819
X137.541Y-81.915
X139.192Y-91.948
X139.192Y-95.25
X139.192Y-98.552
X139.192Y-101.6
X139.7Y-106.172
X141.224Y-77.978
X141.224Y-80.01
X144.526Y-104.14
X111.76Y-106.68
X111.76Y-109.22
X111.76Y-111.76
X120.73Y-86.614
X125.73Y-86.614
X130.636Y-86.614
X135.636Y-86.614
X99.06Y-106.68
X99.06Y-109.22
X99.06Y-111.76
X105.41Y-106.68
X105.41Y-109.22
X105.41Y-111.76
T3
X147.32Y-96.52
X147.32Y-99.06
X147.32Y-101.6
X147.32Y-104.14
X147.32Y-106.68
X147.32Y-109.22
X147.32Y-111.76
X147.32Y-114.3
X147.32Y-68.58
X147.32Y-71.12
X147.32Y-73.66
X147.32Y-76.2
X93.98Y-106.68
X93.98Y-109.22
X93.98Y-111.76
X93.98Y-114.3
X144.78Y-83.82
X144.78Y-86.36
X144.78Y-88.9
X147.32Y-83.82
X147.32Y-86.36
X147.32Y-88.9
X93.98Y-68.58
X93.98Y-71.12
X93.98Y-73.66
X93.98Y-76.2
T0
M30
