G04 #@! TF.GenerationSoftware,KiCad,Pcbnew,5.1.6-c6e7f7d~87~ubuntu18.04.1*
G04 #@! TF.CreationDate,2020-08-18T13:39:28-04:00*
G04 #@! TF.ProjectId,2164SVF,32313634-5356-4462-9e6b-696361645f70,0*
G04 #@! TF.SameCoordinates,Original*
G04 #@! TF.FileFunction,Paste,Top*
G04 #@! TF.FilePolarity,Positive*
%FSLAX46Y46*%
G04 Gerber Fmt 4.6, Leading zero omitted, Abs format (unit mm)*
G04 Created by KiCad (PCBNEW 5.1.6-c6e7f7d~87~ubuntu18.04.1) date 2020-08-18 13:39:28*
%MOMM*%
%LPD*%
G01*
G04 APERTURE LIST*
%ADD10R,1.200000X0.900000*%
%ADD11R,0.900000X1.200000*%
G04 APERTURE END LIST*
G36*
G01*
X133816000Y-106774000D02*
X134916000Y-106774000D01*
G75*
G02*
X135166000Y-107024000I0J-250000D01*
G01*
X135166000Y-110024000D01*
G75*
G02*
X134916000Y-110274000I-250000J0D01*
G01*
X133816000Y-110274000D01*
G75*
G02*
X133566000Y-110024000I0J250000D01*
G01*
X133566000Y-107024000D01*
G75*
G02*
X133816000Y-106774000I250000J0D01*
G01*
G37*
G36*
G01*
X133816000Y-101374000D02*
X134916000Y-101374000D01*
G75*
G02*
X135166000Y-101624000I0J-250000D01*
G01*
X135166000Y-104624000D01*
G75*
G02*
X134916000Y-104874000I-250000J0D01*
G01*
X133816000Y-104874000D01*
G75*
G02*
X133566000Y-104624000I0J250000D01*
G01*
X133566000Y-101624000D01*
G75*
G02*
X133816000Y-101374000I250000J0D01*
G01*
G37*
G36*
G01*
X142282000Y-107922000D02*
X141182000Y-107922000D01*
G75*
G02*
X140932000Y-107672000I0J250000D01*
G01*
X140932000Y-104672000D01*
G75*
G02*
X141182000Y-104422000I250000J0D01*
G01*
X142282000Y-104422000D01*
G75*
G02*
X142532000Y-104672000I0J-250000D01*
G01*
X142532000Y-107672000D01*
G75*
G02*
X142282000Y-107922000I-250000J0D01*
G01*
G37*
G36*
G01*
X142282000Y-113322000D02*
X141182000Y-113322000D01*
G75*
G02*
X140932000Y-113072000I0J250000D01*
G01*
X140932000Y-110072000D01*
G75*
G02*
X141182000Y-109822000I250000J0D01*
G01*
X142282000Y-109822000D01*
G75*
G02*
X142532000Y-110072000I0J-250000D01*
G01*
X142532000Y-113072000D01*
G75*
G02*
X142282000Y-113322000I-250000J0D01*
G01*
G37*
G36*
G01*
X132715000Y-86169500D02*
X132715000Y-87058500D01*
G75*
G02*
X132397500Y-87376000I-317500J0D01*
G01*
X131762500Y-87376000D01*
G75*
G02*
X131445000Y-87058500I0J317500D01*
G01*
X131445000Y-86169500D01*
G75*
G02*
X131762500Y-85852000I317500J0D01*
G01*
X132397500Y-85852000D01*
G75*
G02*
X132715000Y-86169500I0J-317500D01*
G01*
G37*
G36*
G01*
X134810500Y-86169500D02*
X134810500Y-87058500D01*
G75*
G02*
X134493000Y-87376000I-317500J0D01*
G01*
X133858000Y-87376000D01*
G75*
G02*
X133540500Y-87058500I0J317500D01*
G01*
X133540500Y-86169500D01*
G75*
G02*
X133858000Y-85852000I317500J0D01*
G01*
X134493000Y-85852000D01*
G75*
G02*
X134810500Y-86169500I0J-317500D01*
G01*
G37*
G36*
G01*
X122809000Y-86169500D02*
X122809000Y-87058500D01*
G75*
G02*
X122491500Y-87376000I-317500J0D01*
G01*
X121856500Y-87376000D01*
G75*
G02*
X121539000Y-87058500I0J317500D01*
G01*
X121539000Y-86169500D01*
G75*
G02*
X121856500Y-85852000I317500J0D01*
G01*
X122491500Y-85852000D01*
G75*
G02*
X122809000Y-86169500I0J-317500D01*
G01*
G37*
G36*
G01*
X124904500Y-86169500D02*
X124904500Y-87058500D01*
G75*
G02*
X124587000Y-87376000I-317500J0D01*
G01*
X123952000Y-87376000D01*
G75*
G02*
X123634500Y-87058500I0J317500D01*
G01*
X123634500Y-86169500D01*
G75*
G02*
X123952000Y-85852000I317500J0D01*
G01*
X124587000Y-85852000D01*
G75*
G02*
X124904500Y-86169500I0J-317500D01*
G01*
G37*
G36*
G01*
X125961000Y-107291000D02*
X126261000Y-107291000D01*
G75*
G02*
X126411000Y-107441000I0J-150000D01*
G01*
X126411000Y-109091000D01*
G75*
G02*
X126261000Y-109241000I-150000J0D01*
G01*
X125961000Y-109241000D01*
G75*
G02*
X125811000Y-109091000I0J150000D01*
G01*
X125811000Y-107441000D01*
G75*
G02*
X125961000Y-107291000I150000J0D01*
G01*
G37*
G36*
G01*
X124691000Y-107291000D02*
X124991000Y-107291000D01*
G75*
G02*
X125141000Y-107441000I0J-150000D01*
G01*
X125141000Y-109091000D01*
G75*
G02*
X124991000Y-109241000I-150000J0D01*
G01*
X124691000Y-109241000D01*
G75*
G02*
X124541000Y-109091000I0J150000D01*
G01*
X124541000Y-107441000D01*
G75*
G02*
X124691000Y-107291000I150000J0D01*
G01*
G37*
G36*
G01*
X123421000Y-107291000D02*
X123721000Y-107291000D01*
G75*
G02*
X123871000Y-107441000I0J-150000D01*
G01*
X123871000Y-109091000D01*
G75*
G02*
X123721000Y-109241000I-150000J0D01*
G01*
X123421000Y-109241000D01*
G75*
G02*
X123271000Y-109091000I0J150000D01*
G01*
X123271000Y-107441000D01*
G75*
G02*
X123421000Y-107291000I150000J0D01*
G01*
G37*
G36*
G01*
X122151000Y-107291000D02*
X122451000Y-107291000D01*
G75*
G02*
X122601000Y-107441000I0J-150000D01*
G01*
X122601000Y-109091000D01*
G75*
G02*
X122451000Y-109241000I-150000J0D01*
G01*
X122151000Y-109241000D01*
G75*
G02*
X122001000Y-109091000I0J150000D01*
G01*
X122001000Y-107441000D01*
G75*
G02*
X122151000Y-107291000I150000J0D01*
G01*
G37*
G36*
G01*
X122151000Y-102341000D02*
X122451000Y-102341000D01*
G75*
G02*
X122601000Y-102491000I0J-150000D01*
G01*
X122601000Y-104141000D01*
G75*
G02*
X122451000Y-104291000I-150000J0D01*
G01*
X122151000Y-104291000D01*
G75*
G02*
X122001000Y-104141000I0J150000D01*
G01*
X122001000Y-102491000D01*
G75*
G02*
X122151000Y-102341000I150000J0D01*
G01*
G37*
G36*
G01*
X123421000Y-102341000D02*
X123721000Y-102341000D01*
G75*
G02*
X123871000Y-102491000I0J-150000D01*
G01*
X123871000Y-104141000D01*
G75*
G02*
X123721000Y-104291000I-150000J0D01*
G01*
X123421000Y-104291000D01*
G75*
G02*
X123271000Y-104141000I0J150000D01*
G01*
X123271000Y-102491000D01*
G75*
G02*
X123421000Y-102341000I150000J0D01*
G01*
G37*
G36*
G01*
X124691000Y-102341000D02*
X124991000Y-102341000D01*
G75*
G02*
X125141000Y-102491000I0J-150000D01*
G01*
X125141000Y-104141000D01*
G75*
G02*
X124991000Y-104291000I-150000J0D01*
G01*
X124691000Y-104291000D01*
G75*
G02*
X124541000Y-104141000I0J150000D01*
G01*
X124541000Y-102491000D01*
G75*
G02*
X124691000Y-102341000I150000J0D01*
G01*
G37*
G36*
G01*
X125961000Y-102341000D02*
X126261000Y-102341000D01*
G75*
G02*
X126411000Y-102491000I0J-150000D01*
G01*
X126411000Y-104141000D01*
G75*
G02*
X126261000Y-104291000I-150000J0D01*
G01*
X125961000Y-104291000D01*
G75*
G02*
X125811000Y-104141000I0J150000D01*
G01*
X125811000Y-102491000D01*
G75*
G02*
X125961000Y-102341000I150000J0D01*
G01*
G37*
G36*
G01*
X135105000Y-80367000D02*
X135405000Y-80367000D01*
G75*
G02*
X135555000Y-80517000I0J-150000D01*
G01*
X135555000Y-82167000D01*
G75*
G02*
X135405000Y-82317000I-150000J0D01*
G01*
X135105000Y-82317000D01*
G75*
G02*
X134955000Y-82167000I0J150000D01*
G01*
X134955000Y-80517000D01*
G75*
G02*
X135105000Y-80367000I150000J0D01*
G01*
G37*
G36*
G01*
X133835000Y-80367000D02*
X134135000Y-80367000D01*
G75*
G02*
X134285000Y-80517000I0J-150000D01*
G01*
X134285000Y-82167000D01*
G75*
G02*
X134135000Y-82317000I-150000J0D01*
G01*
X133835000Y-82317000D01*
G75*
G02*
X133685000Y-82167000I0J150000D01*
G01*
X133685000Y-80517000D01*
G75*
G02*
X133835000Y-80367000I150000J0D01*
G01*
G37*
G36*
G01*
X132565000Y-80367000D02*
X132865000Y-80367000D01*
G75*
G02*
X133015000Y-80517000I0J-150000D01*
G01*
X133015000Y-82167000D01*
G75*
G02*
X132865000Y-82317000I-150000J0D01*
G01*
X132565000Y-82317000D01*
G75*
G02*
X132415000Y-82167000I0J150000D01*
G01*
X132415000Y-80517000D01*
G75*
G02*
X132565000Y-80367000I150000J0D01*
G01*
G37*
G36*
G01*
X131295000Y-80367000D02*
X131595000Y-80367000D01*
G75*
G02*
X131745000Y-80517000I0J-150000D01*
G01*
X131745000Y-82167000D01*
G75*
G02*
X131595000Y-82317000I-150000J0D01*
G01*
X131295000Y-82317000D01*
G75*
G02*
X131145000Y-82167000I0J150000D01*
G01*
X131145000Y-80517000D01*
G75*
G02*
X131295000Y-80367000I150000J0D01*
G01*
G37*
G36*
G01*
X131295000Y-75417000D02*
X131595000Y-75417000D01*
G75*
G02*
X131745000Y-75567000I0J-150000D01*
G01*
X131745000Y-77217000D01*
G75*
G02*
X131595000Y-77367000I-150000J0D01*
G01*
X131295000Y-77367000D01*
G75*
G02*
X131145000Y-77217000I0J150000D01*
G01*
X131145000Y-75567000D01*
G75*
G02*
X131295000Y-75417000I150000J0D01*
G01*
G37*
G36*
G01*
X132565000Y-75417000D02*
X132865000Y-75417000D01*
G75*
G02*
X133015000Y-75567000I0J-150000D01*
G01*
X133015000Y-77217000D01*
G75*
G02*
X132865000Y-77367000I-150000J0D01*
G01*
X132565000Y-77367000D01*
G75*
G02*
X132415000Y-77217000I0J150000D01*
G01*
X132415000Y-75567000D01*
G75*
G02*
X132565000Y-75417000I150000J0D01*
G01*
G37*
G36*
G01*
X133835000Y-75417000D02*
X134135000Y-75417000D01*
G75*
G02*
X134285000Y-75567000I0J-150000D01*
G01*
X134285000Y-77217000D01*
G75*
G02*
X134135000Y-77367000I-150000J0D01*
G01*
X133835000Y-77367000D01*
G75*
G02*
X133685000Y-77217000I0J150000D01*
G01*
X133685000Y-75567000D01*
G75*
G02*
X133835000Y-75417000I150000J0D01*
G01*
G37*
G36*
G01*
X135105000Y-75417000D02*
X135405000Y-75417000D01*
G75*
G02*
X135555000Y-75567000I0J-150000D01*
G01*
X135555000Y-77217000D01*
G75*
G02*
X135405000Y-77367000I-150000J0D01*
G01*
X135105000Y-77367000D01*
G75*
G02*
X134955000Y-77217000I0J150000D01*
G01*
X134955000Y-75567000D01*
G75*
G02*
X135105000Y-75417000I150000J0D01*
G01*
G37*
G36*
G01*
X112880000Y-80367000D02*
X113180000Y-80367000D01*
G75*
G02*
X113330000Y-80517000I0J-150000D01*
G01*
X113330000Y-82167000D01*
G75*
G02*
X113180000Y-82317000I-150000J0D01*
G01*
X112880000Y-82317000D01*
G75*
G02*
X112730000Y-82167000I0J150000D01*
G01*
X112730000Y-80517000D01*
G75*
G02*
X112880000Y-80367000I150000J0D01*
G01*
G37*
G36*
G01*
X111610000Y-80367000D02*
X111910000Y-80367000D01*
G75*
G02*
X112060000Y-80517000I0J-150000D01*
G01*
X112060000Y-82167000D01*
G75*
G02*
X111910000Y-82317000I-150000J0D01*
G01*
X111610000Y-82317000D01*
G75*
G02*
X111460000Y-82167000I0J150000D01*
G01*
X111460000Y-80517000D01*
G75*
G02*
X111610000Y-80367000I150000J0D01*
G01*
G37*
G36*
G01*
X110340000Y-80367000D02*
X110640000Y-80367000D01*
G75*
G02*
X110790000Y-80517000I0J-150000D01*
G01*
X110790000Y-82167000D01*
G75*
G02*
X110640000Y-82317000I-150000J0D01*
G01*
X110340000Y-82317000D01*
G75*
G02*
X110190000Y-82167000I0J150000D01*
G01*
X110190000Y-80517000D01*
G75*
G02*
X110340000Y-80367000I150000J0D01*
G01*
G37*
G36*
G01*
X109070000Y-80367000D02*
X109370000Y-80367000D01*
G75*
G02*
X109520000Y-80517000I0J-150000D01*
G01*
X109520000Y-82167000D01*
G75*
G02*
X109370000Y-82317000I-150000J0D01*
G01*
X109070000Y-82317000D01*
G75*
G02*
X108920000Y-82167000I0J150000D01*
G01*
X108920000Y-80517000D01*
G75*
G02*
X109070000Y-80367000I150000J0D01*
G01*
G37*
G36*
G01*
X107800000Y-80367000D02*
X108100000Y-80367000D01*
G75*
G02*
X108250000Y-80517000I0J-150000D01*
G01*
X108250000Y-82167000D01*
G75*
G02*
X108100000Y-82317000I-150000J0D01*
G01*
X107800000Y-82317000D01*
G75*
G02*
X107650000Y-82167000I0J150000D01*
G01*
X107650000Y-80517000D01*
G75*
G02*
X107800000Y-80367000I150000J0D01*
G01*
G37*
G36*
G01*
X106530000Y-80367000D02*
X106830000Y-80367000D01*
G75*
G02*
X106980000Y-80517000I0J-150000D01*
G01*
X106980000Y-82167000D01*
G75*
G02*
X106830000Y-82317000I-150000J0D01*
G01*
X106530000Y-82317000D01*
G75*
G02*
X106380000Y-82167000I0J150000D01*
G01*
X106380000Y-80517000D01*
G75*
G02*
X106530000Y-80367000I150000J0D01*
G01*
G37*
G36*
G01*
X105260000Y-80367000D02*
X105560000Y-80367000D01*
G75*
G02*
X105710000Y-80517000I0J-150000D01*
G01*
X105710000Y-82167000D01*
G75*
G02*
X105560000Y-82317000I-150000J0D01*
G01*
X105260000Y-82317000D01*
G75*
G02*
X105110000Y-82167000I0J150000D01*
G01*
X105110000Y-80517000D01*
G75*
G02*
X105260000Y-80367000I150000J0D01*
G01*
G37*
G36*
G01*
X103990000Y-80367000D02*
X104290000Y-80367000D01*
G75*
G02*
X104440000Y-80517000I0J-150000D01*
G01*
X104440000Y-82167000D01*
G75*
G02*
X104290000Y-82317000I-150000J0D01*
G01*
X103990000Y-82317000D01*
G75*
G02*
X103840000Y-82167000I0J150000D01*
G01*
X103840000Y-80517000D01*
G75*
G02*
X103990000Y-80367000I150000J0D01*
G01*
G37*
G36*
G01*
X103990000Y-75417000D02*
X104290000Y-75417000D01*
G75*
G02*
X104440000Y-75567000I0J-150000D01*
G01*
X104440000Y-77217000D01*
G75*
G02*
X104290000Y-77367000I-150000J0D01*
G01*
X103990000Y-77367000D01*
G75*
G02*
X103840000Y-77217000I0J150000D01*
G01*
X103840000Y-75567000D01*
G75*
G02*
X103990000Y-75417000I150000J0D01*
G01*
G37*
G36*
G01*
X105260000Y-75417000D02*
X105560000Y-75417000D01*
G75*
G02*
X105710000Y-75567000I0J-150000D01*
G01*
X105710000Y-77217000D01*
G75*
G02*
X105560000Y-77367000I-150000J0D01*
G01*
X105260000Y-77367000D01*
G75*
G02*
X105110000Y-77217000I0J150000D01*
G01*
X105110000Y-75567000D01*
G75*
G02*
X105260000Y-75417000I150000J0D01*
G01*
G37*
G36*
G01*
X106530000Y-75417000D02*
X106830000Y-75417000D01*
G75*
G02*
X106980000Y-75567000I0J-150000D01*
G01*
X106980000Y-77217000D01*
G75*
G02*
X106830000Y-77367000I-150000J0D01*
G01*
X106530000Y-77367000D01*
G75*
G02*
X106380000Y-77217000I0J150000D01*
G01*
X106380000Y-75567000D01*
G75*
G02*
X106530000Y-75417000I150000J0D01*
G01*
G37*
G36*
G01*
X107800000Y-75417000D02*
X108100000Y-75417000D01*
G75*
G02*
X108250000Y-75567000I0J-150000D01*
G01*
X108250000Y-77217000D01*
G75*
G02*
X108100000Y-77367000I-150000J0D01*
G01*
X107800000Y-77367000D01*
G75*
G02*
X107650000Y-77217000I0J150000D01*
G01*
X107650000Y-75567000D01*
G75*
G02*
X107800000Y-75417000I150000J0D01*
G01*
G37*
G36*
G01*
X109070000Y-75417000D02*
X109370000Y-75417000D01*
G75*
G02*
X109520000Y-75567000I0J-150000D01*
G01*
X109520000Y-77217000D01*
G75*
G02*
X109370000Y-77367000I-150000J0D01*
G01*
X109070000Y-77367000D01*
G75*
G02*
X108920000Y-77217000I0J150000D01*
G01*
X108920000Y-75567000D01*
G75*
G02*
X109070000Y-75417000I150000J0D01*
G01*
G37*
G36*
G01*
X110340000Y-75417000D02*
X110640000Y-75417000D01*
G75*
G02*
X110790000Y-75567000I0J-150000D01*
G01*
X110790000Y-77217000D01*
G75*
G02*
X110640000Y-77367000I-150000J0D01*
G01*
X110340000Y-77367000D01*
G75*
G02*
X110190000Y-77217000I0J150000D01*
G01*
X110190000Y-75567000D01*
G75*
G02*
X110340000Y-75417000I150000J0D01*
G01*
G37*
G36*
G01*
X111610000Y-75417000D02*
X111910000Y-75417000D01*
G75*
G02*
X112060000Y-75567000I0J-150000D01*
G01*
X112060000Y-77217000D01*
G75*
G02*
X111910000Y-77367000I-150000J0D01*
G01*
X111610000Y-77367000D01*
G75*
G02*
X111460000Y-77217000I0J150000D01*
G01*
X111460000Y-75567000D01*
G75*
G02*
X111610000Y-75417000I150000J0D01*
G01*
G37*
G36*
G01*
X112880000Y-75417000D02*
X113180000Y-75417000D01*
G75*
G02*
X113330000Y-75567000I0J-150000D01*
G01*
X113330000Y-77217000D01*
G75*
G02*
X113180000Y-77367000I-150000J0D01*
G01*
X112880000Y-77367000D01*
G75*
G02*
X112730000Y-77217000I0J150000D01*
G01*
X112730000Y-75567000D01*
G75*
G02*
X112880000Y-75417000I150000J0D01*
G01*
G37*
G36*
G01*
X124945000Y-80367000D02*
X125245000Y-80367000D01*
G75*
G02*
X125395000Y-80517000I0J-150000D01*
G01*
X125395000Y-82167000D01*
G75*
G02*
X125245000Y-82317000I-150000J0D01*
G01*
X124945000Y-82317000D01*
G75*
G02*
X124795000Y-82167000I0J150000D01*
G01*
X124795000Y-80517000D01*
G75*
G02*
X124945000Y-80367000I150000J0D01*
G01*
G37*
G36*
G01*
X123675000Y-80367000D02*
X123975000Y-80367000D01*
G75*
G02*
X124125000Y-80517000I0J-150000D01*
G01*
X124125000Y-82167000D01*
G75*
G02*
X123975000Y-82317000I-150000J0D01*
G01*
X123675000Y-82317000D01*
G75*
G02*
X123525000Y-82167000I0J150000D01*
G01*
X123525000Y-80517000D01*
G75*
G02*
X123675000Y-80367000I150000J0D01*
G01*
G37*
G36*
G01*
X122405000Y-80367000D02*
X122705000Y-80367000D01*
G75*
G02*
X122855000Y-80517000I0J-150000D01*
G01*
X122855000Y-82167000D01*
G75*
G02*
X122705000Y-82317000I-150000J0D01*
G01*
X122405000Y-82317000D01*
G75*
G02*
X122255000Y-82167000I0J150000D01*
G01*
X122255000Y-80517000D01*
G75*
G02*
X122405000Y-80367000I150000J0D01*
G01*
G37*
G36*
G01*
X121135000Y-80367000D02*
X121435000Y-80367000D01*
G75*
G02*
X121585000Y-80517000I0J-150000D01*
G01*
X121585000Y-82167000D01*
G75*
G02*
X121435000Y-82317000I-150000J0D01*
G01*
X121135000Y-82317000D01*
G75*
G02*
X120985000Y-82167000I0J150000D01*
G01*
X120985000Y-80517000D01*
G75*
G02*
X121135000Y-80367000I150000J0D01*
G01*
G37*
G36*
G01*
X121135000Y-75417000D02*
X121435000Y-75417000D01*
G75*
G02*
X121585000Y-75567000I0J-150000D01*
G01*
X121585000Y-77217000D01*
G75*
G02*
X121435000Y-77367000I-150000J0D01*
G01*
X121135000Y-77367000D01*
G75*
G02*
X120985000Y-77217000I0J150000D01*
G01*
X120985000Y-75567000D01*
G75*
G02*
X121135000Y-75417000I150000J0D01*
G01*
G37*
G36*
G01*
X122405000Y-75417000D02*
X122705000Y-75417000D01*
G75*
G02*
X122855000Y-75567000I0J-150000D01*
G01*
X122855000Y-77217000D01*
G75*
G02*
X122705000Y-77367000I-150000J0D01*
G01*
X122405000Y-77367000D01*
G75*
G02*
X122255000Y-77217000I0J150000D01*
G01*
X122255000Y-75567000D01*
G75*
G02*
X122405000Y-75417000I150000J0D01*
G01*
G37*
G36*
G01*
X123675000Y-75417000D02*
X123975000Y-75417000D01*
G75*
G02*
X124125000Y-75567000I0J-150000D01*
G01*
X124125000Y-77217000D01*
G75*
G02*
X123975000Y-77367000I-150000J0D01*
G01*
X123675000Y-77367000D01*
G75*
G02*
X123525000Y-77217000I0J150000D01*
G01*
X123525000Y-75567000D01*
G75*
G02*
X123675000Y-75417000I150000J0D01*
G01*
G37*
G36*
G01*
X124945000Y-75417000D02*
X125245000Y-75417000D01*
G75*
G02*
X125395000Y-75567000I0J-150000D01*
G01*
X125395000Y-77217000D01*
G75*
G02*
X125245000Y-77367000I-150000J0D01*
G01*
X124945000Y-77367000D01*
G75*
G02*
X124795000Y-77217000I0J150000D01*
G01*
X124795000Y-75567000D01*
G75*
G02*
X124945000Y-75417000I150000J0D01*
G01*
G37*
G36*
G01*
X101669001Y-79433000D02*
X100768999Y-79433000D01*
G75*
G02*
X100519000Y-79183001I0J249999D01*
G01*
X100519000Y-78532999D01*
G75*
G02*
X100768999Y-78283000I249999J0D01*
G01*
X101669001Y-78283000D01*
G75*
G02*
X101919000Y-78532999I0J-249999D01*
G01*
X101919000Y-79183001D01*
G75*
G02*
X101669001Y-79433000I-249999J0D01*
G01*
G37*
G36*
G01*
X101669001Y-81483000D02*
X100768999Y-81483000D01*
G75*
G02*
X100519000Y-81233001I0J249999D01*
G01*
X100519000Y-80582999D01*
G75*
G02*
X100768999Y-80333000I249999J0D01*
G01*
X101669001Y-80333000D01*
G75*
G02*
X101919000Y-80582999I0J-249999D01*
G01*
X101919000Y-81233001D01*
G75*
G02*
X101669001Y-81483000I-249999J0D01*
G01*
G37*
G36*
G01*
X118929999Y-99129000D02*
X119830001Y-99129000D01*
G75*
G02*
X120080000Y-99378999I0J-249999D01*
G01*
X120080000Y-100029001D01*
G75*
G02*
X119830001Y-100279000I-249999J0D01*
G01*
X118929999Y-100279000D01*
G75*
G02*
X118680000Y-100029001I0J249999D01*
G01*
X118680000Y-99378999D01*
G75*
G02*
X118929999Y-99129000I249999J0D01*
G01*
G37*
G36*
G01*
X118929999Y-97079000D02*
X119830001Y-97079000D01*
G75*
G02*
X120080000Y-97328999I0J-249999D01*
G01*
X120080000Y-97979001D01*
G75*
G02*
X119830001Y-98229000I-249999J0D01*
G01*
X118929999Y-98229000D01*
G75*
G02*
X118680000Y-97979001I0J249999D01*
G01*
X118680000Y-97328999D01*
G75*
G02*
X118929999Y-97079000I249999J0D01*
G01*
G37*
G36*
G01*
X115881999Y-101297000D02*
X116782001Y-101297000D01*
G75*
G02*
X117032000Y-101546999I0J-249999D01*
G01*
X117032000Y-102197001D01*
G75*
G02*
X116782001Y-102447000I-249999J0D01*
G01*
X115881999Y-102447000D01*
G75*
G02*
X115632000Y-102197001I0J249999D01*
G01*
X115632000Y-101546999D01*
G75*
G02*
X115881999Y-101297000I249999J0D01*
G01*
G37*
G36*
G01*
X115881999Y-99247000D02*
X116782001Y-99247000D01*
G75*
G02*
X117032000Y-99496999I0J-249999D01*
G01*
X117032000Y-100147001D01*
G75*
G02*
X116782001Y-100397000I-249999J0D01*
G01*
X115881999Y-100397000D01*
G75*
G02*
X115632000Y-100147001I0J249999D01*
G01*
X115632000Y-99496999D01*
G75*
G02*
X115881999Y-99247000I249999J0D01*
G01*
G37*
G36*
G01*
X113087999Y-101288000D02*
X113988001Y-101288000D01*
G75*
G02*
X114238000Y-101537999I0J-249999D01*
G01*
X114238000Y-102188001D01*
G75*
G02*
X113988001Y-102438000I-249999J0D01*
G01*
X113087999Y-102438000D01*
G75*
G02*
X112838000Y-102188001I0J249999D01*
G01*
X112838000Y-101537999D01*
G75*
G02*
X113087999Y-101288000I249999J0D01*
G01*
G37*
G36*
G01*
X113087999Y-99238000D02*
X113988001Y-99238000D01*
G75*
G02*
X114238000Y-99487999I0J-249999D01*
G01*
X114238000Y-100138001D01*
G75*
G02*
X113988001Y-100388000I-249999J0D01*
G01*
X113087999Y-100388000D01*
G75*
G02*
X112838000Y-100138001I0J249999D01*
G01*
X112838000Y-99487999D01*
G75*
G02*
X113087999Y-99238000I249999J0D01*
G01*
G37*
G36*
G01*
X102038999Y-71951000D02*
X102939001Y-71951000D01*
G75*
G02*
X103189000Y-72200999I0J-249999D01*
G01*
X103189000Y-72851001D01*
G75*
G02*
X102939001Y-73101000I-249999J0D01*
G01*
X102038999Y-73101000D01*
G75*
G02*
X101789000Y-72851001I0J249999D01*
G01*
X101789000Y-72200999D01*
G75*
G02*
X102038999Y-71951000I249999J0D01*
G01*
G37*
G36*
G01*
X102038999Y-69901000D02*
X102939001Y-69901000D01*
G75*
G02*
X103189000Y-70150999I0J-249999D01*
G01*
X103189000Y-70801001D01*
G75*
G02*
X102939001Y-71051000I-249999J0D01*
G01*
X102038999Y-71051000D01*
G75*
G02*
X101789000Y-70801001I0J249999D01*
G01*
X101789000Y-70150999D01*
G75*
G02*
X102038999Y-69901000I249999J0D01*
G01*
G37*
G36*
G01*
X105733001Y-71042000D02*
X104832999Y-71042000D01*
G75*
G02*
X104583000Y-70792001I0J249999D01*
G01*
X104583000Y-70141999D01*
G75*
G02*
X104832999Y-69892000I249999J0D01*
G01*
X105733001Y-69892000D01*
G75*
G02*
X105983000Y-70141999I0J-249999D01*
G01*
X105983000Y-70792001D01*
G75*
G02*
X105733001Y-71042000I-249999J0D01*
G01*
G37*
G36*
G01*
X105733001Y-73092000D02*
X104832999Y-73092000D01*
G75*
G02*
X104583000Y-72842001I0J249999D01*
G01*
X104583000Y-72191999D01*
G75*
G02*
X104832999Y-71942000I249999J0D01*
G01*
X105733001Y-71942000D01*
G75*
G02*
X105983000Y-72191999I0J-249999D01*
G01*
X105983000Y-72842001D01*
G75*
G02*
X105733001Y-73092000I-249999J0D01*
G01*
G37*
G36*
G01*
X115893001Y-85538000D02*
X114992999Y-85538000D01*
G75*
G02*
X114743000Y-85288001I0J249999D01*
G01*
X114743000Y-84637999D01*
G75*
G02*
X114992999Y-84388000I249999J0D01*
G01*
X115893001Y-84388000D01*
G75*
G02*
X116143000Y-84637999I0J-249999D01*
G01*
X116143000Y-85288001D01*
G75*
G02*
X115893001Y-85538000I-249999J0D01*
G01*
G37*
G36*
G01*
X115893001Y-87588000D02*
X114992999Y-87588000D01*
G75*
G02*
X114743000Y-87338001I0J249999D01*
G01*
X114743000Y-86687999D01*
G75*
G02*
X114992999Y-86438000I249999J0D01*
G01*
X115893001Y-86438000D01*
G75*
G02*
X116143000Y-86687999I0J-249999D01*
G01*
X116143000Y-87338001D01*
G75*
G02*
X115893001Y-87588000I-249999J0D01*
G01*
G37*
G36*
G01*
X113099001Y-85529000D02*
X112198999Y-85529000D01*
G75*
G02*
X111949000Y-85279001I0J249999D01*
G01*
X111949000Y-84628999D01*
G75*
G02*
X112198999Y-84379000I249999J0D01*
G01*
X113099001Y-84379000D01*
G75*
G02*
X113349000Y-84628999I0J-249999D01*
G01*
X113349000Y-85279001D01*
G75*
G02*
X113099001Y-85529000I-249999J0D01*
G01*
G37*
G36*
G01*
X113099001Y-87579000D02*
X112198999Y-87579000D01*
G75*
G02*
X111949000Y-87329001I0J249999D01*
G01*
X111949000Y-86678999D01*
G75*
G02*
X112198999Y-86429000I249999J0D01*
G01*
X113099001Y-86429000D01*
G75*
G02*
X113349000Y-86678999I0J-249999D01*
G01*
X113349000Y-87329001D01*
G75*
G02*
X113099001Y-87579000I-249999J0D01*
G01*
G37*
G36*
G01*
X110420999Y-71942000D02*
X111321001Y-71942000D01*
G75*
G02*
X111571000Y-72191999I0J-249999D01*
G01*
X111571000Y-72842001D01*
G75*
G02*
X111321001Y-73092000I-249999J0D01*
G01*
X110420999Y-73092000D01*
G75*
G02*
X110171000Y-72842001I0J249999D01*
G01*
X110171000Y-72191999D01*
G75*
G02*
X110420999Y-71942000I249999J0D01*
G01*
G37*
G36*
G01*
X110420999Y-69892000D02*
X111321001Y-69892000D01*
G75*
G02*
X111571000Y-70141999I0J-249999D01*
G01*
X111571000Y-70792001D01*
G75*
G02*
X111321001Y-71042000I-249999J0D01*
G01*
X110420999Y-71042000D01*
G75*
G02*
X110171000Y-70792001I0J249999D01*
G01*
X110171000Y-70141999D01*
G75*
G02*
X110420999Y-69892000I249999J0D01*
G01*
G37*
G36*
G01*
X108527001Y-71042000D02*
X107626999Y-71042000D01*
G75*
G02*
X107377000Y-70792001I0J249999D01*
G01*
X107377000Y-70141999D01*
G75*
G02*
X107626999Y-69892000I249999J0D01*
G01*
X108527001Y-69892000D01*
G75*
G02*
X108777000Y-70141999I0J-249999D01*
G01*
X108777000Y-70792001D01*
G75*
G02*
X108527001Y-71042000I-249999J0D01*
G01*
G37*
G36*
G01*
X108527001Y-73092000D02*
X107626999Y-73092000D01*
G75*
G02*
X107377000Y-72842001I0J249999D01*
G01*
X107377000Y-72191999D01*
G75*
G02*
X107626999Y-71942000I249999J0D01*
G01*
X108527001Y-71942000D01*
G75*
G02*
X108777000Y-72191999I0J-249999D01*
G01*
X108777000Y-72842001D01*
G75*
G02*
X108527001Y-73092000I-249999J0D01*
G01*
G37*
G36*
G01*
X133280999Y-71951000D02*
X134181001Y-71951000D01*
G75*
G02*
X134431000Y-72200999I0J-249999D01*
G01*
X134431000Y-72851001D01*
G75*
G02*
X134181001Y-73101000I-249999J0D01*
G01*
X133280999Y-73101000D01*
G75*
G02*
X133031000Y-72851001I0J249999D01*
G01*
X133031000Y-72200999D01*
G75*
G02*
X133280999Y-71951000I249999J0D01*
G01*
G37*
G36*
G01*
X133280999Y-69901000D02*
X134181001Y-69901000D01*
G75*
G02*
X134431000Y-70150999I0J-249999D01*
G01*
X134431000Y-70801001D01*
G75*
G02*
X134181001Y-71051000I-249999J0D01*
G01*
X133280999Y-71051000D01*
G75*
G02*
X133031000Y-70801001I0J249999D01*
G01*
X133031000Y-70150999D01*
G75*
G02*
X133280999Y-69901000I249999J0D01*
G01*
G37*
G36*
G01*
X124390999Y-71942000D02*
X125291001Y-71942000D01*
G75*
G02*
X125541000Y-72191999I0J-249999D01*
G01*
X125541000Y-72842001D01*
G75*
G02*
X125291001Y-73092000I-249999J0D01*
G01*
X124390999Y-73092000D01*
G75*
G02*
X124141000Y-72842001I0J249999D01*
G01*
X124141000Y-72191999D01*
G75*
G02*
X124390999Y-71942000I249999J0D01*
G01*
G37*
G36*
G01*
X124390999Y-69892000D02*
X125291001Y-69892000D01*
G75*
G02*
X125541000Y-70141999I0J-249999D01*
G01*
X125541000Y-70792001D01*
G75*
G02*
X125291001Y-71042000I-249999J0D01*
G01*
X124390999Y-71042000D01*
G75*
G02*
X124141000Y-70792001I0J249999D01*
G01*
X124141000Y-70141999D01*
G75*
G02*
X124390999Y-69892000I249999J0D01*
G01*
G37*
G36*
G01*
X121596999Y-71942000D02*
X122497001Y-71942000D01*
G75*
G02*
X122747000Y-72191999I0J-249999D01*
G01*
X122747000Y-72842001D01*
G75*
G02*
X122497001Y-73092000I-249999J0D01*
G01*
X121596999Y-73092000D01*
G75*
G02*
X121347000Y-72842001I0J249999D01*
G01*
X121347000Y-72191999D01*
G75*
G02*
X121596999Y-71942000I249999J0D01*
G01*
G37*
G36*
G01*
X121596999Y-69892000D02*
X122497001Y-69892000D01*
G75*
G02*
X122747000Y-70141999I0J-249999D01*
G01*
X122747000Y-70792001D01*
G75*
G02*
X122497001Y-71042000I-249999J0D01*
G01*
X121596999Y-71042000D01*
G75*
G02*
X121347000Y-70792001I0J249999D01*
G01*
X121347000Y-70141999D01*
G75*
G02*
X121596999Y-69892000I249999J0D01*
G01*
G37*
G36*
G01*
X127184999Y-71942000D02*
X128085001Y-71942000D01*
G75*
G02*
X128335000Y-72191999I0J-249999D01*
G01*
X128335000Y-72842001D01*
G75*
G02*
X128085001Y-73092000I-249999J0D01*
G01*
X127184999Y-73092000D01*
G75*
G02*
X126935000Y-72842001I0J249999D01*
G01*
X126935000Y-72191999D01*
G75*
G02*
X127184999Y-71942000I249999J0D01*
G01*
G37*
G36*
G01*
X127184999Y-69892000D02*
X128085001Y-69892000D01*
G75*
G02*
X128335000Y-70141999I0J-249999D01*
G01*
X128335000Y-70792001D01*
G75*
G02*
X128085001Y-71042000I-249999J0D01*
G01*
X127184999Y-71042000D01*
G75*
G02*
X126935000Y-70792001I0J249999D01*
G01*
X126935000Y-70141999D01*
G75*
G02*
X127184999Y-69892000I249999J0D01*
G01*
G37*
G36*
G01*
X116008999Y-71951000D02*
X116909001Y-71951000D01*
G75*
G02*
X117159000Y-72200999I0J-249999D01*
G01*
X117159000Y-72851001D01*
G75*
G02*
X116909001Y-73101000I-249999J0D01*
G01*
X116008999Y-73101000D01*
G75*
G02*
X115759000Y-72851001I0J249999D01*
G01*
X115759000Y-72200999D01*
G75*
G02*
X116008999Y-71951000I249999J0D01*
G01*
G37*
G36*
G01*
X116008999Y-69901000D02*
X116909001Y-69901000D01*
G75*
G02*
X117159000Y-70150999I0J-249999D01*
G01*
X117159000Y-70801001D01*
G75*
G02*
X116909001Y-71051000I-249999J0D01*
G01*
X116008999Y-71051000D01*
G75*
G02*
X115759000Y-70801001I0J249999D01*
G01*
X115759000Y-70150999D01*
G75*
G02*
X116008999Y-69901000I249999J0D01*
G01*
G37*
G36*
G01*
X130879001Y-71051000D02*
X129978999Y-71051000D01*
G75*
G02*
X129729000Y-70801001I0J249999D01*
G01*
X129729000Y-70150999D01*
G75*
G02*
X129978999Y-69901000I249999J0D01*
G01*
X130879001Y-69901000D01*
G75*
G02*
X131129000Y-70150999I0J-249999D01*
G01*
X131129000Y-70801001D01*
G75*
G02*
X130879001Y-71051000I-249999J0D01*
G01*
G37*
G36*
G01*
X130879001Y-73101000D02*
X129978999Y-73101000D01*
G75*
G02*
X129729000Y-72851001I0J249999D01*
G01*
X129729000Y-72200999D01*
G75*
G02*
X129978999Y-71951000I249999J0D01*
G01*
X130879001Y-71951000D01*
G75*
G02*
X131129000Y-72200999I0J-249999D01*
G01*
X131129000Y-72851001D01*
G75*
G02*
X130879001Y-73101000I-249999J0D01*
G01*
G37*
D10*
X134315200Y-111404400D03*
X134315200Y-114704400D03*
D11*
X123446000Y-111760000D03*
X126746000Y-111760000D03*
D10*
X126238000Y-99821000D03*
X126238000Y-96521000D03*
X122682000Y-99821000D03*
X122682000Y-96521000D03*
D11*
X119380000Y-91186000D03*
X122680000Y-91186000D03*
X115570000Y-91186000D03*
X112270000Y-91186000D03*
G36*
G01*
X118675999Y-104209000D02*
X119576001Y-104209000D01*
G75*
G02*
X119826000Y-104458999I0J-249999D01*
G01*
X119826000Y-105109001D01*
G75*
G02*
X119576001Y-105359000I-249999J0D01*
G01*
X118675999Y-105359000D01*
G75*
G02*
X118426000Y-105109001I0J249999D01*
G01*
X118426000Y-104458999D01*
G75*
G02*
X118675999Y-104209000I249999J0D01*
G01*
G37*
G36*
G01*
X118675999Y-102159000D02*
X119576001Y-102159000D01*
G75*
G02*
X119826000Y-102408999I0J-249999D01*
G01*
X119826000Y-103059001D01*
G75*
G02*
X119576001Y-103309000I-249999J0D01*
G01*
X118675999Y-103309000D01*
G75*
G02*
X118426000Y-103059001I0J249999D01*
G01*
X118426000Y-102408999D01*
G75*
G02*
X118675999Y-102159000I249999J0D01*
G01*
G37*
G36*
G01*
X118675999Y-108273000D02*
X119576001Y-108273000D01*
G75*
G02*
X119826000Y-108522999I0J-249999D01*
G01*
X119826000Y-109173001D01*
G75*
G02*
X119576001Y-109423000I-249999J0D01*
G01*
X118675999Y-109423000D01*
G75*
G02*
X118426000Y-109173001I0J249999D01*
G01*
X118426000Y-108522999D01*
G75*
G02*
X118675999Y-108273000I249999J0D01*
G01*
G37*
G36*
G01*
X118675999Y-106223000D02*
X119576001Y-106223000D01*
G75*
G02*
X119826000Y-106472999I0J-249999D01*
G01*
X119826000Y-107123001D01*
G75*
G02*
X119576001Y-107373000I-249999J0D01*
G01*
X118675999Y-107373000D01*
G75*
G02*
X118426000Y-107123001I0J249999D01*
G01*
X118426000Y-106472999D01*
G75*
G02*
X118675999Y-106223000I249999J0D01*
G01*
G37*
G36*
G01*
X138868999Y-77276000D02*
X139769001Y-77276000D01*
G75*
G02*
X140019000Y-77525999I0J-249999D01*
G01*
X140019000Y-78176001D01*
G75*
G02*
X139769001Y-78426000I-249999J0D01*
G01*
X138868999Y-78426000D01*
G75*
G02*
X138619000Y-78176001I0J249999D01*
G01*
X138619000Y-77525999D01*
G75*
G02*
X138868999Y-77276000I249999J0D01*
G01*
G37*
G36*
G01*
X138868999Y-75226000D02*
X139769001Y-75226000D01*
G75*
G02*
X140019000Y-75475999I0J-249999D01*
G01*
X140019000Y-76126001D01*
G75*
G02*
X139769001Y-76376000I-249999J0D01*
G01*
X138868999Y-76376000D01*
G75*
G02*
X138619000Y-76126001I0J249999D01*
G01*
X138619000Y-75475999D01*
G75*
G02*
X138868999Y-75226000I249999J0D01*
G01*
G37*
G36*
G01*
X138868999Y-81358000D02*
X139769001Y-81358000D01*
G75*
G02*
X140019000Y-81607999I0J-249999D01*
G01*
X140019000Y-82258001D01*
G75*
G02*
X139769001Y-82508000I-249999J0D01*
G01*
X138868999Y-82508000D01*
G75*
G02*
X138619000Y-82258001I0J249999D01*
G01*
X138619000Y-81607999D01*
G75*
G02*
X138868999Y-81358000I249999J0D01*
G01*
G37*
G36*
G01*
X138868999Y-79308000D02*
X139769001Y-79308000D01*
G75*
G02*
X140019000Y-79557999I0J-249999D01*
G01*
X140019000Y-80208001D01*
G75*
G02*
X139769001Y-80458000I-249999J0D01*
G01*
X138868999Y-80458000D01*
G75*
G02*
X138619000Y-80208001I0J249999D01*
G01*
X138619000Y-79557999D01*
G75*
G02*
X138868999Y-79308000I249999J0D01*
G01*
G37*
G36*
G01*
X128454999Y-77276000D02*
X129355001Y-77276000D01*
G75*
G02*
X129605000Y-77525999I0J-249999D01*
G01*
X129605000Y-78176001D01*
G75*
G02*
X129355001Y-78426000I-249999J0D01*
G01*
X128454999Y-78426000D01*
G75*
G02*
X128205000Y-78176001I0J249999D01*
G01*
X128205000Y-77525999D01*
G75*
G02*
X128454999Y-77276000I249999J0D01*
G01*
G37*
G36*
G01*
X128454999Y-75226000D02*
X129355001Y-75226000D01*
G75*
G02*
X129605000Y-75475999I0J-249999D01*
G01*
X129605000Y-76126001D01*
G75*
G02*
X129355001Y-76376000I-249999J0D01*
G01*
X128454999Y-76376000D01*
G75*
G02*
X128205000Y-76126001I0J249999D01*
G01*
X128205000Y-75475999D01*
G75*
G02*
X128454999Y-75226000I249999J0D01*
G01*
G37*
G36*
G01*
X128454999Y-81358000D02*
X129355001Y-81358000D01*
G75*
G02*
X129605000Y-81607999I0J-249999D01*
G01*
X129605000Y-82258001D01*
G75*
G02*
X129355001Y-82508000I-249999J0D01*
G01*
X128454999Y-82508000D01*
G75*
G02*
X128205000Y-82258001I0J249999D01*
G01*
X128205000Y-81607999D01*
G75*
G02*
X128454999Y-81358000I249999J0D01*
G01*
G37*
G36*
G01*
X128454999Y-79308000D02*
X129355001Y-79308000D01*
G75*
G02*
X129605000Y-79557999I0J-249999D01*
G01*
X129605000Y-80208001D01*
G75*
G02*
X129355001Y-80458000I-249999J0D01*
G01*
X128454999Y-80458000D01*
G75*
G02*
X128205000Y-80208001I0J249999D01*
G01*
X128205000Y-79557999D01*
G75*
G02*
X128454999Y-79308000I249999J0D01*
G01*
G37*
G36*
G01*
X116770999Y-77285000D02*
X117671001Y-77285000D01*
G75*
G02*
X117921000Y-77534999I0J-249999D01*
G01*
X117921000Y-78185001D01*
G75*
G02*
X117671001Y-78435000I-249999J0D01*
G01*
X116770999Y-78435000D01*
G75*
G02*
X116521000Y-78185001I0J249999D01*
G01*
X116521000Y-77534999D01*
G75*
G02*
X116770999Y-77285000I249999J0D01*
G01*
G37*
G36*
G01*
X116770999Y-75235000D02*
X117671001Y-75235000D01*
G75*
G02*
X117921000Y-75484999I0J-249999D01*
G01*
X117921000Y-76135001D01*
G75*
G02*
X117671001Y-76385000I-249999J0D01*
G01*
X116770999Y-76385000D01*
G75*
G02*
X116521000Y-76135001I0J249999D01*
G01*
X116521000Y-75484999D01*
G75*
G02*
X116770999Y-75235000I249999J0D01*
G01*
G37*
G36*
G01*
X116770999Y-81358000D02*
X117671001Y-81358000D01*
G75*
G02*
X117921000Y-81607999I0J-249999D01*
G01*
X117921000Y-82258001D01*
G75*
G02*
X117671001Y-82508000I-249999J0D01*
G01*
X116770999Y-82508000D01*
G75*
G02*
X116521000Y-82258001I0J249999D01*
G01*
X116521000Y-81607999D01*
G75*
G02*
X116770999Y-81358000I249999J0D01*
G01*
G37*
G36*
G01*
X116770999Y-79308000D02*
X117671001Y-79308000D01*
G75*
G02*
X117921000Y-79557999I0J-249999D01*
G01*
X117921000Y-80208001D01*
G75*
G02*
X117671001Y-80458000I-249999J0D01*
G01*
X116770999Y-80458000D01*
G75*
G02*
X116521000Y-80208001I0J249999D01*
G01*
X116521000Y-79557999D01*
G75*
G02*
X116770999Y-79308000I249999J0D01*
G01*
G37*
G36*
G01*
X128835999Y-99129000D02*
X129736001Y-99129000D01*
G75*
G02*
X129986000Y-99378999I0J-249999D01*
G01*
X129986000Y-100029001D01*
G75*
G02*
X129736001Y-100279000I-249999J0D01*
G01*
X128835999Y-100279000D01*
G75*
G02*
X128586000Y-100029001I0J249999D01*
G01*
X128586000Y-99378999D01*
G75*
G02*
X128835999Y-99129000I249999J0D01*
G01*
G37*
G36*
G01*
X128835999Y-97079000D02*
X129736001Y-97079000D01*
G75*
G02*
X129986000Y-97328999I0J-249999D01*
G01*
X129986000Y-97979001D01*
G75*
G02*
X129736001Y-98229000I-249999J0D01*
G01*
X128835999Y-98229000D01*
G75*
G02*
X128586000Y-97979001I0J249999D01*
G01*
X128586000Y-97328999D01*
G75*
G02*
X128835999Y-97079000I249999J0D01*
G01*
G37*
G36*
G01*
X99244999Y-71942000D02*
X100145001Y-71942000D01*
G75*
G02*
X100395000Y-72191999I0J-249999D01*
G01*
X100395000Y-72842001D01*
G75*
G02*
X100145001Y-73092000I-249999J0D01*
G01*
X99244999Y-73092000D01*
G75*
G02*
X98995000Y-72842001I0J249999D01*
G01*
X98995000Y-72191999D01*
G75*
G02*
X99244999Y-71942000I249999J0D01*
G01*
G37*
G36*
G01*
X99244999Y-69892000D02*
X100145001Y-69892000D01*
G75*
G02*
X100395000Y-70141999I0J-249999D01*
G01*
X100395000Y-70792001D01*
G75*
G02*
X100145001Y-71042000I-249999J0D01*
G01*
X99244999Y-71042000D01*
G75*
G02*
X98995000Y-70792001I0J249999D01*
G01*
X98995000Y-70141999D01*
G75*
G02*
X99244999Y-69892000I249999J0D01*
G01*
G37*
G36*
G01*
X110305001Y-85538000D02*
X109404999Y-85538000D01*
G75*
G02*
X109155000Y-85288001I0J249999D01*
G01*
X109155000Y-84637999D01*
G75*
G02*
X109404999Y-84388000I249999J0D01*
G01*
X110305001Y-84388000D01*
G75*
G02*
X110555000Y-84637999I0J-249999D01*
G01*
X110555000Y-85288001D01*
G75*
G02*
X110305001Y-85538000I-249999J0D01*
G01*
G37*
G36*
G01*
X110305001Y-87588000D02*
X109404999Y-87588000D01*
G75*
G02*
X109155000Y-87338001I0J249999D01*
G01*
X109155000Y-86687999D01*
G75*
G02*
X109404999Y-86438000I249999J0D01*
G01*
X110305001Y-86438000D01*
G75*
G02*
X110555000Y-86687999I0J-249999D01*
G01*
X110555000Y-87338001D01*
G75*
G02*
X110305001Y-87588000I-249999J0D01*
G01*
G37*
G36*
G01*
X113214999Y-71942000D02*
X114115001Y-71942000D01*
G75*
G02*
X114365000Y-72191999I0J-249999D01*
G01*
X114365000Y-72842001D01*
G75*
G02*
X114115001Y-73092000I-249999J0D01*
G01*
X113214999Y-73092000D01*
G75*
G02*
X112965000Y-72842001I0J249999D01*
G01*
X112965000Y-72191999D01*
G75*
G02*
X113214999Y-71942000I249999J0D01*
G01*
G37*
G36*
G01*
X113214999Y-69892000D02*
X114115001Y-69892000D01*
G75*
G02*
X114365000Y-70141999I0J-249999D01*
G01*
X114365000Y-70792001D01*
G75*
G02*
X114115001Y-71042000I-249999J0D01*
G01*
X113214999Y-71042000D01*
G75*
G02*
X112965000Y-70792001I0J249999D01*
G01*
X112965000Y-70141999D01*
G75*
G02*
X113214999Y-69892000I249999J0D01*
G01*
G37*
G36*
G01*
X136074999Y-71942000D02*
X136975001Y-71942000D01*
G75*
G02*
X137225000Y-72191999I0J-249999D01*
G01*
X137225000Y-72842001D01*
G75*
G02*
X136975001Y-73092000I-249999J0D01*
G01*
X136074999Y-73092000D01*
G75*
G02*
X135825000Y-72842001I0J249999D01*
G01*
X135825000Y-72191999D01*
G75*
G02*
X136074999Y-71942000I249999J0D01*
G01*
G37*
G36*
G01*
X136074999Y-69892000D02*
X136975001Y-69892000D01*
G75*
G02*
X137225000Y-70141999I0J-249999D01*
G01*
X137225000Y-70792001D01*
G75*
G02*
X136975001Y-71042000I-249999J0D01*
G01*
X136074999Y-71042000D01*
G75*
G02*
X135825000Y-70792001I0J249999D01*
G01*
X135825000Y-70141999D01*
G75*
G02*
X136074999Y-69892000I249999J0D01*
G01*
G37*
G36*
G01*
X118802999Y-71942000D02*
X119703001Y-71942000D01*
G75*
G02*
X119953000Y-72191999I0J-249999D01*
G01*
X119953000Y-72842001D01*
G75*
G02*
X119703001Y-73092000I-249999J0D01*
G01*
X118802999Y-73092000D01*
G75*
G02*
X118553000Y-72842001I0J249999D01*
G01*
X118553000Y-72191999D01*
G75*
G02*
X118802999Y-71942000I249999J0D01*
G01*
G37*
G36*
G01*
X118802999Y-69892000D02*
X119703001Y-69892000D01*
G75*
G02*
X119953000Y-70141999I0J-249999D01*
G01*
X119953000Y-70792001D01*
G75*
G02*
X119703001Y-71042000I-249999J0D01*
G01*
X118802999Y-71042000D01*
G75*
G02*
X118553000Y-70792001I0J249999D01*
G01*
X118553000Y-70141999D01*
G75*
G02*
X118802999Y-69892000I249999J0D01*
G01*
G37*
M02*
