G04 #@! TF.GenerationSoftware,KiCad,Pcbnew,5.1.6-c6e7f7d~87~ubuntu18.04.1*
G04 #@! TF.CreationDate,2020-08-18T13:39:28-04:00*
G04 #@! TF.ProjectId,2164SVF,32313634-5356-4462-9e6b-696361645f70,0*
G04 #@! TF.SameCoordinates,Original*
G04 #@! TF.FileFunction,Soldermask,Bot*
G04 #@! TF.FilePolarity,Negative*
%FSLAX46Y46*%
G04 Gerber Fmt 4.6, Leading zero omitted, Abs format (unit mm)*
G04 Created by KiCad (PCBNEW 5.1.6-c6e7f7d~87~ubuntu18.04.1) date 2020-08-18 13:39:28*
%MOMM*%
%LPD*%
G01*
G04 APERTURE LIST*
%ADD10C,0.100000*%
G04 APERTURE END LIST*
D10*
G36*
X147433512Y-113403927D02*
G01*
X147582812Y-113433624D01*
X147746784Y-113501544D01*
X147894354Y-113600147D01*
X148019853Y-113725646D01*
X148118456Y-113873216D01*
X148186376Y-114037188D01*
X148221000Y-114211259D01*
X148221000Y-114388741D01*
X148186376Y-114562812D01*
X148118456Y-114726784D01*
X148019853Y-114874354D01*
X147894354Y-114999853D01*
X147746784Y-115098456D01*
X147582812Y-115166376D01*
X147433512Y-115196073D01*
X147408742Y-115201000D01*
X147231258Y-115201000D01*
X147206488Y-115196073D01*
X147057188Y-115166376D01*
X146893216Y-115098456D01*
X146745646Y-114999853D01*
X146620147Y-114874354D01*
X146521544Y-114726784D01*
X146453624Y-114562812D01*
X146419000Y-114388741D01*
X146419000Y-114211259D01*
X146453624Y-114037188D01*
X146521544Y-113873216D01*
X146620147Y-113725646D01*
X146745646Y-113600147D01*
X146893216Y-113501544D01*
X147057188Y-113433624D01*
X147206488Y-113403927D01*
X147231258Y-113399000D01*
X147408742Y-113399000D01*
X147433512Y-113403927D01*
G37*
G36*
X94093512Y-113403927D02*
G01*
X94242812Y-113433624D01*
X94406784Y-113501544D01*
X94554354Y-113600147D01*
X94679853Y-113725646D01*
X94778456Y-113873216D01*
X94846376Y-114037188D01*
X94881000Y-114211259D01*
X94881000Y-114388741D01*
X94846376Y-114562812D01*
X94778456Y-114726784D01*
X94679853Y-114874354D01*
X94554354Y-114999853D01*
X94406784Y-115098456D01*
X94242812Y-115166376D01*
X94093512Y-115196073D01*
X94068742Y-115201000D01*
X93891258Y-115201000D01*
X93866488Y-115196073D01*
X93717188Y-115166376D01*
X93553216Y-115098456D01*
X93405646Y-114999853D01*
X93280147Y-114874354D01*
X93181544Y-114726784D01*
X93113624Y-114562812D01*
X93079000Y-114388741D01*
X93079000Y-114211259D01*
X93113624Y-114037188D01*
X93181544Y-113873216D01*
X93280147Y-113725646D01*
X93405646Y-113600147D01*
X93553216Y-113501544D01*
X93717188Y-113433624D01*
X93866488Y-113403927D01*
X93891258Y-113399000D01*
X94068742Y-113399000D01*
X94093512Y-113403927D01*
G37*
G36*
X94093512Y-110863927D02*
G01*
X94242812Y-110893624D01*
X94406784Y-110961544D01*
X94554354Y-111060147D01*
X94679853Y-111185646D01*
X94778456Y-111333216D01*
X94846376Y-111497188D01*
X94881000Y-111671259D01*
X94881000Y-111848741D01*
X94846376Y-112022812D01*
X94778456Y-112186784D01*
X94679853Y-112334354D01*
X94554354Y-112459853D01*
X94406784Y-112558456D01*
X94242812Y-112626376D01*
X94093512Y-112656073D01*
X94068742Y-112661000D01*
X93891258Y-112661000D01*
X93866488Y-112656073D01*
X93717188Y-112626376D01*
X93553216Y-112558456D01*
X93405646Y-112459853D01*
X93280147Y-112334354D01*
X93181544Y-112186784D01*
X93113624Y-112022812D01*
X93079000Y-111848741D01*
X93079000Y-111671259D01*
X93113624Y-111497188D01*
X93181544Y-111333216D01*
X93280147Y-111185646D01*
X93405646Y-111060147D01*
X93553216Y-110961544D01*
X93717188Y-110893624D01*
X93866488Y-110863927D01*
X93891258Y-110859000D01*
X94068742Y-110859000D01*
X94093512Y-110863927D01*
G37*
G36*
X147433512Y-110863927D02*
G01*
X147582812Y-110893624D01*
X147746784Y-110961544D01*
X147894354Y-111060147D01*
X148019853Y-111185646D01*
X148118456Y-111333216D01*
X148186376Y-111497188D01*
X148221000Y-111671259D01*
X148221000Y-111848741D01*
X148186376Y-112022812D01*
X148118456Y-112186784D01*
X148019853Y-112334354D01*
X147894354Y-112459853D01*
X147746784Y-112558456D01*
X147582812Y-112626376D01*
X147433512Y-112656073D01*
X147408742Y-112661000D01*
X147231258Y-112661000D01*
X147206488Y-112656073D01*
X147057188Y-112626376D01*
X146893216Y-112558456D01*
X146745646Y-112459853D01*
X146620147Y-112334354D01*
X146521544Y-112186784D01*
X146453624Y-112022812D01*
X146419000Y-111848741D01*
X146419000Y-111671259D01*
X146453624Y-111497188D01*
X146521544Y-111333216D01*
X146620147Y-111185646D01*
X146745646Y-111060147D01*
X146893216Y-110961544D01*
X147057188Y-110893624D01*
X147206488Y-110863927D01*
X147231258Y-110859000D01*
X147408742Y-110859000D01*
X147433512Y-110863927D01*
G37*
G36*
X111885589Y-110998876D02*
G01*
X111984893Y-111018629D01*
X112125206Y-111076748D01*
X112251484Y-111161125D01*
X112358875Y-111268516D01*
X112443252Y-111394794D01*
X112501371Y-111535107D01*
X112531000Y-111684063D01*
X112531000Y-111835937D01*
X112501371Y-111984893D01*
X112443252Y-112125206D01*
X112358875Y-112251484D01*
X112251484Y-112358875D01*
X112125206Y-112443252D01*
X111984893Y-112501371D01*
X111885589Y-112521124D01*
X111835938Y-112531000D01*
X111684062Y-112531000D01*
X111634411Y-112521124D01*
X111535107Y-112501371D01*
X111394794Y-112443252D01*
X111268516Y-112358875D01*
X111161125Y-112251484D01*
X111076748Y-112125206D01*
X111018629Y-111984893D01*
X110989000Y-111835937D01*
X110989000Y-111684063D01*
X111018629Y-111535107D01*
X111076748Y-111394794D01*
X111161125Y-111268516D01*
X111268516Y-111161125D01*
X111394794Y-111076748D01*
X111535107Y-111018629D01*
X111634411Y-110998876D01*
X111684062Y-110989000D01*
X111835938Y-110989000D01*
X111885589Y-110998876D01*
G37*
G36*
X99185589Y-110998876D02*
G01*
X99284893Y-111018629D01*
X99425206Y-111076748D01*
X99551484Y-111161125D01*
X99658875Y-111268516D01*
X99743252Y-111394794D01*
X99801371Y-111535107D01*
X99831000Y-111684063D01*
X99831000Y-111835937D01*
X99801371Y-111984893D01*
X99743252Y-112125206D01*
X99658875Y-112251484D01*
X99551484Y-112358875D01*
X99425206Y-112443252D01*
X99284893Y-112501371D01*
X99185589Y-112521124D01*
X99135938Y-112531000D01*
X98984062Y-112531000D01*
X98934411Y-112521124D01*
X98835107Y-112501371D01*
X98694794Y-112443252D01*
X98568516Y-112358875D01*
X98461125Y-112251484D01*
X98376748Y-112125206D01*
X98318629Y-111984893D01*
X98289000Y-111835937D01*
X98289000Y-111684063D01*
X98318629Y-111535107D01*
X98376748Y-111394794D01*
X98461125Y-111268516D01*
X98568516Y-111161125D01*
X98694794Y-111076748D01*
X98835107Y-111018629D01*
X98934411Y-110998876D01*
X98984062Y-110989000D01*
X99135938Y-110989000D01*
X99185589Y-110998876D01*
G37*
G36*
X105535589Y-110998876D02*
G01*
X105634893Y-111018629D01*
X105775206Y-111076748D01*
X105901484Y-111161125D01*
X106008875Y-111268516D01*
X106093252Y-111394794D01*
X106151371Y-111535107D01*
X106181000Y-111684063D01*
X106181000Y-111835937D01*
X106151371Y-111984893D01*
X106093252Y-112125206D01*
X106008875Y-112251484D01*
X105901484Y-112358875D01*
X105775206Y-112443252D01*
X105634893Y-112501371D01*
X105535589Y-112521124D01*
X105485938Y-112531000D01*
X105334062Y-112531000D01*
X105284411Y-112521124D01*
X105185107Y-112501371D01*
X105044794Y-112443252D01*
X104918516Y-112358875D01*
X104811125Y-112251484D01*
X104726748Y-112125206D01*
X104668629Y-111984893D01*
X104639000Y-111835937D01*
X104639000Y-111684063D01*
X104668629Y-111535107D01*
X104726748Y-111394794D01*
X104811125Y-111268516D01*
X104918516Y-111161125D01*
X105044794Y-111076748D01*
X105185107Y-111018629D01*
X105284411Y-110998876D01*
X105334062Y-110989000D01*
X105485938Y-110989000D01*
X105535589Y-110998876D01*
G37*
G36*
X94093512Y-108323927D02*
G01*
X94242812Y-108353624D01*
X94406784Y-108421544D01*
X94554354Y-108520147D01*
X94679853Y-108645646D01*
X94778456Y-108793216D01*
X94846376Y-108957188D01*
X94881000Y-109131259D01*
X94881000Y-109308741D01*
X94846376Y-109482812D01*
X94778456Y-109646784D01*
X94679853Y-109794354D01*
X94554354Y-109919853D01*
X94406784Y-110018456D01*
X94242812Y-110086376D01*
X94093512Y-110116073D01*
X94068742Y-110121000D01*
X93891258Y-110121000D01*
X93866488Y-110116073D01*
X93717188Y-110086376D01*
X93553216Y-110018456D01*
X93405646Y-109919853D01*
X93280147Y-109794354D01*
X93181544Y-109646784D01*
X93113624Y-109482812D01*
X93079000Y-109308741D01*
X93079000Y-109131259D01*
X93113624Y-108957188D01*
X93181544Y-108793216D01*
X93280147Y-108645646D01*
X93405646Y-108520147D01*
X93553216Y-108421544D01*
X93717188Y-108353624D01*
X93866488Y-108323927D01*
X93891258Y-108319000D01*
X94068742Y-108319000D01*
X94093512Y-108323927D01*
G37*
G36*
X147433512Y-108323927D02*
G01*
X147582812Y-108353624D01*
X147746784Y-108421544D01*
X147894354Y-108520147D01*
X148019853Y-108645646D01*
X148118456Y-108793216D01*
X148186376Y-108957188D01*
X148221000Y-109131259D01*
X148221000Y-109308741D01*
X148186376Y-109482812D01*
X148118456Y-109646784D01*
X148019853Y-109794354D01*
X147894354Y-109919853D01*
X147746784Y-110018456D01*
X147582812Y-110086376D01*
X147433512Y-110116073D01*
X147408742Y-110121000D01*
X147231258Y-110121000D01*
X147206488Y-110116073D01*
X147057188Y-110086376D01*
X146893216Y-110018456D01*
X146745646Y-109919853D01*
X146620147Y-109794354D01*
X146521544Y-109646784D01*
X146453624Y-109482812D01*
X146419000Y-109308741D01*
X146419000Y-109131259D01*
X146453624Y-108957188D01*
X146521544Y-108793216D01*
X146620147Y-108645646D01*
X146745646Y-108520147D01*
X146893216Y-108421544D01*
X147057188Y-108353624D01*
X147206488Y-108323927D01*
X147231258Y-108319000D01*
X147408742Y-108319000D01*
X147433512Y-108323927D01*
G37*
G36*
X105535589Y-108458876D02*
G01*
X105634893Y-108478629D01*
X105775206Y-108536748D01*
X105901484Y-108621125D01*
X106008875Y-108728516D01*
X106093252Y-108854794D01*
X106151371Y-108995107D01*
X106181000Y-109144063D01*
X106181000Y-109295937D01*
X106151371Y-109444893D01*
X106093252Y-109585206D01*
X106008875Y-109711484D01*
X105901484Y-109818875D01*
X105775206Y-109903252D01*
X105634893Y-109961371D01*
X105535589Y-109981124D01*
X105485938Y-109991000D01*
X105334062Y-109991000D01*
X105284411Y-109981124D01*
X105185107Y-109961371D01*
X105044794Y-109903252D01*
X104918516Y-109818875D01*
X104811125Y-109711484D01*
X104726748Y-109585206D01*
X104668629Y-109444893D01*
X104639000Y-109295937D01*
X104639000Y-109144063D01*
X104668629Y-108995107D01*
X104726748Y-108854794D01*
X104811125Y-108728516D01*
X104918516Y-108621125D01*
X105044794Y-108536748D01*
X105185107Y-108478629D01*
X105284411Y-108458876D01*
X105334062Y-108449000D01*
X105485938Y-108449000D01*
X105535589Y-108458876D01*
G37*
G36*
X111885589Y-108458876D02*
G01*
X111984893Y-108478629D01*
X112125206Y-108536748D01*
X112251484Y-108621125D01*
X112358875Y-108728516D01*
X112443252Y-108854794D01*
X112501371Y-108995107D01*
X112531000Y-109144063D01*
X112531000Y-109295937D01*
X112501371Y-109444893D01*
X112443252Y-109585206D01*
X112358875Y-109711484D01*
X112251484Y-109818875D01*
X112125206Y-109903252D01*
X111984893Y-109961371D01*
X111885589Y-109981124D01*
X111835938Y-109991000D01*
X111684062Y-109991000D01*
X111634411Y-109981124D01*
X111535107Y-109961371D01*
X111394794Y-109903252D01*
X111268516Y-109818875D01*
X111161125Y-109711484D01*
X111076748Y-109585206D01*
X111018629Y-109444893D01*
X110989000Y-109295937D01*
X110989000Y-109144063D01*
X111018629Y-108995107D01*
X111076748Y-108854794D01*
X111161125Y-108728516D01*
X111268516Y-108621125D01*
X111394794Y-108536748D01*
X111535107Y-108478629D01*
X111634411Y-108458876D01*
X111684062Y-108449000D01*
X111835938Y-108449000D01*
X111885589Y-108458876D01*
G37*
G36*
X99185589Y-108458876D02*
G01*
X99284893Y-108478629D01*
X99425206Y-108536748D01*
X99551484Y-108621125D01*
X99658875Y-108728516D01*
X99743252Y-108854794D01*
X99801371Y-108995107D01*
X99831000Y-109144063D01*
X99831000Y-109295937D01*
X99801371Y-109444893D01*
X99743252Y-109585206D01*
X99658875Y-109711484D01*
X99551484Y-109818875D01*
X99425206Y-109903252D01*
X99284893Y-109961371D01*
X99185589Y-109981124D01*
X99135938Y-109991000D01*
X98984062Y-109991000D01*
X98934411Y-109981124D01*
X98835107Y-109961371D01*
X98694794Y-109903252D01*
X98568516Y-109818875D01*
X98461125Y-109711484D01*
X98376748Y-109585206D01*
X98318629Y-109444893D01*
X98289000Y-109295937D01*
X98289000Y-109144063D01*
X98318629Y-108995107D01*
X98376748Y-108854794D01*
X98461125Y-108728516D01*
X98568516Y-108621125D01*
X98694794Y-108536748D01*
X98835107Y-108478629D01*
X98934411Y-108458876D01*
X98984062Y-108449000D01*
X99135938Y-108449000D01*
X99185589Y-108458876D01*
G37*
G36*
X94881000Y-107581000D02*
G01*
X93079000Y-107581000D01*
X93079000Y-105779000D01*
X94881000Y-105779000D01*
X94881000Y-107581000D01*
G37*
G36*
X147433512Y-105783927D02*
G01*
X147582812Y-105813624D01*
X147746784Y-105881544D01*
X147894354Y-105980147D01*
X148019853Y-106105646D01*
X148118456Y-106253216D01*
X148186376Y-106417188D01*
X148221000Y-106591259D01*
X148221000Y-106768741D01*
X148186376Y-106942812D01*
X148118456Y-107106784D01*
X148019853Y-107254354D01*
X147894354Y-107379853D01*
X147746784Y-107478456D01*
X147582812Y-107546376D01*
X147433512Y-107576073D01*
X147408742Y-107581000D01*
X147231258Y-107581000D01*
X147206488Y-107576073D01*
X147057188Y-107546376D01*
X146893216Y-107478456D01*
X146745646Y-107379853D01*
X146620147Y-107254354D01*
X146521544Y-107106784D01*
X146453624Y-106942812D01*
X146419000Y-106768741D01*
X146419000Y-106591259D01*
X146453624Y-106417188D01*
X146521544Y-106253216D01*
X146620147Y-106105646D01*
X146745646Y-105980147D01*
X146893216Y-105881544D01*
X147057188Y-105813624D01*
X147206488Y-105783927D01*
X147231258Y-105779000D01*
X147408742Y-105779000D01*
X147433512Y-105783927D01*
G37*
G36*
X111885589Y-105918876D02*
G01*
X111984893Y-105938629D01*
X112125206Y-105996748D01*
X112251484Y-106081125D01*
X112358875Y-106188516D01*
X112443252Y-106314794D01*
X112501371Y-106455107D01*
X112531000Y-106604063D01*
X112531000Y-106755937D01*
X112501371Y-106904893D01*
X112443252Y-107045206D01*
X112358875Y-107171484D01*
X112251484Y-107278875D01*
X112125206Y-107363252D01*
X111984893Y-107421371D01*
X111885589Y-107441124D01*
X111835938Y-107451000D01*
X111684062Y-107451000D01*
X111634411Y-107441124D01*
X111535107Y-107421371D01*
X111394794Y-107363252D01*
X111268516Y-107278875D01*
X111161125Y-107171484D01*
X111076748Y-107045206D01*
X111018629Y-106904893D01*
X110989000Y-106755937D01*
X110989000Y-106604063D01*
X111018629Y-106455107D01*
X111076748Y-106314794D01*
X111161125Y-106188516D01*
X111268516Y-106081125D01*
X111394794Y-105996748D01*
X111535107Y-105938629D01*
X111634411Y-105918876D01*
X111684062Y-105909000D01*
X111835938Y-105909000D01*
X111885589Y-105918876D01*
G37*
G36*
X105535589Y-105918876D02*
G01*
X105634893Y-105938629D01*
X105775206Y-105996748D01*
X105901484Y-106081125D01*
X106008875Y-106188516D01*
X106093252Y-106314794D01*
X106151371Y-106455107D01*
X106181000Y-106604063D01*
X106181000Y-106755937D01*
X106151371Y-106904893D01*
X106093252Y-107045206D01*
X106008875Y-107171484D01*
X105901484Y-107278875D01*
X105775206Y-107363252D01*
X105634893Y-107421371D01*
X105535589Y-107441124D01*
X105485938Y-107451000D01*
X105334062Y-107451000D01*
X105284411Y-107441124D01*
X105185107Y-107421371D01*
X105044794Y-107363252D01*
X104918516Y-107278875D01*
X104811125Y-107171484D01*
X104726748Y-107045206D01*
X104668629Y-106904893D01*
X104639000Y-106755937D01*
X104639000Y-106604063D01*
X104668629Y-106455107D01*
X104726748Y-106314794D01*
X104811125Y-106188516D01*
X104918516Y-106081125D01*
X105044794Y-105996748D01*
X105185107Y-105938629D01*
X105284411Y-105918876D01*
X105334062Y-105909000D01*
X105485938Y-105909000D01*
X105535589Y-105918876D01*
G37*
G36*
X99185589Y-105918876D02*
G01*
X99284893Y-105938629D01*
X99425206Y-105996748D01*
X99551484Y-106081125D01*
X99658875Y-106188516D01*
X99743252Y-106314794D01*
X99801371Y-106455107D01*
X99831000Y-106604063D01*
X99831000Y-106755937D01*
X99801371Y-106904893D01*
X99743252Y-107045206D01*
X99658875Y-107171484D01*
X99551484Y-107278875D01*
X99425206Y-107363252D01*
X99284893Y-107421371D01*
X99185589Y-107441124D01*
X99135938Y-107451000D01*
X98984062Y-107451000D01*
X98934411Y-107441124D01*
X98835107Y-107421371D01*
X98694794Y-107363252D01*
X98568516Y-107278875D01*
X98461125Y-107171484D01*
X98376748Y-107045206D01*
X98318629Y-106904893D01*
X98289000Y-106755937D01*
X98289000Y-106604063D01*
X98318629Y-106455107D01*
X98376748Y-106314794D01*
X98461125Y-106188516D01*
X98568516Y-106081125D01*
X98694794Y-105996748D01*
X98835107Y-105938629D01*
X98934411Y-105918876D01*
X98984062Y-105909000D01*
X99135938Y-105909000D01*
X99185589Y-105918876D01*
G37*
G36*
X147433512Y-103243927D02*
G01*
X147582812Y-103273624D01*
X147746784Y-103341544D01*
X147894354Y-103440147D01*
X148019853Y-103565646D01*
X148118456Y-103713216D01*
X148186376Y-103877188D01*
X148221000Y-104051259D01*
X148221000Y-104228741D01*
X148186376Y-104402812D01*
X148118456Y-104566784D01*
X148019853Y-104714354D01*
X147894354Y-104839853D01*
X147746784Y-104938456D01*
X147582812Y-105006376D01*
X147433512Y-105036073D01*
X147408742Y-105041000D01*
X147231258Y-105041000D01*
X147206488Y-105036073D01*
X147057188Y-105006376D01*
X146893216Y-104938456D01*
X146745646Y-104839853D01*
X146620147Y-104714354D01*
X146521544Y-104566784D01*
X146453624Y-104402812D01*
X146419000Y-104228741D01*
X146419000Y-104051259D01*
X146453624Y-103877188D01*
X146521544Y-103713216D01*
X146620147Y-103565646D01*
X146745646Y-103440147D01*
X146893216Y-103341544D01*
X147057188Y-103273624D01*
X147206488Y-103243927D01*
X147231258Y-103239000D01*
X147408742Y-103239000D01*
X147433512Y-103243927D01*
G37*
G36*
X147433512Y-100703927D02*
G01*
X147582812Y-100733624D01*
X147746784Y-100801544D01*
X147894354Y-100900147D01*
X148019853Y-101025646D01*
X148118456Y-101173216D01*
X148186376Y-101337188D01*
X148221000Y-101511259D01*
X148221000Y-101688741D01*
X148186376Y-101862812D01*
X148118456Y-102026784D01*
X148019853Y-102174354D01*
X147894354Y-102299853D01*
X147746784Y-102398456D01*
X147582812Y-102466376D01*
X147433512Y-102496073D01*
X147408742Y-102501000D01*
X147231258Y-102501000D01*
X147206488Y-102496073D01*
X147057188Y-102466376D01*
X146893216Y-102398456D01*
X146745646Y-102299853D01*
X146620147Y-102174354D01*
X146521544Y-102026784D01*
X146453624Y-101862812D01*
X146419000Y-101688741D01*
X146419000Y-101511259D01*
X146453624Y-101337188D01*
X146521544Y-101173216D01*
X146620147Y-101025646D01*
X146745646Y-100900147D01*
X146893216Y-100801544D01*
X147057188Y-100733624D01*
X147206488Y-100703927D01*
X147231258Y-100699000D01*
X147408742Y-100699000D01*
X147433512Y-100703927D01*
G37*
G36*
X147433512Y-98163927D02*
G01*
X147582812Y-98193624D01*
X147746784Y-98261544D01*
X147894354Y-98360147D01*
X148019853Y-98485646D01*
X148118456Y-98633216D01*
X148186376Y-98797188D01*
X148221000Y-98971259D01*
X148221000Y-99148741D01*
X148186376Y-99322812D01*
X148118456Y-99486784D01*
X148019853Y-99634354D01*
X147894354Y-99759853D01*
X147746784Y-99858456D01*
X147582812Y-99926376D01*
X147433512Y-99956073D01*
X147408742Y-99961000D01*
X147231258Y-99961000D01*
X147206488Y-99956073D01*
X147057188Y-99926376D01*
X146893216Y-99858456D01*
X146745646Y-99759853D01*
X146620147Y-99634354D01*
X146521544Y-99486784D01*
X146453624Y-99322812D01*
X146419000Y-99148741D01*
X146419000Y-98971259D01*
X146453624Y-98797188D01*
X146521544Y-98633216D01*
X146620147Y-98485646D01*
X146745646Y-98360147D01*
X146893216Y-98261544D01*
X147057188Y-98193624D01*
X147206488Y-98163927D01*
X147231258Y-98159000D01*
X147408742Y-98159000D01*
X147433512Y-98163927D01*
G37*
G36*
X148221000Y-97421000D02*
G01*
X146419000Y-97421000D01*
X146419000Y-95619000D01*
X148221000Y-95619000D01*
X148221000Y-97421000D01*
G37*
G36*
X147433512Y-88003927D02*
G01*
X147582812Y-88033624D01*
X147746784Y-88101544D01*
X147894354Y-88200147D01*
X148019853Y-88325646D01*
X148118456Y-88473216D01*
X148186376Y-88637188D01*
X148221000Y-88811259D01*
X148221000Y-88988741D01*
X148186376Y-89162812D01*
X148118456Y-89326784D01*
X148019853Y-89474354D01*
X147894354Y-89599853D01*
X147746784Y-89698456D01*
X147582812Y-89766376D01*
X147433512Y-89796073D01*
X147408742Y-89801000D01*
X147231258Y-89801000D01*
X147206488Y-89796073D01*
X147057188Y-89766376D01*
X146893216Y-89698456D01*
X146745646Y-89599853D01*
X146620147Y-89474354D01*
X146521544Y-89326784D01*
X146453624Y-89162812D01*
X146419000Y-88988741D01*
X146419000Y-88811259D01*
X146453624Y-88637188D01*
X146521544Y-88473216D01*
X146620147Y-88325646D01*
X146745646Y-88200147D01*
X146893216Y-88101544D01*
X147057188Y-88033624D01*
X147206488Y-88003927D01*
X147231258Y-87999000D01*
X147408742Y-87999000D01*
X147433512Y-88003927D01*
G37*
G36*
X144893512Y-88003927D02*
G01*
X145042812Y-88033624D01*
X145206784Y-88101544D01*
X145354354Y-88200147D01*
X145479853Y-88325646D01*
X145578456Y-88473216D01*
X145646376Y-88637188D01*
X145681000Y-88811259D01*
X145681000Y-88988741D01*
X145646376Y-89162812D01*
X145578456Y-89326784D01*
X145479853Y-89474354D01*
X145354354Y-89599853D01*
X145206784Y-89698456D01*
X145042812Y-89766376D01*
X144893512Y-89796073D01*
X144868742Y-89801000D01*
X144691258Y-89801000D01*
X144666488Y-89796073D01*
X144517188Y-89766376D01*
X144353216Y-89698456D01*
X144205646Y-89599853D01*
X144080147Y-89474354D01*
X143981544Y-89326784D01*
X143913624Y-89162812D01*
X143879000Y-88988741D01*
X143879000Y-88811259D01*
X143913624Y-88637188D01*
X143981544Y-88473216D01*
X144080147Y-88325646D01*
X144205646Y-88200147D01*
X144353216Y-88101544D01*
X144517188Y-88033624D01*
X144666488Y-88003927D01*
X144691258Y-87999000D01*
X144868742Y-87999000D01*
X144893512Y-88003927D01*
G37*
G36*
X120978228Y-85795703D02*
G01*
X121133100Y-85859853D01*
X121272481Y-85952985D01*
X121391015Y-86071519D01*
X121484147Y-86210900D01*
X121548297Y-86365772D01*
X121581000Y-86530184D01*
X121581000Y-86697816D01*
X121548297Y-86862228D01*
X121484147Y-87017100D01*
X121391015Y-87156481D01*
X121272481Y-87275015D01*
X121133100Y-87368147D01*
X120978228Y-87432297D01*
X120813816Y-87465000D01*
X120646184Y-87465000D01*
X120481772Y-87432297D01*
X120326900Y-87368147D01*
X120187519Y-87275015D01*
X120068985Y-87156481D01*
X119975853Y-87017100D01*
X119911703Y-86862228D01*
X119879000Y-86697816D01*
X119879000Y-86530184D01*
X119911703Y-86365772D01*
X119975853Y-86210900D01*
X120068985Y-86071519D01*
X120187519Y-85952985D01*
X120326900Y-85859853D01*
X120481772Y-85795703D01*
X120646184Y-85763000D01*
X120813816Y-85763000D01*
X120978228Y-85795703D01*
G37*
G36*
X125978228Y-85795703D02*
G01*
X126133100Y-85859853D01*
X126272481Y-85952985D01*
X126391015Y-86071519D01*
X126484147Y-86210900D01*
X126548297Y-86365772D01*
X126581000Y-86530184D01*
X126581000Y-86697816D01*
X126548297Y-86862228D01*
X126484147Y-87017100D01*
X126391015Y-87156481D01*
X126272481Y-87275015D01*
X126133100Y-87368147D01*
X125978228Y-87432297D01*
X125813816Y-87465000D01*
X125646184Y-87465000D01*
X125481772Y-87432297D01*
X125326900Y-87368147D01*
X125187519Y-87275015D01*
X125068985Y-87156481D01*
X124975853Y-87017100D01*
X124911703Y-86862228D01*
X124879000Y-86697816D01*
X124879000Y-86530184D01*
X124911703Y-86365772D01*
X124975853Y-86210900D01*
X125068985Y-86071519D01*
X125187519Y-85952985D01*
X125326900Y-85859853D01*
X125481772Y-85795703D01*
X125646184Y-85763000D01*
X125813816Y-85763000D01*
X125978228Y-85795703D01*
G37*
G36*
X135884228Y-85795703D02*
G01*
X136039100Y-85859853D01*
X136178481Y-85952985D01*
X136297015Y-86071519D01*
X136390147Y-86210900D01*
X136454297Y-86365772D01*
X136487000Y-86530184D01*
X136487000Y-86697816D01*
X136454297Y-86862228D01*
X136390147Y-87017100D01*
X136297015Y-87156481D01*
X136178481Y-87275015D01*
X136039100Y-87368147D01*
X135884228Y-87432297D01*
X135719816Y-87465000D01*
X135552184Y-87465000D01*
X135387772Y-87432297D01*
X135232900Y-87368147D01*
X135093519Y-87275015D01*
X134974985Y-87156481D01*
X134881853Y-87017100D01*
X134817703Y-86862228D01*
X134785000Y-86697816D01*
X134785000Y-86530184D01*
X134817703Y-86365772D01*
X134881853Y-86210900D01*
X134974985Y-86071519D01*
X135093519Y-85952985D01*
X135232900Y-85859853D01*
X135387772Y-85795703D01*
X135552184Y-85763000D01*
X135719816Y-85763000D01*
X135884228Y-85795703D01*
G37*
G36*
X130884228Y-85795703D02*
G01*
X131039100Y-85859853D01*
X131178481Y-85952985D01*
X131297015Y-86071519D01*
X131390147Y-86210900D01*
X131454297Y-86365772D01*
X131487000Y-86530184D01*
X131487000Y-86697816D01*
X131454297Y-86862228D01*
X131390147Y-87017100D01*
X131297015Y-87156481D01*
X131178481Y-87275015D01*
X131039100Y-87368147D01*
X130884228Y-87432297D01*
X130719816Y-87465000D01*
X130552184Y-87465000D01*
X130387772Y-87432297D01*
X130232900Y-87368147D01*
X130093519Y-87275015D01*
X129974985Y-87156481D01*
X129881853Y-87017100D01*
X129817703Y-86862228D01*
X129785000Y-86697816D01*
X129785000Y-86530184D01*
X129817703Y-86365772D01*
X129881853Y-86210900D01*
X129974985Y-86071519D01*
X130093519Y-85952985D01*
X130232900Y-85859853D01*
X130387772Y-85795703D01*
X130552184Y-85763000D01*
X130719816Y-85763000D01*
X130884228Y-85795703D01*
G37*
G36*
X144893512Y-85463927D02*
G01*
X145042812Y-85493624D01*
X145206784Y-85561544D01*
X145354354Y-85660147D01*
X145479853Y-85785646D01*
X145578456Y-85933216D01*
X145646376Y-86097188D01*
X145681000Y-86271259D01*
X145681000Y-86448741D01*
X145646376Y-86622812D01*
X145578456Y-86786784D01*
X145479853Y-86934354D01*
X145354354Y-87059853D01*
X145206784Y-87158456D01*
X145042812Y-87226376D01*
X144893512Y-87256073D01*
X144868742Y-87261000D01*
X144691258Y-87261000D01*
X144666488Y-87256073D01*
X144517188Y-87226376D01*
X144353216Y-87158456D01*
X144205646Y-87059853D01*
X144080147Y-86934354D01*
X143981544Y-86786784D01*
X143913624Y-86622812D01*
X143879000Y-86448741D01*
X143879000Y-86271259D01*
X143913624Y-86097188D01*
X143981544Y-85933216D01*
X144080147Y-85785646D01*
X144205646Y-85660147D01*
X144353216Y-85561544D01*
X144517188Y-85493624D01*
X144666488Y-85463927D01*
X144691258Y-85459000D01*
X144868742Y-85459000D01*
X144893512Y-85463927D01*
G37*
G36*
X147433512Y-85463927D02*
G01*
X147582812Y-85493624D01*
X147746784Y-85561544D01*
X147894354Y-85660147D01*
X148019853Y-85785646D01*
X148118456Y-85933216D01*
X148186376Y-86097188D01*
X148221000Y-86271259D01*
X148221000Y-86448741D01*
X148186376Y-86622812D01*
X148118456Y-86786784D01*
X148019853Y-86934354D01*
X147894354Y-87059853D01*
X147746784Y-87158456D01*
X147582812Y-87226376D01*
X147433512Y-87256073D01*
X147408742Y-87261000D01*
X147231258Y-87261000D01*
X147206488Y-87256073D01*
X147057188Y-87226376D01*
X146893216Y-87158456D01*
X146745646Y-87059853D01*
X146620147Y-86934354D01*
X146521544Y-86786784D01*
X146453624Y-86622812D01*
X146419000Y-86448741D01*
X146419000Y-86271259D01*
X146453624Y-86097188D01*
X146521544Y-85933216D01*
X146620147Y-85785646D01*
X146745646Y-85660147D01*
X146893216Y-85561544D01*
X147057188Y-85493624D01*
X147206488Y-85463927D01*
X147231258Y-85459000D01*
X147408742Y-85459000D01*
X147433512Y-85463927D01*
G37*
G36*
X145681000Y-84721000D02*
G01*
X143879000Y-84721000D01*
X143879000Y-82919000D01*
X145681000Y-82919000D01*
X145681000Y-84721000D01*
G37*
G36*
X147433512Y-82923927D02*
G01*
X147582812Y-82953624D01*
X147746784Y-83021544D01*
X147894354Y-83120147D01*
X148019853Y-83245646D01*
X148118456Y-83393216D01*
X148186376Y-83557188D01*
X148221000Y-83731259D01*
X148221000Y-83908741D01*
X148186376Y-84082812D01*
X148118456Y-84246784D01*
X148019853Y-84394354D01*
X147894354Y-84519853D01*
X147746784Y-84618456D01*
X147582812Y-84686376D01*
X147433512Y-84716073D01*
X147408742Y-84721000D01*
X147231258Y-84721000D01*
X147206488Y-84716073D01*
X147057188Y-84686376D01*
X146893216Y-84618456D01*
X146745646Y-84519853D01*
X146620147Y-84394354D01*
X146521544Y-84246784D01*
X146453624Y-84082812D01*
X146419000Y-83908741D01*
X146419000Y-83731259D01*
X146453624Y-83557188D01*
X146521544Y-83393216D01*
X146620147Y-83245646D01*
X146745646Y-83120147D01*
X146893216Y-83021544D01*
X147057188Y-82953624D01*
X147206488Y-82923927D01*
X147231258Y-82919000D01*
X147408742Y-82919000D01*
X147433512Y-82923927D01*
G37*
G36*
X147433512Y-75303927D02*
G01*
X147582812Y-75333624D01*
X147746784Y-75401544D01*
X147894354Y-75500147D01*
X148019853Y-75625646D01*
X148118456Y-75773216D01*
X148186376Y-75937188D01*
X148221000Y-76111259D01*
X148221000Y-76288741D01*
X148186376Y-76462812D01*
X148118456Y-76626784D01*
X148019853Y-76774354D01*
X147894354Y-76899853D01*
X147746784Y-76998456D01*
X147582812Y-77066376D01*
X147433512Y-77096073D01*
X147408742Y-77101000D01*
X147231258Y-77101000D01*
X147206488Y-77096073D01*
X147057188Y-77066376D01*
X146893216Y-76998456D01*
X146745646Y-76899853D01*
X146620147Y-76774354D01*
X146521544Y-76626784D01*
X146453624Y-76462812D01*
X146419000Y-76288741D01*
X146419000Y-76111259D01*
X146453624Y-75937188D01*
X146521544Y-75773216D01*
X146620147Y-75625646D01*
X146745646Y-75500147D01*
X146893216Y-75401544D01*
X147057188Y-75333624D01*
X147206488Y-75303927D01*
X147231258Y-75299000D01*
X147408742Y-75299000D01*
X147433512Y-75303927D01*
G37*
G36*
X94093512Y-75303927D02*
G01*
X94242812Y-75333624D01*
X94406784Y-75401544D01*
X94554354Y-75500147D01*
X94679853Y-75625646D01*
X94778456Y-75773216D01*
X94846376Y-75937188D01*
X94881000Y-76111259D01*
X94881000Y-76288741D01*
X94846376Y-76462812D01*
X94778456Y-76626784D01*
X94679853Y-76774354D01*
X94554354Y-76899853D01*
X94406784Y-76998456D01*
X94242812Y-77066376D01*
X94093512Y-77096073D01*
X94068742Y-77101000D01*
X93891258Y-77101000D01*
X93866488Y-77096073D01*
X93717188Y-77066376D01*
X93553216Y-76998456D01*
X93405646Y-76899853D01*
X93280147Y-76774354D01*
X93181544Y-76626784D01*
X93113624Y-76462812D01*
X93079000Y-76288741D01*
X93079000Y-76111259D01*
X93113624Y-75937188D01*
X93181544Y-75773216D01*
X93280147Y-75625646D01*
X93405646Y-75500147D01*
X93553216Y-75401544D01*
X93717188Y-75333624D01*
X93866488Y-75303927D01*
X93891258Y-75299000D01*
X94068742Y-75299000D01*
X94093512Y-75303927D01*
G37*
G36*
X94093512Y-72763927D02*
G01*
X94242812Y-72793624D01*
X94406784Y-72861544D01*
X94554354Y-72960147D01*
X94679853Y-73085646D01*
X94778456Y-73233216D01*
X94846376Y-73397188D01*
X94881000Y-73571259D01*
X94881000Y-73748741D01*
X94846376Y-73922812D01*
X94778456Y-74086784D01*
X94679853Y-74234354D01*
X94554354Y-74359853D01*
X94406784Y-74458456D01*
X94242812Y-74526376D01*
X94093512Y-74556073D01*
X94068742Y-74561000D01*
X93891258Y-74561000D01*
X93866488Y-74556073D01*
X93717188Y-74526376D01*
X93553216Y-74458456D01*
X93405646Y-74359853D01*
X93280147Y-74234354D01*
X93181544Y-74086784D01*
X93113624Y-73922812D01*
X93079000Y-73748741D01*
X93079000Y-73571259D01*
X93113624Y-73397188D01*
X93181544Y-73233216D01*
X93280147Y-73085646D01*
X93405646Y-72960147D01*
X93553216Y-72861544D01*
X93717188Y-72793624D01*
X93866488Y-72763927D01*
X93891258Y-72759000D01*
X94068742Y-72759000D01*
X94093512Y-72763927D01*
G37*
G36*
X147433512Y-72763927D02*
G01*
X147582812Y-72793624D01*
X147746784Y-72861544D01*
X147894354Y-72960147D01*
X148019853Y-73085646D01*
X148118456Y-73233216D01*
X148186376Y-73397188D01*
X148221000Y-73571259D01*
X148221000Y-73748741D01*
X148186376Y-73922812D01*
X148118456Y-74086784D01*
X148019853Y-74234354D01*
X147894354Y-74359853D01*
X147746784Y-74458456D01*
X147582812Y-74526376D01*
X147433512Y-74556073D01*
X147408742Y-74561000D01*
X147231258Y-74561000D01*
X147206488Y-74556073D01*
X147057188Y-74526376D01*
X146893216Y-74458456D01*
X146745646Y-74359853D01*
X146620147Y-74234354D01*
X146521544Y-74086784D01*
X146453624Y-73922812D01*
X146419000Y-73748741D01*
X146419000Y-73571259D01*
X146453624Y-73397188D01*
X146521544Y-73233216D01*
X146620147Y-73085646D01*
X146745646Y-72960147D01*
X146893216Y-72861544D01*
X147057188Y-72793624D01*
X147206488Y-72763927D01*
X147231258Y-72759000D01*
X147408742Y-72759000D01*
X147433512Y-72763927D01*
G37*
G36*
X147433512Y-70223927D02*
G01*
X147582812Y-70253624D01*
X147746784Y-70321544D01*
X147894354Y-70420147D01*
X148019853Y-70545646D01*
X148118456Y-70693216D01*
X148186376Y-70857188D01*
X148221000Y-71031259D01*
X148221000Y-71208741D01*
X148186376Y-71382812D01*
X148118456Y-71546784D01*
X148019853Y-71694354D01*
X147894354Y-71819853D01*
X147746784Y-71918456D01*
X147582812Y-71986376D01*
X147433512Y-72016073D01*
X147408742Y-72021000D01*
X147231258Y-72021000D01*
X147206488Y-72016073D01*
X147057188Y-71986376D01*
X146893216Y-71918456D01*
X146745646Y-71819853D01*
X146620147Y-71694354D01*
X146521544Y-71546784D01*
X146453624Y-71382812D01*
X146419000Y-71208741D01*
X146419000Y-71031259D01*
X146453624Y-70857188D01*
X146521544Y-70693216D01*
X146620147Y-70545646D01*
X146745646Y-70420147D01*
X146893216Y-70321544D01*
X147057188Y-70253624D01*
X147206488Y-70223927D01*
X147231258Y-70219000D01*
X147408742Y-70219000D01*
X147433512Y-70223927D01*
G37*
G36*
X94093512Y-70223927D02*
G01*
X94242812Y-70253624D01*
X94406784Y-70321544D01*
X94554354Y-70420147D01*
X94679853Y-70545646D01*
X94778456Y-70693216D01*
X94846376Y-70857188D01*
X94881000Y-71031259D01*
X94881000Y-71208741D01*
X94846376Y-71382812D01*
X94778456Y-71546784D01*
X94679853Y-71694354D01*
X94554354Y-71819853D01*
X94406784Y-71918456D01*
X94242812Y-71986376D01*
X94093512Y-72016073D01*
X94068742Y-72021000D01*
X93891258Y-72021000D01*
X93866488Y-72016073D01*
X93717188Y-71986376D01*
X93553216Y-71918456D01*
X93405646Y-71819853D01*
X93280147Y-71694354D01*
X93181544Y-71546784D01*
X93113624Y-71382812D01*
X93079000Y-71208741D01*
X93079000Y-71031259D01*
X93113624Y-70857188D01*
X93181544Y-70693216D01*
X93280147Y-70545646D01*
X93405646Y-70420147D01*
X93553216Y-70321544D01*
X93717188Y-70253624D01*
X93866488Y-70223927D01*
X93891258Y-70219000D01*
X94068742Y-70219000D01*
X94093512Y-70223927D01*
G37*
G36*
X148221000Y-69481000D02*
G01*
X146419000Y-69481000D01*
X146419000Y-67679000D01*
X148221000Y-67679000D01*
X148221000Y-69481000D01*
G37*
G36*
X94881000Y-69481000D02*
G01*
X93079000Y-69481000D01*
X93079000Y-67679000D01*
X94881000Y-67679000D01*
X94881000Y-69481000D01*
G37*
M02*
