G04 #@! TF.GenerationSoftware,KiCad,Pcbnew,5.1.6-c6e7f7d~87~ubuntu18.04.1*
G04 #@! TF.CreationDate,2020-08-18T13:39:28-04:00*
G04 #@! TF.ProjectId,2164SVF,32313634-5356-4462-9e6b-696361645f70,0*
G04 #@! TF.SameCoordinates,Original*
G04 #@! TF.FileFunction,Legend,Bot*
G04 #@! TF.FilePolarity,Positive*
%FSLAX46Y46*%
G04 Gerber Fmt 4.6, Leading zero omitted, Abs format (unit mm)*
G04 Created by KiCad (PCBNEW 5.1.6-c6e7f7d~87~ubuntu18.04.1) date 2020-08-18 13:39:28*
%MOMM*%
%LPD*%
G01*
G04 APERTURE LIST*
%ADD10C,0.150000*%
%ADD11C,0.120000*%
G04 APERTURE END LIST*
D10*
X145127023Y-67112619D02*
X145079404Y-67065000D01*
X144984166Y-67017380D01*
X144746071Y-67017380D01*
X144650833Y-67065000D01*
X144603214Y-67112619D01*
X144555595Y-67207857D01*
X144555595Y-67303095D01*
X144603214Y-67445952D01*
X145174642Y-68017380D01*
X144555595Y-68017380D01*
X143603214Y-68017380D02*
X144174642Y-68017380D01*
X143888928Y-68017380D02*
X143888928Y-67017380D01*
X143984166Y-67160238D01*
X144079404Y-67255476D01*
X144174642Y-67303095D01*
X142746071Y-67017380D02*
X142936547Y-67017380D01*
X143031785Y-67065000D01*
X143079404Y-67112619D01*
X143174642Y-67255476D01*
X143222261Y-67445952D01*
X143222261Y-67826904D01*
X143174642Y-67922142D01*
X143127023Y-67969761D01*
X143031785Y-68017380D01*
X142841309Y-68017380D01*
X142746071Y-67969761D01*
X142698452Y-67922142D01*
X142650833Y-67826904D01*
X142650833Y-67588809D01*
X142698452Y-67493571D01*
X142746071Y-67445952D01*
X142841309Y-67398333D01*
X143031785Y-67398333D01*
X143127023Y-67445952D01*
X143174642Y-67493571D01*
X143222261Y-67588809D01*
X141793690Y-67350714D02*
X141793690Y-68017380D01*
X142031785Y-66969761D02*
X142269880Y-67684047D01*
X141650833Y-67684047D01*
X141507976Y-68112619D02*
X140746071Y-68112619D01*
X140555595Y-67969761D02*
X140412738Y-68017380D01*
X140174642Y-68017380D01*
X140079404Y-67969761D01*
X140031785Y-67922142D01*
X139984166Y-67826904D01*
X139984166Y-67731666D01*
X140031785Y-67636428D01*
X140079404Y-67588809D01*
X140174642Y-67541190D01*
X140365119Y-67493571D01*
X140460357Y-67445952D01*
X140507976Y-67398333D01*
X140555595Y-67303095D01*
X140555595Y-67207857D01*
X140507976Y-67112619D01*
X140460357Y-67065000D01*
X140365119Y-67017380D01*
X140127023Y-67017380D01*
X139984166Y-67065000D01*
X139698452Y-67017380D02*
X139365119Y-68017380D01*
X139031785Y-67017380D01*
X138365119Y-67493571D02*
X138698452Y-67493571D01*
X138698452Y-68017380D02*
X138698452Y-67017380D01*
X138222261Y-67017380D01*
X138079404Y-68112619D02*
X137317500Y-68112619D01*
X137079404Y-67350714D02*
X137079404Y-68350714D01*
X137079404Y-67398333D02*
X136984166Y-67350714D01*
X136793690Y-67350714D01*
X136698452Y-67398333D01*
X136650833Y-67445952D01*
X136603214Y-67541190D01*
X136603214Y-67826904D01*
X136650833Y-67922142D01*
X136698452Y-67969761D01*
X136793690Y-68017380D01*
X136984166Y-68017380D01*
X137079404Y-67969761D01*
X136031785Y-68017380D02*
X136127023Y-67969761D01*
X136174642Y-67874523D01*
X136174642Y-67017380D01*
X135222261Y-67350714D02*
X135222261Y-68017380D01*
X135650833Y-67350714D02*
X135650833Y-67874523D01*
X135603214Y-67969761D01*
X135507976Y-68017380D01*
X135365119Y-68017380D01*
X135269880Y-67969761D01*
X135222261Y-67922142D01*
X134317500Y-67350714D02*
X134317500Y-68160238D01*
X134365119Y-68255476D01*
X134412738Y-68303095D01*
X134507976Y-68350714D01*
X134650833Y-68350714D01*
X134746071Y-68303095D01*
X134317500Y-67969761D02*
X134412738Y-68017380D01*
X134603214Y-68017380D01*
X134698452Y-67969761D01*
X134746071Y-67922142D01*
X134793690Y-67826904D01*
X134793690Y-67541190D01*
X134746071Y-67445952D01*
X134698452Y-67398333D01*
X134603214Y-67350714D01*
X134412738Y-67350714D01*
X134317500Y-67398333D01*
X134079404Y-68112619D02*
X133317500Y-68112619D01*
X133079404Y-68017380D02*
X133079404Y-67350714D01*
X133079404Y-67017380D02*
X133127023Y-67065000D01*
X133079404Y-67112619D01*
X133031785Y-67065000D01*
X133079404Y-67017380D01*
X133079404Y-67112619D01*
X132603214Y-67350714D02*
X132603214Y-68017380D01*
X132603214Y-67445952D02*
X132555595Y-67398333D01*
X132460357Y-67350714D01*
X132317500Y-67350714D01*
X132222261Y-67398333D01*
X132174642Y-67493571D01*
X132174642Y-68017380D01*
X131936547Y-68112619D02*
X131174642Y-68112619D01*
X130936547Y-68017380D02*
X130936547Y-67017380D01*
X130936547Y-67398333D02*
X130841309Y-67350714D01*
X130650833Y-67350714D01*
X130555595Y-67398333D01*
X130507976Y-67445952D01*
X130460357Y-67541190D01*
X130460357Y-67826904D01*
X130507976Y-67922142D01*
X130555595Y-67969761D01*
X130650833Y-68017380D01*
X130841309Y-68017380D01*
X130936547Y-67969761D01*
X129888928Y-68017380D02*
X129984166Y-67969761D01*
X130031785Y-67922142D01*
X130079404Y-67826904D01*
X130079404Y-67541190D01*
X130031785Y-67445952D01*
X129984166Y-67398333D01*
X129888928Y-67350714D01*
X129746071Y-67350714D01*
X129650833Y-67398333D01*
X129603214Y-67445952D01*
X129555595Y-67541190D01*
X129555595Y-67826904D01*
X129603214Y-67922142D01*
X129650833Y-67969761D01*
X129746071Y-68017380D01*
X129888928Y-68017380D01*
X128698452Y-68017380D02*
X128698452Y-67493571D01*
X128746071Y-67398333D01*
X128841309Y-67350714D01*
X129031785Y-67350714D01*
X129127023Y-67398333D01*
X128698452Y-67969761D02*
X128793690Y-68017380D01*
X129031785Y-68017380D01*
X129127023Y-67969761D01*
X129174642Y-67874523D01*
X129174642Y-67779285D01*
X129127023Y-67684047D01*
X129031785Y-67636428D01*
X128793690Y-67636428D01*
X128698452Y-67588809D01*
X128222261Y-68017380D02*
X128222261Y-67350714D01*
X128222261Y-67541190D02*
X128174642Y-67445952D01*
X128127023Y-67398333D01*
X128031785Y-67350714D01*
X127936547Y-67350714D01*
X127174642Y-68017380D02*
X127174642Y-67017380D01*
X127174642Y-67969761D02*
X127269880Y-68017380D01*
X127460357Y-68017380D01*
X127555595Y-67969761D01*
X127603214Y-67922142D01*
X127650833Y-67826904D01*
X127650833Y-67541190D01*
X127603214Y-67445952D01*
X127555595Y-67398333D01*
X127460357Y-67350714D01*
X127269880Y-67350714D01*
X127174642Y-67398333D01*
X145079404Y-69667380D02*
X145079404Y-69000714D01*
X145079404Y-69191190D02*
X145031785Y-69095952D01*
X144984166Y-69048333D01*
X144888928Y-69000714D01*
X144793690Y-69000714D01*
X144079404Y-69619761D02*
X144174642Y-69667380D01*
X144365119Y-69667380D01*
X144460357Y-69619761D01*
X144507976Y-69524523D01*
X144507976Y-69143571D01*
X144460357Y-69048333D01*
X144365119Y-69000714D01*
X144174642Y-69000714D01*
X144079404Y-69048333D01*
X144031785Y-69143571D01*
X144031785Y-69238809D01*
X144507976Y-69334047D01*
X143698452Y-69000714D02*
X143460357Y-69667380D01*
X143222261Y-69000714D01*
X141888928Y-68667380D02*
X141793690Y-68667380D01*
X141698452Y-68715000D01*
X141650833Y-68762619D01*
X141603214Y-68857857D01*
X141555595Y-69048333D01*
X141555595Y-69286428D01*
X141603214Y-69476904D01*
X141650833Y-69572142D01*
X141698452Y-69619761D01*
X141793690Y-69667380D01*
X141888928Y-69667380D01*
X141984166Y-69619761D01*
X142031785Y-69572142D01*
X142079404Y-69476904D01*
X142127023Y-69286428D01*
X142127023Y-69048333D01*
X142079404Y-68857857D01*
X142031785Y-68762619D01*
X141984166Y-68715000D01*
X141888928Y-68667380D01*
X145127023Y-70412619D02*
X145079404Y-70365000D01*
X144984166Y-70317380D01*
X144746071Y-70317380D01*
X144650833Y-70365000D01*
X144603214Y-70412619D01*
X144555595Y-70507857D01*
X144555595Y-70603095D01*
X144603214Y-70745952D01*
X145174642Y-71317380D01*
X144555595Y-71317380D01*
X143936547Y-70317380D02*
X143841309Y-70317380D01*
X143746071Y-70365000D01*
X143698452Y-70412619D01*
X143650833Y-70507857D01*
X143603214Y-70698333D01*
X143603214Y-70936428D01*
X143650833Y-71126904D01*
X143698452Y-71222142D01*
X143746071Y-71269761D01*
X143841309Y-71317380D01*
X143936547Y-71317380D01*
X144031785Y-71269761D01*
X144079404Y-71222142D01*
X144127023Y-71126904D01*
X144174642Y-70936428D01*
X144174642Y-70698333D01*
X144127023Y-70507857D01*
X144079404Y-70412619D01*
X144031785Y-70365000D01*
X143936547Y-70317380D01*
X143222261Y-70412619D02*
X143174642Y-70365000D01*
X143079404Y-70317380D01*
X142841309Y-70317380D01*
X142746071Y-70365000D01*
X142698452Y-70412619D01*
X142650833Y-70507857D01*
X142650833Y-70603095D01*
X142698452Y-70745952D01*
X143269880Y-71317380D01*
X142650833Y-71317380D01*
X142031785Y-70317380D02*
X141936547Y-70317380D01*
X141841309Y-70365000D01*
X141793690Y-70412619D01*
X141746071Y-70507857D01*
X141698452Y-70698333D01*
X141698452Y-70936428D01*
X141746071Y-71126904D01*
X141793690Y-71222142D01*
X141841309Y-71269761D01*
X141936547Y-71317380D01*
X142031785Y-71317380D01*
X142127023Y-71269761D01*
X142174642Y-71222142D01*
X142222261Y-71126904D01*
X142269880Y-70936428D01*
X142269880Y-70698333D01*
X142222261Y-70507857D01*
X142174642Y-70412619D01*
X142127023Y-70365000D01*
X142031785Y-70317380D01*
X141269880Y-70936428D02*
X140507976Y-70936428D01*
X139841309Y-70317380D02*
X139746071Y-70317380D01*
X139650833Y-70365000D01*
X139603214Y-70412619D01*
X139555595Y-70507857D01*
X139507976Y-70698333D01*
X139507976Y-70936428D01*
X139555595Y-71126904D01*
X139603214Y-71222142D01*
X139650833Y-71269761D01*
X139746071Y-71317380D01*
X139841309Y-71317380D01*
X139936547Y-71269761D01*
X139984166Y-71222142D01*
X140031785Y-71126904D01*
X140079404Y-70936428D01*
X140079404Y-70698333D01*
X140031785Y-70507857D01*
X139984166Y-70412619D01*
X139936547Y-70365000D01*
X139841309Y-70317380D01*
X138936547Y-70745952D02*
X139031785Y-70698333D01*
X139079404Y-70650714D01*
X139127023Y-70555476D01*
X139127023Y-70507857D01*
X139079404Y-70412619D01*
X139031785Y-70365000D01*
X138936547Y-70317380D01*
X138746071Y-70317380D01*
X138650833Y-70365000D01*
X138603214Y-70412619D01*
X138555595Y-70507857D01*
X138555595Y-70555476D01*
X138603214Y-70650714D01*
X138650833Y-70698333D01*
X138746071Y-70745952D01*
X138936547Y-70745952D01*
X139031785Y-70793571D01*
X139079404Y-70841190D01*
X139127023Y-70936428D01*
X139127023Y-71126904D01*
X139079404Y-71222142D01*
X139031785Y-71269761D01*
X138936547Y-71317380D01*
X138746071Y-71317380D01*
X138650833Y-71269761D01*
X138603214Y-71222142D01*
X138555595Y-71126904D01*
X138555595Y-70936428D01*
X138603214Y-70841190D01*
X138650833Y-70793571D01*
X138746071Y-70745952D01*
X138127023Y-70936428D02*
X137365119Y-70936428D01*
X136698452Y-70317380D02*
X136603214Y-70317380D01*
X136507976Y-70365000D01*
X136460357Y-70412619D01*
X136412738Y-70507857D01*
X136365119Y-70698333D01*
X136365119Y-70936428D01*
X136412738Y-71126904D01*
X136460357Y-71222142D01*
X136507976Y-71269761D01*
X136603214Y-71317380D01*
X136698452Y-71317380D01*
X136793690Y-71269761D01*
X136841309Y-71222142D01*
X136888928Y-71126904D01*
X136936547Y-70936428D01*
X136936547Y-70698333D01*
X136888928Y-70507857D01*
X136841309Y-70412619D01*
X136793690Y-70365000D01*
X136698452Y-70317380D01*
X135507976Y-70650714D02*
X135507976Y-71317380D01*
X135746071Y-70269761D02*
X135984166Y-70984047D01*
X135365119Y-70984047D01*
D11*
X148650000Y-115630000D02*
X145990000Y-115630000D01*
X148650000Y-97790000D02*
X148650000Y-115630000D01*
X145990000Y-97790000D02*
X145990000Y-115630000D01*
X148650000Y-97790000D02*
X145990000Y-97790000D01*
X148650000Y-96520000D02*
X148650000Y-95190000D01*
X148650000Y-95190000D02*
X147320000Y-95190000D01*
X148650000Y-77530000D02*
X145990000Y-77530000D01*
X148650000Y-69850000D02*
X148650000Y-77530000D01*
X145990000Y-69850000D02*
X145990000Y-77530000D01*
X148650000Y-69850000D02*
X145990000Y-69850000D01*
X148650000Y-68580000D02*
X148650000Y-67250000D01*
X148650000Y-67250000D02*
X147320000Y-67250000D01*
X95310000Y-115630000D02*
X92650000Y-115630000D01*
X95310000Y-107950000D02*
X95310000Y-115630000D01*
X92650000Y-107950000D02*
X92650000Y-115630000D01*
X95310000Y-107950000D02*
X92650000Y-107950000D01*
X95310000Y-106680000D02*
X95310000Y-105350000D01*
X95310000Y-105350000D02*
X93980000Y-105350000D01*
X95310000Y-77530000D02*
X92650000Y-77530000D01*
X95310000Y-69850000D02*
X95310000Y-77530000D01*
X92650000Y-69850000D02*
X92650000Y-77530000D01*
X95310000Y-69850000D02*
X92650000Y-69850000D01*
X95310000Y-68580000D02*
X95310000Y-67250000D01*
X95310000Y-67250000D02*
X93980000Y-67250000D01*
D10*
X147653333Y-93642380D02*
X147653333Y-94356666D01*
X147700952Y-94499523D01*
X147796190Y-94594761D01*
X147939047Y-94642380D01*
X148034285Y-94642380D01*
X146748571Y-93975714D02*
X146748571Y-94642380D01*
X146986666Y-93594761D02*
X147224761Y-94309047D01*
X146605714Y-94309047D01*
X147653333Y-78192380D02*
X147653333Y-78906666D01*
X147700952Y-79049523D01*
X147796190Y-79144761D01*
X147939047Y-79192380D01*
X148034285Y-79192380D01*
X147272380Y-78192380D02*
X146653333Y-78192380D01*
X146986666Y-78573333D01*
X146843809Y-78573333D01*
X146748571Y-78620952D01*
X146700952Y-78668571D01*
X146653333Y-78763809D01*
X146653333Y-79001904D01*
X146700952Y-79097142D01*
X146748571Y-79144761D01*
X146843809Y-79192380D01*
X147129523Y-79192380D01*
X147224761Y-79144761D01*
X147272380Y-79097142D01*
X94313333Y-103802380D02*
X94313333Y-104516666D01*
X94360952Y-104659523D01*
X94456190Y-104754761D01*
X94599047Y-104802380D01*
X94694285Y-104802380D01*
X93884761Y-103897619D02*
X93837142Y-103850000D01*
X93741904Y-103802380D01*
X93503809Y-103802380D01*
X93408571Y-103850000D01*
X93360952Y-103897619D01*
X93313333Y-103992857D01*
X93313333Y-104088095D01*
X93360952Y-104230952D01*
X93932380Y-104802380D01*
X93313333Y-104802380D01*
X94313333Y-78192380D02*
X94313333Y-78906666D01*
X94360952Y-79049523D01*
X94456190Y-79144761D01*
X94599047Y-79192380D01*
X94694285Y-79192380D01*
X93313333Y-79192380D02*
X93884761Y-79192380D01*
X93599047Y-79192380D02*
X93599047Y-78192380D01*
X93694285Y-78335238D01*
X93789523Y-78430476D01*
X93884761Y-78478095D01*
M02*
