G04 #@! TF.GenerationSoftware,KiCad,Pcbnew,5.1.6-c6e7f7d~87~ubuntu18.04.1*
G04 #@! TF.CreationDate,2020-08-18T13:39:28-04:00*
G04 #@! TF.ProjectId,2164SVF,32313634-5356-4462-9e6b-696361645f70,0*
G04 #@! TF.SameCoordinates,Original*
G04 #@! TF.FileFunction,Legend,Top*
G04 #@! TF.FilePolarity,Positive*
%FSLAX46Y46*%
G04 Gerber Fmt 4.6, Leading zero omitted, Abs format (unit mm)*
G04 Created by KiCad (PCBNEW 5.1.6-c6e7f7d~87~ubuntu18.04.1) date 2020-08-18 13:39:28*
%MOMM*%
%LPD*%
G01*
G04 APERTURE LIST*
%ADD10C,0.150000*%
%ADD11C,0.120000*%
G04 APERTURE END LIST*
D10*
X108521904Y-115355714D02*
X108902857Y-115355714D01*
X108664761Y-116022380D02*
X108664761Y-115165238D01*
X108712380Y-115070000D01*
X108807619Y-115022380D01*
X108902857Y-115022380D01*
X109617142Y-115974761D02*
X109521904Y-116022380D01*
X109331428Y-116022380D01*
X109236190Y-115974761D01*
X109188571Y-115879523D01*
X109188571Y-115498571D01*
X109236190Y-115403333D01*
X109331428Y-115355714D01*
X109521904Y-115355714D01*
X109617142Y-115403333D01*
X109664761Y-115498571D01*
X109664761Y-115593809D01*
X109188571Y-115689047D01*
X110474285Y-115974761D02*
X110379047Y-116022380D01*
X110188571Y-116022380D01*
X110093333Y-115974761D01*
X110045714Y-115879523D01*
X110045714Y-115498571D01*
X110093333Y-115403333D01*
X110188571Y-115355714D01*
X110379047Y-115355714D01*
X110474285Y-115403333D01*
X110521904Y-115498571D01*
X110521904Y-115593809D01*
X110045714Y-115689047D01*
X111379047Y-116022380D02*
X111379047Y-115022380D01*
X111379047Y-115974761D02*
X111283809Y-116022380D01*
X111093333Y-116022380D01*
X110998095Y-115974761D01*
X110950476Y-115927142D01*
X110902857Y-115831904D01*
X110902857Y-115546190D01*
X110950476Y-115450952D01*
X110998095Y-115403333D01*
X111093333Y-115355714D01*
X111283809Y-115355714D01*
X111379047Y-115403333D01*
X111855238Y-116022380D02*
X111855238Y-115022380D01*
X111855238Y-115403333D02*
X111950476Y-115355714D01*
X112140952Y-115355714D01*
X112236190Y-115403333D01*
X112283809Y-115450952D01*
X112331428Y-115546190D01*
X112331428Y-115831904D01*
X112283809Y-115927142D01*
X112236190Y-115974761D01*
X112140952Y-116022380D01*
X111950476Y-116022380D01*
X111855238Y-115974761D01*
X113188571Y-116022380D02*
X113188571Y-115498571D01*
X113140952Y-115403333D01*
X113045714Y-115355714D01*
X112855238Y-115355714D01*
X112760000Y-115403333D01*
X113188571Y-115974761D02*
X113093333Y-116022380D01*
X112855238Y-116022380D01*
X112760000Y-115974761D01*
X112712380Y-115879523D01*
X112712380Y-115784285D01*
X112760000Y-115689047D01*
X112855238Y-115641428D01*
X113093333Y-115641428D01*
X113188571Y-115593809D01*
X114093333Y-115974761D02*
X113998095Y-116022380D01*
X113807619Y-116022380D01*
X113712380Y-115974761D01*
X113664761Y-115927142D01*
X113617142Y-115831904D01*
X113617142Y-115546190D01*
X113664761Y-115450952D01*
X113712380Y-115403333D01*
X113807619Y-115355714D01*
X113998095Y-115355714D01*
X114093333Y-115403333D01*
X114521904Y-116022380D02*
X114521904Y-115022380D01*
X114617142Y-115641428D02*
X114902857Y-116022380D01*
X114902857Y-115355714D02*
X114521904Y-115736666D01*
X103743333Y-115974761D02*
X103648095Y-116022380D01*
X103457619Y-116022380D01*
X103362380Y-115974761D01*
X103314761Y-115927142D01*
X103267142Y-115831904D01*
X103267142Y-115546190D01*
X103314761Y-115450952D01*
X103362380Y-115403333D01*
X103457619Y-115355714D01*
X103648095Y-115355714D01*
X103743333Y-115403333D01*
X104552857Y-115974761D02*
X104457619Y-116022380D01*
X104267142Y-116022380D01*
X104171904Y-115974761D01*
X104124285Y-115879523D01*
X104124285Y-115498571D01*
X104171904Y-115403333D01*
X104267142Y-115355714D01*
X104457619Y-115355714D01*
X104552857Y-115403333D01*
X104600476Y-115498571D01*
X104600476Y-115593809D01*
X104124285Y-115689047D01*
X105029047Y-115355714D02*
X105029047Y-116022380D01*
X105029047Y-115450952D02*
X105076666Y-115403333D01*
X105171904Y-115355714D01*
X105314761Y-115355714D01*
X105410000Y-115403333D01*
X105457619Y-115498571D01*
X105457619Y-116022380D01*
X105790952Y-115355714D02*
X106171904Y-115355714D01*
X105933809Y-115022380D02*
X105933809Y-115879523D01*
X105981428Y-115974761D01*
X106076666Y-116022380D01*
X106171904Y-116022380D01*
X106886190Y-115974761D02*
X106790952Y-116022380D01*
X106600476Y-116022380D01*
X106505238Y-115974761D01*
X106457619Y-115879523D01*
X106457619Y-115498571D01*
X106505238Y-115403333D01*
X106600476Y-115355714D01*
X106790952Y-115355714D01*
X106886190Y-115403333D01*
X106933809Y-115498571D01*
X106933809Y-115593809D01*
X106457619Y-115689047D01*
X107362380Y-116022380D02*
X107362380Y-115355714D01*
X107362380Y-115546190D02*
X107410000Y-115450952D01*
X107457619Y-115403333D01*
X107552857Y-115355714D01*
X107648095Y-115355714D01*
X97655238Y-116022380D02*
X97655238Y-115022380D01*
X97655238Y-115974761D02*
X97560000Y-116022380D01*
X97369523Y-116022380D01*
X97274285Y-115974761D01*
X97226666Y-115927142D01*
X97179047Y-115831904D01*
X97179047Y-115546190D01*
X97226666Y-115450952D01*
X97274285Y-115403333D01*
X97369523Y-115355714D01*
X97560000Y-115355714D01*
X97655238Y-115403333D01*
X98512380Y-115974761D02*
X98417142Y-116022380D01*
X98226666Y-116022380D01*
X98131428Y-115974761D01*
X98083809Y-115879523D01*
X98083809Y-115498571D01*
X98131428Y-115403333D01*
X98226666Y-115355714D01*
X98417142Y-115355714D01*
X98512380Y-115403333D01*
X98560000Y-115498571D01*
X98560000Y-115593809D01*
X98083809Y-115689047D01*
X98988571Y-115355714D02*
X98988571Y-116355714D01*
X98988571Y-115403333D02*
X99083809Y-115355714D01*
X99274285Y-115355714D01*
X99369523Y-115403333D01*
X99417142Y-115450952D01*
X99464761Y-115546190D01*
X99464761Y-115831904D01*
X99417142Y-115927142D01*
X99369523Y-115974761D01*
X99274285Y-116022380D01*
X99083809Y-116022380D01*
X98988571Y-115974761D01*
X99750476Y-115355714D02*
X100131428Y-115355714D01*
X99893333Y-115022380D02*
X99893333Y-115879523D01*
X99940952Y-115974761D01*
X100036190Y-116022380D01*
X100131428Y-116022380D01*
X100464761Y-116022380D02*
X100464761Y-115022380D01*
X100893333Y-116022380D02*
X100893333Y-115498571D01*
X100845714Y-115403333D01*
X100750476Y-115355714D01*
X100607619Y-115355714D01*
X100512380Y-115403333D01*
X100464761Y-115450952D01*
X141271666Y-89352380D02*
X141176428Y-89304761D01*
X141128809Y-89209523D01*
X141128809Y-88352380D01*
X141652619Y-88685714D02*
X141652619Y-89685714D01*
X141652619Y-88733333D02*
X141747857Y-88685714D01*
X141938333Y-88685714D01*
X142033571Y-88733333D01*
X142081190Y-88780952D01*
X142128809Y-88876190D01*
X142128809Y-89161904D01*
X142081190Y-89257142D01*
X142033571Y-89304761D01*
X141938333Y-89352380D01*
X141747857Y-89352380D01*
X141652619Y-89304761D01*
X140938333Y-86812380D02*
X140938333Y-85812380D01*
X140938333Y-86193333D02*
X141033571Y-86145714D01*
X141224047Y-86145714D01*
X141319285Y-86193333D01*
X141366904Y-86240952D01*
X141414523Y-86336190D01*
X141414523Y-86621904D01*
X141366904Y-86717142D01*
X141319285Y-86764761D01*
X141224047Y-86812380D01*
X141033571Y-86812380D01*
X140938333Y-86764761D01*
X141843095Y-86145714D02*
X141843095Y-87145714D01*
X141843095Y-86193333D02*
X141938333Y-86145714D01*
X142128809Y-86145714D01*
X142224047Y-86193333D01*
X142271666Y-86240952D01*
X142319285Y-86336190D01*
X142319285Y-86621904D01*
X142271666Y-86717142D01*
X142224047Y-86764761D01*
X142128809Y-86812380D01*
X141938333Y-86812380D01*
X141843095Y-86764761D01*
X140938333Y-84272380D02*
X140938333Y-83272380D01*
X141366904Y-84272380D02*
X141366904Y-83748571D01*
X141319285Y-83653333D01*
X141224047Y-83605714D01*
X141081190Y-83605714D01*
X140985952Y-83653333D01*
X140938333Y-83700952D01*
X141843095Y-83605714D02*
X141843095Y-84605714D01*
X141843095Y-83653333D02*
X141938333Y-83605714D01*
X142128809Y-83605714D01*
X142224047Y-83653333D01*
X142271666Y-83700952D01*
X142319285Y-83796190D01*
X142319285Y-84081904D01*
X142271666Y-84177142D01*
X142224047Y-84224761D01*
X142128809Y-84272380D01*
X141938333Y-84272380D01*
X141843095Y-84224761D01*
D11*
X143450000Y-90230000D02*
X148650000Y-90230000D01*
X143450000Y-85090000D02*
X143450000Y-90230000D01*
X148650000Y-82490000D02*
X148650000Y-90230000D01*
X143450000Y-85090000D02*
X146050000Y-85090000D01*
X146050000Y-85090000D02*
X146050000Y-82490000D01*
X146050000Y-82490000D02*
X148650000Y-82490000D01*
X143450000Y-83820000D02*
X143450000Y-82490000D01*
X143450000Y-82490000D02*
X144780000Y-82490000D01*
X114290000Y-104335000D02*
X114290000Y-114105000D01*
X109220000Y-104335000D02*
X109220000Y-114105000D01*
X114290000Y-104335000D02*
X109220000Y-104335000D01*
X114290000Y-114105000D02*
X109220000Y-114105000D01*
X107940000Y-104335000D02*
X107940000Y-114105000D01*
X102870000Y-104335000D02*
X102870000Y-114105000D01*
X107940000Y-104335000D02*
X102870000Y-104335000D01*
X107940000Y-114105000D02*
X102870000Y-114105000D01*
X101590000Y-104335000D02*
X101590000Y-114105000D01*
X96520000Y-104335000D02*
X96520000Y-114105000D01*
X101590000Y-104335000D02*
X96520000Y-104335000D01*
X101590000Y-114105000D02*
X96520000Y-114105000D01*
X130956000Y-109234000D02*
X133306000Y-109234000D01*
X137776000Y-109234000D02*
X135426000Y-109234000D01*
X137776000Y-103478437D02*
X137776000Y-109234000D01*
X130956000Y-103478437D02*
X130956000Y-109234000D01*
X132020437Y-102414000D02*
X133306000Y-102414000D01*
X136711563Y-102414000D02*
X135426000Y-102414000D01*
X136711563Y-102414000D02*
X137776000Y-103478437D01*
X132020437Y-102414000D02*
X130956000Y-103478437D01*
X136213500Y-101386500D02*
X136213500Y-102174000D01*
X136607250Y-101780250D02*
X135819750Y-101780250D01*
X145142000Y-105462000D02*
X142792000Y-105462000D01*
X138322000Y-105462000D02*
X140672000Y-105462000D01*
X138322000Y-111217563D02*
X138322000Y-105462000D01*
X145142000Y-111217563D02*
X145142000Y-105462000D01*
X144077563Y-112282000D02*
X142792000Y-112282000D01*
X139386437Y-112282000D02*
X140672000Y-112282000D01*
X139386437Y-112282000D02*
X138322000Y-111217563D01*
X144077563Y-112282000D02*
X145142000Y-111217563D01*
X139884500Y-113309500D02*
X139884500Y-112522000D01*
X139490750Y-112915750D02*
X140278250Y-112915750D01*
X129516000Y-88984000D02*
X129516000Y-84244000D01*
X136756000Y-88984000D02*
X136756000Y-84244000D01*
X136756000Y-84244000D02*
X129516000Y-84244000D01*
X136756000Y-88984000D02*
X129516000Y-88984000D01*
X119610000Y-88984000D02*
X119610000Y-84244000D01*
X126850000Y-88984000D02*
X126850000Y-84244000D01*
X126850000Y-84244000D02*
X119610000Y-84244000D01*
X126850000Y-88984000D02*
X119610000Y-88984000D01*
X121646000Y-105791000D02*
X121646000Y-107741000D01*
X121646000Y-105791000D02*
X121646000Y-103841000D01*
X126766000Y-105791000D02*
X126766000Y-107741000D01*
X126766000Y-105791000D02*
X126766000Y-102341000D01*
X130790000Y-78867000D02*
X130790000Y-80817000D01*
X130790000Y-78867000D02*
X130790000Y-76917000D01*
X135910000Y-78867000D02*
X135910000Y-80817000D01*
X135910000Y-78867000D02*
X135910000Y-75417000D01*
X103525000Y-78867000D02*
X103525000Y-80817000D01*
X103525000Y-78867000D02*
X103525000Y-76917000D01*
X113645000Y-78867000D02*
X113645000Y-80817000D01*
X113645000Y-78867000D02*
X113645000Y-75417000D01*
X120630000Y-78867000D02*
X120630000Y-80817000D01*
X120630000Y-78867000D02*
X120630000Y-76917000D01*
X125750000Y-78867000D02*
X125750000Y-80817000D01*
X125750000Y-78867000D02*
X125750000Y-75417000D01*
X100509000Y-80144252D02*
X100509000Y-79621748D01*
X101929000Y-80144252D02*
X101929000Y-79621748D01*
X120090000Y-98417748D02*
X120090000Y-98940252D01*
X118670000Y-98417748D02*
X118670000Y-98940252D01*
X117042000Y-100585748D02*
X117042000Y-101108252D01*
X115622000Y-100585748D02*
X115622000Y-101108252D01*
X114248000Y-100576748D02*
X114248000Y-101099252D01*
X112828000Y-100576748D02*
X112828000Y-101099252D01*
X103199000Y-71239748D02*
X103199000Y-71762252D01*
X101779000Y-71239748D02*
X101779000Y-71762252D01*
X104573000Y-71753252D02*
X104573000Y-71230748D01*
X105993000Y-71753252D02*
X105993000Y-71230748D01*
X114733000Y-86249252D02*
X114733000Y-85726748D01*
X116153000Y-86249252D02*
X116153000Y-85726748D01*
X111939000Y-86240252D02*
X111939000Y-85717748D01*
X113359000Y-86240252D02*
X113359000Y-85717748D01*
X111581000Y-71230748D02*
X111581000Y-71753252D01*
X110161000Y-71230748D02*
X110161000Y-71753252D01*
X107367000Y-71753252D02*
X107367000Y-71230748D01*
X108787000Y-71753252D02*
X108787000Y-71230748D01*
X134441000Y-71239748D02*
X134441000Y-71762252D01*
X133021000Y-71239748D02*
X133021000Y-71762252D01*
X125551000Y-71230748D02*
X125551000Y-71753252D01*
X124131000Y-71230748D02*
X124131000Y-71753252D01*
X122757000Y-71230748D02*
X122757000Y-71753252D01*
X121337000Y-71230748D02*
X121337000Y-71753252D01*
X128345000Y-71230748D02*
X128345000Y-71753252D01*
X126925000Y-71230748D02*
X126925000Y-71753252D01*
X117169000Y-71239748D02*
X117169000Y-71762252D01*
X115749000Y-71239748D02*
X115749000Y-71762252D01*
X129719000Y-71762252D02*
X129719000Y-71239748D01*
X131139000Y-71762252D02*
X131139000Y-71239748D01*
X133315200Y-115304400D02*
X135315200Y-115304400D01*
X135315200Y-115304400D02*
X135315200Y-111404400D01*
X133315200Y-115304400D02*
X133315200Y-111404400D01*
X127346000Y-112760000D02*
X127346000Y-110760000D01*
X127346000Y-110760000D02*
X123446000Y-110760000D01*
X127346000Y-112760000D02*
X123446000Y-112760000D01*
X127238000Y-95921000D02*
X125238000Y-95921000D01*
X125238000Y-95921000D02*
X125238000Y-99821000D01*
X127238000Y-95921000D02*
X127238000Y-99821000D01*
X123682000Y-95921000D02*
X121682000Y-95921000D01*
X121682000Y-95921000D02*
X121682000Y-99821000D01*
X123682000Y-95921000D02*
X123682000Y-99821000D01*
X123280000Y-92186000D02*
X123280000Y-90186000D01*
X123280000Y-90186000D02*
X119380000Y-90186000D01*
X123280000Y-92186000D02*
X119380000Y-92186000D01*
X111670000Y-90186000D02*
X111670000Y-92186000D01*
X111670000Y-92186000D02*
X115570000Y-92186000D01*
X111670000Y-90186000D02*
X115570000Y-90186000D01*
X119836000Y-103497748D02*
X119836000Y-104020252D01*
X118416000Y-103497748D02*
X118416000Y-104020252D01*
X119836000Y-107561748D02*
X119836000Y-108084252D01*
X118416000Y-107561748D02*
X118416000Y-108084252D01*
X140029000Y-76564748D02*
X140029000Y-77087252D01*
X138609000Y-76564748D02*
X138609000Y-77087252D01*
X140029000Y-80646748D02*
X140029000Y-81169252D01*
X138609000Y-80646748D02*
X138609000Y-81169252D01*
X129615000Y-76564748D02*
X129615000Y-77087252D01*
X128195000Y-76564748D02*
X128195000Y-77087252D01*
X129615000Y-80646748D02*
X129615000Y-81169252D01*
X128195000Y-80646748D02*
X128195000Y-81169252D01*
X117931000Y-76573748D02*
X117931000Y-77096252D01*
X116511000Y-76573748D02*
X116511000Y-77096252D01*
X117931000Y-80646748D02*
X117931000Y-81169252D01*
X116511000Y-80646748D02*
X116511000Y-81169252D01*
X129996000Y-98417748D02*
X129996000Y-98940252D01*
X128576000Y-98417748D02*
X128576000Y-98940252D01*
X100405000Y-71230748D02*
X100405000Y-71753252D01*
X98985000Y-71230748D02*
X98985000Y-71753252D01*
X109145000Y-86249252D02*
X109145000Y-85726748D01*
X110565000Y-86249252D02*
X110565000Y-85726748D01*
X114375000Y-71230748D02*
X114375000Y-71753252D01*
X112955000Y-71230748D02*
X112955000Y-71753252D01*
X137235000Y-71230748D02*
X137235000Y-71753252D01*
X135815000Y-71230748D02*
X135815000Y-71753252D01*
X119963000Y-71230748D02*
X119963000Y-71753252D01*
X118543000Y-71230748D02*
X118543000Y-71753252D01*
D10*
X145716666Y-80942380D02*
X145716666Y-81656666D01*
X145669047Y-81799523D01*
X145573809Y-81894761D01*
X145430952Y-81942380D01*
X145335714Y-81942380D01*
X146669047Y-80942380D02*
X146192857Y-80942380D01*
X146145238Y-81418571D01*
X146192857Y-81370952D01*
X146288095Y-81323333D01*
X146526190Y-81323333D01*
X146621428Y-81370952D01*
X146669047Y-81418571D01*
X146716666Y-81513809D01*
X146716666Y-81751904D01*
X146669047Y-81847142D01*
X146621428Y-81894761D01*
X146526190Y-81942380D01*
X146288095Y-81942380D01*
X146192857Y-81894761D01*
X146145238Y-81847142D01*
X111164761Y-103957380D02*
X110831428Y-103481190D01*
X110593333Y-103957380D02*
X110593333Y-102957380D01*
X110974285Y-102957380D01*
X111069523Y-103005000D01*
X111117142Y-103052619D01*
X111164761Y-103147857D01*
X111164761Y-103290714D01*
X111117142Y-103385952D01*
X111069523Y-103433571D01*
X110974285Y-103481190D01*
X110593333Y-103481190D01*
X111450476Y-102957380D02*
X111783809Y-103957380D01*
X112117142Y-102957380D01*
X112355238Y-102957380D02*
X112974285Y-102957380D01*
X112640952Y-103338333D01*
X112783809Y-103338333D01*
X112879047Y-103385952D01*
X112926666Y-103433571D01*
X112974285Y-103528809D01*
X112974285Y-103766904D01*
X112926666Y-103862142D01*
X112879047Y-103909761D01*
X112783809Y-103957380D01*
X112498095Y-103957380D01*
X112402857Y-103909761D01*
X112355238Y-103862142D01*
X104814761Y-103957380D02*
X104481428Y-103481190D01*
X104243333Y-103957380D02*
X104243333Y-102957380D01*
X104624285Y-102957380D01*
X104719523Y-103005000D01*
X104767142Y-103052619D01*
X104814761Y-103147857D01*
X104814761Y-103290714D01*
X104767142Y-103385952D01*
X104719523Y-103433571D01*
X104624285Y-103481190D01*
X104243333Y-103481190D01*
X105100476Y-102957380D02*
X105433809Y-103957380D01*
X105767142Y-102957380D01*
X106052857Y-103052619D02*
X106100476Y-103005000D01*
X106195714Y-102957380D01*
X106433809Y-102957380D01*
X106529047Y-103005000D01*
X106576666Y-103052619D01*
X106624285Y-103147857D01*
X106624285Y-103243095D01*
X106576666Y-103385952D01*
X106005238Y-103957380D01*
X106624285Y-103957380D01*
X98464761Y-103957380D02*
X98131428Y-103481190D01*
X97893333Y-103957380D02*
X97893333Y-102957380D01*
X98274285Y-102957380D01*
X98369523Y-103005000D01*
X98417142Y-103052619D01*
X98464761Y-103147857D01*
X98464761Y-103290714D01*
X98417142Y-103385952D01*
X98369523Y-103433571D01*
X98274285Y-103481190D01*
X97893333Y-103481190D01*
X98750476Y-102957380D02*
X99083809Y-103957380D01*
X99417142Y-102957380D01*
X100274285Y-103957380D02*
X99702857Y-103957380D01*
X99988571Y-103957380D02*
X99988571Y-102957380D01*
X99893333Y-103100238D01*
X99798095Y-103195476D01*
X99702857Y-103243095D01*
X133723142Y-100687142D02*
X133675523Y-100734761D01*
X133532666Y-100782380D01*
X133437428Y-100782380D01*
X133294571Y-100734761D01*
X133199333Y-100639523D01*
X133151714Y-100544285D01*
X133104095Y-100353809D01*
X133104095Y-100210952D01*
X133151714Y-100020476D01*
X133199333Y-99925238D01*
X133294571Y-99830000D01*
X133437428Y-99782380D01*
X133532666Y-99782380D01*
X133675523Y-99830000D01*
X133723142Y-99877619D01*
X134675523Y-100782380D02*
X134104095Y-100782380D01*
X134389809Y-100782380D02*
X134389809Y-99782380D01*
X134294571Y-99925238D01*
X134199333Y-100020476D01*
X134104095Y-100068095D01*
X135580285Y-99782380D02*
X135104095Y-99782380D01*
X135056476Y-100258571D01*
X135104095Y-100210952D01*
X135199333Y-100163333D01*
X135437428Y-100163333D01*
X135532666Y-100210952D01*
X135580285Y-100258571D01*
X135627904Y-100353809D01*
X135627904Y-100591904D01*
X135580285Y-100687142D01*
X135532666Y-100734761D01*
X135437428Y-100782380D01*
X135199333Y-100782380D01*
X135104095Y-100734761D01*
X135056476Y-100687142D01*
X141089142Y-103989142D02*
X141041523Y-104036761D01*
X140898666Y-104084380D01*
X140803428Y-104084380D01*
X140660571Y-104036761D01*
X140565333Y-103941523D01*
X140517714Y-103846285D01*
X140470095Y-103655809D01*
X140470095Y-103512952D01*
X140517714Y-103322476D01*
X140565333Y-103227238D01*
X140660571Y-103132000D01*
X140803428Y-103084380D01*
X140898666Y-103084380D01*
X141041523Y-103132000D01*
X141089142Y-103179619D01*
X142041523Y-104084380D02*
X141470095Y-104084380D01*
X141755809Y-104084380D02*
X141755809Y-103084380D01*
X141660571Y-103227238D01*
X141565333Y-103322476D01*
X141470095Y-103370095D01*
X142898666Y-103417714D02*
X142898666Y-104084380D01*
X142660571Y-103036761D02*
X142422476Y-103751047D01*
X143041523Y-103751047D01*
X137628333Y-87098142D02*
X137580714Y-87145761D01*
X137437857Y-87193380D01*
X137342619Y-87193380D01*
X137199761Y-87145761D01*
X137104523Y-87050523D01*
X137056904Y-86955285D01*
X137009285Y-86764809D01*
X137009285Y-86621952D01*
X137056904Y-86431476D01*
X137104523Y-86336238D01*
X137199761Y-86241000D01*
X137342619Y-86193380D01*
X137437857Y-86193380D01*
X137580714Y-86241000D01*
X137628333Y-86288619D01*
X138104523Y-87193380D02*
X138295000Y-87193380D01*
X138390238Y-87145761D01*
X138437857Y-87098142D01*
X138533095Y-86955285D01*
X138580714Y-86764809D01*
X138580714Y-86383857D01*
X138533095Y-86288619D01*
X138485476Y-86241000D01*
X138390238Y-86193380D01*
X138199761Y-86193380D01*
X138104523Y-86241000D01*
X138056904Y-86288619D01*
X138009285Y-86383857D01*
X138009285Y-86621952D01*
X138056904Y-86717190D01*
X138104523Y-86764809D01*
X138199761Y-86812428D01*
X138390238Y-86812428D01*
X138485476Y-86764809D01*
X138533095Y-86717190D01*
X138580714Y-86621952D01*
X127722333Y-86844142D02*
X127674714Y-86891761D01*
X127531857Y-86939380D01*
X127436619Y-86939380D01*
X127293761Y-86891761D01*
X127198523Y-86796523D01*
X127150904Y-86701285D01*
X127103285Y-86510809D01*
X127103285Y-86367952D01*
X127150904Y-86177476D01*
X127198523Y-86082238D01*
X127293761Y-85987000D01*
X127436619Y-85939380D01*
X127531857Y-85939380D01*
X127674714Y-85987000D01*
X127722333Y-86034619D01*
X128579476Y-85939380D02*
X128389000Y-85939380D01*
X128293761Y-85987000D01*
X128246142Y-86034619D01*
X128150904Y-86177476D01*
X128103285Y-86367952D01*
X128103285Y-86748904D01*
X128150904Y-86844142D01*
X128198523Y-86891761D01*
X128293761Y-86939380D01*
X128484238Y-86939380D01*
X128579476Y-86891761D01*
X128627095Y-86844142D01*
X128674714Y-86748904D01*
X128674714Y-86510809D01*
X128627095Y-86415571D01*
X128579476Y-86367952D01*
X128484238Y-86320333D01*
X128293761Y-86320333D01*
X128198523Y-86367952D01*
X128150904Y-86415571D01*
X128103285Y-86510809D01*
X127254095Y-105116380D02*
X127254095Y-105925904D01*
X127301714Y-106021142D01*
X127349333Y-106068761D01*
X127444571Y-106116380D01*
X127635047Y-106116380D01*
X127730285Y-106068761D01*
X127777904Y-106021142D01*
X127825523Y-105925904D01*
X127825523Y-105116380D01*
X128730285Y-105449714D02*
X128730285Y-106116380D01*
X128492190Y-105068761D02*
X128254095Y-105783047D01*
X128873142Y-105783047D01*
X136271095Y-78319380D02*
X136271095Y-79128904D01*
X136318714Y-79224142D01*
X136366333Y-79271761D01*
X136461571Y-79319380D01*
X136652047Y-79319380D01*
X136747285Y-79271761D01*
X136794904Y-79224142D01*
X136842523Y-79128904D01*
X136842523Y-78319380D01*
X137223476Y-78319380D02*
X137842523Y-78319380D01*
X137509190Y-78700333D01*
X137652047Y-78700333D01*
X137747285Y-78747952D01*
X137794904Y-78795571D01*
X137842523Y-78890809D01*
X137842523Y-79128904D01*
X137794904Y-79224142D01*
X137747285Y-79271761D01*
X137652047Y-79319380D01*
X137366333Y-79319380D01*
X137271095Y-79271761D01*
X137223476Y-79224142D01*
X114173095Y-78319380D02*
X114173095Y-79128904D01*
X114220714Y-79224142D01*
X114268333Y-79271761D01*
X114363571Y-79319380D01*
X114554047Y-79319380D01*
X114649285Y-79271761D01*
X114696904Y-79224142D01*
X114744523Y-79128904D01*
X114744523Y-78319380D01*
X115173095Y-78414619D02*
X115220714Y-78367000D01*
X115315952Y-78319380D01*
X115554047Y-78319380D01*
X115649285Y-78367000D01*
X115696904Y-78414619D01*
X115744523Y-78509857D01*
X115744523Y-78605095D01*
X115696904Y-78747952D01*
X115125476Y-79319380D01*
X115744523Y-79319380D01*
X126111095Y-78319380D02*
X126111095Y-79128904D01*
X126158714Y-79224142D01*
X126206333Y-79271761D01*
X126301571Y-79319380D01*
X126492047Y-79319380D01*
X126587285Y-79271761D01*
X126634904Y-79224142D01*
X126682523Y-79128904D01*
X126682523Y-78319380D01*
X127682523Y-79319380D02*
X127111095Y-79319380D01*
X127396809Y-79319380D02*
X127396809Y-78319380D01*
X127301571Y-78462238D01*
X127206333Y-78557476D01*
X127111095Y-78605095D01*
X100576142Y-77795380D02*
X100242809Y-77319190D01*
X100004714Y-77795380D02*
X100004714Y-76795380D01*
X100385666Y-76795380D01*
X100480904Y-76843000D01*
X100528523Y-76890619D01*
X100576142Y-76985857D01*
X100576142Y-77128714D01*
X100528523Y-77223952D01*
X100480904Y-77271571D01*
X100385666Y-77319190D01*
X100004714Y-77319190D01*
X100957095Y-76890619D02*
X101004714Y-76843000D01*
X101099952Y-76795380D01*
X101338047Y-76795380D01*
X101433285Y-76843000D01*
X101480904Y-76890619D01*
X101528523Y-76985857D01*
X101528523Y-77081095D01*
X101480904Y-77223952D01*
X100909476Y-77795380D01*
X101528523Y-77795380D01*
X102433285Y-76795380D02*
X101957095Y-76795380D01*
X101909476Y-77271571D01*
X101957095Y-77223952D01*
X102052333Y-77176333D01*
X102290428Y-77176333D01*
X102385666Y-77223952D01*
X102433285Y-77271571D01*
X102480904Y-77366809D01*
X102480904Y-77604904D01*
X102433285Y-77700142D01*
X102385666Y-77747761D01*
X102290428Y-77795380D01*
X102052333Y-77795380D01*
X101957095Y-77747761D01*
X101909476Y-77700142D01*
X118737142Y-96464380D02*
X118403809Y-95988190D01*
X118165714Y-96464380D02*
X118165714Y-95464380D01*
X118546666Y-95464380D01*
X118641904Y-95512000D01*
X118689523Y-95559619D01*
X118737142Y-95654857D01*
X118737142Y-95797714D01*
X118689523Y-95892952D01*
X118641904Y-95940571D01*
X118546666Y-95988190D01*
X118165714Y-95988190D01*
X119689523Y-96464380D02*
X119118095Y-96464380D01*
X119403809Y-96464380D02*
X119403809Y-95464380D01*
X119308571Y-95607238D01*
X119213333Y-95702476D01*
X119118095Y-95750095D01*
X120165714Y-96464380D02*
X120356190Y-96464380D01*
X120451428Y-96416761D01*
X120499047Y-96369142D01*
X120594285Y-96226285D01*
X120641904Y-96035809D01*
X120641904Y-95654857D01*
X120594285Y-95559619D01*
X120546666Y-95512000D01*
X120451428Y-95464380D01*
X120260952Y-95464380D01*
X120165714Y-95512000D01*
X120118095Y-95559619D01*
X120070476Y-95654857D01*
X120070476Y-95892952D01*
X120118095Y-95988190D01*
X120165714Y-96035809D01*
X120260952Y-96083428D01*
X120451428Y-96083428D01*
X120546666Y-96035809D01*
X120594285Y-95988190D01*
X120641904Y-95892952D01*
X115562142Y-98877380D02*
X115228809Y-98401190D01*
X114990714Y-98877380D02*
X114990714Y-97877380D01*
X115371666Y-97877380D01*
X115466904Y-97925000D01*
X115514523Y-97972619D01*
X115562142Y-98067857D01*
X115562142Y-98210714D01*
X115514523Y-98305952D01*
X115466904Y-98353571D01*
X115371666Y-98401190D01*
X114990714Y-98401190D01*
X116514523Y-98877380D02*
X115943095Y-98877380D01*
X116228809Y-98877380D02*
X116228809Y-97877380D01*
X116133571Y-98020238D01*
X116038333Y-98115476D01*
X115943095Y-98163095D01*
X117085952Y-98305952D02*
X116990714Y-98258333D01*
X116943095Y-98210714D01*
X116895476Y-98115476D01*
X116895476Y-98067857D01*
X116943095Y-97972619D01*
X116990714Y-97925000D01*
X117085952Y-97877380D01*
X117276428Y-97877380D01*
X117371666Y-97925000D01*
X117419285Y-97972619D01*
X117466904Y-98067857D01*
X117466904Y-98115476D01*
X117419285Y-98210714D01*
X117371666Y-98258333D01*
X117276428Y-98305952D01*
X117085952Y-98305952D01*
X116990714Y-98353571D01*
X116943095Y-98401190D01*
X116895476Y-98496428D01*
X116895476Y-98686904D01*
X116943095Y-98782142D01*
X116990714Y-98829761D01*
X117085952Y-98877380D01*
X117276428Y-98877380D01*
X117371666Y-98829761D01*
X117419285Y-98782142D01*
X117466904Y-98686904D01*
X117466904Y-98496428D01*
X117419285Y-98401190D01*
X117371666Y-98353571D01*
X117276428Y-98305952D01*
X112895142Y-98877380D02*
X112561809Y-98401190D01*
X112323714Y-98877380D02*
X112323714Y-97877380D01*
X112704666Y-97877380D01*
X112799904Y-97925000D01*
X112847523Y-97972619D01*
X112895142Y-98067857D01*
X112895142Y-98210714D01*
X112847523Y-98305952D01*
X112799904Y-98353571D01*
X112704666Y-98401190D01*
X112323714Y-98401190D01*
X113847523Y-98877380D02*
X113276095Y-98877380D01*
X113561809Y-98877380D02*
X113561809Y-97877380D01*
X113466571Y-98020238D01*
X113371333Y-98115476D01*
X113276095Y-98163095D01*
X114704666Y-97877380D02*
X114514190Y-97877380D01*
X114418952Y-97925000D01*
X114371333Y-97972619D01*
X114276095Y-98115476D01*
X114228476Y-98305952D01*
X114228476Y-98686904D01*
X114276095Y-98782142D01*
X114323714Y-98829761D01*
X114418952Y-98877380D01*
X114609428Y-98877380D01*
X114704666Y-98829761D01*
X114752285Y-98782142D01*
X114799904Y-98686904D01*
X114799904Y-98448809D01*
X114752285Y-98353571D01*
X114704666Y-98305952D01*
X114609428Y-98258333D01*
X114418952Y-98258333D01*
X114323714Y-98305952D01*
X114276095Y-98353571D01*
X114228476Y-98448809D01*
X101846142Y-69413380D02*
X101512809Y-68937190D01*
X101274714Y-69413380D02*
X101274714Y-68413380D01*
X101655666Y-68413380D01*
X101750904Y-68461000D01*
X101798523Y-68508619D01*
X101846142Y-68603857D01*
X101846142Y-68746714D01*
X101798523Y-68841952D01*
X101750904Y-68889571D01*
X101655666Y-68937190D01*
X101274714Y-68937190D01*
X102798523Y-69413380D02*
X102227095Y-69413380D01*
X102512809Y-69413380D02*
X102512809Y-68413380D01*
X102417571Y-68556238D01*
X102322333Y-68651476D01*
X102227095Y-68699095D01*
X103703285Y-68413380D02*
X103227095Y-68413380D01*
X103179476Y-68889571D01*
X103227095Y-68841952D01*
X103322333Y-68794333D01*
X103560428Y-68794333D01*
X103655666Y-68841952D01*
X103703285Y-68889571D01*
X103750904Y-68984809D01*
X103750904Y-69222904D01*
X103703285Y-69318142D01*
X103655666Y-69365761D01*
X103560428Y-69413380D01*
X103322333Y-69413380D01*
X103227095Y-69365761D01*
X103179476Y-69318142D01*
X104767142Y-69404380D02*
X104433809Y-68928190D01*
X104195714Y-69404380D02*
X104195714Y-68404380D01*
X104576666Y-68404380D01*
X104671904Y-68452000D01*
X104719523Y-68499619D01*
X104767142Y-68594857D01*
X104767142Y-68737714D01*
X104719523Y-68832952D01*
X104671904Y-68880571D01*
X104576666Y-68928190D01*
X104195714Y-68928190D01*
X105719523Y-69404380D02*
X105148095Y-69404380D01*
X105433809Y-69404380D02*
X105433809Y-68404380D01*
X105338571Y-68547238D01*
X105243333Y-68642476D01*
X105148095Y-68690095D01*
X106576666Y-68737714D02*
X106576666Y-69404380D01*
X106338571Y-68356761D02*
X106100476Y-69071047D01*
X106719523Y-69071047D01*
X114800142Y-88980380D02*
X114466809Y-88504190D01*
X114228714Y-88980380D02*
X114228714Y-87980380D01*
X114609666Y-87980380D01*
X114704904Y-88028000D01*
X114752523Y-88075619D01*
X114800142Y-88170857D01*
X114800142Y-88313714D01*
X114752523Y-88408952D01*
X114704904Y-88456571D01*
X114609666Y-88504190D01*
X114228714Y-88504190D01*
X115752523Y-88980380D02*
X115181095Y-88980380D01*
X115466809Y-88980380D02*
X115466809Y-87980380D01*
X115371571Y-88123238D01*
X115276333Y-88218476D01*
X115181095Y-88266095D01*
X116085857Y-87980380D02*
X116704904Y-87980380D01*
X116371571Y-88361333D01*
X116514428Y-88361333D01*
X116609666Y-88408952D01*
X116657285Y-88456571D01*
X116704904Y-88551809D01*
X116704904Y-88789904D01*
X116657285Y-88885142D01*
X116609666Y-88932761D01*
X116514428Y-88980380D01*
X116228714Y-88980380D01*
X116133476Y-88932761D01*
X116085857Y-88885142D01*
X112006142Y-88971380D02*
X111672809Y-88495190D01*
X111434714Y-88971380D02*
X111434714Y-87971380D01*
X111815666Y-87971380D01*
X111910904Y-88019000D01*
X111958523Y-88066619D01*
X112006142Y-88161857D01*
X112006142Y-88304714D01*
X111958523Y-88399952D01*
X111910904Y-88447571D01*
X111815666Y-88495190D01*
X111434714Y-88495190D01*
X112958523Y-88971380D02*
X112387095Y-88971380D01*
X112672809Y-88971380D02*
X112672809Y-87971380D01*
X112577571Y-88114238D01*
X112482333Y-88209476D01*
X112387095Y-88257095D01*
X113339476Y-88066619D02*
X113387095Y-88019000D01*
X113482333Y-87971380D01*
X113720428Y-87971380D01*
X113815666Y-88019000D01*
X113863285Y-88066619D01*
X113910904Y-88161857D01*
X113910904Y-88257095D01*
X113863285Y-88399952D01*
X113291857Y-88971380D01*
X113910904Y-88971380D01*
X110228142Y-69404380D02*
X109894809Y-68928190D01*
X109656714Y-69404380D02*
X109656714Y-68404380D01*
X110037666Y-68404380D01*
X110132904Y-68452000D01*
X110180523Y-68499619D01*
X110228142Y-68594857D01*
X110228142Y-68737714D01*
X110180523Y-68832952D01*
X110132904Y-68880571D01*
X110037666Y-68928190D01*
X109656714Y-68928190D01*
X111180523Y-69404380D02*
X110609095Y-69404380D01*
X110894809Y-69404380D02*
X110894809Y-68404380D01*
X110799571Y-68547238D01*
X110704333Y-68642476D01*
X110609095Y-68690095D01*
X112132904Y-69404380D02*
X111561476Y-69404380D01*
X111847190Y-69404380D02*
X111847190Y-68404380D01*
X111751952Y-68547238D01*
X111656714Y-68642476D01*
X111561476Y-68690095D01*
X107434142Y-69404380D02*
X107100809Y-68928190D01*
X106862714Y-69404380D02*
X106862714Y-68404380D01*
X107243666Y-68404380D01*
X107338904Y-68452000D01*
X107386523Y-68499619D01*
X107434142Y-68594857D01*
X107434142Y-68737714D01*
X107386523Y-68832952D01*
X107338904Y-68880571D01*
X107243666Y-68928190D01*
X106862714Y-68928190D01*
X108386523Y-69404380D02*
X107815095Y-69404380D01*
X108100809Y-69404380D02*
X108100809Y-68404380D01*
X108005571Y-68547238D01*
X107910333Y-68642476D01*
X107815095Y-68690095D01*
X109005571Y-68404380D02*
X109100809Y-68404380D01*
X109196047Y-68452000D01*
X109243666Y-68499619D01*
X109291285Y-68594857D01*
X109338904Y-68785333D01*
X109338904Y-69023428D01*
X109291285Y-69213904D01*
X109243666Y-69309142D01*
X109196047Y-69356761D01*
X109100809Y-69404380D01*
X109005571Y-69404380D01*
X108910333Y-69356761D01*
X108862714Y-69309142D01*
X108815095Y-69213904D01*
X108767476Y-69023428D01*
X108767476Y-68785333D01*
X108815095Y-68594857D01*
X108862714Y-68499619D01*
X108910333Y-68452000D01*
X109005571Y-68404380D01*
X133564333Y-69286380D02*
X133231000Y-68810190D01*
X132992904Y-69286380D02*
X132992904Y-68286380D01*
X133373857Y-68286380D01*
X133469095Y-68334000D01*
X133516714Y-68381619D01*
X133564333Y-68476857D01*
X133564333Y-68619714D01*
X133516714Y-68714952D01*
X133469095Y-68762571D01*
X133373857Y-68810190D01*
X132992904Y-68810190D01*
X134040523Y-69286380D02*
X134231000Y-69286380D01*
X134326238Y-69238761D01*
X134373857Y-69191142D01*
X134469095Y-69048285D01*
X134516714Y-68857809D01*
X134516714Y-68476857D01*
X134469095Y-68381619D01*
X134421476Y-68334000D01*
X134326238Y-68286380D01*
X134135761Y-68286380D01*
X134040523Y-68334000D01*
X133992904Y-68381619D01*
X133945285Y-68476857D01*
X133945285Y-68714952D01*
X133992904Y-68810190D01*
X134040523Y-68857809D01*
X134135761Y-68905428D01*
X134326238Y-68905428D01*
X134421476Y-68857809D01*
X134469095Y-68810190D01*
X134516714Y-68714952D01*
X124674333Y-69404380D02*
X124341000Y-68928190D01*
X124102904Y-69404380D02*
X124102904Y-68404380D01*
X124483857Y-68404380D01*
X124579095Y-68452000D01*
X124626714Y-68499619D01*
X124674333Y-68594857D01*
X124674333Y-68737714D01*
X124626714Y-68832952D01*
X124579095Y-68880571D01*
X124483857Y-68928190D01*
X124102904Y-68928190D01*
X125245761Y-68832952D02*
X125150523Y-68785333D01*
X125102904Y-68737714D01*
X125055285Y-68642476D01*
X125055285Y-68594857D01*
X125102904Y-68499619D01*
X125150523Y-68452000D01*
X125245761Y-68404380D01*
X125436238Y-68404380D01*
X125531476Y-68452000D01*
X125579095Y-68499619D01*
X125626714Y-68594857D01*
X125626714Y-68642476D01*
X125579095Y-68737714D01*
X125531476Y-68785333D01*
X125436238Y-68832952D01*
X125245761Y-68832952D01*
X125150523Y-68880571D01*
X125102904Y-68928190D01*
X125055285Y-69023428D01*
X125055285Y-69213904D01*
X125102904Y-69309142D01*
X125150523Y-69356761D01*
X125245761Y-69404380D01*
X125436238Y-69404380D01*
X125531476Y-69356761D01*
X125579095Y-69309142D01*
X125626714Y-69213904D01*
X125626714Y-69023428D01*
X125579095Y-68928190D01*
X125531476Y-68880571D01*
X125436238Y-68832952D01*
X121880333Y-69404380D02*
X121547000Y-68928190D01*
X121308904Y-69404380D02*
X121308904Y-68404380D01*
X121689857Y-68404380D01*
X121785095Y-68452000D01*
X121832714Y-68499619D01*
X121880333Y-68594857D01*
X121880333Y-68737714D01*
X121832714Y-68832952D01*
X121785095Y-68880571D01*
X121689857Y-68928190D01*
X121308904Y-68928190D01*
X122213666Y-68404380D02*
X122880333Y-68404380D01*
X122451761Y-69404380D01*
X127468333Y-69404380D02*
X127135000Y-68928190D01*
X126896904Y-69404380D02*
X126896904Y-68404380D01*
X127277857Y-68404380D01*
X127373095Y-68452000D01*
X127420714Y-68499619D01*
X127468333Y-68594857D01*
X127468333Y-68737714D01*
X127420714Y-68832952D01*
X127373095Y-68880571D01*
X127277857Y-68928190D01*
X126896904Y-68928190D01*
X128325476Y-68404380D02*
X128135000Y-68404380D01*
X128039761Y-68452000D01*
X127992142Y-68499619D01*
X127896904Y-68642476D01*
X127849285Y-68832952D01*
X127849285Y-69213904D01*
X127896904Y-69309142D01*
X127944523Y-69356761D01*
X128039761Y-69404380D01*
X128230238Y-69404380D01*
X128325476Y-69356761D01*
X128373095Y-69309142D01*
X128420714Y-69213904D01*
X128420714Y-68975809D01*
X128373095Y-68880571D01*
X128325476Y-68832952D01*
X128230238Y-68785333D01*
X128039761Y-68785333D01*
X127944523Y-68832952D01*
X127896904Y-68880571D01*
X127849285Y-68975809D01*
X116292333Y-69413380D02*
X115959000Y-68937190D01*
X115720904Y-69413380D02*
X115720904Y-68413380D01*
X116101857Y-68413380D01*
X116197095Y-68461000D01*
X116244714Y-68508619D01*
X116292333Y-68603857D01*
X116292333Y-68746714D01*
X116244714Y-68841952D01*
X116197095Y-68889571D01*
X116101857Y-68937190D01*
X115720904Y-68937190D01*
X117197095Y-68413380D02*
X116720904Y-68413380D01*
X116673285Y-68889571D01*
X116720904Y-68841952D01*
X116816142Y-68794333D01*
X117054238Y-68794333D01*
X117149476Y-68841952D01*
X117197095Y-68889571D01*
X117244714Y-68984809D01*
X117244714Y-69222904D01*
X117197095Y-69318142D01*
X117149476Y-69365761D01*
X117054238Y-69413380D01*
X116816142Y-69413380D01*
X116720904Y-69365761D01*
X116673285Y-69318142D01*
X130262333Y-69413380D02*
X129929000Y-68937190D01*
X129690904Y-69413380D02*
X129690904Y-68413380D01*
X130071857Y-68413380D01*
X130167095Y-68461000D01*
X130214714Y-68508619D01*
X130262333Y-68603857D01*
X130262333Y-68746714D01*
X130214714Y-68841952D01*
X130167095Y-68889571D01*
X130071857Y-68937190D01*
X129690904Y-68937190D01*
X131119476Y-68746714D02*
X131119476Y-69413380D01*
X130881380Y-68365761D02*
X130643285Y-69080047D01*
X131262333Y-69080047D01*
X131443504Y-113533180D02*
X131443504Y-112533180D01*
X131681600Y-112533180D01*
X131824457Y-112580800D01*
X131919695Y-112676038D01*
X131967314Y-112771276D01*
X132014933Y-112961752D01*
X132014933Y-113104609D01*
X131967314Y-113295085D01*
X131919695Y-113390323D01*
X131824457Y-113485561D01*
X131681600Y-113533180D01*
X131443504Y-113533180D01*
X132872076Y-112533180D02*
X132681600Y-112533180D01*
X132586361Y-112580800D01*
X132538742Y-112628419D01*
X132443504Y-112771276D01*
X132395885Y-112961752D01*
X132395885Y-113342704D01*
X132443504Y-113437942D01*
X132491123Y-113485561D01*
X132586361Y-113533180D01*
X132776838Y-113533180D01*
X132872076Y-113485561D01*
X132919695Y-113437942D01*
X132967314Y-113342704D01*
X132967314Y-113104609D01*
X132919695Y-113009371D01*
X132872076Y-112961752D01*
X132776838Y-112914133D01*
X132586361Y-112914133D01*
X132491123Y-112961752D01*
X132443504Y-113009371D01*
X132395885Y-113104609D01*
X127659904Y-112212380D02*
X127659904Y-111212380D01*
X127898000Y-111212380D01*
X128040857Y-111260000D01*
X128136095Y-111355238D01*
X128183714Y-111450476D01*
X128231333Y-111640952D01*
X128231333Y-111783809D01*
X128183714Y-111974285D01*
X128136095Y-112069523D01*
X128040857Y-112164761D01*
X127898000Y-112212380D01*
X127659904Y-112212380D01*
X129136095Y-111212380D02*
X128659904Y-111212380D01*
X128612285Y-111688571D01*
X128659904Y-111640952D01*
X128755142Y-111593333D01*
X128993238Y-111593333D01*
X129088476Y-111640952D01*
X129136095Y-111688571D01*
X129183714Y-111783809D01*
X129183714Y-112021904D01*
X129136095Y-112117142D01*
X129088476Y-112164761D01*
X128993238Y-112212380D01*
X128755142Y-112212380D01*
X128659904Y-112164761D01*
X128612285Y-112117142D01*
X125499904Y-95448380D02*
X125499904Y-94448380D01*
X125738000Y-94448380D01*
X125880857Y-94496000D01*
X125976095Y-94591238D01*
X126023714Y-94686476D01*
X126071333Y-94876952D01*
X126071333Y-95019809D01*
X126023714Y-95210285D01*
X125976095Y-95305523D01*
X125880857Y-95400761D01*
X125738000Y-95448380D01*
X125499904Y-95448380D01*
X126928476Y-94781714D02*
X126928476Y-95448380D01*
X126690380Y-94400761D02*
X126452285Y-95115047D01*
X127071333Y-95115047D01*
X121943904Y-95448380D02*
X121943904Y-94448380D01*
X122182000Y-94448380D01*
X122324857Y-94496000D01*
X122420095Y-94591238D01*
X122467714Y-94686476D01*
X122515333Y-94876952D01*
X122515333Y-95019809D01*
X122467714Y-95210285D01*
X122420095Y-95305523D01*
X122324857Y-95400761D01*
X122182000Y-95448380D01*
X121943904Y-95448380D01*
X122848666Y-94448380D02*
X123467714Y-94448380D01*
X123134380Y-94829333D01*
X123277238Y-94829333D01*
X123372476Y-94876952D01*
X123420095Y-94924571D01*
X123467714Y-95019809D01*
X123467714Y-95257904D01*
X123420095Y-95353142D01*
X123372476Y-95400761D01*
X123277238Y-95448380D01*
X122991523Y-95448380D01*
X122896285Y-95400761D01*
X122848666Y-95353142D01*
X123721904Y-91638380D02*
X123721904Y-90638380D01*
X123960000Y-90638380D01*
X124102857Y-90686000D01*
X124198095Y-90781238D01*
X124245714Y-90876476D01*
X124293333Y-91066952D01*
X124293333Y-91209809D01*
X124245714Y-91400285D01*
X124198095Y-91495523D01*
X124102857Y-91590761D01*
X123960000Y-91638380D01*
X123721904Y-91638380D01*
X124674285Y-90733619D02*
X124721904Y-90686000D01*
X124817142Y-90638380D01*
X125055238Y-90638380D01*
X125150476Y-90686000D01*
X125198095Y-90733619D01*
X125245714Y-90828857D01*
X125245714Y-90924095D01*
X125198095Y-91066952D01*
X124626666Y-91638380D01*
X125245714Y-91638380D01*
X116483904Y-91638380D02*
X116483904Y-90638380D01*
X116722000Y-90638380D01*
X116864857Y-90686000D01*
X116960095Y-90781238D01*
X117007714Y-90876476D01*
X117055333Y-91066952D01*
X117055333Y-91209809D01*
X117007714Y-91400285D01*
X116960095Y-91495523D01*
X116864857Y-91590761D01*
X116722000Y-91638380D01*
X116483904Y-91638380D01*
X118007714Y-91638380D02*
X117436285Y-91638380D01*
X117722000Y-91638380D02*
X117722000Y-90638380D01*
X117626761Y-90781238D01*
X117531523Y-90876476D01*
X117436285Y-90924095D01*
X118483142Y-101703142D02*
X118435523Y-101750761D01*
X118292666Y-101798380D01*
X118197428Y-101798380D01*
X118054571Y-101750761D01*
X117959333Y-101655523D01*
X117911714Y-101560285D01*
X117864095Y-101369809D01*
X117864095Y-101226952D01*
X117911714Y-101036476D01*
X117959333Y-100941238D01*
X118054571Y-100846000D01*
X118197428Y-100798380D01*
X118292666Y-100798380D01*
X118435523Y-100846000D01*
X118483142Y-100893619D01*
X118864095Y-100893619D02*
X118911714Y-100846000D01*
X119006952Y-100798380D01*
X119245047Y-100798380D01*
X119340285Y-100846000D01*
X119387904Y-100893619D01*
X119435523Y-100988857D01*
X119435523Y-101084095D01*
X119387904Y-101226952D01*
X118816476Y-101798380D01*
X119435523Y-101798380D01*
X120340285Y-100798380D02*
X119864095Y-100798380D01*
X119816476Y-101274571D01*
X119864095Y-101226952D01*
X119959333Y-101179333D01*
X120197428Y-101179333D01*
X120292666Y-101226952D01*
X120340285Y-101274571D01*
X120387904Y-101369809D01*
X120387904Y-101607904D01*
X120340285Y-101703142D01*
X120292666Y-101750761D01*
X120197428Y-101798380D01*
X119959333Y-101798380D01*
X119864095Y-101750761D01*
X119816476Y-101703142D01*
X118483142Y-110847142D02*
X118435523Y-110894761D01*
X118292666Y-110942380D01*
X118197428Y-110942380D01*
X118054571Y-110894761D01*
X117959333Y-110799523D01*
X117911714Y-110704285D01*
X117864095Y-110513809D01*
X117864095Y-110370952D01*
X117911714Y-110180476D01*
X117959333Y-110085238D01*
X118054571Y-109990000D01*
X118197428Y-109942380D01*
X118292666Y-109942380D01*
X118435523Y-109990000D01*
X118483142Y-110037619D01*
X118864095Y-110037619D02*
X118911714Y-109990000D01*
X119006952Y-109942380D01*
X119245047Y-109942380D01*
X119340285Y-109990000D01*
X119387904Y-110037619D01*
X119435523Y-110132857D01*
X119435523Y-110228095D01*
X119387904Y-110370952D01*
X118816476Y-110942380D01*
X119435523Y-110942380D01*
X120292666Y-110275714D02*
X120292666Y-110942380D01*
X120054571Y-109894761D02*
X119816476Y-110609047D01*
X120435523Y-110609047D01*
X138676142Y-74643142D02*
X138628523Y-74690761D01*
X138485666Y-74738380D01*
X138390428Y-74738380D01*
X138247571Y-74690761D01*
X138152333Y-74595523D01*
X138104714Y-74500285D01*
X138057095Y-74309809D01*
X138057095Y-74166952D01*
X138104714Y-73976476D01*
X138152333Y-73881238D01*
X138247571Y-73786000D01*
X138390428Y-73738380D01*
X138485666Y-73738380D01*
X138628523Y-73786000D01*
X138676142Y-73833619D01*
X139057095Y-73833619D02*
X139104714Y-73786000D01*
X139199952Y-73738380D01*
X139438047Y-73738380D01*
X139533285Y-73786000D01*
X139580904Y-73833619D01*
X139628523Y-73928857D01*
X139628523Y-74024095D01*
X139580904Y-74166952D01*
X139009476Y-74738380D01*
X139628523Y-74738380D01*
X140009476Y-73833619D02*
X140057095Y-73786000D01*
X140152333Y-73738380D01*
X140390428Y-73738380D01*
X140485666Y-73786000D01*
X140533285Y-73833619D01*
X140580904Y-73928857D01*
X140580904Y-74024095D01*
X140533285Y-74166952D01*
X139961857Y-74738380D01*
X140580904Y-74738380D01*
X138676142Y-83796142D02*
X138628523Y-83843761D01*
X138485666Y-83891380D01*
X138390428Y-83891380D01*
X138247571Y-83843761D01*
X138152333Y-83748523D01*
X138104714Y-83653285D01*
X138057095Y-83462809D01*
X138057095Y-83319952D01*
X138104714Y-83129476D01*
X138152333Y-83034238D01*
X138247571Y-82939000D01*
X138390428Y-82891380D01*
X138485666Y-82891380D01*
X138628523Y-82939000D01*
X138676142Y-82986619D01*
X139057095Y-82986619D02*
X139104714Y-82939000D01*
X139199952Y-82891380D01*
X139438047Y-82891380D01*
X139533285Y-82939000D01*
X139580904Y-82986619D01*
X139628523Y-83081857D01*
X139628523Y-83177095D01*
X139580904Y-83319952D01*
X139009476Y-83891380D01*
X139628523Y-83891380D01*
X140580904Y-83891380D02*
X140009476Y-83891380D01*
X140295190Y-83891380D02*
X140295190Y-82891380D01*
X140199952Y-83034238D01*
X140104714Y-83129476D01*
X140009476Y-83177095D01*
X128262142Y-74652142D02*
X128214523Y-74699761D01*
X128071666Y-74747380D01*
X127976428Y-74747380D01*
X127833571Y-74699761D01*
X127738333Y-74604523D01*
X127690714Y-74509285D01*
X127643095Y-74318809D01*
X127643095Y-74175952D01*
X127690714Y-73985476D01*
X127738333Y-73890238D01*
X127833571Y-73795000D01*
X127976428Y-73747380D01*
X128071666Y-73747380D01*
X128214523Y-73795000D01*
X128262142Y-73842619D01*
X128643095Y-73842619D02*
X128690714Y-73795000D01*
X128785952Y-73747380D01*
X129024047Y-73747380D01*
X129119285Y-73795000D01*
X129166904Y-73842619D01*
X129214523Y-73937857D01*
X129214523Y-74033095D01*
X129166904Y-74175952D01*
X128595476Y-74747380D01*
X129214523Y-74747380D01*
X129833571Y-73747380D02*
X129928809Y-73747380D01*
X130024047Y-73795000D01*
X130071666Y-73842619D01*
X130119285Y-73937857D01*
X130166904Y-74128333D01*
X130166904Y-74366428D01*
X130119285Y-74556904D01*
X130071666Y-74652142D01*
X130024047Y-74699761D01*
X129928809Y-74747380D01*
X129833571Y-74747380D01*
X129738333Y-74699761D01*
X129690714Y-74652142D01*
X129643095Y-74556904D01*
X129595476Y-74366428D01*
X129595476Y-74128333D01*
X129643095Y-73937857D01*
X129690714Y-73842619D01*
X129738333Y-73795000D01*
X129833571Y-73747380D01*
X128262142Y-83805142D02*
X128214523Y-83852761D01*
X128071666Y-83900380D01*
X127976428Y-83900380D01*
X127833571Y-83852761D01*
X127738333Y-83757523D01*
X127690714Y-83662285D01*
X127643095Y-83471809D01*
X127643095Y-83328952D01*
X127690714Y-83138476D01*
X127738333Y-83043238D01*
X127833571Y-82948000D01*
X127976428Y-82900380D01*
X128071666Y-82900380D01*
X128214523Y-82948000D01*
X128262142Y-82995619D01*
X129214523Y-83900380D02*
X128643095Y-83900380D01*
X128928809Y-83900380D02*
X128928809Y-82900380D01*
X128833571Y-83043238D01*
X128738333Y-83138476D01*
X128643095Y-83186095D01*
X129690714Y-83900380D02*
X129881190Y-83900380D01*
X129976428Y-83852761D01*
X130024047Y-83805142D01*
X130119285Y-83662285D01*
X130166904Y-83471809D01*
X130166904Y-83090857D01*
X130119285Y-82995619D01*
X130071666Y-82948000D01*
X129976428Y-82900380D01*
X129785952Y-82900380D01*
X129690714Y-82948000D01*
X129643095Y-82995619D01*
X129595476Y-83090857D01*
X129595476Y-83328952D01*
X129643095Y-83424190D01*
X129690714Y-83471809D01*
X129785952Y-83519428D01*
X129976428Y-83519428D01*
X130071666Y-83471809D01*
X130119285Y-83424190D01*
X130166904Y-83328952D01*
X116578142Y-74652142D02*
X116530523Y-74699761D01*
X116387666Y-74747380D01*
X116292428Y-74747380D01*
X116149571Y-74699761D01*
X116054333Y-74604523D01*
X116006714Y-74509285D01*
X115959095Y-74318809D01*
X115959095Y-74175952D01*
X116006714Y-73985476D01*
X116054333Y-73890238D01*
X116149571Y-73795000D01*
X116292428Y-73747380D01*
X116387666Y-73747380D01*
X116530523Y-73795000D01*
X116578142Y-73842619D01*
X117530523Y-74747380D02*
X116959095Y-74747380D01*
X117244809Y-74747380D02*
X117244809Y-73747380D01*
X117149571Y-73890238D01*
X117054333Y-73985476D01*
X116959095Y-74033095D01*
X118101952Y-74175952D02*
X118006714Y-74128333D01*
X117959095Y-74080714D01*
X117911476Y-73985476D01*
X117911476Y-73937857D01*
X117959095Y-73842619D01*
X118006714Y-73795000D01*
X118101952Y-73747380D01*
X118292428Y-73747380D01*
X118387666Y-73795000D01*
X118435285Y-73842619D01*
X118482904Y-73937857D01*
X118482904Y-73985476D01*
X118435285Y-74080714D01*
X118387666Y-74128333D01*
X118292428Y-74175952D01*
X118101952Y-74175952D01*
X118006714Y-74223571D01*
X117959095Y-74271190D01*
X117911476Y-74366428D01*
X117911476Y-74556904D01*
X117959095Y-74652142D01*
X118006714Y-74699761D01*
X118101952Y-74747380D01*
X118292428Y-74747380D01*
X118387666Y-74699761D01*
X118435285Y-74652142D01*
X118482904Y-74556904D01*
X118482904Y-74366428D01*
X118435285Y-74271190D01*
X118387666Y-74223571D01*
X118292428Y-74175952D01*
X116578142Y-83805142D02*
X116530523Y-83852761D01*
X116387666Y-83900380D01*
X116292428Y-83900380D01*
X116149571Y-83852761D01*
X116054333Y-83757523D01*
X116006714Y-83662285D01*
X115959095Y-83471809D01*
X115959095Y-83328952D01*
X116006714Y-83138476D01*
X116054333Y-83043238D01*
X116149571Y-82948000D01*
X116292428Y-82900380D01*
X116387666Y-82900380D01*
X116530523Y-82948000D01*
X116578142Y-82995619D01*
X117530523Y-83900380D02*
X116959095Y-83900380D01*
X117244809Y-83900380D02*
X117244809Y-82900380D01*
X117149571Y-83043238D01*
X117054333Y-83138476D01*
X116959095Y-83186095D01*
X117863857Y-82900380D02*
X118530523Y-82900380D01*
X118101952Y-83900380D01*
X128643142Y-96369142D02*
X128595523Y-96416761D01*
X128452666Y-96464380D01*
X128357428Y-96464380D01*
X128214571Y-96416761D01*
X128119333Y-96321523D01*
X128071714Y-96226285D01*
X128024095Y-96035809D01*
X128024095Y-95892952D01*
X128071714Y-95702476D01*
X128119333Y-95607238D01*
X128214571Y-95512000D01*
X128357428Y-95464380D01*
X128452666Y-95464380D01*
X128595523Y-95512000D01*
X128643142Y-95559619D01*
X129595523Y-96464380D02*
X129024095Y-96464380D01*
X129309809Y-96464380D02*
X129309809Y-95464380D01*
X129214571Y-95607238D01*
X129119333Y-95702476D01*
X129024095Y-95750095D01*
X130547904Y-96464380D02*
X129976476Y-96464380D01*
X130262190Y-96464380D02*
X130262190Y-95464380D01*
X130166952Y-95607238D01*
X130071714Y-95702476D01*
X129976476Y-95750095D01*
X99528333Y-69309142D02*
X99480714Y-69356761D01*
X99337857Y-69404380D01*
X99242619Y-69404380D01*
X99099761Y-69356761D01*
X99004523Y-69261523D01*
X98956904Y-69166285D01*
X98909285Y-68975809D01*
X98909285Y-68832952D01*
X98956904Y-68642476D01*
X99004523Y-68547238D01*
X99099761Y-68452000D01*
X99242619Y-68404380D01*
X99337857Y-68404380D01*
X99480714Y-68452000D01*
X99528333Y-68499619D01*
X99861666Y-68404380D02*
X100528333Y-68404380D01*
X100099761Y-69404380D01*
X109688333Y-88885142D02*
X109640714Y-88932761D01*
X109497857Y-88980380D01*
X109402619Y-88980380D01*
X109259761Y-88932761D01*
X109164523Y-88837523D01*
X109116904Y-88742285D01*
X109069285Y-88551809D01*
X109069285Y-88408952D01*
X109116904Y-88218476D01*
X109164523Y-88123238D01*
X109259761Y-88028000D01*
X109402619Y-87980380D01*
X109497857Y-87980380D01*
X109640714Y-88028000D01*
X109688333Y-88075619D01*
X110545476Y-88313714D02*
X110545476Y-88980380D01*
X110307380Y-87932761D02*
X110069285Y-88647047D01*
X110688333Y-88647047D01*
X113498333Y-69309142D02*
X113450714Y-69356761D01*
X113307857Y-69404380D01*
X113212619Y-69404380D01*
X113069761Y-69356761D01*
X112974523Y-69261523D01*
X112926904Y-69166285D01*
X112879285Y-68975809D01*
X112879285Y-68832952D01*
X112926904Y-68642476D01*
X112974523Y-68547238D01*
X113069761Y-68452000D01*
X113212619Y-68404380D01*
X113307857Y-68404380D01*
X113450714Y-68452000D01*
X113498333Y-68499619D01*
X113831666Y-68404380D02*
X114450714Y-68404380D01*
X114117380Y-68785333D01*
X114260238Y-68785333D01*
X114355476Y-68832952D01*
X114403095Y-68880571D01*
X114450714Y-68975809D01*
X114450714Y-69213904D01*
X114403095Y-69309142D01*
X114355476Y-69356761D01*
X114260238Y-69404380D01*
X113974523Y-69404380D01*
X113879285Y-69356761D01*
X113831666Y-69309142D01*
X136358333Y-69309142D02*
X136310714Y-69356761D01*
X136167857Y-69404380D01*
X136072619Y-69404380D01*
X135929761Y-69356761D01*
X135834523Y-69261523D01*
X135786904Y-69166285D01*
X135739285Y-68975809D01*
X135739285Y-68832952D01*
X135786904Y-68642476D01*
X135834523Y-68547238D01*
X135929761Y-68452000D01*
X136072619Y-68404380D01*
X136167857Y-68404380D01*
X136310714Y-68452000D01*
X136358333Y-68499619D01*
X136739285Y-68499619D02*
X136786904Y-68452000D01*
X136882142Y-68404380D01*
X137120238Y-68404380D01*
X137215476Y-68452000D01*
X137263095Y-68499619D01*
X137310714Y-68594857D01*
X137310714Y-68690095D01*
X137263095Y-68832952D01*
X136691666Y-69404380D01*
X137310714Y-69404380D01*
X119086333Y-69309142D02*
X119038714Y-69356761D01*
X118895857Y-69404380D01*
X118800619Y-69404380D01*
X118657761Y-69356761D01*
X118562523Y-69261523D01*
X118514904Y-69166285D01*
X118467285Y-68975809D01*
X118467285Y-68832952D01*
X118514904Y-68642476D01*
X118562523Y-68547238D01*
X118657761Y-68452000D01*
X118800619Y-68404380D01*
X118895857Y-68404380D01*
X119038714Y-68452000D01*
X119086333Y-68499619D01*
X120038714Y-69404380D02*
X119467285Y-69404380D01*
X119753000Y-69404380D02*
X119753000Y-68404380D01*
X119657761Y-68547238D01*
X119562523Y-68642476D01*
X119467285Y-68690095D01*
M02*
