  0
SECTION
  2
HEADER
  9
$ANGBASE
  50
0.0
  9
$ANGDIR
  70
1
  9
$MEASUREMENT
  70
1
  0
ENDSEC
  0
SECTION
  2
TABLES
  0
TABLE
  2
LTYPE
  70
4
  0
LTYPE
  5
40F
  2
CONTINUOUS
  70
0
  3
Solid line
  72
65
  73
0
  40
0.0
  0
LTYPE
  5
410
  2
DASHDOT
 70
0
  3
Dash Dot ____ _ ____ _
 72
65
 73
4
 40
2.0
 49
1.25
 49
-0.25
 49
0.25
 49
-0.25
  0
LTYPE
  5
411
  2
DASHED
 70
0
  3
Dashed __ __ __ __ __
 72
65
 73
2
 40
0.75
 49
0.5
 49
-0.25
  0
LTYPE
  5
43B
  2
DOTTED
 70
0
  3
Dotted .  .  .  .
 72
65
 73
2
 40
0.2
 49
0.0
 49
-0.2
  0
ENDTAB
  0
TABLE
  2
STYLE
  70
4
  0
STYLE
  2
KICAD
  70
0
  40
0
  41
1
  42
1
  50
0
  71
0
  3
isocp.shx
  0
STYLE
  2
KICADB
  70
0
  40
0
  41
1
  42
1
  50
0
  71
0
  3
isocp.shx
  0
STYLE
  2
KICADI
  70
0
  40
0
  41
1
  42
1
  50
15
  71
0
  3
isocp.shx
  0
STYLE
  2
KICADBI
  70
0
  40
0
  41
1
  42
1
  50
15
  71
0
  3
isocp.shx
  0
ENDTAB
  0
TABLE
  2
LAYER
  70
1
  0
LAYER
  2
BLACK
  70
0
  62
7
  6
CONTINUOUS
  0
ENDTAB
  0
ENDSEC
  0
SECTION
  2
ENTITIES
0
LINE
8
BLACK
6
CONTINUOUS
10
141.135
20
-103.289
11
141.155
21
-103.293
0
LINE
8
BLACK
6
CONTINUOUS
10
141.155
20
-103.293
11
141.171
21
-103.304
0
LINE
8
BLACK
6
CONTINUOUS
10
141.171
20
-103.304
11
141.182
21
-103.32
0
LINE
8
BLACK
6
CONTINUOUS
10
141.182
20
-103.32
11
141.186
21
-103.34
0
LINE
8
BLACK
6
CONTINUOUS
10
141.186
20
-103.34
11
141.186
21
-104.94
0
LINE
8
BLACK
6
CONTINUOUS
10
141.186
20
-104.94
11
141.182
21
-104.96
0
LINE
8
BLACK
6
CONTINUOUS
10
141.182
20
-104.96
11
141.171
21
-104.976
0
LINE
8
BLACK
6
CONTINUOUS
10
141.171
20
-104.976
11
141.155
21
-104.987
0
LINE
8
BLACK
6
CONTINUOUS
10
141.155
20
-104.987
11
141.135
21
-104.991
0
LINE
8
BLACK
6
CONTINUOUS
10
141.135
20
-104.991
11
139.535
21
-104.991
0
LINE
8
BLACK
6
CONTINUOUS
10
139.535
20
-104.991
11
139.515
21
-104.987
0
LINE
8
BLACK
6
CONTINUOUS
10
139.515
20
-104.987
11
139.499
21
-104.976
0
LINE
8
BLACK
6
CONTINUOUS
10
139.499
20
-104.976
11
139.488
21
-104.96
0
LINE
8
BLACK
6
CONTINUOUS
10
139.488
20
-104.96
11
139.484
21
-104.94
0
LINE
8
BLACK
6
CONTINUOUS
10
139.484
20
-104.94
11
139.484
21
-103.34
0
LINE
8
BLACK
6
CONTINUOUS
10
139.484
20
-103.34
11
139.488
21
-103.32
0
LINE
8
BLACK
6
CONTINUOUS
10
139.488
20
-103.32
11
139.499
21
-103.304
0
LINE
8
BLACK
6
CONTINUOUS
10
139.499
20
-103.304
11
139.515
21
-103.293
0
LINE
8
BLACK
6
CONTINUOUS
10
139.515
20
-103.293
11
139.535
21
-103.289
0
LINE
8
BLACK
6
CONTINUOUS
10
139.535
20
-103.289
11
141.135
21
-103.289
0
CIRCLE
8
BLACK
10
140.335
20
-106.64
40
0.851
0
LINE
8
BLACK
6
CONTINUOUS
10
170.98
20
-95.7566
11
171
21
-95.7605
0
LINE
8
BLACK
6
CONTINUOUS
10
171
20
-95.7605
11
171.016
21
-95.7716
0
LINE
8
BLACK
6
CONTINUOUS
10
171.016
20
-95.7716
11
171.027
21
-95.7881
0
LINE
8
BLACK
6
CONTINUOUS
10
171.027
20
-95.7881
11
171.031
21
-95.8076
0
LINE
8
BLACK
6
CONTINUOUS
10
171.031
20
-95.8076
11
171.031
21
-97.4076
0
LINE
8
BLACK
6
CONTINUOUS
10
171.031
20
-97.4076
11
171.027
21
-97.4271
0
LINE
8
BLACK
6
CONTINUOUS
10
171.027
20
-97.4271
11
171.016
21
-97.4437
0
LINE
8
BLACK
6
CONTINUOUS
10
171.016
20
-97.4437
11
171
21
-97.4547
0
LINE
8
BLACK
6
CONTINUOUS
10
171
20
-97.4547
11
170.98
21
-97.4586
0
LINE
8
BLACK
6
CONTINUOUS
10
170.98
20
-97.4586
11
169.38
21
-97.4586
0
LINE
8
BLACK
6
CONTINUOUS
10
169.38
20
-97.4586
11
169.36
21
-97.4547
0
LINE
8
BLACK
6
CONTINUOUS
10
169.36
20
-97.4547
11
169.344
21
-97.4437
0
LINE
8
BLACK
6
CONTINUOUS
10
169.344
20
-97.4437
11
169.333
21
-97.4271
0
LINE
8
BLACK
6
CONTINUOUS
10
169.333
20
-97.4271
11
169.329
21
-97.4076
0
LINE
8
BLACK
6
CONTINUOUS
10
169.329
20
-97.4076
11
169.329
21
-95.8076
0
LINE
8
BLACK
6
CONTINUOUS
10
169.329
20
-95.8076
11
169.333
21
-95.7881
0
LINE
8
BLACK
6
CONTINUOUS
10
169.333
20
-95.7881
11
169.344
21
-95.7716
0
LINE
8
BLACK
6
CONTINUOUS
10
169.344
20
-95.7716
11
169.36
21
-95.7605
0
LINE
8
BLACK
6
CONTINUOUS
10
169.36
20
-95.7605
11
169.38
21
-95.7566
0
LINE
8
BLACK
6
CONTINUOUS
10
169.38
20
-95.7566
11
170.98
21
-95.7566
0
CIRCLE
8
BLACK
10
170.18
20
-99.1076
40
0.851
0
LINE
8
BLACK
6
CONTINUOUS
10
127.165
20
-97.6616
11
127.185
21
-97.6655
0
LINE
8
BLACK
6
CONTINUOUS
10
127.185
20
-97.6655
11
127.201
21
-97.6766
0
LINE
8
BLACK
6
CONTINUOUS
10
127.201
20
-97.6766
11
127.212
21
-97.6931
0
LINE
8
BLACK
6
CONTINUOUS
10
127.212
20
-97.6931
11
127.216
21
-97.7126
0
LINE
8
BLACK
6
CONTINUOUS
10
127.216
20
-97.7126
11
127.216
21
-99.3126
0
LINE
8
BLACK
6
CONTINUOUS
10
127.216
20
-99.3126
11
127.212
21
-99.3321
0
LINE
8
BLACK
6
CONTINUOUS
10
127.212
20
-99.3321
11
127.201
21
-99.3487
0
LINE
8
BLACK
6
CONTINUOUS
10
127.201
20
-99.3487
11
127.185
21
-99.3597
0
LINE
8
BLACK
6
CONTINUOUS
10
127.185
20
-99.3597
11
127.165
21
-99.3636
0
LINE
8
BLACK
6
CONTINUOUS
10
127.165
20
-99.3636
11
125.565
21
-99.3636
0
LINE
8
BLACK
6
CONTINUOUS
10
125.565
20
-99.3636
11
125.545
21
-99.3597
0
LINE
8
BLACK
6
CONTINUOUS
10
125.545
20
-99.3597
11
125.529
21
-99.3487
0
LINE
8
BLACK
6
CONTINUOUS
10
125.529
20
-99.3487
11
125.518
21
-99.3321
0
LINE
8
BLACK
6
CONTINUOUS
10
125.518
20
-99.3321
11
125.514
21
-99.3126
0
LINE
8
BLACK
6
CONTINUOUS
10
125.514
20
-99.3126
11
125.514
21
-97.7126
0
LINE
8
BLACK
6
CONTINUOUS
10
125.514
20
-97.7126
11
125.518
21
-97.6931
0
LINE
8
BLACK
6
CONTINUOUS
10
125.518
20
-97.6931
11
125.529
21
-97.6766
0
LINE
8
BLACK
6
CONTINUOUS
10
125.529
20
-97.6766
11
125.545
21
-97.6655
0
LINE
8
BLACK
6
CONTINUOUS
10
125.545
20
-97.6655
11
125.565
21
-97.6616
0
LINE
8
BLACK
6
CONTINUOUS
10
125.565
20
-97.6616
11
127.165
21
-97.6616
0
CIRCLE
8
BLACK
10
126.365
20
-101.013
40
0.851
0
CIRCLE
8
BLACK
10
127.635
20
-120.015
40
0.771
0
CIRCLE
8
BLACK
10
127.635
20
-117.475
40
0.771
0
CIRCLE
8
BLACK
10
127.635
20
-114.935
40
0.771
0
CIRCLE
8
BLACK
10
171.45
20
-83.86
40
0.851
0
CIRCLE
8
BLACK
10
171.45
20
-88.86
40
0.851
0
LINE
8
BLACK
6
CONTINUOUS
10
127.165
20
-88.1366
11
127.185
21
-88.1405
0
LINE
8
BLACK
6
CONTINUOUS
10
127.185
20
-88.1405
11
127.201
21
-88.1516
0
LINE
8
BLACK
6
CONTINUOUS
10
127.201
20
-88.1516
11
127.212
21
-88.1681
0
LINE
8
BLACK
6
CONTINUOUS
10
127.212
20
-88.1681
11
127.216
21
-88.1876
0
LINE
8
BLACK
6
CONTINUOUS
10
127.216
20
-88.1876
11
127.216
21
-89.7876
0
LINE
8
BLACK
6
CONTINUOUS
10
127.216
20
-89.7876
11
127.212
21
-89.8071
0
LINE
8
BLACK
6
CONTINUOUS
10
127.212
20
-89.8071
11
127.201
21
-89.8237
0
LINE
8
BLACK
6
CONTINUOUS
10
127.201
20
-89.8237
11
127.185
21
-89.8347
0
LINE
8
BLACK
6
CONTINUOUS
10
127.185
20
-89.8347
11
127.165
21
-89.8386
0
LINE
8
BLACK
6
CONTINUOUS
10
127.165
20
-89.8386
11
125.565
21
-89.8386
0
LINE
8
BLACK
6
CONTINUOUS
10
125.565
20
-89.8386
11
125.545
21
-89.8347
0
LINE
8
BLACK
6
CONTINUOUS
10
125.545
20
-89.8347
11
125.529
21
-89.8237
0
LINE
8
BLACK
6
CONTINUOUS
10
125.529
20
-89.8237
11
125.518
21
-89.8071
0
LINE
8
BLACK
6
CONTINUOUS
10
125.518
20
-89.8071
11
125.514
21
-89.7876
0
LINE
8
BLACK
6
CONTINUOUS
10
125.514
20
-89.7876
11
125.514
21
-88.1876
0
LINE
8
BLACK
6
CONTINUOUS
10
125.514
20
-88.1876
11
125.518
21
-88.1681
0
LINE
8
BLACK
6
CONTINUOUS
10
125.518
20
-88.1681
11
125.529
21
-88.1516
0
LINE
8
BLACK
6
CONTINUOUS
10
125.529
20
-88.1516
11
125.545
21
-88.1405
0
LINE
8
BLACK
6
CONTINUOUS
10
125.545
20
-88.1405
11
125.565
21
-88.1366
0
LINE
8
BLACK
6
CONTINUOUS
10
125.565
20
-88.1366
11
127.165
21
-88.1366
0
CIRCLE
8
BLACK
10
126.365
20
-91.4876
40
0.851
0
LINE
8
BLACK
6
CONTINUOUS
10
170.98
20
-116.624
11
171
21
-116.628
0
LINE
8
BLACK
6
CONTINUOUS
10
171
20
-116.628
11
171.016
21
-116.639
0
LINE
8
BLACK
6
CONTINUOUS
10
171.016
20
-116.639
11
171.027
21
-116.655
0
LINE
8
BLACK
6
CONTINUOUS
10
171.027
20
-116.655
11
171.031
21
-116.675
0
LINE
8
BLACK
6
CONTINUOUS
10
171.031
20
-116.675
11
171.031
21
-118.275
0
LINE
8
BLACK
6
CONTINUOUS
10
171.031
20
-118.275
11
171.027
21
-118.295
0
LINE
8
BLACK
6
CONTINUOUS
10
171.027
20
-118.295
11
171.016
21
-118.311
0
LINE
8
BLACK
6
CONTINUOUS
10
171.016
20
-118.311
11
171
21
-118.322
0
LINE
8
BLACK
6
CONTINUOUS
10
171
20
-118.322
11
170.98
21
-118.326
0
LINE
8
BLACK
6
CONTINUOUS
10
170.98
20
-118.326
11
169.38
21
-118.326
0
LINE
8
BLACK
6
CONTINUOUS
10
169.38
20
-118.326
11
169.36
21
-118.322
0
LINE
8
BLACK
6
CONTINUOUS
10
169.36
20
-118.322
11
169.344
21
-118.311
0
LINE
8
BLACK
6
CONTINUOUS
10
169.344
20
-118.311
11
169.333
21
-118.295
0
LINE
8
BLACK
6
CONTINUOUS
10
169.333
20
-118.295
11
169.329
21
-118.275
0
LINE
8
BLACK
6
CONTINUOUS
10
169.329
20
-118.275
11
169.329
21
-116.675
0
LINE
8
BLACK
6
CONTINUOUS
10
169.329
20
-116.675
11
169.333
21
-116.655
0
LINE
8
BLACK
6
CONTINUOUS
10
169.333
20
-116.655
11
169.344
21
-116.639
0
LINE
8
BLACK
6
CONTINUOUS
10
169.344
20
-116.639
11
169.36
21
-116.628
0
LINE
8
BLACK
6
CONTINUOUS
10
169.36
20
-116.628
11
169.38
21
-116.624
0
LINE
8
BLACK
6
CONTINUOUS
10
169.38
20
-116.624
11
170.98
21
-116.624
0
CIRCLE
8
BLACK
10
170.18
20
-119.975
40
0.851
0
LINE
8
BLACK
6
CONTINUOUS
10
170.98
20
-109.639
11
171
21
-109.643
0
LINE
8
BLACK
6
CONTINUOUS
10
171
20
-109.643
11
171.016
21
-109.654
0
LINE
8
BLACK
6
CONTINUOUS
10
171.016
20
-109.654
11
171.027
21
-109.67
0
LINE
8
BLACK
6
CONTINUOUS
10
171.027
20
-109.67
11
171.031
21
-109.69
0
LINE
8
BLACK
6
CONTINUOUS
10
171.031
20
-109.69
11
171.031
21
-111.29
0
LINE
8
BLACK
6
CONTINUOUS
10
171.031
20
-111.29
11
171.027
21
-111.31
0
LINE
8
BLACK
6
CONTINUOUS
10
171.027
20
-111.31
11
171.016
21
-111.326
0
LINE
8
BLACK
6
CONTINUOUS
10
171.016
20
-111.326
11
171
21
-111.337
0
LINE
8
BLACK
6
CONTINUOUS
10
171
20
-111.337
11
170.98
21
-111.341
0
LINE
8
BLACK
6
CONTINUOUS
10
170.98
20
-111.341
11
169.38
21
-111.341
0
LINE
8
BLACK
6
CONTINUOUS
10
169.38
20
-111.341
11
169.36
21
-111.337
0
LINE
8
BLACK
6
CONTINUOUS
10
169.36
20
-111.337
11
169.344
21
-111.326
0
LINE
8
BLACK
6
CONTINUOUS
10
169.344
20
-111.326
11
169.333
21
-111.31
0
LINE
8
BLACK
6
CONTINUOUS
10
169.333
20
-111.31
11
169.329
21
-111.29
0
LINE
8
BLACK
6
CONTINUOUS
10
169.329
20
-111.29
11
169.329
21
-109.69
0
LINE
8
BLACK
6
CONTINUOUS
10
169.329
20
-109.69
11
169.333
21
-109.67
0
LINE
8
BLACK
6
CONTINUOUS
10
169.333
20
-109.67
11
169.344
21
-109.654
0
LINE
8
BLACK
6
CONTINUOUS
10
169.344
20
-109.654
11
169.36
21
-109.643
0
LINE
8
BLACK
6
CONTINUOUS
10
169.36
20
-109.643
11
169.38
21
-109.639
0
LINE
8
BLACK
6
CONTINUOUS
10
169.38
20
-109.639
11
170.98
21
-109.639
0
CIRCLE
8
BLACK
10
170.18
20
-112.99
40
0.851
0
CIRCLE
8
BLACK
10
133.985
20
-120.015
40
0.771
0
CIRCLE
8
BLACK
10
133.985
20
-117.475
40
0.771
0
CIRCLE
8
BLACK
10
133.985
20
-114.935
40
0.771
0
CIRCLE
8
BLACK
10
140.335
20
-120.015
40
0.771
0
CIRCLE
8
BLACK
10
140.335
20
-117.475
40
0.771
0
CIRCLE
8
BLACK
10
140.335
20
-114.935
40
0.771
0
CIRCLE
8
BLACK
10
167.005
20
-83.86
40
0.851
0
CIRCLE
8
BLACK
10
167.005
20
-88.86
40
0.851
0
LINE
8
BLACK
6
CONTINUOUS
10
123.456
20
-77.05
11
123.452
21
-77.0695
0
LINE
8
BLACK
6
CONTINUOUS
10
123.452
20
-77.0695
11
123.441
21
-77.0861
0
LINE
8
BLACK
6
CONTINUOUS
10
123.441
20
-77.0861
11
123.425
21
-77.0971
0
LINE
8
BLACK
6
CONTINUOUS
10
123.425
20
-77.0971
11
123.405
21
-77.101
0
LINE
8
BLACK
6
CONTINUOUS
10
123.405
20
-77.101
11
121.705
21
-77.101
0
LINE
8
BLACK
6
CONTINUOUS
10
121.705
20
-77.101
11
121.685
21
-77.0971
0
LINE
8
BLACK
6
CONTINUOUS
10
121.685
20
-77.0971
11
121.669
21
-77.0861
0
LINE
8
BLACK
6
CONTINUOUS
10
121.669
20
-77.0861
11
121.658
21
-77.0695
0
LINE
8
BLACK
6
CONTINUOUS
10
121.658
20
-77.0695
11
121.654
21
-77.05
0
LINE
8
BLACK
6
CONTINUOUS
10
121.654
20
-77.05
11
121.654
21
-75.35
0
LINE
8
BLACK
6
CONTINUOUS
10
121.654
20
-75.35
11
121.658
21
-75.3305
0
LINE
8
BLACK
6
CONTINUOUS
10
121.658
20
-75.3305
11
121.669
21
-75.3139
0
LINE
8
BLACK
6
CONTINUOUS
10
121.669
20
-75.3139
11
121.685
21
-75.3029
0
LINE
8
BLACK
6
CONTINUOUS
10
121.685
20
-75.3029
11
121.705
21
-75.299
0
LINE
8
BLACK
6
CONTINUOUS
10
121.705
20
-75.299
11
123.405
21
-75.299
0
LINE
8
BLACK
6
CONTINUOUS
10
123.405
20
-75.299
11
123.425
21
-75.3029
0
LINE
8
BLACK
6
CONTINUOUS
10
123.425
20
-75.3029
11
123.441
21
-75.3139
0
LINE
8
BLACK
6
CONTINUOUS
10
123.441
20
-75.3139
11
123.452
21
-75.3305
0
LINE
8
BLACK
6
CONTINUOUS
10
123.452
20
-75.3305
11
123.456
21
-75.35
0
LINE
8
BLACK
6
CONTINUOUS
10
123.456
20
-75.35
11
123.456
21
-77.05
0
ARC
8
BLACK
10
122.555
20
-78.74
40
0.901
50
360
51
540
0
ARC
8
BLACK
10
122.555
20
-78.74
40
0.901
50
180
51
360
0
ARC
8
BLACK
10
122.555
20
-81.28
40
0.901
50
360
51
540
0
ARC
8
BLACK
10
122.555
20
-81.28
40
0.901
50
180
51
360
0
ARC
8
BLACK
10
122.555
20
-83.82
40
0.901
50
360
51
540
0
ARC
8
BLACK
10
122.555
20
-83.82
40
0.901
50
180
51
360
0
LINE
8
BLACK
6
CONTINUOUS
10
123.456
20
-115.15
11
123.452
21
-115.17
0
LINE
8
BLACK
6
CONTINUOUS
10
123.452
20
-115.17
11
123.441
21
-115.186
0
LINE
8
BLACK
6
CONTINUOUS
10
123.441
20
-115.186
11
123.425
21
-115.197
0
LINE
8
BLACK
6
CONTINUOUS
10
123.425
20
-115.197
11
123.405
21
-115.201
0
LINE
8
BLACK
6
CONTINUOUS
10
123.405
20
-115.201
11
121.705
21
-115.201
0
LINE
8
BLACK
6
CONTINUOUS
10
121.705
20
-115.201
11
121.685
21
-115.197
0
LINE
8
BLACK
6
CONTINUOUS
10
121.685
20
-115.197
11
121.669
21
-115.186
0
LINE
8
BLACK
6
CONTINUOUS
10
121.669
20
-115.186
11
121.658
21
-115.17
0
LINE
8
BLACK
6
CONTINUOUS
10
121.658
20
-115.17
11
121.654
21
-115.15
0
LINE
8
BLACK
6
CONTINUOUS
10
121.654
20
-115.15
11
121.654
21
-113.45
0
LINE
8
BLACK
6
CONTINUOUS
10
121.654
20
-113.45
11
121.658
21
-113.43
0
LINE
8
BLACK
6
CONTINUOUS
10
121.658
20
-113.43
11
121.669
21
-113.414
0
LINE
8
BLACK
6
CONTINUOUS
10
121.669
20
-113.414
11
121.685
21
-113.403
0
LINE
8
BLACK
6
CONTINUOUS
10
121.685
20
-113.403
11
121.705
21
-113.399
0
LINE
8
BLACK
6
CONTINUOUS
10
121.705
20
-113.399
11
123.405
21
-113.399
0
LINE
8
BLACK
6
CONTINUOUS
10
123.405
20
-113.399
11
123.425
21
-113.403
0
LINE
8
BLACK
6
CONTINUOUS
10
123.425
20
-113.403
11
123.441
21
-113.414
0
LINE
8
BLACK
6
CONTINUOUS
10
123.441
20
-113.414
11
123.452
21
-113.43
0
LINE
8
BLACK
6
CONTINUOUS
10
123.452
20
-113.43
11
123.456
21
-113.45
0
LINE
8
BLACK
6
CONTINUOUS
10
123.456
20
-113.45
11
123.456
21
-115.15
0
ARC
8
BLACK
10
122.555
20
-116.84
40
0.901
50
360
51
540
0
ARC
8
BLACK
10
122.555
20
-116.84
40
0.901
50
180
51
360
0
ARC
8
BLACK
10
122.555
20
-119.38
40
0.901
50
360
51
540
0
ARC
8
BLACK
10
122.555
20
-119.38
40
0.901
50
180
51
360
0
ARC
8
BLACK
10
122.555
20
-121.92
40
0.901
50
360
51
540
0
ARC
8
BLACK
10
122.555
20
-121.92
40
0.901
50
180
51
360
0
LINE
8
BLACK
6
CONTINUOUS
10
176.796
20
-77.05
11
176.792
21
-77.0695
0
LINE
8
BLACK
6
CONTINUOUS
10
176.792
20
-77.0695
11
176.781
21
-77.0861
0
LINE
8
BLACK
6
CONTINUOUS
10
176.781
20
-77.0861
11
176.765
21
-77.0971
0
LINE
8
BLACK
6
CONTINUOUS
10
176.765
20
-77.0971
11
176.745
21
-77.101
0
LINE
8
BLACK
6
CONTINUOUS
10
176.745
20
-77.101
11
175.045
21
-77.101
0
LINE
8
BLACK
6
CONTINUOUS
10
175.045
20
-77.101
11
175.025
21
-77.0971
0
LINE
8
BLACK
6
CONTINUOUS
10
175.025
20
-77.0971
11
175.009
21
-77.0861
0
LINE
8
BLACK
6
CONTINUOUS
10
175.009
20
-77.0861
11
174.998
21
-77.0695
0
LINE
8
BLACK
6
CONTINUOUS
10
174.998
20
-77.0695
11
174.994
21
-77.05
0
LINE
8
BLACK
6
CONTINUOUS
10
174.994
20
-77.05
11
174.994
21
-75.35
0
LINE
8
BLACK
6
CONTINUOUS
10
174.994
20
-75.35
11
174.998
21
-75.3305
0
LINE
8
BLACK
6
CONTINUOUS
10
174.998
20
-75.3305
11
175.009
21
-75.3139
0
LINE
8
BLACK
6
CONTINUOUS
10
175.009
20
-75.3139
11
175.025
21
-75.3029
0
LINE
8
BLACK
6
CONTINUOUS
10
175.025
20
-75.3029
11
175.045
21
-75.299
0
LINE
8
BLACK
6
CONTINUOUS
10
175.045
20
-75.299
11
176.745
21
-75.299
0
LINE
8
BLACK
6
CONTINUOUS
10
176.745
20
-75.299
11
176.765
21
-75.3029
0
LINE
8
BLACK
6
CONTINUOUS
10
176.765
20
-75.3029
11
176.781
21
-75.3139
0
LINE
8
BLACK
6
CONTINUOUS
10
176.781
20
-75.3139
11
176.792
21
-75.3305
0
LINE
8
BLACK
6
CONTINUOUS
10
176.792
20
-75.3305
11
176.796
21
-75.35
0
LINE
8
BLACK
6
CONTINUOUS
10
176.796
20
-75.35
11
176.796
21
-77.05
0
ARC
8
BLACK
10
175.895
20
-78.74
40
0.901
50
360
51
540
0
ARC
8
BLACK
10
175.895
20
-78.74
40
0.901
50
180
51
360
0
ARC
8
BLACK
10
175.895
20
-81.28
40
0.901
50
360
51
540
0
ARC
8
BLACK
10
175.895
20
-81.28
40
0.901
50
180
51
360
0
ARC
8
BLACK
10
175.895
20
-83.82
40
0.901
50
360
51
540
0
ARC
8
BLACK
10
175.895
20
-83.82
40
0.901
50
180
51
360
0
LINE
8
BLACK
6
CONTINUOUS
10
176.796
20
-104.99
11
176.792
21
-105.01
0
LINE
8
BLACK
6
CONTINUOUS
10
176.792
20
-105.01
11
176.781
21
-105.026
0
LINE
8
BLACK
6
CONTINUOUS
10
176.781
20
-105.026
11
176.765
21
-105.037
0
LINE
8
BLACK
6
CONTINUOUS
10
176.765
20
-105.037
11
176.745
21
-105.041
0
LINE
8
BLACK
6
CONTINUOUS
10
176.745
20
-105.041
11
175.045
21
-105.041
0
LINE
8
BLACK
6
CONTINUOUS
10
175.045
20
-105.041
11
175.025
21
-105.037
0
LINE
8
BLACK
6
CONTINUOUS
10
175.025
20
-105.037
11
175.009
21
-105.026
0
LINE
8
BLACK
6
CONTINUOUS
10
175.009
20
-105.026
11
174.998
21
-105.01
0
LINE
8
BLACK
6
CONTINUOUS
10
174.998
20
-105.01
11
174.994
21
-104.99
0
LINE
8
BLACK
6
CONTINUOUS
10
174.994
20
-104.99
11
174.994
21
-103.29
0
LINE
8
BLACK
6
CONTINUOUS
10
174.994
20
-103.29
11
174.998
21
-103.27
0
LINE
8
BLACK
6
CONTINUOUS
10
174.998
20
-103.27
11
175.009
21
-103.254
0
LINE
8
BLACK
6
CONTINUOUS
10
175.009
20
-103.254
11
175.025
21
-103.243
0
LINE
8
BLACK
6
CONTINUOUS
10
175.025
20
-103.243
11
175.045
21
-103.239
0
LINE
8
BLACK
6
CONTINUOUS
10
175.045
20
-103.239
11
176.745
21
-103.239
0
LINE
8
BLACK
6
CONTINUOUS
10
176.745
20
-103.239
11
176.765
21
-103.243
0
LINE
8
BLACK
6
CONTINUOUS
10
176.765
20
-103.243
11
176.781
21
-103.254
0
LINE
8
BLACK
6
CONTINUOUS
10
176.781
20
-103.254
11
176.792
21
-103.27
0
LINE
8
BLACK
6
CONTINUOUS
10
176.792
20
-103.27
11
176.796
21
-103.29
0
LINE
8
BLACK
6
CONTINUOUS
10
176.796
20
-103.29
11
176.796
21
-104.99
0
ARC
8
BLACK
10
175.895
20
-106.68
40
0.901
50
360
51
540
0
ARC
8
BLACK
10
175.895
20
-106.68
40
0.901
50
180
51
360
0
ARC
8
BLACK
10
175.895
20
-109.22
40
0.901
50
360
51
540
0
ARC
8
BLACK
10
175.895
20
-109.22
40
0.901
50
180
51
360
0
ARC
8
BLACK
10
175.895
20
-111.76
40
0.901
50
360
51
540
0
ARC
8
BLACK
10
175.895
20
-111.76
40
0.901
50
180
51
360
0
ARC
8
BLACK
10
175.895
20
-114.3
40
0.901
50
360
51
540
0
ARC
8
BLACK
10
175.895
20
-114.3
40
0.901
50
180
51
360
0
ARC
8
BLACK
10
175.895
20
-116.84
40
0.901
50
360
51
540
0
ARC
8
BLACK
10
175.895
20
-116.84
40
0.901
50
180
51
360
0
ARC
8
BLACK
10
175.895
20
-119.38
40
0.901
50
360
51
540
0
ARC
8
BLACK
10
175.895
20
-119.38
40
0.901
50
180
51
360
0
ARC
8
BLACK
10
175.895
20
-121.92
40
0.901
50
360
51
540
0
ARC
8
BLACK
10
175.895
20
-121.92
40
0.901
50
180
51
360
  0
ENDSEC
  0
EOF
