  0
SECTION
  2
HEADER
  9
$ANGBASE
  50
0.0
  9
$ANGDIR
  70
1
  9
$MEASUREMENT
  70
1
  0
ENDSEC
  0
SECTION
  2
TABLES
  0
TABLE
  2
LTYPE
  70
4
  0
LTYPE
  5
40F
  2
CONTINUOUS
  70
0
  3
Solid line
  72
65
  73
0
  40
0.0
  0
LTYPE
  5
410
  2
DASHDOT
 70
0
  3
Dash Dot ____ _ ____ _
 72
65
 73
4
 40
2.0
 49
1.25
 49
-0.25
 49
0.25
 49
-0.25
  0
LTYPE
  5
411
  2
DASHED
 70
0
  3
Dashed __ __ __ __ __
 72
65
 73
2
 40
0.75
 49
0.5
 49
-0.25
  0
LTYPE
  5
43B
  2
DOTTED
 70
0
  3
Dotted .  .  .  .
 72
65
 73
2
 40
0.2
 49
0.0
 49
-0.2
  0
ENDTAB
  0
TABLE
  2
STYLE
  70
4
  0
STYLE
  2
KICAD
  70
0
  40
0
  41
1
  42
1
  50
0
  71
0
  3
isocp.shx
  0
STYLE
  2
KICADB
  70
0
  40
0
  41
1
  42
1
  50
0
  71
0
  3
isocp.shx
  0
STYLE
  2
KICADI
  70
0
  40
0
  41
1
  42
1
  50
15
  71
0
  3
isocp.shx
  0
STYLE
  2
KICADBI
  70
0
  40
0
  41
1
  42
1
  50
15
  71
0
  3
isocp.shx
  0
ENDTAB
  0
TABLE
  2
LAYER
  70
1
  0
LAYER
  2
BLACK
  70
0
  62
7
  6
CONTINUOUS
  0
ENDTAB
  0
ENDSEC
  0
SECTION
  2
ENTITIES
0
CIRCLE
8
BLACK
10
137.541
20
-118.745
40
0.771
0
CIRCLE
8
BLACK
10
137.541
20
-116.205
40
0.771
0
CIRCLE
8
BLACK
10
137.541
20
-113.665
40
0.771
0
CIRCLE
8
BLACK
10
130.683
20
-118.745
40
0.771
0
CIRCLE
8
BLACK
10
130.683
20
-116.205
40
0.771
0
CIRCLE
8
BLACK
10
130.683
20
-113.665
40
0.771
0
CIRCLE
8
BLACK
10
177.165
20
-88.345
40
0.851
0
CIRCLE
8
BLACK
10
177.165
20
-93.345
40
0.851
0
LINE
8
BLACK
6
CONTINUOUS
10
126.15
20
-101.485
11
126.13
21
-101.481
0
LINE
8
BLACK
6
CONTINUOUS
10
126.13
20
-101.481
11
126.114
21
-101.47
0
LINE
8
BLACK
6
CONTINUOUS
10
126.114
20
-101.47
11
126.103
21
-101.454
0
LINE
8
BLACK
6
CONTINUOUS
10
126.103
20
-101.454
11
126.099
21
-101.434
0
LINE
8
BLACK
6
CONTINUOUS
10
126.099
20
-101.434
11
126.099
21
-99.734
0
LINE
8
BLACK
6
CONTINUOUS
10
126.099
20
-99.734
11
126.103
21
-99.7145
0
LINE
8
BLACK
6
CONTINUOUS
10
126.103
20
-99.7145
11
126.114
21
-99.6979
0
LINE
8
BLACK
6
CONTINUOUS
10
126.114
20
-99.6979
11
126.13
21
-99.6869
0
LINE
8
BLACK
6
CONTINUOUS
10
126.13
20
-99.6869
11
126.15
21
-99.683
0
LINE
8
BLACK
6
CONTINUOUS
10
126.15
20
-99.683
11
127.85
21
-99.683
0
LINE
8
BLACK
6
CONTINUOUS
10
127.85
20
-99.683
11
127.87
21
-99.6869
0
LINE
8
BLACK
6
CONTINUOUS
10
127.87
20
-99.6869
11
127.886
21
-99.6979
0
LINE
8
BLACK
6
CONTINUOUS
10
127.886
20
-99.6979
11
127.897
21
-99.7145
0
LINE
8
BLACK
6
CONTINUOUS
10
127.897
20
-99.7145
11
127.901
21
-99.734
0
LINE
8
BLACK
6
CONTINUOUS
10
127.901
20
-99.734
11
127.901
21
-101.434
0
LINE
8
BLACK
6
CONTINUOUS
10
127.901
20
-101.434
11
127.897
21
-101.454
0
LINE
8
BLACK
6
CONTINUOUS
10
127.897
20
-101.454
11
127.886
21
-101.47
0
LINE
8
BLACK
6
CONTINUOUS
10
127.886
20
-101.47
11
127.87
21
-101.481
0
LINE
8
BLACK
6
CONTINUOUS
10
127.87
20
-101.481
11
127.85
21
-101.485
0
LINE
8
BLACK
6
CONTINUOUS
10
127.85
20
-101.485
11
126.15
21
-101.485
0
ARC
8
BLACK
10
127
20
-98.044
40
0.901
50
270
51
450
0
ARC
8
BLACK
10
127
20
-98.044
40
0.901
50
90
51
270
0
ARC
8
BLACK
10
129.54
20
-100.584
40
0.901
50
270
51
450
0
ARC
8
BLACK
10
129.54
20
-100.584
40
0.901
50
90
51
270
0
ARC
8
BLACK
10
129.54
20
-98.044
40
0.901
50
270
51
450
0
ARC
8
BLACK
10
129.54
20
-98.044
40
0.901
50
90
51
270
0
ARC
8
BLACK
10
132.08
20
-100.584
40
0.901
50
270
51
450
0
ARC
8
BLACK
10
132.08
20
-100.584
40
0.901
50
90
51
270
0
ARC
8
BLACK
10
132.08
20
-98.044
40
0.901
50
270
51
450
0
ARC
8
BLACK
10
132.08
20
-98.044
40
0.901
50
90
51
270
0
ARC
8
BLACK
10
134.62
20
-100.584
40
0.901
50
270
51
450
0
ARC
8
BLACK
10
134.62
20
-100.584
40
0.901
50
90
51
270
0
ARC
8
BLACK
10
134.62
20
-98.044
40
0.901
50
270
51
450
0
ARC
8
BLACK
10
134.62
20
-98.044
40
0.901
50
90
51
270
0
CIRCLE
8
BLACK
10
144.399
20
-118.745
40
0.771
0
CIRCLE
8
BLACK
10
144.399
20
-116.205
40
0.771
0
CIRCLE
8
BLACK
10
144.399
20
-113.665
40
0.771
0
LINE
8
BLACK
6
CONTINUOUS
10
125.996
20
-76.415
11
125.992
21
-76.4345
0
LINE
8
BLACK
6
CONTINUOUS
10
125.992
20
-76.4345
11
125.981
21
-76.4511
0
LINE
8
BLACK
6
CONTINUOUS
10
125.981
20
-76.4511
11
125.965
21
-76.4621
0
LINE
8
BLACK
6
CONTINUOUS
10
125.965
20
-76.4621
11
125.945
21
-76.466
0
LINE
8
BLACK
6
CONTINUOUS
10
125.945
20
-76.466
11
124.245
21
-76.466
0
LINE
8
BLACK
6
CONTINUOUS
10
124.245
20
-76.466
11
124.225
21
-76.4621
0
LINE
8
BLACK
6
CONTINUOUS
10
124.225
20
-76.4621
11
124.209
21
-76.4511
0
LINE
8
BLACK
6
CONTINUOUS
10
124.209
20
-76.4511
11
124.198
21
-76.4345
0
LINE
8
BLACK
6
CONTINUOUS
10
124.198
20
-76.4345
11
124.194
21
-76.415
0
LINE
8
BLACK
6
CONTINUOUS
10
124.194
20
-76.415
11
124.194
21
-74.715
0
LINE
8
BLACK
6
CONTINUOUS
10
124.194
20
-74.715
11
124.198
21
-74.6955
0
LINE
8
BLACK
6
CONTINUOUS
10
124.198
20
-74.6955
11
124.209
21
-74.6789
0
LINE
8
BLACK
6
CONTINUOUS
10
124.209
20
-74.6789
11
124.225
21
-74.6679
0
LINE
8
BLACK
6
CONTINUOUS
10
124.225
20
-74.6679
11
124.245
21
-74.664
0
LINE
8
BLACK
6
CONTINUOUS
10
124.245
20
-74.664
11
125.945
21
-74.664
0
LINE
8
BLACK
6
CONTINUOUS
10
125.945
20
-74.664
11
125.965
21
-74.6679
0
LINE
8
BLACK
6
CONTINUOUS
10
125.965
20
-74.6679
11
125.981
21
-74.6789
0
LINE
8
BLACK
6
CONTINUOUS
10
125.981
20
-74.6789
11
125.992
21
-74.6955
0
LINE
8
BLACK
6
CONTINUOUS
10
125.992
20
-74.6955
11
125.996
21
-74.715
0
LINE
8
BLACK
6
CONTINUOUS
10
125.996
20
-74.715
11
125.996
21
-76.415
0
ARC
8
BLACK
10
125.095
20
-78.105
40
0.901
50
360
51
540
0
ARC
8
BLACK
10
125.095
20
-78.105
40
0.901
50
180
51
360
0
ARC
8
BLACK
10
125.095
20
-80.645
40
0.901
50
360
51
540
0
ARC
8
BLACK
10
125.095
20
-80.645
40
0.901
50
180
51
360
0
ARC
8
BLACK
10
125.095
20
-83.185
40
0.901
50
360
51
540
0
ARC
8
BLACK
10
125.095
20
-83.185
40
0.901
50
180
51
360
0
LINE
8
BLACK
6
CONTINUOUS
10
125.996
20
-114.515
11
125.992
21
-114.535
0
LINE
8
BLACK
6
CONTINUOUS
10
125.992
20
-114.535
11
125.981
21
-114.551
0
LINE
8
BLACK
6
CONTINUOUS
10
125.981
20
-114.551
11
125.965
21
-114.562
0
LINE
8
BLACK
6
CONTINUOUS
10
125.965
20
-114.562
11
125.945
21
-114.566
0
LINE
8
BLACK
6
CONTINUOUS
10
125.945
20
-114.566
11
124.245
21
-114.566
0
LINE
8
BLACK
6
CONTINUOUS
10
124.245
20
-114.566
11
124.225
21
-114.562
0
LINE
8
BLACK
6
CONTINUOUS
10
124.225
20
-114.562
11
124.209
21
-114.551
0
LINE
8
BLACK
6
CONTINUOUS
10
124.209
20
-114.551
11
124.198
21
-114.535
0
LINE
8
BLACK
6
CONTINUOUS
10
124.198
20
-114.535
11
124.194
21
-114.515
0
LINE
8
BLACK
6
CONTINUOUS
10
124.194
20
-114.515
11
124.194
21
-112.815
0
LINE
8
BLACK
6
CONTINUOUS
10
124.194
20
-112.815
11
124.198
21
-112.795
0
LINE
8
BLACK
6
CONTINUOUS
10
124.198
20
-112.795
11
124.209
21
-112.779
0
LINE
8
BLACK
6
CONTINUOUS
10
124.209
20
-112.779
11
124.225
21
-112.768
0
LINE
8
BLACK
6
CONTINUOUS
10
124.225
20
-112.768
11
124.245
21
-112.764
0
LINE
8
BLACK
6
CONTINUOUS
10
124.245
20
-112.764
11
125.945
21
-112.764
0
LINE
8
BLACK
6
CONTINUOUS
10
125.945
20
-112.764
11
125.965
21
-112.768
0
LINE
8
BLACK
6
CONTINUOUS
10
125.965
20
-112.768
11
125.981
21
-112.779
0
LINE
8
BLACK
6
CONTINUOUS
10
125.981
20
-112.779
11
125.992
21
-112.795
0
LINE
8
BLACK
6
CONTINUOUS
10
125.992
20
-112.795
11
125.996
21
-112.815
0
LINE
8
BLACK
6
CONTINUOUS
10
125.996
20
-112.815
11
125.996
21
-114.515
0
ARC
8
BLACK
10
125.095
20
-116.205
40
0.901
50
360
51
540
0
ARC
8
BLACK
10
125.095
20
-116.205
40
0.901
50
180
51
360
0
ARC
8
BLACK
10
125.095
20
-118.745
40
0.901
50
360
51
540
0
ARC
8
BLACK
10
125.095
20
-118.745
40
0.901
50
180
51
360
0
ARC
8
BLACK
10
125.095
20
-121.285
40
0.901
50
360
51
540
0
ARC
8
BLACK
10
125.095
20
-121.285
40
0.901
50
180
51
360
0
LINE
8
BLACK
6
CONTINUOUS
10
179.336
20
-76.415
11
179.332
21
-76.4345
0
LINE
8
BLACK
6
CONTINUOUS
10
179.332
20
-76.4345
11
179.321
21
-76.4511
0
LINE
8
BLACK
6
CONTINUOUS
10
179.321
20
-76.4511
11
179.305
21
-76.4621
0
LINE
8
BLACK
6
CONTINUOUS
10
179.305
20
-76.4621
11
179.285
21
-76.466
0
LINE
8
BLACK
6
CONTINUOUS
10
179.285
20
-76.466
11
177.585
21
-76.466
0
LINE
8
BLACK
6
CONTINUOUS
10
177.585
20
-76.466
11
177.565
21
-76.4621
0
LINE
8
BLACK
6
CONTINUOUS
10
177.565
20
-76.4621
11
177.549
21
-76.4511
0
LINE
8
BLACK
6
CONTINUOUS
10
177.549
20
-76.4511
11
177.538
21
-76.4345
0
LINE
8
BLACK
6
CONTINUOUS
10
177.538
20
-76.4345
11
177.534
21
-76.415
0
LINE
8
BLACK
6
CONTINUOUS
10
177.534
20
-76.415
11
177.534
21
-74.715
0
LINE
8
BLACK
6
CONTINUOUS
10
177.534
20
-74.715
11
177.538
21
-74.6955
0
LINE
8
BLACK
6
CONTINUOUS
10
177.538
20
-74.6955
11
177.549
21
-74.6789
0
LINE
8
BLACK
6
CONTINUOUS
10
177.549
20
-74.6789
11
177.565
21
-74.6679
0
LINE
8
BLACK
6
CONTINUOUS
10
177.565
20
-74.6679
11
177.585
21
-74.664
0
LINE
8
BLACK
6
CONTINUOUS
10
177.585
20
-74.664
11
179.285
21
-74.664
0
LINE
8
BLACK
6
CONTINUOUS
10
179.285
20
-74.664
11
179.305
21
-74.6679
0
LINE
8
BLACK
6
CONTINUOUS
10
179.305
20
-74.6679
11
179.321
21
-74.6789
0
LINE
8
BLACK
6
CONTINUOUS
10
179.321
20
-74.6789
11
179.332
21
-74.6955
0
LINE
8
BLACK
6
CONTINUOUS
10
179.332
20
-74.6955
11
179.336
21
-74.715
0
LINE
8
BLACK
6
CONTINUOUS
10
179.336
20
-74.715
11
179.336
21
-76.415
0
ARC
8
BLACK
10
178.435
20
-78.105
40
0.901
50
360
51
540
0
ARC
8
BLACK
10
178.435
20
-78.105
40
0.901
50
180
51
360
0
ARC
8
BLACK
10
178.435
20
-80.645
40
0.901
50
360
51
540
0
ARC
8
BLACK
10
178.435
20
-80.645
40
0.901
50
180
51
360
0
ARC
8
BLACK
10
178.435
20
-83.185
40
0.901
50
360
51
540
0
ARC
8
BLACK
10
178.435
20
-83.185
40
0.901
50
180
51
360
0
LINE
8
BLACK
6
CONTINUOUS
10
179.336
20
-104.355
11
179.332
21
-104.375
0
LINE
8
BLACK
6
CONTINUOUS
10
179.332
20
-104.375
11
179.321
21
-104.391
0
LINE
8
BLACK
6
CONTINUOUS
10
179.321
20
-104.391
11
179.305
21
-104.402
0
LINE
8
BLACK
6
CONTINUOUS
10
179.305
20
-104.402
11
179.285
21
-104.406
0
LINE
8
BLACK
6
CONTINUOUS
10
179.285
20
-104.406
11
177.585
21
-104.406
0
LINE
8
BLACK
6
CONTINUOUS
10
177.585
20
-104.406
11
177.565
21
-104.402
0
LINE
8
BLACK
6
CONTINUOUS
10
177.565
20
-104.402
11
177.549
21
-104.391
0
LINE
8
BLACK
6
CONTINUOUS
10
177.549
20
-104.391
11
177.538
21
-104.375
0
LINE
8
BLACK
6
CONTINUOUS
10
177.538
20
-104.375
11
177.534
21
-104.355
0
LINE
8
BLACK
6
CONTINUOUS
10
177.534
20
-104.355
11
177.534
21
-102.655
0
LINE
8
BLACK
6
CONTINUOUS
10
177.534
20
-102.655
11
177.538
21
-102.635
0
LINE
8
BLACK
6
CONTINUOUS
10
177.538
20
-102.635
11
177.549
21
-102.619
0
LINE
8
BLACK
6
CONTINUOUS
10
177.549
20
-102.619
11
177.565
21
-102.608
0
LINE
8
BLACK
6
CONTINUOUS
10
177.565
20
-102.608
11
177.585
21
-102.604
0
LINE
8
BLACK
6
CONTINUOUS
10
177.585
20
-102.604
11
179.285
21
-102.604
0
LINE
8
BLACK
6
CONTINUOUS
10
179.285
20
-102.604
11
179.305
21
-102.608
0
LINE
8
BLACK
6
CONTINUOUS
10
179.305
20
-102.608
11
179.321
21
-102.619
0
LINE
8
BLACK
6
CONTINUOUS
10
179.321
20
-102.619
11
179.332
21
-102.635
0
LINE
8
BLACK
6
CONTINUOUS
10
179.332
20
-102.635
11
179.336
21
-102.655
0
LINE
8
BLACK
6
CONTINUOUS
10
179.336
20
-102.655
11
179.336
21
-104.355
0
ARC
8
BLACK
10
178.435
20
-106.045
40
0.901
50
360
51
540
0
ARC
8
BLACK
10
178.435
20
-106.045
40
0.901
50
180
51
360
0
ARC
8
BLACK
10
178.435
20
-108.585
40
0.901
50
360
51
540
0
ARC
8
BLACK
10
178.435
20
-108.585
40
0.901
50
180
51
360
0
ARC
8
BLACK
10
178.435
20
-111.125
40
0.901
50
360
51
540
0
ARC
8
BLACK
10
178.435
20
-111.125
40
0.901
50
180
51
360
0
ARC
8
BLACK
10
178.435
20
-113.665
40
0.901
50
360
51
540
0
ARC
8
BLACK
10
178.435
20
-113.665
40
0.901
50
180
51
360
0
ARC
8
BLACK
10
178.435
20
-116.205
40
0.901
50
360
51
540
0
ARC
8
BLACK
10
178.435
20
-116.205
40
0.901
50
180
51
360
0
ARC
8
BLACK
10
178.435
20
-118.745
40
0.901
50
360
51
540
0
ARC
8
BLACK
10
178.435
20
-118.745
40
0.901
50
180
51
360
0
ARC
8
BLACK
10
178.435
20
-121.285
40
0.901
50
360
51
540
0
ARC
8
BLACK
10
178.435
20
-121.285
40
0.901
50
180
51
360
  0
ENDSEC
  0
EOF
