%FSLAX45Y45*%
G04 Gerber Fmt 4.5, Leading zero omitted, Abs format (unit mm)*
G04 Created by KiCad (PCBNEW 6.0.5+dfsg-1~bpo11+1) date 2022-08-15 22:36:42*
%MOMM*%
%LPD*%
G01*
G04 APERTURE LIST*
%TA.AperFunction,Profile*%
%ADD10C,0.050000*%
%TD*%
%ADD11C,0.200000*%
G04 APERTURE END LIST*
D10*
X12001500Y-7366000D02*
X12001500Y-12446000D01*
X17843500Y-7366000D02*
X17843500Y-12446000D01*
X12001500Y-12446000D02*
X17843500Y-12446000D01*
X12001500Y-7366000D02*
X17843500Y-7366000D01*
D11*
X12256619Y-12758976D02*
X12256619Y-12558976D01*
X12304238Y-12558976D01*
X12332809Y-12568500D01*
X12351857Y-12587548D01*
X12361381Y-12606595D01*
X12370905Y-12644690D01*
X12370905Y-12673262D01*
X12361381Y-12711357D01*
X12351857Y-12730405D01*
X12332809Y-12749452D01*
X12304238Y-12758976D01*
X12256619Y-12758976D01*
X12456619Y-12758976D02*
X12456619Y-12625643D01*
X12456619Y-12663738D02*
X12466143Y-12644690D01*
X12475667Y-12635167D01*
X12494714Y-12625643D01*
X12513762Y-12625643D01*
X12580428Y-12758976D02*
X12580428Y-12625643D01*
X12580428Y-12558976D02*
X12570905Y-12568500D01*
X12580428Y-12578024D01*
X12589952Y-12568500D01*
X12580428Y-12558976D01*
X12580428Y-12578024D01*
X12704238Y-12758976D02*
X12685190Y-12749452D01*
X12675667Y-12730405D01*
X12675667Y-12558976D01*
X12809000Y-12758976D02*
X12789952Y-12749452D01*
X12780428Y-12730405D01*
X12780428Y-12558976D01*
X13037571Y-12758976D02*
X13037571Y-12558976D01*
X13104238Y-12701833D01*
X13170905Y-12558976D01*
X13170905Y-12758976D01*
X13351857Y-12758976D02*
X13351857Y-12654214D01*
X13342333Y-12635167D01*
X13323286Y-12625643D01*
X13285190Y-12625643D01*
X13266143Y-12635167D01*
X13351857Y-12749452D02*
X13332809Y-12758976D01*
X13285190Y-12758976D01*
X13266143Y-12749452D01*
X13256619Y-12730405D01*
X13256619Y-12711357D01*
X13266143Y-12692309D01*
X13285190Y-12682786D01*
X13332809Y-12682786D01*
X13351857Y-12673262D01*
X13447095Y-12625643D02*
X13447095Y-12825643D01*
X13447095Y-12635167D02*
X13466143Y-12625643D01*
X13504238Y-12625643D01*
X13523286Y-12635167D01*
X13532809Y-12644690D01*
X13542333Y-12663738D01*
X13542333Y-12720881D01*
X13532809Y-12739928D01*
X13523286Y-12749452D01*
X13504238Y-12758976D01*
X13466143Y-12758976D01*
X13447095Y-12749452D01*
X13628048Y-12739928D02*
X13637571Y-12749452D01*
X13628048Y-12758976D01*
X13618524Y-12749452D01*
X13628048Y-12739928D01*
X13628048Y-12758976D01*
X13628048Y-12635167D02*
X13637571Y-12644690D01*
X13628048Y-12654214D01*
X13618524Y-12644690D01*
X13628048Y-12635167D01*
X13628048Y-12654214D01*
M02*
