G04 #@! TF.GenerationSoftware,KiCad,Pcbnew,6.0.5+dfsg-1~bpo11+1*
G04 #@! TF.CreationDate,2022-08-15T22:36:42+00:00*
G04 #@! TF.ProjectId,minimoog_LPF,6d696e69-6d6f-46f6-975f-4c50462e6b69,0.1*
G04 #@! TF.SameCoordinates,Original*
G04 #@! TF.FileFunction,Paste,Top*
G04 #@! TF.FilePolarity,Positive*
%FSLAX46Y46*%
G04 Gerber Fmt 4.6, Leading zero omitted, Abs format (unit mm)*
G04 Created by KiCad (PCBNEW 6.0.5+dfsg-1~bpo11+1) date 2022-08-15 22:36:42*
%MOMM*%
%LPD*%
G01*
G04 APERTURE LIST*
%ADD10R,0.400000X0.650000*%
%ADD11R,0.510000X1.100000*%
G04 APERTURE END LIST*
G36*
G01*
X165612000Y-107741000D02*
X166112000Y-107741000D01*
G75*
G02*
X166337000Y-107966000I0J-225000D01*
G01*
X166337000Y-108416000D01*
G75*
G02*
X166112000Y-108641000I-225000J0D01*
G01*
X165612000Y-108641000D01*
G75*
G02*
X165387000Y-108416000I0J225000D01*
G01*
X165387000Y-107966000D01*
G75*
G02*
X165612000Y-107741000I225000J0D01*
G01*
G37*
G36*
G01*
X165612000Y-109291000D02*
X166112000Y-109291000D01*
G75*
G02*
X166337000Y-109516000I0J-225000D01*
G01*
X166337000Y-109966000D01*
G75*
G02*
X166112000Y-110191000I-225000J0D01*
G01*
X165612000Y-110191000D01*
G75*
G02*
X165387000Y-109966000I0J225000D01*
G01*
X165387000Y-109516000D01*
G75*
G02*
X165612000Y-109291000I225000J0D01*
G01*
G37*
G36*
G01*
X163150000Y-119130000D02*
X163150000Y-119630000D01*
G75*
G02*
X162925000Y-119855000I-225000J0D01*
G01*
X162475000Y-119855000D01*
G75*
G02*
X162250000Y-119630000I0J225000D01*
G01*
X162250000Y-119130000D01*
G75*
G02*
X162475000Y-118905000I225000J0D01*
G01*
X162925000Y-118905000D01*
G75*
G02*
X163150000Y-119130000I0J-225000D01*
G01*
G37*
G36*
G01*
X161600000Y-119130000D02*
X161600000Y-119630000D01*
G75*
G02*
X161375000Y-119855000I-225000J0D01*
G01*
X160925000Y-119855000D01*
G75*
G02*
X160700000Y-119630000I0J225000D01*
G01*
X160700000Y-119130000D01*
G75*
G02*
X160925000Y-118905000I225000J0D01*
G01*
X161375000Y-118905000D01*
G75*
G02*
X161600000Y-119130000I0J-225000D01*
G01*
G37*
G36*
G01*
X126410000Y-106955000D02*
X126410000Y-106405000D01*
G75*
G02*
X126610000Y-106205000I200000J0D01*
G01*
X127010000Y-106205000D01*
G75*
G02*
X127210000Y-106405000I0J-200000D01*
G01*
X127210000Y-106955000D01*
G75*
G02*
X127010000Y-107155000I-200000J0D01*
G01*
X126610000Y-107155000D01*
G75*
G02*
X126410000Y-106955000I0J200000D01*
G01*
G37*
G36*
G01*
X128060000Y-106955000D02*
X128060000Y-106405000D01*
G75*
G02*
X128260000Y-106205000I200000J0D01*
G01*
X128660000Y-106205000D01*
G75*
G02*
X128860000Y-106405000I0J-200000D01*
G01*
X128860000Y-106955000D01*
G75*
G02*
X128660000Y-107155000I-200000J0D01*
G01*
X128260000Y-107155000D01*
G75*
G02*
X128060000Y-106955000I0J200000D01*
G01*
G37*
D10*
X157495000Y-93030000D03*
X156845000Y-93030000D03*
X156195000Y-93030000D03*
X156195000Y-94930000D03*
X156845000Y-94930000D03*
X157495000Y-94930000D03*
G36*
G01*
X142830000Y-79735000D02*
X142830000Y-80285000D01*
G75*
G02*
X142630000Y-80485000I-200000J0D01*
G01*
X142230000Y-80485000D01*
G75*
G02*
X142030000Y-80285000I0J200000D01*
G01*
X142030000Y-79735000D01*
G75*
G02*
X142230000Y-79535000I200000J0D01*
G01*
X142630000Y-79535000D01*
G75*
G02*
X142830000Y-79735000I0J-200000D01*
G01*
G37*
G36*
G01*
X141180000Y-79735000D02*
X141180000Y-80285000D01*
G75*
G02*
X140980000Y-80485000I-200000J0D01*
G01*
X140580000Y-80485000D01*
G75*
G02*
X140380000Y-80285000I0J200000D01*
G01*
X140380000Y-79735000D01*
G75*
G02*
X140580000Y-79535000I200000J0D01*
G01*
X140980000Y-79535000D01*
G75*
G02*
X141180000Y-79735000I0J-200000D01*
G01*
G37*
G36*
G01*
X162410000Y-109295000D02*
X162710000Y-109295000D01*
G75*
G02*
X162860000Y-109445000I0J-150000D01*
G01*
X162860000Y-111095000D01*
G75*
G02*
X162710000Y-111245000I-150000J0D01*
G01*
X162410000Y-111245000D01*
G75*
G02*
X162260000Y-111095000I0J150000D01*
G01*
X162260000Y-109445000D01*
G75*
G02*
X162410000Y-109295000I150000J0D01*
G01*
G37*
G36*
G01*
X161140000Y-109295000D02*
X161440000Y-109295000D01*
G75*
G02*
X161590000Y-109445000I0J-150000D01*
G01*
X161590000Y-111095000D01*
G75*
G02*
X161440000Y-111245000I-150000J0D01*
G01*
X161140000Y-111245000D01*
G75*
G02*
X160990000Y-111095000I0J150000D01*
G01*
X160990000Y-109445000D01*
G75*
G02*
X161140000Y-109295000I150000J0D01*
G01*
G37*
G36*
G01*
X159870000Y-109295000D02*
X160170000Y-109295000D01*
G75*
G02*
X160320000Y-109445000I0J-150000D01*
G01*
X160320000Y-111095000D01*
G75*
G02*
X160170000Y-111245000I-150000J0D01*
G01*
X159870000Y-111245000D01*
G75*
G02*
X159720000Y-111095000I0J150000D01*
G01*
X159720000Y-109445000D01*
G75*
G02*
X159870000Y-109295000I150000J0D01*
G01*
G37*
G36*
G01*
X158600000Y-109295000D02*
X158900000Y-109295000D01*
G75*
G02*
X159050000Y-109445000I0J-150000D01*
G01*
X159050000Y-111095000D01*
G75*
G02*
X158900000Y-111245000I-150000J0D01*
G01*
X158600000Y-111245000D01*
G75*
G02*
X158450000Y-111095000I0J150000D01*
G01*
X158450000Y-109445000D01*
G75*
G02*
X158600000Y-109295000I150000J0D01*
G01*
G37*
G36*
G01*
X158600000Y-114245000D02*
X158900000Y-114245000D01*
G75*
G02*
X159050000Y-114395000I0J-150000D01*
G01*
X159050000Y-116045000D01*
G75*
G02*
X158900000Y-116195000I-150000J0D01*
G01*
X158600000Y-116195000D01*
G75*
G02*
X158450000Y-116045000I0J150000D01*
G01*
X158450000Y-114395000D01*
G75*
G02*
X158600000Y-114245000I150000J0D01*
G01*
G37*
G36*
G01*
X159870000Y-114245000D02*
X160170000Y-114245000D01*
G75*
G02*
X160320000Y-114395000I0J-150000D01*
G01*
X160320000Y-116045000D01*
G75*
G02*
X160170000Y-116195000I-150000J0D01*
G01*
X159870000Y-116195000D01*
G75*
G02*
X159720000Y-116045000I0J150000D01*
G01*
X159720000Y-114395000D01*
G75*
G02*
X159870000Y-114245000I150000J0D01*
G01*
G37*
G36*
G01*
X161140000Y-114245000D02*
X161440000Y-114245000D01*
G75*
G02*
X161590000Y-114395000I0J-150000D01*
G01*
X161590000Y-116045000D01*
G75*
G02*
X161440000Y-116195000I-150000J0D01*
G01*
X161140000Y-116195000D01*
G75*
G02*
X160990000Y-116045000I0J150000D01*
G01*
X160990000Y-114395000D01*
G75*
G02*
X161140000Y-114245000I150000J0D01*
G01*
G37*
G36*
G01*
X162410000Y-114245000D02*
X162710000Y-114245000D01*
G75*
G02*
X162860000Y-114395000I0J-150000D01*
G01*
X162860000Y-116045000D01*
G75*
G02*
X162710000Y-116195000I-150000J0D01*
G01*
X162410000Y-116195000D01*
G75*
G02*
X162260000Y-116045000I0J150000D01*
G01*
X162260000Y-114395000D01*
G75*
G02*
X162410000Y-114245000I150000J0D01*
G01*
G37*
X149748000Y-83505000D03*
X149098000Y-83505000D03*
X148448000Y-83505000D03*
X148448000Y-85405000D03*
X149098000Y-85405000D03*
X149748000Y-85405000D03*
G36*
G01*
X165104000Y-114091000D02*
X165604000Y-114091000D01*
G75*
G02*
X165829000Y-114316000I0J-225000D01*
G01*
X165829000Y-114766000D01*
G75*
G02*
X165604000Y-114991000I-225000J0D01*
G01*
X165104000Y-114991000D01*
G75*
G02*
X164879000Y-114766000I0J225000D01*
G01*
X164879000Y-114316000D01*
G75*
G02*
X165104000Y-114091000I225000J0D01*
G01*
G37*
G36*
G01*
X165104000Y-115641000D02*
X165604000Y-115641000D01*
G75*
G02*
X165829000Y-115866000I0J-225000D01*
G01*
X165829000Y-116316000D01*
G75*
G02*
X165604000Y-116541000I-225000J0D01*
G01*
X165104000Y-116541000D01*
G75*
G02*
X164879000Y-116316000I0J225000D01*
G01*
X164879000Y-115866000D01*
G75*
G02*
X165104000Y-115641000I225000J0D01*
G01*
G37*
G36*
G01*
X159340000Y-89260000D02*
X159340000Y-89810000D01*
G75*
G02*
X159140000Y-90010000I-200000J0D01*
G01*
X158740000Y-90010000D01*
G75*
G02*
X158540000Y-89810000I0J200000D01*
G01*
X158540000Y-89260000D01*
G75*
G02*
X158740000Y-89060000I200000J0D01*
G01*
X159140000Y-89060000D01*
G75*
G02*
X159340000Y-89260000I0J-200000D01*
G01*
G37*
G36*
G01*
X157690000Y-89260000D02*
X157690000Y-89810000D01*
G75*
G02*
X157490000Y-90010000I-200000J0D01*
G01*
X157090000Y-90010000D01*
G75*
G02*
X156890000Y-89810000I0J200000D01*
G01*
X156890000Y-89260000D01*
G75*
G02*
X157090000Y-89060000I200000J0D01*
G01*
X157490000Y-89060000D01*
G75*
G02*
X157690000Y-89260000I0J-200000D01*
G01*
G37*
G36*
G01*
X132760000Y-103145000D02*
X132760000Y-102595000D01*
G75*
G02*
X132960000Y-102395000I200000J0D01*
G01*
X133360000Y-102395000D01*
G75*
G02*
X133560000Y-102595000I0J-200000D01*
G01*
X133560000Y-103145000D01*
G75*
G02*
X133360000Y-103345000I-200000J0D01*
G01*
X132960000Y-103345000D01*
G75*
G02*
X132760000Y-103145000I0J200000D01*
G01*
G37*
G36*
G01*
X134410000Y-103145000D02*
X134410000Y-102595000D01*
G75*
G02*
X134610000Y-102395000I200000J0D01*
G01*
X135010000Y-102395000D01*
G75*
G02*
X135210000Y-102595000I0J-200000D01*
G01*
X135210000Y-103145000D01*
G75*
G02*
X135010000Y-103345000I-200000J0D01*
G01*
X134610000Y-103345000D01*
G75*
G02*
X134410000Y-103145000I0J200000D01*
G01*
G37*
G36*
G01*
X153928000Y-109265000D02*
X154428000Y-109265000D01*
G75*
G02*
X154653000Y-109490000I0J-225000D01*
G01*
X154653000Y-109940000D01*
G75*
G02*
X154428000Y-110165000I-225000J0D01*
G01*
X153928000Y-110165000D01*
G75*
G02*
X153703000Y-109940000I0J225000D01*
G01*
X153703000Y-109490000D01*
G75*
G02*
X153928000Y-109265000I225000J0D01*
G01*
G37*
G36*
G01*
X153928000Y-110815000D02*
X154428000Y-110815000D01*
G75*
G02*
X154653000Y-111040000I0J-225000D01*
G01*
X154653000Y-111490000D01*
G75*
G02*
X154428000Y-111715000I-225000J0D01*
G01*
X153928000Y-111715000D01*
G75*
G02*
X153703000Y-111490000I0J225000D01*
G01*
X153703000Y-111040000D01*
G75*
G02*
X153928000Y-110815000I225000J0D01*
G01*
G37*
G36*
G01*
X159340000Y-98150000D02*
X159340000Y-98700000D01*
G75*
G02*
X159140000Y-98900000I-200000J0D01*
G01*
X158740000Y-98900000D01*
G75*
G02*
X158540000Y-98700000I0J200000D01*
G01*
X158540000Y-98150000D01*
G75*
G02*
X158740000Y-97950000I200000J0D01*
G01*
X159140000Y-97950000D01*
G75*
G02*
X159340000Y-98150000I0J-200000D01*
G01*
G37*
G36*
G01*
X157690000Y-98150000D02*
X157690000Y-98700000D01*
G75*
G02*
X157490000Y-98900000I-200000J0D01*
G01*
X157090000Y-98900000D01*
G75*
G02*
X156890000Y-98700000I0J200000D01*
G01*
X156890000Y-98150000D01*
G75*
G02*
X157090000Y-97950000I200000J0D01*
G01*
X157490000Y-97950000D01*
G75*
G02*
X157690000Y-98150000I0J-200000D01*
G01*
G37*
G36*
G01*
X153080000Y-106295000D02*
X153080000Y-105795000D01*
G75*
G02*
X153305000Y-105570000I225000J0D01*
G01*
X153755000Y-105570000D01*
G75*
G02*
X153980000Y-105795000I0J-225000D01*
G01*
X153980000Y-106295000D01*
G75*
G02*
X153755000Y-106520000I-225000J0D01*
G01*
X153305000Y-106520000D01*
G75*
G02*
X153080000Y-106295000I0J225000D01*
G01*
G37*
G36*
G01*
X154630000Y-106295000D02*
X154630000Y-105795000D01*
G75*
G02*
X154855000Y-105570000I225000J0D01*
G01*
X155305000Y-105570000D01*
G75*
G02*
X155530000Y-105795000I0J-225000D01*
G01*
X155530000Y-106295000D01*
G75*
G02*
X155305000Y-106520000I-225000J0D01*
G01*
X154855000Y-106520000D01*
G75*
G02*
X154630000Y-106295000I0J225000D01*
G01*
G37*
G36*
G01*
X163150000Y-98150000D02*
X163150000Y-98700000D01*
G75*
G02*
X162950000Y-98900000I-200000J0D01*
G01*
X162550000Y-98900000D01*
G75*
G02*
X162350000Y-98700000I0J200000D01*
G01*
X162350000Y-98150000D01*
G75*
G02*
X162550000Y-97950000I200000J0D01*
G01*
X162950000Y-97950000D01*
G75*
G02*
X163150000Y-98150000I0J-200000D01*
G01*
G37*
G36*
G01*
X161500000Y-98150000D02*
X161500000Y-98700000D01*
G75*
G02*
X161300000Y-98900000I-200000J0D01*
G01*
X160900000Y-98900000D01*
G75*
G02*
X160700000Y-98700000I0J200000D01*
G01*
X160700000Y-98150000D01*
G75*
G02*
X160900000Y-97950000I200000J0D01*
G01*
X161300000Y-97950000D01*
G75*
G02*
X161500000Y-98150000I0J-200000D01*
G01*
G37*
X143398000Y-83505000D03*
X142748000Y-83505000D03*
X142098000Y-83505000D03*
X142098000Y-85405000D03*
X142748000Y-85405000D03*
X143398000Y-85405000D03*
G36*
G01*
X163150000Y-89260000D02*
X163150000Y-89810000D01*
G75*
G02*
X162950000Y-90010000I-200000J0D01*
G01*
X162550000Y-90010000D01*
G75*
G02*
X162350000Y-89810000I0J200000D01*
G01*
X162350000Y-89260000D01*
G75*
G02*
X162550000Y-89060000I200000J0D01*
G01*
X162950000Y-89060000D01*
G75*
G02*
X163150000Y-89260000I0J-200000D01*
G01*
G37*
G36*
G01*
X161500000Y-89260000D02*
X161500000Y-89810000D01*
G75*
G02*
X161300000Y-90010000I-200000J0D01*
G01*
X160900000Y-90010000D01*
G75*
G02*
X160700000Y-89810000I0J200000D01*
G01*
X160700000Y-89260000D01*
G75*
G02*
X160900000Y-89060000I200000J0D01*
G01*
X161300000Y-89060000D01*
G75*
G02*
X161500000Y-89260000I0J-200000D01*
G01*
G37*
G36*
G01*
X158148000Y-83005000D02*
X159098000Y-83005000D01*
G75*
G02*
X159348000Y-83255000I0J-250000D01*
G01*
X159348000Y-83755000D01*
G75*
G02*
X159098000Y-84005000I-250000J0D01*
G01*
X158148000Y-84005000D01*
G75*
G02*
X157898000Y-83755000I0J250000D01*
G01*
X157898000Y-83255000D01*
G75*
G02*
X158148000Y-83005000I250000J0D01*
G01*
G37*
G36*
G01*
X158148000Y-84905000D02*
X159098000Y-84905000D01*
G75*
G02*
X159348000Y-85155000I0J-250000D01*
G01*
X159348000Y-85655000D01*
G75*
G02*
X159098000Y-85905000I-250000J0D01*
G01*
X158148000Y-85905000D01*
G75*
G02*
X157898000Y-85655000I0J250000D01*
G01*
X157898000Y-85155000D01*
G75*
G02*
X158148000Y-84905000I250000J0D01*
G01*
G37*
G36*
G01*
X160700000Y-122830000D02*
X160700000Y-122280000D01*
G75*
G02*
X160900000Y-122080000I200000J0D01*
G01*
X161300000Y-122080000D01*
G75*
G02*
X161500000Y-122280000I0J-200000D01*
G01*
X161500000Y-122830000D01*
G75*
G02*
X161300000Y-123030000I-200000J0D01*
G01*
X160900000Y-123030000D01*
G75*
G02*
X160700000Y-122830000I0J200000D01*
G01*
G37*
G36*
G01*
X162350000Y-122830000D02*
X162350000Y-122280000D01*
G75*
G02*
X162550000Y-122080000I200000J0D01*
G01*
X162950000Y-122080000D01*
G75*
G02*
X163150000Y-122280000I0J-200000D01*
G01*
X163150000Y-122830000D01*
G75*
G02*
X162950000Y-123030000I-200000J0D01*
G01*
X162550000Y-123030000D01*
G75*
G02*
X162350000Y-122830000I0J200000D01*
G01*
G37*
G36*
G01*
X135173000Y-80285000D02*
X135173000Y-79735000D01*
G75*
G02*
X135373000Y-79535000I200000J0D01*
G01*
X135773000Y-79535000D01*
G75*
G02*
X135973000Y-79735000I0J-200000D01*
G01*
X135973000Y-80285000D01*
G75*
G02*
X135773000Y-80485000I-200000J0D01*
G01*
X135373000Y-80485000D01*
G75*
G02*
X135173000Y-80285000I0J200000D01*
G01*
G37*
G36*
G01*
X136823000Y-80285000D02*
X136823000Y-79735000D01*
G75*
G02*
X137023000Y-79535000I200000J0D01*
G01*
X137423000Y-79535000D01*
G75*
G02*
X137623000Y-79735000I0J-200000D01*
G01*
X137623000Y-80285000D01*
G75*
G02*
X137423000Y-80485000I-200000J0D01*
G01*
X137023000Y-80485000D01*
G75*
G02*
X136823000Y-80285000I0J200000D01*
G01*
G37*
G36*
G01*
X137565000Y-96558000D02*
X137565000Y-96858000D01*
G75*
G02*
X137415000Y-97008000I-150000J0D01*
G01*
X136240000Y-97008000D01*
G75*
G02*
X136090000Y-96858000I0J150000D01*
G01*
X136090000Y-96558000D01*
G75*
G02*
X136240000Y-96408000I150000J0D01*
G01*
X137415000Y-96408000D01*
G75*
G02*
X137565000Y-96558000I0J-150000D01*
G01*
G37*
G36*
G01*
X137565000Y-94658000D02*
X137565000Y-94958000D01*
G75*
G02*
X137415000Y-95108000I-150000J0D01*
G01*
X136240000Y-95108000D01*
G75*
G02*
X136090000Y-94958000I0J150000D01*
G01*
X136090000Y-94658000D01*
G75*
G02*
X136240000Y-94508000I150000J0D01*
G01*
X137415000Y-94508000D01*
G75*
G02*
X137565000Y-94658000I0J-150000D01*
G01*
G37*
G36*
G01*
X135690000Y-95608000D02*
X135690000Y-95908000D01*
G75*
G02*
X135540000Y-96058000I-150000J0D01*
G01*
X134365000Y-96058000D01*
G75*
G02*
X134215000Y-95908000I0J150000D01*
G01*
X134215000Y-95608000D01*
G75*
G02*
X134365000Y-95458000I150000J0D01*
G01*
X135540000Y-95458000D01*
G75*
G02*
X135690000Y-95608000I0J-150000D01*
G01*
G37*
G36*
G01*
X147910000Y-105770000D02*
X147910000Y-106320000D01*
G75*
G02*
X147710000Y-106520000I-200000J0D01*
G01*
X147310000Y-106520000D01*
G75*
G02*
X147110000Y-106320000I0J200000D01*
G01*
X147110000Y-105770000D01*
G75*
G02*
X147310000Y-105570000I200000J0D01*
G01*
X147710000Y-105570000D01*
G75*
G02*
X147910000Y-105770000I0J-200000D01*
G01*
G37*
G36*
G01*
X146260000Y-105770000D02*
X146260000Y-106320000D01*
G75*
G02*
X146060000Y-106520000I-200000J0D01*
G01*
X145660000Y-106520000D01*
G75*
G02*
X145460000Y-106320000I0J200000D01*
G01*
X145460000Y-105770000D01*
G75*
G02*
X145660000Y-105570000I200000J0D01*
G01*
X146060000Y-105570000D01*
G75*
G02*
X146260000Y-105770000I0J-200000D01*
G01*
G37*
G36*
G01*
X154944000Y-113850000D02*
X155444000Y-113850000D01*
G75*
G02*
X155669000Y-114075000I0J-225000D01*
G01*
X155669000Y-114525000D01*
G75*
G02*
X155444000Y-114750000I-225000J0D01*
G01*
X154944000Y-114750000D01*
G75*
G02*
X154719000Y-114525000I0J225000D01*
G01*
X154719000Y-114075000D01*
G75*
G02*
X154944000Y-113850000I225000J0D01*
G01*
G37*
G36*
G01*
X154944000Y-115400000D02*
X155444000Y-115400000D01*
G75*
G02*
X155669000Y-115625000I0J-225000D01*
G01*
X155669000Y-116075000D01*
G75*
G02*
X155444000Y-116300000I-225000J0D01*
G01*
X154944000Y-116300000D01*
G75*
G02*
X154719000Y-116075000I0J225000D01*
G01*
X154719000Y-115625000D01*
G75*
G02*
X154944000Y-115400000I225000J0D01*
G01*
G37*
G36*
G01*
X128860000Y-109580000D02*
X128860000Y-110130000D01*
G75*
G02*
X128660000Y-110330000I-200000J0D01*
G01*
X128260000Y-110330000D01*
G75*
G02*
X128060000Y-110130000I0J200000D01*
G01*
X128060000Y-109580000D01*
G75*
G02*
X128260000Y-109380000I200000J0D01*
G01*
X128660000Y-109380000D01*
G75*
G02*
X128860000Y-109580000I0J-200000D01*
G01*
G37*
G36*
G01*
X127210000Y-109580000D02*
X127210000Y-110130000D01*
G75*
G02*
X127010000Y-110330000I-200000J0D01*
G01*
X126610000Y-110330000D01*
G75*
G02*
X126410000Y-110130000I0J200000D01*
G01*
X126410000Y-109580000D01*
G75*
G02*
X126610000Y-109380000I200000J0D01*
G01*
X127010000Y-109380000D01*
G75*
G02*
X127210000Y-109580000I0J-200000D01*
G01*
G37*
X162448000Y-83505000D03*
X161798000Y-83505000D03*
X161148000Y-83505000D03*
X161148000Y-85405000D03*
X161798000Y-85405000D03*
X162448000Y-85405000D03*
G36*
G01*
X149270000Y-98700000D02*
X149270000Y-98150000D01*
G75*
G02*
X149470000Y-97950000I200000J0D01*
G01*
X149870000Y-97950000D01*
G75*
G02*
X150070000Y-98150000I0J-200000D01*
G01*
X150070000Y-98700000D01*
G75*
G02*
X149870000Y-98900000I-200000J0D01*
G01*
X149470000Y-98900000D01*
G75*
G02*
X149270000Y-98700000I0J200000D01*
G01*
G37*
G36*
G01*
X150920000Y-98700000D02*
X150920000Y-98150000D01*
G75*
G02*
X151120000Y-97950000I200000J0D01*
G01*
X151520000Y-97950000D01*
G75*
G02*
X151720000Y-98150000I0J-200000D01*
G01*
X151720000Y-98700000D01*
G75*
G02*
X151520000Y-98900000I-200000J0D01*
G01*
X151120000Y-98900000D01*
G75*
G02*
X150920000Y-98700000I0J200000D01*
G01*
G37*
G36*
G01*
X140380000Y-76475000D02*
X140380000Y-75925000D01*
G75*
G02*
X140580000Y-75725000I200000J0D01*
G01*
X140980000Y-75725000D01*
G75*
G02*
X141180000Y-75925000I0J-200000D01*
G01*
X141180000Y-76475000D01*
G75*
G02*
X140980000Y-76675000I-200000J0D01*
G01*
X140580000Y-76675000D01*
G75*
G02*
X140380000Y-76475000I0J200000D01*
G01*
G37*
G36*
G01*
X142030000Y-76475000D02*
X142030000Y-75925000D01*
G75*
G02*
X142230000Y-75725000I200000J0D01*
G01*
X142630000Y-75725000D01*
G75*
G02*
X142830000Y-75925000I0J-200000D01*
G01*
X142830000Y-76475000D01*
G75*
G02*
X142630000Y-76675000I-200000J0D01*
G01*
X142230000Y-76675000D01*
G75*
G02*
X142030000Y-76475000I0J200000D01*
G01*
G37*
G36*
G01*
X152748000Y-85905000D02*
X151798000Y-85905000D01*
G75*
G02*
X151548000Y-85655000I0J250000D01*
G01*
X151548000Y-85155000D01*
G75*
G02*
X151798000Y-84905000I250000J0D01*
G01*
X152748000Y-84905000D01*
G75*
G02*
X152998000Y-85155000I0J-250000D01*
G01*
X152998000Y-85655000D01*
G75*
G02*
X152748000Y-85905000I-250000J0D01*
G01*
G37*
G36*
G01*
X152748000Y-84005000D02*
X151798000Y-84005000D01*
G75*
G02*
X151548000Y-83755000I0J250000D01*
G01*
X151548000Y-83255000D01*
G75*
G02*
X151798000Y-83005000I250000J0D01*
G01*
X152748000Y-83005000D01*
G75*
G02*
X152998000Y-83255000I0J-250000D01*
G01*
X152998000Y-83755000D01*
G75*
G02*
X152748000Y-84005000I-250000J0D01*
G01*
G37*
G36*
G01*
X137438000Y-91605000D02*
X137438000Y-91905000D01*
G75*
G02*
X137288000Y-92055000I-150000J0D01*
G01*
X136113000Y-92055000D01*
G75*
G02*
X135963000Y-91905000I0J150000D01*
G01*
X135963000Y-91605000D01*
G75*
G02*
X136113000Y-91455000I150000J0D01*
G01*
X137288000Y-91455000D01*
G75*
G02*
X137438000Y-91605000I0J-150000D01*
G01*
G37*
G36*
G01*
X137438000Y-89705000D02*
X137438000Y-90005000D01*
G75*
G02*
X137288000Y-90155000I-150000J0D01*
G01*
X136113000Y-90155000D01*
G75*
G02*
X135963000Y-90005000I0J150000D01*
G01*
X135963000Y-89705000D01*
G75*
G02*
X136113000Y-89555000I150000J0D01*
G01*
X137288000Y-89555000D01*
G75*
G02*
X137438000Y-89705000I0J-150000D01*
G01*
G37*
G36*
G01*
X135563000Y-90655000D02*
X135563000Y-90955000D01*
G75*
G02*
X135413000Y-91105000I-150000J0D01*
G01*
X134238000Y-91105000D01*
G75*
G02*
X134088000Y-90955000I0J150000D01*
G01*
X134088000Y-90655000D01*
G75*
G02*
X134238000Y-90505000I150000J0D01*
G01*
X135413000Y-90505000D01*
G75*
G02*
X135563000Y-90655000I0J-150000D01*
G01*
G37*
G36*
G01*
X148095000Y-122280000D02*
X148095000Y-122830000D01*
G75*
G02*
X147895000Y-123030000I-200000J0D01*
G01*
X147495000Y-123030000D01*
G75*
G02*
X147295000Y-122830000I0J200000D01*
G01*
X147295000Y-122280000D01*
G75*
G02*
X147495000Y-122080000I200000J0D01*
G01*
X147895000Y-122080000D01*
G75*
G02*
X148095000Y-122280000I0J-200000D01*
G01*
G37*
G36*
G01*
X146445000Y-122280000D02*
X146445000Y-122830000D01*
G75*
G02*
X146245000Y-123030000I-200000J0D01*
G01*
X145845000Y-123030000D01*
G75*
G02*
X145645000Y-122830000I0J200000D01*
G01*
X145645000Y-122280000D01*
G75*
G02*
X145845000Y-122080000I200000J0D01*
G01*
X146245000Y-122080000D01*
G75*
G02*
X146445000Y-122280000I0J-200000D01*
G01*
G37*
G36*
G01*
X149455000Y-119655000D02*
X149455000Y-119105000D01*
G75*
G02*
X149655000Y-118905000I200000J0D01*
G01*
X150055000Y-118905000D01*
G75*
G02*
X150255000Y-119105000I0J-200000D01*
G01*
X150255000Y-119655000D01*
G75*
G02*
X150055000Y-119855000I-200000J0D01*
G01*
X149655000Y-119855000D01*
G75*
G02*
X149455000Y-119655000I0J200000D01*
G01*
G37*
G36*
G01*
X151105000Y-119655000D02*
X151105000Y-119105000D01*
G75*
G02*
X151305000Y-118905000I200000J0D01*
G01*
X151705000Y-118905000D01*
G75*
G02*
X151905000Y-119105000I0J-200000D01*
G01*
X151905000Y-119655000D01*
G75*
G02*
X151705000Y-119855000I-200000J0D01*
G01*
X151305000Y-119855000D01*
G75*
G02*
X151105000Y-119655000I0J200000D01*
G01*
G37*
G36*
G01*
X148095000Y-119105000D02*
X148095000Y-119655000D01*
G75*
G02*
X147895000Y-119855000I-200000J0D01*
G01*
X147495000Y-119855000D01*
G75*
G02*
X147295000Y-119655000I0J200000D01*
G01*
X147295000Y-119105000D01*
G75*
G02*
X147495000Y-118905000I200000J0D01*
G01*
X147895000Y-118905000D01*
G75*
G02*
X148095000Y-119105000I0J-200000D01*
G01*
G37*
G36*
G01*
X146445000Y-119105000D02*
X146445000Y-119655000D01*
G75*
G02*
X146245000Y-119855000I-200000J0D01*
G01*
X145845000Y-119855000D01*
G75*
G02*
X145645000Y-119655000I0J200000D01*
G01*
X145645000Y-119105000D01*
G75*
G02*
X145845000Y-118905000I200000J0D01*
G01*
X146245000Y-118905000D01*
G75*
G02*
X146445000Y-119105000I0J-200000D01*
G01*
G37*
G36*
G01*
X163150000Y-105770000D02*
X163150000Y-106320000D01*
G75*
G02*
X162950000Y-106520000I-200000J0D01*
G01*
X162550000Y-106520000D01*
G75*
G02*
X162350000Y-106320000I0J200000D01*
G01*
X162350000Y-105770000D01*
G75*
G02*
X162550000Y-105570000I200000J0D01*
G01*
X162950000Y-105570000D01*
G75*
G02*
X163150000Y-105770000I0J-200000D01*
G01*
G37*
G36*
G01*
X161500000Y-105770000D02*
X161500000Y-106320000D01*
G75*
G02*
X161300000Y-106520000I-200000J0D01*
G01*
X160900000Y-106520000D01*
G75*
G02*
X160700000Y-106320000I0J200000D01*
G01*
X160700000Y-105770000D01*
G75*
G02*
X160900000Y-105570000I200000J0D01*
G01*
X161300000Y-105570000D01*
G75*
G02*
X161500000Y-105770000I0J-200000D01*
G01*
G37*
G36*
G01*
X130093000Y-83460000D02*
X130093000Y-82910000D01*
G75*
G02*
X130293000Y-82710000I200000J0D01*
G01*
X130693000Y-82710000D01*
G75*
G02*
X130893000Y-82910000I0J-200000D01*
G01*
X130893000Y-83460000D01*
G75*
G02*
X130693000Y-83660000I-200000J0D01*
G01*
X130293000Y-83660000D01*
G75*
G02*
X130093000Y-83460000I0J200000D01*
G01*
G37*
G36*
G01*
X131743000Y-83460000D02*
X131743000Y-82910000D01*
G75*
G02*
X131943000Y-82710000I200000J0D01*
G01*
X132343000Y-82710000D01*
G75*
G02*
X132543000Y-82910000I0J-200000D01*
G01*
X132543000Y-83460000D01*
G75*
G02*
X132343000Y-83660000I-200000J0D01*
G01*
X131943000Y-83660000D01*
G75*
G02*
X131743000Y-83460000I0J200000D01*
G01*
G37*
G36*
G01*
X155530000Y-98150000D02*
X155530000Y-98700000D01*
G75*
G02*
X155330000Y-98900000I-200000J0D01*
G01*
X154930000Y-98900000D01*
G75*
G02*
X154730000Y-98700000I0J200000D01*
G01*
X154730000Y-98150000D01*
G75*
G02*
X154930000Y-97950000I200000J0D01*
G01*
X155330000Y-97950000D01*
G75*
G02*
X155530000Y-98150000I0J-200000D01*
G01*
G37*
G36*
G01*
X153880000Y-98150000D02*
X153880000Y-98700000D01*
G75*
G02*
X153680000Y-98900000I-200000J0D01*
G01*
X153280000Y-98900000D01*
G75*
G02*
X153080000Y-98700000I0J200000D01*
G01*
X153080000Y-98150000D01*
G75*
G02*
X153280000Y-97950000I200000J0D01*
G01*
X153680000Y-97950000D01*
G75*
G02*
X153880000Y-98150000I0J-200000D01*
G01*
G37*
X137048000Y-83505000D03*
X136398000Y-83505000D03*
X135748000Y-83505000D03*
X135748000Y-85405000D03*
X136398000Y-85405000D03*
X137048000Y-85405000D03*
G36*
G01*
X152990000Y-79735000D02*
X152990000Y-80285000D01*
G75*
G02*
X152790000Y-80485000I-200000J0D01*
G01*
X152390000Y-80485000D01*
G75*
G02*
X152190000Y-80285000I0J200000D01*
G01*
X152190000Y-79735000D01*
G75*
G02*
X152390000Y-79535000I200000J0D01*
G01*
X152790000Y-79535000D01*
G75*
G02*
X152990000Y-79735000I0J-200000D01*
G01*
G37*
G36*
G01*
X151340000Y-79735000D02*
X151340000Y-80285000D01*
G75*
G02*
X151140000Y-80485000I-200000J0D01*
G01*
X150740000Y-80485000D01*
G75*
G02*
X150540000Y-80285000I0J200000D01*
G01*
X150540000Y-79735000D01*
G75*
G02*
X150740000Y-79535000I200000J0D01*
G01*
X151140000Y-79535000D01*
G75*
G02*
X151340000Y-79735000I0J-200000D01*
G01*
G37*
G36*
G01*
X155530000Y-89260000D02*
X155530000Y-89810000D01*
G75*
G02*
X155330000Y-90010000I-200000J0D01*
G01*
X154930000Y-90010000D01*
G75*
G02*
X154730000Y-89810000I0J200000D01*
G01*
X154730000Y-89260000D01*
G75*
G02*
X154930000Y-89060000I200000J0D01*
G01*
X155330000Y-89060000D01*
G75*
G02*
X155530000Y-89260000I0J-200000D01*
G01*
G37*
G36*
G01*
X153880000Y-89260000D02*
X153880000Y-89810000D01*
G75*
G02*
X153680000Y-90010000I-200000J0D01*
G01*
X153280000Y-90010000D01*
G75*
G02*
X153080000Y-89810000I0J200000D01*
G01*
X153080000Y-89260000D01*
G75*
G02*
X153280000Y-89060000I200000J0D01*
G01*
X153680000Y-89060000D01*
G75*
G02*
X153880000Y-89260000I0J-200000D01*
G01*
G37*
D11*
X150590000Y-109845000D03*
X149590000Y-109845000D03*
X148590000Y-109845000D03*
X147590000Y-109845000D03*
X146590000Y-109845000D03*
X146590000Y-114945000D03*
X147590000Y-114945000D03*
X148590000Y-114945000D03*
X149590000Y-114945000D03*
X150590000Y-114945000D03*
G36*
G01*
X135210000Y-105795000D02*
X135210000Y-106295000D01*
G75*
G02*
X134985000Y-106520000I-225000J0D01*
G01*
X134535000Y-106520000D01*
G75*
G02*
X134310000Y-106295000I0J225000D01*
G01*
X134310000Y-105795000D01*
G75*
G02*
X134535000Y-105570000I225000J0D01*
G01*
X134985000Y-105570000D01*
G75*
G02*
X135210000Y-105795000I0J-225000D01*
G01*
G37*
G36*
G01*
X133660000Y-105795000D02*
X133660000Y-106295000D01*
G75*
G02*
X133435000Y-106520000I-225000J0D01*
G01*
X132985000Y-106520000D01*
G75*
G02*
X132760000Y-106295000I0J225000D01*
G01*
X132760000Y-105795000D01*
G75*
G02*
X132985000Y-105570000I225000J0D01*
G01*
X133435000Y-105570000D01*
G75*
G02*
X133660000Y-105795000I0J-225000D01*
G01*
G37*
G36*
G01*
X163150000Y-79735000D02*
X163150000Y-80285000D01*
G75*
G02*
X162950000Y-80485000I-200000J0D01*
G01*
X162550000Y-80485000D01*
G75*
G02*
X162350000Y-80285000I0J200000D01*
G01*
X162350000Y-79735000D01*
G75*
G02*
X162550000Y-79535000I200000J0D01*
G01*
X162950000Y-79535000D01*
G75*
G02*
X163150000Y-79735000I0J-200000D01*
G01*
G37*
G36*
G01*
X161500000Y-79735000D02*
X161500000Y-80285000D01*
G75*
G02*
X161300000Y-80485000I-200000J0D01*
G01*
X160900000Y-80485000D01*
G75*
G02*
X160700000Y-80285000I0J200000D01*
G01*
X160700000Y-79735000D01*
G75*
G02*
X160900000Y-79535000I200000J0D01*
G01*
X161300000Y-79535000D01*
G75*
G02*
X161500000Y-79735000I0J-200000D01*
G01*
G37*
G36*
G01*
X132760000Y-99970000D02*
X132760000Y-99420000D01*
G75*
G02*
X132960000Y-99220000I200000J0D01*
G01*
X133360000Y-99220000D01*
G75*
G02*
X133560000Y-99420000I0J-200000D01*
G01*
X133560000Y-99970000D01*
G75*
G02*
X133360000Y-100170000I-200000J0D01*
G01*
X132960000Y-100170000D01*
G75*
G02*
X132760000Y-99970000I0J200000D01*
G01*
G37*
G36*
G01*
X134410000Y-99970000D02*
X134410000Y-99420000D01*
G75*
G02*
X134610000Y-99220000I200000J0D01*
G01*
X135010000Y-99220000D01*
G75*
G02*
X135210000Y-99420000I0J-200000D01*
G01*
X135210000Y-99970000D01*
G75*
G02*
X135010000Y-100170000I-200000J0D01*
G01*
X134610000Y-100170000D01*
G75*
G02*
X134410000Y-99970000I0J200000D01*
G01*
G37*
G36*
G01*
X135173000Y-76475000D02*
X135173000Y-75925000D01*
G75*
G02*
X135373000Y-75725000I200000J0D01*
G01*
X135773000Y-75725000D01*
G75*
G02*
X135973000Y-75925000I0J-200000D01*
G01*
X135973000Y-76475000D01*
G75*
G02*
X135773000Y-76675000I-200000J0D01*
G01*
X135373000Y-76675000D01*
G75*
G02*
X135173000Y-76475000I0J200000D01*
G01*
G37*
G36*
G01*
X136823000Y-76475000D02*
X136823000Y-75925000D01*
G75*
G02*
X137023000Y-75725000I200000J0D01*
G01*
X137423000Y-75725000D01*
G75*
G02*
X137623000Y-75925000I0J-200000D01*
G01*
X137623000Y-76475000D01*
G75*
G02*
X137423000Y-76675000I-200000J0D01*
G01*
X137023000Y-76675000D01*
G75*
G02*
X136823000Y-76475000I0J200000D01*
G01*
G37*
G36*
G01*
X132760000Y-110130000D02*
X132760000Y-109580000D01*
G75*
G02*
X132960000Y-109380000I200000J0D01*
G01*
X133360000Y-109380000D01*
G75*
G02*
X133560000Y-109580000I0J-200000D01*
G01*
X133560000Y-110130000D01*
G75*
G02*
X133360000Y-110330000I-200000J0D01*
G01*
X132960000Y-110330000D01*
G75*
G02*
X132760000Y-110130000I0J200000D01*
G01*
G37*
G36*
G01*
X134410000Y-110130000D02*
X134410000Y-109580000D01*
G75*
G02*
X134610000Y-109380000I200000J0D01*
G01*
X135010000Y-109380000D01*
G75*
G02*
X135210000Y-109580000I0J-200000D01*
G01*
X135210000Y-110130000D01*
G75*
G02*
X135010000Y-110330000I-200000J0D01*
G01*
X134610000Y-110330000D01*
G75*
G02*
X134410000Y-110130000I0J200000D01*
G01*
G37*
G36*
G01*
X132543000Y-86085000D02*
X132543000Y-86635000D01*
G75*
G02*
X132343000Y-86835000I-200000J0D01*
G01*
X131943000Y-86835000D01*
G75*
G02*
X131743000Y-86635000I0J200000D01*
G01*
X131743000Y-86085000D01*
G75*
G02*
X131943000Y-85885000I200000J0D01*
G01*
X132343000Y-85885000D01*
G75*
G02*
X132543000Y-86085000I0J-200000D01*
G01*
G37*
G36*
G01*
X130893000Y-86085000D02*
X130893000Y-86635000D01*
G75*
G02*
X130693000Y-86835000I-200000J0D01*
G01*
X130293000Y-86835000D01*
G75*
G02*
X130093000Y-86635000I0J200000D01*
G01*
X130093000Y-86085000D01*
G75*
G02*
X130293000Y-85885000I200000J0D01*
G01*
X130693000Y-85885000D01*
G75*
G02*
X130893000Y-86085000I0J-200000D01*
G01*
G37*
G36*
G01*
X149270000Y-106320000D02*
X149270000Y-105770000D01*
G75*
G02*
X149470000Y-105570000I200000J0D01*
G01*
X149870000Y-105570000D01*
G75*
G02*
X150070000Y-105770000I0J-200000D01*
G01*
X150070000Y-106320000D01*
G75*
G02*
X149870000Y-106520000I-200000J0D01*
G01*
X149470000Y-106520000D01*
G75*
G02*
X149270000Y-106320000I0J200000D01*
G01*
G37*
G36*
G01*
X150920000Y-106320000D02*
X150920000Y-105770000D01*
G75*
G02*
X151120000Y-105570000I200000J0D01*
G01*
X151520000Y-105570000D01*
G75*
G02*
X151720000Y-105770000I0J-200000D01*
G01*
X151720000Y-106320000D01*
G75*
G02*
X151520000Y-106520000I-200000J0D01*
G01*
X151120000Y-106520000D01*
G75*
G02*
X150920000Y-106320000I0J200000D01*
G01*
G37*
G36*
G01*
X153265000Y-119630000D02*
X153265000Y-119130000D01*
G75*
G02*
X153490000Y-118905000I225000J0D01*
G01*
X153940000Y-118905000D01*
G75*
G02*
X154165000Y-119130000I0J-225000D01*
G01*
X154165000Y-119630000D01*
G75*
G02*
X153940000Y-119855000I-225000J0D01*
G01*
X153490000Y-119855000D01*
G75*
G02*
X153265000Y-119630000I0J225000D01*
G01*
G37*
G36*
G01*
X154815000Y-119630000D02*
X154815000Y-119130000D01*
G75*
G02*
X155040000Y-118905000I225000J0D01*
G01*
X155490000Y-118905000D01*
G75*
G02*
X155715000Y-119130000I0J-225000D01*
G01*
X155715000Y-119630000D01*
G75*
G02*
X155490000Y-119855000I-225000J0D01*
G01*
X155040000Y-119855000D01*
G75*
G02*
X154815000Y-119630000I0J225000D01*
G01*
G37*
D10*
X162575000Y-93030000D03*
X161925000Y-93030000D03*
X161275000Y-93030000D03*
X161275000Y-94930000D03*
X161925000Y-94930000D03*
X162575000Y-94930000D03*
G36*
G01*
X163150000Y-102620000D02*
X163150000Y-103120000D01*
G75*
G02*
X162925000Y-103345000I-225000J0D01*
G01*
X162475000Y-103345000D01*
G75*
G02*
X162250000Y-103120000I0J225000D01*
G01*
X162250000Y-102620000D01*
G75*
G02*
X162475000Y-102395000I225000J0D01*
G01*
X162925000Y-102395000D01*
G75*
G02*
X163150000Y-102620000I0J-225000D01*
G01*
G37*
G36*
G01*
X161600000Y-102620000D02*
X161600000Y-103120000D01*
G75*
G02*
X161375000Y-103345000I-225000J0D01*
G01*
X160925000Y-103345000D01*
G75*
G02*
X160700000Y-103120000I0J225000D01*
G01*
X160700000Y-102620000D01*
G75*
G02*
X160925000Y-102395000I225000J0D01*
G01*
X161375000Y-102395000D01*
G75*
G02*
X161600000Y-102620000I0J-225000D01*
G01*
G37*
G36*
G01*
X151905000Y-122280000D02*
X151905000Y-122830000D01*
G75*
G02*
X151705000Y-123030000I-200000J0D01*
G01*
X151305000Y-123030000D01*
G75*
G02*
X151105000Y-122830000I0J200000D01*
G01*
X151105000Y-122280000D01*
G75*
G02*
X151305000Y-122080000I200000J0D01*
G01*
X151705000Y-122080000D01*
G75*
G02*
X151905000Y-122280000I0J-200000D01*
G01*
G37*
G36*
G01*
X150255000Y-122280000D02*
X150255000Y-122830000D01*
G75*
G02*
X150055000Y-123030000I-200000J0D01*
G01*
X149655000Y-123030000D01*
G75*
G02*
X149455000Y-122830000I0J200000D01*
G01*
X149455000Y-122280000D01*
G75*
G02*
X149655000Y-122080000I200000J0D01*
G01*
X150055000Y-122080000D01*
G75*
G02*
X150255000Y-122280000I0J-200000D01*
G01*
G37*
G36*
G01*
X151720000Y-101858000D02*
X151720000Y-102358000D01*
G75*
G02*
X151495000Y-102583000I-225000J0D01*
G01*
X151045000Y-102583000D01*
G75*
G02*
X150820000Y-102358000I0J225000D01*
G01*
X150820000Y-101858000D01*
G75*
G02*
X151045000Y-101633000I225000J0D01*
G01*
X151495000Y-101633000D01*
G75*
G02*
X151720000Y-101858000I0J-225000D01*
G01*
G37*
G36*
G01*
X150170000Y-101858000D02*
X150170000Y-102358000D01*
G75*
G02*
X149945000Y-102583000I-225000J0D01*
G01*
X149495000Y-102583000D01*
G75*
G02*
X149270000Y-102358000I0J225000D01*
G01*
X149270000Y-101858000D01*
G75*
G02*
X149495000Y-101633000I225000J0D01*
G01*
X149945000Y-101633000D01*
G75*
G02*
X150170000Y-101858000I0J-225000D01*
G01*
G37*
G36*
G01*
X140048000Y-85905000D02*
X139098000Y-85905000D01*
G75*
G02*
X138848000Y-85655000I0J250000D01*
G01*
X138848000Y-85155000D01*
G75*
G02*
X139098000Y-84905000I250000J0D01*
G01*
X140048000Y-84905000D01*
G75*
G02*
X140298000Y-85155000I0J-250000D01*
G01*
X140298000Y-85655000D01*
G75*
G02*
X140048000Y-85905000I-250000J0D01*
G01*
G37*
G36*
G01*
X140048000Y-84005000D02*
X139098000Y-84005000D01*
G75*
G02*
X138848000Y-83755000I0J250000D01*
G01*
X138848000Y-83255000D01*
G75*
G02*
X139098000Y-83005000I250000J0D01*
G01*
X140048000Y-83005000D01*
G75*
G02*
X140298000Y-83255000I0J-250000D01*
G01*
X140298000Y-83755000D01*
G75*
G02*
X140048000Y-84005000I-250000J0D01*
G01*
G37*
X156098000Y-83505000D03*
X155448000Y-83505000D03*
X154798000Y-83505000D03*
X154798000Y-85405000D03*
X155448000Y-85405000D03*
X156098000Y-85405000D03*
G36*
G01*
X165653000Y-80260000D02*
X165653000Y-79760000D01*
G75*
G02*
X165878000Y-79535000I225000J0D01*
G01*
X166328000Y-79535000D01*
G75*
G02*
X166553000Y-79760000I0J-225000D01*
G01*
X166553000Y-80260000D01*
G75*
G02*
X166328000Y-80485000I-225000J0D01*
G01*
X165878000Y-80485000D01*
G75*
G02*
X165653000Y-80260000I0J225000D01*
G01*
G37*
G36*
G01*
X167203000Y-80260000D02*
X167203000Y-79760000D01*
G75*
G02*
X167428000Y-79535000I225000J0D01*
G01*
X167878000Y-79535000D01*
G75*
G02*
X168103000Y-79760000I0J-225000D01*
G01*
X168103000Y-80260000D01*
G75*
G02*
X167878000Y-80485000I-225000J0D01*
G01*
X167428000Y-80485000D01*
G75*
G02*
X167203000Y-80260000I0J225000D01*
G01*
G37*
G36*
G01*
X145448000Y-83005000D02*
X146398000Y-83005000D01*
G75*
G02*
X146648000Y-83255000I0J-250000D01*
G01*
X146648000Y-83755000D01*
G75*
G02*
X146398000Y-84005000I-250000J0D01*
G01*
X145448000Y-84005000D01*
G75*
G02*
X145198000Y-83755000I0J250000D01*
G01*
X145198000Y-83255000D01*
G75*
G02*
X145448000Y-83005000I250000J0D01*
G01*
G37*
G36*
G01*
X145448000Y-84905000D02*
X146398000Y-84905000D01*
G75*
G02*
X146648000Y-85155000I0J-250000D01*
G01*
X146648000Y-85655000D01*
G75*
G02*
X146398000Y-85905000I-250000J0D01*
G01*
X145448000Y-85905000D01*
G75*
G02*
X145198000Y-85655000I0J250000D01*
G01*
X145198000Y-85155000D01*
G75*
G02*
X145448000Y-84905000I250000J0D01*
G01*
G37*
G36*
G01*
X147910000Y-79735000D02*
X147910000Y-80285000D01*
G75*
G02*
X147710000Y-80485000I-200000J0D01*
G01*
X147310000Y-80485000D01*
G75*
G02*
X147110000Y-80285000I0J200000D01*
G01*
X147110000Y-79735000D01*
G75*
G02*
X147310000Y-79535000I200000J0D01*
G01*
X147710000Y-79535000D01*
G75*
G02*
X147910000Y-79735000I0J-200000D01*
G01*
G37*
G36*
G01*
X146260000Y-79735000D02*
X146260000Y-80285000D01*
G75*
G02*
X146060000Y-80485000I-200000J0D01*
G01*
X145660000Y-80485000D01*
G75*
G02*
X145460000Y-80285000I0J200000D01*
G01*
X145460000Y-79735000D01*
G75*
G02*
X145660000Y-79535000I200000J0D01*
G01*
X146060000Y-79535000D01*
G75*
G02*
X146260000Y-79735000I0J-200000D01*
G01*
G37*
G36*
G01*
X158070000Y-79735000D02*
X158070000Y-80285000D01*
G75*
G02*
X157870000Y-80485000I-200000J0D01*
G01*
X157470000Y-80485000D01*
G75*
G02*
X157270000Y-80285000I0J200000D01*
G01*
X157270000Y-79735000D01*
G75*
G02*
X157470000Y-79535000I200000J0D01*
G01*
X157870000Y-79535000D01*
G75*
G02*
X158070000Y-79735000I0J-200000D01*
G01*
G37*
G36*
G01*
X156420000Y-79735000D02*
X156420000Y-80285000D01*
G75*
G02*
X156220000Y-80485000I-200000J0D01*
G01*
X155820000Y-80485000D01*
G75*
G02*
X155620000Y-80285000I0J200000D01*
G01*
X155620000Y-79735000D01*
G75*
G02*
X155820000Y-79535000I200000J0D01*
G01*
X156220000Y-79535000D01*
G75*
G02*
X156420000Y-79735000I0J-200000D01*
G01*
G37*
M02*
