G04 #@! TF.GenerationSoftware,KiCad,Pcbnew,6.0.5+dfsg-1~bpo11+1*
G04 #@! TF.CreationDate,2022-08-15T22:36:42+00:00*
G04 #@! TF.ProjectId,minimoog_LPF,6d696e69-6d6f-46f6-975f-4c50462e6b69,0.1*
G04 #@! TF.SameCoordinates,Original*
G04 #@! TF.FileFunction,Soldermask,Bot*
G04 #@! TF.FilePolarity,Negative*
%FSLAX46Y46*%
G04 Gerber Fmt 4.6, Leading zero omitted, Abs format (unit mm)*
G04 Created by KiCad (PCBNEW 6.0.5+dfsg-1~bpo11+1) date 2022-08-15 22:36:42*
%MOMM*%
%LPD*%
G01*
G04 APERTURE LIST*
%ADD10C,1.702000*%
%ADD11C,1.542000*%
%ADD12O,1.802000X1.802000*%
G04 APERTURE END LIST*
G36*
G01*
X139535000Y-103289000D02*
X141135000Y-103289000D01*
G75*
G02*
X141186000Y-103340000I0J-51000D01*
G01*
X141186000Y-104940000D01*
G75*
G02*
X141135000Y-104991000I-51000J0D01*
G01*
X139535000Y-104991000D01*
G75*
G02*
X139484000Y-104940000I0J51000D01*
G01*
X139484000Y-103340000D01*
G75*
G02*
X139535000Y-103289000I51000J0D01*
G01*
G37*
D10*
X140335000Y-106640000D03*
G36*
G01*
X169380000Y-95756621D02*
X170980000Y-95756621D01*
G75*
G02*
X171031000Y-95807621I0J-51000D01*
G01*
X171031000Y-97407621D01*
G75*
G02*
X170980000Y-97458621I-51000J0D01*
G01*
X169380000Y-97458621D01*
G75*
G02*
X169329000Y-97407621I0J51000D01*
G01*
X169329000Y-95807621D01*
G75*
G02*
X169380000Y-95756621I51000J0D01*
G01*
G37*
X170180000Y-99107621D03*
G36*
G01*
X125565000Y-97661621D02*
X127165000Y-97661621D01*
G75*
G02*
X127216000Y-97712621I0J-51000D01*
G01*
X127216000Y-99312621D01*
G75*
G02*
X127165000Y-99363621I-51000J0D01*
G01*
X125565000Y-99363621D01*
G75*
G02*
X125514000Y-99312621I0J51000D01*
G01*
X125514000Y-97712621D01*
G75*
G02*
X125565000Y-97661621I51000J0D01*
G01*
G37*
X126365000Y-101012621D03*
D11*
X127635000Y-120015000D03*
X127635000Y-117475000D03*
X127635000Y-114935000D03*
D10*
X171450000Y-83860000D03*
X171450000Y-88860000D03*
G36*
G01*
X125565000Y-88136621D02*
X127165000Y-88136621D01*
G75*
G02*
X127216000Y-88187621I0J-51000D01*
G01*
X127216000Y-89787621D01*
G75*
G02*
X127165000Y-89838621I-51000J0D01*
G01*
X125565000Y-89838621D01*
G75*
G02*
X125514000Y-89787621I0J51000D01*
G01*
X125514000Y-88187621D01*
G75*
G02*
X125565000Y-88136621I51000J0D01*
G01*
G37*
X126365000Y-91487621D03*
G36*
G01*
X169380000Y-116624000D02*
X170980000Y-116624000D01*
G75*
G02*
X171031000Y-116675000I0J-51000D01*
G01*
X171031000Y-118275000D01*
G75*
G02*
X170980000Y-118326000I-51000J0D01*
G01*
X169380000Y-118326000D01*
G75*
G02*
X169329000Y-118275000I0J51000D01*
G01*
X169329000Y-116675000D01*
G75*
G02*
X169380000Y-116624000I51000J0D01*
G01*
G37*
X170180000Y-119975000D03*
G36*
G01*
X169380000Y-109639000D02*
X170980000Y-109639000D01*
G75*
G02*
X171031000Y-109690000I0J-51000D01*
G01*
X171031000Y-111290000D01*
G75*
G02*
X170980000Y-111341000I-51000J0D01*
G01*
X169380000Y-111341000D01*
G75*
G02*
X169329000Y-111290000I0J51000D01*
G01*
X169329000Y-109690000D01*
G75*
G02*
X169380000Y-109639000I51000J0D01*
G01*
G37*
X170180000Y-112990000D03*
D11*
X133985000Y-120015000D03*
X133985000Y-117475000D03*
X133985000Y-114935000D03*
X140335000Y-120015000D03*
X140335000Y-117475000D03*
X140335000Y-114935000D03*
D10*
X167005000Y-83860000D03*
X167005000Y-88860000D03*
G36*
G01*
X123456000Y-75350000D02*
X123456000Y-77050000D01*
G75*
G02*
X123405000Y-77101000I-51000J0D01*
G01*
X121705000Y-77101000D01*
G75*
G02*
X121654000Y-77050000I0J51000D01*
G01*
X121654000Y-75350000D01*
G75*
G02*
X121705000Y-75299000I51000J0D01*
G01*
X123405000Y-75299000D01*
G75*
G02*
X123456000Y-75350000I0J-51000D01*
G01*
G37*
D12*
X122555000Y-78740000D03*
X122555000Y-81280000D03*
X122555000Y-83820000D03*
G36*
G01*
X123456000Y-113450000D02*
X123456000Y-115150000D01*
G75*
G02*
X123405000Y-115201000I-51000J0D01*
G01*
X121705000Y-115201000D01*
G75*
G02*
X121654000Y-115150000I0J51000D01*
G01*
X121654000Y-113450000D01*
G75*
G02*
X121705000Y-113399000I51000J0D01*
G01*
X123405000Y-113399000D01*
G75*
G02*
X123456000Y-113450000I0J-51000D01*
G01*
G37*
X122555000Y-116840000D03*
X122555000Y-119380000D03*
X122555000Y-121920000D03*
G36*
G01*
X176796000Y-75350000D02*
X176796000Y-77050000D01*
G75*
G02*
X176745000Y-77101000I-51000J0D01*
G01*
X175045000Y-77101000D01*
G75*
G02*
X174994000Y-77050000I0J51000D01*
G01*
X174994000Y-75350000D01*
G75*
G02*
X175045000Y-75299000I51000J0D01*
G01*
X176745000Y-75299000D01*
G75*
G02*
X176796000Y-75350000I0J-51000D01*
G01*
G37*
X175895000Y-78740000D03*
X175895000Y-81280000D03*
X175895000Y-83820000D03*
G36*
G01*
X176796000Y-103290000D02*
X176796000Y-104990000D01*
G75*
G02*
X176745000Y-105041000I-51000J0D01*
G01*
X175045000Y-105041000D01*
G75*
G02*
X174994000Y-104990000I0J51000D01*
G01*
X174994000Y-103290000D01*
G75*
G02*
X175045000Y-103239000I51000J0D01*
G01*
X176745000Y-103239000D01*
G75*
G02*
X176796000Y-103290000I0J-51000D01*
G01*
G37*
X175895000Y-106680000D03*
X175895000Y-109220000D03*
X175895000Y-111760000D03*
X175895000Y-114300000D03*
X175895000Y-116840000D03*
X175895000Y-119380000D03*
X175895000Y-121920000D03*
M02*
