M48
; DRILL file {KiCad 6.0.5-2.fc35} date Sun 29 May 2022 07:31:40 AM EDT
; FORMAT={-:-/ absolute / metric / decimal}
; #@! TF.CreationDate,2022-05-29T07:31:40-04:00
; #@! TF.GenerationSoftware,Kicad,Pcbnew,6.0.5-2.fc35
; #@! TF.FileFunction,Plated,1,2,PTH
FMAT,2
METRIC
; #@! TA.AperFunction,Plated,PTH,ViaDrill
T1C0.500
; #@! TA.AperFunction,Plated,PTH,ComponentDrill
T2C0.800
; #@! TA.AperFunction,Plated,PTH,ComponentDrill
T3C1.000
%
G90
G05
T1
X100.33Y-98.679
X106.68Y-78.359
X115.189Y-95.504
X115.697Y-81.026
X116.459Y-100.584
X116.586Y-89.916
X117.856Y-91.059
X119.462Y-79.98
X121.285Y-75.565
X121.285Y-80.01
X123.444Y-90.297
X123.444Y-111.252
X124.714Y-85.471
X125.349Y-99.695
X127.635Y-81.28
X131.953Y-92.202
X132.207Y-109.855
X132.461Y-82.042
X132.461Y-98.171
X132.461Y-113.284
X133.985Y-85.217
X135.382Y-86.614
T2
X99.06Y-106.68
X99.06Y-109.22
X99.06Y-111.76
X105.41Y-106.68
X105.41Y-109.22
X105.41Y-111.76
X108.284Y-70.104
X108.284Y-88.138
X111.76Y-106.68
X111.76Y-109.22
X111.76Y-111.76
X113.284Y-70.104
X113.284Y-88.138
X126.786Y-70.104
X126.786Y-88.138
X131.786Y-70.104
X131.786Y-88.138
X140.502Y-112.014
X140.55Y-103.505
X143.002Y-112.014
X143.05Y-103.505
T3
X93.98Y-68.58
X93.98Y-71.12
X93.98Y-73.66
X93.98Y-76.2
X93.98Y-106.68
X93.98Y-109.22
X93.98Y-111.76
X93.98Y-114.3
X147.32Y-68.58
X147.32Y-71.12
X147.32Y-73.66
X147.32Y-76.2
X147.32Y-96.52
X147.32Y-99.06
X147.32Y-101.6
X147.32Y-104.14
X147.32Y-106.68
X147.32Y-109.22
X147.32Y-111.76
X147.32Y-114.3
T0
M30
