G04 #@! TF.GenerationSoftware,KiCad,Pcbnew,6.0.5-2.fc35*
G04 #@! TF.CreationDate,2022-05-29T07:31:37-04:00*
G04 #@! TF.ProjectId,SSI2140_LPF_plug_in_board,53534932-3134-4305-9f4c-50465f706c75,0*
G04 #@! TF.SameCoordinates,Original*
G04 #@! TF.FileFunction,Legend,Bot*
G04 #@! TF.FilePolarity,Positive*
%FSLAX46Y46*%
G04 Gerber Fmt 4.6, Leading zero omitted, Abs format (unit mm)*
G04 Created by KiCad (PCBNEW 6.0.5-2.fc35) date 2022-05-29 07:31:37*
%MOMM*%
%LPD*%
G01*
G04 APERTURE LIST*
G04 Aperture macros list*
%AMRoundRect*
0 Rectangle with rounded corners*
0 $1 Rounding radius*
0 $2 $3 $4 $5 $6 $7 $8 $9 X,Y pos of 4 corners*
0 Add a 4 corners polygon primitive as box body*
4,1,4,$2,$3,$4,$5,$6,$7,$8,$9,$2,$3,0*
0 Add four circle primitives for the rounded corners*
1,1,$1+$1,$2,$3*
1,1,$1+$1,$4,$5*
1,1,$1+$1,$6,$7*
1,1,$1+$1,$8,$9*
0 Add four rect primitives between the rounded corners*
20,1,$1+$1,$2,$3,$4,$5,0*
20,1,$1+$1,$4,$5,$6,$7,0*
20,1,$1+$1,$6,$7,$8,$9,0*
20,1,$1+$1,$8,$9,$2,$3,0*%
G04 Aperture macros list end*
%ADD10C,0.150000*%
%ADD11C,0.120000*%
%ADD12C,1.702000*%
%ADD13RoundRect,0.051000X-0.800000X-0.800000X0.800000X-0.800000X0.800000X0.800000X-0.800000X0.800000X0*%
%ADD14C,1.542000*%
%ADD15RoundRect,0.051000X0.850000X0.850000X-0.850000X0.850000X-0.850000X-0.850000X0.850000X-0.850000X0*%
%ADD16O,1.802000X1.802000*%
G04 APERTURE END LIST*
D10*
X141952023Y-72919761D02*
X141809166Y-72967380D01*
X141571071Y-72967380D01*
X141475833Y-72919761D01*
X141428214Y-72872142D01*
X141380595Y-72776904D01*
X141380595Y-72681666D01*
X141428214Y-72586428D01*
X141475833Y-72538809D01*
X141571071Y-72491190D01*
X141761547Y-72443571D01*
X141856785Y-72395952D01*
X141904404Y-72348333D01*
X141952023Y-72253095D01*
X141952023Y-72157857D01*
X141904404Y-72062619D01*
X141856785Y-72015000D01*
X141761547Y-71967380D01*
X141523452Y-71967380D01*
X141380595Y-72015000D01*
X140999642Y-72919761D02*
X140856785Y-72967380D01*
X140618690Y-72967380D01*
X140523452Y-72919761D01*
X140475833Y-72872142D01*
X140428214Y-72776904D01*
X140428214Y-72681666D01*
X140475833Y-72586428D01*
X140523452Y-72538809D01*
X140618690Y-72491190D01*
X140809166Y-72443571D01*
X140904404Y-72395952D01*
X140952023Y-72348333D01*
X140999642Y-72253095D01*
X140999642Y-72157857D01*
X140952023Y-72062619D01*
X140904404Y-72015000D01*
X140809166Y-71967380D01*
X140571071Y-71967380D01*
X140428214Y-72015000D01*
X139999642Y-72967380D02*
X139999642Y-71967380D01*
X139571071Y-72062619D02*
X139523452Y-72015000D01*
X139428214Y-71967380D01*
X139190119Y-71967380D01*
X139094880Y-72015000D01*
X139047261Y-72062619D01*
X138999642Y-72157857D01*
X138999642Y-72253095D01*
X139047261Y-72395952D01*
X139618690Y-72967380D01*
X138999642Y-72967380D01*
X138047261Y-72967380D02*
X138618690Y-72967380D01*
X138332976Y-72967380D02*
X138332976Y-71967380D01*
X138428214Y-72110238D01*
X138523452Y-72205476D01*
X138618690Y-72253095D01*
X137190119Y-72300714D02*
X137190119Y-72967380D01*
X137428214Y-71919761D02*
X137666309Y-72634047D01*
X137047261Y-72634047D01*
X136475833Y-71967380D02*
X136380595Y-71967380D01*
X136285357Y-72015000D01*
X136237738Y-72062619D01*
X136190119Y-72157857D01*
X136142500Y-72348333D01*
X136142500Y-72586428D01*
X136190119Y-72776904D01*
X136237738Y-72872142D01*
X136285357Y-72919761D01*
X136380595Y-72967380D01*
X136475833Y-72967380D01*
X136571071Y-72919761D01*
X136618690Y-72872142D01*
X136666309Y-72776904D01*
X136713928Y-72586428D01*
X136713928Y-72348333D01*
X136666309Y-72157857D01*
X136618690Y-72062619D01*
X136571071Y-72015000D01*
X136475833Y-71967380D01*
X134475833Y-72967380D02*
X134952023Y-72967380D01*
X134952023Y-71967380D01*
X134142500Y-72967380D02*
X134142500Y-71967380D01*
X133761547Y-71967380D01*
X133666309Y-72015000D01*
X133618690Y-72062619D01*
X133571071Y-72157857D01*
X133571071Y-72300714D01*
X133618690Y-72395952D01*
X133666309Y-72443571D01*
X133761547Y-72491190D01*
X134142500Y-72491190D01*
X132809166Y-72443571D02*
X133142500Y-72443571D01*
X133142500Y-72967380D02*
X133142500Y-71967380D01*
X132666309Y-71967380D01*
X141904404Y-74577380D02*
X141904404Y-73910714D01*
X141904404Y-74101190D02*
X141856785Y-74005952D01*
X141809166Y-73958333D01*
X141713928Y-73910714D01*
X141618690Y-73910714D01*
X140904404Y-74529761D02*
X140999642Y-74577380D01*
X141190119Y-74577380D01*
X141285357Y-74529761D01*
X141332976Y-74434523D01*
X141332976Y-74053571D01*
X141285357Y-73958333D01*
X141190119Y-73910714D01*
X140999642Y-73910714D01*
X140904404Y-73958333D01*
X140856785Y-74053571D01*
X140856785Y-74148809D01*
X141332976Y-74244047D01*
X140523452Y-73910714D02*
X140285357Y-74577380D01*
X140047261Y-73910714D01*
X138713928Y-73577380D02*
X138618690Y-73577380D01*
X138523452Y-73625000D01*
X138475833Y-73672619D01*
X138428214Y-73767857D01*
X138380595Y-73958333D01*
X138380595Y-74196428D01*
X138428214Y-74386904D01*
X138475833Y-74482142D01*
X138523452Y-74529761D01*
X138618690Y-74577380D01*
X138713928Y-74577380D01*
X138809166Y-74529761D01*
X138856785Y-74482142D01*
X138904404Y-74386904D01*
X138952023Y-74196428D01*
X138952023Y-73958333D01*
X138904404Y-73767857D01*
X138856785Y-73672619D01*
X138809166Y-73625000D01*
X138713928Y-73577380D01*
X141952023Y-75282619D02*
X141904404Y-75235000D01*
X141809166Y-75187380D01*
X141571071Y-75187380D01*
X141475833Y-75235000D01*
X141428214Y-75282619D01*
X141380595Y-75377857D01*
X141380595Y-75473095D01*
X141428214Y-75615952D01*
X141999642Y-76187380D01*
X141380595Y-76187380D01*
X140761547Y-75187380D02*
X140666309Y-75187380D01*
X140571071Y-75235000D01*
X140523452Y-75282619D01*
X140475833Y-75377857D01*
X140428214Y-75568333D01*
X140428214Y-75806428D01*
X140475833Y-75996904D01*
X140523452Y-76092142D01*
X140571071Y-76139761D01*
X140666309Y-76187380D01*
X140761547Y-76187380D01*
X140856785Y-76139761D01*
X140904404Y-76092142D01*
X140952023Y-75996904D01*
X140999642Y-75806428D01*
X140999642Y-75568333D01*
X140952023Y-75377857D01*
X140904404Y-75282619D01*
X140856785Y-75235000D01*
X140761547Y-75187380D01*
X140047261Y-75282619D02*
X139999642Y-75235000D01*
X139904404Y-75187380D01*
X139666309Y-75187380D01*
X139571071Y-75235000D01*
X139523452Y-75282619D01*
X139475833Y-75377857D01*
X139475833Y-75473095D01*
X139523452Y-75615952D01*
X140094880Y-76187380D01*
X139475833Y-76187380D01*
X139094880Y-75282619D02*
X139047261Y-75235000D01*
X138952023Y-75187380D01*
X138713928Y-75187380D01*
X138618690Y-75235000D01*
X138571071Y-75282619D01*
X138523452Y-75377857D01*
X138523452Y-75473095D01*
X138571071Y-75615952D01*
X139142500Y-76187380D01*
X138523452Y-76187380D01*
X138094880Y-75806428D02*
X137332976Y-75806428D01*
X136666309Y-75187380D02*
X136571071Y-75187380D01*
X136475833Y-75235000D01*
X136428214Y-75282619D01*
X136380595Y-75377857D01*
X136332976Y-75568333D01*
X136332976Y-75806428D01*
X136380595Y-75996904D01*
X136428214Y-76092142D01*
X136475833Y-76139761D01*
X136571071Y-76187380D01*
X136666309Y-76187380D01*
X136761547Y-76139761D01*
X136809166Y-76092142D01*
X136856785Y-75996904D01*
X136904404Y-75806428D01*
X136904404Y-75568333D01*
X136856785Y-75377857D01*
X136809166Y-75282619D01*
X136761547Y-75235000D01*
X136666309Y-75187380D01*
X135428214Y-75187380D02*
X135904404Y-75187380D01*
X135952023Y-75663571D01*
X135904404Y-75615952D01*
X135809166Y-75568333D01*
X135571071Y-75568333D01*
X135475833Y-75615952D01*
X135428214Y-75663571D01*
X135380595Y-75758809D01*
X135380595Y-75996904D01*
X135428214Y-76092142D01*
X135475833Y-76139761D01*
X135571071Y-76187380D01*
X135809166Y-76187380D01*
X135904404Y-76139761D01*
X135952023Y-76092142D01*
X134952023Y-75806428D02*
X134190119Y-75806428D01*
X133761547Y-75282619D02*
X133713928Y-75235000D01*
X133618690Y-75187380D01*
X133380595Y-75187380D01*
X133285357Y-75235000D01*
X133237738Y-75282619D01*
X133190119Y-75377857D01*
X133190119Y-75473095D01*
X133237738Y-75615952D01*
X133809166Y-76187380D01*
X133190119Y-76187380D01*
X132713928Y-76187380D02*
X132523452Y-76187380D01*
X132428214Y-76139761D01*
X132380595Y-76092142D01*
X132285357Y-75949285D01*
X132237738Y-75758809D01*
X132237738Y-75377857D01*
X132285357Y-75282619D01*
X132332976Y-75235000D01*
X132428214Y-75187380D01*
X132618690Y-75187380D01*
X132713928Y-75235000D01*
X132761547Y-75282619D01*
X132809166Y-75377857D01*
X132809166Y-75615952D01*
X132761547Y-75711190D01*
X132713928Y-75758809D01*
X132618690Y-75806428D01*
X132428214Y-75806428D01*
X132332976Y-75758809D01*
X132285357Y-75711190D01*
X132237738Y-75615952D01*
X141475833Y-77130714D02*
X141475833Y-77940238D01*
X141523452Y-78035476D01*
X141571071Y-78083095D01*
X141666309Y-78130714D01*
X141809166Y-78130714D01*
X141904404Y-78083095D01*
X141475833Y-77749761D02*
X141571071Y-77797380D01*
X141761547Y-77797380D01*
X141856785Y-77749761D01*
X141904404Y-77702142D01*
X141952023Y-77606904D01*
X141952023Y-77321190D01*
X141904404Y-77225952D01*
X141856785Y-77178333D01*
X141761547Y-77130714D01*
X141571071Y-77130714D01*
X141475833Y-77178333D01*
X140999642Y-77797380D02*
X140999642Y-77130714D01*
X140999642Y-76797380D02*
X141047261Y-76845000D01*
X140999642Y-76892619D01*
X140952023Y-76845000D01*
X140999642Y-76797380D01*
X140999642Y-76892619D01*
X140666309Y-77130714D02*
X140285357Y-77130714D01*
X140523452Y-76797380D02*
X140523452Y-77654523D01*
X140475833Y-77749761D01*
X140380595Y-77797380D01*
X140285357Y-77797380D01*
X139952023Y-77797380D02*
X139952023Y-76797380D01*
X139523452Y-77797380D02*
X139523452Y-77273571D01*
X139571071Y-77178333D01*
X139666309Y-77130714D01*
X139809166Y-77130714D01*
X139904404Y-77178333D01*
X139952023Y-77225952D01*
X138618690Y-77130714D02*
X138618690Y-77797380D01*
X139047261Y-77130714D02*
X139047261Y-77654523D01*
X138999642Y-77749761D01*
X138904404Y-77797380D01*
X138761547Y-77797380D01*
X138666309Y-77749761D01*
X138618690Y-77702142D01*
X138142500Y-77797380D02*
X138142500Y-76797380D01*
X138142500Y-77178333D02*
X138047261Y-77130714D01*
X137856785Y-77130714D01*
X137761547Y-77178333D01*
X137713928Y-77225952D01*
X137666309Y-77321190D01*
X137666309Y-77606904D01*
X137713928Y-77702142D01*
X137761547Y-77749761D01*
X137856785Y-77797380D01*
X138047261Y-77797380D01*
X138142500Y-77749761D01*
X137237738Y-77702142D02*
X137190119Y-77749761D01*
X137237738Y-77797380D01*
X137285357Y-77749761D01*
X137237738Y-77702142D01*
X137237738Y-77797380D01*
X136332976Y-77749761D02*
X136428214Y-77797380D01*
X136618690Y-77797380D01*
X136713928Y-77749761D01*
X136761547Y-77702142D01*
X136809166Y-77606904D01*
X136809166Y-77321190D01*
X136761547Y-77225952D01*
X136713928Y-77178333D01*
X136618690Y-77130714D01*
X136428214Y-77130714D01*
X136332976Y-77178333D01*
X135761547Y-77797380D02*
X135856785Y-77749761D01*
X135904404Y-77702142D01*
X135952023Y-77606904D01*
X135952023Y-77321190D01*
X135904404Y-77225952D01*
X135856785Y-77178333D01*
X135761547Y-77130714D01*
X135618690Y-77130714D01*
X135523452Y-77178333D01*
X135475833Y-77225952D01*
X135428214Y-77321190D01*
X135428214Y-77606904D01*
X135475833Y-77702142D01*
X135523452Y-77749761D01*
X135618690Y-77797380D01*
X135761547Y-77797380D01*
X134999642Y-77797380D02*
X134999642Y-77130714D01*
X134999642Y-77225952D02*
X134952023Y-77178333D01*
X134856785Y-77130714D01*
X134713928Y-77130714D01*
X134618690Y-77178333D01*
X134571071Y-77273571D01*
X134571071Y-77797380D01*
X134571071Y-77273571D02*
X134523452Y-77178333D01*
X134428214Y-77130714D01*
X134285357Y-77130714D01*
X134190119Y-77178333D01*
X134142500Y-77273571D01*
X134142500Y-77797380D01*
X132952023Y-76749761D02*
X133809166Y-78035476D01*
X132332976Y-76797380D02*
X132332976Y-77511666D01*
X132380595Y-77654523D01*
X132475833Y-77749761D01*
X132618690Y-77797380D01*
X132713928Y-77797380D01*
X131713928Y-77797380D02*
X131809166Y-77749761D01*
X131856785Y-77702142D01*
X131904404Y-77606904D01*
X131904404Y-77321190D01*
X131856785Y-77225952D01*
X131809166Y-77178333D01*
X131713928Y-77130714D01*
X131571071Y-77130714D01*
X131475833Y-77178333D01*
X131428214Y-77225952D01*
X131380595Y-77321190D01*
X131380595Y-77606904D01*
X131428214Y-77702142D01*
X131475833Y-77749761D01*
X131571071Y-77797380D01*
X131713928Y-77797380D01*
X130952023Y-77797380D02*
X130952023Y-77130714D01*
X130952023Y-77321190D02*
X130904404Y-77225952D01*
X130856785Y-77178333D01*
X130761547Y-77130714D01*
X130666309Y-77130714D01*
X129904404Y-77797380D02*
X129904404Y-76797380D01*
X129904404Y-77749761D02*
X129999642Y-77797380D01*
X130190119Y-77797380D01*
X130285357Y-77749761D01*
X130332976Y-77702142D01*
X130380595Y-77606904D01*
X130380595Y-77321190D01*
X130332976Y-77225952D01*
X130285357Y-77178333D01*
X130190119Y-77130714D01*
X129999642Y-77130714D01*
X129904404Y-77178333D01*
X128999642Y-77797380D02*
X128999642Y-77273571D01*
X129047261Y-77178333D01*
X129142500Y-77130714D01*
X129332976Y-77130714D01*
X129428214Y-77178333D01*
X128999642Y-77749761D02*
X129094880Y-77797380D01*
X129332976Y-77797380D01*
X129428214Y-77749761D01*
X129475833Y-77654523D01*
X129475833Y-77559285D01*
X129428214Y-77464047D01*
X129332976Y-77416428D01*
X129094880Y-77416428D01*
X128999642Y-77368809D01*
X128523452Y-77130714D02*
X128523452Y-77797380D01*
X128523452Y-77225952D02*
X128475833Y-77178333D01*
X128380595Y-77130714D01*
X128237738Y-77130714D01*
X128142500Y-77178333D01*
X128094880Y-77273571D01*
X128094880Y-77797380D01*
X127666309Y-77511666D02*
X127190119Y-77511666D01*
X127761547Y-77797380D02*
X127428214Y-76797380D01*
X127094880Y-77797380D01*
X126332976Y-77749761D02*
X126428214Y-77797380D01*
X126618690Y-77797380D01*
X126713928Y-77749761D01*
X126761547Y-77702142D01*
X126809166Y-77606904D01*
X126809166Y-77321190D01*
X126761547Y-77225952D01*
X126713928Y-77178333D01*
X126618690Y-77130714D01*
X126428214Y-77130714D01*
X126332976Y-77178333D01*
X125523452Y-77749761D02*
X125618690Y-77797380D01*
X125809166Y-77797380D01*
X125904404Y-77749761D01*
X125952023Y-77654523D01*
X125952023Y-77273571D01*
X125904404Y-77178333D01*
X125809166Y-77130714D01*
X125618690Y-77130714D01*
X125523452Y-77178333D01*
X125475833Y-77273571D01*
X125475833Y-77368809D01*
X125952023Y-77464047D01*
X125190119Y-77130714D02*
X124809166Y-77130714D01*
X125047261Y-76797380D02*
X125047261Y-77654523D01*
X124999642Y-77749761D01*
X124904404Y-77797380D01*
X124809166Y-77797380D01*
X124332976Y-77797380D02*
X124428214Y-77749761D01*
X124475833Y-77702142D01*
X124523452Y-77606904D01*
X124523452Y-77321190D01*
X124475833Y-77225952D01*
X124428214Y-77178333D01*
X124332976Y-77130714D01*
X124190119Y-77130714D01*
X124094880Y-77178333D01*
X124047261Y-77225952D01*
X123999642Y-77321190D01*
X123999642Y-77606904D01*
X124047261Y-77702142D01*
X124094880Y-77749761D01*
X124190119Y-77797380D01*
X124332976Y-77797380D01*
X122856785Y-76749761D02*
X123713928Y-78035476D01*
X122666309Y-76797380D02*
X122332976Y-77797380D01*
X121999642Y-76797380D01*
X121094880Y-77702142D02*
X121142500Y-77749761D01*
X121285357Y-77797380D01*
X121380595Y-77797380D01*
X121523452Y-77749761D01*
X121618690Y-77654523D01*
X121666309Y-77559285D01*
X121713928Y-77368809D01*
X121713928Y-77225952D01*
X121666309Y-77035476D01*
X121618690Y-76940238D01*
X121523452Y-76845000D01*
X121380595Y-76797380D01*
X121285357Y-76797380D01*
X121142500Y-76845000D01*
X121094880Y-76892619D01*
X120332976Y-77273571D02*
X120666309Y-77273571D01*
X120666309Y-77797380D02*
X120666309Y-76797380D01*
X120190119Y-76797380D01*
X120047261Y-77892619D02*
X119285357Y-77892619D01*
X119047261Y-77130714D02*
X119047261Y-78130714D01*
X119047261Y-77178333D02*
X118952023Y-77130714D01*
X118761547Y-77130714D01*
X118666309Y-77178333D01*
X118618690Y-77225952D01*
X118571071Y-77321190D01*
X118571071Y-77606904D01*
X118618690Y-77702142D01*
X118666309Y-77749761D01*
X118761547Y-77797380D01*
X118952023Y-77797380D01*
X119047261Y-77749761D01*
X117999642Y-77797380D02*
X118094880Y-77749761D01*
X118142500Y-77654523D01*
X118142500Y-76797380D01*
X117190119Y-77130714D02*
X117190119Y-77797380D01*
X117618690Y-77130714D02*
X117618690Y-77654523D01*
X117571071Y-77749761D01*
X117475833Y-77797380D01*
X117332976Y-77797380D01*
X117237738Y-77749761D01*
X117190119Y-77702142D01*
X116285357Y-77130714D02*
X116285357Y-77940238D01*
X116332976Y-78035476D01*
X116380595Y-78083095D01*
X116475833Y-78130714D01*
X116618690Y-78130714D01*
X116713928Y-78083095D01*
X116285357Y-77749761D02*
X116380595Y-77797380D01*
X116571071Y-77797380D01*
X116666309Y-77749761D01*
X116713928Y-77702142D01*
X116761547Y-77606904D01*
X116761547Y-77321190D01*
X116713928Y-77225952D01*
X116666309Y-77178333D01*
X116571071Y-77130714D01*
X116380595Y-77130714D01*
X116285357Y-77178333D01*
X116047261Y-77892619D02*
X115285357Y-77892619D01*
X115047261Y-77797380D02*
X115047261Y-77130714D01*
X115047261Y-76797380D02*
X115094880Y-76845000D01*
X115047261Y-76892619D01*
X114999642Y-76845000D01*
X115047261Y-76797380D01*
X115047261Y-76892619D01*
X114571071Y-77130714D02*
X114571071Y-77797380D01*
X114571071Y-77225952D02*
X114523452Y-77178333D01*
X114428214Y-77130714D01*
X114285357Y-77130714D01*
X114190119Y-77178333D01*
X114142500Y-77273571D01*
X114142500Y-77797380D01*
X113904404Y-77892619D02*
X113142500Y-77892619D01*
X112904404Y-77797380D02*
X112904404Y-76797380D01*
X112904404Y-77178333D02*
X112809166Y-77130714D01*
X112618690Y-77130714D01*
X112523452Y-77178333D01*
X112475833Y-77225952D01*
X112428214Y-77321190D01*
X112428214Y-77606904D01*
X112475833Y-77702142D01*
X112523452Y-77749761D01*
X112618690Y-77797380D01*
X112809166Y-77797380D01*
X112904404Y-77749761D01*
X111856785Y-77797380D02*
X111952023Y-77749761D01*
X111999642Y-77702142D01*
X112047261Y-77606904D01*
X112047261Y-77321190D01*
X111999642Y-77225952D01*
X111952023Y-77178333D01*
X111856785Y-77130714D01*
X111713928Y-77130714D01*
X111618690Y-77178333D01*
X111571071Y-77225952D01*
X111523452Y-77321190D01*
X111523452Y-77606904D01*
X111571071Y-77702142D01*
X111618690Y-77749761D01*
X111713928Y-77797380D01*
X111856785Y-77797380D01*
X110666309Y-77797380D02*
X110666309Y-77273571D01*
X110713928Y-77178333D01*
X110809166Y-77130714D01*
X110999642Y-77130714D01*
X111094880Y-77178333D01*
X110666309Y-77749761D02*
X110761547Y-77797380D01*
X110999642Y-77797380D01*
X111094880Y-77749761D01*
X111142500Y-77654523D01*
X111142500Y-77559285D01*
X111094880Y-77464047D01*
X110999642Y-77416428D01*
X110761547Y-77416428D01*
X110666309Y-77368809D01*
X110190119Y-77797380D02*
X110190119Y-77130714D01*
X110190119Y-77321190D02*
X110142500Y-77225952D01*
X110094880Y-77178333D01*
X109999642Y-77130714D01*
X109904404Y-77130714D01*
X109142500Y-77797380D02*
X109142500Y-76797380D01*
X109142500Y-77749761D02*
X109237738Y-77797380D01*
X109428214Y-77797380D01*
X109523452Y-77749761D01*
X109571071Y-77702142D01*
X109618690Y-77606904D01*
X109618690Y-77321190D01*
X109571071Y-77225952D01*
X109523452Y-77178333D01*
X109428214Y-77130714D01*
X109237738Y-77130714D01*
X109142500Y-77178333D01*
X108713928Y-77749761D02*
X108618690Y-77797380D01*
X108428214Y-77797380D01*
X108332976Y-77749761D01*
X108285357Y-77654523D01*
X108285357Y-77606904D01*
X108332976Y-77511666D01*
X108428214Y-77464047D01*
X108571071Y-77464047D01*
X108666309Y-77416428D01*
X108713928Y-77321190D01*
X108713928Y-77273571D01*
X108666309Y-77178333D01*
X108571071Y-77130714D01*
X108428214Y-77130714D01*
X108332976Y-77178333D01*
X94313333Y-78192380D02*
X94313333Y-78906666D01*
X94360952Y-79049523D01*
X94456190Y-79144761D01*
X94599047Y-79192380D01*
X94694285Y-79192380D01*
X93313333Y-79192380D02*
X93884761Y-79192380D01*
X93599047Y-79192380D02*
X93599047Y-78192380D01*
X93694285Y-78335238D01*
X93789523Y-78430476D01*
X93884761Y-78478095D01*
X94313333Y-103802380D02*
X94313333Y-104516666D01*
X94360952Y-104659523D01*
X94456190Y-104754761D01*
X94599047Y-104802380D01*
X94694285Y-104802380D01*
X93932380Y-103802380D02*
X93313333Y-103802380D01*
X93646666Y-104183333D01*
X93503809Y-104183333D01*
X93408571Y-104230952D01*
X93360952Y-104278571D01*
X93313333Y-104373809D01*
X93313333Y-104611904D01*
X93360952Y-104707142D01*
X93408571Y-104754761D01*
X93503809Y-104802380D01*
X93789523Y-104802380D01*
X93884761Y-104754761D01*
X93932380Y-104707142D01*
X147653333Y-78192380D02*
X147653333Y-78906666D01*
X147700952Y-79049523D01*
X147796190Y-79144761D01*
X147939047Y-79192380D01*
X148034285Y-79192380D01*
X147224761Y-78287619D02*
X147177142Y-78240000D01*
X147081904Y-78192380D01*
X146843809Y-78192380D01*
X146748571Y-78240000D01*
X146700952Y-78287619D01*
X146653333Y-78382857D01*
X146653333Y-78478095D01*
X146700952Y-78620952D01*
X147272380Y-79192380D01*
X146653333Y-79192380D01*
X147653333Y-93642380D02*
X147653333Y-94356666D01*
X147700952Y-94499523D01*
X147796190Y-94594761D01*
X147939047Y-94642380D01*
X148034285Y-94642380D01*
X146748571Y-93975714D02*
X146748571Y-94642380D01*
X146986666Y-93594761D02*
X147224761Y-94309047D01*
X146605714Y-94309047D01*
D11*
X95310000Y-69850000D02*
X92650000Y-69850000D01*
X95310000Y-69850000D02*
X95310000Y-77530000D01*
X95310000Y-68580000D02*
X95310000Y-67250000D01*
X92650000Y-69850000D02*
X92650000Y-77530000D01*
X95310000Y-67250000D02*
X93980000Y-67250000D01*
X95310000Y-77530000D02*
X92650000Y-77530000D01*
X92650000Y-107950000D02*
X92650000Y-115630000D01*
X95310000Y-107950000D02*
X92650000Y-107950000D01*
X95310000Y-107950000D02*
X95310000Y-115630000D01*
X95310000Y-105350000D02*
X93980000Y-105350000D01*
X95310000Y-106680000D02*
X95310000Y-105350000D01*
X95310000Y-115630000D02*
X92650000Y-115630000D01*
X148650000Y-68580000D02*
X148650000Y-67250000D01*
X148650000Y-77530000D02*
X145990000Y-77530000D01*
X145990000Y-69850000D02*
X145990000Y-77530000D01*
X148650000Y-67250000D02*
X147320000Y-67250000D01*
X148650000Y-69850000D02*
X145990000Y-69850000D01*
X148650000Y-69850000D02*
X148650000Y-77530000D01*
X148650000Y-96520000D02*
X148650000Y-95190000D01*
X148650000Y-97790000D02*
X148650000Y-115630000D01*
X148650000Y-95190000D02*
X147320000Y-95190000D01*
X148650000Y-97790000D02*
X145990000Y-97790000D01*
X145990000Y-97790000D02*
X145990000Y-115630000D01*
X148650000Y-115630000D02*
X145990000Y-115630000D01*
%LPC*%
D12*
X113284000Y-88138000D03*
X108284000Y-88138000D03*
X113284000Y-70104000D03*
X108284000Y-70104000D03*
D13*
X140549621Y-103505000D03*
D12*
X143049621Y-103505000D03*
D14*
X99060000Y-106680000D03*
X99060000Y-109220000D03*
X99060000Y-111760000D03*
X111760000Y-106680000D03*
X111760000Y-109220000D03*
X111760000Y-111760000D03*
D12*
X126786000Y-70104000D03*
X131786000Y-70104000D03*
D13*
X140502000Y-112014000D03*
D12*
X143002000Y-112014000D03*
X126786000Y-88138000D03*
X131786000Y-88138000D03*
D14*
X105410000Y-106680000D03*
X105410000Y-109220000D03*
X105410000Y-111760000D03*
D15*
X93980000Y-68580000D03*
D16*
X93980000Y-71120000D03*
X93980000Y-73660000D03*
X93980000Y-76200000D03*
D15*
X93980000Y-106680000D03*
D16*
X93980000Y-109220000D03*
X93980000Y-111760000D03*
X93980000Y-114300000D03*
D15*
X147320000Y-68580000D03*
D16*
X147320000Y-71120000D03*
X147320000Y-73660000D03*
X147320000Y-76200000D03*
D15*
X147320000Y-96520000D03*
D16*
X147320000Y-99060000D03*
X147320000Y-101600000D03*
X147320000Y-104140000D03*
X147320000Y-106680000D03*
X147320000Y-109220000D03*
X147320000Y-111760000D03*
X147320000Y-114300000D03*
M02*
