G04 #@! TF.GenerationSoftware,KiCad,Pcbnew,6.0.5+dfsg-1~bpo11+1*
G04 #@! TF.CreationDate,2022-08-08T19:40:30+00:00*
G04 #@! TF.ProjectId,late_MS20_VCF_plug_in_board,6c617465-5f4d-4533-9230-5f5643465f70,0.1*
G04 #@! TF.SameCoordinates,Original*
G04 #@! TF.FileFunction,Copper,L2,Bot*
G04 #@! TF.FilePolarity,Positive*
%FSLAX46Y46*%
G04 Gerber Fmt 4.6, Leading zero omitted, Abs format (unit mm)*
G04 Created by KiCad (PCBNEW 6.0.5+dfsg-1~bpo11+1) date 2022-08-08 19:40:30*
%MOMM*%
%LPD*%
G01*
G04 APERTURE LIST*
G04 #@! TA.AperFunction,ComponentPad*
%ADD10C,1.440000*%
G04 #@! TD*
G04 #@! TA.AperFunction,ComponentPad*
%ADD11C,1.600000*%
G04 #@! TD*
G04 #@! TA.AperFunction,ComponentPad*
%ADD12R,1.700000X1.700000*%
G04 #@! TD*
G04 #@! TA.AperFunction,ComponentPad*
%ADD13O,1.700000X1.700000*%
G04 #@! TD*
G04 #@! TA.AperFunction,ViaPad*
%ADD14C,1.000000*%
G04 #@! TD*
G04 #@! TA.AperFunction,ViaPad*
%ADD15C,0.800000*%
G04 #@! TD*
G04 #@! TA.AperFunction,Conductor*
%ADD16C,0.400000*%
G04 #@! TD*
G04 #@! TA.AperFunction,Conductor*
%ADD17C,0.500000*%
G04 #@! TD*
G04 #@! TA.AperFunction,Conductor*
%ADD18C,0.290000*%
G04 #@! TD*
G04 APERTURE END LIST*
D10*
X137541000Y-118745000D03*
X137541000Y-116205000D03*
X137541000Y-113665000D03*
X130683000Y-118745000D03*
X130683000Y-116205000D03*
X130683000Y-113665000D03*
D11*
X177165000Y-88345000D03*
X177165000Y-93345000D03*
D12*
X127000000Y-100584000D03*
D13*
X127000000Y-98044000D03*
X129540000Y-100584000D03*
X129540000Y-98044000D03*
X132080000Y-100584000D03*
X132080000Y-98044000D03*
X134620000Y-100584000D03*
X134620000Y-98044000D03*
D10*
X144399000Y-118745000D03*
X144399000Y-116205000D03*
X144399000Y-113665000D03*
D12*
X125095000Y-75565000D03*
D13*
X125095000Y-78105000D03*
X125095000Y-80645000D03*
X125095000Y-83185000D03*
D12*
X125095000Y-113665000D03*
D13*
X125095000Y-116205000D03*
X125095000Y-118745000D03*
X125095000Y-121285000D03*
D12*
X178435000Y-75565000D03*
D13*
X178435000Y-78105000D03*
X178435000Y-80645000D03*
X178435000Y-83185000D03*
D12*
X178435000Y-103505000D03*
D13*
X178435000Y-106045000D03*
X178435000Y-108585000D03*
X178435000Y-111125000D03*
X178435000Y-113665000D03*
X178435000Y-116205000D03*
X178435000Y-118745000D03*
X178435000Y-121285000D03*
D14*
X145161000Y-78867000D03*
X165735000Y-96393000D03*
X174625000Y-111125000D03*
X142367000Y-93599000D03*
X153035000Y-117983000D03*
X168783000Y-103759000D03*
X153035000Y-92837000D03*
X170815000Y-83693000D03*
X170815000Y-92837000D03*
X154305000Y-109347000D03*
X153035000Y-83693000D03*
X174625000Y-120269000D03*
X144653000Y-101473000D03*
X149987000Y-108991400D03*
X161163000Y-108839000D03*
X163957000Y-109601000D03*
X171577000Y-121539000D03*
X149987000Y-118287800D03*
X145923000Y-92583000D03*
X165760400Y-80975200D03*
X160655000Y-118237000D03*
X164465000Y-115122500D03*
X162815043Y-93727043D03*
X160655000Y-82423000D03*
X174371000Y-87757000D03*
X164465000Y-113157000D03*
X161297034Y-87569500D03*
X157353000Y-83693000D03*
X160147000Y-83693000D03*
X149015793Y-82886207D03*
X146177000Y-83185000D03*
X178435000Y-95631000D03*
X160655000Y-100203000D03*
X160695500Y-96401520D03*
X147447000Y-84084500D03*
X147447000Y-105029000D03*
X158369000Y-109093000D03*
X155575000Y-108331000D03*
D15*
X166344600Y-115087400D03*
X170865800Y-111836200D03*
D14*
X152527000Y-119761000D03*
X165269500Y-117729000D03*
X171069000Y-104267000D03*
X171069000Y-101727000D03*
X137795000Y-93599000D03*
X137795000Y-102235000D03*
X144653000Y-99187000D03*
X170815000Y-96393000D03*
X171119800Y-81229200D03*
X144145000Y-94869000D03*
X157353000Y-85725000D03*
X157099000Y-93345000D03*
D16*
X162815043Y-93727043D02*
X162815043Y-89087509D01*
X161297280Y-87569254D02*
X161297034Y-87569500D01*
D17*
X178435000Y-113665000D02*
X180467000Y-111633000D01*
X179197000Y-86233000D02*
X175133000Y-86233000D01*
D16*
X162815043Y-89087509D02*
X161297034Y-87569500D01*
D17*
X174371000Y-86995000D02*
X174371000Y-87757000D01*
X175133000Y-86233000D02*
X174371000Y-86995000D01*
D16*
X164465000Y-115122500D02*
X164465000Y-113157000D01*
D17*
X180467000Y-87503000D02*
X179197000Y-86233000D01*
X180467000Y-111633000D02*
X180467000Y-87503000D01*
D16*
X161297280Y-83065280D02*
X161297280Y-87569254D01*
X160655000Y-82423000D02*
X161297280Y-83065280D01*
D17*
X157353000Y-83693000D02*
X160147000Y-83693000D01*
D16*
X148717000Y-83185000D02*
X149015793Y-82886207D01*
X146177000Y-83185000D02*
X148717000Y-83185000D01*
X178435000Y-95631000D02*
X176657000Y-95631000D01*
X175387000Y-90123000D02*
X177165000Y-88345000D01*
X175387000Y-94361000D02*
X175387000Y-90123000D01*
X176657000Y-95631000D02*
X175387000Y-94361000D01*
X160655000Y-96442020D02*
X160695500Y-96401520D01*
X160655000Y-100203000D02*
X160655000Y-96442020D01*
D17*
X147447000Y-105029000D02*
X147447000Y-84084500D01*
D16*
X158369000Y-109093000D02*
X156337000Y-109093000D01*
X156337000Y-109093000D02*
X155575000Y-108331000D01*
D18*
X167614600Y-115087400D02*
X166344600Y-115087400D01*
X170865800Y-111836200D02*
X167614600Y-115087400D01*
D17*
X152527000Y-119761000D02*
X152543000Y-119745000D01*
X163253500Y-119745000D02*
X165269500Y-117729000D01*
X152543000Y-119745000D02*
X163253500Y-119745000D01*
X171069000Y-104267000D02*
X171069000Y-101727000D01*
D16*
X137795000Y-102235000D02*
X137795000Y-93599000D01*
X172339000Y-94869000D02*
X172339000Y-82448400D01*
X172339000Y-82448400D02*
X171119800Y-81229200D01*
X144653000Y-95377000D02*
X144145000Y-94869000D01*
X170815000Y-96393000D02*
X172339000Y-94869000D01*
X144653000Y-99187000D02*
X144653000Y-95377000D01*
X157099000Y-93345000D02*
X157099000Y-85979000D01*
X157099000Y-85979000D02*
X157353000Y-85725000D01*
G04 #@! TA.AperFunction,Conductor*
G36*
X180408621Y-73553502D02*
G01*
X180455114Y-73607158D01*
X180466500Y-73659500D01*
X180466500Y-86125629D01*
X180446498Y-86193750D01*
X180392842Y-86240243D01*
X180322568Y-86250347D01*
X180257988Y-86220853D01*
X180251405Y-86214724D01*
X179780770Y-85744089D01*
X179768384Y-85729677D01*
X179759851Y-85718082D01*
X179759846Y-85718077D01*
X179755508Y-85712182D01*
X179749930Y-85707443D01*
X179749927Y-85707440D01*
X179715232Y-85677965D01*
X179707716Y-85671035D01*
X179702021Y-85665340D01*
X179685736Y-85652456D01*
X179679749Y-85647719D01*
X179676345Y-85644928D01*
X179626297Y-85602409D01*
X179626295Y-85602408D01*
X179620715Y-85597667D01*
X179614199Y-85594339D01*
X179609150Y-85590972D01*
X179604021Y-85587805D01*
X179598284Y-85583266D01*
X179532125Y-85552345D01*
X179528225Y-85550439D01*
X179463192Y-85517231D01*
X179456084Y-85515492D01*
X179450441Y-85513393D01*
X179444678Y-85511476D01*
X179438050Y-85508378D01*
X179366583Y-85493513D01*
X179362299Y-85492543D01*
X179291390Y-85475192D01*
X179285788Y-85474844D01*
X179285785Y-85474844D01*
X179280236Y-85474500D01*
X179280238Y-85474464D01*
X179276245Y-85474225D01*
X179272053Y-85473851D01*
X179264885Y-85472360D01*
X179201120Y-85474085D01*
X179187479Y-85474454D01*
X179184072Y-85474500D01*
X175200070Y-85474500D01*
X175181120Y-85473067D01*
X175166885Y-85470901D01*
X175166881Y-85470901D01*
X175159651Y-85469801D01*
X175152359Y-85470394D01*
X175152356Y-85470394D01*
X175106982Y-85474085D01*
X175096767Y-85474500D01*
X175088707Y-85474500D01*
X175085073Y-85474924D01*
X175085067Y-85474924D01*
X175072042Y-85476443D01*
X175060480Y-85477791D01*
X175056132Y-85478221D01*
X174983364Y-85484140D01*
X174976403Y-85486395D01*
X174970463Y-85487582D01*
X174964588Y-85488971D01*
X174957319Y-85489818D01*
X174888670Y-85514736D01*
X174884542Y-85516153D01*
X174822064Y-85536393D01*
X174822062Y-85536394D01*
X174815101Y-85538649D01*
X174808846Y-85542445D01*
X174803372Y-85544951D01*
X174797942Y-85547670D01*
X174791063Y-85550167D01*
X174784943Y-85554180D01*
X174784942Y-85554180D01*
X174730024Y-85590186D01*
X174726320Y-85592523D01*
X174663893Y-85630405D01*
X174655516Y-85637803D01*
X174655492Y-85637776D01*
X174652500Y-85640429D01*
X174649267Y-85643132D01*
X174643148Y-85647144D01*
X174613951Y-85677965D01*
X174589872Y-85703383D01*
X174587494Y-85705825D01*
X173882089Y-86411230D01*
X173867677Y-86423616D01*
X173856082Y-86432149D01*
X173856077Y-86432154D01*
X173850182Y-86436492D01*
X173845443Y-86442070D01*
X173845440Y-86442073D01*
X173815965Y-86476768D01*
X173809035Y-86484284D01*
X173803340Y-86489979D01*
X173801060Y-86492861D01*
X173785719Y-86512251D01*
X173782928Y-86515655D01*
X173740409Y-86565703D01*
X173735667Y-86571285D01*
X173732339Y-86577801D01*
X173728972Y-86582850D01*
X173725805Y-86587979D01*
X173721266Y-86593716D01*
X173690345Y-86659875D01*
X173688442Y-86663769D01*
X173655231Y-86728808D01*
X173653492Y-86735916D01*
X173651393Y-86741559D01*
X173649476Y-86747322D01*
X173646378Y-86753950D01*
X173644888Y-86761112D01*
X173644888Y-86761113D01*
X173631514Y-86825412D01*
X173630544Y-86829696D01*
X173613192Y-86900610D01*
X173612500Y-86911764D01*
X173612464Y-86911762D01*
X173612225Y-86915755D01*
X173611851Y-86919947D01*
X173610360Y-86927115D01*
X173610558Y-86934432D01*
X173612454Y-87004521D01*
X173612500Y-87007928D01*
X173612500Y-87046071D01*
X173592498Y-87114192D01*
X173583030Y-87127051D01*
X173534846Y-87184474D01*
X173531879Y-87189872D01*
X173531875Y-87189877D01*
X173473303Y-87296421D01*
X173439567Y-87357787D01*
X173437706Y-87363654D01*
X173437705Y-87363656D01*
X173437153Y-87365397D01*
X173379765Y-87546306D01*
X173357719Y-87742851D01*
X173374268Y-87939934D01*
X173375967Y-87945858D01*
X173426843Y-88123283D01*
X173428783Y-88130050D01*
X173431602Y-88135535D01*
X173502483Y-88273453D01*
X173519187Y-88305956D01*
X173642035Y-88460953D01*
X173646728Y-88464947D01*
X173646729Y-88464948D01*
X173780038Y-88578402D01*
X173792650Y-88589136D01*
X173965294Y-88685624D01*
X174153392Y-88746740D01*
X174349777Y-88770158D01*
X174355912Y-88769686D01*
X174355914Y-88769686D01*
X174540830Y-88755457D01*
X174540834Y-88755456D01*
X174546972Y-88754984D01*
X174737463Y-88701798D01*
X174742967Y-88699018D01*
X174742969Y-88699017D01*
X174908495Y-88615404D01*
X174908497Y-88615403D01*
X174913996Y-88612625D01*
X175069847Y-88490861D01*
X175199078Y-88341145D01*
X175296769Y-88169179D01*
X175359197Y-87981513D01*
X175383985Y-87785295D01*
X175384380Y-87757000D01*
X175365080Y-87560167D01*
X175307916Y-87370831D01*
X175268351Y-87296419D01*
X175254032Y-87226883D01*
X175279580Y-87160643D01*
X175290508Y-87148173D01*
X175410276Y-87028405D01*
X175472588Y-86994379D01*
X175499371Y-86991500D01*
X176417077Y-86991500D01*
X176485198Y-87011502D01*
X176531691Y-87065158D01*
X176541795Y-87135432D01*
X176512301Y-87200012D01*
X176489348Y-87220713D01*
X176325211Y-87335643D01*
X176325208Y-87335645D01*
X176320700Y-87338802D01*
X176158802Y-87500700D01*
X176155645Y-87505208D01*
X176155643Y-87505211D01*
X176110628Y-87569500D01*
X176027477Y-87688251D01*
X176025154Y-87693233D01*
X176025151Y-87693238D01*
X175993776Y-87760523D01*
X175930716Y-87895757D01*
X175929294Y-87901065D01*
X175929293Y-87901067D01*
X175872881Y-88111598D01*
X175871457Y-88116913D01*
X175851502Y-88345000D01*
X175871333Y-88571663D01*
X175871444Y-88572935D01*
X175857455Y-88642540D01*
X175835018Y-88673012D01*
X174906480Y-89601550D01*
X174900215Y-89607404D01*
X174856615Y-89645439D01*
X174852248Y-89651653D01*
X174819872Y-89697719D01*
X174815939Y-89703014D01*
X174776524Y-89753282D01*
X174773401Y-89760198D01*
X174772017Y-89762484D01*
X174763643Y-89777165D01*
X174762378Y-89779525D01*
X174758010Y-89785739D01*
X174755250Y-89792818D01*
X174755249Y-89792820D01*
X174734798Y-89845275D01*
X174732247Y-89851344D01*
X174705955Y-89909573D01*
X174704571Y-89917040D01*
X174703770Y-89919595D01*
X174699141Y-89935848D01*
X174698478Y-89938428D01*
X174695718Y-89945509D01*
X174694727Y-89953040D01*
X174694726Y-89953042D01*
X174687379Y-90008852D01*
X174686348Y-90015359D01*
X174674704Y-90078186D01*
X174675141Y-90085766D01*
X174675141Y-90085767D01*
X174678291Y-90140392D01*
X174678500Y-90147646D01*
X174678500Y-94332088D01*
X174678208Y-94340658D01*
X174677490Y-94351198D01*
X174674275Y-94398352D01*
X174675580Y-94405829D01*
X174675580Y-94405830D01*
X174685261Y-94461299D01*
X174686223Y-94467821D01*
X174693898Y-94531242D01*
X174696581Y-94538343D01*
X174697222Y-94540952D01*
X174701685Y-94557262D01*
X174702450Y-94559798D01*
X174703757Y-94567284D01*
X174706811Y-94574241D01*
X174729442Y-94625795D01*
X174731933Y-94631899D01*
X174754513Y-94691656D01*
X174758817Y-94697919D01*
X174760054Y-94700285D01*
X174768299Y-94715097D01*
X174769632Y-94717351D01*
X174772685Y-94724305D01*
X174784324Y-94739472D01*
X174811579Y-94774991D01*
X174815459Y-94780332D01*
X174847339Y-94826720D01*
X174847344Y-94826725D01*
X174851643Y-94832981D01*
X174857313Y-94838032D01*
X174857314Y-94838034D01*
X174898170Y-94874435D01*
X174903446Y-94879416D01*
X176135557Y-96111528D01*
X176141411Y-96117793D01*
X176179439Y-96161385D01*
X176231729Y-96198136D01*
X176236971Y-96202028D01*
X176287282Y-96241476D01*
X176294201Y-96244600D01*
X176296493Y-96245988D01*
X176311165Y-96254357D01*
X176313525Y-96255622D01*
X176319739Y-96259990D01*
X176326818Y-96262750D01*
X176326820Y-96262751D01*
X176379275Y-96283202D01*
X176385344Y-96285753D01*
X176443573Y-96312045D01*
X176451046Y-96313430D01*
X176453612Y-96314234D01*
X176469835Y-96318855D01*
X176472427Y-96319520D01*
X176479509Y-96322282D01*
X176487044Y-96323274D01*
X176542861Y-96330622D01*
X176549377Y-96331654D01*
X176587770Y-96338770D01*
X176612186Y-96343295D01*
X176619766Y-96342858D01*
X176619767Y-96342858D01*
X176674380Y-96339709D01*
X176681633Y-96339500D01*
X177665019Y-96339500D01*
X177733140Y-96359502D01*
X177746682Y-96369546D01*
X177764835Y-96384995D01*
X177856650Y-96463136D01*
X178029294Y-96559624D01*
X178217392Y-96620740D01*
X178413777Y-96644158D01*
X178419912Y-96643686D01*
X178419914Y-96643686D01*
X178604830Y-96629457D01*
X178604834Y-96629456D01*
X178610972Y-96628984D01*
X178801463Y-96575798D01*
X178806967Y-96573018D01*
X178806969Y-96573017D01*
X178972495Y-96489404D01*
X178972497Y-96489403D01*
X178977996Y-96486625D01*
X179123780Y-96372726D01*
X179128991Y-96368655D01*
X179133847Y-96364861D01*
X179263078Y-96215145D01*
X179360769Y-96043179D01*
X179423197Y-95855513D01*
X179447985Y-95659295D01*
X179448380Y-95631000D01*
X179429080Y-95434167D01*
X179422532Y-95412477D01*
X179402630Y-95346561D01*
X179371916Y-95244831D01*
X179279066Y-95070204D01*
X179187284Y-94957668D01*
X179157960Y-94921713D01*
X179157957Y-94921710D01*
X179154065Y-94916938D01*
X179147232Y-94911285D01*
X179006425Y-94794799D01*
X179006421Y-94794797D01*
X179001675Y-94790870D01*
X178827701Y-94696802D01*
X178638768Y-94638318D01*
X178632643Y-94637674D01*
X178632642Y-94637674D01*
X178448204Y-94618289D01*
X178448202Y-94618289D01*
X178442075Y-94617645D01*
X178359576Y-94625153D01*
X178251251Y-94635011D01*
X178251248Y-94635012D01*
X178245112Y-94635570D01*
X178239206Y-94637308D01*
X178239202Y-94637309D01*
X178140821Y-94666264D01*
X178055381Y-94691410D01*
X178049923Y-94694263D01*
X178049919Y-94694265D01*
X177992459Y-94724305D01*
X177880110Y-94783040D01*
X177741236Y-94894698D01*
X177675616Y-94921793D01*
X177662286Y-94922500D01*
X177002660Y-94922500D01*
X176934539Y-94902498D01*
X176913565Y-94885595D01*
X176885376Y-94857406D01*
X176851350Y-94795094D01*
X176856415Y-94724279D01*
X176898962Y-94667443D01*
X176965482Y-94642632D01*
X176985452Y-94642790D01*
X177159524Y-94658019D01*
X177159525Y-94658019D01*
X177165000Y-94658498D01*
X177393087Y-94638543D01*
X177398400Y-94637119D01*
X177398402Y-94637119D01*
X177608933Y-94580707D01*
X177608935Y-94580706D01*
X177614243Y-94579284D01*
X177625058Y-94574241D01*
X177816762Y-94484849D01*
X177816767Y-94484846D01*
X177821749Y-94482523D01*
X177984536Y-94368538D01*
X178004789Y-94354357D01*
X178004792Y-94354355D01*
X178009300Y-94351198D01*
X178171198Y-94189300D01*
X178177612Y-94180141D01*
X178280781Y-94032799D01*
X178302523Y-94001749D01*
X178304846Y-93996767D01*
X178304849Y-93996762D01*
X178396961Y-93799225D01*
X178396961Y-93799224D01*
X178399284Y-93794243D01*
X178409216Y-93757179D01*
X178457119Y-93578402D01*
X178457119Y-93578400D01*
X178458543Y-93573087D01*
X178478498Y-93345000D01*
X178458543Y-93116913D01*
X178430694Y-93012981D01*
X178400707Y-92901067D01*
X178400706Y-92901065D01*
X178399284Y-92895757D01*
X178387788Y-92871104D01*
X178304849Y-92693238D01*
X178304846Y-92693233D01*
X178302523Y-92688251D01*
X178171198Y-92500700D01*
X178009300Y-92338802D01*
X178004792Y-92335645D01*
X178004789Y-92335643D01*
X177896491Y-92259812D01*
X177821749Y-92207477D01*
X177816767Y-92205154D01*
X177816762Y-92205151D01*
X177619225Y-92113039D01*
X177619224Y-92113039D01*
X177614243Y-92110716D01*
X177608935Y-92109294D01*
X177608933Y-92109293D01*
X177398402Y-92052881D01*
X177398400Y-92052881D01*
X177393087Y-92051457D01*
X177165000Y-92031502D01*
X176936913Y-92051457D01*
X176931600Y-92052881D01*
X176931598Y-92052881D01*
X176721067Y-92109293D01*
X176721065Y-92109294D01*
X176715757Y-92110716D01*
X176710776Y-92113039D01*
X176710775Y-92113039D01*
X176513238Y-92205151D01*
X176513233Y-92205154D01*
X176508251Y-92207477D01*
X176433509Y-92259812D01*
X176325211Y-92335643D01*
X176325208Y-92335645D01*
X176320700Y-92338802D01*
X176310595Y-92348907D01*
X176248283Y-92382933D01*
X176177468Y-92377868D01*
X176120632Y-92335321D01*
X176095821Y-92268801D01*
X176095500Y-92259812D01*
X176095500Y-90468660D01*
X176115502Y-90400539D01*
X176132405Y-90379565D01*
X176836988Y-89674982D01*
X176899300Y-89640956D01*
X176937063Y-89638556D01*
X177165000Y-89658498D01*
X177393087Y-89638543D01*
X177398400Y-89637119D01*
X177398402Y-89637119D01*
X177608933Y-89580707D01*
X177608935Y-89580706D01*
X177614243Y-89579284D01*
X177619225Y-89576961D01*
X177816762Y-89484849D01*
X177816767Y-89484846D01*
X177821749Y-89482523D01*
X177930484Y-89406386D01*
X178004789Y-89354357D01*
X178004792Y-89354355D01*
X178009300Y-89351198D01*
X178171198Y-89189300D01*
X178302523Y-89001749D01*
X178304846Y-88996767D01*
X178304849Y-88996762D01*
X178396961Y-88799225D01*
X178396961Y-88799224D01*
X178399284Y-88794243D01*
X178409804Y-88754984D01*
X178457119Y-88578402D01*
X178457119Y-88578400D01*
X178458543Y-88573087D01*
X178478498Y-88345000D01*
X178458543Y-88116913D01*
X178457119Y-88111598D01*
X178400707Y-87901067D01*
X178400706Y-87901065D01*
X178399284Y-87895757D01*
X178336224Y-87760523D01*
X178304849Y-87693238D01*
X178304846Y-87693233D01*
X178302523Y-87688251D01*
X178219372Y-87569500D01*
X178174357Y-87505211D01*
X178174355Y-87505208D01*
X178171198Y-87500700D01*
X178009300Y-87338802D01*
X178004792Y-87335645D01*
X178004789Y-87335643D01*
X177840652Y-87220713D01*
X177796324Y-87165256D01*
X177789015Y-87094636D01*
X177821046Y-87031276D01*
X177882247Y-86995291D01*
X177912923Y-86991500D01*
X178830629Y-86991500D01*
X178898750Y-87011502D01*
X178919724Y-87028405D01*
X179671595Y-87780276D01*
X179705621Y-87842588D01*
X179708500Y-87869371D01*
X179708500Y-102090573D01*
X179688498Y-102158694D01*
X179634842Y-102205187D01*
X179564568Y-102215291D01*
X179531654Y-102204316D01*
X179531462Y-102204828D01*
X179402606Y-102156522D01*
X179387351Y-102152895D01*
X179336486Y-102147369D01*
X179329672Y-102147000D01*
X178707115Y-102147000D01*
X178691876Y-102151475D01*
X178690671Y-102152865D01*
X178689000Y-102160548D01*
X178689000Y-106173000D01*
X178668998Y-106241121D01*
X178615342Y-106287614D01*
X178563000Y-106299000D01*
X177118225Y-106299000D01*
X177104694Y-106302973D01*
X177103257Y-106312966D01*
X177133565Y-106447446D01*
X177136645Y-106457275D01*
X177216770Y-106654603D01*
X177221413Y-106663794D01*
X177332694Y-106845388D01*
X177338777Y-106853699D01*
X177478213Y-107014667D01*
X177485580Y-107021883D01*
X177649434Y-107157916D01*
X177657881Y-107163831D01*
X177726969Y-107204203D01*
X177775693Y-107255842D01*
X177788764Y-107325625D01*
X177762033Y-107391396D01*
X177721584Y-107424752D01*
X177708607Y-107431507D01*
X177704474Y-107434610D01*
X177704471Y-107434612D01*
X177534100Y-107562530D01*
X177529965Y-107565635D01*
X177375629Y-107727138D01*
X177372715Y-107731410D01*
X177372714Y-107731411D01*
X177356733Y-107754838D01*
X177249743Y-107911680D01*
X177234355Y-107944831D01*
X177161335Y-108102140D01*
X177155688Y-108114305D01*
X177095989Y-108329570D01*
X177072251Y-108551695D01*
X177072548Y-108556848D01*
X177072548Y-108556851D01*
X177081196Y-108706831D01*
X177085110Y-108774715D01*
X177086247Y-108779761D01*
X177086248Y-108779767D01*
X177107593Y-108874477D01*
X177134222Y-108992639D01*
X177218266Y-109199616D01*
X177220965Y-109204020D01*
X177323479Y-109371308D01*
X177334987Y-109390088D01*
X177481250Y-109558938D01*
X177653126Y-109701632D01*
X177663962Y-109707964D01*
X177726445Y-109744476D01*
X177775169Y-109796114D01*
X177788240Y-109865897D01*
X177761509Y-109931669D01*
X177721055Y-109965027D01*
X177708607Y-109971507D01*
X177704474Y-109974610D01*
X177704471Y-109974612D01*
X177549478Y-110090984D01*
X177529965Y-110105635D01*
X177375629Y-110267138D01*
X177249743Y-110451680D01*
X177155688Y-110654305D01*
X177095989Y-110869570D01*
X177072251Y-111091695D01*
X177072548Y-111096848D01*
X177072548Y-111096851D01*
X177076319Y-111162245D01*
X177085110Y-111314715D01*
X177086247Y-111319761D01*
X177086248Y-111319767D01*
X177110304Y-111426508D01*
X177134222Y-111532639D01*
X177218266Y-111739616D01*
X177220965Y-111744020D01*
X177283179Y-111845544D01*
X177334987Y-111930088D01*
X177481250Y-112098938D01*
X177653126Y-112241632D01*
X177723595Y-112282811D01*
X177726445Y-112284476D01*
X177775169Y-112336114D01*
X177788240Y-112405897D01*
X177761509Y-112471669D01*
X177721055Y-112505027D01*
X177713477Y-112508972D01*
X177708607Y-112511507D01*
X177704474Y-112514610D01*
X177704471Y-112514612D01*
X177534100Y-112642530D01*
X177529965Y-112645635D01*
X177526393Y-112649373D01*
X177427946Y-112752392D01*
X177375629Y-112807138D01*
X177372715Y-112811410D01*
X177372714Y-112811411D01*
X177328088Y-112876831D01*
X177249743Y-112991680D01*
X177223413Y-113048404D01*
X177158244Y-113188799D01*
X177155688Y-113194305D01*
X177095989Y-113409570D01*
X177072251Y-113631695D01*
X177072548Y-113636848D01*
X177072548Y-113636851D01*
X177084504Y-113844207D01*
X177085110Y-113854715D01*
X177086247Y-113859761D01*
X177086248Y-113859767D01*
X177100606Y-113923475D01*
X177134222Y-114072639D01*
X177218266Y-114279616D01*
X177220965Y-114284020D01*
X177312244Y-114432974D01*
X177334987Y-114470088D01*
X177481250Y-114638938D01*
X177653126Y-114781632D01*
X177719691Y-114820529D01*
X177726445Y-114824476D01*
X177775169Y-114876114D01*
X177788240Y-114945897D01*
X177761509Y-115011669D01*
X177721055Y-115045027D01*
X177708607Y-115051507D01*
X177704474Y-115054610D01*
X177704471Y-115054612D01*
X177580845Y-115147433D01*
X177529965Y-115185635D01*
X177375629Y-115347138D01*
X177372715Y-115351410D01*
X177372714Y-115351411D01*
X177328088Y-115416831D01*
X177249743Y-115531680D01*
X177221101Y-115593385D01*
X177158011Y-115729301D01*
X177155688Y-115734305D01*
X177095989Y-115949570D01*
X177072251Y-116171695D01*
X177072548Y-116176848D01*
X177072548Y-116176851D01*
X177078011Y-116271590D01*
X177085110Y-116394715D01*
X177086247Y-116399761D01*
X177086248Y-116399767D01*
X177099597Y-116459000D01*
X177134222Y-116612639D01*
X177218266Y-116819616D01*
X177220965Y-116824020D01*
X177329482Y-117001104D01*
X177334987Y-117010088D01*
X177481250Y-117178938D01*
X177653126Y-117321632D01*
X177680096Y-117337392D01*
X177726445Y-117364476D01*
X177775169Y-117416114D01*
X177788240Y-117485897D01*
X177761509Y-117551669D01*
X177721055Y-117585027D01*
X177708607Y-117591507D01*
X177704474Y-117594610D01*
X177704471Y-117594612D01*
X177534100Y-117722530D01*
X177529965Y-117725635D01*
X177375629Y-117887138D01*
X177372715Y-117891410D01*
X177372714Y-117891411D01*
X177330351Y-117953513D01*
X177249743Y-118071680D01*
X177155688Y-118274305D01*
X177095989Y-118489570D01*
X177072251Y-118711695D01*
X177072548Y-118716848D01*
X177072548Y-118716851D01*
X177078783Y-118824980D01*
X177085110Y-118934715D01*
X177086247Y-118939761D01*
X177086248Y-118939767D01*
X177096780Y-118986500D01*
X177134222Y-119152639D01*
X177218266Y-119359616D01*
X177334987Y-119550088D01*
X177481250Y-119718938D01*
X177653126Y-119861632D01*
X177720544Y-119901028D01*
X177726445Y-119904476D01*
X177775169Y-119956114D01*
X177788240Y-120025897D01*
X177761509Y-120091669D01*
X177721055Y-120125027D01*
X177715108Y-120128123D01*
X177708607Y-120131507D01*
X177704474Y-120134610D01*
X177704471Y-120134612D01*
X177680247Y-120152800D01*
X177529965Y-120265635D01*
X177375629Y-120427138D01*
X177372715Y-120431410D01*
X177372714Y-120431411D01*
X177333988Y-120488182D01*
X177249743Y-120611680D01*
X177234003Y-120645590D01*
X177174324Y-120774158D01*
X177155688Y-120814305D01*
X177095989Y-121029570D01*
X177072251Y-121251695D01*
X177072548Y-121256848D01*
X177072548Y-121256851D01*
X177078011Y-121351590D01*
X177085110Y-121474715D01*
X177086247Y-121479761D01*
X177086248Y-121479767D01*
X177106119Y-121567939D01*
X177134222Y-121692639D01*
X177218266Y-121899616D01*
X177334987Y-122090088D01*
X177481250Y-122258938D01*
X177653126Y-122401632D01*
X177846000Y-122514338D01*
X178054692Y-122594030D01*
X178059760Y-122595061D01*
X178059763Y-122595062D01*
X178167017Y-122616883D01*
X178273597Y-122638567D01*
X178278772Y-122638757D01*
X178278774Y-122638757D01*
X178491673Y-122646564D01*
X178491677Y-122646564D01*
X178496837Y-122646753D01*
X178501957Y-122646097D01*
X178501959Y-122646097D01*
X178713288Y-122619025D01*
X178713289Y-122619025D01*
X178718416Y-122618368D01*
X178723366Y-122616883D01*
X178927429Y-122555661D01*
X178927434Y-122555659D01*
X178932384Y-122554174D01*
X179132994Y-122455896D01*
X179314860Y-122326173D01*
X179473096Y-122168489D01*
X179532594Y-122085689D01*
X179600435Y-121991277D01*
X179603453Y-121987077D01*
X179702430Y-121786811D01*
X179767370Y-121573069D01*
X179796529Y-121351590D01*
X179798156Y-121285000D01*
X179779852Y-121062361D01*
X179725431Y-120845702D01*
X179636354Y-120640840D01*
X179541653Y-120494454D01*
X179517822Y-120457617D01*
X179517820Y-120457614D01*
X179515014Y-120453277D01*
X179364670Y-120288051D01*
X179360619Y-120284852D01*
X179360615Y-120284848D01*
X179193414Y-120152800D01*
X179193410Y-120152798D01*
X179189359Y-120149598D01*
X179148053Y-120126796D01*
X179098084Y-120076364D01*
X179083312Y-120006921D01*
X179108428Y-119940516D01*
X179135780Y-119913909D01*
X179179603Y-119882650D01*
X179314860Y-119786173D01*
X179473096Y-119628489D01*
X179532594Y-119545689D01*
X179600435Y-119451277D01*
X179603453Y-119447077D01*
X179625773Y-119401917D01*
X179700136Y-119251453D01*
X179700137Y-119251451D01*
X179702430Y-119246811D01*
X179767370Y-119033069D01*
X179796529Y-118811590D01*
X179797611Y-118767309D01*
X179798074Y-118748365D01*
X179798074Y-118748361D01*
X179798156Y-118745000D01*
X179779852Y-118522361D01*
X179725431Y-118305702D01*
X179636354Y-118100840D01*
X179544830Y-117959365D01*
X179517822Y-117917617D01*
X179517820Y-117917614D01*
X179515014Y-117913277D01*
X179364670Y-117748051D01*
X179360619Y-117744852D01*
X179360615Y-117744848D01*
X179193414Y-117612800D01*
X179193410Y-117612798D01*
X179189359Y-117609598D01*
X179148053Y-117586796D01*
X179098084Y-117536364D01*
X179083312Y-117466921D01*
X179108428Y-117400516D01*
X179135780Y-117373909D01*
X179205200Y-117324392D01*
X179314860Y-117246173D01*
X179473096Y-117088489D01*
X179525948Y-117014938D01*
X179600435Y-116911277D01*
X179603453Y-116907077D01*
X179612452Y-116888870D01*
X179700136Y-116711453D01*
X179700137Y-116711451D01*
X179702430Y-116706811D01*
X179767370Y-116493069D01*
X179796529Y-116271590D01*
X179798156Y-116205000D01*
X179779852Y-115982361D01*
X179725431Y-115765702D01*
X179636354Y-115560840D01*
X179570442Y-115458956D01*
X179517822Y-115377617D01*
X179517820Y-115377614D01*
X179515014Y-115373277D01*
X179364670Y-115208051D01*
X179360619Y-115204852D01*
X179360615Y-115204848D01*
X179193414Y-115072800D01*
X179193410Y-115072798D01*
X179189359Y-115069598D01*
X179148053Y-115046796D01*
X179098084Y-114996364D01*
X179083312Y-114926921D01*
X179108428Y-114860516D01*
X179135780Y-114833909D01*
X179179603Y-114802650D01*
X179314860Y-114706173D01*
X179473096Y-114548489D01*
X179532594Y-114465689D01*
X179600435Y-114371277D01*
X179603453Y-114367077D01*
X179625773Y-114321917D01*
X179700136Y-114171453D01*
X179700137Y-114171451D01*
X179702430Y-114166811D01*
X179767370Y-113953069D01*
X179796529Y-113731590D01*
X179796611Y-113728240D01*
X179798074Y-113668365D01*
X179798074Y-113668361D01*
X179798156Y-113665000D01*
X179780870Y-113454747D01*
X179795223Y-113385219D01*
X179817351Y-113355330D01*
X180251405Y-112921276D01*
X180313717Y-112887250D01*
X180384532Y-112892315D01*
X180441368Y-112934862D01*
X180466179Y-113001382D01*
X180466500Y-113010371D01*
X180466500Y-123190500D01*
X180446498Y-123258621D01*
X180392842Y-123305114D01*
X180340500Y-123316500D01*
X123189500Y-123316500D01*
X123121379Y-123296498D01*
X123074886Y-123242842D01*
X123063500Y-123190500D01*
X123063500Y-121251695D01*
X123732251Y-121251695D01*
X123732548Y-121256848D01*
X123732548Y-121256851D01*
X123738011Y-121351590D01*
X123745110Y-121474715D01*
X123746247Y-121479761D01*
X123746248Y-121479767D01*
X123766119Y-121567939D01*
X123794222Y-121692639D01*
X123878266Y-121899616D01*
X123994987Y-122090088D01*
X124141250Y-122258938D01*
X124313126Y-122401632D01*
X124506000Y-122514338D01*
X124714692Y-122594030D01*
X124719760Y-122595061D01*
X124719763Y-122595062D01*
X124827017Y-122616883D01*
X124933597Y-122638567D01*
X124938772Y-122638757D01*
X124938774Y-122638757D01*
X125151673Y-122646564D01*
X125151677Y-122646564D01*
X125156837Y-122646753D01*
X125161957Y-122646097D01*
X125161959Y-122646097D01*
X125373288Y-122619025D01*
X125373289Y-122619025D01*
X125378416Y-122618368D01*
X125383366Y-122616883D01*
X125587429Y-122555661D01*
X125587434Y-122555659D01*
X125592384Y-122554174D01*
X125792994Y-122455896D01*
X125974860Y-122326173D01*
X126133096Y-122168489D01*
X126192594Y-122085689D01*
X126260435Y-121991277D01*
X126263453Y-121987077D01*
X126362430Y-121786811D01*
X126427370Y-121573069D01*
X126456529Y-121351590D01*
X126458156Y-121285000D01*
X126439852Y-121062361D01*
X126385431Y-120845702D01*
X126296354Y-120640840D01*
X126201653Y-120494454D01*
X126177822Y-120457617D01*
X126177820Y-120457614D01*
X126175014Y-120453277D01*
X126024670Y-120288051D01*
X126020619Y-120284852D01*
X126020615Y-120284848D01*
X125853414Y-120152800D01*
X125853410Y-120152798D01*
X125849359Y-120149598D01*
X125808053Y-120126796D01*
X125758084Y-120076364D01*
X125743312Y-120006921D01*
X125768428Y-119940516D01*
X125795780Y-119913909D01*
X125839603Y-119882650D01*
X125974860Y-119786173D01*
X125987456Y-119773621D01*
X130018933Y-119773621D01*
X130028227Y-119785635D01*
X130062146Y-119809385D01*
X130071641Y-119814868D01*
X130256413Y-119901028D01*
X130266705Y-119904774D01*
X130463632Y-119957540D01*
X130474425Y-119959443D01*
X130677525Y-119977212D01*
X130688475Y-119977212D01*
X130891575Y-119959443D01*
X130902368Y-119957540D01*
X131099295Y-119904774D01*
X131109587Y-119901028D01*
X131294359Y-119814868D01*
X131303854Y-119809385D01*
X131338607Y-119785051D01*
X131346983Y-119774572D01*
X131339916Y-119761127D01*
X130695811Y-119117021D01*
X130681868Y-119109408D01*
X130680034Y-119109539D01*
X130673420Y-119113790D01*
X130025360Y-119761851D01*
X130018933Y-119773621D01*
X125987456Y-119773621D01*
X126133096Y-119628489D01*
X126192594Y-119545689D01*
X126260435Y-119451277D01*
X126263453Y-119447077D01*
X126285773Y-119401917D01*
X126360136Y-119251453D01*
X126360137Y-119251451D01*
X126362430Y-119246811D01*
X126427370Y-119033069D01*
X126456529Y-118811590D01*
X126457611Y-118767309D01*
X126458022Y-118750475D01*
X129450788Y-118750475D01*
X129468557Y-118953575D01*
X129470460Y-118964368D01*
X129523226Y-119161295D01*
X129526972Y-119171587D01*
X129613135Y-119356364D01*
X129618613Y-119365850D01*
X129642949Y-119400607D01*
X129653428Y-119408983D01*
X129666872Y-119401917D01*
X130310979Y-118757811D01*
X130317356Y-118746132D01*
X131047408Y-118746132D01*
X131047539Y-118747966D01*
X131051790Y-118754580D01*
X131699851Y-119402640D01*
X131711621Y-119409067D01*
X131723635Y-119399772D01*
X131747387Y-119365850D01*
X131752865Y-119356364D01*
X131839028Y-119171587D01*
X131842774Y-119161295D01*
X131895540Y-118964368D01*
X131897443Y-118953575D01*
X131915212Y-118750475D01*
X131915212Y-118745000D01*
X136307807Y-118745000D01*
X136326542Y-118959142D01*
X136327966Y-118964455D01*
X136327966Y-118964457D01*
X136347396Y-119036968D01*
X136382178Y-119166777D01*
X136384500Y-119171757D01*
X136384501Y-119171759D01*
X136419499Y-119246811D01*
X136473024Y-119361596D01*
X136596319Y-119537681D01*
X136748319Y-119689681D01*
X136924403Y-119812976D01*
X136929381Y-119815297D01*
X136929384Y-119815299D01*
X137028746Y-119861632D01*
X137119223Y-119903822D01*
X137124531Y-119905244D01*
X137124533Y-119905245D01*
X137321543Y-119958034D01*
X137321545Y-119958034D01*
X137326858Y-119959458D01*
X137541000Y-119978193D01*
X137755142Y-119959458D01*
X137760455Y-119958034D01*
X137760457Y-119958034D01*
X137957467Y-119905245D01*
X137957469Y-119905244D01*
X137962777Y-119903822D01*
X138053254Y-119861632D01*
X138152616Y-119815299D01*
X138152619Y-119815297D01*
X138157597Y-119812976D01*
X138333681Y-119689681D01*
X138485681Y-119537681D01*
X138608976Y-119361596D01*
X138662502Y-119246811D01*
X138697499Y-119171759D01*
X138697500Y-119171757D01*
X138699822Y-119166777D01*
X138734605Y-119036968D01*
X138754034Y-118964457D01*
X138754034Y-118964455D01*
X138755458Y-118959142D01*
X138774193Y-118745000D01*
X143165807Y-118745000D01*
X143184542Y-118959142D01*
X143185966Y-118964455D01*
X143185966Y-118964457D01*
X143205396Y-119036968D01*
X143240178Y-119166777D01*
X143242500Y-119171757D01*
X143242501Y-119171759D01*
X143277499Y-119246811D01*
X143331024Y-119361596D01*
X143454319Y-119537681D01*
X143606319Y-119689681D01*
X143782403Y-119812976D01*
X143787381Y-119815297D01*
X143787384Y-119815299D01*
X143886746Y-119861632D01*
X143977223Y-119903822D01*
X143982531Y-119905244D01*
X143982533Y-119905245D01*
X144179543Y-119958034D01*
X144179545Y-119958034D01*
X144184858Y-119959458D01*
X144399000Y-119978193D01*
X144613142Y-119959458D01*
X144618455Y-119958034D01*
X144618457Y-119958034D01*
X144815467Y-119905245D01*
X144815469Y-119905244D01*
X144820777Y-119903822D01*
X144911254Y-119861632D01*
X145010616Y-119815299D01*
X145010619Y-119815297D01*
X145015597Y-119812976D01*
X145110034Y-119746851D01*
X151513719Y-119746851D01*
X151514235Y-119752995D01*
X151527914Y-119915896D01*
X151530268Y-119943934D01*
X151539954Y-119977714D01*
X151582196Y-120125027D01*
X151584783Y-120134050D01*
X151675187Y-120309956D01*
X151798035Y-120464953D01*
X151802728Y-120468947D01*
X151802729Y-120468948D01*
X151847557Y-120507099D01*
X151948650Y-120593136D01*
X152121294Y-120689624D01*
X152309392Y-120750740D01*
X152505777Y-120774158D01*
X152511912Y-120773686D01*
X152511914Y-120773686D01*
X152696830Y-120759457D01*
X152696834Y-120759456D01*
X152702972Y-120758984D01*
X152893463Y-120705798D01*
X152898967Y-120703018D01*
X152898969Y-120703017D01*
X153064493Y-120619405D01*
X153064495Y-120619404D01*
X153069996Y-120616625D01*
X153180602Y-120530210D01*
X153246597Y-120504033D01*
X153258176Y-120503500D01*
X163186430Y-120503500D01*
X163205380Y-120504933D01*
X163219615Y-120507099D01*
X163219619Y-120507099D01*
X163226849Y-120508199D01*
X163234141Y-120507606D01*
X163234144Y-120507606D01*
X163279518Y-120503915D01*
X163289733Y-120503500D01*
X163297793Y-120503500D01*
X163311083Y-120501951D01*
X163326007Y-120500211D01*
X163330382Y-120499778D01*
X163395839Y-120494454D01*
X163395842Y-120494453D01*
X163403137Y-120493860D01*
X163410101Y-120491604D01*
X163416060Y-120490413D01*
X163421915Y-120489029D01*
X163429181Y-120488182D01*
X163497827Y-120463265D01*
X163501955Y-120461848D01*
X163564436Y-120441607D01*
X163564438Y-120441606D01*
X163571399Y-120439351D01*
X163577654Y-120435555D01*
X163583128Y-120433049D01*
X163588558Y-120430330D01*
X163595437Y-120427833D01*
X163656476Y-120387814D01*
X163660180Y-120385477D01*
X163722607Y-120347595D01*
X163730984Y-120340197D01*
X163731008Y-120340224D01*
X163734000Y-120337571D01*
X163737233Y-120334868D01*
X163743352Y-120330856D01*
X163796628Y-120274617D01*
X163799006Y-120272175D01*
X165302796Y-118768385D01*
X165365108Y-118734359D01*
X165382223Y-118731851D01*
X165389013Y-118731329D01*
X165439330Y-118727457D01*
X165439334Y-118727456D01*
X165445472Y-118726984D01*
X165635963Y-118673798D01*
X165641467Y-118671018D01*
X165641469Y-118671017D01*
X165806995Y-118587404D01*
X165806997Y-118587403D01*
X165812496Y-118584625D01*
X165968347Y-118462861D01*
X166084147Y-118328705D01*
X166093549Y-118317813D01*
X166093550Y-118317811D01*
X166097578Y-118313145D01*
X166195269Y-118141179D01*
X166257697Y-117953513D01*
X166282485Y-117757295D01*
X166282880Y-117729000D01*
X166263580Y-117532167D01*
X166246706Y-117476276D01*
X166239662Y-117452947D01*
X166206416Y-117342831D01*
X166113566Y-117168204D01*
X166043209Y-117081938D01*
X165992460Y-117019713D01*
X165992457Y-117019710D01*
X165988565Y-117014938D01*
X165983816Y-117011009D01*
X165840925Y-116892799D01*
X165840921Y-116892797D01*
X165836175Y-116888870D01*
X165662201Y-116794802D01*
X165473268Y-116736318D01*
X165467143Y-116735674D01*
X165467142Y-116735674D01*
X165282704Y-116716289D01*
X165282702Y-116716289D01*
X165276575Y-116715645D01*
X165194076Y-116723153D01*
X165085751Y-116733011D01*
X165085748Y-116733012D01*
X165079612Y-116733570D01*
X165073706Y-116735308D01*
X165073702Y-116735309D01*
X164968576Y-116766249D01*
X164889881Y-116789410D01*
X164884423Y-116792263D01*
X164884419Y-116792265D01*
X164819698Y-116826101D01*
X164714610Y-116881040D01*
X164560475Y-117004968D01*
X164433346Y-117156474D01*
X164430379Y-117161872D01*
X164430375Y-117161877D01*
X164371033Y-117269821D01*
X164338067Y-117329787D01*
X164336206Y-117335654D01*
X164336205Y-117335656D01*
X164292232Y-117474277D01*
X164278265Y-117518306D01*
X164274523Y-117551669D01*
X164266854Y-117620035D01*
X164239383Y-117685502D01*
X164230734Y-117695085D01*
X162976224Y-118949595D01*
X162913912Y-118983621D01*
X162887129Y-118986500D01*
X153218371Y-118986500D01*
X153150250Y-118966498D01*
X153138056Y-118957585D01*
X153098425Y-118924799D01*
X153098421Y-118924797D01*
X153093675Y-118920870D01*
X152919701Y-118826802D01*
X152730768Y-118768318D01*
X152724643Y-118767674D01*
X152724642Y-118767674D01*
X152540204Y-118748289D01*
X152540202Y-118748289D01*
X152534075Y-118747645D01*
X152457872Y-118754580D01*
X152343251Y-118765011D01*
X152343248Y-118765012D01*
X152337112Y-118765570D01*
X152331206Y-118767308D01*
X152331202Y-118767309D01*
X152226076Y-118798249D01*
X152147381Y-118821410D01*
X152141923Y-118824263D01*
X152141919Y-118824265D01*
X152051147Y-118871720D01*
X151972110Y-118913040D01*
X151817975Y-119036968D01*
X151690846Y-119188474D01*
X151687879Y-119193872D01*
X151687875Y-119193877D01*
X151658775Y-119246811D01*
X151595567Y-119361787D01*
X151593706Y-119367654D01*
X151593705Y-119367656D01*
X151580595Y-119408983D01*
X151535765Y-119550306D01*
X151513719Y-119746851D01*
X145110034Y-119746851D01*
X145191681Y-119689681D01*
X145343681Y-119537681D01*
X145466976Y-119361596D01*
X145520502Y-119246811D01*
X145555499Y-119171759D01*
X145555500Y-119171757D01*
X145557822Y-119166777D01*
X145592605Y-119036968D01*
X145612034Y-118964457D01*
X145612034Y-118964455D01*
X145613458Y-118959142D01*
X145632193Y-118745000D01*
X145613458Y-118530858D01*
X145611181Y-118522361D01*
X145559245Y-118328533D01*
X145559244Y-118328531D01*
X145557822Y-118323223D01*
X145466976Y-118128404D01*
X145343681Y-117952319D01*
X145191681Y-117800319D01*
X145015597Y-117677024D01*
X145010619Y-117674703D01*
X145010616Y-117674701D01*
X144827247Y-117589195D01*
X144773962Y-117542278D01*
X144754501Y-117474000D01*
X144775043Y-117406041D01*
X144827247Y-117360805D01*
X145010616Y-117275299D01*
X145010619Y-117275297D01*
X145015597Y-117272976D01*
X145191681Y-117149681D01*
X145343681Y-116997681D01*
X145466976Y-116821596D01*
X145479471Y-116794802D01*
X145555499Y-116631759D01*
X145555500Y-116631757D01*
X145557822Y-116626777D01*
X145601714Y-116462973D01*
X145612034Y-116424457D01*
X145612034Y-116424455D01*
X145613458Y-116419142D01*
X145632193Y-116205000D01*
X145613458Y-115990858D01*
X145610046Y-115978125D01*
X145559245Y-115788533D01*
X145559244Y-115788531D01*
X145557822Y-115783223D01*
X145551992Y-115770720D01*
X145469299Y-115593385D01*
X145469297Y-115593382D01*
X145466976Y-115588404D01*
X145343681Y-115412319D01*
X145191681Y-115260319D01*
X145015597Y-115137024D01*
X145010619Y-115134703D01*
X145010616Y-115134701D01*
X144954108Y-115108351D01*
X163451719Y-115108351D01*
X163452235Y-115114495D01*
X163464480Y-115260319D01*
X163468268Y-115305434D01*
X163481452Y-115351411D01*
X163512290Y-115458956D01*
X163522783Y-115495550D01*
X163525602Y-115501035D01*
X163588975Y-115624344D01*
X163613187Y-115671456D01*
X163736035Y-115826453D01*
X163740728Y-115830447D01*
X163740729Y-115830448D01*
X163877120Y-115946525D01*
X163886650Y-115954636D01*
X164059294Y-116051124D01*
X164247392Y-116112240D01*
X164443777Y-116135658D01*
X164449912Y-116135186D01*
X164449914Y-116135186D01*
X164634830Y-116120957D01*
X164634834Y-116120956D01*
X164640972Y-116120484D01*
X164831463Y-116067298D01*
X164836967Y-116064518D01*
X164836969Y-116064517D01*
X165002495Y-115980904D01*
X165002497Y-115980903D01*
X165007996Y-115978125D01*
X165163847Y-115856361D01*
X165261551Y-115743170D01*
X165289049Y-115711313D01*
X165289050Y-115711311D01*
X165293078Y-115706645D01*
X165334230Y-115634205D01*
X165362950Y-115583650D01*
X165413990Y-115534299D01*
X165483608Y-115520377D01*
X165549701Y-115546303D01*
X165581624Y-115582886D01*
X165605560Y-115624344D01*
X165609978Y-115629251D01*
X165609979Y-115629252D01*
X165702553Y-115732066D01*
X165733347Y-115766266D01*
X165763995Y-115788533D01*
X165862574Y-115860155D01*
X165887848Y-115878518D01*
X165893876Y-115881202D01*
X165893878Y-115881203D01*
X166021328Y-115937947D01*
X166062312Y-115956194D01*
X166147630Y-115974329D01*
X166242656Y-115994528D01*
X166242661Y-115994528D01*
X166249113Y-115995900D01*
X166440087Y-115995900D01*
X166446539Y-115994528D01*
X166446544Y-115994528D01*
X166541570Y-115974329D01*
X166626888Y-115956194D01*
X166667872Y-115937947D01*
X166795322Y-115881203D01*
X166795324Y-115881202D01*
X166801352Y-115878518D01*
X166826627Y-115860155D01*
X166955853Y-115766266D01*
X166957347Y-115768322D01*
X167011056Y-115742547D01*
X167031360Y-115740900D01*
X167533215Y-115740900D01*
X167544925Y-115741452D01*
X167552611Y-115743170D01*
X167560538Y-115742921D01*
X167622889Y-115740962D01*
X167626846Y-115740900D01*
X167655715Y-115740900D01*
X167660036Y-115740354D01*
X167671862Y-115739424D01*
X167717642Y-115737985D01*
X167738015Y-115732066D01*
X167757372Y-115728058D01*
X167759764Y-115727756D01*
X167778411Y-115725400D01*
X167785777Y-115722483D01*
X167785783Y-115722482D01*
X167820992Y-115708541D01*
X167832225Y-115704695D01*
X167868589Y-115694131D01*
X167868596Y-115694128D01*
X167876199Y-115691919D01*
X167894453Y-115681124D01*
X167912205Y-115672427D01*
X167914658Y-115671456D01*
X167931928Y-115664618D01*
X167968978Y-115637699D01*
X167978902Y-115631180D01*
X168011492Y-115611907D01*
X168011493Y-115611906D01*
X168018318Y-115607870D01*
X168033311Y-115592877D01*
X168048345Y-115580036D01*
X168059093Y-115572227D01*
X168065507Y-115567567D01*
X168094714Y-115532261D01*
X168102693Y-115523495D01*
X170844584Y-112781605D01*
X170906896Y-112747579D01*
X170933679Y-112744700D01*
X170961287Y-112744700D01*
X170967739Y-112743328D01*
X170967744Y-112743328D01*
X171054688Y-112724847D01*
X171148088Y-112704994D01*
X171154119Y-112702309D01*
X171316522Y-112630003D01*
X171316524Y-112630002D01*
X171322552Y-112627318D01*
X171359906Y-112600179D01*
X171413347Y-112561351D01*
X171477053Y-112515066D01*
X171516128Y-112471669D01*
X171600421Y-112378052D01*
X171600422Y-112378051D01*
X171604840Y-112373144D01*
X171700327Y-112207756D01*
X171759342Y-112026128D01*
X171769899Y-111925689D01*
X171778614Y-111842765D01*
X171779304Y-111836200D01*
X171759342Y-111646272D01*
X171700327Y-111464644D01*
X171604840Y-111299256D01*
X171477053Y-111157334D01*
X171322552Y-111045082D01*
X171316524Y-111042398D01*
X171316522Y-111042397D01*
X171154119Y-110970091D01*
X171154118Y-110970091D01*
X171148088Y-110967406D01*
X171054687Y-110947553D01*
X170967744Y-110929072D01*
X170967739Y-110929072D01*
X170961287Y-110927700D01*
X170770313Y-110927700D01*
X170763861Y-110929072D01*
X170763856Y-110929072D01*
X170676912Y-110947553D01*
X170583512Y-110967406D01*
X170577482Y-110970091D01*
X170577481Y-110970091D01*
X170415078Y-111042397D01*
X170415076Y-111042398D01*
X170409048Y-111045082D01*
X170254547Y-111157334D01*
X170126760Y-111299256D01*
X170031273Y-111464644D01*
X169972258Y-111646272D01*
X169961985Y-111744020D01*
X169958215Y-111779887D01*
X169931202Y-111845544D01*
X169922000Y-111855812D01*
X167380816Y-114396995D01*
X167318504Y-114431021D01*
X167291721Y-114433900D01*
X167031360Y-114433900D01*
X166963239Y-114413898D01*
X166955982Y-114408357D01*
X166955853Y-114408534D01*
X166806694Y-114300163D01*
X166806693Y-114300162D01*
X166801352Y-114296282D01*
X166795324Y-114293598D01*
X166795322Y-114293597D01*
X166632919Y-114221291D01*
X166632918Y-114221291D01*
X166626888Y-114218606D01*
X166533487Y-114198753D01*
X166446544Y-114180272D01*
X166446539Y-114180272D01*
X166440087Y-114178900D01*
X166249113Y-114178900D01*
X166242661Y-114180272D01*
X166242656Y-114180272D01*
X166155713Y-114198753D01*
X166062312Y-114218606D01*
X166056282Y-114221291D01*
X166056281Y-114221291D01*
X165893878Y-114293597D01*
X165893876Y-114293598D01*
X165887848Y-114296282D01*
X165882507Y-114300162D01*
X165882506Y-114300163D01*
X165832443Y-114336536D01*
X165733347Y-114408534D01*
X165728926Y-114413444D01*
X165728925Y-114413445D01*
X165677924Y-114470088D01*
X165605560Y-114550456D01*
X165561753Y-114626332D01*
X165510372Y-114675324D01*
X165440658Y-114688761D01*
X165374747Y-114662374D01*
X165341383Y-114622484D01*
X165311959Y-114567145D01*
X165309066Y-114561704D01*
X165201857Y-114430253D01*
X165174303Y-114364821D01*
X165173500Y-114350617D01*
X165173500Y-113926538D01*
X165193502Y-113858417D01*
X165204118Y-113844207D01*
X165289054Y-113745807D01*
X165289055Y-113745806D01*
X165293078Y-113741145D01*
X165390769Y-113569179D01*
X165453197Y-113381513D01*
X165477985Y-113185295D01*
X165478380Y-113157000D01*
X165459080Y-112960167D01*
X165401916Y-112770831D01*
X165309066Y-112596204D01*
X165234482Y-112504755D01*
X165187960Y-112447713D01*
X165187957Y-112447710D01*
X165184065Y-112442938D01*
X165177724Y-112437692D01*
X165036425Y-112320799D01*
X165036421Y-112320797D01*
X165031675Y-112316870D01*
X164857701Y-112222802D01*
X164668768Y-112164318D01*
X164662643Y-112163674D01*
X164662642Y-112163674D01*
X164478204Y-112144289D01*
X164478202Y-112144289D01*
X164472075Y-112143645D01*
X164389576Y-112151153D01*
X164281251Y-112161011D01*
X164281248Y-112161012D01*
X164275112Y-112161570D01*
X164269206Y-112163308D01*
X164269202Y-112163309D01*
X164164076Y-112194249D01*
X164085381Y-112217410D01*
X164079923Y-112220263D01*
X164079919Y-112220265D01*
X164034056Y-112244242D01*
X163910110Y-112309040D01*
X163755975Y-112432968D01*
X163628846Y-112584474D01*
X163625879Y-112589872D01*
X163625875Y-112589877D01*
X163566768Y-112697394D01*
X163533567Y-112757787D01*
X163531706Y-112763654D01*
X163531705Y-112763656D01*
X163526011Y-112781605D01*
X163473765Y-112946306D01*
X163451719Y-113142851D01*
X163452235Y-113148995D01*
X163464597Y-113296210D01*
X163468268Y-113339934D01*
X163484761Y-113397452D01*
X163497639Y-113442361D01*
X163522783Y-113530050D01*
X163525602Y-113535535D01*
X163591557Y-113663868D01*
X163613187Y-113705956D01*
X163722763Y-113844207D01*
X163729246Y-113852387D01*
X163755883Y-113918197D01*
X163756500Y-113930651D01*
X163756500Y-114351983D01*
X163736498Y-114420104D01*
X163727021Y-114432973D01*
X163628846Y-114549974D01*
X163625879Y-114555372D01*
X163625875Y-114555377D01*
X163556346Y-114681851D01*
X163533567Y-114723287D01*
X163531706Y-114729154D01*
X163531705Y-114729156D01*
X163487837Y-114867446D01*
X163473765Y-114911806D01*
X163451719Y-115108351D01*
X144954108Y-115108351D01*
X144827247Y-115049195D01*
X144773962Y-115002278D01*
X144754501Y-114934000D01*
X144775043Y-114866041D01*
X144827247Y-114820805D01*
X145010616Y-114735299D01*
X145010619Y-114735297D01*
X145015597Y-114732976D01*
X145191681Y-114609681D01*
X145343681Y-114457681D01*
X145466976Y-114281596D01*
X145514225Y-114180272D01*
X145555499Y-114091759D01*
X145555500Y-114091757D01*
X145557822Y-114086777D01*
X145601207Y-113924865D01*
X145612034Y-113884457D01*
X145612034Y-113884455D01*
X145613458Y-113879142D01*
X145632193Y-113665000D01*
X145613458Y-113450858D01*
X145602330Y-113409329D01*
X145559245Y-113248533D01*
X145559244Y-113248531D01*
X145557822Y-113243223D01*
X145530810Y-113185295D01*
X145469299Y-113053385D01*
X145469297Y-113053382D01*
X145466976Y-113048404D01*
X145343681Y-112872319D01*
X145191681Y-112720319D01*
X145015597Y-112597024D01*
X145010619Y-112594703D01*
X145010616Y-112594701D01*
X144825759Y-112508501D01*
X144825758Y-112508500D01*
X144820777Y-112506178D01*
X144815469Y-112504756D01*
X144815467Y-112504755D01*
X144618457Y-112451966D01*
X144618455Y-112451966D01*
X144613142Y-112450542D01*
X144399000Y-112431807D01*
X144184858Y-112450542D01*
X144179545Y-112451966D01*
X144179543Y-112451966D01*
X143982533Y-112504755D01*
X143982531Y-112504756D01*
X143977223Y-112506178D01*
X143972243Y-112508500D01*
X143972241Y-112508501D01*
X143787385Y-112594701D01*
X143787382Y-112594703D01*
X143782404Y-112597024D01*
X143606319Y-112720319D01*
X143454319Y-112872319D01*
X143331024Y-113048404D01*
X143328703Y-113053382D01*
X143328701Y-113053385D01*
X143267190Y-113185295D01*
X143240178Y-113243223D01*
X143238756Y-113248531D01*
X143238755Y-113248533D01*
X143195670Y-113409329D01*
X143184542Y-113450858D01*
X143165807Y-113665000D01*
X143184542Y-113879142D01*
X143185966Y-113884455D01*
X143185966Y-113884457D01*
X143196794Y-113924865D01*
X143240178Y-114086777D01*
X143242500Y-114091757D01*
X143242501Y-114091759D01*
X143283776Y-114180272D01*
X143331024Y-114281596D01*
X143454319Y-114457681D01*
X143606319Y-114609681D01*
X143782403Y-114732976D01*
X143787381Y-114735297D01*
X143787384Y-114735299D01*
X143970753Y-114820805D01*
X144024038Y-114867722D01*
X144043499Y-114936000D01*
X144022957Y-115003959D01*
X143970753Y-115049195D01*
X143787385Y-115134701D01*
X143787382Y-115134703D01*
X143782404Y-115137024D01*
X143606319Y-115260319D01*
X143454319Y-115412319D01*
X143331024Y-115588404D01*
X143328703Y-115593382D01*
X143328701Y-115593385D01*
X143246008Y-115770720D01*
X143240178Y-115783223D01*
X143238756Y-115788531D01*
X143238755Y-115788533D01*
X143187954Y-115978125D01*
X143184542Y-115990858D01*
X143165807Y-116205000D01*
X143184542Y-116419142D01*
X143185966Y-116424455D01*
X143185966Y-116424457D01*
X143196287Y-116462973D01*
X143240178Y-116626777D01*
X143242500Y-116631757D01*
X143242501Y-116631759D01*
X143318530Y-116794802D01*
X143331024Y-116821596D01*
X143454319Y-116997681D01*
X143606319Y-117149681D01*
X143782403Y-117272976D01*
X143787381Y-117275297D01*
X143787384Y-117275299D01*
X143970753Y-117360805D01*
X144024038Y-117407722D01*
X144043499Y-117476000D01*
X144022957Y-117543959D01*
X143970753Y-117589195D01*
X143787385Y-117674701D01*
X143787382Y-117674703D01*
X143782404Y-117677024D01*
X143606319Y-117800319D01*
X143454319Y-117952319D01*
X143331024Y-118128404D01*
X143240178Y-118323223D01*
X143238756Y-118328531D01*
X143238755Y-118328533D01*
X143186819Y-118522361D01*
X143184542Y-118530858D01*
X143165807Y-118745000D01*
X138774193Y-118745000D01*
X138755458Y-118530858D01*
X138753181Y-118522361D01*
X138701245Y-118328533D01*
X138701244Y-118328531D01*
X138699822Y-118323223D01*
X138608976Y-118128404D01*
X138485681Y-117952319D01*
X138333681Y-117800319D01*
X138157597Y-117677024D01*
X138152619Y-117674703D01*
X138152616Y-117674701D01*
X137969247Y-117589195D01*
X137915962Y-117542278D01*
X137896501Y-117474000D01*
X137917043Y-117406041D01*
X137969247Y-117360805D01*
X138152616Y-117275299D01*
X138152619Y-117275297D01*
X138157597Y-117272976D01*
X138333681Y-117149681D01*
X138485681Y-116997681D01*
X138608976Y-116821596D01*
X138621471Y-116794802D01*
X138697499Y-116631759D01*
X138697500Y-116631757D01*
X138699822Y-116626777D01*
X138743714Y-116462973D01*
X138754034Y-116424457D01*
X138754034Y-116424455D01*
X138755458Y-116419142D01*
X138774193Y-116205000D01*
X138755458Y-115990858D01*
X138752046Y-115978125D01*
X138701245Y-115788533D01*
X138701244Y-115788531D01*
X138699822Y-115783223D01*
X138693992Y-115770720D01*
X138611299Y-115593385D01*
X138611297Y-115593382D01*
X138608976Y-115588404D01*
X138485681Y-115412319D01*
X138333681Y-115260319D01*
X138157597Y-115137024D01*
X138152619Y-115134703D01*
X138152616Y-115134701D01*
X137968656Y-115048919D01*
X137915371Y-115002002D01*
X137895910Y-114933724D01*
X137916452Y-114865764D01*
X137968656Y-114820529D01*
X138152359Y-114734868D01*
X138161854Y-114729385D01*
X138196607Y-114705051D01*
X138204983Y-114694572D01*
X138197916Y-114681127D01*
X137553811Y-114037021D01*
X137539868Y-114029408D01*
X137538034Y-114029539D01*
X137531420Y-114033790D01*
X136883360Y-114681851D01*
X136876933Y-114693621D01*
X136886227Y-114705635D01*
X136920146Y-114729385D01*
X136929641Y-114734868D01*
X137113344Y-114820529D01*
X137166629Y-114867446D01*
X137186090Y-114935723D01*
X137165548Y-115003683D01*
X137113344Y-115048919D01*
X136929385Y-115134701D01*
X136929382Y-115134703D01*
X136924404Y-115137024D01*
X136748319Y-115260319D01*
X136596319Y-115412319D01*
X136473024Y-115588404D01*
X136470703Y-115593382D01*
X136470701Y-115593385D01*
X136388008Y-115770720D01*
X136382178Y-115783223D01*
X136380756Y-115788531D01*
X136380755Y-115788533D01*
X136329954Y-115978125D01*
X136326542Y-115990858D01*
X136307807Y-116205000D01*
X136326542Y-116419142D01*
X136327966Y-116424455D01*
X136327966Y-116424457D01*
X136338287Y-116462973D01*
X136382178Y-116626777D01*
X136384500Y-116631757D01*
X136384501Y-116631759D01*
X136460530Y-116794802D01*
X136473024Y-116821596D01*
X136596319Y-116997681D01*
X136748319Y-117149681D01*
X136924403Y-117272976D01*
X136929381Y-117275297D01*
X136929384Y-117275299D01*
X137112753Y-117360805D01*
X137166038Y-117407722D01*
X137185499Y-117476000D01*
X137164957Y-117543959D01*
X137112753Y-117589195D01*
X136929385Y-117674701D01*
X136929382Y-117674703D01*
X136924404Y-117677024D01*
X136748319Y-117800319D01*
X136596319Y-117952319D01*
X136473024Y-118128404D01*
X136382178Y-118323223D01*
X136380756Y-118328531D01*
X136380755Y-118328533D01*
X136328819Y-118522361D01*
X136326542Y-118530858D01*
X136307807Y-118745000D01*
X131915212Y-118745000D01*
X131915212Y-118739525D01*
X131897443Y-118536425D01*
X131895540Y-118525632D01*
X131842774Y-118328705D01*
X131839028Y-118318413D01*
X131752865Y-118133636D01*
X131747387Y-118124150D01*
X131723051Y-118089393D01*
X131712572Y-118081017D01*
X131699128Y-118088083D01*
X131055021Y-118732189D01*
X131047408Y-118746132D01*
X130317356Y-118746132D01*
X130318592Y-118743868D01*
X130318461Y-118742034D01*
X130314210Y-118735420D01*
X129666149Y-118087360D01*
X129654379Y-118080933D01*
X129642365Y-118090228D01*
X129618613Y-118124150D01*
X129613135Y-118133636D01*
X129526972Y-118318413D01*
X129523226Y-118328705D01*
X129470460Y-118525632D01*
X129468557Y-118536425D01*
X129450788Y-118739525D01*
X129450788Y-118750475D01*
X126458022Y-118750475D01*
X126458074Y-118748365D01*
X126458074Y-118748361D01*
X126458156Y-118745000D01*
X126439852Y-118522361D01*
X126385431Y-118305702D01*
X126296354Y-118100840D01*
X126204830Y-117959365D01*
X126177822Y-117917617D01*
X126177820Y-117917614D01*
X126175014Y-117913277D01*
X126024670Y-117748051D01*
X126020619Y-117744852D01*
X126020615Y-117744848D01*
X125853414Y-117612800D01*
X125853410Y-117612798D01*
X125849359Y-117609598D01*
X125807569Y-117586529D01*
X125757598Y-117536097D01*
X125742826Y-117466654D01*
X125767942Y-117400248D01*
X125795294Y-117373641D01*
X125970328Y-117248792D01*
X125978200Y-117242139D01*
X126129052Y-117091812D01*
X126135730Y-117083965D01*
X126260003Y-116911020D01*
X126265313Y-116902183D01*
X126359670Y-116711267D01*
X126363469Y-116701672D01*
X126425377Y-116497910D01*
X126427555Y-116487837D01*
X126428986Y-116476962D01*
X126426775Y-116462778D01*
X126413617Y-116459000D01*
X123778225Y-116459000D01*
X123764694Y-116462973D01*
X123763257Y-116472966D01*
X123793565Y-116607446D01*
X123796645Y-116617275D01*
X123876770Y-116814603D01*
X123881413Y-116823794D01*
X123992694Y-117005388D01*
X123998777Y-117013699D01*
X124138213Y-117174667D01*
X124145580Y-117181883D01*
X124309434Y-117317916D01*
X124317881Y-117323831D01*
X124386969Y-117364203D01*
X124435693Y-117415842D01*
X124448764Y-117485625D01*
X124422033Y-117551396D01*
X124381584Y-117584752D01*
X124368607Y-117591507D01*
X124364474Y-117594610D01*
X124364471Y-117594612D01*
X124194100Y-117722530D01*
X124189965Y-117725635D01*
X124035629Y-117887138D01*
X124032715Y-117891410D01*
X124032714Y-117891411D01*
X123990351Y-117953513D01*
X123909743Y-118071680D01*
X123815688Y-118274305D01*
X123755989Y-118489570D01*
X123732251Y-118711695D01*
X123732548Y-118716848D01*
X123732548Y-118716851D01*
X123738783Y-118824980D01*
X123745110Y-118934715D01*
X123746247Y-118939761D01*
X123746248Y-118939767D01*
X123756780Y-118986500D01*
X123794222Y-119152639D01*
X123878266Y-119359616D01*
X123994987Y-119550088D01*
X124141250Y-119718938D01*
X124313126Y-119861632D01*
X124380544Y-119901028D01*
X124386445Y-119904476D01*
X124435169Y-119956114D01*
X124448240Y-120025897D01*
X124421509Y-120091669D01*
X124381055Y-120125027D01*
X124375108Y-120128123D01*
X124368607Y-120131507D01*
X124364474Y-120134610D01*
X124364471Y-120134612D01*
X124340247Y-120152800D01*
X124189965Y-120265635D01*
X124035629Y-120427138D01*
X124032715Y-120431410D01*
X124032714Y-120431411D01*
X123993988Y-120488182D01*
X123909743Y-120611680D01*
X123894003Y-120645590D01*
X123834324Y-120774158D01*
X123815688Y-120814305D01*
X123755989Y-121029570D01*
X123732251Y-121251695D01*
X123063500Y-121251695D01*
X123063500Y-116205000D01*
X129449807Y-116205000D01*
X129468542Y-116419142D01*
X129469966Y-116424455D01*
X129469966Y-116424457D01*
X129480287Y-116462973D01*
X129524178Y-116626777D01*
X129526500Y-116631757D01*
X129526501Y-116631759D01*
X129602530Y-116794802D01*
X129615024Y-116821596D01*
X129738319Y-116997681D01*
X129890319Y-117149681D01*
X130066403Y-117272976D01*
X130071381Y-117275297D01*
X130071384Y-117275299D01*
X130255344Y-117361081D01*
X130308629Y-117407998D01*
X130328090Y-117476276D01*
X130307548Y-117544236D01*
X130255344Y-117589471D01*
X130071636Y-117675135D01*
X130062150Y-117680613D01*
X130027393Y-117704949D01*
X130019017Y-117715428D01*
X130026083Y-117728872D01*
X130670189Y-118372979D01*
X130684132Y-118380592D01*
X130685966Y-118380461D01*
X130692580Y-118376210D01*
X131340640Y-117728149D01*
X131347067Y-117716379D01*
X131337773Y-117704365D01*
X131303854Y-117680615D01*
X131294359Y-117675132D01*
X131110656Y-117589471D01*
X131057371Y-117542554D01*
X131037910Y-117474277D01*
X131058452Y-117406317D01*
X131110656Y-117361081D01*
X131294616Y-117275299D01*
X131294619Y-117275297D01*
X131299597Y-117272976D01*
X131475681Y-117149681D01*
X131627681Y-116997681D01*
X131750976Y-116821596D01*
X131763471Y-116794802D01*
X131839499Y-116631759D01*
X131839500Y-116631757D01*
X131841822Y-116626777D01*
X131885714Y-116462973D01*
X131896034Y-116424457D01*
X131896034Y-116424455D01*
X131897458Y-116419142D01*
X131916193Y-116205000D01*
X131897458Y-115990858D01*
X131894046Y-115978125D01*
X131843245Y-115788533D01*
X131843244Y-115788531D01*
X131841822Y-115783223D01*
X131835992Y-115770720D01*
X131753299Y-115593385D01*
X131753297Y-115593382D01*
X131750976Y-115588404D01*
X131627681Y-115412319D01*
X131475681Y-115260319D01*
X131299597Y-115137024D01*
X131294619Y-115134703D01*
X131294616Y-115134701D01*
X131111247Y-115049195D01*
X131057962Y-115002278D01*
X131038501Y-114934000D01*
X131059043Y-114866041D01*
X131111247Y-114820805D01*
X131294616Y-114735299D01*
X131294619Y-114735297D01*
X131299597Y-114732976D01*
X131475681Y-114609681D01*
X131627681Y-114457681D01*
X131750976Y-114281596D01*
X131798225Y-114180272D01*
X131839499Y-114091759D01*
X131839500Y-114091757D01*
X131841822Y-114086777D01*
X131885207Y-113924865D01*
X131896034Y-113884457D01*
X131896034Y-113884455D01*
X131897458Y-113879142D01*
X131915714Y-113670475D01*
X136308788Y-113670475D01*
X136326557Y-113873575D01*
X136328460Y-113884368D01*
X136381226Y-114081295D01*
X136384972Y-114091587D01*
X136471135Y-114276364D01*
X136476613Y-114285850D01*
X136500949Y-114320607D01*
X136511428Y-114328983D01*
X136524872Y-114321917D01*
X137168979Y-113677811D01*
X137175356Y-113666132D01*
X137905408Y-113666132D01*
X137905539Y-113667966D01*
X137909790Y-113674580D01*
X138557851Y-114322640D01*
X138569621Y-114329067D01*
X138581635Y-114319772D01*
X138605387Y-114285850D01*
X138610865Y-114276364D01*
X138697028Y-114091587D01*
X138700774Y-114081295D01*
X138753540Y-113884368D01*
X138755443Y-113873575D01*
X138773212Y-113670475D01*
X138773212Y-113659525D01*
X138755443Y-113456425D01*
X138753540Y-113445632D01*
X138700774Y-113248705D01*
X138697028Y-113238413D01*
X138610865Y-113053636D01*
X138605387Y-113044150D01*
X138581051Y-113009393D01*
X138570572Y-113001017D01*
X138557128Y-113008083D01*
X137913021Y-113652189D01*
X137905408Y-113666132D01*
X137175356Y-113666132D01*
X137176592Y-113663868D01*
X137176461Y-113662034D01*
X137172210Y-113655420D01*
X136524149Y-113007360D01*
X136512379Y-113000933D01*
X136500365Y-113010228D01*
X136476613Y-113044150D01*
X136471135Y-113053636D01*
X136384972Y-113238413D01*
X136381226Y-113248705D01*
X136328460Y-113445632D01*
X136326557Y-113456425D01*
X136308788Y-113659525D01*
X136308788Y-113670475D01*
X131915714Y-113670475D01*
X131916193Y-113665000D01*
X131897458Y-113450858D01*
X131886330Y-113409329D01*
X131843245Y-113248533D01*
X131843244Y-113248531D01*
X131841822Y-113243223D01*
X131814810Y-113185295D01*
X131753299Y-113053385D01*
X131753297Y-113053382D01*
X131750976Y-113048404D01*
X131627681Y-112872319D01*
X131475681Y-112720319D01*
X131354444Y-112635428D01*
X136877017Y-112635428D01*
X136884083Y-112648872D01*
X137528189Y-113292979D01*
X137542132Y-113300592D01*
X137543966Y-113300461D01*
X137550580Y-113296210D01*
X138198640Y-112648149D01*
X138205067Y-112636379D01*
X138195773Y-112624365D01*
X138161854Y-112600615D01*
X138152359Y-112595132D01*
X137967587Y-112508972D01*
X137957295Y-112505226D01*
X137760368Y-112452460D01*
X137749575Y-112450557D01*
X137546475Y-112432788D01*
X137535525Y-112432788D01*
X137332425Y-112450557D01*
X137321632Y-112452460D01*
X137124705Y-112505226D01*
X137114413Y-112508972D01*
X136929636Y-112595135D01*
X136920150Y-112600613D01*
X136885393Y-112624949D01*
X136877017Y-112635428D01*
X131354444Y-112635428D01*
X131299597Y-112597024D01*
X131294619Y-112594703D01*
X131294616Y-112594701D01*
X131109759Y-112508501D01*
X131109758Y-112508500D01*
X131104777Y-112506178D01*
X131099469Y-112504756D01*
X131099467Y-112504755D01*
X130902457Y-112451966D01*
X130902455Y-112451966D01*
X130897142Y-112450542D01*
X130683000Y-112431807D01*
X130468858Y-112450542D01*
X130463545Y-112451966D01*
X130463543Y-112451966D01*
X130266533Y-112504755D01*
X130266531Y-112504756D01*
X130261223Y-112506178D01*
X130256243Y-112508500D01*
X130256241Y-112508501D01*
X130071385Y-112594701D01*
X130071382Y-112594703D01*
X130066404Y-112597024D01*
X129890319Y-112720319D01*
X129738319Y-112872319D01*
X129615024Y-113048404D01*
X129612703Y-113053382D01*
X129612701Y-113053385D01*
X129551190Y-113185295D01*
X129524178Y-113243223D01*
X129522756Y-113248531D01*
X129522755Y-113248533D01*
X129479670Y-113409329D01*
X129468542Y-113450858D01*
X129449807Y-113665000D01*
X129468542Y-113879142D01*
X129469966Y-113884455D01*
X129469966Y-113884457D01*
X129480794Y-113924865D01*
X129524178Y-114086777D01*
X129526500Y-114091757D01*
X129526501Y-114091759D01*
X129567776Y-114180272D01*
X129615024Y-114281596D01*
X129738319Y-114457681D01*
X129890319Y-114609681D01*
X130066403Y-114732976D01*
X130071381Y-114735297D01*
X130071384Y-114735299D01*
X130254753Y-114820805D01*
X130308038Y-114867722D01*
X130327499Y-114936000D01*
X130306957Y-115003959D01*
X130254753Y-115049195D01*
X130071385Y-115134701D01*
X130071382Y-115134703D01*
X130066404Y-115137024D01*
X129890319Y-115260319D01*
X129738319Y-115412319D01*
X129615024Y-115588404D01*
X129612703Y-115593382D01*
X129612701Y-115593385D01*
X129530008Y-115770720D01*
X129524178Y-115783223D01*
X129522756Y-115788531D01*
X129522755Y-115788533D01*
X129471954Y-115978125D01*
X129468542Y-115990858D01*
X129449807Y-116205000D01*
X123063500Y-116205000D01*
X123063500Y-114559669D01*
X123737001Y-114559669D01*
X123737371Y-114566490D01*
X123742895Y-114617352D01*
X123746521Y-114632604D01*
X123791676Y-114753054D01*
X123800214Y-114768649D01*
X123876715Y-114870724D01*
X123889276Y-114883285D01*
X123991351Y-114959786D01*
X124006946Y-114968324D01*
X124116337Y-115009333D01*
X124173101Y-115051975D01*
X124197801Y-115118536D01*
X124182594Y-115187885D01*
X124163201Y-115214366D01*
X124039590Y-115343717D01*
X124033104Y-115351727D01*
X123913098Y-115527649D01*
X123908000Y-115536623D01*
X123818338Y-115729783D01*
X123814775Y-115739470D01*
X123759389Y-115939183D01*
X123760912Y-115947607D01*
X123773292Y-115951000D01*
X124822885Y-115951000D01*
X124838124Y-115946525D01*
X124839329Y-115945135D01*
X124841000Y-115937452D01*
X124841000Y-115932885D01*
X125349000Y-115932885D01*
X125353475Y-115948124D01*
X125354865Y-115949329D01*
X125362548Y-115951000D01*
X126413344Y-115951000D01*
X126426875Y-115947027D01*
X126428180Y-115937947D01*
X126386214Y-115770875D01*
X126382894Y-115761124D01*
X126297972Y-115565814D01*
X126293105Y-115556739D01*
X126177426Y-115377926D01*
X126171136Y-115369757D01*
X126026931Y-115211279D01*
X125995879Y-115147433D01*
X126004273Y-115076934D01*
X126049450Y-115022166D01*
X126075894Y-115008497D01*
X126183054Y-114968324D01*
X126198649Y-114959786D01*
X126300724Y-114883285D01*
X126313285Y-114870724D01*
X126389786Y-114768649D01*
X126398324Y-114753054D01*
X126443478Y-114632606D01*
X126447105Y-114617351D01*
X126452631Y-114566486D01*
X126453000Y-114559672D01*
X126453000Y-113937115D01*
X126448525Y-113921876D01*
X126447135Y-113920671D01*
X126439452Y-113919000D01*
X125367115Y-113919000D01*
X125351876Y-113923475D01*
X125350671Y-113924865D01*
X125349000Y-113932548D01*
X125349000Y-115932885D01*
X124841000Y-115932885D01*
X124841000Y-113937115D01*
X124836525Y-113921876D01*
X124835135Y-113920671D01*
X124827452Y-113919000D01*
X123755116Y-113919000D01*
X123739877Y-113923475D01*
X123738672Y-113924865D01*
X123737001Y-113932548D01*
X123737001Y-114559669D01*
X123063500Y-114559669D01*
X123063500Y-113392885D01*
X123737000Y-113392885D01*
X123741475Y-113408124D01*
X123742865Y-113409329D01*
X123750548Y-113411000D01*
X124822885Y-113411000D01*
X124838124Y-113406525D01*
X124839329Y-113405135D01*
X124841000Y-113397452D01*
X124841000Y-113392885D01*
X125349000Y-113392885D01*
X125353475Y-113408124D01*
X125354865Y-113409329D01*
X125362548Y-113411000D01*
X126434884Y-113411000D01*
X126450123Y-113406525D01*
X126451328Y-113405135D01*
X126452999Y-113397452D01*
X126452999Y-112770331D01*
X126452629Y-112763510D01*
X126447105Y-112712648D01*
X126443479Y-112697396D01*
X126398324Y-112576946D01*
X126389786Y-112561351D01*
X126313285Y-112459276D01*
X126300724Y-112446715D01*
X126198649Y-112370214D01*
X126183054Y-112361676D01*
X126062606Y-112316522D01*
X126047351Y-112312895D01*
X125996486Y-112307369D01*
X125989672Y-112307000D01*
X125367115Y-112307000D01*
X125351876Y-112311475D01*
X125350671Y-112312865D01*
X125349000Y-112320548D01*
X125349000Y-113392885D01*
X124841000Y-113392885D01*
X124841000Y-112325116D01*
X124836525Y-112309877D01*
X124835135Y-112308672D01*
X124827452Y-112307001D01*
X124200331Y-112307001D01*
X124193510Y-112307371D01*
X124142648Y-112312895D01*
X124127396Y-112316521D01*
X124006946Y-112361676D01*
X123991351Y-112370214D01*
X123889276Y-112446715D01*
X123876715Y-112459276D01*
X123800214Y-112561351D01*
X123791676Y-112576946D01*
X123746522Y-112697394D01*
X123742895Y-112712649D01*
X123737369Y-112763514D01*
X123737000Y-112770328D01*
X123737000Y-113392885D01*
X123063500Y-113392885D01*
X123063500Y-108316851D01*
X154561719Y-108316851D01*
X154562235Y-108322995D01*
X154566603Y-108375009D01*
X154578268Y-108513934D01*
X154632783Y-108704050D01*
X154662730Y-108762319D01*
X154671697Y-108779767D01*
X154723187Y-108879956D01*
X154846035Y-109034953D01*
X154996650Y-109163136D01*
X155169294Y-109259624D01*
X155357392Y-109320740D01*
X155534355Y-109341842D01*
X155547253Y-109343380D01*
X155612526Y-109371308D01*
X155621429Y-109379399D01*
X155815550Y-109573520D01*
X155821404Y-109579785D01*
X155859439Y-109623385D01*
X155865657Y-109627755D01*
X155911697Y-109660112D01*
X155916993Y-109664045D01*
X155967282Y-109703477D01*
X155974204Y-109706602D01*
X155976452Y-109707964D01*
X155991185Y-109716368D01*
X155993524Y-109717622D01*
X155999739Y-109721990D01*
X156006815Y-109724749D01*
X156006819Y-109724751D01*
X156059269Y-109745200D01*
X156065334Y-109747749D01*
X156123573Y-109774045D01*
X156131038Y-109775429D01*
X156133582Y-109776226D01*
X156149848Y-109780859D01*
X156152428Y-109781521D01*
X156159509Y-109784282D01*
X156167042Y-109785274D01*
X156167043Y-109785274D01*
X156199699Y-109789573D01*
X156222857Y-109792622D01*
X156229355Y-109793650D01*
X156292187Y-109805296D01*
X156299767Y-109804859D01*
X156299768Y-109804859D01*
X156354398Y-109801709D01*
X156361651Y-109801500D01*
X157599019Y-109801500D01*
X157667140Y-109821502D01*
X157680682Y-109831546D01*
X157790650Y-109925136D01*
X157963294Y-110021624D01*
X158151392Y-110082740D01*
X158347777Y-110106158D01*
X158353912Y-110105686D01*
X158353914Y-110105686D01*
X158538830Y-110091457D01*
X158538834Y-110091456D01*
X158544972Y-110090984D01*
X158735463Y-110037798D01*
X158740967Y-110035018D01*
X158740969Y-110035017D01*
X158906495Y-109951404D01*
X158906497Y-109951403D01*
X158911996Y-109948625D01*
X159043146Y-109846160D01*
X159062991Y-109830655D01*
X159067847Y-109826861D01*
X159174349Y-109703477D01*
X159193049Y-109681813D01*
X159193050Y-109681811D01*
X159197078Y-109677145D01*
X159294769Y-109505179D01*
X159357197Y-109317513D01*
X159381985Y-109121295D01*
X159382380Y-109093000D01*
X159363080Y-108896167D01*
X159356532Y-108874477D01*
X159307697Y-108712731D01*
X159305916Y-108706831D01*
X159213066Y-108532204D01*
X159142709Y-108445938D01*
X159091960Y-108383713D01*
X159091957Y-108383710D01*
X159088065Y-108378938D01*
X159083316Y-108375009D01*
X158940425Y-108256799D01*
X158940421Y-108256797D01*
X158935675Y-108252870D01*
X158761701Y-108158802D01*
X158572768Y-108100318D01*
X158566643Y-108099674D01*
X158566642Y-108099674D01*
X158382204Y-108080289D01*
X158382202Y-108080289D01*
X158376075Y-108079645D01*
X158293576Y-108087153D01*
X158185251Y-108097011D01*
X158185248Y-108097012D01*
X158179112Y-108097570D01*
X158173206Y-108099308D01*
X158173202Y-108099309D01*
X158074821Y-108128264D01*
X157989381Y-108153410D01*
X157983923Y-108156263D01*
X157983919Y-108156265D01*
X157893147Y-108203720D01*
X157814110Y-108245040D01*
X157675236Y-108356698D01*
X157609616Y-108383793D01*
X157596286Y-108384500D01*
X156707876Y-108384500D01*
X156639755Y-108364498D01*
X156593262Y-108310842D01*
X156582477Y-108270796D01*
X156579109Y-108236445D01*
X156569080Y-108134167D01*
X156564591Y-108119297D01*
X156513697Y-107950731D01*
X156511916Y-107944831D01*
X156419066Y-107770204D01*
X156313057Y-107640224D01*
X156297960Y-107621713D01*
X156297957Y-107621710D01*
X156294065Y-107616938D01*
X156287724Y-107611692D01*
X156146425Y-107494799D01*
X156146421Y-107494797D01*
X156141675Y-107490870D01*
X155967701Y-107396802D01*
X155778768Y-107338318D01*
X155772643Y-107337674D01*
X155772642Y-107337674D01*
X155588204Y-107318289D01*
X155588202Y-107318289D01*
X155582075Y-107317645D01*
X155499576Y-107325153D01*
X155391251Y-107335011D01*
X155391248Y-107335012D01*
X155385112Y-107335570D01*
X155379206Y-107337308D01*
X155379202Y-107337309D01*
X155274076Y-107368249D01*
X155195381Y-107391410D01*
X155189923Y-107394263D01*
X155189919Y-107394265D01*
X155131600Y-107424754D01*
X155020110Y-107483040D01*
X154865975Y-107606968D01*
X154738846Y-107758474D01*
X154735879Y-107763872D01*
X154735875Y-107763877D01*
X154732397Y-107770204D01*
X154643567Y-107931787D01*
X154641706Y-107937654D01*
X154641705Y-107937656D01*
X154589528Y-108102140D01*
X154583765Y-108120306D01*
X154561719Y-108316851D01*
X123063500Y-108316851D01*
X123063500Y-102220851D01*
X136781719Y-102220851D01*
X136782235Y-102226995D01*
X136796876Y-102401351D01*
X136798268Y-102417934D01*
X136799967Y-102423858D01*
X136832523Y-102537394D01*
X136852783Y-102608050D01*
X136943187Y-102783956D01*
X137066035Y-102938953D01*
X137216650Y-103067136D01*
X137389294Y-103163624D01*
X137577392Y-103224740D01*
X137773777Y-103248158D01*
X137779912Y-103247686D01*
X137779914Y-103247686D01*
X137964830Y-103233457D01*
X137964834Y-103233456D01*
X137970972Y-103232984D01*
X138161463Y-103179798D01*
X138166967Y-103177018D01*
X138166969Y-103177017D01*
X138332495Y-103093404D01*
X138332497Y-103093403D01*
X138337996Y-103090625D01*
X138493847Y-102968861D01*
X138623078Y-102819145D01*
X138720769Y-102647179D01*
X138783197Y-102459513D01*
X138807985Y-102263295D01*
X138808380Y-102235000D01*
X138789080Y-102038167D01*
X138731916Y-101848831D01*
X138639066Y-101674204D01*
X138531857Y-101542753D01*
X138504303Y-101477321D01*
X138503500Y-101463117D01*
X138503500Y-94854851D01*
X143131719Y-94854851D01*
X143133566Y-94876846D01*
X143140353Y-94957668D01*
X143148268Y-95051934D01*
X143170906Y-95130881D01*
X143192521Y-95206261D01*
X143202783Y-95242050D01*
X143217241Y-95270182D01*
X143276039Y-95384589D01*
X143293187Y-95417956D01*
X143416035Y-95572953D01*
X143420728Y-95576947D01*
X143420729Y-95576948D01*
X143538864Y-95677488D01*
X143566650Y-95701136D01*
X143739294Y-95797624D01*
X143857437Y-95836010D01*
X143916041Y-95876083D01*
X143943679Y-95941479D01*
X143944500Y-95955843D01*
X143944500Y-98416483D01*
X143924498Y-98484604D01*
X143915021Y-98497473D01*
X143816846Y-98614474D01*
X143813879Y-98619872D01*
X143813875Y-98619877D01*
X143747047Y-98741438D01*
X143721567Y-98787787D01*
X143719706Y-98793654D01*
X143719705Y-98793656D01*
X143663627Y-98970436D01*
X143661765Y-98976306D01*
X143639719Y-99172851D01*
X143640235Y-99178995D01*
X143654849Y-99353030D01*
X143656268Y-99369934D01*
X143672379Y-99426120D01*
X143697428Y-99513474D01*
X143710783Y-99560050D01*
X143715253Y-99568748D01*
X143794221Y-99722401D01*
X143801187Y-99735956D01*
X143924035Y-99890953D01*
X143928728Y-99894947D01*
X143928729Y-99894948D01*
X144050315Y-99998425D01*
X144074650Y-100019136D01*
X144247294Y-100115624D01*
X144435392Y-100176740D01*
X144631777Y-100200158D01*
X144637912Y-100199686D01*
X144637914Y-100199686D01*
X144822830Y-100185457D01*
X144822834Y-100185456D01*
X144828972Y-100184984D01*
X145019463Y-100131798D01*
X145024967Y-100129018D01*
X145024969Y-100129017D01*
X145190495Y-100045404D01*
X145190497Y-100045403D01*
X145195996Y-100042625D01*
X145351847Y-99920861D01*
X145481078Y-99771145D01*
X145578769Y-99599179D01*
X145641197Y-99411513D01*
X145665985Y-99215295D01*
X145666380Y-99187000D01*
X145647080Y-98990167D01*
X145589916Y-98800831D01*
X145497066Y-98626204D01*
X145389857Y-98494753D01*
X145362303Y-98429321D01*
X145361500Y-98415117D01*
X145361500Y-95405911D01*
X145361792Y-95397342D01*
X145365209Y-95347223D01*
X145365209Y-95347219D01*
X145365725Y-95339647D01*
X145354736Y-95276685D01*
X145353777Y-95270182D01*
X145347015Y-95214302D01*
X145346102Y-95206758D01*
X145343416Y-95199649D01*
X145342784Y-95197078D01*
X145338324Y-95180772D01*
X145337549Y-95178204D01*
X145336242Y-95170716D01*
X145310561Y-95112212D01*
X145308069Y-95106105D01*
X145288173Y-95053452D01*
X145288173Y-95053451D01*
X145285487Y-95046344D01*
X145281184Y-95040083D01*
X145279947Y-95037717D01*
X145271720Y-95022937D01*
X145270369Y-95020652D01*
X145267315Y-95013695D01*
X145262695Y-95007675D01*
X145262692Y-95007669D01*
X145228421Y-94963009D01*
X145224541Y-94957668D01*
X145192664Y-94911285D01*
X145192661Y-94911282D01*
X145188357Y-94905019D01*
X145185153Y-94902164D01*
X145154783Y-94832319D01*
X145139682Y-94678302D01*
X145139681Y-94678298D01*
X145139080Y-94672167D01*
X145134809Y-94658019D01*
X145111037Y-94579284D01*
X145081916Y-94482831D01*
X144989066Y-94308204D01*
X144903593Y-94203404D01*
X144867960Y-94159713D01*
X144867957Y-94159710D01*
X144864065Y-94154938D01*
X144857724Y-94149692D01*
X144716425Y-94032799D01*
X144716421Y-94032797D01*
X144711675Y-94028870D01*
X144537701Y-93934802D01*
X144348768Y-93876318D01*
X144342643Y-93875674D01*
X144342642Y-93875674D01*
X144158204Y-93856289D01*
X144158202Y-93856289D01*
X144152075Y-93855645D01*
X144069576Y-93863153D01*
X143961251Y-93873011D01*
X143961248Y-93873012D01*
X143955112Y-93873570D01*
X143949206Y-93875308D01*
X143949202Y-93875309D01*
X143885845Y-93893956D01*
X143765381Y-93929410D01*
X143759923Y-93932263D01*
X143759919Y-93932265D01*
X143711826Y-93957408D01*
X143590110Y-94021040D01*
X143435975Y-94144968D01*
X143308846Y-94296474D01*
X143305879Y-94301872D01*
X143305875Y-94301877D01*
X143257003Y-94390776D01*
X143213567Y-94469787D01*
X143211706Y-94475654D01*
X143211705Y-94475656D01*
X143160034Y-94638543D01*
X143153765Y-94658306D01*
X143131719Y-94854851D01*
X138503500Y-94854851D01*
X138503500Y-94368538D01*
X138523502Y-94300417D01*
X138534118Y-94286207D01*
X138619054Y-94187807D01*
X138619055Y-94187806D01*
X138623078Y-94183145D01*
X138720769Y-94011179D01*
X138783197Y-93823513D01*
X138807985Y-93627295D01*
X138808380Y-93599000D01*
X138789080Y-93402167D01*
X138731916Y-93212831D01*
X138639066Y-93038204D01*
X138518826Y-92890775D01*
X138517960Y-92889713D01*
X138517957Y-92889710D01*
X138514065Y-92884938D01*
X138507724Y-92879692D01*
X138366425Y-92762799D01*
X138366421Y-92762797D01*
X138361675Y-92758870D01*
X138187701Y-92664802D01*
X137998768Y-92606318D01*
X137992643Y-92605674D01*
X137992642Y-92605674D01*
X137808204Y-92586289D01*
X137808202Y-92586289D01*
X137802075Y-92585645D01*
X137742091Y-92591104D01*
X137611251Y-92603011D01*
X137611248Y-92603012D01*
X137605112Y-92603570D01*
X137599206Y-92605308D01*
X137599202Y-92605309D01*
X137541818Y-92622198D01*
X137415381Y-92659410D01*
X137409923Y-92662263D01*
X137409919Y-92662265D01*
X137350674Y-92693238D01*
X137240110Y-92751040D01*
X137085975Y-92874968D01*
X136958846Y-93026474D01*
X136955879Y-93031872D01*
X136955875Y-93031877D01*
X136952397Y-93038204D01*
X136863567Y-93199787D01*
X136861706Y-93205654D01*
X136861705Y-93205656D01*
X136816940Y-93346774D01*
X136803765Y-93388306D01*
X136781719Y-93584851D01*
X136782235Y-93590995D01*
X136796640Y-93762542D01*
X136798268Y-93781934D01*
X136799967Y-93787858D01*
X136845152Y-93945436D01*
X136852783Y-93972050D01*
X136855602Y-93977535D01*
X136939666Y-94141104D01*
X136943187Y-94147956D01*
X137057154Y-94291747D01*
X137059246Y-94294387D01*
X137085883Y-94360197D01*
X137086500Y-94372651D01*
X137086500Y-101464483D01*
X137066498Y-101532604D01*
X137057021Y-101545473D01*
X136958846Y-101662474D01*
X136955879Y-101667872D01*
X136955875Y-101667877D01*
X136906785Y-101757173D01*
X136863567Y-101835787D01*
X136861706Y-101841654D01*
X136861705Y-101841656D01*
X136826856Y-101951513D01*
X136803765Y-102024306D01*
X136781719Y-102220851D01*
X123063500Y-102220851D01*
X123063500Y-98010695D01*
X125637251Y-98010695D01*
X125637548Y-98015848D01*
X125637548Y-98015851D01*
X125643011Y-98110590D01*
X125650110Y-98233715D01*
X125651247Y-98238761D01*
X125651248Y-98238767D01*
X125671119Y-98326939D01*
X125699222Y-98451639D01*
X125737461Y-98545811D01*
X125763423Y-98609747D01*
X125783266Y-98658616D01*
X125834019Y-98741438D01*
X125897291Y-98844688D01*
X125899987Y-98849088D01*
X126046250Y-99017938D01*
X126050230Y-99021242D01*
X126054981Y-99025187D01*
X126094616Y-99084090D01*
X126096113Y-99155071D01*
X126058997Y-99215593D01*
X126018725Y-99240112D01*
X125977913Y-99255412D01*
X125903295Y-99283385D01*
X125786739Y-99370739D01*
X125699385Y-99487295D01*
X125648255Y-99623684D01*
X125641500Y-99685866D01*
X125641500Y-101482134D01*
X125648255Y-101544316D01*
X125699385Y-101680705D01*
X125786739Y-101797261D01*
X125903295Y-101884615D01*
X126039684Y-101935745D01*
X126101866Y-101942500D01*
X127898134Y-101942500D01*
X127960316Y-101935745D01*
X128096705Y-101884615D01*
X128213261Y-101797261D01*
X128300615Y-101680705D01*
X128344798Y-101562848D01*
X128387440Y-101506084D01*
X128454001Y-101481384D01*
X128523350Y-101496592D01*
X128558017Y-101524580D01*
X128583218Y-101553673D01*
X128590580Y-101560883D01*
X128754434Y-101696916D01*
X128762881Y-101702831D01*
X128946756Y-101810279D01*
X128956042Y-101814729D01*
X129155001Y-101890703D01*
X129164899Y-101893579D01*
X129268250Y-101914606D01*
X129282299Y-101913410D01*
X129286000Y-101903065D01*
X129286000Y-100456000D01*
X129306002Y-100387879D01*
X129359658Y-100341386D01*
X129412000Y-100330000D01*
X129668000Y-100330000D01*
X129736121Y-100350002D01*
X129782614Y-100403658D01*
X129794000Y-100456000D01*
X129794000Y-101902517D01*
X129798064Y-101916359D01*
X129811478Y-101918393D01*
X129818184Y-101917534D01*
X129828262Y-101915392D01*
X130032255Y-101854191D01*
X130041842Y-101850433D01*
X130233095Y-101756739D01*
X130241945Y-101751464D01*
X130415328Y-101627792D01*
X130423200Y-101621139D01*
X130574052Y-101470812D01*
X130580730Y-101462965D01*
X130708022Y-101285819D01*
X130709279Y-101286722D01*
X130756373Y-101243362D01*
X130826311Y-101231145D01*
X130891751Y-101258678D01*
X130919579Y-101290511D01*
X130979987Y-101389088D01*
X131126250Y-101557938D01*
X131298126Y-101700632D01*
X131491000Y-101813338D01*
X131699692Y-101893030D01*
X131704760Y-101894061D01*
X131704763Y-101894062D01*
X131782777Y-101909934D01*
X131918597Y-101937567D01*
X131923772Y-101937757D01*
X131923774Y-101937757D01*
X132136673Y-101945564D01*
X132136677Y-101945564D01*
X132141837Y-101945753D01*
X132146957Y-101945097D01*
X132146959Y-101945097D01*
X132358288Y-101918025D01*
X132358289Y-101918025D01*
X132363416Y-101917368D01*
X132368449Y-101915858D01*
X132572429Y-101854661D01*
X132572434Y-101854659D01*
X132577384Y-101853174D01*
X132777994Y-101754896D01*
X132959860Y-101625173D01*
X133118096Y-101467489D01*
X133209109Y-101340831D01*
X133248453Y-101286077D01*
X133249640Y-101286930D01*
X133296960Y-101243362D01*
X133366897Y-101231145D01*
X133432338Y-101258678D01*
X133460166Y-101290511D01*
X133517694Y-101384388D01*
X133523777Y-101392699D01*
X133663213Y-101553667D01*
X133670580Y-101560883D01*
X133834434Y-101696916D01*
X133842881Y-101702831D01*
X134026756Y-101810279D01*
X134036042Y-101814729D01*
X134235001Y-101890703D01*
X134244899Y-101893579D01*
X134348250Y-101914606D01*
X134362299Y-101913410D01*
X134366000Y-101903065D01*
X134366000Y-101902517D01*
X134874000Y-101902517D01*
X134878064Y-101916359D01*
X134891478Y-101918393D01*
X134898184Y-101917534D01*
X134908262Y-101915392D01*
X135112255Y-101854191D01*
X135121842Y-101850433D01*
X135313095Y-101756739D01*
X135321945Y-101751464D01*
X135495328Y-101627792D01*
X135503200Y-101621139D01*
X135654052Y-101470812D01*
X135660730Y-101462965D01*
X135785003Y-101290020D01*
X135790313Y-101281183D01*
X135884670Y-101090267D01*
X135888469Y-101080672D01*
X135950377Y-100876910D01*
X135952555Y-100866837D01*
X135953986Y-100855962D01*
X135951775Y-100841778D01*
X135938617Y-100838000D01*
X134892115Y-100838000D01*
X134876876Y-100842475D01*
X134875671Y-100843865D01*
X134874000Y-100851548D01*
X134874000Y-101902517D01*
X134366000Y-101902517D01*
X134366000Y-100456000D01*
X134386002Y-100387879D01*
X134439658Y-100341386D01*
X134492000Y-100330000D01*
X135938344Y-100330000D01*
X135951875Y-100326027D01*
X135953180Y-100316947D01*
X135911214Y-100149875D01*
X135907894Y-100140124D01*
X135822972Y-99944814D01*
X135818105Y-99935739D01*
X135702426Y-99756926D01*
X135696136Y-99748757D01*
X135552806Y-99591240D01*
X135545273Y-99584215D01*
X135378139Y-99452222D01*
X135369556Y-99446520D01*
X135332602Y-99426120D01*
X135282631Y-99375687D01*
X135267859Y-99306245D01*
X135292975Y-99239839D01*
X135320327Y-99213232D01*
X135362017Y-99183495D01*
X135499860Y-99085173D01*
X135658096Y-98927489D01*
X135717594Y-98844689D01*
X135785435Y-98750277D01*
X135788453Y-98746077D01*
X135809320Y-98703857D01*
X135885136Y-98550453D01*
X135885137Y-98550451D01*
X135887430Y-98545811D01*
X135952370Y-98332069D01*
X135981529Y-98110590D01*
X135983156Y-98044000D01*
X135964852Y-97821361D01*
X135910431Y-97604702D01*
X135821354Y-97399840D01*
X135768809Y-97318618D01*
X135702822Y-97216617D01*
X135702820Y-97216614D01*
X135700014Y-97212277D01*
X135549670Y-97047051D01*
X135545619Y-97043852D01*
X135545615Y-97043848D01*
X135378414Y-96911800D01*
X135378410Y-96911798D01*
X135374359Y-96908598D01*
X135178789Y-96800638D01*
X135173920Y-96798914D01*
X135173916Y-96798912D01*
X134973087Y-96727795D01*
X134973083Y-96727794D01*
X134968212Y-96726069D01*
X134963119Y-96725162D01*
X134963116Y-96725161D01*
X134753373Y-96687800D01*
X134753367Y-96687799D01*
X134748284Y-96686894D01*
X134674452Y-96685992D01*
X134530081Y-96684228D01*
X134530079Y-96684228D01*
X134524911Y-96684165D01*
X134304091Y-96717955D01*
X134091756Y-96787357D01*
X133893607Y-96890507D01*
X133889474Y-96893610D01*
X133889471Y-96893612D01*
X133766868Y-96985665D01*
X133714965Y-97024635D01*
X133711393Y-97028373D01*
X133609134Y-97135381D01*
X133560629Y-97186138D01*
X133453201Y-97343621D01*
X133398293Y-97388621D01*
X133327768Y-97396792D01*
X133264021Y-97365538D01*
X133243324Y-97341054D01*
X133162822Y-97216617D01*
X133162820Y-97216614D01*
X133160014Y-97212277D01*
X133009670Y-97047051D01*
X133005619Y-97043852D01*
X133005615Y-97043848D01*
X132838414Y-96911800D01*
X132838410Y-96911798D01*
X132834359Y-96908598D01*
X132638789Y-96800638D01*
X132633920Y-96798914D01*
X132633916Y-96798912D01*
X132433087Y-96727795D01*
X132433083Y-96727794D01*
X132428212Y-96726069D01*
X132423119Y-96725162D01*
X132423116Y-96725161D01*
X132213373Y-96687800D01*
X132213367Y-96687799D01*
X132208284Y-96686894D01*
X132134452Y-96685992D01*
X131990081Y-96684228D01*
X131990079Y-96684228D01*
X131984911Y-96684165D01*
X131764091Y-96717955D01*
X131551756Y-96787357D01*
X131353607Y-96890507D01*
X131349474Y-96893610D01*
X131349471Y-96893612D01*
X131226868Y-96985665D01*
X131174965Y-97024635D01*
X131171393Y-97028373D01*
X131069134Y-97135381D01*
X131020629Y-97186138D01*
X130913201Y-97343621D01*
X130858293Y-97388621D01*
X130787768Y-97396792D01*
X130724021Y-97365538D01*
X130703324Y-97341054D01*
X130622822Y-97216617D01*
X130622820Y-97216614D01*
X130620014Y-97212277D01*
X130469670Y-97047051D01*
X130465619Y-97043852D01*
X130465615Y-97043848D01*
X130298414Y-96911800D01*
X130298410Y-96911798D01*
X130294359Y-96908598D01*
X130098789Y-96800638D01*
X130093920Y-96798914D01*
X130093916Y-96798912D01*
X129893087Y-96727795D01*
X129893083Y-96727794D01*
X129888212Y-96726069D01*
X129883119Y-96725162D01*
X129883116Y-96725161D01*
X129673373Y-96687800D01*
X129673367Y-96687799D01*
X129668284Y-96686894D01*
X129594452Y-96685992D01*
X129450081Y-96684228D01*
X129450079Y-96684228D01*
X129444911Y-96684165D01*
X129224091Y-96717955D01*
X129011756Y-96787357D01*
X128813607Y-96890507D01*
X128809474Y-96893610D01*
X128809471Y-96893612D01*
X128686868Y-96985665D01*
X128634965Y-97024635D01*
X128631393Y-97028373D01*
X128529134Y-97135381D01*
X128480629Y-97186138D01*
X128373201Y-97343621D01*
X128318293Y-97388621D01*
X128247768Y-97396792D01*
X128184021Y-97365538D01*
X128163324Y-97341054D01*
X128082822Y-97216617D01*
X128082820Y-97216614D01*
X128080014Y-97212277D01*
X127929670Y-97047051D01*
X127925619Y-97043852D01*
X127925615Y-97043848D01*
X127758414Y-96911800D01*
X127758410Y-96911798D01*
X127754359Y-96908598D01*
X127558789Y-96800638D01*
X127553920Y-96798914D01*
X127553916Y-96798912D01*
X127353087Y-96727795D01*
X127353083Y-96727794D01*
X127348212Y-96726069D01*
X127343119Y-96725162D01*
X127343116Y-96725161D01*
X127133373Y-96687800D01*
X127133367Y-96687799D01*
X127128284Y-96686894D01*
X127054452Y-96685992D01*
X126910081Y-96684228D01*
X126910079Y-96684228D01*
X126904911Y-96684165D01*
X126684091Y-96717955D01*
X126471756Y-96787357D01*
X126273607Y-96890507D01*
X126269474Y-96893610D01*
X126269471Y-96893612D01*
X126146868Y-96985665D01*
X126094965Y-97024635D01*
X126091393Y-97028373D01*
X125989134Y-97135381D01*
X125940629Y-97186138D01*
X125937720Y-97190403D01*
X125937714Y-97190411D01*
X125852556Y-97315249D01*
X125814743Y-97370680D01*
X125720688Y-97573305D01*
X125660989Y-97788570D01*
X125637251Y-98010695D01*
X123063500Y-98010695D01*
X123063500Y-83151695D01*
X123732251Y-83151695D01*
X123732548Y-83156848D01*
X123732548Y-83156851D01*
X123740444Y-83293787D01*
X123745110Y-83374715D01*
X123746247Y-83379761D01*
X123746248Y-83379767D01*
X123765455Y-83464991D01*
X123794222Y-83592639D01*
X123878266Y-83799616D01*
X123994987Y-83990088D01*
X124141250Y-84158938D01*
X124313126Y-84301632D01*
X124506000Y-84414338D01*
X124714692Y-84494030D01*
X124719760Y-84495061D01*
X124719763Y-84495062D01*
X124827017Y-84516883D01*
X124933597Y-84538567D01*
X124938772Y-84538757D01*
X124938774Y-84538757D01*
X125151673Y-84546564D01*
X125151677Y-84546564D01*
X125156837Y-84546753D01*
X125161957Y-84546097D01*
X125161959Y-84546097D01*
X125373288Y-84519025D01*
X125373289Y-84519025D01*
X125378416Y-84518368D01*
X125450709Y-84496679D01*
X125587429Y-84455661D01*
X125587434Y-84455659D01*
X125592384Y-84454174D01*
X125792994Y-84355896D01*
X125974860Y-84226173D01*
X126001042Y-84200083D01*
X126088635Y-84112795D01*
X126133096Y-84068489D01*
X126159463Y-84031796D01*
X126260435Y-83891277D01*
X126263453Y-83887077D01*
X126265782Y-83882366D01*
X126360136Y-83691453D01*
X126360137Y-83691451D01*
X126362430Y-83686811D01*
X126401551Y-83558050D01*
X126425865Y-83478023D01*
X126425865Y-83478021D01*
X126427370Y-83473069D01*
X126456529Y-83251590D01*
X126458156Y-83185000D01*
X126456993Y-83170851D01*
X145163719Y-83170851D01*
X145164907Y-83185000D01*
X145173937Y-83292533D01*
X145180268Y-83367934D01*
X145183661Y-83379767D01*
X145211836Y-83478023D01*
X145234783Y-83558050D01*
X145237602Y-83563535D01*
X145298412Y-83681857D01*
X145325187Y-83733956D01*
X145448035Y-83888953D01*
X145452728Y-83892947D01*
X145452729Y-83892948D01*
X145566869Y-83990088D01*
X145598650Y-84017136D01*
X145771294Y-84113624D01*
X145959392Y-84174740D01*
X146155777Y-84198158D01*
X146161912Y-84197686D01*
X146161914Y-84197686D01*
X146250059Y-84190903D01*
X146322015Y-84185366D01*
X146391468Y-84200083D01*
X146441941Y-84250013D01*
X146452800Y-84276264D01*
X146504783Y-84457550D01*
X146507602Y-84463035D01*
X146576029Y-84596178D01*
X146595187Y-84633456D01*
X146599010Y-84638280D01*
X146599013Y-84638284D01*
X146661246Y-84716803D01*
X146687883Y-84782613D01*
X146688500Y-84795067D01*
X146688500Y-104318071D01*
X146668498Y-104386192D01*
X146659030Y-104399051D01*
X146610846Y-104456474D01*
X146607879Y-104461872D01*
X146607875Y-104461877D01*
X146591583Y-104491513D01*
X146515567Y-104629787D01*
X146513706Y-104635654D01*
X146513705Y-104635656D01*
X146457627Y-104812436D01*
X146455765Y-104818306D01*
X146433719Y-105014851D01*
X146434907Y-105029000D01*
X146447899Y-105183717D01*
X146450268Y-105211934D01*
X146465480Y-105264984D01*
X146494919Y-105367649D01*
X146504783Y-105402050D01*
X146507602Y-105407535D01*
X146590987Y-105569783D01*
X146595187Y-105577956D01*
X146718035Y-105732953D01*
X146868650Y-105861136D01*
X147041294Y-105957624D01*
X147229392Y-106018740D01*
X147425777Y-106042158D01*
X147431912Y-106041686D01*
X147431914Y-106041686D01*
X147616830Y-106027457D01*
X147616834Y-106027456D01*
X147622972Y-106026984D01*
X147813463Y-105973798D01*
X147818967Y-105971018D01*
X147818969Y-105971017D01*
X147984495Y-105887404D01*
X147984497Y-105887403D01*
X147989996Y-105884625D01*
X148145847Y-105762861D01*
X148275078Y-105613145D01*
X148372769Y-105441179D01*
X148435197Y-105253513D01*
X148459985Y-105057295D01*
X148460380Y-105029000D01*
X148441080Y-104832167D01*
X148434532Y-104810477D01*
X148417162Y-104752947D01*
X148383916Y-104642831D01*
X148291066Y-104468204D01*
X148233857Y-104398059D01*
X148206303Y-104332627D01*
X148205500Y-104318423D01*
X148205500Y-104252851D01*
X170055719Y-104252851D01*
X170056235Y-104258995D01*
X170066916Y-104386192D01*
X170072268Y-104449934D01*
X170126783Y-104640050D01*
X170217187Y-104815956D01*
X170340035Y-104970953D01*
X170490650Y-105099136D01*
X170663294Y-105195624D01*
X170851392Y-105256740D01*
X171047777Y-105280158D01*
X171053912Y-105279686D01*
X171053914Y-105279686D01*
X171238830Y-105265457D01*
X171238834Y-105265456D01*
X171244972Y-105264984D01*
X171435463Y-105211798D01*
X171440967Y-105209018D01*
X171440969Y-105209017D01*
X171606495Y-105125404D01*
X171606497Y-105125403D01*
X171611996Y-105122625D01*
X171767847Y-105000861D01*
X171897078Y-104851145D01*
X171994769Y-104679179D01*
X172057197Y-104491513D01*
X172068800Y-104399669D01*
X177077001Y-104399669D01*
X177077371Y-104406490D01*
X177082895Y-104457352D01*
X177086521Y-104472604D01*
X177131676Y-104593054D01*
X177140214Y-104608649D01*
X177216715Y-104710724D01*
X177229276Y-104723285D01*
X177331351Y-104799786D01*
X177346946Y-104808324D01*
X177456337Y-104849333D01*
X177513101Y-104891975D01*
X177537801Y-104958536D01*
X177522594Y-105027885D01*
X177503201Y-105054366D01*
X177379590Y-105183717D01*
X177373104Y-105191727D01*
X177253098Y-105367649D01*
X177248000Y-105376623D01*
X177158338Y-105569783D01*
X177154775Y-105579470D01*
X177099389Y-105779183D01*
X177100912Y-105787607D01*
X177113292Y-105791000D01*
X178162885Y-105791000D01*
X178178124Y-105786525D01*
X178179329Y-105785135D01*
X178181000Y-105777452D01*
X178181000Y-103777115D01*
X178176525Y-103761876D01*
X178175135Y-103760671D01*
X178167452Y-103759000D01*
X177095116Y-103759000D01*
X177079877Y-103763475D01*
X177078672Y-103764865D01*
X177077001Y-103772548D01*
X177077001Y-104399669D01*
X172068800Y-104399669D01*
X172081985Y-104295295D01*
X172082380Y-104267000D01*
X172063080Y-104070167D01*
X172005916Y-103880831D01*
X171913066Y-103706204D01*
X171855857Y-103636059D01*
X171828303Y-103570627D01*
X171827500Y-103556423D01*
X171827500Y-103232885D01*
X177077000Y-103232885D01*
X177081475Y-103248124D01*
X177082865Y-103249329D01*
X177090548Y-103251000D01*
X178162885Y-103251000D01*
X178178124Y-103246525D01*
X178179329Y-103245135D01*
X178181000Y-103237452D01*
X178181000Y-102165116D01*
X178176525Y-102149877D01*
X178175135Y-102148672D01*
X178167452Y-102147001D01*
X177540331Y-102147001D01*
X177533510Y-102147371D01*
X177482648Y-102152895D01*
X177467396Y-102156521D01*
X177346946Y-102201676D01*
X177331351Y-102210214D01*
X177229276Y-102286715D01*
X177216715Y-102299276D01*
X177140214Y-102401351D01*
X177131676Y-102416946D01*
X177086522Y-102537394D01*
X177082895Y-102552649D01*
X177077369Y-102603514D01*
X177077000Y-102610328D01*
X177077000Y-103232885D01*
X171827500Y-103232885D01*
X171827500Y-102438610D01*
X171847502Y-102370489D01*
X171858119Y-102356279D01*
X171897078Y-102311145D01*
X171994769Y-102139179D01*
X172057197Y-101951513D01*
X172081985Y-101755295D01*
X172082380Y-101727000D01*
X172063080Y-101530167D01*
X172057284Y-101510968D01*
X172021576Y-101392699D01*
X172005916Y-101340831D01*
X171913066Y-101166204D01*
X171827593Y-101061404D01*
X171791960Y-101017713D01*
X171791957Y-101017710D01*
X171788065Y-101012938D01*
X171781724Y-101007692D01*
X171640425Y-100890799D01*
X171640421Y-100890797D01*
X171635675Y-100886870D01*
X171461701Y-100792802D01*
X171272768Y-100734318D01*
X171266643Y-100733674D01*
X171266642Y-100733674D01*
X171082204Y-100714289D01*
X171082202Y-100714289D01*
X171076075Y-100713645D01*
X170993576Y-100721153D01*
X170885251Y-100731011D01*
X170885248Y-100731012D01*
X170879112Y-100731570D01*
X170873206Y-100733308D01*
X170873202Y-100733309D01*
X170809845Y-100751956D01*
X170689381Y-100787410D01*
X170683923Y-100790263D01*
X170683919Y-100790265D01*
X170593147Y-100837720D01*
X170514110Y-100879040D01*
X170359975Y-101002968D01*
X170232846Y-101154474D01*
X170229879Y-101159872D01*
X170229875Y-101159877D01*
X170151095Y-101303180D01*
X170137567Y-101327787D01*
X170135706Y-101333654D01*
X170135705Y-101333656D01*
X170090132Y-101477321D01*
X170077765Y-101516306D01*
X170055719Y-101712851D01*
X170056235Y-101718995D01*
X170070895Y-101893579D01*
X170072268Y-101909934D01*
X170081606Y-101942500D01*
X170124066Y-102090573D01*
X170126783Y-102100050D01*
X170217187Y-102275956D01*
X170221010Y-102280780D01*
X170221013Y-102280784D01*
X170283246Y-102359303D01*
X170309883Y-102425113D01*
X170310500Y-102437567D01*
X170310500Y-103556071D01*
X170290498Y-103624192D01*
X170281030Y-103637051D01*
X170232846Y-103694474D01*
X170229879Y-103699872D01*
X170229875Y-103699877D01*
X170187414Y-103777115D01*
X170137567Y-103867787D01*
X170135706Y-103873654D01*
X170135705Y-103873656D01*
X170079627Y-104050436D01*
X170077765Y-104056306D01*
X170055719Y-104252851D01*
X148205500Y-104252851D01*
X148205500Y-100188851D01*
X159641719Y-100188851D01*
X159642907Y-100203000D01*
X159656205Y-100361361D01*
X159658268Y-100385934D01*
X159668436Y-100421393D01*
X159705513Y-100550695D01*
X159712783Y-100576050D01*
X159715602Y-100581535D01*
X159795059Y-100736140D01*
X159803187Y-100751956D01*
X159926035Y-100906953D01*
X159930728Y-100910947D01*
X159930729Y-100910948D01*
X160038853Y-101002968D01*
X160076650Y-101035136D01*
X160249294Y-101131624D01*
X160437392Y-101192740D01*
X160633777Y-101216158D01*
X160639912Y-101215686D01*
X160639914Y-101215686D01*
X160824830Y-101201457D01*
X160824834Y-101201456D01*
X160830972Y-101200984D01*
X161021463Y-101147798D01*
X161026967Y-101145018D01*
X161026969Y-101145017D01*
X161192495Y-101061404D01*
X161192497Y-101061403D01*
X161197996Y-101058625D01*
X161353847Y-100936861D01*
X161483078Y-100787145D01*
X161580769Y-100615179D01*
X161643197Y-100427513D01*
X161667985Y-100231295D01*
X161668380Y-100203000D01*
X161649080Y-100006167D01*
X161627817Y-99935739D01*
X161618836Y-99905993D01*
X161591916Y-99816831D01*
X161499066Y-99642204D01*
X161391857Y-99510753D01*
X161364303Y-99445321D01*
X161363500Y-99431117D01*
X161363500Y-97217929D01*
X161383502Y-97149808D01*
X161394976Y-97135924D01*
X161394347Y-97135381D01*
X161519549Y-96990333D01*
X161519550Y-96990331D01*
X161523578Y-96985665D01*
X161621269Y-96813699D01*
X161683697Y-96626033D01*
X161708485Y-96429815D01*
X161708880Y-96401520D01*
X161706657Y-96378851D01*
X169801719Y-96378851D01*
X169818268Y-96575934D01*
X169833480Y-96628984D01*
X169861814Y-96727795D01*
X169872783Y-96766050D01*
X169963187Y-96941956D01*
X170086035Y-97096953D01*
X170090728Y-97100947D01*
X170090729Y-97100948D01*
X170221541Y-97212277D01*
X170236650Y-97225136D01*
X170409294Y-97321624D01*
X170597392Y-97382740D01*
X170793777Y-97406158D01*
X170799912Y-97405686D01*
X170799914Y-97405686D01*
X170984830Y-97391457D01*
X170984834Y-97391456D01*
X170990972Y-97390984D01*
X171181463Y-97337798D01*
X171186967Y-97335018D01*
X171186969Y-97335017D01*
X171352495Y-97251404D01*
X171352497Y-97251403D01*
X171357996Y-97248625D01*
X171513847Y-97126861D01*
X171607489Y-97018376D01*
X171639049Y-96981813D01*
X171639050Y-96981811D01*
X171643078Y-96977145D01*
X171740769Y-96805179D01*
X171803197Y-96617513D01*
X171827985Y-96421295D01*
X171829221Y-96421451D01*
X171852140Y-96359685D01*
X171864033Y-96345937D01*
X172819543Y-95390428D01*
X172825793Y-95384589D01*
X172863664Y-95351552D01*
X172863665Y-95351551D01*
X172869385Y-95346561D01*
X172906136Y-95294271D01*
X172910028Y-95289029D01*
X172949476Y-95238718D01*
X172952600Y-95231799D01*
X172953988Y-95229507D01*
X172962357Y-95214835D01*
X172963622Y-95212475D01*
X172967990Y-95206261D01*
X172971571Y-95197078D01*
X172991202Y-95146725D01*
X172993759Y-95140642D01*
X173016918Y-95089352D01*
X173020045Y-95082427D01*
X173021430Y-95074954D01*
X173022234Y-95072388D01*
X173026855Y-95056165D01*
X173027520Y-95053573D01*
X173030282Y-95046491D01*
X173038622Y-94983139D01*
X173039654Y-94976623D01*
X173049911Y-94921281D01*
X173051295Y-94913814D01*
X173049164Y-94876846D01*
X173047709Y-94851620D01*
X173047500Y-94844367D01*
X173047500Y-83151695D01*
X177072251Y-83151695D01*
X177072548Y-83156848D01*
X177072548Y-83156851D01*
X177080444Y-83293787D01*
X177085110Y-83374715D01*
X177086247Y-83379761D01*
X177086248Y-83379767D01*
X177105455Y-83464991D01*
X177134222Y-83592639D01*
X177218266Y-83799616D01*
X177334987Y-83990088D01*
X177481250Y-84158938D01*
X177653126Y-84301632D01*
X177846000Y-84414338D01*
X178054692Y-84494030D01*
X178059760Y-84495061D01*
X178059763Y-84495062D01*
X178167017Y-84516883D01*
X178273597Y-84538567D01*
X178278772Y-84538757D01*
X178278774Y-84538757D01*
X178491673Y-84546564D01*
X178491677Y-84546564D01*
X178496837Y-84546753D01*
X178501957Y-84546097D01*
X178501959Y-84546097D01*
X178713288Y-84519025D01*
X178713289Y-84519025D01*
X178718416Y-84518368D01*
X178790709Y-84496679D01*
X178927429Y-84455661D01*
X178927434Y-84455659D01*
X178932384Y-84454174D01*
X179132994Y-84355896D01*
X179314860Y-84226173D01*
X179341042Y-84200083D01*
X179428635Y-84112795D01*
X179473096Y-84068489D01*
X179499463Y-84031796D01*
X179600435Y-83891277D01*
X179603453Y-83887077D01*
X179605782Y-83882366D01*
X179700136Y-83691453D01*
X179700137Y-83691451D01*
X179702430Y-83686811D01*
X179741551Y-83558050D01*
X179765865Y-83478023D01*
X179765865Y-83478021D01*
X179767370Y-83473069D01*
X179796529Y-83251590D01*
X179798156Y-83185000D01*
X179779852Y-82962361D01*
X179725431Y-82745702D01*
X179636354Y-82540840D01*
X179594731Y-82476500D01*
X179517822Y-82357617D01*
X179517820Y-82357614D01*
X179515014Y-82353277D01*
X179364670Y-82188051D01*
X179360619Y-82184852D01*
X179360615Y-82184848D01*
X179193414Y-82052800D01*
X179193410Y-82052798D01*
X179189359Y-82049598D01*
X179148053Y-82026796D01*
X179098084Y-81976364D01*
X179083312Y-81906921D01*
X179108428Y-81840516D01*
X179135780Y-81813909D01*
X179193585Y-81772677D01*
X179314860Y-81686173D01*
X179473096Y-81528489D01*
X179499509Y-81491732D01*
X179600435Y-81351277D01*
X179603453Y-81347077D01*
X179665668Y-81221195D01*
X179700136Y-81151453D01*
X179700137Y-81151451D01*
X179702430Y-81146811D01*
X179767370Y-80933069D01*
X179796529Y-80711590D01*
X179798156Y-80645000D01*
X179779852Y-80422361D01*
X179725431Y-80205702D01*
X179636354Y-80000840D01*
X179515014Y-79813277D01*
X179364670Y-79648051D01*
X179360619Y-79644852D01*
X179360615Y-79644848D01*
X179193414Y-79512800D01*
X179193410Y-79512798D01*
X179189359Y-79509598D01*
X179147569Y-79486529D01*
X179097598Y-79436097D01*
X179082826Y-79366654D01*
X179107942Y-79300248D01*
X179135294Y-79273641D01*
X179310328Y-79148792D01*
X179318200Y-79142139D01*
X179469052Y-78991812D01*
X179475730Y-78983965D01*
X179600003Y-78811020D01*
X179605313Y-78802183D01*
X179699670Y-78611267D01*
X179703469Y-78601672D01*
X179765377Y-78397910D01*
X179767555Y-78387837D01*
X179768986Y-78376962D01*
X179766775Y-78362778D01*
X179753617Y-78359000D01*
X177118225Y-78359000D01*
X177104694Y-78362973D01*
X177103257Y-78372966D01*
X177133565Y-78507446D01*
X177136645Y-78517275D01*
X177216770Y-78714603D01*
X177221413Y-78723794D01*
X177332694Y-78905388D01*
X177338777Y-78913699D01*
X177478213Y-79074667D01*
X177485580Y-79081883D01*
X177649434Y-79217916D01*
X177657881Y-79223831D01*
X177726969Y-79264203D01*
X177775693Y-79315842D01*
X177788764Y-79385625D01*
X177762033Y-79451396D01*
X177721584Y-79484752D01*
X177708607Y-79491507D01*
X177704474Y-79494610D01*
X177704471Y-79494612D01*
X177680247Y-79512800D01*
X177529965Y-79625635D01*
X177375629Y-79787138D01*
X177249743Y-79971680D01*
X177155688Y-80174305D01*
X177095989Y-80389570D01*
X177072251Y-80611695D01*
X177072548Y-80616848D01*
X177072548Y-80616851D01*
X177078011Y-80711590D01*
X177085110Y-80834715D01*
X177086247Y-80839761D01*
X177086248Y-80839767D01*
X177106119Y-80927939D01*
X177134222Y-81052639D01*
X177218266Y-81259616D01*
X177220965Y-81264020D01*
X177322254Y-81429309D01*
X177334987Y-81450088D01*
X177481250Y-81618938D01*
X177653126Y-81761632D01*
X177681404Y-81778156D01*
X177726445Y-81804476D01*
X177775169Y-81856114D01*
X177788240Y-81925897D01*
X177761509Y-81991669D01*
X177721055Y-82025027D01*
X177708607Y-82031507D01*
X177704474Y-82034610D01*
X177704471Y-82034612D01*
X177537832Y-82159728D01*
X177529965Y-82165635D01*
X177511605Y-82184848D01*
X177383326Y-82319084D01*
X177375629Y-82327138D01*
X177249743Y-82511680D01*
X177234003Y-82545590D01*
X177160023Y-82704967D01*
X177155688Y-82714305D01*
X177095989Y-82929570D01*
X177072251Y-83151695D01*
X173047500Y-83151695D01*
X173047500Y-82477312D01*
X173047792Y-82468742D01*
X173051209Y-82418624D01*
X173051209Y-82418620D01*
X173051725Y-82411048D01*
X173040738Y-82348097D01*
X173039776Y-82341575D01*
X173038546Y-82331411D01*
X173032102Y-82278158D01*
X173029419Y-82271057D01*
X173028778Y-82268448D01*
X173024315Y-82252138D01*
X173023550Y-82249602D01*
X173022243Y-82242116D01*
X172996556Y-82183600D01*
X172994065Y-82177496D01*
X172993848Y-82176920D01*
X172971487Y-82117744D01*
X172967183Y-82111481D01*
X172965946Y-82109115D01*
X172957701Y-82094303D01*
X172956368Y-82092049D01*
X172953315Y-82085095D01*
X172914413Y-82034398D01*
X172910541Y-82029068D01*
X172878661Y-81982680D01*
X172878656Y-81982675D01*
X172874357Y-81976419D01*
X172850249Y-81954939D01*
X172827830Y-81934965D01*
X172822554Y-81929984D01*
X172166322Y-81273752D01*
X172132296Y-81211440D01*
X172130018Y-81196953D01*
X172125557Y-81151453D01*
X172113880Y-81032367D01*
X172056716Y-80843031D01*
X171963866Y-80668404D01*
X171893509Y-80582138D01*
X171842760Y-80519913D01*
X171842757Y-80519910D01*
X171838865Y-80515138D01*
X171832524Y-80509892D01*
X171691225Y-80392999D01*
X171691221Y-80392997D01*
X171686475Y-80389070D01*
X171512501Y-80295002D01*
X171323568Y-80236518D01*
X171317443Y-80235874D01*
X171317442Y-80235874D01*
X171133004Y-80216489D01*
X171133002Y-80216489D01*
X171126875Y-80215845D01*
X171044376Y-80223353D01*
X170936051Y-80233211D01*
X170936048Y-80233212D01*
X170929912Y-80233770D01*
X170924006Y-80235508D01*
X170924002Y-80235509D01*
X170818876Y-80266449D01*
X170740181Y-80289610D01*
X170734723Y-80292463D01*
X170734719Y-80292465D01*
X170643947Y-80339920D01*
X170564910Y-80381240D01*
X170410775Y-80505168D01*
X170283646Y-80656674D01*
X170280679Y-80662072D01*
X170280675Y-80662077D01*
X170201895Y-80805380D01*
X170188367Y-80829987D01*
X170186506Y-80835854D01*
X170186505Y-80835856D01*
X170157295Y-80927939D01*
X170128565Y-81018506D01*
X170106519Y-81215051D01*
X170107035Y-81221195D01*
X170117216Y-81342438D01*
X170123068Y-81412134D01*
X170124767Y-81418058D01*
X170172026Y-81582870D01*
X170177583Y-81602250D01*
X170180402Y-81607735D01*
X170232414Y-81708938D01*
X170267987Y-81778156D01*
X170390835Y-81933153D01*
X170395528Y-81937147D01*
X170395529Y-81937148D01*
X170523521Y-82046077D01*
X170541450Y-82061336D01*
X170714094Y-82157824D01*
X170902192Y-82218940D01*
X171038206Y-82235159D01*
X171092052Y-82241580D01*
X171157325Y-82269508D01*
X171166229Y-82277599D01*
X171593596Y-82704967D01*
X171627621Y-82767279D01*
X171630500Y-82794062D01*
X171630500Y-94523340D01*
X171610498Y-94591461D01*
X171593595Y-94612435D01*
X170859069Y-95346961D01*
X170796757Y-95380987D01*
X170781394Y-95383347D01*
X170631251Y-95397011D01*
X170631248Y-95397012D01*
X170625112Y-95397570D01*
X170619206Y-95399308D01*
X170619202Y-95399309D01*
X170555845Y-95417956D01*
X170435381Y-95453410D01*
X170429923Y-95456263D01*
X170429919Y-95456265D01*
X170403165Y-95470252D01*
X170260110Y-95545040D01*
X170105975Y-95668968D01*
X169978846Y-95820474D01*
X169975879Y-95825872D01*
X169975875Y-95825877D01*
X169912323Y-95941479D01*
X169883567Y-95993787D01*
X169881706Y-95999654D01*
X169881705Y-95999656D01*
X169825627Y-96176436D01*
X169823765Y-96182306D01*
X169801719Y-96378851D01*
X161706657Y-96378851D01*
X161689580Y-96204687D01*
X161687596Y-96198114D01*
X161640818Y-96043179D01*
X161632416Y-96015351D01*
X161539566Y-95840724D01*
X161469209Y-95754458D01*
X161418460Y-95692233D01*
X161418457Y-95692230D01*
X161414565Y-95687458D01*
X161408224Y-95682212D01*
X161266925Y-95565319D01*
X161266921Y-95565317D01*
X161262175Y-95561390D01*
X161088201Y-95467322D01*
X160899268Y-95408838D01*
X160893143Y-95408194D01*
X160893142Y-95408194D01*
X160708704Y-95388809D01*
X160708702Y-95388809D01*
X160702575Y-95388165D01*
X160620076Y-95395673D01*
X160511751Y-95405531D01*
X160511748Y-95405532D01*
X160505612Y-95406090D01*
X160499706Y-95407828D01*
X160499702Y-95407829D01*
X160430270Y-95428264D01*
X160315881Y-95461930D01*
X160310423Y-95464783D01*
X160310419Y-95464785D01*
X160219647Y-95512240D01*
X160140610Y-95553560D01*
X159986475Y-95677488D01*
X159859346Y-95828994D01*
X159856379Y-95834392D01*
X159856375Y-95834397D01*
X159797507Y-95941479D01*
X159764067Y-96002307D01*
X159762206Y-96008174D01*
X159762205Y-96008176D01*
X159715419Y-96155664D01*
X159704265Y-96190826D01*
X159682219Y-96387371D01*
X159682735Y-96393515D01*
X159698053Y-96575934D01*
X159698768Y-96584454D01*
X159712369Y-96631885D01*
X159750840Y-96766050D01*
X159753283Y-96774570D01*
X159843687Y-96950476D01*
X159847513Y-96955303D01*
X159919246Y-97045809D01*
X159945883Y-97111619D01*
X159946500Y-97124073D01*
X159946500Y-99432483D01*
X159926498Y-99500604D01*
X159917021Y-99513473D01*
X159818846Y-99630474D01*
X159815879Y-99635872D01*
X159815875Y-99635877D01*
X159753985Y-99748457D01*
X159723567Y-99803787D01*
X159721706Y-99809654D01*
X159721705Y-99809656D01*
X159698914Y-99881502D01*
X159663765Y-99992306D01*
X159641719Y-100188851D01*
X148205500Y-100188851D01*
X148205500Y-93330851D01*
X156085719Y-93330851D01*
X156102268Y-93527934D01*
X156156783Y-93718050D01*
X156161405Y-93727043D01*
X156239059Y-93878140D01*
X156247187Y-93893956D01*
X156370035Y-94048953D01*
X156374728Y-94052947D01*
X156374729Y-94052948D01*
X156486364Y-94147956D01*
X156520650Y-94177136D01*
X156693294Y-94273624D01*
X156881392Y-94334740D01*
X157077777Y-94358158D01*
X157083912Y-94357686D01*
X157083914Y-94357686D01*
X157268830Y-94343457D01*
X157268834Y-94343456D01*
X157274972Y-94342984D01*
X157465463Y-94289798D01*
X157470967Y-94287018D01*
X157470969Y-94287017D01*
X157636495Y-94203404D01*
X157636497Y-94203403D01*
X157641996Y-94200625D01*
X157797847Y-94078861D01*
X157902682Y-93957408D01*
X157923049Y-93933813D01*
X157923050Y-93933811D01*
X157927078Y-93929145D01*
X158024769Y-93757179D01*
X158087197Y-93569513D01*
X158111985Y-93373295D01*
X158112380Y-93345000D01*
X158093080Y-93148167D01*
X158085299Y-93122393D01*
X158037697Y-92964731D01*
X158035916Y-92958831D01*
X157943066Y-92784204D01*
X157835857Y-92652753D01*
X157808303Y-92587321D01*
X157807500Y-92573117D01*
X157807500Y-86702843D01*
X157827502Y-86634722D01*
X157876690Y-86590377D01*
X157890495Y-86583404D01*
X157890497Y-86583403D01*
X157895996Y-86580625D01*
X158051847Y-86458861D01*
X158181078Y-86309145D01*
X158278769Y-86137179D01*
X158341197Y-85949513D01*
X158365985Y-85753295D01*
X158366380Y-85725000D01*
X158347080Y-85528167D01*
X158344784Y-85520560D01*
X158291697Y-85344731D01*
X158289916Y-85338831D01*
X158197066Y-85164204D01*
X158126709Y-85077938D01*
X158075960Y-85015713D01*
X158075957Y-85015710D01*
X158072065Y-85010938D01*
X158065724Y-85005692D01*
X157924425Y-84888799D01*
X157924421Y-84888797D01*
X157919675Y-84884870D01*
X157798738Y-84819479D01*
X157748330Y-84769485D01*
X157732953Y-84700174D01*
X157757489Y-84633552D01*
X157801857Y-84596178D01*
X157890498Y-84551402D01*
X157895996Y-84548625D01*
X157986121Y-84478211D01*
X158052116Y-84452033D01*
X158063695Y-84451500D01*
X159435769Y-84451500D01*
X159503890Y-84471502D01*
X159517432Y-84481546D01*
X159561470Y-84519025D01*
X159568650Y-84525136D01*
X159741294Y-84621624D01*
X159929392Y-84682740D01*
X160125777Y-84706158D01*
X160131912Y-84705686D01*
X160131914Y-84705686D01*
X160316830Y-84691457D01*
X160316834Y-84691456D01*
X160322972Y-84690984D01*
X160428898Y-84661409D01*
X160499887Y-84662356D01*
X160559096Y-84701532D01*
X160587725Y-84766501D01*
X160588780Y-84782768D01*
X160588780Y-86798690D01*
X160568778Y-86866811D01*
X160559302Y-86879679D01*
X160460880Y-86996974D01*
X160457913Y-87002372D01*
X160457909Y-87002377D01*
X160408678Y-87091930D01*
X160365601Y-87170287D01*
X160363740Y-87176154D01*
X160363739Y-87176156D01*
X160325589Y-87296421D01*
X160305799Y-87358806D01*
X160283753Y-87555351D01*
X160284941Y-87569500D01*
X160294913Y-87688251D01*
X160300302Y-87752434D01*
X160308286Y-87780276D01*
X160339971Y-87890775D01*
X160354817Y-87942550D01*
X160445221Y-88118456D01*
X160568069Y-88273453D01*
X160572762Y-88277447D01*
X160572763Y-88277448D01*
X160645704Y-88339525D01*
X160718684Y-88401636D01*
X160891328Y-88498124D01*
X161079426Y-88559240D01*
X161240120Y-88578402D01*
X161269287Y-88581880D01*
X161334560Y-88609808D01*
X161343463Y-88617899D01*
X162069638Y-89344074D01*
X162103664Y-89406386D01*
X162106543Y-89433169D01*
X162106543Y-92956526D01*
X162086541Y-93024647D01*
X162077064Y-93037516D01*
X161978889Y-93154517D01*
X161975922Y-93159915D01*
X161975918Y-93159920D01*
X161943587Y-93218731D01*
X161883610Y-93327830D01*
X161881749Y-93333697D01*
X161881748Y-93333699D01*
X161868076Y-93376799D01*
X161823808Y-93516349D01*
X161801762Y-93712894D01*
X161802278Y-93719038D01*
X161816966Y-93893956D01*
X161818311Y-93909977D01*
X161826270Y-93937732D01*
X161867826Y-94082655D01*
X161872826Y-94100093D01*
X161963230Y-94275999D01*
X162086078Y-94430996D01*
X162090771Y-94434990D01*
X162090772Y-94434991D01*
X162195008Y-94523702D01*
X162236693Y-94559179D01*
X162409337Y-94655667D01*
X162597435Y-94716783D01*
X162793820Y-94740201D01*
X162799955Y-94739729D01*
X162799957Y-94739729D01*
X162984873Y-94725500D01*
X162984877Y-94725499D01*
X162991015Y-94725027D01*
X163181506Y-94671841D01*
X163187010Y-94669061D01*
X163187012Y-94669060D01*
X163352538Y-94585447D01*
X163352540Y-94585446D01*
X163358039Y-94582668D01*
X163513890Y-94460904D01*
X163625081Y-94332088D01*
X163639092Y-94315856D01*
X163639093Y-94315854D01*
X163643121Y-94311188D01*
X163740812Y-94139222D01*
X163803240Y-93951556D01*
X163828028Y-93755338D01*
X163828423Y-93727043D01*
X163809123Y-93530210D01*
X163751959Y-93340874D01*
X163659109Y-93166247D01*
X163551900Y-93034796D01*
X163524346Y-92969364D01*
X163523543Y-92955160D01*
X163523543Y-89116431D01*
X163523835Y-89107861D01*
X163527253Y-89057733D01*
X163527253Y-89057729D01*
X163527769Y-89050157D01*
X163516779Y-88987190D01*
X163515818Y-88980674D01*
X163509057Y-88924807D01*
X163508145Y-88917267D01*
X163505462Y-88910166D01*
X163504821Y-88907557D01*
X163500352Y-88891224D01*
X163499591Y-88888704D01*
X163498286Y-88881226D01*
X163495234Y-88874273D01*
X163472602Y-88822713D01*
X163470111Y-88816608D01*
X163450218Y-88763965D01*
X163450216Y-88763961D01*
X163447530Y-88756853D01*
X163443227Y-88750592D01*
X163441990Y-88748226D01*
X163433763Y-88733446D01*
X163432412Y-88731161D01*
X163429358Y-88724204D01*
X163424738Y-88718184D01*
X163424735Y-88718178D01*
X163390464Y-88673518D01*
X163386584Y-88668177D01*
X163354704Y-88621789D01*
X163354699Y-88621784D01*
X163350400Y-88615528D01*
X163342882Y-88608829D01*
X163303873Y-88574074D01*
X163298597Y-88569093D01*
X162343556Y-87614052D01*
X162309530Y-87551740D01*
X162307252Y-87537253D01*
X162291715Y-87378801D01*
X162291114Y-87372667D01*
X162288394Y-87363656D01*
X162245236Y-87220713D01*
X162233950Y-87183331D01*
X162141100Y-87008704D01*
X162034137Y-86877554D01*
X162006583Y-86812123D01*
X162005780Y-86797919D01*
X162005780Y-83094192D01*
X162006072Y-83085622D01*
X162009489Y-83035504D01*
X162009489Y-83035500D01*
X162010005Y-83027928D01*
X161999018Y-82964977D01*
X161998056Y-82958455D01*
X161995072Y-82933793D01*
X161990382Y-82895038D01*
X161987699Y-82887937D01*
X161987058Y-82885328D01*
X161982595Y-82869018D01*
X161981830Y-82866482D01*
X161980523Y-82858996D01*
X161954836Y-82800480D01*
X161952345Y-82794376D01*
X161952227Y-82794062D01*
X161933953Y-82745702D01*
X161932453Y-82741732D01*
X161932452Y-82741731D01*
X161929767Y-82734624D01*
X161925463Y-82728361D01*
X161924226Y-82725995D01*
X161915981Y-82711183D01*
X161914648Y-82708929D01*
X161911595Y-82701975D01*
X161872693Y-82651278D01*
X161868821Y-82645948D01*
X161836941Y-82599560D01*
X161836936Y-82599555D01*
X161832637Y-82593299D01*
X161786109Y-82551844D01*
X161780834Y-82546864D01*
X161701522Y-82467552D01*
X161667496Y-82405240D01*
X161665218Y-82390753D01*
X161659951Y-82337040D01*
X161649080Y-82226167D01*
X161639411Y-82194140D01*
X161600222Y-82064341D01*
X161591916Y-82036831D01*
X161499066Y-81862204D01*
X161414346Y-81758327D01*
X161377960Y-81713713D01*
X161377957Y-81713710D01*
X161374065Y-81708938D01*
X161367724Y-81703692D01*
X161226425Y-81586799D01*
X161226421Y-81586797D01*
X161221675Y-81582870D01*
X161047701Y-81488802D01*
X160858768Y-81430318D01*
X160852643Y-81429674D01*
X160852642Y-81429674D01*
X160668204Y-81410289D01*
X160668202Y-81410289D01*
X160662075Y-81409645D01*
X160579576Y-81417153D01*
X160471251Y-81427011D01*
X160471248Y-81427012D01*
X160465112Y-81427570D01*
X160459206Y-81429308D01*
X160459202Y-81429309D01*
X160388601Y-81450088D01*
X160275381Y-81483410D01*
X160269923Y-81486263D01*
X160269919Y-81486265D01*
X160197181Y-81524292D01*
X160100110Y-81575040D01*
X159945975Y-81698968D01*
X159818846Y-81850474D01*
X159815879Y-81855872D01*
X159815875Y-81855877D01*
X159746166Y-81982680D01*
X159723567Y-82023787D01*
X159721706Y-82029654D01*
X159721705Y-82029656D01*
X159669528Y-82194140D01*
X159663765Y-82212306D01*
X159641719Y-82408851D01*
X159658268Y-82605934D01*
X159659965Y-82611853D01*
X159659966Y-82611857D01*
X159680942Y-82685009D01*
X159680491Y-82756004D01*
X159641729Y-82815485D01*
X159618198Y-82831401D01*
X159597570Y-82842185D01*
X159597567Y-82842187D01*
X159592110Y-82845040D01*
X159587312Y-82848898D01*
X159587310Y-82848899D01*
X159515424Y-82906697D01*
X159449802Y-82933793D01*
X159436472Y-82934500D01*
X158063712Y-82934500D01*
X157995591Y-82914498D01*
X157983397Y-82905585D01*
X157949432Y-82877487D01*
X157919675Y-82852870D01*
X157745701Y-82758802D01*
X157556768Y-82700318D01*
X157550643Y-82699674D01*
X157550642Y-82699674D01*
X157366204Y-82680289D01*
X157366202Y-82680289D01*
X157360075Y-82679645D01*
X157277576Y-82687153D01*
X157169251Y-82697011D01*
X157169248Y-82697012D01*
X157163112Y-82697570D01*
X157157206Y-82699308D01*
X157157202Y-82699309D01*
X157052076Y-82730249D01*
X156973381Y-82753410D01*
X156967923Y-82756263D01*
X156967919Y-82756265D01*
X156895621Y-82794062D01*
X156798110Y-82845040D01*
X156643975Y-82968968D01*
X156516846Y-83120474D01*
X156513879Y-83125872D01*
X156513875Y-83125877D01*
X156444765Y-83251590D01*
X156421567Y-83293787D01*
X156361765Y-83482306D01*
X156339719Y-83678851D01*
X156340235Y-83684995D01*
X156352635Y-83832664D01*
X156356268Y-83875934D01*
X156378906Y-83954881D01*
X156400961Y-84031796D01*
X156410783Y-84066050D01*
X156413602Y-84071535D01*
X156493076Y-84226173D01*
X156501187Y-84241956D01*
X156624035Y-84396953D01*
X156628728Y-84400947D01*
X156628729Y-84400948D01*
X156767470Y-84519025D01*
X156774650Y-84525136D01*
X156821647Y-84551402D01*
X156907903Y-84599609D01*
X156957608Y-84650303D01*
X156972016Y-84719822D01*
X156946552Y-84786095D01*
X156904808Y-84821258D01*
X156803576Y-84874182D01*
X156803573Y-84874184D01*
X156798110Y-84877040D01*
X156643975Y-85000968D01*
X156516846Y-85152474D01*
X156513879Y-85157872D01*
X156513875Y-85157877D01*
X156510397Y-85164204D01*
X156421567Y-85325787D01*
X156419706Y-85331654D01*
X156419705Y-85331656D01*
X156371522Y-85483547D01*
X156361765Y-85514306D01*
X156339719Y-85710851D01*
X156356268Y-85907934D01*
X156357967Y-85913858D01*
X156385619Y-86010293D01*
X156390500Y-86045023D01*
X156390500Y-92574483D01*
X156370498Y-92642604D01*
X156361021Y-92655473D01*
X156262846Y-92772474D01*
X156259879Y-92777872D01*
X156259875Y-92777877D01*
X156256397Y-92784204D01*
X156167567Y-92945787D01*
X156165706Y-92951654D01*
X156165705Y-92951656D01*
X156138468Y-93037517D01*
X156107765Y-93134306D01*
X156085719Y-93330851D01*
X148205500Y-93330851D01*
X148205500Y-84796110D01*
X148225502Y-84727989D01*
X148236119Y-84713779D01*
X148237961Y-84711645D01*
X148275078Y-84668645D01*
X148372769Y-84496679D01*
X148435197Y-84309013D01*
X148459985Y-84112795D01*
X148460380Y-84084500D01*
X148455212Y-84031795D01*
X148468471Y-83962049D01*
X148517334Y-83910541D01*
X148580611Y-83893500D01*
X148688088Y-83893500D01*
X148696658Y-83893792D01*
X148746776Y-83897209D01*
X148746780Y-83897209D01*
X148754352Y-83897725D01*
X148817306Y-83886738D01*
X148823820Y-83885777D01*
X148836991Y-83884184D01*
X148867039Y-83884158D01*
X148994570Y-83899365D01*
X149000705Y-83898893D01*
X149000707Y-83898893D01*
X149185623Y-83884664D01*
X149185627Y-83884663D01*
X149191765Y-83884191D01*
X149382256Y-83831005D01*
X149387760Y-83828225D01*
X149387762Y-83828224D01*
X149553288Y-83744611D01*
X149553290Y-83744610D01*
X149558789Y-83741832D01*
X149714640Y-83620068D01*
X149837250Y-83478023D01*
X149839842Y-83475020D01*
X149839843Y-83475018D01*
X149843871Y-83470352D01*
X149941562Y-83298386D01*
X150003990Y-83110720D01*
X150028778Y-82914502D01*
X150029173Y-82886207D01*
X150009873Y-82689374D01*
X150007105Y-82680204D01*
X149982827Y-82599795D01*
X149952709Y-82500038D01*
X149859859Y-82325411D01*
X149772603Y-82218425D01*
X149738753Y-82176920D01*
X149738750Y-82176917D01*
X149734858Y-82172145D01*
X149726989Y-82165635D01*
X149587218Y-82050006D01*
X149587214Y-82050004D01*
X149582468Y-82046077D01*
X149408494Y-81952009D01*
X149219561Y-81893525D01*
X149213436Y-81892881D01*
X149213435Y-81892881D01*
X149028997Y-81873496D01*
X149028995Y-81873496D01*
X149022868Y-81872852D01*
X148940369Y-81880360D01*
X148832044Y-81890218D01*
X148832041Y-81890219D01*
X148825905Y-81890777D01*
X148819999Y-81892515D01*
X148819995Y-81892516D01*
X148737495Y-81916797D01*
X148636174Y-81946617D01*
X148630716Y-81949470D01*
X148630712Y-81949472D01*
X148579168Y-81976419D01*
X148460903Y-82038247D01*
X148306768Y-82162175D01*
X148179639Y-82313681D01*
X148176672Y-82319079D01*
X148176668Y-82319084D01*
X148126027Y-82411201D01*
X148075681Y-82461260D01*
X148015612Y-82476500D01*
X146948151Y-82476500D01*
X146880030Y-82456498D01*
X146867836Y-82447585D01*
X146748425Y-82348799D01*
X146748421Y-82348797D01*
X146743675Y-82344870D01*
X146569701Y-82250802D01*
X146380768Y-82192318D01*
X146374643Y-82191674D01*
X146374642Y-82191674D01*
X146190204Y-82172289D01*
X146190202Y-82172289D01*
X146184075Y-82171645D01*
X146101576Y-82179153D01*
X145993251Y-82189011D01*
X145993248Y-82189012D01*
X145987112Y-82189570D01*
X145981206Y-82191308D01*
X145981202Y-82191309D01*
X145887320Y-82218940D01*
X145797381Y-82245410D01*
X145791923Y-82248263D01*
X145791919Y-82248265D01*
X145701147Y-82295720D01*
X145622110Y-82337040D01*
X145467975Y-82460968D01*
X145340846Y-82612474D01*
X145337879Y-82617872D01*
X145337875Y-82617877D01*
X145284864Y-82714305D01*
X145245567Y-82785787D01*
X145243706Y-82791654D01*
X145243705Y-82791656D01*
X145191146Y-82957342D01*
X145185765Y-82974306D01*
X145163719Y-83170851D01*
X126456993Y-83170851D01*
X126439852Y-82962361D01*
X126385431Y-82745702D01*
X126296354Y-82540840D01*
X126254731Y-82476500D01*
X126177822Y-82357617D01*
X126177820Y-82357614D01*
X126175014Y-82353277D01*
X126024670Y-82188051D01*
X126020619Y-82184852D01*
X126020615Y-82184848D01*
X125853414Y-82052800D01*
X125853410Y-82052798D01*
X125849359Y-82049598D01*
X125808053Y-82026796D01*
X125758084Y-81976364D01*
X125743312Y-81906921D01*
X125768428Y-81840516D01*
X125795780Y-81813909D01*
X125853585Y-81772677D01*
X125974860Y-81686173D01*
X126133096Y-81528489D01*
X126159509Y-81491732D01*
X126260435Y-81351277D01*
X126263453Y-81347077D01*
X126325668Y-81221195D01*
X126360136Y-81151453D01*
X126360137Y-81151451D01*
X126362430Y-81146811D01*
X126427370Y-80933069D01*
X126456529Y-80711590D01*
X126458156Y-80645000D01*
X126439852Y-80422361D01*
X126385431Y-80205702D01*
X126296354Y-80000840D01*
X126175014Y-79813277D01*
X126024670Y-79648051D01*
X126020619Y-79644852D01*
X126020615Y-79644848D01*
X125853414Y-79512800D01*
X125853410Y-79512798D01*
X125849359Y-79509598D01*
X125807569Y-79486529D01*
X125757598Y-79436097D01*
X125742826Y-79366654D01*
X125767942Y-79300248D01*
X125795294Y-79273641D01*
X125970328Y-79148792D01*
X125978200Y-79142139D01*
X126129052Y-78991812D01*
X126135730Y-78983965D01*
X126260003Y-78811020D01*
X126265313Y-78802183D01*
X126359670Y-78611267D01*
X126363469Y-78601672D01*
X126425377Y-78397910D01*
X126427555Y-78387837D01*
X126428986Y-78376962D01*
X126426775Y-78362778D01*
X126413617Y-78359000D01*
X123778225Y-78359000D01*
X123764694Y-78362973D01*
X123763257Y-78372966D01*
X123793565Y-78507446D01*
X123796645Y-78517275D01*
X123876770Y-78714603D01*
X123881413Y-78723794D01*
X123992694Y-78905388D01*
X123998777Y-78913699D01*
X124138213Y-79074667D01*
X124145580Y-79081883D01*
X124309434Y-79217916D01*
X124317881Y-79223831D01*
X124386969Y-79264203D01*
X124435693Y-79315842D01*
X124448764Y-79385625D01*
X124422033Y-79451396D01*
X124381584Y-79484752D01*
X124368607Y-79491507D01*
X124364474Y-79494610D01*
X124364471Y-79494612D01*
X124340247Y-79512800D01*
X124189965Y-79625635D01*
X124035629Y-79787138D01*
X123909743Y-79971680D01*
X123815688Y-80174305D01*
X123755989Y-80389570D01*
X123732251Y-80611695D01*
X123732548Y-80616848D01*
X123732548Y-80616851D01*
X123738011Y-80711590D01*
X123745110Y-80834715D01*
X123746247Y-80839761D01*
X123746248Y-80839767D01*
X123766119Y-80927939D01*
X123794222Y-81052639D01*
X123878266Y-81259616D01*
X123880965Y-81264020D01*
X123982254Y-81429309D01*
X123994987Y-81450088D01*
X124141250Y-81618938D01*
X124313126Y-81761632D01*
X124341404Y-81778156D01*
X124386445Y-81804476D01*
X124435169Y-81856114D01*
X124448240Y-81925897D01*
X124421509Y-81991669D01*
X124381055Y-82025027D01*
X124368607Y-82031507D01*
X124364474Y-82034610D01*
X124364471Y-82034612D01*
X124197832Y-82159728D01*
X124189965Y-82165635D01*
X124171605Y-82184848D01*
X124043326Y-82319084D01*
X124035629Y-82327138D01*
X123909743Y-82511680D01*
X123894003Y-82545590D01*
X123820023Y-82704967D01*
X123815688Y-82714305D01*
X123755989Y-82929570D01*
X123732251Y-83151695D01*
X123063500Y-83151695D01*
X123063500Y-76459669D01*
X123737001Y-76459669D01*
X123737371Y-76466490D01*
X123742895Y-76517352D01*
X123746521Y-76532604D01*
X123791676Y-76653054D01*
X123800214Y-76668649D01*
X123876715Y-76770724D01*
X123889276Y-76783285D01*
X123991351Y-76859786D01*
X124006946Y-76868324D01*
X124116337Y-76909333D01*
X124173101Y-76951975D01*
X124197801Y-77018536D01*
X124182594Y-77087885D01*
X124163201Y-77114366D01*
X124039590Y-77243717D01*
X124033104Y-77251727D01*
X123913098Y-77427649D01*
X123908000Y-77436623D01*
X123818338Y-77629783D01*
X123814775Y-77639470D01*
X123759389Y-77839183D01*
X123760912Y-77847607D01*
X123773292Y-77851000D01*
X124822885Y-77851000D01*
X124838124Y-77846525D01*
X124839329Y-77845135D01*
X124841000Y-77837452D01*
X124841000Y-77832885D01*
X125349000Y-77832885D01*
X125353475Y-77848124D01*
X125354865Y-77849329D01*
X125362548Y-77851000D01*
X126413344Y-77851000D01*
X126426875Y-77847027D01*
X126428180Y-77837947D01*
X126386214Y-77670875D01*
X126382894Y-77661124D01*
X126297972Y-77465814D01*
X126293105Y-77456739D01*
X126177426Y-77277926D01*
X126171136Y-77269757D01*
X126026931Y-77111279D01*
X125995879Y-77047433D01*
X126004273Y-76976934D01*
X126049450Y-76922166D01*
X126075894Y-76908497D01*
X126183054Y-76868324D01*
X126198649Y-76859786D01*
X126300724Y-76783285D01*
X126313285Y-76770724D01*
X126389786Y-76668649D01*
X126398324Y-76653054D01*
X126443478Y-76532606D01*
X126447105Y-76517351D01*
X126452631Y-76466486D01*
X126453000Y-76459672D01*
X126453000Y-76459669D01*
X177077001Y-76459669D01*
X177077371Y-76466490D01*
X177082895Y-76517352D01*
X177086521Y-76532604D01*
X177131676Y-76653054D01*
X177140214Y-76668649D01*
X177216715Y-76770724D01*
X177229276Y-76783285D01*
X177331351Y-76859786D01*
X177346946Y-76868324D01*
X177456337Y-76909333D01*
X177513101Y-76951975D01*
X177537801Y-77018536D01*
X177522594Y-77087885D01*
X177503201Y-77114366D01*
X177379590Y-77243717D01*
X177373104Y-77251727D01*
X177253098Y-77427649D01*
X177248000Y-77436623D01*
X177158338Y-77629783D01*
X177154775Y-77639470D01*
X177099389Y-77839183D01*
X177100912Y-77847607D01*
X177113292Y-77851000D01*
X178162885Y-77851000D01*
X178178124Y-77846525D01*
X178179329Y-77845135D01*
X178181000Y-77837452D01*
X178181000Y-77832885D01*
X178689000Y-77832885D01*
X178693475Y-77848124D01*
X178694865Y-77849329D01*
X178702548Y-77851000D01*
X179753344Y-77851000D01*
X179766875Y-77847027D01*
X179768180Y-77837947D01*
X179726214Y-77670875D01*
X179722894Y-77661124D01*
X179637972Y-77465814D01*
X179633105Y-77456739D01*
X179517426Y-77277926D01*
X179511136Y-77269757D01*
X179366931Y-77111279D01*
X179335879Y-77047433D01*
X179344273Y-76976934D01*
X179389450Y-76922166D01*
X179415894Y-76908497D01*
X179523054Y-76868324D01*
X179538649Y-76859786D01*
X179640724Y-76783285D01*
X179653285Y-76770724D01*
X179729786Y-76668649D01*
X179738324Y-76653054D01*
X179783478Y-76532606D01*
X179787105Y-76517351D01*
X179792631Y-76466486D01*
X179793000Y-76459672D01*
X179793000Y-75837115D01*
X179788525Y-75821876D01*
X179787135Y-75820671D01*
X179779452Y-75819000D01*
X178707115Y-75819000D01*
X178691876Y-75823475D01*
X178690671Y-75824865D01*
X178689000Y-75832548D01*
X178689000Y-77832885D01*
X178181000Y-77832885D01*
X178181000Y-75837115D01*
X178176525Y-75821876D01*
X178175135Y-75820671D01*
X178167452Y-75819000D01*
X177095116Y-75819000D01*
X177079877Y-75823475D01*
X177078672Y-75824865D01*
X177077001Y-75832548D01*
X177077001Y-76459669D01*
X126453000Y-76459669D01*
X126453000Y-75837115D01*
X126448525Y-75821876D01*
X126447135Y-75820671D01*
X126439452Y-75819000D01*
X125367115Y-75819000D01*
X125351876Y-75823475D01*
X125350671Y-75824865D01*
X125349000Y-75832548D01*
X125349000Y-77832885D01*
X124841000Y-77832885D01*
X124841000Y-75837115D01*
X124836525Y-75821876D01*
X124835135Y-75820671D01*
X124827452Y-75819000D01*
X123755116Y-75819000D01*
X123739877Y-75823475D01*
X123738672Y-75824865D01*
X123737001Y-75832548D01*
X123737001Y-76459669D01*
X123063500Y-76459669D01*
X123063500Y-75292885D01*
X123737000Y-75292885D01*
X123741475Y-75308124D01*
X123742865Y-75309329D01*
X123750548Y-75311000D01*
X124822885Y-75311000D01*
X124838124Y-75306525D01*
X124839329Y-75305135D01*
X124841000Y-75297452D01*
X124841000Y-75292885D01*
X125349000Y-75292885D01*
X125353475Y-75308124D01*
X125354865Y-75309329D01*
X125362548Y-75311000D01*
X126434884Y-75311000D01*
X126450123Y-75306525D01*
X126451328Y-75305135D01*
X126452999Y-75297452D01*
X126452999Y-75292885D01*
X177077000Y-75292885D01*
X177081475Y-75308124D01*
X177082865Y-75309329D01*
X177090548Y-75311000D01*
X178162885Y-75311000D01*
X178178124Y-75306525D01*
X178179329Y-75305135D01*
X178181000Y-75297452D01*
X178181000Y-75292885D01*
X178689000Y-75292885D01*
X178693475Y-75308124D01*
X178694865Y-75309329D01*
X178702548Y-75311000D01*
X179774884Y-75311000D01*
X179790123Y-75306525D01*
X179791328Y-75305135D01*
X179792999Y-75297452D01*
X179792999Y-74670331D01*
X179792629Y-74663510D01*
X179787105Y-74612648D01*
X179783479Y-74597396D01*
X179738324Y-74476946D01*
X179729786Y-74461351D01*
X179653285Y-74359276D01*
X179640724Y-74346715D01*
X179538649Y-74270214D01*
X179523054Y-74261676D01*
X179402606Y-74216522D01*
X179387351Y-74212895D01*
X179336486Y-74207369D01*
X179329672Y-74207000D01*
X178707115Y-74207000D01*
X178691876Y-74211475D01*
X178690671Y-74212865D01*
X178689000Y-74220548D01*
X178689000Y-75292885D01*
X178181000Y-75292885D01*
X178181000Y-74225116D01*
X178176525Y-74209877D01*
X178175135Y-74208672D01*
X178167452Y-74207001D01*
X177540331Y-74207001D01*
X177533510Y-74207371D01*
X177482648Y-74212895D01*
X177467396Y-74216521D01*
X177346946Y-74261676D01*
X177331351Y-74270214D01*
X177229276Y-74346715D01*
X177216715Y-74359276D01*
X177140214Y-74461351D01*
X177131676Y-74476946D01*
X177086522Y-74597394D01*
X177082895Y-74612649D01*
X177077369Y-74663514D01*
X177077000Y-74670328D01*
X177077000Y-75292885D01*
X126452999Y-75292885D01*
X126452999Y-74670331D01*
X126452629Y-74663510D01*
X126447105Y-74612648D01*
X126443479Y-74597396D01*
X126398324Y-74476946D01*
X126389786Y-74461351D01*
X126313285Y-74359276D01*
X126300724Y-74346715D01*
X126198649Y-74270214D01*
X126183054Y-74261676D01*
X126062606Y-74216522D01*
X126047351Y-74212895D01*
X125996486Y-74207369D01*
X125989672Y-74207000D01*
X125367115Y-74207000D01*
X125351876Y-74211475D01*
X125350671Y-74212865D01*
X125349000Y-74220548D01*
X125349000Y-75292885D01*
X124841000Y-75292885D01*
X124841000Y-74225116D01*
X124836525Y-74209877D01*
X124835135Y-74208672D01*
X124827452Y-74207001D01*
X124200331Y-74207001D01*
X124193510Y-74207371D01*
X124142648Y-74212895D01*
X124127396Y-74216521D01*
X124006946Y-74261676D01*
X123991351Y-74270214D01*
X123889276Y-74346715D01*
X123876715Y-74359276D01*
X123800214Y-74461351D01*
X123791676Y-74476946D01*
X123746522Y-74597394D01*
X123742895Y-74612649D01*
X123737369Y-74663514D01*
X123737000Y-74670328D01*
X123737000Y-75292885D01*
X123063500Y-75292885D01*
X123063500Y-73659500D01*
X123083502Y-73591379D01*
X123137158Y-73544886D01*
X123189500Y-73533500D01*
X180340500Y-73533500D01*
X180408621Y-73553502D01*
G37*
G04 #@! TD.AperFunction*
M02*
