M48
; DRILL file {KiCad 6.0.5+dfsg-1~bpo11+1} date Mon Aug  8 19:40:30 2022
; FORMAT={-:-/ absolute / metric / decimal}
; #@! TF.CreationDate,2022-08-08T19:40:30+00:00
; #@! TF.GenerationSoftware,Kicad,Pcbnew,6.0.5+dfsg-1~bpo11+1
; #@! TF.FileFunction,Plated,1,2,PTH
FMAT,2
METRIC
; #@! TA.AperFunction,Plated,PTH,ViaDrill
T1C0.400
; #@! TA.AperFunction,Plated,PTH,ViaDrill
T2C0.500
; #@! TA.AperFunction,Plated,PTH,ComponentDrill
T3C0.800
; #@! TA.AperFunction,Plated,PTH,ComponentDrill
T4C1.000
%
G90
G05
T1
X166.345Y-115.087
X170.866Y-111.836
T2
X137.795Y-93.599
X137.795Y-102.235
X142.367Y-93.599
X144.145Y-94.869
X144.653Y-99.187
X144.653Y-101.473
X145.161Y-78.867
X145.923Y-92.583
X146.177Y-83.185
X147.447Y-84.084
X147.447Y-105.029
X149.016Y-82.886
X149.987Y-108.991
X149.987Y-118.288
X152.527Y-119.761
X153.035Y-83.693
X153.035Y-92.837
X153.035Y-117.983
X154.305Y-109.347
X155.575Y-108.331
X157.099Y-93.345
X157.353Y-83.693
X157.353Y-85.725
X158.369Y-109.093
X160.147Y-83.693
X160.655Y-82.423
X160.655Y-100.203
X160.655Y-118.237
X160.695Y-96.402
X161.163Y-108.839
X161.297Y-87.569
X162.815Y-93.727
X163.957Y-109.601
X164.465Y-113.157
X164.465Y-115.122
X165.269Y-117.729
X165.735Y-96.393
X165.76Y-80.975
X168.783Y-103.759
X170.815Y-83.693
X170.815Y-92.837
X170.815Y-96.393
X171.069Y-101.727
X171.069Y-104.267
X171.12Y-81.229
X171.577Y-121.539
X174.371Y-87.757
X174.625Y-111.125
X174.625Y-120.269
X178.435Y-95.631
T3
X130.683Y-113.665
X130.683Y-116.205
X130.683Y-118.745
X137.541Y-113.665
X137.541Y-116.205
X137.541Y-118.745
X144.399Y-113.665
X144.399Y-116.205
X144.399Y-118.745
X177.165Y-88.345
X177.165Y-93.345
T4
X125.095Y-75.565
X125.095Y-78.105
X125.095Y-80.645
X125.095Y-83.185
X125.095Y-113.665
X125.095Y-116.205
X125.095Y-118.745
X125.095Y-121.285
X127.0Y-98.044
X127.0Y-100.584
X129.54Y-98.044
X129.54Y-100.584
X132.08Y-98.044
X132.08Y-100.584
X134.62Y-98.044
X134.62Y-100.584
X178.435Y-75.565
X178.435Y-78.105
X178.435Y-80.645
X178.435Y-83.185
X178.435Y-103.505
X178.435Y-106.045
X178.435Y-108.585
X178.435Y-111.125
X178.435Y-113.665
X178.435Y-116.205
X178.435Y-118.745
X178.435Y-121.285
T0
M30
