G04 #@! TF.GenerationSoftware,KiCad,Pcbnew,6.0.5+dfsg-1~bpo11+1*
G04 #@! TF.CreationDate,2022-08-08T19:40:30+00:00*
G04 #@! TF.ProjectId,late_MS20_VCF_plug_in_board,6c617465-5f4d-4533-9230-5f5643465f70,0.1*
G04 #@! TF.SameCoordinates,Original*
G04 #@! TF.FileFunction,Legend,Bot*
G04 #@! TF.FilePolarity,Positive*
%FSLAX46Y46*%
G04 Gerber Fmt 4.6, Leading zero omitted, Abs format (unit mm)*
G04 Created by KiCad (PCBNEW 6.0.5+dfsg-1~bpo11+1) date 2022-08-08 19:40:30*
%MOMM*%
%LPD*%
G01*
G04 APERTURE LIST*
%ADD10C,0.150000*%
%ADD11C,0.120000*%
%ADD12C,1.542000*%
%ADD13C,1.702000*%
%ADD14O,1.802000X1.802000*%
G04 APERTURE END LIST*
D10*
X175515014Y-75405780D02*
X175991204Y-75405780D01*
X175991204Y-74405780D01*
X174753109Y-75405780D02*
X174753109Y-74881971D01*
X174800728Y-74786733D01*
X174895966Y-74739114D01*
X175086442Y-74739114D01*
X175181680Y-74786733D01*
X174753109Y-75358161D02*
X174848347Y-75405780D01*
X175086442Y-75405780D01*
X175181680Y-75358161D01*
X175229300Y-75262923D01*
X175229300Y-75167685D01*
X175181680Y-75072447D01*
X175086442Y-75024828D01*
X174848347Y-75024828D01*
X174753109Y-74977209D01*
X174419776Y-74739114D02*
X174038823Y-74739114D01*
X174276919Y-74405780D02*
X174276919Y-75262923D01*
X174229300Y-75358161D01*
X174134061Y-75405780D01*
X174038823Y-75405780D01*
X173324538Y-75358161D02*
X173419776Y-75405780D01*
X173610252Y-75405780D01*
X173705490Y-75358161D01*
X173753109Y-75262923D01*
X173753109Y-74881971D01*
X173705490Y-74786733D01*
X173610252Y-74739114D01*
X173419776Y-74739114D01*
X173324538Y-74786733D01*
X173276919Y-74881971D01*
X173276919Y-74977209D01*
X173753109Y-75072447D01*
X172086442Y-75405780D02*
X172086442Y-74405780D01*
X171753109Y-75120066D01*
X171419776Y-74405780D01*
X171419776Y-75405780D01*
X170991204Y-75358161D02*
X170848347Y-75405780D01*
X170610252Y-75405780D01*
X170515014Y-75358161D01*
X170467395Y-75310542D01*
X170419776Y-75215304D01*
X170419776Y-75120066D01*
X170467395Y-75024828D01*
X170515014Y-74977209D01*
X170610252Y-74929590D01*
X170800728Y-74881971D01*
X170895966Y-74834352D01*
X170943585Y-74786733D01*
X170991204Y-74691495D01*
X170991204Y-74596257D01*
X170943585Y-74501019D01*
X170895966Y-74453400D01*
X170800728Y-74405780D01*
X170562633Y-74405780D01*
X170419776Y-74453400D01*
X170038823Y-74501019D02*
X169991204Y-74453400D01*
X169895966Y-74405780D01*
X169657871Y-74405780D01*
X169562633Y-74453400D01*
X169515014Y-74501019D01*
X169467395Y-74596257D01*
X169467395Y-74691495D01*
X169515014Y-74834352D01*
X170086442Y-75405780D01*
X169467395Y-75405780D01*
X168848347Y-74405780D02*
X168753109Y-74405780D01*
X168657871Y-74453400D01*
X168610252Y-74501019D01*
X168562633Y-74596257D01*
X168515014Y-74786733D01*
X168515014Y-75024828D01*
X168562633Y-75215304D01*
X168610252Y-75310542D01*
X168657871Y-75358161D01*
X168753109Y-75405780D01*
X168848347Y-75405780D01*
X168943585Y-75358161D01*
X168991204Y-75310542D01*
X169038823Y-75215304D01*
X169086442Y-75024828D01*
X169086442Y-74786733D01*
X169038823Y-74596257D01*
X168991204Y-74501019D01*
X168943585Y-74453400D01*
X168848347Y-74405780D01*
X167467395Y-74405780D02*
X167134061Y-75405780D01*
X166800728Y-74405780D01*
X165895966Y-75310542D02*
X165943585Y-75358161D01*
X166086442Y-75405780D01*
X166181680Y-75405780D01*
X166324538Y-75358161D01*
X166419776Y-75262923D01*
X166467395Y-75167685D01*
X166515014Y-74977209D01*
X166515014Y-74834352D01*
X166467395Y-74643876D01*
X166419776Y-74548638D01*
X166324538Y-74453400D01*
X166181680Y-74405780D01*
X166086442Y-74405780D01*
X165943585Y-74453400D01*
X165895966Y-74501019D01*
X165134061Y-74881971D02*
X165467395Y-74881971D01*
X165467395Y-75405780D02*
X165467395Y-74405780D01*
X164991204Y-74405780D01*
X175991204Y-77015780D02*
X175991204Y-76349114D01*
X175991204Y-76539590D02*
X175943585Y-76444352D01*
X175895966Y-76396733D01*
X175800728Y-76349114D01*
X175705490Y-76349114D01*
X174991204Y-76968161D02*
X175086442Y-77015780D01*
X175276919Y-77015780D01*
X175372157Y-76968161D01*
X175419776Y-76872923D01*
X175419776Y-76491971D01*
X175372157Y-76396733D01*
X175276919Y-76349114D01*
X175086442Y-76349114D01*
X174991204Y-76396733D01*
X174943585Y-76491971D01*
X174943585Y-76587209D01*
X175419776Y-76682447D01*
X174610252Y-76349114D02*
X174372157Y-77015780D01*
X174134061Y-76349114D01*
X172800728Y-76015780D02*
X172705490Y-76015780D01*
X172610252Y-76063400D01*
X172562633Y-76111019D01*
X172515014Y-76206257D01*
X172467395Y-76396733D01*
X172467395Y-76634828D01*
X172515014Y-76825304D01*
X172562633Y-76920542D01*
X172610252Y-76968161D01*
X172705490Y-77015780D01*
X172800728Y-77015780D01*
X172895966Y-76968161D01*
X172943585Y-76920542D01*
X172991204Y-76825304D01*
X173038823Y-76634828D01*
X173038823Y-76396733D01*
X172991204Y-76206257D01*
X172943585Y-76111019D01*
X172895966Y-76063400D01*
X172800728Y-76015780D01*
X172038823Y-76920542D02*
X171991204Y-76968161D01*
X172038823Y-77015780D01*
X172086442Y-76968161D01*
X172038823Y-76920542D01*
X172038823Y-77015780D01*
X171038823Y-77015780D02*
X171610252Y-77015780D01*
X171324538Y-77015780D02*
X171324538Y-76015780D01*
X171419776Y-76158638D01*
X171515014Y-76253876D01*
X171610252Y-76301495D01*
X176038823Y-77721019D02*
X175991204Y-77673400D01*
X175895966Y-77625780D01*
X175657871Y-77625780D01*
X175562633Y-77673400D01*
X175515014Y-77721019D01*
X175467395Y-77816257D01*
X175467395Y-77911495D01*
X175515014Y-78054352D01*
X176086442Y-78625780D01*
X175467395Y-78625780D01*
X174848347Y-77625780D02*
X174753109Y-77625780D01*
X174657871Y-77673400D01*
X174610252Y-77721019D01*
X174562633Y-77816257D01*
X174515014Y-78006733D01*
X174515014Y-78244828D01*
X174562633Y-78435304D01*
X174610252Y-78530542D01*
X174657871Y-78578161D01*
X174753109Y-78625780D01*
X174848347Y-78625780D01*
X174943585Y-78578161D01*
X174991204Y-78530542D01*
X175038823Y-78435304D01*
X175086442Y-78244828D01*
X175086442Y-78006733D01*
X175038823Y-77816257D01*
X174991204Y-77721019D01*
X174943585Y-77673400D01*
X174848347Y-77625780D01*
X174134061Y-77721019D02*
X174086442Y-77673400D01*
X173991204Y-77625780D01*
X173753109Y-77625780D01*
X173657871Y-77673400D01*
X173610252Y-77721019D01*
X173562633Y-77816257D01*
X173562633Y-77911495D01*
X173610252Y-78054352D01*
X174181680Y-78625780D01*
X173562633Y-78625780D01*
X173181680Y-77721019D02*
X173134061Y-77673400D01*
X173038823Y-77625780D01*
X172800728Y-77625780D01*
X172705490Y-77673400D01*
X172657871Y-77721019D01*
X172610252Y-77816257D01*
X172610252Y-77911495D01*
X172657871Y-78054352D01*
X173229300Y-78625780D01*
X172610252Y-78625780D01*
X172181680Y-78244828D02*
X171419776Y-78244828D01*
X170753109Y-77625780D02*
X170657871Y-77625780D01*
X170562633Y-77673400D01*
X170515014Y-77721019D01*
X170467395Y-77816257D01*
X170419776Y-78006733D01*
X170419776Y-78244828D01*
X170467395Y-78435304D01*
X170515014Y-78530542D01*
X170562633Y-78578161D01*
X170657871Y-78625780D01*
X170753109Y-78625780D01*
X170848347Y-78578161D01*
X170895966Y-78530542D01*
X170943585Y-78435304D01*
X170991204Y-78244828D01*
X170991204Y-78006733D01*
X170943585Y-77816257D01*
X170895966Y-77721019D01*
X170848347Y-77673400D01*
X170753109Y-77625780D01*
X170086442Y-77625780D02*
X169419776Y-77625780D01*
X169848347Y-78625780D01*
X169038823Y-78244828D02*
X168276919Y-78244828D01*
X167848347Y-77721019D02*
X167800728Y-77673400D01*
X167705490Y-77625780D01*
X167467395Y-77625780D01*
X167372157Y-77673400D01*
X167324538Y-77721019D01*
X167276919Y-77816257D01*
X167276919Y-77911495D01*
X167324538Y-78054352D01*
X167895966Y-78625780D01*
X167276919Y-78625780D01*
X166419776Y-77959114D02*
X166419776Y-78625780D01*
X166657871Y-77578161D02*
X166895966Y-78292447D01*
X166276919Y-78292447D01*
X175562633Y-79569114D02*
X175562633Y-80378638D01*
X175610252Y-80473876D01*
X175657871Y-80521495D01*
X175753109Y-80569114D01*
X175895966Y-80569114D01*
X175991204Y-80521495D01*
X175562633Y-80188161D02*
X175657871Y-80235780D01*
X175848347Y-80235780D01*
X175943585Y-80188161D01*
X175991204Y-80140542D01*
X176038823Y-80045304D01*
X176038823Y-79759590D01*
X175991204Y-79664352D01*
X175943585Y-79616733D01*
X175848347Y-79569114D01*
X175657871Y-79569114D01*
X175562633Y-79616733D01*
X175086442Y-80235780D02*
X175086442Y-79569114D01*
X175086442Y-79235780D02*
X175134061Y-79283400D01*
X175086442Y-79331019D01*
X175038823Y-79283400D01*
X175086442Y-79235780D01*
X175086442Y-79331019D01*
X174753109Y-79569114D02*
X174372157Y-79569114D01*
X174610252Y-79235780D02*
X174610252Y-80092923D01*
X174562633Y-80188161D01*
X174467395Y-80235780D01*
X174372157Y-80235780D01*
X174038823Y-80235780D02*
X174038823Y-79235780D01*
X173610252Y-80235780D02*
X173610252Y-79711971D01*
X173657871Y-79616733D01*
X173753109Y-79569114D01*
X173895966Y-79569114D01*
X173991204Y-79616733D01*
X174038823Y-79664352D01*
X172705490Y-79569114D02*
X172705490Y-80235780D01*
X173134061Y-79569114D02*
X173134061Y-80092923D01*
X173086442Y-80188161D01*
X172991204Y-80235780D01*
X172848347Y-80235780D01*
X172753109Y-80188161D01*
X172705490Y-80140542D01*
X172229300Y-80235780D02*
X172229300Y-79235780D01*
X172229300Y-79616733D02*
X172134061Y-79569114D01*
X171943585Y-79569114D01*
X171848347Y-79616733D01*
X171800728Y-79664352D01*
X171753109Y-79759590D01*
X171753109Y-80045304D01*
X171800728Y-80140542D01*
X171848347Y-80188161D01*
X171943585Y-80235780D01*
X172134061Y-80235780D01*
X172229300Y-80188161D01*
X171324538Y-80140542D02*
X171276919Y-80188161D01*
X171324538Y-80235780D01*
X171372157Y-80188161D01*
X171324538Y-80140542D01*
X171324538Y-80235780D01*
X170419776Y-80188161D02*
X170515014Y-80235780D01*
X170705490Y-80235780D01*
X170800728Y-80188161D01*
X170848347Y-80140542D01*
X170895966Y-80045304D01*
X170895966Y-79759590D01*
X170848347Y-79664352D01*
X170800728Y-79616733D01*
X170705490Y-79569114D01*
X170515014Y-79569114D01*
X170419776Y-79616733D01*
X169848347Y-80235780D02*
X169943585Y-80188161D01*
X169991204Y-80140542D01*
X170038823Y-80045304D01*
X170038823Y-79759590D01*
X169991204Y-79664352D01*
X169943585Y-79616733D01*
X169848347Y-79569114D01*
X169705490Y-79569114D01*
X169610252Y-79616733D01*
X169562633Y-79664352D01*
X169515014Y-79759590D01*
X169515014Y-80045304D01*
X169562633Y-80140542D01*
X169610252Y-80188161D01*
X169705490Y-80235780D01*
X169848347Y-80235780D01*
X169086442Y-80235780D02*
X169086442Y-79569114D01*
X169086442Y-79664352D02*
X169038823Y-79616733D01*
X168943585Y-79569114D01*
X168800728Y-79569114D01*
X168705490Y-79616733D01*
X168657871Y-79711971D01*
X168657871Y-80235780D01*
X168657871Y-79711971D02*
X168610252Y-79616733D01*
X168515014Y-79569114D01*
X168372157Y-79569114D01*
X168276919Y-79616733D01*
X168229300Y-79711971D01*
X168229300Y-80235780D01*
X167038823Y-79188161D02*
X167895966Y-80473876D01*
X166419776Y-79235780D02*
X166419776Y-79950066D01*
X166467395Y-80092923D01*
X166562633Y-80188161D01*
X166705490Y-80235780D01*
X166800728Y-80235780D01*
X165800728Y-80235780D02*
X165895966Y-80188161D01*
X165943585Y-80140542D01*
X165991204Y-80045304D01*
X165991204Y-79759590D01*
X165943585Y-79664352D01*
X165895966Y-79616733D01*
X165800728Y-79569114D01*
X165657871Y-79569114D01*
X165562633Y-79616733D01*
X165515014Y-79664352D01*
X165467395Y-79759590D01*
X165467395Y-80045304D01*
X165515014Y-80140542D01*
X165562633Y-80188161D01*
X165657871Y-80235780D01*
X165800728Y-80235780D01*
X165038823Y-80235780D02*
X165038823Y-79569114D01*
X165038823Y-79759590D02*
X164991204Y-79664352D01*
X164943585Y-79616733D01*
X164848347Y-79569114D01*
X164753109Y-79569114D01*
X163991204Y-80235780D02*
X163991204Y-79235780D01*
X163991204Y-80188161D02*
X164086442Y-80235780D01*
X164276919Y-80235780D01*
X164372157Y-80188161D01*
X164419776Y-80140542D01*
X164467395Y-80045304D01*
X164467395Y-79759590D01*
X164419776Y-79664352D01*
X164372157Y-79616733D01*
X164276919Y-79569114D01*
X164086442Y-79569114D01*
X163991204Y-79616733D01*
X163086442Y-80235780D02*
X163086442Y-79711971D01*
X163134061Y-79616733D01*
X163229300Y-79569114D01*
X163419776Y-79569114D01*
X163515014Y-79616733D01*
X163086442Y-80188161D02*
X163181680Y-80235780D01*
X163419776Y-80235780D01*
X163515014Y-80188161D01*
X163562633Y-80092923D01*
X163562633Y-79997685D01*
X163515014Y-79902447D01*
X163419776Y-79854828D01*
X163181680Y-79854828D01*
X163086442Y-79807209D01*
X162610252Y-79569114D02*
X162610252Y-80235780D01*
X162610252Y-79664352D02*
X162562633Y-79616733D01*
X162467395Y-79569114D01*
X162324538Y-79569114D01*
X162229300Y-79616733D01*
X162181680Y-79711971D01*
X162181680Y-80235780D01*
X161753109Y-79950066D02*
X161276919Y-79950066D01*
X161848347Y-80235780D02*
X161515014Y-79235780D01*
X161181680Y-80235780D01*
X160419776Y-80188161D02*
X160515014Y-80235780D01*
X160705490Y-80235780D01*
X160800728Y-80188161D01*
X160848347Y-80140542D01*
X160895966Y-80045304D01*
X160895966Y-79759590D01*
X160848347Y-79664352D01*
X160800728Y-79616733D01*
X160705490Y-79569114D01*
X160515014Y-79569114D01*
X160419776Y-79616733D01*
X159610252Y-80188161D02*
X159705490Y-80235780D01*
X159895966Y-80235780D01*
X159991204Y-80188161D01*
X160038823Y-80092923D01*
X160038823Y-79711971D01*
X159991204Y-79616733D01*
X159895966Y-79569114D01*
X159705490Y-79569114D01*
X159610252Y-79616733D01*
X159562633Y-79711971D01*
X159562633Y-79807209D01*
X160038823Y-79902447D01*
X159276919Y-79569114D02*
X158895966Y-79569114D01*
X159134061Y-79235780D02*
X159134061Y-80092923D01*
X159086442Y-80188161D01*
X158991204Y-80235780D01*
X158895966Y-80235780D01*
X158419776Y-80235780D02*
X158515014Y-80188161D01*
X158562633Y-80140542D01*
X158610252Y-80045304D01*
X158610252Y-79759590D01*
X158562633Y-79664352D01*
X158515014Y-79616733D01*
X158419776Y-79569114D01*
X158276919Y-79569114D01*
X158181680Y-79616733D01*
X158134061Y-79664352D01*
X158086442Y-79759590D01*
X158086442Y-80045304D01*
X158134061Y-80140542D01*
X158181680Y-80188161D01*
X158276919Y-80235780D01*
X158419776Y-80235780D01*
X156943585Y-79188161D02*
X157800728Y-80473876D01*
X156753109Y-79235780D02*
X156419776Y-80235780D01*
X156086442Y-79235780D01*
X155181680Y-80140542D02*
X155229300Y-80188161D01*
X155372157Y-80235780D01*
X155467395Y-80235780D01*
X155610252Y-80188161D01*
X155705490Y-80092923D01*
X155753109Y-79997685D01*
X155800728Y-79807209D01*
X155800728Y-79664352D01*
X155753109Y-79473876D01*
X155705490Y-79378638D01*
X155610252Y-79283400D01*
X155467395Y-79235780D01*
X155372157Y-79235780D01*
X155229300Y-79283400D01*
X155181680Y-79331019D01*
X154419776Y-79711971D02*
X154753109Y-79711971D01*
X154753109Y-80235780D02*
X154753109Y-79235780D01*
X154276919Y-79235780D01*
X154134061Y-80331019D02*
X153372157Y-80331019D01*
X153134061Y-79569114D02*
X153134061Y-80569114D01*
X153134061Y-79616733D02*
X153038823Y-79569114D01*
X152848347Y-79569114D01*
X152753109Y-79616733D01*
X152705490Y-79664352D01*
X152657871Y-79759590D01*
X152657871Y-80045304D01*
X152705490Y-80140542D01*
X152753109Y-80188161D01*
X152848347Y-80235780D01*
X153038823Y-80235780D01*
X153134061Y-80188161D01*
X152086442Y-80235780D02*
X152181680Y-80188161D01*
X152229300Y-80092923D01*
X152229300Y-79235780D01*
X151276919Y-79569114D02*
X151276919Y-80235780D01*
X151705490Y-79569114D02*
X151705490Y-80092923D01*
X151657871Y-80188161D01*
X151562633Y-80235780D01*
X151419776Y-80235780D01*
X151324538Y-80188161D01*
X151276919Y-80140542D01*
X150372157Y-79569114D02*
X150372157Y-80378638D01*
X150419776Y-80473876D01*
X150467395Y-80521495D01*
X150562633Y-80569114D01*
X150705490Y-80569114D01*
X150800728Y-80521495D01*
X150372157Y-80188161D02*
X150467395Y-80235780D01*
X150657871Y-80235780D01*
X150753109Y-80188161D01*
X150800728Y-80140542D01*
X150848347Y-80045304D01*
X150848347Y-79759590D01*
X150800728Y-79664352D01*
X150753109Y-79616733D01*
X150657871Y-79569114D01*
X150467395Y-79569114D01*
X150372157Y-79616733D01*
X150134061Y-80331019D02*
X149372157Y-80331019D01*
X149134061Y-80235780D02*
X149134061Y-79569114D01*
X149134061Y-79235780D02*
X149181680Y-79283400D01*
X149134061Y-79331019D01*
X149086442Y-79283400D01*
X149134061Y-79235780D01*
X149134061Y-79331019D01*
X148657871Y-79569114D02*
X148657871Y-80235780D01*
X148657871Y-79664352D02*
X148610252Y-79616733D01*
X148515014Y-79569114D01*
X148372157Y-79569114D01*
X148276919Y-79616733D01*
X148229300Y-79711971D01*
X148229300Y-80235780D01*
X147991204Y-80331019D02*
X147229300Y-80331019D01*
X146991204Y-80235780D02*
X146991204Y-79235780D01*
X146991204Y-79616733D02*
X146895966Y-79569114D01*
X146705490Y-79569114D01*
X146610252Y-79616733D01*
X146562633Y-79664352D01*
X146515014Y-79759590D01*
X146515014Y-80045304D01*
X146562633Y-80140542D01*
X146610252Y-80188161D01*
X146705490Y-80235780D01*
X146895966Y-80235780D01*
X146991204Y-80188161D01*
X145943585Y-80235780D02*
X146038823Y-80188161D01*
X146086442Y-80140542D01*
X146134061Y-80045304D01*
X146134061Y-79759590D01*
X146086442Y-79664352D01*
X146038823Y-79616733D01*
X145943585Y-79569114D01*
X145800728Y-79569114D01*
X145705490Y-79616733D01*
X145657871Y-79664352D01*
X145610252Y-79759590D01*
X145610252Y-80045304D01*
X145657871Y-80140542D01*
X145705490Y-80188161D01*
X145800728Y-80235780D01*
X145943585Y-80235780D01*
X144753109Y-80235780D02*
X144753109Y-79711971D01*
X144800728Y-79616733D01*
X144895966Y-79569114D01*
X145086442Y-79569114D01*
X145181680Y-79616733D01*
X144753109Y-80188161D02*
X144848347Y-80235780D01*
X145086442Y-80235780D01*
X145181680Y-80188161D01*
X145229300Y-80092923D01*
X145229300Y-79997685D01*
X145181680Y-79902447D01*
X145086442Y-79854828D01*
X144848347Y-79854828D01*
X144753109Y-79807209D01*
X144276919Y-80235780D02*
X144276919Y-79569114D01*
X144276919Y-79759590D02*
X144229300Y-79664352D01*
X144181680Y-79616733D01*
X144086442Y-79569114D01*
X143991204Y-79569114D01*
X143229300Y-80235780D02*
X143229300Y-79235780D01*
X143229300Y-80188161D02*
X143324538Y-80235780D01*
X143515014Y-80235780D01*
X143610252Y-80188161D01*
X143657871Y-80140542D01*
X143705490Y-80045304D01*
X143705490Y-79759590D01*
X143657871Y-79664352D01*
X143610252Y-79616733D01*
X143515014Y-79569114D01*
X143324538Y-79569114D01*
X143229300Y-79616733D01*
X142800728Y-80188161D02*
X142705490Y-80235780D01*
X142515014Y-80235780D01*
X142419776Y-80188161D01*
X142372157Y-80092923D01*
X142372157Y-80045304D01*
X142419776Y-79950066D01*
X142515014Y-79902447D01*
X142657871Y-79902447D01*
X142753109Y-79854828D01*
X142800728Y-79759590D01*
X142800728Y-79711971D01*
X142753109Y-79616733D01*
X142657871Y-79569114D01*
X142515014Y-79569114D01*
X142419776Y-79616733D01*
X125428333Y-85177380D02*
X125428333Y-85891666D01*
X125475952Y-86034523D01*
X125571190Y-86129761D01*
X125714047Y-86177380D01*
X125809285Y-86177380D01*
X124428333Y-86177380D02*
X124999761Y-86177380D01*
X124714047Y-86177380D02*
X124714047Y-85177380D01*
X124809285Y-85320238D01*
X124904523Y-85415476D01*
X124999761Y-85463095D01*
X125428333Y-110787380D02*
X125428333Y-111501666D01*
X125475952Y-111644523D01*
X125571190Y-111739761D01*
X125714047Y-111787380D01*
X125809285Y-111787380D01*
X124999761Y-110882619D02*
X124952142Y-110835000D01*
X124856904Y-110787380D01*
X124618809Y-110787380D01*
X124523571Y-110835000D01*
X124475952Y-110882619D01*
X124428333Y-110977857D01*
X124428333Y-111073095D01*
X124475952Y-111215952D01*
X125047380Y-111787380D01*
X124428333Y-111787380D01*
X178768333Y-85177380D02*
X178768333Y-85891666D01*
X178815952Y-86034523D01*
X178911190Y-86129761D01*
X179054047Y-86177380D01*
X179149285Y-86177380D01*
X178387380Y-85177380D02*
X177768333Y-85177380D01*
X178101666Y-85558333D01*
X177958809Y-85558333D01*
X177863571Y-85605952D01*
X177815952Y-85653571D01*
X177768333Y-85748809D01*
X177768333Y-85986904D01*
X177815952Y-86082142D01*
X177863571Y-86129761D01*
X177958809Y-86177380D01*
X178244523Y-86177380D01*
X178339761Y-86129761D01*
X178387380Y-86082142D01*
X178768333Y-100627380D02*
X178768333Y-101341666D01*
X178815952Y-101484523D01*
X178911190Y-101579761D01*
X179054047Y-101627380D01*
X179149285Y-101627380D01*
X177863571Y-100960714D02*
X177863571Y-101627380D01*
X178101666Y-100579761D02*
X178339761Y-101294047D01*
X177720714Y-101294047D01*
D11*
X126425000Y-74235000D02*
X125095000Y-74235000D01*
X126425000Y-76835000D02*
X123765000Y-76835000D01*
X126425000Y-76835000D02*
X126425000Y-84515000D01*
X126425000Y-75565000D02*
X126425000Y-74235000D01*
X123765000Y-76835000D02*
X123765000Y-84515000D01*
X126425000Y-84515000D02*
X123765000Y-84515000D01*
X126425000Y-122615000D02*
X123765000Y-122615000D01*
X126425000Y-112335000D02*
X125095000Y-112335000D01*
X126425000Y-114935000D02*
X126425000Y-122615000D01*
X126425000Y-113665000D02*
X126425000Y-112335000D01*
X123765000Y-114935000D02*
X123765000Y-122615000D01*
X126425000Y-114935000D02*
X123765000Y-114935000D01*
X179765000Y-76835000D02*
X179765000Y-84515000D01*
X179765000Y-76835000D02*
X177105000Y-76835000D01*
X179765000Y-74235000D02*
X178435000Y-74235000D01*
X177105000Y-76835000D02*
X177105000Y-84515000D01*
X179765000Y-84515000D02*
X177105000Y-84515000D01*
X179765000Y-75565000D02*
X179765000Y-74235000D01*
X179765000Y-122615000D02*
X177105000Y-122615000D01*
X179765000Y-104775000D02*
X177105000Y-104775000D01*
X177105000Y-104775000D02*
X177105000Y-122615000D01*
X179765000Y-104775000D02*
X179765000Y-122615000D01*
X179765000Y-102175000D02*
X178435000Y-102175000D01*
X179765000Y-103505000D02*
X179765000Y-102175000D01*
%LPC*%
D12*
X137541000Y-118745000D03*
X137541000Y-116205000D03*
X137541000Y-113665000D03*
X130683000Y-118745000D03*
X130683000Y-116205000D03*
X130683000Y-113665000D03*
D13*
X177165000Y-88345000D03*
X177165000Y-93345000D03*
G36*
G01*
X127850000Y-101485000D02*
X126150000Y-101485000D01*
G75*
G02*
X126099000Y-101434000I0J51000D01*
G01*
X126099000Y-99734000D01*
G75*
G02*
X126150000Y-99683000I51000J0D01*
G01*
X127850000Y-99683000D01*
G75*
G02*
X127901000Y-99734000I0J-51000D01*
G01*
X127901000Y-101434000D01*
G75*
G02*
X127850000Y-101485000I-51000J0D01*
G01*
G37*
D14*
X127000000Y-98044000D03*
X129540000Y-100584000D03*
X129540000Y-98044000D03*
X132080000Y-100584000D03*
X132080000Y-98044000D03*
X134620000Y-100584000D03*
X134620000Y-98044000D03*
D12*
X144399000Y-118745000D03*
X144399000Y-116205000D03*
X144399000Y-113665000D03*
G36*
G01*
X125996000Y-74715000D02*
X125996000Y-76415000D01*
G75*
G02*
X125945000Y-76466000I-51000J0D01*
G01*
X124245000Y-76466000D01*
G75*
G02*
X124194000Y-76415000I0J51000D01*
G01*
X124194000Y-74715000D01*
G75*
G02*
X124245000Y-74664000I51000J0D01*
G01*
X125945000Y-74664000D01*
G75*
G02*
X125996000Y-74715000I0J-51000D01*
G01*
G37*
D14*
X125095000Y-78105000D03*
X125095000Y-80645000D03*
X125095000Y-83185000D03*
G36*
G01*
X125996000Y-112815000D02*
X125996000Y-114515000D01*
G75*
G02*
X125945000Y-114566000I-51000J0D01*
G01*
X124245000Y-114566000D01*
G75*
G02*
X124194000Y-114515000I0J51000D01*
G01*
X124194000Y-112815000D01*
G75*
G02*
X124245000Y-112764000I51000J0D01*
G01*
X125945000Y-112764000D01*
G75*
G02*
X125996000Y-112815000I0J-51000D01*
G01*
G37*
X125095000Y-116205000D03*
X125095000Y-118745000D03*
X125095000Y-121285000D03*
G36*
G01*
X179336000Y-74715000D02*
X179336000Y-76415000D01*
G75*
G02*
X179285000Y-76466000I-51000J0D01*
G01*
X177585000Y-76466000D01*
G75*
G02*
X177534000Y-76415000I0J51000D01*
G01*
X177534000Y-74715000D01*
G75*
G02*
X177585000Y-74664000I51000J0D01*
G01*
X179285000Y-74664000D01*
G75*
G02*
X179336000Y-74715000I0J-51000D01*
G01*
G37*
X178435000Y-78105000D03*
X178435000Y-80645000D03*
X178435000Y-83185000D03*
G36*
G01*
X179336000Y-102655000D02*
X179336000Y-104355000D01*
G75*
G02*
X179285000Y-104406000I-51000J0D01*
G01*
X177585000Y-104406000D01*
G75*
G02*
X177534000Y-104355000I0J51000D01*
G01*
X177534000Y-102655000D01*
G75*
G02*
X177585000Y-102604000I51000J0D01*
G01*
X179285000Y-102604000D01*
G75*
G02*
X179336000Y-102655000I0J-51000D01*
G01*
G37*
X178435000Y-106045000D03*
X178435000Y-108585000D03*
X178435000Y-111125000D03*
X178435000Y-113665000D03*
X178435000Y-116205000D03*
X178435000Y-118745000D03*
X178435000Y-121285000D03*
M02*
