%FSLAX45Y45*%
G04 Gerber Fmt 4.5, Leading zero omitted, Abs format (unit mm)*
G04 Created by KiCad (PCBNEW 6.0.5+dfsg-1~bpo11+1) date 2022-08-08 19:40:30*
%MOMM*%
%LPD*%
G01*
G04 APERTURE LIST*
%TA.AperFunction,Profile*%
%ADD10C,0.050000*%
%TD*%
%ADD11C,0.200000*%
G04 APERTURE END LIST*
D10*
X18097500Y-7302500D02*
X12255500Y-7302500D01*
X12255500Y-12382500D02*
X18097500Y-12382500D01*
X18097500Y-12382500D02*
X18097500Y-7302500D01*
X12255500Y-7302500D02*
X12255500Y-12382500D01*
D11*
X12510619Y-12695476D02*
X12510619Y-12495476D01*
X12558238Y-12495476D01*
X12586809Y-12505000D01*
X12605857Y-12524048D01*
X12615381Y-12543095D01*
X12624905Y-12581190D01*
X12624905Y-12609762D01*
X12615381Y-12647857D01*
X12605857Y-12666905D01*
X12586809Y-12685952D01*
X12558238Y-12695476D01*
X12510619Y-12695476D01*
X12710619Y-12695476D02*
X12710619Y-12562143D01*
X12710619Y-12600238D02*
X12720143Y-12581190D01*
X12729667Y-12571667D01*
X12748714Y-12562143D01*
X12767762Y-12562143D01*
X12834428Y-12695476D02*
X12834428Y-12562143D01*
X12834428Y-12495476D02*
X12824905Y-12505000D01*
X12834428Y-12514524D01*
X12843952Y-12505000D01*
X12834428Y-12495476D01*
X12834428Y-12514524D01*
X12958238Y-12695476D02*
X12939190Y-12685952D01*
X12929667Y-12666905D01*
X12929667Y-12495476D01*
X13063000Y-12695476D02*
X13043952Y-12685952D01*
X13034428Y-12666905D01*
X13034428Y-12495476D01*
X13291571Y-12695476D02*
X13291571Y-12495476D01*
X13358238Y-12638333D01*
X13424905Y-12495476D01*
X13424905Y-12695476D01*
X13605857Y-12695476D02*
X13605857Y-12590714D01*
X13596333Y-12571667D01*
X13577286Y-12562143D01*
X13539190Y-12562143D01*
X13520143Y-12571667D01*
X13605857Y-12685952D02*
X13586809Y-12695476D01*
X13539190Y-12695476D01*
X13520143Y-12685952D01*
X13510619Y-12666905D01*
X13510619Y-12647857D01*
X13520143Y-12628809D01*
X13539190Y-12619286D01*
X13586809Y-12619286D01*
X13605857Y-12609762D01*
X13701095Y-12562143D02*
X13701095Y-12762143D01*
X13701095Y-12571667D02*
X13720143Y-12562143D01*
X13758238Y-12562143D01*
X13777286Y-12571667D01*
X13786809Y-12581190D01*
X13796333Y-12600238D01*
X13796333Y-12657381D01*
X13786809Y-12676428D01*
X13777286Y-12685952D01*
X13758238Y-12695476D01*
X13720143Y-12695476D01*
X13701095Y-12685952D01*
X13882048Y-12676428D02*
X13891571Y-12685952D01*
X13882048Y-12695476D01*
X13872524Y-12685952D01*
X13882048Y-12676428D01*
X13882048Y-12695476D01*
X13882048Y-12571667D02*
X13891571Y-12581190D01*
X13882048Y-12590714D01*
X13872524Y-12581190D01*
X13882048Y-12571667D01*
X13882048Y-12590714D01*
M02*
