%FSLAX45Y45*%
G04 Gerber Fmt 4.5, Leading zero omitted, Abs format (unit mm)*
G04 Created by KiCad (PCBNEW 6.0.5+dfsg-1~bpo11+1) date 2022-08-08 19:40:30*
%MOMM*%
%LPD*%
G01*
G04 APERTURE LIST*
%TA.AperFunction,Profile*%
%ADD10C,0.050000*%
%TD*%
%ADD11C,0.200000*%
%ADD12C,0.040000*%
%ADD13C,0.050000*%
%ADD14C,0.080000*%
%ADD15C,0.100000*%
G04 APERTURE END LIST*
D10*
X18097500Y-7302500D02*
X12255500Y-7302500D01*
X12255500Y-12382500D02*
X18097500Y-12382500D01*
X18097500Y-12382500D02*
X18097500Y-7302500D01*
X12255500Y-7302500D02*
X12255500Y-12382500D01*
D11*
D12*
X16614460Y-11488740D02*
X16654460Y-11528740D01*
X16654460Y-11488740D02*
X16614460Y-11528740D01*
X17066580Y-11163620D02*
X17106580Y-11203620D01*
X17106580Y-11163620D02*
X17066580Y-11203620D01*
D13*
X13804500Y-9359900D02*
G75*
G03*
X13804500Y-9359900I-25000J0D01*
G01*
X13804500Y-10223500D02*
G75*
G03*
X13804500Y-10223500I-25000J0D01*
G01*
X14261700Y-9359900D02*
G75*
G03*
X14261700Y-9359900I-25000J0D01*
G01*
X14439500Y-9486900D02*
G75*
G03*
X14439500Y-9486900I-25000J0D01*
G01*
X14490300Y-9918700D02*
G75*
G03*
X14490300Y-9918700I-25000J0D01*
G01*
X14490300Y-10147300D02*
G75*
G03*
X14490300Y-10147300I-25000J0D01*
G01*
X14541100Y-7886700D02*
G75*
G03*
X14541100Y-7886700I-25000J0D01*
G01*
X14617300Y-9258300D02*
G75*
G03*
X14617300Y-9258300I-25000J0D01*
G01*
X14642700Y-8318500D02*
G75*
G03*
X14642700Y-8318500I-25000J0D01*
G01*
X14769700Y-8408450D02*
G75*
G03*
X14769700Y-8408450I-25000J0D01*
G01*
X14769700Y-10502900D02*
G75*
G03*
X14769700Y-10502900I-25000J0D01*
G01*
X14926579Y-8288621D02*
G75*
G03*
X14926579Y-8288621I-25000J0D01*
G01*
X15023700Y-10899140D02*
G75*
G03*
X15023700Y-10899140I-25000J0D01*
G01*
X15023700Y-11828780D02*
G75*
G03*
X15023700Y-11828780I-25000J0D01*
G01*
X15277700Y-11976100D02*
G75*
G03*
X15277700Y-11976100I-25000J0D01*
G01*
X15328500Y-8369300D02*
G75*
G03*
X15328500Y-8369300I-25000J0D01*
G01*
X15328500Y-9283700D02*
G75*
G03*
X15328500Y-9283700I-25000J0D01*
G01*
X15328500Y-11798300D02*
G75*
G03*
X15328500Y-11798300I-25000J0D01*
G01*
X15455500Y-10934700D02*
G75*
G03*
X15455500Y-10934700I-25000J0D01*
G01*
X15582500Y-10833100D02*
G75*
G03*
X15582500Y-10833100I-25000J0D01*
G01*
X15734900Y-9334500D02*
G75*
G03*
X15734900Y-9334500I-25000J0D01*
G01*
X15760300Y-8369300D02*
G75*
G03*
X15760300Y-8369300I-25000J0D01*
G01*
X15760300Y-8572500D02*
G75*
G03*
X15760300Y-8572500I-25000J0D01*
G01*
X15861900Y-10909300D02*
G75*
G03*
X15861900Y-10909300I-25000J0D01*
G01*
X16039700Y-8369300D02*
G75*
G03*
X16039700Y-8369300I-25000J0D01*
G01*
X16090500Y-8242300D02*
G75*
G03*
X16090500Y-8242300I-25000J0D01*
G01*
X16090500Y-10020300D02*
G75*
G03*
X16090500Y-10020300I-25000J0D01*
G01*
X16090500Y-11823700D02*
G75*
G03*
X16090500Y-11823700I-25000J0D01*
G01*
X16094550Y-9640152D02*
G75*
G03*
X16094550Y-9640152I-25000J0D01*
G01*
X16141300Y-10883900D02*
G75*
G03*
X16141300Y-10883900I-25000J0D01*
G01*
X16154703Y-8756950D02*
G75*
G03*
X16154703Y-8756950I-25000J0D01*
G01*
X16306504Y-9372704D02*
G75*
G03*
X16306504Y-9372704I-25000J0D01*
G01*
X16420700Y-10960100D02*
G75*
G03*
X16420700Y-10960100I-25000J0D01*
G01*
X16471500Y-11315700D02*
G75*
G03*
X16471500Y-11315700I-25000J0D01*
G01*
X16471500Y-11512250D02*
G75*
G03*
X16471500Y-11512250I-25000J0D01*
G01*
X16551950Y-11772900D02*
G75*
G03*
X16551950Y-11772900I-25000J0D01*
G01*
X16598500Y-9639300D02*
G75*
G03*
X16598500Y-9639300I-25000J0D01*
G01*
X16601040Y-8097520D02*
G75*
G03*
X16601040Y-8097520I-25000J0D01*
G01*
X16903300Y-10375900D02*
G75*
G03*
X16903300Y-10375900I-25000J0D01*
G01*
X17106500Y-8369300D02*
G75*
G03*
X17106500Y-8369300I-25000J0D01*
G01*
X17106500Y-9283700D02*
G75*
G03*
X17106500Y-9283700I-25000J0D01*
G01*
X17106500Y-9639300D02*
G75*
G03*
X17106500Y-9639300I-25000J0D01*
G01*
X17131900Y-10172700D02*
G75*
G03*
X17131900Y-10172700I-25000J0D01*
G01*
X17131900Y-10426700D02*
G75*
G03*
X17131900Y-10426700I-25000J0D01*
G01*
X17136980Y-8122920D02*
G75*
G03*
X17136980Y-8122920I-25000J0D01*
G01*
X17182700Y-12153900D02*
G75*
G03*
X17182700Y-12153900I-25000J0D01*
G01*
X17462100Y-8775700D02*
G75*
G03*
X17462100Y-8775700I-25000J0D01*
G01*
X17487500Y-11112500D02*
G75*
G03*
X17487500Y-11112500I-25000J0D01*
G01*
X17487500Y-12026900D02*
G75*
G03*
X17487500Y-12026900I-25000J0D01*
G01*
X17868500Y-9563100D02*
G75*
G03*
X17868500Y-9563100I-25000J0D01*
G01*
D14*
X13068300Y-11326500D02*
X13068300Y-11406500D01*
X13028300Y-11366500D02*
X13108300Y-11366500D01*
X13068300Y-11580500D02*
X13068300Y-11660500D01*
X13028300Y-11620500D02*
X13108300Y-11620500D01*
X13068300Y-11834500D02*
X13068300Y-11914500D01*
X13028300Y-11874500D02*
X13108300Y-11874500D01*
X13754100Y-11326500D02*
X13754100Y-11406500D01*
X13714100Y-11366500D02*
X13794100Y-11366500D01*
X13754100Y-11580500D02*
X13754100Y-11660500D01*
X13714100Y-11620500D02*
X13794100Y-11620500D01*
X13754100Y-11834500D02*
X13754100Y-11914500D01*
X13714100Y-11874500D02*
X13794100Y-11874500D01*
X14439900Y-11326500D02*
X14439900Y-11406500D01*
X14399900Y-11366500D02*
X14479900Y-11366500D01*
X14439900Y-11580500D02*
X14439900Y-11660500D01*
X14399900Y-11620500D02*
X14479900Y-11620500D01*
X14439900Y-11834500D02*
X14439900Y-11914500D01*
X14399900Y-11874500D02*
X14479900Y-11874500D01*
X17716500Y-8794500D02*
X17716500Y-8874500D01*
X17676500Y-8834500D02*
X17756500Y-8834500D01*
X17716500Y-9294500D02*
X17716500Y-9374500D01*
X17676500Y-9334500D02*
X17756500Y-9334500D01*
D15*
X12544856Y-7591856D02*
X12544856Y-7521144D01*
X12474144Y-7521144D01*
X12474144Y-7591856D01*
X12544856Y-7591856D01*
X12544856Y-7845856D02*
X12544856Y-7775144D01*
X12474144Y-7775144D01*
X12474144Y-7845856D01*
X12544856Y-7845856D01*
X12544856Y-8099856D02*
X12544856Y-8029144D01*
X12474144Y-8029144D01*
X12474144Y-8099856D01*
X12544856Y-8099856D01*
X12544856Y-8353856D02*
X12544856Y-8283144D01*
X12474144Y-8283144D01*
X12474144Y-8353856D01*
X12544856Y-8353856D01*
X12544856Y-11401856D02*
X12544856Y-11331144D01*
X12474144Y-11331144D01*
X12474144Y-11401856D01*
X12544856Y-11401856D01*
X12544856Y-11655856D02*
X12544856Y-11585144D01*
X12474144Y-11585144D01*
X12474144Y-11655856D01*
X12544856Y-11655856D01*
X12544856Y-11909856D02*
X12544856Y-11839144D01*
X12474144Y-11839144D01*
X12474144Y-11909856D01*
X12544856Y-11909856D01*
X12544856Y-12163856D02*
X12544856Y-12093144D01*
X12474144Y-12093144D01*
X12474144Y-12163856D01*
X12544856Y-12163856D01*
X12735356Y-9839756D02*
X12735356Y-9769044D01*
X12664644Y-9769044D01*
X12664644Y-9839756D01*
X12735356Y-9839756D01*
X12735356Y-10093756D02*
X12735356Y-10023044D01*
X12664644Y-10023044D01*
X12664644Y-10093756D01*
X12735356Y-10093756D01*
X12989356Y-9839756D02*
X12989356Y-9769044D01*
X12918644Y-9769044D01*
X12918644Y-9839756D01*
X12989356Y-9839756D01*
X12989356Y-10093756D02*
X12989356Y-10023044D01*
X12918644Y-10023044D01*
X12918644Y-10093756D01*
X12989356Y-10093756D01*
X13243356Y-9839756D02*
X13243356Y-9769044D01*
X13172644Y-9769044D01*
X13172644Y-9839756D01*
X13243356Y-9839756D01*
X13243356Y-10093756D02*
X13243356Y-10023044D01*
X13172644Y-10023044D01*
X13172644Y-10093756D01*
X13243356Y-10093756D01*
X13497356Y-9839756D02*
X13497356Y-9769044D01*
X13426644Y-9769044D01*
X13426644Y-9839756D01*
X13497356Y-9839756D01*
X13497356Y-10093756D02*
X13497356Y-10023044D01*
X13426644Y-10023044D01*
X13426644Y-10093756D01*
X13497356Y-10093756D01*
X17878856Y-7591856D02*
X17878856Y-7521144D01*
X17808144Y-7521144D01*
X17808144Y-7591856D01*
X17878856Y-7591856D01*
X17878856Y-7845856D02*
X17878856Y-7775144D01*
X17808144Y-7775144D01*
X17808144Y-7845856D01*
X17878856Y-7845856D01*
X17878856Y-8099856D02*
X17878856Y-8029144D01*
X17808144Y-8029144D01*
X17808144Y-8099856D01*
X17878856Y-8099856D01*
X17878856Y-8353856D02*
X17878856Y-8283144D01*
X17808144Y-8283144D01*
X17808144Y-8353856D01*
X17878856Y-8353856D01*
X17878856Y-10385856D02*
X17878856Y-10315144D01*
X17808144Y-10315144D01*
X17808144Y-10385856D01*
X17878856Y-10385856D01*
X17878856Y-10639856D02*
X17878856Y-10569144D01*
X17808144Y-10569144D01*
X17808144Y-10639856D01*
X17878856Y-10639856D01*
X17878856Y-10893856D02*
X17878856Y-10823144D01*
X17808144Y-10823144D01*
X17808144Y-10893856D01*
X17878856Y-10893856D01*
X17878856Y-11147856D02*
X17878856Y-11077144D01*
X17808144Y-11077144D01*
X17808144Y-11147856D01*
X17878856Y-11147856D01*
X17878856Y-11401856D02*
X17878856Y-11331144D01*
X17808144Y-11331144D01*
X17808144Y-11401856D01*
X17878856Y-11401856D01*
X17878856Y-11655856D02*
X17878856Y-11585144D01*
X17808144Y-11585144D01*
X17808144Y-11655856D01*
X17878856Y-11655856D01*
X17878856Y-11909856D02*
X17878856Y-11839144D01*
X17808144Y-11839144D01*
X17808144Y-11909856D01*
X17878856Y-11909856D01*
X17878856Y-12163856D02*
X17878856Y-12093144D01*
X17808144Y-12093144D01*
X17808144Y-12163856D01*
X17878856Y-12163856D01*
D11*
X12510619Y-12695476D02*
X12510619Y-12495476D01*
X12558238Y-12495476D01*
X12586809Y-12505000D01*
X12605857Y-12524048D01*
X12615381Y-12543095D01*
X12624905Y-12581190D01*
X12624905Y-12609762D01*
X12615381Y-12647857D01*
X12605857Y-12666905D01*
X12586809Y-12685952D01*
X12558238Y-12695476D01*
X12510619Y-12695476D01*
X12710619Y-12695476D02*
X12710619Y-12562143D01*
X12710619Y-12600238D02*
X12720143Y-12581190D01*
X12729667Y-12571667D01*
X12748714Y-12562143D01*
X12767762Y-12562143D01*
X12834428Y-12695476D02*
X12834428Y-12562143D01*
X12834428Y-12495476D02*
X12824905Y-12505000D01*
X12834428Y-12514524D01*
X12843952Y-12505000D01*
X12834428Y-12495476D01*
X12834428Y-12514524D01*
X12958238Y-12695476D02*
X12939190Y-12685952D01*
X12929667Y-12666905D01*
X12929667Y-12495476D01*
X13063000Y-12695476D02*
X13043952Y-12685952D01*
X13034428Y-12666905D01*
X13034428Y-12495476D01*
X13291571Y-12695476D02*
X13291571Y-12495476D01*
X13358238Y-12638333D01*
X13424905Y-12495476D01*
X13424905Y-12695476D01*
X13605857Y-12695476D02*
X13605857Y-12590714D01*
X13596333Y-12571667D01*
X13577286Y-12562143D01*
X13539190Y-12562143D01*
X13520143Y-12571667D01*
X13605857Y-12685952D02*
X13586809Y-12695476D01*
X13539190Y-12695476D01*
X13520143Y-12685952D01*
X13510619Y-12666905D01*
X13510619Y-12647857D01*
X13520143Y-12628809D01*
X13539190Y-12619286D01*
X13586809Y-12619286D01*
X13605857Y-12609762D01*
X13701095Y-12562143D02*
X13701095Y-12762143D01*
X13701095Y-12571667D02*
X13720143Y-12562143D01*
X13758238Y-12562143D01*
X13777286Y-12571667D01*
X13786809Y-12581190D01*
X13796333Y-12600238D01*
X13796333Y-12657381D01*
X13786809Y-12676428D01*
X13777286Y-12685952D01*
X13758238Y-12695476D01*
X13720143Y-12695476D01*
X13701095Y-12685952D01*
X13882048Y-12676428D02*
X13891571Y-12685952D01*
X13882048Y-12695476D01*
X13872524Y-12685952D01*
X13882048Y-12676428D01*
X13882048Y-12695476D01*
X13882048Y-12571667D02*
X13891571Y-12581190D01*
X13882048Y-12590714D01*
X13872524Y-12581190D01*
X13882048Y-12571667D01*
X13882048Y-12590714D01*
D12*
X12213000Y-13005000D02*
X12253000Y-13045000D01*
X12253000Y-13005000D02*
X12213000Y-13045000D01*
D11*
X12548714Y-12915476D02*
X12567762Y-12915476D01*
X12586809Y-12925000D01*
X12596333Y-12934524D01*
X12605857Y-12953571D01*
X12615381Y-12991667D01*
X12615381Y-13039286D01*
X12605857Y-13077381D01*
X12596333Y-13096428D01*
X12586809Y-13105952D01*
X12567762Y-13115476D01*
X12548714Y-13115476D01*
X12529667Y-13105952D01*
X12520143Y-13096428D01*
X12510619Y-13077381D01*
X12501095Y-13039286D01*
X12501095Y-12991667D01*
X12510619Y-12953571D01*
X12520143Y-12934524D01*
X12529667Y-12925000D01*
X12548714Y-12915476D01*
X12701095Y-13096428D02*
X12710619Y-13105952D01*
X12701095Y-13115476D01*
X12691571Y-13105952D01*
X12701095Y-13096428D01*
X12701095Y-13115476D01*
X12882048Y-12982143D02*
X12882048Y-13115476D01*
X12834428Y-12905952D02*
X12786809Y-13048809D01*
X12910619Y-13048809D01*
X13024905Y-12915476D02*
X13043952Y-12915476D01*
X13063000Y-12925000D01*
X13072524Y-12934524D01*
X13082048Y-12953571D01*
X13091571Y-12991667D01*
X13091571Y-13039286D01*
X13082048Y-13077381D01*
X13072524Y-13096428D01*
X13063000Y-13105952D01*
X13043952Y-13115476D01*
X13024905Y-13115476D01*
X13005857Y-13105952D01*
X12996333Y-13096428D01*
X12986809Y-13077381D01*
X12977286Y-13039286D01*
X12977286Y-12991667D01*
X12986809Y-12953571D01*
X12996333Y-12934524D01*
X13005857Y-12925000D01*
X13024905Y-12915476D01*
X13215381Y-12915476D02*
X13234428Y-12915476D01*
X13253476Y-12925000D01*
X13263000Y-12934524D01*
X13272524Y-12953571D01*
X13282048Y-12991667D01*
X13282048Y-13039286D01*
X13272524Y-13077381D01*
X13263000Y-13096428D01*
X13253476Y-13105952D01*
X13234428Y-13115476D01*
X13215381Y-13115476D01*
X13196333Y-13105952D01*
X13186809Y-13096428D01*
X13177286Y-13077381D01*
X13167762Y-13039286D01*
X13167762Y-12991667D01*
X13177286Y-12953571D01*
X13186809Y-12934524D01*
X13196333Y-12925000D01*
X13215381Y-12915476D01*
X13367762Y-13115476D02*
X13367762Y-12982143D01*
X13367762Y-13001190D02*
X13377286Y-12991667D01*
X13396333Y-12982143D01*
X13424905Y-12982143D01*
X13443952Y-12991667D01*
X13453476Y-13010714D01*
X13453476Y-13115476D01*
X13453476Y-13010714D02*
X13463000Y-12991667D01*
X13482048Y-12982143D01*
X13510619Y-12982143D01*
X13529667Y-12991667D01*
X13539190Y-13010714D01*
X13539190Y-13115476D01*
X13634428Y-13115476D02*
X13634428Y-12982143D01*
X13634428Y-13001190D02*
X13643952Y-12991667D01*
X13663000Y-12982143D01*
X13691571Y-12982143D01*
X13710619Y-12991667D01*
X13720143Y-13010714D01*
X13720143Y-13115476D01*
X13720143Y-13010714D02*
X13729667Y-12991667D01*
X13748714Y-12982143D01*
X13777286Y-12982143D01*
X13796333Y-12991667D01*
X13805857Y-13010714D01*
X13805857Y-13115476D01*
X14196333Y-12905952D02*
X14024905Y-13163095D01*
X14453476Y-12915476D02*
X14472524Y-12915476D01*
X14491571Y-12925000D01*
X14501095Y-12934524D01*
X14510619Y-12953571D01*
X14520143Y-12991667D01*
X14520143Y-13039286D01*
X14510619Y-13077381D01*
X14501095Y-13096428D01*
X14491571Y-13105952D01*
X14472524Y-13115476D01*
X14453476Y-13115476D01*
X14434428Y-13105952D01*
X14424905Y-13096428D01*
X14415381Y-13077381D01*
X14405857Y-13039286D01*
X14405857Y-12991667D01*
X14415381Y-12953571D01*
X14424905Y-12934524D01*
X14434428Y-12925000D01*
X14453476Y-12915476D01*
X14605857Y-13096428D02*
X14615381Y-13105952D01*
X14605857Y-13115476D01*
X14596333Y-13105952D01*
X14605857Y-13096428D01*
X14605857Y-13115476D01*
X14739190Y-12915476D02*
X14758238Y-12915476D01*
X14777286Y-12925000D01*
X14786809Y-12934524D01*
X14796333Y-12953571D01*
X14805857Y-12991667D01*
X14805857Y-13039286D01*
X14796333Y-13077381D01*
X14786809Y-13096428D01*
X14777286Y-13105952D01*
X14758238Y-13115476D01*
X14739190Y-13115476D01*
X14720143Y-13105952D01*
X14710619Y-13096428D01*
X14701095Y-13077381D01*
X14691571Y-13039286D01*
X14691571Y-12991667D01*
X14701095Y-12953571D01*
X14710619Y-12934524D01*
X14720143Y-12925000D01*
X14739190Y-12915476D01*
X14996333Y-13115476D02*
X14882048Y-13115476D01*
X14939190Y-13115476D02*
X14939190Y-12915476D01*
X14920143Y-12944048D01*
X14901095Y-12963095D01*
X14882048Y-12972619D01*
X15177286Y-12915476D02*
X15082048Y-12915476D01*
X15072524Y-13010714D01*
X15082048Y-13001190D01*
X15101095Y-12991667D01*
X15148714Y-12991667D01*
X15167762Y-13001190D01*
X15177286Y-13010714D01*
X15186809Y-13029762D01*
X15186809Y-13077381D01*
X15177286Y-13096428D01*
X15167762Y-13105952D01*
X15148714Y-13115476D01*
X15101095Y-13115476D01*
X15082048Y-13105952D01*
X15072524Y-13096428D01*
X15253476Y-12915476D02*
X15386809Y-12915476D01*
X15301095Y-13115476D01*
X15453476Y-12915476D02*
X15453476Y-12953571D01*
X15529667Y-12915476D02*
X15529667Y-12953571D01*
X15824905Y-13191667D02*
X15815381Y-13182143D01*
X15796333Y-13153571D01*
X15786809Y-13134524D01*
X15777286Y-13105952D01*
X15767762Y-13058333D01*
X15767762Y-13020238D01*
X15777286Y-12972619D01*
X15786809Y-12944048D01*
X15796333Y-12925000D01*
X15815381Y-12896428D01*
X15824905Y-12886905D01*
X15891571Y-12934524D02*
X15901095Y-12925000D01*
X15920143Y-12915476D01*
X15967762Y-12915476D01*
X15986809Y-12925000D01*
X15996333Y-12934524D01*
X16005857Y-12953571D01*
X16005857Y-12972619D01*
X15996333Y-13001190D01*
X15882048Y-13115476D01*
X16005857Y-13115476D01*
X16243952Y-13115476D02*
X16243952Y-12915476D01*
X16329667Y-13115476D02*
X16329667Y-13010714D01*
X16320143Y-12991667D01*
X16301095Y-12982143D01*
X16272524Y-12982143D01*
X16253476Y-12991667D01*
X16243952Y-13001190D01*
X16453476Y-13115476D02*
X16434428Y-13105952D01*
X16424905Y-13096428D01*
X16415381Y-13077381D01*
X16415381Y-13020238D01*
X16424905Y-13001190D01*
X16434428Y-12991667D01*
X16453476Y-12982143D01*
X16482048Y-12982143D01*
X16501095Y-12991667D01*
X16510619Y-13001190D01*
X16520143Y-13020238D01*
X16520143Y-13077381D01*
X16510619Y-13096428D01*
X16501095Y-13105952D01*
X16482048Y-13115476D01*
X16453476Y-13115476D01*
X16634428Y-13115476D02*
X16615381Y-13105952D01*
X16605857Y-13086905D01*
X16605857Y-12915476D01*
X16786810Y-13105952D02*
X16767762Y-13115476D01*
X16729667Y-13115476D01*
X16710619Y-13105952D01*
X16701095Y-13086905D01*
X16701095Y-13010714D01*
X16710619Y-12991667D01*
X16729667Y-12982143D01*
X16767762Y-12982143D01*
X16786810Y-12991667D01*
X16796333Y-13010714D01*
X16796333Y-13029762D01*
X16701095Y-13048809D01*
X16872524Y-13105952D02*
X16891571Y-13115476D01*
X16929667Y-13115476D01*
X16948714Y-13105952D01*
X16958238Y-13086905D01*
X16958238Y-13077381D01*
X16948714Y-13058333D01*
X16929667Y-13048809D01*
X16901095Y-13048809D01*
X16882048Y-13039286D01*
X16872524Y-13020238D01*
X16872524Y-13010714D01*
X16882048Y-12991667D01*
X16901095Y-12982143D01*
X16929667Y-12982143D01*
X16948714Y-12991667D01*
X17024905Y-13191667D02*
X17034429Y-13182143D01*
X17053476Y-13153571D01*
X17063000Y-13134524D01*
X17072524Y-13105952D01*
X17082048Y-13058333D01*
X17082048Y-13020238D01*
X17072524Y-12972619D01*
X17063000Y-12944048D01*
X17053476Y-12925000D01*
X17034429Y-12896428D01*
X17024905Y-12886905D01*
D13*
X12253000Y-13289000D02*
G75*
G03*
X12253000Y-13289000I-25000J0D01*
G01*
D11*
X12548714Y-13179476D02*
X12567762Y-13179476D01*
X12586809Y-13189000D01*
X12596333Y-13198524D01*
X12605857Y-13217571D01*
X12615381Y-13255667D01*
X12615381Y-13303286D01*
X12605857Y-13341381D01*
X12596333Y-13360428D01*
X12586809Y-13369952D01*
X12567762Y-13379476D01*
X12548714Y-13379476D01*
X12529667Y-13369952D01*
X12520143Y-13360428D01*
X12510619Y-13341381D01*
X12501095Y-13303286D01*
X12501095Y-13255667D01*
X12510619Y-13217571D01*
X12520143Y-13198524D01*
X12529667Y-13189000D01*
X12548714Y-13179476D01*
X12701095Y-13360428D02*
X12710619Y-13369952D01*
X12701095Y-13379476D01*
X12691571Y-13369952D01*
X12701095Y-13360428D01*
X12701095Y-13379476D01*
X12891571Y-13179476D02*
X12796333Y-13179476D01*
X12786809Y-13274714D01*
X12796333Y-13265190D01*
X12815381Y-13255667D01*
X12863000Y-13255667D01*
X12882048Y-13265190D01*
X12891571Y-13274714D01*
X12901095Y-13293762D01*
X12901095Y-13341381D01*
X12891571Y-13360428D01*
X12882048Y-13369952D01*
X12863000Y-13379476D01*
X12815381Y-13379476D01*
X12796333Y-13369952D01*
X12786809Y-13360428D01*
X13024905Y-13179476D02*
X13043952Y-13179476D01*
X13063000Y-13189000D01*
X13072524Y-13198524D01*
X13082048Y-13217571D01*
X13091571Y-13255667D01*
X13091571Y-13303286D01*
X13082048Y-13341381D01*
X13072524Y-13360428D01*
X13063000Y-13369952D01*
X13043952Y-13379476D01*
X13024905Y-13379476D01*
X13005857Y-13369952D01*
X12996333Y-13360428D01*
X12986809Y-13341381D01*
X12977286Y-13303286D01*
X12977286Y-13255667D01*
X12986809Y-13217571D01*
X12996333Y-13198524D01*
X13005857Y-13189000D01*
X13024905Y-13179476D01*
X13215381Y-13179476D02*
X13234428Y-13179476D01*
X13253476Y-13189000D01*
X13263000Y-13198524D01*
X13272524Y-13217571D01*
X13282048Y-13255667D01*
X13282048Y-13303286D01*
X13272524Y-13341381D01*
X13263000Y-13360428D01*
X13253476Y-13369952D01*
X13234428Y-13379476D01*
X13215381Y-13379476D01*
X13196333Y-13369952D01*
X13186809Y-13360428D01*
X13177286Y-13341381D01*
X13167762Y-13303286D01*
X13167762Y-13255667D01*
X13177286Y-13217571D01*
X13186809Y-13198524D01*
X13196333Y-13189000D01*
X13215381Y-13179476D01*
X13367762Y-13379476D02*
X13367762Y-13246143D01*
X13367762Y-13265190D02*
X13377286Y-13255667D01*
X13396333Y-13246143D01*
X13424905Y-13246143D01*
X13443952Y-13255667D01*
X13453476Y-13274714D01*
X13453476Y-13379476D01*
X13453476Y-13274714D02*
X13463000Y-13255667D01*
X13482048Y-13246143D01*
X13510619Y-13246143D01*
X13529667Y-13255667D01*
X13539190Y-13274714D01*
X13539190Y-13379476D01*
X13634428Y-13379476D02*
X13634428Y-13246143D01*
X13634428Y-13265190D02*
X13643952Y-13255667D01*
X13663000Y-13246143D01*
X13691571Y-13246143D01*
X13710619Y-13255667D01*
X13720143Y-13274714D01*
X13720143Y-13379476D01*
X13720143Y-13274714D02*
X13729667Y-13255667D01*
X13748714Y-13246143D01*
X13777286Y-13246143D01*
X13796333Y-13255667D01*
X13805857Y-13274714D01*
X13805857Y-13379476D01*
X14196333Y-13169952D02*
X14024905Y-13427095D01*
X14453476Y-13179476D02*
X14472524Y-13179476D01*
X14491571Y-13189000D01*
X14501095Y-13198524D01*
X14510619Y-13217571D01*
X14520143Y-13255667D01*
X14520143Y-13303286D01*
X14510619Y-13341381D01*
X14501095Y-13360428D01*
X14491571Y-13369952D01*
X14472524Y-13379476D01*
X14453476Y-13379476D01*
X14434428Y-13369952D01*
X14424905Y-13360428D01*
X14415381Y-13341381D01*
X14405857Y-13303286D01*
X14405857Y-13255667D01*
X14415381Y-13217571D01*
X14424905Y-13198524D01*
X14434428Y-13189000D01*
X14453476Y-13179476D01*
X14605857Y-13360428D02*
X14615381Y-13369952D01*
X14605857Y-13379476D01*
X14596333Y-13369952D01*
X14605857Y-13360428D01*
X14605857Y-13379476D01*
X14739190Y-13179476D02*
X14758238Y-13179476D01*
X14777286Y-13189000D01*
X14786809Y-13198524D01*
X14796333Y-13217571D01*
X14805857Y-13255667D01*
X14805857Y-13303286D01*
X14796333Y-13341381D01*
X14786809Y-13360428D01*
X14777286Y-13369952D01*
X14758238Y-13379476D01*
X14739190Y-13379476D01*
X14720143Y-13369952D01*
X14710619Y-13360428D01*
X14701095Y-13341381D01*
X14691571Y-13303286D01*
X14691571Y-13255667D01*
X14701095Y-13217571D01*
X14710619Y-13198524D01*
X14720143Y-13189000D01*
X14739190Y-13179476D01*
X14996333Y-13379476D02*
X14882048Y-13379476D01*
X14939190Y-13379476D02*
X14939190Y-13179476D01*
X14920143Y-13208048D01*
X14901095Y-13227095D01*
X14882048Y-13236619D01*
X15091571Y-13379476D02*
X15129667Y-13379476D01*
X15148714Y-13369952D01*
X15158238Y-13360428D01*
X15177286Y-13331857D01*
X15186809Y-13293762D01*
X15186809Y-13217571D01*
X15177286Y-13198524D01*
X15167762Y-13189000D01*
X15148714Y-13179476D01*
X15110619Y-13179476D01*
X15091571Y-13189000D01*
X15082048Y-13198524D01*
X15072524Y-13217571D01*
X15072524Y-13265190D01*
X15082048Y-13284238D01*
X15091571Y-13293762D01*
X15110619Y-13303286D01*
X15148714Y-13303286D01*
X15167762Y-13293762D01*
X15177286Y-13284238D01*
X15186809Y-13265190D01*
X15253476Y-13179476D02*
X15386809Y-13179476D01*
X15301095Y-13379476D01*
X15453476Y-13179476D02*
X15453476Y-13217571D01*
X15529667Y-13179476D02*
X15529667Y-13217571D01*
X15824905Y-13455667D02*
X15815381Y-13446143D01*
X15796333Y-13417571D01*
X15786809Y-13398524D01*
X15777286Y-13369952D01*
X15767762Y-13322333D01*
X15767762Y-13284238D01*
X15777286Y-13236619D01*
X15786809Y-13208048D01*
X15796333Y-13189000D01*
X15815381Y-13160428D01*
X15824905Y-13150905D01*
X15996333Y-13179476D02*
X15901095Y-13179476D01*
X15891571Y-13274714D01*
X15901095Y-13265190D01*
X15920143Y-13255667D01*
X15967762Y-13255667D01*
X15986809Y-13265190D01*
X15996333Y-13274714D01*
X16005857Y-13293762D01*
X16005857Y-13341381D01*
X15996333Y-13360428D01*
X15986809Y-13369952D01*
X15967762Y-13379476D01*
X15920143Y-13379476D01*
X15901095Y-13369952D01*
X15891571Y-13360428D01*
X16129667Y-13179476D02*
X16148714Y-13179476D01*
X16167762Y-13189000D01*
X16177286Y-13198524D01*
X16186809Y-13217571D01*
X16196333Y-13255667D01*
X16196333Y-13303286D01*
X16186809Y-13341381D01*
X16177286Y-13360428D01*
X16167762Y-13369952D01*
X16148714Y-13379476D01*
X16129667Y-13379476D01*
X16110619Y-13369952D01*
X16101095Y-13360428D01*
X16091571Y-13341381D01*
X16082048Y-13303286D01*
X16082048Y-13255667D01*
X16091571Y-13217571D01*
X16101095Y-13198524D01*
X16110619Y-13189000D01*
X16129667Y-13179476D01*
X16434428Y-13379476D02*
X16434428Y-13179476D01*
X16520143Y-13379476D02*
X16520143Y-13274714D01*
X16510619Y-13255667D01*
X16491571Y-13246143D01*
X16463000Y-13246143D01*
X16443952Y-13255667D01*
X16434428Y-13265190D01*
X16643952Y-13379476D02*
X16624905Y-13369952D01*
X16615381Y-13360428D01*
X16605857Y-13341381D01*
X16605857Y-13284238D01*
X16615381Y-13265190D01*
X16624905Y-13255667D01*
X16643952Y-13246143D01*
X16672524Y-13246143D01*
X16691571Y-13255667D01*
X16701095Y-13265190D01*
X16710619Y-13284238D01*
X16710619Y-13341381D01*
X16701095Y-13360428D01*
X16691571Y-13369952D01*
X16672524Y-13379476D01*
X16643952Y-13379476D01*
X16824905Y-13379476D02*
X16805857Y-13369952D01*
X16796333Y-13350905D01*
X16796333Y-13179476D01*
X16977286Y-13369952D02*
X16958238Y-13379476D01*
X16920143Y-13379476D01*
X16901095Y-13369952D01*
X16891571Y-13350905D01*
X16891571Y-13274714D01*
X16901095Y-13255667D01*
X16920143Y-13246143D01*
X16958238Y-13246143D01*
X16977286Y-13255667D01*
X16986810Y-13274714D01*
X16986810Y-13293762D01*
X16891571Y-13312809D01*
X17063000Y-13369952D02*
X17082048Y-13379476D01*
X17120143Y-13379476D01*
X17139190Y-13369952D01*
X17148714Y-13350905D01*
X17148714Y-13341381D01*
X17139190Y-13322333D01*
X17120143Y-13312809D01*
X17091571Y-13312809D01*
X17072524Y-13303286D01*
X17063000Y-13284238D01*
X17063000Y-13274714D01*
X17072524Y-13255667D01*
X17091571Y-13246143D01*
X17120143Y-13246143D01*
X17139190Y-13255667D01*
X17215381Y-13455667D02*
X17224905Y-13446143D01*
X17243952Y-13417571D01*
X17253476Y-13398524D01*
X17263000Y-13369952D01*
X17272524Y-13322333D01*
X17272524Y-13284238D01*
X17263000Y-13236619D01*
X17253476Y-13208048D01*
X17243952Y-13189000D01*
X17224905Y-13160428D01*
X17215381Y-13150905D01*
D14*
X12213000Y-13513000D02*
X12213000Y-13593000D01*
X12173000Y-13553000D02*
X12253000Y-13553000D01*
D11*
X12548714Y-13443476D02*
X12567762Y-13443476D01*
X12586809Y-13453000D01*
X12596333Y-13462524D01*
X12605857Y-13481571D01*
X12615381Y-13519667D01*
X12615381Y-13567286D01*
X12605857Y-13605381D01*
X12596333Y-13624428D01*
X12586809Y-13633952D01*
X12567762Y-13643476D01*
X12548714Y-13643476D01*
X12529667Y-13633952D01*
X12520143Y-13624428D01*
X12510619Y-13605381D01*
X12501095Y-13567286D01*
X12501095Y-13519667D01*
X12510619Y-13481571D01*
X12520143Y-13462524D01*
X12529667Y-13453000D01*
X12548714Y-13443476D01*
X12701095Y-13624428D02*
X12710619Y-13633952D01*
X12701095Y-13643476D01*
X12691571Y-13633952D01*
X12701095Y-13624428D01*
X12701095Y-13643476D01*
X12824905Y-13529190D02*
X12805857Y-13519667D01*
X12796333Y-13510143D01*
X12786809Y-13491095D01*
X12786809Y-13481571D01*
X12796333Y-13462524D01*
X12805857Y-13453000D01*
X12824905Y-13443476D01*
X12863000Y-13443476D01*
X12882048Y-13453000D01*
X12891571Y-13462524D01*
X12901095Y-13481571D01*
X12901095Y-13491095D01*
X12891571Y-13510143D01*
X12882048Y-13519667D01*
X12863000Y-13529190D01*
X12824905Y-13529190D01*
X12805857Y-13538714D01*
X12796333Y-13548238D01*
X12786809Y-13567286D01*
X12786809Y-13605381D01*
X12796333Y-13624428D01*
X12805857Y-13633952D01*
X12824905Y-13643476D01*
X12863000Y-13643476D01*
X12882048Y-13633952D01*
X12891571Y-13624428D01*
X12901095Y-13605381D01*
X12901095Y-13567286D01*
X12891571Y-13548238D01*
X12882048Y-13538714D01*
X12863000Y-13529190D01*
X13024905Y-13443476D02*
X13043952Y-13443476D01*
X13063000Y-13453000D01*
X13072524Y-13462524D01*
X13082048Y-13481571D01*
X13091571Y-13519667D01*
X13091571Y-13567286D01*
X13082048Y-13605381D01*
X13072524Y-13624428D01*
X13063000Y-13633952D01*
X13043952Y-13643476D01*
X13024905Y-13643476D01*
X13005857Y-13633952D01*
X12996333Y-13624428D01*
X12986809Y-13605381D01*
X12977286Y-13567286D01*
X12977286Y-13519667D01*
X12986809Y-13481571D01*
X12996333Y-13462524D01*
X13005857Y-13453000D01*
X13024905Y-13443476D01*
X13215381Y-13443476D02*
X13234428Y-13443476D01*
X13253476Y-13453000D01*
X13263000Y-13462524D01*
X13272524Y-13481571D01*
X13282048Y-13519667D01*
X13282048Y-13567286D01*
X13272524Y-13605381D01*
X13263000Y-13624428D01*
X13253476Y-13633952D01*
X13234428Y-13643476D01*
X13215381Y-13643476D01*
X13196333Y-13633952D01*
X13186809Y-13624428D01*
X13177286Y-13605381D01*
X13167762Y-13567286D01*
X13167762Y-13519667D01*
X13177286Y-13481571D01*
X13186809Y-13462524D01*
X13196333Y-13453000D01*
X13215381Y-13443476D01*
X13367762Y-13643476D02*
X13367762Y-13510143D01*
X13367762Y-13529190D02*
X13377286Y-13519667D01*
X13396333Y-13510143D01*
X13424905Y-13510143D01*
X13443952Y-13519667D01*
X13453476Y-13538714D01*
X13453476Y-13643476D01*
X13453476Y-13538714D02*
X13463000Y-13519667D01*
X13482048Y-13510143D01*
X13510619Y-13510143D01*
X13529667Y-13519667D01*
X13539190Y-13538714D01*
X13539190Y-13643476D01*
X13634428Y-13643476D02*
X13634428Y-13510143D01*
X13634428Y-13529190D02*
X13643952Y-13519667D01*
X13663000Y-13510143D01*
X13691571Y-13510143D01*
X13710619Y-13519667D01*
X13720143Y-13538714D01*
X13720143Y-13643476D01*
X13720143Y-13538714D02*
X13729667Y-13519667D01*
X13748714Y-13510143D01*
X13777286Y-13510143D01*
X13796333Y-13519667D01*
X13805857Y-13538714D01*
X13805857Y-13643476D01*
X14196333Y-13433952D02*
X14024905Y-13691095D01*
X14453476Y-13443476D02*
X14472524Y-13443476D01*
X14491571Y-13453000D01*
X14501095Y-13462524D01*
X14510619Y-13481571D01*
X14520143Y-13519667D01*
X14520143Y-13567286D01*
X14510619Y-13605381D01*
X14501095Y-13624428D01*
X14491571Y-13633952D01*
X14472524Y-13643476D01*
X14453476Y-13643476D01*
X14434428Y-13633952D01*
X14424905Y-13624428D01*
X14415381Y-13605381D01*
X14405857Y-13567286D01*
X14405857Y-13519667D01*
X14415381Y-13481571D01*
X14424905Y-13462524D01*
X14434428Y-13453000D01*
X14453476Y-13443476D01*
X14605857Y-13624428D02*
X14615381Y-13633952D01*
X14605857Y-13643476D01*
X14596333Y-13633952D01*
X14605857Y-13624428D01*
X14605857Y-13643476D01*
X14739190Y-13443476D02*
X14758238Y-13443476D01*
X14777286Y-13453000D01*
X14786809Y-13462524D01*
X14796333Y-13481571D01*
X14805857Y-13519667D01*
X14805857Y-13567286D01*
X14796333Y-13605381D01*
X14786809Y-13624428D01*
X14777286Y-13633952D01*
X14758238Y-13643476D01*
X14739190Y-13643476D01*
X14720143Y-13633952D01*
X14710619Y-13624428D01*
X14701095Y-13605381D01*
X14691571Y-13567286D01*
X14691571Y-13519667D01*
X14701095Y-13481571D01*
X14710619Y-13462524D01*
X14720143Y-13453000D01*
X14739190Y-13443476D01*
X14872524Y-13443476D02*
X14996333Y-13443476D01*
X14929667Y-13519667D01*
X14958238Y-13519667D01*
X14977286Y-13529190D01*
X14986809Y-13538714D01*
X14996333Y-13557762D01*
X14996333Y-13605381D01*
X14986809Y-13624428D01*
X14977286Y-13633952D01*
X14958238Y-13643476D01*
X14901095Y-13643476D01*
X14882048Y-13633952D01*
X14872524Y-13624428D01*
X15186809Y-13643476D02*
X15072524Y-13643476D01*
X15129667Y-13643476D02*
X15129667Y-13443476D01*
X15110619Y-13472048D01*
X15091571Y-13491095D01*
X15072524Y-13500619D01*
X15367762Y-13443476D02*
X15272524Y-13443476D01*
X15263000Y-13538714D01*
X15272524Y-13529190D01*
X15291571Y-13519667D01*
X15339190Y-13519667D01*
X15358238Y-13529190D01*
X15367762Y-13538714D01*
X15377286Y-13557762D01*
X15377286Y-13605381D01*
X15367762Y-13624428D01*
X15358238Y-13633952D01*
X15339190Y-13643476D01*
X15291571Y-13643476D01*
X15272524Y-13633952D01*
X15263000Y-13624428D01*
X15453476Y-13443476D02*
X15453476Y-13481571D01*
X15529667Y-13443476D02*
X15529667Y-13481571D01*
X15824905Y-13719667D02*
X15815381Y-13710143D01*
X15796333Y-13681571D01*
X15786809Y-13662524D01*
X15777286Y-13633952D01*
X15767762Y-13586333D01*
X15767762Y-13548238D01*
X15777286Y-13500619D01*
X15786809Y-13472048D01*
X15796333Y-13453000D01*
X15815381Y-13424428D01*
X15824905Y-13414905D01*
X16005857Y-13643476D02*
X15891571Y-13643476D01*
X15948714Y-13643476D02*
X15948714Y-13443476D01*
X15929667Y-13472048D01*
X15910619Y-13491095D01*
X15891571Y-13500619D01*
X16196333Y-13643476D02*
X16082048Y-13643476D01*
X16139190Y-13643476D02*
X16139190Y-13443476D01*
X16120143Y-13472048D01*
X16101095Y-13491095D01*
X16082048Y-13500619D01*
X16434428Y-13643476D02*
X16434428Y-13443476D01*
X16520143Y-13643476D02*
X16520143Y-13538714D01*
X16510619Y-13519667D01*
X16491571Y-13510143D01*
X16463000Y-13510143D01*
X16443952Y-13519667D01*
X16434428Y-13529190D01*
X16643952Y-13643476D02*
X16624905Y-13633952D01*
X16615381Y-13624428D01*
X16605857Y-13605381D01*
X16605857Y-13548238D01*
X16615381Y-13529190D01*
X16624905Y-13519667D01*
X16643952Y-13510143D01*
X16672524Y-13510143D01*
X16691571Y-13519667D01*
X16701095Y-13529190D01*
X16710619Y-13548238D01*
X16710619Y-13605381D01*
X16701095Y-13624428D01*
X16691571Y-13633952D01*
X16672524Y-13643476D01*
X16643952Y-13643476D01*
X16824905Y-13643476D02*
X16805857Y-13633952D01*
X16796333Y-13614905D01*
X16796333Y-13443476D01*
X16977286Y-13633952D02*
X16958238Y-13643476D01*
X16920143Y-13643476D01*
X16901095Y-13633952D01*
X16891571Y-13614905D01*
X16891571Y-13538714D01*
X16901095Y-13519667D01*
X16920143Y-13510143D01*
X16958238Y-13510143D01*
X16977286Y-13519667D01*
X16986810Y-13538714D01*
X16986810Y-13557762D01*
X16891571Y-13576809D01*
X17063000Y-13633952D02*
X17082048Y-13643476D01*
X17120143Y-13643476D01*
X17139190Y-13633952D01*
X17148714Y-13614905D01*
X17148714Y-13605381D01*
X17139190Y-13586333D01*
X17120143Y-13576809D01*
X17091571Y-13576809D01*
X17072524Y-13567286D01*
X17063000Y-13548238D01*
X17063000Y-13538714D01*
X17072524Y-13519667D01*
X17091571Y-13510143D01*
X17120143Y-13510143D01*
X17139190Y-13519667D01*
X17215381Y-13719667D02*
X17224905Y-13710143D01*
X17243952Y-13681571D01*
X17253476Y-13662524D01*
X17263000Y-13633952D01*
X17272524Y-13586333D01*
X17272524Y-13548238D01*
X17263000Y-13500619D01*
X17253476Y-13472048D01*
X17243952Y-13453000D01*
X17224905Y-13424428D01*
X17215381Y-13414905D01*
D15*
X12238356Y-13852356D02*
X12238356Y-13781644D01*
X12167644Y-13781644D01*
X12167644Y-13852356D01*
X12238356Y-13852356D01*
D11*
X12615381Y-13907476D02*
X12501095Y-13907476D01*
X12558238Y-13907476D02*
X12558238Y-13707476D01*
X12539190Y-13736048D01*
X12520143Y-13755095D01*
X12501095Y-13764619D01*
X12701095Y-13888428D02*
X12710619Y-13897952D01*
X12701095Y-13907476D01*
X12691571Y-13897952D01*
X12701095Y-13888428D01*
X12701095Y-13907476D01*
X12834428Y-13707476D02*
X12853476Y-13707476D01*
X12872524Y-13717000D01*
X12882048Y-13726524D01*
X12891571Y-13745571D01*
X12901095Y-13783667D01*
X12901095Y-13831286D01*
X12891571Y-13869381D01*
X12882048Y-13888428D01*
X12872524Y-13897952D01*
X12853476Y-13907476D01*
X12834428Y-13907476D01*
X12815381Y-13897952D01*
X12805857Y-13888428D01*
X12796333Y-13869381D01*
X12786809Y-13831286D01*
X12786809Y-13783667D01*
X12796333Y-13745571D01*
X12805857Y-13726524D01*
X12815381Y-13717000D01*
X12834428Y-13707476D01*
X13024905Y-13707476D02*
X13043952Y-13707476D01*
X13063000Y-13717000D01*
X13072524Y-13726524D01*
X13082048Y-13745571D01*
X13091571Y-13783667D01*
X13091571Y-13831286D01*
X13082048Y-13869381D01*
X13072524Y-13888428D01*
X13063000Y-13897952D01*
X13043952Y-13907476D01*
X13024905Y-13907476D01*
X13005857Y-13897952D01*
X12996333Y-13888428D01*
X12986809Y-13869381D01*
X12977286Y-13831286D01*
X12977286Y-13783667D01*
X12986809Y-13745571D01*
X12996333Y-13726524D01*
X13005857Y-13717000D01*
X13024905Y-13707476D01*
X13215381Y-13707476D02*
X13234428Y-13707476D01*
X13253476Y-13717000D01*
X13263000Y-13726524D01*
X13272524Y-13745571D01*
X13282048Y-13783667D01*
X13282048Y-13831286D01*
X13272524Y-13869381D01*
X13263000Y-13888428D01*
X13253476Y-13897952D01*
X13234428Y-13907476D01*
X13215381Y-13907476D01*
X13196333Y-13897952D01*
X13186809Y-13888428D01*
X13177286Y-13869381D01*
X13167762Y-13831286D01*
X13167762Y-13783667D01*
X13177286Y-13745571D01*
X13186809Y-13726524D01*
X13196333Y-13717000D01*
X13215381Y-13707476D01*
X13367762Y-13907476D02*
X13367762Y-13774143D01*
X13367762Y-13793190D02*
X13377286Y-13783667D01*
X13396333Y-13774143D01*
X13424905Y-13774143D01*
X13443952Y-13783667D01*
X13453476Y-13802714D01*
X13453476Y-13907476D01*
X13453476Y-13802714D02*
X13463000Y-13783667D01*
X13482048Y-13774143D01*
X13510619Y-13774143D01*
X13529667Y-13783667D01*
X13539190Y-13802714D01*
X13539190Y-13907476D01*
X13634428Y-13907476D02*
X13634428Y-13774143D01*
X13634428Y-13793190D02*
X13643952Y-13783667D01*
X13663000Y-13774143D01*
X13691571Y-13774143D01*
X13710619Y-13783667D01*
X13720143Y-13802714D01*
X13720143Y-13907476D01*
X13720143Y-13802714D02*
X13729667Y-13783667D01*
X13748714Y-13774143D01*
X13777286Y-13774143D01*
X13796333Y-13783667D01*
X13805857Y-13802714D01*
X13805857Y-13907476D01*
X14196333Y-13697952D02*
X14024905Y-13955095D01*
X14453476Y-13707476D02*
X14472524Y-13707476D01*
X14491571Y-13717000D01*
X14501095Y-13726524D01*
X14510619Y-13745571D01*
X14520143Y-13783667D01*
X14520143Y-13831286D01*
X14510619Y-13869381D01*
X14501095Y-13888428D01*
X14491571Y-13897952D01*
X14472524Y-13907476D01*
X14453476Y-13907476D01*
X14434428Y-13897952D01*
X14424905Y-13888428D01*
X14415381Y-13869381D01*
X14405857Y-13831286D01*
X14405857Y-13783667D01*
X14415381Y-13745571D01*
X14424905Y-13726524D01*
X14434428Y-13717000D01*
X14453476Y-13707476D01*
X14605857Y-13888428D02*
X14615381Y-13897952D01*
X14605857Y-13907476D01*
X14596333Y-13897952D01*
X14605857Y-13888428D01*
X14605857Y-13907476D01*
X14739190Y-13707476D02*
X14758238Y-13707476D01*
X14777286Y-13717000D01*
X14786809Y-13726524D01*
X14796333Y-13745571D01*
X14805857Y-13783667D01*
X14805857Y-13831286D01*
X14796333Y-13869381D01*
X14786809Y-13888428D01*
X14777286Y-13897952D01*
X14758238Y-13907476D01*
X14739190Y-13907476D01*
X14720143Y-13897952D01*
X14710619Y-13888428D01*
X14701095Y-13869381D01*
X14691571Y-13831286D01*
X14691571Y-13783667D01*
X14701095Y-13745571D01*
X14710619Y-13726524D01*
X14720143Y-13717000D01*
X14739190Y-13707476D01*
X14872524Y-13707476D02*
X14996333Y-13707476D01*
X14929667Y-13783667D01*
X14958238Y-13783667D01*
X14977286Y-13793190D01*
X14986809Y-13802714D01*
X14996333Y-13821762D01*
X14996333Y-13869381D01*
X14986809Y-13888428D01*
X14977286Y-13897952D01*
X14958238Y-13907476D01*
X14901095Y-13907476D01*
X14882048Y-13897952D01*
X14872524Y-13888428D01*
X15091571Y-13907476D02*
X15129667Y-13907476D01*
X15148714Y-13897952D01*
X15158238Y-13888428D01*
X15177286Y-13859857D01*
X15186809Y-13821762D01*
X15186809Y-13745571D01*
X15177286Y-13726524D01*
X15167762Y-13717000D01*
X15148714Y-13707476D01*
X15110619Y-13707476D01*
X15091571Y-13717000D01*
X15082048Y-13726524D01*
X15072524Y-13745571D01*
X15072524Y-13793190D01*
X15082048Y-13812238D01*
X15091571Y-13821762D01*
X15110619Y-13831286D01*
X15148714Y-13831286D01*
X15167762Y-13821762D01*
X15177286Y-13812238D01*
X15186809Y-13793190D01*
X15358238Y-13774143D02*
X15358238Y-13907476D01*
X15310619Y-13697952D02*
X15263000Y-13840809D01*
X15386809Y-13840809D01*
X15453476Y-13707476D02*
X15453476Y-13745571D01*
X15529667Y-13707476D02*
X15529667Y-13745571D01*
X15824905Y-13983667D02*
X15815381Y-13974143D01*
X15796333Y-13945571D01*
X15786809Y-13926524D01*
X15777286Y-13897952D01*
X15767762Y-13850333D01*
X15767762Y-13812238D01*
X15777286Y-13764619D01*
X15786809Y-13736048D01*
X15796333Y-13717000D01*
X15815381Y-13688428D01*
X15824905Y-13678905D01*
X15891571Y-13726524D02*
X15901095Y-13717000D01*
X15920143Y-13707476D01*
X15967762Y-13707476D01*
X15986809Y-13717000D01*
X15996333Y-13726524D01*
X16005857Y-13745571D01*
X16005857Y-13764619D01*
X15996333Y-13793190D01*
X15882048Y-13907476D01*
X16005857Y-13907476D01*
X16120143Y-13793190D02*
X16101095Y-13783667D01*
X16091571Y-13774143D01*
X16082048Y-13755095D01*
X16082048Y-13745571D01*
X16091571Y-13726524D01*
X16101095Y-13717000D01*
X16120143Y-13707476D01*
X16158238Y-13707476D01*
X16177286Y-13717000D01*
X16186809Y-13726524D01*
X16196333Y-13745571D01*
X16196333Y-13755095D01*
X16186809Y-13774143D01*
X16177286Y-13783667D01*
X16158238Y-13793190D01*
X16120143Y-13793190D01*
X16101095Y-13802714D01*
X16091571Y-13812238D01*
X16082048Y-13831286D01*
X16082048Y-13869381D01*
X16091571Y-13888428D01*
X16101095Y-13897952D01*
X16120143Y-13907476D01*
X16158238Y-13907476D01*
X16177286Y-13897952D01*
X16186809Y-13888428D01*
X16196333Y-13869381D01*
X16196333Y-13831286D01*
X16186809Y-13812238D01*
X16177286Y-13802714D01*
X16158238Y-13793190D01*
X16434428Y-13907476D02*
X16434428Y-13707476D01*
X16520143Y-13907476D02*
X16520143Y-13802714D01*
X16510619Y-13783667D01*
X16491571Y-13774143D01*
X16463000Y-13774143D01*
X16443952Y-13783667D01*
X16434428Y-13793190D01*
X16643952Y-13907476D02*
X16624905Y-13897952D01*
X16615381Y-13888428D01*
X16605857Y-13869381D01*
X16605857Y-13812238D01*
X16615381Y-13793190D01*
X16624905Y-13783667D01*
X16643952Y-13774143D01*
X16672524Y-13774143D01*
X16691571Y-13783667D01*
X16701095Y-13793190D01*
X16710619Y-13812238D01*
X16710619Y-13869381D01*
X16701095Y-13888428D01*
X16691571Y-13897952D01*
X16672524Y-13907476D01*
X16643952Y-13907476D01*
X16824905Y-13907476D02*
X16805857Y-13897952D01*
X16796333Y-13878905D01*
X16796333Y-13707476D01*
X16977286Y-13897952D02*
X16958238Y-13907476D01*
X16920143Y-13907476D01*
X16901095Y-13897952D01*
X16891571Y-13878905D01*
X16891571Y-13802714D01*
X16901095Y-13783667D01*
X16920143Y-13774143D01*
X16958238Y-13774143D01*
X16977286Y-13783667D01*
X16986810Y-13802714D01*
X16986810Y-13821762D01*
X16891571Y-13840809D01*
X17063000Y-13897952D02*
X17082048Y-13907476D01*
X17120143Y-13907476D01*
X17139190Y-13897952D01*
X17148714Y-13878905D01*
X17148714Y-13869381D01*
X17139190Y-13850333D01*
X17120143Y-13840809D01*
X17091571Y-13840809D01*
X17072524Y-13831286D01*
X17063000Y-13812238D01*
X17063000Y-13802714D01*
X17072524Y-13783667D01*
X17091571Y-13774143D01*
X17120143Y-13774143D01*
X17139190Y-13783667D01*
X17215381Y-13983667D02*
X17224905Y-13974143D01*
X17243952Y-13945571D01*
X17253476Y-13926524D01*
X17263000Y-13897952D01*
X17272524Y-13850333D01*
X17272524Y-13812238D01*
X17263000Y-13764619D01*
X17253476Y-13736048D01*
X17243952Y-13717000D01*
X17224905Y-13688428D01*
X17215381Y-13678905D01*
M02*
