M48
; DRILL file {KiCad 5.1.6-c6e7f7d~87~ubuntu18.04.1} date Sat Aug  1 07:59:35 2020
; FORMAT={-:-/ absolute / metric / decimal}
; #@! TF.CreationDate,2020-08-01T07:59:35-04:00
; #@! TF.GenerationSoftware,Kicad,Pcbnew,5.1.6-c6e7f7d~87~ubuntu18.04.1
FMAT,2
METRIC
T1C0.381
T2C0.400
T3C0.800
T4C0.900
T5C1.000
%
G90
G05
T1
X134.112Y-70.358
X136.906Y-115.062
X144.272Y-70.358
X147.066Y-71.12
X147.574Y-115.062
X152.146Y-70.104
X153.732Y-73.504
X158.433Y-106.807
X163.322Y-112.522
X164.592Y-81.534
T2
X120.015Y-80.137
X121.285Y-90.551
X123.317Y-105.283
X125.984Y-92.71
X131.013Y-74.981
X132.029Y-91.186
X134.874Y-99.822
X136.982Y-81.89
X137.414Y-71.882
X139.483Y-89.203
X140.208Y-85.344
X140.716Y-108.204
X141.668Y-74.803
X141.796Y-80.835
X146.304Y-87.376
X149.606Y-75.032
X149.606Y-85.903
X154.991Y-69.418
X156.997Y-81.737
X157.226Y-85.496
X158.127Y-74.624
X159.004Y-84.836
X160.02Y-75.057
X166.319Y-82.144
X166.421Y-75.032
X166.421Y-85.446
T3
X147.844Y-100.965
X149.344Y-103.563
X152.146Y-105.156
X155.146Y-105.156
X157.972Y-103.505
X159.472Y-100.907
X152.146Y-93.472
X155.146Y-93.472
X157.972Y-95.123
X159.472Y-97.721
X147.844Y-97.663
X149.344Y-95.065
T4
X152.4Y-99.314
X154.94Y-99.314
T5
X119.38Y-106.68
X119.38Y-109.22
X119.38Y-111.76
X119.38Y-114.3
X172.72Y-68.58
X172.72Y-71.12
X172.72Y-73.66
X172.72Y-76.2
X119.38Y-68.58
X119.38Y-71.12
X119.38Y-73.66
X119.38Y-76.2
X172.72Y-96.52
X172.72Y-99.06
X172.72Y-101.6
X172.72Y-104.14
X172.72Y-106.68
X172.72Y-109.22
X172.72Y-111.76
X172.72Y-114.3
T0
M30
