G04 #@! TF.GenerationSoftware,KiCad,Pcbnew,5.1.6-c6e7f7d~87~ubuntu18.04.1*
G04 #@! TF.CreationDate,2020-08-01T07:59:39-04:00*
G04 #@! TF.ProjectId,optical_phasor_plug_in_board,6f707469-6361-46c5-9f70-6861736f725f,1.1*
G04 #@! TF.SameCoordinates,Original*
G04 #@! TF.FileFunction,Legend,Top*
G04 #@! TF.FilePolarity,Positive*
%FSLAX46Y46*%
G04 Gerber Fmt 4.6, Leading zero omitted, Abs format (unit mm)*
G04 Created by KiCad (PCBNEW 5.1.6-c6e7f7d~87~ubuntu18.04.1) date 2020-08-01 07:59:39*
%MOMM*%
%LPD*%
G01*
G04 APERTURE LIST*
%ADD10C,0.150000*%
%ADD11C,0.125000*%
%ADD12C,0.120000*%
G04 APERTURE END LIST*
D10*
X124714000Y-98806000D02*
X124714000Y-96774000D01*
X165354000Y-94488000D02*
X167132000Y-94488000D01*
X167999210Y-74930000D02*
G75*
G03*
X167999210Y-74930000I-359210J0D01*
G01*
X134725210Y-94107000D02*
G75*
G03*
X134725210Y-94107000I-359210J0D01*
G01*
X159109210Y-74930000D02*
G75*
G03*
X159109210Y-74930000I-359210J0D01*
G01*
X150219210Y-74930000D02*
G75*
G03*
X150219210Y-74930000I-359210J0D01*
G01*
X141329210Y-74930000D02*
G75*
G03*
X141329210Y-74930000I-359210J0D01*
G01*
X132439210Y-74930000D02*
G75*
G03*
X132439210Y-74930000I-359210J0D01*
G01*
X163893904Y-107989714D02*
X164274857Y-107989714D01*
X164036761Y-108656380D02*
X164036761Y-107799238D01*
X164084380Y-107704000D01*
X164179619Y-107656380D01*
X164274857Y-107656380D01*
X164989142Y-108608761D02*
X164893904Y-108656380D01*
X164703428Y-108656380D01*
X164608190Y-108608761D01*
X164560571Y-108513523D01*
X164560571Y-108132571D01*
X164608190Y-108037333D01*
X164703428Y-107989714D01*
X164893904Y-107989714D01*
X164989142Y-108037333D01*
X165036761Y-108132571D01*
X165036761Y-108227809D01*
X164560571Y-108323047D01*
X165846285Y-108608761D02*
X165751047Y-108656380D01*
X165560571Y-108656380D01*
X165465333Y-108608761D01*
X165417714Y-108513523D01*
X165417714Y-108132571D01*
X165465333Y-108037333D01*
X165560571Y-107989714D01*
X165751047Y-107989714D01*
X165846285Y-108037333D01*
X165893904Y-108132571D01*
X165893904Y-108227809D01*
X165417714Y-108323047D01*
X166751047Y-108656380D02*
X166751047Y-107656380D01*
X166751047Y-108608761D02*
X166655809Y-108656380D01*
X166465333Y-108656380D01*
X166370095Y-108608761D01*
X166322476Y-108561142D01*
X166274857Y-108465904D01*
X166274857Y-108180190D01*
X166322476Y-108084952D01*
X166370095Y-108037333D01*
X166465333Y-107989714D01*
X166655809Y-107989714D01*
X166751047Y-108037333D01*
X167227238Y-108656380D02*
X167227238Y-107656380D01*
X167227238Y-108037333D02*
X167322476Y-107989714D01*
X167512952Y-107989714D01*
X167608190Y-108037333D01*
X167655809Y-108084952D01*
X167703428Y-108180190D01*
X167703428Y-108465904D01*
X167655809Y-108561142D01*
X167608190Y-108608761D01*
X167512952Y-108656380D01*
X167322476Y-108656380D01*
X167227238Y-108608761D01*
X168560571Y-108656380D02*
X168560571Y-108132571D01*
X168512952Y-108037333D01*
X168417714Y-107989714D01*
X168227238Y-107989714D01*
X168132000Y-108037333D01*
X168560571Y-108608761D02*
X168465333Y-108656380D01*
X168227238Y-108656380D01*
X168132000Y-108608761D01*
X168084380Y-108513523D01*
X168084380Y-108418285D01*
X168132000Y-108323047D01*
X168227238Y-108275428D01*
X168465333Y-108275428D01*
X168560571Y-108227809D01*
X169465333Y-108608761D02*
X169370095Y-108656380D01*
X169179619Y-108656380D01*
X169084380Y-108608761D01*
X169036761Y-108561142D01*
X168989142Y-108465904D01*
X168989142Y-108180190D01*
X169036761Y-108084952D01*
X169084380Y-108037333D01*
X169179619Y-107989714D01*
X169370095Y-107989714D01*
X169465333Y-108037333D01*
X169893904Y-108656380D02*
X169893904Y-107656380D01*
X169989142Y-108275428D02*
X170274857Y-108656380D01*
X170274857Y-107989714D02*
X169893904Y-108370666D01*
X131937333Y-113434761D02*
X131842095Y-113482380D01*
X131651619Y-113482380D01*
X131556380Y-113434761D01*
X131508761Y-113387142D01*
X131461142Y-113291904D01*
X131461142Y-113006190D01*
X131508761Y-112910952D01*
X131556380Y-112863333D01*
X131651619Y-112815714D01*
X131842095Y-112815714D01*
X131937333Y-112863333D01*
X132746857Y-113434761D02*
X132651619Y-113482380D01*
X132461142Y-113482380D01*
X132365904Y-113434761D01*
X132318285Y-113339523D01*
X132318285Y-112958571D01*
X132365904Y-112863333D01*
X132461142Y-112815714D01*
X132651619Y-112815714D01*
X132746857Y-112863333D01*
X132794476Y-112958571D01*
X132794476Y-113053809D01*
X132318285Y-113149047D01*
X133223047Y-112815714D02*
X133223047Y-113482380D01*
X133223047Y-112910952D02*
X133270666Y-112863333D01*
X133365904Y-112815714D01*
X133508761Y-112815714D01*
X133604000Y-112863333D01*
X133651619Y-112958571D01*
X133651619Y-113482380D01*
X133984952Y-112815714D02*
X134365904Y-112815714D01*
X134127809Y-112482380D02*
X134127809Y-113339523D01*
X134175428Y-113434761D01*
X134270666Y-113482380D01*
X134365904Y-113482380D01*
X135080190Y-113434761D02*
X134984952Y-113482380D01*
X134794476Y-113482380D01*
X134699238Y-113434761D01*
X134651619Y-113339523D01*
X134651619Y-112958571D01*
X134699238Y-112863333D01*
X134794476Y-112815714D01*
X134984952Y-112815714D01*
X135080190Y-112863333D01*
X135127809Y-112958571D01*
X135127809Y-113053809D01*
X134651619Y-113149047D01*
X135556380Y-113482380D02*
X135556380Y-112815714D01*
X135556380Y-113006190D02*
X135604000Y-112910952D01*
X135651619Y-112863333D01*
X135746857Y-112815714D01*
X135842095Y-112815714D01*
X124325238Y-113482380D02*
X124325238Y-112482380D01*
X124325238Y-113434761D02*
X124230000Y-113482380D01*
X124039523Y-113482380D01*
X123944285Y-113434761D01*
X123896666Y-113387142D01*
X123849047Y-113291904D01*
X123849047Y-113006190D01*
X123896666Y-112910952D01*
X123944285Y-112863333D01*
X124039523Y-112815714D01*
X124230000Y-112815714D01*
X124325238Y-112863333D01*
X125182380Y-113434761D02*
X125087142Y-113482380D01*
X124896666Y-113482380D01*
X124801428Y-113434761D01*
X124753809Y-113339523D01*
X124753809Y-112958571D01*
X124801428Y-112863333D01*
X124896666Y-112815714D01*
X125087142Y-112815714D01*
X125182380Y-112863333D01*
X125230000Y-112958571D01*
X125230000Y-113053809D01*
X124753809Y-113149047D01*
X125658571Y-112815714D02*
X125658571Y-113815714D01*
X125658571Y-112863333D02*
X125753809Y-112815714D01*
X125944285Y-112815714D01*
X126039523Y-112863333D01*
X126087142Y-112910952D01*
X126134761Y-113006190D01*
X126134761Y-113291904D01*
X126087142Y-113387142D01*
X126039523Y-113434761D01*
X125944285Y-113482380D01*
X125753809Y-113482380D01*
X125658571Y-113434761D01*
X126420476Y-112815714D02*
X126801428Y-112815714D01*
X126563333Y-112482380D02*
X126563333Y-113339523D01*
X126610952Y-113434761D01*
X126706190Y-113482380D01*
X126801428Y-113482380D01*
X127134761Y-113482380D02*
X127134761Y-112482380D01*
X127563333Y-113482380D02*
X127563333Y-112958571D01*
X127515714Y-112863333D01*
X127420476Y-112815714D01*
X127277619Y-112815714D01*
X127182380Y-112863333D01*
X127134761Y-112910952D01*
X161290000Y-99314000D02*
G75*
G03*
X161290000Y-99314000I-7620000J0D01*
G01*
D11*
X149414000Y-113672000D02*
G75*
G03*
X149414000Y-113672000I-50000J0D01*
G01*
X148164000Y-113972000D02*
X148164000Y-111072000D01*
X148164000Y-111072000D02*
X149664000Y-111072000D01*
X149664000Y-111072000D02*
X149664000Y-113972000D01*
X149664000Y-113972000D02*
X148164000Y-113972000D01*
D12*
X167188000Y-112040000D02*
X166258000Y-112040000D01*
X164028000Y-112040000D02*
X164958000Y-112040000D01*
X164028000Y-112040000D02*
X164028000Y-115200000D01*
X167188000Y-112040000D02*
X167188000Y-113500000D01*
X162682000Y-112040000D02*
X161752000Y-112040000D01*
X159522000Y-112040000D02*
X160452000Y-112040000D01*
X159522000Y-112040000D02*
X159522000Y-115200000D01*
X162682000Y-112040000D02*
X162682000Y-113500000D01*
X158044000Y-112040000D02*
X157114000Y-112040000D01*
X154884000Y-112040000D02*
X155814000Y-112040000D01*
X154884000Y-112040000D02*
X154884000Y-115200000D01*
X158044000Y-112040000D02*
X158044000Y-113500000D01*
X125598000Y-92950000D02*
X124668000Y-92950000D01*
X122438000Y-92950000D02*
X123368000Y-92950000D01*
X122438000Y-92950000D02*
X122438000Y-96110000D01*
X125598000Y-92950000D02*
X125598000Y-94410000D01*
X168837000Y-105663000D02*
X165427000Y-105663000D01*
X170427000Y-101103000D02*
X167967000Y-101103000D01*
X166297000Y-101103000D02*
X163837000Y-101103000D01*
X170427000Y-104157000D02*
X170427000Y-101103000D01*
X163837000Y-104157000D02*
X163837000Y-101103000D01*
X146075140Y-96526396D02*
X147475140Y-94101525D01*
X149712446Y-98626396D02*
X151112446Y-96201525D01*
X151113469Y-96218240D02*
G75*
G03*
X147475140Y-94101525I-2519676J-145721D01*
G01*
X146074118Y-96509683D02*
G75*
G03*
X149712446Y-98626396I2519675J145722D01*
G01*
X161270000Y-77470000D02*
X161270000Y-79420000D01*
X161270000Y-77470000D02*
X161270000Y-75520000D01*
X166390000Y-77470000D02*
X166390000Y-79420000D01*
X166390000Y-77470000D02*
X166390000Y-74020000D01*
X135055000Y-110489000D02*
X131645000Y-110489000D01*
X136645000Y-105929000D02*
X134185000Y-105929000D01*
X132515000Y-105929000D02*
X130055000Y-105929000D01*
X136645000Y-108983000D02*
X136645000Y-105929000D01*
X130055000Y-108983000D02*
X130055000Y-105929000D01*
X127435000Y-110489000D02*
X124025000Y-110489000D01*
X129025000Y-105929000D02*
X126565000Y-105929000D01*
X124895000Y-105929000D02*
X122435000Y-105929000D01*
X129025000Y-108983000D02*
X129025000Y-105929000D01*
X122435000Y-108983000D02*
X122435000Y-105929000D01*
X166876252Y-72846000D02*
X166353748Y-72846000D01*
X166876252Y-71426000D02*
X166353748Y-71426000D01*
X164032000Y-70867748D02*
X164032000Y-71390252D01*
X162612000Y-70867748D02*
X162612000Y-71390252D01*
X167133748Y-86666000D02*
X167656252Y-86666000D01*
X167133748Y-88086000D02*
X167656252Y-88086000D01*
X162543748Y-86666000D02*
X163066252Y-86666000D01*
X162543748Y-88086000D02*
X163066252Y-88086000D01*
X168708000Y-113799252D02*
X168708000Y-113276748D01*
X170128000Y-113799252D02*
X170128000Y-113276748D01*
X129810252Y-96214000D02*
X129287748Y-96214000D01*
X129810252Y-94794000D02*
X129287748Y-94794000D01*
X167656252Y-84276000D02*
X167133748Y-84276000D01*
X167656252Y-82856000D02*
X167133748Y-82856000D01*
X166894252Y-69036000D02*
X166371748Y-69036000D01*
X166894252Y-67616000D02*
X166371748Y-67616000D01*
X163066252Y-84276000D02*
X162543748Y-84276000D01*
X163066252Y-82856000D02*
X162543748Y-82856000D01*
X158240252Y-86666000D02*
X157717748Y-86666000D01*
X158240252Y-88086000D02*
X157717748Y-88086000D01*
X155210252Y-69036000D02*
X154687748Y-69036000D01*
X155210252Y-67616000D02*
X154687748Y-67616000D01*
X157726748Y-84276000D02*
X158249252Y-84276000D01*
X157726748Y-82856000D02*
X158249252Y-82856000D01*
X154687748Y-72846000D02*
X155210252Y-72846000D01*
X154687748Y-71426000D02*
X155210252Y-71426000D01*
X153677252Y-88086000D02*
X153154748Y-88086000D01*
X153677252Y-86666000D02*
X153154748Y-86666000D01*
X159909252Y-71426000D02*
X159386748Y-71426000D01*
X159909252Y-72846000D02*
X159386748Y-72846000D01*
X153677252Y-84276000D02*
X153154748Y-84276000D01*
X153677252Y-82856000D02*
X153154748Y-82856000D01*
X159386748Y-67616000D02*
X159909252Y-67616000D01*
X159386748Y-69036000D02*
X159909252Y-69036000D01*
X152380000Y-77470000D02*
X152380000Y-79420000D01*
X152380000Y-77470000D02*
X152380000Y-75520000D01*
X157500000Y-77470000D02*
X157500000Y-79420000D01*
X157500000Y-77470000D02*
X157500000Y-74020000D01*
X120134748Y-88086000D02*
X120657252Y-88086000D01*
X120134748Y-86666000D02*
X120657252Y-86666000D01*
X156170000Y-99314000D02*
G75*
G03*
X156170000Y-99314000I-2500000J0D01*
G01*
X151110000Y-97769000D02*
X151110000Y-100859000D01*
X156660000Y-99313538D02*
G75*
G02*
X151110000Y-100858830I-2990000J-462D01*
G01*
X156660000Y-99314462D02*
G75*
G03*
X151110000Y-97769170I-2990000J462D01*
G01*
X149712446Y-100001604D02*
X151112446Y-102426475D01*
X146075140Y-102101604D02*
X147475140Y-104526475D01*
X147460154Y-104519003D02*
G75*
G03*
X151112446Y-102426475I1133639J2254964D01*
G01*
X149727432Y-100009075D02*
G75*
G03*
X146075140Y-102101604I-1133639J-2254964D01*
G01*
X156203554Y-96259602D02*
X157603554Y-98684473D01*
X159840860Y-94159602D02*
X161240860Y-96584473D01*
X159855846Y-94167073D02*
G75*
G03*
X156203554Y-96259602I-1133639J-2254964D01*
G01*
X157588568Y-98677001D02*
G75*
G03*
X161240860Y-96584473I1133639J2254964D01*
G01*
X152246000Y-95572000D02*
X155046000Y-95572000D01*
X152246000Y-91372000D02*
X155046000Y-91372000D01*
X152259963Y-91362758D02*
G75*
G03*
X152246000Y-95572000I1386037J-2109242D01*
G01*
X155032037Y-95581242D02*
G75*
G03*
X155046000Y-91372000I-1386037J2109242D01*
G01*
X159840860Y-104468398D02*
X161240860Y-102043527D01*
X156203554Y-102368398D02*
X157603554Y-99943527D01*
X156202532Y-102351685D02*
G75*
G03*
X159840860Y-104468398I2519675J145722D01*
G01*
X161241883Y-102060242D02*
G75*
G03*
X157603554Y-99943527I-2519676J-145721D01*
G01*
X152246000Y-107256000D02*
X155046000Y-107256000D01*
X152246000Y-103056000D02*
X155046000Y-103056000D01*
X152259963Y-103046758D02*
G75*
G03*
X152246000Y-107256000I1386037J-2109242D01*
G01*
X155032037Y-107265242D02*
G75*
G03*
X155046000Y-103056000I-1386037J2109242D01*
G01*
X130830000Y-77470000D02*
X130830000Y-74020000D01*
X130830000Y-77470000D02*
X130830000Y-79420000D01*
X125710000Y-77470000D02*
X125710000Y-75520000D01*
X125710000Y-77470000D02*
X125710000Y-79420000D01*
X139720000Y-77470000D02*
X139720000Y-74020000D01*
X139720000Y-77470000D02*
X139720000Y-79420000D01*
X134600000Y-77470000D02*
X134600000Y-75520000D01*
X134600000Y-77470000D02*
X134600000Y-79420000D01*
X148610000Y-77470000D02*
X148610000Y-74020000D01*
X148610000Y-77470000D02*
X148610000Y-79420000D01*
X143490000Y-77470000D02*
X143490000Y-75520000D01*
X143490000Y-77470000D02*
X143490000Y-79420000D01*
X135636000Y-100096000D02*
X137586000Y-100096000D01*
X135636000Y-100096000D02*
X133686000Y-100096000D01*
X135636000Y-94976000D02*
X137586000Y-94976000D01*
X135636000Y-94976000D02*
X132186000Y-94976000D01*
X125728252Y-69036000D02*
X125205748Y-69036000D01*
X125728252Y-67616000D02*
X125205748Y-67616000D01*
X130309252Y-67616000D02*
X129786748Y-67616000D01*
X130309252Y-69036000D02*
X129786748Y-69036000D01*
X120648252Y-82856000D02*
X120125748Y-82856000D01*
X120648252Y-84276000D02*
X120125748Y-84276000D01*
X129541748Y-86666000D02*
X130064252Y-86666000D01*
X129541748Y-88086000D02*
X130064252Y-88086000D01*
X134872252Y-82856000D02*
X134349748Y-82856000D01*
X134872252Y-84276000D02*
X134349748Y-84276000D01*
X134603748Y-69036000D02*
X135126252Y-69036000D01*
X134603748Y-67616000D02*
X135126252Y-67616000D01*
X145032252Y-67616000D02*
X144509748Y-67616000D01*
X145032252Y-69036000D02*
X144509748Y-69036000D01*
X124969748Y-86666000D02*
X125492252Y-86666000D01*
X124969748Y-88086000D02*
X125492252Y-88086000D01*
X144397252Y-86666000D02*
X143874748Y-86666000D01*
X144397252Y-88086000D02*
X143874748Y-88086000D01*
X125205748Y-72846000D02*
X125728252Y-72846000D01*
X125205748Y-71426000D02*
X125728252Y-71426000D01*
X130318252Y-72846000D02*
X129795748Y-72846000D01*
X130318252Y-71426000D02*
X129795748Y-71426000D01*
X129501748Y-91896000D02*
X130024252Y-91896000D01*
X129501748Y-90476000D02*
X130024252Y-90476000D01*
X125492252Y-82856000D02*
X124969748Y-82856000D01*
X125492252Y-84276000D02*
X124969748Y-84276000D01*
X130024252Y-84276000D02*
X129501748Y-84276000D01*
X130024252Y-82856000D02*
X129501748Y-82856000D01*
X134881252Y-86666000D02*
X134358748Y-86666000D01*
X134881252Y-88086000D02*
X134358748Y-88086000D01*
X138930748Y-84276000D02*
X139453252Y-84276000D01*
X138930748Y-82856000D02*
X139453252Y-82856000D01*
X139453252Y-88086000D02*
X138930748Y-88086000D01*
X139453252Y-86666000D02*
X138930748Y-86666000D01*
X129810252Y-99516000D02*
X129287748Y-99516000D01*
X129810252Y-98096000D02*
X129287748Y-98096000D01*
X129810252Y-101398000D02*
X129287748Y-101398000D01*
X129810252Y-102818000D02*
X129287748Y-102818000D01*
X123953748Y-100382000D02*
X124476252Y-100382000D01*
X123953748Y-101802000D02*
X124476252Y-101802000D01*
X119836000Y-94232252D02*
X119836000Y-93709748D01*
X118416000Y-94232252D02*
X118416000Y-93709748D01*
X139438748Y-67616000D02*
X139961252Y-67616000D01*
X139438748Y-69036000D02*
X139961252Y-69036000D01*
X134603748Y-71426000D02*
X135126252Y-71426000D01*
X134603748Y-72846000D02*
X135126252Y-72846000D01*
X139961252Y-71426000D02*
X139438748Y-71426000D01*
X139961252Y-72846000D02*
X139438748Y-72846000D01*
X149099748Y-67616000D02*
X149622252Y-67616000D01*
X149099748Y-69036000D02*
X149622252Y-69036000D01*
X144518748Y-71426000D02*
X145041252Y-71426000D01*
X144518748Y-72846000D02*
X145041252Y-72846000D01*
X149622252Y-72846000D02*
X149099748Y-72846000D01*
X149622252Y-71426000D02*
X149099748Y-71426000D01*
X148328748Y-86666000D02*
X148851252Y-86666000D01*
X148328748Y-88086000D02*
X148851252Y-88086000D01*
X141934000Y-97029748D02*
X141934000Y-97552252D01*
X140514000Y-97029748D02*
X140514000Y-97552252D01*
X141934000Y-101598252D02*
X141934000Y-101075748D01*
X140514000Y-101598252D02*
X140514000Y-101075748D01*
X143874748Y-82856000D02*
X144397252Y-82856000D01*
X143874748Y-84276000D02*
X144397252Y-84276000D01*
X153364000Y-113608752D02*
X153364000Y-113086248D01*
X151944000Y-113608752D02*
X151944000Y-113086248D01*
X148851252Y-82856000D02*
X148328748Y-82856000D01*
X148851252Y-84276000D02*
X148328748Y-84276000D01*
X139648000Y-112251748D02*
X139648000Y-112774252D01*
X138228000Y-112251748D02*
X138228000Y-112774252D01*
X142696000Y-112251748D02*
X142696000Y-112774252D01*
X141276000Y-112251748D02*
X141276000Y-112774252D01*
X145871000Y-112774252D02*
X145871000Y-112251748D01*
X144451000Y-112774252D02*
X144451000Y-112251748D01*
X144601000Y-108710252D02*
X144601000Y-108187748D01*
X143181000Y-108710252D02*
X143181000Y-108187748D01*
X168708000Y-93978252D02*
X168708000Y-93455748D01*
X170128000Y-93978252D02*
X170128000Y-93455748D01*
X125820000Y-98790000D02*
X125820000Y-96790000D01*
X125820000Y-96790000D02*
X121920000Y-96790000D01*
X125820000Y-98790000D02*
X121920000Y-98790000D01*
X165243000Y-95977000D02*
X165243000Y-92077000D01*
X167243000Y-95977000D02*
X167243000Y-92077000D01*
X165243000Y-95977000D02*
X167243000Y-95977000D01*
X123696252Y-78764200D02*
X123173748Y-78764200D01*
X123696252Y-77344200D02*
X123173748Y-77344200D01*
X123663452Y-76478200D02*
X123140948Y-76478200D01*
X123663452Y-75058200D02*
X123140948Y-75058200D01*
X171941748Y-82752000D02*
X172464252Y-82752000D01*
X171941748Y-81332000D02*
X172464252Y-81332000D01*
X170382000Y-74946252D02*
X170382000Y-74423748D01*
X168962000Y-74946252D02*
X168962000Y-74423748D01*
X137412252Y-94436000D02*
X136889748Y-94436000D01*
X137412252Y-93016000D02*
X136889748Y-93016000D01*
X132843748Y-114860000D02*
X133366252Y-114860000D01*
X132843748Y-116280000D02*
X133366252Y-116280000D01*
D10*
X148748761Y-115609619D02*
X148653523Y-115562000D01*
X148558285Y-115466761D01*
X148415428Y-115323904D01*
X148320190Y-115276285D01*
X148224952Y-115276285D01*
X148272571Y-115514380D02*
X148177333Y-115466761D01*
X148082095Y-115371523D01*
X148034476Y-115181047D01*
X148034476Y-114847714D01*
X148082095Y-114657238D01*
X148177333Y-114562000D01*
X148272571Y-114514380D01*
X148463047Y-114514380D01*
X148558285Y-114562000D01*
X148653523Y-114657238D01*
X148701142Y-114847714D01*
X148701142Y-115181047D01*
X148653523Y-115371523D01*
X148558285Y-115466761D01*
X148463047Y-115514380D01*
X148272571Y-115514380D01*
X149082095Y-114609619D02*
X149129714Y-114562000D01*
X149224952Y-114514380D01*
X149463047Y-114514380D01*
X149558285Y-114562000D01*
X149605904Y-114609619D01*
X149653523Y-114704857D01*
X149653523Y-114800095D01*
X149605904Y-114942952D01*
X149034476Y-115514380D01*
X149653523Y-115514380D01*
X165512761Y-116625619D02*
X165417523Y-116578000D01*
X165322285Y-116482761D01*
X165179428Y-116339904D01*
X165084190Y-116292285D01*
X164988952Y-116292285D01*
X165036571Y-116530380D02*
X164941333Y-116482761D01*
X164846095Y-116387523D01*
X164798476Y-116197047D01*
X164798476Y-115863714D01*
X164846095Y-115673238D01*
X164941333Y-115578000D01*
X165036571Y-115530380D01*
X165227047Y-115530380D01*
X165322285Y-115578000D01*
X165417523Y-115673238D01*
X165465142Y-115863714D01*
X165465142Y-116197047D01*
X165417523Y-116387523D01*
X165322285Y-116482761D01*
X165227047Y-116530380D01*
X165036571Y-116530380D01*
X166369904Y-115530380D02*
X165893714Y-115530380D01*
X165846095Y-116006571D01*
X165893714Y-115958952D01*
X165988952Y-115911333D01*
X166227047Y-115911333D01*
X166322285Y-115958952D01*
X166369904Y-116006571D01*
X166417523Y-116101809D01*
X166417523Y-116339904D01*
X166369904Y-116435142D01*
X166322285Y-116482761D01*
X166227047Y-116530380D01*
X165988952Y-116530380D01*
X165893714Y-116482761D01*
X165846095Y-116435142D01*
X161006761Y-116625619D02*
X160911523Y-116578000D01*
X160816285Y-116482761D01*
X160673428Y-116339904D01*
X160578190Y-116292285D01*
X160482952Y-116292285D01*
X160530571Y-116530380D02*
X160435333Y-116482761D01*
X160340095Y-116387523D01*
X160292476Y-116197047D01*
X160292476Y-115863714D01*
X160340095Y-115673238D01*
X160435333Y-115578000D01*
X160530571Y-115530380D01*
X160721047Y-115530380D01*
X160816285Y-115578000D01*
X160911523Y-115673238D01*
X160959142Y-115863714D01*
X160959142Y-116197047D01*
X160911523Y-116387523D01*
X160816285Y-116482761D01*
X160721047Y-116530380D01*
X160530571Y-116530380D01*
X161816285Y-115863714D02*
X161816285Y-116530380D01*
X161578190Y-115482761D02*
X161340095Y-116197047D01*
X161959142Y-116197047D01*
X156368761Y-116625619D02*
X156273523Y-116578000D01*
X156178285Y-116482761D01*
X156035428Y-116339904D01*
X155940190Y-116292285D01*
X155844952Y-116292285D01*
X155892571Y-116530380D02*
X155797333Y-116482761D01*
X155702095Y-116387523D01*
X155654476Y-116197047D01*
X155654476Y-115863714D01*
X155702095Y-115673238D01*
X155797333Y-115578000D01*
X155892571Y-115530380D01*
X156083047Y-115530380D01*
X156178285Y-115578000D01*
X156273523Y-115673238D01*
X156321142Y-115863714D01*
X156321142Y-116197047D01*
X156273523Y-116387523D01*
X156178285Y-116482761D01*
X156083047Y-116530380D01*
X155892571Y-116530380D01*
X156654476Y-115530380D02*
X157273523Y-115530380D01*
X156940190Y-115911333D01*
X157083047Y-115911333D01*
X157178285Y-115958952D01*
X157225904Y-116006571D01*
X157273523Y-116101809D01*
X157273523Y-116339904D01*
X157225904Y-116435142D01*
X157178285Y-116482761D01*
X157083047Y-116530380D01*
X156797333Y-116530380D01*
X156702095Y-116482761D01*
X156654476Y-116435142D01*
X123856761Y-90971619D02*
X123761523Y-90924000D01*
X123666285Y-90828761D01*
X123523428Y-90685904D01*
X123428190Y-90638285D01*
X123332952Y-90638285D01*
X123380571Y-90876380D02*
X123285333Y-90828761D01*
X123190095Y-90733523D01*
X123142476Y-90543047D01*
X123142476Y-90209714D01*
X123190095Y-90019238D01*
X123285333Y-89924000D01*
X123380571Y-89876380D01*
X123571047Y-89876380D01*
X123666285Y-89924000D01*
X123761523Y-90019238D01*
X123809142Y-90209714D01*
X123809142Y-90543047D01*
X123761523Y-90733523D01*
X123666285Y-90828761D01*
X123571047Y-90876380D01*
X123380571Y-90876380D01*
X124761523Y-90876380D02*
X124190095Y-90876380D01*
X124475809Y-90876380D02*
X124475809Y-89876380D01*
X124380571Y-90019238D01*
X124285333Y-90114476D01*
X124190095Y-90162095D01*
X166536761Y-98750380D02*
X166203428Y-98274190D01*
X165965333Y-98750380D02*
X165965333Y-97750380D01*
X166346285Y-97750380D01*
X166441523Y-97798000D01*
X166489142Y-97845619D01*
X166536761Y-97940857D01*
X166536761Y-98083714D01*
X166489142Y-98178952D01*
X166441523Y-98226571D01*
X166346285Y-98274190D01*
X165965333Y-98274190D01*
X166822476Y-97750380D02*
X167155809Y-98750380D01*
X167489142Y-97750380D01*
X167727238Y-97750380D02*
X168346285Y-97750380D01*
X168012952Y-98131333D01*
X168155809Y-98131333D01*
X168251047Y-98178952D01*
X168298666Y-98226571D01*
X168346285Y-98321809D01*
X168346285Y-98559904D01*
X168298666Y-98655142D01*
X168251047Y-98702761D01*
X168155809Y-98750380D01*
X167870095Y-98750380D01*
X167774857Y-98702761D01*
X167727238Y-98655142D01*
X146152663Y-95696882D02*
X145573604Y-95747461D01*
X145866949Y-96191753D02*
X145000924Y-95691753D01*
X145191400Y-95361839D01*
X145280258Y-95303170D01*
X145345307Y-95285740D01*
X145451595Y-95292120D01*
X145575313Y-95363548D01*
X145633982Y-95452407D01*
X145651412Y-95517455D01*
X145645032Y-95623744D01*
X145454556Y-95953658D01*
X146628854Y-94872095D02*
X146343140Y-95366967D01*
X146485997Y-95119531D02*
X145619971Y-94619531D01*
X145696070Y-94773439D01*
X145730930Y-94903536D01*
X145724550Y-95009824D01*
X145929495Y-94083420D02*
X146262828Y-93506070D01*
X146914568Y-94377224D01*
X166878095Y-76922380D02*
X166878095Y-77731904D01*
X166925714Y-77827142D01*
X166973333Y-77874761D01*
X167068571Y-77922380D01*
X167259047Y-77922380D01*
X167354285Y-77874761D01*
X167401904Y-77827142D01*
X167449523Y-77731904D01*
X167449523Y-76922380D01*
X168401904Y-76922380D02*
X167925714Y-76922380D01*
X167878095Y-77398571D01*
X167925714Y-77350952D01*
X168020952Y-77303333D01*
X168259047Y-77303333D01*
X168354285Y-77350952D01*
X168401904Y-77398571D01*
X168449523Y-77493809D01*
X168449523Y-77731904D01*
X168401904Y-77827142D01*
X168354285Y-77874761D01*
X168259047Y-77922380D01*
X168020952Y-77922380D01*
X167925714Y-77874761D01*
X167878095Y-77827142D01*
X132754761Y-103830380D02*
X132421428Y-103354190D01*
X132183333Y-103830380D02*
X132183333Y-102830380D01*
X132564285Y-102830380D01*
X132659523Y-102878000D01*
X132707142Y-102925619D01*
X132754761Y-103020857D01*
X132754761Y-103163714D01*
X132707142Y-103258952D01*
X132659523Y-103306571D01*
X132564285Y-103354190D01*
X132183333Y-103354190D01*
X133040476Y-102830380D02*
X133373809Y-103830380D01*
X133707142Y-102830380D01*
X133992857Y-102925619D02*
X134040476Y-102878000D01*
X134135714Y-102830380D01*
X134373809Y-102830380D01*
X134469047Y-102878000D01*
X134516666Y-102925619D01*
X134564285Y-103020857D01*
X134564285Y-103116095D01*
X134516666Y-103258952D01*
X133945238Y-103830380D01*
X134564285Y-103830380D01*
X125134761Y-103830380D02*
X124801428Y-103354190D01*
X124563333Y-103830380D02*
X124563333Y-102830380D01*
X124944285Y-102830380D01*
X125039523Y-102878000D01*
X125087142Y-102925619D01*
X125134761Y-103020857D01*
X125134761Y-103163714D01*
X125087142Y-103258952D01*
X125039523Y-103306571D01*
X124944285Y-103354190D01*
X124563333Y-103354190D01*
X125420476Y-102830380D02*
X125753809Y-103830380D01*
X126087142Y-102830380D01*
X126944285Y-103830380D02*
X126372857Y-103830380D01*
X126658571Y-103830380D02*
X126658571Y-102830380D01*
X126563333Y-102973238D01*
X126468095Y-103068476D01*
X126372857Y-103116095D01*
X165972142Y-71064380D02*
X165638809Y-70588190D01*
X165400714Y-71064380D02*
X165400714Y-70064380D01*
X165781666Y-70064380D01*
X165876904Y-70112000D01*
X165924523Y-70159619D01*
X165972142Y-70254857D01*
X165972142Y-70397714D01*
X165924523Y-70492952D01*
X165876904Y-70540571D01*
X165781666Y-70588190D01*
X165400714Y-70588190D01*
X166829285Y-70397714D02*
X166829285Y-71064380D01*
X166591190Y-70016761D02*
X166353095Y-70731047D01*
X166972142Y-70731047D01*
X167495952Y-70492952D02*
X167400714Y-70445333D01*
X167353095Y-70397714D01*
X167305476Y-70302476D01*
X167305476Y-70254857D01*
X167353095Y-70159619D01*
X167400714Y-70112000D01*
X167495952Y-70064380D01*
X167686428Y-70064380D01*
X167781666Y-70112000D01*
X167829285Y-70159619D01*
X167876904Y-70254857D01*
X167876904Y-70302476D01*
X167829285Y-70397714D01*
X167781666Y-70445333D01*
X167686428Y-70492952D01*
X167495952Y-70492952D01*
X167400714Y-70540571D01*
X167353095Y-70588190D01*
X167305476Y-70683428D01*
X167305476Y-70873904D01*
X167353095Y-70969142D01*
X167400714Y-71016761D01*
X167495952Y-71064380D01*
X167686428Y-71064380D01*
X167781666Y-71016761D01*
X167829285Y-70969142D01*
X167876904Y-70873904D01*
X167876904Y-70683428D01*
X167829285Y-70588190D01*
X167781666Y-70540571D01*
X167686428Y-70492952D01*
X162933142Y-68778380D02*
X162599809Y-68302190D01*
X162361714Y-68778380D02*
X162361714Y-67778380D01*
X162742666Y-67778380D01*
X162837904Y-67826000D01*
X162885523Y-67873619D01*
X162933142Y-67968857D01*
X162933142Y-68111714D01*
X162885523Y-68206952D01*
X162837904Y-68254571D01*
X162742666Y-68302190D01*
X162361714Y-68302190D01*
X163790285Y-68111714D02*
X163790285Y-68778380D01*
X163552190Y-67730761D02*
X163314095Y-68445047D01*
X163933142Y-68445047D01*
X164218857Y-67778380D02*
X164885523Y-67778380D01*
X164456952Y-68778380D01*
X166743142Y-86304380D02*
X166409809Y-85828190D01*
X166171714Y-86304380D02*
X166171714Y-85304380D01*
X166552666Y-85304380D01*
X166647904Y-85352000D01*
X166695523Y-85399619D01*
X166743142Y-85494857D01*
X166743142Y-85637714D01*
X166695523Y-85732952D01*
X166647904Y-85780571D01*
X166552666Y-85828190D01*
X166171714Y-85828190D01*
X167600285Y-85637714D02*
X167600285Y-86304380D01*
X167362190Y-85256761D02*
X167124095Y-85971047D01*
X167743142Y-85971047D01*
X168552666Y-85304380D02*
X168362190Y-85304380D01*
X168266952Y-85352000D01*
X168219333Y-85399619D01*
X168124095Y-85542476D01*
X168076476Y-85732952D01*
X168076476Y-86113904D01*
X168124095Y-86209142D01*
X168171714Y-86256761D01*
X168266952Y-86304380D01*
X168457428Y-86304380D01*
X168552666Y-86256761D01*
X168600285Y-86209142D01*
X168647904Y-86113904D01*
X168647904Y-85875809D01*
X168600285Y-85780571D01*
X168552666Y-85732952D01*
X168457428Y-85685333D01*
X168266952Y-85685333D01*
X168171714Y-85732952D01*
X168124095Y-85780571D01*
X168076476Y-85875809D01*
X162162142Y-86304380D02*
X161828809Y-85828190D01*
X161590714Y-86304380D02*
X161590714Y-85304380D01*
X161971666Y-85304380D01*
X162066904Y-85352000D01*
X162114523Y-85399619D01*
X162162142Y-85494857D01*
X162162142Y-85637714D01*
X162114523Y-85732952D01*
X162066904Y-85780571D01*
X161971666Y-85828190D01*
X161590714Y-85828190D01*
X163019285Y-85637714D02*
X163019285Y-86304380D01*
X162781190Y-85256761D02*
X162543095Y-85971047D01*
X163162142Y-85971047D01*
X164019285Y-85304380D02*
X163543095Y-85304380D01*
X163495476Y-85780571D01*
X163543095Y-85732952D01*
X163638333Y-85685333D01*
X163876428Y-85685333D01*
X163971666Y-85732952D01*
X164019285Y-85780571D01*
X164066904Y-85875809D01*
X164066904Y-86113904D01*
X164019285Y-86209142D01*
X163971666Y-86256761D01*
X163876428Y-86304380D01*
X163638333Y-86304380D01*
X163543095Y-86256761D01*
X163495476Y-86209142D01*
X168775142Y-116530380D02*
X168441809Y-116054190D01*
X168203714Y-116530380D02*
X168203714Y-115530380D01*
X168584666Y-115530380D01*
X168679904Y-115578000D01*
X168727523Y-115625619D01*
X168775142Y-115720857D01*
X168775142Y-115863714D01*
X168727523Y-115958952D01*
X168679904Y-116006571D01*
X168584666Y-116054190D01*
X168203714Y-116054190D01*
X169108476Y-115530380D02*
X169727523Y-115530380D01*
X169394190Y-115911333D01*
X169537047Y-115911333D01*
X169632285Y-115958952D01*
X169679904Y-116006571D01*
X169727523Y-116101809D01*
X169727523Y-116339904D01*
X169679904Y-116435142D01*
X169632285Y-116482761D01*
X169537047Y-116530380D01*
X169251333Y-116530380D01*
X169156095Y-116482761D01*
X169108476Y-116435142D01*
X170203714Y-116530380D02*
X170394190Y-116530380D01*
X170489428Y-116482761D01*
X170537047Y-116435142D01*
X170632285Y-116292285D01*
X170679904Y-116101809D01*
X170679904Y-115720857D01*
X170632285Y-115625619D01*
X170584666Y-115578000D01*
X170489428Y-115530380D01*
X170298952Y-115530380D01*
X170203714Y-115578000D01*
X170156095Y-115625619D01*
X170108476Y-115720857D01*
X170108476Y-115958952D01*
X170156095Y-116054190D01*
X170203714Y-116101809D01*
X170298952Y-116149428D01*
X170489428Y-116149428D01*
X170584666Y-116101809D01*
X170632285Y-116054190D01*
X170679904Y-115958952D01*
X128906142Y-94432380D02*
X128572809Y-93956190D01*
X128334714Y-94432380D02*
X128334714Y-93432380D01*
X128715666Y-93432380D01*
X128810904Y-93480000D01*
X128858523Y-93527619D01*
X128906142Y-93622857D01*
X128906142Y-93765714D01*
X128858523Y-93860952D01*
X128810904Y-93908571D01*
X128715666Y-93956190D01*
X128334714Y-93956190D01*
X129858523Y-94432380D02*
X129287095Y-94432380D01*
X129572809Y-94432380D02*
X129572809Y-93432380D01*
X129477571Y-93575238D01*
X129382333Y-93670476D01*
X129287095Y-93718095D01*
X130763285Y-93432380D02*
X130287095Y-93432380D01*
X130239476Y-93908571D01*
X130287095Y-93860952D01*
X130382333Y-93813333D01*
X130620428Y-93813333D01*
X130715666Y-93860952D01*
X130763285Y-93908571D01*
X130810904Y-94003809D01*
X130810904Y-94241904D01*
X130763285Y-94337142D01*
X130715666Y-94384761D01*
X130620428Y-94432380D01*
X130382333Y-94432380D01*
X130287095Y-94384761D01*
X130239476Y-94337142D01*
X166752142Y-82399142D02*
X166704523Y-82446761D01*
X166561666Y-82494380D01*
X166466428Y-82494380D01*
X166323571Y-82446761D01*
X166228333Y-82351523D01*
X166180714Y-82256285D01*
X166133095Y-82065809D01*
X166133095Y-81922952D01*
X166180714Y-81732476D01*
X166228333Y-81637238D01*
X166323571Y-81542000D01*
X166466428Y-81494380D01*
X166561666Y-81494380D01*
X166704523Y-81542000D01*
X166752142Y-81589619D01*
X167133095Y-81589619D02*
X167180714Y-81542000D01*
X167275952Y-81494380D01*
X167514047Y-81494380D01*
X167609285Y-81542000D01*
X167656904Y-81589619D01*
X167704523Y-81684857D01*
X167704523Y-81780095D01*
X167656904Y-81922952D01*
X167085476Y-82494380D01*
X167704523Y-82494380D01*
X168085476Y-81589619D02*
X168133095Y-81542000D01*
X168228333Y-81494380D01*
X168466428Y-81494380D01*
X168561666Y-81542000D01*
X168609285Y-81589619D01*
X168656904Y-81684857D01*
X168656904Y-81780095D01*
X168609285Y-81922952D01*
X168037857Y-82494380D01*
X168656904Y-82494380D01*
X165981142Y-67159142D02*
X165933523Y-67206761D01*
X165790666Y-67254380D01*
X165695428Y-67254380D01*
X165552571Y-67206761D01*
X165457333Y-67111523D01*
X165409714Y-67016285D01*
X165362095Y-66825809D01*
X165362095Y-66682952D01*
X165409714Y-66492476D01*
X165457333Y-66397238D01*
X165552571Y-66302000D01*
X165695428Y-66254380D01*
X165790666Y-66254380D01*
X165933523Y-66302000D01*
X165981142Y-66349619D01*
X166362095Y-66349619D02*
X166409714Y-66302000D01*
X166504952Y-66254380D01*
X166743047Y-66254380D01*
X166838285Y-66302000D01*
X166885904Y-66349619D01*
X166933523Y-66444857D01*
X166933523Y-66540095D01*
X166885904Y-66682952D01*
X166314476Y-67254380D01*
X166933523Y-67254380D01*
X167885904Y-67254380D02*
X167314476Y-67254380D01*
X167600190Y-67254380D02*
X167600190Y-66254380D01*
X167504952Y-66397238D01*
X167409714Y-66492476D01*
X167314476Y-66540095D01*
X162162142Y-82399142D02*
X162114523Y-82446761D01*
X161971666Y-82494380D01*
X161876428Y-82494380D01*
X161733571Y-82446761D01*
X161638333Y-82351523D01*
X161590714Y-82256285D01*
X161543095Y-82065809D01*
X161543095Y-81922952D01*
X161590714Y-81732476D01*
X161638333Y-81637238D01*
X161733571Y-81542000D01*
X161876428Y-81494380D01*
X161971666Y-81494380D01*
X162114523Y-81542000D01*
X162162142Y-81589619D01*
X162543095Y-81589619D02*
X162590714Y-81542000D01*
X162685952Y-81494380D01*
X162924047Y-81494380D01*
X163019285Y-81542000D01*
X163066904Y-81589619D01*
X163114523Y-81684857D01*
X163114523Y-81780095D01*
X163066904Y-81922952D01*
X162495476Y-82494380D01*
X163114523Y-82494380D01*
X163733571Y-81494380D02*
X163828809Y-81494380D01*
X163924047Y-81542000D01*
X163971666Y-81589619D01*
X164019285Y-81684857D01*
X164066904Y-81875333D01*
X164066904Y-82113428D01*
X164019285Y-82303904D01*
X163971666Y-82399142D01*
X163924047Y-82446761D01*
X163828809Y-82494380D01*
X163733571Y-82494380D01*
X163638333Y-82446761D01*
X163590714Y-82399142D01*
X163543095Y-82303904D01*
X163495476Y-82113428D01*
X163495476Y-81875333D01*
X163543095Y-81684857D01*
X163590714Y-81589619D01*
X163638333Y-81542000D01*
X163733571Y-81494380D01*
X157336142Y-86304380D02*
X157002809Y-85828190D01*
X156764714Y-86304380D02*
X156764714Y-85304380D01*
X157145666Y-85304380D01*
X157240904Y-85352000D01*
X157288523Y-85399619D01*
X157336142Y-85494857D01*
X157336142Y-85637714D01*
X157288523Y-85732952D01*
X157240904Y-85780571D01*
X157145666Y-85828190D01*
X156764714Y-85828190D01*
X157669476Y-85304380D02*
X158288523Y-85304380D01*
X157955190Y-85685333D01*
X158098047Y-85685333D01*
X158193285Y-85732952D01*
X158240904Y-85780571D01*
X158288523Y-85875809D01*
X158288523Y-86113904D01*
X158240904Y-86209142D01*
X158193285Y-86256761D01*
X158098047Y-86304380D01*
X157812333Y-86304380D01*
X157717095Y-86256761D01*
X157669476Y-86209142D01*
X158859952Y-85732952D02*
X158764714Y-85685333D01*
X158717095Y-85637714D01*
X158669476Y-85542476D01*
X158669476Y-85494857D01*
X158717095Y-85399619D01*
X158764714Y-85352000D01*
X158859952Y-85304380D01*
X159050428Y-85304380D01*
X159145666Y-85352000D01*
X159193285Y-85399619D01*
X159240904Y-85494857D01*
X159240904Y-85542476D01*
X159193285Y-85637714D01*
X159145666Y-85685333D01*
X159050428Y-85732952D01*
X158859952Y-85732952D01*
X158764714Y-85780571D01*
X158717095Y-85828190D01*
X158669476Y-85923428D01*
X158669476Y-86113904D01*
X158717095Y-86209142D01*
X158764714Y-86256761D01*
X158859952Y-86304380D01*
X159050428Y-86304380D01*
X159145666Y-86256761D01*
X159193285Y-86209142D01*
X159240904Y-86113904D01*
X159240904Y-85923428D01*
X159193285Y-85828190D01*
X159145666Y-85780571D01*
X159050428Y-85732952D01*
X154297142Y-67159142D02*
X154249523Y-67206761D01*
X154106666Y-67254380D01*
X154011428Y-67254380D01*
X153868571Y-67206761D01*
X153773333Y-67111523D01*
X153725714Y-67016285D01*
X153678095Y-66825809D01*
X153678095Y-66682952D01*
X153725714Y-66492476D01*
X153773333Y-66397238D01*
X153868571Y-66302000D01*
X154011428Y-66254380D01*
X154106666Y-66254380D01*
X154249523Y-66302000D01*
X154297142Y-66349619D01*
X155249523Y-67254380D02*
X154678095Y-67254380D01*
X154963809Y-67254380D02*
X154963809Y-66254380D01*
X154868571Y-66397238D01*
X154773333Y-66492476D01*
X154678095Y-66540095D01*
X156201904Y-67254380D02*
X155630476Y-67254380D01*
X155916190Y-67254380D02*
X155916190Y-66254380D01*
X155820952Y-66397238D01*
X155725714Y-66492476D01*
X155630476Y-66540095D01*
X157345142Y-82494380D02*
X157011809Y-82018190D01*
X156773714Y-82494380D02*
X156773714Y-81494380D01*
X157154666Y-81494380D01*
X157249904Y-81542000D01*
X157297523Y-81589619D01*
X157345142Y-81684857D01*
X157345142Y-81827714D01*
X157297523Y-81922952D01*
X157249904Y-81970571D01*
X157154666Y-82018190D01*
X156773714Y-82018190D01*
X157678476Y-81494380D02*
X158297523Y-81494380D01*
X157964190Y-81875333D01*
X158107047Y-81875333D01*
X158202285Y-81922952D01*
X158249904Y-81970571D01*
X158297523Y-82065809D01*
X158297523Y-82303904D01*
X158249904Y-82399142D01*
X158202285Y-82446761D01*
X158107047Y-82494380D01*
X157821333Y-82494380D01*
X157726095Y-82446761D01*
X157678476Y-82399142D01*
X159154666Y-81494380D02*
X158964190Y-81494380D01*
X158868952Y-81542000D01*
X158821333Y-81589619D01*
X158726095Y-81732476D01*
X158678476Y-81922952D01*
X158678476Y-82303904D01*
X158726095Y-82399142D01*
X158773714Y-82446761D01*
X158868952Y-82494380D01*
X159059428Y-82494380D01*
X159154666Y-82446761D01*
X159202285Y-82399142D01*
X159249904Y-82303904D01*
X159249904Y-82065809D01*
X159202285Y-81970571D01*
X159154666Y-81922952D01*
X159059428Y-81875333D01*
X158868952Y-81875333D01*
X158773714Y-81922952D01*
X158726095Y-81970571D01*
X158678476Y-82065809D01*
X154297142Y-71064380D02*
X153963809Y-70588190D01*
X153725714Y-71064380D02*
X153725714Y-70064380D01*
X154106666Y-70064380D01*
X154201904Y-70112000D01*
X154249523Y-70159619D01*
X154297142Y-70254857D01*
X154297142Y-70397714D01*
X154249523Y-70492952D01*
X154201904Y-70540571D01*
X154106666Y-70588190D01*
X153725714Y-70588190D01*
X155154285Y-70397714D02*
X155154285Y-71064380D01*
X154916190Y-70016761D02*
X154678095Y-70731047D01*
X155297142Y-70731047D01*
X155582857Y-70064380D02*
X156201904Y-70064380D01*
X155868571Y-70445333D01*
X156011428Y-70445333D01*
X156106666Y-70492952D01*
X156154285Y-70540571D01*
X156201904Y-70635809D01*
X156201904Y-70873904D01*
X156154285Y-70969142D01*
X156106666Y-71016761D01*
X156011428Y-71064380D01*
X155725714Y-71064380D01*
X155630476Y-71016761D01*
X155582857Y-70969142D01*
X152782142Y-86304380D02*
X152448809Y-85828190D01*
X152210714Y-86304380D02*
X152210714Y-85304380D01*
X152591666Y-85304380D01*
X152686904Y-85352000D01*
X152734523Y-85399619D01*
X152782142Y-85494857D01*
X152782142Y-85637714D01*
X152734523Y-85732952D01*
X152686904Y-85780571D01*
X152591666Y-85828190D01*
X152210714Y-85828190D01*
X153115476Y-85304380D02*
X153734523Y-85304380D01*
X153401190Y-85685333D01*
X153544047Y-85685333D01*
X153639285Y-85732952D01*
X153686904Y-85780571D01*
X153734523Y-85875809D01*
X153734523Y-86113904D01*
X153686904Y-86209142D01*
X153639285Y-86256761D01*
X153544047Y-86304380D01*
X153258333Y-86304380D01*
X153163095Y-86256761D01*
X153115476Y-86209142D01*
X154115476Y-85399619D02*
X154163095Y-85352000D01*
X154258333Y-85304380D01*
X154496428Y-85304380D01*
X154591666Y-85352000D01*
X154639285Y-85399619D01*
X154686904Y-85494857D01*
X154686904Y-85590095D01*
X154639285Y-85732952D01*
X154067857Y-86304380D01*
X154686904Y-86304380D01*
X158996142Y-71064380D02*
X158662809Y-70588190D01*
X158424714Y-71064380D02*
X158424714Y-70064380D01*
X158805666Y-70064380D01*
X158900904Y-70112000D01*
X158948523Y-70159619D01*
X158996142Y-70254857D01*
X158996142Y-70397714D01*
X158948523Y-70492952D01*
X158900904Y-70540571D01*
X158805666Y-70588190D01*
X158424714Y-70588190D01*
X159853285Y-70397714D02*
X159853285Y-71064380D01*
X159615190Y-70016761D02*
X159377095Y-70731047D01*
X159996142Y-70731047D01*
X160805666Y-70397714D02*
X160805666Y-71064380D01*
X160567571Y-70016761D02*
X160329476Y-70731047D01*
X160948523Y-70731047D01*
X152773142Y-82399142D02*
X152725523Y-82446761D01*
X152582666Y-82494380D01*
X152487428Y-82494380D01*
X152344571Y-82446761D01*
X152249333Y-82351523D01*
X152201714Y-82256285D01*
X152154095Y-82065809D01*
X152154095Y-81922952D01*
X152201714Y-81732476D01*
X152249333Y-81637238D01*
X152344571Y-81542000D01*
X152487428Y-81494380D01*
X152582666Y-81494380D01*
X152725523Y-81542000D01*
X152773142Y-81589619D01*
X153725523Y-82494380D02*
X153154095Y-82494380D01*
X153439809Y-82494380D02*
X153439809Y-81494380D01*
X153344571Y-81637238D01*
X153249333Y-81732476D01*
X153154095Y-81780095D01*
X154344571Y-81494380D02*
X154439809Y-81494380D01*
X154535047Y-81542000D01*
X154582666Y-81589619D01*
X154630285Y-81684857D01*
X154677904Y-81875333D01*
X154677904Y-82113428D01*
X154630285Y-82303904D01*
X154582666Y-82399142D01*
X154535047Y-82446761D01*
X154439809Y-82494380D01*
X154344571Y-82494380D01*
X154249333Y-82446761D01*
X154201714Y-82399142D01*
X154154095Y-82303904D01*
X154106476Y-82113428D01*
X154106476Y-81875333D01*
X154154095Y-81684857D01*
X154201714Y-81589619D01*
X154249333Y-81542000D01*
X154344571Y-81494380D01*
X158996142Y-67254380D02*
X158662809Y-66778190D01*
X158424714Y-67254380D02*
X158424714Y-66254380D01*
X158805666Y-66254380D01*
X158900904Y-66302000D01*
X158948523Y-66349619D01*
X158996142Y-66444857D01*
X158996142Y-66587714D01*
X158948523Y-66682952D01*
X158900904Y-66730571D01*
X158805666Y-66778190D01*
X158424714Y-66778190D01*
X159853285Y-66587714D02*
X159853285Y-67254380D01*
X159615190Y-66206761D02*
X159377095Y-66921047D01*
X159996142Y-66921047D01*
X160567571Y-66254380D02*
X160662809Y-66254380D01*
X160758047Y-66302000D01*
X160805666Y-66349619D01*
X160853285Y-66444857D01*
X160900904Y-66635333D01*
X160900904Y-66873428D01*
X160853285Y-67063904D01*
X160805666Y-67159142D01*
X160758047Y-67206761D01*
X160662809Y-67254380D01*
X160567571Y-67254380D01*
X160472333Y-67206761D01*
X160424714Y-67159142D01*
X160377095Y-67063904D01*
X160329476Y-66873428D01*
X160329476Y-66635333D01*
X160377095Y-66444857D01*
X160424714Y-66349619D01*
X160472333Y-66302000D01*
X160567571Y-66254380D01*
X158096095Y-76733380D02*
X158096095Y-77542904D01*
X158143714Y-77638142D01*
X158191333Y-77685761D01*
X158286571Y-77733380D01*
X158477047Y-77733380D01*
X158572285Y-77685761D01*
X158619904Y-77638142D01*
X158667523Y-77542904D01*
X158667523Y-76733380D01*
X159572285Y-77066714D02*
X159572285Y-77733380D01*
X159334190Y-76685761D02*
X159096095Y-77400047D01*
X159715142Y-77400047D01*
X120304333Y-86304380D02*
X119971000Y-85828190D01*
X119732904Y-86304380D02*
X119732904Y-85304380D01*
X120113857Y-85304380D01*
X120209095Y-85352000D01*
X120256714Y-85399619D01*
X120304333Y-85494857D01*
X120304333Y-85637714D01*
X120256714Y-85732952D01*
X120209095Y-85780571D01*
X120113857Y-85828190D01*
X119732904Y-85828190D01*
X121209095Y-85304380D02*
X120732904Y-85304380D01*
X120685285Y-85780571D01*
X120732904Y-85732952D01*
X120828142Y-85685333D01*
X121066238Y-85685333D01*
X121161476Y-85732952D01*
X121209095Y-85780571D01*
X121256714Y-85875809D01*
X121256714Y-86113904D01*
X121209095Y-86209142D01*
X121161476Y-86256761D01*
X121066238Y-86304380D01*
X120828142Y-86304380D01*
X120732904Y-86256761D01*
X120685285Y-86209142D01*
X152931904Y-101798380D02*
X152931904Y-100798380D01*
X153170000Y-100798380D01*
X153312857Y-100846000D01*
X153408095Y-100941238D01*
X153455714Y-101036476D01*
X153503333Y-101226952D01*
X153503333Y-101369809D01*
X153455714Y-101560285D01*
X153408095Y-101655523D01*
X153312857Y-101750761D01*
X153170000Y-101798380D01*
X152931904Y-101798380D01*
X153884285Y-100893619D02*
X153931904Y-100846000D01*
X154027142Y-100798380D01*
X154265238Y-100798380D01*
X154360476Y-100846000D01*
X154408095Y-100893619D01*
X154455714Y-100988857D01*
X154455714Y-101084095D01*
X154408095Y-101226952D01*
X153836666Y-101798380D01*
X154455714Y-101798380D01*
X145098591Y-103428460D02*
X145344317Y-102901690D01*
X144812876Y-102933589D02*
X145678902Y-102433589D01*
X145869378Y-102763503D01*
X145875758Y-102869791D01*
X145858328Y-102934840D01*
X145799659Y-103023698D01*
X145675941Y-103095127D01*
X145569653Y-103101507D01*
X145504604Y-103084077D01*
X145415745Y-103025408D01*
X145225269Y-102695493D01*
X145574781Y-104253246D02*
X145289067Y-103758375D01*
X145431924Y-104005811D02*
X146297949Y-103505811D01*
X146126612Y-103494761D01*
X145996515Y-103459901D01*
X145907656Y-103401232D01*
X146580703Y-104662221D02*
X146003352Y-104995554D01*
X146791570Y-104265548D02*
X146053932Y-104416494D01*
X146363456Y-104952605D01*
X160520479Y-94641496D02*
X160766205Y-94114726D01*
X160234764Y-94146625D02*
X161100790Y-93646625D01*
X161291266Y-93976539D01*
X161297646Y-94082827D01*
X161280216Y-94147876D01*
X161221547Y-94236734D01*
X161097829Y-94308163D01*
X160991541Y-94314543D01*
X160926492Y-94297113D01*
X160837633Y-94238444D01*
X160647157Y-93908529D01*
X161494502Y-94519030D02*
X161559550Y-94536460D01*
X161648409Y-94595129D01*
X161767456Y-94801325D01*
X161773836Y-94907613D01*
X161756406Y-94972662D01*
X161697737Y-95061521D01*
X161615259Y-95109140D01*
X161467731Y-95139329D01*
X160687145Y-94930171D01*
X160996669Y-95466282D01*
X161472859Y-96291069D02*
X161187145Y-95796197D01*
X161330002Y-96043633D02*
X162196028Y-95543633D01*
X162024691Y-95532583D01*
X161894593Y-95497723D01*
X161805735Y-95439054D01*
X153003142Y-91024380D02*
X152669809Y-90548190D01*
X152431714Y-91024380D02*
X152431714Y-90024380D01*
X152812666Y-90024380D01*
X152907904Y-90072000D01*
X152955523Y-90119619D01*
X153003142Y-90214857D01*
X153003142Y-90357714D01*
X152955523Y-90452952D01*
X152907904Y-90500571D01*
X152812666Y-90548190D01*
X152431714Y-90548190D01*
X153384095Y-90119619D02*
X153431714Y-90072000D01*
X153526952Y-90024380D01*
X153765047Y-90024380D01*
X153860285Y-90072000D01*
X153907904Y-90119619D01*
X153955523Y-90214857D01*
X153955523Y-90310095D01*
X153907904Y-90452952D01*
X153336476Y-91024380D01*
X153955523Y-91024380D01*
X154812666Y-90024380D02*
X154622190Y-90024380D01*
X154526952Y-90072000D01*
X154479333Y-90119619D01*
X154384095Y-90262476D01*
X154336476Y-90452952D01*
X154336476Y-90833904D01*
X154384095Y-90929142D01*
X154431714Y-90976761D01*
X154526952Y-91024380D01*
X154717428Y-91024380D01*
X154812666Y-90976761D01*
X154860285Y-90929142D01*
X154907904Y-90833904D01*
X154907904Y-90595809D01*
X154860285Y-90500571D01*
X154812666Y-90452952D01*
X154717428Y-90405333D01*
X154526952Y-90405333D01*
X154431714Y-90452952D01*
X154384095Y-90500571D01*
X154336476Y-90595809D01*
X161598551Y-104541921D02*
X161019492Y-104592500D01*
X161312837Y-105036792D02*
X160446812Y-104536792D01*
X160637288Y-104206878D01*
X160726146Y-104148209D01*
X160791195Y-104130779D01*
X160897483Y-104137159D01*
X161021201Y-104208587D01*
X161079870Y-104297446D01*
X161097300Y-104362494D01*
X161090920Y-104468783D01*
X160900444Y-104798697D01*
X160899193Y-103753245D02*
X161208716Y-103217134D01*
X161371964Y-103696286D01*
X161443393Y-103572568D01*
X161532251Y-103513899D01*
X161597300Y-103496469D01*
X161703588Y-103502849D01*
X161909785Y-103621896D01*
X161968454Y-103710755D01*
X161985883Y-103775804D01*
X161979504Y-103882092D01*
X161836647Y-104129528D01*
X161747788Y-104188197D01*
X161682739Y-104205626D01*
X161925963Y-102641494D02*
X162503313Y-102974827D01*
X161477001Y-102657214D02*
X161976543Y-103220553D01*
X162286067Y-102684442D01*
X153003142Y-108656380D02*
X152669809Y-108180190D01*
X152431714Y-108656380D02*
X152431714Y-107656380D01*
X152812666Y-107656380D01*
X152907904Y-107704000D01*
X152955523Y-107751619D01*
X153003142Y-107846857D01*
X153003142Y-107989714D01*
X152955523Y-108084952D01*
X152907904Y-108132571D01*
X152812666Y-108180190D01*
X152431714Y-108180190D01*
X153860285Y-107989714D02*
X153860285Y-108656380D01*
X153622190Y-107608761D02*
X153384095Y-108323047D01*
X154003142Y-108323047D01*
X154907904Y-108656380D02*
X154336476Y-108656380D01*
X154622190Y-108656380D02*
X154622190Y-107656380D01*
X154526952Y-107799238D01*
X154431714Y-107894476D01*
X154336476Y-107942095D01*
X131318095Y-76733380D02*
X131318095Y-77542904D01*
X131365714Y-77638142D01*
X131413333Y-77685761D01*
X131508571Y-77733380D01*
X131699047Y-77733380D01*
X131794285Y-77685761D01*
X131841904Y-77638142D01*
X131889523Y-77542904D01*
X131889523Y-76733380D01*
X132889523Y-77733380D02*
X132318095Y-77733380D01*
X132603809Y-77733380D02*
X132603809Y-76733380D01*
X132508571Y-76876238D01*
X132413333Y-76971476D01*
X132318095Y-77019095D01*
X140216095Y-76733380D02*
X140216095Y-77542904D01*
X140263714Y-77638142D01*
X140311333Y-77685761D01*
X140406571Y-77733380D01*
X140597047Y-77733380D01*
X140692285Y-77685761D01*
X140739904Y-77638142D01*
X140787523Y-77542904D01*
X140787523Y-76733380D01*
X141216095Y-76828619D02*
X141263714Y-76781000D01*
X141358952Y-76733380D01*
X141597047Y-76733380D01*
X141692285Y-76781000D01*
X141739904Y-76828619D01*
X141787523Y-76923857D01*
X141787523Y-77019095D01*
X141739904Y-77161952D01*
X141168476Y-77733380D01*
X141787523Y-77733380D01*
X149124095Y-76733380D02*
X149124095Y-77542904D01*
X149171714Y-77638142D01*
X149219333Y-77685761D01*
X149314571Y-77733380D01*
X149505047Y-77733380D01*
X149600285Y-77685761D01*
X149647904Y-77638142D01*
X149695523Y-77542904D01*
X149695523Y-76733380D01*
X150076476Y-76733380D02*
X150695523Y-76733380D01*
X150362190Y-77114333D01*
X150505047Y-77114333D01*
X150600285Y-77161952D01*
X150647904Y-77209571D01*
X150695523Y-77304809D01*
X150695523Y-77542904D01*
X150647904Y-77638142D01*
X150600285Y-77685761D01*
X150505047Y-77733380D01*
X150219333Y-77733380D01*
X150124095Y-77685761D01*
X150076476Y-77638142D01*
X134874095Y-100544380D02*
X134874095Y-101353904D01*
X134921714Y-101449142D01*
X134969333Y-101496761D01*
X135064571Y-101544380D01*
X135255047Y-101544380D01*
X135350285Y-101496761D01*
X135397904Y-101449142D01*
X135445523Y-101353904D01*
X135445523Y-100544380D01*
X136350285Y-100544380D02*
X136159809Y-100544380D01*
X136064571Y-100592000D01*
X136016952Y-100639619D01*
X135921714Y-100782476D01*
X135874095Y-100972952D01*
X135874095Y-101353904D01*
X135921714Y-101449142D01*
X135969333Y-101496761D01*
X136064571Y-101544380D01*
X136255047Y-101544380D01*
X136350285Y-101496761D01*
X136397904Y-101449142D01*
X136445523Y-101353904D01*
X136445523Y-101115809D01*
X136397904Y-101020571D01*
X136350285Y-100972952D01*
X136255047Y-100925333D01*
X136064571Y-100925333D01*
X135969333Y-100972952D01*
X135921714Y-101020571D01*
X135874095Y-101115809D01*
X125283333Y-67159142D02*
X125235714Y-67206761D01*
X125092857Y-67254380D01*
X124997619Y-67254380D01*
X124854761Y-67206761D01*
X124759523Y-67111523D01*
X124711904Y-67016285D01*
X124664285Y-66825809D01*
X124664285Y-66682952D01*
X124711904Y-66492476D01*
X124759523Y-66397238D01*
X124854761Y-66302000D01*
X124997619Y-66254380D01*
X125092857Y-66254380D01*
X125235714Y-66302000D01*
X125283333Y-66349619D01*
X126235714Y-67254380D02*
X125664285Y-67254380D01*
X125950000Y-67254380D02*
X125950000Y-66254380D01*
X125854761Y-66397238D01*
X125759523Y-66492476D01*
X125664285Y-66540095D01*
X129881333Y-67159142D02*
X129833714Y-67206761D01*
X129690857Y-67254380D01*
X129595619Y-67254380D01*
X129452761Y-67206761D01*
X129357523Y-67111523D01*
X129309904Y-67016285D01*
X129262285Y-66825809D01*
X129262285Y-66682952D01*
X129309904Y-66492476D01*
X129357523Y-66397238D01*
X129452761Y-66302000D01*
X129595619Y-66254380D01*
X129690857Y-66254380D01*
X129833714Y-66302000D01*
X129881333Y-66349619D01*
X130262285Y-66349619D02*
X130309904Y-66302000D01*
X130405142Y-66254380D01*
X130643238Y-66254380D01*
X130738476Y-66302000D01*
X130786095Y-66349619D01*
X130833714Y-66444857D01*
X130833714Y-66540095D01*
X130786095Y-66682952D01*
X130214666Y-67254380D01*
X130833714Y-67254380D01*
X120229333Y-82399142D02*
X120181714Y-82446761D01*
X120038857Y-82494380D01*
X119943619Y-82494380D01*
X119800761Y-82446761D01*
X119705523Y-82351523D01*
X119657904Y-82256285D01*
X119610285Y-82065809D01*
X119610285Y-81922952D01*
X119657904Y-81732476D01*
X119705523Y-81637238D01*
X119800761Y-81542000D01*
X119943619Y-81494380D01*
X120038857Y-81494380D01*
X120181714Y-81542000D01*
X120229333Y-81589619D01*
X120562666Y-81494380D02*
X121181714Y-81494380D01*
X120848380Y-81875333D01*
X120991238Y-81875333D01*
X121086476Y-81922952D01*
X121134095Y-81970571D01*
X121181714Y-82065809D01*
X121181714Y-82303904D01*
X121134095Y-82399142D01*
X121086476Y-82446761D01*
X120991238Y-82494380D01*
X120705523Y-82494380D01*
X120610285Y-82446761D01*
X120562666Y-82399142D01*
X129627333Y-86209142D02*
X129579714Y-86256761D01*
X129436857Y-86304380D01*
X129341619Y-86304380D01*
X129198761Y-86256761D01*
X129103523Y-86161523D01*
X129055904Y-86066285D01*
X129008285Y-85875809D01*
X129008285Y-85732952D01*
X129055904Y-85542476D01*
X129103523Y-85447238D01*
X129198761Y-85352000D01*
X129341619Y-85304380D01*
X129436857Y-85304380D01*
X129579714Y-85352000D01*
X129627333Y-85399619D01*
X130484476Y-85637714D02*
X130484476Y-86304380D01*
X130246380Y-85256761D02*
X130008285Y-85971047D01*
X130627333Y-85971047D01*
X134444333Y-82399142D02*
X134396714Y-82446761D01*
X134253857Y-82494380D01*
X134158619Y-82494380D01*
X134015761Y-82446761D01*
X133920523Y-82351523D01*
X133872904Y-82256285D01*
X133825285Y-82065809D01*
X133825285Y-81922952D01*
X133872904Y-81732476D01*
X133920523Y-81637238D01*
X134015761Y-81542000D01*
X134158619Y-81494380D01*
X134253857Y-81494380D01*
X134396714Y-81542000D01*
X134444333Y-81589619D01*
X135349095Y-81494380D02*
X134872904Y-81494380D01*
X134825285Y-81970571D01*
X134872904Y-81922952D01*
X134968142Y-81875333D01*
X135206238Y-81875333D01*
X135301476Y-81922952D01*
X135349095Y-81970571D01*
X135396714Y-82065809D01*
X135396714Y-82303904D01*
X135349095Y-82399142D01*
X135301476Y-82446761D01*
X135206238Y-82494380D01*
X134968142Y-82494380D01*
X134872904Y-82446761D01*
X134825285Y-82399142D01*
X134698333Y-67159142D02*
X134650714Y-67206761D01*
X134507857Y-67254380D01*
X134412619Y-67254380D01*
X134269761Y-67206761D01*
X134174523Y-67111523D01*
X134126904Y-67016285D01*
X134079285Y-66825809D01*
X134079285Y-66682952D01*
X134126904Y-66492476D01*
X134174523Y-66397238D01*
X134269761Y-66302000D01*
X134412619Y-66254380D01*
X134507857Y-66254380D01*
X134650714Y-66302000D01*
X134698333Y-66349619D01*
X135555476Y-66254380D02*
X135365000Y-66254380D01*
X135269761Y-66302000D01*
X135222142Y-66349619D01*
X135126904Y-66492476D01*
X135079285Y-66682952D01*
X135079285Y-67063904D01*
X135126904Y-67159142D01*
X135174523Y-67206761D01*
X135269761Y-67254380D01*
X135460238Y-67254380D01*
X135555476Y-67206761D01*
X135603095Y-67159142D01*
X135650714Y-67063904D01*
X135650714Y-66825809D01*
X135603095Y-66730571D01*
X135555476Y-66682952D01*
X135460238Y-66635333D01*
X135269761Y-66635333D01*
X135174523Y-66682952D01*
X135126904Y-66730571D01*
X135079285Y-66825809D01*
X144613333Y-67159142D02*
X144565714Y-67206761D01*
X144422857Y-67254380D01*
X144327619Y-67254380D01*
X144184761Y-67206761D01*
X144089523Y-67111523D01*
X144041904Y-67016285D01*
X143994285Y-66825809D01*
X143994285Y-66682952D01*
X144041904Y-66492476D01*
X144089523Y-66397238D01*
X144184761Y-66302000D01*
X144327619Y-66254380D01*
X144422857Y-66254380D01*
X144565714Y-66302000D01*
X144613333Y-66349619D01*
X144946666Y-66254380D02*
X145613333Y-66254380D01*
X145184761Y-67254380D01*
X125089333Y-86209142D02*
X125041714Y-86256761D01*
X124898857Y-86304380D01*
X124803619Y-86304380D01*
X124660761Y-86256761D01*
X124565523Y-86161523D01*
X124517904Y-86066285D01*
X124470285Y-85875809D01*
X124470285Y-85732952D01*
X124517904Y-85542476D01*
X124565523Y-85447238D01*
X124660761Y-85352000D01*
X124803619Y-85304380D01*
X124898857Y-85304380D01*
X125041714Y-85352000D01*
X125089333Y-85399619D01*
X125660761Y-85732952D02*
X125565523Y-85685333D01*
X125517904Y-85637714D01*
X125470285Y-85542476D01*
X125470285Y-85494857D01*
X125517904Y-85399619D01*
X125565523Y-85352000D01*
X125660761Y-85304380D01*
X125851238Y-85304380D01*
X125946476Y-85352000D01*
X125994095Y-85399619D01*
X126041714Y-85494857D01*
X126041714Y-85542476D01*
X125994095Y-85637714D01*
X125946476Y-85685333D01*
X125851238Y-85732952D01*
X125660761Y-85732952D01*
X125565523Y-85780571D01*
X125517904Y-85828190D01*
X125470285Y-85923428D01*
X125470285Y-86113904D01*
X125517904Y-86209142D01*
X125565523Y-86256761D01*
X125660761Y-86304380D01*
X125851238Y-86304380D01*
X125946476Y-86256761D01*
X125994095Y-86209142D01*
X126041714Y-86113904D01*
X126041714Y-85923428D01*
X125994095Y-85828190D01*
X125946476Y-85780571D01*
X125851238Y-85732952D01*
X143978333Y-86209142D02*
X143930714Y-86256761D01*
X143787857Y-86304380D01*
X143692619Y-86304380D01*
X143549761Y-86256761D01*
X143454523Y-86161523D01*
X143406904Y-86066285D01*
X143359285Y-85875809D01*
X143359285Y-85732952D01*
X143406904Y-85542476D01*
X143454523Y-85447238D01*
X143549761Y-85352000D01*
X143692619Y-85304380D01*
X143787857Y-85304380D01*
X143930714Y-85352000D01*
X143978333Y-85399619D01*
X144454523Y-86304380D02*
X144645000Y-86304380D01*
X144740238Y-86256761D01*
X144787857Y-86209142D01*
X144883095Y-86066285D01*
X144930714Y-85875809D01*
X144930714Y-85494857D01*
X144883095Y-85399619D01*
X144835476Y-85352000D01*
X144740238Y-85304380D01*
X144549761Y-85304380D01*
X144454523Y-85352000D01*
X144406904Y-85399619D01*
X144359285Y-85494857D01*
X144359285Y-85732952D01*
X144406904Y-85828190D01*
X144454523Y-85875809D01*
X144549761Y-85923428D01*
X144740238Y-85923428D01*
X144835476Y-85875809D01*
X144883095Y-85828190D01*
X144930714Y-85732952D01*
X125309333Y-71064380D02*
X124976000Y-70588190D01*
X124737904Y-71064380D02*
X124737904Y-70064380D01*
X125118857Y-70064380D01*
X125214095Y-70112000D01*
X125261714Y-70159619D01*
X125309333Y-70254857D01*
X125309333Y-70397714D01*
X125261714Y-70492952D01*
X125214095Y-70540571D01*
X125118857Y-70588190D01*
X124737904Y-70588190D01*
X126261714Y-71064380D02*
X125690285Y-71064380D01*
X125976000Y-71064380D02*
X125976000Y-70064380D01*
X125880761Y-70207238D01*
X125785523Y-70302476D01*
X125690285Y-70350095D01*
X129881333Y-71064380D02*
X129548000Y-70588190D01*
X129309904Y-71064380D02*
X129309904Y-70064380D01*
X129690857Y-70064380D01*
X129786095Y-70112000D01*
X129833714Y-70159619D01*
X129881333Y-70254857D01*
X129881333Y-70397714D01*
X129833714Y-70492952D01*
X129786095Y-70540571D01*
X129690857Y-70588190D01*
X129309904Y-70588190D01*
X130262285Y-70159619D02*
X130309904Y-70112000D01*
X130405142Y-70064380D01*
X130643238Y-70064380D01*
X130738476Y-70112000D01*
X130786095Y-70159619D01*
X130833714Y-70254857D01*
X130833714Y-70350095D01*
X130786095Y-70492952D01*
X130214666Y-71064380D01*
X130833714Y-71064380D01*
X129627333Y-90114380D02*
X129294000Y-89638190D01*
X129055904Y-90114380D02*
X129055904Y-89114380D01*
X129436857Y-89114380D01*
X129532095Y-89162000D01*
X129579714Y-89209619D01*
X129627333Y-89304857D01*
X129627333Y-89447714D01*
X129579714Y-89542952D01*
X129532095Y-89590571D01*
X129436857Y-89638190D01*
X129055904Y-89638190D01*
X129960666Y-89114380D02*
X130579714Y-89114380D01*
X130246380Y-89495333D01*
X130389238Y-89495333D01*
X130484476Y-89542952D01*
X130532095Y-89590571D01*
X130579714Y-89685809D01*
X130579714Y-89923904D01*
X130532095Y-90019142D01*
X130484476Y-90066761D01*
X130389238Y-90114380D01*
X130103523Y-90114380D01*
X130008285Y-90066761D01*
X129960666Y-90019142D01*
X125064333Y-82494380D02*
X124731000Y-82018190D01*
X124492904Y-82494380D02*
X124492904Y-81494380D01*
X124873857Y-81494380D01*
X124969095Y-81542000D01*
X125016714Y-81589619D01*
X125064333Y-81684857D01*
X125064333Y-81827714D01*
X125016714Y-81922952D01*
X124969095Y-81970571D01*
X124873857Y-82018190D01*
X124492904Y-82018190D01*
X125921476Y-81827714D02*
X125921476Y-82494380D01*
X125683380Y-81446761D02*
X125445285Y-82161047D01*
X126064333Y-82161047D01*
X129627333Y-82494380D02*
X129294000Y-82018190D01*
X129055904Y-82494380D02*
X129055904Y-81494380D01*
X129436857Y-81494380D01*
X129532095Y-81542000D01*
X129579714Y-81589619D01*
X129627333Y-81684857D01*
X129627333Y-81827714D01*
X129579714Y-81922952D01*
X129532095Y-81970571D01*
X129436857Y-82018190D01*
X129055904Y-82018190D01*
X130484476Y-81494380D02*
X130294000Y-81494380D01*
X130198761Y-81542000D01*
X130151142Y-81589619D01*
X130055904Y-81732476D01*
X130008285Y-81922952D01*
X130008285Y-82303904D01*
X130055904Y-82399142D01*
X130103523Y-82446761D01*
X130198761Y-82494380D01*
X130389238Y-82494380D01*
X130484476Y-82446761D01*
X130532095Y-82399142D01*
X130579714Y-82303904D01*
X130579714Y-82065809D01*
X130532095Y-81970571D01*
X130484476Y-81922952D01*
X130389238Y-81875333D01*
X130198761Y-81875333D01*
X130103523Y-81922952D01*
X130055904Y-81970571D01*
X130008285Y-82065809D01*
X134453333Y-86304380D02*
X134120000Y-85828190D01*
X133881904Y-86304380D02*
X133881904Y-85304380D01*
X134262857Y-85304380D01*
X134358095Y-85352000D01*
X134405714Y-85399619D01*
X134453333Y-85494857D01*
X134453333Y-85637714D01*
X134405714Y-85732952D01*
X134358095Y-85780571D01*
X134262857Y-85828190D01*
X133881904Y-85828190D01*
X134786666Y-85304380D02*
X135453333Y-85304380D01*
X135024761Y-86304380D01*
X139025333Y-82494380D02*
X138692000Y-82018190D01*
X138453904Y-82494380D02*
X138453904Y-81494380D01*
X138834857Y-81494380D01*
X138930095Y-81542000D01*
X138977714Y-81589619D01*
X139025333Y-81684857D01*
X139025333Y-81827714D01*
X138977714Y-81922952D01*
X138930095Y-81970571D01*
X138834857Y-82018190D01*
X138453904Y-82018190D01*
X139596761Y-81922952D02*
X139501523Y-81875333D01*
X139453904Y-81827714D01*
X139406285Y-81732476D01*
X139406285Y-81684857D01*
X139453904Y-81589619D01*
X139501523Y-81542000D01*
X139596761Y-81494380D01*
X139787238Y-81494380D01*
X139882476Y-81542000D01*
X139930095Y-81589619D01*
X139977714Y-81684857D01*
X139977714Y-81732476D01*
X139930095Y-81827714D01*
X139882476Y-81875333D01*
X139787238Y-81922952D01*
X139596761Y-81922952D01*
X139501523Y-81970571D01*
X139453904Y-82018190D01*
X139406285Y-82113428D01*
X139406285Y-82303904D01*
X139453904Y-82399142D01*
X139501523Y-82446761D01*
X139596761Y-82494380D01*
X139787238Y-82494380D01*
X139882476Y-82446761D01*
X139930095Y-82399142D01*
X139977714Y-82303904D01*
X139977714Y-82113428D01*
X139930095Y-82018190D01*
X139882476Y-81970571D01*
X139787238Y-81922952D01*
X139025333Y-86304380D02*
X138692000Y-85828190D01*
X138453904Y-86304380D02*
X138453904Y-85304380D01*
X138834857Y-85304380D01*
X138930095Y-85352000D01*
X138977714Y-85399619D01*
X139025333Y-85494857D01*
X139025333Y-85637714D01*
X138977714Y-85732952D01*
X138930095Y-85780571D01*
X138834857Y-85828190D01*
X138453904Y-85828190D01*
X139501523Y-86304380D02*
X139692000Y-86304380D01*
X139787238Y-86256761D01*
X139834857Y-86209142D01*
X139930095Y-86066285D01*
X139977714Y-85875809D01*
X139977714Y-85494857D01*
X139930095Y-85399619D01*
X139882476Y-85352000D01*
X139787238Y-85304380D01*
X139596761Y-85304380D01*
X139501523Y-85352000D01*
X139453904Y-85399619D01*
X139406285Y-85494857D01*
X139406285Y-85732952D01*
X139453904Y-85828190D01*
X139501523Y-85875809D01*
X139596761Y-85923428D01*
X139787238Y-85923428D01*
X139882476Y-85875809D01*
X139930095Y-85828190D01*
X139977714Y-85732952D01*
X128897142Y-97734380D02*
X128563809Y-97258190D01*
X128325714Y-97734380D02*
X128325714Y-96734380D01*
X128706666Y-96734380D01*
X128801904Y-96782000D01*
X128849523Y-96829619D01*
X128897142Y-96924857D01*
X128897142Y-97067714D01*
X128849523Y-97162952D01*
X128801904Y-97210571D01*
X128706666Y-97258190D01*
X128325714Y-97258190D01*
X129849523Y-97734380D02*
X129278095Y-97734380D01*
X129563809Y-97734380D02*
X129563809Y-96734380D01*
X129468571Y-96877238D01*
X129373333Y-96972476D01*
X129278095Y-97020095D01*
X130468571Y-96734380D02*
X130563809Y-96734380D01*
X130659047Y-96782000D01*
X130706666Y-96829619D01*
X130754285Y-96924857D01*
X130801904Y-97115333D01*
X130801904Y-97353428D01*
X130754285Y-97543904D01*
X130706666Y-97639142D01*
X130659047Y-97686761D01*
X130563809Y-97734380D01*
X130468571Y-97734380D01*
X130373333Y-97686761D01*
X130325714Y-97639142D01*
X130278095Y-97543904D01*
X130230476Y-97353428D01*
X130230476Y-97115333D01*
X130278095Y-96924857D01*
X130325714Y-96829619D01*
X130373333Y-96782000D01*
X130468571Y-96734380D01*
X128906142Y-101036380D02*
X128572809Y-100560190D01*
X128334714Y-101036380D02*
X128334714Y-100036380D01*
X128715666Y-100036380D01*
X128810904Y-100084000D01*
X128858523Y-100131619D01*
X128906142Y-100226857D01*
X128906142Y-100369714D01*
X128858523Y-100464952D01*
X128810904Y-100512571D01*
X128715666Y-100560190D01*
X128334714Y-100560190D01*
X129858523Y-101036380D02*
X129287095Y-101036380D01*
X129572809Y-101036380D02*
X129572809Y-100036380D01*
X129477571Y-100179238D01*
X129382333Y-100274476D01*
X129287095Y-100322095D01*
X130810904Y-101036380D02*
X130239476Y-101036380D01*
X130525190Y-101036380D02*
X130525190Y-100036380D01*
X130429952Y-100179238D01*
X130334714Y-100274476D01*
X130239476Y-100322095D01*
X120261142Y-101544380D02*
X119927809Y-101068190D01*
X119689714Y-101544380D02*
X119689714Y-100544380D01*
X120070666Y-100544380D01*
X120165904Y-100592000D01*
X120213523Y-100639619D01*
X120261142Y-100734857D01*
X120261142Y-100877714D01*
X120213523Y-100972952D01*
X120165904Y-101020571D01*
X120070666Y-101068190D01*
X119689714Y-101068190D01*
X121213523Y-101544380D02*
X120642095Y-101544380D01*
X120927809Y-101544380D02*
X120927809Y-100544380D01*
X120832571Y-100687238D01*
X120737333Y-100782476D01*
X120642095Y-100830095D01*
X121594476Y-100639619D02*
X121642095Y-100592000D01*
X121737333Y-100544380D01*
X121975428Y-100544380D01*
X122070666Y-100592000D01*
X122118285Y-100639619D01*
X122165904Y-100734857D01*
X122165904Y-100830095D01*
X122118285Y-100972952D01*
X121546857Y-101544380D01*
X122165904Y-101544380D01*
X118483142Y-91892380D02*
X118149809Y-91416190D01*
X117911714Y-91892380D02*
X117911714Y-90892380D01*
X118292666Y-90892380D01*
X118387904Y-90940000D01*
X118435523Y-90987619D01*
X118483142Y-91082857D01*
X118483142Y-91225714D01*
X118435523Y-91320952D01*
X118387904Y-91368571D01*
X118292666Y-91416190D01*
X117911714Y-91416190D01*
X119435523Y-91892380D02*
X118864095Y-91892380D01*
X119149809Y-91892380D02*
X119149809Y-90892380D01*
X119054571Y-91035238D01*
X118959333Y-91130476D01*
X118864095Y-91178095D01*
X119768857Y-90892380D02*
X120387904Y-90892380D01*
X120054571Y-91273333D01*
X120197428Y-91273333D01*
X120292666Y-91320952D01*
X120340285Y-91368571D01*
X120387904Y-91463809D01*
X120387904Y-91701904D01*
X120340285Y-91797142D01*
X120292666Y-91844761D01*
X120197428Y-91892380D01*
X119911714Y-91892380D01*
X119816476Y-91844761D01*
X119768857Y-91797142D01*
X139048142Y-67254380D02*
X138714809Y-66778190D01*
X138476714Y-67254380D02*
X138476714Y-66254380D01*
X138857666Y-66254380D01*
X138952904Y-66302000D01*
X139000523Y-66349619D01*
X139048142Y-66444857D01*
X139048142Y-66587714D01*
X139000523Y-66682952D01*
X138952904Y-66730571D01*
X138857666Y-66778190D01*
X138476714Y-66778190D01*
X140000523Y-67254380D02*
X139429095Y-67254380D01*
X139714809Y-67254380D02*
X139714809Y-66254380D01*
X139619571Y-66397238D01*
X139524333Y-66492476D01*
X139429095Y-66540095D01*
X140857666Y-66254380D02*
X140667190Y-66254380D01*
X140571952Y-66302000D01*
X140524333Y-66349619D01*
X140429095Y-66492476D01*
X140381476Y-66682952D01*
X140381476Y-67063904D01*
X140429095Y-67159142D01*
X140476714Y-67206761D01*
X140571952Y-67254380D01*
X140762428Y-67254380D01*
X140857666Y-67206761D01*
X140905285Y-67159142D01*
X140952904Y-67063904D01*
X140952904Y-66825809D01*
X140905285Y-66730571D01*
X140857666Y-66682952D01*
X140762428Y-66635333D01*
X140571952Y-66635333D01*
X140476714Y-66682952D01*
X140429095Y-66730571D01*
X140381476Y-66825809D01*
X134231142Y-71064380D02*
X133897809Y-70588190D01*
X133659714Y-71064380D02*
X133659714Y-70064380D01*
X134040666Y-70064380D01*
X134135904Y-70112000D01*
X134183523Y-70159619D01*
X134231142Y-70254857D01*
X134231142Y-70397714D01*
X134183523Y-70492952D01*
X134135904Y-70540571D01*
X134040666Y-70588190D01*
X133659714Y-70588190D01*
X135183523Y-71064380D02*
X134612095Y-71064380D01*
X134897809Y-71064380D02*
X134897809Y-70064380D01*
X134802571Y-70207238D01*
X134707333Y-70302476D01*
X134612095Y-70350095D01*
X135754952Y-70492952D02*
X135659714Y-70445333D01*
X135612095Y-70397714D01*
X135564476Y-70302476D01*
X135564476Y-70254857D01*
X135612095Y-70159619D01*
X135659714Y-70112000D01*
X135754952Y-70064380D01*
X135945428Y-70064380D01*
X136040666Y-70112000D01*
X136088285Y-70159619D01*
X136135904Y-70254857D01*
X136135904Y-70302476D01*
X136088285Y-70397714D01*
X136040666Y-70445333D01*
X135945428Y-70492952D01*
X135754952Y-70492952D01*
X135659714Y-70540571D01*
X135612095Y-70588190D01*
X135564476Y-70683428D01*
X135564476Y-70873904D01*
X135612095Y-70969142D01*
X135659714Y-71016761D01*
X135754952Y-71064380D01*
X135945428Y-71064380D01*
X136040666Y-71016761D01*
X136088285Y-70969142D01*
X136135904Y-70873904D01*
X136135904Y-70683428D01*
X136088285Y-70588190D01*
X136040666Y-70540571D01*
X135945428Y-70492952D01*
X139057142Y-71064380D02*
X138723809Y-70588190D01*
X138485714Y-71064380D02*
X138485714Y-70064380D01*
X138866666Y-70064380D01*
X138961904Y-70112000D01*
X139009523Y-70159619D01*
X139057142Y-70254857D01*
X139057142Y-70397714D01*
X139009523Y-70492952D01*
X138961904Y-70540571D01*
X138866666Y-70588190D01*
X138485714Y-70588190D01*
X140009523Y-71064380D02*
X139438095Y-71064380D01*
X139723809Y-71064380D02*
X139723809Y-70064380D01*
X139628571Y-70207238D01*
X139533333Y-70302476D01*
X139438095Y-70350095D01*
X140485714Y-71064380D02*
X140676190Y-71064380D01*
X140771428Y-71016761D01*
X140819047Y-70969142D01*
X140914285Y-70826285D01*
X140961904Y-70635809D01*
X140961904Y-70254857D01*
X140914285Y-70159619D01*
X140866666Y-70112000D01*
X140771428Y-70064380D01*
X140580952Y-70064380D01*
X140485714Y-70112000D01*
X140438095Y-70159619D01*
X140390476Y-70254857D01*
X140390476Y-70492952D01*
X140438095Y-70588190D01*
X140485714Y-70635809D01*
X140580952Y-70683428D01*
X140771428Y-70683428D01*
X140866666Y-70635809D01*
X140914285Y-70588190D01*
X140961904Y-70492952D01*
X148709142Y-67254380D02*
X148375809Y-66778190D01*
X148137714Y-67254380D02*
X148137714Y-66254380D01*
X148518666Y-66254380D01*
X148613904Y-66302000D01*
X148661523Y-66349619D01*
X148709142Y-66444857D01*
X148709142Y-66587714D01*
X148661523Y-66682952D01*
X148613904Y-66730571D01*
X148518666Y-66778190D01*
X148137714Y-66778190D01*
X149090095Y-66349619D02*
X149137714Y-66302000D01*
X149232952Y-66254380D01*
X149471047Y-66254380D01*
X149566285Y-66302000D01*
X149613904Y-66349619D01*
X149661523Y-66444857D01*
X149661523Y-66540095D01*
X149613904Y-66682952D01*
X149042476Y-67254380D01*
X149661523Y-67254380D01*
X150280571Y-66254380D02*
X150375809Y-66254380D01*
X150471047Y-66302000D01*
X150518666Y-66349619D01*
X150566285Y-66444857D01*
X150613904Y-66635333D01*
X150613904Y-66873428D01*
X150566285Y-67063904D01*
X150518666Y-67159142D01*
X150471047Y-67206761D01*
X150375809Y-67254380D01*
X150280571Y-67254380D01*
X150185333Y-67206761D01*
X150137714Y-67159142D01*
X150090095Y-67063904D01*
X150042476Y-66873428D01*
X150042476Y-66635333D01*
X150090095Y-66444857D01*
X150137714Y-66349619D01*
X150185333Y-66302000D01*
X150280571Y-66254380D01*
X144146142Y-71064380D02*
X143812809Y-70588190D01*
X143574714Y-71064380D02*
X143574714Y-70064380D01*
X143955666Y-70064380D01*
X144050904Y-70112000D01*
X144098523Y-70159619D01*
X144146142Y-70254857D01*
X144146142Y-70397714D01*
X144098523Y-70492952D01*
X144050904Y-70540571D01*
X143955666Y-70588190D01*
X143574714Y-70588190D01*
X144527095Y-70159619D02*
X144574714Y-70112000D01*
X144669952Y-70064380D01*
X144908047Y-70064380D01*
X145003285Y-70112000D01*
X145050904Y-70159619D01*
X145098523Y-70254857D01*
X145098523Y-70350095D01*
X145050904Y-70492952D01*
X144479476Y-71064380D01*
X145098523Y-71064380D01*
X145479476Y-70159619D02*
X145527095Y-70112000D01*
X145622333Y-70064380D01*
X145860428Y-70064380D01*
X145955666Y-70112000D01*
X146003285Y-70159619D01*
X146050904Y-70254857D01*
X146050904Y-70350095D01*
X146003285Y-70492952D01*
X145431857Y-71064380D01*
X146050904Y-71064380D01*
X148709142Y-71064380D02*
X148375809Y-70588190D01*
X148137714Y-71064380D02*
X148137714Y-70064380D01*
X148518666Y-70064380D01*
X148613904Y-70112000D01*
X148661523Y-70159619D01*
X148709142Y-70254857D01*
X148709142Y-70397714D01*
X148661523Y-70492952D01*
X148613904Y-70540571D01*
X148518666Y-70588190D01*
X148137714Y-70588190D01*
X149090095Y-70159619D02*
X149137714Y-70112000D01*
X149232952Y-70064380D01*
X149471047Y-70064380D01*
X149566285Y-70112000D01*
X149613904Y-70159619D01*
X149661523Y-70254857D01*
X149661523Y-70350095D01*
X149613904Y-70492952D01*
X149042476Y-71064380D01*
X149661523Y-71064380D01*
X149994857Y-70064380D02*
X150613904Y-70064380D01*
X150280571Y-70445333D01*
X150423428Y-70445333D01*
X150518666Y-70492952D01*
X150566285Y-70540571D01*
X150613904Y-70635809D01*
X150613904Y-70873904D01*
X150566285Y-70969142D01*
X150518666Y-71016761D01*
X150423428Y-71064380D01*
X150137714Y-71064380D01*
X150042476Y-71016761D01*
X149994857Y-70969142D01*
X147956142Y-86304380D02*
X147622809Y-85828190D01*
X147384714Y-86304380D02*
X147384714Y-85304380D01*
X147765666Y-85304380D01*
X147860904Y-85352000D01*
X147908523Y-85399619D01*
X147956142Y-85494857D01*
X147956142Y-85637714D01*
X147908523Y-85732952D01*
X147860904Y-85780571D01*
X147765666Y-85828190D01*
X147384714Y-85828190D01*
X148337095Y-85399619D02*
X148384714Y-85352000D01*
X148479952Y-85304380D01*
X148718047Y-85304380D01*
X148813285Y-85352000D01*
X148860904Y-85399619D01*
X148908523Y-85494857D01*
X148908523Y-85590095D01*
X148860904Y-85732952D01*
X148289476Y-86304380D01*
X148908523Y-86304380D01*
X149765666Y-85637714D02*
X149765666Y-86304380D01*
X149527571Y-85256761D02*
X149289476Y-85971047D01*
X149908523Y-85971047D01*
X140581142Y-95194380D02*
X140247809Y-94718190D01*
X140009714Y-95194380D02*
X140009714Y-94194380D01*
X140390666Y-94194380D01*
X140485904Y-94242000D01*
X140533523Y-94289619D01*
X140581142Y-94384857D01*
X140581142Y-94527714D01*
X140533523Y-94622952D01*
X140485904Y-94670571D01*
X140390666Y-94718190D01*
X140009714Y-94718190D01*
X140962095Y-94289619D02*
X141009714Y-94242000D01*
X141104952Y-94194380D01*
X141343047Y-94194380D01*
X141438285Y-94242000D01*
X141485904Y-94289619D01*
X141533523Y-94384857D01*
X141533523Y-94480095D01*
X141485904Y-94622952D01*
X140914476Y-95194380D01*
X141533523Y-95194380D01*
X142438285Y-94194380D02*
X141962095Y-94194380D01*
X141914476Y-94670571D01*
X141962095Y-94622952D01*
X142057333Y-94575333D01*
X142295428Y-94575333D01*
X142390666Y-94622952D01*
X142438285Y-94670571D01*
X142485904Y-94765809D01*
X142485904Y-95003904D01*
X142438285Y-95099142D01*
X142390666Y-95146761D01*
X142295428Y-95194380D01*
X142057333Y-95194380D01*
X141962095Y-95146761D01*
X141914476Y-95099142D01*
X140581142Y-104592380D02*
X140247809Y-104116190D01*
X140009714Y-104592380D02*
X140009714Y-103592380D01*
X140390666Y-103592380D01*
X140485904Y-103640000D01*
X140533523Y-103687619D01*
X140581142Y-103782857D01*
X140581142Y-103925714D01*
X140533523Y-104020952D01*
X140485904Y-104068571D01*
X140390666Y-104116190D01*
X140009714Y-104116190D01*
X140962095Y-103687619D02*
X141009714Y-103640000D01*
X141104952Y-103592380D01*
X141343047Y-103592380D01*
X141438285Y-103640000D01*
X141485904Y-103687619D01*
X141533523Y-103782857D01*
X141533523Y-103878095D01*
X141485904Y-104020952D01*
X140914476Y-104592380D01*
X141533523Y-104592380D01*
X141866857Y-103592380D02*
X142533523Y-103592380D01*
X142104952Y-104592380D01*
X143502142Y-82494380D02*
X143168809Y-82018190D01*
X142930714Y-82494380D02*
X142930714Y-81494380D01*
X143311666Y-81494380D01*
X143406904Y-81542000D01*
X143454523Y-81589619D01*
X143502142Y-81684857D01*
X143502142Y-81827714D01*
X143454523Y-81922952D01*
X143406904Y-81970571D01*
X143311666Y-82018190D01*
X142930714Y-82018190D01*
X143883095Y-81589619D02*
X143930714Y-81542000D01*
X144025952Y-81494380D01*
X144264047Y-81494380D01*
X144359285Y-81542000D01*
X144406904Y-81589619D01*
X144454523Y-81684857D01*
X144454523Y-81780095D01*
X144406904Y-81922952D01*
X143835476Y-82494380D01*
X144454523Y-82494380D01*
X145025952Y-81922952D02*
X144930714Y-81875333D01*
X144883095Y-81827714D01*
X144835476Y-81732476D01*
X144835476Y-81684857D01*
X144883095Y-81589619D01*
X144930714Y-81542000D01*
X145025952Y-81494380D01*
X145216428Y-81494380D01*
X145311666Y-81542000D01*
X145359285Y-81589619D01*
X145406904Y-81684857D01*
X145406904Y-81732476D01*
X145359285Y-81827714D01*
X145311666Y-81875333D01*
X145216428Y-81922952D01*
X145025952Y-81922952D01*
X144930714Y-81970571D01*
X144883095Y-82018190D01*
X144835476Y-82113428D01*
X144835476Y-82303904D01*
X144883095Y-82399142D01*
X144930714Y-82446761D01*
X145025952Y-82494380D01*
X145216428Y-82494380D01*
X145311666Y-82446761D01*
X145359285Y-82399142D01*
X145406904Y-82303904D01*
X145406904Y-82113428D01*
X145359285Y-82018190D01*
X145311666Y-81970571D01*
X145216428Y-81922952D01*
X152011142Y-116530380D02*
X151677809Y-116054190D01*
X151439714Y-116530380D02*
X151439714Y-115530380D01*
X151820666Y-115530380D01*
X151915904Y-115578000D01*
X151963523Y-115625619D01*
X152011142Y-115720857D01*
X152011142Y-115863714D01*
X151963523Y-115958952D01*
X151915904Y-116006571D01*
X151820666Y-116054190D01*
X151439714Y-116054190D01*
X152392095Y-115625619D02*
X152439714Y-115578000D01*
X152534952Y-115530380D01*
X152773047Y-115530380D01*
X152868285Y-115578000D01*
X152915904Y-115625619D01*
X152963523Y-115720857D01*
X152963523Y-115816095D01*
X152915904Y-115958952D01*
X152344476Y-116530380D01*
X152963523Y-116530380D01*
X153439714Y-116530380D02*
X153630190Y-116530380D01*
X153725428Y-116482761D01*
X153773047Y-116435142D01*
X153868285Y-116292285D01*
X153915904Y-116101809D01*
X153915904Y-115720857D01*
X153868285Y-115625619D01*
X153820666Y-115578000D01*
X153725428Y-115530380D01*
X153534952Y-115530380D01*
X153439714Y-115578000D01*
X153392095Y-115625619D01*
X153344476Y-115720857D01*
X153344476Y-115958952D01*
X153392095Y-116054190D01*
X153439714Y-116101809D01*
X153534952Y-116149428D01*
X153725428Y-116149428D01*
X153820666Y-116101809D01*
X153868285Y-116054190D01*
X153915904Y-115958952D01*
X147947142Y-82494380D02*
X147613809Y-82018190D01*
X147375714Y-82494380D02*
X147375714Y-81494380D01*
X147756666Y-81494380D01*
X147851904Y-81542000D01*
X147899523Y-81589619D01*
X147947142Y-81684857D01*
X147947142Y-81827714D01*
X147899523Y-81922952D01*
X147851904Y-81970571D01*
X147756666Y-82018190D01*
X147375714Y-82018190D01*
X148280476Y-81494380D02*
X148899523Y-81494380D01*
X148566190Y-81875333D01*
X148709047Y-81875333D01*
X148804285Y-81922952D01*
X148851904Y-81970571D01*
X148899523Y-82065809D01*
X148899523Y-82303904D01*
X148851904Y-82399142D01*
X148804285Y-82446761D01*
X148709047Y-82494380D01*
X148423333Y-82494380D01*
X148328095Y-82446761D01*
X148280476Y-82399142D01*
X149518571Y-81494380D02*
X149613809Y-81494380D01*
X149709047Y-81542000D01*
X149756666Y-81589619D01*
X149804285Y-81684857D01*
X149851904Y-81875333D01*
X149851904Y-82113428D01*
X149804285Y-82303904D01*
X149756666Y-82399142D01*
X149709047Y-82446761D01*
X149613809Y-82494380D01*
X149518571Y-82494380D01*
X149423333Y-82446761D01*
X149375714Y-82399142D01*
X149328095Y-82303904D01*
X149280476Y-82113428D01*
X149280476Y-81875333D01*
X149328095Y-81684857D01*
X149375714Y-81589619D01*
X149423333Y-81542000D01*
X149518571Y-81494380D01*
X138041142Y-115514380D02*
X137707809Y-115038190D01*
X137469714Y-115514380D02*
X137469714Y-114514380D01*
X137850666Y-114514380D01*
X137945904Y-114562000D01*
X137993523Y-114609619D01*
X138041142Y-114704857D01*
X138041142Y-114847714D01*
X137993523Y-114942952D01*
X137945904Y-114990571D01*
X137850666Y-115038190D01*
X137469714Y-115038190D01*
X138374476Y-114514380D02*
X138993523Y-114514380D01*
X138660190Y-114895333D01*
X138803047Y-114895333D01*
X138898285Y-114942952D01*
X138945904Y-114990571D01*
X138993523Y-115085809D01*
X138993523Y-115323904D01*
X138945904Y-115419142D01*
X138898285Y-115466761D01*
X138803047Y-115514380D01*
X138517333Y-115514380D01*
X138422095Y-115466761D01*
X138374476Y-115419142D01*
X139945904Y-115514380D02*
X139374476Y-115514380D01*
X139660190Y-115514380D02*
X139660190Y-114514380D01*
X139564952Y-114657238D01*
X139469714Y-114752476D01*
X139374476Y-114800095D01*
X141343142Y-115514380D02*
X141009809Y-115038190D01*
X140771714Y-115514380D02*
X140771714Y-114514380D01*
X141152666Y-114514380D01*
X141247904Y-114562000D01*
X141295523Y-114609619D01*
X141343142Y-114704857D01*
X141343142Y-114847714D01*
X141295523Y-114942952D01*
X141247904Y-114990571D01*
X141152666Y-115038190D01*
X140771714Y-115038190D01*
X141676476Y-114514380D02*
X142295523Y-114514380D01*
X141962190Y-114895333D01*
X142105047Y-114895333D01*
X142200285Y-114942952D01*
X142247904Y-114990571D01*
X142295523Y-115085809D01*
X142295523Y-115323904D01*
X142247904Y-115419142D01*
X142200285Y-115466761D01*
X142105047Y-115514380D01*
X141819333Y-115514380D01*
X141724095Y-115466761D01*
X141676476Y-115419142D01*
X142628857Y-114514380D02*
X143247904Y-114514380D01*
X142914571Y-114895333D01*
X143057428Y-114895333D01*
X143152666Y-114942952D01*
X143200285Y-114990571D01*
X143247904Y-115085809D01*
X143247904Y-115323904D01*
X143200285Y-115419142D01*
X143152666Y-115466761D01*
X143057428Y-115514380D01*
X142771714Y-115514380D01*
X142676476Y-115466761D01*
X142628857Y-115419142D01*
X144899142Y-115496380D02*
X144565809Y-115020190D01*
X144327714Y-115496380D02*
X144327714Y-114496380D01*
X144708666Y-114496380D01*
X144803904Y-114544000D01*
X144851523Y-114591619D01*
X144899142Y-114686857D01*
X144899142Y-114829714D01*
X144851523Y-114924952D01*
X144803904Y-114972571D01*
X144708666Y-115020190D01*
X144327714Y-115020190D01*
X145232476Y-114496380D02*
X145851523Y-114496380D01*
X145518190Y-114877333D01*
X145661047Y-114877333D01*
X145756285Y-114924952D01*
X145803904Y-114972571D01*
X145851523Y-115067809D01*
X145851523Y-115305904D01*
X145803904Y-115401142D01*
X145756285Y-115448761D01*
X145661047Y-115496380D01*
X145375333Y-115496380D01*
X145280095Y-115448761D01*
X145232476Y-115401142D01*
X146756285Y-114496380D02*
X146280095Y-114496380D01*
X146232476Y-114972571D01*
X146280095Y-114924952D01*
X146375333Y-114877333D01*
X146613428Y-114877333D01*
X146708666Y-114924952D01*
X146756285Y-114972571D01*
X146803904Y-115067809D01*
X146803904Y-115305904D01*
X146756285Y-115401142D01*
X146708666Y-115448761D01*
X146613428Y-115496380D01*
X146375333Y-115496380D01*
X146280095Y-115448761D01*
X146232476Y-115401142D01*
X143248142Y-106352380D02*
X142914809Y-105876190D01*
X142676714Y-106352380D02*
X142676714Y-105352380D01*
X143057666Y-105352380D01*
X143152904Y-105400000D01*
X143200523Y-105447619D01*
X143248142Y-105542857D01*
X143248142Y-105685714D01*
X143200523Y-105780952D01*
X143152904Y-105828571D01*
X143057666Y-105876190D01*
X142676714Y-105876190D01*
X143581476Y-105352380D02*
X144200523Y-105352380D01*
X143867190Y-105733333D01*
X144010047Y-105733333D01*
X144105285Y-105780952D01*
X144152904Y-105828571D01*
X144200523Y-105923809D01*
X144200523Y-106161904D01*
X144152904Y-106257142D01*
X144105285Y-106304761D01*
X144010047Y-106352380D01*
X143724333Y-106352380D01*
X143629095Y-106304761D01*
X143581476Y-106257142D01*
X144533857Y-105352380D02*
X145200523Y-105352380D01*
X144771952Y-106352380D01*
X168521142Y-91620380D02*
X168187809Y-91144190D01*
X167949714Y-91620380D02*
X167949714Y-90620380D01*
X168330666Y-90620380D01*
X168425904Y-90668000D01*
X168473523Y-90715619D01*
X168521142Y-90810857D01*
X168521142Y-90953714D01*
X168473523Y-91048952D01*
X168425904Y-91096571D01*
X168330666Y-91144190D01*
X167949714Y-91144190D01*
X169378285Y-90953714D02*
X169378285Y-91620380D01*
X169140190Y-90572761D02*
X168902095Y-91287047D01*
X169521142Y-91287047D01*
X169854476Y-90715619D02*
X169902095Y-90668000D01*
X169997333Y-90620380D01*
X170235428Y-90620380D01*
X170330666Y-90668000D01*
X170378285Y-90715619D01*
X170425904Y-90810857D01*
X170425904Y-90906095D01*
X170378285Y-91048952D01*
X169806857Y-91620380D01*
X170425904Y-91620380D01*
X119655904Y-98242380D02*
X119655904Y-97242380D01*
X119894000Y-97242380D01*
X120036857Y-97290000D01*
X120132095Y-97385238D01*
X120179714Y-97480476D01*
X120227333Y-97670952D01*
X120227333Y-97813809D01*
X120179714Y-98004285D01*
X120132095Y-98099523D01*
X120036857Y-98194761D01*
X119894000Y-98242380D01*
X119655904Y-98242380D01*
X121179714Y-98242380D02*
X120608285Y-98242380D01*
X120894000Y-98242380D02*
X120894000Y-97242380D01*
X120798761Y-97385238D01*
X120703523Y-97480476D01*
X120608285Y-97528095D01*
X165504904Y-90877380D02*
X165504904Y-89877380D01*
X165743000Y-89877380D01*
X165885857Y-89925000D01*
X165981095Y-90020238D01*
X166028714Y-90115476D01*
X166076333Y-90305952D01*
X166076333Y-90448809D01*
X166028714Y-90639285D01*
X165981095Y-90734523D01*
X165885857Y-90829761D01*
X165743000Y-90877380D01*
X165504904Y-90877380D01*
X166647761Y-90305952D02*
X166552523Y-90258333D01*
X166504904Y-90210714D01*
X166457285Y-90115476D01*
X166457285Y-90067857D01*
X166504904Y-89972619D01*
X166552523Y-89925000D01*
X166647761Y-89877380D01*
X166838238Y-89877380D01*
X166933476Y-89925000D01*
X166981095Y-89972619D01*
X167028714Y-90067857D01*
X167028714Y-90115476D01*
X166981095Y-90210714D01*
X166933476Y-90258333D01*
X166838238Y-90305952D01*
X166647761Y-90305952D01*
X166552523Y-90353571D01*
X166504904Y-90401190D01*
X166457285Y-90496428D01*
X166457285Y-90686904D01*
X166504904Y-90782142D01*
X166552523Y-90829761D01*
X166647761Y-90877380D01*
X166838238Y-90877380D01*
X166933476Y-90829761D01*
X166981095Y-90782142D01*
X167028714Y-90686904D01*
X167028714Y-90496428D01*
X166981095Y-90401190D01*
X166933476Y-90353571D01*
X166838238Y-90305952D01*
X122851942Y-80341742D02*
X122804323Y-80389361D01*
X122661466Y-80436980D01*
X122566228Y-80436980D01*
X122423371Y-80389361D01*
X122328133Y-80294123D01*
X122280514Y-80198885D01*
X122232895Y-80008409D01*
X122232895Y-79865552D01*
X122280514Y-79675076D01*
X122328133Y-79579838D01*
X122423371Y-79484600D01*
X122566228Y-79436980D01*
X122661466Y-79436980D01*
X122804323Y-79484600D01*
X122851942Y-79532219D01*
X123804323Y-80436980D02*
X123232895Y-80436980D01*
X123518609Y-80436980D02*
X123518609Y-79436980D01*
X123423371Y-79579838D01*
X123328133Y-79675076D01*
X123232895Y-79722695D01*
X124185276Y-79532219D02*
X124232895Y-79484600D01*
X124328133Y-79436980D01*
X124566228Y-79436980D01*
X124661466Y-79484600D01*
X124709085Y-79532219D01*
X124756704Y-79627457D01*
X124756704Y-79722695D01*
X124709085Y-79865552D01*
X124137657Y-80436980D01*
X124756704Y-80436980D01*
X122742942Y-74601342D02*
X122695323Y-74648961D01*
X122552466Y-74696580D01*
X122457228Y-74696580D01*
X122314371Y-74648961D01*
X122219133Y-74553723D01*
X122171514Y-74458485D01*
X122123895Y-74268009D01*
X122123895Y-74125152D01*
X122171514Y-73934676D01*
X122219133Y-73839438D01*
X122314371Y-73744200D01*
X122457228Y-73696580D01*
X122552466Y-73696580D01*
X122695323Y-73744200D01*
X122742942Y-73791819D01*
X123695323Y-74696580D02*
X123123895Y-74696580D01*
X123409609Y-74696580D02*
X123409609Y-73696580D01*
X123314371Y-73839438D01*
X123219133Y-73934676D01*
X123123895Y-73982295D01*
X124028657Y-73696580D02*
X124647704Y-73696580D01*
X124314371Y-74077533D01*
X124457228Y-74077533D01*
X124552466Y-74125152D01*
X124600085Y-74172771D01*
X124647704Y-74268009D01*
X124647704Y-74506104D01*
X124600085Y-74601342D01*
X124552466Y-74648961D01*
X124457228Y-74696580D01*
X124171514Y-74696580D01*
X124076276Y-74648961D01*
X124028657Y-74601342D01*
X171569142Y-80875142D02*
X171521523Y-80922761D01*
X171378666Y-80970380D01*
X171283428Y-80970380D01*
X171140571Y-80922761D01*
X171045333Y-80827523D01*
X170997714Y-80732285D01*
X170950095Y-80541809D01*
X170950095Y-80398952D01*
X170997714Y-80208476D01*
X171045333Y-80113238D01*
X171140571Y-80018000D01*
X171283428Y-79970380D01*
X171378666Y-79970380D01*
X171521523Y-80018000D01*
X171569142Y-80065619D01*
X172521523Y-80970380D02*
X171950095Y-80970380D01*
X172235809Y-80970380D02*
X172235809Y-79970380D01*
X172140571Y-80113238D01*
X172045333Y-80208476D01*
X171950095Y-80256095D01*
X173378666Y-80303714D02*
X173378666Y-80970380D01*
X173140571Y-79922761D02*
X172902476Y-80637047D01*
X173521523Y-80637047D01*
X169537142Y-72493142D02*
X169489523Y-72540761D01*
X169346666Y-72588380D01*
X169251428Y-72588380D01*
X169108571Y-72540761D01*
X169013333Y-72445523D01*
X168965714Y-72350285D01*
X168918095Y-72159809D01*
X168918095Y-72016952D01*
X168965714Y-71826476D01*
X169013333Y-71731238D01*
X169108571Y-71636000D01*
X169251428Y-71588380D01*
X169346666Y-71588380D01*
X169489523Y-71636000D01*
X169537142Y-71683619D01*
X170489523Y-72588380D02*
X169918095Y-72588380D01*
X170203809Y-72588380D02*
X170203809Y-71588380D01*
X170108571Y-71731238D01*
X170013333Y-71826476D01*
X169918095Y-71874095D01*
X171394285Y-71588380D02*
X170918095Y-71588380D01*
X170870476Y-72064571D01*
X170918095Y-72016952D01*
X171013333Y-71969333D01*
X171251428Y-71969333D01*
X171346666Y-72016952D01*
X171394285Y-72064571D01*
X171441904Y-72159809D01*
X171441904Y-72397904D01*
X171394285Y-72493142D01*
X171346666Y-72540761D01*
X171251428Y-72588380D01*
X171013333Y-72588380D01*
X170918095Y-72540761D01*
X170870476Y-72493142D01*
X136499142Y-92559142D02*
X136451523Y-92606761D01*
X136308666Y-92654380D01*
X136213428Y-92654380D01*
X136070571Y-92606761D01*
X135975333Y-92511523D01*
X135927714Y-92416285D01*
X135880095Y-92225809D01*
X135880095Y-92082952D01*
X135927714Y-91892476D01*
X135975333Y-91797238D01*
X136070571Y-91702000D01*
X136213428Y-91654380D01*
X136308666Y-91654380D01*
X136451523Y-91702000D01*
X136499142Y-91749619D01*
X137451523Y-92654380D02*
X136880095Y-92654380D01*
X137165809Y-92654380D02*
X137165809Y-91654380D01*
X137070571Y-91797238D01*
X136975333Y-91892476D01*
X136880095Y-91940095D01*
X138308666Y-91654380D02*
X138118190Y-91654380D01*
X138022952Y-91702000D01*
X137975333Y-91749619D01*
X137880095Y-91892476D01*
X137832476Y-92082952D01*
X137832476Y-92463904D01*
X137880095Y-92559142D01*
X137927714Y-92606761D01*
X138022952Y-92654380D01*
X138213428Y-92654380D01*
X138308666Y-92606761D01*
X138356285Y-92559142D01*
X138403904Y-92463904D01*
X138403904Y-92225809D01*
X138356285Y-92130571D01*
X138308666Y-92082952D01*
X138213428Y-92035333D01*
X138022952Y-92035333D01*
X137927714Y-92082952D01*
X137880095Y-92130571D01*
X137832476Y-92225809D01*
X129169142Y-116181142D02*
X129121523Y-116228761D01*
X128978666Y-116276380D01*
X128883428Y-116276380D01*
X128740571Y-116228761D01*
X128645333Y-116133523D01*
X128597714Y-116038285D01*
X128550095Y-115847809D01*
X128550095Y-115704952D01*
X128597714Y-115514476D01*
X128645333Y-115419238D01*
X128740571Y-115324000D01*
X128883428Y-115276380D01*
X128978666Y-115276380D01*
X129121523Y-115324000D01*
X129169142Y-115371619D01*
X130121523Y-116276380D02*
X129550095Y-116276380D01*
X129835809Y-116276380D02*
X129835809Y-115276380D01*
X129740571Y-115419238D01*
X129645333Y-115514476D01*
X129550095Y-115562095D01*
X130454857Y-115276380D02*
X131121523Y-115276380D01*
X130692952Y-116276380D01*
M02*
