G04 #@! TF.GenerationSoftware,KiCad,Pcbnew,5.1.6-c6e7f7d~87~ubuntu18.04.1*
G04 #@! TF.CreationDate,2020-08-01T07:59:39-04:00*
G04 #@! TF.ProjectId,optical_phasor_plug_in_board,6f707469-6361-46c5-9f70-6861736f725f,1.1*
G04 #@! TF.SameCoordinates,Original*
G04 #@! TF.FileFunction,Copper,L2,Bot*
G04 #@! TF.FilePolarity,Positive*
%FSLAX46Y46*%
G04 Gerber Fmt 4.6, Leading zero omitted, Abs format (unit mm)*
G04 Created by KiCad (PCBNEW 5.1.6-c6e7f7d~87~ubuntu18.04.1) date 2020-08-01 07:59:39*
%MOMM*%
%LPD*%
G01*
G04 APERTURE LIST*
G04 #@! TA.AperFunction,ComponentPad*
%ADD10C,1.600000*%
G04 #@! TD*
G04 #@! TA.AperFunction,ComponentPad*
%ADD11R,1.700000X1.700000*%
G04 #@! TD*
G04 #@! TA.AperFunction,ComponentPad*
%ADD12O,1.700000X1.700000*%
G04 #@! TD*
G04 #@! TA.AperFunction,ComponentPad*
%ADD13C,1.800000*%
G04 #@! TD*
G04 #@! TA.AperFunction,ComponentPad*
%ADD14R,1.800000X1.800000*%
G04 #@! TD*
G04 #@! TA.AperFunction,ViaPad*
%ADD15C,0.800000*%
G04 #@! TD*
G04 #@! TA.AperFunction,ViaPad*
%ADD16C,0.762000*%
G04 #@! TD*
G04 #@! TA.AperFunction,Conductor*
%ADD17C,0.250000*%
G04 #@! TD*
G04 #@! TA.AperFunction,Conductor*
%ADD18C,0.508000*%
G04 #@! TD*
G04 #@! TA.AperFunction,Conductor*
%ADD19C,0.254000*%
G04 #@! TD*
G04 APERTURE END LIST*
D10*
X147843793Y-97662999D03*
X149343793Y-95064923D03*
D11*
X119380000Y-106680000D03*
D12*
X119380000Y-109220000D03*
X119380000Y-111760000D03*
X119380000Y-114300000D03*
D13*
X154940000Y-99314000D03*
D14*
X152400000Y-99314000D03*
D12*
X119380000Y-76200000D03*
X119380000Y-73660000D03*
X119380000Y-71120000D03*
D11*
X119380000Y-68580000D03*
D12*
X172720000Y-76200000D03*
X172720000Y-73660000D03*
X172720000Y-71120000D03*
D11*
X172720000Y-68580000D03*
X172720000Y-96520000D03*
D12*
X172720000Y-99060000D03*
X172720000Y-101600000D03*
X172720000Y-104140000D03*
X172720000Y-106680000D03*
X172720000Y-109220000D03*
X172720000Y-111760000D03*
X172720000Y-114300000D03*
D10*
X147843793Y-100965001D03*
X149343793Y-103563077D03*
X159472207Y-97721075D03*
X157972207Y-95122999D03*
X155146000Y-93472000D03*
X152146000Y-93472000D03*
X159472207Y-100906925D03*
X157972207Y-103505001D03*
X155146000Y-105156000D03*
X152146000Y-105156000D03*
D15*
X131013200Y-74980800D03*
X132029200Y-91186000D03*
X140208000Y-85344000D03*
D16*
X134112000Y-70358000D03*
D15*
X139482990Y-89202588D03*
X137414000Y-71881986D03*
D16*
X147066000Y-71120000D03*
D15*
X146304000Y-87376000D03*
X149606000Y-85902800D03*
X149606000Y-75031600D03*
X159004000Y-84836000D03*
D16*
X153732464Y-73503691D03*
D15*
X156997400Y-81737200D03*
X154990800Y-69418200D03*
D16*
X164592000Y-81534000D03*
D15*
X160020000Y-75057000D03*
X141668500Y-74803000D03*
X141795500Y-80835500D03*
X166420800Y-85445600D03*
X136982200Y-81889600D03*
X121285000Y-90551000D03*
X123317000Y-105283000D03*
X120015000Y-80137000D03*
X140716000Y-108204000D03*
D16*
X152146000Y-70104000D03*
X144272000Y-70358000D03*
D15*
X157226000Y-85496400D03*
D16*
X136906000Y-115062000D03*
X163322000Y-112522000D03*
X147574000Y-115062000D03*
D15*
X134874000Y-99822000D03*
X166319200Y-82143600D03*
X166420800Y-75031600D03*
X125984000Y-92710000D03*
D16*
X158432500Y-106807000D03*
D15*
X158126790Y-74624290D03*
D17*
X132029200Y-75996800D02*
X131013200Y-74980800D01*
X132029200Y-91186000D02*
X132029200Y-75996800D01*
X140208000Y-92197838D02*
X140208000Y-85909685D01*
X140208000Y-85909685D02*
X140208000Y-85344000D01*
X147843793Y-99833631D02*
X140208000Y-92197838D01*
X147843793Y-100965001D02*
X147843793Y-99833631D01*
X135128000Y-69342000D02*
X134112000Y-70358000D01*
X140716000Y-69342000D02*
X135128000Y-69342000D01*
X143510000Y-72136000D02*
X140716000Y-69342000D01*
X143510000Y-93218000D02*
X143510000Y-72136000D01*
X147843793Y-97662999D02*
X147843793Y-97551793D01*
X147843793Y-97551793D02*
X143510000Y-93218000D01*
X139482990Y-73950976D02*
X137813999Y-72281985D01*
X139482990Y-89202588D02*
X139482990Y-73950976D01*
X137813999Y-72281985D02*
X137414000Y-71881986D01*
X157972207Y-93991629D02*
X157972207Y-95122999D01*
X151864578Y-87884000D02*
X157972207Y-93991629D01*
X149098000Y-87884000D02*
X151864578Y-87884000D01*
X147066000Y-71120000D02*
X147066000Y-85852000D01*
X147066000Y-85852000D02*
X149098000Y-87884000D01*
X152146000Y-93218000D02*
X152146000Y-93472000D01*
X146304000Y-87376000D02*
X152146000Y-93218000D01*
X149606000Y-85902800D02*
X149606000Y-75031600D01*
X160597208Y-102011370D02*
X159103577Y-103505001D01*
X159103577Y-103505001D02*
X157972207Y-103505001D01*
X159004000Y-84836000D02*
X160597208Y-86429208D01*
X160597208Y-86429208D02*
X160597208Y-102011370D01*
X159258000Y-95758000D02*
X159258000Y-91186000D01*
X157480000Y-97536000D02*
X159258000Y-95758000D01*
X153732464Y-85660464D02*
X153732464Y-73503691D01*
X159258000Y-91186000D02*
X153732464Y-85660464D01*
X152146000Y-105156000D02*
X157480000Y-99822000D01*
X157480000Y-99822000D02*
X157480000Y-97536000D01*
X156997400Y-71424800D02*
X156997400Y-81737200D01*
X154990800Y-69418200D02*
X156997400Y-71424800D01*
X172720000Y-73660000D02*
X165100000Y-73660000D01*
X165100000Y-73660000D02*
X164592000Y-74168000D01*
X164592000Y-74168000D02*
X164592000Y-81534000D01*
D18*
X172720000Y-111760000D02*
X172720000Y-114300000D01*
X172720000Y-106680000D02*
X172720000Y-109220000D01*
X152400000Y-100554078D02*
X152400000Y-99314000D01*
X152400000Y-99314000D02*
X152346989Y-99367011D01*
X135273999Y-100221999D02*
X134874000Y-99822000D01*
X152400000Y-99314000D02*
X152400000Y-102362792D01*
X149945714Y-104817078D02*
X139869078Y-104817078D01*
X152400000Y-102362792D02*
X149945714Y-104817078D01*
X139869078Y-104817078D02*
X135273999Y-100221999D01*
X149945714Y-105749714D02*
X149945714Y-104817078D01*
X153670000Y-109474000D02*
X149945714Y-105749714D01*
X172720000Y-109220000D02*
X172466000Y-109474000D01*
X172466000Y-109474000D02*
X159258000Y-109474000D01*
X159258000Y-109474000D02*
X153670000Y-109474000D01*
X159004000Y-109474000D02*
X159258000Y-109474000D01*
D17*
X166319200Y-82143600D02*
X166319200Y-75133200D01*
X166319200Y-75133200D02*
X166420800Y-75031600D01*
X132842000Y-92710000D02*
X125984000Y-92710000D01*
X148336000Y-102616000D02*
X142748000Y-102616000D01*
X154940000Y-98041208D02*
X154434792Y-97536000D01*
X154434792Y-97536000D02*
X151792998Y-97536000D01*
X151792998Y-97536000D02*
X149352000Y-99976998D01*
X142748000Y-102616000D02*
X132842000Y-92710000D01*
X149352000Y-99976998D02*
X149352000Y-101600000D01*
X149352000Y-101600000D02*
X148336000Y-102616000D01*
X154940000Y-99314000D02*
X154940000Y-98041208D01*
X158115000Y-78168500D02*
X162814000Y-82867500D01*
X158126790Y-74624290D02*
X158115000Y-74636080D01*
X162814000Y-102425500D02*
X158432500Y-106807000D01*
X162814000Y-82867500D02*
X162814000Y-102425500D01*
X158115000Y-74636080D02*
X158115000Y-78168500D01*
D19*
G36*
X174575000Y-116155000D02*
G01*
X117525000Y-116155000D01*
X117525000Y-111613740D01*
X117895000Y-111613740D01*
X117895000Y-111906260D01*
X117952068Y-112193158D01*
X118064010Y-112463411D01*
X118226525Y-112706632D01*
X118433368Y-112913475D01*
X118607760Y-113030000D01*
X118433368Y-113146525D01*
X118226525Y-113353368D01*
X118064010Y-113596589D01*
X117952068Y-113866842D01*
X117895000Y-114153740D01*
X117895000Y-114446260D01*
X117952068Y-114733158D01*
X118064010Y-115003411D01*
X118226525Y-115246632D01*
X118433368Y-115453475D01*
X118676589Y-115615990D01*
X118946842Y-115727932D01*
X119233740Y-115785000D01*
X119526260Y-115785000D01*
X119813158Y-115727932D01*
X120083411Y-115615990D01*
X120326632Y-115453475D01*
X120533475Y-115246632D01*
X120695990Y-115003411D01*
X120807932Y-114733158D01*
X120865000Y-114446260D01*
X120865000Y-114153740D01*
X120807932Y-113866842D01*
X120695990Y-113596589D01*
X120533475Y-113353368D01*
X120326632Y-113146525D01*
X120152240Y-113030000D01*
X120326632Y-112913475D01*
X120533475Y-112706632D01*
X120695990Y-112463411D01*
X120807932Y-112193158D01*
X120865000Y-111906260D01*
X120865000Y-111613740D01*
X120807932Y-111326842D01*
X120695990Y-111056589D01*
X120533475Y-110813368D01*
X120326632Y-110606525D01*
X120144466Y-110484805D01*
X120261355Y-110415178D01*
X120477588Y-110220269D01*
X120651641Y-109986920D01*
X120776825Y-109724099D01*
X120821476Y-109576890D01*
X120700155Y-109347000D01*
X119507000Y-109347000D01*
X119507000Y-109367000D01*
X119253000Y-109367000D01*
X119253000Y-109347000D01*
X118059845Y-109347000D01*
X117938524Y-109576890D01*
X117983175Y-109724099D01*
X118108359Y-109986920D01*
X118282412Y-110220269D01*
X118498645Y-110415178D01*
X118615534Y-110484805D01*
X118433368Y-110606525D01*
X118226525Y-110813368D01*
X118064010Y-111056589D01*
X117952068Y-111326842D01*
X117895000Y-111613740D01*
X117525000Y-111613740D01*
X117525000Y-107530000D01*
X117891928Y-107530000D01*
X117904188Y-107654482D01*
X117940498Y-107774180D01*
X117999463Y-107884494D01*
X118078815Y-107981185D01*
X118175506Y-108060537D01*
X118285820Y-108119502D01*
X118366466Y-108143966D01*
X118282412Y-108219731D01*
X118108359Y-108453080D01*
X117983175Y-108715901D01*
X117938524Y-108863110D01*
X118059845Y-109093000D01*
X119253000Y-109093000D01*
X119253000Y-106807000D01*
X119507000Y-106807000D01*
X119507000Y-109093000D01*
X120700155Y-109093000D01*
X120821476Y-108863110D01*
X120776825Y-108715901D01*
X120651641Y-108453080D01*
X120477588Y-108219731D01*
X120393534Y-108143966D01*
X120474180Y-108119502D01*
X120584494Y-108060537D01*
X120681185Y-107981185D01*
X120760537Y-107884494D01*
X120819502Y-107774180D01*
X120855812Y-107654482D01*
X120868072Y-107530000D01*
X120865000Y-106965750D01*
X120706250Y-106807000D01*
X119507000Y-106807000D01*
X119253000Y-106807000D01*
X118053750Y-106807000D01*
X117895000Y-106965750D01*
X117891928Y-107530000D01*
X117525000Y-107530000D01*
X117525000Y-105830000D01*
X117891928Y-105830000D01*
X117895000Y-106394250D01*
X118053750Y-106553000D01*
X119253000Y-106553000D01*
X119253000Y-105353750D01*
X119507000Y-105353750D01*
X119507000Y-106553000D01*
X120706250Y-106553000D01*
X120865000Y-106394250D01*
X120868072Y-105830000D01*
X120855812Y-105705518D01*
X120819502Y-105585820D01*
X120760537Y-105475506D01*
X120681185Y-105378815D01*
X120584494Y-105299463D01*
X120474180Y-105240498D01*
X120354482Y-105204188D01*
X120230000Y-105191928D01*
X119665750Y-105195000D01*
X119507000Y-105353750D01*
X119253000Y-105353750D01*
X119094250Y-105195000D01*
X118530000Y-105191928D01*
X118405518Y-105204188D01*
X118285820Y-105240498D01*
X118175506Y-105299463D01*
X118078815Y-105378815D01*
X117999463Y-105475506D01*
X117940498Y-105585820D01*
X117904188Y-105705518D01*
X117891928Y-105830000D01*
X117525000Y-105830000D01*
X117525000Y-92608061D01*
X124949000Y-92608061D01*
X124949000Y-92811939D01*
X124988774Y-93011898D01*
X125066795Y-93200256D01*
X125180063Y-93369774D01*
X125324226Y-93513937D01*
X125493744Y-93627205D01*
X125682102Y-93705226D01*
X125882061Y-93745000D01*
X126085939Y-93745000D01*
X126285898Y-93705226D01*
X126474256Y-93627205D01*
X126643774Y-93513937D01*
X126687711Y-93470000D01*
X132527199Y-93470000D01*
X142184201Y-103127003D01*
X142207999Y-103156001D01*
X142236997Y-103179799D01*
X142323724Y-103250974D01*
X142455753Y-103321546D01*
X142599014Y-103365003D01*
X142748000Y-103379677D01*
X142785333Y-103376000D01*
X148057760Y-103376000D01*
X147902047Y-103539243D01*
X147925100Y-103820971D01*
X147955667Y-103928078D01*
X140237314Y-103928078D01*
X135879130Y-99569895D01*
X135869226Y-99520102D01*
X135791205Y-99331744D01*
X135677937Y-99162226D01*
X135533774Y-99018063D01*
X135364256Y-98904795D01*
X135175898Y-98826774D01*
X134975939Y-98787000D01*
X134772061Y-98787000D01*
X134572102Y-98826774D01*
X134383744Y-98904795D01*
X134214226Y-99018063D01*
X134070063Y-99162226D01*
X133956795Y-99331744D01*
X133878774Y-99520102D01*
X133839000Y-99720061D01*
X133839000Y-99923939D01*
X133878774Y-100123898D01*
X133956795Y-100312256D01*
X134070063Y-100481774D01*
X134214226Y-100625937D01*
X134383744Y-100739205D01*
X134572102Y-100817226D01*
X134621895Y-100827130D01*
X139209584Y-105414820D01*
X139237419Y-105448737D01*
X139372787Y-105559831D01*
X139527227Y-105642381D01*
X139621836Y-105671080D01*
X139694803Y-105693214D01*
X139713151Y-105695021D01*
X139825411Y-105706078D01*
X139825417Y-105706078D01*
X139869077Y-105710378D01*
X139912737Y-105706078D01*
X149056712Y-105706078D01*
X149052414Y-105749714D01*
X149056714Y-105793374D01*
X149056714Y-105793380D01*
X149069578Y-105923987D01*
X149120411Y-106091564D01*
X149202961Y-106246004D01*
X149314055Y-106381373D01*
X149347978Y-106409213D01*
X153010506Y-110071742D01*
X153038341Y-110105659D01*
X153173709Y-110216753D01*
X153328149Y-110299303D01*
X153422758Y-110328002D01*
X153495725Y-110350136D01*
X153512325Y-110351771D01*
X153626333Y-110363000D01*
X153626340Y-110363000D01*
X153670000Y-110367300D01*
X153713660Y-110363000D01*
X171762893Y-110363000D01*
X171773368Y-110373475D01*
X171947760Y-110490000D01*
X171773368Y-110606525D01*
X171566525Y-110813368D01*
X171404010Y-111056589D01*
X171292068Y-111326842D01*
X171235000Y-111613740D01*
X171235000Y-111906260D01*
X171292068Y-112193158D01*
X171404010Y-112463411D01*
X171566525Y-112706632D01*
X171773368Y-112913475D01*
X171831000Y-112951984D01*
X171831001Y-113108016D01*
X171773368Y-113146525D01*
X171566525Y-113353368D01*
X171404010Y-113596589D01*
X171292068Y-113866842D01*
X171235000Y-114153740D01*
X171235000Y-114446260D01*
X171292068Y-114733158D01*
X171404010Y-115003411D01*
X171566525Y-115246632D01*
X171773368Y-115453475D01*
X172016589Y-115615990D01*
X172286842Y-115727932D01*
X172573740Y-115785000D01*
X172866260Y-115785000D01*
X173153158Y-115727932D01*
X173423411Y-115615990D01*
X173666632Y-115453475D01*
X173873475Y-115246632D01*
X174035990Y-115003411D01*
X174147932Y-114733158D01*
X174205000Y-114446260D01*
X174205000Y-114153740D01*
X174147932Y-113866842D01*
X174035990Y-113596589D01*
X173873475Y-113353368D01*
X173666632Y-113146525D01*
X173609000Y-113108017D01*
X173609000Y-112951983D01*
X173666632Y-112913475D01*
X173873475Y-112706632D01*
X174035990Y-112463411D01*
X174147932Y-112193158D01*
X174205000Y-111906260D01*
X174205000Y-111613740D01*
X174147932Y-111326842D01*
X174035990Y-111056589D01*
X173873475Y-110813368D01*
X173666632Y-110606525D01*
X173492240Y-110490000D01*
X173666632Y-110373475D01*
X173873475Y-110166632D01*
X174035990Y-109923411D01*
X174147932Y-109653158D01*
X174205000Y-109366260D01*
X174205000Y-109073740D01*
X174147932Y-108786842D01*
X174035990Y-108516589D01*
X173873475Y-108273368D01*
X173666632Y-108066525D01*
X173609000Y-108028017D01*
X173609000Y-107871983D01*
X173666632Y-107833475D01*
X173873475Y-107626632D01*
X174035990Y-107383411D01*
X174147932Y-107113158D01*
X174205000Y-106826260D01*
X174205000Y-106533740D01*
X174147932Y-106246842D01*
X174035990Y-105976589D01*
X173873475Y-105733368D01*
X173666632Y-105526525D01*
X173492240Y-105410000D01*
X173666632Y-105293475D01*
X173873475Y-105086632D01*
X174035990Y-104843411D01*
X174147932Y-104573158D01*
X174205000Y-104286260D01*
X174205000Y-103993740D01*
X174147932Y-103706842D01*
X174035990Y-103436589D01*
X173873475Y-103193368D01*
X173666632Y-102986525D01*
X173492240Y-102870000D01*
X173666632Y-102753475D01*
X173873475Y-102546632D01*
X174035990Y-102303411D01*
X174147932Y-102033158D01*
X174205000Y-101746260D01*
X174205000Y-101453740D01*
X174147932Y-101166842D01*
X174035990Y-100896589D01*
X173873475Y-100653368D01*
X173666632Y-100446525D01*
X173484466Y-100324805D01*
X173601355Y-100255178D01*
X173817588Y-100060269D01*
X173991641Y-99826920D01*
X174116825Y-99564099D01*
X174161476Y-99416890D01*
X174040155Y-99187000D01*
X172847000Y-99187000D01*
X172847000Y-99207000D01*
X172593000Y-99207000D01*
X172593000Y-99187000D01*
X171399845Y-99187000D01*
X171278524Y-99416890D01*
X171323175Y-99564099D01*
X171448359Y-99826920D01*
X171622412Y-100060269D01*
X171838645Y-100255178D01*
X171955534Y-100324805D01*
X171773368Y-100446525D01*
X171566525Y-100653368D01*
X171404010Y-100896589D01*
X171292068Y-101166842D01*
X171235000Y-101453740D01*
X171235000Y-101746260D01*
X171292068Y-102033158D01*
X171404010Y-102303411D01*
X171566525Y-102546632D01*
X171773368Y-102753475D01*
X171947760Y-102870000D01*
X171773368Y-102986525D01*
X171566525Y-103193368D01*
X171404010Y-103436589D01*
X171292068Y-103706842D01*
X171235000Y-103993740D01*
X171235000Y-104286260D01*
X171292068Y-104573158D01*
X171404010Y-104843411D01*
X171566525Y-105086632D01*
X171773368Y-105293475D01*
X171947760Y-105410000D01*
X171773368Y-105526525D01*
X171566525Y-105733368D01*
X171404010Y-105976589D01*
X171292068Y-106246842D01*
X171235000Y-106533740D01*
X171235000Y-106826260D01*
X171292068Y-107113158D01*
X171404010Y-107383411D01*
X171566525Y-107626632D01*
X171773368Y-107833475D01*
X171831000Y-107871984D01*
X171831001Y-108028016D01*
X171773368Y-108066525D01*
X171566525Y-108273368D01*
X171404010Y-108516589D01*
X171375673Y-108585000D01*
X154038236Y-108585000D01*
X152044235Y-106591000D01*
X152287335Y-106591000D01*
X152564574Y-106535853D01*
X152825727Y-106427680D01*
X153060759Y-106270637D01*
X153182694Y-106148702D01*
X154332903Y-106148702D01*
X154404486Y-106392671D01*
X154659996Y-106513571D01*
X154934184Y-106582300D01*
X155216512Y-106596217D01*
X155496130Y-106554787D01*
X155762292Y-106459603D01*
X155887514Y-106392671D01*
X155959097Y-106148702D01*
X155146000Y-105335605D01*
X154332903Y-106148702D01*
X153182694Y-106148702D01*
X153260637Y-106070759D01*
X153417680Y-105835727D01*
X153525853Y-105574574D01*
X153581000Y-105297335D01*
X153581000Y-105014665D01*
X153544688Y-104832113D01*
X153861739Y-104515062D01*
X153788429Y-104669996D01*
X153719700Y-104944184D01*
X153705783Y-105226512D01*
X153747213Y-105506130D01*
X153842397Y-105772292D01*
X153909329Y-105897514D01*
X154153298Y-105969097D01*
X154966395Y-105156000D01*
X155325605Y-105156000D01*
X156138702Y-105969097D01*
X156382671Y-105897514D01*
X156503571Y-105642004D01*
X156572300Y-105367816D01*
X156586217Y-105085488D01*
X156544787Y-104805870D01*
X156449603Y-104539708D01*
X156382671Y-104414486D01*
X156138702Y-104342903D01*
X155325605Y-105156000D01*
X154966395Y-105156000D01*
X154952253Y-105141858D01*
X155131858Y-104962253D01*
X155146000Y-104976395D01*
X155959097Y-104163298D01*
X155887514Y-103919329D01*
X155632004Y-103798429D01*
X155357816Y-103729700D01*
X155075488Y-103715783D01*
X154795870Y-103757213D01*
X154529708Y-103852397D01*
X154518314Y-103858487D01*
X157446042Y-100930759D01*
X158030461Y-100930759D01*
X158205953Y-101114737D01*
X159316664Y-100817122D01*
X159019050Y-99706411D01*
X158771975Y-99646420D01*
X158539518Y-99807248D01*
X158342903Y-100010337D01*
X158189686Y-100247881D01*
X158085757Y-100510752D01*
X158035108Y-100788848D01*
X158030461Y-100930759D01*
X157446042Y-100930759D01*
X157991004Y-100385798D01*
X158020001Y-100362001D01*
X158077035Y-100292505D01*
X158114974Y-100246277D01*
X158185546Y-100114247D01*
X158212161Y-100026506D01*
X158229003Y-99970986D01*
X158240000Y-99859333D01*
X158240000Y-99859324D01*
X158243676Y-99822001D01*
X158240000Y-99784678D01*
X158240000Y-98462911D01*
X158260198Y-98502249D01*
X158435886Y-98723690D01*
X158651400Y-98906601D01*
X158771975Y-98981580D01*
X159019050Y-98921589D01*
X159316664Y-97810878D01*
X158499013Y-97591788D01*
X158706403Y-97384398D01*
X159047253Y-97475728D01*
X159278458Y-97706934D01*
X159458066Y-97527326D01*
X159406467Y-97475727D01*
X159680019Y-96454821D01*
X159657480Y-96433322D01*
X159769004Y-96321798D01*
X159798001Y-96298001D01*
X159837209Y-96250226D01*
X159837209Y-96849561D01*
X159717554Y-97296121D01*
X159486348Y-97527326D01*
X159665956Y-97706934D01*
X159717555Y-97655335D01*
X159837209Y-97687396D01*
X159837209Y-97906469D01*
X159665956Y-97735216D01*
X159486348Y-97914824D01*
X159537947Y-97966423D01*
X159264395Y-98987329D01*
X159448373Y-99162821D01*
X159730101Y-99139768D01*
X159837209Y-99109201D01*
X159837209Y-99514798D01*
X159590284Y-99469826D01*
X159448373Y-99465179D01*
X159264395Y-99640671D01*
X159537947Y-100661577D01*
X159486348Y-100713176D01*
X159665956Y-100892784D01*
X159837209Y-100721531D01*
X159837209Y-100940603D01*
X159717555Y-100972665D01*
X159665956Y-100921066D01*
X159486348Y-101100674D01*
X159717553Y-101331879D01*
X159819907Y-101713869D01*
X159612517Y-101921259D01*
X159382404Y-101062468D01*
X158271693Y-101360082D01*
X158211702Y-101607157D01*
X158372530Y-101839614D01*
X158575619Y-102036229D01*
X158813163Y-102189446D01*
X159076034Y-102293375D01*
X159215078Y-102318699D01*
X159015189Y-102518587D01*
X158886966Y-102390364D01*
X158651934Y-102233321D01*
X158390781Y-102125148D01*
X158113542Y-102070001D01*
X157830872Y-102070001D01*
X157553633Y-102125148D01*
X157292480Y-102233321D01*
X157057448Y-102390364D01*
X156857570Y-102590242D01*
X156700527Y-102825274D01*
X156592354Y-103086427D01*
X156537207Y-103363666D01*
X156537207Y-103646336D01*
X156592354Y-103923575D01*
X156700527Y-104184728D01*
X156857570Y-104419760D01*
X157057448Y-104619638D01*
X157292480Y-104776681D01*
X157553633Y-104884854D01*
X157830872Y-104940001D01*
X158113542Y-104940001D01*
X158390781Y-104884854D01*
X158651934Y-104776681D01*
X158886966Y-104619638D01*
X159086844Y-104419760D01*
X159193726Y-104259799D01*
X159252563Y-104254004D01*
X159395824Y-104210547D01*
X159527853Y-104139975D01*
X159643578Y-104045002D01*
X159667381Y-104015998D01*
X161108211Y-102575169D01*
X161137209Y-102551371D01*
X161232182Y-102435646D01*
X161302754Y-102303617D01*
X161346211Y-102160356D01*
X161357208Y-102048703D01*
X161357208Y-102048694D01*
X161360884Y-102011371D01*
X161357208Y-101974048D01*
X161357208Y-86466530D01*
X161360884Y-86429207D01*
X161357208Y-86391884D01*
X161357208Y-86391875D01*
X161346211Y-86280222D01*
X161302754Y-86136961D01*
X161232182Y-86004932D01*
X161137209Y-85889207D01*
X161108212Y-85865410D01*
X160039000Y-84796199D01*
X160039000Y-84734061D01*
X159999226Y-84534102D01*
X159921205Y-84345744D01*
X159807937Y-84176226D01*
X159663774Y-84032063D01*
X159494256Y-83918795D01*
X159305898Y-83840774D01*
X159105939Y-83801000D01*
X158902061Y-83801000D01*
X158702102Y-83840774D01*
X158513744Y-83918795D01*
X158344226Y-84032063D01*
X158200063Y-84176226D01*
X158086795Y-84345744D01*
X158008774Y-84534102D01*
X157969000Y-84734061D01*
X157969000Y-84937939D01*
X158008774Y-85137898D01*
X158086795Y-85326256D01*
X158200063Y-85495774D01*
X158344226Y-85639937D01*
X158513744Y-85753205D01*
X158702102Y-85831226D01*
X158902061Y-85871000D01*
X158964199Y-85871000D01*
X159837208Y-86744010D01*
X159837208Y-90693773D01*
X159821799Y-90674997D01*
X159798001Y-90645999D01*
X159769003Y-90622201D01*
X154492464Y-85345663D01*
X154492464Y-74180532D01*
X154521643Y-74151353D01*
X154632832Y-73984947D01*
X154709420Y-73800047D01*
X154748464Y-73603758D01*
X154748464Y-73403624D01*
X154709420Y-73207335D01*
X154632832Y-73022435D01*
X154521643Y-72856029D01*
X154380126Y-72714512D01*
X154213720Y-72603323D01*
X154028820Y-72526735D01*
X153832531Y-72487691D01*
X153632397Y-72487691D01*
X153436108Y-72526735D01*
X153251208Y-72603323D01*
X153084802Y-72714512D01*
X152943285Y-72856029D01*
X152832096Y-73022435D01*
X152755508Y-73207335D01*
X152716464Y-73403624D01*
X152716464Y-73603758D01*
X152755508Y-73800047D01*
X152832096Y-73984947D01*
X152943285Y-74151353D01*
X152972465Y-74180533D01*
X152972464Y-85623142D01*
X152968788Y-85660464D01*
X152972464Y-85697786D01*
X152972464Y-85697796D01*
X152983461Y-85809449D01*
X153016451Y-85918205D01*
X153026918Y-85952710D01*
X153097490Y-86084740D01*
X153137335Y-86133290D01*
X153192463Y-86200465D01*
X153221467Y-86224268D01*
X158498001Y-91500803D01*
X158498001Y-93439968D01*
X158483211Y-93427831D01*
X152428382Y-87373003D01*
X152404579Y-87343999D01*
X152288854Y-87249026D01*
X152156825Y-87178454D01*
X152013564Y-87134997D01*
X151901911Y-87124000D01*
X151901900Y-87124000D01*
X151864578Y-87120324D01*
X151827256Y-87124000D01*
X149412802Y-87124000D01*
X149094837Y-86806036D01*
X149115744Y-86820005D01*
X149304102Y-86898026D01*
X149504061Y-86937800D01*
X149707939Y-86937800D01*
X149907898Y-86898026D01*
X150096256Y-86820005D01*
X150265774Y-86706737D01*
X150409937Y-86562574D01*
X150523205Y-86393056D01*
X150601226Y-86204698D01*
X150641000Y-86004739D01*
X150641000Y-85800861D01*
X150601226Y-85600902D01*
X150523205Y-85412544D01*
X150409937Y-85243026D01*
X150366000Y-85199089D01*
X150366000Y-75735311D01*
X150409937Y-75691374D01*
X150523205Y-75521856D01*
X150601226Y-75333498D01*
X150641000Y-75133539D01*
X150641000Y-74929661D01*
X150601226Y-74729702D01*
X150523205Y-74541344D01*
X150409937Y-74371826D01*
X150265774Y-74227663D01*
X150096256Y-74114395D01*
X149907898Y-74036374D01*
X149707939Y-73996600D01*
X149504061Y-73996600D01*
X149304102Y-74036374D01*
X149115744Y-74114395D01*
X148946226Y-74227663D01*
X148802063Y-74371826D01*
X148688795Y-74541344D01*
X148610774Y-74729702D01*
X148571000Y-74929661D01*
X148571000Y-75133539D01*
X148610774Y-75333498D01*
X148688795Y-75521856D01*
X148802063Y-75691374D01*
X148846001Y-75735312D01*
X148846000Y-85199089D01*
X148802063Y-85243026D01*
X148688795Y-85412544D01*
X148610774Y-85600902D01*
X148571000Y-85800861D01*
X148571000Y-86004739D01*
X148610774Y-86204698D01*
X148688795Y-86393056D01*
X148702765Y-86413963D01*
X147826000Y-85537199D01*
X147826000Y-71796841D01*
X147855179Y-71767662D01*
X147966368Y-71601256D01*
X148042956Y-71416356D01*
X148082000Y-71220067D01*
X148082000Y-71019933D01*
X148042956Y-70823644D01*
X147966368Y-70638744D01*
X147855179Y-70472338D01*
X147713662Y-70330821D01*
X147547256Y-70219632D01*
X147362356Y-70143044D01*
X147166067Y-70104000D01*
X146965933Y-70104000D01*
X146769644Y-70143044D01*
X146584744Y-70219632D01*
X146418338Y-70330821D01*
X146276821Y-70472338D01*
X146165632Y-70638744D01*
X146089044Y-70823644D01*
X146050000Y-71019933D01*
X146050000Y-71220067D01*
X146089044Y-71416356D01*
X146165632Y-71601256D01*
X146276821Y-71767662D01*
X146306000Y-71796841D01*
X146306001Y-85814668D01*
X146302324Y-85852000D01*
X146306001Y-85889333D01*
X146316998Y-86000986D01*
X146330180Y-86044442D01*
X146360454Y-86144246D01*
X146431026Y-86276276D01*
X146499401Y-86359591D01*
X146405939Y-86341000D01*
X146202061Y-86341000D01*
X146002102Y-86380774D01*
X145813744Y-86458795D01*
X145644226Y-86572063D01*
X145500063Y-86716226D01*
X145386795Y-86885744D01*
X145308774Y-87074102D01*
X145269000Y-87274061D01*
X145269000Y-87477939D01*
X145308774Y-87677898D01*
X145386795Y-87866256D01*
X145500063Y-88035774D01*
X145644226Y-88179937D01*
X145813744Y-88293205D01*
X146002102Y-88371226D01*
X146202061Y-88411000D01*
X146264199Y-88411000D01*
X150807292Y-92954094D01*
X150766147Y-93053426D01*
X150711000Y-93330665D01*
X150711000Y-93613335D01*
X150766147Y-93890574D01*
X150874320Y-94151727D01*
X151031363Y-94386759D01*
X151231241Y-94586637D01*
X151466273Y-94743680D01*
X151727426Y-94851853D01*
X152004665Y-94907000D01*
X152287335Y-94907000D01*
X152564574Y-94851853D01*
X152825727Y-94743680D01*
X153060759Y-94586637D01*
X153182694Y-94464702D01*
X154332903Y-94464702D01*
X154404486Y-94708671D01*
X154659996Y-94829571D01*
X154934184Y-94898300D01*
X155216512Y-94912217D01*
X155496130Y-94870787D01*
X155762292Y-94775603D01*
X155887514Y-94708671D01*
X155959097Y-94464702D01*
X155146000Y-93651605D01*
X154332903Y-94464702D01*
X153182694Y-94464702D01*
X153260637Y-94386759D01*
X153417680Y-94151727D01*
X153525853Y-93890574D01*
X153581000Y-93613335D01*
X153581000Y-93542512D01*
X153705783Y-93542512D01*
X153747213Y-93822130D01*
X153842397Y-94088292D01*
X153909329Y-94213514D01*
X154153298Y-94285097D01*
X154966395Y-93472000D01*
X154153298Y-92658903D01*
X153909329Y-92730486D01*
X153788429Y-92985996D01*
X153719700Y-93260184D01*
X153705783Y-93542512D01*
X153581000Y-93542512D01*
X153581000Y-93330665D01*
X153525853Y-93053426D01*
X153417680Y-92792273D01*
X153260637Y-92557241D01*
X153060759Y-92357363D01*
X152825727Y-92200320D01*
X152564574Y-92092147D01*
X152287335Y-92037000D01*
X152039802Y-92037000D01*
X147339000Y-87336199D01*
X147339000Y-87274061D01*
X147320561Y-87181363D01*
X148534200Y-88395002D01*
X148557999Y-88424001D01*
X148586997Y-88447799D01*
X148673723Y-88518974D01*
X148805753Y-88589546D01*
X148949014Y-88633003D01*
X149060667Y-88644000D01*
X149060677Y-88644000D01*
X149098000Y-88647676D01*
X149135323Y-88644000D01*
X151549777Y-88644000D01*
X154955359Y-92049582D01*
X154795870Y-92073213D01*
X154529708Y-92168397D01*
X154404486Y-92235329D01*
X154332903Y-92479298D01*
X155146000Y-93292395D01*
X155160143Y-93278253D01*
X155339748Y-93457858D01*
X155325605Y-93472000D01*
X156138702Y-94285097D01*
X156382671Y-94213514D01*
X156503571Y-93958004D01*
X156572300Y-93683816D01*
X156573112Y-93667336D01*
X156985793Y-94080017D01*
X156857570Y-94208240D01*
X156700527Y-94443272D01*
X156592354Y-94704425D01*
X156537207Y-94981664D01*
X156537207Y-95264334D01*
X156592354Y-95541573D01*
X156700527Y-95802726D01*
X156857570Y-96037758D01*
X157057448Y-96237636D01*
X157292480Y-96394679D01*
X157472113Y-96469085D01*
X156968998Y-96972201D01*
X156940000Y-96995999D01*
X156916202Y-97024997D01*
X156916201Y-97024998D01*
X156845026Y-97111724D01*
X156774454Y-97243754D01*
X156730998Y-97387015D01*
X156716324Y-97536000D01*
X156720001Y-97573332D01*
X156720000Y-99507198D01*
X156381048Y-99846150D01*
X156416011Y-99761743D01*
X156475000Y-99465184D01*
X156475000Y-99162816D01*
X156416011Y-98866257D01*
X156300299Y-98586905D01*
X156132312Y-98335495D01*
X155918505Y-98121688D01*
X155697028Y-97973702D01*
X155689003Y-97892222D01*
X155645546Y-97748961D01*
X155619553Y-97700332D01*
X155574974Y-97616931D01*
X155532791Y-97565532D01*
X155480001Y-97501207D01*
X155450997Y-97477404D01*
X154998596Y-97025003D01*
X154974793Y-96995999D01*
X154859068Y-96901026D01*
X154727039Y-96830454D01*
X154583778Y-96786997D01*
X154472125Y-96776000D01*
X154472114Y-96776000D01*
X154434792Y-96772324D01*
X154397470Y-96776000D01*
X151830320Y-96776000D01*
X151792997Y-96772324D01*
X151755674Y-96776000D01*
X151755665Y-96776000D01*
X151644012Y-96786997D01*
X151500751Y-96830454D01*
X151368722Y-96901026D01*
X151368720Y-96901027D01*
X151368721Y-96901027D01*
X151281994Y-96972201D01*
X151281990Y-96972205D01*
X151252997Y-96995999D01*
X151229203Y-97024992D01*
X148841003Y-99413194D01*
X148811999Y-99436997D01*
X148756871Y-99504172D01*
X148717026Y-99552722D01*
X148652728Y-99673015D01*
X148646454Y-99684752D01*
X148623575Y-99760175D01*
X148598591Y-99743482D01*
X148592796Y-99684645D01*
X148549339Y-99541384D01*
X148507434Y-99462986D01*
X148478767Y-99409354D01*
X148407592Y-99322628D01*
X148383794Y-99293630D01*
X148354796Y-99269832D01*
X148150140Y-99065176D01*
X148262367Y-99042852D01*
X148523520Y-98934679D01*
X148758552Y-98777636D01*
X148958430Y-98577758D01*
X149115473Y-98342726D01*
X149223646Y-98081573D01*
X149278793Y-97804334D01*
X149278793Y-97521664D01*
X149223646Y-97244425D01*
X149115473Y-96983272D01*
X148958430Y-96748240D01*
X148758552Y-96548362D01*
X148523520Y-96391319D01*
X148262367Y-96283146D01*
X147985128Y-96227999D01*
X147702458Y-96227999D01*
X147612662Y-96245861D01*
X147131956Y-95765155D01*
X148083288Y-95765155D01*
X148244116Y-95997612D01*
X148447205Y-96194227D01*
X148684749Y-96347444D01*
X148947620Y-96451373D01*
X149225716Y-96502022D01*
X149367627Y-96506669D01*
X149551605Y-96331177D01*
X149253990Y-95220466D01*
X148143279Y-95518080D01*
X148083288Y-95765155D01*
X147131956Y-95765155D01*
X146455558Y-95088757D01*
X147902047Y-95088757D01*
X148077539Y-95272735D01*
X148517953Y-95154726D01*
X149499336Y-95154726D01*
X149796950Y-96265437D01*
X150044025Y-96325428D01*
X150276482Y-96164600D01*
X150473097Y-95961511D01*
X150626314Y-95723967D01*
X150730243Y-95461096D01*
X150780892Y-95183000D01*
X150785539Y-95041089D01*
X150610047Y-94857111D01*
X149499336Y-95154726D01*
X148517953Y-95154726D01*
X149188250Y-94975120D01*
X148890636Y-93864409D01*
X148643561Y-93804418D01*
X148411104Y-93965246D01*
X148214489Y-94168335D01*
X148061272Y-94405879D01*
X147957343Y-94668750D01*
X147906694Y-94946846D01*
X147902047Y-95088757D01*
X146455558Y-95088757D01*
X145165470Y-93798669D01*
X149135981Y-93798669D01*
X149433596Y-94909380D01*
X150544307Y-94611766D01*
X150604298Y-94364691D01*
X150443470Y-94132234D01*
X150240381Y-93935619D01*
X150002837Y-93782402D01*
X149739966Y-93678473D01*
X149461870Y-93627824D01*
X149319959Y-93623177D01*
X149135981Y-93798669D01*
X145165470Y-93798669D01*
X144270000Y-92903199D01*
X144270000Y-72173325D01*
X144273676Y-72136000D01*
X144270000Y-72098675D01*
X144270000Y-72098667D01*
X144259003Y-71987014D01*
X144215546Y-71843753D01*
X144144974Y-71711724D01*
X144050001Y-71595999D01*
X144021003Y-71572201D01*
X141765063Y-69316261D01*
X153955800Y-69316261D01*
X153955800Y-69520139D01*
X153995574Y-69720098D01*
X154073595Y-69908456D01*
X154186863Y-70077974D01*
X154331026Y-70222137D01*
X154500544Y-70335405D01*
X154688902Y-70413426D01*
X154888861Y-70453200D01*
X154950999Y-70453200D01*
X156237400Y-71739602D01*
X156237401Y-81033488D01*
X156193463Y-81077426D01*
X156080195Y-81246944D01*
X156002174Y-81435302D01*
X155962400Y-81635261D01*
X155962400Y-81839139D01*
X156002174Y-82039098D01*
X156080195Y-82227456D01*
X156193463Y-82396974D01*
X156337626Y-82541137D01*
X156507144Y-82654405D01*
X156695502Y-82732426D01*
X156895461Y-82772200D01*
X157099339Y-82772200D01*
X157299298Y-82732426D01*
X157487656Y-82654405D01*
X157657174Y-82541137D01*
X157801337Y-82396974D01*
X157914605Y-82227456D01*
X157992626Y-82039098D01*
X158032400Y-81839139D01*
X158032400Y-81635261D01*
X157992626Y-81435302D01*
X157914605Y-81246944D01*
X157801337Y-81077426D01*
X157757400Y-81033489D01*
X157757400Y-78885701D01*
X162054000Y-83182302D01*
X162054001Y-102110697D01*
X158373699Y-105791000D01*
X158332433Y-105791000D01*
X158136144Y-105830044D01*
X157951244Y-105906632D01*
X157784838Y-106017821D01*
X157643321Y-106159338D01*
X157532132Y-106325744D01*
X157455544Y-106510644D01*
X157416500Y-106706933D01*
X157416500Y-106907067D01*
X157455544Y-107103356D01*
X157532132Y-107288256D01*
X157643321Y-107454662D01*
X157784838Y-107596179D01*
X157951244Y-107707368D01*
X158136144Y-107783956D01*
X158332433Y-107823000D01*
X158532567Y-107823000D01*
X158728856Y-107783956D01*
X158913756Y-107707368D01*
X159080162Y-107596179D01*
X159221679Y-107454662D01*
X159332868Y-107288256D01*
X159409456Y-107103356D01*
X159448500Y-106907067D01*
X159448500Y-106865801D01*
X163325003Y-102989299D01*
X163354001Y-102965501D01*
X163448974Y-102849776D01*
X163519546Y-102717747D01*
X163563003Y-102574486D01*
X163574000Y-102462833D01*
X163574000Y-102462825D01*
X163577676Y-102425500D01*
X163574000Y-102388175D01*
X163574000Y-97370000D01*
X171231928Y-97370000D01*
X171244188Y-97494482D01*
X171280498Y-97614180D01*
X171339463Y-97724494D01*
X171418815Y-97821185D01*
X171515506Y-97900537D01*
X171625820Y-97959502D01*
X171706466Y-97983966D01*
X171622412Y-98059731D01*
X171448359Y-98293080D01*
X171323175Y-98555901D01*
X171278524Y-98703110D01*
X171399845Y-98933000D01*
X172593000Y-98933000D01*
X172593000Y-96647000D01*
X172847000Y-96647000D01*
X172847000Y-98933000D01*
X174040155Y-98933000D01*
X174161476Y-98703110D01*
X174116825Y-98555901D01*
X173991641Y-98293080D01*
X173817588Y-98059731D01*
X173733534Y-97983966D01*
X173814180Y-97959502D01*
X173924494Y-97900537D01*
X174021185Y-97821185D01*
X174100537Y-97724494D01*
X174159502Y-97614180D01*
X174195812Y-97494482D01*
X174208072Y-97370000D01*
X174205000Y-96805750D01*
X174046250Y-96647000D01*
X172847000Y-96647000D01*
X172593000Y-96647000D01*
X171393750Y-96647000D01*
X171235000Y-96805750D01*
X171231928Y-97370000D01*
X163574000Y-97370000D01*
X163574000Y-95670000D01*
X171231928Y-95670000D01*
X171235000Y-96234250D01*
X171393750Y-96393000D01*
X172593000Y-96393000D01*
X172593000Y-95193750D01*
X172847000Y-95193750D01*
X172847000Y-96393000D01*
X174046250Y-96393000D01*
X174205000Y-96234250D01*
X174208072Y-95670000D01*
X174195812Y-95545518D01*
X174159502Y-95425820D01*
X174100537Y-95315506D01*
X174021185Y-95218815D01*
X173924494Y-95139463D01*
X173814180Y-95080498D01*
X173694482Y-95044188D01*
X173570000Y-95031928D01*
X173005750Y-95035000D01*
X172847000Y-95193750D01*
X172593000Y-95193750D01*
X172434250Y-95035000D01*
X171870000Y-95031928D01*
X171745518Y-95044188D01*
X171625820Y-95080498D01*
X171515506Y-95139463D01*
X171418815Y-95218815D01*
X171339463Y-95315506D01*
X171280498Y-95425820D01*
X171244188Y-95545518D01*
X171231928Y-95670000D01*
X163574000Y-95670000D01*
X163574000Y-82904833D01*
X163577677Y-82867500D01*
X163563003Y-82718514D01*
X163519546Y-82575253D01*
X163448974Y-82443224D01*
X163377799Y-82356497D01*
X163354001Y-82327499D01*
X163325004Y-82303702D01*
X162455235Y-81433933D01*
X163576000Y-81433933D01*
X163576000Y-81634067D01*
X163615044Y-81830356D01*
X163691632Y-82015256D01*
X163802821Y-82181662D01*
X163944338Y-82323179D01*
X164110744Y-82434368D01*
X164295644Y-82510956D01*
X164491933Y-82550000D01*
X164692067Y-82550000D01*
X164888356Y-82510956D01*
X165073256Y-82434368D01*
X165239662Y-82323179D01*
X165289692Y-82273149D01*
X165323974Y-82445498D01*
X165401995Y-82633856D01*
X165515263Y-82803374D01*
X165659426Y-82947537D01*
X165828944Y-83060805D01*
X166017302Y-83138826D01*
X166217261Y-83178600D01*
X166421139Y-83178600D01*
X166621098Y-83138826D01*
X166809456Y-83060805D01*
X166978974Y-82947537D01*
X167123137Y-82803374D01*
X167236405Y-82633856D01*
X167314426Y-82445498D01*
X167354200Y-82245539D01*
X167354200Y-82041661D01*
X167314426Y-81841702D01*
X167236405Y-81653344D01*
X167123137Y-81483826D01*
X167079200Y-81439889D01*
X167079200Y-75836455D01*
X167080574Y-75835537D01*
X167224737Y-75691374D01*
X167338005Y-75521856D01*
X167416026Y-75333498D01*
X167455800Y-75133539D01*
X167455800Y-74929661D01*
X167416026Y-74729702D01*
X167338005Y-74541344D01*
X167256926Y-74420000D01*
X171441822Y-74420000D01*
X171566525Y-74606632D01*
X171773368Y-74813475D01*
X171947760Y-74930000D01*
X171773368Y-75046525D01*
X171566525Y-75253368D01*
X171404010Y-75496589D01*
X171292068Y-75766842D01*
X171235000Y-76053740D01*
X171235000Y-76346260D01*
X171292068Y-76633158D01*
X171404010Y-76903411D01*
X171566525Y-77146632D01*
X171773368Y-77353475D01*
X172016589Y-77515990D01*
X172286842Y-77627932D01*
X172573740Y-77685000D01*
X172866260Y-77685000D01*
X173153158Y-77627932D01*
X173423411Y-77515990D01*
X173666632Y-77353475D01*
X173873475Y-77146632D01*
X174035990Y-76903411D01*
X174147932Y-76633158D01*
X174205000Y-76346260D01*
X174205000Y-76053740D01*
X174147932Y-75766842D01*
X174035990Y-75496589D01*
X173873475Y-75253368D01*
X173666632Y-75046525D01*
X173492240Y-74930000D01*
X173666632Y-74813475D01*
X173873475Y-74606632D01*
X174035990Y-74363411D01*
X174147932Y-74093158D01*
X174205000Y-73806260D01*
X174205000Y-73513740D01*
X174147932Y-73226842D01*
X174035990Y-72956589D01*
X173873475Y-72713368D01*
X173666632Y-72506525D01*
X173484466Y-72384805D01*
X173601355Y-72315178D01*
X173817588Y-72120269D01*
X173991641Y-71886920D01*
X174116825Y-71624099D01*
X174161476Y-71476890D01*
X174040155Y-71247000D01*
X172847000Y-71247000D01*
X172847000Y-71267000D01*
X172593000Y-71267000D01*
X172593000Y-71247000D01*
X171399845Y-71247000D01*
X171278524Y-71476890D01*
X171323175Y-71624099D01*
X171448359Y-71886920D01*
X171622412Y-72120269D01*
X171838645Y-72315178D01*
X171955534Y-72384805D01*
X171773368Y-72506525D01*
X171566525Y-72713368D01*
X171441822Y-72900000D01*
X165137322Y-72900000D01*
X165099999Y-72896324D01*
X165062676Y-72900000D01*
X165062667Y-72900000D01*
X164951014Y-72910997D01*
X164807753Y-72954454D01*
X164675724Y-73025026D01*
X164559999Y-73119999D01*
X164536200Y-73148998D01*
X164081002Y-73604197D01*
X164051999Y-73627999D01*
X164026780Y-73658729D01*
X163957026Y-73743724D01*
X163922142Y-73808987D01*
X163886454Y-73875754D01*
X163842997Y-74019015D01*
X163832000Y-74130668D01*
X163832000Y-74130678D01*
X163828324Y-74168000D01*
X163832000Y-74205322D01*
X163832001Y-80857158D01*
X163802821Y-80886338D01*
X163691632Y-81052744D01*
X163615044Y-81237644D01*
X163576000Y-81433933D01*
X162455235Y-81433933D01*
X158875000Y-77853699D01*
X158875000Y-75339791D01*
X158930727Y-75284064D01*
X159043995Y-75114546D01*
X159122016Y-74926188D01*
X159161790Y-74726229D01*
X159161790Y-74522351D01*
X159122016Y-74322392D01*
X159043995Y-74134034D01*
X158930727Y-73964516D01*
X158786564Y-73820353D01*
X158617046Y-73707085D01*
X158428688Y-73629064D01*
X158228729Y-73589290D01*
X158024851Y-73589290D01*
X157824892Y-73629064D01*
X157757400Y-73657020D01*
X157757400Y-71462123D01*
X157761076Y-71424800D01*
X157757400Y-71387477D01*
X157757400Y-71387467D01*
X157746403Y-71275814D01*
X157702946Y-71132553D01*
X157673813Y-71078049D01*
X157632374Y-71000523D01*
X157561199Y-70913797D01*
X157537401Y-70884799D01*
X157508404Y-70861002D01*
X156077402Y-69430000D01*
X171231928Y-69430000D01*
X171244188Y-69554482D01*
X171280498Y-69674180D01*
X171339463Y-69784494D01*
X171418815Y-69881185D01*
X171515506Y-69960537D01*
X171625820Y-70019502D01*
X171706466Y-70043966D01*
X171622412Y-70119731D01*
X171448359Y-70353080D01*
X171323175Y-70615901D01*
X171278524Y-70763110D01*
X171399845Y-70993000D01*
X172593000Y-70993000D01*
X172593000Y-68707000D01*
X172847000Y-68707000D01*
X172847000Y-70993000D01*
X174040155Y-70993000D01*
X174161476Y-70763110D01*
X174116825Y-70615901D01*
X173991641Y-70353080D01*
X173817588Y-70119731D01*
X173733534Y-70043966D01*
X173814180Y-70019502D01*
X173924494Y-69960537D01*
X174021185Y-69881185D01*
X174100537Y-69784494D01*
X174159502Y-69674180D01*
X174195812Y-69554482D01*
X174208072Y-69430000D01*
X174205000Y-68865750D01*
X174046250Y-68707000D01*
X172847000Y-68707000D01*
X172593000Y-68707000D01*
X171393750Y-68707000D01*
X171235000Y-68865750D01*
X171231928Y-69430000D01*
X156077402Y-69430000D01*
X156025800Y-69378399D01*
X156025800Y-69316261D01*
X155986026Y-69116302D01*
X155908005Y-68927944D01*
X155794737Y-68758426D01*
X155650574Y-68614263D01*
X155481056Y-68500995D01*
X155292698Y-68422974D01*
X155092739Y-68383200D01*
X154888861Y-68383200D01*
X154688902Y-68422974D01*
X154500544Y-68500995D01*
X154331026Y-68614263D01*
X154186863Y-68758426D01*
X154073595Y-68927944D01*
X153995574Y-69116302D01*
X153955800Y-69316261D01*
X141765063Y-69316261D01*
X141279804Y-68831003D01*
X141256001Y-68801999D01*
X141140276Y-68707026D01*
X141008247Y-68636454D01*
X140864986Y-68592997D01*
X140753333Y-68582000D01*
X140753322Y-68582000D01*
X140716000Y-68578324D01*
X140678678Y-68582000D01*
X135165322Y-68582000D01*
X135128000Y-68578324D01*
X135090677Y-68582000D01*
X135090667Y-68582000D01*
X134979014Y-68592997D01*
X134835753Y-68636454D01*
X134703723Y-68707026D01*
X134641093Y-68758426D01*
X134587999Y-68801999D01*
X134564201Y-68830997D01*
X134053199Y-69342000D01*
X134011933Y-69342000D01*
X133815644Y-69381044D01*
X133630744Y-69457632D01*
X133464338Y-69568821D01*
X133322821Y-69710338D01*
X133211632Y-69876744D01*
X133135044Y-70061644D01*
X133096000Y-70257933D01*
X133096000Y-70458067D01*
X133135044Y-70654356D01*
X133211632Y-70839256D01*
X133322821Y-71005662D01*
X133464338Y-71147179D01*
X133630744Y-71258368D01*
X133815644Y-71334956D01*
X134011933Y-71374000D01*
X134212067Y-71374000D01*
X134408356Y-71334956D01*
X134593256Y-71258368D01*
X134759662Y-71147179D01*
X134901179Y-71005662D01*
X135012368Y-70839256D01*
X135088956Y-70654356D01*
X135128000Y-70458067D01*
X135128000Y-70416801D01*
X135442802Y-70102000D01*
X140401199Y-70102000D01*
X142750001Y-72450803D01*
X142750000Y-93180678D01*
X142746324Y-93218000D01*
X142750000Y-93255322D01*
X142750000Y-93255332D01*
X142760997Y-93366985D01*
X142795469Y-93480626D01*
X142804454Y-93510246D01*
X142875026Y-93642276D01*
X142912550Y-93687999D01*
X142969999Y-93758001D01*
X142999003Y-93781804D01*
X146463556Y-97246357D01*
X146441616Y-97356653D01*
X140968000Y-91883037D01*
X140968000Y-86047711D01*
X141011937Y-86003774D01*
X141125205Y-85834256D01*
X141203226Y-85645898D01*
X141243000Y-85445939D01*
X141243000Y-85242061D01*
X141203226Y-85042102D01*
X141125205Y-84853744D01*
X141011937Y-84684226D01*
X140867774Y-84540063D01*
X140698256Y-84426795D01*
X140509898Y-84348774D01*
X140309939Y-84309000D01*
X140242990Y-84309000D01*
X140242990Y-73988301D01*
X140246666Y-73950976D01*
X140242990Y-73913651D01*
X140242990Y-73913643D01*
X140231993Y-73801990D01*
X140188536Y-73658729D01*
X140117964Y-73526700D01*
X140022991Y-73410975D01*
X139993993Y-73387177D01*
X138449000Y-71842185D01*
X138449000Y-71780047D01*
X138409226Y-71580088D01*
X138331205Y-71391730D01*
X138217937Y-71222212D01*
X138073774Y-71078049D01*
X137904256Y-70964781D01*
X137715898Y-70886760D01*
X137515939Y-70846986D01*
X137312061Y-70846986D01*
X137112102Y-70886760D01*
X136923744Y-70964781D01*
X136754226Y-71078049D01*
X136610063Y-71222212D01*
X136496795Y-71391730D01*
X136418774Y-71580088D01*
X136379000Y-71780047D01*
X136379000Y-71983925D01*
X136418774Y-72183884D01*
X136496795Y-72372242D01*
X136610063Y-72541760D01*
X136754226Y-72685923D01*
X136923744Y-72799191D01*
X137112102Y-72877212D01*
X137312061Y-72916986D01*
X137374199Y-72916986D01*
X138722991Y-74265779D01*
X138722990Y-88498877D01*
X138679053Y-88542814D01*
X138565785Y-88712332D01*
X138487764Y-88900690D01*
X138447990Y-89100649D01*
X138447990Y-89304527D01*
X138487764Y-89504486D01*
X138565785Y-89692844D01*
X138679053Y-89862362D01*
X138823216Y-90006525D01*
X138992734Y-90119793D01*
X139181092Y-90197814D01*
X139381051Y-90237588D01*
X139448000Y-90237588D01*
X139448000Y-92160515D01*
X139444324Y-92197838D01*
X139448000Y-92235160D01*
X139448000Y-92235170D01*
X139458997Y-92346823D01*
X139496058Y-92468998D01*
X139502454Y-92490084D01*
X139573026Y-92622114D01*
X139603218Y-92658903D01*
X139667999Y-92737839D01*
X139697003Y-92761642D01*
X146857379Y-99922019D01*
X146729156Y-100050242D01*
X146572113Y-100285274D01*
X146463940Y-100546427D01*
X146408793Y-100823666D01*
X146408793Y-101106336D01*
X146463940Y-101383575D01*
X146572113Y-101644728D01*
X146713280Y-101856000D01*
X143062802Y-101856000D01*
X133405804Y-92199003D01*
X133382001Y-92169999D01*
X133266276Y-92075026D01*
X133134247Y-92004454D01*
X132990986Y-91960997D01*
X132879333Y-91950000D01*
X132879322Y-91950000D01*
X132842000Y-91946324D01*
X132804678Y-91950000D01*
X132728911Y-91950000D01*
X132833137Y-91845774D01*
X132946405Y-91676256D01*
X133024426Y-91487898D01*
X133064200Y-91287939D01*
X133064200Y-91084061D01*
X133024426Y-90884102D01*
X132946405Y-90695744D01*
X132833137Y-90526226D01*
X132789200Y-90482289D01*
X132789200Y-76034122D01*
X132792876Y-75996800D01*
X132789200Y-75959477D01*
X132789200Y-75959467D01*
X132778203Y-75847814D01*
X132734746Y-75704553D01*
X132689292Y-75619516D01*
X132664174Y-75572523D01*
X132592999Y-75485797D01*
X132569201Y-75456799D01*
X132540203Y-75433001D01*
X132048200Y-74940999D01*
X132048200Y-74878861D01*
X132008426Y-74678902D01*
X131930405Y-74490544D01*
X131817137Y-74321026D01*
X131672974Y-74176863D01*
X131503456Y-74063595D01*
X131315098Y-73985574D01*
X131115139Y-73945800D01*
X130911261Y-73945800D01*
X130711302Y-73985574D01*
X130522944Y-74063595D01*
X130353426Y-74176863D01*
X130209263Y-74321026D01*
X130095995Y-74490544D01*
X130017974Y-74678902D01*
X129978200Y-74878861D01*
X129978200Y-75082739D01*
X130017974Y-75282698D01*
X130095995Y-75471056D01*
X130209263Y-75640574D01*
X130353426Y-75784737D01*
X130522944Y-75898005D01*
X130711302Y-75976026D01*
X130911261Y-76015800D01*
X130973399Y-76015800D01*
X131269201Y-76311603D01*
X131269200Y-90482289D01*
X131225263Y-90526226D01*
X131111995Y-90695744D01*
X131033974Y-90884102D01*
X130994200Y-91084061D01*
X130994200Y-91287939D01*
X131033974Y-91487898D01*
X131111995Y-91676256D01*
X131225263Y-91845774D01*
X131329489Y-91950000D01*
X126687711Y-91950000D01*
X126643774Y-91906063D01*
X126474256Y-91792795D01*
X126285898Y-91714774D01*
X126085939Y-91675000D01*
X125882061Y-91675000D01*
X125682102Y-91714774D01*
X125493744Y-91792795D01*
X125324226Y-91906063D01*
X125180063Y-92050226D01*
X125066795Y-92219744D01*
X124988774Y-92408102D01*
X124949000Y-92608061D01*
X117525000Y-92608061D01*
X117525000Y-73513740D01*
X117895000Y-73513740D01*
X117895000Y-73806260D01*
X117952068Y-74093158D01*
X118064010Y-74363411D01*
X118226525Y-74606632D01*
X118433368Y-74813475D01*
X118607760Y-74930000D01*
X118433368Y-75046525D01*
X118226525Y-75253368D01*
X118064010Y-75496589D01*
X117952068Y-75766842D01*
X117895000Y-76053740D01*
X117895000Y-76346260D01*
X117952068Y-76633158D01*
X118064010Y-76903411D01*
X118226525Y-77146632D01*
X118433368Y-77353475D01*
X118676589Y-77515990D01*
X118946842Y-77627932D01*
X119233740Y-77685000D01*
X119526260Y-77685000D01*
X119813158Y-77627932D01*
X120083411Y-77515990D01*
X120326632Y-77353475D01*
X120533475Y-77146632D01*
X120695990Y-76903411D01*
X120807932Y-76633158D01*
X120865000Y-76346260D01*
X120865000Y-76053740D01*
X120807932Y-75766842D01*
X120695990Y-75496589D01*
X120533475Y-75253368D01*
X120326632Y-75046525D01*
X120152240Y-74930000D01*
X120326632Y-74813475D01*
X120533475Y-74606632D01*
X120695990Y-74363411D01*
X120807932Y-74093158D01*
X120865000Y-73806260D01*
X120865000Y-73513740D01*
X120807932Y-73226842D01*
X120695990Y-72956589D01*
X120533475Y-72713368D01*
X120326632Y-72506525D01*
X120144466Y-72384805D01*
X120261355Y-72315178D01*
X120477588Y-72120269D01*
X120651641Y-71886920D01*
X120776825Y-71624099D01*
X120821476Y-71476890D01*
X120700155Y-71247000D01*
X119507000Y-71247000D01*
X119507000Y-71267000D01*
X119253000Y-71267000D01*
X119253000Y-71247000D01*
X118059845Y-71247000D01*
X117938524Y-71476890D01*
X117983175Y-71624099D01*
X118108359Y-71886920D01*
X118282412Y-72120269D01*
X118498645Y-72315178D01*
X118615534Y-72384805D01*
X118433368Y-72506525D01*
X118226525Y-72713368D01*
X118064010Y-72956589D01*
X117952068Y-73226842D01*
X117895000Y-73513740D01*
X117525000Y-73513740D01*
X117525000Y-69430000D01*
X117891928Y-69430000D01*
X117904188Y-69554482D01*
X117940498Y-69674180D01*
X117999463Y-69784494D01*
X118078815Y-69881185D01*
X118175506Y-69960537D01*
X118285820Y-70019502D01*
X118366466Y-70043966D01*
X118282412Y-70119731D01*
X118108359Y-70353080D01*
X117983175Y-70615901D01*
X117938524Y-70763110D01*
X118059845Y-70993000D01*
X119253000Y-70993000D01*
X119253000Y-68707000D01*
X119507000Y-68707000D01*
X119507000Y-70993000D01*
X120700155Y-70993000D01*
X120821476Y-70763110D01*
X120776825Y-70615901D01*
X120651641Y-70353080D01*
X120477588Y-70119731D01*
X120393534Y-70043966D01*
X120474180Y-70019502D01*
X120584494Y-69960537D01*
X120681185Y-69881185D01*
X120760537Y-69784494D01*
X120819502Y-69674180D01*
X120855812Y-69554482D01*
X120868072Y-69430000D01*
X120865000Y-68865750D01*
X120706250Y-68707000D01*
X119507000Y-68707000D01*
X119253000Y-68707000D01*
X118053750Y-68707000D01*
X117895000Y-68865750D01*
X117891928Y-69430000D01*
X117525000Y-69430000D01*
X117525000Y-67730000D01*
X117891928Y-67730000D01*
X117895000Y-68294250D01*
X118053750Y-68453000D01*
X119253000Y-68453000D01*
X119253000Y-67253750D01*
X119507000Y-67253750D01*
X119507000Y-68453000D01*
X120706250Y-68453000D01*
X120865000Y-68294250D01*
X120868072Y-67730000D01*
X171231928Y-67730000D01*
X171235000Y-68294250D01*
X171393750Y-68453000D01*
X172593000Y-68453000D01*
X172593000Y-67253750D01*
X172847000Y-67253750D01*
X172847000Y-68453000D01*
X174046250Y-68453000D01*
X174205000Y-68294250D01*
X174208072Y-67730000D01*
X174195812Y-67605518D01*
X174159502Y-67485820D01*
X174100537Y-67375506D01*
X174021185Y-67278815D01*
X173924494Y-67199463D01*
X173814180Y-67140498D01*
X173694482Y-67104188D01*
X173570000Y-67091928D01*
X173005750Y-67095000D01*
X172847000Y-67253750D01*
X172593000Y-67253750D01*
X172434250Y-67095000D01*
X171870000Y-67091928D01*
X171745518Y-67104188D01*
X171625820Y-67140498D01*
X171515506Y-67199463D01*
X171418815Y-67278815D01*
X171339463Y-67375506D01*
X171280498Y-67485820D01*
X171244188Y-67605518D01*
X171231928Y-67730000D01*
X120868072Y-67730000D01*
X120855812Y-67605518D01*
X120819502Y-67485820D01*
X120760537Y-67375506D01*
X120681185Y-67278815D01*
X120584494Y-67199463D01*
X120474180Y-67140498D01*
X120354482Y-67104188D01*
X120230000Y-67091928D01*
X119665750Y-67095000D01*
X119507000Y-67253750D01*
X119253000Y-67253750D01*
X119094250Y-67095000D01*
X118530000Y-67091928D01*
X118405518Y-67104188D01*
X118285820Y-67140498D01*
X118175506Y-67199463D01*
X118078815Y-67278815D01*
X117999463Y-67375506D01*
X117940498Y-67485820D01*
X117904188Y-67605518D01*
X117891928Y-67730000D01*
X117525000Y-67730000D01*
X117525000Y-66725000D01*
X174575001Y-66725000D01*
X174575000Y-116155000D01*
G37*
X174575000Y-116155000D02*
X117525000Y-116155000D01*
X117525000Y-111613740D01*
X117895000Y-111613740D01*
X117895000Y-111906260D01*
X117952068Y-112193158D01*
X118064010Y-112463411D01*
X118226525Y-112706632D01*
X118433368Y-112913475D01*
X118607760Y-113030000D01*
X118433368Y-113146525D01*
X118226525Y-113353368D01*
X118064010Y-113596589D01*
X117952068Y-113866842D01*
X117895000Y-114153740D01*
X117895000Y-114446260D01*
X117952068Y-114733158D01*
X118064010Y-115003411D01*
X118226525Y-115246632D01*
X118433368Y-115453475D01*
X118676589Y-115615990D01*
X118946842Y-115727932D01*
X119233740Y-115785000D01*
X119526260Y-115785000D01*
X119813158Y-115727932D01*
X120083411Y-115615990D01*
X120326632Y-115453475D01*
X120533475Y-115246632D01*
X120695990Y-115003411D01*
X120807932Y-114733158D01*
X120865000Y-114446260D01*
X120865000Y-114153740D01*
X120807932Y-113866842D01*
X120695990Y-113596589D01*
X120533475Y-113353368D01*
X120326632Y-113146525D01*
X120152240Y-113030000D01*
X120326632Y-112913475D01*
X120533475Y-112706632D01*
X120695990Y-112463411D01*
X120807932Y-112193158D01*
X120865000Y-111906260D01*
X120865000Y-111613740D01*
X120807932Y-111326842D01*
X120695990Y-111056589D01*
X120533475Y-110813368D01*
X120326632Y-110606525D01*
X120144466Y-110484805D01*
X120261355Y-110415178D01*
X120477588Y-110220269D01*
X120651641Y-109986920D01*
X120776825Y-109724099D01*
X120821476Y-109576890D01*
X120700155Y-109347000D01*
X119507000Y-109347000D01*
X119507000Y-109367000D01*
X119253000Y-109367000D01*
X119253000Y-109347000D01*
X118059845Y-109347000D01*
X117938524Y-109576890D01*
X117983175Y-109724099D01*
X118108359Y-109986920D01*
X118282412Y-110220269D01*
X118498645Y-110415178D01*
X118615534Y-110484805D01*
X118433368Y-110606525D01*
X118226525Y-110813368D01*
X118064010Y-111056589D01*
X117952068Y-111326842D01*
X117895000Y-111613740D01*
X117525000Y-111613740D01*
X117525000Y-107530000D01*
X117891928Y-107530000D01*
X117904188Y-107654482D01*
X117940498Y-107774180D01*
X117999463Y-107884494D01*
X118078815Y-107981185D01*
X118175506Y-108060537D01*
X118285820Y-108119502D01*
X118366466Y-108143966D01*
X118282412Y-108219731D01*
X118108359Y-108453080D01*
X117983175Y-108715901D01*
X117938524Y-108863110D01*
X118059845Y-109093000D01*
X119253000Y-109093000D01*
X119253000Y-106807000D01*
X119507000Y-106807000D01*
X119507000Y-109093000D01*
X120700155Y-109093000D01*
X120821476Y-108863110D01*
X120776825Y-108715901D01*
X120651641Y-108453080D01*
X120477588Y-108219731D01*
X120393534Y-108143966D01*
X120474180Y-108119502D01*
X120584494Y-108060537D01*
X120681185Y-107981185D01*
X120760537Y-107884494D01*
X120819502Y-107774180D01*
X120855812Y-107654482D01*
X120868072Y-107530000D01*
X120865000Y-106965750D01*
X120706250Y-106807000D01*
X119507000Y-106807000D01*
X119253000Y-106807000D01*
X118053750Y-106807000D01*
X117895000Y-106965750D01*
X117891928Y-107530000D01*
X117525000Y-107530000D01*
X117525000Y-105830000D01*
X117891928Y-105830000D01*
X117895000Y-106394250D01*
X118053750Y-106553000D01*
X119253000Y-106553000D01*
X119253000Y-105353750D01*
X119507000Y-105353750D01*
X119507000Y-106553000D01*
X120706250Y-106553000D01*
X120865000Y-106394250D01*
X120868072Y-105830000D01*
X120855812Y-105705518D01*
X120819502Y-105585820D01*
X120760537Y-105475506D01*
X120681185Y-105378815D01*
X120584494Y-105299463D01*
X120474180Y-105240498D01*
X120354482Y-105204188D01*
X120230000Y-105191928D01*
X119665750Y-105195000D01*
X119507000Y-105353750D01*
X119253000Y-105353750D01*
X119094250Y-105195000D01*
X118530000Y-105191928D01*
X118405518Y-105204188D01*
X118285820Y-105240498D01*
X118175506Y-105299463D01*
X118078815Y-105378815D01*
X117999463Y-105475506D01*
X117940498Y-105585820D01*
X117904188Y-105705518D01*
X117891928Y-105830000D01*
X117525000Y-105830000D01*
X117525000Y-92608061D01*
X124949000Y-92608061D01*
X124949000Y-92811939D01*
X124988774Y-93011898D01*
X125066795Y-93200256D01*
X125180063Y-93369774D01*
X125324226Y-93513937D01*
X125493744Y-93627205D01*
X125682102Y-93705226D01*
X125882061Y-93745000D01*
X126085939Y-93745000D01*
X126285898Y-93705226D01*
X126474256Y-93627205D01*
X126643774Y-93513937D01*
X126687711Y-93470000D01*
X132527199Y-93470000D01*
X142184201Y-103127003D01*
X142207999Y-103156001D01*
X142236997Y-103179799D01*
X142323724Y-103250974D01*
X142455753Y-103321546D01*
X142599014Y-103365003D01*
X142748000Y-103379677D01*
X142785333Y-103376000D01*
X148057760Y-103376000D01*
X147902047Y-103539243D01*
X147925100Y-103820971D01*
X147955667Y-103928078D01*
X140237314Y-103928078D01*
X135879130Y-99569895D01*
X135869226Y-99520102D01*
X135791205Y-99331744D01*
X135677937Y-99162226D01*
X135533774Y-99018063D01*
X135364256Y-98904795D01*
X135175898Y-98826774D01*
X134975939Y-98787000D01*
X134772061Y-98787000D01*
X134572102Y-98826774D01*
X134383744Y-98904795D01*
X134214226Y-99018063D01*
X134070063Y-99162226D01*
X133956795Y-99331744D01*
X133878774Y-99520102D01*
X133839000Y-99720061D01*
X133839000Y-99923939D01*
X133878774Y-100123898D01*
X133956795Y-100312256D01*
X134070063Y-100481774D01*
X134214226Y-100625937D01*
X134383744Y-100739205D01*
X134572102Y-100817226D01*
X134621895Y-100827130D01*
X139209584Y-105414820D01*
X139237419Y-105448737D01*
X139372787Y-105559831D01*
X139527227Y-105642381D01*
X139621836Y-105671080D01*
X139694803Y-105693214D01*
X139713151Y-105695021D01*
X139825411Y-105706078D01*
X139825417Y-105706078D01*
X139869077Y-105710378D01*
X139912737Y-105706078D01*
X149056712Y-105706078D01*
X149052414Y-105749714D01*
X149056714Y-105793374D01*
X149056714Y-105793380D01*
X149069578Y-105923987D01*
X149120411Y-106091564D01*
X149202961Y-106246004D01*
X149314055Y-106381373D01*
X149347978Y-106409213D01*
X153010506Y-110071742D01*
X153038341Y-110105659D01*
X153173709Y-110216753D01*
X153328149Y-110299303D01*
X153422758Y-110328002D01*
X153495725Y-110350136D01*
X153512325Y-110351771D01*
X153626333Y-110363000D01*
X153626340Y-110363000D01*
X153670000Y-110367300D01*
X153713660Y-110363000D01*
X171762893Y-110363000D01*
X171773368Y-110373475D01*
X171947760Y-110490000D01*
X171773368Y-110606525D01*
X171566525Y-110813368D01*
X171404010Y-111056589D01*
X171292068Y-111326842D01*
X171235000Y-111613740D01*
X171235000Y-111906260D01*
X171292068Y-112193158D01*
X171404010Y-112463411D01*
X171566525Y-112706632D01*
X171773368Y-112913475D01*
X171831000Y-112951984D01*
X171831001Y-113108016D01*
X171773368Y-113146525D01*
X171566525Y-113353368D01*
X171404010Y-113596589D01*
X171292068Y-113866842D01*
X171235000Y-114153740D01*
X171235000Y-114446260D01*
X171292068Y-114733158D01*
X171404010Y-115003411D01*
X171566525Y-115246632D01*
X171773368Y-115453475D01*
X172016589Y-115615990D01*
X172286842Y-115727932D01*
X172573740Y-115785000D01*
X172866260Y-115785000D01*
X173153158Y-115727932D01*
X173423411Y-115615990D01*
X173666632Y-115453475D01*
X173873475Y-115246632D01*
X174035990Y-115003411D01*
X174147932Y-114733158D01*
X174205000Y-114446260D01*
X174205000Y-114153740D01*
X174147932Y-113866842D01*
X174035990Y-113596589D01*
X173873475Y-113353368D01*
X173666632Y-113146525D01*
X173609000Y-113108017D01*
X173609000Y-112951983D01*
X173666632Y-112913475D01*
X173873475Y-112706632D01*
X174035990Y-112463411D01*
X174147932Y-112193158D01*
X174205000Y-111906260D01*
X174205000Y-111613740D01*
X174147932Y-111326842D01*
X174035990Y-111056589D01*
X173873475Y-110813368D01*
X173666632Y-110606525D01*
X173492240Y-110490000D01*
X173666632Y-110373475D01*
X173873475Y-110166632D01*
X174035990Y-109923411D01*
X174147932Y-109653158D01*
X174205000Y-109366260D01*
X174205000Y-109073740D01*
X174147932Y-108786842D01*
X174035990Y-108516589D01*
X173873475Y-108273368D01*
X173666632Y-108066525D01*
X173609000Y-108028017D01*
X173609000Y-107871983D01*
X173666632Y-107833475D01*
X173873475Y-107626632D01*
X174035990Y-107383411D01*
X174147932Y-107113158D01*
X174205000Y-106826260D01*
X174205000Y-106533740D01*
X174147932Y-106246842D01*
X174035990Y-105976589D01*
X173873475Y-105733368D01*
X173666632Y-105526525D01*
X173492240Y-105410000D01*
X173666632Y-105293475D01*
X173873475Y-105086632D01*
X174035990Y-104843411D01*
X174147932Y-104573158D01*
X174205000Y-104286260D01*
X174205000Y-103993740D01*
X174147932Y-103706842D01*
X174035990Y-103436589D01*
X173873475Y-103193368D01*
X173666632Y-102986525D01*
X173492240Y-102870000D01*
X173666632Y-102753475D01*
X173873475Y-102546632D01*
X174035990Y-102303411D01*
X174147932Y-102033158D01*
X174205000Y-101746260D01*
X174205000Y-101453740D01*
X174147932Y-101166842D01*
X174035990Y-100896589D01*
X173873475Y-100653368D01*
X173666632Y-100446525D01*
X173484466Y-100324805D01*
X173601355Y-100255178D01*
X173817588Y-100060269D01*
X173991641Y-99826920D01*
X174116825Y-99564099D01*
X174161476Y-99416890D01*
X174040155Y-99187000D01*
X172847000Y-99187000D01*
X172847000Y-99207000D01*
X172593000Y-99207000D01*
X172593000Y-99187000D01*
X171399845Y-99187000D01*
X171278524Y-99416890D01*
X171323175Y-99564099D01*
X171448359Y-99826920D01*
X171622412Y-100060269D01*
X171838645Y-100255178D01*
X171955534Y-100324805D01*
X171773368Y-100446525D01*
X171566525Y-100653368D01*
X171404010Y-100896589D01*
X171292068Y-101166842D01*
X171235000Y-101453740D01*
X171235000Y-101746260D01*
X171292068Y-102033158D01*
X171404010Y-102303411D01*
X171566525Y-102546632D01*
X171773368Y-102753475D01*
X171947760Y-102870000D01*
X171773368Y-102986525D01*
X171566525Y-103193368D01*
X171404010Y-103436589D01*
X171292068Y-103706842D01*
X171235000Y-103993740D01*
X171235000Y-104286260D01*
X171292068Y-104573158D01*
X171404010Y-104843411D01*
X171566525Y-105086632D01*
X171773368Y-105293475D01*
X171947760Y-105410000D01*
X171773368Y-105526525D01*
X171566525Y-105733368D01*
X171404010Y-105976589D01*
X171292068Y-106246842D01*
X171235000Y-106533740D01*
X171235000Y-106826260D01*
X171292068Y-107113158D01*
X171404010Y-107383411D01*
X171566525Y-107626632D01*
X171773368Y-107833475D01*
X171831000Y-107871984D01*
X171831001Y-108028016D01*
X171773368Y-108066525D01*
X171566525Y-108273368D01*
X171404010Y-108516589D01*
X171375673Y-108585000D01*
X154038236Y-108585000D01*
X152044235Y-106591000D01*
X152287335Y-106591000D01*
X152564574Y-106535853D01*
X152825727Y-106427680D01*
X153060759Y-106270637D01*
X153182694Y-106148702D01*
X154332903Y-106148702D01*
X154404486Y-106392671D01*
X154659996Y-106513571D01*
X154934184Y-106582300D01*
X155216512Y-106596217D01*
X155496130Y-106554787D01*
X155762292Y-106459603D01*
X155887514Y-106392671D01*
X155959097Y-106148702D01*
X155146000Y-105335605D01*
X154332903Y-106148702D01*
X153182694Y-106148702D01*
X153260637Y-106070759D01*
X153417680Y-105835727D01*
X153525853Y-105574574D01*
X153581000Y-105297335D01*
X153581000Y-105014665D01*
X153544688Y-104832113D01*
X153861739Y-104515062D01*
X153788429Y-104669996D01*
X153719700Y-104944184D01*
X153705783Y-105226512D01*
X153747213Y-105506130D01*
X153842397Y-105772292D01*
X153909329Y-105897514D01*
X154153298Y-105969097D01*
X154966395Y-105156000D01*
X155325605Y-105156000D01*
X156138702Y-105969097D01*
X156382671Y-105897514D01*
X156503571Y-105642004D01*
X156572300Y-105367816D01*
X156586217Y-105085488D01*
X156544787Y-104805870D01*
X156449603Y-104539708D01*
X156382671Y-104414486D01*
X156138702Y-104342903D01*
X155325605Y-105156000D01*
X154966395Y-105156000D01*
X154952253Y-105141858D01*
X155131858Y-104962253D01*
X155146000Y-104976395D01*
X155959097Y-104163298D01*
X155887514Y-103919329D01*
X155632004Y-103798429D01*
X155357816Y-103729700D01*
X155075488Y-103715783D01*
X154795870Y-103757213D01*
X154529708Y-103852397D01*
X154518314Y-103858487D01*
X157446042Y-100930759D01*
X158030461Y-100930759D01*
X158205953Y-101114737D01*
X159316664Y-100817122D01*
X159019050Y-99706411D01*
X158771975Y-99646420D01*
X158539518Y-99807248D01*
X158342903Y-100010337D01*
X158189686Y-100247881D01*
X158085757Y-100510752D01*
X158035108Y-100788848D01*
X158030461Y-100930759D01*
X157446042Y-100930759D01*
X157991004Y-100385798D01*
X158020001Y-100362001D01*
X158077035Y-100292505D01*
X158114974Y-100246277D01*
X158185546Y-100114247D01*
X158212161Y-100026506D01*
X158229003Y-99970986D01*
X158240000Y-99859333D01*
X158240000Y-99859324D01*
X158243676Y-99822001D01*
X158240000Y-99784678D01*
X158240000Y-98462911D01*
X158260198Y-98502249D01*
X158435886Y-98723690D01*
X158651400Y-98906601D01*
X158771975Y-98981580D01*
X159019050Y-98921589D01*
X159316664Y-97810878D01*
X158499013Y-97591788D01*
X158706403Y-97384398D01*
X159047253Y-97475728D01*
X159278458Y-97706934D01*
X159458066Y-97527326D01*
X159406467Y-97475727D01*
X159680019Y-96454821D01*
X159657480Y-96433322D01*
X159769004Y-96321798D01*
X159798001Y-96298001D01*
X159837209Y-96250226D01*
X159837209Y-96849561D01*
X159717554Y-97296121D01*
X159486348Y-97527326D01*
X159665956Y-97706934D01*
X159717555Y-97655335D01*
X159837209Y-97687396D01*
X159837209Y-97906469D01*
X159665956Y-97735216D01*
X159486348Y-97914824D01*
X159537947Y-97966423D01*
X159264395Y-98987329D01*
X159448373Y-99162821D01*
X159730101Y-99139768D01*
X159837209Y-99109201D01*
X159837209Y-99514798D01*
X159590284Y-99469826D01*
X159448373Y-99465179D01*
X159264395Y-99640671D01*
X159537947Y-100661577D01*
X159486348Y-100713176D01*
X159665956Y-100892784D01*
X159837209Y-100721531D01*
X159837209Y-100940603D01*
X159717555Y-100972665D01*
X159665956Y-100921066D01*
X159486348Y-101100674D01*
X159717553Y-101331879D01*
X159819907Y-101713869D01*
X159612517Y-101921259D01*
X159382404Y-101062468D01*
X158271693Y-101360082D01*
X158211702Y-101607157D01*
X158372530Y-101839614D01*
X158575619Y-102036229D01*
X158813163Y-102189446D01*
X159076034Y-102293375D01*
X159215078Y-102318699D01*
X159015189Y-102518587D01*
X158886966Y-102390364D01*
X158651934Y-102233321D01*
X158390781Y-102125148D01*
X158113542Y-102070001D01*
X157830872Y-102070001D01*
X157553633Y-102125148D01*
X157292480Y-102233321D01*
X157057448Y-102390364D01*
X156857570Y-102590242D01*
X156700527Y-102825274D01*
X156592354Y-103086427D01*
X156537207Y-103363666D01*
X156537207Y-103646336D01*
X156592354Y-103923575D01*
X156700527Y-104184728D01*
X156857570Y-104419760D01*
X157057448Y-104619638D01*
X157292480Y-104776681D01*
X157553633Y-104884854D01*
X157830872Y-104940001D01*
X158113542Y-104940001D01*
X158390781Y-104884854D01*
X158651934Y-104776681D01*
X158886966Y-104619638D01*
X159086844Y-104419760D01*
X159193726Y-104259799D01*
X159252563Y-104254004D01*
X159395824Y-104210547D01*
X159527853Y-104139975D01*
X159643578Y-104045002D01*
X159667381Y-104015998D01*
X161108211Y-102575169D01*
X161137209Y-102551371D01*
X161232182Y-102435646D01*
X161302754Y-102303617D01*
X161346211Y-102160356D01*
X161357208Y-102048703D01*
X161357208Y-102048694D01*
X161360884Y-102011371D01*
X161357208Y-101974048D01*
X161357208Y-86466530D01*
X161360884Y-86429207D01*
X161357208Y-86391884D01*
X161357208Y-86391875D01*
X161346211Y-86280222D01*
X161302754Y-86136961D01*
X161232182Y-86004932D01*
X161137209Y-85889207D01*
X161108212Y-85865410D01*
X160039000Y-84796199D01*
X160039000Y-84734061D01*
X159999226Y-84534102D01*
X159921205Y-84345744D01*
X159807937Y-84176226D01*
X159663774Y-84032063D01*
X159494256Y-83918795D01*
X159305898Y-83840774D01*
X159105939Y-83801000D01*
X158902061Y-83801000D01*
X158702102Y-83840774D01*
X158513744Y-83918795D01*
X158344226Y-84032063D01*
X158200063Y-84176226D01*
X158086795Y-84345744D01*
X158008774Y-84534102D01*
X157969000Y-84734061D01*
X157969000Y-84937939D01*
X158008774Y-85137898D01*
X158086795Y-85326256D01*
X158200063Y-85495774D01*
X158344226Y-85639937D01*
X158513744Y-85753205D01*
X158702102Y-85831226D01*
X158902061Y-85871000D01*
X158964199Y-85871000D01*
X159837208Y-86744010D01*
X159837208Y-90693773D01*
X159821799Y-90674997D01*
X159798001Y-90645999D01*
X159769003Y-90622201D01*
X154492464Y-85345663D01*
X154492464Y-74180532D01*
X154521643Y-74151353D01*
X154632832Y-73984947D01*
X154709420Y-73800047D01*
X154748464Y-73603758D01*
X154748464Y-73403624D01*
X154709420Y-73207335D01*
X154632832Y-73022435D01*
X154521643Y-72856029D01*
X154380126Y-72714512D01*
X154213720Y-72603323D01*
X154028820Y-72526735D01*
X153832531Y-72487691D01*
X153632397Y-72487691D01*
X153436108Y-72526735D01*
X153251208Y-72603323D01*
X153084802Y-72714512D01*
X152943285Y-72856029D01*
X152832096Y-73022435D01*
X152755508Y-73207335D01*
X152716464Y-73403624D01*
X152716464Y-73603758D01*
X152755508Y-73800047D01*
X152832096Y-73984947D01*
X152943285Y-74151353D01*
X152972465Y-74180533D01*
X152972464Y-85623142D01*
X152968788Y-85660464D01*
X152972464Y-85697786D01*
X152972464Y-85697796D01*
X152983461Y-85809449D01*
X153016451Y-85918205D01*
X153026918Y-85952710D01*
X153097490Y-86084740D01*
X153137335Y-86133290D01*
X153192463Y-86200465D01*
X153221467Y-86224268D01*
X158498001Y-91500803D01*
X158498001Y-93439968D01*
X158483211Y-93427831D01*
X152428382Y-87373003D01*
X152404579Y-87343999D01*
X152288854Y-87249026D01*
X152156825Y-87178454D01*
X152013564Y-87134997D01*
X151901911Y-87124000D01*
X151901900Y-87124000D01*
X151864578Y-87120324D01*
X151827256Y-87124000D01*
X149412802Y-87124000D01*
X149094837Y-86806036D01*
X149115744Y-86820005D01*
X149304102Y-86898026D01*
X149504061Y-86937800D01*
X149707939Y-86937800D01*
X149907898Y-86898026D01*
X150096256Y-86820005D01*
X150265774Y-86706737D01*
X150409937Y-86562574D01*
X150523205Y-86393056D01*
X150601226Y-86204698D01*
X150641000Y-86004739D01*
X150641000Y-85800861D01*
X150601226Y-85600902D01*
X150523205Y-85412544D01*
X150409937Y-85243026D01*
X150366000Y-85199089D01*
X150366000Y-75735311D01*
X150409937Y-75691374D01*
X150523205Y-75521856D01*
X150601226Y-75333498D01*
X150641000Y-75133539D01*
X150641000Y-74929661D01*
X150601226Y-74729702D01*
X150523205Y-74541344D01*
X150409937Y-74371826D01*
X150265774Y-74227663D01*
X150096256Y-74114395D01*
X149907898Y-74036374D01*
X149707939Y-73996600D01*
X149504061Y-73996600D01*
X149304102Y-74036374D01*
X149115744Y-74114395D01*
X148946226Y-74227663D01*
X148802063Y-74371826D01*
X148688795Y-74541344D01*
X148610774Y-74729702D01*
X148571000Y-74929661D01*
X148571000Y-75133539D01*
X148610774Y-75333498D01*
X148688795Y-75521856D01*
X148802063Y-75691374D01*
X148846001Y-75735312D01*
X148846000Y-85199089D01*
X148802063Y-85243026D01*
X148688795Y-85412544D01*
X148610774Y-85600902D01*
X148571000Y-85800861D01*
X148571000Y-86004739D01*
X148610774Y-86204698D01*
X148688795Y-86393056D01*
X148702765Y-86413963D01*
X147826000Y-85537199D01*
X147826000Y-71796841D01*
X147855179Y-71767662D01*
X147966368Y-71601256D01*
X148042956Y-71416356D01*
X148082000Y-71220067D01*
X148082000Y-71019933D01*
X148042956Y-70823644D01*
X147966368Y-70638744D01*
X147855179Y-70472338D01*
X147713662Y-70330821D01*
X147547256Y-70219632D01*
X147362356Y-70143044D01*
X147166067Y-70104000D01*
X146965933Y-70104000D01*
X146769644Y-70143044D01*
X146584744Y-70219632D01*
X146418338Y-70330821D01*
X146276821Y-70472338D01*
X146165632Y-70638744D01*
X146089044Y-70823644D01*
X146050000Y-71019933D01*
X146050000Y-71220067D01*
X146089044Y-71416356D01*
X146165632Y-71601256D01*
X146276821Y-71767662D01*
X146306000Y-71796841D01*
X146306001Y-85814668D01*
X146302324Y-85852000D01*
X146306001Y-85889333D01*
X146316998Y-86000986D01*
X146330180Y-86044442D01*
X146360454Y-86144246D01*
X146431026Y-86276276D01*
X146499401Y-86359591D01*
X146405939Y-86341000D01*
X146202061Y-86341000D01*
X146002102Y-86380774D01*
X145813744Y-86458795D01*
X145644226Y-86572063D01*
X145500063Y-86716226D01*
X145386795Y-86885744D01*
X145308774Y-87074102D01*
X145269000Y-87274061D01*
X145269000Y-87477939D01*
X145308774Y-87677898D01*
X145386795Y-87866256D01*
X145500063Y-88035774D01*
X145644226Y-88179937D01*
X145813744Y-88293205D01*
X146002102Y-88371226D01*
X146202061Y-88411000D01*
X146264199Y-88411000D01*
X150807292Y-92954094D01*
X150766147Y-93053426D01*
X150711000Y-93330665D01*
X150711000Y-93613335D01*
X150766147Y-93890574D01*
X150874320Y-94151727D01*
X151031363Y-94386759D01*
X151231241Y-94586637D01*
X151466273Y-94743680D01*
X151727426Y-94851853D01*
X152004665Y-94907000D01*
X152287335Y-94907000D01*
X152564574Y-94851853D01*
X152825727Y-94743680D01*
X153060759Y-94586637D01*
X153182694Y-94464702D01*
X154332903Y-94464702D01*
X154404486Y-94708671D01*
X154659996Y-94829571D01*
X154934184Y-94898300D01*
X155216512Y-94912217D01*
X155496130Y-94870787D01*
X155762292Y-94775603D01*
X155887514Y-94708671D01*
X155959097Y-94464702D01*
X155146000Y-93651605D01*
X154332903Y-94464702D01*
X153182694Y-94464702D01*
X153260637Y-94386759D01*
X153417680Y-94151727D01*
X153525853Y-93890574D01*
X153581000Y-93613335D01*
X153581000Y-93542512D01*
X153705783Y-93542512D01*
X153747213Y-93822130D01*
X153842397Y-94088292D01*
X153909329Y-94213514D01*
X154153298Y-94285097D01*
X154966395Y-93472000D01*
X154153298Y-92658903D01*
X153909329Y-92730486D01*
X153788429Y-92985996D01*
X153719700Y-93260184D01*
X153705783Y-93542512D01*
X153581000Y-93542512D01*
X153581000Y-93330665D01*
X153525853Y-93053426D01*
X153417680Y-92792273D01*
X153260637Y-92557241D01*
X153060759Y-92357363D01*
X152825727Y-92200320D01*
X152564574Y-92092147D01*
X152287335Y-92037000D01*
X152039802Y-92037000D01*
X147339000Y-87336199D01*
X147339000Y-87274061D01*
X147320561Y-87181363D01*
X148534200Y-88395002D01*
X148557999Y-88424001D01*
X148586997Y-88447799D01*
X148673723Y-88518974D01*
X148805753Y-88589546D01*
X148949014Y-88633003D01*
X149060667Y-88644000D01*
X149060677Y-88644000D01*
X149098000Y-88647676D01*
X149135323Y-88644000D01*
X151549777Y-88644000D01*
X154955359Y-92049582D01*
X154795870Y-92073213D01*
X154529708Y-92168397D01*
X154404486Y-92235329D01*
X154332903Y-92479298D01*
X155146000Y-93292395D01*
X155160143Y-93278253D01*
X155339748Y-93457858D01*
X155325605Y-93472000D01*
X156138702Y-94285097D01*
X156382671Y-94213514D01*
X156503571Y-93958004D01*
X156572300Y-93683816D01*
X156573112Y-93667336D01*
X156985793Y-94080017D01*
X156857570Y-94208240D01*
X156700527Y-94443272D01*
X156592354Y-94704425D01*
X156537207Y-94981664D01*
X156537207Y-95264334D01*
X156592354Y-95541573D01*
X156700527Y-95802726D01*
X156857570Y-96037758D01*
X157057448Y-96237636D01*
X157292480Y-96394679D01*
X157472113Y-96469085D01*
X156968998Y-96972201D01*
X156940000Y-96995999D01*
X156916202Y-97024997D01*
X156916201Y-97024998D01*
X156845026Y-97111724D01*
X156774454Y-97243754D01*
X156730998Y-97387015D01*
X156716324Y-97536000D01*
X156720001Y-97573332D01*
X156720000Y-99507198D01*
X156381048Y-99846150D01*
X156416011Y-99761743D01*
X156475000Y-99465184D01*
X156475000Y-99162816D01*
X156416011Y-98866257D01*
X156300299Y-98586905D01*
X156132312Y-98335495D01*
X155918505Y-98121688D01*
X155697028Y-97973702D01*
X155689003Y-97892222D01*
X155645546Y-97748961D01*
X155619553Y-97700332D01*
X155574974Y-97616931D01*
X155532791Y-97565532D01*
X155480001Y-97501207D01*
X155450997Y-97477404D01*
X154998596Y-97025003D01*
X154974793Y-96995999D01*
X154859068Y-96901026D01*
X154727039Y-96830454D01*
X154583778Y-96786997D01*
X154472125Y-96776000D01*
X154472114Y-96776000D01*
X154434792Y-96772324D01*
X154397470Y-96776000D01*
X151830320Y-96776000D01*
X151792997Y-96772324D01*
X151755674Y-96776000D01*
X151755665Y-96776000D01*
X151644012Y-96786997D01*
X151500751Y-96830454D01*
X151368722Y-96901026D01*
X151368720Y-96901027D01*
X151368721Y-96901027D01*
X151281994Y-96972201D01*
X151281990Y-96972205D01*
X151252997Y-96995999D01*
X151229203Y-97024992D01*
X148841003Y-99413194D01*
X148811999Y-99436997D01*
X148756871Y-99504172D01*
X148717026Y-99552722D01*
X148652728Y-99673015D01*
X148646454Y-99684752D01*
X148623575Y-99760175D01*
X148598591Y-99743482D01*
X148592796Y-99684645D01*
X148549339Y-99541384D01*
X148507434Y-99462986D01*
X148478767Y-99409354D01*
X148407592Y-99322628D01*
X148383794Y-99293630D01*
X148354796Y-99269832D01*
X148150140Y-99065176D01*
X148262367Y-99042852D01*
X148523520Y-98934679D01*
X148758552Y-98777636D01*
X148958430Y-98577758D01*
X149115473Y-98342726D01*
X149223646Y-98081573D01*
X149278793Y-97804334D01*
X149278793Y-97521664D01*
X149223646Y-97244425D01*
X149115473Y-96983272D01*
X148958430Y-96748240D01*
X148758552Y-96548362D01*
X148523520Y-96391319D01*
X148262367Y-96283146D01*
X147985128Y-96227999D01*
X147702458Y-96227999D01*
X147612662Y-96245861D01*
X147131956Y-95765155D01*
X148083288Y-95765155D01*
X148244116Y-95997612D01*
X148447205Y-96194227D01*
X148684749Y-96347444D01*
X148947620Y-96451373D01*
X149225716Y-96502022D01*
X149367627Y-96506669D01*
X149551605Y-96331177D01*
X149253990Y-95220466D01*
X148143279Y-95518080D01*
X148083288Y-95765155D01*
X147131956Y-95765155D01*
X146455558Y-95088757D01*
X147902047Y-95088757D01*
X148077539Y-95272735D01*
X148517953Y-95154726D01*
X149499336Y-95154726D01*
X149796950Y-96265437D01*
X150044025Y-96325428D01*
X150276482Y-96164600D01*
X150473097Y-95961511D01*
X150626314Y-95723967D01*
X150730243Y-95461096D01*
X150780892Y-95183000D01*
X150785539Y-95041089D01*
X150610047Y-94857111D01*
X149499336Y-95154726D01*
X148517953Y-95154726D01*
X149188250Y-94975120D01*
X148890636Y-93864409D01*
X148643561Y-93804418D01*
X148411104Y-93965246D01*
X148214489Y-94168335D01*
X148061272Y-94405879D01*
X147957343Y-94668750D01*
X147906694Y-94946846D01*
X147902047Y-95088757D01*
X146455558Y-95088757D01*
X145165470Y-93798669D01*
X149135981Y-93798669D01*
X149433596Y-94909380D01*
X150544307Y-94611766D01*
X150604298Y-94364691D01*
X150443470Y-94132234D01*
X150240381Y-93935619D01*
X150002837Y-93782402D01*
X149739966Y-93678473D01*
X149461870Y-93627824D01*
X149319959Y-93623177D01*
X149135981Y-93798669D01*
X145165470Y-93798669D01*
X144270000Y-92903199D01*
X144270000Y-72173325D01*
X144273676Y-72136000D01*
X144270000Y-72098675D01*
X144270000Y-72098667D01*
X144259003Y-71987014D01*
X144215546Y-71843753D01*
X144144974Y-71711724D01*
X144050001Y-71595999D01*
X144021003Y-71572201D01*
X141765063Y-69316261D01*
X153955800Y-69316261D01*
X153955800Y-69520139D01*
X153995574Y-69720098D01*
X154073595Y-69908456D01*
X154186863Y-70077974D01*
X154331026Y-70222137D01*
X154500544Y-70335405D01*
X154688902Y-70413426D01*
X154888861Y-70453200D01*
X154950999Y-70453200D01*
X156237400Y-71739602D01*
X156237401Y-81033488D01*
X156193463Y-81077426D01*
X156080195Y-81246944D01*
X156002174Y-81435302D01*
X155962400Y-81635261D01*
X155962400Y-81839139D01*
X156002174Y-82039098D01*
X156080195Y-82227456D01*
X156193463Y-82396974D01*
X156337626Y-82541137D01*
X156507144Y-82654405D01*
X156695502Y-82732426D01*
X156895461Y-82772200D01*
X157099339Y-82772200D01*
X157299298Y-82732426D01*
X157487656Y-82654405D01*
X157657174Y-82541137D01*
X157801337Y-82396974D01*
X157914605Y-82227456D01*
X157992626Y-82039098D01*
X158032400Y-81839139D01*
X158032400Y-81635261D01*
X157992626Y-81435302D01*
X157914605Y-81246944D01*
X157801337Y-81077426D01*
X157757400Y-81033489D01*
X157757400Y-78885701D01*
X162054000Y-83182302D01*
X162054001Y-102110697D01*
X158373699Y-105791000D01*
X158332433Y-105791000D01*
X158136144Y-105830044D01*
X157951244Y-105906632D01*
X157784838Y-106017821D01*
X157643321Y-106159338D01*
X157532132Y-106325744D01*
X157455544Y-106510644D01*
X157416500Y-106706933D01*
X157416500Y-106907067D01*
X157455544Y-107103356D01*
X157532132Y-107288256D01*
X157643321Y-107454662D01*
X157784838Y-107596179D01*
X157951244Y-107707368D01*
X158136144Y-107783956D01*
X158332433Y-107823000D01*
X158532567Y-107823000D01*
X158728856Y-107783956D01*
X158913756Y-107707368D01*
X159080162Y-107596179D01*
X159221679Y-107454662D01*
X159332868Y-107288256D01*
X159409456Y-107103356D01*
X159448500Y-106907067D01*
X159448500Y-106865801D01*
X163325003Y-102989299D01*
X163354001Y-102965501D01*
X163448974Y-102849776D01*
X163519546Y-102717747D01*
X163563003Y-102574486D01*
X163574000Y-102462833D01*
X163574000Y-102462825D01*
X163577676Y-102425500D01*
X163574000Y-102388175D01*
X163574000Y-97370000D01*
X171231928Y-97370000D01*
X171244188Y-97494482D01*
X171280498Y-97614180D01*
X171339463Y-97724494D01*
X171418815Y-97821185D01*
X171515506Y-97900537D01*
X171625820Y-97959502D01*
X171706466Y-97983966D01*
X171622412Y-98059731D01*
X171448359Y-98293080D01*
X171323175Y-98555901D01*
X171278524Y-98703110D01*
X171399845Y-98933000D01*
X172593000Y-98933000D01*
X172593000Y-96647000D01*
X172847000Y-96647000D01*
X172847000Y-98933000D01*
X174040155Y-98933000D01*
X174161476Y-98703110D01*
X174116825Y-98555901D01*
X173991641Y-98293080D01*
X173817588Y-98059731D01*
X173733534Y-97983966D01*
X173814180Y-97959502D01*
X173924494Y-97900537D01*
X174021185Y-97821185D01*
X174100537Y-97724494D01*
X174159502Y-97614180D01*
X174195812Y-97494482D01*
X174208072Y-97370000D01*
X174205000Y-96805750D01*
X174046250Y-96647000D01*
X172847000Y-96647000D01*
X172593000Y-96647000D01*
X171393750Y-96647000D01*
X171235000Y-96805750D01*
X171231928Y-97370000D01*
X163574000Y-97370000D01*
X163574000Y-95670000D01*
X171231928Y-95670000D01*
X171235000Y-96234250D01*
X171393750Y-96393000D01*
X172593000Y-96393000D01*
X172593000Y-95193750D01*
X172847000Y-95193750D01*
X172847000Y-96393000D01*
X174046250Y-96393000D01*
X174205000Y-96234250D01*
X174208072Y-95670000D01*
X174195812Y-95545518D01*
X174159502Y-95425820D01*
X174100537Y-95315506D01*
X174021185Y-95218815D01*
X173924494Y-95139463D01*
X173814180Y-95080498D01*
X173694482Y-95044188D01*
X173570000Y-95031928D01*
X173005750Y-95035000D01*
X172847000Y-95193750D01*
X172593000Y-95193750D01*
X172434250Y-95035000D01*
X171870000Y-95031928D01*
X171745518Y-95044188D01*
X171625820Y-95080498D01*
X171515506Y-95139463D01*
X171418815Y-95218815D01*
X171339463Y-95315506D01*
X171280498Y-95425820D01*
X171244188Y-95545518D01*
X171231928Y-95670000D01*
X163574000Y-95670000D01*
X163574000Y-82904833D01*
X163577677Y-82867500D01*
X163563003Y-82718514D01*
X163519546Y-82575253D01*
X163448974Y-82443224D01*
X163377799Y-82356497D01*
X163354001Y-82327499D01*
X163325004Y-82303702D01*
X162455235Y-81433933D01*
X163576000Y-81433933D01*
X163576000Y-81634067D01*
X163615044Y-81830356D01*
X163691632Y-82015256D01*
X163802821Y-82181662D01*
X163944338Y-82323179D01*
X164110744Y-82434368D01*
X164295644Y-82510956D01*
X164491933Y-82550000D01*
X164692067Y-82550000D01*
X164888356Y-82510956D01*
X165073256Y-82434368D01*
X165239662Y-82323179D01*
X165289692Y-82273149D01*
X165323974Y-82445498D01*
X165401995Y-82633856D01*
X165515263Y-82803374D01*
X165659426Y-82947537D01*
X165828944Y-83060805D01*
X166017302Y-83138826D01*
X166217261Y-83178600D01*
X166421139Y-83178600D01*
X166621098Y-83138826D01*
X166809456Y-83060805D01*
X166978974Y-82947537D01*
X167123137Y-82803374D01*
X167236405Y-82633856D01*
X167314426Y-82445498D01*
X167354200Y-82245539D01*
X167354200Y-82041661D01*
X167314426Y-81841702D01*
X167236405Y-81653344D01*
X167123137Y-81483826D01*
X167079200Y-81439889D01*
X167079200Y-75836455D01*
X167080574Y-75835537D01*
X167224737Y-75691374D01*
X167338005Y-75521856D01*
X167416026Y-75333498D01*
X167455800Y-75133539D01*
X167455800Y-74929661D01*
X167416026Y-74729702D01*
X167338005Y-74541344D01*
X167256926Y-74420000D01*
X171441822Y-74420000D01*
X171566525Y-74606632D01*
X171773368Y-74813475D01*
X171947760Y-74930000D01*
X171773368Y-75046525D01*
X171566525Y-75253368D01*
X171404010Y-75496589D01*
X171292068Y-75766842D01*
X171235000Y-76053740D01*
X171235000Y-76346260D01*
X171292068Y-76633158D01*
X171404010Y-76903411D01*
X171566525Y-77146632D01*
X171773368Y-77353475D01*
X172016589Y-77515990D01*
X172286842Y-77627932D01*
X172573740Y-77685000D01*
X172866260Y-77685000D01*
X173153158Y-77627932D01*
X173423411Y-77515990D01*
X173666632Y-77353475D01*
X173873475Y-77146632D01*
X174035990Y-76903411D01*
X174147932Y-76633158D01*
X174205000Y-76346260D01*
X174205000Y-76053740D01*
X174147932Y-75766842D01*
X174035990Y-75496589D01*
X173873475Y-75253368D01*
X173666632Y-75046525D01*
X173492240Y-74930000D01*
X173666632Y-74813475D01*
X173873475Y-74606632D01*
X174035990Y-74363411D01*
X174147932Y-74093158D01*
X174205000Y-73806260D01*
X174205000Y-73513740D01*
X174147932Y-73226842D01*
X174035990Y-72956589D01*
X173873475Y-72713368D01*
X173666632Y-72506525D01*
X173484466Y-72384805D01*
X173601355Y-72315178D01*
X173817588Y-72120269D01*
X173991641Y-71886920D01*
X174116825Y-71624099D01*
X174161476Y-71476890D01*
X174040155Y-71247000D01*
X172847000Y-71247000D01*
X172847000Y-71267000D01*
X172593000Y-71267000D01*
X172593000Y-71247000D01*
X171399845Y-71247000D01*
X171278524Y-71476890D01*
X171323175Y-71624099D01*
X171448359Y-71886920D01*
X171622412Y-72120269D01*
X171838645Y-72315178D01*
X171955534Y-72384805D01*
X171773368Y-72506525D01*
X171566525Y-72713368D01*
X171441822Y-72900000D01*
X165137322Y-72900000D01*
X165099999Y-72896324D01*
X165062676Y-72900000D01*
X165062667Y-72900000D01*
X164951014Y-72910997D01*
X164807753Y-72954454D01*
X164675724Y-73025026D01*
X164559999Y-73119999D01*
X164536200Y-73148998D01*
X164081002Y-73604197D01*
X164051999Y-73627999D01*
X164026780Y-73658729D01*
X163957026Y-73743724D01*
X163922142Y-73808987D01*
X163886454Y-73875754D01*
X163842997Y-74019015D01*
X163832000Y-74130668D01*
X163832000Y-74130678D01*
X163828324Y-74168000D01*
X163832000Y-74205322D01*
X163832001Y-80857158D01*
X163802821Y-80886338D01*
X163691632Y-81052744D01*
X163615044Y-81237644D01*
X163576000Y-81433933D01*
X162455235Y-81433933D01*
X158875000Y-77853699D01*
X158875000Y-75339791D01*
X158930727Y-75284064D01*
X159043995Y-75114546D01*
X159122016Y-74926188D01*
X159161790Y-74726229D01*
X159161790Y-74522351D01*
X159122016Y-74322392D01*
X159043995Y-74134034D01*
X158930727Y-73964516D01*
X158786564Y-73820353D01*
X158617046Y-73707085D01*
X158428688Y-73629064D01*
X158228729Y-73589290D01*
X158024851Y-73589290D01*
X157824892Y-73629064D01*
X157757400Y-73657020D01*
X157757400Y-71462123D01*
X157761076Y-71424800D01*
X157757400Y-71387477D01*
X157757400Y-71387467D01*
X157746403Y-71275814D01*
X157702946Y-71132553D01*
X157673813Y-71078049D01*
X157632374Y-71000523D01*
X157561199Y-70913797D01*
X157537401Y-70884799D01*
X157508404Y-70861002D01*
X156077402Y-69430000D01*
X171231928Y-69430000D01*
X171244188Y-69554482D01*
X171280498Y-69674180D01*
X171339463Y-69784494D01*
X171418815Y-69881185D01*
X171515506Y-69960537D01*
X171625820Y-70019502D01*
X171706466Y-70043966D01*
X171622412Y-70119731D01*
X171448359Y-70353080D01*
X171323175Y-70615901D01*
X171278524Y-70763110D01*
X171399845Y-70993000D01*
X172593000Y-70993000D01*
X172593000Y-68707000D01*
X172847000Y-68707000D01*
X172847000Y-70993000D01*
X174040155Y-70993000D01*
X174161476Y-70763110D01*
X174116825Y-70615901D01*
X173991641Y-70353080D01*
X173817588Y-70119731D01*
X173733534Y-70043966D01*
X173814180Y-70019502D01*
X173924494Y-69960537D01*
X174021185Y-69881185D01*
X174100537Y-69784494D01*
X174159502Y-69674180D01*
X174195812Y-69554482D01*
X174208072Y-69430000D01*
X174205000Y-68865750D01*
X174046250Y-68707000D01*
X172847000Y-68707000D01*
X172593000Y-68707000D01*
X171393750Y-68707000D01*
X171235000Y-68865750D01*
X171231928Y-69430000D01*
X156077402Y-69430000D01*
X156025800Y-69378399D01*
X156025800Y-69316261D01*
X155986026Y-69116302D01*
X155908005Y-68927944D01*
X155794737Y-68758426D01*
X155650574Y-68614263D01*
X155481056Y-68500995D01*
X155292698Y-68422974D01*
X155092739Y-68383200D01*
X154888861Y-68383200D01*
X154688902Y-68422974D01*
X154500544Y-68500995D01*
X154331026Y-68614263D01*
X154186863Y-68758426D01*
X154073595Y-68927944D01*
X153995574Y-69116302D01*
X153955800Y-69316261D01*
X141765063Y-69316261D01*
X141279804Y-68831003D01*
X141256001Y-68801999D01*
X141140276Y-68707026D01*
X141008247Y-68636454D01*
X140864986Y-68592997D01*
X140753333Y-68582000D01*
X140753322Y-68582000D01*
X140716000Y-68578324D01*
X140678678Y-68582000D01*
X135165322Y-68582000D01*
X135128000Y-68578324D01*
X135090677Y-68582000D01*
X135090667Y-68582000D01*
X134979014Y-68592997D01*
X134835753Y-68636454D01*
X134703723Y-68707026D01*
X134641093Y-68758426D01*
X134587999Y-68801999D01*
X134564201Y-68830997D01*
X134053199Y-69342000D01*
X134011933Y-69342000D01*
X133815644Y-69381044D01*
X133630744Y-69457632D01*
X133464338Y-69568821D01*
X133322821Y-69710338D01*
X133211632Y-69876744D01*
X133135044Y-70061644D01*
X133096000Y-70257933D01*
X133096000Y-70458067D01*
X133135044Y-70654356D01*
X133211632Y-70839256D01*
X133322821Y-71005662D01*
X133464338Y-71147179D01*
X133630744Y-71258368D01*
X133815644Y-71334956D01*
X134011933Y-71374000D01*
X134212067Y-71374000D01*
X134408356Y-71334956D01*
X134593256Y-71258368D01*
X134759662Y-71147179D01*
X134901179Y-71005662D01*
X135012368Y-70839256D01*
X135088956Y-70654356D01*
X135128000Y-70458067D01*
X135128000Y-70416801D01*
X135442802Y-70102000D01*
X140401199Y-70102000D01*
X142750001Y-72450803D01*
X142750000Y-93180678D01*
X142746324Y-93218000D01*
X142750000Y-93255322D01*
X142750000Y-93255332D01*
X142760997Y-93366985D01*
X142795469Y-93480626D01*
X142804454Y-93510246D01*
X142875026Y-93642276D01*
X142912550Y-93687999D01*
X142969999Y-93758001D01*
X142999003Y-93781804D01*
X146463556Y-97246357D01*
X146441616Y-97356653D01*
X140968000Y-91883037D01*
X140968000Y-86047711D01*
X141011937Y-86003774D01*
X141125205Y-85834256D01*
X141203226Y-85645898D01*
X141243000Y-85445939D01*
X141243000Y-85242061D01*
X141203226Y-85042102D01*
X141125205Y-84853744D01*
X141011937Y-84684226D01*
X140867774Y-84540063D01*
X140698256Y-84426795D01*
X140509898Y-84348774D01*
X140309939Y-84309000D01*
X140242990Y-84309000D01*
X140242990Y-73988301D01*
X140246666Y-73950976D01*
X140242990Y-73913651D01*
X140242990Y-73913643D01*
X140231993Y-73801990D01*
X140188536Y-73658729D01*
X140117964Y-73526700D01*
X140022991Y-73410975D01*
X139993993Y-73387177D01*
X138449000Y-71842185D01*
X138449000Y-71780047D01*
X138409226Y-71580088D01*
X138331205Y-71391730D01*
X138217937Y-71222212D01*
X138073774Y-71078049D01*
X137904256Y-70964781D01*
X137715898Y-70886760D01*
X137515939Y-70846986D01*
X137312061Y-70846986D01*
X137112102Y-70886760D01*
X136923744Y-70964781D01*
X136754226Y-71078049D01*
X136610063Y-71222212D01*
X136496795Y-71391730D01*
X136418774Y-71580088D01*
X136379000Y-71780047D01*
X136379000Y-71983925D01*
X136418774Y-72183884D01*
X136496795Y-72372242D01*
X136610063Y-72541760D01*
X136754226Y-72685923D01*
X136923744Y-72799191D01*
X137112102Y-72877212D01*
X137312061Y-72916986D01*
X137374199Y-72916986D01*
X138722991Y-74265779D01*
X138722990Y-88498877D01*
X138679053Y-88542814D01*
X138565785Y-88712332D01*
X138487764Y-88900690D01*
X138447990Y-89100649D01*
X138447990Y-89304527D01*
X138487764Y-89504486D01*
X138565785Y-89692844D01*
X138679053Y-89862362D01*
X138823216Y-90006525D01*
X138992734Y-90119793D01*
X139181092Y-90197814D01*
X139381051Y-90237588D01*
X139448000Y-90237588D01*
X139448000Y-92160515D01*
X139444324Y-92197838D01*
X139448000Y-92235160D01*
X139448000Y-92235170D01*
X139458997Y-92346823D01*
X139496058Y-92468998D01*
X139502454Y-92490084D01*
X139573026Y-92622114D01*
X139603218Y-92658903D01*
X139667999Y-92737839D01*
X139697003Y-92761642D01*
X146857379Y-99922019D01*
X146729156Y-100050242D01*
X146572113Y-100285274D01*
X146463940Y-100546427D01*
X146408793Y-100823666D01*
X146408793Y-101106336D01*
X146463940Y-101383575D01*
X146572113Y-101644728D01*
X146713280Y-101856000D01*
X143062802Y-101856000D01*
X133405804Y-92199003D01*
X133382001Y-92169999D01*
X133266276Y-92075026D01*
X133134247Y-92004454D01*
X132990986Y-91960997D01*
X132879333Y-91950000D01*
X132879322Y-91950000D01*
X132842000Y-91946324D01*
X132804678Y-91950000D01*
X132728911Y-91950000D01*
X132833137Y-91845774D01*
X132946405Y-91676256D01*
X133024426Y-91487898D01*
X133064200Y-91287939D01*
X133064200Y-91084061D01*
X133024426Y-90884102D01*
X132946405Y-90695744D01*
X132833137Y-90526226D01*
X132789200Y-90482289D01*
X132789200Y-76034122D01*
X132792876Y-75996800D01*
X132789200Y-75959477D01*
X132789200Y-75959467D01*
X132778203Y-75847814D01*
X132734746Y-75704553D01*
X132689292Y-75619516D01*
X132664174Y-75572523D01*
X132592999Y-75485797D01*
X132569201Y-75456799D01*
X132540203Y-75433001D01*
X132048200Y-74940999D01*
X132048200Y-74878861D01*
X132008426Y-74678902D01*
X131930405Y-74490544D01*
X131817137Y-74321026D01*
X131672974Y-74176863D01*
X131503456Y-74063595D01*
X131315098Y-73985574D01*
X131115139Y-73945800D01*
X130911261Y-73945800D01*
X130711302Y-73985574D01*
X130522944Y-74063595D01*
X130353426Y-74176863D01*
X130209263Y-74321026D01*
X130095995Y-74490544D01*
X130017974Y-74678902D01*
X129978200Y-74878861D01*
X129978200Y-75082739D01*
X130017974Y-75282698D01*
X130095995Y-75471056D01*
X130209263Y-75640574D01*
X130353426Y-75784737D01*
X130522944Y-75898005D01*
X130711302Y-75976026D01*
X130911261Y-76015800D01*
X130973399Y-76015800D01*
X131269201Y-76311603D01*
X131269200Y-90482289D01*
X131225263Y-90526226D01*
X131111995Y-90695744D01*
X131033974Y-90884102D01*
X130994200Y-91084061D01*
X130994200Y-91287939D01*
X131033974Y-91487898D01*
X131111995Y-91676256D01*
X131225263Y-91845774D01*
X131329489Y-91950000D01*
X126687711Y-91950000D01*
X126643774Y-91906063D01*
X126474256Y-91792795D01*
X126285898Y-91714774D01*
X126085939Y-91675000D01*
X125882061Y-91675000D01*
X125682102Y-91714774D01*
X125493744Y-91792795D01*
X125324226Y-91906063D01*
X125180063Y-92050226D01*
X125066795Y-92219744D01*
X124988774Y-92408102D01*
X124949000Y-92608061D01*
X117525000Y-92608061D01*
X117525000Y-73513740D01*
X117895000Y-73513740D01*
X117895000Y-73806260D01*
X117952068Y-74093158D01*
X118064010Y-74363411D01*
X118226525Y-74606632D01*
X118433368Y-74813475D01*
X118607760Y-74930000D01*
X118433368Y-75046525D01*
X118226525Y-75253368D01*
X118064010Y-75496589D01*
X117952068Y-75766842D01*
X117895000Y-76053740D01*
X117895000Y-76346260D01*
X117952068Y-76633158D01*
X118064010Y-76903411D01*
X118226525Y-77146632D01*
X118433368Y-77353475D01*
X118676589Y-77515990D01*
X118946842Y-77627932D01*
X119233740Y-77685000D01*
X119526260Y-77685000D01*
X119813158Y-77627932D01*
X120083411Y-77515990D01*
X120326632Y-77353475D01*
X120533475Y-77146632D01*
X120695990Y-76903411D01*
X120807932Y-76633158D01*
X120865000Y-76346260D01*
X120865000Y-76053740D01*
X120807932Y-75766842D01*
X120695990Y-75496589D01*
X120533475Y-75253368D01*
X120326632Y-75046525D01*
X120152240Y-74930000D01*
X120326632Y-74813475D01*
X120533475Y-74606632D01*
X120695990Y-74363411D01*
X120807932Y-74093158D01*
X120865000Y-73806260D01*
X120865000Y-73513740D01*
X120807932Y-73226842D01*
X120695990Y-72956589D01*
X120533475Y-72713368D01*
X120326632Y-72506525D01*
X120144466Y-72384805D01*
X120261355Y-72315178D01*
X120477588Y-72120269D01*
X120651641Y-71886920D01*
X120776825Y-71624099D01*
X120821476Y-71476890D01*
X120700155Y-71247000D01*
X119507000Y-71247000D01*
X119507000Y-71267000D01*
X119253000Y-71267000D01*
X119253000Y-71247000D01*
X118059845Y-71247000D01*
X117938524Y-71476890D01*
X117983175Y-71624099D01*
X118108359Y-71886920D01*
X118282412Y-72120269D01*
X118498645Y-72315178D01*
X118615534Y-72384805D01*
X118433368Y-72506525D01*
X118226525Y-72713368D01*
X118064010Y-72956589D01*
X117952068Y-73226842D01*
X117895000Y-73513740D01*
X117525000Y-73513740D01*
X117525000Y-69430000D01*
X117891928Y-69430000D01*
X117904188Y-69554482D01*
X117940498Y-69674180D01*
X117999463Y-69784494D01*
X118078815Y-69881185D01*
X118175506Y-69960537D01*
X118285820Y-70019502D01*
X118366466Y-70043966D01*
X118282412Y-70119731D01*
X118108359Y-70353080D01*
X117983175Y-70615901D01*
X117938524Y-70763110D01*
X118059845Y-70993000D01*
X119253000Y-70993000D01*
X119253000Y-68707000D01*
X119507000Y-68707000D01*
X119507000Y-70993000D01*
X120700155Y-70993000D01*
X120821476Y-70763110D01*
X120776825Y-70615901D01*
X120651641Y-70353080D01*
X120477588Y-70119731D01*
X120393534Y-70043966D01*
X120474180Y-70019502D01*
X120584494Y-69960537D01*
X120681185Y-69881185D01*
X120760537Y-69784494D01*
X120819502Y-69674180D01*
X120855812Y-69554482D01*
X120868072Y-69430000D01*
X120865000Y-68865750D01*
X120706250Y-68707000D01*
X119507000Y-68707000D01*
X119253000Y-68707000D01*
X118053750Y-68707000D01*
X117895000Y-68865750D01*
X117891928Y-69430000D01*
X117525000Y-69430000D01*
X117525000Y-67730000D01*
X117891928Y-67730000D01*
X117895000Y-68294250D01*
X118053750Y-68453000D01*
X119253000Y-68453000D01*
X119253000Y-67253750D01*
X119507000Y-67253750D01*
X119507000Y-68453000D01*
X120706250Y-68453000D01*
X120865000Y-68294250D01*
X120868072Y-67730000D01*
X171231928Y-67730000D01*
X171235000Y-68294250D01*
X171393750Y-68453000D01*
X172593000Y-68453000D01*
X172593000Y-67253750D01*
X172847000Y-67253750D01*
X172847000Y-68453000D01*
X174046250Y-68453000D01*
X174205000Y-68294250D01*
X174208072Y-67730000D01*
X174195812Y-67605518D01*
X174159502Y-67485820D01*
X174100537Y-67375506D01*
X174021185Y-67278815D01*
X173924494Y-67199463D01*
X173814180Y-67140498D01*
X173694482Y-67104188D01*
X173570000Y-67091928D01*
X173005750Y-67095000D01*
X172847000Y-67253750D01*
X172593000Y-67253750D01*
X172434250Y-67095000D01*
X171870000Y-67091928D01*
X171745518Y-67104188D01*
X171625820Y-67140498D01*
X171515506Y-67199463D01*
X171418815Y-67278815D01*
X171339463Y-67375506D01*
X171280498Y-67485820D01*
X171244188Y-67605518D01*
X171231928Y-67730000D01*
X120868072Y-67730000D01*
X120855812Y-67605518D01*
X120819502Y-67485820D01*
X120760537Y-67375506D01*
X120681185Y-67278815D01*
X120584494Y-67199463D01*
X120474180Y-67140498D01*
X120354482Y-67104188D01*
X120230000Y-67091928D01*
X119665750Y-67095000D01*
X119507000Y-67253750D01*
X119253000Y-67253750D01*
X119094250Y-67095000D01*
X118530000Y-67091928D01*
X118405518Y-67104188D01*
X118285820Y-67140498D01*
X118175506Y-67199463D01*
X118078815Y-67278815D01*
X117999463Y-67375506D01*
X117940498Y-67485820D01*
X117904188Y-67605518D01*
X117891928Y-67730000D01*
X117525000Y-67730000D01*
X117525000Y-66725000D01*
X174575001Y-66725000D01*
X174575000Y-116155000D01*
G36*
X150861928Y-100214000D02*
G01*
X150874188Y-100338482D01*
X150910498Y-100458180D01*
X150969463Y-100568494D01*
X151048815Y-100665185D01*
X151145506Y-100744537D01*
X151255820Y-100803502D01*
X151375518Y-100839812D01*
X151500000Y-100852072D01*
X151511001Y-100852072D01*
X151511001Y-101994555D01*
X150612746Y-102892810D01*
X150555802Y-102781903D01*
X150380114Y-102560462D01*
X150164600Y-102377551D01*
X150044025Y-102302572D01*
X149796950Y-102362563D01*
X149499336Y-103473274D01*
X149919658Y-103585899D01*
X149732940Y-103772617D01*
X149537542Y-103577218D01*
X149357934Y-103756826D01*
X149409533Y-103808425D01*
X149377472Y-103928078D01*
X149158400Y-103928078D01*
X149329652Y-103756826D01*
X149150044Y-103577218D01*
X149098445Y-103628817D01*
X148154923Y-103376000D01*
X148298678Y-103376000D01*
X148336000Y-103379676D01*
X148373322Y-103376000D01*
X148373333Y-103376000D01*
X148484986Y-103365003D01*
X148628247Y-103321546D01*
X148730032Y-103267140D01*
X148918839Y-103317731D01*
X149150044Y-103548936D01*
X149329652Y-103369328D01*
X149278053Y-103317729D01*
X149486315Y-102540486D01*
X149863003Y-102163799D01*
X149892001Y-102140001D01*
X149944526Y-102075999D01*
X149986974Y-102024277D01*
X150057546Y-101892247D01*
X150068541Y-101856000D01*
X150101003Y-101748986D01*
X150112000Y-101637333D01*
X150112000Y-101637323D01*
X150115676Y-101600000D01*
X150112000Y-101562678D01*
X150112000Y-100291799D01*
X150861928Y-99541872D01*
X150861928Y-100214000D01*
G37*
X150861928Y-100214000D02*
X150874188Y-100338482D01*
X150910498Y-100458180D01*
X150969463Y-100568494D01*
X151048815Y-100665185D01*
X151145506Y-100744537D01*
X151255820Y-100803502D01*
X151375518Y-100839812D01*
X151500000Y-100852072D01*
X151511001Y-100852072D01*
X151511001Y-101994555D01*
X150612746Y-102892810D01*
X150555802Y-102781903D01*
X150380114Y-102560462D01*
X150164600Y-102377551D01*
X150044025Y-102302572D01*
X149796950Y-102362563D01*
X149499336Y-103473274D01*
X149919658Y-103585899D01*
X149732940Y-103772617D01*
X149537542Y-103577218D01*
X149357934Y-103756826D01*
X149409533Y-103808425D01*
X149377472Y-103928078D01*
X149158400Y-103928078D01*
X149329652Y-103756826D01*
X149150044Y-103577218D01*
X149098445Y-103628817D01*
X148154923Y-103376000D01*
X148298678Y-103376000D01*
X148336000Y-103379676D01*
X148373322Y-103376000D01*
X148373333Y-103376000D01*
X148484986Y-103365003D01*
X148628247Y-103321546D01*
X148730032Y-103267140D01*
X148918839Y-103317731D01*
X149150044Y-103548936D01*
X149329652Y-103369328D01*
X149278053Y-103317729D01*
X149486315Y-102540486D01*
X149863003Y-102163799D01*
X149892001Y-102140001D01*
X149944526Y-102075999D01*
X149986974Y-102024277D01*
X150057546Y-101892247D01*
X150068541Y-101856000D01*
X150101003Y-101748986D01*
X150112000Y-101637333D01*
X150112000Y-101637323D01*
X150115676Y-101600000D01*
X150112000Y-101562678D01*
X150112000Y-100291799D01*
X150861928Y-99541872D01*
X150861928Y-100214000D01*
M02*
