G04 #@! TF.GenerationSoftware,KiCad,Pcbnew,5.1.6-c6e7f7d~87~ubuntu18.04.1*
G04 #@! TF.CreationDate,2020-08-01T07:59:39-04:00*
G04 #@! TF.ProjectId,optical_phasor_plug_in_board,6f707469-6361-46c5-9f70-6861736f725f,1.1*
G04 #@! TF.SameCoordinates,Original*
G04 #@! TF.FileFunction,Soldermask,Top*
G04 #@! TF.FilePolarity,Negative*
%FSLAX46Y46*%
G04 Gerber Fmt 4.6, Leading zero omitted, Abs format (unit mm)*
G04 Created by KiCad (PCBNEW 5.1.6-c6e7f7d~87~ubuntu18.04.1) date 2020-08-01 07:59:39*
%MOMM*%
%LPD*%
G01*
G04 APERTURE LIST*
%ADD10R,1.500000X0.550000*%
%ADD11R,0.800000X1.900000*%
%ADD12R,1.190000X2.790000*%
%ADD13C,1.600000*%
%ADD14R,1.700000X1.700000*%
%ADD15O,1.700000X1.700000*%
%ADD16C,1.800000*%
%ADD17R,1.800000X1.800000*%
%ADD18R,0.900000X1.200000*%
%ADD19R,1.200000X0.900000*%
G04 APERTURE END LIST*
D10*
X147464000Y-113472000D03*
X147464000Y-112522000D03*
X147464000Y-111572000D03*
X150364000Y-111572000D03*
X150364000Y-112522000D03*
X150364000Y-113472000D03*
D11*
X165608000Y-111300000D03*
X166558000Y-114300000D03*
X164658000Y-114300000D03*
X161102000Y-111300000D03*
X162052000Y-114300000D03*
X160152000Y-114300000D03*
X156464000Y-111300000D03*
X157414000Y-114300000D03*
X155514000Y-114300000D03*
X124018000Y-92210000D03*
X124968000Y-95210000D03*
X123068000Y-95210000D03*
D12*
X169672000Y-105793000D03*
X167132000Y-100963000D03*
X164592000Y-105793000D03*
D13*
X147843793Y-97662999D03*
X149343793Y-95064923D03*
G36*
G01*
X165585000Y-78970000D02*
X165885000Y-78970000D01*
G75*
G02*
X166035000Y-79120000I0J-150000D01*
G01*
X166035000Y-80770000D01*
G75*
G02*
X165885000Y-80920000I-150000J0D01*
G01*
X165585000Y-80920000D01*
G75*
G02*
X165435000Y-80770000I0J150000D01*
G01*
X165435000Y-79120000D01*
G75*
G02*
X165585000Y-78970000I150000J0D01*
G01*
G37*
G36*
G01*
X164315000Y-78970000D02*
X164615000Y-78970000D01*
G75*
G02*
X164765000Y-79120000I0J-150000D01*
G01*
X164765000Y-80770000D01*
G75*
G02*
X164615000Y-80920000I-150000J0D01*
G01*
X164315000Y-80920000D01*
G75*
G02*
X164165000Y-80770000I0J150000D01*
G01*
X164165000Y-79120000D01*
G75*
G02*
X164315000Y-78970000I150000J0D01*
G01*
G37*
G36*
G01*
X163045000Y-78970000D02*
X163345000Y-78970000D01*
G75*
G02*
X163495000Y-79120000I0J-150000D01*
G01*
X163495000Y-80770000D01*
G75*
G02*
X163345000Y-80920000I-150000J0D01*
G01*
X163045000Y-80920000D01*
G75*
G02*
X162895000Y-80770000I0J150000D01*
G01*
X162895000Y-79120000D01*
G75*
G02*
X163045000Y-78970000I150000J0D01*
G01*
G37*
G36*
G01*
X161775000Y-78970000D02*
X162075000Y-78970000D01*
G75*
G02*
X162225000Y-79120000I0J-150000D01*
G01*
X162225000Y-80770000D01*
G75*
G02*
X162075000Y-80920000I-150000J0D01*
G01*
X161775000Y-80920000D01*
G75*
G02*
X161625000Y-80770000I0J150000D01*
G01*
X161625000Y-79120000D01*
G75*
G02*
X161775000Y-78970000I150000J0D01*
G01*
G37*
G36*
G01*
X161775000Y-74020000D02*
X162075000Y-74020000D01*
G75*
G02*
X162225000Y-74170000I0J-150000D01*
G01*
X162225000Y-75820000D01*
G75*
G02*
X162075000Y-75970000I-150000J0D01*
G01*
X161775000Y-75970000D01*
G75*
G02*
X161625000Y-75820000I0J150000D01*
G01*
X161625000Y-74170000D01*
G75*
G02*
X161775000Y-74020000I150000J0D01*
G01*
G37*
G36*
G01*
X163045000Y-74020000D02*
X163345000Y-74020000D01*
G75*
G02*
X163495000Y-74170000I0J-150000D01*
G01*
X163495000Y-75820000D01*
G75*
G02*
X163345000Y-75970000I-150000J0D01*
G01*
X163045000Y-75970000D01*
G75*
G02*
X162895000Y-75820000I0J150000D01*
G01*
X162895000Y-74170000D01*
G75*
G02*
X163045000Y-74020000I150000J0D01*
G01*
G37*
G36*
G01*
X164315000Y-74020000D02*
X164615000Y-74020000D01*
G75*
G02*
X164765000Y-74170000I0J-150000D01*
G01*
X164765000Y-75820000D01*
G75*
G02*
X164615000Y-75970000I-150000J0D01*
G01*
X164315000Y-75970000D01*
G75*
G02*
X164165000Y-75820000I0J150000D01*
G01*
X164165000Y-74170000D01*
G75*
G02*
X164315000Y-74020000I150000J0D01*
G01*
G37*
G36*
G01*
X165585000Y-74020000D02*
X165885000Y-74020000D01*
G75*
G02*
X166035000Y-74170000I0J-150000D01*
G01*
X166035000Y-75820000D01*
G75*
G02*
X165885000Y-75970000I-150000J0D01*
G01*
X165585000Y-75970000D01*
G75*
G02*
X165435000Y-75820000I0J150000D01*
G01*
X165435000Y-74170000D01*
G75*
G02*
X165585000Y-74020000I150000J0D01*
G01*
G37*
D12*
X135890000Y-110619000D03*
X133350000Y-105789000D03*
X130810000Y-110619000D03*
X128270000Y-110619000D03*
X125730000Y-105789000D03*
X123190000Y-110619000D03*
D14*
X119380000Y-106680000D03*
D15*
X119380000Y-109220000D03*
X119380000Y-111760000D03*
X119380000Y-114300000D03*
G36*
G01*
X166165000Y-71685999D02*
X166165000Y-72586001D01*
G75*
G02*
X165915001Y-72836000I-249999J0D01*
G01*
X165264999Y-72836000D01*
G75*
G02*
X165015000Y-72586001I0J249999D01*
G01*
X165015000Y-71685999D01*
G75*
G02*
X165264999Y-71436000I249999J0D01*
G01*
X165915001Y-71436000D01*
G75*
G02*
X166165000Y-71685999I0J-249999D01*
G01*
G37*
G36*
G01*
X168215000Y-71685999D02*
X168215000Y-72586001D01*
G75*
G02*
X167965001Y-72836000I-249999J0D01*
G01*
X167314999Y-72836000D01*
G75*
G02*
X167065000Y-72586001I0J249999D01*
G01*
X167065000Y-71685999D01*
G75*
G02*
X167314999Y-71436000I249999J0D01*
G01*
X167965001Y-71436000D01*
G75*
G02*
X168215000Y-71685999I0J-249999D01*
G01*
G37*
G36*
G01*
X162871999Y-71579000D02*
X163772001Y-71579000D01*
G75*
G02*
X164022000Y-71828999I0J-249999D01*
G01*
X164022000Y-72479001D01*
G75*
G02*
X163772001Y-72729000I-249999J0D01*
G01*
X162871999Y-72729000D01*
G75*
G02*
X162622000Y-72479001I0J249999D01*
G01*
X162622000Y-71828999D01*
G75*
G02*
X162871999Y-71579000I249999J0D01*
G01*
G37*
G36*
G01*
X162871999Y-69529000D02*
X163772001Y-69529000D01*
G75*
G02*
X164022000Y-69778999I0J-249999D01*
G01*
X164022000Y-70429001D01*
G75*
G02*
X163772001Y-70679000I-249999J0D01*
G01*
X162871999Y-70679000D01*
G75*
G02*
X162622000Y-70429001I0J249999D01*
G01*
X162622000Y-69778999D01*
G75*
G02*
X162871999Y-69529000I249999J0D01*
G01*
G37*
G36*
G01*
X167845000Y-87826001D02*
X167845000Y-86925999D01*
G75*
G02*
X168094999Y-86676000I249999J0D01*
G01*
X168745001Y-86676000D01*
G75*
G02*
X168995000Y-86925999I0J-249999D01*
G01*
X168995000Y-87826001D01*
G75*
G02*
X168745001Y-88076000I-249999J0D01*
G01*
X168094999Y-88076000D01*
G75*
G02*
X167845000Y-87826001I0J249999D01*
G01*
G37*
G36*
G01*
X165795000Y-87826001D02*
X165795000Y-86925999D01*
G75*
G02*
X166044999Y-86676000I249999J0D01*
G01*
X166695001Y-86676000D01*
G75*
G02*
X166945000Y-86925999I0J-249999D01*
G01*
X166945000Y-87826001D01*
G75*
G02*
X166695001Y-88076000I-249999J0D01*
G01*
X166044999Y-88076000D01*
G75*
G02*
X165795000Y-87826001I0J249999D01*
G01*
G37*
G36*
G01*
X163255000Y-87826001D02*
X163255000Y-86925999D01*
G75*
G02*
X163504999Y-86676000I249999J0D01*
G01*
X164155001Y-86676000D01*
G75*
G02*
X164405000Y-86925999I0J-249999D01*
G01*
X164405000Y-87826001D01*
G75*
G02*
X164155001Y-88076000I-249999J0D01*
G01*
X163504999Y-88076000D01*
G75*
G02*
X163255000Y-87826001I0J249999D01*
G01*
G37*
G36*
G01*
X161205000Y-87826001D02*
X161205000Y-86925999D01*
G75*
G02*
X161454999Y-86676000I249999J0D01*
G01*
X162105001Y-86676000D01*
G75*
G02*
X162355000Y-86925999I0J-249999D01*
G01*
X162355000Y-87826001D01*
G75*
G02*
X162105001Y-88076000I-249999J0D01*
G01*
X161454999Y-88076000D01*
G75*
G02*
X161205000Y-87826001I0J249999D01*
G01*
G37*
G36*
G01*
X169868001Y-113088000D02*
X168967999Y-113088000D01*
G75*
G02*
X168718000Y-112838001I0J249999D01*
G01*
X168718000Y-112187999D01*
G75*
G02*
X168967999Y-111938000I249999J0D01*
G01*
X169868001Y-111938000D01*
G75*
G02*
X170118000Y-112187999I0J-249999D01*
G01*
X170118000Y-112838001D01*
G75*
G02*
X169868001Y-113088000I-249999J0D01*
G01*
G37*
G36*
G01*
X169868001Y-115138000D02*
X168967999Y-115138000D01*
G75*
G02*
X168718000Y-114888001I0J249999D01*
G01*
X168718000Y-114237999D01*
G75*
G02*
X168967999Y-113988000I249999J0D01*
G01*
X169868001Y-113988000D01*
G75*
G02*
X170118000Y-114237999I0J-249999D01*
G01*
X170118000Y-114888001D01*
G75*
G02*
X169868001Y-115138000I-249999J0D01*
G01*
G37*
G36*
G01*
X129099000Y-95053999D02*
X129099000Y-95954001D01*
G75*
G02*
X128849001Y-96204000I-249999J0D01*
G01*
X128198999Y-96204000D01*
G75*
G02*
X127949000Y-95954001I0J249999D01*
G01*
X127949000Y-95053999D01*
G75*
G02*
X128198999Y-94804000I249999J0D01*
G01*
X128849001Y-94804000D01*
G75*
G02*
X129099000Y-95053999I0J-249999D01*
G01*
G37*
G36*
G01*
X131149000Y-95053999D02*
X131149000Y-95954001D01*
G75*
G02*
X130899001Y-96204000I-249999J0D01*
G01*
X130248999Y-96204000D01*
G75*
G02*
X129999000Y-95954001I0J249999D01*
G01*
X129999000Y-95053999D01*
G75*
G02*
X130248999Y-94804000I249999J0D01*
G01*
X130899001Y-94804000D01*
G75*
G02*
X131149000Y-95053999I0J-249999D01*
G01*
G37*
G36*
G01*
X166945000Y-83115999D02*
X166945000Y-84016001D01*
G75*
G02*
X166695001Y-84266000I-249999J0D01*
G01*
X166044999Y-84266000D01*
G75*
G02*
X165795000Y-84016001I0J249999D01*
G01*
X165795000Y-83115999D01*
G75*
G02*
X166044999Y-82866000I249999J0D01*
G01*
X166695001Y-82866000D01*
G75*
G02*
X166945000Y-83115999I0J-249999D01*
G01*
G37*
G36*
G01*
X168995000Y-83115999D02*
X168995000Y-84016001D01*
G75*
G02*
X168745001Y-84266000I-249999J0D01*
G01*
X168094999Y-84266000D01*
G75*
G02*
X167845000Y-84016001I0J249999D01*
G01*
X167845000Y-83115999D01*
G75*
G02*
X168094999Y-82866000I249999J0D01*
G01*
X168745001Y-82866000D01*
G75*
G02*
X168995000Y-83115999I0J-249999D01*
G01*
G37*
G36*
G01*
X166183000Y-67875999D02*
X166183000Y-68776001D01*
G75*
G02*
X165933001Y-69026000I-249999J0D01*
G01*
X165282999Y-69026000D01*
G75*
G02*
X165033000Y-68776001I0J249999D01*
G01*
X165033000Y-67875999D01*
G75*
G02*
X165282999Y-67626000I249999J0D01*
G01*
X165933001Y-67626000D01*
G75*
G02*
X166183000Y-67875999I0J-249999D01*
G01*
G37*
G36*
G01*
X168233000Y-67875999D02*
X168233000Y-68776001D01*
G75*
G02*
X167983001Y-69026000I-249999J0D01*
G01*
X167332999Y-69026000D01*
G75*
G02*
X167083000Y-68776001I0J249999D01*
G01*
X167083000Y-67875999D01*
G75*
G02*
X167332999Y-67626000I249999J0D01*
G01*
X167983001Y-67626000D01*
G75*
G02*
X168233000Y-67875999I0J-249999D01*
G01*
G37*
G36*
G01*
X162355000Y-83115999D02*
X162355000Y-84016001D01*
G75*
G02*
X162105001Y-84266000I-249999J0D01*
G01*
X161454999Y-84266000D01*
G75*
G02*
X161205000Y-84016001I0J249999D01*
G01*
X161205000Y-83115999D01*
G75*
G02*
X161454999Y-82866000I249999J0D01*
G01*
X162105001Y-82866000D01*
G75*
G02*
X162355000Y-83115999I0J-249999D01*
G01*
G37*
G36*
G01*
X164405000Y-83115999D02*
X164405000Y-84016001D01*
G75*
G02*
X164155001Y-84266000I-249999J0D01*
G01*
X163504999Y-84266000D01*
G75*
G02*
X163255000Y-84016001I0J249999D01*
G01*
X163255000Y-83115999D01*
G75*
G02*
X163504999Y-82866000I249999J0D01*
G01*
X164155001Y-82866000D01*
G75*
G02*
X164405000Y-83115999I0J-249999D01*
G01*
G37*
G36*
G01*
X159579000Y-86925999D02*
X159579000Y-87826001D01*
G75*
G02*
X159329001Y-88076000I-249999J0D01*
G01*
X158678999Y-88076000D01*
G75*
G02*
X158429000Y-87826001I0J249999D01*
G01*
X158429000Y-86925999D01*
G75*
G02*
X158678999Y-86676000I249999J0D01*
G01*
X159329001Y-86676000D01*
G75*
G02*
X159579000Y-86925999I0J-249999D01*
G01*
G37*
G36*
G01*
X157529000Y-86925999D02*
X157529000Y-87826001D01*
G75*
G02*
X157279001Y-88076000I-249999J0D01*
G01*
X156628999Y-88076000D01*
G75*
G02*
X156379000Y-87826001I0J249999D01*
G01*
X156379000Y-86925999D01*
G75*
G02*
X156628999Y-86676000I249999J0D01*
G01*
X157279001Y-86676000D01*
G75*
G02*
X157529000Y-86925999I0J-249999D01*
G01*
G37*
G36*
G01*
X154499000Y-67875999D02*
X154499000Y-68776001D01*
G75*
G02*
X154249001Y-69026000I-249999J0D01*
G01*
X153598999Y-69026000D01*
G75*
G02*
X153349000Y-68776001I0J249999D01*
G01*
X153349000Y-67875999D01*
G75*
G02*
X153598999Y-67626000I249999J0D01*
G01*
X154249001Y-67626000D01*
G75*
G02*
X154499000Y-67875999I0J-249999D01*
G01*
G37*
G36*
G01*
X156549000Y-67875999D02*
X156549000Y-68776001D01*
G75*
G02*
X156299001Y-69026000I-249999J0D01*
G01*
X155648999Y-69026000D01*
G75*
G02*
X155399000Y-68776001I0J249999D01*
G01*
X155399000Y-67875999D01*
G75*
G02*
X155648999Y-67626000I249999J0D01*
G01*
X156299001Y-67626000D01*
G75*
G02*
X156549000Y-67875999I0J-249999D01*
G01*
G37*
G36*
G01*
X156388000Y-84016001D02*
X156388000Y-83115999D01*
G75*
G02*
X156637999Y-82866000I249999J0D01*
G01*
X157288001Y-82866000D01*
G75*
G02*
X157538000Y-83115999I0J-249999D01*
G01*
X157538000Y-84016001D01*
G75*
G02*
X157288001Y-84266000I-249999J0D01*
G01*
X156637999Y-84266000D01*
G75*
G02*
X156388000Y-84016001I0J249999D01*
G01*
G37*
G36*
G01*
X158438000Y-84016001D02*
X158438000Y-83115999D01*
G75*
G02*
X158687999Y-82866000I249999J0D01*
G01*
X159338001Y-82866000D01*
G75*
G02*
X159588000Y-83115999I0J-249999D01*
G01*
X159588000Y-84016001D01*
G75*
G02*
X159338001Y-84266000I-249999J0D01*
G01*
X158687999Y-84266000D01*
G75*
G02*
X158438000Y-84016001I0J249999D01*
G01*
G37*
G36*
G01*
X153349000Y-72586001D02*
X153349000Y-71685999D01*
G75*
G02*
X153598999Y-71436000I249999J0D01*
G01*
X154249001Y-71436000D01*
G75*
G02*
X154499000Y-71685999I0J-249999D01*
G01*
X154499000Y-72586001D01*
G75*
G02*
X154249001Y-72836000I-249999J0D01*
G01*
X153598999Y-72836000D01*
G75*
G02*
X153349000Y-72586001I0J249999D01*
G01*
G37*
G36*
G01*
X155399000Y-72586001D02*
X155399000Y-71685999D01*
G75*
G02*
X155648999Y-71436000I249999J0D01*
G01*
X156299001Y-71436000D01*
G75*
G02*
X156549000Y-71685999I0J-249999D01*
G01*
X156549000Y-72586001D01*
G75*
G02*
X156299001Y-72836000I-249999J0D01*
G01*
X155648999Y-72836000D01*
G75*
G02*
X155399000Y-72586001I0J249999D01*
G01*
G37*
G36*
G01*
X152966000Y-86925999D02*
X152966000Y-87826001D01*
G75*
G02*
X152716001Y-88076000I-249999J0D01*
G01*
X152065999Y-88076000D01*
G75*
G02*
X151816000Y-87826001I0J249999D01*
G01*
X151816000Y-86925999D01*
G75*
G02*
X152065999Y-86676000I249999J0D01*
G01*
X152716001Y-86676000D01*
G75*
G02*
X152966000Y-86925999I0J-249999D01*
G01*
G37*
G36*
G01*
X155016000Y-86925999D02*
X155016000Y-87826001D01*
G75*
G02*
X154766001Y-88076000I-249999J0D01*
G01*
X154115999Y-88076000D01*
G75*
G02*
X153866000Y-87826001I0J249999D01*
G01*
X153866000Y-86925999D01*
G75*
G02*
X154115999Y-86676000I249999J0D01*
G01*
X154766001Y-86676000D01*
G75*
G02*
X155016000Y-86925999I0J-249999D01*
G01*
G37*
G36*
G01*
X161248000Y-71685999D02*
X161248000Y-72586001D01*
G75*
G02*
X160998001Y-72836000I-249999J0D01*
G01*
X160347999Y-72836000D01*
G75*
G02*
X160098000Y-72586001I0J249999D01*
G01*
X160098000Y-71685999D01*
G75*
G02*
X160347999Y-71436000I249999J0D01*
G01*
X160998001Y-71436000D01*
G75*
G02*
X161248000Y-71685999I0J-249999D01*
G01*
G37*
G36*
G01*
X159198000Y-71685999D02*
X159198000Y-72586001D01*
G75*
G02*
X158948001Y-72836000I-249999J0D01*
G01*
X158297999Y-72836000D01*
G75*
G02*
X158048000Y-72586001I0J249999D01*
G01*
X158048000Y-71685999D01*
G75*
G02*
X158297999Y-71436000I249999J0D01*
G01*
X158948001Y-71436000D01*
G75*
G02*
X159198000Y-71685999I0J-249999D01*
G01*
G37*
G36*
G01*
X152966000Y-83115999D02*
X152966000Y-84016001D01*
G75*
G02*
X152716001Y-84266000I-249999J0D01*
G01*
X152065999Y-84266000D01*
G75*
G02*
X151816000Y-84016001I0J249999D01*
G01*
X151816000Y-83115999D01*
G75*
G02*
X152065999Y-82866000I249999J0D01*
G01*
X152716001Y-82866000D01*
G75*
G02*
X152966000Y-83115999I0J-249999D01*
G01*
G37*
G36*
G01*
X155016000Y-83115999D02*
X155016000Y-84016001D01*
G75*
G02*
X154766001Y-84266000I-249999J0D01*
G01*
X154115999Y-84266000D01*
G75*
G02*
X153866000Y-84016001I0J249999D01*
G01*
X153866000Y-83115999D01*
G75*
G02*
X154115999Y-82866000I249999J0D01*
G01*
X154766001Y-82866000D01*
G75*
G02*
X155016000Y-83115999I0J-249999D01*
G01*
G37*
G36*
G01*
X160098000Y-68776001D02*
X160098000Y-67875999D01*
G75*
G02*
X160347999Y-67626000I249999J0D01*
G01*
X160998001Y-67626000D01*
G75*
G02*
X161248000Y-67875999I0J-249999D01*
G01*
X161248000Y-68776001D01*
G75*
G02*
X160998001Y-69026000I-249999J0D01*
G01*
X160347999Y-69026000D01*
G75*
G02*
X160098000Y-68776001I0J249999D01*
G01*
G37*
G36*
G01*
X158048000Y-68776001D02*
X158048000Y-67875999D01*
G75*
G02*
X158297999Y-67626000I249999J0D01*
G01*
X158948001Y-67626000D01*
G75*
G02*
X159198000Y-67875999I0J-249999D01*
G01*
X159198000Y-68776001D01*
G75*
G02*
X158948001Y-69026000I-249999J0D01*
G01*
X158297999Y-69026000D01*
G75*
G02*
X158048000Y-68776001I0J249999D01*
G01*
G37*
G36*
G01*
X156695000Y-78970000D02*
X156995000Y-78970000D01*
G75*
G02*
X157145000Y-79120000I0J-150000D01*
G01*
X157145000Y-80770000D01*
G75*
G02*
X156995000Y-80920000I-150000J0D01*
G01*
X156695000Y-80920000D01*
G75*
G02*
X156545000Y-80770000I0J150000D01*
G01*
X156545000Y-79120000D01*
G75*
G02*
X156695000Y-78970000I150000J0D01*
G01*
G37*
G36*
G01*
X155425000Y-78970000D02*
X155725000Y-78970000D01*
G75*
G02*
X155875000Y-79120000I0J-150000D01*
G01*
X155875000Y-80770000D01*
G75*
G02*
X155725000Y-80920000I-150000J0D01*
G01*
X155425000Y-80920000D01*
G75*
G02*
X155275000Y-80770000I0J150000D01*
G01*
X155275000Y-79120000D01*
G75*
G02*
X155425000Y-78970000I150000J0D01*
G01*
G37*
G36*
G01*
X154155000Y-78970000D02*
X154455000Y-78970000D01*
G75*
G02*
X154605000Y-79120000I0J-150000D01*
G01*
X154605000Y-80770000D01*
G75*
G02*
X154455000Y-80920000I-150000J0D01*
G01*
X154155000Y-80920000D01*
G75*
G02*
X154005000Y-80770000I0J150000D01*
G01*
X154005000Y-79120000D01*
G75*
G02*
X154155000Y-78970000I150000J0D01*
G01*
G37*
G36*
G01*
X152885000Y-78970000D02*
X153185000Y-78970000D01*
G75*
G02*
X153335000Y-79120000I0J-150000D01*
G01*
X153335000Y-80770000D01*
G75*
G02*
X153185000Y-80920000I-150000J0D01*
G01*
X152885000Y-80920000D01*
G75*
G02*
X152735000Y-80770000I0J150000D01*
G01*
X152735000Y-79120000D01*
G75*
G02*
X152885000Y-78970000I150000J0D01*
G01*
G37*
G36*
G01*
X152885000Y-74020000D02*
X153185000Y-74020000D01*
G75*
G02*
X153335000Y-74170000I0J-150000D01*
G01*
X153335000Y-75820000D01*
G75*
G02*
X153185000Y-75970000I-150000J0D01*
G01*
X152885000Y-75970000D01*
G75*
G02*
X152735000Y-75820000I0J150000D01*
G01*
X152735000Y-74170000D01*
G75*
G02*
X152885000Y-74020000I150000J0D01*
G01*
G37*
G36*
G01*
X154155000Y-74020000D02*
X154455000Y-74020000D01*
G75*
G02*
X154605000Y-74170000I0J-150000D01*
G01*
X154605000Y-75820000D01*
G75*
G02*
X154455000Y-75970000I-150000J0D01*
G01*
X154155000Y-75970000D01*
G75*
G02*
X154005000Y-75820000I0J150000D01*
G01*
X154005000Y-74170000D01*
G75*
G02*
X154155000Y-74020000I150000J0D01*
G01*
G37*
G36*
G01*
X155425000Y-74020000D02*
X155725000Y-74020000D01*
G75*
G02*
X155875000Y-74170000I0J-150000D01*
G01*
X155875000Y-75820000D01*
G75*
G02*
X155725000Y-75970000I-150000J0D01*
G01*
X155425000Y-75970000D01*
G75*
G02*
X155275000Y-75820000I0J150000D01*
G01*
X155275000Y-74170000D01*
G75*
G02*
X155425000Y-74020000I150000J0D01*
G01*
G37*
G36*
G01*
X156695000Y-74020000D02*
X156995000Y-74020000D01*
G75*
G02*
X157145000Y-74170000I0J-150000D01*
G01*
X157145000Y-75820000D01*
G75*
G02*
X156995000Y-75970000I-150000J0D01*
G01*
X156695000Y-75970000D01*
G75*
G02*
X156545000Y-75820000I0J150000D01*
G01*
X156545000Y-74170000D01*
G75*
G02*
X156695000Y-74020000I150000J0D01*
G01*
G37*
G36*
G01*
X118796000Y-87826001D02*
X118796000Y-86925999D01*
G75*
G02*
X119045999Y-86676000I249999J0D01*
G01*
X119696001Y-86676000D01*
G75*
G02*
X119946000Y-86925999I0J-249999D01*
G01*
X119946000Y-87826001D01*
G75*
G02*
X119696001Y-88076000I-249999J0D01*
G01*
X119045999Y-88076000D01*
G75*
G02*
X118796000Y-87826001I0J249999D01*
G01*
G37*
G36*
G01*
X120846000Y-87826001D02*
X120846000Y-86925999D01*
G75*
G02*
X121095999Y-86676000I249999J0D01*
G01*
X121746001Y-86676000D01*
G75*
G02*
X121996000Y-86925999I0J-249999D01*
G01*
X121996000Y-87826001D01*
G75*
G02*
X121746001Y-88076000I-249999J0D01*
G01*
X121095999Y-88076000D01*
G75*
G02*
X120846000Y-87826001I0J249999D01*
G01*
G37*
D16*
X154940000Y-99314000D03*
D17*
X152400000Y-99314000D03*
D15*
X119380000Y-76200000D03*
X119380000Y-73660000D03*
X119380000Y-71120000D03*
D14*
X119380000Y-68580000D03*
D15*
X172720000Y-76200000D03*
X172720000Y-73660000D03*
X172720000Y-71120000D03*
D14*
X172720000Y-68580000D03*
X172720000Y-96520000D03*
D15*
X172720000Y-99060000D03*
X172720000Y-101600000D03*
X172720000Y-104140000D03*
X172720000Y-106680000D03*
X172720000Y-109220000D03*
X172720000Y-111760000D03*
X172720000Y-114300000D03*
D13*
X147843793Y-100965001D03*
X149343793Y-103563077D03*
X159472207Y-97721075D03*
X157972207Y-95122999D03*
X155146000Y-93472000D03*
X152146000Y-93472000D03*
X159472207Y-100906925D03*
X157972207Y-103505001D03*
X155146000Y-105156000D03*
X152146000Y-105156000D03*
G36*
G01*
X130025000Y-74020000D02*
X130325000Y-74020000D01*
G75*
G02*
X130475000Y-74170000I0J-150000D01*
G01*
X130475000Y-75820000D01*
G75*
G02*
X130325000Y-75970000I-150000J0D01*
G01*
X130025000Y-75970000D01*
G75*
G02*
X129875000Y-75820000I0J150000D01*
G01*
X129875000Y-74170000D01*
G75*
G02*
X130025000Y-74020000I150000J0D01*
G01*
G37*
G36*
G01*
X128755000Y-74020000D02*
X129055000Y-74020000D01*
G75*
G02*
X129205000Y-74170000I0J-150000D01*
G01*
X129205000Y-75820000D01*
G75*
G02*
X129055000Y-75970000I-150000J0D01*
G01*
X128755000Y-75970000D01*
G75*
G02*
X128605000Y-75820000I0J150000D01*
G01*
X128605000Y-74170000D01*
G75*
G02*
X128755000Y-74020000I150000J0D01*
G01*
G37*
G36*
G01*
X127485000Y-74020000D02*
X127785000Y-74020000D01*
G75*
G02*
X127935000Y-74170000I0J-150000D01*
G01*
X127935000Y-75820000D01*
G75*
G02*
X127785000Y-75970000I-150000J0D01*
G01*
X127485000Y-75970000D01*
G75*
G02*
X127335000Y-75820000I0J150000D01*
G01*
X127335000Y-74170000D01*
G75*
G02*
X127485000Y-74020000I150000J0D01*
G01*
G37*
G36*
G01*
X126215000Y-74020000D02*
X126515000Y-74020000D01*
G75*
G02*
X126665000Y-74170000I0J-150000D01*
G01*
X126665000Y-75820000D01*
G75*
G02*
X126515000Y-75970000I-150000J0D01*
G01*
X126215000Y-75970000D01*
G75*
G02*
X126065000Y-75820000I0J150000D01*
G01*
X126065000Y-74170000D01*
G75*
G02*
X126215000Y-74020000I150000J0D01*
G01*
G37*
G36*
G01*
X126215000Y-78970000D02*
X126515000Y-78970000D01*
G75*
G02*
X126665000Y-79120000I0J-150000D01*
G01*
X126665000Y-80770000D01*
G75*
G02*
X126515000Y-80920000I-150000J0D01*
G01*
X126215000Y-80920000D01*
G75*
G02*
X126065000Y-80770000I0J150000D01*
G01*
X126065000Y-79120000D01*
G75*
G02*
X126215000Y-78970000I150000J0D01*
G01*
G37*
G36*
G01*
X127485000Y-78970000D02*
X127785000Y-78970000D01*
G75*
G02*
X127935000Y-79120000I0J-150000D01*
G01*
X127935000Y-80770000D01*
G75*
G02*
X127785000Y-80920000I-150000J0D01*
G01*
X127485000Y-80920000D01*
G75*
G02*
X127335000Y-80770000I0J150000D01*
G01*
X127335000Y-79120000D01*
G75*
G02*
X127485000Y-78970000I150000J0D01*
G01*
G37*
G36*
G01*
X128755000Y-78970000D02*
X129055000Y-78970000D01*
G75*
G02*
X129205000Y-79120000I0J-150000D01*
G01*
X129205000Y-80770000D01*
G75*
G02*
X129055000Y-80920000I-150000J0D01*
G01*
X128755000Y-80920000D01*
G75*
G02*
X128605000Y-80770000I0J150000D01*
G01*
X128605000Y-79120000D01*
G75*
G02*
X128755000Y-78970000I150000J0D01*
G01*
G37*
G36*
G01*
X130025000Y-78970000D02*
X130325000Y-78970000D01*
G75*
G02*
X130475000Y-79120000I0J-150000D01*
G01*
X130475000Y-80770000D01*
G75*
G02*
X130325000Y-80920000I-150000J0D01*
G01*
X130025000Y-80920000D01*
G75*
G02*
X129875000Y-80770000I0J150000D01*
G01*
X129875000Y-79120000D01*
G75*
G02*
X130025000Y-78970000I150000J0D01*
G01*
G37*
G36*
G01*
X138915000Y-74020000D02*
X139215000Y-74020000D01*
G75*
G02*
X139365000Y-74170000I0J-150000D01*
G01*
X139365000Y-75820000D01*
G75*
G02*
X139215000Y-75970000I-150000J0D01*
G01*
X138915000Y-75970000D01*
G75*
G02*
X138765000Y-75820000I0J150000D01*
G01*
X138765000Y-74170000D01*
G75*
G02*
X138915000Y-74020000I150000J0D01*
G01*
G37*
G36*
G01*
X137645000Y-74020000D02*
X137945000Y-74020000D01*
G75*
G02*
X138095000Y-74170000I0J-150000D01*
G01*
X138095000Y-75820000D01*
G75*
G02*
X137945000Y-75970000I-150000J0D01*
G01*
X137645000Y-75970000D01*
G75*
G02*
X137495000Y-75820000I0J150000D01*
G01*
X137495000Y-74170000D01*
G75*
G02*
X137645000Y-74020000I150000J0D01*
G01*
G37*
G36*
G01*
X136375000Y-74020000D02*
X136675000Y-74020000D01*
G75*
G02*
X136825000Y-74170000I0J-150000D01*
G01*
X136825000Y-75820000D01*
G75*
G02*
X136675000Y-75970000I-150000J0D01*
G01*
X136375000Y-75970000D01*
G75*
G02*
X136225000Y-75820000I0J150000D01*
G01*
X136225000Y-74170000D01*
G75*
G02*
X136375000Y-74020000I150000J0D01*
G01*
G37*
G36*
G01*
X135105000Y-74020000D02*
X135405000Y-74020000D01*
G75*
G02*
X135555000Y-74170000I0J-150000D01*
G01*
X135555000Y-75820000D01*
G75*
G02*
X135405000Y-75970000I-150000J0D01*
G01*
X135105000Y-75970000D01*
G75*
G02*
X134955000Y-75820000I0J150000D01*
G01*
X134955000Y-74170000D01*
G75*
G02*
X135105000Y-74020000I150000J0D01*
G01*
G37*
G36*
G01*
X135105000Y-78970000D02*
X135405000Y-78970000D01*
G75*
G02*
X135555000Y-79120000I0J-150000D01*
G01*
X135555000Y-80770000D01*
G75*
G02*
X135405000Y-80920000I-150000J0D01*
G01*
X135105000Y-80920000D01*
G75*
G02*
X134955000Y-80770000I0J150000D01*
G01*
X134955000Y-79120000D01*
G75*
G02*
X135105000Y-78970000I150000J0D01*
G01*
G37*
G36*
G01*
X136375000Y-78970000D02*
X136675000Y-78970000D01*
G75*
G02*
X136825000Y-79120000I0J-150000D01*
G01*
X136825000Y-80770000D01*
G75*
G02*
X136675000Y-80920000I-150000J0D01*
G01*
X136375000Y-80920000D01*
G75*
G02*
X136225000Y-80770000I0J150000D01*
G01*
X136225000Y-79120000D01*
G75*
G02*
X136375000Y-78970000I150000J0D01*
G01*
G37*
G36*
G01*
X137645000Y-78970000D02*
X137945000Y-78970000D01*
G75*
G02*
X138095000Y-79120000I0J-150000D01*
G01*
X138095000Y-80770000D01*
G75*
G02*
X137945000Y-80920000I-150000J0D01*
G01*
X137645000Y-80920000D01*
G75*
G02*
X137495000Y-80770000I0J150000D01*
G01*
X137495000Y-79120000D01*
G75*
G02*
X137645000Y-78970000I150000J0D01*
G01*
G37*
G36*
G01*
X138915000Y-78970000D02*
X139215000Y-78970000D01*
G75*
G02*
X139365000Y-79120000I0J-150000D01*
G01*
X139365000Y-80770000D01*
G75*
G02*
X139215000Y-80920000I-150000J0D01*
G01*
X138915000Y-80920000D01*
G75*
G02*
X138765000Y-80770000I0J150000D01*
G01*
X138765000Y-79120000D01*
G75*
G02*
X138915000Y-78970000I150000J0D01*
G01*
G37*
G36*
G01*
X147805000Y-74020000D02*
X148105000Y-74020000D01*
G75*
G02*
X148255000Y-74170000I0J-150000D01*
G01*
X148255000Y-75820000D01*
G75*
G02*
X148105000Y-75970000I-150000J0D01*
G01*
X147805000Y-75970000D01*
G75*
G02*
X147655000Y-75820000I0J150000D01*
G01*
X147655000Y-74170000D01*
G75*
G02*
X147805000Y-74020000I150000J0D01*
G01*
G37*
G36*
G01*
X146535000Y-74020000D02*
X146835000Y-74020000D01*
G75*
G02*
X146985000Y-74170000I0J-150000D01*
G01*
X146985000Y-75820000D01*
G75*
G02*
X146835000Y-75970000I-150000J0D01*
G01*
X146535000Y-75970000D01*
G75*
G02*
X146385000Y-75820000I0J150000D01*
G01*
X146385000Y-74170000D01*
G75*
G02*
X146535000Y-74020000I150000J0D01*
G01*
G37*
G36*
G01*
X145265000Y-74020000D02*
X145565000Y-74020000D01*
G75*
G02*
X145715000Y-74170000I0J-150000D01*
G01*
X145715000Y-75820000D01*
G75*
G02*
X145565000Y-75970000I-150000J0D01*
G01*
X145265000Y-75970000D01*
G75*
G02*
X145115000Y-75820000I0J150000D01*
G01*
X145115000Y-74170000D01*
G75*
G02*
X145265000Y-74020000I150000J0D01*
G01*
G37*
G36*
G01*
X143995000Y-74020000D02*
X144295000Y-74020000D01*
G75*
G02*
X144445000Y-74170000I0J-150000D01*
G01*
X144445000Y-75820000D01*
G75*
G02*
X144295000Y-75970000I-150000J0D01*
G01*
X143995000Y-75970000D01*
G75*
G02*
X143845000Y-75820000I0J150000D01*
G01*
X143845000Y-74170000D01*
G75*
G02*
X143995000Y-74020000I150000J0D01*
G01*
G37*
G36*
G01*
X143995000Y-78970000D02*
X144295000Y-78970000D01*
G75*
G02*
X144445000Y-79120000I0J-150000D01*
G01*
X144445000Y-80770000D01*
G75*
G02*
X144295000Y-80920000I-150000J0D01*
G01*
X143995000Y-80920000D01*
G75*
G02*
X143845000Y-80770000I0J150000D01*
G01*
X143845000Y-79120000D01*
G75*
G02*
X143995000Y-78970000I150000J0D01*
G01*
G37*
G36*
G01*
X145265000Y-78970000D02*
X145565000Y-78970000D01*
G75*
G02*
X145715000Y-79120000I0J-150000D01*
G01*
X145715000Y-80770000D01*
G75*
G02*
X145565000Y-80920000I-150000J0D01*
G01*
X145265000Y-80920000D01*
G75*
G02*
X145115000Y-80770000I0J150000D01*
G01*
X145115000Y-79120000D01*
G75*
G02*
X145265000Y-78970000I150000J0D01*
G01*
G37*
G36*
G01*
X146535000Y-78970000D02*
X146835000Y-78970000D01*
G75*
G02*
X146985000Y-79120000I0J-150000D01*
G01*
X146985000Y-80770000D01*
G75*
G02*
X146835000Y-80920000I-150000J0D01*
G01*
X146535000Y-80920000D01*
G75*
G02*
X146385000Y-80770000I0J150000D01*
G01*
X146385000Y-79120000D01*
G75*
G02*
X146535000Y-78970000I150000J0D01*
G01*
G37*
G36*
G01*
X147805000Y-78970000D02*
X148105000Y-78970000D01*
G75*
G02*
X148255000Y-79120000I0J-150000D01*
G01*
X148255000Y-80770000D01*
G75*
G02*
X148105000Y-80920000I-150000J0D01*
G01*
X147805000Y-80920000D01*
G75*
G02*
X147655000Y-80770000I0J150000D01*
G01*
X147655000Y-79120000D01*
G75*
G02*
X147805000Y-78970000I150000J0D01*
G01*
G37*
G36*
G01*
X137136000Y-95781000D02*
X137136000Y-95481000D01*
G75*
G02*
X137286000Y-95331000I150000J0D01*
G01*
X138936000Y-95331000D01*
G75*
G02*
X139086000Y-95481000I0J-150000D01*
G01*
X139086000Y-95781000D01*
G75*
G02*
X138936000Y-95931000I-150000J0D01*
G01*
X137286000Y-95931000D01*
G75*
G02*
X137136000Y-95781000I0J150000D01*
G01*
G37*
G36*
G01*
X137136000Y-97051000D02*
X137136000Y-96751000D01*
G75*
G02*
X137286000Y-96601000I150000J0D01*
G01*
X138936000Y-96601000D01*
G75*
G02*
X139086000Y-96751000I0J-150000D01*
G01*
X139086000Y-97051000D01*
G75*
G02*
X138936000Y-97201000I-150000J0D01*
G01*
X137286000Y-97201000D01*
G75*
G02*
X137136000Y-97051000I0J150000D01*
G01*
G37*
G36*
G01*
X137136000Y-98321000D02*
X137136000Y-98021000D01*
G75*
G02*
X137286000Y-97871000I150000J0D01*
G01*
X138936000Y-97871000D01*
G75*
G02*
X139086000Y-98021000I0J-150000D01*
G01*
X139086000Y-98321000D01*
G75*
G02*
X138936000Y-98471000I-150000J0D01*
G01*
X137286000Y-98471000D01*
G75*
G02*
X137136000Y-98321000I0J150000D01*
G01*
G37*
G36*
G01*
X137136000Y-99591000D02*
X137136000Y-99291000D01*
G75*
G02*
X137286000Y-99141000I150000J0D01*
G01*
X138936000Y-99141000D01*
G75*
G02*
X139086000Y-99291000I0J-150000D01*
G01*
X139086000Y-99591000D01*
G75*
G02*
X138936000Y-99741000I-150000J0D01*
G01*
X137286000Y-99741000D01*
G75*
G02*
X137136000Y-99591000I0J150000D01*
G01*
G37*
G36*
G01*
X132186000Y-99591000D02*
X132186000Y-99291000D01*
G75*
G02*
X132336000Y-99141000I150000J0D01*
G01*
X133986000Y-99141000D01*
G75*
G02*
X134136000Y-99291000I0J-150000D01*
G01*
X134136000Y-99591000D01*
G75*
G02*
X133986000Y-99741000I-150000J0D01*
G01*
X132336000Y-99741000D01*
G75*
G02*
X132186000Y-99591000I0J150000D01*
G01*
G37*
G36*
G01*
X132186000Y-98321000D02*
X132186000Y-98021000D01*
G75*
G02*
X132336000Y-97871000I150000J0D01*
G01*
X133986000Y-97871000D01*
G75*
G02*
X134136000Y-98021000I0J-150000D01*
G01*
X134136000Y-98321000D01*
G75*
G02*
X133986000Y-98471000I-150000J0D01*
G01*
X132336000Y-98471000D01*
G75*
G02*
X132186000Y-98321000I0J150000D01*
G01*
G37*
G36*
G01*
X132186000Y-97051000D02*
X132186000Y-96751000D01*
G75*
G02*
X132336000Y-96601000I150000J0D01*
G01*
X133986000Y-96601000D01*
G75*
G02*
X134136000Y-96751000I0J-150000D01*
G01*
X134136000Y-97051000D01*
G75*
G02*
X133986000Y-97201000I-150000J0D01*
G01*
X132336000Y-97201000D01*
G75*
G02*
X132186000Y-97051000I0J150000D01*
G01*
G37*
G36*
G01*
X132186000Y-95781000D02*
X132186000Y-95481000D01*
G75*
G02*
X132336000Y-95331000I150000J0D01*
G01*
X133986000Y-95331000D01*
G75*
G02*
X134136000Y-95481000I0J-150000D01*
G01*
X134136000Y-95781000D01*
G75*
G02*
X133986000Y-95931000I-150000J0D01*
G01*
X132336000Y-95931000D01*
G75*
G02*
X132186000Y-95781000I0J150000D01*
G01*
G37*
G36*
G01*
X125017000Y-67875999D02*
X125017000Y-68776001D01*
G75*
G02*
X124767001Y-69026000I-249999J0D01*
G01*
X124116999Y-69026000D01*
G75*
G02*
X123867000Y-68776001I0J249999D01*
G01*
X123867000Y-67875999D01*
G75*
G02*
X124116999Y-67626000I249999J0D01*
G01*
X124767001Y-67626000D01*
G75*
G02*
X125017000Y-67875999I0J-249999D01*
G01*
G37*
G36*
G01*
X127067000Y-67875999D02*
X127067000Y-68776001D01*
G75*
G02*
X126817001Y-69026000I-249999J0D01*
G01*
X126166999Y-69026000D01*
G75*
G02*
X125917000Y-68776001I0J249999D01*
G01*
X125917000Y-67875999D01*
G75*
G02*
X126166999Y-67626000I249999J0D01*
G01*
X126817001Y-67626000D01*
G75*
G02*
X127067000Y-67875999I0J-249999D01*
G01*
G37*
G36*
G01*
X131648000Y-67875999D02*
X131648000Y-68776001D01*
G75*
G02*
X131398001Y-69026000I-249999J0D01*
G01*
X130747999Y-69026000D01*
G75*
G02*
X130498000Y-68776001I0J249999D01*
G01*
X130498000Y-67875999D01*
G75*
G02*
X130747999Y-67626000I249999J0D01*
G01*
X131398001Y-67626000D01*
G75*
G02*
X131648000Y-67875999I0J-249999D01*
G01*
G37*
G36*
G01*
X129598000Y-67875999D02*
X129598000Y-68776001D01*
G75*
G02*
X129348001Y-69026000I-249999J0D01*
G01*
X128697999Y-69026000D01*
G75*
G02*
X128448000Y-68776001I0J249999D01*
G01*
X128448000Y-67875999D01*
G75*
G02*
X128697999Y-67626000I249999J0D01*
G01*
X129348001Y-67626000D01*
G75*
G02*
X129598000Y-67875999I0J-249999D01*
G01*
G37*
G36*
G01*
X121987000Y-83115999D02*
X121987000Y-84016001D01*
G75*
G02*
X121737001Y-84266000I-249999J0D01*
G01*
X121086999Y-84266000D01*
G75*
G02*
X120837000Y-84016001I0J249999D01*
G01*
X120837000Y-83115999D01*
G75*
G02*
X121086999Y-82866000I249999J0D01*
G01*
X121737001Y-82866000D01*
G75*
G02*
X121987000Y-83115999I0J-249999D01*
G01*
G37*
G36*
G01*
X119937000Y-83115999D02*
X119937000Y-84016001D01*
G75*
G02*
X119687001Y-84266000I-249999J0D01*
G01*
X119036999Y-84266000D01*
G75*
G02*
X118787000Y-84016001I0J249999D01*
G01*
X118787000Y-83115999D01*
G75*
G02*
X119036999Y-82866000I249999J0D01*
G01*
X119687001Y-82866000D01*
G75*
G02*
X119937000Y-83115999I0J-249999D01*
G01*
G37*
G36*
G01*
X130253000Y-87826001D02*
X130253000Y-86925999D01*
G75*
G02*
X130502999Y-86676000I249999J0D01*
G01*
X131153001Y-86676000D01*
G75*
G02*
X131403000Y-86925999I0J-249999D01*
G01*
X131403000Y-87826001D01*
G75*
G02*
X131153001Y-88076000I-249999J0D01*
G01*
X130502999Y-88076000D01*
G75*
G02*
X130253000Y-87826001I0J249999D01*
G01*
G37*
G36*
G01*
X128203000Y-87826001D02*
X128203000Y-86925999D01*
G75*
G02*
X128452999Y-86676000I249999J0D01*
G01*
X129103001Y-86676000D01*
G75*
G02*
X129353000Y-86925999I0J-249999D01*
G01*
X129353000Y-87826001D01*
G75*
G02*
X129103001Y-88076000I-249999J0D01*
G01*
X128452999Y-88076000D01*
G75*
G02*
X128203000Y-87826001I0J249999D01*
G01*
G37*
G36*
G01*
X136211000Y-83115999D02*
X136211000Y-84016001D01*
G75*
G02*
X135961001Y-84266000I-249999J0D01*
G01*
X135310999Y-84266000D01*
G75*
G02*
X135061000Y-84016001I0J249999D01*
G01*
X135061000Y-83115999D01*
G75*
G02*
X135310999Y-82866000I249999J0D01*
G01*
X135961001Y-82866000D01*
G75*
G02*
X136211000Y-83115999I0J-249999D01*
G01*
G37*
G36*
G01*
X134161000Y-83115999D02*
X134161000Y-84016001D01*
G75*
G02*
X133911001Y-84266000I-249999J0D01*
G01*
X133260999Y-84266000D01*
G75*
G02*
X133011000Y-84016001I0J249999D01*
G01*
X133011000Y-83115999D01*
G75*
G02*
X133260999Y-82866000I249999J0D01*
G01*
X133911001Y-82866000D01*
G75*
G02*
X134161000Y-83115999I0J-249999D01*
G01*
G37*
G36*
G01*
X133265000Y-68776001D02*
X133265000Y-67875999D01*
G75*
G02*
X133514999Y-67626000I249999J0D01*
G01*
X134165001Y-67626000D01*
G75*
G02*
X134415000Y-67875999I0J-249999D01*
G01*
X134415000Y-68776001D01*
G75*
G02*
X134165001Y-69026000I-249999J0D01*
G01*
X133514999Y-69026000D01*
G75*
G02*
X133265000Y-68776001I0J249999D01*
G01*
G37*
G36*
G01*
X135315000Y-68776001D02*
X135315000Y-67875999D01*
G75*
G02*
X135564999Y-67626000I249999J0D01*
G01*
X136215001Y-67626000D01*
G75*
G02*
X136465000Y-67875999I0J-249999D01*
G01*
X136465000Y-68776001D01*
G75*
G02*
X136215001Y-69026000I-249999J0D01*
G01*
X135564999Y-69026000D01*
G75*
G02*
X135315000Y-68776001I0J249999D01*
G01*
G37*
G36*
G01*
X146371000Y-67875999D02*
X146371000Y-68776001D01*
G75*
G02*
X146121001Y-69026000I-249999J0D01*
G01*
X145470999Y-69026000D01*
G75*
G02*
X145221000Y-68776001I0J249999D01*
G01*
X145221000Y-67875999D01*
G75*
G02*
X145470999Y-67626000I249999J0D01*
G01*
X146121001Y-67626000D01*
G75*
G02*
X146371000Y-67875999I0J-249999D01*
G01*
G37*
G36*
G01*
X144321000Y-67875999D02*
X144321000Y-68776001D01*
G75*
G02*
X144071001Y-69026000I-249999J0D01*
G01*
X143420999Y-69026000D01*
G75*
G02*
X143171000Y-68776001I0J249999D01*
G01*
X143171000Y-67875999D01*
G75*
G02*
X143420999Y-67626000I249999J0D01*
G01*
X144071001Y-67626000D01*
G75*
G02*
X144321000Y-67875999I0J-249999D01*
G01*
G37*
G36*
G01*
X125681000Y-87826001D02*
X125681000Y-86925999D01*
G75*
G02*
X125930999Y-86676000I249999J0D01*
G01*
X126581001Y-86676000D01*
G75*
G02*
X126831000Y-86925999I0J-249999D01*
G01*
X126831000Y-87826001D01*
G75*
G02*
X126581001Y-88076000I-249999J0D01*
G01*
X125930999Y-88076000D01*
G75*
G02*
X125681000Y-87826001I0J249999D01*
G01*
G37*
G36*
G01*
X123631000Y-87826001D02*
X123631000Y-86925999D01*
G75*
G02*
X123880999Y-86676000I249999J0D01*
G01*
X124531001Y-86676000D01*
G75*
G02*
X124781000Y-86925999I0J-249999D01*
G01*
X124781000Y-87826001D01*
G75*
G02*
X124531001Y-88076000I-249999J0D01*
G01*
X123880999Y-88076000D01*
G75*
G02*
X123631000Y-87826001I0J249999D01*
G01*
G37*
G36*
G01*
X145736000Y-86925999D02*
X145736000Y-87826001D01*
G75*
G02*
X145486001Y-88076000I-249999J0D01*
G01*
X144835999Y-88076000D01*
G75*
G02*
X144586000Y-87826001I0J249999D01*
G01*
X144586000Y-86925999D01*
G75*
G02*
X144835999Y-86676000I249999J0D01*
G01*
X145486001Y-86676000D01*
G75*
G02*
X145736000Y-86925999I0J-249999D01*
G01*
G37*
G36*
G01*
X143686000Y-86925999D02*
X143686000Y-87826001D01*
G75*
G02*
X143436001Y-88076000I-249999J0D01*
G01*
X142785999Y-88076000D01*
G75*
G02*
X142536000Y-87826001I0J249999D01*
G01*
X142536000Y-86925999D01*
G75*
G02*
X142785999Y-86676000I249999J0D01*
G01*
X143436001Y-86676000D01*
G75*
G02*
X143686000Y-86925999I0J-249999D01*
G01*
G37*
G36*
G01*
X123867000Y-72586001D02*
X123867000Y-71685999D01*
G75*
G02*
X124116999Y-71436000I249999J0D01*
G01*
X124767001Y-71436000D01*
G75*
G02*
X125017000Y-71685999I0J-249999D01*
G01*
X125017000Y-72586001D01*
G75*
G02*
X124767001Y-72836000I-249999J0D01*
G01*
X124116999Y-72836000D01*
G75*
G02*
X123867000Y-72586001I0J249999D01*
G01*
G37*
G36*
G01*
X125917000Y-72586001D02*
X125917000Y-71685999D01*
G75*
G02*
X126166999Y-71436000I249999J0D01*
G01*
X126817001Y-71436000D01*
G75*
G02*
X127067000Y-71685999I0J-249999D01*
G01*
X127067000Y-72586001D01*
G75*
G02*
X126817001Y-72836000I-249999J0D01*
G01*
X126166999Y-72836000D01*
G75*
G02*
X125917000Y-72586001I0J249999D01*
G01*
G37*
G36*
G01*
X129607000Y-71685999D02*
X129607000Y-72586001D01*
G75*
G02*
X129357001Y-72836000I-249999J0D01*
G01*
X128706999Y-72836000D01*
G75*
G02*
X128457000Y-72586001I0J249999D01*
G01*
X128457000Y-71685999D01*
G75*
G02*
X128706999Y-71436000I249999J0D01*
G01*
X129357001Y-71436000D01*
G75*
G02*
X129607000Y-71685999I0J-249999D01*
G01*
G37*
G36*
G01*
X131657000Y-71685999D02*
X131657000Y-72586001D01*
G75*
G02*
X131407001Y-72836000I-249999J0D01*
G01*
X130756999Y-72836000D01*
G75*
G02*
X130507000Y-72586001I0J249999D01*
G01*
X130507000Y-71685999D01*
G75*
G02*
X130756999Y-71436000I249999J0D01*
G01*
X131407001Y-71436000D01*
G75*
G02*
X131657000Y-71685999I0J-249999D01*
G01*
G37*
G36*
G01*
X128163000Y-91636001D02*
X128163000Y-90735999D01*
G75*
G02*
X128412999Y-90486000I249999J0D01*
G01*
X129063001Y-90486000D01*
G75*
G02*
X129313000Y-90735999I0J-249999D01*
G01*
X129313000Y-91636001D01*
G75*
G02*
X129063001Y-91886000I-249999J0D01*
G01*
X128412999Y-91886000D01*
G75*
G02*
X128163000Y-91636001I0J249999D01*
G01*
G37*
G36*
G01*
X130213000Y-91636001D02*
X130213000Y-90735999D01*
G75*
G02*
X130462999Y-90486000I249999J0D01*
G01*
X131113001Y-90486000D01*
G75*
G02*
X131363000Y-90735999I0J-249999D01*
G01*
X131363000Y-91636001D01*
G75*
G02*
X131113001Y-91886000I-249999J0D01*
G01*
X130462999Y-91886000D01*
G75*
G02*
X130213000Y-91636001I0J249999D01*
G01*
G37*
G36*
G01*
X126831000Y-83115999D02*
X126831000Y-84016001D01*
G75*
G02*
X126581001Y-84266000I-249999J0D01*
G01*
X125930999Y-84266000D01*
G75*
G02*
X125681000Y-84016001I0J249999D01*
G01*
X125681000Y-83115999D01*
G75*
G02*
X125930999Y-82866000I249999J0D01*
G01*
X126581001Y-82866000D01*
G75*
G02*
X126831000Y-83115999I0J-249999D01*
G01*
G37*
G36*
G01*
X124781000Y-83115999D02*
X124781000Y-84016001D01*
G75*
G02*
X124531001Y-84266000I-249999J0D01*
G01*
X123880999Y-84266000D01*
G75*
G02*
X123631000Y-84016001I0J249999D01*
G01*
X123631000Y-83115999D01*
G75*
G02*
X123880999Y-82866000I249999J0D01*
G01*
X124531001Y-82866000D01*
G75*
G02*
X124781000Y-83115999I0J-249999D01*
G01*
G37*
G36*
G01*
X129313000Y-83115999D02*
X129313000Y-84016001D01*
G75*
G02*
X129063001Y-84266000I-249999J0D01*
G01*
X128412999Y-84266000D01*
G75*
G02*
X128163000Y-84016001I0J249999D01*
G01*
X128163000Y-83115999D01*
G75*
G02*
X128412999Y-82866000I249999J0D01*
G01*
X129063001Y-82866000D01*
G75*
G02*
X129313000Y-83115999I0J-249999D01*
G01*
G37*
G36*
G01*
X131363000Y-83115999D02*
X131363000Y-84016001D01*
G75*
G02*
X131113001Y-84266000I-249999J0D01*
G01*
X130462999Y-84266000D01*
G75*
G02*
X130213000Y-84016001I0J249999D01*
G01*
X130213000Y-83115999D01*
G75*
G02*
X130462999Y-82866000I249999J0D01*
G01*
X131113001Y-82866000D01*
G75*
G02*
X131363000Y-83115999I0J-249999D01*
G01*
G37*
G36*
G01*
X136220000Y-86925999D02*
X136220000Y-87826001D01*
G75*
G02*
X135970001Y-88076000I-249999J0D01*
G01*
X135319999Y-88076000D01*
G75*
G02*
X135070000Y-87826001I0J249999D01*
G01*
X135070000Y-86925999D01*
G75*
G02*
X135319999Y-86676000I249999J0D01*
G01*
X135970001Y-86676000D01*
G75*
G02*
X136220000Y-86925999I0J-249999D01*
G01*
G37*
G36*
G01*
X134170000Y-86925999D02*
X134170000Y-87826001D01*
G75*
G02*
X133920001Y-88076000I-249999J0D01*
G01*
X133269999Y-88076000D01*
G75*
G02*
X133020000Y-87826001I0J249999D01*
G01*
X133020000Y-86925999D01*
G75*
G02*
X133269999Y-86676000I249999J0D01*
G01*
X133920001Y-86676000D01*
G75*
G02*
X134170000Y-86925999I0J-249999D01*
G01*
G37*
G36*
G01*
X137592000Y-84016001D02*
X137592000Y-83115999D01*
G75*
G02*
X137841999Y-82866000I249999J0D01*
G01*
X138492001Y-82866000D01*
G75*
G02*
X138742000Y-83115999I0J-249999D01*
G01*
X138742000Y-84016001D01*
G75*
G02*
X138492001Y-84266000I-249999J0D01*
G01*
X137841999Y-84266000D01*
G75*
G02*
X137592000Y-84016001I0J249999D01*
G01*
G37*
G36*
G01*
X139642000Y-84016001D02*
X139642000Y-83115999D01*
G75*
G02*
X139891999Y-82866000I249999J0D01*
G01*
X140542001Y-82866000D01*
G75*
G02*
X140792000Y-83115999I0J-249999D01*
G01*
X140792000Y-84016001D01*
G75*
G02*
X140542001Y-84266000I-249999J0D01*
G01*
X139891999Y-84266000D01*
G75*
G02*
X139642000Y-84016001I0J249999D01*
G01*
G37*
G36*
G01*
X138742000Y-86925999D02*
X138742000Y-87826001D01*
G75*
G02*
X138492001Y-88076000I-249999J0D01*
G01*
X137841999Y-88076000D01*
G75*
G02*
X137592000Y-87826001I0J249999D01*
G01*
X137592000Y-86925999D01*
G75*
G02*
X137841999Y-86676000I249999J0D01*
G01*
X138492001Y-86676000D01*
G75*
G02*
X138742000Y-86925999I0J-249999D01*
G01*
G37*
G36*
G01*
X140792000Y-86925999D02*
X140792000Y-87826001D01*
G75*
G02*
X140542001Y-88076000I-249999J0D01*
G01*
X139891999Y-88076000D01*
G75*
G02*
X139642000Y-87826001I0J249999D01*
G01*
X139642000Y-86925999D01*
G75*
G02*
X139891999Y-86676000I249999J0D01*
G01*
X140542001Y-86676000D01*
G75*
G02*
X140792000Y-86925999I0J-249999D01*
G01*
G37*
G36*
G01*
X129099000Y-98355999D02*
X129099000Y-99256001D01*
G75*
G02*
X128849001Y-99506000I-249999J0D01*
G01*
X128198999Y-99506000D01*
G75*
G02*
X127949000Y-99256001I0J249999D01*
G01*
X127949000Y-98355999D01*
G75*
G02*
X128198999Y-98106000I249999J0D01*
G01*
X128849001Y-98106000D01*
G75*
G02*
X129099000Y-98355999I0J-249999D01*
G01*
G37*
G36*
G01*
X131149000Y-98355999D02*
X131149000Y-99256001D01*
G75*
G02*
X130899001Y-99506000I-249999J0D01*
G01*
X130248999Y-99506000D01*
G75*
G02*
X129999000Y-99256001I0J249999D01*
G01*
X129999000Y-98355999D01*
G75*
G02*
X130248999Y-98106000I249999J0D01*
G01*
X130899001Y-98106000D01*
G75*
G02*
X131149000Y-98355999I0J-249999D01*
G01*
G37*
G36*
G01*
X131149000Y-101657999D02*
X131149000Y-102558001D01*
G75*
G02*
X130899001Y-102808000I-249999J0D01*
G01*
X130248999Y-102808000D01*
G75*
G02*
X129999000Y-102558001I0J249999D01*
G01*
X129999000Y-101657999D01*
G75*
G02*
X130248999Y-101408000I249999J0D01*
G01*
X130899001Y-101408000D01*
G75*
G02*
X131149000Y-101657999I0J-249999D01*
G01*
G37*
G36*
G01*
X129099000Y-101657999D02*
X129099000Y-102558001D01*
G75*
G02*
X128849001Y-102808000I-249999J0D01*
G01*
X128198999Y-102808000D01*
G75*
G02*
X127949000Y-102558001I0J249999D01*
G01*
X127949000Y-101657999D01*
G75*
G02*
X128198999Y-101408000I249999J0D01*
G01*
X128849001Y-101408000D01*
G75*
G02*
X129099000Y-101657999I0J-249999D01*
G01*
G37*
G36*
G01*
X124665000Y-101542001D02*
X124665000Y-100641999D01*
G75*
G02*
X124914999Y-100392000I249999J0D01*
G01*
X125565001Y-100392000D01*
G75*
G02*
X125815000Y-100641999I0J-249999D01*
G01*
X125815000Y-101542001D01*
G75*
G02*
X125565001Y-101792000I-249999J0D01*
G01*
X124914999Y-101792000D01*
G75*
G02*
X124665000Y-101542001I0J249999D01*
G01*
G37*
G36*
G01*
X122615000Y-101542001D02*
X122615000Y-100641999D01*
G75*
G02*
X122864999Y-100392000I249999J0D01*
G01*
X123515001Y-100392000D01*
G75*
G02*
X123765000Y-100641999I0J-249999D01*
G01*
X123765000Y-101542001D01*
G75*
G02*
X123515001Y-101792000I-249999J0D01*
G01*
X122864999Y-101792000D01*
G75*
G02*
X122615000Y-101542001I0J249999D01*
G01*
G37*
G36*
G01*
X119576001Y-95571000D02*
X118675999Y-95571000D01*
G75*
G02*
X118426000Y-95321001I0J249999D01*
G01*
X118426000Y-94670999D01*
G75*
G02*
X118675999Y-94421000I249999J0D01*
G01*
X119576001Y-94421000D01*
G75*
G02*
X119826000Y-94670999I0J-249999D01*
G01*
X119826000Y-95321001D01*
G75*
G02*
X119576001Y-95571000I-249999J0D01*
G01*
G37*
G36*
G01*
X119576001Y-93521000D02*
X118675999Y-93521000D01*
G75*
G02*
X118426000Y-93271001I0J249999D01*
G01*
X118426000Y-92620999D01*
G75*
G02*
X118675999Y-92371000I249999J0D01*
G01*
X119576001Y-92371000D01*
G75*
G02*
X119826000Y-92620999I0J-249999D01*
G01*
X119826000Y-93271001D01*
G75*
G02*
X119576001Y-93521000I-249999J0D01*
G01*
G37*
G36*
G01*
X140150000Y-68776001D02*
X140150000Y-67875999D01*
G75*
G02*
X140399999Y-67626000I249999J0D01*
G01*
X141050001Y-67626000D01*
G75*
G02*
X141300000Y-67875999I0J-249999D01*
G01*
X141300000Y-68776001D01*
G75*
G02*
X141050001Y-69026000I-249999J0D01*
G01*
X140399999Y-69026000D01*
G75*
G02*
X140150000Y-68776001I0J249999D01*
G01*
G37*
G36*
G01*
X138100000Y-68776001D02*
X138100000Y-67875999D01*
G75*
G02*
X138349999Y-67626000I249999J0D01*
G01*
X139000001Y-67626000D01*
G75*
G02*
X139250000Y-67875999I0J-249999D01*
G01*
X139250000Y-68776001D01*
G75*
G02*
X139000001Y-69026000I-249999J0D01*
G01*
X138349999Y-69026000D01*
G75*
G02*
X138100000Y-68776001I0J249999D01*
G01*
G37*
G36*
G01*
X135315000Y-72586001D02*
X135315000Y-71685999D01*
G75*
G02*
X135564999Y-71436000I249999J0D01*
G01*
X136215001Y-71436000D01*
G75*
G02*
X136465000Y-71685999I0J-249999D01*
G01*
X136465000Y-72586001D01*
G75*
G02*
X136215001Y-72836000I-249999J0D01*
G01*
X135564999Y-72836000D01*
G75*
G02*
X135315000Y-72586001I0J249999D01*
G01*
G37*
G36*
G01*
X133265000Y-72586001D02*
X133265000Y-71685999D01*
G75*
G02*
X133514999Y-71436000I249999J0D01*
G01*
X134165001Y-71436000D01*
G75*
G02*
X134415000Y-71685999I0J-249999D01*
G01*
X134415000Y-72586001D01*
G75*
G02*
X134165001Y-72836000I-249999J0D01*
G01*
X133514999Y-72836000D01*
G75*
G02*
X133265000Y-72586001I0J249999D01*
G01*
G37*
G36*
G01*
X141300000Y-71685999D02*
X141300000Y-72586001D01*
G75*
G02*
X141050001Y-72836000I-249999J0D01*
G01*
X140399999Y-72836000D01*
G75*
G02*
X140150000Y-72586001I0J249999D01*
G01*
X140150000Y-71685999D01*
G75*
G02*
X140399999Y-71436000I249999J0D01*
G01*
X141050001Y-71436000D01*
G75*
G02*
X141300000Y-71685999I0J-249999D01*
G01*
G37*
G36*
G01*
X139250000Y-71685999D02*
X139250000Y-72586001D01*
G75*
G02*
X139000001Y-72836000I-249999J0D01*
G01*
X138349999Y-72836000D01*
G75*
G02*
X138100000Y-72586001I0J249999D01*
G01*
X138100000Y-71685999D01*
G75*
G02*
X138349999Y-71436000I249999J0D01*
G01*
X139000001Y-71436000D01*
G75*
G02*
X139250000Y-71685999I0J-249999D01*
G01*
G37*
G36*
G01*
X149811000Y-68776001D02*
X149811000Y-67875999D01*
G75*
G02*
X150060999Y-67626000I249999J0D01*
G01*
X150711001Y-67626000D01*
G75*
G02*
X150961000Y-67875999I0J-249999D01*
G01*
X150961000Y-68776001D01*
G75*
G02*
X150711001Y-69026000I-249999J0D01*
G01*
X150060999Y-69026000D01*
G75*
G02*
X149811000Y-68776001I0J249999D01*
G01*
G37*
G36*
G01*
X147761000Y-68776001D02*
X147761000Y-67875999D01*
G75*
G02*
X148010999Y-67626000I249999J0D01*
G01*
X148661001Y-67626000D01*
G75*
G02*
X148911000Y-67875999I0J-249999D01*
G01*
X148911000Y-68776001D01*
G75*
G02*
X148661001Y-69026000I-249999J0D01*
G01*
X148010999Y-69026000D01*
G75*
G02*
X147761000Y-68776001I0J249999D01*
G01*
G37*
G36*
G01*
X145230000Y-72586001D02*
X145230000Y-71685999D01*
G75*
G02*
X145479999Y-71436000I249999J0D01*
G01*
X146130001Y-71436000D01*
G75*
G02*
X146380000Y-71685999I0J-249999D01*
G01*
X146380000Y-72586001D01*
G75*
G02*
X146130001Y-72836000I-249999J0D01*
G01*
X145479999Y-72836000D01*
G75*
G02*
X145230000Y-72586001I0J249999D01*
G01*
G37*
G36*
G01*
X143180000Y-72586001D02*
X143180000Y-71685999D01*
G75*
G02*
X143429999Y-71436000I249999J0D01*
G01*
X144080001Y-71436000D01*
G75*
G02*
X144330000Y-71685999I0J-249999D01*
G01*
X144330000Y-72586001D01*
G75*
G02*
X144080001Y-72836000I-249999J0D01*
G01*
X143429999Y-72836000D01*
G75*
G02*
X143180000Y-72586001I0J249999D01*
G01*
G37*
G36*
G01*
X148911000Y-71685999D02*
X148911000Y-72586001D01*
G75*
G02*
X148661001Y-72836000I-249999J0D01*
G01*
X148010999Y-72836000D01*
G75*
G02*
X147761000Y-72586001I0J249999D01*
G01*
X147761000Y-71685999D01*
G75*
G02*
X148010999Y-71436000I249999J0D01*
G01*
X148661001Y-71436000D01*
G75*
G02*
X148911000Y-71685999I0J-249999D01*
G01*
G37*
G36*
G01*
X150961000Y-71685999D02*
X150961000Y-72586001D01*
G75*
G02*
X150711001Y-72836000I-249999J0D01*
G01*
X150060999Y-72836000D01*
G75*
G02*
X149811000Y-72586001I0J249999D01*
G01*
X149811000Y-71685999D01*
G75*
G02*
X150060999Y-71436000I249999J0D01*
G01*
X150711001Y-71436000D01*
G75*
G02*
X150961000Y-71685999I0J-249999D01*
G01*
G37*
G36*
G01*
X149040000Y-87826001D02*
X149040000Y-86925999D01*
G75*
G02*
X149289999Y-86676000I249999J0D01*
G01*
X149940001Y-86676000D01*
G75*
G02*
X150190000Y-86925999I0J-249999D01*
G01*
X150190000Y-87826001D01*
G75*
G02*
X149940001Y-88076000I-249999J0D01*
G01*
X149289999Y-88076000D01*
G75*
G02*
X149040000Y-87826001I0J249999D01*
G01*
G37*
G36*
G01*
X146990000Y-87826001D02*
X146990000Y-86925999D01*
G75*
G02*
X147239999Y-86676000I249999J0D01*
G01*
X147890001Y-86676000D01*
G75*
G02*
X148140000Y-86925999I0J-249999D01*
G01*
X148140000Y-87826001D01*
G75*
G02*
X147890001Y-88076000I-249999J0D01*
G01*
X147239999Y-88076000D01*
G75*
G02*
X146990000Y-87826001I0J249999D01*
G01*
G37*
G36*
G01*
X140773999Y-97741000D02*
X141674001Y-97741000D01*
G75*
G02*
X141924000Y-97990999I0J-249999D01*
G01*
X141924000Y-98641001D01*
G75*
G02*
X141674001Y-98891000I-249999J0D01*
G01*
X140773999Y-98891000D01*
G75*
G02*
X140524000Y-98641001I0J249999D01*
G01*
X140524000Y-97990999D01*
G75*
G02*
X140773999Y-97741000I249999J0D01*
G01*
G37*
G36*
G01*
X140773999Y-95691000D02*
X141674001Y-95691000D01*
G75*
G02*
X141924000Y-95940999I0J-249999D01*
G01*
X141924000Y-96591001D01*
G75*
G02*
X141674001Y-96841000I-249999J0D01*
G01*
X140773999Y-96841000D01*
G75*
G02*
X140524000Y-96591001I0J249999D01*
G01*
X140524000Y-95940999D01*
G75*
G02*
X140773999Y-95691000I249999J0D01*
G01*
G37*
G36*
G01*
X141674001Y-102937000D02*
X140773999Y-102937000D01*
G75*
G02*
X140524000Y-102687001I0J249999D01*
G01*
X140524000Y-102036999D01*
G75*
G02*
X140773999Y-101787000I249999J0D01*
G01*
X141674001Y-101787000D01*
G75*
G02*
X141924000Y-102036999I0J-249999D01*
G01*
X141924000Y-102687001D01*
G75*
G02*
X141674001Y-102937000I-249999J0D01*
G01*
G37*
G36*
G01*
X141674001Y-100887000D02*
X140773999Y-100887000D01*
G75*
G02*
X140524000Y-100637001I0J249999D01*
G01*
X140524000Y-99986999D01*
G75*
G02*
X140773999Y-99737000I249999J0D01*
G01*
X141674001Y-99737000D01*
G75*
G02*
X141924000Y-99986999I0J-249999D01*
G01*
X141924000Y-100637001D01*
G75*
G02*
X141674001Y-100887000I-249999J0D01*
G01*
G37*
G36*
G01*
X144586000Y-84016001D02*
X144586000Y-83115999D01*
G75*
G02*
X144835999Y-82866000I249999J0D01*
G01*
X145486001Y-82866000D01*
G75*
G02*
X145736000Y-83115999I0J-249999D01*
G01*
X145736000Y-84016001D01*
G75*
G02*
X145486001Y-84266000I-249999J0D01*
G01*
X144835999Y-84266000D01*
G75*
G02*
X144586000Y-84016001I0J249999D01*
G01*
G37*
G36*
G01*
X142536000Y-84016001D02*
X142536000Y-83115999D01*
G75*
G02*
X142785999Y-82866000I249999J0D01*
G01*
X143436001Y-82866000D01*
G75*
G02*
X143686000Y-83115999I0J-249999D01*
G01*
X143686000Y-84016001D01*
G75*
G02*
X143436001Y-84266000I-249999J0D01*
G01*
X142785999Y-84266000D01*
G75*
G02*
X142536000Y-84016001I0J249999D01*
G01*
G37*
G36*
G01*
X153104001Y-114947500D02*
X152203999Y-114947500D01*
G75*
G02*
X151954000Y-114697501I0J249999D01*
G01*
X151954000Y-114047499D01*
G75*
G02*
X152203999Y-113797500I249999J0D01*
G01*
X153104001Y-113797500D01*
G75*
G02*
X153354000Y-114047499I0J-249999D01*
G01*
X153354000Y-114697501D01*
G75*
G02*
X153104001Y-114947500I-249999J0D01*
G01*
G37*
G36*
G01*
X153104001Y-112897500D02*
X152203999Y-112897500D01*
G75*
G02*
X151954000Y-112647501I0J249999D01*
G01*
X151954000Y-111997499D01*
G75*
G02*
X152203999Y-111747500I249999J0D01*
G01*
X153104001Y-111747500D01*
G75*
G02*
X153354000Y-111997499I0J-249999D01*
G01*
X153354000Y-112647501D01*
G75*
G02*
X153104001Y-112897500I-249999J0D01*
G01*
G37*
G36*
G01*
X150190000Y-83115999D02*
X150190000Y-84016001D01*
G75*
G02*
X149940001Y-84266000I-249999J0D01*
G01*
X149289999Y-84266000D01*
G75*
G02*
X149040000Y-84016001I0J249999D01*
G01*
X149040000Y-83115999D01*
G75*
G02*
X149289999Y-82866000I249999J0D01*
G01*
X149940001Y-82866000D01*
G75*
G02*
X150190000Y-83115999I0J-249999D01*
G01*
G37*
G36*
G01*
X148140000Y-83115999D02*
X148140000Y-84016001D01*
G75*
G02*
X147890001Y-84266000I-249999J0D01*
G01*
X147239999Y-84266000D01*
G75*
G02*
X146990000Y-84016001I0J249999D01*
G01*
X146990000Y-83115999D01*
G75*
G02*
X147239999Y-82866000I249999J0D01*
G01*
X147890001Y-82866000D01*
G75*
G02*
X148140000Y-83115999I0J-249999D01*
G01*
G37*
G36*
G01*
X138487999Y-112963000D02*
X139388001Y-112963000D01*
G75*
G02*
X139638000Y-113212999I0J-249999D01*
G01*
X139638000Y-113863001D01*
G75*
G02*
X139388001Y-114113000I-249999J0D01*
G01*
X138487999Y-114113000D01*
G75*
G02*
X138238000Y-113863001I0J249999D01*
G01*
X138238000Y-113212999D01*
G75*
G02*
X138487999Y-112963000I249999J0D01*
G01*
G37*
G36*
G01*
X138487999Y-110913000D02*
X139388001Y-110913000D01*
G75*
G02*
X139638000Y-111162999I0J-249999D01*
G01*
X139638000Y-111813001D01*
G75*
G02*
X139388001Y-112063000I-249999J0D01*
G01*
X138487999Y-112063000D01*
G75*
G02*
X138238000Y-111813001I0J249999D01*
G01*
X138238000Y-111162999D01*
G75*
G02*
X138487999Y-110913000I249999J0D01*
G01*
G37*
G36*
G01*
X141535999Y-112963000D02*
X142436001Y-112963000D01*
G75*
G02*
X142686000Y-113212999I0J-249999D01*
G01*
X142686000Y-113863001D01*
G75*
G02*
X142436001Y-114113000I-249999J0D01*
G01*
X141535999Y-114113000D01*
G75*
G02*
X141286000Y-113863001I0J249999D01*
G01*
X141286000Y-113212999D01*
G75*
G02*
X141535999Y-112963000I249999J0D01*
G01*
G37*
G36*
G01*
X141535999Y-110913000D02*
X142436001Y-110913000D01*
G75*
G02*
X142686000Y-111162999I0J-249999D01*
G01*
X142686000Y-111813001D01*
G75*
G02*
X142436001Y-112063000I-249999J0D01*
G01*
X141535999Y-112063000D01*
G75*
G02*
X141286000Y-111813001I0J249999D01*
G01*
X141286000Y-111162999D01*
G75*
G02*
X141535999Y-110913000I249999J0D01*
G01*
G37*
G36*
G01*
X145611001Y-114113000D02*
X144710999Y-114113000D01*
G75*
G02*
X144461000Y-113863001I0J249999D01*
G01*
X144461000Y-113212999D01*
G75*
G02*
X144710999Y-112963000I249999J0D01*
G01*
X145611001Y-112963000D01*
G75*
G02*
X145861000Y-113212999I0J-249999D01*
G01*
X145861000Y-113863001D01*
G75*
G02*
X145611001Y-114113000I-249999J0D01*
G01*
G37*
G36*
G01*
X145611001Y-112063000D02*
X144710999Y-112063000D01*
G75*
G02*
X144461000Y-111813001I0J249999D01*
G01*
X144461000Y-111162999D01*
G75*
G02*
X144710999Y-110913000I249999J0D01*
G01*
X145611001Y-110913000D01*
G75*
G02*
X145861000Y-111162999I0J-249999D01*
G01*
X145861000Y-111813001D01*
G75*
G02*
X145611001Y-112063000I-249999J0D01*
G01*
G37*
G36*
G01*
X144341001Y-110049000D02*
X143440999Y-110049000D01*
G75*
G02*
X143191000Y-109799001I0J249999D01*
G01*
X143191000Y-109148999D01*
G75*
G02*
X143440999Y-108899000I249999J0D01*
G01*
X144341001Y-108899000D01*
G75*
G02*
X144591000Y-109148999I0J-249999D01*
G01*
X144591000Y-109799001D01*
G75*
G02*
X144341001Y-110049000I-249999J0D01*
G01*
G37*
G36*
G01*
X144341001Y-107999000D02*
X143440999Y-107999000D01*
G75*
G02*
X143191000Y-107749001I0J249999D01*
G01*
X143191000Y-107098999D01*
G75*
G02*
X143440999Y-106849000I249999J0D01*
G01*
X144341001Y-106849000D01*
G75*
G02*
X144591000Y-107098999I0J-249999D01*
G01*
X144591000Y-107749001D01*
G75*
G02*
X144341001Y-107999000I-249999J0D01*
G01*
G37*
G36*
G01*
X169868001Y-93267000D02*
X168967999Y-93267000D01*
G75*
G02*
X168718000Y-93017001I0J249999D01*
G01*
X168718000Y-92366999D01*
G75*
G02*
X168967999Y-92117000I249999J0D01*
G01*
X169868001Y-92117000D01*
G75*
G02*
X170118000Y-92366999I0J-249999D01*
G01*
X170118000Y-93017001D01*
G75*
G02*
X169868001Y-93267000I-249999J0D01*
G01*
G37*
G36*
G01*
X169868001Y-95317000D02*
X168967999Y-95317000D01*
G75*
G02*
X168718000Y-95067001I0J249999D01*
G01*
X168718000Y-94416999D01*
G75*
G02*
X168967999Y-94167000I249999J0D01*
G01*
X169868001Y-94167000D01*
G75*
G02*
X170118000Y-94416999I0J-249999D01*
G01*
X170118000Y-95067001D01*
G75*
G02*
X169868001Y-95317000I-249999J0D01*
G01*
G37*
D18*
X121920000Y-97790000D03*
X125220000Y-97790000D03*
D19*
X166243000Y-95377000D03*
X166243000Y-92077000D03*
G36*
G01*
X122985000Y-77604199D02*
X122985000Y-78504201D01*
G75*
G02*
X122735001Y-78754200I-249999J0D01*
G01*
X122084999Y-78754200D01*
G75*
G02*
X121835000Y-78504201I0J249999D01*
G01*
X121835000Y-77604199D01*
G75*
G02*
X122084999Y-77354200I249999J0D01*
G01*
X122735001Y-77354200D01*
G75*
G02*
X122985000Y-77604199I0J-249999D01*
G01*
G37*
G36*
G01*
X125035000Y-77604199D02*
X125035000Y-78504201D01*
G75*
G02*
X124785001Y-78754200I-249999J0D01*
G01*
X124134999Y-78754200D01*
G75*
G02*
X123885000Y-78504201I0J249999D01*
G01*
X123885000Y-77604199D01*
G75*
G02*
X124134999Y-77354200I249999J0D01*
G01*
X124785001Y-77354200D01*
G75*
G02*
X125035000Y-77604199I0J-249999D01*
G01*
G37*
G36*
G01*
X122952200Y-75318199D02*
X122952200Y-76218201D01*
G75*
G02*
X122702201Y-76468200I-249999J0D01*
G01*
X122052199Y-76468200D01*
G75*
G02*
X121802200Y-76218201I0J249999D01*
G01*
X121802200Y-75318199D01*
G75*
G02*
X122052199Y-75068200I249999J0D01*
G01*
X122702201Y-75068200D01*
G75*
G02*
X122952200Y-75318199I0J-249999D01*
G01*
G37*
G36*
G01*
X125002200Y-75318199D02*
X125002200Y-76218201D01*
G75*
G02*
X124752201Y-76468200I-249999J0D01*
G01*
X124102199Y-76468200D01*
G75*
G02*
X123852200Y-76218201I0J249999D01*
G01*
X123852200Y-75318199D01*
G75*
G02*
X124102199Y-75068200I249999J0D01*
G01*
X124752201Y-75068200D01*
G75*
G02*
X125002200Y-75318199I0J-249999D01*
G01*
G37*
G36*
G01*
X170603000Y-82492001D02*
X170603000Y-81591999D01*
G75*
G02*
X170852999Y-81342000I249999J0D01*
G01*
X171503001Y-81342000D01*
G75*
G02*
X171753000Y-81591999I0J-249999D01*
G01*
X171753000Y-82492001D01*
G75*
G02*
X171503001Y-82742000I-249999J0D01*
G01*
X170852999Y-82742000D01*
G75*
G02*
X170603000Y-82492001I0J249999D01*
G01*
G37*
G36*
G01*
X172653000Y-82492001D02*
X172653000Y-81591999D01*
G75*
G02*
X172902999Y-81342000I249999J0D01*
G01*
X173553001Y-81342000D01*
G75*
G02*
X173803000Y-81591999I0J-249999D01*
G01*
X173803000Y-82492001D01*
G75*
G02*
X173553001Y-82742000I-249999J0D01*
G01*
X172902999Y-82742000D01*
G75*
G02*
X172653000Y-82492001I0J249999D01*
G01*
G37*
G36*
G01*
X170122001Y-76285000D02*
X169221999Y-76285000D01*
G75*
G02*
X168972000Y-76035001I0J249999D01*
G01*
X168972000Y-75384999D01*
G75*
G02*
X169221999Y-75135000I249999J0D01*
G01*
X170122001Y-75135000D01*
G75*
G02*
X170372000Y-75384999I0J-249999D01*
G01*
X170372000Y-76035001D01*
G75*
G02*
X170122001Y-76285000I-249999J0D01*
G01*
G37*
G36*
G01*
X170122001Y-74235000D02*
X169221999Y-74235000D01*
G75*
G02*
X168972000Y-73985001I0J249999D01*
G01*
X168972000Y-73334999D01*
G75*
G02*
X169221999Y-73085000I249999J0D01*
G01*
X170122001Y-73085000D01*
G75*
G02*
X170372000Y-73334999I0J-249999D01*
G01*
X170372000Y-73985001D01*
G75*
G02*
X170122001Y-74235000I-249999J0D01*
G01*
G37*
G36*
G01*
X136701000Y-93275999D02*
X136701000Y-94176001D01*
G75*
G02*
X136451001Y-94426000I-249999J0D01*
G01*
X135800999Y-94426000D01*
G75*
G02*
X135551000Y-94176001I0J249999D01*
G01*
X135551000Y-93275999D01*
G75*
G02*
X135800999Y-93026000I249999J0D01*
G01*
X136451001Y-93026000D01*
G75*
G02*
X136701000Y-93275999I0J-249999D01*
G01*
G37*
G36*
G01*
X138751000Y-93275999D02*
X138751000Y-94176001D01*
G75*
G02*
X138501001Y-94426000I-249999J0D01*
G01*
X137850999Y-94426000D01*
G75*
G02*
X137601000Y-94176001I0J249999D01*
G01*
X137601000Y-93275999D01*
G75*
G02*
X137850999Y-93026000I249999J0D01*
G01*
X138501001Y-93026000D01*
G75*
G02*
X138751000Y-93275999I0J-249999D01*
G01*
G37*
G36*
G01*
X133555000Y-116020001D02*
X133555000Y-115119999D01*
G75*
G02*
X133804999Y-114870000I249999J0D01*
G01*
X134455001Y-114870000D01*
G75*
G02*
X134705000Y-115119999I0J-249999D01*
G01*
X134705000Y-116020001D01*
G75*
G02*
X134455001Y-116270000I-249999J0D01*
G01*
X133804999Y-116270000D01*
G75*
G02*
X133555000Y-116020001I0J249999D01*
G01*
G37*
G36*
G01*
X131505000Y-116020001D02*
X131505000Y-115119999D01*
G75*
G02*
X131754999Y-114870000I249999J0D01*
G01*
X132405001Y-114870000D01*
G75*
G02*
X132655000Y-115119999I0J-249999D01*
G01*
X132655000Y-116020001D01*
G75*
G02*
X132405001Y-116270000I-249999J0D01*
G01*
X131754999Y-116270000D01*
G75*
G02*
X131505000Y-116020001I0J249999D01*
G01*
G37*
M02*
