G04 #@! TF.GenerationSoftware,KiCad,Pcbnew,5.1.6-c6e7f7d~87~ubuntu18.04.1*
G04 #@! TF.CreationDate,2020-08-01T07:59:39-04:00*
G04 #@! TF.ProjectId,optical_phasor_plug_in_board,6f707469-6361-46c5-9f70-6861736f725f,1.1*
G04 #@! TF.SameCoordinates,Original*
G04 #@! TF.FileFunction,Legend,Bot*
G04 #@! TF.FilePolarity,Positive*
%FSLAX46Y46*%
G04 Gerber Fmt 4.6, Leading zero omitted, Abs format (unit mm)*
G04 Created by KiCad (PCBNEW 5.1.6-c6e7f7d~87~ubuntu18.04.1) date 2020-08-01 07:59:39*
%MOMM*%
%LPD*%
G01*
G04 APERTURE LIST*
%ADD10C,0.150000*%
%ADD11C,0.120000*%
G04 APERTURE END LIST*
D10*
X167161547Y-68398380D02*
X167256785Y-68350761D01*
X167304404Y-68303142D01*
X167352023Y-68207904D01*
X167352023Y-67922190D01*
X167304404Y-67826952D01*
X167256785Y-67779333D01*
X167161547Y-67731714D01*
X167018690Y-67731714D01*
X166923452Y-67779333D01*
X166875833Y-67826952D01*
X166828214Y-67922190D01*
X166828214Y-68207904D01*
X166875833Y-68303142D01*
X166923452Y-68350761D01*
X167018690Y-68398380D01*
X167161547Y-68398380D01*
X166399642Y-67731714D02*
X166399642Y-68731714D01*
X166399642Y-67779333D02*
X166304404Y-67731714D01*
X166113928Y-67731714D01*
X166018690Y-67779333D01*
X165971071Y-67826952D01*
X165923452Y-67922190D01*
X165923452Y-68207904D01*
X165971071Y-68303142D01*
X166018690Y-68350761D01*
X166113928Y-68398380D01*
X166304404Y-68398380D01*
X166399642Y-68350761D01*
X165637738Y-67731714D02*
X165256785Y-67731714D01*
X165494880Y-67398380D02*
X165494880Y-68255523D01*
X165447261Y-68350761D01*
X165352023Y-68398380D01*
X165256785Y-68398380D01*
X164923452Y-68398380D02*
X164923452Y-67731714D01*
X164923452Y-67398380D02*
X164971071Y-67446000D01*
X164923452Y-67493619D01*
X164875833Y-67446000D01*
X164923452Y-67398380D01*
X164923452Y-67493619D01*
X164018690Y-68350761D02*
X164113928Y-68398380D01*
X164304404Y-68398380D01*
X164399642Y-68350761D01*
X164447261Y-68303142D01*
X164494880Y-68207904D01*
X164494880Y-67922190D01*
X164447261Y-67826952D01*
X164399642Y-67779333D01*
X164304404Y-67731714D01*
X164113928Y-67731714D01*
X164018690Y-67779333D01*
X163161547Y-68398380D02*
X163161547Y-67874571D01*
X163209166Y-67779333D01*
X163304404Y-67731714D01*
X163494880Y-67731714D01*
X163590119Y-67779333D01*
X163161547Y-68350761D02*
X163256785Y-68398380D01*
X163494880Y-68398380D01*
X163590119Y-68350761D01*
X163637738Y-68255523D01*
X163637738Y-68160285D01*
X163590119Y-68065047D01*
X163494880Y-68017428D01*
X163256785Y-68017428D01*
X163161547Y-67969809D01*
X162542500Y-68398380D02*
X162637738Y-68350761D01*
X162685357Y-68255523D01*
X162685357Y-67398380D01*
X162399642Y-68493619D02*
X161637738Y-68493619D01*
X161399642Y-67731714D02*
X161399642Y-68731714D01*
X161399642Y-67779333D02*
X161304404Y-67731714D01*
X161113928Y-67731714D01*
X161018690Y-67779333D01*
X160971071Y-67826952D01*
X160923452Y-67922190D01*
X160923452Y-68207904D01*
X160971071Y-68303142D01*
X161018690Y-68350761D01*
X161113928Y-68398380D01*
X161304404Y-68398380D01*
X161399642Y-68350761D01*
X160494880Y-68398380D02*
X160494880Y-67398380D01*
X160066309Y-68398380D02*
X160066309Y-67874571D01*
X160113928Y-67779333D01*
X160209166Y-67731714D01*
X160352023Y-67731714D01*
X160447261Y-67779333D01*
X160494880Y-67826952D01*
X159161547Y-68398380D02*
X159161547Y-67874571D01*
X159209166Y-67779333D01*
X159304404Y-67731714D01*
X159494880Y-67731714D01*
X159590119Y-67779333D01*
X159161547Y-68350761D02*
X159256785Y-68398380D01*
X159494880Y-68398380D01*
X159590119Y-68350761D01*
X159637738Y-68255523D01*
X159637738Y-68160285D01*
X159590119Y-68065047D01*
X159494880Y-68017428D01*
X159256785Y-68017428D01*
X159161547Y-67969809D01*
X158732976Y-68350761D02*
X158637738Y-68398380D01*
X158447261Y-68398380D01*
X158352023Y-68350761D01*
X158304404Y-68255523D01*
X158304404Y-68207904D01*
X158352023Y-68112666D01*
X158447261Y-68065047D01*
X158590119Y-68065047D01*
X158685357Y-68017428D01*
X158732976Y-67922190D01*
X158732976Y-67874571D01*
X158685357Y-67779333D01*
X158590119Y-67731714D01*
X158447261Y-67731714D01*
X158352023Y-67779333D01*
X157732976Y-68398380D02*
X157828214Y-68350761D01*
X157875833Y-68303142D01*
X157923452Y-68207904D01*
X157923452Y-67922190D01*
X157875833Y-67826952D01*
X157828214Y-67779333D01*
X157732976Y-67731714D01*
X157590119Y-67731714D01*
X157494880Y-67779333D01*
X157447261Y-67826952D01*
X157399642Y-67922190D01*
X157399642Y-68207904D01*
X157447261Y-68303142D01*
X157494880Y-68350761D01*
X157590119Y-68398380D01*
X157732976Y-68398380D01*
X156971071Y-68398380D02*
X156971071Y-67731714D01*
X156971071Y-67922190D02*
X156923452Y-67826952D01*
X156875833Y-67779333D01*
X156780595Y-67731714D01*
X156685357Y-67731714D01*
X156590119Y-68493619D02*
X155828214Y-68493619D01*
X155590119Y-67731714D02*
X155590119Y-68731714D01*
X155590119Y-67779333D02*
X155494880Y-67731714D01*
X155304404Y-67731714D01*
X155209166Y-67779333D01*
X155161547Y-67826952D01*
X155113928Y-67922190D01*
X155113928Y-68207904D01*
X155161547Y-68303142D01*
X155209166Y-68350761D01*
X155304404Y-68398380D01*
X155494880Y-68398380D01*
X155590119Y-68350761D01*
X154542500Y-68398380D02*
X154637738Y-68350761D01*
X154685357Y-68255523D01*
X154685357Y-67398380D01*
X153732976Y-67731714D02*
X153732976Y-68398380D01*
X154161547Y-67731714D02*
X154161547Y-68255523D01*
X154113928Y-68350761D01*
X154018690Y-68398380D01*
X153875833Y-68398380D01*
X153780595Y-68350761D01*
X153732976Y-68303142D01*
X152828214Y-67731714D02*
X152828214Y-68541238D01*
X152875833Y-68636476D01*
X152923452Y-68684095D01*
X153018690Y-68731714D01*
X153161547Y-68731714D01*
X153256785Y-68684095D01*
X152828214Y-68350761D02*
X152923452Y-68398380D01*
X153113928Y-68398380D01*
X153209166Y-68350761D01*
X153256785Y-68303142D01*
X153304404Y-68207904D01*
X153304404Y-67922190D01*
X153256785Y-67826952D01*
X153209166Y-67779333D01*
X153113928Y-67731714D01*
X152923452Y-67731714D01*
X152828214Y-67779333D01*
X152590119Y-68493619D02*
X151828214Y-68493619D01*
X151590119Y-68398380D02*
X151590119Y-67731714D01*
X151590119Y-67398380D02*
X151637738Y-67446000D01*
X151590119Y-67493619D01*
X151542500Y-67446000D01*
X151590119Y-67398380D01*
X151590119Y-67493619D01*
X151113928Y-67731714D02*
X151113928Y-68398380D01*
X151113928Y-67826952D02*
X151066309Y-67779333D01*
X150971071Y-67731714D01*
X150828214Y-67731714D01*
X150732976Y-67779333D01*
X150685357Y-67874571D01*
X150685357Y-68398380D01*
X150447261Y-68493619D02*
X149685357Y-68493619D01*
X149447261Y-68398380D02*
X149447261Y-67398380D01*
X149447261Y-67779333D02*
X149352023Y-67731714D01*
X149161547Y-67731714D01*
X149066309Y-67779333D01*
X149018690Y-67826952D01*
X148971071Y-67922190D01*
X148971071Y-68207904D01*
X149018690Y-68303142D01*
X149066309Y-68350761D01*
X149161547Y-68398380D01*
X149352023Y-68398380D01*
X149447261Y-68350761D01*
X148399642Y-68398380D02*
X148494880Y-68350761D01*
X148542500Y-68303142D01*
X148590119Y-68207904D01*
X148590119Y-67922190D01*
X148542500Y-67826952D01*
X148494880Y-67779333D01*
X148399642Y-67731714D01*
X148256785Y-67731714D01*
X148161547Y-67779333D01*
X148113928Y-67826952D01*
X148066309Y-67922190D01*
X148066309Y-68207904D01*
X148113928Y-68303142D01*
X148161547Y-68350761D01*
X148256785Y-68398380D01*
X148399642Y-68398380D01*
X147209166Y-68398380D02*
X147209166Y-67874571D01*
X147256785Y-67779333D01*
X147352023Y-67731714D01*
X147542500Y-67731714D01*
X147637738Y-67779333D01*
X147209166Y-68350761D02*
X147304404Y-68398380D01*
X147542500Y-68398380D01*
X147637738Y-68350761D01*
X147685357Y-68255523D01*
X147685357Y-68160285D01*
X147637738Y-68065047D01*
X147542500Y-68017428D01*
X147304404Y-68017428D01*
X147209166Y-67969809D01*
X146732976Y-68398380D02*
X146732976Y-67731714D01*
X146732976Y-67922190D02*
X146685357Y-67826952D01*
X146637738Y-67779333D01*
X146542500Y-67731714D01*
X146447261Y-67731714D01*
X145685357Y-68398380D02*
X145685357Y-67398380D01*
X145685357Y-68350761D02*
X145780595Y-68398380D01*
X145971071Y-68398380D01*
X146066309Y-68350761D01*
X146113928Y-68303142D01*
X146161547Y-68207904D01*
X146161547Y-67922190D01*
X146113928Y-67826952D01*
X146066309Y-67779333D01*
X145971071Y-67731714D01*
X145780595Y-67731714D01*
X145685357Y-67779333D01*
X167304404Y-70048380D02*
X167304404Y-69381714D01*
X167304404Y-69572190D02*
X167256785Y-69476952D01*
X167209166Y-69429333D01*
X167113928Y-69381714D01*
X167018690Y-69381714D01*
X166304404Y-70000761D02*
X166399642Y-70048380D01*
X166590119Y-70048380D01*
X166685357Y-70000761D01*
X166732976Y-69905523D01*
X166732976Y-69524571D01*
X166685357Y-69429333D01*
X166590119Y-69381714D01*
X166399642Y-69381714D01*
X166304404Y-69429333D01*
X166256785Y-69524571D01*
X166256785Y-69619809D01*
X166732976Y-69715047D01*
X165923452Y-69381714D02*
X165685357Y-70048380D01*
X165447261Y-69381714D01*
X163780595Y-70048380D02*
X164352023Y-70048380D01*
X164066309Y-70048380D02*
X164066309Y-69048380D01*
X164161547Y-69191238D01*
X164256785Y-69286476D01*
X164352023Y-69334095D01*
X163352023Y-69953142D02*
X163304404Y-70000761D01*
X163352023Y-70048380D01*
X163399642Y-70000761D01*
X163352023Y-69953142D01*
X163352023Y-70048380D01*
X162352023Y-70048380D02*
X162923452Y-70048380D01*
X162637738Y-70048380D02*
X162637738Y-69048380D01*
X162732976Y-69191238D01*
X162828214Y-69286476D01*
X162923452Y-69334095D01*
X167352023Y-70793619D02*
X167304404Y-70746000D01*
X167209166Y-70698380D01*
X166971071Y-70698380D01*
X166875833Y-70746000D01*
X166828214Y-70793619D01*
X166780595Y-70888857D01*
X166780595Y-70984095D01*
X166828214Y-71126952D01*
X167399642Y-71698380D01*
X166780595Y-71698380D01*
X166161547Y-70698380D02*
X166066309Y-70698380D01*
X165971071Y-70746000D01*
X165923452Y-70793619D01*
X165875833Y-70888857D01*
X165828214Y-71079333D01*
X165828214Y-71317428D01*
X165875833Y-71507904D01*
X165923452Y-71603142D01*
X165971071Y-71650761D01*
X166066309Y-71698380D01*
X166161547Y-71698380D01*
X166256785Y-71650761D01*
X166304404Y-71603142D01*
X166352023Y-71507904D01*
X166399642Y-71317428D01*
X166399642Y-71079333D01*
X166352023Y-70888857D01*
X166304404Y-70793619D01*
X166256785Y-70746000D01*
X166161547Y-70698380D01*
X164875833Y-71698380D02*
X165447261Y-71698380D01*
X165161547Y-71698380D02*
X165161547Y-70698380D01*
X165256785Y-70841238D01*
X165352023Y-70936476D01*
X165447261Y-70984095D01*
X164399642Y-71698380D02*
X164209166Y-71698380D01*
X164113928Y-71650761D01*
X164066309Y-71603142D01*
X163971071Y-71460285D01*
X163923452Y-71269809D01*
X163923452Y-70888857D01*
X163971071Y-70793619D01*
X164018690Y-70746000D01*
X164113928Y-70698380D01*
X164304404Y-70698380D01*
X164399642Y-70746000D01*
X164447261Y-70793619D01*
X164494880Y-70888857D01*
X164494880Y-71126952D01*
X164447261Y-71222190D01*
X164399642Y-71269809D01*
X164304404Y-71317428D01*
X164113928Y-71317428D01*
X164018690Y-71269809D01*
X163971071Y-71222190D01*
X163923452Y-71126952D01*
X163494880Y-71317428D02*
X162732976Y-71317428D01*
X162066309Y-70698380D02*
X161971071Y-70698380D01*
X161875833Y-70746000D01*
X161828214Y-70793619D01*
X161780595Y-70888857D01*
X161732976Y-71079333D01*
X161732976Y-71317428D01*
X161780595Y-71507904D01*
X161828214Y-71603142D01*
X161875833Y-71650761D01*
X161971071Y-71698380D01*
X162066309Y-71698380D01*
X162161547Y-71650761D01*
X162209166Y-71603142D01*
X162256785Y-71507904D01*
X162304404Y-71317428D01*
X162304404Y-71079333D01*
X162256785Y-70888857D01*
X162209166Y-70793619D01*
X162161547Y-70746000D01*
X162066309Y-70698380D01*
X160875833Y-70698380D02*
X161066309Y-70698380D01*
X161161547Y-70746000D01*
X161209166Y-70793619D01*
X161304404Y-70936476D01*
X161352023Y-71126952D01*
X161352023Y-71507904D01*
X161304404Y-71603142D01*
X161256785Y-71650761D01*
X161161547Y-71698380D01*
X160971071Y-71698380D01*
X160875833Y-71650761D01*
X160828214Y-71603142D01*
X160780595Y-71507904D01*
X160780595Y-71269809D01*
X160828214Y-71174571D01*
X160875833Y-71126952D01*
X160971071Y-71079333D01*
X161161547Y-71079333D01*
X161256785Y-71126952D01*
X161304404Y-71174571D01*
X161352023Y-71269809D01*
X160352023Y-71317428D02*
X159590119Y-71317428D01*
X158923452Y-70698380D02*
X158828214Y-70698380D01*
X158732976Y-70746000D01*
X158685357Y-70793619D01*
X158637738Y-70888857D01*
X158590119Y-71079333D01*
X158590119Y-71317428D01*
X158637738Y-71507904D01*
X158685357Y-71603142D01*
X158732976Y-71650761D01*
X158828214Y-71698380D01*
X158923452Y-71698380D01*
X159018690Y-71650761D01*
X159066309Y-71603142D01*
X159113928Y-71507904D01*
X159161547Y-71317428D01*
X159161547Y-71079333D01*
X159113928Y-70888857D01*
X159066309Y-70793619D01*
X159018690Y-70746000D01*
X158923452Y-70698380D01*
X158256785Y-70698380D02*
X157637738Y-70698380D01*
X157971071Y-71079333D01*
X157828214Y-71079333D01*
X157732976Y-71126952D01*
X157685357Y-71174571D01*
X157637738Y-71269809D01*
X157637738Y-71507904D01*
X157685357Y-71603142D01*
X157732976Y-71650761D01*
X157828214Y-71698380D01*
X158113928Y-71698380D01*
X158209166Y-71650761D01*
X158256785Y-71603142D01*
D11*
X120710000Y-105350000D02*
X119380000Y-105350000D01*
X120710000Y-106680000D02*
X120710000Y-105350000D01*
X120710000Y-107950000D02*
X118050000Y-107950000D01*
X118050000Y-107950000D02*
X118050000Y-115630000D01*
X120710000Y-107950000D02*
X120710000Y-115630000D01*
X120710000Y-115630000D02*
X118050000Y-115630000D01*
X120710000Y-77530000D02*
X118050000Y-77530000D01*
X120710000Y-69850000D02*
X120710000Y-77530000D01*
X118050000Y-69850000D02*
X118050000Y-77530000D01*
X120710000Y-69850000D02*
X118050000Y-69850000D01*
X120710000Y-68580000D02*
X120710000Y-67250000D01*
X120710000Y-67250000D02*
X119380000Y-67250000D01*
X174050000Y-77530000D02*
X171390000Y-77530000D01*
X174050000Y-69850000D02*
X174050000Y-77530000D01*
X171390000Y-69850000D02*
X171390000Y-77530000D01*
X174050000Y-69850000D02*
X171390000Y-69850000D01*
X174050000Y-68580000D02*
X174050000Y-67250000D01*
X174050000Y-67250000D02*
X172720000Y-67250000D01*
X174050000Y-95190000D02*
X172720000Y-95190000D01*
X174050000Y-96520000D02*
X174050000Y-95190000D01*
X174050000Y-97790000D02*
X171390000Y-97790000D01*
X171390000Y-97790000D02*
X171390000Y-115630000D01*
X174050000Y-97790000D02*
X174050000Y-115630000D01*
X174050000Y-115630000D02*
X171390000Y-115630000D01*
D10*
X119713333Y-103802380D02*
X119713333Y-104516666D01*
X119760952Y-104659523D01*
X119856190Y-104754761D01*
X119999047Y-104802380D01*
X120094285Y-104802380D01*
X118713333Y-104802380D02*
X119284761Y-104802380D01*
X118999047Y-104802380D02*
X118999047Y-103802380D01*
X119094285Y-103945238D01*
X119189523Y-104040476D01*
X119284761Y-104088095D01*
X119713333Y-78192380D02*
X119713333Y-78906666D01*
X119760952Y-79049523D01*
X119856190Y-79144761D01*
X119999047Y-79192380D01*
X120094285Y-79192380D01*
X119284761Y-78287619D02*
X119237142Y-78240000D01*
X119141904Y-78192380D01*
X118903809Y-78192380D01*
X118808571Y-78240000D01*
X118760952Y-78287619D01*
X118713333Y-78382857D01*
X118713333Y-78478095D01*
X118760952Y-78620952D01*
X119332380Y-79192380D01*
X118713333Y-79192380D01*
X173053333Y-78192380D02*
X173053333Y-78906666D01*
X173100952Y-79049523D01*
X173196190Y-79144761D01*
X173339047Y-79192380D01*
X173434285Y-79192380D01*
X172672380Y-78192380D02*
X172053333Y-78192380D01*
X172386666Y-78573333D01*
X172243809Y-78573333D01*
X172148571Y-78620952D01*
X172100952Y-78668571D01*
X172053333Y-78763809D01*
X172053333Y-79001904D01*
X172100952Y-79097142D01*
X172148571Y-79144761D01*
X172243809Y-79192380D01*
X172529523Y-79192380D01*
X172624761Y-79144761D01*
X172672380Y-79097142D01*
X173053333Y-93642380D02*
X173053333Y-94356666D01*
X173100952Y-94499523D01*
X173196190Y-94594761D01*
X173339047Y-94642380D01*
X173434285Y-94642380D01*
X172148571Y-93975714D02*
X172148571Y-94642380D01*
X172386666Y-93594761D02*
X172624761Y-94309047D01*
X172005714Y-94309047D01*
M02*
