%TF.GenerationSoftware,KiCad,Pcbnew,6.0.7-f9a2dced07~116~ubuntu22.04.1*%
%TF.CreationDate,2022-07-29T20:00:08-04:00*%
%TF.ProjectId,late_MS20_VCF_plug_in_board,6c617465-5f4d-4533-9230-5f5643465f70,0.1*%
%TF.SameCoordinates,Original*%
%TF.FileFunction,Copper,L1,Top*%
%TF.FilePolarity,Positive*%
%FSLAX46Y46*%
G04 Gerber Fmt 4.6, Leading zero omitted, Abs format (unit mm)*
G04 Created by KiCad (PCBNEW 6.0.7-f9a2dced07~116~ubuntu22.04.1) date 2022-07-29 20:00:08*
%MOMM*%
%LPD*%
G01*
G04 APERTURE LIST*
G04 Aperture macros list*
%AMRoundRect*
0 Rectangle with rounded corners*
0 $1 Rounding radius*
0 $2 $3 $4 $5 $6 $7 $8 $9 X,Y pos of 4 corners*
0 Add a 4 corners polygon primitive as box body*
4,1,4,$2,$3,$4,$5,$6,$7,$8,$9,$2,$3,0*
0 Add four circle primitives for the rounded corners*
1,1,$1+$1,$2,$3*
1,1,$1+$1,$4,$5*
1,1,$1+$1,$6,$7*
1,1,$1+$1,$8,$9*
0 Add four rect primitives between the rounded corners*
20,1,$1+$1,$2,$3,$4,$5,0*
20,1,$1+$1,$4,$5,$6,$7,0*
20,1,$1+$1,$6,$7,$8,$9,0*
20,1,$1+$1,$8,$9,$2,$3,0*%
G04 Aperture macros list end*
%TA.AperFunction,SMDPad,CuDef*%
%ADD10RoundRect,0.150000X-0.150000X0.825000X-0.150000X-0.825000X0.150000X-0.825000X0.150000X0.825000X0*%
%TD*%
%TA.AperFunction,SMDPad,CuDef*%
%ADD11RoundRect,0.225000X-0.250000X0.225000X-0.250000X-0.225000X0.250000X-0.225000X0.250000X0.225000X0*%
%TD*%
%TA.AperFunction,SMDPad,CuDef*%
%ADD12RoundRect,0.225000X0.250000X-0.225000X0.250000X0.225000X-0.250000X0.225000X-0.250000X-0.225000X0*%
%TD*%
%TA.AperFunction,SMDPad,CuDef*%
%ADD13RoundRect,0.200000X0.275000X-0.200000X0.275000X0.200000X-0.275000X0.200000X-0.275000X-0.200000X0*%
%TD*%
%TA.AperFunction,ComponentPad*%
%ADD14C,1.440000*%
%TD*%
%TA.AperFunction,SMDPad,CuDef*%
%ADD15RoundRect,0.150000X-0.587500X-0.150000X0.587500X-0.150000X0.587500X0.150000X-0.587500X0.150000X0*%
%TD*%
%TA.AperFunction,SMDPad,CuDef*%
%ADD16RoundRect,0.200000X-0.275000X0.200000X-0.275000X-0.200000X0.275000X-0.200000X0.275000X0.200000X0*%
%TD*%
%TA.AperFunction,SMDPad,CuDef*%
%ADD17R,1.200000X0.900000*%
%TD*%
%TA.AperFunction,SMDPad,CuDef*%
%ADD18RoundRect,0.250000X-0.475000X0.250000X-0.475000X-0.250000X0.475000X-0.250000X0.475000X0.250000X0*%
%TD*%
%TA.AperFunction,SMDPad,CuDef*%
%ADD19RoundRect,0.250000X0.475000X-0.250000X0.475000X0.250000X-0.475000X0.250000X-0.475000X-0.250000X0*%
%TD*%
%TA.AperFunction,ComponentPad*%
%ADD20C,1.600000*%
%TD*%
%TA.AperFunction,ComponentPad*%
%ADD21R,1.700000X1.700000*%
%TD*%
%TA.AperFunction,ComponentPad*%
%ADD22O,1.700000X1.700000*%
%TD*%
%TA.AperFunction,SMDPad,CuDef*%
%ADD23R,0.510000X1.100000*%
%TD*%
%TA.AperFunction,ViaPad*%
%ADD24C,1.000000*%
%TD*%
%TA.AperFunction,ViaPad*%
%ADD25C,0.800000*%
%TD*%
%TA.AperFunction,Conductor*%
%ADD26C,0.500000*%
%TD*%
%TA.AperFunction,Conductor*%
%ADD27C,0.290000*%
%TD*%
%TA.AperFunction,Conductor*%
%ADD28C,0.400000*%
%TD*%
G04 APERTURE END LIST*
D10*
%TO.P,U1,1*%
%TO.N,Net-(R5-Pad2)*%
X136525000Y-78805000D03*
%TO.P,U1,2,DIODE_BIAS*%
%TO.N,unconnected-(U1-Pad2)*%
X135255000Y-78805000D03*
%TO.P,U1,3,+*%
%TO.N,Net-(R4-Pad1)*%
X133985000Y-78805000D03*
%TO.P,U1,4,-*%
%TO.N,Net-(R1-Pad1)*%
X132715000Y-78805000D03*
%TO.P,U1,5*%
%TO.N,Net-(C1-Pad1)*%
X131445000Y-78805000D03*
%TO.P,U1,6,V-*%
%TO.N,-12V*%
X130175000Y-78805000D03*
%TO.P,U1,7*%
%TO.N,Net-(C1-Pad1)*%
X128905000Y-78805000D03*
%TO.P,U1,8*%
%TO.N,Net-(R3-Pad1)*%
X127635000Y-78805000D03*
%TO.P,U1,9*%
%TO.N,Net-(C3-Pad2)*%
X127635000Y-83755000D03*
%TO.P,U1,10*%
%TO.N,Net-(C2-Pad1)*%
X128905000Y-83755000D03*
%TO.P,U1,11,V+*%
%TO.N,+12V*%
X130175000Y-83755000D03*
%TO.P,U1,12*%
%TO.N,Net-(C2-Pad1)*%
X131445000Y-83755000D03*
%TO.P,U1,13,-*%
%TO.N,Net-(R11-Pad2)*%
X132715000Y-83755000D03*
%TO.P,U1,14,+*%
%TO.N,Net-(R12-Pad1)*%
X133985000Y-83755000D03*
%TO.P,U1,15,DIODE_BIAS*%
%TO.N,unconnected-(U1-Pad15)*%
X135255000Y-83755000D03*
%TO.P,U1,16*%
%TO.N,Net-(R13-Pad2)*%
X136525000Y-83755000D03*
%TD*%
D11*
%TO.P,C18,1*%
%TO.N,GND*%
X130175000Y-103352000D03*
%TO.P,C18,2*%
%TO.N,-12V*%
X130175000Y-104902000D03*
%TD*%
D12*
%TO.P,C8,1*%
%TO.N,Net-(C8-Pad1)*%
X118110000Y-89355000D03*
%TO.P,C8,2*%
%TO.N,Net-(C8-Pad2)*%
X118110000Y-87805000D03*
%TD*%
D13*
%TO.P,R2,1*%
%TO.N,Net-(R1-Pad1)*%
X133350000Y-74842500D03*
%TO.P,R2,2*%
%TO.N,GND*%
X133350000Y-73192500D03*
%TD*%
D10*
%TO.P,U3,1*%
%TO.N,/feedback_VCA/SIGNAL_OUT*%
X125730000Y-104205000D03*
%TO.P,U3,2,-*%
%TO.N,Net-(C4-Pad2)*%
X124460000Y-104205000D03*
%TO.P,U3,3,+*%
%TO.N,GND*%
X123190000Y-104205000D03*
%TO.P,U3,4,V-*%
%TO.N,-12V*%
X121920000Y-104205000D03*
%TO.P,U3,5,+*%
%TO.N,GND*%
X121920000Y-109155000D03*
%TO.P,U3,6,-*%
%TO.N,Net-(C7-Pad2)*%
X123190000Y-109155000D03*
%TO.P,U3,7*%
%TO.N,Net-(C7-Pad1)*%
X124460000Y-109155000D03*
%TO.P,U3,8,V+*%
%TO.N,+12V*%
X125730000Y-109155000D03*
%TD*%
D11*
%TO.P,C12,1*%
%TO.N,GND*%
X121920000Y-77952000D03*
%TO.P,C12,2*%
%TO.N,-12V*%
X121920000Y-79502000D03*
%TD*%
D14*
%TO.P,RV2,1,1*%
%TO.N,-12V*%
X106426000Y-111760000D03*
%TO.P,RV2,2,2*%
%TO.N,Net-(R25-Pad2)*%
X106426000Y-109220000D03*
%TO.P,RV2,3,3*%
%TO.N,GND*%
X106426000Y-106680000D03*
%TD*%
D15*
%TO.P,Q2,1,B*%
%TO.N,GND*%
X111155000Y-87950000D03*
%TO.P,Q2,2,E*%
%TO.N,Net-(Q1-Pad2)*%
X111155000Y-89850000D03*
%TO.P,Q2,3,C*%
%TO.N,/CV_scalers/SCALED_CV_OUT*%
X113030000Y-88900000D03*
%TD*%
D16*
%TO.P,R23,1*%
%TO.N,GND*%
X117043200Y-108344200D03*
%TO.P,R23,2*%
%TO.N,Net-(R23-Pad2)*%
X117043200Y-109994200D03*
%TD*%
%TO.P,R12,1*%
%TO.N,Net-(R12-Pad1)*%
X135890000Y-87717500D03*
%TO.P,R12,2*%
%TO.N,GND*%
X135890000Y-89367500D03*
%TD*%
D13*
%TO.P,R20,1*%
%TO.N,Net-(R20-Pad1)*%
X131445000Y-114410000D03*
%TO.P,R20,2*%
%TO.N,-12V*%
X131445000Y-112760000D03*
%TD*%
%TO.P,R6,1*%
%TO.N,-12V*%
X128270000Y-74842500D03*
%TO.P,R6,2*%
%TO.N,Net-(R3-Pad1)*%
X128270000Y-73192500D03*
%TD*%
D11*
%TO.P,C13,1*%
%TO.N,+12V*%
X139700000Y-83058000D03*
%TO.P,C13,2*%
%TO.N,GND*%
X139700000Y-84608000D03*
%TD*%
D17*
%TO.P,D1,1,K*%
%TO.N,Net-(C1-Pad2)*%
X105410000Y-83690000D03*
%TO.P,D1,2,A*%
%TO.N,Net-(D1-Pad2)*%
X105410000Y-80390000D03*
%TD*%
D13*
%TO.P,R1,1*%
%TO.N,Net-(R1-Pad1)*%
X130810000Y-74842500D03*
%TO.P,R1,2*%
%TO.N,Net-(J5-Pad2)*%
X130810000Y-73192500D03*
%TD*%
%TO.P,R18,1*%
%TO.N,Net-(R18-Pad1)*%
X134112000Y-99885000D03*
%TO.P,R18,2*%
%TO.N,Net-(C5-Pad1)*%
X134112000Y-98235000D03*
%TD*%
D18*
%TO.P,C9,1*%
%TO.N,+12V*%
X143510000Y-109855000D03*
%TO.P,C9,2*%
%TO.N,GND*%
X143510000Y-111755000D03*
%TD*%
D12*
%TO.P,C7,1*%
%TO.N,Net-(C7-Pad1)*%
X123825000Y-114397500D03*
%TO.P,C7,2*%
%TO.N,Net-(C7-Pad2)*%
X123825000Y-112847500D03*
%TD*%
D13*
%TO.P,R15,1*%
%TO.N,GND*%
X147218400Y-92366600D03*
%TO.P,R15,2*%
%TO.N,/feedback_VCA/SIGNAL_IN*%
X147218400Y-90716600D03*
%TD*%
D11*
%TO.P,C15,1*%
%TO.N,+12V*%
X118872000Y-108458000D03*
%TO.P,C15,2*%
%TO.N,GND*%
X118872000Y-110008000D03*
%TD*%
%TO.P,C6,1*%
%TO.N,Net-(C6-Pad1)*%
X139065000Y-112847500D03*
%TO.P,C6,2*%
%TO.N,GND*%
X139065000Y-114397500D03*
%TD*%
%TO.P,C17,1*%
%TO.N,+12V*%
X130175000Y-108458000D03*
%TO.P,C17,2*%
%TO.N,GND*%
X130175000Y-110008000D03*
%TD*%
D14*
%TO.P,RV1,1,1*%
%TO.N,GND*%
X99568000Y-111760000D03*
%TO.P,RV1,2,2*%
%TO.N,Net-(R24-Pad2)*%
X99568000Y-109220000D03*
%TO.P,RV1,3,3*%
%TO.N,/CV_scalers/RAW_CV_IN*%
X99568000Y-106680000D03*
%TD*%
D16*
%TO.P,R7,1*%
%TO.N,Net-(D5-Pad2)*%
X118110000Y-73192500D03*
%TO.P,R7,2*%
%TO.N,Net-(C1-Pad2)*%
X118110000Y-74842500D03*
%TD*%
%TO.P,R28,1*%
%TO.N,Net-(C8-Pad1)*%
X120650000Y-87717500D03*
%TO.P,R28,2*%
%TO.N,Net-(Q1-Pad2)*%
X120650000Y-89367500D03*
%TD*%
D11*
%TO.P,C16,1*%
%TO.N,GND*%
X118872000Y-103365000D03*
%TO.P,C16,2*%
%TO.N,-12V*%
X118872000Y-104915000D03*
%TD*%
D19*
%TO.P,C1,1*%
%TO.N,Net-(C1-Pad1)*%
X123190000Y-74930000D03*
%TO.P,C1,2*%
%TO.N,Net-(C1-Pad2)*%
X123190000Y-73030000D03*
%TD*%
D20*
%TO.P,C3,1*%
%TO.N,/feedback_VCA/SIGNAL_IN*%
X146050000Y-81360000D03*
%TO.P,C3,2*%
%TO.N,Net-(C3-Pad2)*%
X146050000Y-86360000D03*
%TD*%
D13*
%TO.P,R10,1*%
%TO.N,Net-(D5-Pad2)*%
X115570000Y-74842500D03*
%TO.P,R10,2*%
%TO.N,GND*%
X115570000Y-73192500D03*
%TD*%
D10*
%TO.P,U2,1*%
%TO.N,Net-(C1-Pad2)*%
X118745000Y-78805000D03*
%TO.P,U2,2,-*%
%TO.N,Net-(D5-Pad2)*%
X117475000Y-78805000D03*
%TO.P,U2,3,+*%
%TO.N,/feedback_VCA/SIGNAL_OUT*%
X116205000Y-78805000D03*
%TO.P,U2,4,V-*%
%TO.N,-12V*%
X114935000Y-78805000D03*
%TO.P,U2,5,+*%
%TO.N,GND*%
X114935000Y-83755000D03*
%TO.P,U2,6,-*%
%TO.N,Net-(C8-Pad2)*%
X116205000Y-83755000D03*
%TO.P,U2,7*%
%TO.N,Net-(C8-Pad1)*%
X117475000Y-83755000D03*
%TO.P,U2,8,V+*%
%TO.N,+12V*%
X118745000Y-83755000D03*
%TD*%
D16*
%TO.P,R24,1*%
%TO.N,Net-(Q1-Pad1)*%
X108458000Y-95695000D03*
%TO.P,R24,2*%
%TO.N,Net-(R24-Pad2)*%
X108458000Y-97345000D03*
%TD*%
D18*
%TO.P,C10,1*%
%TO.N,GND*%
X143510000Y-105415000D03*
%TO.P,C10,2*%
%TO.N,-12V*%
X143510000Y-107315000D03*
%TD*%
D21*
%TO.P,J5,1,Pin_1*%
%TO.N,/filter_core/SIGNAL_IN*%
X95885000Y-93599000D03*
D22*
%TO.P,J5,2,Pin_2*%
%TO.N,Net-(J5-Pad2)*%
X95885000Y-91059000D03*
%TO.P,J5,3,Pin_3*%
%TO.N,GND*%
X98425000Y-93599000D03*
%TO.P,J5,4,Pin_4*%
%TO.N,Net-(J5-Pad2)*%
X98425000Y-91059000D03*
%TO.P,J5,5,Pin_5*%
%TO.N,/filter_core/SIGNAL_IN*%
X100965000Y-93599000D03*
%TO.P,J5,6,Pin_6*%
%TO.N,/filter_core/HPF_INPUT_NODE*%
X100965000Y-91059000D03*
%TO.P,J5,7,Pin_7*%
%TO.N,GND*%
X103505000Y-93599000D03*
%TO.P,J5,8,Pin_8*%
%TO.N,/filter_core/HPF_INPUT_NODE*%
X103505000Y-91059000D03*
%TD*%
D15*
%TO.P,Q1,1,B*%
%TO.N,Net-(Q1-Pad1)*%
X106710000Y-87950000D03*
%TO.P,Q1,2,E*%
%TO.N,Net-(Q1-Pad2)*%
X106710000Y-89850000D03*
%TO.P,Q1,3,C*%
%TO.N,Net-(C8-Pad2)*%
X108585000Y-88900000D03*
%TD*%
D16*
%TO.P,R22,1*%
%TO.N,Net-(C7-Pad2)*%
X120015000Y-112760000D03*
%TO.P,R22,2*%
%TO.N,Net-(R22-Pad2)*%
X120015000Y-114410000D03*
%TD*%
D18*
%TO.P,C2,1*%
%TO.N,Net-(C2-Pad1)*%
X123190000Y-87630000D03*
%TO.P,C2,2*%
%TO.N,/filter_core/HPF_INPUT_NODE*%
X123190000Y-89530000D03*
%TD*%
D14*
%TO.P,RV3,1,1*%
%TO.N,Net-(R23-Pad2)*%
X113284000Y-111760000D03*
%TO.P,RV3,2,2*%
%TO.N,Net-(R22-Pad2)*%
X113284000Y-109220000D03*
%TO.P,RV3,3,3*%
%TO.N,/feedback_VCA/CV_IN*%
X113284000Y-106680000D03*
%TD*%
D17*
%TO.P,D5,1,K*%
%TO.N,Net-(D3-Pad2)*%
X105410000Y-72770000D03*
%TO.P,D5,2,A*%
%TO.N,Net-(D5-Pad2)*%
X105410000Y-69470000D03*
%TD*%
D13*
%TO.P,R13,1*%
%TO.N,/CV_scalers/SCALED_CV_OUT*%
X138430000Y-89367500D03*
%TO.P,R13,2*%
%TO.N,Net-(R13-Pad2)*%
X138430000Y-87717500D03*
%TD*%
D16*
%TO.P,R14,1*%
%TO.N,-12V*%
X130810000Y-87717500D03*
%TO.P,R14,2*%
%TO.N,Net-(C3-Pad2)*%
X130810000Y-89367500D03*
%TD*%
D17*
%TO.P,D6,1,K*%
%TO.N,Net-(D5-Pad2)*%
X110490000Y-69470000D03*
%TO.P,D6,2,A*%
%TO.N,Net-(D4-Pad1)*%
X110490000Y-72770000D03*
%TD*%
D16*
%TO.P,R25,1*%
%TO.N,Net-(Q1-Pad1)*%
X110998000Y-95695000D03*
%TO.P,R25,2*%
%TO.N,Net-(R25-Pad2)*%
X110998000Y-97345000D03*
%TD*%
%TO.P,R9,1*%
%TO.N,Net-(R11-Pad2)*%
X133350000Y-87717500D03*
%TO.P,R9,2*%
%TO.N,GND*%
X133350000Y-89367500D03*
%TD*%
%TO.P,R16,1*%
%TO.N,/feedback_VCA/SIGNAL_OUT*%
X121920000Y-98235000D03*
%TO.P,R16,2*%
%TO.N,Net-(C4-Pad2)*%
X121920000Y-99885000D03*
%TD*%
%TO.P,R11,1*%
%TO.N,Net-(C3-Pad2)*%
X128270000Y-87717500D03*
%TO.P,R11,2*%
%TO.N,Net-(R11-Pad2)*%
X128270000Y-89367500D03*
%TD*%
%TO.P,R5,1*%
%TO.N,/CV_scalers/SCALED_CV_OUT*%
X138430000Y-73192500D03*
%TO.P,R5,2*%
%TO.N,Net-(R5-Pad2)*%
X138430000Y-74842500D03*
%TD*%
D13*
%TO.P,R4,1*%
%TO.N,Net-(R4-Pad1)*%
X135890000Y-74842500D03*
%TO.P,R4,2*%
%TO.N,GND*%
X135890000Y-73192500D03*
%TD*%
%TO.P,R19,1*%
%TO.N,Net-(R18-Pad1)*%
X130302000Y-99885000D03*
%TO.P,R19,2*%
%TO.N,/feedback_VCA/SIGNAL_IN*%
X130302000Y-98235000D03*
%TD*%
D12*
%TO.P,C5,1*%
%TO.N,Net-(C5-Pad1)*%
X137795000Y-99792500D03*
%TO.P,C5,2*%
%TO.N,GND*%
X137795000Y-98242500D03*
%TD*%
D13*
%TO.P,R26,1*%
%TO.N,Net-(Q1-Pad1)*%
X113538000Y-97345000D03*
%TO.P,R26,2*%
%TO.N,GND*%
X113538000Y-95695000D03*
%TD*%
D17*
%TO.P,D2,1,K*%
%TO.N,Net-(D2-Pad1)*%
X110490000Y-80390000D03*
%TO.P,D2,2,A*%
%TO.N,Net-(C1-Pad2)*%
X110490000Y-83690000D03*
%TD*%
%TO.P,D4,1,K*%
%TO.N,Net-(D4-Pad1)*%
X110490000Y-74930000D03*
%TO.P,D4,2,A*%
%TO.N,Net-(D2-Pad1)*%
X110490000Y-78230000D03*
%TD*%
D11*
%TO.P,C11,1*%
%TO.N,+12V*%
X121920000Y-83058000D03*
%TO.P,C11,2*%
%TO.N,GND*%
X121920000Y-84608000D03*
%TD*%
D16*
%TO.P,R21,1*%
%TO.N,Net-(R20-Pad1)*%
X135255000Y-112840000D03*
%TO.P,R21,2*%
%TO.N,Net-(C6-Pad1)*%
X135255000Y-114490000D03*
%TD*%
D17*
%TO.P,D3,1,K*%
%TO.N,Net-(D1-Pad2)*%
X105410000Y-78230000D03*
%TO.P,D3,2,A*%
%TO.N,Net-(D3-Pad2)*%
X105410000Y-74930000D03*
%TD*%
D13*
%TO.P,R27,1*%
%TO.N,Net-(C8-Pad2)*%
X115570000Y-89367500D03*
%TO.P,R27,2*%
%TO.N,-12V*%
X115570000Y-87717500D03*
%TD*%
%TO.P,R8,1*%
%TO.N,Net-(R11-Pad2)*%
X125730000Y-89367500D03*
%TO.P,R8,2*%
%TO.N,Net-(R3-Pad1)*%
X125730000Y-87717500D03*
%TD*%
%TO.P,R17,1*%
%TO.N,Net-(C7-Pad1)*%
X139954000Y-103491800D03*
%TO.P,R17,2*%
%TO.N,Net-(R17-Pad2)*%
X139954000Y-101841800D03*
%TD*%
D11*
%TO.P,C14,1*%
%TO.N,GND*%
X139700000Y-77952000D03*
%TO.P,C14,2*%
%TO.N,-12V*%
X139700000Y-79502000D03*
%TD*%
%TO.P,C4,1*%
%TO.N,/feedback_VCA/SIGNAL_OUT*%
X125476000Y-98247500D03*
%TO.P,C4,2*%
%TO.N,Net-(C4-Pad2)*%
X125476000Y-99797500D03*
%TD*%
D13*
%TO.P,R3,1*%
%TO.N,Net-(R3-Pad1)*%
X125730000Y-74842500D03*
%TO.P,R3,2*%
%TO.N,Net-(R1-Pad1)*%
X125730000Y-73192500D03*
%TD*%
D23*
%TO.P,U4,1,MODE*%
%TO.N,unconnected-(U4-Pad1)*%
X137255000Y-104130000D03*
%TO.P,U4,2*%
%TO.N,Net-(R18-Pad1)*%
X136255000Y-104130000D03*
%TO.P,U4,3*%
%TO.N,Net-(R17-Pad2)*%
X135255000Y-104130000D03*
%TO.P,U4,4*%
%TO.N,Net-(C4-Pad2)*%
X134255000Y-104130000D03*
%TO.P,U4,5,GND*%
%TO.N,GND*%
X133255000Y-104130000D03*
%TO.P,U4,6,V-*%
%TO.N,-12V*%
X133255000Y-109230000D03*
%TO.P,U4,7*%
%TO.N,Net-(C7-Pad2)*%
X134255000Y-109230000D03*
%TO.P,U4,8*%
%TO.N,Net-(C7-Pad1)*%
X135255000Y-109230000D03*
%TO.P,U4,9*%
%TO.N,Net-(R20-Pad1)*%
X136255000Y-109230000D03*
%TO.P,U4,10,V+*%
%TO.N,+12V*%
X137255000Y-109230000D03*
%TD*%
D21*
%TO.P,J1,1,Pin_1*%
%TO.N,GND*%
X93980000Y-68580000D03*
D22*
%TO.P,J1,2,Pin_2*%
X93980000Y-71120000D03*
%TO.P,J1,3,Pin_3*%
%TO.N,/filter_core/SIGNAL_IN*%
X93980000Y-73660000D03*
%TO.P,J1,4,Pin_4*%
X93980000Y-76200000D03*
%TD*%
D21*
%TO.P,J2,1,Pin_1*%
%TO.N,GND*%
X93980000Y-106680000D03*
D22*
%TO.P,J2,2,Pin_2*%
X93980000Y-109220000D03*
%TO.P,J2,3,Pin_3*%
%TO.N,/CV_scalers/RAW_CV_IN*%
X93980000Y-111760000D03*
%TO.P,J2,4,Pin_4*%
X93980000Y-114300000D03*
%TD*%
D21*
%TO.P,J3,1,Pin_1*%
%TO.N,GND*%
X147320000Y-68580000D03*
D22*
%TO.P,J3,2,Pin_2*%
X147320000Y-71120000D03*
%TO.P,J3,3,Pin_3*%
%TO.N,/feedback_VCA/SIGNAL_IN*%
X147320000Y-73660000D03*
%TO.P,J3,4,Pin_4*%
X147320000Y-76200000D03*
%TD*%
D21*
%TO.P,J4,1,Pin_1*%
%TO.N,GND*%
X147320000Y-96520000D03*
D22*
%TO.P,J4,2,Pin_2*%
X147320000Y-99060000D03*
%TO.P,J4,3,Pin_3*%
%TO.N,/feedback_VCA/CV_IN*%
X147320000Y-101600000D03*
%TO.P,J4,4,Pin_4*%
X147320000Y-104140000D03*
%TO.P,J4,5,Pin_5*%
%TO.N,-12V*%
X147320000Y-106680000D03*
%TO.P,J4,6,Pin_6*%
X147320000Y-109220000D03*
%TO.P,J4,7,Pin_7*%
%TO.N,+12V*%
X147320000Y-111760000D03*
%TO.P,J4,8,Pin_8*%
X147320000Y-114300000D03*
%TD*%
D24*
%TO.N,GND*%
X114046000Y-71882000D03*
X134620000Y-89408000D03*
X143510000Y-104140000D03*
X111252000Y-86614000D03*
X121920000Y-110998000D03*
X137668000Y-96774000D03*
X121920000Y-85852000D03*
X139700000Y-76708000D03*
X139700000Y-85852000D03*
X123190000Y-102362000D03*
X121920000Y-76708000D03*
X143510000Y-113284000D03*
X113538000Y-94488000D03*
X118872000Y-102006400D03*
X130048000Y-101854000D03*
X132842000Y-102616000D03*
X140462000Y-114554000D03*
X118872000Y-111302800D03*
X114808000Y-85598000D03*
X134645400Y-73990200D03*
X129540000Y-111252000D03*
%TO.N,-12V*%
X133350000Y-108137500D03*
X131700043Y-86742043D03*
X129540000Y-75438000D03*
X143256000Y-80772000D03*
X133350000Y-106172000D03*
X130182034Y-80584500D03*
%TO.N,Net-(C1-Pad1)*%
X126238000Y-76708000D03*
X129032000Y-76708000D03*
%TO.N,Net-(C1-Pad2)*%
X117900793Y-75901207D03*
X115062000Y-76200000D03*
%TO.N,/feedback_VCA/SIGNAL_IN*%
X147320000Y-88646000D03*
%TO.N,Net-(C3-Pad2)*%
X129540000Y-93218000D03*
X129580500Y-89416520D03*
%TO.N,/feedback_VCA/SIGNAL_OUT*%
X116332000Y-77099500D03*
X116332000Y-98044000D03*
%TO.N,Net-(C4-Pad2)*%
X127254000Y-102108000D03*
X124460000Y-101346000D03*
D25*
%TO.N,Net-(C7-Pad1)*%
X135229600Y-108102400D03*
X139750800Y-104851200D03*
D24*
%TO.N,Net-(C7-Pad2)*%
X121412000Y-112776000D03*
X134154500Y-110744000D03*
%TO.N,/feedback_VCA/CV_IN*%
X139954000Y-97282000D03*
X139954000Y-94742000D03*
%TO.N,Net-(Q1-Pad1)*%
X106680000Y-86614000D03*
X106680000Y-95250000D03*
%TO.N,/CV_scalers/SCALED_CV_OUT*%
X113538000Y-92202000D03*
X139700000Y-89408000D03*
X140004800Y-74244200D03*
X113030000Y-87884000D03*
%TO.N,Net-(R3-Pad1)*%
X126238000Y-78740000D03*
X125984000Y-86360000D03*
%TD*%
D26*
%TO.N,+12V*%
X121920000Y-83058000D02*
X121920000Y-81534000D01*
X125730000Y-109155000D02*
X125730000Y-107188000D01*
X118745000Y-83755000D02*
X118745000Y-82169000D01*
X145415000Y-109855000D02*
X147320000Y-111760000D01*
X147320000Y-111760000D02*
X147320000Y-114300000D01*
X141478000Y-81534000D02*
X139700000Y-81534000D01*
X139700000Y-81534000D02*
X139700000Y-81788000D01*
X130302000Y-107188000D02*
X130302000Y-108331000D01*
X130302000Y-108331000D02*
X130175000Y-108458000D01*
X119380000Y-81534000D02*
X121920000Y-81534000D01*
X137255000Y-107347000D02*
X137414000Y-107188000D01*
X149352000Y-85090000D02*
X148336000Y-84074000D01*
X139700000Y-81788000D02*
X139700000Y-83058000D01*
X147320000Y-111760000D02*
X149352000Y-109728000D01*
X125730000Y-107188000D02*
X119837200Y-107188000D01*
X142875000Y-109855000D02*
X143510000Y-109855000D01*
X149352000Y-109728000D02*
X149352000Y-85090000D01*
X130302000Y-107188000D02*
X137414000Y-107188000D01*
X125730000Y-107188000D02*
X130302000Y-107188000D01*
X118745000Y-82169000D02*
X119380000Y-81534000D01*
X148336000Y-84074000D02*
X144018000Y-84074000D01*
X137414000Y-107188000D02*
X140208000Y-107188000D01*
X121920000Y-81534000D02*
X130048000Y-81534000D01*
X143510000Y-109855000D02*
X145415000Y-109855000D01*
X130048000Y-81534000D02*
X139700000Y-81534000D01*
X130048000Y-81534000D02*
X130175000Y-81661000D01*
X119837200Y-107188000D02*
X118872000Y-108153200D01*
X144018000Y-84074000D02*
X141478000Y-81534000D01*
X140208000Y-107188000D02*
X142875000Y-109855000D01*
X130175000Y-81661000D02*
X130175000Y-83755000D01*
X118872000Y-108153200D02*
X118872000Y-108458000D01*
X137255000Y-109230000D02*
X137255000Y-107347000D01*
%TO.N,GND*%
X147320000Y-96520000D02*
X147320000Y-99060000D01*
X133255000Y-104130000D02*
X133255000Y-103029000D01*
X135092300Y-73990200D02*
X135890000Y-73192500D01*
X140462000Y-114554000D02*
X139221500Y-114554000D01*
D27*
X118872000Y-109823142D02*
X117393058Y-108344200D01*
D26*
X143510000Y-105415000D02*
X143510000Y-104140000D01*
X139700000Y-84608000D02*
X139700000Y-85852000D01*
D28*
X118872000Y-103365000D02*
X118872000Y-102006400D01*
D26*
X130175000Y-110617000D02*
X129540000Y-111252000D01*
X111155000Y-86711000D02*
X111252000Y-86614000D01*
X133604000Y-89408000D02*
X135849500Y-89408000D01*
X121920000Y-84608000D02*
X121920000Y-85852000D01*
D28*
X147320000Y-92468200D02*
X147320000Y-96520000D01*
X147218400Y-92366600D02*
X147320000Y-92468200D01*
D26*
X123190000Y-104205000D02*
X123190000Y-102362000D01*
X139700000Y-77952000D02*
X139700000Y-76708000D01*
X115356500Y-73192500D02*
X114046000Y-71882000D01*
X113538000Y-95695000D02*
X113538000Y-94488000D01*
X133563500Y-89367500D02*
X133604000Y-89408000D01*
X121920000Y-109155000D02*
X121920000Y-110998000D01*
X133350000Y-73192500D02*
X134147700Y-73990200D01*
D27*
X118872000Y-110008000D02*
X118872000Y-109823142D01*
D26*
X135849500Y-89408000D02*
X135890000Y-89367500D01*
X137795000Y-98242500D02*
X137795000Y-96901000D01*
X130175000Y-110008000D02*
X130175000Y-110617000D01*
X143510000Y-111755000D02*
X143510000Y-113284000D01*
D27*
X118872000Y-110008000D02*
X118872000Y-111302800D01*
D26*
X114935000Y-83755000D02*
X114935000Y-85471000D01*
X130175000Y-103352000D02*
X130175000Y-101981000D01*
X111155000Y-87950000D02*
X111155000Y-86711000D01*
X133255000Y-103029000D02*
X132842000Y-102616000D01*
X139221500Y-114554000D02*
X139065000Y-114397500D01*
D27*
X117393058Y-108344200D02*
X117043200Y-108344200D01*
D26*
X121920000Y-77952000D02*
X121920000Y-76708000D01*
X137795000Y-96901000D02*
X137668000Y-96774000D01*
X114935000Y-85471000D02*
X114808000Y-85598000D01*
X133350000Y-89367500D02*
X133563500Y-89367500D01*
X130175000Y-101981000D02*
X130048000Y-101854000D01*
X134147700Y-73990200D02*
X135092300Y-73990200D01*
X115570000Y-73192500D02*
X115356500Y-73192500D01*
%TO.N,-12V*%
X118872000Y-104915000D02*
X118097000Y-104915000D01*
D28*
X130810000Y-87632086D02*
X131700043Y-86742043D01*
D26*
X109728000Y-107950000D02*
X106426000Y-111252000D01*
D28*
X114300000Y-80772000D02*
X115570000Y-80772000D01*
D26*
X130302000Y-80772000D02*
X139700000Y-80772000D01*
X121920000Y-80518000D02*
X121666000Y-80772000D01*
X106426000Y-111252000D02*
X106426000Y-111760000D01*
D28*
X133255000Y-110950000D02*
X131445000Y-112760000D01*
X113284000Y-85431500D02*
X113284000Y-81788000D01*
D26*
X143510000Y-107315000D02*
X146685000Y-107315000D01*
X115570000Y-80772000D02*
X121666000Y-80772000D01*
D28*
X130810000Y-87717500D02*
X130810000Y-87632086D01*
D26*
X121666000Y-80772000D02*
X130302000Y-80772000D01*
X130302000Y-106172000D02*
X130302000Y-105029000D01*
X130302000Y-106172000D02*
X133350000Y-106172000D01*
X115062000Y-107950000D02*
X109728000Y-107950000D01*
X121920000Y-106172000D02*
X120129000Y-106172000D01*
X147320000Y-106680000D02*
X147320000Y-109220000D01*
X143256000Y-80772000D02*
X139700000Y-80772000D01*
X133350000Y-106172000D02*
X140208000Y-106172000D01*
D28*
X129540000Y-75438000D02*
X128865500Y-75438000D01*
D26*
X118097000Y-104915000D02*
X115062000Y-107950000D01*
X130302000Y-105029000D02*
X130175000Y-104902000D01*
X130175000Y-78805000D02*
X130175000Y-80645000D01*
X141351000Y-107315000D02*
X143510000Y-107315000D01*
D28*
X115570000Y-87717500D02*
X113284000Y-85431500D01*
X133255000Y-108232500D02*
X133350000Y-108137500D01*
D26*
X120129000Y-106172000D02*
X118872000Y-104915000D01*
X114935000Y-78805000D02*
X114935000Y-80772000D01*
D28*
X133255000Y-109230000D02*
X133255000Y-110950000D01*
D26*
X121920000Y-106172000D02*
X130302000Y-106172000D01*
X146685000Y-107315000D02*
X147320000Y-106680000D01*
D28*
X133255000Y-109230000D02*
X133255000Y-108232500D01*
X128865500Y-75438000D02*
X128270000Y-74842500D01*
D26*
X139700000Y-80772000D02*
X139700000Y-79502000D01*
X130175000Y-80645000D02*
X130302000Y-80772000D01*
X121920000Y-104205000D02*
X121920000Y-106172000D01*
X121920000Y-79502000D02*
X121920000Y-80518000D01*
X114935000Y-80772000D02*
X115570000Y-80772000D01*
D28*
X113284000Y-81788000D02*
X114300000Y-80772000D01*
D26*
X140208000Y-106172000D02*
X141351000Y-107315000D01*
%TO.N,Net-(C1-Pad1)*%
X123190000Y-74930000D02*
X124968000Y-76708000D01*
D28*
X129032000Y-76708000D02*
X128905000Y-76835000D01*
X129286000Y-76454000D02*
X129032000Y-76708000D01*
X131445000Y-78805000D02*
X131445000Y-77089000D01*
X130810000Y-76454000D02*
X129286000Y-76454000D01*
D26*
X124968000Y-76708000D02*
X126238000Y-76708000D01*
D28*
X131445000Y-77089000D02*
X130810000Y-76454000D01*
X128905000Y-76835000D02*
X128905000Y-78805000D01*
%TO.N,Net-(C1-Pad2)*%
X117900793Y-75901207D02*
X117900793Y-75051707D01*
X118110000Y-74842500D02*
X118745000Y-75477500D01*
X117900793Y-75051707D02*
X118110000Y-74842500D01*
X118110000Y-74842500D02*
X121377500Y-74842500D01*
X112014000Y-79248000D02*
X115062000Y-76200000D01*
X118745000Y-75477500D02*
X118745000Y-78805000D01*
X112014000Y-82166000D02*
X112014000Y-79248000D01*
X105410000Y-83690000D02*
X110490000Y-83690000D01*
X121377500Y-74842500D02*
X123190000Y-73030000D01*
X110490000Y-83690000D02*
X112014000Y-82166000D01*
%TO.N,Net-(C2-Pad1)*%
X129286000Y-86106000D02*
X128905000Y-85725000D01*
X128524000Y-82270600D02*
X126822200Y-82270600D01*
X128905000Y-82651600D02*
X128524000Y-82270600D01*
X126822200Y-82270600D02*
X126238000Y-82854800D01*
X128905000Y-83755000D02*
X128905000Y-82651600D01*
X131445000Y-83755000D02*
X131445000Y-85725000D01*
X126238000Y-84582000D02*
X123190000Y-87630000D01*
X126238000Y-82854800D02*
X126238000Y-84582000D01*
X128905000Y-85725000D02*
X128905000Y-83755000D01*
X131445000Y-85725000D02*
X131064000Y-86106000D01*
X131064000Y-86106000D02*
X129286000Y-86106000D01*
D26*
%TO.N,/filter_core/HPF_INPUT_NODE*%
X103505000Y-91059000D02*
X121661000Y-91059000D01*
X121661000Y-91059000D02*
X123190000Y-89530000D01*
X100965000Y-91059000D02*
X103505000Y-91059000D01*
%TO.N,/feedback_VCA/SIGNAL_IN*%
X147320000Y-73660000D02*
X147320000Y-76200000D01*
X146050000Y-77470000D02*
X147320000Y-76200000D01*
D28*
X147320000Y-90763849D02*
X142325849Y-95758000D01*
X132779000Y-95758000D02*
X130302000Y-98235000D01*
D26*
X146050000Y-81360000D02*
X146050000Y-77470000D01*
D28*
X142325849Y-95758000D02*
X132779000Y-95758000D01*
X147320000Y-88646000D02*
X147320000Y-90763849D01*
%TO.N,Net-(C3-Pad2)*%
X144018000Y-93218000D02*
X146050000Y-91186000D01*
X130760980Y-89416520D02*
X130810000Y-89367500D01*
X129580500Y-89416520D02*
X130760980Y-89416520D01*
X146050000Y-91186000D02*
X146050000Y-86360000D01*
X129580500Y-89028000D02*
X128270000Y-87717500D01*
X129580500Y-89416520D02*
X129580500Y-89028000D01*
X129540000Y-93218000D02*
X144018000Y-93218000D01*
X127635000Y-87082500D02*
X128270000Y-87717500D01*
X127635000Y-83755000D02*
X127635000Y-87082500D01*
D26*
%TO.N,/feedback_VCA/SIGNAL_OUT*%
X125730000Y-102108000D02*
X126746000Y-101092000D01*
X125730000Y-104205000D02*
X125730000Y-102108000D01*
X126746000Y-101092000D02*
X126746000Y-99517500D01*
X125476000Y-98247500D02*
X121932500Y-98247500D01*
X116332000Y-78678000D02*
X116205000Y-78805000D01*
X116523000Y-98235000D02*
X116332000Y-98044000D01*
X126746000Y-99517500D02*
X125476000Y-98247500D01*
X121932500Y-98247500D02*
X121920000Y-98235000D01*
X121920000Y-98235000D02*
X116523000Y-98235000D01*
X116332000Y-77099500D02*
X116332000Y-78678000D01*
D28*
%TO.N,Net-(C4-Pad2)*%
X134255000Y-104130000D02*
X134255000Y-102756898D01*
D26*
X121920000Y-99885000D02*
X125388500Y-99885000D01*
X124460000Y-104205000D02*
X124460000Y-101346000D01*
D28*
X132336102Y-100838000D02*
X128524000Y-100838000D01*
D26*
X125388500Y-99885000D02*
X125476000Y-99797500D01*
D28*
X128524000Y-100838000D02*
X127254000Y-102108000D01*
D26*
X124460000Y-100813500D02*
X125476000Y-99797500D01*
D28*
X134255000Y-102756898D02*
X132336102Y-100838000D01*
D26*
X124460000Y-101346000D02*
X124460000Y-100813500D01*
D28*
%TO.N,Net-(C5-Pad1)*%
X134112000Y-98235000D02*
X136237500Y-98235000D01*
X136237500Y-98235000D02*
X137795000Y-99792500D01*
%TO.N,Net-(C6-Pad1)*%
X137422500Y-114490000D02*
X139065000Y-112847500D01*
X135255000Y-114490000D02*
X137422500Y-114490000D01*
D27*
%TO.N,Net-(C7-Pad1)*%
X135255000Y-111226600D02*
X132892800Y-113588800D01*
D28*
X124866400Y-113356100D02*
X124866400Y-113588800D01*
X124460000Y-111506000D02*
X124866400Y-111912400D01*
X124866400Y-113588800D02*
X124057700Y-114397500D01*
X124057700Y-114397500D02*
X123825000Y-114397500D01*
X124866400Y-111912400D02*
X124866400Y-113356100D01*
D27*
X132892800Y-113588800D02*
X125099100Y-113588800D01*
D28*
X124460000Y-109155000D02*
X124460000Y-111506000D01*
D27*
X125099100Y-113588800D02*
X124866400Y-113356100D01*
X139954000Y-103491800D02*
X139954000Y-104648000D01*
X135229600Y-109204600D02*
X135255000Y-109230000D01*
X139954000Y-104648000D02*
X139750800Y-104851200D01*
X135229600Y-108102400D02*
X135229600Y-109204600D01*
X135255000Y-109230000D02*
X135255000Y-111226600D01*
D28*
%TO.N,Net-(C7-Pad2)*%
X121396000Y-112760000D02*
X121412000Y-112776000D01*
X123190000Y-112212500D02*
X123825000Y-112847500D01*
X120015000Y-112760000D02*
X121396000Y-112760000D01*
X121412000Y-112776000D02*
X123753500Y-112776000D01*
D26*
X134255000Y-110643500D02*
X134154500Y-110744000D01*
D28*
X123753500Y-112776000D02*
X123825000Y-112847500D01*
X123190000Y-109155000D02*
X123190000Y-112212500D01*
D26*
X134255000Y-109230000D02*
X134255000Y-110643500D01*
D28*
%TO.N,Net-(C8-Pad1)*%
X119380704Y-87717500D02*
X120650000Y-87717500D01*
X117475000Y-85811796D02*
X119380704Y-87717500D01*
X118110000Y-89355000D02*
X119012500Y-89355000D01*
X117475000Y-83755000D02*
X117475000Y-85811796D01*
X119012500Y-89355000D02*
X120650000Y-87717500D01*
%TO.N,Net-(C8-Pad2)*%
X109728000Y-85598000D02*
X108585000Y-86741000D01*
X116205000Y-85900000D02*
X118110000Y-87805000D01*
X108585000Y-86741000D02*
X108585000Y-88900000D01*
X116547500Y-89367500D02*
X118110000Y-87805000D01*
X115570000Y-89367500D02*
X116547500Y-89367500D01*
X114046000Y-87884000D02*
X114046000Y-87376000D01*
X116205000Y-83755000D02*
X116205000Y-85900000D01*
X115529500Y-89367500D02*
X114046000Y-87884000D01*
X114046000Y-87376000D02*
X112268000Y-85598000D01*
X112268000Y-85598000D02*
X109728000Y-85598000D01*
X115570000Y-89367500D02*
X115529500Y-89367500D01*
%TO.N,Net-(D1-Pad2)*%
X105410000Y-78230000D02*
X105410000Y-80390000D01*
%TO.N,Net-(D2-Pad1)*%
X110490000Y-78230000D02*
X110490000Y-80390000D01*
%TO.N,Net-(D3-Pad2)*%
X105410000Y-72770000D02*
X105410000Y-74930000D01*
%TO.N,Net-(D4-Pad1)*%
X110490000Y-72770000D02*
X110490000Y-74930000D01*
%TO.N,Net-(D5-Pad2)*%
X110490000Y-69470000D02*
X105410000Y-69470000D01*
X117475000Y-76747500D02*
X115570000Y-74842500D01*
X117220000Y-73192500D02*
X115570000Y-74842500D01*
X115570000Y-74842500D02*
X110490000Y-69762500D01*
X117475000Y-78805000D02*
X117475000Y-76747500D01*
X118110000Y-73192500D02*
X117220000Y-73192500D01*
X110490000Y-69762500D02*
X110490000Y-69470000D01*
D26*
%TO.N,/filter_core/SIGNAL_IN*%
X99364800Y-95199200D02*
X97485200Y-95199200D01*
X97485200Y-95199200D02*
X95885000Y-93599000D01*
X100965000Y-93599000D02*
X99364800Y-95199200D01*
X93980000Y-91694000D02*
X93980000Y-76200000D01*
X95885000Y-93599000D02*
X93980000Y-91694000D01*
X93980000Y-73660000D02*
X93980000Y-76200000D01*
%TO.N,/CV_scalers/RAW_CV_IN*%
X93980000Y-114300000D02*
X93980000Y-111760000D01*
X93980000Y-111760000D02*
X99060000Y-106680000D01*
X99060000Y-106680000D02*
X99568000Y-106680000D01*
%TO.N,/feedback_VCA/CV_IN*%
X117856000Y-94742000D02*
X113284000Y-99314000D01*
X113284000Y-99314000D02*
X113284000Y-106680000D01*
X139954000Y-94742000D02*
X117856000Y-94742000D01*
X147320000Y-101600000D02*
X147320000Y-104140000D01*
X147320000Y-101600000D02*
X143002000Y-97282000D01*
X143002000Y-97282000D02*
X139954000Y-97282000D01*
%TO.N,Net-(J5-Pad2)*%
X130810000Y-73152000D02*
X125476000Y-67818000D01*
X130810000Y-73192500D02*
X130810000Y-73152000D01*
X125476000Y-67818000D02*
X101600000Y-67818000D01*
X98425000Y-70993000D02*
X98425000Y-91059000D01*
X101600000Y-67818000D02*
X98425000Y-70993000D01*
X95885000Y-91059000D02*
X98425000Y-91059000D01*
D28*
%TO.N,Net-(Q1-Pad1)*%
X112648000Y-97345000D02*
X110998000Y-95695000D01*
X107125000Y-95695000D02*
X106680000Y-95250000D01*
X108458000Y-95695000D02*
X110998000Y-95695000D01*
X106680000Y-86614000D02*
X106680000Y-87920000D01*
X113538000Y-97345000D02*
X112648000Y-97345000D01*
X106680000Y-87920000D02*
X106710000Y-87950000D01*
X108458000Y-95695000D02*
X107125000Y-95695000D01*
%TO.N,Net-(Q1-Pad2)*%
X106710000Y-89850000D02*
X111155000Y-89850000D01*
X111509520Y-90204520D02*
X111155000Y-89850000D01*
X119812980Y-90204520D02*
X111509520Y-90204520D01*
X120650000Y-89367500D02*
X119812980Y-90204520D01*
%TO.N,/CV_scalers/SCALED_CV_OUT*%
X139700000Y-89408000D02*
X136906000Y-92202000D01*
X139659500Y-89367500D02*
X139700000Y-89408000D01*
X138953100Y-73192500D02*
X140004800Y-74244200D01*
X113030000Y-87884000D02*
X113030000Y-88900000D01*
X138430000Y-73192500D02*
X138953100Y-73192500D01*
X138430000Y-89367500D02*
X139659500Y-89367500D01*
X136906000Y-92202000D02*
X113538000Y-92202000D01*
%TO.N,Net-(R1-Pad1)*%
X132715000Y-78805000D02*
X132715000Y-75477500D01*
X132715000Y-75477500D02*
X133350000Y-74842500D01*
X130810000Y-74842500D02*
X129983100Y-74015600D01*
X126553100Y-74015600D02*
X125730000Y-73192500D01*
X129983100Y-74015600D02*
X126553100Y-74015600D01*
X130810000Y-74842500D02*
X133350000Y-74842500D01*
%TO.N,Net-(R3-Pad1)*%
X125730000Y-87717500D02*
X125730000Y-86614000D01*
X127570000Y-78740000D02*
X127635000Y-78805000D01*
X124612400Y-74447400D02*
X124612400Y-72440800D01*
X125730000Y-74842500D02*
X125007500Y-74842500D01*
X127635000Y-78805000D02*
X127635000Y-76747500D01*
X125007500Y-74842500D02*
X124612400Y-74447400D01*
X127111900Y-72034400D02*
X128270000Y-73192500D01*
X125730000Y-86614000D02*
X125984000Y-86360000D01*
X127635000Y-76747500D02*
X125730000Y-74842500D01*
X124612400Y-72440800D02*
X125018800Y-72034400D01*
X125018800Y-72034400D02*
X127111900Y-72034400D01*
X126238000Y-78740000D02*
X127570000Y-78740000D01*
%TO.N,Net-(R4-Pad1)*%
X133985000Y-76747500D02*
X133985000Y-78805000D01*
X135890000Y-74842500D02*
X133985000Y-76747500D01*
%TO.N,Net-(R5-Pad2)*%
X136525000Y-76747500D02*
X138430000Y-74842500D01*
X136525000Y-78805000D02*
X136525000Y-76747500D01*
%TO.N,Net-(R11-Pad2)*%
X132715000Y-86029800D02*
X133350000Y-86664800D01*
X125730000Y-89367500D02*
X128270000Y-89367500D01*
X128981200Y-90678000D02*
X131165600Y-90678000D01*
X128270000Y-89367500D02*
X128270000Y-89966800D01*
X131165600Y-90678000D02*
X132130800Y-89712800D01*
X132130800Y-88442800D02*
X132856100Y-87717500D01*
X132856100Y-87717500D02*
X133350000Y-87717500D01*
X133350000Y-86664800D02*
X133350000Y-87717500D01*
X132715000Y-83755000D02*
X132715000Y-86029800D01*
X132130800Y-89712800D02*
X132130800Y-88442800D01*
X128270000Y-89966800D02*
X128981200Y-90678000D01*
%TO.N,Net-(R12-Pad1)*%
X133985000Y-83755000D02*
X133985000Y-85812500D01*
X133985000Y-85812500D02*
X135890000Y-87717500D01*
%TO.N,Net-(R13-Pad2)*%
X136525000Y-83755000D02*
X136525000Y-86487000D01*
X137755500Y-87717500D02*
X138430000Y-87717500D01*
X136525000Y-86487000D02*
X137755500Y-87717500D01*
D27*
%TO.N,Net-(R17-Pad2)*%
X137845800Y-105308400D02*
X138480800Y-104673400D01*
X138480800Y-103315000D02*
X139954000Y-101841800D01*
X135255000Y-104902000D02*
X135661400Y-105308400D01*
X138480800Y-104673400D02*
X138480800Y-103315000D01*
X135661400Y-105308400D02*
X137845800Y-105308400D01*
X135255000Y-104130000D02*
X135255000Y-104902000D01*
D28*
%TO.N,Net-(R18-Pad1)*%
X136255000Y-104130000D02*
X136255000Y-102028000D01*
X134112000Y-99885000D02*
X130302000Y-99885000D01*
X136255000Y-102028000D02*
X134112000Y-99885000D01*
%TO.N,Net-(R20-Pad1)*%
X136255000Y-111840000D02*
X135255000Y-112840000D01*
X133685000Y-114410000D02*
X135255000Y-112840000D01*
X136255000Y-109230000D02*
X136255000Y-111840000D01*
X131445000Y-114410000D02*
X133685000Y-114410000D01*
D27*
%TO.N,Net-(R22-Pad2)*%
X113334800Y-109169200D02*
X113284000Y-109220000D01*
X120015000Y-114410000D02*
X117957600Y-112352600D01*
X117957600Y-112352600D02*
X117957600Y-109601000D01*
X117525800Y-109169200D02*
X113334800Y-109169200D01*
X117957600Y-109601000D02*
X117525800Y-109169200D01*
D28*
%TO.N,Net-(R23-Pad2)*%
X115277400Y-111760000D02*
X117043200Y-109994200D01*
X113284000Y-111760000D02*
X115277400Y-111760000D01*
D26*
%TO.N,Net-(R24-Pad2)*%
X108458000Y-100330000D02*
X108458000Y-97345000D01*
X99568000Y-109220000D02*
X108458000Y-100330000D01*
%TO.N,Net-(R25-Pad2)*%
X106426000Y-109220000D02*
X110998000Y-104648000D01*
X110998000Y-104648000D02*
X110998000Y-97345000D01*
%TD*%
M02*
