%TF.GenerationSoftware,KiCad,Pcbnew,6.0.7-f9a2dced07~116~ubuntu22.04.1*%
%TF.CreationDate,2022-07-29T17:46:26-04:00*%
%TF.ProjectId,minimoog_LPF,6d696e69-6d6f-46f6-975f-4c50462e6b69,0.1*%
%TF.SameCoordinates,Original*%
%TF.FileFunction,Soldermask,Bot*%
%TF.FilePolarity,Negative*%
%FSLAX46Y46*%
G04 Gerber Fmt 4.6, Leading zero omitted, Abs format (unit mm)*
G04 Created by KiCad (PCBNEW 6.0.7-f9a2dced07~116~ubuntu22.04.1) date 2022-07-29 17:46:26*
%MOMM*%
%LPD*%
G01*
G04 APERTURE LIST*
G04 Aperture macros list*
%AMRoundRect*
0 Rectangle with rounded corners*
0 $1 Rounding radius*
0 $2 $3 $4 $5 $6 $7 $8 $9 X,Y pos of 4 corners*
0 Add a 4 corners polygon primitive as box body*
4,1,4,$2,$3,$4,$5,$6,$7,$8,$9,$2,$3,0*
0 Add four circle primitives for the rounded corners*
1,1,$1+$1,$2,$3*
1,1,$1+$1,$4,$5*
1,1,$1+$1,$6,$7*
1,1,$1+$1,$8,$9*
0 Add four rect primitives between the rounded corners*
20,1,$1+$1,$2,$3,$4,$5,0*
20,1,$1+$1,$4,$5,$6,$7,0*
20,1,$1+$1,$6,$7,$8,$9,0*
20,1,$1+$1,$8,$9,$2,$3,0*%
G04 Aperture macros list end*
%ADD10RoundRect,0.051000X-0.800000X0.800000X-0.800000X-0.800000X0.800000X-0.800000X0.800000X0.800000X0*%
%ADD11C,1.702000*%
%ADD12C,1.542000*%
%ADD13RoundRect,0.051000X0.850000X0.850000X-0.850000X0.850000X-0.850000X-0.850000X0.850000X-0.850000X0*%
%ADD14O,1.802000X1.802000*%
%ADD15C,0.902000*%
G04 APERTURE END LIST*
D10*
%TO.C,C8*%
X140335000Y-104140000D03*
D11*
X140335000Y-106640000D03*
%TD*%
D10*
%TO.C,C11*%
X170180000Y-96607621D03*
D11*
X170180000Y-99107621D03*
%TD*%
D10*
%TO.C,C7*%
X126365000Y-98512621D03*
D11*
X126365000Y-101012621D03*
%TD*%
D12*
%TO.C,RV1*%
X127635000Y-120015000D03*
X127635000Y-117475000D03*
X127635000Y-114935000D03*
%TD*%
D11*
%TO.C,C9*%
X171450000Y-83860000D03*
X171450000Y-88860000D03*
%TD*%
D10*
%TO.C,C2*%
X126365000Y-88987621D03*
D11*
X126365000Y-91487621D03*
%TD*%
D10*
%TO.C,C13*%
X170180000Y-117475000D03*
D11*
X170180000Y-119975000D03*
%TD*%
D10*
%TO.C,C14*%
X170180000Y-110490000D03*
D11*
X170180000Y-112990000D03*
%TD*%
D12*
%TO.C,RV2*%
X133985000Y-120015000D03*
X133985000Y-117475000D03*
X133985000Y-114935000D03*
%TD*%
%TO.C,RV3*%
X140335000Y-120015000D03*
X140335000Y-117475000D03*
X140335000Y-114935000D03*
%TD*%
D11*
%TO.C,C10*%
X167005000Y-83860000D03*
X167005000Y-88860000D03*
%TD*%
D13*
%TO.C,J1*%
X122555000Y-76200000D03*
D14*
X122555000Y-78740000D03*
X122555000Y-81280000D03*
X122555000Y-83820000D03*
%TD*%
D13*
%TO.C,J2*%
X122555000Y-114300000D03*
D14*
X122555000Y-116840000D03*
X122555000Y-119380000D03*
X122555000Y-121920000D03*
%TD*%
D13*
%TO.C,J3*%
X175895000Y-76200000D03*
D14*
X175895000Y-78740000D03*
X175895000Y-81280000D03*
X175895000Y-83820000D03*
%TD*%
D13*
%TO.C,J4*%
X175895000Y-104140000D03*
D14*
X175895000Y-106680000D03*
X175895000Y-109220000D03*
X175895000Y-111760000D03*
X175895000Y-114300000D03*
X175895000Y-116840000D03*
X175895000Y-119380000D03*
X175895000Y-121920000D03*
%TD*%
D15*
X146685000Y-93980000D03*
X145796000Y-108204000D03*
X165735000Y-119380000D03*
X175895000Y-98425000D03*
X151765000Y-76200000D03*
X172720000Y-92710000D03*
X122555000Y-93980000D03*
X122555000Y-102870000D03*
X131445000Y-93980000D03*
X152146000Y-109220000D03*
X153416000Y-115316000D03*
X146685000Y-100965000D03*
X131445000Y-78740000D03*
X130810000Y-102870000D03*
X134112000Y-89408000D03*
X161925000Y-76200000D03*
X157988000Y-117856000D03*
X155194000Y-121158000D03*
X166370000Y-105410000D03*
X159766000Y-108204000D03*
X140970000Y-93980000D03*
X127635000Y-83185000D03*
X152908000Y-102108000D03*
X140970000Y-89408000D03*
X146685000Y-89535000D03*
X140970000Y-99060000D03*
X166370000Y-100965000D03*
X123825000Y-109220000D03*
X158750000Y-100965000D03*
X157226000Y-87122000D03*
X136398000Y-106172000D03*
X166116000Y-94488000D03*
X130810000Y-109220000D03*
X144018000Y-76200000D03*
X160020000Y-83566000D03*
X152654000Y-123444000D03*
X152908000Y-121412000D03*
X164084000Y-85852000D03*
X164338000Y-96774000D03*
X165862000Y-113284000D03*
X164084000Y-89408000D03*
X164338000Y-82042000D03*
X164338000Y-110998000D03*
X135890000Y-102870000D03*
X146335500Y-103409500D03*
X143256000Y-91440000D03*
X162560000Y-106934000D03*
X145034000Y-99060000D03*
X147320000Y-107696000D03*
X147574000Y-116586000D03*
X163576000Y-94742000D03*
X160289000Y-91425000D03*
X150622000Y-116332000D03*
X148590000Y-108458000D03*
X157226000Y-110744000D03*
X160020000Y-117094000D03*
X140970000Y-83566000D03*
X142748000Y-86614000D03*
X150844000Y-83534000D03*
X149098000Y-86614000D03*
X137922000Y-82550000D03*
X135636000Y-86614000D03*
X155448000Y-86614000D03*
X153924000Y-83756000D03*
X163322000Y-82791500D03*
X163068000Y-86360000D03*
X158750000Y-92710000D03*
X155956000Y-96012000D03*
M02*
