%TF.GenerationSoftware,KiCad,Pcbnew,6.0.7-f9a2dced07~116~ubuntu22.04.1*%
%TF.CreationDate,2022-07-29T17:46:26-04:00*%
%TF.ProjectId,minimoog_LPF,6d696e69-6d6f-46f6-975f-4c50462e6b69,0.1*%
%TF.SameCoordinates,Original*%
%TF.FileFunction,Legend,Top*%
%TF.FilePolarity,Positive*%
%FSLAX46Y46*%
G04 Gerber Fmt 4.6, Leading zero omitted, Abs format (unit mm)*
G04 Created by KiCad (PCBNEW 6.0.7-f9a2dced07~116~ubuntu22.04.1) date 2022-07-29 17:46:26*
%MOMM*%
%LPD*%
G01*
G04 APERTURE LIST*
G04 Aperture macros list*
%AMRoundRect*
0 Rectangle with rounded corners*
0 $1 Rounding radius*
0 $2 $3 $4 $5 $6 $7 $8 $9 X,Y pos of 4 corners*
0 Add a 4 corners polygon primitive as box body*
4,1,4,$2,$3,$4,$5,$6,$7,$8,$9,$2,$3,0*
0 Add four circle primitives for the rounded corners*
1,1,$1+$1,$2,$3*
1,1,$1+$1,$4,$5*
1,1,$1+$1,$6,$7*
1,1,$1+$1,$8,$9*
0 Add four rect primitives between the rounded corners*
20,1,$1+$1,$2,$3,$4,$5,0*
20,1,$1+$1,$4,$5,$6,$7,0*
20,1,$1+$1,$6,$7,$8,$9,0*
20,1,$1+$1,$8,$9,$2,$3,0*%
G04 Aperture macros list end*
%ADD10C,0.150000*%
%ADD11C,0.120000*%
%ADD12RoundRect,0.051000X-0.800000X0.800000X-0.800000X-0.800000X0.800000X-0.800000X0.800000X0.800000X0*%
%ADD13C,1.702000*%
%ADD14RoundRect,0.276000X-0.250000X0.225000X-0.250000X-0.225000X0.250000X-0.225000X0.250000X0.225000X0*%
%ADD15RoundRect,0.276000X0.225000X0.250000X-0.225000X0.250000X-0.225000X-0.250000X0.225000X-0.250000X0*%
%ADD16RoundRect,0.251000X-0.200000X-0.275000X0.200000X-0.275000X0.200000X0.275000X-0.200000X0.275000X0*%
%ADD17RoundRect,0.051000X-0.200000X0.325000X-0.200000X-0.325000X0.200000X-0.325000X0.200000X0.325000X0*%
%ADD18RoundRect,0.251000X0.200000X0.275000X-0.200000X0.275000X-0.200000X-0.275000X0.200000X-0.275000X0*%
%ADD19RoundRect,0.201000X-0.150000X0.825000X-0.150000X-0.825000X0.150000X-0.825000X0.150000X0.825000X0*%
%ADD20C,1.542000*%
%ADD21RoundRect,0.276000X-0.225000X-0.250000X0.225000X-0.250000X0.225000X0.250000X-0.225000X0.250000X0*%
%ADD22RoundRect,0.301000X-0.475000X0.250000X-0.475000X-0.250000X0.475000X-0.250000X0.475000X0.250000X0*%
%ADD23RoundRect,0.201000X0.587500X0.150000X-0.587500X0.150000X-0.587500X-0.150000X0.587500X-0.150000X0*%
%ADD24RoundRect,0.301000X0.475000X-0.250000X0.475000X0.250000X-0.475000X0.250000X-0.475000X-0.250000X0*%
%ADD25RoundRect,0.051000X-0.255000X0.550000X-0.255000X-0.550000X0.255000X-0.550000X0.255000X0.550000X0*%
%ADD26RoundRect,0.051000X0.850000X0.850000X-0.850000X0.850000X-0.850000X-0.850000X0.850000X-0.850000X0*%
%ADD27O,1.802000X1.802000*%
%ADD28C,0.902000*%
G04 APERTURE END LIST*
D10*
X132318333Y-123594761D02*
X132223095Y-123642380D01*
X132032619Y-123642380D01*
X131937380Y-123594761D01*
X131889761Y-123547142D01*
X131842142Y-123451904D01*
X131842142Y-123166190D01*
X131889761Y-123070952D01*
X131937380Y-123023333D01*
X132032619Y-122975714D01*
X132223095Y-122975714D01*
X132318333Y-123023333D01*
X133127857Y-123594761D02*
X133032619Y-123642380D01*
X132842142Y-123642380D01*
X132746904Y-123594761D01*
X132699285Y-123499523D01*
X132699285Y-123118571D01*
X132746904Y-123023333D01*
X132842142Y-122975714D01*
X133032619Y-122975714D01*
X133127857Y-123023333D01*
X133175476Y-123118571D01*
X133175476Y-123213809D01*
X132699285Y-123309047D01*
X133604047Y-122975714D02*
X133604047Y-123642380D01*
X133604047Y-123070952D02*
X133651666Y-123023333D01*
X133746904Y-122975714D01*
X133889761Y-122975714D01*
X133985000Y-123023333D01*
X134032619Y-123118571D01*
X134032619Y-123642380D01*
X134365952Y-122975714D02*
X134746904Y-122975714D01*
X134508809Y-122642380D02*
X134508809Y-123499523D01*
X134556428Y-123594761D01*
X134651666Y-123642380D01*
X134746904Y-123642380D01*
X135461190Y-123594761D02*
X135365952Y-123642380D01*
X135175476Y-123642380D01*
X135080238Y-123594761D01*
X135032619Y-123499523D01*
X135032619Y-123118571D01*
X135080238Y-123023333D01*
X135175476Y-122975714D01*
X135365952Y-122975714D01*
X135461190Y-123023333D01*
X135508809Y-123118571D01*
X135508809Y-123213809D01*
X135032619Y-123309047D01*
X135937380Y-123642380D02*
X135937380Y-122975714D01*
X135937380Y-123166190D02*
X135985000Y-123070952D01*
X136032619Y-123023333D01*
X136127857Y-122975714D01*
X136223095Y-122975714D01*
X126230238Y-123642380D02*
X126230238Y-122642380D01*
X126230238Y-123594761D02*
X126135000Y-123642380D01*
X125944523Y-123642380D01*
X125849285Y-123594761D01*
X125801666Y-123547142D01*
X125754047Y-123451904D01*
X125754047Y-123166190D01*
X125801666Y-123070952D01*
X125849285Y-123023333D01*
X125944523Y-122975714D01*
X126135000Y-122975714D01*
X126230238Y-123023333D01*
X127087380Y-123594761D02*
X126992142Y-123642380D01*
X126801666Y-123642380D01*
X126706428Y-123594761D01*
X126658809Y-123499523D01*
X126658809Y-123118571D01*
X126706428Y-123023333D01*
X126801666Y-122975714D01*
X126992142Y-122975714D01*
X127087380Y-123023333D01*
X127135000Y-123118571D01*
X127135000Y-123213809D01*
X126658809Y-123309047D01*
X127563571Y-122975714D02*
X127563571Y-123975714D01*
X127563571Y-123023333D02*
X127658809Y-122975714D01*
X127849285Y-122975714D01*
X127944523Y-123023333D01*
X127992142Y-123070952D01*
X128039761Y-123166190D01*
X128039761Y-123451904D01*
X127992142Y-123547142D01*
X127944523Y-123594761D01*
X127849285Y-123642380D01*
X127658809Y-123642380D01*
X127563571Y-123594761D01*
X128325476Y-122975714D02*
X128706428Y-122975714D01*
X128468333Y-122642380D02*
X128468333Y-123499523D01*
X128515952Y-123594761D01*
X128611190Y-123642380D01*
X128706428Y-123642380D01*
X129039761Y-123642380D02*
X129039761Y-122642380D01*
X129468333Y-123642380D02*
X129468333Y-123118571D01*
X129420714Y-123023333D01*
X129325476Y-122975714D01*
X129182619Y-122975714D01*
X129087380Y-123023333D01*
X129039761Y-123070952D01*
X137096904Y-122975714D02*
X137477857Y-122975714D01*
X137239761Y-123642380D02*
X137239761Y-122785238D01*
X137287380Y-122690000D01*
X137382619Y-122642380D01*
X137477857Y-122642380D01*
X138192142Y-123594761D02*
X138096904Y-123642380D01*
X137906428Y-123642380D01*
X137811190Y-123594761D01*
X137763571Y-123499523D01*
X137763571Y-123118571D01*
X137811190Y-123023333D01*
X137906428Y-122975714D01*
X138096904Y-122975714D01*
X138192142Y-123023333D01*
X138239761Y-123118571D01*
X138239761Y-123213809D01*
X137763571Y-123309047D01*
X139049285Y-123594761D02*
X138954047Y-123642380D01*
X138763571Y-123642380D01*
X138668333Y-123594761D01*
X138620714Y-123499523D01*
X138620714Y-123118571D01*
X138668333Y-123023333D01*
X138763571Y-122975714D01*
X138954047Y-122975714D01*
X139049285Y-123023333D01*
X139096904Y-123118571D01*
X139096904Y-123213809D01*
X138620714Y-123309047D01*
X139954047Y-123642380D02*
X139954047Y-122642380D01*
X139954047Y-123594761D02*
X139858809Y-123642380D01*
X139668333Y-123642380D01*
X139573095Y-123594761D01*
X139525476Y-123547142D01*
X139477857Y-123451904D01*
X139477857Y-123166190D01*
X139525476Y-123070952D01*
X139573095Y-123023333D01*
X139668333Y-122975714D01*
X139858809Y-122975714D01*
X139954047Y-123023333D01*
X140430238Y-123642380D02*
X140430238Y-122642380D01*
X140430238Y-123023333D02*
X140525476Y-122975714D01*
X140715952Y-122975714D01*
X140811190Y-123023333D01*
X140858809Y-123070952D01*
X140906428Y-123166190D01*
X140906428Y-123451904D01*
X140858809Y-123547142D01*
X140811190Y-123594761D01*
X140715952Y-123642380D01*
X140525476Y-123642380D01*
X140430238Y-123594761D01*
X141763571Y-123642380D02*
X141763571Y-123118571D01*
X141715952Y-123023333D01*
X141620714Y-122975714D01*
X141430238Y-122975714D01*
X141335000Y-123023333D01*
X141763571Y-123594761D02*
X141668333Y-123642380D01*
X141430238Y-123642380D01*
X141335000Y-123594761D01*
X141287380Y-123499523D01*
X141287380Y-123404285D01*
X141335000Y-123309047D01*
X141430238Y-123261428D01*
X141668333Y-123261428D01*
X141763571Y-123213809D01*
X142668333Y-123594761D02*
X142573095Y-123642380D01*
X142382619Y-123642380D01*
X142287380Y-123594761D01*
X142239761Y-123547142D01*
X142192142Y-123451904D01*
X142192142Y-123166190D01*
X142239761Y-123070952D01*
X142287380Y-123023333D01*
X142382619Y-122975714D01*
X142573095Y-122975714D01*
X142668333Y-123023333D01*
X143096904Y-123642380D02*
X143096904Y-122642380D01*
X143192142Y-123261428D02*
X143477857Y-123642380D01*
X143477857Y-122975714D02*
X143096904Y-123356666D01*
%TO.C,C8*%
X140295333Y-101703142D02*
X140247714Y-101750761D01*
X140104857Y-101798380D01*
X140009619Y-101798380D01*
X139866761Y-101750761D01*
X139771523Y-101655523D01*
X139723904Y-101560285D01*
X139676285Y-101369809D01*
X139676285Y-101226952D01*
X139723904Y-101036476D01*
X139771523Y-100941238D01*
X139866761Y-100846000D01*
X140009619Y-100798380D01*
X140104857Y-100798380D01*
X140247714Y-100846000D01*
X140295333Y-100893619D01*
X140866761Y-101226952D02*
X140771523Y-101179333D01*
X140723904Y-101131714D01*
X140676285Y-101036476D01*
X140676285Y-100988857D01*
X140723904Y-100893619D01*
X140771523Y-100846000D01*
X140866761Y-100798380D01*
X141057238Y-100798380D01*
X141152476Y-100846000D01*
X141200095Y-100893619D01*
X141247714Y-100988857D01*
X141247714Y-101036476D01*
X141200095Y-101131714D01*
X141152476Y-101179333D01*
X141057238Y-101226952D01*
X140866761Y-101226952D01*
X140771523Y-101274571D01*
X140723904Y-101322190D01*
X140676285Y-101417428D01*
X140676285Y-101607904D01*
X140723904Y-101703142D01*
X140771523Y-101750761D01*
X140866761Y-101798380D01*
X141057238Y-101798380D01*
X141152476Y-101750761D01*
X141200095Y-101703142D01*
X141247714Y-101607904D01*
X141247714Y-101417428D01*
X141200095Y-101322190D01*
X141152476Y-101274571D01*
X141057238Y-101226952D01*
%TO.C,C16*%
X165219142Y-107291142D02*
X165171523Y-107338761D01*
X165028666Y-107386380D01*
X164933428Y-107386380D01*
X164790571Y-107338761D01*
X164695333Y-107243523D01*
X164647714Y-107148285D01*
X164600095Y-106957809D01*
X164600095Y-106814952D01*
X164647714Y-106624476D01*
X164695333Y-106529238D01*
X164790571Y-106434000D01*
X164933428Y-106386380D01*
X165028666Y-106386380D01*
X165171523Y-106434000D01*
X165219142Y-106481619D01*
X166171523Y-107386380D02*
X165600095Y-107386380D01*
X165885809Y-107386380D02*
X165885809Y-106386380D01*
X165790571Y-106529238D01*
X165695333Y-106624476D01*
X165600095Y-106672095D01*
X167028666Y-106386380D02*
X166838190Y-106386380D01*
X166742952Y-106434000D01*
X166695333Y-106481619D01*
X166600095Y-106624476D01*
X166552476Y-106814952D01*
X166552476Y-107195904D01*
X166600095Y-107291142D01*
X166647714Y-107338761D01*
X166742952Y-107386380D01*
X166933428Y-107386380D01*
X167028666Y-107338761D01*
X167076285Y-107291142D01*
X167123904Y-107195904D01*
X167123904Y-106957809D01*
X167076285Y-106862571D01*
X167028666Y-106814952D01*
X166933428Y-106767333D01*
X166742952Y-106767333D01*
X166647714Y-106814952D01*
X166600095Y-106862571D01*
X166552476Y-106957809D01*
%TO.C,C23*%
X161282142Y-118467142D02*
X161234523Y-118514761D01*
X161091666Y-118562380D01*
X160996428Y-118562380D01*
X160853571Y-118514761D01*
X160758333Y-118419523D01*
X160710714Y-118324285D01*
X160663095Y-118133809D01*
X160663095Y-117990952D01*
X160710714Y-117800476D01*
X160758333Y-117705238D01*
X160853571Y-117610000D01*
X160996428Y-117562380D01*
X161091666Y-117562380D01*
X161234523Y-117610000D01*
X161282142Y-117657619D01*
X161663095Y-117657619D02*
X161710714Y-117610000D01*
X161805952Y-117562380D01*
X162044047Y-117562380D01*
X162139285Y-117610000D01*
X162186904Y-117657619D01*
X162234523Y-117752857D01*
X162234523Y-117848095D01*
X162186904Y-117990952D01*
X161615476Y-118562380D01*
X162234523Y-118562380D01*
X162567857Y-117562380D02*
X163186904Y-117562380D01*
X162853571Y-117943333D01*
X162996428Y-117943333D01*
X163091666Y-117990952D01*
X163139285Y-118038571D01*
X163186904Y-118133809D01*
X163186904Y-118371904D01*
X163139285Y-118467142D01*
X163091666Y-118514761D01*
X162996428Y-118562380D01*
X162710714Y-118562380D01*
X162615476Y-118514761D01*
X162567857Y-118467142D01*
%TO.C,R2*%
X127468333Y-105702380D02*
X127135000Y-105226190D01*
X126896904Y-105702380D02*
X126896904Y-104702380D01*
X127277857Y-104702380D01*
X127373095Y-104750000D01*
X127420714Y-104797619D01*
X127468333Y-104892857D01*
X127468333Y-105035714D01*
X127420714Y-105130952D01*
X127373095Y-105178571D01*
X127277857Y-105226190D01*
X126896904Y-105226190D01*
X127849285Y-104797619D02*
X127896904Y-104750000D01*
X127992142Y-104702380D01*
X128230238Y-104702380D01*
X128325476Y-104750000D01*
X128373095Y-104797619D01*
X128420714Y-104892857D01*
X128420714Y-104988095D01*
X128373095Y-105130952D01*
X127801666Y-105702380D01*
X128420714Y-105702380D01*
%TO.C,Q9*%
X156749761Y-91987619D02*
X156654523Y-91940000D01*
X156559285Y-91844761D01*
X156416428Y-91701904D01*
X156321190Y-91654285D01*
X156225952Y-91654285D01*
X156273571Y-91892380D02*
X156178333Y-91844761D01*
X156083095Y-91749523D01*
X156035476Y-91559047D01*
X156035476Y-91225714D01*
X156083095Y-91035238D01*
X156178333Y-90940000D01*
X156273571Y-90892380D01*
X156464047Y-90892380D01*
X156559285Y-90940000D01*
X156654523Y-91035238D01*
X156702142Y-91225714D01*
X156702142Y-91559047D01*
X156654523Y-91749523D01*
X156559285Y-91844761D01*
X156464047Y-91892380D01*
X156273571Y-91892380D01*
X157178333Y-91892380D02*
X157368809Y-91892380D01*
X157464047Y-91844761D01*
X157511666Y-91797142D01*
X157606904Y-91654285D01*
X157654523Y-91463809D01*
X157654523Y-91082857D01*
X157606904Y-90987619D01*
X157559285Y-90940000D01*
X157464047Y-90892380D01*
X157273571Y-90892380D01*
X157178333Y-90940000D01*
X157130714Y-90987619D01*
X157083095Y-91082857D01*
X157083095Y-91320952D01*
X157130714Y-91416190D01*
X157178333Y-91463809D01*
X157273571Y-91511428D01*
X157464047Y-91511428D01*
X157559285Y-91463809D01*
X157606904Y-91416190D01*
X157654523Y-91320952D01*
%TO.C,C11*%
X169537142Y-94083142D02*
X169489523Y-94130761D01*
X169346666Y-94178380D01*
X169251428Y-94178380D01*
X169108571Y-94130761D01*
X169013333Y-94035523D01*
X168965714Y-93940285D01*
X168918095Y-93749809D01*
X168918095Y-93606952D01*
X168965714Y-93416476D01*
X169013333Y-93321238D01*
X169108571Y-93226000D01*
X169251428Y-93178380D01*
X169346666Y-93178380D01*
X169489523Y-93226000D01*
X169537142Y-93273619D01*
X170489523Y-94178380D02*
X169918095Y-94178380D01*
X170203809Y-94178380D02*
X170203809Y-93178380D01*
X170108571Y-93321238D01*
X170013333Y-93416476D01*
X169918095Y-93464095D01*
X171441904Y-94178380D02*
X170870476Y-94178380D01*
X171156190Y-94178380D02*
X171156190Y-93178380D01*
X171060952Y-93321238D01*
X170965714Y-93416476D01*
X170870476Y-93464095D01*
%TO.C,R7*%
X141438333Y-79192380D02*
X141105000Y-78716190D01*
X140866904Y-79192380D02*
X140866904Y-78192380D01*
X141247857Y-78192380D01*
X141343095Y-78240000D01*
X141390714Y-78287619D01*
X141438333Y-78382857D01*
X141438333Y-78525714D01*
X141390714Y-78620952D01*
X141343095Y-78668571D01*
X141247857Y-78716190D01*
X140866904Y-78716190D01*
X141771666Y-78192380D02*
X142438333Y-78192380D01*
X142009761Y-79192380D01*
%TO.C,U1*%
X163518095Y-112197380D02*
X163518095Y-113006904D01*
X163565714Y-113102142D01*
X163613333Y-113149761D01*
X163708571Y-113197380D01*
X163899047Y-113197380D01*
X163994285Y-113149761D01*
X164041904Y-113102142D01*
X164089523Y-113006904D01*
X164089523Y-112197380D01*
X165089523Y-113197380D02*
X164518095Y-113197380D01*
X164803809Y-113197380D02*
X164803809Y-112197380D01*
X164708571Y-112340238D01*
X164613333Y-112435476D01*
X164518095Y-112483095D01*
%TO.C,Q5*%
X149002761Y-82716619D02*
X148907523Y-82669000D01*
X148812285Y-82573761D01*
X148669428Y-82430904D01*
X148574190Y-82383285D01*
X148478952Y-82383285D01*
X148526571Y-82621380D02*
X148431333Y-82573761D01*
X148336095Y-82478523D01*
X148288476Y-82288047D01*
X148288476Y-81954714D01*
X148336095Y-81764238D01*
X148431333Y-81669000D01*
X148526571Y-81621380D01*
X148717047Y-81621380D01*
X148812285Y-81669000D01*
X148907523Y-81764238D01*
X148955142Y-81954714D01*
X148955142Y-82288047D01*
X148907523Y-82478523D01*
X148812285Y-82573761D01*
X148717047Y-82621380D01*
X148526571Y-82621380D01*
X149859904Y-81621380D02*
X149383714Y-81621380D01*
X149336095Y-82097571D01*
X149383714Y-82049952D01*
X149478952Y-82002333D01*
X149717047Y-82002333D01*
X149812285Y-82049952D01*
X149859904Y-82097571D01*
X149907523Y-82192809D01*
X149907523Y-82430904D01*
X149859904Y-82526142D01*
X149812285Y-82573761D01*
X149717047Y-82621380D01*
X149478952Y-82621380D01*
X149383714Y-82573761D01*
X149336095Y-82526142D01*
%TO.C,C7*%
X126071333Y-96115142D02*
X126023714Y-96162761D01*
X125880857Y-96210380D01*
X125785619Y-96210380D01*
X125642761Y-96162761D01*
X125547523Y-96067523D01*
X125499904Y-95972285D01*
X125452285Y-95781809D01*
X125452285Y-95638952D01*
X125499904Y-95448476D01*
X125547523Y-95353238D01*
X125642761Y-95258000D01*
X125785619Y-95210380D01*
X125880857Y-95210380D01*
X126023714Y-95258000D01*
X126071333Y-95305619D01*
X126404666Y-95210380D02*
X127071333Y-95210380D01*
X126642761Y-96210380D01*
%TO.C,C17*%
X164711142Y-117959142D02*
X164663523Y-118006761D01*
X164520666Y-118054380D01*
X164425428Y-118054380D01*
X164282571Y-118006761D01*
X164187333Y-117911523D01*
X164139714Y-117816285D01*
X164092095Y-117625809D01*
X164092095Y-117482952D01*
X164139714Y-117292476D01*
X164187333Y-117197238D01*
X164282571Y-117102000D01*
X164425428Y-117054380D01*
X164520666Y-117054380D01*
X164663523Y-117102000D01*
X164711142Y-117149619D01*
X165663523Y-118054380D02*
X165092095Y-118054380D01*
X165377809Y-118054380D02*
X165377809Y-117054380D01*
X165282571Y-117197238D01*
X165187333Y-117292476D01*
X165092095Y-117340095D01*
X165996857Y-117054380D02*
X166663523Y-117054380D01*
X166234952Y-118054380D01*
%TO.C,R16*%
X157472142Y-88717380D02*
X157138809Y-88241190D01*
X156900714Y-88717380D02*
X156900714Y-87717380D01*
X157281666Y-87717380D01*
X157376904Y-87765000D01*
X157424523Y-87812619D01*
X157472142Y-87907857D01*
X157472142Y-88050714D01*
X157424523Y-88145952D01*
X157376904Y-88193571D01*
X157281666Y-88241190D01*
X156900714Y-88241190D01*
X158424523Y-88717380D02*
X157853095Y-88717380D01*
X158138809Y-88717380D02*
X158138809Y-87717380D01*
X158043571Y-87860238D01*
X157948333Y-87955476D01*
X157853095Y-88003095D01*
X159281666Y-87717380D02*
X159091190Y-87717380D01*
X158995952Y-87765000D01*
X158948333Y-87812619D01*
X158853095Y-87955476D01*
X158805476Y-88145952D01*
X158805476Y-88526904D01*
X158853095Y-88622142D01*
X158900714Y-88669761D01*
X158995952Y-88717380D01*
X159186428Y-88717380D01*
X159281666Y-88669761D01*
X159329285Y-88622142D01*
X159376904Y-88526904D01*
X159376904Y-88288809D01*
X159329285Y-88193571D01*
X159281666Y-88145952D01*
X159186428Y-88098333D01*
X158995952Y-88098333D01*
X158900714Y-88145952D01*
X158853095Y-88193571D01*
X158805476Y-88288809D01*
%TO.C,RV1*%
X127034761Y-112212380D02*
X126701428Y-111736190D01*
X126463333Y-112212380D02*
X126463333Y-111212380D01*
X126844285Y-111212380D01*
X126939523Y-111260000D01*
X126987142Y-111307619D01*
X127034761Y-111402857D01*
X127034761Y-111545714D01*
X126987142Y-111640952D01*
X126939523Y-111688571D01*
X126844285Y-111736190D01*
X126463333Y-111736190D01*
X127320476Y-111212380D02*
X127653809Y-112212380D01*
X127987142Y-111212380D01*
X128844285Y-112212380D02*
X128272857Y-112212380D01*
X128558571Y-112212380D02*
X128558571Y-111212380D01*
X128463333Y-111355238D01*
X128368095Y-111450476D01*
X128272857Y-111498095D01*
%TO.C,R4*%
X133818333Y-101892380D02*
X133485000Y-101416190D01*
X133246904Y-101892380D02*
X133246904Y-100892380D01*
X133627857Y-100892380D01*
X133723095Y-100940000D01*
X133770714Y-100987619D01*
X133818333Y-101082857D01*
X133818333Y-101225714D01*
X133770714Y-101320952D01*
X133723095Y-101368571D01*
X133627857Y-101416190D01*
X133246904Y-101416190D01*
X134675476Y-101225714D02*
X134675476Y-101892380D01*
X134437380Y-100844761D02*
X134199285Y-101559047D01*
X134818333Y-101559047D01*
%TO.C,C18*%
X153535142Y-108815142D02*
X153487523Y-108862761D01*
X153344666Y-108910380D01*
X153249428Y-108910380D01*
X153106571Y-108862761D01*
X153011333Y-108767523D01*
X152963714Y-108672285D01*
X152916095Y-108481809D01*
X152916095Y-108338952D01*
X152963714Y-108148476D01*
X153011333Y-108053238D01*
X153106571Y-107958000D01*
X153249428Y-107910380D01*
X153344666Y-107910380D01*
X153487523Y-107958000D01*
X153535142Y-108005619D01*
X154487523Y-108910380D02*
X153916095Y-108910380D01*
X154201809Y-108910380D02*
X154201809Y-107910380D01*
X154106571Y-108053238D01*
X154011333Y-108148476D01*
X153916095Y-108196095D01*
X155058952Y-108338952D02*
X154963714Y-108291333D01*
X154916095Y-108243714D01*
X154868476Y-108148476D01*
X154868476Y-108100857D01*
X154916095Y-108005619D01*
X154963714Y-107958000D01*
X155058952Y-107910380D01*
X155249428Y-107910380D01*
X155344666Y-107958000D01*
X155392285Y-108005619D01*
X155439904Y-108100857D01*
X155439904Y-108148476D01*
X155392285Y-108243714D01*
X155344666Y-108291333D01*
X155249428Y-108338952D01*
X155058952Y-108338952D01*
X154963714Y-108386571D01*
X154916095Y-108434190D01*
X154868476Y-108529428D01*
X154868476Y-108719904D01*
X154916095Y-108815142D01*
X154963714Y-108862761D01*
X155058952Y-108910380D01*
X155249428Y-108910380D01*
X155344666Y-108862761D01*
X155392285Y-108815142D01*
X155439904Y-108719904D01*
X155439904Y-108529428D01*
X155392285Y-108434190D01*
X155344666Y-108386571D01*
X155249428Y-108338952D01*
%TO.C,R22*%
X157472142Y-97607380D02*
X157138809Y-97131190D01*
X156900714Y-97607380D02*
X156900714Y-96607380D01*
X157281666Y-96607380D01*
X157376904Y-96655000D01*
X157424523Y-96702619D01*
X157472142Y-96797857D01*
X157472142Y-96940714D01*
X157424523Y-97035952D01*
X157376904Y-97083571D01*
X157281666Y-97131190D01*
X156900714Y-97131190D01*
X157853095Y-96702619D02*
X157900714Y-96655000D01*
X157995952Y-96607380D01*
X158234047Y-96607380D01*
X158329285Y-96655000D01*
X158376904Y-96702619D01*
X158424523Y-96797857D01*
X158424523Y-96893095D01*
X158376904Y-97035952D01*
X157805476Y-97607380D01*
X158424523Y-97607380D01*
X158805476Y-96702619D02*
X158853095Y-96655000D01*
X158948333Y-96607380D01*
X159186428Y-96607380D01*
X159281666Y-96655000D01*
X159329285Y-96702619D01*
X159376904Y-96797857D01*
X159376904Y-96893095D01*
X159329285Y-97035952D01*
X158757857Y-97607380D01*
X159376904Y-97607380D01*
%TO.C,C9*%
X171283333Y-82272142D02*
X171235714Y-82319761D01*
X171092857Y-82367380D01*
X170997619Y-82367380D01*
X170854761Y-82319761D01*
X170759523Y-82224523D01*
X170711904Y-82129285D01*
X170664285Y-81938809D01*
X170664285Y-81795952D01*
X170711904Y-81605476D01*
X170759523Y-81510238D01*
X170854761Y-81415000D01*
X170997619Y-81367380D01*
X171092857Y-81367380D01*
X171235714Y-81415000D01*
X171283333Y-81462619D01*
X171759523Y-82367380D02*
X171950000Y-82367380D01*
X172045238Y-82319761D01*
X172092857Y-82272142D01*
X172188095Y-82129285D01*
X172235714Y-81938809D01*
X172235714Y-81557857D01*
X172188095Y-81462619D01*
X172140476Y-81415000D01*
X172045238Y-81367380D01*
X171854761Y-81367380D01*
X171759523Y-81415000D01*
X171711904Y-81462619D01*
X171664285Y-81557857D01*
X171664285Y-81795952D01*
X171711904Y-81891190D01*
X171759523Y-81938809D01*
X171854761Y-81986428D01*
X172045238Y-81986428D01*
X172140476Y-81938809D01*
X172188095Y-81891190D01*
X172235714Y-81795952D01*
%TO.C,C2*%
X126285954Y-86169763D02*
X126238335Y-86217382D01*
X126095478Y-86265001D01*
X126000240Y-86265001D01*
X125857382Y-86217382D01*
X125762144Y-86122144D01*
X125714525Y-86026906D01*
X125666906Y-85836430D01*
X125666906Y-85693573D01*
X125714525Y-85503097D01*
X125762144Y-85407859D01*
X125857382Y-85312621D01*
X126000240Y-85265001D01*
X126095478Y-85265001D01*
X126238335Y-85312621D01*
X126285954Y-85360240D01*
X126666906Y-85360240D02*
X126714525Y-85312621D01*
X126809763Y-85265001D01*
X127047859Y-85265001D01*
X127143097Y-85312621D01*
X127190716Y-85360240D01*
X127238335Y-85455478D01*
X127238335Y-85550716D01*
X127190716Y-85693573D01*
X126619287Y-86265001D01*
X127238335Y-86265001D01*
%TO.C,C22*%
X153662142Y-104972142D02*
X153614523Y-105019761D01*
X153471666Y-105067380D01*
X153376428Y-105067380D01*
X153233571Y-105019761D01*
X153138333Y-104924523D01*
X153090714Y-104829285D01*
X153043095Y-104638809D01*
X153043095Y-104495952D01*
X153090714Y-104305476D01*
X153138333Y-104210238D01*
X153233571Y-104115000D01*
X153376428Y-104067380D01*
X153471666Y-104067380D01*
X153614523Y-104115000D01*
X153662142Y-104162619D01*
X154043095Y-104162619D02*
X154090714Y-104115000D01*
X154185952Y-104067380D01*
X154424047Y-104067380D01*
X154519285Y-104115000D01*
X154566904Y-104162619D01*
X154614523Y-104257857D01*
X154614523Y-104353095D01*
X154566904Y-104495952D01*
X153995476Y-105067380D01*
X154614523Y-105067380D01*
X154995476Y-104162619D02*
X155043095Y-104115000D01*
X155138333Y-104067380D01*
X155376428Y-104067380D01*
X155471666Y-104115000D01*
X155519285Y-104162619D01*
X155566904Y-104257857D01*
X155566904Y-104353095D01*
X155519285Y-104495952D01*
X154947857Y-105067380D01*
X155566904Y-105067380D01*
%TO.C,R18*%
X161282142Y-97607380D02*
X160948809Y-97131190D01*
X160710714Y-97607380D02*
X160710714Y-96607380D01*
X161091666Y-96607380D01*
X161186904Y-96655000D01*
X161234523Y-96702619D01*
X161282142Y-96797857D01*
X161282142Y-96940714D01*
X161234523Y-97035952D01*
X161186904Y-97083571D01*
X161091666Y-97131190D01*
X160710714Y-97131190D01*
X162234523Y-97607380D02*
X161663095Y-97607380D01*
X161948809Y-97607380D02*
X161948809Y-96607380D01*
X161853571Y-96750238D01*
X161758333Y-96845476D01*
X161663095Y-96893095D01*
X162805952Y-97035952D02*
X162710714Y-96988333D01*
X162663095Y-96940714D01*
X162615476Y-96845476D01*
X162615476Y-96797857D01*
X162663095Y-96702619D01*
X162710714Y-96655000D01*
X162805952Y-96607380D01*
X162996428Y-96607380D01*
X163091666Y-96655000D01*
X163139285Y-96702619D01*
X163186904Y-96797857D01*
X163186904Y-96845476D01*
X163139285Y-96940714D01*
X163091666Y-96988333D01*
X162996428Y-97035952D01*
X162805952Y-97035952D01*
X162710714Y-97083571D01*
X162663095Y-97131190D01*
X162615476Y-97226428D01*
X162615476Y-97416904D01*
X162663095Y-97512142D01*
X162710714Y-97559761D01*
X162805952Y-97607380D01*
X162996428Y-97607380D01*
X163091666Y-97559761D01*
X163139285Y-97512142D01*
X163186904Y-97416904D01*
X163186904Y-97226428D01*
X163139285Y-97131190D01*
X163091666Y-97083571D01*
X162996428Y-97035952D01*
%TO.C,Q4*%
X142652761Y-82716619D02*
X142557523Y-82669000D01*
X142462285Y-82573761D01*
X142319428Y-82430904D01*
X142224190Y-82383285D01*
X142128952Y-82383285D01*
X142176571Y-82621380D02*
X142081333Y-82573761D01*
X141986095Y-82478523D01*
X141938476Y-82288047D01*
X141938476Y-81954714D01*
X141986095Y-81764238D01*
X142081333Y-81669000D01*
X142176571Y-81621380D01*
X142367047Y-81621380D01*
X142462285Y-81669000D01*
X142557523Y-81764238D01*
X142605142Y-81954714D01*
X142605142Y-82288047D01*
X142557523Y-82478523D01*
X142462285Y-82573761D01*
X142367047Y-82621380D01*
X142176571Y-82621380D01*
X143462285Y-81954714D02*
X143462285Y-82621380D01*
X143224190Y-81573761D02*
X142986095Y-82288047D01*
X143605142Y-82288047D01*
%TO.C,R20*%
X161282142Y-88717380D02*
X160948809Y-88241190D01*
X160710714Y-88717380D02*
X160710714Y-87717380D01*
X161091666Y-87717380D01*
X161186904Y-87765000D01*
X161234523Y-87812619D01*
X161282142Y-87907857D01*
X161282142Y-88050714D01*
X161234523Y-88145952D01*
X161186904Y-88193571D01*
X161091666Y-88241190D01*
X160710714Y-88241190D01*
X161663095Y-87812619D02*
X161710714Y-87765000D01*
X161805952Y-87717380D01*
X162044047Y-87717380D01*
X162139285Y-87765000D01*
X162186904Y-87812619D01*
X162234523Y-87907857D01*
X162234523Y-88003095D01*
X162186904Y-88145952D01*
X161615476Y-88717380D01*
X162234523Y-88717380D01*
X162853571Y-87717380D02*
X162948809Y-87717380D01*
X163044047Y-87765000D01*
X163091666Y-87812619D01*
X163139285Y-87907857D01*
X163186904Y-88098333D01*
X163186904Y-88336428D01*
X163139285Y-88526904D01*
X163091666Y-88622142D01*
X163044047Y-88669761D01*
X162948809Y-88717380D01*
X162853571Y-88717380D01*
X162758333Y-88669761D01*
X162710714Y-88622142D01*
X162663095Y-88526904D01*
X162615476Y-88336428D01*
X162615476Y-88098333D01*
X162663095Y-87907857D01*
X162710714Y-87812619D01*
X162758333Y-87765000D01*
X162853571Y-87717380D01*
%TO.C,C6*%
X158456333Y-82526142D02*
X158408714Y-82573761D01*
X158265857Y-82621380D01*
X158170619Y-82621380D01*
X158027761Y-82573761D01*
X157932523Y-82478523D01*
X157884904Y-82383285D01*
X157837285Y-82192809D01*
X157837285Y-82049952D01*
X157884904Y-81859476D01*
X157932523Y-81764238D01*
X158027761Y-81669000D01*
X158170619Y-81621380D01*
X158265857Y-81621380D01*
X158408714Y-81669000D01*
X158456333Y-81716619D01*
X159313476Y-81621380D02*
X159123000Y-81621380D01*
X159027761Y-81669000D01*
X158980142Y-81716619D01*
X158884904Y-81859476D01*
X158837285Y-82049952D01*
X158837285Y-82430904D01*
X158884904Y-82526142D01*
X158932523Y-82573761D01*
X159027761Y-82621380D01*
X159218238Y-82621380D01*
X159313476Y-82573761D01*
X159361095Y-82526142D01*
X159408714Y-82430904D01*
X159408714Y-82192809D01*
X159361095Y-82097571D01*
X159313476Y-82049952D01*
X159218238Y-82002333D01*
X159027761Y-82002333D01*
X158932523Y-82049952D01*
X158884904Y-82097571D01*
X158837285Y-82192809D01*
%TO.C,R30*%
X161282142Y-121661180D02*
X160948809Y-121184990D01*
X160710714Y-121661180D02*
X160710714Y-120661180D01*
X161091666Y-120661180D01*
X161186904Y-120708800D01*
X161234523Y-120756419D01*
X161282142Y-120851657D01*
X161282142Y-120994514D01*
X161234523Y-121089752D01*
X161186904Y-121137371D01*
X161091666Y-121184990D01*
X160710714Y-121184990D01*
X161615476Y-120661180D02*
X162234523Y-120661180D01*
X161901190Y-121042133D01*
X162044047Y-121042133D01*
X162139285Y-121089752D01*
X162186904Y-121137371D01*
X162234523Y-121232609D01*
X162234523Y-121470704D01*
X162186904Y-121565942D01*
X162139285Y-121613561D01*
X162044047Y-121661180D01*
X161758333Y-121661180D01*
X161663095Y-121613561D01*
X161615476Y-121565942D01*
X162853571Y-120661180D02*
X162948809Y-120661180D01*
X163044047Y-120708800D01*
X163091666Y-120756419D01*
X163139285Y-120851657D01*
X163186904Y-121042133D01*
X163186904Y-121280228D01*
X163139285Y-121470704D01*
X163091666Y-121565942D01*
X163044047Y-121613561D01*
X162948809Y-121661180D01*
X162853571Y-121661180D01*
X162758333Y-121613561D01*
X162710714Y-121565942D01*
X162663095Y-121470704D01*
X162615476Y-121280228D01*
X162615476Y-121042133D01*
X162663095Y-120851657D01*
X162710714Y-120756419D01*
X162758333Y-120708800D01*
X162853571Y-120661180D01*
%TO.C,R6*%
X136231333Y-79192380D02*
X135898000Y-78716190D01*
X135659904Y-79192380D02*
X135659904Y-78192380D01*
X136040857Y-78192380D01*
X136136095Y-78240000D01*
X136183714Y-78287619D01*
X136231333Y-78382857D01*
X136231333Y-78525714D01*
X136183714Y-78620952D01*
X136136095Y-78668571D01*
X136040857Y-78716190D01*
X135659904Y-78716190D01*
X137088476Y-78192380D02*
X136898000Y-78192380D01*
X136802761Y-78240000D01*
X136755142Y-78287619D01*
X136659904Y-78430476D01*
X136612285Y-78620952D01*
X136612285Y-79001904D01*
X136659904Y-79097142D01*
X136707523Y-79144761D01*
X136802761Y-79192380D01*
X136993238Y-79192380D01*
X137088476Y-79144761D01*
X137136095Y-79097142D01*
X137183714Y-79001904D01*
X137183714Y-78763809D01*
X137136095Y-78668571D01*
X137088476Y-78620952D01*
X136993238Y-78573333D01*
X136802761Y-78573333D01*
X136707523Y-78620952D01*
X136659904Y-78668571D01*
X136612285Y-78763809D01*
%TO.C,Q1*%
X135794761Y-94019619D02*
X135699523Y-93972000D01*
X135604285Y-93876761D01*
X135461428Y-93733904D01*
X135366190Y-93686285D01*
X135270952Y-93686285D01*
X135318571Y-93924380D02*
X135223333Y-93876761D01*
X135128095Y-93781523D01*
X135080476Y-93591047D01*
X135080476Y-93257714D01*
X135128095Y-93067238D01*
X135223333Y-92972000D01*
X135318571Y-92924380D01*
X135509047Y-92924380D01*
X135604285Y-92972000D01*
X135699523Y-93067238D01*
X135747142Y-93257714D01*
X135747142Y-93591047D01*
X135699523Y-93781523D01*
X135604285Y-93876761D01*
X135509047Y-93924380D01*
X135318571Y-93924380D01*
X136699523Y-93924380D02*
X136128095Y-93924380D01*
X136413809Y-93924380D02*
X136413809Y-92924380D01*
X136318571Y-93067238D01*
X136223333Y-93162476D01*
X136128095Y-93210095D01*
%TO.C,R28*%
X146042142Y-105227380D02*
X145708809Y-104751190D01*
X145470714Y-105227380D02*
X145470714Y-104227380D01*
X145851666Y-104227380D01*
X145946904Y-104275000D01*
X145994523Y-104322619D01*
X146042142Y-104417857D01*
X146042142Y-104560714D01*
X145994523Y-104655952D01*
X145946904Y-104703571D01*
X145851666Y-104751190D01*
X145470714Y-104751190D01*
X146423095Y-104322619D02*
X146470714Y-104275000D01*
X146565952Y-104227380D01*
X146804047Y-104227380D01*
X146899285Y-104275000D01*
X146946904Y-104322619D01*
X146994523Y-104417857D01*
X146994523Y-104513095D01*
X146946904Y-104655952D01*
X146375476Y-105227380D01*
X146994523Y-105227380D01*
X147565952Y-104655952D02*
X147470714Y-104608333D01*
X147423095Y-104560714D01*
X147375476Y-104465476D01*
X147375476Y-104417857D01*
X147423095Y-104322619D01*
X147470714Y-104275000D01*
X147565952Y-104227380D01*
X147756428Y-104227380D01*
X147851666Y-104275000D01*
X147899285Y-104322619D01*
X147946904Y-104417857D01*
X147946904Y-104465476D01*
X147899285Y-104560714D01*
X147851666Y-104608333D01*
X147756428Y-104655952D01*
X147565952Y-104655952D01*
X147470714Y-104703571D01*
X147423095Y-104751190D01*
X147375476Y-104846428D01*
X147375476Y-105036904D01*
X147423095Y-105132142D01*
X147470714Y-105179761D01*
X147565952Y-105227380D01*
X147756428Y-105227380D01*
X147851666Y-105179761D01*
X147899285Y-105132142D01*
X147946904Y-105036904D01*
X147946904Y-104846428D01*
X147899285Y-104751190D01*
X147851666Y-104703571D01*
X147756428Y-104655952D01*
%TO.C,C15*%
X154551142Y-113400142D02*
X154503523Y-113447761D01*
X154360666Y-113495380D01*
X154265428Y-113495380D01*
X154122571Y-113447761D01*
X154027333Y-113352523D01*
X153979714Y-113257285D01*
X153932095Y-113066809D01*
X153932095Y-112923952D01*
X153979714Y-112733476D01*
X154027333Y-112638238D01*
X154122571Y-112543000D01*
X154265428Y-112495380D01*
X154360666Y-112495380D01*
X154503523Y-112543000D01*
X154551142Y-112590619D01*
X155503523Y-113495380D02*
X154932095Y-113495380D01*
X155217809Y-113495380D02*
X155217809Y-112495380D01*
X155122571Y-112638238D01*
X155027333Y-112733476D01*
X154932095Y-112781095D01*
X156408285Y-112495380D02*
X155932095Y-112495380D01*
X155884476Y-112971571D01*
X155932095Y-112923952D01*
X156027333Y-112876333D01*
X156265428Y-112876333D01*
X156360666Y-112923952D01*
X156408285Y-112971571D01*
X156455904Y-113066809D01*
X156455904Y-113304904D01*
X156408285Y-113400142D01*
X156360666Y-113447761D01*
X156265428Y-113495380D01*
X156027333Y-113495380D01*
X155932095Y-113447761D01*
X155884476Y-113400142D01*
%TO.C,C13*%
X169537142Y-123293142D02*
X169489523Y-123340761D01*
X169346666Y-123388380D01*
X169251428Y-123388380D01*
X169108571Y-123340761D01*
X169013333Y-123245523D01*
X168965714Y-123150285D01*
X168918095Y-122959809D01*
X168918095Y-122816952D01*
X168965714Y-122626476D01*
X169013333Y-122531238D01*
X169108571Y-122436000D01*
X169251428Y-122388380D01*
X169346666Y-122388380D01*
X169489523Y-122436000D01*
X169537142Y-122483619D01*
X170489523Y-123388380D02*
X169918095Y-123388380D01*
X170203809Y-123388380D02*
X170203809Y-122388380D01*
X170108571Y-122531238D01*
X170013333Y-122626476D01*
X169918095Y-122674095D01*
X170822857Y-122388380D02*
X171441904Y-122388380D01*
X171108571Y-122769333D01*
X171251428Y-122769333D01*
X171346666Y-122816952D01*
X171394285Y-122864571D01*
X171441904Y-122959809D01*
X171441904Y-123197904D01*
X171394285Y-123293142D01*
X171346666Y-123340761D01*
X171251428Y-123388380D01*
X170965714Y-123388380D01*
X170870476Y-123340761D01*
X170822857Y-123293142D01*
%TO.C,C14*%
X169537142Y-108053142D02*
X169489523Y-108100761D01*
X169346666Y-108148380D01*
X169251428Y-108148380D01*
X169108571Y-108100761D01*
X169013333Y-108005523D01*
X168965714Y-107910285D01*
X168918095Y-107719809D01*
X168918095Y-107576952D01*
X168965714Y-107386476D01*
X169013333Y-107291238D01*
X169108571Y-107196000D01*
X169251428Y-107148380D01*
X169346666Y-107148380D01*
X169489523Y-107196000D01*
X169537142Y-107243619D01*
X170489523Y-108148380D02*
X169918095Y-108148380D01*
X170203809Y-108148380D02*
X170203809Y-107148380D01*
X170108571Y-107291238D01*
X170013333Y-107386476D01*
X169918095Y-107434095D01*
X171346666Y-107481714D02*
X171346666Y-108148380D01*
X171108571Y-107100761D02*
X170870476Y-107815047D01*
X171489523Y-107815047D01*
%TO.C,R1*%
X127468333Y-108910380D02*
X127135000Y-108434190D01*
X126896904Y-108910380D02*
X126896904Y-107910380D01*
X127277857Y-107910380D01*
X127373095Y-107958000D01*
X127420714Y-108005619D01*
X127468333Y-108100857D01*
X127468333Y-108243714D01*
X127420714Y-108338952D01*
X127373095Y-108386571D01*
X127277857Y-108434190D01*
X126896904Y-108434190D01*
X128420714Y-108910380D02*
X127849285Y-108910380D01*
X128135000Y-108910380D02*
X128135000Y-107910380D01*
X128039761Y-108053238D01*
X127944523Y-108148476D01*
X127849285Y-108196095D01*
%TO.C,Q7*%
X161702761Y-82716619D02*
X161607523Y-82669000D01*
X161512285Y-82573761D01*
X161369428Y-82430904D01*
X161274190Y-82383285D01*
X161178952Y-82383285D01*
X161226571Y-82621380D02*
X161131333Y-82573761D01*
X161036095Y-82478523D01*
X160988476Y-82288047D01*
X160988476Y-81954714D01*
X161036095Y-81764238D01*
X161131333Y-81669000D01*
X161226571Y-81621380D01*
X161417047Y-81621380D01*
X161512285Y-81669000D01*
X161607523Y-81764238D01*
X161655142Y-81954714D01*
X161655142Y-82288047D01*
X161607523Y-82478523D01*
X161512285Y-82573761D01*
X161417047Y-82621380D01*
X161226571Y-82621380D01*
X161988476Y-81621380D02*
X162655142Y-81621380D01*
X162226571Y-82621380D01*
%TO.C,R19*%
X149725142Y-97480380D02*
X149391809Y-97004190D01*
X149153714Y-97480380D02*
X149153714Y-96480380D01*
X149534666Y-96480380D01*
X149629904Y-96528000D01*
X149677523Y-96575619D01*
X149725142Y-96670857D01*
X149725142Y-96813714D01*
X149677523Y-96908952D01*
X149629904Y-96956571D01*
X149534666Y-97004190D01*
X149153714Y-97004190D01*
X150677523Y-97480380D02*
X150106095Y-97480380D01*
X150391809Y-97480380D02*
X150391809Y-96480380D01*
X150296571Y-96623238D01*
X150201333Y-96718476D01*
X150106095Y-96766095D01*
X151153714Y-97480380D02*
X151344190Y-97480380D01*
X151439428Y-97432761D01*
X151487047Y-97385142D01*
X151582285Y-97242285D01*
X151629904Y-97051809D01*
X151629904Y-96670857D01*
X151582285Y-96575619D01*
X151534666Y-96528000D01*
X151439428Y-96480380D01*
X151248952Y-96480380D01*
X151153714Y-96528000D01*
X151106095Y-96575619D01*
X151058476Y-96670857D01*
X151058476Y-96908952D01*
X151106095Y-97004190D01*
X151153714Y-97051809D01*
X151248952Y-97099428D01*
X151439428Y-97099428D01*
X151534666Y-97051809D01*
X151582285Y-97004190D01*
X151629904Y-96908952D01*
%TO.C,R15*%
X140962142Y-75382380D02*
X140628809Y-74906190D01*
X140390714Y-75382380D02*
X140390714Y-74382380D01*
X140771666Y-74382380D01*
X140866904Y-74430000D01*
X140914523Y-74477619D01*
X140962142Y-74572857D01*
X140962142Y-74715714D01*
X140914523Y-74810952D01*
X140866904Y-74858571D01*
X140771666Y-74906190D01*
X140390714Y-74906190D01*
X141914523Y-75382380D02*
X141343095Y-75382380D01*
X141628809Y-75382380D02*
X141628809Y-74382380D01*
X141533571Y-74525238D01*
X141438333Y-74620476D01*
X141343095Y-74668095D01*
X142819285Y-74382380D02*
X142343095Y-74382380D01*
X142295476Y-74858571D01*
X142343095Y-74810952D01*
X142438333Y-74763333D01*
X142676428Y-74763333D01*
X142771666Y-74810952D01*
X142819285Y-74858571D01*
X142866904Y-74953809D01*
X142866904Y-75191904D01*
X142819285Y-75287142D01*
X142771666Y-75334761D01*
X142676428Y-75382380D01*
X142438333Y-75382380D01*
X142343095Y-75334761D01*
X142295476Y-75287142D01*
%TO.C,RV2*%
X133389761Y-112212380D02*
X133056428Y-111736190D01*
X132818333Y-112212380D02*
X132818333Y-111212380D01*
X133199285Y-111212380D01*
X133294523Y-111260000D01*
X133342142Y-111307619D01*
X133389761Y-111402857D01*
X133389761Y-111545714D01*
X133342142Y-111640952D01*
X133294523Y-111688571D01*
X133199285Y-111736190D01*
X132818333Y-111736190D01*
X133675476Y-111212380D02*
X134008809Y-112212380D01*
X134342142Y-111212380D01*
X134627857Y-111307619D02*
X134675476Y-111260000D01*
X134770714Y-111212380D01*
X135008809Y-111212380D01*
X135104047Y-111260000D01*
X135151666Y-111307619D01*
X135199285Y-111402857D01*
X135199285Y-111498095D01*
X135151666Y-111640952D01*
X134580238Y-112212380D01*
X135199285Y-112212380D01*
%TO.C,C5*%
X152106333Y-82526142D02*
X152058714Y-82573761D01*
X151915857Y-82621380D01*
X151820619Y-82621380D01*
X151677761Y-82573761D01*
X151582523Y-82478523D01*
X151534904Y-82383285D01*
X151487285Y-82192809D01*
X151487285Y-82049952D01*
X151534904Y-81859476D01*
X151582523Y-81764238D01*
X151677761Y-81669000D01*
X151820619Y-81621380D01*
X151915857Y-81621380D01*
X152058714Y-81669000D01*
X152106333Y-81716619D01*
X153011095Y-81621380D02*
X152534904Y-81621380D01*
X152487285Y-82097571D01*
X152534904Y-82049952D01*
X152630142Y-82002333D01*
X152868238Y-82002333D01*
X152963476Y-82049952D01*
X153011095Y-82097571D01*
X153058714Y-82192809D01*
X153058714Y-82430904D01*
X153011095Y-82526142D01*
X152963476Y-82573761D01*
X152868238Y-82621380D01*
X152630142Y-82621380D01*
X152534904Y-82573761D01*
X152487285Y-82526142D01*
%TO.C,Q2*%
X135667761Y-88812619D02*
X135572523Y-88765000D01*
X135477285Y-88669761D01*
X135334428Y-88526904D01*
X135239190Y-88479285D01*
X135143952Y-88479285D01*
X135191571Y-88717380D02*
X135096333Y-88669761D01*
X135001095Y-88574523D01*
X134953476Y-88384047D01*
X134953476Y-88050714D01*
X135001095Y-87860238D01*
X135096333Y-87765000D01*
X135191571Y-87717380D01*
X135382047Y-87717380D01*
X135477285Y-87765000D01*
X135572523Y-87860238D01*
X135620142Y-88050714D01*
X135620142Y-88384047D01*
X135572523Y-88574523D01*
X135477285Y-88669761D01*
X135382047Y-88717380D01*
X135191571Y-88717380D01*
X136001095Y-87812619D02*
X136048714Y-87765000D01*
X136143952Y-87717380D01*
X136382047Y-87717380D01*
X136477285Y-87765000D01*
X136524904Y-87812619D01*
X136572523Y-87907857D01*
X136572523Y-88003095D01*
X136524904Y-88145952D01*
X135953476Y-88717380D01*
X136572523Y-88717380D01*
%TO.C,R26*%
X146227142Y-121737380D02*
X145893809Y-121261190D01*
X145655714Y-121737380D02*
X145655714Y-120737380D01*
X146036666Y-120737380D01*
X146131904Y-120785000D01*
X146179523Y-120832619D01*
X146227142Y-120927857D01*
X146227142Y-121070714D01*
X146179523Y-121165952D01*
X146131904Y-121213571D01*
X146036666Y-121261190D01*
X145655714Y-121261190D01*
X146608095Y-120832619D02*
X146655714Y-120785000D01*
X146750952Y-120737380D01*
X146989047Y-120737380D01*
X147084285Y-120785000D01*
X147131904Y-120832619D01*
X147179523Y-120927857D01*
X147179523Y-121023095D01*
X147131904Y-121165952D01*
X146560476Y-121737380D01*
X147179523Y-121737380D01*
X148036666Y-120737380D02*
X147846190Y-120737380D01*
X147750952Y-120785000D01*
X147703333Y-120832619D01*
X147608095Y-120975476D01*
X147560476Y-121165952D01*
X147560476Y-121546904D01*
X147608095Y-121642142D01*
X147655714Y-121689761D01*
X147750952Y-121737380D01*
X147941428Y-121737380D01*
X148036666Y-121689761D01*
X148084285Y-121642142D01*
X148131904Y-121546904D01*
X148131904Y-121308809D01*
X148084285Y-121213571D01*
X148036666Y-121165952D01*
X147941428Y-121118333D01*
X147750952Y-121118333D01*
X147655714Y-121165952D01*
X147608095Y-121213571D01*
X147560476Y-121308809D01*
%TO.C,R25*%
X150037142Y-118402380D02*
X149703809Y-117926190D01*
X149465714Y-118402380D02*
X149465714Y-117402380D01*
X149846666Y-117402380D01*
X149941904Y-117450000D01*
X149989523Y-117497619D01*
X150037142Y-117592857D01*
X150037142Y-117735714D01*
X149989523Y-117830952D01*
X149941904Y-117878571D01*
X149846666Y-117926190D01*
X149465714Y-117926190D01*
X150418095Y-117497619D02*
X150465714Y-117450000D01*
X150560952Y-117402380D01*
X150799047Y-117402380D01*
X150894285Y-117450000D01*
X150941904Y-117497619D01*
X150989523Y-117592857D01*
X150989523Y-117688095D01*
X150941904Y-117830952D01*
X150370476Y-118402380D01*
X150989523Y-118402380D01*
X151894285Y-117402380D02*
X151418095Y-117402380D01*
X151370476Y-117878571D01*
X151418095Y-117830952D01*
X151513333Y-117783333D01*
X151751428Y-117783333D01*
X151846666Y-117830952D01*
X151894285Y-117878571D01*
X151941904Y-117973809D01*
X151941904Y-118211904D01*
X151894285Y-118307142D01*
X151846666Y-118354761D01*
X151751428Y-118402380D01*
X151513333Y-118402380D01*
X151418095Y-118354761D01*
X151370476Y-118307142D01*
%TO.C,R27*%
X146227142Y-118562380D02*
X145893809Y-118086190D01*
X145655714Y-118562380D02*
X145655714Y-117562380D01*
X146036666Y-117562380D01*
X146131904Y-117610000D01*
X146179523Y-117657619D01*
X146227142Y-117752857D01*
X146227142Y-117895714D01*
X146179523Y-117990952D01*
X146131904Y-118038571D01*
X146036666Y-118086190D01*
X145655714Y-118086190D01*
X146608095Y-117657619D02*
X146655714Y-117610000D01*
X146750952Y-117562380D01*
X146989047Y-117562380D01*
X147084285Y-117610000D01*
X147131904Y-117657619D01*
X147179523Y-117752857D01*
X147179523Y-117848095D01*
X147131904Y-117990952D01*
X146560476Y-118562380D01*
X147179523Y-118562380D01*
X147512857Y-117562380D02*
X148179523Y-117562380D01*
X147750952Y-118562380D01*
%TO.C,R23*%
X161282142Y-105227380D02*
X160948809Y-104751190D01*
X160710714Y-105227380D02*
X160710714Y-104227380D01*
X161091666Y-104227380D01*
X161186904Y-104275000D01*
X161234523Y-104322619D01*
X161282142Y-104417857D01*
X161282142Y-104560714D01*
X161234523Y-104655952D01*
X161186904Y-104703571D01*
X161091666Y-104751190D01*
X160710714Y-104751190D01*
X161663095Y-104322619D02*
X161710714Y-104275000D01*
X161805952Y-104227380D01*
X162044047Y-104227380D01*
X162139285Y-104275000D01*
X162186904Y-104322619D01*
X162234523Y-104417857D01*
X162234523Y-104513095D01*
X162186904Y-104655952D01*
X161615476Y-105227380D01*
X162234523Y-105227380D01*
X162567857Y-104227380D02*
X163186904Y-104227380D01*
X162853571Y-104608333D01*
X162996428Y-104608333D01*
X163091666Y-104655952D01*
X163139285Y-104703571D01*
X163186904Y-104798809D01*
X163186904Y-105036904D01*
X163139285Y-105132142D01*
X163091666Y-105179761D01*
X162996428Y-105227380D01*
X162710714Y-105227380D01*
X162615476Y-105179761D01*
X162567857Y-105132142D01*
%TO.C,RV3*%
X139734761Y-112222380D02*
X139401428Y-111746190D01*
X139163333Y-112222380D02*
X139163333Y-111222380D01*
X139544285Y-111222380D01*
X139639523Y-111270000D01*
X139687142Y-111317619D01*
X139734761Y-111412857D01*
X139734761Y-111555714D01*
X139687142Y-111650952D01*
X139639523Y-111698571D01*
X139544285Y-111746190D01*
X139163333Y-111746190D01*
X140020476Y-111222380D02*
X140353809Y-112222380D01*
X140687142Y-111222380D01*
X140925238Y-111222380D02*
X141544285Y-111222380D01*
X141210952Y-111603333D01*
X141353809Y-111603333D01*
X141449047Y-111650952D01*
X141496666Y-111698571D01*
X141544285Y-111793809D01*
X141544285Y-112031904D01*
X141496666Y-112127142D01*
X141449047Y-112174761D01*
X141353809Y-112222380D01*
X141068095Y-112222380D01*
X140972857Y-112174761D01*
X140925238Y-112127142D01*
%TO.C,R14*%
X130675142Y-82207380D02*
X130341809Y-81731190D01*
X130103714Y-82207380D02*
X130103714Y-81207380D01*
X130484666Y-81207380D01*
X130579904Y-81255000D01*
X130627523Y-81302619D01*
X130675142Y-81397857D01*
X130675142Y-81540714D01*
X130627523Y-81635952D01*
X130579904Y-81683571D01*
X130484666Y-81731190D01*
X130103714Y-81731190D01*
X131627523Y-82207380D02*
X131056095Y-82207380D01*
X131341809Y-82207380D02*
X131341809Y-81207380D01*
X131246571Y-81350238D01*
X131151333Y-81445476D01*
X131056095Y-81493095D01*
X132484666Y-81540714D02*
X132484666Y-82207380D01*
X132246571Y-81159761D02*
X132008476Y-81874047D01*
X132627523Y-81874047D01*
%TO.C,R21*%
X153662142Y-97607380D02*
X153328809Y-97131190D01*
X153090714Y-97607380D02*
X153090714Y-96607380D01*
X153471666Y-96607380D01*
X153566904Y-96655000D01*
X153614523Y-96702619D01*
X153662142Y-96797857D01*
X153662142Y-96940714D01*
X153614523Y-97035952D01*
X153566904Y-97083571D01*
X153471666Y-97131190D01*
X153090714Y-97131190D01*
X154043095Y-96702619D02*
X154090714Y-96655000D01*
X154185952Y-96607380D01*
X154424047Y-96607380D01*
X154519285Y-96655000D01*
X154566904Y-96702619D01*
X154614523Y-96797857D01*
X154614523Y-96893095D01*
X154566904Y-97035952D01*
X153995476Y-97607380D01*
X154614523Y-97607380D01*
X155566904Y-97607380D02*
X154995476Y-97607380D01*
X155281190Y-97607380D02*
X155281190Y-96607380D01*
X155185952Y-96750238D01*
X155090714Y-96845476D01*
X154995476Y-96893095D01*
%TO.C,Q3*%
X136302761Y-82716619D02*
X136207523Y-82669000D01*
X136112285Y-82573761D01*
X135969428Y-82430904D01*
X135874190Y-82383285D01*
X135778952Y-82383285D01*
X135826571Y-82621380D02*
X135731333Y-82573761D01*
X135636095Y-82478523D01*
X135588476Y-82288047D01*
X135588476Y-81954714D01*
X135636095Y-81764238D01*
X135731333Y-81669000D01*
X135826571Y-81621380D01*
X136017047Y-81621380D01*
X136112285Y-81669000D01*
X136207523Y-81764238D01*
X136255142Y-81954714D01*
X136255142Y-82288047D01*
X136207523Y-82478523D01*
X136112285Y-82573761D01*
X136017047Y-82621380D01*
X135826571Y-82621380D01*
X136588476Y-81621380D02*
X137207523Y-81621380D01*
X136874190Y-82002333D01*
X137017047Y-82002333D01*
X137112285Y-82049952D01*
X137159904Y-82097571D01*
X137207523Y-82192809D01*
X137207523Y-82430904D01*
X137159904Y-82526142D01*
X137112285Y-82573761D01*
X137017047Y-82621380D01*
X136731333Y-82621380D01*
X136636095Y-82573761D01*
X136588476Y-82526142D01*
%TO.C,R9*%
X151598333Y-79192380D02*
X151265000Y-78716190D01*
X151026904Y-79192380D02*
X151026904Y-78192380D01*
X151407857Y-78192380D01*
X151503095Y-78240000D01*
X151550714Y-78287619D01*
X151598333Y-78382857D01*
X151598333Y-78525714D01*
X151550714Y-78620952D01*
X151503095Y-78668571D01*
X151407857Y-78716190D01*
X151026904Y-78716190D01*
X152074523Y-79192380D02*
X152265000Y-79192380D01*
X152360238Y-79144761D01*
X152407857Y-79097142D01*
X152503095Y-78954285D01*
X152550714Y-78763809D01*
X152550714Y-78382857D01*
X152503095Y-78287619D01*
X152455476Y-78240000D01*
X152360238Y-78192380D01*
X152169761Y-78192380D01*
X152074523Y-78240000D01*
X152026904Y-78287619D01*
X151979285Y-78382857D01*
X151979285Y-78620952D01*
X152026904Y-78716190D01*
X152074523Y-78763809D01*
X152169761Y-78811428D01*
X152360238Y-78811428D01*
X152455476Y-78763809D01*
X152503095Y-78716190D01*
X152550714Y-78620952D01*
%TO.C,R17*%
X153662142Y-88590380D02*
X153328809Y-88114190D01*
X153090714Y-88590380D02*
X153090714Y-87590380D01*
X153471666Y-87590380D01*
X153566904Y-87638000D01*
X153614523Y-87685619D01*
X153662142Y-87780857D01*
X153662142Y-87923714D01*
X153614523Y-88018952D01*
X153566904Y-88066571D01*
X153471666Y-88114190D01*
X153090714Y-88114190D01*
X154614523Y-88590380D02*
X154043095Y-88590380D01*
X154328809Y-88590380D02*
X154328809Y-87590380D01*
X154233571Y-87733238D01*
X154138333Y-87828476D01*
X154043095Y-87876095D01*
X154947857Y-87590380D02*
X155614523Y-87590380D01*
X155185952Y-88590380D01*
%TO.C,U2*%
X151638095Y-111847380D02*
X151638095Y-112656904D01*
X151685714Y-112752142D01*
X151733333Y-112799761D01*
X151828571Y-112847380D01*
X152019047Y-112847380D01*
X152114285Y-112799761D01*
X152161904Y-112752142D01*
X152209523Y-112656904D01*
X152209523Y-111847380D01*
X152638095Y-111942619D02*
X152685714Y-111895000D01*
X152780952Y-111847380D01*
X153019047Y-111847380D01*
X153114285Y-111895000D01*
X153161904Y-111942619D01*
X153209523Y-112037857D01*
X153209523Y-112133095D01*
X153161904Y-112275952D01*
X152590476Y-112847380D01*
X153209523Y-112847380D01*
%TO.C,C1*%
X133945333Y-104878142D02*
X133897714Y-104925761D01*
X133754857Y-104973380D01*
X133659619Y-104973380D01*
X133516761Y-104925761D01*
X133421523Y-104830523D01*
X133373904Y-104735285D01*
X133326285Y-104544809D01*
X133326285Y-104401952D01*
X133373904Y-104211476D01*
X133421523Y-104116238D01*
X133516761Y-104021000D01*
X133659619Y-103973380D01*
X133754857Y-103973380D01*
X133897714Y-104021000D01*
X133945333Y-104068619D01*
X134897714Y-104973380D02*
X134326285Y-104973380D01*
X134612000Y-104973380D02*
X134612000Y-103973380D01*
X134516761Y-104116238D01*
X134421523Y-104211476D01*
X134326285Y-104259095D01*
%TO.C,C10*%
X166362142Y-82272142D02*
X166314523Y-82319761D01*
X166171666Y-82367380D01*
X166076428Y-82367380D01*
X165933571Y-82319761D01*
X165838333Y-82224523D01*
X165790714Y-82129285D01*
X165743095Y-81938809D01*
X165743095Y-81795952D01*
X165790714Y-81605476D01*
X165838333Y-81510238D01*
X165933571Y-81415000D01*
X166076428Y-81367380D01*
X166171666Y-81367380D01*
X166314523Y-81415000D01*
X166362142Y-81462619D01*
X167314523Y-82367380D02*
X166743095Y-82367380D01*
X167028809Y-82367380D02*
X167028809Y-81367380D01*
X166933571Y-81510238D01*
X166838333Y-81605476D01*
X166743095Y-81653095D01*
X167933571Y-81367380D02*
X168028809Y-81367380D01*
X168124047Y-81415000D01*
X168171666Y-81462619D01*
X168219285Y-81557857D01*
X168266904Y-81748333D01*
X168266904Y-81986428D01*
X168219285Y-82176904D01*
X168171666Y-82272142D01*
X168124047Y-82319761D01*
X168028809Y-82367380D01*
X167933571Y-82367380D01*
X167838333Y-82319761D01*
X167790714Y-82272142D01*
X167743095Y-82176904D01*
X167695476Y-81986428D01*
X167695476Y-81748333D01*
X167743095Y-81557857D01*
X167790714Y-81462619D01*
X167838333Y-81415000D01*
X167933571Y-81367380D01*
%TO.C,R11*%
X161282142Y-79192380D02*
X160948809Y-78716190D01*
X160710714Y-79192380D02*
X160710714Y-78192380D01*
X161091666Y-78192380D01*
X161186904Y-78240000D01*
X161234523Y-78287619D01*
X161282142Y-78382857D01*
X161282142Y-78525714D01*
X161234523Y-78620952D01*
X161186904Y-78668571D01*
X161091666Y-78716190D01*
X160710714Y-78716190D01*
X162234523Y-79192380D02*
X161663095Y-79192380D01*
X161948809Y-79192380D02*
X161948809Y-78192380D01*
X161853571Y-78335238D01*
X161758333Y-78430476D01*
X161663095Y-78478095D01*
X163186904Y-79192380D02*
X162615476Y-79192380D01*
X162901190Y-79192380D02*
X162901190Y-78192380D01*
X162805952Y-78335238D01*
X162710714Y-78430476D01*
X162615476Y-78478095D01*
%TO.C,R3*%
X133818333Y-98717380D02*
X133485000Y-98241190D01*
X133246904Y-98717380D02*
X133246904Y-97717380D01*
X133627857Y-97717380D01*
X133723095Y-97765000D01*
X133770714Y-97812619D01*
X133818333Y-97907857D01*
X133818333Y-98050714D01*
X133770714Y-98145952D01*
X133723095Y-98193571D01*
X133627857Y-98241190D01*
X133246904Y-98241190D01*
X134151666Y-97717380D02*
X134770714Y-97717380D01*
X134437380Y-98098333D01*
X134580238Y-98098333D01*
X134675476Y-98145952D01*
X134723095Y-98193571D01*
X134770714Y-98288809D01*
X134770714Y-98526904D01*
X134723095Y-98622142D01*
X134675476Y-98669761D01*
X134580238Y-98717380D01*
X134294523Y-98717380D01*
X134199285Y-98669761D01*
X134151666Y-98622142D01*
%TO.C,R5*%
X136231333Y-75382380D02*
X135898000Y-74906190D01*
X135659904Y-75382380D02*
X135659904Y-74382380D01*
X136040857Y-74382380D01*
X136136095Y-74430000D01*
X136183714Y-74477619D01*
X136231333Y-74572857D01*
X136231333Y-74715714D01*
X136183714Y-74810952D01*
X136136095Y-74858571D01*
X136040857Y-74906190D01*
X135659904Y-74906190D01*
X137136095Y-74382380D02*
X136659904Y-74382380D01*
X136612285Y-74858571D01*
X136659904Y-74810952D01*
X136755142Y-74763333D01*
X136993238Y-74763333D01*
X137088476Y-74810952D01*
X137136095Y-74858571D01*
X137183714Y-74953809D01*
X137183714Y-75191904D01*
X137136095Y-75287142D01*
X137088476Y-75334761D01*
X136993238Y-75382380D01*
X136755142Y-75382380D01*
X136659904Y-75334761D01*
X136612285Y-75287142D01*
%TO.C,R12*%
X133342142Y-108877380D02*
X133008809Y-108401190D01*
X132770714Y-108877380D02*
X132770714Y-107877380D01*
X133151666Y-107877380D01*
X133246904Y-107925000D01*
X133294523Y-107972619D01*
X133342142Y-108067857D01*
X133342142Y-108210714D01*
X133294523Y-108305952D01*
X133246904Y-108353571D01*
X133151666Y-108401190D01*
X132770714Y-108401190D01*
X134294523Y-108877380D02*
X133723095Y-108877380D01*
X134008809Y-108877380D02*
X134008809Y-107877380D01*
X133913571Y-108020238D01*
X133818333Y-108115476D01*
X133723095Y-108163095D01*
X134675476Y-107972619D02*
X134723095Y-107925000D01*
X134818333Y-107877380D01*
X135056428Y-107877380D01*
X135151666Y-107925000D01*
X135199285Y-107972619D01*
X135246904Y-108067857D01*
X135246904Y-108163095D01*
X135199285Y-108305952D01*
X134627857Y-108877380D01*
X135246904Y-108877380D01*
%TO.C,R13*%
X130675142Y-85288380D02*
X130341809Y-84812190D01*
X130103714Y-85288380D02*
X130103714Y-84288380D01*
X130484666Y-84288380D01*
X130579904Y-84336000D01*
X130627523Y-84383619D01*
X130675142Y-84478857D01*
X130675142Y-84621714D01*
X130627523Y-84716952D01*
X130579904Y-84764571D01*
X130484666Y-84812190D01*
X130103714Y-84812190D01*
X131627523Y-85288380D02*
X131056095Y-85288380D01*
X131341809Y-85288380D02*
X131341809Y-84288380D01*
X131246571Y-84431238D01*
X131151333Y-84526476D01*
X131056095Y-84574095D01*
X131960857Y-84288380D02*
X132579904Y-84288380D01*
X132246571Y-84669333D01*
X132389428Y-84669333D01*
X132484666Y-84716952D01*
X132532285Y-84764571D01*
X132579904Y-84859809D01*
X132579904Y-85097904D01*
X132532285Y-85193142D01*
X132484666Y-85240761D01*
X132389428Y-85288380D01*
X132103714Y-85288380D01*
X132008476Y-85240761D01*
X131960857Y-85193142D01*
%TO.C,R29*%
X149852142Y-105067380D02*
X149518809Y-104591190D01*
X149280714Y-105067380D02*
X149280714Y-104067380D01*
X149661666Y-104067380D01*
X149756904Y-104115000D01*
X149804523Y-104162619D01*
X149852142Y-104257857D01*
X149852142Y-104400714D01*
X149804523Y-104495952D01*
X149756904Y-104543571D01*
X149661666Y-104591190D01*
X149280714Y-104591190D01*
X150233095Y-104162619D02*
X150280714Y-104115000D01*
X150375952Y-104067380D01*
X150614047Y-104067380D01*
X150709285Y-104115000D01*
X150756904Y-104162619D01*
X150804523Y-104257857D01*
X150804523Y-104353095D01*
X150756904Y-104495952D01*
X150185476Y-105067380D01*
X150804523Y-105067380D01*
X151280714Y-105067380D02*
X151471190Y-105067380D01*
X151566428Y-105019761D01*
X151614047Y-104972142D01*
X151709285Y-104829285D01*
X151756904Y-104638809D01*
X151756904Y-104257857D01*
X151709285Y-104162619D01*
X151661666Y-104115000D01*
X151566428Y-104067380D01*
X151375952Y-104067380D01*
X151280714Y-104115000D01*
X151233095Y-104162619D01*
X151185476Y-104257857D01*
X151185476Y-104495952D01*
X151233095Y-104591190D01*
X151280714Y-104638809D01*
X151375952Y-104686428D01*
X151566428Y-104686428D01*
X151661666Y-104638809D01*
X151709285Y-104591190D01*
X151756904Y-104495952D01*
%TO.C,C21*%
X153847142Y-118307142D02*
X153799523Y-118354761D01*
X153656666Y-118402380D01*
X153561428Y-118402380D01*
X153418571Y-118354761D01*
X153323333Y-118259523D01*
X153275714Y-118164285D01*
X153228095Y-117973809D01*
X153228095Y-117830952D01*
X153275714Y-117640476D01*
X153323333Y-117545238D01*
X153418571Y-117450000D01*
X153561428Y-117402380D01*
X153656666Y-117402380D01*
X153799523Y-117450000D01*
X153847142Y-117497619D01*
X154228095Y-117497619D02*
X154275714Y-117450000D01*
X154370952Y-117402380D01*
X154609047Y-117402380D01*
X154704285Y-117450000D01*
X154751904Y-117497619D01*
X154799523Y-117592857D01*
X154799523Y-117688095D01*
X154751904Y-117830952D01*
X154180476Y-118402380D01*
X154799523Y-118402380D01*
X155751904Y-118402380D02*
X155180476Y-118402380D01*
X155466190Y-118402380D02*
X155466190Y-117402380D01*
X155370952Y-117545238D01*
X155275714Y-117640476D01*
X155180476Y-117688095D01*
%TO.C,Q8*%
X161829761Y-91987619D02*
X161734523Y-91940000D01*
X161639285Y-91844761D01*
X161496428Y-91701904D01*
X161401190Y-91654285D01*
X161305952Y-91654285D01*
X161353571Y-91892380D02*
X161258333Y-91844761D01*
X161163095Y-91749523D01*
X161115476Y-91559047D01*
X161115476Y-91225714D01*
X161163095Y-91035238D01*
X161258333Y-90940000D01*
X161353571Y-90892380D01*
X161544047Y-90892380D01*
X161639285Y-90940000D01*
X161734523Y-91035238D01*
X161782142Y-91225714D01*
X161782142Y-91559047D01*
X161734523Y-91749523D01*
X161639285Y-91844761D01*
X161544047Y-91892380D01*
X161353571Y-91892380D01*
X162353571Y-91320952D02*
X162258333Y-91273333D01*
X162210714Y-91225714D01*
X162163095Y-91130476D01*
X162163095Y-91082857D01*
X162210714Y-90987619D01*
X162258333Y-90940000D01*
X162353571Y-90892380D01*
X162544047Y-90892380D01*
X162639285Y-90940000D01*
X162686904Y-90987619D01*
X162734523Y-91082857D01*
X162734523Y-91130476D01*
X162686904Y-91225714D01*
X162639285Y-91273333D01*
X162544047Y-91320952D01*
X162353571Y-91320952D01*
X162258333Y-91368571D01*
X162210714Y-91416190D01*
X162163095Y-91511428D01*
X162163095Y-91701904D01*
X162210714Y-91797142D01*
X162258333Y-91844761D01*
X162353571Y-91892380D01*
X162544047Y-91892380D01*
X162639285Y-91844761D01*
X162686904Y-91797142D01*
X162734523Y-91701904D01*
X162734523Y-91511428D01*
X162686904Y-91416190D01*
X162639285Y-91368571D01*
X162544047Y-91320952D01*
%TO.C,C12*%
X161282142Y-101957142D02*
X161234523Y-102004761D01*
X161091666Y-102052380D01*
X160996428Y-102052380D01*
X160853571Y-102004761D01*
X160758333Y-101909523D01*
X160710714Y-101814285D01*
X160663095Y-101623809D01*
X160663095Y-101480952D01*
X160710714Y-101290476D01*
X160758333Y-101195238D01*
X160853571Y-101100000D01*
X160996428Y-101052380D01*
X161091666Y-101052380D01*
X161234523Y-101100000D01*
X161282142Y-101147619D01*
X162234523Y-102052380D02*
X161663095Y-102052380D01*
X161948809Y-102052380D02*
X161948809Y-101052380D01*
X161853571Y-101195238D01*
X161758333Y-101290476D01*
X161663095Y-101338095D01*
X162615476Y-101147619D02*
X162663095Y-101100000D01*
X162758333Y-101052380D01*
X162996428Y-101052380D01*
X163091666Y-101100000D01*
X163139285Y-101147619D01*
X163186904Y-101242857D01*
X163186904Y-101338095D01*
X163139285Y-101480952D01*
X162567857Y-102052380D01*
X163186904Y-102052380D01*
%TO.C,R24*%
X150274400Y-121737380D02*
X149941067Y-121261190D01*
X149702972Y-121737380D02*
X149702972Y-120737380D01*
X150083924Y-120737380D01*
X150179162Y-120785000D01*
X150226781Y-120832619D01*
X150274400Y-120927857D01*
X150274400Y-121070714D01*
X150226781Y-121165952D01*
X150179162Y-121213571D01*
X150083924Y-121261190D01*
X149702972Y-121261190D01*
X150655353Y-120832619D02*
X150702972Y-120785000D01*
X150798210Y-120737380D01*
X151036305Y-120737380D01*
X151131543Y-120785000D01*
X151179162Y-120832619D01*
X151226781Y-120927857D01*
X151226781Y-121023095D01*
X151179162Y-121165952D01*
X150607734Y-121737380D01*
X151226781Y-121737380D01*
X152083924Y-121070714D02*
X152083924Y-121737380D01*
X151845829Y-120689761D02*
X151607734Y-121404047D01*
X152226781Y-121404047D01*
%TO.C,C20*%
X149852142Y-101195142D02*
X149804523Y-101242761D01*
X149661666Y-101290380D01*
X149566428Y-101290380D01*
X149423571Y-101242761D01*
X149328333Y-101147523D01*
X149280714Y-101052285D01*
X149233095Y-100861809D01*
X149233095Y-100718952D01*
X149280714Y-100528476D01*
X149328333Y-100433238D01*
X149423571Y-100338000D01*
X149566428Y-100290380D01*
X149661666Y-100290380D01*
X149804523Y-100338000D01*
X149852142Y-100385619D01*
X150233095Y-100385619D02*
X150280714Y-100338000D01*
X150375952Y-100290380D01*
X150614047Y-100290380D01*
X150709285Y-100338000D01*
X150756904Y-100385619D01*
X150804523Y-100480857D01*
X150804523Y-100576095D01*
X150756904Y-100718952D01*
X150185476Y-101290380D01*
X150804523Y-101290380D01*
X151423571Y-100290380D02*
X151518809Y-100290380D01*
X151614047Y-100338000D01*
X151661666Y-100385619D01*
X151709285Y-100480857D01*
X151756904Y-100671333D01*
X151756904Y-100909428D01*
X151709285Y-101099904D01*
X151661666Y-101195142D01*
X151614047Y-101242761D01*
X151518809Y-101290380D01*
X151423571Y-101290380D01*
X151328333Y-101242761D01*
X151280714Y-101195142D01*
X151233095Y-101099904D01*
X151185476Y-100909428D01*
X151185476Y-100671333D01*
X151233095Y-100480857D01*
X151280714Y-100385619D01*
X151328333Y-100338000D01*
X151423571Y-100290380D01*
%TO.C,C3*%
X139406333Y-82526142D02*
X139358714Y-82573761D01*
X139215857Y-82621380D01*
X139120619Y-82621380D01*
X138977761Y-82573761D01*
X138882523Y-82478523D01*
X138834904Y-82383285D01*
X138787285Y-82192809D01*
X138787285Y-82049952D01*
X138834904Y-81859476D01*
X138882523Y-81764238D01*
X138977761Y-81669000D01*
X139120619Y-81621380D01*
X139215857Y-81621380D01*
X139358714Y-81669000D01*
X139406333Y-81716619D01*
X139739666Y-81621380D02*
X140358714Y-81621380D01*
X140025380Y-82002333D01*
X140168238Y-82002333D01*
X140263476Y-82049952D01*
X140311095Y-82097571D01*
X140358714Y-82192809D01*
X140358714Y-82430904D01*
X140311095Y-82526142D01*
X140263476Y-82573761D01*
X140168238Y-82621380D01*
X139882523Y-82621380D01*
X139787285Y-82573761D01*
X139739666Y-82526142D01*
%TO.C,Q6*%
X155352761Y-82716619D02*
X155257523Y-82669000D01*
X155162285Y-82573761D01*
X155019428Y-82430904D01*
X154924190Y-82383285D01*
X154828952Y-82383285D01*
X154876571Y-82621380D02*
X154781333Y-82573761D01*
X154686095Y-82478523D01*
X154638476Y-82288047D01*
X154638476Y-81954714D01*
X154686095Y-81764238D01*
X154781333Y-81669000D01*
X154876571Y-81621380D01*
X155067047Y-81621380D01*
X155162285Y-81669000D01*
X155257523Y-81764238D01*
X155305142Y-81954714D01*
X155305142Y-82288047D01*
X155257523Y-82478523D01*
X155162285Y-82573761D01*
X155067047Y-82621380D01*
X154876571Y-82621380D01*
X156162285Y-81621380D02*
X155971809Y-81621380D01*
X155876571Y-81669000D01*
X155828952Y-81716619D01*
X155733714Y-81859476D01*
X155686095Y-82049952D01*
X155686095Y-82430904D01*
X155733714Y-82526142D01*
X155781333Y-82573761D01*
X155876571Y-82621380D01*
X156067047Y-82621380D01*
X156162285Y-82573761D01*
X156209904Y-82526142D01*
X156257523Y-82430904D01*
X156257523Y-82192809D01*
X156209904Y-82097571D01*
X156162285Y-82049952D01*
X156067047Y-82002333D01*
X155876571Y-82002333D01*
X155781333Y-82049952D01*
X155733714Y-82097571D01*
X155686095Y-82192809D01*
%TO.C,C19*%
X166235142Y-78937142D02*
X166187523Y-78984761D01*
X166044666Y-79032380D01*
X165949428Y-79032380D01*
X165806571Y-78984761D01*
X165711333Y-78889523D01*
X165663714Y-78794285D01*
X165616095Y-78603809D01*
X165616095Y-78460952D01*
X165663714Y-78270476D01*
X165711333Y-78175238D01*
X165806571Y-78080000D01*
X165949428Y-78032380D01*
X166044666Y-78032380D01*
X166187523Y-78080000D01*
X166235142Y-78127619D01*
X167187523Y-79032380D02*
X166616095Y-79032380D01*
X166901809Y-79032380D02*
X166901809Y-78032380D01*
X166806571Y-78175238D01*
X166711333Y-78270476D01*
X166616095Y-78318095D01*
X167663714Y-79032380D02*
X167854190Y-79032380D01*
X167949428Y-78984761D01*
X167997047Y-78937142D01*
X168092285Y-78794285D01*
X168139904Y-78603809D01*
X168139904Y-78222857D01*
X168092285Y-78127619D01*
X168044666Y-78080000D01*
X167949428Y-78032380D01*
X167758952Y-78032380D01*
X167663714Y-78080000D01*
X167616095Y-78127619D01*
X167568476Y-78222857D01*
X167568476Y-78460952D01*
X167616095Y-78556190D01*
X167663714Y-78603809D01*
X167758952Y-78651428D01*
X167949428Y-78651428D01*
X168044666Y-78603809D01*
X168092285Y-78556190D01*
X168139904Y-78460952D01*
%TO.C,C4*%
X145756333Y-82526142D02*
X145708714Y-82573761D01*
X145565857Y-82621380D01*
X145470619Y-82621380D01*
X145327761Y-82573761D01*
X145232523Y-82478523D01*
X145184904Y-82383285D01*
X145137285Y-82192809D01*
X145137285Y-82049952D01*
X145184904Y-81859476D01*
X145232523Y-81764238D01*
X145327761Y-81669000D01*
X145470619Y-81621380D01*
X145565857Y-81621380D01*
X145708714Y-81669000D01*
X145756333Y-81716619D01*
X146613476Y-81954714D02*
X146613476Y-82621380D01*
X146375380Y-81573761D02*
X146137285Y-82288047D01*
X146756333Y-82288047D01*
%TO.C,R8*%
X146518333Y-79192380D02*
X146185000Y-78716190D01*
X145946904Y-79192380D02*
X145946904Y-78192380D01*
X146327857Y-78192380D01*
X146423095Y-78240000D01*
X146470714Y-78287619D01*
X146518333Y-78382857D01*
X146518333Y-78525714D01*
X146470714Y-78620952D01*
X146423095Y-78668571D01*
X146327857Y-78716190D01*
X145946904Y-78716190D01*
X147089761Y-78620952D02*
X146994523Y-78573333D01*
X146946904Y-78525714D01*
X146899285Y-78430476D01*
X146899285Y-78382857D01*
X146946904Y-78287619D01*
X146994523Y-78240000D01*
X147089761Y-78192380D01*
X147280238Y-78192380D01*
X147375476Y-78240000D01*
X147423095Y-78287619D01*
X147470714Y-78382857D01*
X147470714Y-78430476D01*
X147423095Y-78525714D01*
X147375476Y-78573333D01*
X147280238Y-78620952D01*
X147089761Y-78620952D01*
X146994523Y-78668571D01*
X146946904Y-78716190D01*
X146899285Y-78811428D01*
X146899285Y-79001904D01*
X146946904Y-79097142D01*
X146994523Y-79144761D01*
X147089761Y-79192380D01*
X147280238Y-79192380D01*
X147375476Y-79144761D01*
X147423095Y-79097142D01*
X147470714Y-79001904D01*
X147470714Y-78811428D01*
X147423095Y-78716190D01*
X147375476Y-78668571D01*
X147280238Y-78620952D01*
%TO.C,R10*%
X156202142Y-79192380D02*
X155868809Y-78716190D01*
X155630714Y-79192380D02*
X155630714Y-78192380D01*
X156011666Y-78192380D01*
X156106904Y-78240000D01*
X156154523Y-78287619D01*
X156202142Y-78382857D01*
X156202142Y-78525714D01*
X156154523Y-78620952D01*
X156106904Y-78668571D01*
X156011666Y-78716190D01*
X155630714Y-78716190D01*
X157154523Y-79192380D02*
X156583095Y-79192380D01*
X156868809Y-79192380D02*
X156868809Y-78192380D01*
X156773571Y-78335238D01*
X156678333Y-78430476D01*
X156583095Y-78478095D01*
X157773571Y-78192380D02*
X157868809Y-78192380D01*
X157964047Y-78240000D01*
X158011666Y-78287619D01*
X158059285Y-78382857D01*
X158106904Y-78573333D01*
X158106904Y-78811428D01*
X158059285Y-79001904D01*
X158011666Y-79097142D01*
X157964047Y-79144761D01*
X157868809Y-79192380D01*
X157773571Y-79192380D01*
X157678333Y-79144761D01*
X157630714Y-79097142D01*
X157583095Y-79001904D01*
X157535476Y-78811428D01*
X157535476Y-78573333D01*
X157583095Y-78382857D01*
X157630714Y-78287619D01*
X157678333Y-78240000D01*
X157773571Y-78192380D01*
D11*
%TO.C,C8*%
X143382000Y-106471000D02*
X141375000Y-106471000D01*
X139295000Y-106911000D02*
X137479000Y-106911000D01*
X143321000Y-106631000D02*
X141375000Y-106631000D01*
X139295000Y-106471000D02*
X137288000Y-106471000D01*
X139295000Y-106351000D02*
X137249000Y-106351000D01*
X139295000Y-106751000D02*
X137401000Y-106751000D01*
X139295000Y-107351000D02*
X137757000Y-107351000D01*
X143337000Y-106591000D02*
X141375000Y-106591000D01*
X143409000Y-106391000D02*
X141375000Y-106391000D01*
X139295000Y-107631000D02*
X137992000Y-107631000D01*
X142819000Y-107471000D02*
X141375000Y-107471000D01*
X142751000Y-107551000D02*
X141375000Y-107551000D01*
X142049000Y-108151000D02*
X138621000Y-108151000D01*
X139295000Y-105990000D02*
X137160000Y-105990000D01*
X143510000Y-105990000D02*
X141375000Y-105990000D01*
X143562000Y-105550000D02*
X137108000Y-105550000D01*
X139295000Y-107031000D02*
X137545000Y-107031000D01*
X139295000Y-106671000D02*
X137365000Y-106671000D01*
X139295000Y-106231000D02*
X137214000Y-106231000D01*
X143476000Y-106151000D02*
X141375000Y-106151000D01*
X141767000Y-108311000D02*
X138903000Y-108311000D01*
X139295000Y-106191000D02*
X137204000Y-106191000D01*
X139295000Y-107551000D02*
X137919000Y-107551000D01*
X142174000Y-101889759D02*
X142174000Y-102519759D01*
X143396000Y-106431000D02*
X141375000Y-106431000D01*
X143546000Y-105750000D02*
X141375000Y-105750000D01*
X143517000Y-105950000D02*
X141375000Y-105950000D01*
X141394000Y-108471000D02*
X139276000Y-108471000D01*
X139295000Y-106551000D02*
X137317000Y-106551000D01*
X139295000Y-106871000D02*
X137459000Y-106871000D01*
X143536000Y-105830000D02*
X141375000Y-105830000D01*
X142225000Y-108031000D02*
X138445000Y-108031000D01*
X143251000Y-106791000D02*
X141375000Y-106791000D01*
X139295000Y-105910000D02*
X137146000Y-105910000D01*
X143550000Y-105710000D02*
X141375000Y-105710000D01*
X139295000Y-105950000D02*
X137153000Y-105950000D01*
X143494000Y-106070000D02*
X141375000Y-106070000D01*
X143530000Y-105870000D02*
X141375000Y-105870000D01*
X139295000Y-106311000D02*
X137237000Y-106311000D01*
X143231000Y-106831000D02*
X141375000Y-106831000D01*
X142999000Y-107231000D02*
X141375000Y-107231000D01*
X139295000Y-107071000D02*
X137569000Y-107071000D01*
X139295000Y-105790000D02*
X137129000Y-105790000D01*
X140737000Y-108631000D02*
X139933000Y-108631000D01*
X142379000Y-107911000D02*
X138291000Y-107911000D01*
X142678000Y-107631000D02*
X141375000Y-107631000D01*
X139295000Y-106951000D02*
X137501000Y-106951000D01*
X143421000Y-106351000D02*
X141375000Y-106351000D01*
X139295000Y-106030000D02*
X137168000Y-106030000D01*
X139295000Y-107151000D02*
X137619000Y-107151000D01*
X141844000Y-108271000D02*
X138826000Y-108271000D01*
X139295000Y-106151000D02*
X137194000Y-106151000D01*
X143557000Y-105630000D02*
X141375000Y-105630000D01*
X143125000Y-107031000D02*
X141375000Y-107031000D01*
X139295000Y-106591000D02*
X137333000Y-106591000D01*
X139295000Y-106271000D02*
X137225000Y-106271000D01*
X143287000Y-106711000D02*
X141375000Y-106711000D01*
X143565000Y-105430000D02*
X137105000Y-105430000D01*
X140968000Y-108591000D02*
X139702000Y-108591000D01*
X139295000Y-106431000D02*
X137274000Y-106431000D01*
X143541000Y-105790000D02*
X141375000Y-105790000D01*
X143565000Y-105470000D02*
X137105000Y-105470000D01*
X141597000Y-108391000D02*
X139073000Y-108391000D01*
X143553000Y-105670000D02*
X141375000Y-105670000D01*
X142169000Y-108071000D02*
X138501000Y-108071000D01*
X142600000Y-107711000D02*
X138070000Y-107711000D01*
X142640000Y-107671000D02*
X141375000Y-107671000D01*
X142851000Y-107431000D02*
X141375000Y-107431000D01*
X142517000Y-107791000D02*
X138153000Y-107791000D01*
X141985000Y-108191000D02*
X138685000Y-108191000D01*
X139295000Y-107671000D02*
X138030000Y-107671000D01*
X142913000Y-107351000D02*
X141375000Y-107351000D01*
X143025000Y-107191000D02*
X141375000Y-107191000D01*
X142785000Y-107511000D02*
X141375000Y-107511000D01*
X139295000Y-106831000D02*
X137439000Y-106831000D01*
X139295000Y-105830000D02*
X137134000Y-105830000D01*
X143433000Y-106311000D02*
X141375000Y-106311000D01*
X139295000Y-107511000D02*
X137885000Y-107511000D01*
X139295000Y-105630000D02*
X137113000Y-105630000D01*
X143559000Y-105590000D02*
X137111000Y-105590000D01*
X142559000Y-107751000D02*
X138111000Y-107751000D01*
X139295000Y-105670000D02*
X137117000Y-105670000D01*
X141500000Y-108431000D02*
X139170000Y-108431000D01*
X142942000Y-107311000D02*
X141375000Y-107311000D01*
X143147000Y-106991000D02*
X141375000Y-106991000D01*
X142472000Y-107831000D02*
X138198000Y-107831000D01*
X142715000Y-107591000D02*
X141375000Y-107591000D01*
X143445000Y-106271000D02*
X141375000Y-106271000D01*
X143101000Y-107071000D02*
X141375000Y-107071000D01*
X139295000Y-106791000D02*
X137419000Y-106791000D01*
X143524000Y-105910000D02*
X141375000Y-105910000D01*
X139295000Y-106631000D02*
X137349000Y-106631000D01*
X141685000Y-108351000D02*
X138985000Y-108351000D01*
X139295000Y-107391000D02*
X137787000Y-107391000D01*
X142883000Y-107391000D02*
X141375000Y-107391000D01*
X139295000Y-105870000D02*
X137140000Y-105870000D01*
X143211000Y-106871000D02*
X141375000Y-106871000D01*
X143368000Y-106511000D02*
X141375000Y-106511000D01*
X142427000Y-107871000D02*
X138243000Y-107871000D01*
X143456000Y-106231000D02*
X141375000Y-106231000D01*
X139295000Y-107271000D02*
X137699000Y-107271000D01*
X143466000Y-106191000D02*
X141375000Y-106191000D01*
X143305000Y-106671000D02*
X141375000Y-106671000D01*
X143563000Y-105510000D02*
X137107000Y-105510000D01*
X143502000Y-106030000D02*
X141375000Y-106030000D01*
X143169000Y-106951000D02*
X141375000Y-106951000D01*
X139295000Y-107111000D02*
X137593000Y-107111000D01*
X142971000Y-107271000D02*
X141375000Y-107271000D01*
X142489000Y-102204759D02*
X141859000Y-102204759D01*
X139295000Y-105710000D02*
X137120000Y-105710000D01*
X143353000Y-106551000D02*
X141375000Y-106551000D01*
X143191000Y-106911000D02*
X141375000Y-106911000D01*
X142330000Y-107951000D02*
X138340000Y-107951000D01*
X141916000Y-108231000D02*
X138754000Y-108231000D01*
X139295000Y-106111000D02*
X137185000Y-106111000D01*
X139295000Y-106391000D02*
X137261000Y-106391000D01*
X139295000Y-106991000D02*
X137523000Y-106991000D01*
X139295000Y-107431000D02*
X137819000Y-107431000D01*
X141137000Y-108551000D02*
X139533000Y-108551000D01*
X139295000Y-106511000D02*
X137302000Y-106511000D01*
X141275000Y-108511000D02*
X139395000Y-108511000D01*
X139295000Y-107471000D02*
X137851000Y-107471000D01*
X143269000Y-106751000D02*
X141375000Y-106751000D01*
X139295000Y-105750000D02*
X137124000Y-105750000D01*
X143565000Y-105390000D02*
X137105000Y-105390000D01*
X139295000Y-107191000D02*
X137645000Y-107191000D01*
X143051000Y-107151000D02*
X141375000Y-107151000D01*
X143485000Y-106111000D02*
X141375000Y-106111000D01*
X139295000Y-106070000D02*
X137176000Y-106070000D01*
X139295000Y-107591000D02*
X137955000Y-107591000D01*
X139295000Y-107231000D02*
X137671000Y-107231000D01*
X142279000Y-107991000D02*
X138391000Y-107991000D01*
X139295000Y-106711000D02*
X137383000Y-106711000D01*
X143077000Y-107111000D02*
X141375000Y-107111000D01*
X142111000Y-108111000D02*
X138559000Y-108111000D01*
X139295000Y-107311000D02*
X137728000Y-107311000D01*
X143605000Y-105390000D02*
G75*
G03*
X143605000Y-105390000I-3270000J0D01*
G01*
%TO.C,C16*%
X166372000Y-108825420D02*
X166372000Y-109106580D01*
X165352000Y-108825420D02*
X165352000Y-109106580D01*
%TO.C,C23*%
X162065580Y-118870000D02*
X161784420Y-118870000D01*
X162065580Y-119890000D02*
X161784420Y-119890000D01*
%TO.C,R2*%
X127397742Y-107202500D02*
X127872258Y-107202500D01*
X127397742Y-106157500D02*
X127872258Y-106157500D01*
%TO.C,Q9*%
X155685000Y-93280000D02*
X155685000Y-94680000D01*
X158005000Y-94680000D02*
X158005000Y-92780000D01*
%TO.C,C11*%
X169140000Y-99818621D02*
X167602000Y-99818621D01*
X173355000Y-98457621D02*
X171220000Y-98457621D01*
X169140000Y-99538621D02*
X167414000Y-99538621D01*
X173395000Y-98177621D02*
X171220000Y-98177621D01*
X173056000Y-99338621D02*
X171220000Y-99338621D01*
X173096000Y-99258621D02*
X171220000Y-99258621D01*
X169140000Y-98257621D02*
X166974000Y-98257621D01*
X169140000Y-99578621D02*
X167438000Y-99578621D01*
X169140000Y-98978621D02*
X167147000Y-98978621D01*
X172070000Y-100498621D02*
X168290000Y-100498621D01*
X169140000Y-98578621D02*
X167030000Y-98578621D01*
X172596000Y-100018621D02*
X171220000Y-100018621D01*
X172334000Y-94672380D02*
X171704000Y-94672380D01*
X169140000Y-99458621D02*
X167368000Y-99458621D01*
X172992000Y-99458621D02*
X171220000Y-99458621D01*
X173369000Y-98377621D02*
X171220000Y-98377621D01*
X173213000Y-98978621D02*
X171220000Y-98978621D01*
X171830000Y-100658621D02*
X168530000Y-100658621D01*
X173330000Y-98578621D02*
X171220000Y-98578621D01*
X169140000Y-100018621D02*
X167764000Y-100018621D01*
X169140000Y-99898621D02*
X167664000Y-99898621D01*
X172445000Y-100178621D02*
X167915000Y-100178621D01*
X169140000Y-98497621D02*
X167013000Y-98497621D01*
X172664000Y-99938621D02*
X171220000Y-99938621D01*
X169140000Y-98698621D02*
X167059000Y-98698621D01*
X173398000Y-98137621D02*
X171220000Y-98137621D01*
X169140000Y-99018621D02*
X167162000Y-99018621D01*
X169140000Y-98858621D02*
X167106000Y-98858621D01*
X172560000Y-100058621D02*
X171220000Y-100058621D01*
X173301000Y-98698621D02*
X171220000Y-98698621D01*
X169140000Y-99858621D02*
X167632000Y-99858621D01*
X173114000Y-99218621D02*
X171220000Y-99218621D01*
X171120000Y-100978621D02*
X169240000Y-100978621D01*
X169140000Y-98377621D02*
X166991000Y-98377621D01*
X172404000Y-100218621D02*
X167956000Y-100218621D01*
X170813000Y-101058621D02*
X169547000Y-101058621D01*
X172696000Y-99898621D02*
X171220000Y-99898621D01*
X169140000Y-98137621D02*
X166962000Y-98137621D01*
X173278000Y-98778621D02*
X171220000Y-98778621D01*
X171442000Y-100858621D02*
X168918000Y-100858621D01*
X169140000Y-98097621D02*
X166958000Y-98097621D01*
X171894000Y-100618621D02*
X168466000Y-100618621D01*
X172970000Y-99498621D02*
X171220000Y-99498621D01*
X171956000Y-100578621D02*
X168404000Y-100578621D01*
X169140000Y-99298621D02*
X167284000Y-99298621D01*
X171239000Y-100938621D02*
X169121000Y-100938621D01*
X173408000Y-97977621D02*
X166952000Y-97977621D01*
X172317000Y-100298621D02*
X168043000Y-100298621D01*
X171345000Y-100898621D02*
X169015000Y-100898621D01*
X173227000Y-98938621D02*
X171220000Y-98938621D01*
X169140000Y-99938621D02*
X167696000Y-99938621D01*
X172758000Y-99818621D02*
X171220000Y-99818621D01*
X172844000Y-99698621D02*
X171220000Y-99698621D01*
X169140000Y-99738621D02*
X167544000Y-99738621D01*
X173404000Y-98057621D02*
X166956000Y-98057621D01*
X173362000Y-98417621D02*
X171220000Y-98417621D01*
X169140000Y-99338621D02*
X167304000Y-99338621D01*
X173402000Y-98097621D02*
X171220000Y-98097621D01*
X169140000Y-99378621D02*
X167324000Y-99378621D01*
X173036000Y-99378621D02*
X171220000Y-99378621D01*
X169140000Y-98417621D02*
X166998000Y-98417621D01*
X169140000Y-100058621D02*
X167800000Y-100058621D01*
X169140000Y-98938621D02*
X167133000Y-98938621D01*
X169140000Y-98457621D02*
X167005000Y-98457621D01*
X169140000Y-99418621D02*
X167346000Y-99418621D01*
X172630000Y-99978621D02*
X171220000Y-99978621D01*
X169140000Y-99138621D02*
X167210000Y-99138621D01*
X169140000Y-99498621D02*
X167390000Y-99498621D01*
X169140000Y-99258621D02*
X167264000Y-99258621D01*
X169140000Y-99658621D02*
X167490000Y-99658621D01*
X173410000Y-97897621D02*
X166950000Y-97897621D01*
X173407000Y-98017621D02*
X166953000Y-98017621D01*
X169140000Y-100138621D02*
X167875000Y-100138621D01*
X172523000Y-100098621D02*
X171220000Y-100098621D01*
X173311000Y-98658621D02*
X171220000Y-98658621D01*
X173391000Y-98217621D02*
X171220000Y-98217621D01*
X173386000Y-98257621D02*
X171220000Y-98257621D01*
X169140000Y-99178621D02*
X167228000Y-99178621D01*
X172272000Y-100338621D02*
X168088000Y-100338621D01*
X169140000Y-99618621D02*
X167464000Y-99618621D01*
X173132000Y-99178621D02*
X171220000Y-99178621D01*
X172816000Y-99738621D02*
X171220000Y-99738621D01*
X172175000Y-100418621D02*
X168185000Y-100418621D01*
X173290000Y-98738621D02*
X171220000Y-98738621D01*
X173166000Y-99098621D02*
X171220000Y-99098621D01*
X173339000Y-98537621D02*
X171220000Y-98537621D01*
X169140000Y-98658621D02*
X167049000Y-98658621D01*
X172362000Y-100258621D02*
X167998000Y-100258621D01*
X173266000Y-98818621D02*
X171220000Y-98818621D01*
X172124000Y-100458621D02*
X168236000Y-100458621D01*
X169140000Y-98337621D02*
X166985000Y-98337621D01*
X169140000Y-98537621D02*
X167021000Y-98537621D01*
X172014000Y-100538621D02*
X168346000Y-100538621D01*
X169140000Y-99978621D02*
X167730000Y-99978621D01*
X171689000Y-100738621D02*
X168671000Y-100738621D01*
X169140000Y-98618621D02*
X167039000Y-98618621D01*
X172019000Y-94357380D02*
X172019000Y-94987380D01*
X173381000Y-98297621D02*
X171220000Y-98297621D01*
X169140000Y-98778621D02*
X167082000Y-98778621D01*
X173375000Y-98337621D02*
X171220000Y-98337621D01*
X172485000Y-100138621D02*
X171220000Y-100138621D01*
X173347000Y-98497621D02*
X171220000Y-98497621D01*
X172922000Y-99578621D02*
X171220000Y-99578621D01*
X169140000Y-98898621D02*
X167119000Y-98898621D01*
X171612000Y-100778621D02*
X168748000Y-100778621D01*
X172787000Y-99778621D02*
X171220000Y-99778621D01*
X169140000Y-99058621D02*
X167178000Y-99058621D01*
X169140000Y-100098621D02*
X167837000Y-100098621D01*
X173150000Y-99138621D02*
X171220000Y-99138621D01*
X169140000Y-98297621D02*
X166979000Y-98297621D01*
X173076000Y-99298621D02*
X171220000Y-99298621D01*
X172224000Y-100378621D02*
X168136000Y-100378621D01*
X173410000Y-97857621D02*
X166950000Y-97857621D01*
X173241000Y-98898621D02*
X171220000Y-98898621D01*
X170582000Y-101098621D02*
X169778000Y-101098621D01*
X169140000Y-99698621D02*
X167516000Y-99698621D01*
X169140000Y-98177621D02*
X166965000Y-98177621D01*
X169140000Y-98738621D02*
X167070000Y-98738621D01*
X173410000Y-97937621D02*
X166950000Y-97937621D01*
X173321000Y-98618621D02*
X171220000Y-98618621D01*
X173182000Y-99058621D02*
X171220000Y-99058621D01*
X173254000Y-98858621D02*
X171220000Y-98858621D01*
X171530000Y-100818621D02*
X168830000Y-100818621D01*
X169140000Y-98818621D02*
X167094000Y-98818621D01*
X172946000Y-99538621D02*
X171220000Y-99538621D01*
X169140000Y-99218621D02*
X167246000Y-99218621D01*
X169140000Y-99778621D02*
X167573000Y-99778621D01*
X169140000Y-98217621D02*
X166969000Y-98217621D01*
X170982000Y-101018621D02*
X169378000Y-101018621D01*
X172870000Y-99658621D02*
X171220000Y-99658621D01*
X169140000Y-99098621D02*
X167194000Y-99098621D01*
X172896000Y-99618621D02*
X171220000Y-99618621D01*
X173014000Y-99418621D02*
X171220000Y-99418621D01*
X173198000Y-99018621D02*
X171220000Y-99018621D01*
X171761000Y-100698621D02*
X168599000Y-100698621D01*
X172728000Y-99858621D02*
X171220000Y-99858621D01*
X173450000Y-97857621D02*
G75*
G03*
X173450000Y-97857621I-3270000J0D01*
G01*
%TO.C,R7*%
X141842258Y-80532500D02*
X141367742Y-80532500D01*
X141842258Y-79487500D02*
X141367742Y-79487500D01*
%TO.C,U1*%
X158095000Y-112745000D02*
X158095000Y-114695000D01*
X163215000Y-112745000D02*
X163215000Y-114695000D01*
X163215000Y-112745000D02*
X163215000Y-109295000D01*
X158095000Y-112745000D02*
X158095000Y-110795000D01*
%TO.C,Q5*%
X150258000Y-85155000D02*
X150258000Y-83255000D01*
X147938000Y-83755000D02*
X147938000Y-85155000D01*
%TO.C,C7*%
X129177000Y-101363621D02*
X127405000Y-101363621D01*
X125325000Y-101003621D02*
X123379000Y-101003621D01*
X127167000Y-102923621D02*
X125563000Y-102923621D01*
X128972000Y-101683621D02*
X127405000Y-101683621D01*
X125325000Y-101083621D02*
X123413000Y-101083621D01*
X125325000Y-100002621D02*
X123143000Y-100002621D01*
X125325000Y-102003621D02*
X124022000Y-102003621D01*
X129587000Y-100002621D02*
X127405000Y-100002621D01*
X128360000Y-102323621D02*
X124370000Y-102323621D01*
X129595000Y-99842621D02*
X123135000Y-99842621D01*
X129515000Y-100483621D02*
X127405000Y-100483621D01*
X125325000Y-100442621D02*
X123206000Y-100442621D01*
X129131000Y-101443621D02*
X127405000Y-101443621D01*
X129566000Y-100202621D02*
X127405000Y-100202621D01*
X128255000Y-102403621D02*
X124475000Y-102403621D01*
X128881000Y-101803621D02*
X127405000Y-101803621D01*
X128815000Y-101883621D02*
X127405000Y-101883621D01*
X129055000Y-101563621D02*
X127405000Y-101563621D01*
X125325000Y-100162621D02*
X123159000Y-100162621D01*
X125325000Y-101683621D02*
X123758000Y-101683621D01*
X129029000Y-101603621D02*
X127405000Y-101603621D01*
X125325000Y-100322621D02*
X123183000Y-100322621D01*
X125325000Y-100803621D02*
X123304000Y-100803621D01*
X129317000Y-101083621D02*
X127405000Y-101083621D01*
X125325000Y-101283621D02*
X123509000Y-101283621D01*
X129001000Y-101643621D02*
X127405000Y-101643621D01*
X125325000Y-100523621D02*
X123224000Y-100523621D01*
X128589000Y-102123621D02*
X124141000Y-102123621D01*
X127797000Y-102683621D02*
X124933000Y-102683621D01*
X129583000Y-100042621D02*
X127405000Y-100042621D01*
X129398000Y-100883621D02*
X127405000Y-100883621D01*
X128502000Y-102203621D02*
X124228000Y-102203621D01*
X125325000Y-100723621D02*
X123279000Y-100723621D01*
X125325000Y-101803621D02*
X123849000Y-101803621D01*
X129463000Y-100683621D02*
X127405000Y-100683621D01*
X127305000Y-102883621D02*
X125425000Y-102883621D01*
X129571000Y-100162621D02*
X127405000Y-100162621D01*
X129475000Y-100643621D02*
X127405000Y-100643621D01*
X125325000Y-101883621D02*
X123915000Y-101883621D01*
X128943000Y-101723621D02*
X127405000Y-101723621D01*
X129107000Y-101483621D02*
X127405000Y-101483621D01*
X129426000Y-100803621D02*
X127405000Y-100803621D01*
X129221000Y-101283621D02*
X127405000Y-101283621D01*
X129547000Y-100322621D02*
X127405000Y-100322621D01*
X127627000Y-102763621D02*
X125103000Y-102763621D01*
X128457000Y-102243621D02*
X124273000Y-102243621D01*
X128204000Y-96262380D02*
X128204000Y-96892380D01*
X129155000Y-101403621D02*
X127405000Y-101403621D01*
X128630000Y-102083621D02*
X124100000Y-102083621D01*
X128199000Y-102443621D02*
X124531000Y-102443621D01*
X129451000Y-100723621D02*
X127405000Y-100723621D01*
X125325000Y-101643621D02*
X123729000Y-101643621D01*
X129486000Y-100603621D02*
X127405000Y-100603621D01*
X125325000Y-100923621D02*
X123347000Y-100923621D01*
X128547000Y-102163621D02*
X124183000Y-102163621D01*
X127946000Y-102603621D02*
X124784000Y-102603621D01*
X125325000Y-100843621D02*
X123318000Y-100843621D01*
X129592000Y-99922621D02*
X123138000Y-99922621D01*
X128015000Y-102563621D02*
X124715000Y-102563621D01*
X128670000Y-102043621D02*
X127405000Y-102043621D01*
X125325000Y-101763621D02*
X123817000Y-101763621D01*
X125325000Y-101563621D02*
X123675000Y-101563621D01*
X125325000Y-100563621D02*
X123234000Y-100563621D01*
X128913000Y-101763621D02*
X127405000Y-101763621D01*
X125325000Y-101163621D02*
X123449000Y-101163621D01*
X125325000Y-100202621D02*
X123164000Y-100202621D01*
X128141000Y-102483621D02*
X124589000Y-102483621D01*
X129593000Y-99882621D02*
X123137000Y-99882621D01*
X125325000Y-100042621D02*
X123147000Y-100042621D01*
X128079000Y-102523621D02*
X124651000Y-102523621D01*
X125325000Y-100082621D02*
X123150000Y-100082621D01*
X125325000Y-101723621D02*
X123787000Y-101723621D01*
X129199000Y-101323621D02*
X127405000Y-101323621D01*
X129576000Y-100122621D02*
X127405000Y-100122621D01*
X128708000Y-102003621D02*
X127405000Y-102003621D01*
X129281000Y-101163621D02*
X127405000Y-101163621D01*
X129351000Y-101003621D02*
X127405000Y-101003621D01*
X125325000Y-100883621D02*
X123332000Y-100883621D01*
X129554000Y-100282621D02*
X127405000Y-100282621D01*
X129506000Y-100523621D02*
X127405000Y-100523621D01*
X125325000Y-101483621D02*
X123623000Y-101483621D01*
X129439000Y-100763621D02*
X127405000Y-100763621D01*
X125325000Y-100122621D02*
X123154000Y-100122621D01*
X129412000Y-100843621D02*
X127405000Y-100843621D01*
X129383000Y-100923621D02*
X127405000Y-100923621D01*
X128781000Y-101923621D02*
X127405000Y-101923621D01*
X129540000Y-100362621D02*
X127405000Y-100362621D01*
X129261000Y-101203621D02*
X127405000Y-101203621D01*
X125325000Y-101123621D02*
X123431000Y-101123621D01*
X125325000Y-101603621D02*
X123701000Y-101603621D01*
X129367000Y-100963621D02*
X127405000Y-100963621D01*
X128409000Y-102283621D02*
X124321000Y-102283621D01*
X129496000Y-100563621D02*
X127405000Y-100563621D01*
X125325000Y-101363621D02*
X123553000Y-101363621D01*
X125325000Y-101843621D02*
X123881000Y-101843621D01*
X129299000Y-101123621D02*
X127405000Y-101123621D01*
X125325000Y-100402621D02*
X123198000Y-100402621D01*
X129524000Y-100442621D02*
X127405000Y-100442621D01*
X126767000Y-103003621D02*
X125963000Y-103003621D01*
X125325000Y-100963621D02*
X123363000Y-100963621D01*
X128849000Y-101843621D02*
X127405000Y-101843621D01*
X125325000Y-100643621D02*
X123255000Y-100643621D01*
X125325000Y-101403621D02*
X123575000Y-101403621D01*
X125325000Y-100362621D02*
X123190000Y-100362621D01*
X127874000Y-102643621D02*
X124856000Y-102643621D01*
X125325000Y-100282621D02*
X123176000Y-100282621D01*
X125325000Y-100763621D02*
X123291000Y-100763621D01*
X129560000Y-100242621D02*
X127405000Y-100242621D01*
X125325000Y-100603621D02*
X123244000Y-100603621D01*
X125325000Y-100483621D02*
X123215000Y-100483621D01*
X125325000Y-100242621D02*
X123170000Y-100242621D01*
X129335000Y-101043621D02*
X127405000Y-101043621D01*
X128309000Y-102363621D02*
X124421000Y-102363621D01*
X125325000Y-101243621D02*
X123489000Y-101243621D01*
X127715000Y-102723621D02*
X125015000Y-102723621D01*
X125325000Y-101323621D02*
X123531000Y-101323621D01*
X127530000Y-102803621D02*
X125200000Y-102803621D01*
X129595000Y-99762621D02*
X123135000Y-99762621D01*
X127424000Y-102843621D02*
X125306000Y-102843621D01*
X126998000Y-102963621D02*
X125732000Y-102963621D01*
X125325000Y-101523621D02*
X123649000Y-101523621D01*
X125325000Y-101203621D02*
X123469000Y-101203621D01*
X129595000Y-99802621D02*
X123135000Y-99802621D01*
X129241000Y-101243621D02*
X127405000Y-101243621D01*
X129532000Y-100402621D02*
X127405000Y-100402621D01*
X125325000Y-101923621D02*
X123949000Y-101923621D01*
X125325000Y-102043621D02*
X124060000Y-102043621D01*
X129081000Y-101523621D02*
X127405000Y-101523621D01*
X128745000Y-101963621D02*
X127405000Y-101963621D01*
X125325000Y-101963621D02*
X123985000Y-101963621D01*
X125325000Y-101443621D02*
X123599000Y-101443621D01*
X128519000Y-96577380D02*
X127889000Y-96577380D01*
X125325000Y-100683621D02*
X123267000Y-100683621D01*
X125325000Y-101043621D02*
X123395000Y-101043621D01*
X129580000Y-100082621D02*
X127405000Y-100082621D01*
X129589000Y-99962621D02*
X123141000Y-99962621D01*
X129635000Y-99762621D02*
G75*
G03*
X129635000Y-99762621I-3270000J0D01*
G01*
%TO.C,C17*%
X164844000Y-115175420D02*
X164844000Y-115456580D01*
X165864000Y-115175420D02*
X165864000Y-115456580D01*
%TO.C,R16*%
X158352258Y-90057500D02*
X157877742Y-90057500D01*
X158352258Y-89012500D02*
X157877742Y-89012500D01*
%TO.C,RV1*%
X130165000Y-112590000D02*
X130165000Y-122360000D01*
X130165000Y-122360000D02*
X125095000Y-122360000D01*
X130165000Y-112590000D02*
X125095000Y-112590000D01*
X125095000Y-112590000D02*
X125095000Y-122360000D01*
%TO.C,R4*%
X133747742Y-102347500D02*
X134222258Y-102347500D01*
X133747742Y-103392500D02*
X134222258Y-103392500D01*
%TO.C,C18*%
X154688000Y-110349420D02*
X154688000Y-110630580D01*
X153668000Y-110349420D02*
X153668000Y-110630580D01*
%TO.C,R22*%
X158352258Y-97902500D02*
X157877742Y-97902500D01*
X158352258Y-98947500D02*
X157877742Y-98947500D01*
%TO.C,C9*%
X169580000Y-82740000D02*
X169580000Y-89980000D01*
X173320000Y-82740000D02*
X169580000Y-82740000D01*
X173320000Y-82740000D02*
X173320000Y-89980000D01*
X173320000Y-89980000D02*
X169580000Y-89980000D01*
%TO.C,C2*%
X125325000Y-90517621D02*
X123147000Y-90517621D01*
X125325000Y-91038621D02*
X123234000Y-91038621D01*
X125325000Y-90917621D02*
X123206000Y-90917621D01*
X129155000Y-91878621D02*
X127405000Y-91878621D01*
X129412000Y-91318621D02*
X127405000Y-91318621D01*
X128309000Y-92838621D02*
X124421000Y-92838621D01*
X129589000Y-90437621D02*
X123141000Y-90437621D01*
X128881000Y-92278621D02*
X127405000Y-92278621D01*
X125325000Y-92078621D02*
X123701000Y-92078621D01*
X129351000Y-91478621D02*
X127405000Y-91478621D01*
X128547000Y-92638621D02*
X124183000Y-92638621D01*
X129496000Y-91038621D02*
X127405000Y-91038621D01*
X129367000Y-91438621D02*
X127405000Y-91438621D01*
X125325000Y-90477621D02*
X123143000Y-90477621D01*
X128781000Y-92398621D02*
X127405000Y-92398621D01*
X129335000Y-91518621D02*
X127405000Y-91518621D01*
X129524000Y-90917621D02*
X127405000Y-90917621D01*
X129107000Y-91958621D02*
X127405000Y-91958621D01*
X125325000Y-92518621D02*
X124060000Y-92518621D01*
X129576000Y-90597621D02*
X127405000Y-90597621D01*
X129506000Y-90998621D02*
X127405000Y-90998621D01*
X125325000Y-91878621D02*
X123575000Y-91878621D01*
X127946000Y-93078621D02*
X124784000Y-93078621D01*
X125325000Y-92438621D02*
X123985000Y-92438621D01*
X125325000Y-91958621D02*
X123623000Y-91958621D01*
X129592000Y-90397621D02*
X123138000Y-90397621D01*
X125325000Y-91078621D02*
X123244000Y-91078621D01*
X125325000Y-90877621D02*
X123198000Y-90877621D01*
X129131000Y-91918621D02*
X127405000Y-91918621D01*
X125325000Y-92238621D02*
X123817000Y-92238621D01*
X125325000Y-91318621D02*
X123318000Y-91318621D01*
X129299000Y-91598621D02*
X127405000Y-91598621D01*
X129055000Y-92038621D02*
X127405000Y-92038621D01*
X129475000Y-91118621D02*
X127405000Y-91118621D01*
X129560000Y-90717621D02*
X127405000Y-90717621D01*
X125325000Y-91678621D02*
X123469000Y-91678621D01*
X125325000Y-92358621D02*
X123915000Y-92358621D01*
X125325000Y-91638621D02*
X123449000Y-91638621D01*
X128204000Y-86737380D02*
X128204000Y-87367380D01*
X127797000Y-93158621D02*
X124933000Y-93158621D01*
X127627000Y-93238621D02*
X125103000Y-93238621D01*
X125325000Y-90677621D02*
X123164000Y-90677621D01*
X126767000Y-93478621D02*
X125963000Y-93478621D01*
X129463000Y-91158621D02*
X127405000Y-91158621D01*
X125325000Y-91518621D02*
X123395000Y-91518621D01*
X125325000Y-91198621D02*
X123279000Y-91198621D01*
X129595000Y-90317621D02*
X123135000Y-90317621D01*
X125325000Y-90797621D02*
X123183000Y-90797621D01*
X127167000Y-93398621D02*
X125563000Y-93398621D01*
X125325000Y-92198621D02*
X123787000Y-92198621D01*
X125325000Y-91558621D02*
X123413000Y-91558621D01*
X125325000Y-90557621D02*
X123150000Y-90557621D01*
X126998000Y-93438621D02*
X125732000Y-93438621D01*
X129566000Y-90677621D02*
X127405000Y-90677621D01*
X129426000Y-91278621D02*
X127405000Y-91278621D01*
X125325000Y-92398621D02*
X123949000Y-92398621D01*
X129587000Y-90477621D02*
X127405000Y-90477621D01*
X125325000Y-91158621D02*
X123267000Y-91158621D01*
X128360000Y-92798621D02*
X124370000Y-92798621D01*
X129515000Y-90958621D02*
X127405000Y-90958621D01*
X128913000Y-92238621D02*
X127405000Y-92238621D01*
X127305000Y-93358621D02*
X125425000Y-93358621D01*
X125325000Y-90998621D02*
X123224000Y-90998621D01*
X129199000Y-91798621D02*
X127405000Y-91798621D01*
X129241000Y-91718621D02*
X127405000Y-91718621D01*
X129486000Y-91078621D02*
X127405000Y-91078621D01*
X125325000Y-92118621D02*
X123729000Y-92118621D01*
X125325000Y-90837621D02*
X123190000Y-90837621D01*
X125325000Y-91358621D02*
X123332000Y-91358621D01*
X127874000Y-93118621D02*
X124856000Y-93118621D01*
X125325000Y-91758621D02*
X123509000Y-91758621D01*
X125325000Y-91238621D02*
X123291000Y-91238621D01*
X127715000Y-93198621D02*
X125015000Y-93198621D01*
X129281000Y-91638621D02*
X127405000Y-91638621D01*
X129593000Y-90357621D02*
X123137000Y-90357621D01*
X129439000Y-91238621D02*
X127405000Y-91238621D01*
X129547000Y-90797621D02*
X127405000Y-90797621D01*
X125325000Y-90717621D02*
X123170000Y-90717621D01*
X125325000Y-91918621D02*
X123599000Y-91918621D01*
X129398000Y-91358621D02*
X127405000Y-91358621D01*
X128943000Y-92198621D02*
X127405000Y-92198621D01*
X125325000Y-91838621D02*
X123553000Y-91838621D01*
X129261000Y-91678621D02*
X127405000Y-91678621D01*
X128849000Y-92318621D02*
X127405000Y-92318621D01*
X128708000Y-92478621D02*
X127405000Y-92478621D01*
X125325000Y-92318621D02*
X123881000Y-92318621D01*
X128141000Y-92958621D02*
X124589000Y-92958621D01*
X125325000Y-91438621D02*
X123363000Y-91438621D01*
X125325000Y-90958621D02*
X123215000Y-90958621D01*
X128502000Y-92678621D02*
X124228000Y-92678621D01*
X125325000Y-92478621D02*
X124022000Y-92478621D01*
X129554000Y-90757621D02*
X127405000Y-90757621D01*
X125325000Y-91398621D02*
X123347000Y-91398621D01*
X129595000Y-90277621D02*
X123135000Y-90277621D01*
X125325000Y-91998621D02*
X123649000Y-91998621D01*
X127530000Y-93278621D02*
X125200000Y-93278621D01*
X129317000Y-91558621D02*
X127405000Y-91558621D01*
X125325000Y-92158621D02*
X123758000Y-92158621D01*
X128589000Y-92598621D02*
X124141000Y-92598621D01*
X129177000Y-91838621D02*
X127405000Y-91838621D01*
X128409000Y-92758621D02*
X124321000Y-92758621D01*
X125325000Y-91598621D02*
X123431000Y-91598621D01*
X128457000Y-92718621D02*
X124273000Y-92718621D01*
X129540000Y-90837621D02*
X127405000Y-90837621D01*
X125325000Y-91478621D02*
X123379000Y-91478621D01*
X125325000Y-91118621D02*
X123255000Y-91118621D01*
X129081000Y-91998621D02*
X127405000Y-91998621D01*
X128630000Y-92558621D02*
X124100000Y-92558621D01*
X129580000Y-90557621D02*
X127405000Y-90557621D01*
X128670000Y-92518621D02*
X127405000Y-92518621D01*
X129001000Y-92118621D02*
X127405000Y-92118621D01*
X125325000Y-91718621D02*
X123489000Y-91718621D01*
X125325000Y-91798621D02*
X123531000Y-91798621D01*
X125325000Y-90597621D02*
X123154000Y-90597621D01*
X128199000Y-92918621D02*
X124531000Y-92918621D01*
X129583000Y-90517621D02*
X127405000Y-90517621D01*
X128015000Y-93038621D02*
X124715000Y-93038621D01*
X129221000Y-91758621D02*
X127405000Y-91758621D01*
X129532000Y-90877621D02*
X127405000Y-90877621D01*
X125325000Y-91278621D02*
X123304000Y-91278621D01*
X129451000Y-91198621D02*
X127405000Y-91198621D01*
X128079000Y-92998621D02*
X124651000Y-92998621D01*
X128815000Y-92358621D02*
X127405000Y-92358621D01*
X128745000Y-92438621D02*
X127405000Y-92438621D01*
X127424000Y-93318621D02*
X125306000Y-93318621D01*
X125325000Y-92038621D02*
X123675000Y-92038621D01*
X125325000Y-90637621D02*
X123159000Y-90637621D01*
X128972000Y-92158621D02*
X127405000Y-92158621D01*
X128519000Y-87052380D02*
X127889000Y-87052380D01*
X129383000Y-91398621D02*
X127405000Y-91398621D01*
X125325000Y-90757621D02*
X123176000Y-90757621D01*
X125325000Y-92278621D02*
X123849000Y-92278621D01*
X129571000Y-90637621D02*
X127405000Y-90637621D01*
X129595000Y-90237621D02*
X123135000Y-90237621D01*
X128255000Y-92878621D02*
X124475000Y-92878621D01*
X129029000Y-92078621D02*
X127405000Y-92078621D01*
X129635000Y-90237621D02*
G75*
G03*
X129635000Y-90237621I-3270000J0D01*
G01*
%TO.C,C22*%
X154164420Y-105535000D02*
X154445580Y-105535000D01*
X154164420Y-106555000D02*
X154445580Y-106555000D01*
%TO.C,R18*%
X162162258Y-97902500D02*
X161687742Y-97902500D01*
X162162258Y-98947500D02*
X161687742Y-98947500D01*
%TO.C,Q4*%
X141588000Y-83755000D02*
X141588000Y-85155000D01*
X143908000Y-85155000D02*
X143908000Y-83255000D01*
%TO.C,R20*%
X162162258Y-89012500D02*
X161687742Y-89012500D01*
X162162258Y-90057500D02*
X161687742Y-90057500D01*
%TO.C,C6*%
X157888000Y-84193748D02*
X157888000Y-84716252D01*
X159358000Y-84193748D02*
X159358000Y-84716252D01*
%TO.C,R30*%
X161687742Y-122032500D02*
X162162258Y-122032500D01*
X161687742Y-123077500D02*
X162162258Y-123077500D01*
%TO.C,R6*%
X136160742Y-79487500D02*
X136635258Y-79487500D01*
X136160742Y-80532500D02*
X136635258Y-80532500D01*
%TO.C,Q1*%
X135890000Y-94198000D02*
X135240000Y-94198000D01*
X135890000Y-94198000D02*
X136540000Y-94198000D01*
X135890000Y-97318000D02*
X137565000Y-97318000D01*
X135890000Y-97318000D02*
X135240000Y-97318000D01*
%TO.C,R28*%
X146922258Y-105522500D02*
X146447742Y-105522500D01*
X146922258Y-106567500D02*
X146447742Y-106567500D01*
%TO.C,C15*%
X154684000Y-114934420D02*
X154684000Y-115215580D01*
X155704000Y-114934420D02*
X155704000Y-115215580D01*
%TO.C,C13*%
X173381000Y-119165000D02*
X171220000Y-119165000D01*
X169140000Y-120006000D02*
X167210000Y-120006000D01*
X172334000Y-115539759D02*
X171704000Y-115539759D01*
X171612000Y-121646000D02*
X168748000Y-121646000D01*
X172070000Y-121366000D02*
X168290000Y-121366000D01*
X169140000Y-120766000D02*
X167664000Y-120766000D01*
X173311000Y-119526000D02*
X171220000Y-119526000D01*
X173369000Y-119245000D02*
X171220000Y-119245000D01*
X169140000Y-120286000D02*
X167346000Y-120286000D01*
X173114000Y-120086000D02*
X171220000Y-120086000D01*
X172630000Y-120846000D02*
X171220000Y-120846000D01*
X169140000Y-119846000D02*
X167147000Y-119846000D01*
X172014000Y-121406000D02*
X168346000Y-121406000D01*
X169140000Y-119325000D02*
X167005000Y-119325000D01*
X169140000Y-120886000D02*
X167764000Y-120886000D01*
X173339000Y-119405000D02*
X171220000Y-119405000D01*
X169140000Y-120126000D02*
X167264000Y-120126000D01*
X171120000Y-121846000D02*
X169240000Y-121846000D01*
X173321000Y-119486000D02*
X171220000Y-119486000D01*
X172560000Y-120926000D02*
X171220000Y-120926000D01*
X172445000Y-121046000D02*
X167915000Y-121046000D01*
X172272000Y-121206000D02*
X168088000Y-121206000D01*
X173076000Y-120166000D02*
X171220000Y-120166000D01*
X169140000Y-119886000D02*
X167162000Y-119886000D01*
X173278000Y-119646000D02*
X171220000Y-119646000D01*
X173398000Y-119005000D02*
X171220000Y-119005000D01*
X169140000Y-119125000D02*
X166974000Y-119125000D01*
X169140000Y-119566000D02*
X167059000Y-119566000D01*
X172523000Y-120966000D02*
X171220000Y-120966000D01*
X173198000Y-119886000D02*
X171220000Y-119886000D01*
X171894000Y-121486000D02*
X168466000Y-121486000D01*
X173410000Y-118765000D02*
X166950000Y-118765000D01*
X170813000Y-121926000D02*
X169547000Y-121926000D01*
X173213000Y-119846000D02*
X171220000Y-119846000D01*
X169140000Y-120606000D02*
X167544000Y-120606000D01*
X169140000Y-120206000D02*
X167304000Y-120206000D01*
X169140000Y-120566000D02*
X167516000Y-120566000D01*
X172728000Y-120726000D02*
X171220000Y-120726000D01*
X172870000Y-120526000D02*
X171220000Y-120526000D01*
X169140000Y-119285000D02*
X166998000Y-119285000D01*
X173014000Y-120286000D02*
X171220000Y-120286000D01*
X169140000Y-120966000D02*
X167837000Y-120966000D01*
X172922000Y-120446000D02*
X171220000Y-120446000D01*
X169140000Y-119606000D02*
X167070000Y-119606000D01*
X172664000Y-120806000D02*
X171220000Y-120806000D01*
X169140000Y-120646000D02*
X167573000Y-120646000D01*
X169140000Y-119766000D02*
X167119000Y-119766000D01*
X169140000Y-119966000D02*
X167194000Y-119966000D01*
X172019000Y-115224759D02*
X172019000Y-115854759D01*
X173386000Y-119125000D02*
X171220000Y-119125000D01*
X171530000Y-121686000D02*
X168830000Y-121686000D01*
X169140000Y-120526000D02*
X167490000Y-120526000D01*
X169140000Y-119245000D02*
X166991000Y-119245000D01*
X173410000Y-118725000D02*
X166950000Y-118725000D01*
X172224000Y-121246000D02*
X168136000Y-121246000D01*
X170982000Y-121886000D02*
X169378000Y-121886000D01*
X169140000Y-119526000D02*
X167049000Y-119526000D01*
X173410000Y-118805000D02*
X166950000Y-118805000D01*
X173132000Y-120046000D02*
X171220000Y-120046000D01*
X172696000Y-120766000D02*
X171220000Y-120766000D01*
X173166000Y-119966000D02*
X171220000Y-119966000D01*
X169140000Y-119806000D02*
X167133000Y-119806000D01*
X173404000Y-118925000D02*
X166956000Y-118925000D01*
X169140000Y-119446000D02*
X167030000Y-119446000D01*
X172485000Y-121006000D02*
X171220000Y-121006000D01*
X172946000Y-120406000D02*
X171220000Y-120406000D01*
X169140000Y-120926000D02*
X167800000Y-120926000D01*
X169140000Y-120486000D02*
X167464000Y-120486000D01*
X169140000Y-120166000D02*
X167284000Y-120166000D01*
X172317000Y-121166000D02*
X168043000Y-121166000D01*
X173254000Y-119726000D02*
X171220000Y-119726000D01*
X169140000Y-119686000D02*
X167094000Y-119686000D01*
X173266000Y-119686000D02*
X171220000Y-119686000D01*
X170582000Y-121966000D02*
X169778000Y-121966000D01*
X169140000Y-119405000D02*
X167021000Y-119405000D01*
X169140000Y-119085000D02*
X166969000Y-119085000D01*
X173408000Y-118845000D02*
X166952000Y-118845000D01*
X171239000Y-121806000D02*
X169121000Y-121806000D01*
X173182000Y-119926000D02*
X171220000Y-119926000D01*
X173375000Y-119205000D02*
X171220000Y-119205000D01*
X169140000Y-120686000D02*
X167602000Y-120686000D01*
X171830000Y-121526000D02*
X168530000Y-121526000D01*
X172175000Y-121286000D02*
X168185000Y-121286000D01*
X169140000Y-120726000D02*
X167632000Y-120726000D01*
X173150000Y-120006000D02*
X171220000Y-120006000D01*
X169140000Y-119045000D02*
X166965000Y-119045000D01*
X171761000Y-121566000D02*
X168599000Y-121566000D01*
X169140000Y-119365000D02*
X167013000Y-119365000D01*
X169140000Y-120326000D02*
X167368000Y-120326000D01*
X172970000Y-120366000D02*
X171220000Y-120366000D01*
X169140000Y-119005000D02*
X166962000Y-119005000D01*
X169140000Y-119486000D02*
X167039000Y-119486000D01*
X172992000Y-120326000D02*
X171220000Y-120326000D01*
X172896000Y-120486000D02*
X171220000Y-120486000D01*
X173355000Y-119325000D02*
X171220000Y-119325000D01*
X169140000Y-118965000D02*
X166958000Y-118965000D01*
X173402000Y-118965000D02*
X171220000Y-118965000D01*
X169140000Y-119726000D02*
X167106000Y-119726000D01*
X173391000Y-119085000D02*
X171220000Y-119085000D01*
X173036000Y-120246000D02*
X171220000Y-120246000D01*
X173227000Y-119806000D02*
X171220000Y-119806000D01*
X172758000Y-120686000D02*
X171220000Y-120686000D01*
X173301000Y-119566000D02*
X171220000Y-119566000D01*
X171442000Y-121726000D02*
X168918000Y-121726000D01*
X169140000Y-120446000D02*
X167438000Y-120446000D01*
X169140000Y-120046000D02*
X167228000Y-120046000D01*
X172596000Y-120886000D02*
X171220000Y-120886000D01*
X169140000Y-120086000D02*
X167246000Y-120086000D01*
X173362000Y-119285000D02*
X171220000Y-119285000D01*
X169140000Y-120366000D02*
X167390000Y-120366000D01*
X172816000Y-120606000D02*
X171220000Y-120606000D01*
X173407000Y-118885000D02*
X166953000Y-118885000D01*
X171689000Y-121606000D02*
X168671000Y-121606000D01*
X169140000Y-120406000D02*
X167414000Y-120406000D01*
X169140000Y-120246000D02*
X167324000Y-120246000D01*
X173096000Y-120126000D02*
X171220000Y-120126000D01*
X172362000Y-121126000D02*
X167998000Y-121126000D01*
X172404000Y-121086000D02*
X167956000Y-121086000D01*
X172124000Y-121326000D02*
X168236000Y-121326000D01*
X169140000Y-120806000D02*
X167696000Y-120806000D01*
X171956000Y-121446000D02*
X168404000Y-121446000D01*
X169140000Y-119205000D02*
X166985000Y-119205000D01*
X173290000Y-119606000D02*
X171220000Y-119606000D01*
X173347000Y-119365000D02*
X171220000Y-119365000D01*
X173395000Y-119045000D02*
X171220000Y-119045000D01*
X173241000Y-119766000D02*
X171220000Y-119766000D01*
X173056000Y-120206000D02*
X171220000Y-120206000D01*
X169140000Y-119926000D02*
X167178000Y-119926000D01*
X172844000Y-120566000D02*
X171220000Y-120566000D01*
X169140000Y-119165000D02*
X166979000Y-119165000D01*
X172787000Y-120646000D02*
X171220000Y-120646000D01*
X169140000Y-120846000D02*
X167730000Y-120846000D01*
X169140000Y-119646000D02*
X167082000Y-119646000D01*
X171345000Y-121766000D02*
X169015000Y-121766000D01*
X169140000Y-121006000D02*
X167875000Y-121006000D01*
X173330000Y-119446000D02*
X171220000Y-119446000D01*
X173450000Y-118725000D02*
G75*
G03*
X173450000Y-118725000I-3270000J0D01*
G01*
%TO.C,C14*%
X169140000Y-113421000D02*
X167414000Y-113421000D01*
X172946000Y-113421000D02*
X171220000Y-113421000D01*
X172630000Y-113861000D02*
X171220000Y-113861000D01*
X172664000Y-113821000D02*
X171220000Y-113821000D01*
X169140000Y-113661000D02*
X167573000Y-113661000D01*
X172560000Y-113941000D02*
X171220000Y-113941000D01*
X173076000Y-113181000D02*
X171220000Y-113181000D01*
X169140000Y-112701000D02*
X167094000Y-112701000D01*
X172019000Y-108239759D02*
X172019000Y-108869759D01*
X169140000Y-112461000D02*
X167030000Y-112461000D01*
X172992000Y-113341000D02*
X171220000Y-113341000D01*
X171345000Y-114781000D02*
X169015000Y-114781000D01*
X172014000Y-114421000D02*
X168346000Y-114421000D01*
X173278000Y-112661000D02*
X171220000Y-112661000D01*
X173266000Y-112701000D02*
X171220000Y-112701000D01*
X173166000Y-112981000D02*
X171220000Y-112981000D01*
X172896000Y-113501000D02*
X171220000Y-113501000D01*
X171761000Y-114581000D02*
X168599000Y-114581000D01*
X169140000Y-112981000D02*
X167194000Y-112981000D01*
X171894000Y-114501000D02*
X168466000Y-114501000D01*
X169140000Y-112581000D02*
X167059000Y-112581000D01*
X173254000Y-112741000D02*
X171220000Y-112741000D01*
X172596000Y-113901000D02*
X171220000Y-113901000D01*
X173402000Y-111980000D02*
X171220000Y-111980000D01*
X169140000Y-111980000D02*
X166958000Y-111980000D01*
X172523000Y-113981000D02*
X171220000Y-113981000D01*
X173369000Y-112260000D02*
X171220000Y-112260000D01*
X169140000Y-113741000D02*
X167632000Y-113741000D01*
X171956000Y-114461000D02*
X168404000Y-114461000D01*
X169140000Y-112661000D02*
X167082000Y-112661000D01*
X172970000Y-113381000D02*
X171220000Y-113381000D01*
X169140000Y-113701000D02*
X167602000Y-113701000D01*
X169140000Y-112621000D02*
X167070000Y-112621000D01*
X173330000Y-112461000D02*
X171220000Y-112461000D01*
X172485000Y-114021000D02*
X171220000Y-114021000D01*
X172175000Y-114301000D02*
X168185000Y-114301000D01*
X169140000Y-113301000D02*
X167346000Y-113301000D01*
X169140000Y-113541000D02*
X167490000Y-113541000D01*
X173410000Y-111820000D02*
X166950000Y-111820000D01*
X172224000Y-114261000D02*
X168136000Y-114261000D01*
X173227000Y-112821000D02*
X171220000Y-112821000D01*
X172758000Y-113701000D02*
X171220000Y-113701000D01*
X169140000Y-113341000D02*
X167368000Y-113341000D01*
X169140000Y-113181000D02*
X167284000Y-113181000D01*
X173301000Y-112581000D02*
X171220000Y-112581000D01*
X173114000Y-113101000D02*
X171220000Y-113101000D01*
X173150000Y-113021000D02*
X171220000Y-113021000D01*
X172362000Y-114141000D02*
X167998000Y-114141000D01*
X173395000Y-112060000D02*
X171220000Y-112060000D01*
X169140000Y-112060000D02*
X166965000Y-112060000D01*
X169140000Y-113061000D02*
X167228000Y-113061000D01*
X173407000Y-111900000D02*
X166953000Y-111900000D01*
X173408000Y-111860000D02*
X166952000Y-111860000D01*
X173347000Y-112380000D02*
X171220000Y-112380000D01*
X169140000Y-112541000D02*
X167049000Y-112541000D01*
X169140000Y-113901000D02*
X167764000Y-113901000D01*
X173321000Y-112501000D02*
X171220000Y-112501000D01*
X171830000Y-114541000D02*
X168530000Y-114541000D01*
X173213000Y-112861000D02*
X171220000Y-112861000D01*
X172728000Y-113741000D02*
X171220000Y-113741000D01*
X173339000Y-112420000D02*
X171220000Y-112420000D01*
X169140000Y-112741000D02*
X167106000Y-112741000D01*
X173381000Y-112180000D02*
X171220000Y-112180000D01*
X169140000Y-112340000D02*
X167005000Y-112340000D01*
X173036000Y-113261000D02*
X171220000Y-113261000D01*
X172070000Y-114381000D02*
X168290000Y-114381000D01*
X172844000Y-113581000D02*
X171220000Y-113581000D01*
X172787000Y-113661000D02*
X171220000Y-113661000D01*
X170982000Y-114901000D02*
X169378000Y-114901000D01*
X173182000Y-112941000D02*
X171220000Y-112941000D01*
X169140000Y-112380000D02*
X167013000Y-112380000D01*
X171120000Y-114861000D02*
X169240000Y-114861000D01*
X173014000Y-113301000D02*
X171220000Y-113301000D01*
X173398000Y-112020000D02*
X171220000Y-112020000D01*
X169140000Y-113381000D02*
X167390000Y-113381000D01*
X169140000Y-113501000D02*
X167464000Y-113501000D01*
X169140000Y-112941000D02*
X167178000Y-112941000D01*
X173410000Y-111740000D02*
X166950000Y-111740000D01*
X172922000Y-113461000D02*
X171220000Y-113461000D01*
X172272000Y-114221000D02*
X168088000Y-114221000D01*
X171239000Y-114821000D02*
X169121000Y-114821000D01*
X172124000Y-114341000D02*
X168236000Y-114341000D01*
X169140000Y-113261000D02*
X167324000Y-113261000D01*
X173375000Y-112220000D02*
X171220000Y-112220000D01*
X169140000Y-113221000D02*
X167304000Y-113221000D01*
X172445000Y-114061000D02*
X167915000Y-114061000D01*
X172816000Y-113621000D02*
X171220000Y-113621000D01*
X169140000Y-112501000D02*
X167039000Y-112501000D01*
X169140000Y-113621000D02*
X167544000Y-113621000D01*
X173410000Y-111780000D02*
X166950000Y-111780000D01*
X171530000Y-114701000D02*
X168830000Y-114701000D01*
X170582000Y-114981000D02*
X169778000Y-114981000D01*
X169140000Y-112140000D02*
X166974000Y-112140000D01*
X169140000Y-113101000D02*
X167246000Y-113101000D01*
X169140000Y-113141000D02*
X167264000Y-113141000D01*
X169140000Y-113981000D02*
X167837000Y-113981000D01*
X170813000Y-114941000D02*
X169547000Y-114941000D01*
X173391000Y-112100000D02*
X171220000Y-112100000D01*
X173241000Y-112781000D02*
X171220000Y-112781000D01*
X169140000Y-113021000D02*
X167210000Y-113021000D01*
X169140000Y-112781000D02*
X167119000Y-112781000D01*
X173311000Y-112541000D02*
X171220000Y-112541000D01*
X172334000Y-108554759D02*
X171704000Y-108554759D01*
X169140000Y-114021000D02*
X167875000Y-114021000D01*
X169140000Y-113581000D02*
X167516000Y-113581000D01*
X169140000Y-113461000D02*
X167438000Y-113461000D01*
X169140000Y-112100000D02*
X166969000Y-112100000D01*
X172404000Y-114101000D02*
X167956000Y-114101000D01*
X173096000Y-113141000D02*
X171220000Y-113141000D01*
X173386000Y-112140000D02*
X171220000Y-112140000D01*
X173056000Y-113221000D02*
X171220000Y-113221000D01*
X171689000Y-114621000D02*
X168671000Y-114621000D01*
X169140000Y-112260000D02*
X166991000Y-112260000D01*
X173198000Y-112901000D02*
X171220000Y-112901000D01*
X169140000Y-112901000D02*
X167162000Y-112901000D01*
X169140000Y-113781000D02*
X167664000Y-113781000D01*
X169140000Y-112180000D02*
X166979000Y-112180000D01*
X171442000Y-114741000D02*
X168918000Y-114741000D01*
X172870000Y-113541000D02*
X171220000Y-113541000D01*
X169140000Y-112420000D02*
X167021000Y-112420000D01*
X173132000Y-113061000D02*
X171220000Y-113061000D01*
X169140000Y-112020000D02*
X166962000Y-112020000D01*
X173362000Y-112300000D02*
X171220000Y-112300000D01*
X169140000Y-113941000D02*
X167800000Y-113941000D01*
X173355000Y-112340000D02*
X171220000Y-112340000D01*
X172696000Y-113781000D02*
X171220000Y-113781000D01*
X173404000Y-111940000D02*
X166956000Y-111940000D01*
X173290000Y-112621000D02*
X171220000Y-112621000D01*
X169140000Y-112300000D02*
X166998000Y-112300000D01*
X169140000Y-112220000D02*
X166985000Y-112220000D01*
X172317000Y-114181000D02*
X168043000Y-114181000D01*
X169140000Y-113861000D02*
X167730000Y-113861000D01*
X169140000Y-112821000D02*
X167133000Y-112821000D01*
X171612000Y-114661000D02*
X168748000Y-114661000D01*
X169140000Y-113821000D02*
X167696000Y-113821000D01*
X169140000Y-112861000D02*
X167147000Y-112861000D01*
X173450000Y-111740000D02*
G75*
G03*
X173450000Y-111740000I-3270000J0D01*
G01*
%TO.C,R1*%
X127872258Y-109332500D02*
X127397742Y-109332500D01*
X127872258Y-110377500D02*
X127397742Y-110377500D01*
%TO.C,Q7*%
X162958000Y-85155000D02*
X162958000Y-83255000D01*
X160638000Y-83755000D02*
X160638000Y-85155000D01*
%TO.C,R19*%
X150257742Y-97902500D02*
X150732258Y-97902500D01*
X150257742Y-98947500D02*
X150732258Y-98947500D01*
%TO.C,R15*%
X141367742Y-76722500D02*
X141842258Y-76722500D01*
X141367742Y-75677500D02*
X141842258Y-75677500D01*
%TO.C,RV2*%
X136515000Y-112590000D02*
X131445000Y-112590000D01*
X136515000Y-112590000D02*
X136515000Y-122360000D01*
X136515000Y-122360000D02*
X131445000Y-122360000D01*
X131445000Y-112590000D02*
X131445000Y-122360000D01*
%TO.C,C5*%
X153008000Y-84716252D02*
X153008000Y-84193748D01*
X151538000Y-84716252D02*
X151538000Y-84193748D01*
%TO.C,Q2*%
X135763000Y-92365000D02*
X135113000Y-92365000D01*
X135763000Y-92365000D02*
X137438000Y-92365000D01*
X135763000Y-89245000D02*
X135113000Y-89245000D01*
X135763000Y-89245000D02*
X136413000Y-89245000D01*
%TO.C,R26*%
X147107258Y-123077500D02*
X146632742Y-123077500D01*
X147107258Y-122032500D02*
X146632742Y-122032500D01*
%TO.C,R25*%
X150442742Y-118857500D02*
X150917258Y-118857500D01*
X150442742Y-119902500D02*
X150917258Y-119902500D01*
%TO.C,R27*%
X147107258Y-119902500D02*
X146632742Y-119902500D01*
X147107258Y-118857500D02*
X146632742Y-118857500D01*
%TO.C,R23*%
X162162258Y-106567500D02*
X161687742Y-106567500D01*
X162162258Y-105522500D02*
X161687742Y-105522500D01*
%TO.C,RV3*%
X137795000Y-112590000D02*
X137795000Y-122360000D01*
X142865000Y-112590000D02*
X142865000Y-122360000D01*
X142865000Y-112590000D02*
X137795000Y-112590000D01*
X142865000Y-122360000D02*
X137795000Y-122360000D01*
%TO.C,R14*%
X131080742Y-82662500D02*
X131555258Y-82662500D01*
X131080742Y-83707500D02*
X131555258Y-83707500D01*
%TO.C,R21*%
X154542258Y-97902500D02*
X154067742Y-97902500D01*
X154542258Y-98947500D02*
X154067742Y-98947500D01*
%TO.C,Q3*%
X135238000Y-83755000D02*
X135238000Y-85155000D01*
X137558000Y-85155000D02*
X137558000Y-83255000D01*
%TO.C,R9*%
X152002258Y-79487500D02*
X151527742Y-79487500D01*
X152002258Y-80532500D02*
X151527742Y-80532500D01*
%TO.C,R17*%
X154542258Y-90057500D02*
X154067742Y-90057500D01*
X154542258Y-89012500D02*
X154067742Y-89012500D01*
D10*
%TO.C,U2*%
X146020000Y-110325000D02*
X146020000Y-114465000D01*
X151160000Y-109395000D02*
X151160000Y-114465000D01*
D11*
%TO.C,C1*%
X134125580Y-105535000D02*
X133844420Y-105535000D01*
X134125580Y-106555000D02*
X133844420Y-106555000D01*
%TO.C,C10*%
X168875000Y-82740000D02*
X168875000Y-89980000D01*
X165135000Y-82740000D02*
X165135000Y-89980000D01*
X168875000Y-89980000D02*
X165135000Y-89980000D01*
X168875000Y-82740000D02*
X165135000Y-82740000D01*
%TO.C,R11*%
X162162258Y-79487500D02*
X161687742Y-79487500D01*
X162162258Y-80532500D02*
X161687742Y-80532500D01*
%TO.C,R3*%
X133747742Y-99172500D02*
X134222258Y-99172500D01*
X133747742Y-100217500D02*
X134222258Y-100217500D01*
%TO.C,R5*%
X136160742Y-76722500D02*
X136635258Y-76722500D01*
X136160742Y-75677500D02*
X136635258Y-75677500D01*
%TO.C,R12*%
X133747742Y-110377500D02*
X134222258Y-110377500D01*
X133747742Y-109332500D02*
X134222258Y-109332500D01*
%TO.C,R13*%
X131555258Y-86882500D02*
X131080742Y-86882500D01*
X131555258Y-85837500D02*
X131080742Y-85837500D01*
%TO.C,R29*%
X150257742Y-105522500D02*
X150732258Y-105522500D01*
X150257742Y-106567500D02*
X150732258Y-106567500D01*
%TO.C,C21*%
X154349420Y-119890000D02*
X154630580Y-119890000D01*
X154349420Y-118870000D02*
X154630580Y-118870000D01*
%TO.C,Q8*%
X160765000Y-93280000D02*
X160765000Y-94680000D01*
X163085000Y-94680000D02*
X163085000Y-92780000D01*
%TO.C,C12*%
X162065580Y-102360000D02*
X161784420Y-102360000D01*
X162065580Y-103380000D02*
X161784420Y-103380000D01*
%TO.C,R24*%
X150917258Y-123077500D02*
X150442742Y-123077500D01*
X150917258Y-122032500D02*
X150442742Y-122032500D01*
%TO.C,C20*%
X150635580Y-101598000D02*
X150354420Y-101598000D01*
X150635580Y-102618000D02*
X150354420Y-102618000D01*
%TO.C,C3*%
X138838000Y-84716252D02*
X138838000Y-84193748D01*
X140308000Y-84716252D02*
X140308000Y-84193748D01*
%TO.C,Q6*%
X156608000Y-85155000D02*
X156608000Y-83255000D01*
X154288000Y-83755000D02*
X154288000Y-85155000D01*
%TO.C,C19*%
X166737420Y-80520000D02*
X167018580Y-80520000D01*
X166737420Y-79500000D02*
X167018580Y-79500000D01*
%TO.C,C4*%
X146658000Y-84193748D02*
X146658000Y-84716252D01*
X145188000Y-84193748D02*
X145188000Y-84716252D01*
%TO.C,R8*%
X146922258Y-79487500D02*
X146447742Y-79487500D01*
X146922258Y-80532500D02*
X146447742Y-80532500D01*
%TO.C,R10*%
X157082258Y-80532500D02*
X156607742Y-80532500D01*
X157082258Y-79487500D02*
X156607742Y-79487500D01*
%TD*%
%LPC*%
D12*
%TO.C,C8*%
X140335000Y-104140000D03*
D13*
X140335000Y-106640000D03*
%TD*%
D14*
%TO.C,C16*%
X165862000Y-108191000D03*
X165862000Y-109741000D03*
%TD*%
D15*
%TO.C,C23*%
X162700000Y-119380000D03*
X161150000Y-119380000D03*
%TD*%
D16*
%TO.C,R2*%
X126810000Y-106680000D03*
X128460000Y-106680000D03*
%TD*%
D17*
%TO.C,Q9*%
X157495000Y-93030000D03*
X156845000Y-93030000D03*
X156195000Y-93030000D03*
X156195000Y-94930000D03*
X156845000Y-94930000D03*
X157495000Y-94930000D03*
%TD*%
D12*
%TO.C,C11*%
X170180000Y-96607621D03*
D13*
X170180000Y-99107621D03*
%TD*%
D18*
%TO.C,R7*%
X142430000Y-80010000D03*
X140780000Y-80010000D03*
%TD*%
D19*
%TO.C,U1*%
X162560000Y-110270000D03*
X161290000Y-110270000D03*
X160020000Y-110270000D03*
X158750000Y-110270000D03*
X158750000Y-115220000D03*
X160020000Y-115220000D03*
X161290000Y-115220000D03*
X162560000Y-115220000D03*
%TD*%
D17*
%TO.C,Q5*%
X149748000Y-83505000D03*
X149098000Y-83505000D03*
X148448000Y-83505000D03*
X148448000Y-85405000D03*
X149098000Y-85405000D03*
X149748000Y-85405000D03*
%TD*%
D12*
%TO.C,C7*%
X126365000Y-98512621D03*
D13*
X126365000Y-101012621D03*
%TD*%
D14*
%TO.C,C17*%
X165354000Y-114541000D03*
X165354000Y-116091000D03*
%TD*%
D18*
%TO.C,R16*%
X158940000Y-89535000D03*
X157290000Y-89535000D03*
%TD*%
D20*
%TO.C,RV1*%
X127635000Y-120015000D03*
X127635000Y-117475000D03*
X127635000Y-114935000D03*
%TD*%
D16*
%TO.C,R4*%
X133160000Y-102870000D03*
X134810000Y-102870000D03*
%TD*%
D14*
%TO.C,C18*%
X154178000Y-109715000D03*
X154178000Y-111265000D03*
%TD*%
D18*
%TO.C,R22*%
X158940000Y-98425000D03*
X157290000Y-98425000D03*
%TD*%
D13*
%TO.C,C9*%
X171450000Y-83860000D03*
X171450000Y-88860000D03*
%TD*%
D12*
%TO.C,C2*%
X126365000Y-88987621D03*
D13*
X126365000Y-91487621D03*
%TD*%
D21*
%TO.C,C22*%
X153530000Y-106045000D03*
X155080000Y-106045000D03*
%TD*%
D18*
%TO.C,R18*%
X162750000Y-98425000D03*
X161100000Y-98425000D03*
%TD*%
D17*
%TO.C,Q4*%
X143398000Y-83505000D03*
X142748000Y-83505000D03*
X142098000Y-83505000D03*
X142098000Y-85405000D03*
X142748000Y-85405000D03*
X143398000Y-85405000D03*
%TD*%
D18*
%TO.C,R20*%
X162750000Y-89535000D03*
X161100000Y-89535000D03*
%TD*%
D22*
%TO.C,C6*%
X158623000Y-83505000D03*
X158623000Y-85405000D03*
%TD*%
D16*
%TO.C,R30*%
X161100000Y-122555000D03*
X162750000Y-122555000D03*
%TD*%
%TO.C,R6*%
X135573000Y-80010000D03*
X137223000Y-80010000D03*
%TD*%
D23*
%TO.C,Q1*%
X136827500Y-96708000D03*
X136827500Y-94808000D03*
X134952500Y-95758000D03*
%TD*%
D18*
%TO.C,R28*%
X147510000Y-106045000D03*
X145860000Y-106045000D03*
%TD*%
D14*
%TO.C,C15*%
X155194000Y-114300000D03*
X155194000Y-115850000D03*
%TD*%
D12*
%TO.C,C13*%
X170180000Y-117475000D03*
D13*
X170180000Y-119975000D03*
%TD*%
D12*
%TO.C,C14*%
X170180000Y-110490000D03*
D13*
X170180000Y-112990000D03*
%TD*%
D18*
%TO.C,R1*%
X128460000Y-109855000D03*
X126810000Y-109855000D03*
%TD*%
D17*
%TO.C,Q7*%
X162448000Y-83505000D03*
X161798000Y-83505000D03*
X161148000Y-83505000D03*
X161148000Y-85405000D03*
X161798000Y-85405000D03*
X162448000Y-85405000D03*
%TD*%
D16*
%TO.C,R19*%
X149670000Y-98425000D03*
X151320000Y-98425000D03*
%TD*%
%TO.C,R15*%
X140780000Y-76200000D03*
X142430000Y-76200000D03*
%TD*%
D20*
%TO.C,RV2*%
X133985000Y-120015000D03*
X133985000Y-117475000D03*
X133985000Y-114935000D03*
%TD*%
D24*
%TO.C,C5*%
X152273000Y-85405000D03*
X152273000Y-83505000D03*
%TD*%
D23*
%TO.C,Q2*%
X136700500Y-91755000D03*
X136700500Y-89855000D03*
X134825500Y-90805000D03*
%TD*%
D18*
%TO.C,R26*%
X147695000Y-122555000D03*
X146045000Y-122555000D03*
%TD*%
D16*
%TO.C,R25*%
X149855000Y-119380000D03*
X151505000Y-119380000D03*
%TD*%
D18*
%TO.C,R27*%
X147695000Y-119380000D03*
X146045000Y-119380000D03*
%TD*%
%TO.C,R23*%
X162750000Y-106045000D03*
X161100000Y-106045000D03*
%TD*%
D20*
%TO.C,RV3*%
X140335000Y-120015000D03*
X140335000Y-117475000D03*
X140335000Y-114935000D03*
%TD*%
D16*
%TO.C,R14*%
X130493000Y-83185000D03*
X132143000Y-83185000D03*
%TD*%
D18*
%TO.C,R21*%
X155130000Y-98425000D03*
X153480000Y-98425000D03*
%TD*%
D17*
%TO.C,Q3*%
X137048000Y-83505000D03*
X136398000Y-83505000D03*
X135748000Y-83505000D03*
X135748000Y-85405000D03*
X136398000Y-85405000D03*
X137048000Y-85405000D03*
%TD*%
D18*
%TO.C,R9*%
X152590000Y-80010000D03*
X150940000Y-80010000D03*
%TD*%
%TO.C,R17*%
X155130000Y-89535000D03*
X153480000Y-89535000D03*
%TD*%
D25*
%TO.C,U2*%
X150590000Y-109845000D03*
X149590000Y-109845000D03*
X148590000Y-109845000D03*
X147590000Y-109845000D03*
X146590000Y-109845000D03*
X146590000Y-114945000D03*
X147590000Y-114945000D03*
X148590000Y-114945000D03*
X149590000Y-114945000D03*
X150590000Y-114945000D03*
%TD*%
D15*
%TO.C,C1*%
X134760000Y-106045000D03*
X133210000Y-106045000D03*
%TD*%
D13*
%TO.C,C10*%
X167005000Y-83860000D03*
X167005000Y-88860000D03*
%TD*%
D18*
%TO.C,R11*%
X162750000Y-80010000D03*
X161100000Y-80010000D03*
%TD*%
D16*
%TO.C,R3*%
X133160000Y-99695000D03*
X134810000Y-99695000D03*
%TD*%
%TO.C,R5*%
X135573000Y-76200000D03*
X137223000Y-76200000D03*
%TD*%
%TO.C,R12*%
X133160000Y-109855000D03*
X134810000Y-109855000D03*
%TD*%
D18*
%TO.C,R13*%
X132143000Y-86360000D03*
X130493000Y-86360000D03*
%TD*%
D16*
%TO.C,R29*%
X149670000Y-106045000D03*
X151320000Y-106045000D03*
%TD*%
D21*
%TO.C,C21*%
X153715000Y-119380000D03*
X155265000Y-119380000D03*
%TD*%
D17*
%TO.C,Q8*%
X162575000Y-93030000D03*
X161925000Y-93030000D03*
X161275000Y-93030000D03*
X161275000Y-94930000D03*
X161925000Y-94930000D03*
X162575000Y-94930000D03*
%TD*%
D15*
%TO.C,C12*%
X162700000Y-102870000D03*
X161150000Y-102870000D03*
%TD*%
D18*
%TO.C,R24*%
X151505000Y-122555000D03*
X149855000Y-122555000D03*
%TD*%
D15*
%TO.C,C20*%
X151270000Y-102108000D03*
X149720000Y-102108000D03*
%TD*%
D24*
%TO.C,C3*%
X139573000Y-85405000D03*
X139573000Y-83505000D03*
%TD*%
D17*
%TO.C,Q6*%
X156098000Y-83505000D03*
X155448000Y-83505000D03*
X154798000Y-83505000D03*
X154798000Y-85405000D03*
X155448000Y-85405000D03*
X156098000Y-85405000D03*
%TD*%
D21*
%TO.C,C19*%
X166103000Y-80010000D03*
X167653000Y-80010000D03*
%TD*%
D22*
%TO.C,C4*%
X145923000Y-83505000D03*
X145923000Y-85405000D03*
%TD*%
D18*
%TO.C,R8*%
X147510000Y-80010000D03*
X145860000Y-80010000D03*
%TD*%
%TO.C,R10*%
X157670000Y-80010000D03*
X156020000Y-80010000D03*
%TD*%
D26*
%TO.C,J1*%
X122555000Y-76200000D03*
D27*
X122555000Y-78740000D03*
X122555000Y-81280000D03*
X122555000Y-83820000D03*
%TD*%
D26*
%TO.C,J2*%
X122555000Y-114300000D03*
D27*
X122555000Y-116840000D03*
X122555000Y-119380000D03*
X122555000Y-121920000D03*
%TD*%
D26*
%TO.C,J3*%
X175895000Y-76200000D03*
D27*
X175895000Y-78740000D03*
X175895000Y-81280000D03*
X175895000Y-83820000D03*
%TD*%
D26*
%TO.C,J4*%
X175895000Y-104140000D03*
D27*
X175895000Y-106680000D03*
X175895000Y-109220000D03*
X175895000Y-111760000D03*
X175895000Y-114300000D03*
X175895000Y-116840000D03*
X175895000Y-119380000D03*
X175895000Y-121920000D03*
%TD*%
D28*
X146685000Y-93980000D03*
X145796000Y-108204000D03*
X165735000Y-119380000D03*
X175895000Y-98425000D03*
X151765000Y-76200000D03*
X172720000Y-92710000D03*
X122555000Y-93980000D03*
X122555000Y-102870000D03*
X131445000Y-93980000D03*
X152146000Y-109220000D03*
X153416000Y-115316000D03*
X146685000Y-100965000D03*
X131445000Y-78740000D03*
X130810000Y-102870000D03*
X134112000Y-89408000D03*
X161925000Y-76200000D03*
X157988000Y-117856000D03*
X155194000Y-121158000D03*
X166370000Y-105410000D03*
X159766000Y-108204000D03*
X140970000Y-93980000D03*
X127635000Y-83185000D03*
X152908000Y-102108000D03*
X140970000Y-89408000D03*
X146685000Y-89535000D03*
X140970000Y-99060000D03*
X166370000Y-100965000D03*
X123825000Y-109220000D03*
X158750000Y-100965000D03*
X157226000Y-87122000D03*
X136398000Y-106172000D03*
X166116000Y-94488000D03*
X130810000Y-109220000D03*
X144018000Y-76200000D03*
X160020000Y-83566000D03*
X152654000Y-123444000D03*
X152908000Y-121412000D03*
X164084000Y-85852000D03*
X164338000Y-96774000D03*
X165862000Y-113284000D03*
X164084000Y-89408000D03*
X164338000Y-82042000D03*
X164338000Y-110998000D03*
X135890000Y-102870000D03*
X146335500Y-103409500D03*
X143256000Y-91440000D03*
X162560000Y-106934000D03*
X145034000Y-99060000D03*
X147320000Y-107696000D03*
X147574000Y-116586000D03*
X163576000Y-94742000D03*
X160289000Y-91425000D03*
X150622000Y-116332000D03*
X148590000Y-108458000D03*
X157226000Y-110744000D03*
X160020000Y-117094000D03*
X140970000Y-83566000D03*
X142748000Y-86614000D03*
X150844000Y-83534000D03*
X149098000Y-86614000D03*
X137922000Y-82550000D03*
X135636000Y-86614000D03*
X155448000Y-86614000D03*
X153924000Y-83756000D03*
X163322000Y-82791500D03*
X163068000Y-86360000D03*
X158750000Y-92710000D03*
X155956000Y-96012000D03*
M02*
