M48
; DRILL file {KiCad 6.0.7-f9a2dced07~116~ubuntu22.04.1} date Fri 29 Jul 2022 05:46:26 PM EDT
; FORMAT={-:-/ absolute / inch / decimal}
; #@! TF.CreationDate,2022-07-29T17:46:26-04:00
; #@! TF.GenerationSoftware,Kicad,Pcbnew,6.0.7-f9a2dced07~116~ubuntu22.04.1
; #@! TF.FileFunction,Plated,1,2,PTH
FMAT,2
INCH
; #@! TA.AperFunction,Plated,PTH,ViaDrill
T1C0.0157
; #@! TA.AperFunction,Plated,PTH,ComponentDrill
T2C0.0315
; #@! TA.AperFunction,Plated,PTH,ComponentDrill
T3C0.0394
%
G90
G05
T1
X4.825Y-3.7
X4.825Y-4.05
X4.875Y-4.3
X5.025Y-3.275
X5.15Y-4.05
X5.15Y-4.3
X5.175Y-3.1
X5.175Y-3.7
X5.28Y-3.52
X5.34Y-3.41
X5.35Y-4.05
X5.37Y-4.18
X5.43Y-3.25
X5.55Y-3.29
X5.55Y-3.52
X5.55Y-3.7
X5.55Y-3.9
X5.62Y-3.41
X5.64Y-3.6
X5.67Y-3.0
X5.71Y-3.9
X5.74Y-4.26
X5.7612Y-4.0712
X5.775Y-3.525
X5.775Y-3.7
X5.775Y-3.975
X5.8Y-4.24
X5.81Y-4.59
X5.85Y-4.27
X5.87Y-3.41
X5.93Y-4.58
X5.9387Y-3.2887
X5.975Y-3.0
X5.99Y-4.3
X6.01Y-4.86
X6.02Y-4.02
X6.02Y-4.78
X6.04Y-4.54
X6.06Y-3.2975
X6.11Y-4.77
X6.12Y-3.41
X6.14Y-3.78
X6.19Y-3.43
X6.19Y-4.36
X6.22Y-4.64
X6.25Y-3.65
X6.25Y-3.975
X6.29Y-4.26
X6.3Y-3.29
X6.3Y-4.61
X6.3106Y-3.5994
X6.375Y-3.0
X6.4Y-4.21
X6.42Y-3.4
X6.43Y-3.2595
X6.44Y-3.73
X6.46Y-3.38
X6.46Y-3.52
X6.47Y-3.23
X6.47Y-3.81
X6.47Y-4.37
X6.525Y-4.7
X6.53Y-4.46
X6.54Y-3.72
X6.55Y-3.975
X6.55Y-4.15
X6.8Y-3.65
X6.925Y-3.875
T2
X4.975Y-3.5034
X4.975Y-3.6019
X4.975Y-3.8784
X4.975Y-3.9769
X5.025Y-4.525
X5.025Y-4.625
X5.025Y-4.725
X5.275Y-4.525
X5.275Y-4.625
X5.275Y-4.725
X5.525Y-4.1
X5.525Y-4.1984
X5.525Y-4.525
X5.525Y-4.625
X5.525Y-4.725
X6.575Y-3.3016
X6.575Y-3.4984
X6.7Y-3.8034
X6.7Y-3.9019
X6.7Y-4.35
X6.7Y-4.4484
X6.7Y-4.625
X6.7Y-4.7234
X6.75Y-3.3016
X6.75Y-3.4984
T3
X4.825Y-3.0
X4.825Y-3.1
X4.825Y-3.2
X4.825Y-3.3
X4.825Y-4.5
X4.825Y-4.6
X4.825Y-4.7
X4.825Y-4.8
X6.925Y-3.0
X6.925Y-3.1
X6.925Y-3.2
X6.925Y-3.3
X6.925Y-4.1
X6.925Y-4.2
X6.925Y-4.3
X6.925Y-4.4
X6.925Y-4.5
X6.925Y-4.6
X6.925Y-4.7
X6.925Y-4.8
T0
M30
