G04 #@! TF.GenerationSoftware,KiCad,Pcbnew,5.1.6-c6e7f7d~87~ubuntu18.04.1*
G04 #@! TF.CreationDate,2020-08-01T20:03:32-04:00*
G04 #@! TF.ProjectId,mutron_III_plug_in_board,6d757472-6f6e-45f4-9949-495f706c7567,rev?*
G04 #@! TF.SameCoordinates,Original*
G04 #@! TF.FileFunction,Legend,Top*
G04 #@! TF.FilePolarity,Positive*
%FSLAX46Y46*%
G04 Gerber Fmt 4.6, Leading zero omitted, Abs format (unit mm)*
G04 Created by KiCad (PCBNEW 5.1.6-c6e7f7d~87~ubuntu18.04.1) date 2020-08-01 20:03:32*
%MOMM*%
%LPD*%
G01*
G04 APERTURE LIST*
%ADD10C,0.150000*%
%ADD11C,0.120000*%
%ADD12C,0.125000*%
%ADD13C,0.127000*%
G04 APERTURE END LIST*
D10*
X132675285Y-66619380D02*
X132675285Y-65619380D01*
X132675285Y-66571761D02*
X132580047Y-66619380D01*
X132389571Y-66619380D01*
X132294333Y-66571761D01*
X132246714Y-66524142D01*
X132199095Y-66428904D01*
X132199095Y-66143190D01*
X132246714Y-66047952D01*
X132294333Y-66000333D01*
X132389571Y-65952714D01*
X132580047Y-65952714D01*
X132675285Y-66000333D01*
X121777095Y-66444761D02*
X121681857Y-66492380D01*
X121491380Y-66492380D01*
X121396142Y-66444761D01*
X121348523Y-66397142D01*
X121300904Y-66301904D01*
X121300904Y-66016190D01*
X121348523Y-65920952D01*
X121396142Y-65873333D01*
X121491380Y-65825714D01*
X121681857Y-65825714D01*
X121777095Y-65873333D01*
X130516285Y-61285380D02*
X130516285Y-60285380D01*
X130516285Y-61237761D02*
X130421047Y-61285380D01*
X130230571Y-61285380D01*
X130135333Y-61237761D01*
X130087714Y-61190142D01*
X130040095Y-61094904D01*
X130040095Y-60809190D01*
X130087714Y-60713952D01*
X130135333Y-60666333D01*
X130230571Y-60618714D01*
X130421047Y-60618714D01*
X130516285Y-60666333D01*
X119745095Y-61364761D02*
X119649857Y-61412380D01*
X119459380Y-61412380D01*
X119364142Y-61364761D01*
X119316523Y-61317142D01*
X119268904Y-61221904D01*
X119268904Y-60936190D01*
X119316523Y-60840952D01*
X119364142Y-60793333D01*
X119459380Y-60745714D01*
X119649857Y-60745714D01*
X119745095Y-60793333D01*
X131865714Y-71572380D02*
X131865714Y-70572380D01*
X131865714Y-70953333D02*
X131960952Y-70905714D01*
X132151428Y-70905714D01*
X132246666Y-70953333D01*
X132294285Y-71000952D01*
X132341904Y-71096190D01*
X132341904Y-71381904D01*
X132294285Y-71477142D01*
X132246666Y-71524761D01*
X132151428Y-71572380D01*
X131960952Y-71572380D01*
X131865714Y-71524761D01*
X121499285Y-71572380D02*
X121499285Y-71048571D01*
X121451666Y-70953333D01*
X121356428Y-70905714D01*
X121165952Y-70905714D01*
X121070714Y-70953333D01*
X121499285Y-71524761D02*
X121404047Y-71572380D01*
X121165952Y-71572380D01*
X121070714Y-71524761D01*
X121023095Y-71429523D01*
X121023095Y-71334285D01*
X121070714Y-71239047D01*
X121165952Y-71191428D01*
X121404047Y-71191428D01*
X121499285Y-71143809D01*
X129960714Y-57856380D02*
X129960714Y-56856380D01*
X129960714Y-57237333D02*
X130055952Y-57189714D01*
X130246428Y-57189714D01*
X130341666Y-57237333D01*
X130389285Y-57284952D01*
X130436904Y-57380190D01*
X130436904Y-57665904D01*
X130389285Y-57761142D01*
X130341666Y-57808761D01*
X130246428Y-57856380D01*
X130055952Y-57856380D01*
X129960714Y-57808761D01*
X119594285Y-57856380D02*
X119594285Y-57332571D01*
X119546666Y-57237333D01*
X119451428Y-57189714D01*
X119260952Y-57189714D01*
X119165714Y-57237333D01*
X119594285Y-57808761D02*
X119499047Y-57856380D01*
X119260952Y-57856380D01*
X119165714Y-57808761D01*
X119118095Y-57713523D01*
X119118095Y-57618285D01*
X119165714Y-57523047D01*
X119260952Y-57475428D01*
X119499047Y-57475428D01*
X119594285Y-57427809D01*
D11*
X133858000Y-60452000D02*
X134112000Y-61468000D01*
X133096000Y-60960000D02*
X133350000Y-60452000D01*
X132588000Y-60960000D02*
X133096000Y-60960000D01*
X133350000Y-60452000D02*
X133604000Y-61468000D01*
X134112000Y-61468000D02*
X134366000Y-60452000D01*
X134366000Y-60452000D02*
X134620000Y-61468000D01*
X133604000Y-61468000D02*
X133858000Y-60452000D01*
X134874000Y-60452000D02*
X135128000Y-60960000D01*
X134620000Y-61468000D02*
X134874000Y-60452000D01*
X135128000Y-60960000D02*
X135636000Y-60960000D01*
X123063000Y-60452000D02*
X123317000Y-61468000D01*
X122301000Y-60960000D02*
X122555000Y-60452000D01*
X121793000Y-60960000D02*
X122301000Y-60960000D01*
X122555000Y-60452000D02*
X122809000Y-61468000D01*
X123317000Y-61468000D02*
X123571000Y-60452000D01*
X123571000Y-60452000D02*
X123825000Y-61468000D01*
X122809000Y-61468000D02*
X123063000Y-60452000D01*
X124079000Y-60452000D02*
X124333000Y-60960000D01*
X123825000Y-61468000D02*
X124079000Y-60452000D01*
X124333000Y-60960000D02*
X124841000Y-60960000D01*
X132969000Y-66167000D02*
X132969000Y-65913000D01*
X133477000Y-64770000D02*
X134620000Y-65405000D01*
X134620000Y-64008000D02*
X133477000Y-64770000D01*
X134620000Y-65278000D02*
X134620000Y-64008000D01*
X134620000Y-65405000D02*
X134620000Y-65278000D01*
X133477000Y-64770000D02*
X132969000Y-64770000D01*
X133477000Y-64008000D02*
X133477000Y-65405000D01*
X133477000Y-66548000D02*
X133477000Y-66294000D01*
X133604000Y-65913000D02*
X133985000Y-65532000D01*
X133731000Y-66548000D02*
X133477000Y-66548000D01*
X132969000Y-65913000D02*
X133223000Y-66167000D01*
X134620000Y-64770000D02*
X135001000Y-64770000D01*
X132969000Y-66167000D02*
X133477000Y-65659000D01*
X134112000Y-66294000D02*
X134493000Y-65913000D01*
X133477000Y-66294000D02*
X133731000Y-66548000D01*
X133477000Y-65659000D02*
X133604000Y-65913000D01*
X133985000Y-66040000D02*
X134112000Y-66294000D01*
X133477000Y-66548000D02*
X133985000Y-66040000D01*
X133223000Y-66167000D02*
X132969000Y-66167000D01*
X122047000Y-66167000D02*
X122047000Y-65913000D01*
X122555000Y-64770000D02*
X123698000Y-65405000D01*
X123698000Y-64008000D02*
X122555000Y-64770000D01*
X123698000Y-65278000D02*
X123698000Y-64008000D01*
X123698000Y-65405000D02*
X123698000Y-65278000D01*
X122555000Y-64770000D02*
X122174000Y-64770000D01*
X122555000Y-64008000D02*
X122555000Y-65405000D01*
X122555000Y-66548000D02*
X122555000Y-66294000D01*
X122682000Y-65913000D02*
X123063000Y-65532000D01*
X122809000Y-66548000D02*
X122555000Y-66548000D01*
X122047000Y-65913000D02*
X122301000Y-66167000D01*
X123698000Y-64770000D02*
X124206000Y-64770000D01*
X122047000Y-66167000D02*
X122555000Y-65659000D01*
X123190000Y-66294000D02*
X123571000Y-65913000D01*
X122555000Y-66294000D02*
X122809000Y-66548000D01*
X122555000Y-65659000D02*
X122682000Y-65913000D01*
X123063000Y-66040000D02*
X123190000Y-66294000D01*
X122555000Y-66548000D02*
X123063000Y-66040000D01*
X122301000Y-66167000D02*
X122047000Y-66167000D01*
X133096000Y-72517000D02*
X133096000Y-72263000D01*
X133604000Y-71120000D02*
X134747000Y-71755000D01*
X134747000Y-70358000D02*
X133604000Y-71120000D01*
X134747000Y-71628000D02*
X134747000Y-70358000D01*
X134747000Y-71755000D02*
X134747000Y-71628000D01*
X133604000Y-71120000D02*
X132715000Y-71120000D01*
X133604000Y-70358000D02*
X133604000Y-71755000D01*
X133604000Y-72898000D02*
X133604000Y-72644000D01*
X133731000Y-72263000D02*
X134112000Y-71882000D01*
X133858000Y-72898000D02*
X133604000Y-72898000D01*
X133096000Y-72263000D02*
X133350000Y-72517000D01*
X134747000Y-71120000D02*
X135636000Y-71120000D01*
X133096000Y-72517000D02*
X133604000Y-72009000D01*
X134239000Y-72644000D02*
X134620000Y-72263000D01*
X133604000Y-72644000D02*
X133858000Y-72898000D01*
X133604000Y-72009000D02*
X133731000Y-72263000D01*
X134112000Y-72390000D02*
X134239000Y-72644000D01*
X133604000Y-72898000D02*
X134112000Y-72390000D01*
X133350000Y-72517000D02*
X133096000Y-72517000D01*
X122809000Y-72898000D02*
X122809000Y-72644000D01*
X123444000Y-72644000D02*
X123825000Y-72263000D01*
X122809000Y-72644000D02*
X123063000Y-72898000D01*
X122809000Y-72898000D02*
X123317000Y-72390000D01*
X123317000Y-72390000D02*
X123444000Y-72644000D01*
X123063000Y-72898000D02*
X122809000Y-72898000D01*
X122555000Y-72517000D02*
X122301000Y-72517000D01*
X122809000Y-72009000D02*
X122936000Y-72263000D01*
X122301000Y-72517000D02*
X122809000Y-72009000D01*
X122301000Y-72263000D02*
X122555000Y-72517000D01*
X122936000Y-72263000D02*
X123317000Y-71882000D01*
X122301000Y-72517000D02*
X122301000Y-72263000D01*
X123952000Y-71120000D02*
X124841000Y-71120000D01*
X122809000Y-71120000D02*
X121920000Y-71120000D01*
X122809000Y-70358000D02*
X122809000Y-71755000D01*
X123952000Y-71755000D02*
X123952000Y-71628000D01*
X122809000Y-71120000D02*
X123952000Y-71755000D01*
X123952000Y-70358000D02*
X122809000Y-71120000D01*
X123952000Y-71628000D02*
X123952000Y-70358000D01*
X133731000Y-56896000D02*
X133985000Y-57912000D01*
X132969000Y-57404000D02*
X133223000Y-56896000D01*
X132461000Y-57404000D02*
X132969000Y-57404000D01*
X133223000Y-56896000D02*
X133477000Y-57912000D01*
X133985000Y-57912000D02*
X134239000Y-56896000D01*
X134239000Y-56896000D02*
X134493000Y-57912000D01*
X133477000Y-57912000D02*
X133731000Y-56896000D01*
X134747000Y-56896000D02*
X135001000Y-57404000D01*
X134493000Y-57912000D02*
X134747000Y-56896000D01*
X135001000Y-57404000D02*
X135509000Y-57404000D01*
X124206000Y-57404000D02*
X124714000Y-57404000D01*
X123952000Y-56896000D02*
X124206000Y-57404000D01*
X123698000Y-57912000D02*
X123952000Y-56896000D01*
X123444000Y-56896000D02*
X123698000Y-57912000D01*
X123190000Y-57912000D02*
X123444000Y-56896000D01*
X122936000Y-56896000D02*
X123190000Y-57912000D01*
X122682000Y-57912000D02*
X122936000Y-56896000D01*
X122428000Y-56896000D02*
X122682000Y-57912000D01*
X122174000Y-57404000D02*
X122428000Y-56896000D01*
X121666000Y-57404000D02*
X122174000Y-57404000D01*
D10*
X155910595Y-71572380D02*
X155910595Y-70572380D01*
X155910595Y-71048571D02*
X156482023Y-71048571D01*
X156482023Y-71572380D02*
X156482023Y-70572380D01*
X156958214Y-71572380D02*
X156958214Y-70572380D01*
X157339166Y-70572380D01*
X157434404Y-70620000D01*
X157482023Y-70667619D01*
X157529642Y-70762857D01*
X157529642Y-70905714D01*
X157482023Y-71000952D01*
X157434404Y-71048571D01*
X157339166Y-71096190D01*
X156958214Y-71096190D01*
X156243928Y-68508571D02*
X156386785Y-68556190D01*
X156434404Y-68603809D01*
X156482023Y-68699047D01*
X156482023Y-68841904D01*
X156434404Y-68937142D01*
X156386785Y-68984761D01*
X156291547Y-69032380D01*
X155910595Y-69032380D01*
X155910595Y-68032380D01*
X156243928Y-68032380D01*
X156339166Y-68080000D01*
X156386785Y-68127619D01*
X156434404Y-68222857D01*
X156434404Y-68318095D01*
X156386785Y-68413333D01*
X156339166Y-68460952D01*
X156243928Y-68508571D01*
X155910595Y-68508571D01*
X156910595Y-69032380D02*
X156910595Y-68032380D01*
X157291547Y-68032380D01*
X157386785Y-68080000D01*
X157434404Y-68127619D01*
X157482023Y-68222857D01*
X157482023Y-68365714D01*
X157434404Y-68460952D01*
X157386785Y-68508571D01*
X157291547Y-68556190D01*
X156910595Y-68556190D01*
X156386785Y-66492380D02*
X155910595Y-66492380D01*
X155910595Y-65492380D01*
X156720119Y-66492380D02*
X156720119Y-65492380D01*
X157101071Y-65492380D01*
X157196309Y-65540000D01*
X157243928Y-65587619D01*
X157291547Y-65682857D01*
X157291547Y-65825714D01*
X157243928Y-65920952D01*
X157196309Y-65968571D01*
X157101071Y-66016190D01*
X156720119Y-66016190D01*
X119951904Y-99480714D02*
X120332857Y-99480714D01*
X120094761Y-100147380D02*
X120094761Y-99290238D01*
X120142380Y-99195000D01*
X120237619Y-99147380D01*
X120332857Y-99147380D01*
X121047142Y-100099761D02*
X120951904Y-100147380D01*
X120761428Y-100147380D01*
X120666190Y-100099761D01*
X120618571Y-100004523D01*
X120618571Y-99623571D01*
X120666190Y-99528333D01*
X120761428Y-99480714D01*
X120951904Y-99480714D01*
X121047142Y-99528333D01*
X121094761Y-99623571D01*
X121094761Y-99718809D01*
X120618571Y-99814047D01*
X121904285Y-100099761D02*
X121809047Y-100147380D01*
X121618571Y-100147380D01*
X121523333Y-100099761D01*
X121475714Y-100004523D01*
X121475714Y-99623571D01*
X121523333Y-99528333D01*
X121618571Y-99480714D01*
X121809047Y-99480714D01*
X121904285Y-99528333D01*
X121951904Y-99623571D01*
X121951904Y-99718809D01*
X121475714Y-99814047D01*
X122809047Y-100147380D02*
X122809047Y-99147380D01*
X122809047Y-100099761D02*
X122713809Y-100147380D01*
X122523333Y-100147380D01*
X122428095Y-100099761D01*
X122380476Y-100052142D01*
X122332857Y-99956904D01*
X122332857Y-99671190D01*
X122380476Y-99575952D01*
X122428095Y-99528333D01*
X122523333Y-99480714D01*
X122713809Y-99480714D01*
X122809047Y-99528333D01*
X123285238Y-100147380D02*
X123285238Y-99147380D01*
X123285238Y-99528333D02*
X123380476Y-99480714D01*
X123570952Y-99480714D01*
X123666190Y-99528333D01*
X123713809Y-99575952D01*
X123761428Y-99671190D01*
X123761428Y-99956904D01*
X123713809Y-100052142D01*
X123666190Y-100099761D01*
X123570952Y-100147380D01*
X123380476Y-100147380D01*
X123285238Y-100099761D01*
X124618571Y-100147380D02*
X124618571Y-99623571D01*
X124570952Y-99528333D01*
X124475714Y-99480714D01*
X124285238Y-99480714D01*
X124190000Y-99528333D01*
X124618571Y-100099761D02*
X124523333Y-100147380D01*
X124285238Y-100147380D01*
X124190000Y-100099761D01*
X124142380Y-100004523D01*
X124142380Y-99909285D01*
X124190000Y-99814047D01*
X124285238Y-99766428D01*
X124523333Y-99766428D01*
X124618571Y-99718809D01*
X125523333Y-100099761D02*
X125428095Y-100147380D01*
X125237619Y-100147380D01*
X125142380Y-100099761D01*
X125094761Y-100052142D01*
X125047142Y-99956904D01*
X125047142Y-99671190D01*
X125094761Y-99575952D01*
X125142380Y-99528333D01*
X125237619Y-99480714D01*
X125428095Y-99480714D01*
X125523333Y-99528333D01*
X125951904Y-100147380D02*
X125951904Y-99147380D01*
X126047142Y-99766428D02*
X126332857Y-100147380D01*
X126332857Y-99480714D02*
X125951904Y-99861666D01*
X115173333Y-100099761D02*
X115078095Y-100147380D01*
X114887619Y-100147380D01*
X114792380Y-100099761D01*
X114744761Y-100052142D01*
X114697142Y-99956904D01*
X114697142Y-99671190D01*
X114744761Y-99575952D01*
X114792380Y-99528333D01*
X114887619Y-99480714D01*
X115078095Y-99480714D01*
X115173333Y-99528333D01*
X115982857Y-100099761D02*
X115887619Y-100147380D01*
X115697142Y-100147380D01*
X115601904Y-100099761D01*
X115554285Y-100004523D01*
X115554285Y-99623571D01*
X115601904Y-99528333D01*
X115697142Y-99480714D01*
X115887619Y-99480714D01*
X115982857Y-99528333D01*
X116030476Y-99623571D01*
X116030476Y-99718809D01*
X115554285Y-99814047D01*
X116459047Y-99480714D02*
X116459047Y-100147380D01*
X116459047Y-99575952D02*
X116506666Y-99528333D01*
X116601904Y-99480714D01*
X116744761Y-99480714D01*
X116840000Y-99528333D01*
X116887619Y-99623571D01*
X116887619Y-100147380D01*
X117220952Y-99480714D02*
X117601904Y-99480714D01*
X117363809Y-99147380D02*
X117363809Y-100004523D01*
X117411428Y-100099761D01*
X117506666Y-100147380D01*
X117601904Y-100147380D01*
X118316190Y-100099761D02*
X118220952Y-100147380D01*
X118030476Y-100147380D01*
X117935238Y-100099761D01*
X117887619Y-100004523D01*
X117887619Y-99623571D01*
X117935238Y-99528333D01*
X118030476Y-99480714D01*
X118220952Y-99480714D01*
X118316190Y-99528333D01*
X118363809Y-99623571D01*
X118363809Y-99718809D01*
X117887619Y-99814047D01*
X118792380Y-100147380D02*
X118792380Y-99480714D01*
X118792380Y-99671190D02*
X118840000Y-99575952D01*
X118887619Y-99528333D01*
X118982857Y-99480714D01*
X119078095Y-99480714D01*
X109085238Y-100147380D02*
X109085238Y-99147380D01*
X109085238Y-100099761D02*
X108990000Y-100147380D01*
X108799523Y-100147380D01*
X108704285Y-100099761D01*
X108656666Y-100052142D01*
X108609047Y-99956904D01*
X108609047Y-99671190D01*
X108656666Y-99575952D01*
X108704285Y-99528333D01*
X108799523Y-99480714D01*
X108990000Y-99480714D01*
X109085238Y-99528333D01*
X109942380Y-100099761D02*
X109847142Y-100147380D01*
X109656666Y-100147380D01*
X109561428Y-100099761D01*
X109513809Y-100004523D01*
X109513809Y-99623571D01*
X109561428Y-99528333D01*
X109656666Y-99480714D01*
X109847142Y-99480714D01*
X109942380Y-99528333D01*
X109990000Y-99623571D01*
X109990000Y-99718809D01*
X109513809Y-99814047D01*
X110418571Y-99480714D02*
X110418571Y-100480714D01*
X110418571Y-99528333D02*
X110513809Y-99480714D01*
X110704285Y-99480714D01*
X110799523Y-99528333D01*
X110847142Y-99575952D01*
X110894761Y-99671190D01*
X110894761Y-99956904D01*
X110847142Y-100052142D01*
X110799523Y-100099761D01*
X110704285Y-100147380D01*
X110513809Y-100147380D01*
X110418571Y-100099761D01*
X111180476Y-99480714D02*
X111561428Y-99480714D01*
X111323333Y-99147380D02*
X111323333Y-100004523D01*
X111370952Y-100099761D01*
X111466190Y-100147380D01*
X111561428Y-100147380D01*
X111894761Y-100147380D02*
X111894761Y-99147380D01*
X112323333Y-100147380D02*
X112323333Y-99623571D01*
X112275714Y-99528333D01*
X112180476Y-99480714D01*
X112037619Y-99480714D01*
X111942380Y-99528333D01*
X111894761Y-99575952D01*
D11*
X126440000Y-64770000D02*
G75*
G03*
X126440000Y-64770000I-3250000J0D01*
G01*
X118175000Y-59880000D02*
X118175000Y-67320000D01*
X118175000Y-67320000D02*
X120755000Y-69900000D01*
X120755000Y-69900000D02*
X128195000Y-69900000D01*
X128195000Y-69900000D02*
X128195000Y-59880000D01*
X128195000Y-59880000D02*
X118175000Y-59880000D01*
X137235000Y-64770000D02*
G75*
G03*
X137235000Y-64770000I-3250000J0D01*
G01*
X128970000Y-59880000D02*
X128970000Y-67320000D01*
X128970000Y-67320000D02*
X131550000Y-69900000D01*
X131550000Y-69900000D02*
X138990000Y-69900000D01*
X138990000Y-69900000D02*
X138990000Y-59880000D01*
X138990000Y-59880000D02*
X128970000Y-59880000D01*
X117090000Y-77450000D02*
X113640000Y-77450000D01*
X117090000Y-77450000D02*
X119040000Y-77450000D01*
X117090000Y-82570000D02*
X115140000Y-82570000D01*
X117090000Y-82570000D02*
X119040000Y-82570000D01*
X144800000Y-62865000D02*
X144800000Y-59415000D01*
X144800000Y-62865000D02*
X144800000Y-64815000D01*
X139680000Y-62865000D02*
X139680000Y-60915000D01*
X139680000Y-62865000D02*
X139680000Y-64815000D01*
X115590000Y-62865000D02*
X115590000Y-59415000D01*
X115590000Y-62865000D02*
X115590000Y-64815000D01*
X110470000Y-62865000D02*
X110470000Y-60915000D01*
X110470000Y-62865000D02*
X110470000Y-64815000D01*
X114310000Y-89095000D02*
X119380000Y-89095000D01*
X114310000Y-98865000D02*
X119380000Y-98865000D01*
X119380000Y-98865000D02*
X119380000Y-89095000D01*
X114310000Y-98865000D02*
X114310000Y-89095000D01*
X107960000Y-89095000D02*
X113030000Y-89095000D01*
X107960000Y-98865000D02*
X113030000Y-98865000D01*
X113030000Y-98865000D02*
X113030000Y-89095000D01*
X107960000Y-98865000D02*
X107960000Y-89095000D01*
X120660000Y-89095000D02*
X125730000Y-89095000D01*
X120660000Y-98865000D02*
X125730000Y-98865000D01*
X125730000Y-98865000D02*
X125730000Y-89095000D01*
X120660000Y-98865000D02*
X120660000Y-89095000D01*
X143771252Y-76760000D02*
X143248748Y-76760000D01*
X143771252Y-78180000D02*
X143248748Y-78180000D01*
X135906252Y-76760000D02*
X135383748Y-76760000D01*
X135906252Y-78180000D02*
X135383748Y-78180000D01*
X110473748Y-80085000D02*
X110996252Y-80085000D01*
X110473748Y-78665000D02*
X110996252Y-78665000D01*
X110996252Y-83745000D02*
X110473748Y-83745000D01*
X110996252Y-85165000D02*
X110473748Y-85165000D01*
X110996252Y-81205000D02*
X110473748Y-81205000D01*
X110996252Y-82625000D02*
X110473748Y-82625000D01*
X153541252Y-85650000D02*
X153018748Y-85650000D01*
X153541252Y-87070000D02*
X153018748Y-87070000D01*
X138803748Y-93420000D02*
X139326252Y-93420000D01*
X138803748Y-92000000D02*
X139326252Y-92000000D01*
X140463748Y-85165000D02*
X140986252Y-85165000D01*
X140463748Y-83745000D02*
X140986252Y-83745000D01*
X140986252Y-86285000D02*
X140463748Y-86285000D01*
X140986252Y-87705000D02*
X140463748Y-87705000D01*
X123563748Y-80085000D02*
X124086252Y-80085000D01*
X123563748Y-78665000D02*
X124086252Y-78665000D01*
X139326252Y-94540000D02*
X138803748Y-94540000D01*
X139326252Y-95960000D02*
X138803748Y-95960000D01*
X135873748Y-90880000D02*
X136396252Y-90880000D01*
X135873748Y-89460000D02*
X136396252Y-89460000D01*
X123563748Y-82625000D02*
X124086252Y-82625000D01*
X123563748Y-81205000D02*
X124086252Y-81205000D01*
X130938748Y-87705000D02*
X131461252Y-87705000D01*
X130938748Y-86285000D02*
X131461252Y-86285000D01*
X124086252Y-83745000D02*
X123563748Y-83745000D01*
X124086252Y-85165000D02*
X123563748Y-85165000D01*
X124086252Y-76125000D02*
X123563748Y-76125000D01*
X124086252Y-77545000D02*
X123563748Y-77545000D01*
X134246252Y-54535000D02*
X133723748Y-54535000D01*
X134246252Y-55955000D02*
X133723748Y-55955000D01*
X123451252Y-54535000D02*
X122928748Y-54535000D01*
X123451252Y-55955000D02*
X122928748Y-55955000D01*
X116130000Y-55863748D02*
X116130000Y-56386252D01*
X117550000Y-55863748D02*
X117550000Y-56386252D01*
X113590000Y-55863748D02*
X113590000Y-56386252D01*
X115010000Y-55863748D02*
X115010000Y-56386252D01*
X108510000Y-55863748D02*
X108510000Y-56386252D01*
X109930000Y-55863748D02*
X109930000Y-56386252D01*
X112470000Y-56386252D02*
X112470000Y-55863748D01*
X111050000Y-56386252D02*
X111050000Y-55863748D01*
X144855000Y-69476252D02*
X144855000Y-68953748D01*
X143435000Y-69476252D02*
X143435000Y-68953748D01*
X142315000Y-69476252D02*
X142315000Y-68953748D01*
X140895000Y-69476252D02*
X140895000Y-68953748D01*
X141280000Y-75670000D02*
X141280000Y-77130000D01*
X138120000Y-75670000D02*
X138120000Y-78830000D01*
X138120000Y-75670000D02*
X139050000Y-75670000D01*
X141280000Y-75670000D02*
X140350000Y-75670000D01*
X132995000Y-91765000D02*
X134455000Y-91765000D01*
X132995000Y-94925000D02*
X136155000Y-94925000D01*
X132995000Y-94925000D02*
X132995000Y-93995000D01*
X132995000Y-91765000D02*
X132995000Y-92695000D01*
D12*
X135140000Y-85545000D02*
X136640000Y-85545000D01*
X135140000Y-88445000D02*
X135140000Y-85545000D01*
X136640000Y-88445000D02*
X135140000Y-88445000D01*
X136640000Y-85545000D02*
X136640000Y-88445000D01*
X135490000Y-85845000D02*
G75*
G03*
X135490000Y-85845000I-50000J0D01*
G01*
D11*
X149800000Y-64710000D02*
X151130000Y-64710000D01*
X149800000Y-66040000D02*
X149800000Y-64710000D01*
X152400000Y-64710000D02*
X155000000Y-64710000D01*
X152400000Y-67310000D02*
X152400000Y-64710000D01*
X149800000Y-67310000D02*
X152400000Y-67310000D01*
X155000000Y-64710000D02*
X155000000Y-72450000D01*
X149800000Y-67310000D02*
X149800000Y-72450000D01*
X149800000Y-72450000D02*
X155000000Y-72450000D01*
X141950000Y-81645000D02*
X138050000Y-81645000D01*
X141950000Y-79645000D02*
X138050000Y-79645000D01*
X141950000Y-81645000D02*
X141950000Y-79645000D01*
X150530000Y-82820000D02*
X154430000Y-82820000D01*
X150530000Y-84820000D02*
X154430000Y-84820000D01*
X150530000Y-82820000D02*
X150530000Y-84820000D01*
X115308748Y-85165000D02*
X115831252Y-85165000D01*
X115308748Y-83745000D02*
X115831252Y-83745000D01*
X119118748Y-85165000D02*
X119641252Y-85165000D01*
X119118748Y-83745000D02*
X119641252Y-83745000D01*
X147245000Y-60698748D02*
X147245000Y-61221252D01*
X148665000Y-60698748D02*
X148665000Y-61221252D01*
X147245000Y-64508748D02*
X147245000Y-65031252D01*
X148665000Y-64508748D02*
X148665000Y-65031252D01*
X107875000Y-60698748D02*
X107875000Y-61221252D01*
X109295000Y-60698748D02*
X109295000Y-61221252D01*
X107875000Y-64508748D02*
X107875000Y-65031252D01*
X109295000Y-64508748D02*
X109295000Y-65031252D01*
X110473748Y-77545000D02*
X110996252Y-77545000D01*
X110473748Y-76125000D02*
X110996252Y-76125000D01*
X138660000Y-58385000D02*
X138660000Y-54645000D01*
X145900000Y-58385000D02*
X145900000Y-54645000D01*
X145900000Y-54645000D02*
X138660000Y-54645000D01*
X145900000Y-58385000D02*
X138660000Y-58385000D01*
X109450000Y-71085000D02*
X109450000Y-67345000D01*
X116690000Y-71085000D02*
X116690000Y-67345000D01*
X116690000Y-67345000D02*
X109450000Y-67345000D01*
X116690000Y-71085000D02*
X109450000Y-71085000D01*
D10*
X122428095Y-73747380D02*
X122428095Y-74556904D01*
X122475714Y-74652142D01*
X122523333Y-74699761D01*
X122618571Y-74747380D01*
X122809047Y-74747380D01*
X122904285Y-74699761D01*
X122951904Y-74652142D01*
X122999523Y-74556904D01*
X122999523Y-73747380D01*
X123904285Y-74080714D02*
X123904285Y-74747380D01*
X123666190Y-73699761D02*
X123428095Y-74414047D01*
X124047142Y-74414047D01*
X133223095Y-73747380D02*
X133223095Y-74556904D01*
X133270714Y-74652142D01*
X133318333Y-74699761D01*
X133413571Y-74747380D01*
X133604047Y-74747380D01*
X133699285Y-74699761D01*
X133746904Y-74652142D01*
X133794523Y-74556904D01*
X133794523Y-73747380D01*
X134746904Y-73747380D02*
X134270714Y-73747380D01*
X134223095Y-74223571D01*
X134270714Y-74175952D01*
X134365952Y-74128333D01*
X134604047Y-74128333D01*
X134699285Y-74175952D01*
X134746904Y-74223571D01*
X134794523Y-74318809D01*
X134794523Y-74556904D01*
X134746904Y-74652142D01*
X134699285Y-74699761D01*
X134604047Y-74747380D01*
X134365952Y-74747380D01*
X134270714Y-74699761D01*
X134223095Y-74652142D01*
X116328095Y-76062380D02*
X116328095Y-76871904D01*
X116375714Y-76967142D01*
X116423333Y-77014761D01*
X116518571Y-77062380D01*
X116709047Y-77062380D01*
X116804285Y-77014761D01*
X116851904Y-76967142D01*
X116899523Y-76871904D01*
X116899523Y-76062380D01*
X117280476Y-76062380D02*
X117899523Y-76062380D01*
X117566190Y-76443333D01*
X117709047Y-76443333D01*
X117804285Y-76490952D01*
X117851904Y-76538571D01*
X117899523Y-76633809D01*
X117899523Y-76871904D01*
X117851904Y-76967142D01*
X117804285Y-77014761D01*
X117709047Y-77062380D01*
X117423333Y-77062380D01*
X117328095Y-77014761D01*
X117280476Y-76967142D01*
X145288095Y-62317380D02*
X145288095Y-63126904D01*
X145335714Y-63222142D01*
X145383333Y-63269761D01*
X145478571Y-63317380D01*
X145669047Y-63317380D01*
X145764285Y-63269761D01*
X145811904Y-63222142D01*
X145859523Y-63126904D01*
X145859523Y-62317380D01*
X146288095Y-62412619D02*
X146335714Y-62365000D01*
X146430952Y-62317380D01*
X146669047Y-62317380D01*
X146764285Y-62365000D01*
X146811904Y-62412619D01*
X146859523Y-62507857D01*
X146859523Y-62603095D01*
X146811904Y-62745952D01*
X146240476Y-63317380D01*
X146859523Y-63317380D01*
X116078095Y-62317380D02*
X116078095Y-63126904D01*
X116125714Y-63222142D01*
X116173333Y-63269761D01*
X116268571Y-63317380D01*
X116459047Y-63317380D01*
X116554285Y-63269761D01*
X116601904Y-63222142D01*
X116649523Y-63126904D01*
X116649523Y-62317380D01*
X117649523Y-63317380D02*
X117078095Y-63317380D01*
X117363809Y-63317380D02*
X117363809Y-62317380D01*
X117268571Y-62460238D01*
X117173333Y-62555476D01*
X117078095Y-62603095D01*
X116244761Y-88717380D02*
X115911428Y-88241190D01*
X115673333Y-88717380D02*
X115673333Y-87717380D01*
X116054285Y-87717380D01*
X116149523Y-87765000D01*
X116197142Y-87812619D01*
X116244761Y-87907857D01*
X116244761Y-88050714D01*
X116197142Y-88145952D01*
X116149523Y-88193571D01*
X116054285Y-88241190D01*
X115673333Y-88241190D01*
X116530476Y-87717380D02*
X116863809Y-88717380D01*
X117197142Y-87717380D01*
X117482857Y-87812619D02*
X117530476Y-87765000D01*
X117625714Y-87717380D01*
X117863809Y-87717380D01*
X117959047Y-87765000D01*
X118006666Y-87812619D01*
X118054285Y-87907857D01*
X118054285Y-88003095D01*
X118006666Y-88145952D01*
X117435238Y-88717380D01*
X118054285Y-88717380D01*
X109894761Y-88717380D02*
X109561428Y-88241190D01*
X109323333Y-88717380D02*
X109323333Y-87717380D01*
X109704285Y-87717380D01*
X109799523Y-87765000D01*
X109847142Y-87812619D01*
X109894761Y-87907857D01*
X109894761Y-88050714D01*
X109847142Y-88145952D01*
X109799523Y-88193571D01*
X109704285Y-88241190D01*
X109323333Y-88241190D01*
X110180476Y-87717380D02*
X110513809Y-88717380D01*
X110847142Y-87717380D01*
X111704285Y-88717380D02*
X111132857Y-88717380D01*
X111418571Y-88717380D02*
X111418571Y-87717380D01*
X111323333Y-87860238D01*
X111228095Y-87955476D01*
X111132857Y-88003095D01*
X122594761Y-88717380D02*
X122261428Y-88241190D01*
X122023333Y-88717380D02*
X122023333Y-87717380D01*
X122404285Y-87717380D01*
X122499523Y-87765000D01*
X122547142Y-87812619D01*
X122594761Y-87907857D01*
X122594761Y-88050714D01*
X122547142Y-88145952D01*
X122499523Y-88193571D01*
X122404285Y-88241190D01*
X122023333Y-88241190D01*
X122880476Y-87717380D02*
X123213809Y-88717380D01*
X123547142Y-87717380D01*
X123785238Y-87717380D02*
X124404285Y-87717380D01*
X124070952Y-88098333D01*
X124213809Y-88098333D01*
X124309047Y-88145952D01*
X124356666Y-88193571D01*
X124404285Y-88288809D01*
X124404285Y-88526904D01*
X124356666Y-88622142D01*
X124309047Y-88669761D01*
X124213809Y-88717380D01*
X123928095Y-88717380D01*
X123832857Y-88669761D01*
X123785238Y-88622142D01*
X146677142Y-77922380D02*
X146343809Y-77446190D01*
X146105714Y-77922380D02*
X146105714Y-76922380D01*
X146486666Y-76922380D01*
X146581904Y-76970000D01*
X146629523Y-77017619D01*
X146677142Y-77112857D01*
X146677142Y-77255714D01*
X146629523Y-77350952D01*
X146581904Y-77398571D01*
X146486666Y-77446190D01*
X146105714Y-77446190D01*
X147058095Y-77017619D02*
X147105714Y-76970000D01*
X147200952Y-76922380D01*
X147439047Y-76922380D01*
X147534285Y-76970000D01*
X147581904Y-77017619D01*
X147629523Y-77112857D01*
X147629523Y-77208095D01*
X147581904Y-77350952D01*
X147010476Y-77922380D01*
X147629523Y-77922380D01*
X148486666Y-77255714D02*
X148486666Y-77922380D01*
X148248571Y-76874761D02*
X148010476Y-77589047D01*
X148629523Y-77589047D01*
X131437142Y-77922380D02*
X131103809Y-77446190D01*
X130865714Y-77922380D02*
X130865714Y-76922380D01*
X131246666Y-76922380D01*
X131341904Y-76970000D01*
X131389523Y-77017619D01*
X131437142Y-77112857D01*
X131437142Y-77255714D01*
X131389523Y-77350952D01*
X131341904Y-77398571D01*
X131246666Y-77446190D01*
X130865714Y-77446190D01*
X131818095Y-77017619D02*
X131865714Y-76970000D01*
X131960952Y-76922380D01*
X132199047Y-76922380D01*
X132294285Y-76970000D01*
X132341904Y-77017619D01*
X132389523Y-77112857D01*
X132389523Y-77208095D01*
X132341904Y-77350952D01*
X131770476Y-77922380D01*
X132389523Y-77922380D01*
X132722857Y-76922380D02*
X133341904Y-76922380D01*
X133008571Y-77303333D01*
X133151428Y-77303333D01*
X133246666Y-77350952D01*
X133294285Y-77398571D01*
X133341904Y-77493809D01*
X133341904Y-77731904D01*
X133294285Y-77827142D01*
X133246666Y-77874761D01*
X133151428Y-77922380D01*
X132865714Y-77922380D01*
X132770476Y-77874761D01*
X132722857Y-77827142D01*
X106672142Y-79827380D02*
X106338809Y-79351190D01*
X106100714Y-79827380D02*
X106100714Y-78827380D01*
X106481666Y-78827380D01*
X106576904Y-78875000D01*
X106624523Y-78922619D01*
X106672142Y-79017857D01*
X106672142Y-79160714D01*
X106624523Y-79255952D01*
X106576904Y-79303571D01*
X106481666Y-79351190D01*
X106100714Y-79351190D01*
X107053095Y-78922619D02*
X107100714Y-78875000D01*
X107195952Y-78827380D01*
X107434047Y-78827380D01*
X107529285Y-78875000D01*
X107576904Y-78922619D01*
X107624523Y-79017857D01*
X107624523Y-79113095D01*
X107576904Y-79255952D01*
X107005476Y-79827380D01*
X107624523Y-79827380D01*
X108005476Y-78922619D02*
X108053095Y-78875000D01*
X108148333Y-78827380D01*
X108386428Y-78827380D01*
X108481666Y-78875000D01*
X108529285Y-78922619D01*
X108576904Y-79017857D01*
X108576904Y-79113095D01*
X108529285Y-79255952D01*
X107957857Y-79827380D01*
X108576904Y-79827380D01*
X106672142Y-84907380D02*
X106338809Y-84431190D01*
X106100714Y-84907380D02*
X106100714Y-83907380D01*
X106481666Y-83907380D01*
X106576904Y-83955000D01*
X106624523Y-84002619D01*
X106672142Y-84097857D01*
X106672142Y-84240714D01*
X106624523Y-84335952D01*
X106576904Y-84383571D01*
X106481666Y-84431190D01*
X106100714Y-84431190D01*
X107053095Y-84002619D02*
X107100714Y-83955000D01*
X107195952Y-83907380D01*
X107434047Y-83907380D01*
X107529285Y-83955000D01*
X107576904Y-84002619D01*
X107624523Y-84097857D01*
X107624523Y-84193095D01*
X107576904Y-84335952D01*
X107005476Y-84907380D01*
X107624523Y-84907380D01*
X108576904Y-84907380D02*
X108005476Y-84907380D01*
X108291190Y-84907380D02*
X108291190Y-83907380D01*
X108195952Y-84050238D01*
X108100714Y-84145476D01*
X108005476Y-84193095D01*
X106672142Y-82367380D02*
X106338809Y-81891190D01*
X106100714Y-82367380D02*
X106100714Y-81367380D01*
X106481666Y-81367380D01*
X106576904Y-81415000D01*
X106624523Y-81462619D01*
X106672142Y-81557857D01*
X106672142Y-81700714D01*
X106624523Y-81795952D01*
X106576904Y-81843571D01*
X106481666Y-81891190D01*
X106100714Y-81891190D01*
X107053095Y-81462619D02*
X107100714Y-81415000D01*
X107195952Y-81367380D01*
X107434047Y-81367380D01*
X107529285Y-81415000D01*
X107576904Y-81462619D01*
X107624523Y-81557857D01*
X107624523Y-81653095D01*
X107576904Y-81795952D01*
X107005476Y-82367380D01*
X107624523Y-82367380D01*
X108243571Y-81367380D02*
X108338809Y-81367380D01*
X108434047Y-81415000D01*
X108481666Y-81462619D01*
X108529285Y-81557857D01*
X108576904Y-81748333D01*
X108576904Y-81986428D01*
X108529285Y-82176904D01*
X108481666Y-82272142D01*
X108434047Y-82319761D01*
X108338809Y-82367380D01*
X108243571Y-82367380D01*
X108148333Y-82319761D01*
X108100714Y-82272142D01*
X108053095Y-82176904D01*
X108005476Y-81986428D01*
X108005476Y-81748333D01*
X108053095Y-81557857D01*
X108100714Y-81462619D01*
X108148333Y-81415000D01*
X108243571Y-81367380D01*
X149217142Y-86812380D02*
X148883809Y-86336190D01*
X148645714Y-86812380D02*
X148645714Y-85812380D01*
X149026666Y-85812380D01*
X149121904Y-85860000D01*
X149169523Y-85907619D01*
X149217142Y-86002857D01*
X149217142Y-86145714D01*
X149169523Y-86240952D01*
X149121904Y-86288571D01*
X149026666Y-86336190D01*
X148645714Y-86336190D01*
X150169523Y-86812380D02*
X149598095Y-86812380D01*
X149883809Y-86812380D02*
X149883809Y-85812380D01*
X149788571Y-85955238D01*
X149693333Y-86050476D01*
X149598095Y-86098095D01*
X150645714Y-86812380D02*
X150836190Y-86812380D01*
X150931428Y-86764761D01*
X150979047Y-86717142D01*
X151074285Y-86574285D01*
X151121904Y-86383809D01*
X151121904Y-86002857D01*
X151074285Y-85907619D01*
X151026666Y-85860000D01*
X150931428Y-85812380D01*
X150740952Y-85812380D01*
X150645714Y-85860000D01*
X150598095Y-85907619D01*
X150550476Y-86002857D01*
X150550476Y-86240952D01*
X150598095Y-86336190D01*
X150645714Y-86383809D01*
X150740952Y-86431428D01*
X150931428Y-86431428D01*
X151026666Y-86383809D01*
X151074285Y-86336190D01*
X151121904Y-86240952D01*
X142232142Y-93162380D02*
X141898809Y-92686190D01*
X141660714Y-93162380D02*
X141660714Y-92162380D01*
X142041666Y-92162380D01*
X142136904Y-92210000D01*
X142184523Y-92257619D01*
X142232142Y-92352857D01*
X142232142Y-92495714D01*
X142184523Y-92590952D01*
X142136904Y-92638571D01*
X142041666Y-92686190D01*
X141660714Y-92686190D01*
X143184523Y-93162380D02*
X142613095Y-93162380D01*
X142898809Y-93162380D02*
X142898809Y-92162380D01*
X142803571Y-92305238D01*
X142708333Y-92400476D01*
X142613095Y-92448095D01*
X143755952Y-92590952D02*
X143660714Y-92543333D01*
X143613095Y-92495714D01*
X143565476Y-92400476D01*
X143565476Y-92352857D01*
X143613095Y-92257619D01*
X143660714Y-92210000D01*
X143755952Y-92162380D01*
X143946428Y-92162380D01*
X144041666Y-92210000D01*
X144089285Y-92257619D01*
X144136904Y-92352857D01*
X144136904Y-92400476D01*
X144089285Y-92495714D01*
X144041666Y-92543333D01*
X143946428Y-92590952D01*
X143755952Y-92590952D01*
X143660714Y-92638571D01*
X143613095Y-92686190D01*
X143565476Y-92781428D01*
X143565476Y-92971904D01*
X143613095Y-93067142D01*
X143660714Y-93114761D01*
X143755952Y-93162380D01*
X143946428Y-93162380D01*
X144041666Y-93114761D01*
X144089285Y-93067142D01*
X144136904Y-92971904D01*
X144136904Y-92781428D01*
X144089285Y-92686190D01*
X144041666Y-92638571D01*
X143946428Y-92590952D01*
X143502142Y-84907380D02*
X143168809Y-84431190D01*
X142930714Y-84907380D02*
X142930714Y-83907380D01*
X143311666Y-83907380D01*
X143406904Y-83955000D01*
X143454523Y-84002619D01*
X143502142Y-84097857D01*
X143502142Y-84240714D01*
X143454523Y-84335952D01*
X143406904Y-84383571D01*
X143311666Y-84431190D01*
X142930714Y-84431190D01*
X144454523Y-84907380D02*
X143883095Y-84907380D01*
X144168809Y-84907380D02*
X144168809Y-83907380D01*
X144073571Y-84050238D01*
X143978333Y-84145476D01*
X143883095Y-84193095D01*
X144787857Y-83907380D02*
X145454523Y-83907380D01*
X145025952Y-84907380D01*
X143502142Y-87447380D02*
X143168809Y-86971190D01*
X142930714Y-87447380D02*
X142930714Y-86447380D01*
X143311666Y-86447380D01*
X143406904Y-86495000D01*
X143454523Y-86542619D01*
X143502142Y-86637857D01*
X143502142Y-86780714D01*
X143454523Y-86875952D01*
X143406904Y-86923571D01*
X143311666Y-86971190D01*
X142930714Y-86971190D01*
X144454523Y-87447380D02*
X143883095Y-87447380D01*
X144168809Y-87447380D02*
X144168809Y-86447380D01*
X144073571Y-86590238D01*
X143978333Y-86685476D01*
X143883095Y-86733095D01*
X145311666Y-86447380D02*
X145121190Y-86447380D01*
X145025952Y-86495000D01*
X144978333Y-86542619D01*
X144883095Y-86685476D01*
X144835476Y-86875952D01*
X144835476Y-87256904D01*
X144883095Y-87352142D01*
X144930714Y-87399761D01*
X145025952Y-87447380D01*
X145216428Y-87447380D01*
X145311666Y-87399761D01*
X145359285Y-87352142D01*
X145406904Y-87256904D01*
X145406904Y-87018809D01*
X145359285Y-86923571D01*
X145311666Y-86875952D01*
X145216428Y-86828333D01*
X145025952Y-86828333D01*
X144930714Y-86875952D01*
X144883095Y-86923571D01*
X144835476Y-87018809D01*
X126357142Y-79827380D02*
X126023809Y-79351190D01*
X125785714Y-79827380D02*
X125785714Y-78827380D01*
X126166666Y-78827380D01*
X126261904Y-78875000D01*
X126309523Y-78922619D01*
X126357142Y-79017857D01*
X126357142Y-79160714D01*
X126309523Y-79255952D01*
X126261904Y-79303571D01*
X126166666Y-79351190D01*
X125785714Y-79351190D01*
X127309523Y-79827380D02*
X126738095Y-79827380D01*
X127023809Y-79827380D02*
X127023809Y-78827380D01*
X126928571Y-78970238D01*
X126833333Y-79065476D01*
X126738095Y-79113095D01*
X128214285Y-78827380D02*
X127738095Y-78827380D01*
X127690476Y-79303571D01*
X127738095Y-79255952D01*
X127833333Y-79208333D01*
X128071428Y-79208333D01*
X128166666Y-79255952D01*
X128214285Y-79303571D01*
X128261904Y-79398809D01*
X128261904Y-79636904D01*
X128214285Y-79732142D01*
X128166666Y-79779761D01*
X128071428Y-79827380D01*
X127833333Y-79827380D01*
X127738095Y-79779761D01*
X127690476Y-79732142D01*
X142232142Y-95702380D02*
X141898809Y-95226190D01*
X141660714Y-95702380D02*
X141660714Y-94702380D01*
X142041666Y-94702380D01*
X142136904Y-94750000D01*
X142184523Y-94797619D01*
X142232142Y-94892857D01*
X142232142Y-95035714D01*
X142184523Y-95130952D01*
X142136904Y-95178571D01*
X142041666Y-95226190D01*
X141660714Y-95226190D01*
X143184523Y-95702380D02*
X142613095Y-95702380D01*
X142898809Y-95702380D02*
X142898809Y-94702380D01*
X142803571Y-94845238D01*
X142708333Y-94940476D01*
X142613095Y-94988095D01*
X144041666Y-95035714D02*
X144041666Y-95702380D01*
X143803571Y-94654761D02*
X143565476Y-95369047D01*
X144184523Y-95369047D01*
X139057142Y-90622380D02*
X138723809Y-90146190D01*
X138485714Y-90622380D02*
X138485714Y-89622380D01*
X138866666Y-89622380D01*
X138961904Y-89670000D01*
X139009523Y-89717619D01*
X139057142Y-89812857D01*
X139057142Y-89955714D01*
X139009523Y-90050952D01*
X138961904Y-90098571D01*
X138866666Y-90146190D01*
X138485714Y-90146190D01*
X140009523Y-90622380D02*
X139438095Y-90622380D01*
X139723809Y-90622380D02*
X139723809Y-89622380D01*
X139628571Y-89765238D01*
X139533333Y-89860476D01*
X139438095Y-89908095D01*
X140342857Y-89622380D02*
X140961904Y-89622380D01*
X140628571Y-90003333D01*
X140771428Y-90003333D01*
X140866666Y-90050952D01*
X140914285Y-90098571D01*
X140961904Y-90193809D01*
X140961904Y-90431904D01*
X140914285Y-90527142D01*
X140866666Y-90574761D01*
X140771428Y-90622380D01*
X140485714Y-90622380D01*
X140390476Y-90574761D01*
X140342857Y-90527142D01*
X126357142Y-82367380D02*
X126023809Y-81891190D01*
X125785714Y-82367380D02*
X125785714Y-81367380D01*
X126166666Y-81367380D01*
X126261904Y-81415000D01*
X126309523Y-81462619D01*
X126357142Y-81557857D01*
X126357142Y-81700714D01*
X126309523Y-81795952D01*
X126261904Y-81843571D01*
X126166666Y-81891190D01*
X125785714Y-81891190D01*
X127309523Y-82367380D02*
X126738095Y-82367380D01*
X127023809Y-82367380D02*
X127023809Y-81367380D01*
X126928571Y-81510238D01*
X126833333Y-81605476D01*
X126738095Y-81653095D01*
X127690476Y-81462619D02*
X127738095Y-81415000D01*
X127833333Y-81367380D01*
X128071428Y-81367380D01*
X128166666Y-81415000D01*
X128214285Y-81462619D01*
X128261904Y-81557857D01*
X128261904Y-81653095D01*
X128214285Y-81795952D01*
X127642857Y-82367380D01*
X128261904Y-82367380D01*
X126992142Y-87447380D02*
X126658809Y-86971190D01*
X126420714Y-87447380D02*
X126420714Y-86447380D01*
X126801666Y-86447380D01*
X126896904Y-86495000D01*
X126944523Y-86542619D01*
X126992142Y-86637857D01*
X126992142Y-86780714D01*
X126944523Y-86875952D01*
X126896904Y-86923571D01*
X126801666Y-86971190D01*
X126420714Y-86971190D01*
X127944523Y-87447380D02*
X127373095Y-87447380D01*
X127658809Y-87447380D02*
X127658809Y-86447380D01*
X127563571Y-86590238D01*
X127468333Y-86685476D01*
X127373095Y-86733095D01*
X128896904Y-87447380D02*
X128325476Y-87447380D01*
X128611190Y-87447380D02*
X128611190Y-86447380D01*
X128515952Y-86590238D01*
X128420714Y-86685476D01*
X128325476Y-86733095D01*
X126357142Y-84907380D02*
X126023809Y-84431190D01*
X125785714Y-84907380D02*
X125785714Y-83907380D01*
X126166666Y-83907380D01*
X126261904Y-83955000D01*
X126309523Y-84002619D01*
X126357142Y-84097857D01*
X126357142Y-84240714D01*
X126309523Y-84335952D01*
X126261904Y-84383571D01*
X126166666Y-84431190D01*
X125785714Y-84431190D01*
X127309523Y-84907380D02*
X126738095Y-84907380D01*
X127023809Y-84907380D02*
X127023809Y-83907380D01*
X126928571Y-84050238D01*
X126833333Y-84145476D01*
X126738095Y-84193095D01*
X127928571Y-83907380D02*
X128023809Y-83907380D01*
X128119047Y-83955000D01*
X128166666Y-84002619D01*
X128214285Y-84097857D01*
X128261904Y-84288333D01*
X128261904Y-84526428D01*
X128214285Y-84716904D01*
X128166666Y-84812142D01*
X128119047Y-84859761D01*
X128023809Y-84907380D01*
X127928571Y-84907380D01*
X127833333Y-84859761D01*
X127785714Y-84812142D01*
X127738095Y-84716904D01*
X127690476Y-84526428D01*
X127690476Y-84288333D01*
X127738095Y-84097857D01*
X127785714Y-84002619D01*
X127833333Y-83955000D01*
X127928571Y-83907380D01*
X126443333Y-77287380D02*
X126110000Y-76811190D01*
X125871904Y-77287380D02*
X125871904Y-76287380D01*
X126252857Y-76287380D01*
X126348095Y-76335000D01*
X126395714Y-76382619D01*
X126443333Y-76477857D01*
X126443333Y-76620714D01*
X126395714Y-76715952D01*
X126348095Y-76763571D01*
X126252857Y-76811190D01*
X125871904Y-76811190D01*
X126919523Y-77287380D02*
X127110000Y-77287380D01*
X127205238Y-77239761D01*
X127252857Y-77192142D01*
X127348095Y-77049285D01*
X127395714Y-76858809D01*
X127395714Y-76477857D01*
X127348095Y-76382619D01*
X127300476Y-76335000D01*
X127205238Y-76287380D01*
X127014761Y-76287380D01*
X126919523Y-76335000D01*
X126871904Y-76382619D01*
X126824285Y-76477857D01*
X126824285Y-76715952D01*
X126871904Y-76811190D01*
X126919523Y-76858809D01*
X127014761Y-76906428D01*
X127205238Y-76906428D01*
X127300476Y-76858809D01*
X127348095Y-76811190D01*
X127395714Y-76715952D01*
X133818333Y-53792380D02*
X133485000Y-53316190D01*
X133246904Y-53792380D02*
X133246904Y-52792380D01*
X133627857Y-52792380D01*
X133723095Y-52840000D01*
X133770714Y-52887619D01*
X133818333Y-52982857D01*
X133818333Y-53125714D01*
X133770714Y-53220952D01*
X133723095Y-53268571D01*
X133627857Y-53316190D01*
X133246904Y-53316190D01*
X134389761Y-53220952D02*
X134294523Y-53173333D01*
X134246904Y-53125714D01*
X134199285Y-53030476D01*
X134199285Y-52982857D01*
X134246904Y-52887619D01*
X134294523Y-52840000D01*
X134389761Y-52792380D01*
X134580238Y-52792380D01*
X134675476Y-52840000D01*
X134723095Y-52887619D01*
X134770714Y-52982857D01*
X134770714Y-53030476D01*
X134723095Y-53125714D01*
X134675476Y-53173333D01*
X134580238Y-53220952D01*
X134389761Y-53220952D01*
X134294523Y-53268571D01*
X134246904Y-53316190D01*
X134199285Y-53411428D01*
X134199285Y-53601904D01*
X134246904Y-53697142D01*
X134294523Y-53744761D01*
X134389761Y-53792380D01*
X134580238Y-53792380D01*
X134675476Y-53744761D01*
X134723095Y-53697142D01*
X134770714Y-53601904D01*
X134770714Y-53411428D01*
X134723095Y-53316190D01*
X134675476Y-53268571D01*
X134580238Y-53220952D01*
X123023333Y-53792380D02*
X122690000Y-53316190D01*
X122451904Y-53792380D02*
X122451904Y-52792380D01*
X122832857Y-52792380D01*
X122928095Y-52840000D01*
X122975714Y-52887619D01*
X123023333Y-52982857D01*
X123023333Y-53125714D01*
X122975714Y-53220952D01*
X122928095Y-53268571D01*
X122832857Y-53316190D01*
X122451904Y-53316190D01*
X123356666Y-52792380D02*
X124023333Y-52792380D01*
X123594761Y-53792380D01*
X116673333Y-53792380D02*
X116340000Y-53316190D01*
X116101904Y-53792380D02*
X116101904Y-52792380D01*
X116482857Y-52792380D01*
X116578095Y-52840000D01*
X116625714Y-52887619D01*
X116673333Y-52982857D01*
X116673333Y-53125714D01*
X116625714Y-53220952D01*
X116578095Y-53268571D01*
X116482857Y-53316190D01*
X116101904Y-53316190D01*
X117530476Y-52792380D02*
X117340000Y-52792380D01*
X117244761Y-52840000D01*
X117197142Y-52887619D01*
X117101904Y-53030476D01*
X117054285Y-53220952D01*
X117054285Y-53601904D01*
X117101904Y-53697142D01*
X117149523Y-53744761D01*
X117244761Y-53792380D01*
X117435238Y-53792380D01*
X117530476Y-53744761D01*
X117578095Y-53697142D01*
X117625714Y-53601904D01*
X117625714Y-53363809D01*
X117578095Y-53268571D01*
X117530476Y-53220952D01*
X117435238Y-53173333D01*
X117244761Y-53173333D01*
X117149523Y-53220952D01*
X117101904Y-53268571D01*
X117054285Y-53363809D01*
X114133333Y-53792380D02*
X113800000Y-53316190D01*
X113561904Y-53792380D02*
X113561904Y-52792380D01*
X113942857Y-52792380D01*
X114038095Y-52840000D01*
X114085714Y-52887619D01*
X114133333Y-52982857D01*
X114133333Y-53125714D01*
X114085714Y-53220952D01*
X114038095Y-53268571D01*
X113942857Y-53316190D01*
X113561904Y-53316190D01*
X115038095Y-52792380D02*
X114561904Y-52792380D01*
X114514285Y-53268571D01*
X114561904Y-53220952D01*
X114657142Y-53173333D01*
X114895238Y-53173333D01*
X114990476Y-53220952D01*
X115038095Y-53268571D01*
X115085714Y-53363809D01*
X115085714Y-53601904D01*
X115038095Y-53697142D01*
X114990476Y-53744761D01*
X114895238Y-53792380D01*
X114657142Y-53792380D01*
X114561904Y-53744761D01*
X114514285Y-53697142D01*
X109053333Y-53792380D02*
X108720000Y-53316190D01*
X108481904Y-53792380D02*
X108481904Y-52792380D01*
X108862857Y-52792380D01*
X108958095Y-52840000D01*
X109005714Y-52887619D01*
X109053333Y-52982857D01*
X109053333Y-53125714D01*
X109005714Y-53220952D01*
X108958095Y-53268571D01*
X108862857Y-53316190D01*
X108481904Y-53316190D01*
X109910476Y-53125714D02*
X109910476Y-53792380D01*
X109672380Y-52744761D02*
X109434285Y-53459047D01*
X110053333Y-53459047D01*
X111593333Y-53792380D02*
X111260000Y-53316190D01*
X111021904Y-53792380D02*
X111021904Y-52792380D01*
X111402857Y-52792380D01*
X111498095Y-52840000D01*
X111545714Y-52887619D01*
X111593333Y-52982857D01*
X111593333Y-53125714D01*
X111545714Y-53220952D01*
X111498095Y-53268571D01*
X111402857Y-53316190D01*
X111021904Y-53316190D01*
X111926666Y-52792380D02*
X112545714Y-52792380D01*
X112212380Y-53173333D01*
X112355238Y-53173333D01*
X112450476Y-53220952D01*
X112498095Y-53268571D01*
X112545714Y-53363809D01*
X112545714Y-53601904D01*
X112498095Y-53697142D01*
X112450476Y-53744761D01*
X112355238Y-53792380D01*
X112069523Y-53792380D01*
X111974285Y-53744761D01*
X111926666Y-53697142D01*
X143978333Y-72207380D02*
X143645000Y-71731190D01*
X143406904Y-72207380D02*
X143406904Y-71207380D01*
X143787857Y-71207380D01*
X143883095Y-71255000D01*
X143930714Y-71302619D01*
X143978333Y-71397857D01*
X143978333Y-71540714D01*
X143930714Y-71635952D01*
X143883095Y-71683571D01*
X143787857Y-71731190D01*
X143406904Y-71731190D01*
X144359285Y-71302619D02*
X144406904Y-71255000D01*
X144502142Y-71207380D01*
X144740238Y-71207380D01*
X144835476Y-71255000D01*
X144883095Y-71302619D01*
X144930714Y-71397857D01*
X144930714Y-71493095D01*
X144883095Y-71635952D01*
X144311666Y-72207380D01*
X144930714Y-72207380D01*
X141438333Y-72207380D02*
X141105000Y-71731190D01*
X140866904Y-72207380D02*
X140866904Y-71207380D01*
X141247857Y-71207380D01*
X141343095Y-71255000D01*
X141390714Y-71302619D01*
X141438333Y-71397857D01*
X141438333Y-71540714D01*
X141390714Y-71635952D01*
X141343095Y-71683571D01*
X141247857Y-71731190D01*
X140866904Y-71731190D01*
X142390714Y-72207380D02*
X141819285Y-72207380D01*
X142105000Y-72207380D02*
X142105000Y-71207380D01*
X142009761Y-71350238D01*
X141914523Y-71445476D01*
X141819285Y-71493095D01*
X139604761Y-73572619D02*
X139509523Y-73525000D01*
X139414285Y-73429761D01*
X139271428Y-73286904D01*
X139176190Y-73239285D01*
X139080952Y-73239285D01*
X139128571Y-73477380D02*
X139033333Y-73429761D01*
X138938095Y-73334523D01*
X138890476Y-73144047D01*
X138890476Y-72810714D01*
X138938095Y-72620238D01*
X139033333Y-72525000D01*
X139128571Y-72477380D01*
X139319047Y-72477380D01*
X139414285Y-72525000D01*
X139509523Y-72620238D01*
X139557142Y-72810714D01*
X139557142Y-73144047D01*
X139509523Y-73334523D01*
X139414285Y-73429761D01*
X139319047Y-73477380D01*
X139128571Y-73477380D01*
X139890476Y-72477380D02*
X140509523Y-72477380D01*
X140176190Y-72858333D01*
X140319047Y-72858333D01*
X140414285Y-72905952D01*
X140461904Y-72953571D01*
X140509523Y-73048809D01*
X140509523Y-73286904D01*
X140461904Y-73382142D01*
X140414285Y-73429761D01*
X140319047Y-73477380D01*
X140033333Y-73477380D01*
X139938095Y-73429761D01*
X139890476Y-73382142D01*
X129444761Y-93892619D02*
X129349523Y-93845000D01*
X129254285Y-93749761D01*
X129111428Y-93606904D01*
X129016190Y-93559285D01*
X128920952Y-93559285D01*
X128968571Y-93797380D02*
X128873333Y-93749761D01*
X128778095Y-93654523D01*
X128730476Y-93464047D01*
X128730476Y-93130714D01*
X128778095Y-92940238D01*
X128873333Y-92845000D01*
X128968571Y-92797380D01*
X129159047Y-92797380D01*
X129254285Y-92845000D01*
X129349523Y-92940238D01*
X129397142Y-93130714D01*
X129397142Y-93464047D01*
X129349523Y-93654523D01*
X129254285Y-93749761D01*
X129159047Y-93797380D01*
X128968571Y-93797380D01*
X129778095Y-92892619D02*
X129825714Y-92845000D01*
X129920952Y-92797380D01*
X130159047Y-92797380D01*
X130254285Y-92845000D01*
X130301904Y-92892619D01*
X130349523Y-92987857D01*
X130349523Y-93083095D01*
X130301904Y-93225952D01*
X129730476Y-93797380D01*
X130349523Y-93797380D01*
D13*
X136168190Y-87043380D02*
X136144000Y-87091761D01*
X136095619Y-87140142D01*
X136023047Y-87212714D01*
X135998857Y-87261095D01*
X135998857Y-87309476D01*
X136119809Y-87285285D02*
X136095619Y-87333666D01*
X136047238Y-87382047D01*
X135950476Y-87406238D01*
X135781142Y-87406238D01*
X135684380Y-87382047D01*
X135636000Y-87333666D01*
X135611809Y-87285285D01*
X135611809Y-87188523D01*
X135636000Y-87140142D01*
X135684380Y-87091761D01*
X135781142Y-87067571D01*
X135950476Y-87067571D01*
X136047238Y-87091761D01*
X136095619Y-87140142D01*
X136119809Y-87188523D01*
X136119809Y-87285285D01*
X136119809Y-86583761D02*
X136119809Y-86874047D01*
X136119809Y-86728904D02*
X135611809Y-86728904D01*
X135684380Y-86777285D01*
X135732761Y-86825666D01*
X135756952Y-86874047D01*
D10*
X152066666Y-63162380D02*
X152066666Y-63876666D01*
X152019047Y-64019523D01*
X151923809Y-64114761D01*
X151780952Y-64162380D01*
X151685714Y-64162380D01*
X153019047Y-63162380D02*
X152542857Y-63162380D01*
X152495238Y-63638571D01*
X152542857Y-63590952D01*
X152638095Y-63543333D01*
X152876190Y-63543333D01*
X152971428Y-63590952D01*
X153019047Y-63638571D01*
X153066666Y-63733809D01*
X153066666Y-63971904D01*
X153019047Y-64067142D01*
X152971428Y-64114761D01*
X152876190Y-64162380D01*
X152638095Y-64162380D01*
X152542857Y-64114761D01*
X152495238Y-64067142D01*
X142771904Y-81097380D02*
X142771904Y-80097380D01*
X143010000Y-80097380D01*
X143152857Y-80145000D01*
X143248095Y-80240238D01*
X143295714Y-80335476D01*
X143343333Y-80525952D01*
X143343333Y-80668809D01*
X143295714Y-80859285D01*
X143248095Y-80954523D01*
X143152857Y-81049761D01*
X143010000Y-81097380D01*
X142771904Y-81097380D01*
X143724285Y-80192619D02*
X143771904Y-80145000D01*
X143867142Y-80097380D01*
X144105238Y-80097380D01*
X144200476Y-80145000D01*
X144248095Y-80192619D01*
X144295714Y-80287857D01*
X144295714Y-80383095D01*
X144248095Y-80525952D01*
X143676666Y-81097380D01*
X144295714Y-81097380D01*
X148486904Y-84272380D02*
X148486904Y-83272380D01*
X148725000Y-83272380D01*
X148867857Y-83320000D01*
X148963095Y-83415238D01*
X149010714Y-83510476D01*
X149058333Y-83700952D01*
X149058333Y-83843809D01*
X149010714Y-84034285D01*
X148963095Y-84129523D01*
X148867857Y-84224761D01*
X148725000Y-84272380D01*
X148486904Y-84272380D01*
X150010714Y-84272380D02*
X149439285Y-84272380D01*
X149725000Y-84272380D02*
X149725000Y-83272380D01*
X149629761Y-83415238D01*
X149534523Y-83510476D01*
X149439285Y-83558095D01*
X115403333Y-86717142D02*
X115355714Y-86764761D01*
X115212857Y-86812380D01*
X115117619Y-86812380D01*
X114974761Y-86764761D01*
X114879523Y-86669523D01*
X114831904Y-86574285D01*
X114784285Y-86383809D01*
X114784285Y-86240952D01*
X114831904Y-86050476D01*
X114879523Y-85955238D01*
X114974761Y-85860000D01*
X115117619Y-85812380D01*
X115212857Y-85812380D01*
X115355714Y-85860000D01*
X115403333Y-85907619D01*
X115879523Y-86812380D02*
X116070000Y-86812380D01*
X116165238Y-86764761D01*
X116212857Y-86717142D01*
X116308095Y-86574285D01*
X116355714Y-86383809D01*
X116355714Y-86002857D01*
X116308095Y-85907619D01*
X116260476Y-85860000D01*
X116165238Y-85812380D01*
X115974761Y-85812380D01*
X115879523Y-85860000D01*
X115831904Y-85907619D01*
X115784285Y-86002857D01*
X115784285Y-86240952D01*
X115831904Y-86336190D01*
X115879523Y-86383809D01*
X115974761Y-86431428D01*
X116165238Y-86431428D01*
X116260476Y-86383809D01*
X116308095Y-86336190D01*
X116355714Y-86240952D01*
X119213333Y-86717142D02*
X119165714Y-86764761D01*
X119022857Y-86812380D01*
X118927619Y-86812380D01*
X118784761Y-86764761D01*
X118689523Y-86669523D01*
X118641904Y-86574285D01*
X118594285Y-86383809D01*
X118594285Y-86240952D01*
X118641904Y-86050476D01*
X118689523Y-85955238D01*
X118784761Y-85860000D01*
X118927619Y-85812380D01*
X119022857Y-85812380D01*
X119165714Y-85860000D01*
X119213333Y-85907619D01*
X119784761Y-86240952D02*
X119689523Y-86193333D01*
X119641904Y-86145714D01*
X119594285Y-86050476D01*
X119594285Y-86002857D01*
X119641904Y-85907619D01*
X119689523Y-85860000D01*
X119784761Y-85812380D01*
X119975238Y-85812380D01*
X120070476Y-85860000D01*
X120118095Y-85907619D01*
X120165714Y-86002857D01*
X120165714Y-86050476D01*
X120118095Y-86145714D01*
X120070476Y-86193333D01*
X119975238Y-86240952D01*
X119784761Y-86240952D01*
X119689523Y-86288571D01*
X119641904Y-86336190D01*
X119594285Y-86431428D01*
X119594285Y-86621904D01*
X119641904Y-86717142D01*
X119689523Y-86764761D01*
X119784761Y-86812380D01*
X119975238Y-86812380D01*
X120070476Y-86764761D01*
X120118095Y-86717142D01*
X120165714Y-86621904D01*
X120165714Y-86431428D01*
X120118095Y-86336190D01*
X120070476Y-86288571D01*
X119975238Y-86240952D01*
X147788333Y-58777142D02*
X147740714Y-58824761D01*
X147597857Y-58872380D01*
X147502619Y-58872380D01*
X147359761Y-58824761D01*
X147264523Y-58729523D01*
X147216904Y-58634285D01*
X147169285Y-58443809D01*
X147169285Y-58300952D01*
X147216904Y-58110476D01*
X147264523Y-58015238D01*
X147359761Y-57920000D01*
X147502619Y-57872380D01*
X147597857Y-57872380D01*
X147740714Y-57920000D01*
X147788333Y-57967619D01*
X148121666Y-57872380D02*
X148788333Y-57872380D01*
X148359761Y-58872380D01*
X147788333Y-67667142D02*
X147740714Y-67714761D01*
X147597857Y-67762380D01*
X147502619Y-67762380D01*
X147359761Y-67714761D01*
X147264523Y-67619523D01*
X147216904Y-67524285D01*
X147169285Y-67333809D01*
X147169285Y-67190952D01*
X147216904Y-67000476D01*
X147264523Y-66905238D01*
X147359761Y-66810000D01*
X147502619Y-66762380D01*
X147597857Y-66762380D01*
X147740714Y-66810000D01*
X147788333Y-66857619D01*
X148645476Y-66762380D02*
X148455000Y-66762380D01*
X148359761Y-66810000D01*
X148312142Y-66857619D01*
X148216904Y-67000476D01*
X148169285Y-67190952D01*
X148169285Y-67571904D01*
X148216904Y-67667142D01*
X148264523Y-67714761D01*
X148359761Y-67762380D01*
X148550238Y-67762380D01*
X148645476Y-67714761D01*
X148693095Y-67667142D01*
X148740714Y-67571904D01*
X148740714Y-67333809D01*
X148693095Y-67238571D01*
X148645476Y-67190952D01*
X148550238Y-67143333D01*
X148359761Y-67143333D01*
X148264523Y-67190952D01*
X148216904Y-67238571D01*
X148169285Y-67333809D01*
X106513333Y-61317142D02*
X106465714Y-61364761D01*
X106322857Y-61412380D01*
X106227619Y-61412380D01*
X106084761Y-61364761D01*
X105989523Y-61269523D01*
X105941904Y-61174285D01*
X105894285Y-60983809D01*
X105894285Y-60840952D01*
X105941904Y-60650476D01*
X105989523Y-60555238D01*
X106084761Y-60460000D01*
X106227619Y-60412380D01*
X106322857Y-60412380D01*
X106465714Y-60460000D01*
X106513333Y-60507619D01*
X107418095Y-60412380D02*
X106941904Y-60412380D01*
X106894285Y-60888571D01*
X106941904Y-60840952D01*
X107037142Y-60793333D01*
X107275238Y-60793333D01*
X107370476Y-60840952D01*
X107418095Y-60888571D01*
X107465714Y-60983809D01*
X107465714Y-61221904D01*
X107418095Y-61317142D01*
X107370476Y-61364761D01*
X107275238Y-61412380D01*
X107037142Y-61412380D01*
X106941904Y-61364761D01*
X106894285Y-61317142D01*
X106513333Y-65127142D02*
X106465714Y-65174761D01*
X106322857Y-65222380D01*
X106227619Y-65222380D01*
X106084761Y-65174761D01*
X105989523Y-65079523D01*
X105941904Y-64984285D01*
X105894285Y-64793809D01*
X105894285Y-64650952D01*
X105941904Y-64460476D01*
X105989523Y-64365238D01*
X106084761Y-64270000D01*
X106227619Y-64222380D01*
X106322857Y-64222380D01*
X106465714Y-64270000D01*
X106513333Y-64317619D01*
X107370476Y-64555714D02*
X107370476Y-65222380D01*
X107132380Y-64174761D02*
X106894285Y-64889047D01*
X107513333Y-64889047D01*
X107148333Y-77192142D02*
X107100714Y-77239761D01*
X106957857Y-77287380D01*
X106862619Y-77287380D01*
X106719761Y-77239761D01*
X106624523Y-77144523D01*
X106576904Y-77049285D01*
X106529285Y-76858809D01*
X106529285Y-76715952D01*
X106576904Y-76525476D01*
X106624523Y-76430238D01*
X106719761Y-76335000D01*
X106862619Y-76287380D01*
X106957857Y-76287380D01*
X107100714Y-76335000D01*
X107148333Y-76382619D01*
X107481666Y-76287380D02*
X108100714Y-76287380D01*
X107767380Y-76668333D01*
X107910238Y-76668333D01*
X108005476Y-76715952D01*
X108053095Y-76763571D01*
X108100714Y-76858809D01*
X108100714Y-77096904D01*
X108053095Y-77192142D01*
X108005476Y-77239761D01*
X107910238Y-77287380D01*
X107624523Y-77287380D01*
X107529285Y-77239761D01*
X107481666Y-77192142D01*
X142073333Y-54332142D02*
X142025714Y-54379761D01*
X141882857Y-54427380D01*
X141787619Y-54427380D01*
X141644761Y-54379761D01*
X141549523Y-54284523D01*
X141501904Y-54189285D01*
X141454285Y-53998809D01*
X141454285Y-53855952D01*
X141501904Y-53665476D01*
X141549523Y-53570238D01*
X141644761Y-53475000D01*
X141787619Y-53427380D01*
X141882857Y-53427380D01*
X142025714Y-53475000D01*
X142073333Y-53522619D01*
X142454285Y-53522619D02*
X142501904Y-53475000D01*
X142597142Y-53427380D01*
X142835238Y-53427380D01*
X142930476Y-53475000D01*
X142978095Y-53522619D01*
X143025714Y-53617857D01*
X143025714Y-53713095D01*
X142978095Y-53855952D01*
X142406666Y-54427380D01*
X143025714Y-54427380D01*
X112903333Y-72572142D02*
X112855714Y-72619761D01*
X112712857Y-72667380D01*
X112617619Y-72667380D01*
X112474761Y-72619761D01*
X112379523Y-72524523D01*
X112331904Y-72429285D01*
X112284285Y-72238809D01*
X112284285Y-72095952D01*
X112331904Y-71905476D01*
X112379523Y-71810238D01*
X112474761Y-71715000D01*
X112617619Y-71667380D01*
X112712857Y-71667380D01*
X112855714Y-71715000D01*
X112903333Y-71762619D01*
X113855714Y-72667380D02*
X113284285Y-72667380D01*
X113570000Y-72667380D02*
X113570000Y-71667380D01*
X113474761Y-71810238D01*
X113379523Y-71905476D01*
X113284285Y-71953095D01*
M02*
