G04 #@! TF.GenerationSoftware,KiCad,Pcbnew,5.1.6-c6e7f7d~87~ubuntu18.04.1*
G04 #@! TF.CreationDate,2020-08-01T20:03:32-04:00*
G04 #@! TF.ProjectId,mutron_III_plug_in_board,6d757472-6f6e-45f4-9949-495f706c7567,rev?*
G04 #@! TF.SameCoordinates,Original*
G04 #@! TF.FileFunction,Paste,Top*
G04 #@! TF.FilePolarity,Positive*
%FSLAX46Y46*%
G04 Gerber Fmt 4.6, Leading zero omitted, Abs format (unit mm)*
G04 Created by KiCad (PCBNEW 5.1.6-c6e7f7d~87~ubuntu18.04.1) date 2020-08-01 20:03:32*
%MOMM*%
%LPD*%
G01*
G04 APERTURE LIST*
%ADD10R,0.800000X1.900000*%
%ADD11R,1.900000X0.800000*%
%ADD12R,1.500000X0.550000*%
%ADD13R,0.900000X1.200000*%
G04 APERTURE END LIST*
G36*
G01*
X118590000Y-78255000D02*
X118590000Y-77955000D01*
G75*
G02*
X118740000Y-77805000I150000J0D01*
G01*
X120390000Y-77805000D01*
G75*
G02*
X120540000Y-77955000I0J-150000D01*
G01*
X120540000Y-78255000D01*
G75*
G02*
X120390000Y-78405000I-150000J0D01*
G01*
X118740000Y-78405000D01*
G75*
G02*
X118590000Y-78255000I0J150000D01*
G01*
G37*
G36*
G01*
X118590000Y-79525000D02*
X118590000Y-79225000D01*
G75*
G02*
X118740000Y-79075000I150000J0D01*
G01*
X120390000Y-79075000D01*
G75*
G02*
X120540000Y-79225000I0J-150000D01*
G01*
X120540000Y-79525000D01*
G75*
G02*
X120390000Y-79675000I-150000J0D01*
G01*
X118740000Y-79675000D01*
G75*
G02*
X118590000Y-79525000I0J150000D01*
G01*
G37*
G36*
G01*
X118590000Y-80795000D02*
X118590000Y-80495000D01*
G75*
G02*
X118740000Y-80345000I150000J0D01*
G01*
X120390000Y-80345000D01*
G75*
G02*
X120540000Y-80495000I0J-150000D01*
G01*
X120540000Y-80795000D01*
G75*
G02*
X120390000Y-80945000I-150000J0D01*
G01*
X118740000Y-80945000D01*
G75*
G02*
X118590000Y-80795000I0J150000D01*
G01*
G37*
G36*
G01*
X118590000Y-82065000D02*
X118590000Y-81765000D01*
G75*
G02*
X118740000Y-81615000I150000J0D01*
G01*
X120390000Y-81615000D01*
G75*
G02*
X120540000Y-81765000I0J-150000D01*
G01*
X120540000Y-82065000D01*
G75*
G02*
X120390000Y-82215000I-150000J0D01*
G01*
X118740000Y-82215000D01*
G75*
G02*
X118590000Y-82065000I0J150000D01*
G01*
G37*
G36*
G01*
X113640000Y-82065000D02*
X113640000Y-81765000D01*
G75*
G02*
X113790000Y-81615000I150000J0D01*
G01*
X115440000Y-81615000D01*
G75*
G02*
X115590000Y-81765000I0J-150000D01*
G01*
X115590000Y-82065000D01*
G75*
G02*
X115440000Y-82215000I-150000J0D01*
G01*
X113790000Y-82215000D01*
G75*
G02*
X113640000Y-82065000I0J150000D01*
G01*
G37*
G36*
G01*
X113640000Y-80795000D02*
X113640000Y-80495000D01*
G75*
G02*
X113790000Y-80345000I150000J0D01*
G01*
X115440000Y-80345000D01*
G75*
G02*
X115590000Y-80495000I0J-150000D01*
G01*
X115590000Y-80795000D01*
G75*
G02*
X115440000Y-80945000I-150000J0D01*
G01*
X113790000Y-80945000D01*
G75*
G02*
X113640000Y-80795000I0J150000D01*
G01*
G37*
G36*
G01*
X113640000Y-79525000D02*
X113640000Y-79225000D01*
G75*
G02*
X113790000Y-79075000I150000J0D01*
G01*
X115440000Y-79075000D01*
G75*
G02*
X115590000Y-79225000I0J-150000D01*
G01*
X115590000Y-79525000D01*
G75*
G02*
X115440000Y-79675000I-150000J0D01*
G01*
X113790000Y-79675000D01*
G75*
G02*
X113640000Y-79525000I0J150000D01*
G01*
G37*
G36*
G01*
X113640000Y-78255000D02*
X113640000Y-77955000D01*
G75*
G02*
X113790000Y-77805000I150000J0D01*
G01*
X115440000Y-77805000D01*
G75*
G02*
X115590000Y-77955000I0J-150000D01*
G01*
X115590000Y-78255000D01*
G75*
G02*
X115440000Y-78405000I-150000J0D01*
G01*
X113790000Y-78405000D01*
G75*
G02*
X113640000Y-78255000I0J150000D01*
G01*
G37*
G36*
G01*
X143995000Y-64365000D02*
X144295000Y-64365000D01*
G75*
G02*
X144445000Y-64515000I0J-150000D01*
G01*
X144445000Y-66165000D01*
G75*
G02*
X144295000Y-66315000I-150000J0D01*
G01*
X143995000Y-66315000D01*
G75*
G02*
X143845000Y-66165000I0J150000D01*
G01*
X143845000Y-64515000D01*
G75*
G02*
X143995000Y-64365000I150000J0D01*
G01*
G37*
G36*
G01*
X142725000Y-64365000D02*
X143025000Y-64365000D01*
G75*
G02*
X143175000Y-64515000I0J-150000D01*
G01*
X143175000Y-66165000D01*
G75*
G02*
X143025000Y-66315000I-150000J0D01*
G01*
X142725000Y-66315000D01*
G75*
G02*
X142575000Y-66165000I0J150000D01*
G01*
X142575000Y-64515000D01*
G75*
G02*
X142725000Y-64365000I150000J0D01*
G01*
G37*
G36*
G01*
X141455000Y-64365000D02*
X141755000Y-64365000D01*
G75*
G02*
X141905000Y-64515000I0J-150000D01*
G01*
X141905000Y-66165000D01*
G75*
G02*
X141755000Y-66315000I-150000J0D01*
G01*
X141455000Y-66315000D01*
G75*
G02*
X141305000Y-66165000I0J150000D01*
G01*
X141305000Y-64515000D01*
G75*
G02*
X141455000Y-64365000I150000J0D01*
G01*
G37*
G36*
G01*
X140185000Y-64365000D02*
X140485000Y-64365000D01*
G75*
G02*
X140635000Y-64515000I0J-150000D01*
G01*
X140635000Y-66165000D01*
G75*
G02*
X140485000Y-66315000I-150000J0D01*
G01*
X140185000Y-66315000D01*
G75*
G02*
X140035000Y-66165000I0J150000D01*
G01*
X140035000Y-64515000D01*
G75*
G02*
X140185000Y-64365000I150000J0D01*
G01*
G37*
G36*
G01*
X140185000Y-59415000D02*
X140485000Y-59415000D01*
G75*
G02*
X140635000Y-59565000I0J-150000D01*
G01*
X140635000Y-61215000D01*
G75*
G02*
X140485000Y-61365000I-150000J0D01*
G01*
X140185000Y-61365000D01*
G75*
G02*
X140035000Y-61215000I0J150000D01*
G01*
X140035000Y-59565000D01*
G75*
G02*
X140185000Y-59415000I150000J0D01*
G01*
G37*
G36*
G01*
X141455000Y-59415000D02*
X141755000Y-59415000D01*
G75*
G02*
X141905000Y-59565000I0J-150000D01*
G01*
X141905000Y-61215000D01*
G75*
G02*
X141755000Y-61365000I-150000J0D01*
G01*
X141455000Y-61365000D01*
G75*
G02*
X141305000Y-61215000I0J150000D01*
G01*
X141305000Y-59565000D01*
G75*
G02*
X141455000Y-59415000I150000J0D01*
G01*
G37*
G36*
G01*
X142725000Y-59415000D02*
X143025000Y-59415000D01*
G75*
G02*
X143175000Y-59565000I0J-150000D01*
G01*
X143175000Y-61215000D01*
G75*
G02*
X143025000Y-61365000I-150000J0D01*
G01*
X142725000Y-61365000D01*
G75*
G02*
X142575000Y-61215000I0J150000D01*
G01*
X142575000Y-59565000D01*
G75*
G02*
X142725000Y-59415000I150000J0D01*
G01*
G37*
G36*
G01*
X143995000Y-59415000D02*
X144295000Y-59415000D01*
G75*
G02*
X144445000Y-59565000I0J-150000D01*
G01*
X144445000Y-61215000D01*
G75*
G02*
X144295000Y-61365000I-150000J0D01*
G01*
X143995000Y-61365000D01*
G75*
G02*
X143845000Y-61215000I0J150000D01*
G01*
X143845000Y-59565000D01*
G75*
G02*
X143995000Y-59415000I150000J0D01*
G01*
G37*
G36*
G01*
X114785000Y-64365000D02*
X115085000Y-64365000D01*
G75*
G02*
X115235000Y-64515000I0J-150000D01*
G01*
X115235000Y-66165000D01*
G75*
G02*
X115085000Y-66315000I-150000J0D01*
G01*
X114785000Y-66315000D01*
G75*
G02*
X114635000Y-66165000I0J150000D01*
G01*
X114635000Y-64515000D01*
G75*
G02*
X114785000Y-64365000I150000J0D01*
G01*
G37*
G36*
G01*
X113515000Y-64365000D02*
X113815000Y-64365000D01*
G75*
G02*
X113965000Y-64515000I0J-150000D01*
G01*
X113965000Y-66165000D01*
G75*
G02*
X113815000Y-66315000I-150000J0D01*
G01*
X113515000Y-66315000D01*
G75*
G02*
X113365000Y-66165000I0J150000D01*
G01*
X113365000Y-64515000D01*
G75*
G02*
X113515000Y-64365000I150000J0D01*
G01*
G37*
G36*
G01*
X112245000Y-64365000D02*
X112545000Y-64365000D01*
G75*
G02*
X112695000Y-64515000I0J-150000D01*
G01*
X112695000Y-66165000D01*
G75*
G02*
X112545000Y-66315000I-150000J0D01*
G01*
X112245000Y-66315000D01*
G75*
G02*
X112095000Y-66165000I0J150000D01*
G01*
X112095000Y-64515000D01*
G75*
G02*
X112245000Y-64365000I150000J0D01*
G01*
G37*
G36*
G01*
X110975000Y-64365000D02*
X111275000Y-64365000D01*
G75*
G02*
X111425000Y-64515000I0J-150000D01*
G01*
X111425000Y-66165000D01*
G75*
G02*
X111275000Y-66315000I-150000J0D01*
G01*
X110975000Y-66315000D01*
G75*
G02*
X110825000Y-66165000I0J150000D01*
G01*
X110825000Y-64515000D01*
G75*
G02*
X110975000Y-64365000I150000J0D01*
G01*
G37*
G36*
G01*
X110975000Y-59415000D02*
X111275000Y-59415000D01*
G75*
G02*
X111425000Y-59565000I0J-150000D01*
G01*
X111425000Y-61215000D01*
G75*
G02*
X111275000Y-61365000I-150000J0D01*
G01*
X110975000Y-61365000D01*
G75*
G02*
X110825000Y-61215000I0J150000D01*
G01*
X110825000Y-59565000D01*
G75*
G02*
X110975000Y-59415000I150000J0D01*
G01*
G37*
G36*
G01*
X112245000Y-59415000D02*
X112545000Y-59415000D01*
G75*
G02*
X112695000Y-59565000I0J-150000D01*
G01*
X112695000Y-61215000D01*
G75*
G02*
X112545000Y-61365000I-150000J0D01*
G01*
X112245000Y-61365000D01*
G75*
G02*
X112095000Y-61215000I0J150000D01*
G01*
X112095000Y-59565000D01*
G75*
G02*
X112245000Y-59415000I150000J0D01*
G01*
G37*
G36*
G01*
X113515000Y-59415000D02*
X113815000Y-59415000D01*
G75*
G02*
X113965000Y-59565000I0J-150000D01*
G01*
X113965000Y-61215000D01*
G75*
G02*
X113815000Y-61365000I-150000J0D01*
G01*
X113515000Y-61365000D01*
G75*
G02*
X113365000Y-61215000I0J150000D01*
G01*
X113365000Y-59565000D01*
G75*
G02*
X113515000Y-59415000I150000J0D01*
G01*
G37*
G36*
G01*
X114785000Y-59415000D02*
X115085000Y-59415000D01*
G75*
G02*
X115235000Y-59565000I0J-150000D01*
G01*
X115235000Y-61215000D01*
G75*
G02*
X115085000Y-61365000I-150000J0D01*
G01*
X114785000Y-61365000D01*
G75*
G02*
X114635000Y-61215000I0J150000D01*
G01*
X114635000Y-59565000D01*
G75*
G02*
X114785000Y-59415000I150000J0D01*
G01*
G37*
G36*
G01*
X143060000Y-77019999D02*
X143060000Y-77920001D01*
G75*
G02*
X142810001Y-78170000I-249999J0D01*
G01*
X142159999Y-78170000D01*
G75*
G02*
X141910000Y-77920001I0J249999D01*
G01*
X141910000Y-77019999D01*
G75*
G02*
X142159999Y-76770000I249999J0D01*
G01*
X142810001Y-76770000D01*
G75*
G02*
X143060000Y-77019999I0J-249999D01*
G01*
G37*
G36*
G01*
X145110000Y-77019999D02*
X145110000Y-77920001D01*
G75*
G02*
X144860001Y-78170000I-249999J0D01*
G01*
X144209999Y-78170000D01*
G75*
G02*
X143960000Y-77920001I0J249999D01*
G01*
X143960000Y-77019999D01*
G75*
G02*
X144209999Y-76770000I249999J0D01*
G01*
X144860001Y-76770000D01*
G75*
G02*
X145110000Y-77019999I0J-249999D01*
G01*
G37*
G36*
G01*
X135195000Y-77019999D02*
X135195000Y-77920001D01*
G75*
G02*
X134945001Y-78170000I-249999J0D01*
G01*
X134294999Y-78170000D01*
G75*
G02*
X134045000Y-77920001I0J249999D01*
G01*
X134045000Y-77019999D01*
G75*
G02*
X134294999Y-76770000I249999J0D01*
G01*
X134945001Y-76770000D01*
G75*
G02*
X135195000Y-77019999I0J-249999D01*
G01*
G37*
G36*
G01*
X137245000Y-77019999D02*
X137245000Y-77920001D01*
G75*
G02*
X136995001Y-78170000I-249999J0D01*
G01*
X136344999Y-78170000D01*
G75*
G02*
X136095000Y-77920001I0J249999D01*
G01*
X136095000Y-77019999D01*
G75*
G02*
X136344999Y-76770000I249999J0D01*
G01*
X136995001Y-76770000D01*
G75*
G02*
X137245000Y-77019999I0J-249999D01*
G01*
G37*
G36*
G01*
X111185000Y-79825001D02*
X111185000Y-78924999D01*
G75*
G02*
X111434999Y-78675000I249999J0D01*
G01*
X112085001Y-78675000D01*
G75*
G02*
X112335000Y-78924999I0J-249999D01*
G01*
X112335000Y-79825001D01*
G75*
G02*
X112085001Y-80075000I-249999J0D01*
G01*
X111434999Y-80075000D01*
G75*
G02*
X111185000Y-79825001I0J249999D01*
G01*
G37*
G36*
G01*
X109135000Y-79825001D02*
X109135000Y-78924999D01*
G75*
G02*
X109384999Y-78675000I249999J0D01*
G01*
X110035001Y-78675000D01*
G75*
G02*
X110285000Y-78924999I0J-249999D01*
G01*
X110285000Y-79825001D01*
G75*
G02*
X110035001Y-80075000I-249999J0D01*
G01*
X109384999Y-80075000D01*
G75*
G02*
X109135000Y-79825001I0J249999D01*
G01*
G37*
G36*
G01*
X110285000Y-84004999D02*
X110285000Y-84905001D01*
G75*
G02*
X110035001Y-85155000I-249999J0D01*
G01*
X109384999Y-85155000D01*
G75*
G02*
X109135000Y-84905001I0J249999D01*
G01*
X109135000Y-84004999D01*
G75*
G02*
X109384999Y-83755000I249999J0D01*
G01*
X110035001Y-83755000D01*
G75*
G02*
X110285000Y-84004999I0J-249999D01*
G01*
G37*
G36*
G01*
X112335000Y-84004999D02*
X112335000Y-84905001D01*
G75*
G02*
X112085001Y-85155000I-249999J0D01*
G01*
X111434999Y-85155000D01*
G75*
G02*
X111185000Y-84905001I0J249999D01*
G01*
X111185000Y-84004999D01*
G75*
G02*
X111434999Y-83755000I249999J0D01*
G01*
X112085001Y-83755000D01*
G75*
G02*
X112335000Y-84004999I0J-249999D01*
G01*
G37*
G36*
G01*
X110285000Y-81464999D02*
X110285000Y-82365001D01*
G75*
G02*
X110035001Y-82615000I-249999J0D01*
G01*
X109384999Y-82615000D01*
G75*
G02*
X109135000Y-82365001I0J249999D01*
G01*
X109135000Y-81464999D01*
G75*
G02*
X109384999Y-81215000I249999J0D01*
G01*
X110035001Y-81215000D01*
G75*
G02*
X110285000Y-81464999I0J-249999D01*
G01*
G37*
G36*
G01*
X112335000Y-81464999D02*
X112335000Y-82365001D01*
G75*
G02*
X112085001Y-82615000I-249999J0D01*
G01*
X111434999Y-82615000D01*
G75*
G02*
X111185000Y-82365001I0J249999D01*
G01*
X111185000Y-81464999D01*
G75*
G02*
X111434999Y-81215000I249999J0D01*
G01*
X112085001Y-81215000D01*
G75*
G02*
X112335000Y-81464999I0J-249999D01*
G01*
G37*
G36*
G01*
X152830000Y-85909999D02*
X152830000Y-86810001D01*
G75*
G02*
X152580001Y-87060000I-249999J0D01*
G01*
X151929999Y-87060000D01*
G75*
G02*
X151680000Y-86810001I0J249999D01*
G01*
X151680000Y-85909999D01*
G75*
G02*
X151929999Y-85660000I249999J0D01*
G01*
X152580001Y-85660000D01*
G75*
G02*
X152830000Y-85909999I0J-249999D01*
G01*
G37*
G36*
G01*
X154880000Y-85909999D02*
X154880000Y-86810001D01*
G75*
G02*
X154630001Y-87060000I-249999J0D01*
G01*
X153979999Y-87060000D01*
G75*
G02*
X153730000Y-86810001I0J249999D01*
G01*
X153730000Y-85909999D01*
G75*
G02*
X153979999Y-85660000I249999J0D01*
G01*
X154630001Y-85660000D01*
G75*
G02*
X154880000Y-85909999I0J-249999D01*
G01*
G37*
G36*
G01*
X139515000Y-93160001D02*
X139515000Y-92259999D01*
G75*
G02*
X139764999Y-92010000I249999J0D01*
G01*
X140415001Y-92010000D01*
G75*
G02*
X140665000Y-92259999I0J-249999D01*
G01*
X140665000Y-93160001D01*
G75*
G02*
X140415001Y-93410000I-249999J0D01*
G01*
X139764999Y-93410000D01*
G75*
G02*
X139515000Y-93160001I0J249999D01*
G01*
G37*
G36*
G01*
X137465000Y-93160001D02*
X137465000Y-92259999D01*
G75*
G02*
X137714999Y-92010000I249999J0D01*
G01*
X138365001Y-92010000D01*
G75*
G02*
X138615000Y-92259999I0J-249999D01*
G01*
X138615000Y-93160001D01*
G75*
G02*
X138365001Y-93410000I-249999J0D01*
G01*
X137714999Y-93410000D01*
G75*
G02*
X137465000Y-93160001I0J249999D01*
G01*
G37*
G36*
G01*
X141175000Y-84905001D02*
X141175000Y-84004999D01*
G75*
G02*
X141424999Y-83755000I249999J0D01*
G01*
X142075001Y-83755000D01*
G75*
G02*
X142325000Y-84004999I0J-249999D01*
G01*
X142325000Y-84905001D01*
G75*
G02*
X142075001Y-85155000I-249999J0D01*
G01*
X141424999Y-85155000D01*
G75*
G02*
X141175000Y-84905001I0J249999D01*
G01*
G37*
G36*
G01*
X139125000Y-84905001D02*
X139125000Y-84004999D01*
G75*
G02*
X139374999Y-83755000I249999J0D01*
G01*
X140025001Y-83755000D01*
G75*
G02*
X140275000Y-84004999I0J-249999D01*
G01*
X140275000Y-84905001D01*
G75*
G02*
X140025001Y-85155000I-249999J0D01*
G01*
X139374999Y-85155000D01*
G75*
G02*
X139125000Y-84905001I0J249999D01*
G01*
G37*
G36*
G01*
X140275000Y-86544999D02*
X140275000Y-87445001D01*
G75*
G02*
X140025001Y-87695000I-249999J0D01*
G01*
X139374999Y-87695000D01*
G75*
G02*
X139125000Y-87445001I0J249999D01*
G01*
X139125000Y-86544999D01*
G75*
G02*
X139374999Y-86295000I249999J0D01*
G01*
X140025001Y-86295000D01*
G75*
G02*
X140275000Y-86544999I0J-249999D01*
G01*
G37*
G36*
G01*
X142325000Y-86544999D02*
X142325000Y-87445001D01*
G75*
G02*
X142075001Y-87695000I-249999J0D01*
G01*
X141424999Y-87695000D01*
G75*
G02*
X141175000Y-87445001I0J249999D01*
G01*
X141175000Y-86544999D01*
G75*
G02*
X141424999Y-86295000I249999J0D01*
G01*
X142075001Y-86295000D01*
G75*
G02*
X142325000Y-86544999I0J-249999D01*
G01*
G37*
G36*
G01*
X124275000Y-79825001D02*
X124275000Y-78924999D01*
G75*
G02*
X124524999Y-78675000I249999J0D01*
G01*
X125175001Y-78675000D01*
G75*
G02*
X125425000Y-78924999I0J-249999D01*
G01*
X125425000Y-79825001D01*
G75*
G02*
X125175001Y-80075000I-249999J0D01*
G01*
X124524999Y-80075000D01*
G75*
G02*
X124275000Y-79825001I0J249999D01*
G01*
G37*
G36*
G01*
X122225000Y-79825001D02*
X122225000Y-78924999D01*
G75*
G02*
X122474999Y-78675000I249999J0D01*
G01*
X123125001Y-78675000D01*
G75*
G02*
X123375000Y-78924999I0J-249999D01*
G01*
X123375000Y-79825001D01*
G75*
G02*
X123125001Y-80075000I-249999J0D01*
G01*
X122474999Y-80075000D01*
G75*
G02*
X122225000Y-79825001I0J249999D01*
G01*
G37*
G36*
G01*
X138615000Y-94799999D02*
X138615000Y-95700001D01*
G75*
G02*
X138365001Y-95950000I-249999J0D01*
G01*
X137714999Y-95950000D01*
G75*
G02*
X137465000Y-95700001I0J249999D01*
G01*
X137465000Y-94799999D01*
G75*
G02*
X137714999Y-94550000I249999J0D01*
G01*
X138365001Y-94550000D01*
G75*
G02*
X138615000Y-94799999I0J-249999D01*
G01*
G37*
G36*
G01*
X140665000Y-94799999D02*
X140665000Y-95700001D01*
G75*
G02*
X140415001Y-95950000I-249999J0D01*
G01*
X139764999Y-95950000D01*
G75*
G02*
X139515000Y-95700001I0J249999D01*
G01*
X139515000Y-94799999D01*
G75*
G02*
X139764999Y-94550000I249999J0D01*
G01*
X140415001Y-94550000D01*
G75*
G02*
X140665000Y-94799999I0J-249999D01*
G01*
G37*
G36*
G01*
X136585000Y-90620001D02*
X136585000Y-89719999D01*
G75*
G02*
X136834999Y-89470000I249999J0D01*
G01*
X137485001Y-89470000D01*
G75*
G02*
X137735000Y-89719999I0J-249999D01*
G01*
X137735000Y-90620001D01*
G75*
G02*
X137485001Y-90870000I-249999J0D01*
G01*
X136834999Y-90870000D01*
G75*
G02*
X136585000Y-90620001I0J249999D01*
G01*
G37*
G36*
G01*
X134535000Y-90620001D02*
X134535000Y-89719999D01*
G75*
G02*
X134784999Y-89470000I249999J0D01*
G01*
X135435001Y-89470000D01*
G75*
G02*
X135685000Y-89719999I0J-249999D01*
G01*
X135685000Y-90620001D01*
G75*
G02*
X135435001Y-90870000I-249999J0D01*
G01*
X134784999Y-90870000D01*
G75*
G02*
X134535000Y-90620001I0J249999D01*
G01*
G37*
G36*
G01*
X124275000Y-82365001D02*
X124275000Y-81464999D01*
G75*
G02*
X124524999Y-81215000I249999J0D01*
G01*
X125175001Y-81215000D01*
G75*
G02*
X125425000Y-81464999I0J-249999D01*
G01*
X125425000Y-82365001D01*
G75*
G02*
X125175001Y-82615000I-249999J0D01*
G01*
X124524999Y-82615000D01*
G75*
G02*
X124275000Y-82365001I0J249999D01*
G01*
G37*
G36*
G01*
X122225000Y-82365001D02*
X122225000Y-81464999D01*
G75*
G02*
X122474999Y-81215000I249999J0D01*
G01*
X123125001Y-81215000D01*
G75*
G02*
X123375000Y-81464999I0J-249999D01*
G01*
X123375000Y-82365001D01*
G75*
G02*
X123125001Y-82615000I-249999J0D01*
G01*
X122474999Y-82615000D01*
G75*
G02*
X122225000Y-82365001I0J249999D01*
G01*
G37*
G36*
G01*
X131650000Y-87445001D02*
X131650000Y-86544999D01*
G75*
G02*
X131899999Y-86295000I249999J0D01*
G01*
X132550001Y-86295000D01*
G75*
G02*
X132800000Y-86544999I0J-249999D01*
G01*
X132800000Y-87445001D01*
G75*
G02*
X132550001Y-87695000I-249999J0D01*
G01*
X131899999Y-87695000D01*
G75*
G02*
X131650000Y-87445001I0J249999D01*
G01*
G37*
G36*
G01*
X129600000Y-87445001D02*
X129600000Y-86544999D01*
G75*
G02*
X129849999Y-86295000I249999J0D01*
G01*
X130500001Y-86295000D01*
G75*
G02*
X130750000Y-86544999I0J-249999D01*
G01*
X130750000Y-87445001D01*
G75*
G02*
X130500001Y-87695000I-249999J0D01*
G01*
X129849999Y-87695000D01*
G75*
G02*
X129600000Y-87445001I0J249999D01*
G01*
G37*
G36*
G01*
X123375000Y-84004999D02*
X123375000Y-84905001D01*
G75*
G02*
X123125001Y-85155000I-249999J0D01*
G01*
X122474999Y-85155000D01*
G75*
G02*
X122225000Y-84905001I0J249999D01*
G01*
X122225000Y-84004999D01*
G75*
G02*
X122474999Y-83755000I249999J0D01*
G01*
X123125001Y-83755000D01*
G75*
G02*
X123375000Y-84004999I0J-249999D01*
G01*
G37*
G36*
G01*
X125425000Y-84004999D02*
X125425000Y-84905001D01*
G75*
G02*
X125175001Y-85155000I-249999J0D01*
G01*
X124524999Y-85155000D01*
G75*
G02*
X124275000Y-84905001I0J249999D01*
G01*
X124275000Y-84004999D01*
G75*
G02*
X124524999Y-83755000I249999J0D01*
G01*
X125175001Y-83755000D01*
G75*
G02*
X125425000Y-84004999I0J-249999D01*
G01*
G37*
G36*
G01*
X123375000Y-76384999D02*
X123375000Y-77285001D01*
G75*
G02*
X123125001Y-77535000I-249999J0D01*
G01*
X122474999Y-77535000D01*
G75*
G02*
X122225000Y-77285001I0J249999D01*
G01*
X122225000Y-76384999D01*
G75*
G02*
X122474999Y-76135000I249999J0D01*
G01*
X123125001Y-76135000D01*
G75*
G02*
X123375000Y-76384999I0J-249999D01*
G01*
G37*
G36*
G01*
X125425000Y-76384999D02*
X125425000Y-77285001D01*
G75*
G02*
X125175001Y-77535000I-249999J0D01*
G01*
X124524999Y-77535000D01*
G75*
G02*
X124275000Y-77285001I0J249999D01*
G01*
X124275000Y-76384999D01*
G75*
G02*
X124524999Y-76135000I249999J0D01*
G01*
X125175001Y-76135000D01*
G75*
G02*
X125425000Y-76384999I0J-249999D01*
G01*
G37*
G36*
G01*
X133535000Y-54794999D02*
X133535000Y-55695001D01*
G75*
G02*
X133285001Y-55945000I-249999J0D01*
G01*
X132634999Y-55945000D01*
G75*
G02*
X132385000Y-55695001I0J249999D01*
G01*
X132385000Y-54794999D01*
G75*
G02*
X132634999Y-54545000I249999J0D01*
G01*
X133285001Y-54545000D01*
G75*
G02*
X133535000Y-54794999I0J-249999D01*
G01*
G37*
G36*
G01*
X135585000Y-54794999D02*
X135585000Y-55695001D01*
G75*
G02*
X135335001Y-55945000I-249999J0D01*
G01*
X134684999Y-55945000D01*
G75*
G02*
X134435000Y-55695001I0J249999D01*
G01*
X134435000Y-54794999D01*
G75*
G02*
X134684999Y-54545000I249999J0D01*
G01*
X135335001Y-54545000D01*
G75*
G02*
X135585000Y-54794999I0J-249999D01*
G01*
G37*
G36*
G01*
X122740000Y-54794999D02*
X122740000Y-55695001D01*
G75*
G02*
X122490001Y-55945000I-249999J0D01*
G01*
X121839999Y-55945000D01*
G75*
G02*
X121590000Y-55695001I0J249999D01*
G01*
X121590000Y-54794999D01*
G75*
G02*
X121839999Y-54545000I249999J0D01*
G01*
X122490001Y-54545000D01*
G75*
G02*
X122740000Y-54794999I0J-249999D01*
G01*
G37*
G36*
G01*
X124790000Y-54794999D02*
X124790000Y-55695001D01*
G75*
G02*
X124540001Y-55945000I-249999J0D01*
G01*
X123889999Y-55945000D01*
G75*
G02*
X123640000Y-55695001I0J249999D01*
G01*
X123640000Y-54794999D01*
G75*
G02*
X123889999Y-54545000I249999J0D01*
G01*
X124540001Y-54545000D01*
G75*
G02*
X124790000Y-54794999I0J-249999D01*
G01*
G37*
G36*
G01*
X116389999Y-56575000D02*
X117290001Y-56575000D01*
G75*
G02*
X117540000Y-56824999I0J-249999D01*
G01*
X117540000Y-57475001D01*
G75*
G02*
X117290001Y-57725000I-249999J0D01*
G01*
X116389999Y-57725000D01*
G75*
G02*
X116140000Y-57475001I0J249999D01*
G01*
X116140000Y-56824999D01*
G75*
G02*
X116389999Y-56575000I249999J0D01*
G01*
G37*
G36*
G01*
X116389999Y-54525000D02*
X117290001Y-54525000D01*
G75*
G02*
X117540000Y-54774999I0J-249999D01*
G01*
X117540000Y-55425001D01*
G75*
G02*
X117290001Y-55675000I-249999J0D01*
G01*
X116389999Y-55675000D01*
G75*
G02*
X116140000Y-55425001I0J249999D01*
G01*
X116140000Y-54774999D01*
G75*
G02*
X116389999Y-54525000I249999J0D01*
G01*
G37*
G36*
G01*
X113849999Y-56575000D02*
X114750001Y-56575000D01*
G75*
G02*
X115000000Y-56824999I0J-249999D01*
G01*
X115000000Y-57475001D01*
G75*
G02*
X114750001Y-57725000I-249999J0D01*
G01*
X113849999Y-57725000D01*
G75*
G02*
X113600000Y-57475001I0J249999D01*
G01*
X113600000Y-56824999D01*
G75*
G02*
X113849999Y-56575000I249999J0D01*
G01*
G37*
G36*
G01*
X113849999Y-54525000D02*
X114750001Y-54525000D01*
G75*
G02*
X115000000Y-54774999I0J-249999D01*
G01*
X115000000Y-55425001D01*
G75*
G02*
X114750001Y-55675000I-249999J0D01*
G01*
X113849999Y-55675000D01*
G75*
G02*
X113600000Y-55425001I0J249999D01*
G01*
X113600000Y-54774999D01*
G75*
G02*
X113849999Y-54525000I249999J0D01*
G01*
G37*
G36*
G01*
X108769999Y-56575000D02*
X109670001Y-56575000D01*
G75*
G02*
X109920000Y-56824999I0J-249999D01*
G01*
X109920000Y-57475001D01*
G75*
G02*
X109670001Y-57725000I-249999J0D01*
G01*
X108769999Y-57725000D01*
G75*
G02*
X108520000Y-57475001I0J249999D01*
G01*
X108520000Y-56824999D01*
G75*
G02*
X108769999Y-56575000I249999J0D01*
G01*
G37*
G36*
G01*
X108769999Y-54525000D02*
X109670001Y-54525000D01*
G75*
G02*
X109920000Y-54774999I0J-249999D01*
G01*
X109920000Y-55425001D01*
G75*
G02*
X109670001Y-55675000I-249999J0D01*
G01*
X108769999Y-55675000D01*
G75*
G02*
X108520000Y-55425001I0J249999D01*
G01*
X108520000Y-54774999D01*
G75*
G02*
X108769999Y-54525000I249999J0D01*
G01*
G37*
G36*
G01*
X112210001Y-55675000D02*
X111309999Y-55675000D01*
G75*
G02*
X111060000Y-55425001I0J249999D01*
G01*
X111060000Y-54774999D01*
G75*
G02*
X111309999Y-54525000I249999J0D01*
G01*
X112210001Y-54525000D01*
G75*
G02*
X112460000Y-54774999I0J-249999D01*
G01*
X112460000Y-55425001D01*
G75*
G02*
X112210001Y-55675000I-249999J0D01*
G01*
G37*
G36*
G01*
X112210001Y-57725000D02*
X111309999Y-57725000D01*
G75*
G02*
X111060000Y-57475001I0J249999D01*
G01*
X111060000Y-56824999D01*
G75*
G02*
X111309999Y-56575000I249999J0D01*
G01*
X112210001Y-56575000D01*
G75*
G02*
X112460000Y-56824999I0J-249999D01*
G01*
X112460000Y-57475001D01*
G75*
G02*
X112210001Y-57725000I-249999J0D01*
G01*
G37*
G36*
G01*
X144595001Y-68765000D02*
X143694999Y-68765000D01*
G75*
G02*
X143445000Y-68515001I0J249999D01*
G01*
X143445000Y-67864999D01*
G75*
G02*
X143694999Y-67615000I249999J0D01*
G01*
X144595001Y-67615000D01*
G75*
G02*
X144845000Y-67864999I0J-249999D01*
G01*
X144845000Y-68515001D01*
G75*
G02*
X144595001Y-68765000I-249999J0D01*
G01*
G37*
G36*
G01*
X144595001Y-70815000D02*
X143694999Y-70815000D01*
G75*
G02*
X143445000Y-70565001I0J249999D01*
G01*
X143445000Y-69914999D01*
G75*
G02*
X143694999Y-69665000I249999J0D01*
G01*
X144595001Y-69665000D01*
G75*
G02*
X144845000Y-69914999I0J-249999D01*
G01*
X144845000Y-70565001D01*
G75*
G02*
X144595001Y-70815000I-249999J0D01*
G01*
G37*
G36*
G01*
X142055001Y-68765000D02*
X141154999Y-68765000D01*
G75*
G02*
X140905000Y-68515001I0J249999D01*
G01*
X140905000Y-67864999D01*
G75*
G02*
X141154999Y-67615000I249999J0D01*
G01*
X142055001Y-67615000D01*
G75*
G02*
X142305000Y-67864999I0J-249999D01*
G01*
X142305000Y-68515001D01*
G75*
G02*
X142055001Y-68765000I-249999J0D01*
G01*
G37*
G36*
G01*
X142055001Y-70815000D02*
X141154999Y-70815000D01*
G75*
G02*
X140905000Y-70565001I0J249999D01*
G01*
X140905000Y-69914999D01*
G75*
G02*
X141154999Y-69665000I249999J0D01*
G01*
X142055001Y-69665000D01*
G75*
G02*
X142305000Y-69914999I0J-249999D01*
G01*
X142305000Y-70565001D01*
G75*
G02*
X142055001Y-70815000I-249999J0D01*
G01*
G37*
D10*
X139700000Y-74930000D03*
X140650000Y-77930000D03*
X138750000Y-77930000D03*
D11*
X132255000Y-93345000D03*
X135255000Y-92395000D03*
X135255000Y-94295000D03*
D12*
X137340000Y-86045000D03*
X137340000Y-86995000D03*
X137340000Y-87945000D03*
X134440000Y-87945000D03*
X134440000Y-86995000D03*
X134440000Y-86045000D03*
D13*
X138050000Y-80645000D03*
X141350000Y-80645000D03*
X154430000Y-83820000D03*
X151130000Y-83820000D03*
G36*
G01*
X116020000Y-84905001D02*
X116020000Y-84004999D01*
G75*
G02*
X116269999Y-83755000I249999J0D01*
G01*
X116920001Y-83755000D01*
G75*
G02*
X117170000Y-84004999I0J-249999D01*
G01*
X117170000Y-84905001D01*
G75*
G02*
X116920001Y-85155000I-249999J0D01*
G01*
X116269999Y-85155000D01*
G75*
G02*
X116020000Y-84905001I0J249999D01*
G01*
G37*
G36*
G01*
X113970000Y-84905001D02*
X113970000Y-84004999D01*
G75*
G02*
X114219999Y-83755000I249999J0D01*
G01*
X114870001Y-83755000D01*
G75*
G02*
X115120000Y-84004999I0J-249999D01*
G01*
X115120000Y-84905001D01*
G75*
G02*
X114870001Y-85155000I-249999J0D01*
G01*
X114219999Y-85155000D01*
G75*
G02*
X113970000Y-84905001I0J249999D01*
G01*
G37*
G36*
G01*
X119830000Y-84905001D02*
X119830000Y-84004999D01*
G75*
G02*
X120079999Y-83755000I249999J0D01*
G01*
X120730001Y-83755000D01*
G75*
G02*
X120980000Y-84004999I0J-249999D01*
G01*
X120980000Y-84905001D01*
G75*
G02*
X120730001Y-85155000I-249999J0D01*
G01*
X120079999Y-85155000D01*
G75*
G02*
X119830000Y-84905001I0J249999D01*
G01*
G37*
G36*
G01*
X117780000Y-84905001D02*
X117780000Y-84004999D01*
G75*
G02*
X118029999Y-83755000I249999J0D01*
G01*
X118680001Y-83755000D01*
G75*
G02*
X118930000Y-84004999I0J-249999D01*
G01*
X118930000Y-84905001D01*
G75*
G02*
X118680001Y-85155000I-249999J0D01*
G01*
X118029999Y-85155000D01*
G75*
G02*
X117780000Y-84905001I0J249999D01*
G01*
G37*
G36*
G01*
X147504999Y-61410000D02*
X148405001Y-61410000D01*
G75*
G02*
X148655000Y-61659999I0J-249999D01*
G01*
X148655000Y-62310001D01*
G75*
G02*
X148405001Y-62560000I-249999J0D01*
G01*
X147504999Y-62560000D01*
G75*
G02*
X147255000Y-62310001I0J249999D01*
G01*
X147255000Y-61659999D01*
G75*
G02*
X147504999Y-61410000I249999J0D01*
G01*
G37*
G36*
G01*
X147504999Y-59360000D02*
X148405001Y-59360000D01*
G75*
G02*
X148655000Y-59609999I0J-249999D01*
G01*
X148655000Y-60260001D01*
G75*
G02*
X148405001Y-60510000I-249999J0D01*
G01*
X147504999Y-60510000D01*
G75*
G02*
X147255000Y-60260001I0J249999D01*
G01*
X147255000Y-59609999D01*
G75*
G02*
X147504999Y-59360000I249999J0D01*
G01*
G37*
G36*
G01*
X147504999Y-65220000D02*
X148405001Y-65220000D01*
G75*
G02*
X148655000Y-65469999I0J-249999D01*
G01*
X148655000Y-66120001D01*
G75*
G02*
X148405001Y-66370000I-249999J0D01*
G01*
X147504999Y-66370000D01*
G75*
G02*
X147255000Y-66120001I0J249999D01*
G01*
X147255000Y-65469999D01*
G75*
G02*
X147504999Y-65220000I249999J0D01*
G01*
G37*
G36*
G01*
X147504999Y-63170000D02*
X148405001Y-63170000D01*
G75*
G02*
X148655000Y-63419999I0J-249999D01*
G01*
X148655000Y-64070001D01*
G75*
G02*
X148405001Y-64320000I-249999J0D01*
G01*
X147504999Y-64320000D01*
G75*
G02*
X147255000Y-64070001I0J249999D01*
G01*
X147255000Y-63419999D01*
G75*
G02*
X147504999Y-63170000I249999J0D01*
G01*
G37*
G36*
G01*
X108134999Y-61410000D02*
X109035001Y-61410000D01*
G75*
G02*
X109285000Y-61659999I0J-249999D01*
G01*
X109285000Y-62310001D01*
G75*
G02*
X109035001Y-62560000I-249999J0D01*
G01*
X108134999Y-62560000D01*
G75*
G02*
X107885000Y-62310001I0J249999D01*
G01*
X107885000Y-61659999D01*
G75*
G02*
X108134999Y-61410000I249999J0D01*
G01*
G37*
G36*
G01*
X108134999Y-59360000D02*
X109035001Y-59360000D01*
G75*
G02*
X109285000Y-59609999I0J-249999D01*
G01*
X109285000Y-60260001D01*
G75*
G02*
X109035001Y-60510000I-249999J0D01*
G01*
X108134999Y-60510000D01*
G75*
G02*
X107885000Y-60260001I0J249999D01*
G01*
X107885000Y-59609999D01*
G75*
G02*
X108134999Y-59360000I249999J0D01*
G01*
G37*
G36*
G01*
X108134999Y-65220000D02*
X109035001Y-65220000D01*
G75*
G02*
X109285000Y-65469999I0J-249999D01*
G01*
X109285000Y-66120001D01*
G75*
G02*
X109035001Y-66370000I-249999J0D01*
G01*
X108134999Y-66370000D01*
G75*
G02*
X107885000Y-66120001I0J249999D01*
G01*
X107885000Y-65469999D01*
G75*
G02*
X108134999Y-65220000I249999J0D01*
G01*
G37*
G36*
G01*
X108134999Y-63170000D02*
X109035001Y-63170000D01*
G75*
G02*
X109285000Y-63419999I0J-249999D01*
G01*
X109285000Y-64070001D01*
G75*
G02*
X109035001Y-64320000I-249999J0D01*
G01*
X108134999Y-64320000D01*
G75*
G02*
X107885000Y-64070001I0J249999D01*
G01*
X107885000Y-63419999D01*
G75*
G02*
X108134999Y-63170000I249999J0D01*
G01*
G37*
G36*
G01*
X111185000Y-77285001D02*
X111185000Y-76384999D01*
G75*
G02*
X111434999Y-76135000I249999J0D01*
G01*
X112085001Y-76135000D01*
G75*
G02*
X112335000Y-76384999I0J-249999D01*
G01*
X112335000Y-77285001D01*
G75*
G02*
X112085001Y-77535000I-249999J0D01*
G01*
X111434999Y-77535000D01*
G75*
G02*
X111185000Y-77285001I0J249999D01*
G01*
G37*
G36*
G01*
X109135000Y-77285001D02*
X109135000Y-76384999D01*
G75*
G02*
X109384999Y-76135000I249999J0D01*
G01*
X110035001Y-76135000D01*
G75*
G02*
X110285000Y-76384999I0J-249999D01*
G01*
X110285000Y-77285001D01*
G75*
G02*
X110035001Y-77535000I-249999J0D01*
G01*
X109384999Y-77535000D01*
G75*
G02*
X109135000Y-77285001I0J249999D01*
G01*
G37*
M02*
