G04 #@! TF.GenerationSoftware,KiCad,Pcbnew,5.1.6-c6e7f7d~87~ubuntu18.04.1*
G04 #@! TF.CreationDate,2020-08-01T20:03:32-04:00*
G04 #@! TF.ProjectId,mutron_III_plug_in_board,6d757472-6f6e-45f4-9949-495f706c7567,rev?*
G04 #@! TF.SameCoordinates,Original*
G04 #@! TF.FileFunction,Copper,L2,Bot*
G04 #@! TF.FilePolarity,Positive*
%FSLAX46Y46*%
G04 Gerber Fmt 4.6, Leading zero omitted, Abs format (unit mm)*
G04 Created by KiCad (PCBNEW 5.1.6-c6e7f7d~87~ubuntu18.04.1) date 2020-08-01 20:03:32*
%MOMM*%
%LPD*%
G01*
G04 APERTURE LIST*
G04 #@! TA.AperFunction,ComponentPad*
%ADD10C,1.524000*%
G04 #@! TD*
G04 #@! TA.AperFunction,ComponentPad*
%ADD11C,1.150000*%
G04 #@! TD*
G04 #@! TA.AperFunction,ComponentPad*
%ADD12C,1.440000*%
G04 #@! TD*
G04 #@! TA.AperFunction,ComponentPad*
%ADD13O,1.700000X1.700000*%
G04 #@! TD*
G04 #@! TA.AperFunction,ComponentPad*
%ADD14R,1.700000X1.700000*%
G04 #@! TD*
G04 #@! TA.AperFunction,ComponentPad*
%ADD15C,1.600000*%
G04 #@! TD*
G04 #@! TA.AperFunction,ViaPad*
%ADD16C,1.000000*%
G04 #@! TD*
G04 #@! TA.AperFunction,ViaPad*
%ADD17C,0.800000*%
G04 #@! TD*
G04 #@! TA.AperFunction,Conductor*
%ADD18C,0.750000*%
G04 #@! TD*
G04 #@! TA.AperFunction,Conductor*
%ADD19C,1.000000*%
G04 #@! TD*
G04 #@! TA.AperFunction,Conductor*
%ADD20C,0.500000*%
G04 #@! TD*
G04 #@! TA.AperFunction,Conductor*
%ADD21C,0.400000*%
G04 #@! TD*
G04 #@! TA.AperFunction,Conductor*
%ADD22C,0.254000*%
G04 #@! TD*
G04 APERTURE END LIST*
D10*
X125730000Y-60960000D03*
X120777000Y-60960000D03*
X125222000Y-64770000D03*
X121158000Y-64770000D03*
D11*
X125085000Y-72390000D03*
X125725000Y-57390000D03*
X120645000Y-57390000D03*
G04 #@! TA.AperFunction,ComponentPad*
G36*
G01*
X121572500Y-72965000D02*
X120997500Y-72965000D01*
G75*
G02*
X120710000Y-72677500I0J287500D01*
G01*
X120710000Y-72102500D01*
G75*
G02*
X120997500Y-71815000I287500J0D01*
G01*
X121572500Y-71815000D01*
G75*
G02*
X121860000Y-72102500I0J-287500D01*
G01*
X121860000Y-72677500D01*
G75*
G02*
X121572500Y-72965000I-287500J0D01*
G01*
G37*
G04 #@! TD.AperFunction*
D10*
X136525000Y-60960000D03*
X131572000Y-60960000D03*
X136017000Y-64770000D03*
X131953000Y-64770000D03*
D11*
X135880000Y-72390000D03*
X136520000Y-57390000D03*
X131440000Y-57390000D03*
G04 #@! TA.AperFunction,ComponentPad*
G36*
G01*
X132367500Y-72965000D02*
X131792500Y-72965000D01*
G75*
G02*
X131505000Y-72677500I0J287500D01*
G01*
X131505000Y-72102500D01*
G75*
G02*
X131792500Y-71815000I287500J0D01*
G01*
X132367500Y-71815000D01*
G75*
G02*
X132655000Y-72102500I0J-287500D01*
G01*
X132655000Y-72677500D01*
G75*
G02*
X132367500Y-72965000I-287500J0D01*
G01*
G37*
G04 #@! TD.AperFunction*
D12*
X116840000Y-96520000D03*
X116840000Y-93980000D03*
X116840000Y-91440000D03*
X110490000Y-96520000D03*
X110490000Y-93980000D03*
X110490000Y-91440000D03*
X123190000Y-96520000D03*
X123190000Y-93980000D03*
X123190000Y-91440000D03*
D13*
X153670000Y-71120000D03*
X151130000Y-71120000D03*
X153670000Y-68580000D03*
X151130000Y-68580000D03*
X153670000Y-66040000D03*
D14*
X151130000Y-66040000D03*
D15*
X139780000Y-56515000D03*
X144780000Y-56515000D03*
X110570000Y-69215000D03*
X115570000Y-69215000D03*
D13*
X157480000Y-99060000D03*
X157480000Y-96520000D03*
X157480000Y-93980000D03*
X157480000Y-91440000D03*
X157480000Y-88900000D03*
X157480000Y-86360000D03*
X157480000Y-83820000D03*
D14*
X157480000Y-81280000D03*
D13*
X157480000Y-60960000D03*
X157480000Y-58420000D03*
X157480000Y-55880000D03*
D14*
X157480000Y-53340000D03*
D13*
X104140000Y-60960000D03*
X104140000Y-58420000D03*
X104140000Y-55880000D03*
D14*
X104140000Y-53340000D03*
D13*
X104140000Y-99060000D03*
X104140000Y-96520000D03*
X104140000Y-93980000D03*
D14*
X104140000Y-91440000D03*
D16*
X138557000Y-59055000D03*
X120142000Y-86360000D03*
X114427000Y-86360000D03*
X132207000Y-94869000D03*
X132207000Y-89662000D03*
X130175000Y-84709000D03*
X147955000Y-58039000D03*
X146050000Y-65786000D03*
X118364000Y-85852000D03*
X157480000Y-77597000D03*
X116078000Y-82169000D03*
D17*
X149860000Y-83947000D03*
X130683000Y-68414990D03*
X130810000Y-81661000D03*
X126619000Y-69850000D03*
X121412000Y-88138000D03*
X121530000Y-80645000D03*
X109982000Y-58293000D03*
X124018805Y-76295940D03*
X109982000Y-85852000D03*
D18*
X117487999Y-62297001D02*
X110570000Y-69215000D01*
X124392999Y-62297001D02*
X117487999Y-62297001D01*
X125730000Y-60960000D02*
X124392999Y-62297001D01*
X118364000Y-94996000D02*
X116840000Y-96520000D01*
X118364000Y-85852000D02*
X118364000Y-94996000D01*
X158905001Y-95094999D02*
X157480000Y-96520000D01*
X158905001Y-79022001D02*
X158905001Y-95094999D01*
X157480000Y-77597000D02*
X158905001Y-79022001D01*
D19*
X121158000Y-72263000D02*
X121285000Y-72390000D01*
X121158000Y-64770000D02*
X121158000Y-72263000D01*
D18*
X116078000Y-77597000D02*
X121285000Y-72390000D01*
X116078000Y-82169000D02*
X116078000Y-77597000D01*
X123190000Y-91440000D02*
X142367000Y-91440000D01*
X142367000Y-91440000D02*
X149860000Y-83947000D01*
X153670000Y-64770000D02*
X157480000Y-60960000D01*
X153670000Y-66040000D02*
X153670000Y-64770000D01*
D20*
X131572000Y-60960000D02*
X130683000Y-61849000D01*
X130683000Y-61849000D02*
X130683000Y-68414990D01*
D21*
X130683000Y-68414990D02*
X130683000Y-81534000D01*
X130683000Y-81534000D02*
X130810000Y-81661000D01*
D18*
X144780000Y-59690000D02*
X144780000Y-56515000D01*
X151130000Y-66040000D02*
X144780000Y-59690000D01*
D21*
X126892001Y-60402239D02*
X126892001Y-69576999D01*
X120777000Y-60960000D02*
X121939001Y-59797999D01*
X126892001Y-69576999D02*
X126619000Y-69850000D01*
X121939001Y-59797999D02*
X126287761Y-59797999D01*
X126287761Y-59797999D02*
X126892001Y-60402239D01*
X121412000Y-88138000D02*
X121412000Y-80763000D01*
X121412000Y-80763000D02*
X121530000Y-80645000D01*
D19*
X136017000Y-72253000D02*
X135880000Y-72390000D01*
X136017000Y-64770000D02*
X136017000Y-72253000D01*
D20*
X110381999Y-58692999D02*
X109982000Y-58293000D01*
X126102015Y-58692999D02*
X110381999Y-58692999D01*
X127596001Y-60186985D02*
X126102015Y-58692999D01*
X124018805Y-76295940D02*
X127596001Y-72718744D01*
X127596001Y-72718744D02*
X127596001Y-60186985D01*
D18*
X109982000Y-87122000D02*
X116840000Y-93980000D01*
X109982000Y-85852000D02*
X109982000Y-85852000D01*
X109982000Y-85852000D02*
X109982000Y-87122000D01*
D19*
X131953000Y-72263000D02*
X132080000Y-72390000D01*
X131953000Y-64770000D02*
X131953000Y-72263000D01*
D22*
G36*
X159360001Y-78048645D02*
G01*
X158567207Y-77255852D01*
X158485824Y-77059376D01*
X158361612Y-76873480D01*
X158203520Y-76715388D01*
X158017624Y-76591176D01*
X157811067Y-76505617D01*
X157591788Y-76462000D01*
X157368212Y-76462000D01*
X157148933Y-76505617D01*
X156942376Y-76591176D01*
X156756480Y-76715388D01*
X156598388Y-76873480D01*
X156474176Y-77059376D01*
X156388617Y-77265933D01*
X156345000Y-77485212D01*
X156345000Y-77708788D01*
X156388617Y-77928067D01*
X156474176Y-78134624D01*
X156598388Y-78320520D01*
X156756480Y-78478612D01*
X156942376Y-78602824D01*
X157138852Y-78684207D01*
X157895001Y-79440357D01*
X157895001Y-79794296D01*
X157765750Y-79795000D01*
X157607000Y-79953750D01*
X157607000Y-81153000D01*
X157627000Y-81153000D01*
X157627000Y-81407000D01*
X157607000Y-81407000D01*
X157607000Y-83693000D01*
X157627000Y-83693000D01*
X157627000Y-83947000D01*
X157607000Y-83947000D01*
X157607000Y-83967000D01*
X157353000Y-83967000D01*
X157353000Y-83947000D01*
X156159845Y-83947000D01*
X156038524Y-84176890D01*
X156083175Y-84324099D01*
X156208359Y-84586920D01*
X156382412Y-84820269D01*
X156598645Y-85015178D01*
X156715534Y-85084805D01*
X156533368Y-85206525D01*
X156326525Y-85413368D01*
X156164010Y-85656589D01*
X156052068Y-85926842D01*
X155995000Y-86213740D01*
X155995000Y-86506260D01*
X156052068Y-86793158D01*
X156164010Y-87063411D01*
X156326525Y-87306632D01*
X156533368Y-87513475D01*
X156707760Y-87630000D01*
X156533368Y-87746525D01*
X156326525Y-87953368D01*
X156164010Y-88196589D01*
X156052068Y-88466842D01*
X155995000Y-88753740D01*
X155995000Y-89046260D01*
X156052068Y-89333158D01*
X156164010Y-89603411D01*
X156326525Y-89846632D01*
X156533368Y-90053475D01*
X156707760Y-90170000D01*
X156533368Y-90286525D01*
X156326525Y-90493368D01*
X156164010Y-90736589D01*
X156052068Y-91006842D01*
X155995000Y-91293740D01*
X155995000Y-91586260D01*
X156052068Y-91873158D01*
X156164010Y-92143411D01*
X156326525Y-92386632D01*
X156533368Y-92593475D01*
X156707760Y-92710000D01*
X156533368Y-92826525D01*
X156326525Y-93033368D01*
X156164010Y-93276589D01*
X156052068Y-93546842D01*
X155995000Y-93833740D01*
X155995000Y-94126260D01*
X156052068Y-94413158D01*
X156164010Y-94683411D01*
X156326525Y-94926632D01*
X156533368Y-95133475D01*
X156707760Y-95250000D01*
X156533368Y-95366525D01*
X156326525Y-95573368D01*
X156164010Y-95816589D01*
X156052068Y-96086842D01*
X155995000Y-96373740D01*
X155995000Y-96666260D01*
X156052068Y-96953158D01*
X156164010Y-97223411D01*
X156326525Y-97466632D01*
X156533368Y-97673475D01*
X156707760Y-97790000D01*
X156533368Y-97906525D01*
X156326525Y-98113368D01*
X156164010Y-98356589D01*
X156052068Y-98626842D01*
X155995000Y-98913740D01*
X155995000Y-99206260D01*
X156052068Y-99493158D01*
X156164010Y-99763411D01*
X156326525Y-100006632D01*
X156533368Y-100213475D01*
X156776589Y-100375990D01*
X157046842Y-100487932D01*
X157333740Y-100545000D01*
X157626260Y-100545000D01*
X157913158Y-100487932D01*
X158183411Y-100375990D01*
X158426632Y-100213475D01*
X158633475Y-100006632D01*
X158795990Y-99763411D01*
X158907932Y-99493158D01*
X158965000Y-99206260D01*
X158965000Y-98913740D01*
X158907932Y-98626842D01*
X158795990Y-98356589D01*
X158633475Y-98113368D01*
X158426632Y-97906525D01*
X158252240Y-97790000D01*
X158426632Y-97673475D01*
X158633475Y-97466632D01*
X158795990Y-97223411D01*
X158907932Y-96953158D01*
X158965000Y-96666260D01*
X158965000Y-96463356D01*
X159360001Y-96068355D01*
X159360001Y-100940000D01*
X102260000Y-100940000D01*
X102260000Y-96373740D01*
X102655000Y-96373740D01*
X102655000Y-96666260D01*
X102712068Y-96953158D01*
X102824010Y-97223411D01*
X102986525Y-97466632D01*
X103193368Y-97673475D01*
X103367760Y-97790000D01*
X103193368Y-97906525D01*
X102986525Y-98113368D01*
X102824010Y-98356589D01*
X102712068Y-98626842D01*
X102655000Y-98913740D01*
X102655000Y-99206260D01*
X102712068Y-99493158D01*
X102824010Y-99763411D01*
X102986525Y-100006632D01*
X103193368Y-100213475D01*
X103436589Y-100375990D01*
X103706842Y-100487932D01*
X103993740Y-100545000D01*
X104286260Y-100545000D01*
X104573158Y-100487932D01*
X104843411Y-100375990D01*
X105086632Y-100213475D01*
X105293475Y-100006632D01*
X105455990Y-99763411D01*
X105567932Y-99493158D01*
X105625000Y-99206260D01*
X105625000Y-98913740D01*
X105567932Y-98626842D01*
X105455990Y-98356589D01*
X105293475Y-98113368D01*
X105086632Y-97906525D01*
X104912240Y-97790000D01*
X105086632Y-97673475D01*
X105293475Y-97466632D01*
X105455990Y-97223411D01*
X105567932Y-96953158D01*
X105625000Y-96666260D01*
X105625000Y-96373740D01*
X105567932Y-96086842D01*
X105455990Y-95816589D01*
X105293475Y-95573368D01*
X105086632Y-95366525D01*
X104904466Y-95244805D01*
X105021355Y-95175178D01*
X105237588Y-94980269D01*
X105411641Y-94746920D01*
X105536825Y-94484099D01*
X105581476Y-94336890D01*
X105460155Y-94107000D01*
X104267000Y-94107000D01*
X104267000Y-94127000D01*
X104013000Y-94127000D01*
X104013000Y-94107000D01*
X102819845Y-94107000D01*
X102698524Y-94336890D01*
X102743175Y-94484099D01*
X102868359Y-94746920D01*
X103042412Y-94980269D01*
X103258645Y-95175178D01*
X103375534Y-95244805D01*
X103193368Y-95366525D01*
X102986525Y-95573368D01*
X102824010Y-95816589D01*
X102712068Y-96086842D01*
X102655000Y-96373740D01*
X102260000Y-96373740D01*
X102260000Y-92290000D01*
X102651928Y-92290000D01*
X102664188Y-92414482D01*
X102700498Y-92534180D01*
X102759463Y-92644494D01*
X102838815Y-92741185D01*
X102935506Y-92820537D01*
X103045820Y-92879502D01*
X103126466Y-92903966D01*
X103042412Y-92979731D01*
X102868359Y-93213080D01*
X102743175Y-93475901D01*
X102698524Y-93623110D01*
X102819845Y-93853000D01*
X104013000Y-93853000D01*
X104013000Y-91567000D01*
X104267000Y-91567000D01*
X104267000Y-93853000D01*
X105460155Y-93853000D01*
X105463562Y-93846544D01*
X109135000Y-93846544D01*
X109135000Y-94113456D01*
X109187072Y-94375239D01*
X109289215Y-94621833D01*
X109437503Y-94843762D01*
X109626238Y-95032497D01*
X109848167Y-95180785D01*
X110015266Y-95250000D01*
X109848167Y-95319215D01*
X109626238Y-95467503D01*
X109437503Y-95656238D01*
X109289215Y-95878167D01*
X109187072Y-96124761D01*
X109135000Y-96386544D01*
X109135000Y-96653456D01*
X109187072Y-96915239D01*
X109289215Y-97161833D01*
X109437503Y-97383762D01*
X109626238Y-97572497D01*
X109848167Y-97720785D01*
X110094761Y-97822928D01*
X110356544Y-97875000D01*
X110623456Y-97875000D01*
X110885239Y-97822928D01*
X111131833Y-97720785D01*
X111353762Y-97572497D01*
X111542497Y-97383762D01*
X111690785Y-97161833D01*
X111792928Y-96915239D01*
X111845000Y-96653456D01*
X111845000Y-96386544D01*
X111792928Y-96124761D01*
X111690785Y-95878167D01*
X111542497Y-95656238D01*
X111353762Y-95467503D01*
X111131833Y-95319215D01*
X110964734Y-95250000D01*
X111131833Y-95180785D01*
X111353762Y-95032497D01*
X111542497Y-94843762D01*
X111690785Y-94621833D01*
X111792928Y-94375239D01*
X111845000Y-94113456D01*
X111845000Y-93846544D01*
X111792928Y-93584761D01*
X111690785Y-93338167D01*
X111542497Y-93116238D01*
X111353762Y-92927503D01*
X111131833Y-92779215D01*
X110963676Y-92709562D01*
X111078353Y-92667875D01*
X111184068Y-92611368D01*
X111245955Y-92375560D01*
X110490000Y-91619605D01*
X109734045Y-92375560D01*
X109795932Y-92611368D01*
X110011007Y-92711764D01*
X109848167Y-92779215D01*
X109626238Y-92927503D01*
X109437503Y-93116238D01*
X109289215Y-93338167D01*
X109187072Y-93584761D01*
X109135000Y-93846544D01*
X105463562Y-93846544D01*
X105581476Y-93623110D01*
X105536825Y-93475901D01*
X105411641Y-93213080D01*
X105237588Y-92979731D01*
X105153534Y-92903966D01*
X105234180Y-92879502D01*
X105344494Y-92820537D01*
X105441185Y-92741185D01*
X105520537Y-92644494D01*
X105579502Y-92534180D01*
X105615812Y-92414482D01*
X105628072Y-92290000D01*
X105625000Y-91725750D01*
X105466250Y-91567000D01*
X104267000Y-91567000D01*
X104013000Y-91567000D01*
X102813750Y-91567000D01*
X102655000Y-91725750D01*
X102651928Y-92290000D01*
X102260000Y-92290000D01*
X102260000Y-91513680D01*
X109130439Y-91513680D01*
X109170937Y-91777501D01*
X109262125Y-92028353D01*
X109318632Y-92134068D01*
X109554440Y-92195955D01*
X110310395Y-91440000D01*
X110669605Y-91440000D01*
X111425560Y-92195955D01*
X111661368Y-92134068D01*
X111774266Y-91892210D01*
X111837811Y-91632973D01*
X111849561Y-91366320D01*
X111809063Y-91102499D01*
X111717875Y-90851647D01*
X111661368Y-90745932D01*
X111425560Y-90684045D01*
X110669605Y-91440000D01*
X110310395Y-91440000D01*
X109554440Y-90684045D01*
X109318632Y-90745932D01*
X109205734Y-90987790D01*
X109142189Y-91247027D01*
X109130439Y-91513680D01*
X102260000Y-91513680D01*
X102260000Y-90590000D01*
X102651928Y-90590000D01*
X102655000Y-91154250D01*
X102813750Y-91313000D01*
X104013000Y-91313000D01*
X104013000Y-90113750D01*
X104267000Y-90113750D01*
X104267000Y-91313000D01*
X105466250Y-91313000D01*
X105625000Y-91154250D01*
X105628072Y-90590000D01*
X105619646Y-90504440D01*
X109734045Y-90504440D01*
X110490000Y-91260395D01*
X111245955Y-90504440D01*
X111184068Y-90268632D01*
X110942210Y-90155734D01*
X110682973Y-90092189D01*
X110416320Y-90080439D01*
X110152499Y-90120937D01*
X109901647Y-90212125D01*
X109795932Y-90268632D01*
X109734045Y-90504440D01*
X105619646Y-90504440D01*
X105615812Y-90465518D01*
X105579502Y-90345820D01*
X105520537Y-90235506D01*
X105441185Y-90138815D01*
X105344494Y-90059463D01*
X105234180Y-90000498D01*
X105114482Y-89964188D01*
X104990000Y-89951928D01*
X104425750Y-89955000D01*
X104267000Y-90113750D01*
X104013000Y-90113750D01*
X103854250Y-89955000D01*
X103290000Y-89951928D01*
X103165518Y-89964188D01*
X103045820Y-90000498D01*
X102935506Y-90059463D01*
X102838815Y-90138815D01*
X102759463Y-90235506D01*
X102700498Y-90345820D01*
X102664188Y-90465518D01*
X102651928Y-90590000D01*
X102260000Y-90590000D01*
X102260000Y-85750061D01*
X108947000Y-85750061D01*
X108947000Y-85953939D01*
X108972000Y-86079625D01*
X108972001Y-87072383D01*
X108967114Y-87122000D01*
X108986615Y-87319994D01*
X109044368Y-87510379D01*
X109044369Y-87510380D01*
X109138154Y-87685840D01*
X109264368Y-87839633D01*
X109302901Y-87871256D01*
X115485000Y-94053356D01*
X115485000Y-94113456D01*
X115537072Y-94375239D01*
X115639215Y-94621833D01*
X115787503Y-94843762D01*
X115976238Y-95032497D01*
X116198167Y-95180785D01*
X116365266Y-95250000D01*
X116198167Y-95319215D01*
X115976238Y-95467503D01*
X115787503Y-95656238D01*
X115639215Y-95878167D01*
X115537072Y-96124761D01*
X115485000Y-96386544D01*
X115485000Y-96653456D01*
X115537072Y-96915239D01*
X115639215Y-97161833D01*
X115787503Y-97383762D01*
X115976238Y-97572497D01*
X116198167Y-97720785D01*
X116444761Y-97822928D01*
X116706544Y-97875000D01*
X116973456Y-97875000D01*
X117235239Y-97822928D01*
X117481833Y-97720785D01*
X117703762Y-97572497D01*
X117892497Y-97383762D01*
X118040785Y-97161833D01*
X118142928Y-96915239D01*
X118195000Y-96653456D01*
X118195000Y-96593355D01*
X119043099Y-95745256D01*
X119081633Y-95713633D01*
X119207847Y-95559840D01*
X119301632Y-95384380D01*
X119359385Y-95193994D01*
X119374000Y-95045608D01*
X119374000Y-95045599D01*
X119378885Y-94996001D01*
X119374000Y-94946403D01*
X119374000Y-91306544D01*
X121835000Y-91306544D01*
X121835000Y-91573456D01*
X121887072Y-91835239D01*
X121989215Y-92081833D01*
X122137503Y-92303762D01*
X122326238Y-92492497D01*
X122548167Y-92640785D01*
X122715266Y-92710000D01*
X122548167Y-92779215D01*
X122326238Y-92927503D01*
X122137503Y-93116238D01*
X121989215Y-93338167D01*
X121887072Y-93584761D01*
X121835000Y-93846544D01*
X121835000Y-94113456D01*
X121887072Y-94375239D01*
X121989215Y-94621833D01*
X122137503Y-94843762D01*
X122326238Y-95032497D01*
X122548167Y-95180785D01*
X122715266Y-95250000D01*
X122548167Y-95319215D01*
X122326238Y-95467503D01*
X122137503Y-95656238D01*
X121989215Y-95878167D01*
X121887072Y-96124761D01*
X121835000Y-96386544D01*
X121835000Y-96653456D01*
X121887072Y-96915239D01*
X121989215Y-97161833D01*
X122137503Y-97383762D01*
X122326238Y-97572497D01*
X122548167Y-97720785D01*
X122794761Y-97822928D01*
X123056544Y-97875000D01*
X123323456Y-97875000D01*
X123585239Y-97822928D01*
X123831833Y-97720785D01*
X124053762Y-97572497D01*
X124242497Y-97383762D01*
X124390785Y-97161833D01*
X124492928Y-96915239D01*
X124545000Y-96653456D01*
X124545000Y-96386544D01*
X124492928Y-96124761D01*
X124390785Y-95878167D01*
X124242497Y-95656238D01*
X124053762Y-95467503D01*
X123831833Y-95319215D01*
X123664734Y-95250000D01*
X123831833Y-95180785D01*
X124053762Y-95032497D01*
X124242497Y-94843762D01*
X124390785Y-94621833D01*
X124492928Y-94375239D01*
X124545000Y-94113456D01*
X124545000Y-93846544D01*
X124492928Y-93584761D01*
X124390785Y-93338167D01*
X124242497Y-93116238D01*
X124053762Y-92927503D01*
X123831833Y-92779215D01*
X123664734Y-92710000D01*
X123831833Y-92640785D01*
X124053762Y-92492497D01*
X124096259Y-92450000D01*
X142317392Y-92450000D01*
X142367000Y-92454886D01*
X142564994Y-92435385D01*
X142633902Y-92414482D01*
X142755380Y-92377632D01*
X142930840Y-92283847D01*
X143084633Y-92157633D01*
X143116261Y-92119094D01*
X150413223Y-84822132D01*
X150519774Y-84750937D01*
X150663937Y-84606774D01*
X150777205Y-84437256D01*
X150855226Y-84248898D01*
X150895000Y-84048939D01*
X150895000Y-83845061D01*
X150855226Y-83645102D01*
X150777205Y-83456744D01*
X150663937Y-83287226D01*
X150519774Y-83143063D01*
X150350256Y-83029795D01*
X150161898Y-82951774D01*
X149961939Y-82912000D01*
X149758061Y-82912000D01*
X149558102Y-82951774D01*
X149369744Y-83029795D01*
X149200226Y-83143063D01*
X149056063Y-83287226D01*
X148984868Y-83393777D01*
X141948645Y-90430000D01*
X124096259Y-90430000D01*
X124053762Y-90387503D01*
X123831833Y-90239215D01*
X123585239Y-90137072D01*
X123323456Y-90085000D01*
X123056544Y-90085000D01*
X122794761Y-90137072D01*
X122548167Y-90239215D01*
X122326238Y-90387503D01*
X122137503Y-90576238D01*
X121989215Y-90798167D01*
X121887072Y-91044761D01*
X121835000Y-91306544D01*
X119374000Y-91306544D01*
X119374000Y-88036061D01*
X120377000Y-88036061D01*
X120377000Y-88239939D01*
X120416774Y-88439898D01*
X120494795Y-88628256D01*
X120608063Y-88797774D01*
X120752226Y-88941937D01*
X120921744Y-89055205D01*
X121110102Y-89133226D01*
X121310061Y-89173000D01*
X121513939Y-89173000D01*
X121713898Y-89133226D01*
X121902256Y-89055205D01*
X122071774Y-88941937D01*
X122215937Y-88797774D01*
X122329205Y-88628256D01*
X122407226Y-88439898D01*
X122447000Y-88239939D01*
X122447000Y-88036061D01*
X122407226Y-87836102D01*
X122329205Y-87647744D01*
X122247000Y-87524715D01*
X122247000Y-81391711D01*
X122333937Y-81304774D01*
X122447205Y-81135256D01*
X122525226Y-80946898D01*
X122565000Y-80746939D01*
X122565000Y-80543061D01*
X122525226Y-80343102D01*
X122447205Y-80154744D01*
X122333937Y-79985226D01*
X122189774Y-79841063D01*
X122020256Y-79727795D01*
X121831898Y-79649774D01*
X121631939Y-79610000D01*
X121428061Y-79610000D01*
X121228102Y-79649774D01*
X121039744Y-79727795D01*
X120870226Y-79841063D01*
X120726063Y-79985226D01*
X120612795Y-80154744D01*
X120534774Y-80343102D01*
X120495000Y-80543061D01*
X120495000Y-80746939D01*
X120534774Y-80946898D01*
X120577001Y-81048842D01*
X120577000Y-87524715D01*
X120494795Y-87647744D01*
X120416774Y-87836102D01*
X120377000Y-88036061D01*
X119374000Y-88036061D01*
X119374000Y-86379542D01*
X119455383Y-86183067D01*
X119499000Y-85963788D01*
X119499000Y-85740212D01*
X119455383Y-85520933D01*
X119369824Y-85314376D01*
X119245612Y-85128480D01*
X119087520Y-84970388D01*
X118901624Y-84846176D01*
X118695067Y-84760617D01*
X118475788Y-84717000D01*
X118252212Y-84717000D01*
X118032933Y-84760617D01*
X117826376Y-84846176D01*
X117640480Y-84970388D01*
X117482388Y-85128480D01*
X117358176Y-85314376D01*
X117272617Y-85520933D01*
X117229000Y-85740212D01*
X117229000Y-85963788D01*
X117272617Y-86183067D01*
X117354000Y-86379542D01*
X117354000Y-90186265D01*
X117235239Y-90137072D01*
X116973456Y-90085000D01*
X116706544Y-90085000D01*
X116444761Y-90137072D01*
X116198167Y-90239215D01*
X115976238Y-90387503D01*
X115787503Y-90576238D01*
X115639215Y-90798167D01*
X115537072Y-91044761D01*
X115503234Y-91214878D01*
X110992000Y-86703645D01*
X110992000Y-86079623D01*
X111017000Y-85953939D01*
X111017000Y-85750061D01*
X110977226Y-85550102D01*
X110899205Y-85361744D01*
X110785937Y-85192226D01*
X110641774Y-85048063D01*
X110472256Y-84934795D01*
X110283898Y-84856774D01*
X110083939Y-84817000D01*
X109880061Y-84817000D01*
X109680102Y-84856774D01*
X109491744Y-84934795D01*
X109322226Y-85048063D01*
X109178063Y-85192226D01*
X109064795Y-85361744D01*
X108986774Y-85550102D01*
X108947000Y-85750061D01*
X102260000Y-85750061D01*
X102260000Y-82057212D01*
X114943000Y-82057212D01*
X114943000Y-82280788D01*
X114986617Y-82500067D01*
X115072176Y-82706624D01*
X115196388Y-82892520D01*
X115354480Y-83050612D01*
X115540376Y-83174824D01*
X115746933Y-83260383D01*
X115966212Y-83304000D01*
X116189788Y-83304000D01*
X116409067Y-83260383D01*
X116615624Y-83174824D01*
X116801520Y-83050612D01*
X116959612Y-82892520D01*
X117083824Y-82706624D01*
X117169383Y-82500067D01*
X117213000Y-82280788D01*
X117213000Y-82057212D01*
X117169383Y-81837933D01*
X117088000Y-81641458D01*
X117088000Y-78015355D01*
X121500283Y-73603072D01*
X121572500Y-73603072D01*
X121753070Y-73585287D01*
X121926701Y-73532617D01*
X122086720Y-73447085D01*
X122226978Y-73331978D01*
X122342085Y-73191720D01*
X122427617Y-73031701D01*
X122480287Y-72858070D01*
X122498072Y-72677500D01*
X122498072Y-72102500D01*
X122480287Y-71921930D01*
X122427617Y-71748299D01*
X122342085Y-71588280D01*
X122293000Y-71528470D01*
X122293000Y-65585884D01*
X122396005Y-65431727D01*
X122501314Y-65177490D01*
X122555000Y-64907592D01*
X122555000Y-64632408D01*
X122501314Y-64362510D01*
X122396005Y-64108273D01*
X122243120Y-63879465D01*
X122048535Y-63684880D01*
X121819727Y-63531995D01*
X121565490Y-63426686D01*
X121295592Y-63373000D01*
X121020408Y-63373000D01*
X120750510Y-63426686D01*
X120496273Y-63531995D01*
X120267465Y-63684880D01*
X120072880Y-63879465D01*
X119919995Y-64108273D01*
X119814686Y-64362510D01*
X119761000Y-64632408D01*
X119761000Y-64907592D01*
X119814686Y-65177490D01*
X119919995Y-65431727D01*
X120023000Y-65585885D01*
X120023001Y-72207239D01*
X120021209Y-72225436D01*
X115398901Y-76847744D01*
X115360368Y-76879367D01*
X115328745Y-76917900D01*
X115328744Y-76917901D01*
X115234154Y-77033160D01*
X115140368Y-77208621D01*
X115082615Y-77399006D01*
X115063114Y-77597000D01*
X115068001Y-77646618D01*
X115068000Y-81641457D01*
X114986617Y-81837933D01*
X114943000Y-82057212D01*
X102260000Y-82057212D01*
X102260000Y-58273740D01*
X102655000Y-58273740D01*
X102655000Y-58566260D01*
X102712068Y-58853158D01*
X102824010Y-59123411D01*
X102986525Y-59366632D01*
X103193368Y-59573475D01*
X103367760Y-59690000D01*
X103193368Y-59806525D01*
X102986525Y-60013368D01*
X102824010Y-60256589D01*
X102712068Y-60526842D01*
X102655000Y-60813740D01*
X102655000Y-61106260D01*
X102712068Y-61393158D01*
X102824010Y-61663411D01*
X102986525Y-61906632D01*
X103193368Y-62113475D01*
X103436589Y-62275990D01*
X103706842Y-62387932D01*
X103993740Y-62445000D01*
X104286260Y-62445000D01*
X104573158Y-62387932D01*
X104843411Y-62275990D01*
X105086632Y-62113475D01*
X105293475Y-61906632D01*
X105455990Y-61663411D01*
X105567932Y-61393158D01*
X105625000Y-61106260D01*
X105625000Y-60813740D01*
X105567932Y-60526842D01*
X105455990Y-60256589D01*
X105293475Y-60013368D01*
X105086632Y-59806525D01*
X104912240Y-59690000D01*
X105086632Y-59573475D01*
X105293475Y-59366632D01*
X105455990Y-59123411D01*
X105567932Y-58853158D01*
X105625000Y-58566260D01*
X105625000Y-58273740D01*
X105608554Y-58191061D01*
X108947000Y-58191061D01*
X108947000Y-58394939D01*
X108986774Y-58594898D01*
X109064795Y-58783256D01*
X109178063Y-58952774D01*
X109322226Y-59096937D01*
X109491744Y-59210205D01*
X109680102Y-59288226D01*
X109734494Y-59299045D01*
X109753182Y-59321816D01*
X109887940Y-59432410D01*
X110041686Y-59514588D01*
X110208509Y-59565194D01*
X110338522Y-59577999D01*
X110338532Y-59577999D01*
X110381998Y-59582280D01*
X110425465Y-59577999D01*
X120564003Y-59577999D01*
X120369510Y-59616686D01*
X120115273Y-59721995D01*
X119886465Y-59874880D01*
X119691880Y-60069465D01*
X119538995Y-60298273D01*
X119433686Y-60552510D01*
X119380000Y-60822408D01*
X119380000Y-61097592D01*
X119417676Y-61287001D01*
X117537606Y-61287001D01*
X117487998Y-61282115D01*
X117290004Y-61301616D01*
X117135845Y-61348380D01*
X117099619Y-61359369D01*
X116924159Y-61453154D01*
X116770366Y-61579368D01*
X116738738Y-61617907D01*
X110576645Y-67780000D01*
X110428665Y-67780000D01*
X110151426Y-67835147D01*
X109890273Y-67943320D01*
X109655241Y-68100363D01*
X109455363Y-68300241D01*
X109298320Y-68535273D01*
X109190147Y-68796426D01*
X109135000Y-69073665D01*
X109135000Y-69356335D01*
X109190147Y-69633574D01*
X109298320Y-69894727D01*
X109455363Y-70129759D01*
X109655241Y-70329637D01*
X109890273Y-70486680D01*
X110151426Y-70594853D01*
X110428665Y-70650000D01*
X110711335Y-70650000D01*
X110988574Y-70594853D01*
X111249727Y-70486680D01*
X111484759Y-70329637D01*
X111684637Y-70129759D01*
X111841680Y-69894727D01*
X111949853Y-69633574D01*
X112005000Y-69356335D01*
X112005000Y-69208355D01*
X112139690Y-69073665D01*
X114135000Y-69073665D01*
X114135000Y-69356335D01*
X114190147Y-69633574D01*
X114298320Y-69894727D01*
X114455363Y-70129759D01*
X114655241Y-70329637D01*
X114890273Y-70486680D01*
X115151426Y-70594853D01*
X115428665Y-70650000D01*
X115711335Y-70650000D01*
X115988574Y-70594853D01*
X116249727Y-70486680D01*
X116484759Y-70329637D01*
X116684637Y-70129759D01*
X116841680Y-69894727D01*
X116949853Y-69633574D01*
X117005000Y-69356335D01*
X117005000Y-69073665D01*
X116949853Y-68796426D01*
X116841680Y-68535273D01*
X116684637Y-68300241D01*
X116484759Y-68100363D01*
X116249727Y-67943320D01*
X115988574Y-67835147D01*
X115711335Y-67780000D01*
X115428665Y-67780000D01*
X115151426Y-67835147D01*
X114890273Y-67943320D01*
X114655241Y-68100363D01*
X114455363Y-68300241D01*
X114298320Y-68535273D01*
X114190147Y-68796426D01*
X114135000Y-69073665D01*
X112139690Y-69073665D01*
X117906354Y-63307001D01*
X124343391Y-63307001D01*
X124392999Y-63311887D01*
X124590993Y-63292386D01*
X124781379Y-63234633D01*
X124956839Y-63140848D01*
X125110632Y-63014634D01*
X125142260Y-62976095D01*
X125761355Y-62357000D01*
X125867592Y-62357000D01*
X126057001Y-62319324D01*
X126057001Y-63647774D01*
X125883727Y-63531995D01*
X125629490Y-63426686D01*
X125359592Y-63373000D01*
X125084408Y-63373000D01*
X124814510Y-63426686D01*
X124560273Y-63531995D01*
X124331465Y-63684880D01*
X124136880Y-63879465D01*
X123983995Y-64108273D01*
X123878686Y-64362510D01*
X123825000Y-64632408D01*
X123825000Y-64907592D01*
X123878686Y-65177490D01*
X123983995Y-65431727D01*
X124136880Y-65660535D01*
X124331465Y-65855120D01*
X124560273Y-66008005D01*
X124814510Y-66113314D01*
X125084408Y-66167000D01*
X125359592Y-66167000D01*
X125629490Y-66113314D01*
X125883727Y-66008005D01*
X126057002Y-65892226D01*
X126057002Y-68980731D01*
X125959226Y-69046063D01*
X125815063Y-69190226D01*
X125701795Y-69359744D01*
X125623774Y-69548102D01*
X125584000Y-69748061D01*
X125584000Y-69951939D01*
X125623774Y-70151898D01*
X125701795Y-70340256D01*
X125815063Y-70509774D01*
X125959226Y-70653937D01*
X126128744Y-70767205D01*
X126317102Y-70845226D01*
X126517061Y-70885000D01*
X126711001Y-70885000D01*
X126711001Y-72352165D01*
X126197786Y-72865380D01*
X126248501Y-72742944D01*
X126295000Y-72509175D01*
X126295000Y-72270825D01*
X126248501Y-72037056D01*
X126157288Y-71816850D01*
X126024869Y-71618670D01*
X125856330Y-71450131D01*
X125658150Y-71317712D01*
X125437944Y-71226499D01*
X125204175Y-71180000D01*
X124965825Y-71180000D01*
X124732056Y-71226499D01*
X124511850Y-71317712D01*
X124313670Y-71450131D01*
X124145131Y-71618670D01*
X124012712Y-71816850D01*
X123921499Y-72037056D01*
X123875000Y-72270825D01*
X123875000Y-72509175D01*
X123921499Y-72742944D01*
X124012712Y-72963150D01*
X124145131Y-73161330D01*
X124313670Y-73329869D01*
X124511850Y-73462288D01*
X124732056Y-73553501D01*
X124965825Y-73600000D01*
X125204175Y-73600000D01*
X125437944Y-73553501D01*
X125560381Y-73502786D01*
X123773762Y-75289405D01*
X123716907Y-75300714D01*
X123528549Y-75378735D01*
X123359031Y-75492003D01*
X123214868Y-75636166D01*
X123101600Y-75805684D01*
X123023579Y-75994042D01*
X122983805Y-76194001D01*
X122983805Y-76397879D01*
X123023579Y-76597838D01*
X123101600Y-76786196D01*
X123214868Y-76955714D01*
X123359031Y-77099877D01*
X123528549Y-77213145D01*
X123716907Y-77291166D01*
X123916866Y-77330940D01*
X124120744Y-77330940D01*
X124320703Y-77291166D01*
X124509061Y-77213145D01*
X124678579Y-77099877D01*
X124822742Y-76955714D01*
X124936010Y-76786196D01*
X125014031Y-76597838D01*
X125025340Y-76540983D01*
X128191051Y-73375273D01*
X128224818Y-73347561D01*
X128335412Y-73212803D01*
X128417590Y-73059057D01*
X128468196Y-72892234D01*
X128481001Y-72762221D01*
X128481001Y-72762211D01*
X128485282Y-72718745D01*
X128481001Y-72675279D01*
X128481001Y-68313051D01*
X129648000Y-68313051D01*
X129648000Y-68516929D01*
X129687774Y-68716888D01*
X129765795Y-68905246D01*
X129848000Y-69028275D01*
X129848001Y-81278886D01*
X129814774Y-81359102D01*
X129775000Y-81559061D01*
X129775000Y-81762939D01*
X129814774Y-81962898D01*
X129892795Y-82151256D01*
X130006063Y-82320774D01*
X130150226Y-82464937D01*
X130319744Y-82578205D01*
X130508102Y-82656226D01*
X130708061Y-82696000D01*
X130911939Y-82696000D01*
X131111898Y-82656226D01*
X131300256Y-82578205D01*
X131469774Y-82464937D01*
X131613937Y-82320774D01*
X131727205Y-82151256D01*
X131736009Y-82130000D01*
X155991928Y-82130000D01*
X156004188Y-82254482D01*
X156040498Y-82374180D01*
X156099463Y-82484494D01*
X156178815Y-82581185D01*
X156275506Y-82660537D01*
X156385820Y-82719502D01*
X156466466Y-82743966D01*
X156382412Y-82819731D01*
X156208359Y-83053080D01*
X156083175Y-83315901D01*
X156038524Y-83463110D01*
X156159845Y-83693000D01*
X157353000Y-83693000D01*
X157353000Y-81407000D01*
X156153750Y-81407000D01*
X155995000Y-81565750D01*
X155991928Y-82130000D01*
X131736009Y-82130000D01*
X131805226Y-81962898D01*
X131845000Y-81762939D01*
X131845000Y-81559061D01*
X131805226Y-81359102D01*
X131727205Y-81170744D01*
X131613937Y-81001226D01*
X131518000Y-80905289D01*
X131518000Y-80430000D01*
X155991928Y-80430000D01*
X155995000Y-80994250D01*
X156153750Y-81153000D01*
X157353000Y-81153000D01*
X157353000Y-79953750D01*
X157194250Y-79795000D01*
X156630000Y-79791928D01*
X156505518Y-79804188D01*
X156385820Y-79840498D01*
X156275506Y-79899463D01*
X156178815Y-79978815D01*
X156099463Y-80075506D01*
X156040498Y-80185820D01*
X156004188Y-80305518D01*
X155991928Y-80430000D01*
X131518000Y-80430000D01*
X131518000Y-73556794D01*
X131611930Y-73585287D01*
X131792500Y-73603072D01*
X132367500Y-73603072D01*
X132548070Y-73585287D01*
X132721701Y-73532617D01*
X132881720Y-73447085D01*
X133021978Y-73331978D01*
X133137085Y-73191720D01*
X133222617Y-73031701D01*
X133275287Y-72858070D01*
X133293072Y-72677500D01*
X133293072Y-72102500D01*
X133275287Y-71921930D01*
X133222617Y-71748299D01*
X133137085Y-71588280D01*
X133088000Y-71528470D01*
X133088000Y-65585884D01*
X133191005Y-65431727D01*
X133296314Y-65177490D01*
X133350000Y-64907592D01*
X133350000Y-64632408D01*
X134620000Y-64632408D01*
X134620000Y-64907592D01*
X134673686Y-65177490D01*
X134778995Y-65431727D01*
X134882000Y-65585885D01*
X134882001Y-71705668D01*
X134807712Y-71816850D01*
X134716499Y-72037056D01*
X134670000Y-72270825D01*
X134670000Y-72509175D01*
X134716499Y-72742944D01*
X134807712Y-72963150D01*
X134940131Y-73161330D01*
X135108670Y-73329869D01*
X135306850Y-73462288D01*
X135527056Y-73553501D01*
X135760825Y-73600000D01*
X135999175Y-73600000D01*
X136232944Y-73553501D01*
X136453150Y-73462288D01*
X136651330Y-73329869D01*
X136819869Y-73161330D01*
X136952288Y-72963150D01*
X137043501Y-72742944D01*
X137044342Y-72738714D01*
X137070676Y-72689447D01*
X137135577Y-72475499D01*
X137152000Y-72308752D01*
X137152000Y-72308742D01*
X137157490Y-72253001D01*
X137152000Y-72197259D01*
X137152000Y-65585884D01*
X137255005Y-65431727D01*
X137360314Y-65177490D01*
X137414000Y-64907592D01*
X137414000Y-64632408D01*
X137360314Y-64362510D01*
X137255005Y-64108273D01*
X137102120Y-63879465D01*
X136907535Y-63684880D01*
X136678727Y-63531995D01*
X136424490Y-63426686D01*
X136154592Y-63373000D01*
X135879408Y-63373000D01*
X135609510Y-63426686D01*
X135355273Y-63531995D01*
X135126465Y-63684880D01*
X134931880Y-63879465D01*
X134778995Y-64108273D01*
X134673686Y-64362510D01*
X134620000Y-64632408D01*
X133350000Y-64632408D01*
X133296314Y-64362510D01*
X133191005Y-64108273D01*
X133038120Y-63879465D01*
X132843535Y-63684880D01*
X132614727Y-63531995D01*
X132360490Y-63426686D01*
X132090592Y-63373000D01*
X131815408Y-63373000D01*
X131568000Y-63422212D01*
X131568000Y-62357000D01*
X131709592Y-62357000D01*
X131979490Y-62303314D01*
X132233727Y-62198005D01*
X132462535Y-62045120D01*
X132657120Y-61850535D01*
X132810005Y-61621727D01*
X132915314Y-61367490D01*
X132969000Y-61097592D01*
X132969000Y-60822408D01*
X135128000Y-60822408D01*
X135128000Y-61097592D01*
X135181686Y-61367490D01*
X135286995Y-61621727D01*
X135439880Y-61850535D01*
X135634465Y-62045120D01*
X135863273Y-62198005D01*
X136117510Y-62303314D01*
X136387408Y-62357000D01*
X136662592Y-62357000D01*
X136932490Y-62303314D01*
X137186727Y-62198005D01*
X137415535Y-62045120D01*
X137610120Y-61850535D01*
X137763005Y-61621727D01*
X137868314Y-61367490D01*
X137922000Y-61097592D01*
X137922000Y-60822408D01*
X137868314Y-60552510D01*
X137763005Y-60298273D01*
X137610120Y-60069465D01*
X137415535Y-59874880D01*
X137186727Y-59721995D01*
X136932490Y-59616686D01*
X136662592Y-59563000D01*
X136387408Y-59563000D01*
X136117510Y-59616686D01*
X135863273Y-59721995D01*
X135634465Y-59874880D01*
X135439880Y-60069465D01*
X135286995Y-60298273D01*
X135181686Y-60552510D01*
X135128000Y-60822408D01*
X132969000Y-60822408D01*
X132915314Y-60552510D01*
X132810005Y-60298273D01*
X132657120Y-60069465D01*
X132462535Y-59874880D01*
X132233727Y-59721995D01*
X131979490Y-59616686D01*
X131709592Y-59563000D01*
X131434408Y-59563000D01*
X131164510Y-59616686D01*
X130910273Y-59721995D01*
X130681465Y-59874880D01*
X130486880Y-60069465D01*
X130333995Y-60298273D01*
X130228686Y-60552510D01*
X130175000Y-60822408D01*
X130175000Y-61097592D01*
X130176299Y-61104123D01*
X130087956Y-61192466D01*
X130054183Y-61220183D01*
X129943589Y-61354942D01*
X129861411Y-61508688D01*
X129849563Y-61547746D01*
X129814476Y-61663411D01*
X129810805Y-61675511D01*
X129798000Y-61805524D01*
X129798000Y-61805531D01*
X129793719Y-61849000D01*
X129798000Y-61892469D01*
X129798001Y-67876534D01*
X129765795Y-67924734D01*
X129687774Y-68113092D01*
X129648000Y-68313051D01*
X128481001Y-68313051D01*
X128481001Y-60230450D01*
X128485282Y-60186984D01*
X128481001Y-60143518D01*
X128481001Y-60143508D01*
X128468196Y-60013495D01*
X128417590Y-59846672D01*
X128335412Y-59692926D01*
X128295267Y-59644010D01*
X128252533Y-59591938D01*
X128252531Y-59591936D01*
X128224818Y-59558168D01*
X128191050Y-59530455D01*
X126758547Y-58097953D01*
X126730832Y-58064182D01*
X126730153Y-58063625D01*
X126797288Y-57963150D01*
X126888501Y-57742944D01*
X126935000Y-57509175D01*
X126935000Y-57270825D01*
X130230000Y-57270825D01*
X130230000Y-57509175D01*
X130276499Y-57742944D01*
X130367712Y-57963150D01*
X130500131Y-58161330D01*
X130668670Y-58329869D01*
X130866850Y-58462288D01*
X131087056Y-58553501D01*
X131320825Y-58600000D01*
X131559175Y-58600000D01*
X131792944Y-58553501D01*
X132013150Y-58462288D01*
X132211330Y-58329869D01*
X132379869Y-58161330D01*
X132512288Y-57963150D01*
X132603501Y-57742944D01*
X132650000Y-57509175D01*
X132650000Y-57270825D01*
X135310000Y-57270825D01*
X135310000Y-57509175D01*
X135356499Y-57742944D01*
X135447712Y-57963150D01*
X135580131Y-58161330D01*
X135748670Y-58329869D01*
X135946850Y-58462288D01*
X136167056Y-58553501D01*
X136400825Y-58600000D01*
X136639175Y-58600000D01*
X136872944Y-58553501D01*
X137093150Y-58462288D01*
X137291330Y-58329869D01*
X137459869Y-58161330D01*
X137592288Y-57963150D01*
X137683501Y-57742944D01*
X137730000Y-57509175D01*
X137730000Y-57270825D01*
X137683501Y-57037056D01*
X137592288Y-56816850D01*
X137459869Y-56618670D01*
X137291330Y-56450131D01*
X137176890Y-56373665D01*
X138345000Y-56373665D01*
X138345000Y-56656335D01*
X138400147Y-56933574D01*
X138508320Y-57194727D01*
X138665363Y-57429759D01*
X138865241Y-57629637D01*
X139100273Y-57786680D01*
X139361426Y-57894853D01*
X139638665Y-57950000D01*
X139921335Y-57950000D01*
X140198574Y-57894853D01*
X140459727Y-57786680D01*
X140694759Y-57629637D01*
X140894637Y-57429759D01*
X141051680Y-57194727D01*
X141159853Y-56933574D01*
X141215000Y-56656335D01*
X141215000Y-56373665D01*
X143345000Y-56373665D01*
X143345000Y-56656335D01*
X143400147Y-56933574D01*
X143508320Y-57194727D01*
X143665363Y-57429759D01*
X143770001Y-57534397D01*
X143770000Y-59640392D01*
X143765114Y-59690000D01*
X143770000Y-59739607D01*
X143784615Y-59887993D01*
X143842368Y-60078379D01*
X143936153Y-60253840D01*
X144062367Y-60407633D01*
X144100906Y-60439261D01*
X149641928Y-65980283D01*
X149641928Y-66890000D01*
X149654188Y-67014482D01*
X149690498Y-67134180D01*
X149749463Y-67244494D01*
X149828815Y-67341185D01*
X149925506Y-67420537D01*
X150035820Y-67479502D01*
X150108380Y-67501513D01*
X149976525Y-67633368D01*
X149814010Y-67876589D01*
X149702068Y-68146842D01*
X149645000Y-68433740D01*
X149645000Y-68726260D01*
X149702068Y-69013158D01*
X149814010Y-69283411D01*
X149976525Y-69526632D01*
X150183368Y-69733475D01*
X150357760Y-69850000D01*
X150183368Y-69966525D01*
X149976525Y-70173368D01*
X149814010Y-70416589D01*
X149702068Y-70686842D01*
X149645000Y-70973740D01*
X149645000Y-71266260D01*
X149702068Y-71553158D01*
X149814010Y-71823411D01*
X149976525Y-72066632D01*
X150183368Y-72273475D01*
X150426589Y-72435990D01*
X150696842Y-72547932D01*
X150983740Y-72605000D01*
X151276260Y-72605000D01*
X151563158Y-72547932D01*
X151833411Y-72435990D01*
X152076632Y-72273475D01*
X152283475Y-72066632D01*
X152400000Y-71892240D01*
X152516525Y-72066632D01*
X152723368Y-72273475D01*
X152966589Y-72435990D01*
X153236842Y-72547932D01*
X153523740Y-72605000D01*
X153816260Y-72605000D01*
X154103158Y-72547932D01*
X154373411Y-72435990D01*
X154616632Y-72273475D01*
X154823475Y-72066632D01*
X154985990Y-71823411D01*
X155097932Y-71553158D01*
X155155000Y-71266260D01*
X155155000Y-70973740D01*
X155097932Y-70686842D01*
X154985990Y-70416589D01*
X154823475Y-70173368D01*
X154616632Y-69966525D01*
X154442240Y-69850000D01*
X154616632Y-69733475D01*
X154823475Y-69526632D01*
X154985990Y-69283411D01*
X155097932Y-69013158D01*
X155155000Y-68726260D01*
X155155000Y-68433740D01*
X155097932Y-68146842D01*
X154985990Y-67876589D01*
X154823475Y-67633368D01*
X154616632Y-67426525D01*
X154442240Y-67310000D01*
X154616632Y-67193475D01*
X154823475Y-66986632D01*
X154985990Y-66743411D01*
X155097932Y-66473158D01*
X155155000Y-66186260D01*
X155155000Y-65893740D01*
X155097932Y-65606842D01*
X154985990Y-65336589D01*
X154823475Y-65093368D01*
X154799231Y-65069124D01*
X157423356Y-62445000D01*
X157626260Y-62445000D01*
X157913158Y-62387932D01*
X158183411Y-62275990D01*
X158426632Y-62113475D01*
X158633475Y-61906632D01*
X158795990Y-61663411D01*
X158907932Y-61393158D01*
X158965000Y-61106260D01*
X158965000Y-60813740D01*
X158907932Y-60526842D01*
X158795990Y-60256589D01*
X158633475Y-60013368D01*
X158426632Y-59806525D01*
X158252240Y-59690000D01*
X158426632Y-59573475D01*
X158633475Y-59366632D01*
X158795990Y-59123411D01*
X158907932Y-58853158D01*
X158965000Y-58566260D01*
X158965000Y-58273740D01*
X158907932Y-57986842D01*
X158795990Y-57716589D01*
X158633475Y-57473368D01*
X158426632Y-57266525D01*
X158244466Y-57144805D01*
X158361355Y-57075178D01*
X158577588Y-56880269D01*
X158751641Y-56646920D01*
X158876825Y-56384099D01*
X158921476Y-56236890D01*
X158800155Y-56007000D01*
X157607000Y-56007000D01*
X157607000Y-56027000D01*
X157353000Y-56027000D01*
X157353000Y-56007000D01*
X156159845Y-56007000D01*
X156038524Y-56236890D01*
X156083175Y-56384099D01*
X156208359Y-56646920D01*
X156382412Y-56880269D01*
X156598645Y-57075178D01*
X156715534Y-57144805D01*
X156533368Y-57266525D01*
X156326525Y-57473368D01*
X156164010Y-57716589D01*
X156052068Y-57986842D01*
X155995000Y-58273740D01*
X155995000Y-58566260D01*
X156052068Y-58853158D01*
X156164010Y-59123411D01*
X156326525Y-59366632D01*
X156533368Y-59573475D01*
X156707760Y-59690000D01*
X156533368Y-59806525D01*
X156326525Y-60013368D01*
X156164010Y-60256589D01*
X156052068Y-60526842D01*
X155995000Y-60813740D01*
X155995000Y-61016644D01*
X152990901Y-64020744D01*
X152952368Y-64052367D01*
X152920745Y-64090900D01*
X152920744Y-64090901D01*
X152826154Y-64206160D01*
X152732368Y-64381621D01*
X152674615Y-64572006D01*
X152655114Y-64770000D01*
X152660001Y-64819617D01*
X152660001Y-64949892D01*
X152591513Y-65018380D01*
X152569502Y-64945820D01*
X152510537Y-64835506D01*
X152431185Y-64738815D01*
X152334494Y-64659463D01*
X152224180Y-64600498D01*
X152104482Y-64564188D01*
X151980000Y-64551928D01*
X151070283Y-64551928D01*
X145790000Y-59271645D01*
X145790000Y-57534396D01*
X145894637Y-57429759D01*
X146051680Y-57194727D01*
X146159853Y-56933574D01*
X146215000Y-56656335D01*
X146215000Y-56373665D01*
X146159853Y-56096426D01*
X146051680Y-55835273D01*
X145894637Y-55600241D01*
X145694759Y-55400363D01*
X145459727Y-55243320D01*
X145198574Y-55135147D01*
X144921335Y-55080000D01*
X144638665Y-55080000D01*
X144361426Y-55135147D01*
X144100273Y-55243320D01*
X143865241Y-55400363D01*
X143665363Y-55600241D01*
X143508320Y-55835273D01*
X143400147Y-56096426D01*
X143345000Y-56373665D01*
X141215000Y-56373665D01*
X141159853Y-56096426D01*
X141051680Y-55835273D01*
X140894637Y-55600241D01*
X140694759Y-55400363D01*
X140459727Y-55243320D01*
X140198574Y-55135147D01*
X139921335Y-55080000D01*
X139638665Y-55080000D01*
X139361426Y-55135147D01*
X139100273Y-55243320D01*
X138865241Y-55400363D01*
X138665363Y-55600241D01*
X138508320Y-55835273D01*
X138400147Y-56096426D01*
X138345000Y-56373665D01*
X137176890Y-56373665D01*
X137093150Y-56317712D01*
X136872944Y-56226499D01*
X136639175Y-56180000D01*
X136400825Y-56180000D01*
X136167056Y-56226499D01*
X135946850Y-56317712D01*
X135748670Y-56450131D01*
X135580131Y-56618670D01*
X135447712Y-56816850D01*
X135356499Y-57037056D01*
X135310000Y-57270825D01*
X132650000Y-57270825D01*
X132603501Y-57037056D01*
X132512288Y-56816850D01*
X132379869Y-56618670D01*
X132211330Y-56450131D01*
X132013150Y-56317712D01*
X131792944Y-56226499D01*
X131559175Y-56180000D01*
X131320825Y-56180000D01*
X131087056Y-56226499D01*
X130866850Y-56317712D01*
X130668670Y-56450131D01*
X130500131Y-56618670D01*
X130367712Y-56816850D01*
X130276499Y-57037056D01*
X130230000Y-57270825D01*
X126935000Y-57270825D01*
X126888501Y-57037056D01*
X126797288Y-56816850D01*
X126664869Y-56618670D01*
X126496330Y-56450131D01*
X126298150Y-56317712D01*
X126077944Y-56226499D01*
X125844175Y-56180000D01*
X125605825Y-56180000D01*
X125372056Y-56226499D01*
X125151850Y-56317712D01*
X124953670Y-56450131D01*
X124785131Y-56618670D01*
X124652712Y-56816850D01*
X124561499Y-57037056D01*
X124515000Y-57270825D01*
X124515000Y-57509175D01*
X124561499Y-57742944D01*
X124588446Y-57807999D01*
X121781554Y-57807999D01*
X121808501Y-57742944D01*
X121855000Y-57509175D01*
X121855000Y-57270825D01*
X121808501Y-57037056D01*
X121717288Y-56816850D01*
X121584869Y-56618670D01*
X121416330Y-56450131D01*
X121218150Y-56317712D01*
X120997944Y-56226499D01*
X120764175Y-56180000D01*
X120525825Y-56180000D01*
X120292056Y-56226499D01*
X120071850Y-56317712D01*
X119873670Y-56450131D01*
X119705131Y-56618670D01*
X119572712Y-56816850D01*
X119481499Y-57037056D01*
X119435000Y-57270825D01*
X119435000Y-57509175D01*
X119481499Y-57742944D01*
X119508446Y-57807999D01*
X110901382Y-57807999D01*
X110899205Y-57802744D01*
X110785937Y-57633226D01*
X110641774Y-57489063D01*
X110472256Y-57375795D01*
X110283898Y-57297774D01*
X110083939Y-57258000D01*
X109880061Y-57258000D01*
X109680102Y-57297774D01*
X109491744Y-57375795D01*
X109322226Y-57489063D01*
X109178063Y-57633226D01*
X109064795Y-57802744D01*
X108986774Y-57991102D01*
X108947000Y-58191061D01*
X105608554Y-58191061D01*
X105567932Y-57986842D01*
X105455990Y-57716589D01*
X105293475Y-57473368D01*
X105086632Y-57266525D01*
X104904466Y-57144805D01*
X105021355Y-57075178D01*
X105237588Y-56880269D01*
X105411641Y-56646920D01*
X105536825Y-56384099D01*
X105581476Y-56236890D01*
X105460155Y-56007000D01*
X104267000Y-56007000D01*
X104267000Y-56027000D01*
X104013000Y-56027000D01*
X104013000Y-56007000D01*
X102819845Y-56007000D01*
X102698524Y-56236890D01*
X102743175Y-56384099D01*
X102868359Y-56646920D01*
X103042412Y-56880269D01*
X103258645Y-57075178D01*
X103375534Y-57144805D01*
X103193368Y-57266525D01*
X102986525Y-57473368D01*
X102824010Y-57716589D01*
X102712068Y-57986842D01*
X102655000Y-58273740D01*
X102260000Y-58273740D01*
X102260000Y-54190000D01*
X102651928Y-54190000D01*
X102664188Y-54314482D01*
X102700498Y-54434180D01*
X102759463Y-54544494D01*
X102838815Y-54641185D01*
X102935506Y-54720537D01*
X103045820Y-54779502D01*
X103126466Y-54803966D01*
X103042412Y-54879731D01*
X102868359Y-55113080D01*
X102743175Y-55375901D01*
X102698524Y-55523110D01*
X102819845Y-55753000D01*
X104013000Y-55753000D01*
X104013000Y-53467000D01*
X104267000Y-53467000D01*
X104267000Y-55753000D01*
X105460155Y-55753000D01*
X105581476Y-55523110D01*
X105536825Y-55375901D01*
X105411641Y-55113080D01*
X105237588Y-54879731D01*
X105153534Y-54803966D01*
X105234180Y-54779502D01*
X105344494Y-54720537D01*
X105441185Y-54641185D01*
X105520537Y-54544494D01*
X105579502Y-54434180D01*
X105615812Y-54314482D01*
X105628072Y-54190000D01*
X155991928Y-54190000D01*
X156004188Y-54314482D01*
X156040498Y-54434180D01*
X156099463Y-54544494D01*
X156178815Y-54641185D01*
X156275506Y-54720537D01*
X156385820Y-54779502D01*
X156466466Y-54803966D01*
X156382412Y-54879731D01*
X156208359Y-55113080D01*
X156083175Y-55375901D01*
X156038524Y-55523110D01*
X156159845Y-55753000D01*
X157353000Y-55753000D01*
X157353000Y-53467000D01*
X157607000Y-53467000D01*
X157607000Y-55753000D01*
X158800155Y-55753000D01*
X158921476Y-55523110D01*
X158876825Y-55375901D01*
X158751641Y-55113080D01*
X158577588Y-54879731D01*
X158493534Y-54803966D01*
X158574180Y-54779502D01*
X158684494Y-54720537D01*
X158781185Y-54641185D01*
X158860537Y-54544494D01*
X158919502Y-54434180D01*
X158955812Y-54314482D01*
X158968072Y-54190000D01*
X158965000Y-53625750D01*
X158806250Y-53467000D01*
X157607000Y-53467000D01*
X157353000Y-53467000D01*
X156153750Y-53467000D01*
X155995000Y-53625750D01*
X155991928Y-54190000D01*
X105628072Y-54190000D01*
X105625000Y-53625750D01*
X105466250Y-53467000D01*
X104267000Y-53467000D01*
X104013000Y-53467000D01*
X102813750Y-53467000D01*
X102655000Y-53625750D01*
X102651928Y-54190000D01*
X102260000Y-54190000D01*
X102260000Y-52490000D01*
X102651928Y-52490000D01*
X102655000Y-53054250D01*
X102813750Y-53213000D01*
X104013000Y-53213000D01*
X104013000Y-52013750D01*
X104267000Y-52013750D01*
X104267000Y-53213000D01*
X105466250Y-53213000D01*
X105625000Y-53054250D01*
X105628072Y-52490000D01*
X155991928Y-52490000D01*
X155995000Y-53054250D01*
X156153750Y-53213000D01*
X157353000Y-53213000D01*
X157353000Y-52013750D01*
X157607000Y-52013750D01*
X157607000Y-53213000D01*
X158806250Y-53213000D01*
X158965000Y-53054250D01*
X158968072Y-52490000D01*
X158955812Y-52365518D01*
X158919502Y-52245820D01*
X158860537Y-52135506D01*
X158781185Y-52038815D01*
X158684494Y-51959463D01*
X158574180Y-51900498D01*
X158454482Y-51864188D01*
X158330000Y-51851928D01*
X157765750Y-51855000D01*
X157607000Y-52013750D01*
X157353000Y-52013750D01*
X157194250Y-51855000D01*
X156630000Y-51851928D01*
X156505518Y-51864188D01*
X156385820Y-51900498D01*
X156275506Y-51959463D01*
X156178815Y-52038815D01*
X156099463Y-52135506D01*
X156040498Y-52245820D01*
X156004188Y-52365518D01*
X155991928Y-52490000D01*
X105628072Y-52490000D01*
X105615812Y-52365518D01*
X105579502Y-52245820D01*
X105520537Y-52135506D01*
X105441185Y-52038815D01*
X105344494Y-51959463D01*
X105234180Y-51900498D01*
X105114482Y-51864188D01*
X104990000Y-51851928D01*
X104425750Y-51855000D01*
X104267000Y-52013750D01*
X104013000Y-52013750D01*
X103854250Y-51855000D01*
X103290000Y-51851928D01*
X103165518Y-51864188D01*
X103045820Y-51900498D01*
X102935506Y-51959463D01*
X102838815Y-52038815D01*
X102759463Y-52135506D01*
X102700498Y-52245820D01*
X102664188Y-52365518D01*
X102651928Y-52490000D01*
X102260000Y-52490000D01*
X102260000Y-51460000D01*
X159360000Y-51460000D01*
X159360001Y-78048645D01*
G37*
X159360001Y-78048645D02*
X158567207Y-77255852D01*
X158485824Y-77059376D01*
X158361612Y-76873480D01*
X158203520Y-76715388D01*
X158017624Y-76591176D01*
X157811067Y-76505617D01*
X157591788Y-76462000D01*
X157368212Y-76462000D01*
X157148933Y-76505617D01*
X156942376Y-76591176D01*
X156756480Y-76715388D01*
X156598388Y-76873480D01*
X156474176Y-77059376D01*
X156388617Y-77265933D01*
X156345000Y-77485212D01*
X156345000Y-77708788D01*
X156388617Y-77928067D01*
X156474176Y-78134624D01*
X156598388Y-78320520D01*
X156756480Y-78478612D01*
X156942376Y-78602824D01*
X157138852Y-78684207D01*
X157895001Y-79440357D01*
X157895001Y-79794296D01*
X157765750Y-79795000D01*
X157607000Y-79953750D01*
X157607000Y-81153000D01*
X157627000Y-81153000D01*
X157627000Y-81407000D01*
X157607000Y-81407000D01*
X157607000Y-83693000D01*
X157627000Y-83693000D01*
X157627000Y-83947000D01*
X157607000Y-83947000D01*
X157607000Y-83967000D01*
X157353000Y-83967000D01*
X157353000Y-83947000D01*
X156159845Y-83947000D01*
X156038524Y-84176890D01*
X156083175Y-84324099D01*
X156208359Y-84586920D01*
X156382412Y-84820269D01*
X156598645Y-85015178D01*
X156715534Y-85084805D01*
X156533368Y-85206525D01*
X156326525Y-85413368D01*
X156164010Y-85656589D01*
X156052068Y-85926842D01*
X155995000Y-86213740D01*
X155995000Y-86506260D01*
X156052068Y-86793158D01*
X156164010Y-87063411D01*
X156326525Y-87306632D01*
X156533368Y-87513475D01*
X156707760Y-87630000D01*
X156533368Y-87746525D01*
X156326525Y-87953368D01*
X156164010Y-88196589D01*
X156052068Y-88466842D01*
X155995000Y-88753740D01*
X155995000Y-89046260D01*
X156052068Y-89333158D01*
X156164010Y-89603411D01*
X156326525Y-89846632D01*
X156533368Y-90053475D01*
X156707760Y-90170000D01*
X156533368Y-90286525D01*
X156326525Y-90493368D01*
X156164010Y-90736589D01*
X156052068Y-91006842D01*
X155995000Y-91293740D01*
X155995000Y-91586260D01*
X156052068Y-91873158D01*
X156164010Y-92143411D01*
X156326525Y-92386632D01*
X156533368Y-92593475D01*
X156707760Y-92710000D01*
X156533368Y-92826525D01*
X156326525Y-93033368D01*
X156164010Y-93276589D01*
X156052068Y-93546842D01*
X155995000Y-93833740D01*
X155995000Y-94126260D01*
X156052068Y-94413158D01*
X156164010Y-94683411D01*
X156326525Y-94926632D01*
X156533368Y-95133475D01*
X156707760Y-95250000D01*
X156533368Y-95366525D01*
X156326525Y-95573368D01*
X156164010Y-95816589D01*
X156052068Y-96086842D01*
X155995000Y-96373740D01*
X155995000Y-96666260D01*
X156052068Y-96953158D01*
X156164010Y-97223411D01*
X156326525Y-97466632D01*
X156533368Y-97673475D01*
X156707760Y-97790000D01*
X156533368Y-97906525D01*
X156326525Y-98113368D01*
X156164010Y-98356589D01*
X156052068Y-98626842D01*
X155995000Y-98913740D01*
X155995000Y-99206260D01*
X156052068Y-99493158D01*
X156164010Y-99763411D01*
X156326525Y-100006632D01*
X156533368Y-100213475D01*
X156776589Y-100375990D01*
X157046842Y-100487932D01*
X157333740Y-100545000D01*
X157626260Y-100545000D01*
X157913158Y-100487932D01*
X158183411Y-100375990D01*
X158426632Y-100213475D01*
X158633475Y-100006632D01*
X158795990Y-99763411D01*
X158907932Y-99493158D01*
X158965000Y-99206260D01*
X158965000Y-98913740D01*
X158907932Y-98626842D01*
X158795990Y-98356589D01*
X158633475Y-98113368D01*
X158426632Y-97906525D01*
X158252240Y-97790000D01*
X158426632Y-97673475D01*
X158633475Y-97466632D01*
X158795990Y-97223411D01*
X158907932Y-96953158D01*
X158965000Y-96666260D01*
X158965000Y-96463356D01*
X159360001Y-96068355D01*
X159360001Y-100940000D01*
X102260000Y-100940000D01*
X102260000Y-96373740D01*
X102655000Y-96373740D01*
X102655000Y-96666260D01*
X102712068Y-96953158D01*
X102824010Y-97223411D01*
X102986525Y-97466632D01*
X103193368Y-97673475D01*
X103367760Y-97790000D01*
X103193368Y-97906525D01*
X102986525Y-98113368D01*
X102824010Y-98356589D01*
X102712068Y-98626842D01*
X102655000Y-98913740D01*
X102655000Y-99206260D01*
X102712068Y-99493158D01*
X102824010Y-99763411D01*
X102986525Y-100006632D01*
X103193368Y-100213475D01*
X103436589Y-100375990D01*
X103706842Y-100487932D01*
X103993740Y-100545000D01*
X104286260Y-100545000D01*
X104573158Y-100487932D01*
X104843411Y-100375990D01*
X105086632Y-100213475D01*
X105293475Y-100006632D01*
X105455990Y-99763411D01*
X105567932Y-99493158D01*
X105625000Y-99206260D01*
X105625000Y-98913740D01*
X105567932Y-98626842D01*
X105455990Y-98356589D01*
X105293475Y-98113368D01*
X105086632Y-97906525D01*
X104912240Y-97790000D01*
X105086632Y-97673475D01*
X105293475Y-97466632D01*
X105455990Y-97223411D01*
X105567932Y-96953158D01*
X105625000Y-96666260D01*
X105625000Y-96373740D01*
X105567932Y-96086842D01*
X105455990Y-95816589D01*
X105293475Y-95573368D01*
X105086632Y-95366525D01*
X104904466Y-95244805D01*
X105021355Y-95175178D01*
X105237588Y-94980269D01*
X105411641Y-94746920D01*
X105536825Y-94484099D01*
X105581476Y-94336890D01*
X105460155Y-94107000D01*
X104267000Y-94107000D01*
X104267000Y-94127000D01*
X104013000Y-94127000D01*
X104013000Y-94107000D01*
X102819845Y-94107000D01*
X102698524Y-94336890D01*
X102743175Y-94484099D01*
X102868359Y-94746920D01*
X103042412Y-94980269D01*
X103258645Y-95175178D01*
X103375534Y-95244805D01*
X103193368Y-95366525D01*
X102986525Y-95573368D01*
X102824010Y-95816589D01*
X102712068Y-96086842D01*
X102655000Y-96373740D01*
X102260000Y-96373740D01*
X102260000Y-92290000D01*
X102651928Y-92290000D01*
X102664188Y-92414482D01*
X102700498Y-92534180D01*
X102759463Y-92644494D01*
X102838815Y-92741185D01*
X102935506Y-92820537D01*
X103045820Y-92879502D01*
X103126466Y-92903966D01*
X103042412Y-92979731D01*
X102868359Y-93213080D01*
X102743175Y-93475901D01*
X102698524Y-93623110D01*
X102819845Y-93853000D01*
X104013000Y-93853000D01*
X104013000Y-91567000D01*
X104267000Y-91567000D01*
X104267000Y-93853000D01*
X105460155Y-93853000D01*
X105463562Y-93846544D01*
X109135000Y-93846544D01*
X109135000Y-94113456D01*
X109187072Y-94375239D01*
X109289215Y-94621833D01*
X109437503Y-94843762D01*
X109626238Y-95032497D01*
X109848167Y-95180785D01*
X110015266Y-95250000D01*
X109848167Y-95319215D01*
X109626238Y-95467503D01*
X109437503Y-95656238D01*
X109289215Y-95878167D01*
X109187072Y-96124761D01*
X109135000Y-96386544D01*
X109135000Y-96653456D01*
X109187072Y-96915239D01*
X109289215Y-97161833D01*
X109437503Y-97383762D01*
X109626238Y-97572497D01*
X109848167Y-97720785D01*
X110094761Y-97822928D01*
X110356544Y-97875000D01*
X110623456Y-97875000D01*
X110885239Y-97822928D01*
X111131833Y-97720785D01*
X111353762Y-97572497D01*
X111542497Y-97383762D01*
X111690785Y-97161833D01*
X111792928Y-96915239D01*
X111845000Y-96653456D01*
X111845000Y-96386544D01*
X111792928Y-96124761D01*
X111690785Y-95878167D01*
X111542497Y-95656238D01*
X111353762Y-95467503D01*
X111131833Y-95319215D01*
X110964734Y-95250000D01*
X111131833Y-95180785D01*
X111353762Y-95032497D01*
X111542497Y-94843762D01*
X111690785Y-94621833D01*
X111792928Y-94375239D01*
X111845000Y-94113456D01*
X111845000Y-93846544D01*
X111792928Y-93584761D01*
X111690785Y-93338167D01*
X111542497Y-93116238D01*
X111353762Y-92927503D01*
X111131833Y-92779215D01*
X110963676Y-92709562D01*
X111078353Y-92667875D01*
X111184068Y-92611368D01*
X111245955Y-92375560D01*
X110490000Y-91619605D01*
X109734045Y-92375560D01*
X109795932Y-92611368D01*
X110011007Y-92711764D01*
X109848167Y-92779215D01*
X109626238Y-92927503D01*
X109437503Y-93116238D01*
X109289215Y-93338167D01*
X109187072Y-93584761D01*
X109135000Y-93846544D01*
X105463562Y-93846544D01*
X105581476Y-93623110D01*
X105536825Y-93475901D01*
X105411641Y-93213080D01*
X105237588Y-92979731D01*
X105153534Y-92903966D01*
X105234180Y-92879502D01*
X105344494Y-92820537D01*
X105441185Y-92741185D01*
X105520537Y-92644494D01*
X105579502Y-92534180D01*
X105615812Y-92414482D01*
X105628072Y-92290000D01*
X105625000Y-91725750D01*
X105466250Y-91567000D01*
X104267000Y-91567000D01*
X104013000Y-91567000D01*
X102813750Y-91567000D01*
X102655000Y-91725750D01*
X102651928Y-92290000D01*
X102260000Y-92290000D01*
X102260000Y-91513680D01*
X109130439Y-91513680D01*
X109170937Y-91777501D01*
X109262125Y-92028353D01*
X109318632Y-92134068D01*
X109554440Y-92195955D01*
X110310395Y-91440000D01*
X110669605Y-91440000D01*
X111425560Y-92195955D01*
X111661368Y-92134068D01*
X111774266Y-91892210D01*
X111837811Y-91632973D01*
X111849561Y-91366320D01*
X111809063Y-91102499D01*
X111717875Y-90851647D01*
X111661368Y-90745932D01*
X111425560Y-90684045D01*
X110669605Y-91440000D01*
X110310395Y-91440000D01*
X109554440Y-90684045D01*
X109318632Y-90745932D01*
X109205734Y-90987790D01*
X109142189Y-91247027D01*
X109130439Y-91513680D01*
X102260000Y-91513680D01*
X102260000Y-90590000D01*
X102651928Y-90590000D01*
X102655000Y-91154250D01*
X102813750Y-91313000D01*
X104013000Y-91313000D01*
X104013000Y-90113750D01*
X104267000Y-90113750D01*
X104267000Y-91313000D01*
X105466250Y-91313000D01*
X105625000Y-91154250D01*
X105628072Y-90590000D01*
X105619646Y-90504440D01*
X109734045Y-90504440D01*
X110490000Y-91260395D01*
X111245955Y-90504440D01*
X111184068Y-90268632D01*
X110942210Y-90155734D01*
X110682973Y-90092189D01*
X110416320Y-90080439D01*
X110152499Y-90120937D01*
X109901647Y-90212125D01*
X109795932Y-90268632D01*
X109734045Y-90504440D01*
X105619646Y-90504440D01*
X105615812Y-90465518D01*
X105579502Y-90345820D01*
X105520537Y-90235506D01*
X105441185Y-90138815D01*
X105344494Y-90059463D01*
X105234180Y-90000498D01*
X105114482Y-89964188D01*
X104990000Y-89951928D01*
X104425750Y-89955000D01*
X104267000Y-90113750D01*
X104013000Y-90113750D01*
X103854250Y-89955000D01*
X103290000Y-89951928D01*
X103165518Y-89964188D01*
X103045820Y-90000498D01*
X102935506Y-90059463D01*
X102838815Y-90138815D01*
X102759463Y-90235506D01*
X102700498Y-90345820D01*
X102664188Y-90465518D01*
X102651928Y-90590000D01*
X102260000Y-90590000D01*
X102260000Y-85750061D01*
X108947000Y-85750061D01*
X108947000Y-85953939D01*
X108972000Y-86079625D01*
X108972001Y-87072383D01*
X108967114Y-87122000D01*
X108986615Y-87319994D01*
X109044368Y-87510379D01*
X109044369Y-87510380D01*
X109138154Y-87685840D01*
X109264368Y-87839633D01*
X109302901Y-87871256D01*
X115485000Y-94053356D01*
X115485000Y-94113456D01*
X115537072Y-94375239D01*
X115639215Y-94621833D01*
X115787503Y-94843762D01*
X115976238Y-95032497D01*
X116198167Y-95180785D01*
X116365266Y-95250000D01*
X116198167Y-95319215D01*
X115976238Y-95467503D01*
X115787503Y-95656238D01*
X115639215Y-95878167D01*
X115537072Y-96124761D01*
X115485000Y-96386544D01*
X115485000Y-96653456D01*
X115537072Y-96915239D01*
X115639215Y-97161833D01*
X115787503Y-97383762D01*
X115976238Y-97572497D01*
X116198167Y-97720785D01*
X116444761Y-97822928D01*
X116706544Y-97875000D01*
X116973456Y-97875000D01*
X117235239Y-97822928D01*
X117481833Y-97720785D01*
X117703762Y-97572497D01*
X117892497Y-97383762D01*
X118040785Y-97161833D01*
X118142928Y-96915239D01*
X118195000Y-96653456D01*
X118195000Y-96593355D01*
X119043099Y-95745256D01*
X119081633Y-95713633D01*
X119207847Y-95559840D01*
X119301632Y-95384380D01*
X119359385Y-95193994D01*
X119374000Y-95045608D01*
X119374000Y-95045599D01*
X119378885Y-94996001D01*
X119374000Y-94946403D01*
X119374000Y-91306544D01*
X121835000Y-91306544D01*
X121835000Y-91573456D01*
X121887072Y-91835239D01*
X121989215Y-92081833D01*
X122137503Y-92303762D01*
X122326238Y-92492497D01*
X122548167Y-92640785D01*
X122715266Y-92710000D01*
X122548167Y-92779215D01*
X122326238Y-92927503D01*
X122137503Y-93116238D01*
X121989215Y-93338167D01*
X121887072Y-93584761D01*
X121835000Y-93846544D01*
X121835000Y-94113456D01*
X121887072Y-94375239D01*
X121989215Y-94621833D01*
X122137503Y-94843762D01*
X122326238Y-95032497D01*
X122548167Y-95180785D01*
X122715266Y-95250000D01*
X122548167Y-95319215D01*
X122326238Y-95467503D01*
X122137503Y-95656238D01*
X121989215Y-95878167D01*
X121887072Y-96124761D01*
X121835000Y-96386544D01*
X121835000Y-96653456D01*
X121887072Y-96915239D01*
X121989215Y-97161833D01*
X122137503Y-97383762D01*
X122326238Y-97572497D01*
X122548167Y-97720785D01*
X122794761Y-97822928D01*
X123056544Y-97875000D01*
X123323456Y-97875000D01*
X123585239Y-97822928D01*
X123831833Y-97720785D01*
X124053762Y-97572497D01*
X124242497Y-97383762D01*
X124390785Y-97161833D01*
X124492928Y-96915239D01*
X124545000Y-96653456D01*
X124545000Y-96386544D01*
X124492928Y-96124761D01*
X124390785Y-95878167D01*
X124242497Y-95656238D01*
X124053762Y-95467503D01*
X123831833Y-95319215D01*
X123664734Y-95250000D01*
X123831833Y-95180785D01*
X124053762Y-95032497D01*
X124242497Y-94843762D01*
X124390785Y-94621833D01*
X124492928Y-94375239D01*
X124545000Y-94113456D01*
X124545000Y-93846544D01*
X124492928Y-93584761D01*
X124390785Y-93338167D01*
X124242497Y-93116238D01*
X124053762Y-92927503D01*
X123831833Y-92779215D01*
X123664734Y-92710000D01*
X123831833Y-92640785D01*
X124053762Y-92492497D01*
X124096259Y-92450000D01*
X142317392Y-92450000D01*
X142367000Y-92454886D01*
X142564994Y-92435385D01*
X142633902Y-92414482D01*
X142755380Y-92377632D01*
X142930840Y-92283847D01*
X143084633Y-92157633D01*
X143116261Y-92119094D01*
X150413223Y-84822132D01*
X150519774Y-84750937D01*
X150663937Y-84606774D01*
X150777205Y-84437256D01*
X150855226Y-84248898D01*
X150895000Y-84048939D01*
X150895000Y-83845061D01*
X150855226Y-83645102D01*
X150777205Y-83456744D01*
X150663937Y-83287226D01*
X150519774Y-83143063D01*
X150350256Y-83029795D01*
X150161898Y-82951774D01*
X149961939Y-82912000D01*
X149758061Y-82912000D01*
X149558102Y-82951774D01*
X149369744Y-83029795D01*
X149200226Y-83143063D01*
X149056063Y-83287226D01*
X148984868Y-83393777D01*
X141948645Y-90430000D01*
X124096259Y-90430000D01*
X124053762Y-90387503D01*
X123831833Y-90239215D01*
X123585239Y-90137072D01*
X123323456Y-90085000D01*
X123056544Y-90085000D01*
X122794761Y-90137072D01*
X122548167Y-90239215D01*
X122326238Y-90387503D01*
X122137503Y-90576238D01*
X121989215Y-90798167D01*
X121887072Y-91044761D01*
X121835000Y-91306544D01*
X119374000Y-91306544D01*
X119374000Y-88036061D01*
X120377000Y-88036061D01*
X120377000Y-88239939D01*
X120416774Y-88439898D01*
X120494795Y-88628256D01*
X120608063Y-88797774D01*
X120752226Y-88941937D01*
X120921744Y-89055205D01*
X121110102Y-89133226D01*
X121310061Y-89173000D01*
X121513939Y-89173000D01*
X121713898Y-89133226D01*
X121902256Y-89055205D01*
X122071774Y-88941937D01*
X122215937Y-88797774D01*
X122329205Y-88628256D01*
X122407226Y-88439898D01*
X122447000Y-88239939D01*
X122447000Y-88036061D01*
X122407226Y-87836102D01*
X122329205Y-87647744D01*
X122247000Y-87524715D01*
X122247000Y-81391711D01*
X122333937Y-81304774D01*
X122447205Y-81135256D01*
X122525226Y-80946898D01*
X122565000Y-80746939D01*
X122565000Y-80543061D01*
X122525226Y-80343102D01*
X122447205Y-80154744D01*
X122333937Y-79985226D01*
X122189774Y-79841063D01*
X122020256Y-79727795D01*
X121831898Y-79649774D01*
X121631939Y-79610000D01*
X121428061Y-79610000D01*
X121228102Y-79649774D01*
X121039744Y-79727795D01*
X120870226Y-79841063D01*
X120726063Y-79985226D01*
X120612795Y-80154744D01*
X120534774Y-80343102D01*
X120495000Y-80543061D01*
X120495000Y-80746939D01*
X120534774Y-80946898D01*
X120577001Y-81048842D01*
X120577000Y-87524715D01*
X120494795Y-87647744D01*
X120416774Y-87836102D01*
X120377000Y-88036061D01*
X119374000Y-88036061D01*
X119374000Y-86379542D01*
X119455383Y-86183067D01*
X119499000Y-85963788D01*
X119499000Y-85740212D01*
X119455383Y-85520933D01*
X119369824Y-85314376D01*
X119245612Y-85128480D01*
X119087520Y-84970388D01*
X118901624Y-84846176D01*
X118695067Y-84760617D01*
X118475788Y-84717000D01*
X118252212Y-84717000D01*
X118032933Y-84760617D01*
X117826376Y-84846176D01*
X117640480Y-84970388D01*
X117482388Y-85128480D01*
X117358176Y-85314376D01*
X117272617Y-85520933D01*
X117229000Y-85740212D01*
X117229000Y-85963788D01*
X117272617Y-86183067D01*
X117354000Y-86379542D01*
X117354000Y-90186265D01*
X117235239Y-90137072D01*
X116973456Y-90085000D01*
X116706544Y-90085000D01*
X116444761Y-90137072D01*
X116198167Y-90239215D01*
X115976238Y-90387503D01*
X115787503Y-90576238D01*
X115639215Y-90798167D01*
X115537072Y-91044761D01*
X115503234Y-91214878D01*
X110992000Y-86703645D01*
X110992000Y-86079623D01*
X111017000Y-85953939D01*
X111017000Y-85750061D01*
X110977226Y-85550102D01*
X110899205Y-85361744D01*
X110785937Y-85192226D01*
X110641774Y-85048063D01*
X110472256Y-84934795D01*
X110283898Y-84856774D01*
X110083939Y-84817000D01*
X109880061Y-84817000D01*
X109680102Y-84856774D01*
X109491744Y-84934795D01*
X109322226Y-85048063D01*
X109178063Y-85192226D01*
X109064795Y-85361744D01*
X108986774Y-85550102D01*
X108947000Y-85750061D01*
X102260000Y-85750061D01*
X102260000Y-82057212D01*
X114943000Y-82057212D01*
X114943000Y-82280788D01*
X114986617Y-82500067D01*
X115072176Y-82706624D01*
X115196388Y-82892520D01*
X115354480Y-83050612D01*
X115540376Y-83174824D01*
X115746933Y-83260383D01*
X115966212Y-83304000D01*
X116189788Y-83304000D01*
X116409067Y-83260383D01*
X116615624Y-83174824D01*
X116801520Y-83050612D01*
X116959612Y-82892520D01*
X117083824Y-82706624D01*
X117169383Y-82500067D01*
X117213000Y-82280788D01*
X117213000Y-82057212D01*
X117169383Y-81837933D01*
X117088000Y-81641458D01*
X117088000Y-78015355D01*
X121500283Y-73603072D01*
X121572500Y-73603072D01*
X121753070Y-73585287D01*
X121926701Y-73532617D01*
X122086720Y-73447085D01*
X122226978Y-73331978D01*
X122342085Y-73191720D01*
X122427617Y-73031701D01*
X122480287Y-72858070D01*
X122498072Y-72677500D01*
X122498072Y-72102500D01*
X122480287Y-71921930D01*
X122427617Y-71748299D01*
X122342085Y-71588280D01*
X122293000Y-71528470D01*
X122293000Y-65585884D01*
X122396005Y-65431727D01*
X122501314Y-65177490D01*
X122555000Y-64907592D01*
X122555000Y-64632408D01*
X122501314Y-64362510D01*
X122396005Y-64108273D01*
X122243120Y-63879465D01*
X122048535Y-63684880D01*
X121819727Y-63531995D01*
X121565490Y-63426686D01*
X121295592Y-63373000D01*
X121020408Y-63373000D01*
X120750510Y-63426686D01*
X120496273Y-63531995D01*
X120267465Y-63684880D01*
X120072880Y-63879465D01*
X119919995Y-64108273D01*
X119814686Y-64362510D01*
X119761000Y-64632408D01*
X119761000Y-64907592D01*
X119814686Y-65177490D01*
X119919995Y-65431727D01*
X120023000Y-65585885D01*
X120023001Y-72207239D01*
X120021209Y-72225436D01*
X115398901Y-76847744D01*
X115360368Y-76879367D01*
X115328745Y-76917900D01*
X115328744Y-76917901D01*
X115234154Y-77033160D01*
X115140368Y-77208621D01*
X115082615Y-77399006D01*
X115063114Y-77597000D01*
X115068001Y-77646618D01*
X115068000Y-81641457D01*
X114986617Y-81837933D01*
X114943000Y-82057212D01*
X102260000Y-82057212D01*
X102260000Y-58273740D01*
X102655000Y-58273740D01*
X102655000Y-58566260D01*
X102712068Y-58853158D01*
X102824010Y-59123411D01*
X102986525Y-59366632D01*
X103193368Y-59573475D01*
X103367760Y-59690000D01*
X103193368Y-59806525D01*
X102986525Y-60013368D01*
X102824010Y-60256589D01*
X102712068Y-60526842D01*
X102655000Y-60813740D01*
X102655000Y-61106260D01*
X102712068Y-61393158D01*
X102824010Y-61663411D01*
X102986525Y-61906632D01*
X103193368Y-62113475D01*
X103436589Y-62275990D01*
X103706842Y-62387932D01*
X103993740Y-62445000D01*
X104286260Y-62445000D01*
X104573158Y-62387932D01*
X104843411Y-62275990D01*
X105086632Y-62113475D01*
X105293475Y-61906632D01*
X105455990Y-61663411D01*
X105567932Y-61393158D01*
X105625000Y-61106260D01*
X105625000Y-60813740D01*
X105567932Y-60526842D01*
X105455990Y-60256589D01*
X105293475Y-60013368D01*
X105086632Y-59806525D01*
X104912240Y-59690000D01*
X105086632Y-59573475D01*
X105293475Y-59366632D01*
X105455990Y-59123411D01*
X105567932Y-58853158D01*
X105625000Y-58566260D01*
X105625000Y-58273740D01*
X105608554Y-58191061D01*
X108947000Y-58191061D01*
X108947000Y-58394939D01*
X108986774Y-58594898D01*
X109064795Y-58783256D01*
X109178063Y-58952774D01*
X109322226Y-59096937D01*
X109491744Y-59210205D01*
X109680102Y-59288226D01*
X109734494Y-59299045D01*
X109753182Y-59321816D01*
X109887940Y-59432410D01*
X110041686Y-59514588D01*
X110208509Y-59565194D01*
X110338522Y-59577999D01*
X110338532Y-59577999D01*
X110381998Y-59582280D01*
X110425465Y-59577999D01*
X120564003Y-59577999D01*
X120369510Y-59616686D01*
X120115273Y-59721995D01*
X119886465Y-59874880D01*
X119691880Y-60069465D01*
X119538995Y-60298273D01*
X119433686Y-60552510D01*
X119380000Y-60822408D01*
X119380000Y-61097592D01*
X119417676Y-61287001D01*
X117537606Y-61287001D01*
X117487998Y-61282115D01*
X117290004Y-61301616D01*
X117135845Y-61348380D01*
X117099619Y-61359369D01*
X116924159Y-61453154D01*
X116770366Y-61579368D01*
X116738738Y-61617907D01*
X110576645Y-67780000D01*
X110428665Y-67780000D01*
X110151426Y-67835147D01*
X109890273Y-67943320D01*
X109655241Y-68100363D01*
X109455363Y-68300241D01*
X109298320Y-68535273D01*
X109190147Y-68796426D01*
X109135000Y-69073665D01*
X109135000Y-69356335D01*
X109190147Y-69633574D01*
X109298320Y-69894727D01*
X109455363Y-70129759D01*
X109655241Y-70329637D01*
X109890273Y-70486680D01*
X110151426Y-70594853D01*
X110428665Y-70650000D01*
X110711335Y-70650000D01*
X110988574Y-70594853D01*
X111249727Y-70486680D01*
X111484759Y-70329637D01*
X111684637Y-70129759D01*
X111841680Y-69894727D01*
X111949853Y-69633574D01*
X112005000Y-69356335D01*
X112005000Y-69208355D01*
X112139690Y-69073665D01*
X114135000Y-69073665D01*
X114135000Y-69356335D01*
X114190147Y-69633574D01*
X114298320Y-69894727D01*
X114455363Y-70129759D01*
X114655241Y-70329637D01*
X114890273Y-70486680D01*
X115151426Y-70594853D01*
X115428665Y-70650000D01*
X115711335Y-70650000D01*
X115988574Y-70594853D01*
X116249727Y-70486680D01*
X116484759Y-70329637D01*
X116684637Y-70129759D01*
X116841680Y-69894727D01*
X116949853Y-69633574D01*
X117005000Y-69356335D01*
X117005000Y-69073665D01*
X116949853Y-68796426D01*
X116841680Y-68535273D01*
X116684637Y-68300241D01*
X116484759Y-68100363D01*
X116249727Y-67943320D01*
X115988574Y-67835147D01*
X115711335Y-67780000D01*
X115428665Y-67780000D01*
X115151426Y-67835147D01*
X114890273Y-67943320D01*
X114655241Y-68100363D01*
X114455363Y-68300241D01*
X114298320Y-68535273D01*
X114190147Y-68796426D01*
X114135000Y-69073665D01*
X112139690Y-69073665D01*
X117906354Y-63307001D01*
X124343391Y-63307001D01*
X124392999Y-63311887D01*
X124590993Y-63292386D01*
X124781379Y-63234633D01*
X124956839Y-63140848D01*
X125110632Y-63014634D01*
X125142260Y-62976095D01*
X125761355Y-62357000D01*
X125867592Y-62357000D01*
X126057001Y-62319324D01*
X126057001Y-63647774D01*
X125883727Y-63531995D01*
X125629490Y-63426686D01*
X125359592Y-63373000D01*
X125084408Y-63373000D01*
X124814510Y-63426686D01*
X124560273Y-63531995D01*
X124331465Y-63684880D01*
X124136880Y-63879465D01*
X123983995Y-64108273D01*
X123878686Y-64362510D01*
X123825000Y-64632408D01*
X123825000Y-64907592D01*
X123878686Y-65177490D01*
X123983995Y-65431727D01*
X124136880Y-65660535D01*
X124331465Y-65855120D01*
X124560273Y-66008005D01*
X124814510Y-66113314D01*
X125084408Y-66167000D01*
X125359592Y-66167000D01*
X125629490Y-66113314D01*
X125883727Y-66008005D01*
X126057002Y-65892226D01*
X126057002Y-68980731D01*
X125959226Y-69046063D01*
X125815063Y-69190226D01*
X125701795Y-69359744D01*
X125623774Y-69548102D01*
X125584000Y-69748061D01*
X125584000Y-69951939D01*
X125623774Y-70151898D01*
X125701795Y-70340256D01*
X125815063Y-70509774D01*
X125959226Y-70653937D01*
X126128744Y-70767205D01*
X126317102Y-70845226D01*
X126517061Y-70885000D01*
X126711001Y-70885000D01*
X126711001Y-72352165D01*
X126197786Y-72865380D01*
X126248501Y-72742944D01*
X126295000Y-72509175D01*
X126295000Y-72270825D01*
X126248501Y-72037056D01*
X126157288Y-71816850D01*
X126024869Y-71618670D01*
X125856330Y-71450131D01*
X125658150Y-71317712D01*
X125437944Y-71226499D01*
X125204175Y-71180000D01*
X124965825Y-71180000D01*
X124732056Y-71226499D01*
X124511850Y-71317712D01*
X124313670Y-71450131D01*
X124145131Y-71618670D01*
X124012712Y-71816850D01*
X123921499Y-72037056D01*
X123875000Y-72270825D01*
X123875000Y-72509175D01*
X123921499Y-72742944D01*
X124012712Y-72963150D01*
X124145131Y-73161330D01*
X124313670Y-73329869D01*
X124511850Y-73462288D01*
X124732056Y-73553501D01*
X124965825Y-73600000D01*
X125204175Y-73600000D01*
X125437944Y-73553501D01*
X125560381Y-73502786D01*
X123773762Y-75289405D01*
X123716907Y-75300714D01*
X123528549Y-75378735D01*
X123359031Y-75492003D01*
X123214868Y-75636166D01*
X123101600Y-75805684D01*
X123023579Y-75994042D01*
X122983805Y-76194001D01*
X122983805Y-76397879D01*
X123023579Y-76597838D01*
X123101600Y-76786196D01*
X123214868Y-76955714D01*
X123359031Y-77099877D01*
X123528549Y-77213145D01*
X123716907Y-77291166D01*
X123916866Y-77330940D01*
X124120744Y-77330940D01*
X124320703Y-77291166D01*
X124509061Y-77213145D01*
X124678579Y-77099877D01*
X124822742Y-76955714D01*
X124936010Y-76786196D01*
X125014031Y-76597838D01*
X125025340Y-76540983D01*
X128191051Y-73375273D01*
X128224818Y-73347561D01*
X128335412Y-73212803D01*
X128417590Y-73059057D01*
X128468196Y-72892234D01*
X128481001Y-72762221D01*
X128481001Y-72762211D01*
X128485282Y-72718745D01*
X128481001Y-72675279D01*
X128481001Y-68313051D01*
X129648000Y-68313051D01*
X129648000Y-68516929D01*
X129687774Y-68716888D01*
X129765795Y-68905246D01*
X129848000Y-69028275D01*
X129848001Y-81278886D01*
X129814774Y-81359102D01*
X129775000Y-81559061D01*
X129775000Y-81762939D01*
X129814774Y-81962898D01*
X129892795Y-82151256D01*
X130006063Y-82320774D01*
X130150226Y-82464937D01*
X130319744Y-82578205D01*
X130508102Y-82656226D01*
X130708061Y-82696000D01*
X130911939Y-82696000D01*
X131111898Y-82656226D01*
X131300256Y-82578205D01*
X131469774Y-82464937D01*
X131613937Y-82320774D01*
X131727205Y-82151256D01*
X131736009Y-82130000D01*
X155991928Y-82130000D01*
X156004188Y-82254482D01*
X156040498Y-82374180D01*
X156099463Y-82484494D01*
X156178815Y-82581185D01*
X156275506Y-82660537D01*
X156385820Y-82719502D01*
X156466466Y-82743966D01*
X156382412Y-82819731D01*
X156208359Y-83053080D01*
X156083175Y-83315901D01*
X156038524Y-83463110D01*
X156159845Y-83693000D01*
X157353000Y-83693000D01*
X157353000Y-81407000D01*
X156153750Y-81407000D01*
X155995000Y-81565750D01*
X155991928Y-82130000D01*
X131736009Y-82130000D01*
X131805226Y-81962898D01*
X131845000Y-81762939D01*
X131845000Y-81559061D01*
X131805226Y-81359102D01*
X131727205Y-81170744D01*
X131613937Y-81001226D01*
X131518000Y-80905289D01*
X131518000Y-80430000D01*
X155991928Y-80430000D01*
X155995000Y-80994250D01*
X156153750Y-81153000D01*
X157353000Y-81153000D01*
X157353000Y-79953750D01*
X157194250Y-79795000D01*
X156630000Y-79791928D01*
X156505518Y-79804188D01*
X156385820Y-79840498D01*
X156275506Y-79899463D01*
X156178815Y-79978815D01*
X156099463Y-80075506D01*
X156040498Y-80185820D01*
X156004188Y-80305518D01*
X155991928Y-80430000D01*
X131518000Y-80430000D01*
X131518000Y-73556794D01*
X131611930Y-73585287D01*
X131792500Y-73603072D01*
X132367500Y-73603072D01*
X132548070Y-73585287D01*
X132721701Y-73532617D01*
X132881720Y-73447085D01*
X133021978Y-73331978D01*
X133137085Y-73191720D01*
X133222617Y-73031701D01*
X133275287Y-72858070D01*
X133293072Y-72677500D01*
X133293072Y-72102500D01*
X133275287Y-71921930D01*
X133222617Y-71748299D01*
X133137085Y-71588280D01*
X133088000Y-71528470D01*
X133088000Y-65585884D01*
X133191005Y-65431727D01*
X133296314Y-65177490D01*
X133350000Y-64907592D01*
X133350000Y-64632408D01*
X134620000Y-64632408D01*
X134620000Y-64907592D01*
X134673686Y-65177490D01*
X134778995Y-65431727D01*
X134882000Y-65585885D01*
X134882001Y-71705668D01*
X134807712Y-71816850D01*
X134716499Y-72037056D01*
X134670000Y-72270825D01*
X134670000Y-72509175D01*
X134716499Y-72742944D01*
X134807712Y-72963150D01*
X134940131Y-73161330D01*
X135108670Y-73329869D01*
X135306850Y-73462288D01*
X135527056Y-73553501D01*
X135760825Y-73600000D01*
X135999175Y-73600000D01*
X136232944Y-73553501D01*
X136453150Y-73462288D01*
X136651330Y-73329869D01*
X136819869Y-73161330D01*
X136952288Y-72963150D01*
X137043501Y-72742944D01*
X137044342Y-72738714D01*
X137070676Y-72689447D01*
X137135577Y-72475499D01*
X137152000Y-72308752D01*
X137152000Y-72308742D01*
X137157490Y-72253001D01*
X137152000Y-72197259D01*
X137152000Y-65585884D01*
X137255005Y-65431727D01*
X137360314Y-65177490D01*
X137414000Y-64907592D01*
X137414000Y-64632408D01*
X137360314Y-64362510D01*
X137255005Y-64108273D01*
X137102120Y-63879465D01*
X136907535Y-63684880D01*
X136678727Y-63531995D01*
X136424490Y-63426686D01*
X136154592Y-63373000D01*
X135879408Y-63373000D01*
X135609510Y-63426686D01*
X135355273Y-63531995D01*
X135126465Y-63684880D01*
X134931880Y-63879465D01*
X134778995Y-64108273D01*
X134673686Y-64362510D01*
X134620000Y-64632408D01*
X133350000Y-64632408D01*
X133296314Y-64362510D01*
X133191005Y-64108273D01*
X133038120Y-63879465D01*
X132843535Y-63684880D01*
X132614727Y-63531995D01*
X132360490Y-63426686D01*
X132090592Y-63373000D01*
X131815408Y-63373000D01*
X131568000Y-63422212D01*
X131568000Y-62357000D01*
X131709592Y-62357000D01*
X131979490Y-62303314D01*
X132233727Y-62198005D01*
X132462535Y-62045120D01*
X132657120Y-61850535D01*
X132810005Y-61621727D01*
X132915314Y-61367490D01*
X132969000Y-61097592D01*
X132969000Y-60822408D01*
X135128000Y-60822408D01*
X135128000Y-61097592D01*
X135181686Y-61367490D01*
X135286995Y-61621727D01*
X135439880Y-61850535D01*
X135634465Y-62045120D01*
X135863273Y-62198005D01*
X136117510Y-62303314D01*
X136387408Y-62357000D01*
X136662592Y-62357000D01*
X136932490Y-62303314D01*
X137186727Y-62198005D01*
X137415535Y-62045120D01*
X137610120Y-61850535D01*
X137763005Y-61621727D01*
X137868314Y-61367490D01*
X137922000Y-61097592D01*
X137922000Y-60822408D01*
X137868314Y-60552510D01*
X137763005Y-60298273D01*
X137610120Y-60069465D01*
X137415535Y-59874880D01*
X137186727Y-59721995D01*
X136932490Y-59616686D01*
X136662592Y-59563000D01*
X136387408Y-59563000D01*
X136117510Y-59616686D01*
X135863273Y-59721995D01*
X135634465Y-59874880D01*
X135439880Y-60069465D01*
X135286995Y-60298273D01*
X135181686Y-60552510D01*
X135128000Y-60822408D01*
X132969000Y-60822408D01*
X132915314Y-60552510D01*
X132810005Y-60298273D01*
X132657120Y-60069465D01*
X132462535Y-59874880D01*
X132233727Y-59721995D01*
X131979490Y-59616686D01*
X131709592Y-59563000D01*
X131434408Y-59563000D01*
X131164510Y-59616686D01*
X130910273Y-59721995D01*
X130681465Y-59874880D01*
X130486880Y-60069465D01*
X130333995Y-60298273D01*
X130228686Y-60552510D01*
X130175000Y-60822408D01*
X130175000Y-61097592D01*
X130176299Y-61104123D01*
X130087956Y-61192466D01*
X130054183Y-61220183D01*
X129943589Y-61354942D01*
X129861411Y-61508688D01*
X129849563Y-61547746D01*
X129814476Y-61663411D01*
X129810805Y-61675511D01*
X129798000Y-61805524D01*
X129798000Y-61805531D01*
X129793719Y-61849000D01*
X129798000Y-61892469D01*
X129798001Y-67876534D01*
X129765795Y-67924734D01*
X129687774Y-68113092D01*
X129648000Y-68313051D01*
X128481001Y-68313051D01*
X128481001Y-60230450D01*
X128485282Y-60186984D01*
X128481001Y-60143518D01*
X128481001Y-60143508D01*
X128468196Y-60013495D01*
X128417590Y-59846672D01*
X128335412Y-59692926D01*
X128295267Y-59644010D01*
X128252533Y-59591938D01*
X128252531Y-59591936D01*
X128224818Y-59558168D01*
X128191050Y-59530455D01*
X126758547Y-58097953D01*
X126730832Y-58064182D01*
X126730153Y-58063625D01*
X126797288Y-57963150D01*
X126888501Y-57742944D01*
X126935000Y-57509175D01*
X126935000Y-57270825D01*
X130230000Y-57270825D01*
X130230000Y-57509175D01*
X130276499Y-57742944D01*
X130367712Y-57963150D01*
X130500131Y-58161330D01*
X130668670Y-58329869D01*
X130866850Y-58462288D01*
X131087056Y-58553501D01*
X131320825Y-58600000D01*
X131559175Y-58600000D01*
X131792944Y-58553501D01*
X132013150Y-58462288D01*
X132211330Y-58329869D01*
X132379869Y-58161330D01*
X132512288Y-57963150D01*
X132603501Y-57742944D01*
X132650000Y-57509175D01*
X132650000Y-57270825D01*
X135310000Y-57270825D01*
X135310000Y-57509175D01*
X135356499Y-57742944D01*
X135447712Y-57963150D01*
X135580131Y-58161330D01*
X135748670Y-58329869D01*
X135946850Y-58462288D01*
X136167056Y-58553501D01*
X136400825Y-58600000D01*
X136639175Y-58600000D01*
X136872944Y-58553501D01*
X137093150Y-58462288D01*
X137291330Y-58329869D01*
X137459869Y-58161330D01*
X137592288Y-57963150D01*
X137683501Y-57742944D01*
X137730000Y-57509175D01*
X137730000Y-57270825D01*
X137683501Y-57037056D01*
X137592288Y-56816850D01*
X137459869Y-56618670D01*
X137291330Y-56450131D01*
X137176890Y-56373665D01*
X138345000Y-56373665D01*
X138345000Y-56656335D01*
X138400147Y-56933574D01*
X138508320Y-57194727D01*
X138665363Y-57429759D01*
X138865241Y-57629637D01*
X139100273Y-57786680D01*
X139361426Y-57894853D01*
X139638665Y-57950000D01*
X139921335Y-57950000D01*
X140198574Y-57894853D01*
X140459727Y-57786680D01*
X140694759Y-57629637D01*
X140894637Y-57429759D01*
X141051680Y-57194727D01*
X141159853Y-56933574D01*
X141215000Y-56656335D01*
X141215000Y-56373665D01*
X143345000Y-56373665D01*
X143345000Y-56656335D01*
X143400147Y-56933574D01*
X143508320Y-57194727D01*
X143665363Y-57429759D01*
X143770001Y-57534397D01*
X143770000Y-59640392D01*
X143765114Y-59690000D01*
X143770000Y-59739607D01*
X143784615Y-59887993D01*
X143842368Y-60078379D01*
X143936153Y-60253840D01*
X144062367Y-60407633D01*
X144100906Y-60439261D01*
X149641928Y-65980283D01*
X149641928Y-66890000D01*
X149654188Y-67014482D01*
X149690498Y-67134180D01*
X149749463Y-67244494D01*
X149828815Y-67341185D01*
X149925506Y-67420537D01*
X150035820Y-67479502D01*
X150108380Y-67501513D01*
X149976525Y-67633368D01*
X149814010Y-67876589D01*
X149702068Y-68146842D01*
X149645000Y-68433740D01*
X149645000Y-68726260D01*
X149702068Y-69013158D01*
X149814010Y-69283411D01*
X149976525Y-69526632D01*
X150183368Y-69733475D01*
X150357760Y-69850000D01*
X150183368Y-69966525D01*
X149976525Y-70173368D01*
X149814010Y-70416589D01*
X149702068Y-70686842D01*
X149645000Y-70973740D01*
X149645000Y-71266260D01*
X149702068Y-71553158D01*
X149814010Y-71823411D01*
X149976525Y-72066632D01*
X150183368Y-72273475D01*
X150426589Y-72435990D01*
X150696842Y-72547932D01*
X150983740Y-72605000D01*
X151276260Y-72605000D01*
X151563158Y-72547932D01*
X151833411Y-72435990D01*
X152076632Y-72273475D01*
X152283475Y-72066632D01*
X152400000Y-71892240D01*
X152516525Y-72066632D01*
X152723368Y-72273475D01*
X152966589Y-72435990D01*
X153236842Y-72547932D01*
X153523740Y-72605000D01*
X153816260Y-72605000D01*
X154103158Y-72547932D01*
X154373411Y-72435990D01*
X154616632Y-72273475D01*
X154823475Y-72066632D01*
X154985990Y-71823411D01*
X155097932Y-71553158D01*
X155155000Y-71266260D01*
X155155000Y-70973740D01*
X155097932Y-70686842D01*
X154985990Y-70416589D01*
X154823475Y-70173368D01*
X154616632Y-69966525D01*
X154442240Y-69850000D01*
X154616632Y-69733475D01*
X154823475Y-69526632D01*
X154985990Y-69283411D01*
X155097932Y-69013158D01*
X155155000Y-68726260D01*
X155155000Y-68433740D01*
X155097932Y-68146842D01*
X154985990Y-67876589D01*
X154823475Y-67633368D01*
X154616632Y-67426525D01*
X154442240Y-67310000D01*
X154616632Y-67193475D01*
X154823475Y-66986632D01*
X154985990Y-66743411D01*
X155097932Y-66473158D01*
X155155000Y-66186260D01*
X155155000Y-65893740D01*
X155097932Y-65606842D01*
X154985990Y-65336589D01*
X154823475Y-65093368D01*
X154799231Y-65069124D01*
X157423356Y-62445000D01*
X157626260Y-62445000D01*
X157913158Y-62387932D01*
X158183411Y-62275990D01*
X158426632Y-62113475D01*
X158633475Y-61906632D01*
X158795990Y-61663411D01*
X158907932Y-61393158D01*
X158965000Y-61106260D01*
X158965000Y-60813740D01*
X158907932Y-60526842D01*
X158795990Y-60256589D01*
X158633475Y-60013368D01*
X158426632Y-59806525D01*
X158252240Y-59690000D01*
X158426632Y-59573475D01*
X158633475Y-59366632D01*
X158795990Y-59123411D01*
X158907932Y-58853158D01*
X158965000Y-58566260D01*
X158965000Y-58273740D01*
X158907932Y-57986842D01*
X158795990Y-57716589D01*
X158633475Y-57473368D01*
X158426632Y-57266525D01*
X158244466Y-57144805D01*
X158361355Y-57075178D01*
X158577588Y-56880269D01*
X158751641Y-56646920D01*
X158876825Y-56384099D01*
X158921476Y-56236890D01*
X158800155Y-56007000D01*
X157607000Y-56007000D01*
X157607000Y-56027000D01*
X157353000Y-56027000D01*
X157353000Y-56007000D01*
X156159845Y-56007000D01*
X156038524Y-56236890D01*
X156083175Y-56384099D01*
X156208359Y-56646920D01*
X156382412Y-56880269D01*
X156598645Y-57075178D01*
X156715534Y-57144805D01*
X156533368Y-57266525D01*
X156326525Y-57473368D01*
X156164010Y-57716589D01*
X156052068Y-57986842D01*
X155995000Y-58273740D01*
X155995000Y-58566260D01*
X156052068Y-58853158D01*
X156164010Y-59123411D01*
X156326525Y-59366632D01*
X156533368Y-59573475D01*
X156707760Y-59690000D01*
X156533368Y-59806525D01*
X156326525Y-60013368D01*
X156164010Y-60256589D01*
X156052068Y-60526842D01*
X155995000Y-60813740D01*
X155995000Y-61016644D01*
X152990901Y-64020744D01*
X152952368Y-64052367D01*
X152920745Y-64090900D01*
X152920744Y-64090901D01*
X152826154Y-64206160D01*
X152732368Y-64381621D01*
X152674615Y-64572006D01*
X152655114Y-64770000D01*
X152660001Y-64819617D01*
X152660001Y-64949892D01*
X152591513Y-65018380D01*
X152569502Y-64945820D01*
X152510537Y-64835506D01*
X152431185Y-64738815D01*
X152334494Y-64659463D01*
X152224180Y-64600498D01*
X152104482Y-64564188D01*
X151980000Y-64551928D01*
X151070283Y-64551928D01*
X145790000Y-59271645D01*
X145790000Y-57534396D01*
X145894637Y-57429759D01*
X146051680Y-57194727D01*
X146159853Y-56933574D01*
X146215000Y-56656335D01*
X146215000Y-56373665D01*
X146159853Y-56096426D01*
X146051680Y-55835273D01*
X145894637Y-55600241D01*
X145694759Y-55400363D01*
X145459727Y-55243320D01*
X145198574Y-55135147D01*
X144921335Y-55080000D01*
X144638665Y-55080000D01*
X144361426Y-55135147D01*
X144100273Y-55243320D01*
X143865241Y-55400363D01*
X143665363Y-55600241D01*
X143508320Y-55835273D01*
X143400147Y-56096426D01*
X143345000Y-56373665D01*
X141215000Y-56373665D01*
X141159853Y-56096426D01*
X141051680Y-55835273D01*
X140894637Y-55600241D01*
X140694759Y-55400363D01*
X140459727Y-55243320D01*
X140198574Y-55135147D01*
X139921335Y-55080000D01*
X139638665Y-55080000D01*
X139361426Y-55135147D01*
X139100273Y-55243320D01*
X138865241Y-55400363D01*
X138665363Y-55600241D01*
X138508320Y-55835273D01*
X138400147Y-56096426D01*
X138345000Y-56373665D01*
X137176890Y-56373665D01*
X137093150Y-56317712D01*
X136872944Y-56226499D01*
X136639175Y-56180000D01*
X136400825Y-56180000D01*
X136167056Y-56226499D01*
X135946850Y-56317712D01*
X135748670Y-56450131D01*
X135580131Y-56618670D01*
X135447712Y-56816850D01*
X135356499Y-57037056D01*
X135310000Y-57270825D01*
X132650000Y-57270825D01*
X132603501Y-57037056D01*
X132512288Y-56816850D01*
X132379869Y-56618670D01*
X132211330Y-56450131D01*
X132013150Y-56317712D01*
X131792944Y-56226499D01*
X131559175Y-56180000D01*
X131320825Y-56180000D01*
X131087056Y-56226499D01*
X130866850Y-56317712D01*
X130668670Y-56450131D01*
X130500131Y-56618670D01*
X130367712Y-56816850D01*
X130276499Y-57037056D01*
X130230000Y-57270825D01*
X126935000Y-57270825D01*
X126888501Y-57037056D01*
X126797288Y-56816850D01*
X126664869Y-56618670D01*
X126496330Y-56450131D01*
X126298150Y-56317712D01*
X126077944Y-56226499D01*
X125844175Y-56180000D01*
X125605825Y-56180000D01*
X125372056Y-56226499D01*
X125151850Y-56317712D01*
X124953670Y-56450131D01*
X124785131Y-56618670D01*
X124652712Y-56816850D01*
X124561499Y-57037056D01*
X124515000Y-57270825D01*
X124515000Y-57509175D01*
X124561499Y-57742944D01*
X124588446Y-57807999D01*
X121781554Y-57807999D01*
X121808501Y-57742944D01*
X121855000Y-57509175D01*
X121855000Y-57270825D01*
X121808501Y-57037056D01*
X121717288Y-56816850D01*
X121584869Y-56618670D01*
X121416330Y-56450131D01*
X121218150Y-56317712D01*
X120997944Y-56226499D01*
X120764175Y-56180000D01*
X120525825Y-56180000D01*
X120292056Y-56226499D01*
X120071850Y-56317712D01*
X119873670Y-56450131D01*
X119705131Y-56618670D01*
X119572712Y-56816850D01*
X119481499Y-57037056D01*
X119435000Y-57270825D01*
X119435000Y-57509175D01*
X119481499Y-57742944D01*
X119508446Y-57807999D01*
X110901382Y-57807999D01*
X110899205Y-57802744D01*
X110785937Y-57633226D01*
X110641774Y-57489063D01*
X110472256Y-57375795D01*
X110283898Y-57297774D01*
X110083939Y-57258000D01*
X109880061Y-57258000D01*
X109680102Y-57297774D01*
X109491744Y-57375795D01*
X109322226Y-57489063D01*
X109178063Y-57633226D01*
X109064795Y-57802744D01*
X108986774Y-57991102D01*
X108947000Y-58191061D01*
X105608554Y-58191061D01*
X105567932Y-57986842D01*
X105455990Y-57716589D01*
X105293475Y-57473368D01*
X105086632Y-57266525D01*
X104904466Y-57144805D01*
X105021355Y-57075178D01*
X105237588Y-56880269D01*
X105411641Y-56646920D01*
X105536825Y-56384099D01*
X105581476Y-56236890D01*
X105460155Y-56007000D01*
X104267000Y-56007000D01*
X104267000Y-56027000D01*
X104013000Y-56027000D01*
X104013000Y-56007000D01*
X102819845Y-56007000D01*
X102698524Y-56236890D01*
X102743175Y-56384099D01*
X102868359Y-56646920D01*
X103042412Y-56880269D01*
X103258645Y-57075178D01*
X103375534Y-57144805D01*
X103193368Y-57266525D01*
X102986525Y-57473368D01*
X102824010Y-57716589D01*
X102712068Y-57986842D01*
X102655000Y-58273740D01*
X102260000Y-58273740D01*
X102260000Y-54190000D01*
X102651928Y-54190000D01*
X102664188Y-54314482D01*
X102700498Y-54434180D01*
X102759463Y-54544494D01*
X102838815Y-54641185D01*
X102935506Y-54720537D01*
X103045820Y-54779502D01*
X103126466Y-54803966D01*
X103042412Y-54879731D01*
X102868359Y-55113080D01*
X102743175Y-55375901D01*
X102698524Y-55523110D01*
X102819845Y-55753000D01*
X104013000Y-55753000D01*
X104013000Y-53467000D01*
X104267000Y-53467000D01*
X104267000Y-55753000D01*
X105460155Y-55753000D01*
X105581476Y-55523110D01*
X105536825Y-55375901D01*
X105411641Y-55113080D01*
X105237588Y-54879731D01*
X105153534Y-54803966D01*
X105234180Y-54779502D01*
X105344494Y-54720537D01*
X105441185Y-54641185D01*
X105520537Y-54544494D01*
X105579502Y-54434180D01*
X105615812Y-54314482D01*
X105628072Y-54190000D01*
X155991928Y-54190000D01*
X156004188Y-54314482D01*
X156040498Y-54434180D01*
X156099463Y-54544494D01*
X156178815Y-54641185D01*
X156275506Y-54720537D01*
X156385820Y-54779502D01*
X156466466Y-54803966D01*
X156382412Y-54879731D01*
X156208359Y-55113080D01*
X156083175Y-55375901D01*
X156038524Y-55523110D01*
X156159845Y-55753000D01*
X157353000Y-55753000D01*
X157353000Y-53467000D01*
X157607000Y-53467000D01*
X157607000Y-55753000D01*
X158800155Y-55753000D01*
X158921476Y-55523110D01*
X158876825Y-55375901D01*
X158751641Y-55113080D01*
X158577588Y-54879731D01*
X158493534Y-54803966D01*
X158574180Y-54779502D01*
X158684494Y-54720537D01*
X158781185Y-54641185D01*
X158860537Y-54544494D01*
X158919502Y-54434180D01*
X158955812Y-54314482D01*
X158968072Y-54190000D01*
X158965000Y-53625750D01*
X158806250Y-53467000D01*
X157607000Y-53467000D01*
X157353000Y-53467000D01*
X156153750Y-53467000D01*
X155995000Y-53625750D01*
X155991928Y-54190000D01*
X105628072Y-54190000D01*
X105625000Y-53625750D01*
X105466250Y-53467000D01*
X104267000Y-53467000D01*
X104013000Y-53467000D01*
X102813750Y-53467000D01*
X102655000Y-53625750D01*
X102651928Y-54190000D01*
X102260000Y-54190000D01*
X102260000Y-52490000D01*
X102651928Y-52490000D01*
X102655000Y-53054250D01*
X102813750Y-53213000D01*
X104013000Y-53213000D01*
X104013000Y-52013750D01*
X104267000Y-52013750D01*
X104267000Y-53213000D01*
X105466250Y-53213000D01*
X105625000Y-53054250D01*
X105628072Y-52490000D01*
X155991928Y-52490000D01*
X155995000Y-53054250D01*
X156153750Y-53213000D01*
X157353000Y-53213000D01*
X157353000Y-52013750D01*
X157607000Y-52013750D01*
X157607000Y-53213000D01*
X158806250Y-53213000D01*
X158965000Y-53054250D01*
X158968072Y-52490000D01*
X158955812Y-52365518D01*
X158919502Y-52245820D01*
X158860537Y-52135506D01*
X158781185Y-52038815D01*
X158684494Y-51959463D01*
X158574180Y-51900498D01*
X158454482Y-51864188D01*
X158330000Y-51851928D01*
X157765750Y-51855000D01*
X157607000Y-52013750D01*
X157353000Y-52013750D01*
X157194250Y-51855000D01*
X156630000Y-51851928D01*
X156505518Y-51864188D01*
X156385820Y-51900498D01*
X156275506Y-51959463D01*
X156178815Y-52038815D01*
X156099463Y-52135506D01*
X156040498Y-52245820D01*
X156004188Y-52365518D01*
X155991928Y-52490000D01*
X105628072Y-52490000D01*
X105615812Y-52365518D01*
X105579502Y-52245820D01*
X105520537Y-52135506D01*
X105441185Y-52038815D01*
X105344494Y-51959463D01*
X105234180Y-51900498D01*
X105114482Y-51864188D01*
X104990000Y-51851928D01*
X104425750Y-51855000D01*
X104267000Y-52013750D01*
X104013000Y-52013750D01*
X103854250Y-51855000D01*
X103290000Y-51851928D01*
X103165518Y-51864188D01*
X103045820Y-51900498D01*
X102935506Y-51959463D01*
X102838815Y-52038815D01*
X102759463Y-52135506D01*
X102700498Y-52245820D01*
X102664188Y-52365518D01*
X102651928Y-52490000D01*
X102260000Y-52490000D01*
X102260000Y-51460000D01*
X159360000Y-51460000D01*
X159360001Y-78048645D01*
M02*
