G04 #@! TF.GenerationSoftware,KiCad,Pcbnew,5.1.6-c6e7f7d~87~ubuntu18.04.1*
G04 #@! TF.CreationDate,2020-08-01T20:03:32-04:00*
G04 #@! TF.ProjectId,mutron_III_plug_in_board,6d757472-6f6e-45f4-9949-495f706c7567,rev?*
G04 #@! TF.SameCoordinates,Original*
G04 #@! TF.FileFunction,Legend,Bot*
G04 #@! TF.FilePolarity,Positive*
%FSLAX46Y46*%
G04 Gerber Fmt 4.6, Leading zero omitted, Abs format (unit mm)*
G04 Created by KiCad (PCBNEW 5.1.6-c6e7f7d~87~ubuntu18.04.1) date 2020-08-01 20:03:32*
%MOMM*%
%LPD*%
G01*
G04 APERTURE LIST*
%ADD10C,0.150000*%
%ADD11C,0.120000*%
G04 APERTURE END LIST*
D10*
X137713404Y-52777380D02*
X137713404Y-52110714D01*
X137713404Y-52205952D02*
X137665785Y-52158333D01*
X137570547Y-52110714D01*
X137427690Y-52110714D01*
X137332452Y-52158333D01*
X137284833Y-52253571D01*
X137284833Y-52777380D01*
X137284833Y-52253571D02*
X137237214Y-52158333D01*
X137141976Y-52110714D01*
X136999119Y-52110714D01*
X136903880Y-52158333D01*
X136856261Y-52253571D01*
X136856261Y-52777380D01*
X135951500Y-52110714D02*
X135951500Y-52777380D01*
X136380071Y-52110714D02*
X136380071Y-52634523D01*
X136332452Y-52729761D01*
X136237214Y-52777380D01*
X136094357Y-52777380D01*
X135999119Y-52729761D01*
X135951500Y-52682142D01*
X135618166Y-52110714D02*
X135237214Y-52110714D01*
X135475309Y-51777380D02*
X135475309Y-52634523D01*
X135427690Y-52729761D01*
X135332452Y-52777380D01*
X135237214Y-52777380D01*
X134903880Y-52777380D02*
X134903880Y-52110714D01*
X134903880Y-52301190D02*
X134856261Y-52205952D01*
X134808642Y-52158333D01*
X134713404Y-52110714D01*
X134618166Y-52110714D01*
X134141976Y-52777380D02*
X134237214Y-52729761D01*
X134284833Y-52682142D01*
X134332452Y-52586904D01*
X134332452Y-52301190D01*
X134284833Y-52205952D01*
X134237214Y-52158333D01*
X134141976Y-52110714D01*
X133999119Y-52110714D01*
X133903880Y-52158333D01*
X133856261Y-52205952D01*
X133808642Y-52301190D01*
X133808642Y-52586904D01*
X133856261Y-52682142D01*
X133903880Y-52729761D01*
X133999119Y-52777380D01*
X134141976Y-52777380D01*
X133380071Y-52110714D02*
X133380071Y-52777380D01*
X133380071Y-52205952D02*
X133332452Y-52158333D01*
X133237214Y-52110714D01*
X133094357Y-52110714D01*
X132999119Y-52158333D01*
X132951500Y-52253571D01*
X132951500Y-52777380D01*
X132713404Y-52872619D02*
X131951500Y-52872619D01*
X131713404Y-52777380D02*
X131713404Y-51777380D01*
X131237214Y-52777380D02*
X131237214Y-51777380D01*
X130761023Y-52777380D02*
X130761023Y-51777380D01*
X130522928Y-52872619D02*
X129761023Y-52872619D01*
X129522928Y-52110714D02*
X129522928Y-53110714D01*
X129522928Y-52158333D02*
X129427690Y-52110714D01*
X129237214Y-52110714D01*
X129141976Y-52158333D01*
X129094357Y-52205952D01*
X129046738Y-52301190D01*
X129046738Y-52586904D01*
X129094357Y-52682142D01*
X129141976Y-52729761D01*
X129237214Y-52777380D01*
X129427690Y-52777380D01*
X129522928Y-52729761D01*
X128475309Y-52777380D02*
X128570547Y-52729761D01*
X128618166Y-52634523D01*
X128618166Y-51777380D01*
X127665785Y-52110714D02*
X127665785Y-52777380D01*
X128094357Y-52110714D02*
X128094357Y-52634523D01*
X128046738Y-52729761D01*
X127951500Y-52777380D01*
X127808642Y-52777380D01*
X127713404Y-52729761D01*
X127665785Y-52682142D01*
X126761023Y-52110714D02*
X126761023Y-52920238D01*
X126808642Y-53015476D01*
X126856261Y-53063095D01*
X126951500Y-53110714D01*
X127094357Y-53110714D01*
X127189595Y-53063095D01*
X126761023Y-52729761D02*
X126856261Y-52777380D01*
X127046738Y-52777380D01*
X127141976Y-52729761D01*
X127189595Y-52682142D01*
X127237214Y-52586904D01*
X127237214Y-52301190D01*
X127189595Y-52205952D01*
X127141976Y-52158333D01*
X127046738Y-52110714D01*
X126856261Y-52110714D01*
X126761023Y-52158333D01*
X126522928Y-52872619D02*
X125761023Y-52872619D01*
X125522928Y-52777380D02*
X125522928Y-52110714D01*
X125522928Y-51777380D02*
X125570547Y-51825000D01*
X125522928Y-51872619D01*
X125475309Y-51825000D01*
X125522928Y-51777380D01*
X125522928Y-51872619D01*
X125046738Y-52110714D02*
X125046738Y-52777380D01*
X125046738Y-52205952D02*
X124999119Y-52158333D01*
X124903880Y-52110714D01*
X124761023Y-52110714D01*
X124665785Y-52158333D01*
X124618166Y-52253571D01*
X124618166Y-52777380D01*
X124380071Y-52872619D02*
X123618166Y-52872619D01*
X123380071Y-52777380D02*
X123380071Y-51777380D01*
X123380071Y-52158333D02*
X123284833Y-52110714D01*
X123094357Y-52110714D01*
X122999119Y-52158333D01*
X122951500Y-52205952D01*
X122903880Y-52301190D01*
X122903880Y-52586904D01*
X122951500Y-52682142D01*
X122999119Y-52729761D01*
X123094357Y-52777380D01*
X123284833Y-52777380D01*
X123380071Y-52729761D01*
X122332452Y-52777380D02*
X122427690Y-52729761D01*
X122475309Y-52682142D01*
X122522928Y-52586904D01*
X122522928Y-52301190D01*
X122475309Y-52205952D01*
X122427690Y-52158333D01*
X122332452Y-52110714D01*
X122189595Y-52110714D01*
X122094357Y-52158333D01*
X122046738Y-52205952D01*
X121999119Y-52301190D01*
X121999119Y-52586904D01*
X122046738Y-52682142D01*
X122094357Y-52729761D01*
X122189595Y-52777380D01*
X122332452Y-52777380D01*
X121141976Y-52777380D02*
X121141976Y-52253571D01*
X121189595Y-52158333D01*
X121284833Y-52110714D01*
X121475309Y-52110714D01*
X121570547Y-52158333D01*
X121141976Y-52729761D02*
X121237214Y-52777380D01*
X121475309Y-52777380D01*
X121570547Y-52729761D01*
X121618166Y-52634523D01*
X121618166Y-52539285D01*
X121570547Y-52444047D01*
X121475309Y-52396428D01*
X121237214Y-52396428D01*
X121141976Y-52348809D01*
X120665785Y-52777380D02*
X120665785Y-52110714D01*
X120665785Y-52301190D02*
X120618166Y-52205952D01*
X120570547Y-52158333D01*
X120475309Y-52110714D01*
X120380071Y-52110714D01*
X119618166Y-52777380D02*
X119618166Y-51777380D01*
X119618166Y-52729761D02*
X119713404Y-52777380D01*
X119903880Y-52777380D01*
X119999119Y-52729761D01*
X120046738Y-52682142D01*
X120094357Y-52586904D01*
X120094357Y-52301190D01*
X120046738Y-52205952D01*
X119999119Y-52158333D01*
X119903880Y-52110714D01*
X119713404Y-52110714D01*
X119618166Y-52158333D01*
X137713404Y-54427380D02*
X137713404Y-53760714D01*
X137713404Y-53951190D02*
X137665785Y-53855952D01*
X137618166Y-53808333D01*
X137522928Y-53760714D01*
X137427690Y-53760714D01*
X136713404Y-54379761D02*
X136808642Y-54427380D01*
X136999119Y-54427380D01*
X137094357Y-54379761D01*
X137141976Y-54284523D01*
X137141976Y-53903571D01*
X137094357Y-53808333D01*
X136999119Y-53760714D01*
X136808642Y-53760714D01*
X136713404Y-53808333D01*
X136665785Y-53903571D01*
X136665785Y-53998809D01*
X137141976Y-54094047D01*
X136332452Y-53760714D02*
X136094357Y-54427380D01*
X135856261Y-53760714D01*
X134522928Y-53427380D02*
X134427690Y-53427380D01*
X134332452Y-53475000D01*
X134284833Y-53522619D01*
X134237214Y-53617857D01*
X134189595Y-53808333D01*
X134189595Y-54046428D01*
X134237214Y-54236904D01*
X134284833Y-54332142D01*
X134332452Y-54379761D01*
X134427690Y-54427380D01*
X134522928Y-54427380D01*
X134618166Y-54379761D01*
X134665785Y-54332142D01*
X134713404Y-54236904D01*
X134761023Y-54046428D01*
X134761023Y-53808333D01*
X134713404Y-53617857D01*
X134665785Y-53522619D01*
X134618166Y-53475000D01*
X134522928Y-53427380D01*
X137761023Y-55172619D02*
X137713404Y-55125000D01*
X137618166Y-55077380D01*
X137380071Y-55077380D01*
X137284833Y-55125000D01*
X137237214Y-55172619D01*
X137189595Y-55267857D01*
X137189595Y-55363095D01*
X137237214Y-55505952D01*
X137808642Y-56077380D01*
X137189595Y-56077380D01*
X136570547Y-55077380D02*
X136475309Y-55077380D01*
X136380071Y-55125000D01*
X136332452Y-55172619D01*
X136284833Y-55267857D01*
X136237214Y-55458333D01*
X136237214Y-55696428D01*
X136284833Y-55886904D01*
X136332452Y-55982142D01*
X136380071Y-56029761D01*
X136475309Y-56077380D01*
X136570547Y-56077380D01*
X136665785Y-56029761D01*
X136713404Y-55982142D01*
X136761023Y-55886904D01*
X136808642Y-55696428D01*
X136808642Y-55458333D01*
X136761023Y-55267857D01*
X136713404Y-55172619D01*
X136665785Y-55125000D01*
X136570547Y-55077380D01*
X135856261Y-55172619D02*
X135808642Y-55125000D01*
X135713404Y-55077380D01*
X135475309Y-55077380D01*
X135380071Y-55125000D01*
X135332452Y-55172619D01*
X135284833Y-55267857D01*
X135284833Y-55363095D01*
X135332452Y-55505952D01*
X135903880Y-56077380D01*
X135284833Y-56077380D01*
X134665785Y-55077380D02*
X134570547Y-55077380D01*
X134475309Y-55125000D01*
X134427690Y-55172619D01*
X134380071Y-55267857D01*
X134332452Y-55458333D01*
X134332452Y-55696428D01*
X134380071Y-55886904D01*
X134427690Y-55982142D01*
X134475309Y-56029761D01*
X134570547Y-56077380D01*
X134665785Y-56077380D01*
X134761023Y-56029761D01*
X134808642Y-55982142D01*
X134856261Y-55886904D01*
X134903880Y-55696428D01*
X134903880Y-55458333D01*
X134856261Y-55267857D01*
X134808642Y-55172619D01*
X134761023Y-55125000D01*
X134665785Y-55077380D01*
X133903880Y-55696428D02*
X133141976Y-55696428D01*
X132475309Y-55077380D02*
X132380071Y-55077380D01*
X132284833Y-55125000D01*
X132237214Y-55172619D01*
X132189595Y-55267857D01*
X132141976Y-55458333D01*
X132141976Y-55696428D01*
X132189595Y-55886904D01*
X132237214Y-55982142D01*
X132284833Y-56029761D01*
X132380071Y-56077380D01*
X132475309Y-56077380D01*
X132570547Y-56029761D01*
X132618166Y-55982142D01*
X132665785Y-55886904D01*
X132713404Y-55696428D01*
X132713404Y-55458333D01*
X132665785Y-55267857D01*
X132618166Y-55172619D01*
X132570547Y-55125000D01*
X132475309Y-55077380D01*
X131570547Y-55505952D02*
X131665785Y-55458333D01*
X131713404Y-55410714D01*
X131761023Y-55315476D01*
X131761023Y-55267857D01*
X131713404Y-55172619D01*
X131665785Y-55125000D01*
X131570547Y-55077380D01*
X131380071Y-55077380D01*
X131284833Y-55125000D01*
X131237214Y-55172619D01*
X131189595Y-55267857D01*
X131189595Y-55315476D01*
X131237214Y-55410714D01*
X131284833Y-55458333D01*
X131380071Y-55505952D01*
X131570547Y-55505952D01*
X131665785Y-55553571D01*
X131713404Y-55601190D01*
X131761023Y-55696428D01*
X131761023Y-55886904D01*
X131713404Y-55982142D01*
X131665785Y-56029761D01*
X131570547Y-56077380D01*
X131380071Y-56077380D01*
X131284833Y-56029761D01*
X131237214Y-55982142D01*
X131189595Y-55886904D01*
X131189595Y-55696428D01*
X131237214Y-55601190D01*
X131284833Y-55553571D01*
X131380071Y-55505952D01*
X130761023Y-55696428D02*
X129999119Y-55696428D01*
X129332452Y-55077380D02*
X129237214Y-55077380D01*
X129141976Y-55125000D01*
X129094357Y-55172619D01*
X129046738Y-55267857D01*
X128999119Y-55458333D01*
X128999119Y-55696428D01*
X129046738Y-55886904D01*
X129094357Y-55982142D01*
X129141976Y-56029761D01*
X129237214Y-56077380D01*
X129332452Y-56077380D01*
X129427690Y-56029761D01*
X129475309Y-55982142D01*
X129522928Y-55886904D01*
X129570547Y-55696428D01*
X129570547Y-55458333D01*
X129522928Y-55267857D01*
X129475309Y-55172619D01*
X129427690Y-55125000D01*
X129332452Y-55077380D01*
X128046738Y-56077380D02*
X128618166Y-56077380D01*
X128332452Y-56077380D02*
X128332452Y-55077380D01*
X128427690Y-55220238D01*
X128522928Y-55315476D01*
X128618166Y-55363095D01*
D11*
X158810000Y-100390000D02*
X156150000Y-100390000D01*
X158810000Y-82550000D02*
X158810000Y-100390000D01*
X156150000Y-82550000D02*
X156150000Y-100390000D01*
X158810000Y-82550000D02*
X156150000Y-82550000D01*
X158810000Y-81280000D02*
X158810000Y-79950000D01*
X158810000Y-79950000D02*
X157480000Y-79950000D01*
X158810000Y-62290000D02*
X156150000Y-62290000D01*
X158810000Y-54610000D02*
X158810000Y-62290000D01*
X156150000Y-54610000D02*
X156150000Y-62290000D01*
X158810000Y-54610000D02*
X156150000Y-54610000D01*
X158810000Y-53340000D02*
X158810000Y-52010000D01*
X158810000Y-52010000D02*
X157480000Y-52010000D01*
X105470000Y-62290000D02*
X102810000Y-62290000D01*
X105470000Y-54610000D02*
X105470000Y-62290000D01*
X102810000Y-54610000D02*
X102810000Y-62290000D01*
X105470000Y-54610000D02*
X102810000Y-54610000D01*
X105470000Y-53340000D02*
X105470000Y-52010000D01*
X105470000Y-52010000D02*
X104140000Y-52010000D01*
X105470000Y-100390000D02*
X102810000Y-100390000D01*
X105470000Y-92710000D02*
X105470000Y-100390000D01*
X102810000Y-92710000D02*
X102810000Y-100390000D01*
X105470000Y-92710000D02*
X102810000Y-92710000D01*
X105470000Y-91440000D02*
X105470000Y-90110000D01*
X105470000Y-90110000D02*
X104140000Y-90110000D01*
D10*
X155019333Y-80732380D02*
X155019333Y-81446666D01*
X155066952Y-81589523D01*
X155162190Y-81684761D01*
X155305047Y-81732380D01*
X155400285Y-81732380D01*
X154114571Y-81065714D02*
X154114571Y-81732380D01*
X154352666Y-80684761D02*
X154590761Y-81399047D01*
X153971714Y-81399047D01*
X155019333Y-52792380D02*
X155019333Y-53506666D01*
X155066952Y-53649523D01*
X155162190Y-53744761D01*
X155305047Y-53792380D01*
X155400285Y-53792380D01*
X154638380Y-52792380D02*
X154019333Y-52792380D01*
X154352666Y-53173333D01*
X154209809Y-53173333D01*
X154114571Y-53220952D01*
X154066952Y-53268571D01*
X154019333Y-53363809D01*
X154019333Y-53601904D01*
X154066952Y-53697142D01*
X154114571Y-53744761D01*
X154209809Y-53792380D01*
X154495523Y-53792380D01*
X154590761Y-53744761D01*
X154638380Y-53697142D01*
X107267333Y-52792380D02*
X107267333Y-53506666D01*
X107314952Y-53649523D01*
X107410190Y-53744761D01*
X107553047Y-53792380D01*
X107648285Y-53792380D01*
X106267333Y-53792380D02*
X106838761Y-53792380D01*
X106553047Y-53792380D02*
X106553047Y-52792380D01*
X106648285Y-52935238D01*
X106743523Y-53030476D01*
X106838761Y-53078095D01*
X107267333Y-90892380D02*
X107267333Y-91606666D01*
X107314952Y-91749523D01*
X107410190Y-91844761D01*
X107553047Y-91892380D01*
X107648285Y-91892380D01*
X106838761Y-90987619D02*
X106791142Y-90940000D01*
X106695904Y-90892380D01*
X106457809Y-90892380D01*
X106362571Y-90940000D01*
X106314952Y-90987619D01*
X106267333Y-91082857D01*
X106267333Y-91178095D01*
X106314952Y-91320952D01*
X106886380Y-91892380D01*
X106267333Y-91892380D01*
M02*
