G04 #@! TF.GenerationSoftware,KiCad,Pcbnew,5.1.6-c6e7f7d~87~ubuntu18.04.1*
G04 #@! TF.CreationDate,2020-08-01T20:03:32-04:00*
G04 #@! TF.ProjectId,mutron_III_plug_in_board,6d757472-6f6e-45f4-9949-495f706c7567,rev?*
G04 #@! TF.SameCoordinates,Original*
G04 #@! TF.FileFunction,Soldermask,Bot*
G04 #@! TF.FilePolarity,Negative*
%FSLAX46Y46*%
G04 Gerber Fmt 4.6, Leading zero omitted, Abs format (unit mm)*
G04 Created by KiCad (PCBNEW 5.1.6-c6e7f7d~87~ubuntu18.04.1) date 2020-08-01 20:03:32*
%MOMM*%
%LPD*%
G01*
G04 APERTURE LIST*
%ADD10C,0.100000*%
G04 APERTURE END LIST*
D10*
G36*
X157593512Y-98163927D02*
G01*
X157742812Y-98193624D01*
X157906784Y-98261544D01*
X158054354Y-98360147D01*
X158179853Y-98485646D01*
X158278456Y-98633216D01*
X158346376Y-98797188D01*
X158381000Y-98971259D01*
X158381000Y-99148741D01*
X158346376Y-99322812D01*
X158278456Y-99486784D01*
X158179853Y-99634354D01*
X158054354Y-99759853D01*
X157906784Y-99858456D01*
X157742812Y-99926376D01*
X157593512Y-99956073D01*
X157568742Y-99961000D01*
X157391258Y-99961000D01*
X157366488Y-99956073D01*
X157217188Y-99926376D01*
X157053216Y-99858456D01*
X156905646Y-99759853D01*
X156780147Y-99634354D01*
X156681544Y-99486784D01*
X156613624Y-99322812D01*
X156579000Y-99148741D01*
X156579000Y-98971259D01*
X156613624Y-98797188D01*
X156681544Y-98633216D01*
X156780147Y-98485646D01*
X156905646Y-98360147D01*
X157053216Y-98261544D01*
X157217188Y-98193624D01*
X157366488Y-98163927D01*
X157391258Y-98159000D01*
X157568742Y-98159000D01*
X157593512Y-98163927D01*
G37*
G36*
X104253512Y-98163927D02*
G01*
X104402812Y-98193624D01*
X104566784Y-98261544D01*
X104714354Y-98360147D01*
X104839853Y-98485646D01*
X104938456Y-98633216D01*
X105006376Y-98797188D01*
X105041000Y-98971259D01*
X105041000Y-99148741D01*
X105006376Y-99322812D01*
X104938456Y-99486784D01*
X104839853Y-99634354D01*
X104714354Y-99759853D01*
X104566784Y-99858456D01*
X104402812Y-99926376D01*
X104253512Y-99956073D01*
X104228742Y-99961000D01*
X104051258Y-99961000D01*
X104026488Y-99956073D01*
X103877188Y-99926376D01*
X103713216Y-99858456D01*
X103565646Y-99759853D01*
X103440147Y-99634354D01*
X103341544Y-99486784D01*
X103273624Y-99322812D01*
X103239000Y-99148741D01*
X103239000Y-98971259D01*
X103273624Y-98797188D01*
X103341544Y-98633216D01*
X103440147Y-98485646D01*
X103565646Y-98360147D01*
X103713216Y-98261544D01*
X103877188Y-98193624D01*
X104026488Y-98163927D01*
X104051258Y-98159000D01*
X104228742Y-98159000D01*
X104253512Y-98163927D01*
G37*
G36*
X104253512Y-95623927D02*
G01*
X104402812Y-95653624D01*
X104566784Y-95721544D01*
X104714354Y-95820147D01*
X104839853Y-95945646D01*
X104938456Y-96093216D01*
X105006376Y-96257188D01*
X105041000Y-96431259D01*
X105041000Y-96608741D01*
X105006376Y-96782812D01*
X104938456Y-96946784D01*
X104839853Y-97094354D01*
X104714354Y-97219853D01*
X104566784Y-97318456D01*
X104402812Y-97386376D01*
X104253512Y-97416073D01*
X104228742Y-97421000D01*
X104051258Y-97421000D01*
X104026488Y-97416073D01*
X103877188Y-97386376D01*
X103713216Y-97318456D01*
X103565646Y-97219853D01*
X103440147Y-97094354D01*
X103341544Y-96946784D01*
X103273624Y-96782812D01*
X103239000Y-96608741D01*
X103239000Y-96431259D01*
X103273624Y-96257188D01*
X103341544Y-96093216D01*
X103440147Y-95945646D01*
X103565646Y-95820147D01*
X103713216Y-95721544D01*
X103877188Y-95653624D01*
X104026488Y-95623927D01*
X104051258Y-95619000D01*
X104228742Y-95619000D01*
X104253512Y-95623927D01*
G37*
G36*
X157593512Y-95623927D02*
G01*
X157742812Y-95653624D01*
X157906784Y-95721544D01*
X158054354Y-95820147D01*
X158179853Y-95945646D01*
X158278456Y-96093216D01*
X158346376Y-96257188D01*
X158381000Y-96431259D01*
X158381000Y-96608741D01*
X158346376Y-96782812D01*
X158278456Y-96946784D01*
X158179853Y-97094354D01*
X158054354Y-97219853D01*
X157906784Y-97318456D01*
X157742812Y-97386376D01*
X157593512Y-97416073D01*
X157568742Y-97421000D01*
X157391258Y-97421000D01*
X157366488Y-97416073D01*
X157217188Y-97386376D01*
X157053216Y-97318456D01*
X156905646Y-97219853D01*
X156780147Y-97094354D01*
X156681544Y-96946784D01*
X156613624Y-96782812D01*
X156579000Y-96608741D01*
X156579000Y-96431259D01*
X156613624Y-96257188D01*
X156681544Y-96093216D01*
X156780147Y-95945646D01*
X156905646Y-95820147D01*
X157053216Y-95721544D01*
X157217188Y-95653624D01*
X157366488Y-95623927D01*
X157391258Y-95619000D01*
X157568742Y-95619000D01*
X157593512Y-95623927D01*
G37*
G36*
X116965589Y-95758876D02*
G01*
X117064893Y-95778629D01*
X117205206Y-95836748D01*
X117331484Y-95921125D01*
X117438875Y-96028516D01*
X117523252Y-96154794D01*
X117581371Y-96295107D01*
X117611000Y-96444063D01*
X117611000Y-96595937D01*
X117581371Y-96744893D01*
X117523252Y-96885206D01*
X117438875Y-97011484D01*
X117331484Y-97118875D01*
X117205206Y-97203252D01*
X117064893Y-97261371D01*
X116965589Y-97281124D01*
X116915938Y-97291000D01*
X116764062Y-97291000D01*
X116714411Y-97281124D01*
X116615107Y-97261371D01*
X116474794Y-97203252D01*
X116348516Y-97118875D01*
X116241125Y-97011484D01*
X116156748Y-96885206D01*
X116098629Y-96744893D01*
X116069000Y-96595937D01*
X116069000Y-96444063D01*
X116098629Y-96295107D01*
X116156748Y-96154794D01*
X116241125Y-96028516D01*
X116348516Y-95921125D01*
X116474794Y-95836748D01*
X116615107Y-95778629D01*
X116714411Y-95758876D01*
X116764062Y-95749000D01*
X116915938Y-95749000D01*
X116965589Y-95758876D01*
G37*
G36*
X110615589Y-95758876D02*
G01*
X110714893Y-95778629D01*
X110855206Y-95836748D01*
X110981484Y-95921125D01*
X111088875Y-96028516D01*
X111173252Y-96154794D01*
X111231371Y-96295107D01*
X111261000Y-96444063D01*
X111261000Y-96595937D01*
X111231371Y-96744893D01*
X111173252Y-96885206D01*
X111088875Y-97011484D01*
X110981484Y-97118875D01*
X110855206Y-97203252D01*
X110714893Y-97261371D01*
X110615589Y-97281124D01*
X110565938Y-97291000D01*
X110414062Y-97291000D01*
X110364411Y-97281124D01*
X110265107Y-97261371D01*
X110124794Y-97203252D01*
X109998516Y-97118875D01*
X109891125Y-97011484D01*
X109806748Y-96885206D01*
X109748629Y-96744893D01*
X109719000Y-96595937D01*
X109719000Y-96444063D01*
X109748629Y-96295107D01*
X109806748Y-96154794D01*
X109891125Y-96028516D01*
X109998516Y-95921125D01*
X110124794Y-95836748D01*
X110265107Y-95778629D01*
X110364411Y-95758876D01*
X110414062Y-95749000D01*
X110565938Y-95749000D01*
X110615589Y-95758876D01*
G37*
G36*
X123315589Y-95758876D02*
G01*
X123414893Y-95778629D01*
X123555206Y-95836748D01*
X123681484Y-95921125D01*
X123788875Y-96028516D01*
X123873252Y-96154794D01*
X123931371Y-96295107D01*
X123961000Y-96444063D01*
X123961000Y-96595937D01*
X123931371Y-96744893D01*
X123873252Y-96885206D01*
X123788875Y-97011484D01*
X123681484Y-97118875D01*
X123555206Y-97203252D01*
X123414893Y-97261371D01*
X123315589Y-97281124D01*
X123265938Y-97291000D01*
X123114062Y-97291000D01*
X123064411Y-97281124D01*
X122965107Y-97261371D01*
X122824794Y-97203252D01*
X122698516Y-97118875D01*
X122591125Y-97011484D01*
X122506748Y-96885206D01*
X122448629Y-96744893D01*
X122419000Y-96595937D01*
X122419000Y-96444063D01*
X122448629Y-96295107D01*
X122506748Y-96154794D01*
X122591125Y-96028516D01*
X122698516Y-95921125D01*
X122824794Y-95836748D01*
X122965107Y-95778629D01*
X123064411Y-95758876D01*
X123114062Y-95749000D01*
X123265938Y-95749000D01*
X123315589Y-95758876D01*
G37*
G36*
X104253512Y-93083927D02*
G01*
X104402812Y-93113624D01*
X104566784Y-93181544D01*
X104714354Y-93280147D01*
X104839853Y-93405646D01*
X104938456Y-93553216D01*
X105006376Y-93717188D01*
X105041000Y-93891259D01*
X105041000Y-94068741D01*
X105006376Y-94242812D01*
X104938456Y-94406784D01*
X104839853Y-94554354D01*
X104714354Y-94679853D01*
X104566784Y-94778456D01*
X104402812Y-94846376D01*
X104253512Y-94876073D01*
X104228742Y-94881000D01*
X104051258Y-94881000D01*
X104026488Y-94876073D01*
X103877188Y-94846376D01*
X103713216Y-94778456D01*
X103565646Y-94679853D01*
X103440147Y-94554354D01*
X103341544Y-94406784D01*
X103273624Y-94242812D01*
X103239000Y-94068741D01*
X103239000Y-93891259D01*
X103273624Y-93717188D01*
X103341544Y-93553216D01*
X103440147Y-93405646D01*
X103565646Y-93280147D01*
X103713216Y-93181544D01*
X103877188Y-93113624D01*
X104026488Y-93083927D01*
X104051258Y-93079000D01*
X104228742Y-93079000D01*
X104253512Y-93083927D01*
G37*
G36*
X157593512Y-93083927D02*
G01*
X157742812Y-93113624D01*
X157906784Y-93181544D01*
X158054354Y-93280147D01*
X158179853Y-93405646D01*
X158278456Y-93553216D01*
X158346376Y-93717188D01*
X158381000Y-93891259D01*
X158381000Y-94068741D01*
X158346376Y-94242812D01*
X158278456Y-94406784D01*
X158179853Y-94554354D01*
X158054354Y-94679853D01*
X157906784Y-94778456D01*
X157742812Y-94846376D01*
X157593512Y-94876073D01*
X157568742Y-94881000D01*
X157391258Y-94881000D01*
X157366488Y-94876073D01*
X157217188Y-94846376D01*
X157053216Y-94778456D01*
X156905646Y-94679853D01*
X156780147Y-94554354D01*
X156681544Y-94406784D01*
X156613624Y-94242812D01*
X156579000Y-94068741D01*
X156579000Y-93891259D01*
X156613624Y-93717188D01*
X156681544Y-93553216D01*
X156780147Y-93405646D01*
X156905646Y-93280147D01*
X157053216Y-93181544D01*
X157217188Y-93113624D01*
X157366488Y-93083927D01*
X157391258Y-93079000D01*
X157568742Y-93079000D01*
X157593512Y-93083927D01*
G37*
G36*
X110615589Y-93218876D02*
G01*
X110714893Y-93238629D01*
X110855206Y-93296748D01*
X110981484Y-93381125D01*
X111088875Y-93488516D01*
X111173252Y-93614794D01*
X111231371Y-93755107D01*
X111261000Y-93904063D01*
X111261000Y-94055937D01*
X111231371Y-94204893D01*
X111173252Y-94345206D01*
X111088875Y-94471484D01*
X110981484Y-94578875D01*
X110855206Y-94663252D01*
X110714893Y-94721371D01*
X110615589Y-94741124D01*
X110565938Y-94751000D01*
X110414062Y-94751000D01*
X110364411Y-94741124D01*
X110265107Y-94721371D01*
X110124794Y-94663252D01*
X109998516Y-94578875D01*
X109891125Y-94471484D01*
X109806748Y-94345206D01*
X109748629Y-94204893D01*
X109719000Y-94055937D01*
X109719000Y-93904063D01*
X109748629Y-93755107D01*
X109806748Y-93614794D01*
X109891125Y-93488516D01*
X109998516Y-93381125D01*
X110124794Y-93296748D01*
X110265107Y-93238629D01*
X110364411Y-93218876D01*
X110414062Y-93209000D01*
X110565938Y-93209000D01*
X110615589Y-93218876D01*
G37*
G36*
X116965589Y-93218876D02*
G01*
X117064893Y-93238629D01*
X117205206Y-93296748D01*
X117331484Y-93381125D01*
X117438875Y-93488516D01*
X117523252Y-93614794D01*
X117581371Y-93755107D01*
X117611000Y-93904063D01*
X117611000Y-94055937D01*
X117581371Y-94204893D01*
X117523252Y-94345206D01*
X117438875Y-94471484D01*
X117331484Y-94578875D01*
X117205206Y-94663252D01*
X117064893Y-94721371D01*
X116965589Y-94741124D01*
X116915938Y-94751000D01*
X116764062Y-94751000D01*
X116714411Y-94741124D01*
X116615107Y-94721371D01*
X116474794Y-94663252D01*
X116348516Y-94578875D01*
X116241125Y-94471484D01*
X116156748Y-94345206D01*
X116098629Y-94204893D01*
X116069000Y-94055937D01*
X116069000Y-93904063D01*
X116098629Y-93755107D01*
X116156748Y-93614794D01*
X116241125Y-93488516D01*
X116348516Y-93381125D01*
X116474794Y-93296748D01*
X116615107Y-93238629D01*
X116714411Y-93218876D01*
X116764062Y-93209000D01*
X116915938Y-93209000D01*
X116965589Y-93218876D01*
G37*
G36*
X123315589Y-93218876D02*
G01*
X123414893Y-93238629D01*
X123555206Y-93296748D01*
X123681484Y-93381125D01*
X123788875Y-93488516D01*
X123873252Y-93614794D01*
X123931371Y-93755107D01*
X123961000Y-93904063D01*
X123961000Y-94055937D01*
X123931371Y-94204893D01*
X123873252Y-94345206D01*
X123788875Y-94471484D01*
X123681484Y-94578875D01*
X123555206Y-94663252D01*
X123414893Y-94721371D01*
X123315589Y-94741124D01*
X123265938Y-94751000D01*
X123114062Y-94751000D01*
X123064411Y-94741124D01*
X122965107Y-94721371D01*
X122824794Y-94663252D01*
X122698516Y-94578875D01*
X122591125Y-94471484D01*
X122506748Y-94345206D01*
X122448629Y-94204893D01*
X122419000Y-94055937D01*
X122419000Y-93904063D01*
X122448629Y-93755107D01*
X122506748Y-93614794D01*
X122591125Y-93488516D01*
X122698516Y-93381125D01*
X122824794Y-93296748D01*
X122965107Y-93238629D01*
X123064411Y-93218876D01*
X123114062Y-93209000D01*
X123265938Y-93209000D01*
X123315589Y-93218876D01*
G37*
G36*
X157593512Y-90543927D02*
G01*
X157742812Y-90573624D01*
X157906784Y-90641544D01*
X158054354Y-90740147D01*
X158179853Y-90865646D01*
X158278456Y-91013216D01*
X158346376Y-91177188D01*
X158381000Y-91351259D01*
X158381000Y-91528741D01*
X158346376Y-91702812D01*
X158278456Y-91866784D01*
X158179853Y-92014354D01*
X158054354Y-92139853D01*
X157906784Y-92238456D01*
X157742812Y-92306376D01*
X157593512Y-92336073D01*
X157568742Y-92341000D01*
X157391258Y-92341000D01*
X157366488Y-92336073D01*
X157217188Y-92306376D01*
X157053216Y-92238456D01*
X156905646Y-92139853D01*
X156780147Y-92014354D01*
X156681544Y-91866784D01*
X156613624Y-91702812D01*
X156579000Y-91528741D01*
X156579000Y-91351259D01*
X156613624Y-91177188D01*
X156681544Y-91013216D01*
X156780147Y-90865646D01*
X156905646Y-90740147D01*
X157053216Y-90641544D01*
X157217188Y-90573624D01*
X157366488Y-90543927D01*
X157391258Y-90539000D01*
X157568742Y-90539000D01*
X157593512Y-90543927D01*
G37*
G36*
X105041000Y-92341000D02*
G01*
X103239000Y-92341000D01*
X103239000Y-90539000D01*
X105041000Y-90539000D01*
X105041000Y-92341000D01*
G37*
G36*
X123315589Y-90678876D02*
G01*
X123414893Y-90698629D01*
X123555206Y-90756748D01*
X123681484Y-90841125D01*
X123788875Y-90948516D01*
X123873252Y-91074794D01*
X123931371Y-91215107D01*
X123961000Y-91364063D01*
X123961000Y-91515937D01*
X123931371Y-91664893D01*
X123873252Y-91805206D01*
X123788875Y-91931484D01*
X123681484Y-92038875D01*
X123555206Y-92123252D01*
X123414893Y-92181371D01*
X123315589Y-92201124D01*
X123265938Y-92211000D01*
X123114062Y-92211000D01*
X123064411Y-92201124D01*
X122965107Y-92181371D01*
X122824794Y-92123252D01*
X122698516Y-92038875D01*
X122591125Y-91931484D01*
X122506748Y-91805206D01*
X122448629Y-91664893D01*
X122419000Y-91515937D01*
X122419000Y-91364063D01*
X122448629Y-91215107D01*
X122506748Y-91074794D01*
X122591125Y-90948516D01*
X122698516Y-90841125D01*
X122824794Y-90756748D01*
X122965107Y-90698629D01*
X123064411Y-90678876D01*
X123114062Y-90669000D01*
X123265938Y-90669000D01*
X123315589Y-90678876D01*
G37*
G36*
X110615589Y-90678876D02*
G01*
X110714893Y-90698629D01*
X110855206Y-90756748D01*
X110981484Y-90841125D01*
X111088875Y-90948516D01*
X111173252Y-91074794D01*
X111231371Y-91215107D01*
X111261000Y-91364063D01*
X111261000Y-91515937D01*
X111231371Y-91664893D01*
X111173252Y-91805206D01*
X111088875Y-91931484D01*
X110981484Y-92038875D01*
X110855206Y-92123252D01*
X110714893Y-92181371D01*
X110615589Y-92201124D01*
X110565938Y-92211000D01*
X110414062Y-92211000D01*
X110364411Y-92201124D01*
X110265107Y-92181371D01*
X110124794Y-92123252D01*
X109998516Y-92038875D01*
X109891125Y-91931484D01*
X109806748Y-91805206D01*
X109748629Y-91664893D01*
X109719000Y-91515937D01*
X109719000Y-91364063D01*
X109748629Y-91215107D01*
X109806748Y-91074794D01*
X109891125Y-90948516D01*
X109998516Y-90841125D01*
X110124794Y-90756748D01*
X110265107Y-90698629D01*
X110364411Y-90678876D01*
X110414062Y-90669000D01*
X110565938Y-90669000D01*
X110615589Y-90678876D01*
G37*
G36*
X116965589Y-90678876D02*
G01*
X117064893Y-90698629D01*
X117205206Y-90756748D01*
X117331484Y-90841125D01*
X117438875Y-90948516D01*
X117523252Y-91074794D01*
X117581371Y-91215107D01*
X117611000Y-91364063D01*
X117611000Y-91515937D01*
X117581371Y-91664893D01*
X117523252Y-91805206D01*
X117438875Y-91931484D01*
X117331484Y-92038875D01*
X117205206Y-92123252D01*
X117064893Y-92181371D01*
X116965589Y-92201124D01*
X116915938Y-92211000D01*
X116764062Y-92211000D01*
X116714411Y-92201124D01*
X116615107Y-92181371D01*
X116474794Y-92123252D01*
X116348516Y-92038875D01*
X116241125Y-91931484D01*
X116156748Y-91805206D01*
X116098629Y-91664893D01*
X116069000Y-91515937D01*
X116069000Y-91364063D01*
X116098629Y-91215107D01*
X116156748Y-91074794D01*
X116241125Y-90948516D01*
X116348516Y-90841125D01*
X116474794Y-90756748D01*
X116615107Y-90698629D01*
X116714411Y-90678876D01*
X116764062Y-90669000D01*
X116915938Y-90669000D01*
X116965589Y-90678876D01*
G37*
G36*
X157593512Y-88003927D02*
G01*
X157742812Y-88033624D01*
X157906784Y-88101544D01*
X158054354Y-88200147D01*
X158179853Y-88325646D01*
X158278456Y-88473216D01*
X158346376Y-88637188D01*
X158381000Y-88811259D01*
X158381000Y-88988741D01*
X158346376Y-89162812D01*
X158278456Y-89326784D01*
X158179853Y-89474354D01*
X158054354Y-89599853D01*
X157906784Y-89698456D01*
X157742812Y-89766376D01*
X157593512Y-89796073D01*
X157568742Y-89801000D01*
X157391258Y-89801000D01*
X157366488Y-89796073D01*
X157217188Y-89766376D01*
X157053216Y-89698456D01*
X156905646Y-89599853D01*
X156780147Y-89474354D01*
X156681544Y-89326784D01*
X156613624Y-89162812D01*
X156579000Y-88988741D01*
X156579000Y-88811259D01*
X156613624Y-88637188D01*
X156681544Y-88473216D01*
X156780147Y-88325646D01*
X156905646Y-88200147D01*
X157053216Y-88101544D01*
X157217188Y-88033624D01*
X157366488Y-88003927D01*
X157391258Y-87999000D01*
X157568742Y-87999000D01*
X157593512Y-88003927D01*
G37*
G36*
X157593512Y-85463927D02*
G01*
X157742812Y-85493624D01*
X157906784Y-85561544D01*
X158054354Y-85660147D01*
X158179853Y-85785646D01*
X158278456Y-85933216D01*
X158346376Y-86097188D01*
X158381000Y-86271259D01*
X158381000Y-86448741D01*
X158346376Y-86622812D01*
X158278456Y-86786784D01*
X158179853Y-86934354D01*
X158054354Y-87059853D01*
X157906784Y-87158456D01*
X157742812Y-87226376D01*
X157593512Y-87256073D01*
X157568742Y-87261000D01*
X157391258Y-87261000D01*
X157366488Y-87256073D01*
X157217188Y-87226376D01*
X157053216Y-87158456D01*
X156905646Y-87059853D01*
X156780147Y-86934354D01*
X156681544Y-86786784D01*
X156613624Y-86622812D01*
X156579000Y-86448741D01*
X156579000Y-86271259D01*
X156613624Y-86097188D01*
X156681544Y-85933216D01*
X156780147Y-85785646D01*
X156905646Y-85660147D01*
X157053216Y-85561544D01*
X157217188Y-85493624D01*
X157366488Y-85463927D01*
X157391258Y-85459000D01*
X157568742Y-85459000D01*
X157593512Y-85463927D01*
G37*
G36*
X157593512Y-82923927D02*
G01*
X157742812Y-82953624D01*
X157906784Y-83021544D01*
X158054354Y-83120147D01*
X158179853Y-83245646D01*
X158278456Y-83393216D01*
X158346376Y-83557188D01*
X158381000Y-83731259D01*
X158381000Y-83908741D01*
X158346376Y-84082812D01*
X158278456Y-84246784D01*
X158179853Y-84394354D01*
X158054354Y-84519853D01*
X157906784Y-84618456D01*
X157742812Y-84686376D01*
X157593512Y-84716073D01*
X157568742Y-84721000D01*
X157391258Y-84721000D01*
X157366488Y-84716073D01*
X157217188Y-84686376D01*
X157053216Y-84618456D01*
X156905646Y-84519853D01*
X156780147Y-84394354D01*
X156681544Y-84246784D01*
X156613624Y-84082812D01*
X156579000Y-83908741D01*
X156579000Y-83731259D01*
X156613624Y-83557188D01*
X156681544Y-83393216D01*
X156780147Y-83245646D01*
X156905646Y-83120147D01*
X157053216Y-83021544D01*
X157217188Y-82953624D01*
X157366488Y-82923927D01*
X157391258Y-82919000D01*
X157568742Y-82919000D01*
X157593512Y-82923927D01*
G37*
G36*
X158381000Y-82181000D02*
G01*
X156579000Y-82181000D01*
X156579000Y-80379000D01*
X158381000Y-80379000D01*
X158381000Y-82181000D01*
G37*
G36*
X125267597Y-71788056D02*
G01*
X125381521Y-71835245D01*
X125381522Y-71835246D01*
X125484052Y-71903754D01*
X125571246Y-71990948D01*
X125571247Y-71990950D01*
X125639755Y-72093479D01*
X125686944Y-72207403D01*
X125711000Y-72328343D01*
X125711000Y-72451657D01*
X125686944Y-72572597D01*
X125639755Y-72686521D01*
X125639754Y-72686522D01*
X125571246Y-72789052D01*
X125484052Y-72876246D01*
X125442017Y-72904333D01*
X125381521Y-72944755D01*
X125267597Y-72991944D01*
X125146657Y-73016000D01*
X125023343Y-73016000D01*
X124902403Y-72991944D01*
X124788479Y-72944755D01*
X124727983Y-72904333D01*
X124685948Y-72876246D01*
X124598754Y-72789052D01*
X124530246Y-72686522D01*
X124530245Y-72686521D01*
X124483056Y-72572597D01*
X124459000Y-72451657D01*
X124459000Y-72328343D01*
X124483056Y-72207403D01*
X124530245Y-72093479D01*
X124598753Y-71990950D01*
X124598754Y-71990948D01*
X124685948Y-71903754D01*
X124788478Y-71835246D01*
X124788479Y-71835245D01*
X124902403Y-71788056D01*
X125023343Y-71764000D01*
X125146657Y-71764000D01*
X125267597Y-71788056D01*
G37*
G36*
X132504250Y-71769406D02*
G01*
X132551133Y-71783628D01*
X132594333Y-71806719D01*
X132632203Y-71837797D01*
X132663281Y-71875667D01*
X132686372Y-71918867D01*
X132700594Y-71965750D01*
X132706000Y-72020640D01*
X132706000Y-72759360D01*
X132700594Y-72814250D01*
X132686372Y-72861133D01*
X132663281Y-72904333D01*
X132632203Y-72942203D01*
X132594333Y-72973281D01*
X132551133Y-72996372D01*
X132504250Y-73010594D01*
X132449360Y-73016000D01*
X131710640Y-73016000D01*
X131655750Y-73010594D01*
X131608867Y-72996372D01*
X131565667Y-72973281D01*
X131527797Y-72942203D01*
X131496719Y-72904333D01*
X131473628Y-72861133D01*
X131459406Y-72814250D01*
X131454000Y-72759360D01*
X131454000Y-72020640D01*
X131459406Y-71965750D01*
X131473628Y-71918867D01*
X131496719Y-71875667D01*
X131527797Y-71837797D01*
X131565667Y-71806719D01*
X131608867Y-71783628D01*
X131655750Y-71769406D01*
X131710640Y-71764000D01*
X132449360Y-71764000D01*
X132504250Y-71769406D01*
G37*
G36*
X136062597Y-71788056D02*
G01*
X136176521Y-71835245D01*
X136176522Y-71835246D01*
X136279052Y-71903754D01*
X136366246Y-71990948D01*
X136366247Y-71990950D01*
X136434755Y-72093479D01*
X136481944Y-72207403D01*
X136506000Y-72328343D01*
X136506000Y-72451657D01*
X136481944Y-72572597D01*
X136434755Y-72686521D01*
X136434754Y-72686522D01*
X136366246Y-72789052D01*
X136279052Y-72876246D01*
X136237017Y-72904333D01*
X136176521Y-72944755D01*
X136062597Y-72991944D01*
X135941657Y-73016000D01*
X135818343Y-73016000D01*
X135697403Y-72991944D01*
X135583479Y-72944755D01*
X135522983Y-72904333D01*
X135480948Y-72876246D01*
X135393754Y-72789052D01*
X135325246Y-72686522D01*
X135325245Y-72686521D01*
X135278056Y-72572597D01*
X135254000Y-72451657D01*
X135254000Y-72328343D01*
X135278056Y-72207403D01*
X135325245Y-72093479D01*
X135393753Y-71990950D01*
X135393754Y-71990948D01*
X135480948Y-71903754D01*
X135583478Y-71835246D01*
X135583479Y-71835245D01*
X135697403Y-71788056D01*
X135818343Y-71764000D01*
X135941657Y-71764000D01*
X136062597Y-71788056D01*
G37*
G36*
X121709250Y-71769406D02*
G01*
X121756133Y-71783628D01*
X121799333Y-71806719D01*
X121837203Y-71837797D01*
X121868281Y-71875667D01*
X121891372Y-71918867D01*
X121905594Y-71965750D01*
X121911000Y-72020640D01*
X121911000Y-72759360D01*
X121905594Y-72814250D01*
X121891372Y-72861133D01*
X121868281Y-72904333D01*
X121837203Y-72942203D01*
X121799333Y-72973281D01*
X121756133Y-72996372D01*
X121709250Y-73010594D01*
X121654360Y-73016000D01*
X120915640Y-73016000D01*
X120860750Y-73010594D01*
X120813867Y-72996372D01*
X120770667Y-72973281D01*
X120732797Y-72942203D01*
X120701719Y-72904333D01*
X120678628Y-72861133D01*
X120664406Y-72814250D01*
X120659000Y-72759360D01*
X120659000Y-72020640D01*
X120664406Y-71965750D01*
X120678628Y-71918867D01*
X120701719Y-71875667D01*
X120732797Y-71837797D01*
X120770667Y-71806719D01*
X120813867Y-71783628D01*
X120860750Y-71769406D01*
X120915640Y-71764000D01*
X121654360Y-71764000D01*
X121709250Y-71769406D01*
G37*
G36*
X153783512Y-70223927D02*
G01*
X153932812Y-70253624D01*
X154096784Y-70321544D01*
X154244354Y-70420147D01*
X154369853Y-70545646D01*
X154468456Y-70693216D01*
X154536376Y-70857188D01*
X154571000Y-71031259D01*
X154571000Y-71208741D01*
X154536376Y-71382812D01*
X154468456Y-71546784D01*
X154369853Y-71694354D01*
X154244354Y-71819853D01*
X154096784Y-71918456D01*
X153932812Y-71986376D01*
X153784195Y-72015937D01*
X153758742Y-72021000D01*
X153581258Y-72021000D01*
X153555805Y-72015937D01*
X153407188Y-71986376D01*
X153243216Y-71918456D01*
X153095646Y-71819853D01*
X152970147Y-71694354D01*
X152871544Y-71546784D01*
X152803624Y-71382812D01*
X152769000Y-71208741D01*
X152769000Y-71031259D01*
X152803624Y-70857188D01*
X152871544Y-70693216D01*
X152970147Y-70545646D01*
X153095646Y-70420147D01*
X153243216Y-70321544D01*
X153407188Y-70253624D01*
X153556488Y-70223927D01*
X153581258Y-70219000D01*
X153758742Y-70219000D01*
X153783512Y-70223927D01*
G37*
G36*
X151243512Y-70223927D02*
G01*
X151392812Y-70253624D01*
X151556784Y-70321544D01*
X151704354Y-70420147D01*
X151829853Y-70545646D01*
X151928456Y-70693216D01*
X151996376Y-70857188D01*
X152031000Y-71031259D01*
X152031000Y-71208741D01*
X151996376Y-71382812D01*
X151928456Y-71546784D01*
X151829853Y-71694354D01*
X151704354Y-71819853D01*
X151556784Y-71918456D01*
X151392812Y-71986376D01*
X151244195Y-72015937D01*
X151218742Y-72021000D01*
X151041258Y-72021000D01*
X151015805Y-72015937D01*
X150867188Y-71986376D01*
X150703216Y-71918456D01*
X150555646Y-71819853D01*
X150430147Y-71694354D01*
X150331544Y-71546784D01*
X150263624Y-71382812D01*
X150229000Y-71208741D01*
X150229000Y-71031259D01*
X150263624Y-70857188D01*
X150331544Y-70693216D01*
X150430147Y-70545646D01*
X150555646Y-70420147D01*
X150703216Y-70321544D01*
X150867188Y-70253624D01*
X151016488Y-70223927D01*
X151041258Y-70219000D01*
X151218742Y-70219000D01*
X151243512Y-70223927D01*
G37*
G36*
X110818228Y-68396703D02*
G01*
X110973100Y-68460853D01*
X111112481Y-68553985D01*
X111231015Y-68672519D01*
X111324147Y-68811900D01*
X111388297Y-68966772D01*
X111421000Y-69131184D01*
X111421000Y-69298816D01*
X111388297Y-69463228D01*
X111324147Y-69618100D01*
X111231015Y-69757481D01*
X111112481Y-69876015D01*
X110973100Y-69969147D01*
X110818228Y-70033297D01*
X110653816Y-70066000D01*
X110486184Y-70066000D01*
X110321772Y-70033297D01*
X110166900Y-69969147D01*
X110027519Y-69876015D01*
X109908985Y-69757481D01*
X109815853Y-69618100D01*
X109751703Y-69463228D01*
X109719000Y-69298816D01*
X109719000Y-69131184D01*
X109751703Y-68966772D01*
X109815853Y-68811900D01*
X109908985Y-68672519D01*
X110027519Y-68553985D01*
X110166900Y-68460853D01*
X110321772Y-68396703D01*
X110486184Y-68364000D01*
X110653816Y-68364000D01*
X110818228Y-68396703D01*
G37*
G36*
X115818228Y-68396703D02*
G01*
X115973100Y-68460853D01*
X116112481Y-68553985D01*
X116231015Y-68672519D01*
X116324147Y-68811900D01*
X116388297Y-68966772D01*
X116421000Y-69131184D01*
X116421000Y-69298816D01*
X116388297Y-69463228D01*
X116324147Y-69618100D01*
X116231015Y-69757481D01*
X116112481Y-69876015D01*
X115973100Y-69969147D01*
X115818228Y-70033297D01*
X115653816Y-70066000D01*
X115486184Y-70066000D01*
X115321772Y-70033297D01*
X115166900Y-69969147D01*
X115027519Y-69876015D01*
X114908985Y-69757481D01*
X114815853Y-69618100D01*
X114751703Y-69463228D01*
X114719000Y-69298816D01*
X114719000Y-69131184D01*
X114751703Y-68966772D01*
X114815853Y-68811900D01*
X114908985Y-68672519D01*
X115027519Y-68553985D01*
X115166900Y-68460853D01*
X115321772Y-68396703D01*
X115486184Y-68364000D01*
X115653816Y-68364000D01*
X115818228Y-68396703D01*
G37*
G36*
X151243512Y-67683927D02*
G01*
X151392812Y-67713624D01*
X151556784Y-67781544D01*
X151704354Y-67880147D01*
X151829853Y-68005646D01*
X151928456Y-68153216D01*
X151996376Y-68317188D01*
X152031000Y-68491259D01*
X152031000Y-68668741D01*
X151996376Y-68842812D01*
X151928456Y-69006784D01*
X151829853Y-69154354D01*
X151704354Y-69279853D01*
X151556784Y-69378456D01*
X151392812Y-69446376D01*
X151243512Y-69476073D01*
X151218742Y-69481000D01*
X151041258Y-69481000D01*
X151016488Y-69476073D01*
X150867188Y-69446376D01*
X150703216Y-69378456D01*
X150555646Y-69279853D01*
X150430147Y-69154354D01*
X150331544Y-69006784D01*
X150263624Y-68842812D01*
X150229000Y-68668741D01*
X150229000Y-68491259D01*
X150263624Y-68317188D01*
X150331544Y-68153216D01*
X150430147Y-68005646D01*
X150555646Y-67880147D01*
X150703216Y-67781544D01*
X150867188Y-67713624D01*
X151016488Y-67683927D01*
X151041258Y-67679000D01*
X151218742Y-67679000D01*
X151243512Y-67683927D01*
G37*
G36*
X153783512Y-67683927D02*
G01*
X153932812Y-67713624D01*
X154096784Y-67781544D01*
X154244354Y-67880147D01*
X154369853Y-68005646D01*
X154468456Y-68153216D01*
X154536376Y-68317188D01*
X154571000Y-68491259D01*
X154571000Y-68668741D01*
X154536376Y-68842812D01*
X154468456Y-69006784D01*
X154369853Y-69154354D01*
X154244354Y-69279853D01*
X154096784Y-69378456D01*
X153932812Y-69446376D01*
X153783512Y-69476073D01*
X153758742Y-69481000D01*
X153581258Y-69481000D01*
X153556488Y-69476073D01*
X153407188Y-69446376D01*
X153243216Y-69378456D01*
X153095646Y-69279853D01*
X152970147Y-69154354D01*
X152871544Y-69006784D01*
X152803624Y-68842812D01*
X152769000Y-68668741D01*
X152769000Y-68491259D01*
X152803624Y-68317188D01*
X152871544Y-68153216D01*
X152970147Y-68005646D01*
X153095646Y-67880147D01*
X153243216Y-67781544D01*
X153407188Y-67713624D01*
X153556488Y-67683927D01*
X153581258Y-67679000D01*
X153758742Y-67679000D01*
X153783512Y-67683927D01*
G37*
G36*
X153783512Y-65143927D02*
G01*
X153932812Y-65173624D01*
X154096784Y-65241544D01*
X154244354Y-65340147D01*
X154369853Y-65465646D01*
X154468456Y-65613216D01*
X154536376Y-65777188D01*
X154571000Y-65951259D01*
X154571000Y-66128741D01*
X154536376Y-66302812D01*
X154468456Y-66466784D01*
X154369853Y-66614354D01*
X154244354Y-66739853D01*
X154096784Y-66838456D01*
X153932812Y-66906376D01*
X153783512Y-66936073D01*
X153758742Y-66941000D01*
X153581258Y-66941000D01*
X153556488Y-66936073D01*
X153407188Y-66906376D01*
X153243216Y-66838456D01*
X153095646Y-66739853D01*
X152970147Y-66614354D01*
X152871544Y-66466784D01*
X152803624Y-66302812D01*
X152769000Y-66128741D01*
X152769000Y-65951259D01*
X152803624Y-65777188D01*
X152871544Y-65613216D01*
X152970147Y-65465646D01*
X153095646Y-65340147D01*
X153243216Y-65241544D01*
X153407188Y-65173624D01*
X153556488Y-65143927D01*
X153581258Y-65139000D01*
X153758742Y-65139000D01*
X153783512Y-65143927D01*
G37*
G36*
X152031000Y-66941000D02*
G01*
X150229000Y-66941000D01*
X150229000Y-65139000D01*
X152031000Y-65139000D01*
X152031000Y-66941000D01*
G37*
G36*
X132190142Y-63988242D02*
G01*
X132338101Y-64049529D01*
X132471255Y-64138499D01*
X132584501Y-64251745D01*
X132673471Y-64384899D01*
X132734758Y-64532858D01*
X132766000Y-64689925D01*
X132766000Y-64850075D01*
X132734758Y-65007142D01*
X132673471Y-65155101D01*
X132584501Y-65288255D01*
X132471255Y-65401501D01*
X132338101Y-65490471D01*
X132190142Y-65551758D01*
X132033075Y-65583000D01*
X131872925Y-65583000D01*
X131715858Y-65551758D01*
X131567899Y-65490471D01*
X131434745Y-65401501D01*
X131321499Y-65288255D01*
X131232529Y-65155101D01*
X131171242Y-65007142D01*
X131140000Y-64850075D01*
X131140000Y-64689925D01*
X131171242Y-64532858D01*
X131232529Y-64384899D01*
X131321499Y-64251745D01*
X131434745Y-64138499D01*
X131567899Y-64049529D01*
X131715858Y-63988242D01*
X131872925Y-63957000D01*
X132033075Y-63957000D01*
X132190142Y-63988242D01*
G37*
G36*
X125459142Y-63988242D02*
G01*
X125607101Y-64049529D01*
X125740255Y-64138499D01*
X125853501Y-64251745D01*
X125942471Y-64384899D01*
X126003758Y-64532858D01*
X126035000Y-64689925D01*
X126035000Y-64850075D01*
X126003758Y-65007142D01*
X125942471Y-65155101D01*
X125853501Y-65288255D01*
X125740255Y-65401501D01*
X125607101Y-65490471D01*
X125459142Y-65551758D01*
X125302075Y-65583000D01*
X125141925Y-65583000D01*
X124984858Y-65551758D01*
X124836899Y-65490471D01*
X124703745Y-65401501D01*
X124590499Y-65288255D01*
X124501529Y-65155101D01*
X124440242Y-65007142D01*
X124409000Y-64850075D01*
X124409000Y-64689925D01*
X124440242Y-64532858D01*
X124501529Y-64384899D01*
X124590499Y-64251745D01*
X124703745Y-64138499D01*
X124836899Y-64049529D01*
X124984858Y-63988242D01*
X125141925Y-63957000D01*
X125302075Y-63957000D01*
X125459142Y-63988242D01*
G37*
G36*
X121395142Y-63988242D02*
G01*
X121543101Y-64049529D01*
X121676255Y-64138499D01*
X121789501Y-64251745D01*
X121878471Y-64384899D01*
X121939758Y-64532858D01*
X121971000Y-64689925D01*
X121971000Y-64850075D01*
X121939758Y-65007142D01*
X121878471Y-65155101D01*
X121789501Y-65288255D01*
X121676255Y-65401501D01*
X121543101Y-65490471D01*
X121395142Y-65551758D01*
X121238075Y-65583000D01*
X121077925Y-65583000D01*
X120920858Y-65551758D01*
X120772899Y-65490471D01*
X120639745Y-65401501D01*
X120526499Y-65288255D01*
X120437529Y-65155101D01*
X120376242Y-65007142D01*
X120345000Y-64850075D01*
X120345000Y-64689925D01*
X120376242Y-64532858D01*
X120437529Y-64384899D01*
X120526499Y-64251745D01*
X120639745Y-64138499D01*
X120772899Y-64049529D01*
X120920858Y-63988242D01*
X121077925Y-63957000D01*
X121238075Y-63957000D01*
X121395142Y-63988242D01*
G37*
G36*
X136254142Y-63988242D02*
G01*
X136402101Y-64049529D01*
X136535255Y-64138499D01*
X136648501Y-64251745D01*
X136737471Y-64384899D01*
X136798758Y-64532858D01*
X136830000Y-64689925D01*
X136830000Y-64850075D01*
X136798758Y-65007142D01*
X136737471Y-65155101D01*
X136648501Y-65288255D01*
X136535255Y-65401501D01*
X136402101Y-65490471D01*
X136254142Y-65551758D01*
X136097075Y-65583000D01*
X135936925Y-65583000D01*
X135779858Y-65551758D01*
X135631899Y-65490471D01*
X135498745Y-65401501D01*
X135385499Y-65288255D01*
X135296529Y-65155101D01*
X135235242Y-65007142D01*
X135204000Y-64850075D01*
X135204000Y-64689925D01*
X135235242Y-64532858D01*
X135296529Y-64384899D01*
X135385499Y-64251745D01*
X135498745Y-64138499D01*
X135631899Y-64049529D01*
X135779858Y-63988242D01*
X135936925Y-63957000D01*
X136097075Y-63957000D01*
X136254142Y-63988242D01*
G37*
G36*
X157593512Y-60063927D02*
G01*
X157742812Y-60093624D01*
X157906784Y-60161544D01*
X158054354Y-60260147D01*
X158179853Y-60385646D01*
X158278456Y-60533216D01*
X158346376Y-60697188D01*
X158381000Y-60871259D01*
X158381000Y-61048741D01*
X158346376Y-61222812D01*
X158278456Y-61386784D01*
X158179853Y-61534354D01*
X158054354Y-61659853D01*
X157906784Y-61758456D01*
X157742812Y-61826376D01*
X157593512Y-61856073D01*
X157568742Y-61861000D01*
X157391258Y-61861000D01*
X157366488Y-61856073D01*
X157217188Y-61826376D01*
X157053216Y-61758456D01*
X156905646Y-61659853D01*
X156780147Y-61534354D01*
X156681544Y-61386784D01*
X156613624Y-61222812D01*
X156579000Y-61048741D01*
X156579000Y-60871259D01*
X156613624Y-60697188D01*
X156681544Y-60533216D01*
X156780147Y-60385646D01*
X156905646Y-60260147D01*
X157053216Y-60161544D01*
X157217188Y-60093624D01*
X157366488Y-60063927D01*
X157391258Y-60059000D01*
X157568742Y-60059000D01*
X157593512Y-60063927D01*
G37*
G36*
X104253512Y-60063927D02*
G01*
X104402812Y-60093624D01*
X104566784Y-60161544D01*
X104714354Y-60260147D01*
X104839853Y-60385646D01*
X104938456Y-60533216D01*
X105006376Y-60697188D01*
X105041000Y-60871259D01*
X105041000Y-61048741D01*
X105006376Y-61222812D01*
X104938456Y-61386784D01*
X104839853Y-61534354D01*
X104714354Y-61659853D01*
X104566784Y-61758456D01*
X104402812Y-61826376D01*
X104253512Y-61856073D01*
X104228742Y-61861000D01*
X104051258Y-61861000D01*
X104026488Y-61856073D01*
X103877188Y-61826376D01*
X103713216Y-61758456D01*
X103565646Y-61659853D01*
X103440147Y-61534354D01*
X103341544Y-61386784D01*
X103273624Y-61222812D01*
X103239000Y-61048741D01*
X103239000Y-60871259D01*
X103273624Y-60697188D01*
X103341544Y-60533216D01*
X103440147Y-60385646D01*
X103565646Y-60260147D01*
X103713216Y-60161544D01*
X103877188Y-60093624D01*
X104026488Y-60063927D01*
X104051258Y-60059000D01*
X104228742Y-60059000D01*
X104253512Y-60063927D01*
G37*
G36*
X125967142Y-60178242D02*
G01*
X126115101Y-60239529D01*
X126248255Y-60328499D01*
X126361501Y-60441745D01*
X126450471Y-60574899D01*
X126511758Y-60722858D01*
X126543000Y-60879925D01*
X126543000Y-61040075D01*
X126511758Y-61197142D01*
X126450471Y-61345101D01*
X126361501Y-61478255D01*
X126248255Y-61591501D01*
X126115101Y-61680471D01*
X125967142Y-61741758D01*
X125810075Y-61773000D01*
X125649925Y-61773000D01*
X125492858Y-61741758D01*
X125344899Y-61680471D01*
X125211745Y-61591501D01*
X125098499Y-61478255D01*
X125009529Y-61345101D01*
X124948242Y-61197142D01*
X124917000Y-61040075D01*
X124917000Y-60879925D01*
X124948242Y-60722858D01*
X125009529Y-60574899D01*
X125098499Y-60441745D01*
X125211745Y-60328499D01*
X125344899Y-60239529D01*
X125492858Y-60178242D01*
X125649925Y-60147000D01*
X125810075Y-60147000D01*
X125967142Y-60178242D01*
G37*
G36*
X121014142Y-60178242D02*
G01*
X121162101Y-60239529D01*
X121295255Y-60328499D01*
X121408501Y-60441745D01*
X121497471Y-60574899D01*
X121558758Y-60722858D01*
X121590000Y-60879925D01*
X121590000Y-61040075D01*
X121558758Y-61197142D01*
X121497471Y-61345101D01*
X121408501Y-61478255D01*
X121295255Y-61591501D01*
X121162101Y-61680471D01*
X121014142Y-61741758D01*
X120857075Y-61773000D01*
X120696925Y-61773000D01*
X120539858Y-61741758D01*
X120391899Y-61680471D01*
X120258745Y-61591501D01*
X120145499Y-61478255D01*
X120056529Y-61345101D01*
X119995242Y-61197142D01*
X119964000Y-61040075D01*
X119964000Y-60879925D01*
X119995242Y-60722858D01*
X120056529Y-60574899D01*
X120145499Y-60441745D01*
X120258745Y-60328499D01*
X120391899Y-60239529D01*
X120539858Y-60178242D01*
X120696925Y-60147000D01*
X120857075Y-60147000D01*
X121014142Y-60178242D01*
G37*
G36*
X131809142Y-60178242D02*
G01*
X131957101Y-60239529D01*
X132090255Y-60328499D01*
X132203501Y-60441745D01*
X132292471Y-60574899D01*
X132353758Y-60722858D01*
X132385000Y-60879925D01*
X132385000Y-61040075D01*
X132353758Y-61197142D01*
X132292471Y-61345101D01*
X132203501Y-61478255D01*
X132090255Y-61591501D01*
X131957101Y-61680471D01*
X131809142Y-61741758D01*
X131652075Y-61773000D01*
X131491925Y-61773000D01*
X131334858Y-61741758D01*
X131186899Y-61680471D01*
X131053745Y-61591501D01*
X130940499Y-61478255D01*
X130851529Y-61345101D01*
X130790242Y-61197142D01*
X130759000Y-61040075D01*
X130759000Y-60879925D01*
X130790242Y-60722858D01*
X130851529Y-60574899D01*
X130940499Y-60441745D01*
X131053745Y-60328499D01*
X131186899Y-60239529D01*
X131334858Y-60178242D01*
X131491925Y-60147000D01*
X131652075Y-60147000D01*
X131809142Y-60178242D01*
G37*
G36*
X136762142Y-60178242D02*
G01*
X136910101Y-60239529D01*
X137043255Y-60328499D01*
X137156501Y-60441745D01*
X137245471Y-60574899D01*
X137306758Y-60722858D01*
X137338000Y-60879925D01*
X137338000Y-61040075D01*
X137306758Y-61197142D01*
X137245471Y-61345101D01*
X137156501Y-61478255D01*
X137043255Y-61591501D01*
X136910101Y-61680471D01*
X136762142Y-61741758D01*
X136605075Y-61773000D01*
X136444925Y-61773000D01*
X136287858Y-61741758D01*
X136139899Y-61680471D01*
X136006745Y-61591501D01*
X135893499Y-61478255D01*
X135804529Y-61345101D01*
X135743242Y-61197142D01*
X135712000Y-61040075D01*
X135712000Y-60879925D01*
X135743242Y-60722858D01*
X135804529Y-60574899D01*
X135893499Y-60441745D01*
X136006745Y-60328499D01*
X136139899Y-60239529D01*
X136287858Y-60178242D01*
X136444925Y-60147000D01*
X136605075Y-60147000D01*
X136762142Y-60178242D01*
G37*
G36*
X104253512Y-57523927D02*
G01*
X104402812Y-57553624D01*
X104566784Y-57621544D01*
X104714354Y-57720147D01*
X104839853Y-57845646D01*
X104938456Y-57993216D01*
X105006376Y-58157188D01*
X105041000Y-58331259D01*
X105041000Y-58508741D01*
X105006376Y-58682812D01*
X104938456Y-58846784D01*
X104839853Y-58994354D01*
X104714354Y-59119853D01*
X104566784Y-59218456D01*
X104402812Y-59286376D01*
X104253512Y-59316073D01*
X104228742Y-59321000D01*
X104051258Y-59321000D01*
X104026488Y-59316073D01*
X103877188Y-59286376D01*
X103713216Y-59218456D01*
X103565646Y-59119853D01*
X103440147Y-58994354D01*
X103341544Y-58846784D01*
X103273624Y-58682812D01*
X103239000Y-58508741D01*
X103239000Y-58331259D01*
X103273624Y-58157188D01*
X103341544Y-57993216D01*
X103440147Y-57845646D01*
X103565646Y-57720147D01*
X103713216Y-57621544D01*
X103877188Y-57553624D01*
X104026488Y-57523927D01*
X104051258Y-57519000D01*
X104228742Y-57519000D01*
X104253512Y-57523927D01*
G37*
G36*
X157593512Y-57523927D02*
G01*
X157742812Y-57553624D01*
X157906784Y-57621544D01*
X158054354Y-57720147D01*
X158179853Y-57845646D01*
X158278456Y-57993216D01*
X158346376Y-58157188D01*
X158381000Y-58331259D01*
X158381000Y-58508741D01*
X158346376Y-58682812D01*
X158278456Y-58846784D01*
X158179853Y-58994354D01*
X158054354Y-59119853D01*
X157906784Y-59218456D01*
X157742812Y-59286376D01*
X157593512Y-59316073D01*
X157568742Y-59321000D01*
X157391258Y-59321000D01*
X157366488Y-59316073D01*
X157217188Y-59286376D01*
X157053216Y-59218456D01*
X156905646Y-59119853D01*
X156780147Y-58994354D01*
X156681544Y-58846784D01*
X156613624Y-58682812D01*
X156579000Y-58508741D01*
X156579000Y-58331259D01*
X156613624Y-58157188D01*
X156681544Y-57993216D01*
X156780147Y-57845646D01*
X156905646Y-57720147D01*
X157053216Y-57621544D01*
X157217188Y-57553624D01*
X157366488Y-57523927D01*
X157391258Y-57519000D01*
X157568742Y-57519000D01*
X157593512Y-57523927D01*
G37*
G36*
X131622597Y-56788056D02*
G01*
X131736521Y-56835245D01*
X131736522Y-56835246D01*
X131839052Y-56903754D01*
X131926246Y-56990948D01*
X131926247Y-56990950D01*
X131994755Y-57093479D01*
X132041944Y-57207403D01*
X132066000Y-57328343D01*
X132066000Y-57451657D01*
X132041944Y-57572597D01*
X131994755Y-57686521D01*
X131994754Y-57686522D01*
X131926246Y-57789052D01*
X131839052Y-57876246D01*
X131787438Y-57910733D01*
X131736521Y-57944755D01*
X131622597Y-57991944D01*
X131501657Y-58016000D01*
X131378343Y-58016000D01*
X131257403Y-57991944D01*
X131143479Y-57944755D01*
X131092562Y-57910733D01*
X131040948Y-57876246D01*
X130953754Y-57789052D01*
X130885246Y-57686522D01*
X130885245Y-57686521D01*
X130838056Y-57572597D01*
X130814000Y-57451657D01*
X130814000Y-57328343D01*
X130838056Y-57207403D01*
X130885245Y-57093479D01*
X130953753Y-56990950D01*
X130953754Y-56990948D01*
X131040948Y-56903754D01*
X131143478Y-56835246D01*
X131143479Y-56835245D01*
X131257403Y-56788056D01*
X131378343Y-56764000D01*
X131501657Y-56764000D01*
X131622597Y-56788056D01*
G37*
G36*
X120827597Y-56788056D02*
G01*
X120941521Y-56835245D01*
X120941522Y-56835246D01*
X121044052Y-56903754D01*
X121131246Y-56990948D01*
X121131247Y-56990950D01*
X121199755Y-57093479D01*
X121246944Y-57207403D01*
X121271000Y-57328343D01*
X121271000Y-57451657D01*
X121246944Y-57572597D01*
X121199755Y-57686521D01*
X121199754Y-57686522D01*
X121131246Y-57789052D01*
X121044052Y-57876246D01*
X120992438Y-57910733D01*
X120941521Y-57944755D01*
X120827597Y-57991944D01*
X120706657Y-58016000D01*
X120583343Y-58016000D01*
X120462403Y-57991944D01*
X120348479Y-57944755D01*
X120297562Y-57910733D01*
X120245948Y-57876246D01*
X120158754Y-57789052D01*
X120090246Y-57686522D01*
X120090245Y-57686521D01*
X120043056Y-57572597D01*
X120019000Y-57451657D01*
X120019000Y-57328343D01*
X120043056Y-57207403D01*
X120090245Y-57093479D01*
X120158753Y-56990950D01*
X120158754Y-56990948D01*
X120245948Y-56903754D01*
X120348478Y-56835246D01*
X120348479Y-56835245D01*
X120462403Y-56788056D01*
X120583343Y-56764000D01*
X120706657Y-56764000D01*
X120827597Y-56788056D01*
G37*
G36*
X125907597Y-56788056D02*
G01*
X126021521Y-56835245D01*
X126021522Y-56835246D01*
X126124052Y-56903754D01*
X126211246Y-56990948D01*
X126211247Y-56990950D01*
X126279755Y-57093479D01*
X126326944Y-57207403D01*
X126351000Y-57328343D01*
X126351000Y-57451657D01*
X126326944Y-57572597D01*
X126279755Y-57686521D01*
X126279754Y-57686522D01*
X126211246Y-57789052D01*
X126124052Y-57876246D01*
X126072438Y-57910733D01*
X126021521Y-57944755D01*
X125907597Y-57991944D01*
X125786657Y-58016000D01*
X125663343Y-58016000D01*
X125542403Y-57991944D01*
X125428479Y-57944755D01*
X125377562Y-57910733D01*
X125325948Y-57876246D01*
X125238754Y-57789052D01*
X125170246Y-57686522D01*
X125170245Y-57686521D01*
X125123056Y-57572597D01*
X125099000Y-57451657D01*
X125099000Y-57328343D01*
X125123056Y-57207403D01*
X125170245Y-57093479D01*
X125238753Y-56990950D01*
X125238754Y-56990948D01*
X125325948Y-56903754D01*
X125428478Y-56835246D01*
X125428479Y-56835245D01*
X125542403Y-56788056D01*
X125663343Y-56764000D01*
X125786657Y-56764000D01*
X125907597Y-56788056D01*
G37*
G36*
X136702597Y-56788056D02*
G01*
X136816521Y-56835245D01*
X136816522Y-56835246D01*
X136919052Y-56903754D01*
X137006246Y-56990948D01*
X137006247Y-56990950D01*
X137074755Y-57093479D01*
X137121944Y-57207403D01*
X137146000Y-57328343D01*
X137146000Y-57451657D01*
X137121944Y-57572597D01*
X137074755Y-57686521D01*
X137074754Y-57686522D01*
X137006246Y-57789052D01*
X136919052Y-57876246D01*
X136867438Y-57910733D01*
X136816521Y-57944755D01*
X136702597Y-57991944D01*
X136581657Y-58016000D01*
X136458343Y-58016000D01*
X136337403Y-57991944D01*
X136223479Y-57944755D01*
X136172562Y-57910733D01*
X136120948Y-57876246D01*
X136033754Y-57789052D01*
X135965246Y-57686522D01*
X135965245Y-57686521D01*
X135918056Y-57572597D01*
X135894000Y-57451657D01*
X135894000Y-57328343D01*
X135918056Y-57207403D01*
X135965245Y-57093479D01*
X136033753Y-56990950D01*
X136033754Y-56990948D01*
X136120948Y-56903754D01*
X136223478Y-56835246D01*
X136223479Y-56835245D01*
X136337403Y-56788056D01*
X136458343Y-56764000D01*
X136581657Y-56764000D01*
X136702597Y-56788056D01*
G37*
G36*
X140028228Y-55696703D02*
G01*
X140183100Y-55760853D01*
X140322481Y-55853985D01*
X140441015Y-55972519D01*
X140534147Y-56111900D01*
X140598297Y-56266772D01*
X140631000Y-56431184D01*
X140631000Y-56598816D01*
X140598297Y-56763228D01*
X140534147Y-56918100D01*
X140441015Y-57057481D01*
X140322481Y-57176015D01*
X140183100Y-57269147D01*
X140028228Y-57333297D01*
X139863816Y-57366000D01*
X139696184Y-57366000D01*
X139531772Y-57333297D01*
X139376900Y-57269147D01*
X139237519Y-57176015D01*
X139118985Y-57057481D01*
X139025853Y-56918100D01*
X138961703Y-56763228D01*
X138929000Y-56598816D01*
X138929000Y-56431184D01*
X138961703Y-56266772D01*
X139025853Y-56111900D01*
X139118985Y-55972519D01*
X139237519Y-55853985D01*
X139376900Y-55760853D01*
X139531772Y-55696703D01*
X139696184Y-55664000D01*
X139863816Y-55664000D01*
X140028228Y-55696703D01*
G37*
G36*
X145028228Y-55696703D02*
G01*
X145183100Y-55760853D01*
X145322481Y-55853985D01*
X145441015Y-55972519D01*
X145534147Y-56111900D01*
X145598297Y-56266772D01*
X145631000Y-56431184D01*
X145631000Y-56598816D01*
X145598297Y-56763228D01*
X145534147Y-56918100D01*
X145441015Y-57057481D01*
X145322481Y-57176015D01*
X145183100Y-57269147D01*
X145028228Y-57333297D01*
X144863816Y-57366000D01*
X144696184Y-57366000D01*
X144531772Y-57333297D01*
X144376900Y-57269147D01*
X144237519Y-57176015D01*
X144118985Y-57057481D01*
X144025853Y-56918100D01*
X143961703Y-56763228D01*
X143929000Y-56598816D01*
X143929000Y-56431184D01*
X143961703Y-56266772D01*
X144025853Y-56111900D01*
X144118985Y-55972519D01*
X144237519Y-55853985D01*
X144376900Y-55760853D01*
X144531772Y-55696703D01*
X144696184Y-55664000D01*
X144863816Y-55664000D01*
X145028228Y-55696703D01*
G37*
G36*
X157593512Y-54983927D02*
G01*
X157742812Y-55013624D01*
X157906784Y-55081544D01*
X158054354Y-55180147D01*
X158179853Y-55305646D01*
X158278456Y-55453216D01*
X158346376Y-55617188D01*
X158381000Y-55791259D01*
X158381000Y-55968741D01*
X158346376Y-56142812D01*
X158278456Y-56306784D01*
X158179853Y-56454354D01*
X158054354Y-56579853D01*
X157906784Y-56678456D01*
X157742812Y-56746376D01*
X157593512Y-56776073D01*
X157568742Y-56781000D01*
X157391258Y-56781000D01*
X157366488Y-56776073D01*
X157217188Y-56746376D01*
X157053216Y-56678456D01*
X156905646Y-56579853D01*
X156780147Y-56454354D01*
X156681544Y-56306784D01*
X156613624Y-56142812D01*
X156579000Y-55968741D01*
X156579000Y-55791259D01*
X156613624Y-55617188D01*
X156681544Y-55453216D01*
X156780147Y-55305646D01*
X156905646Y-55180147D01*
X157053216Y-55081544D01*
X157217188Y-55013624D01*
X157366488Y-54983927D01*
X157391258Y-54979000D01*
X157568742Y-54979000D01*
X157593512Y-54983927D01*
G37*
G36*
X104253512Y-54983927D02*
G01*
X104402812Y-55013624D01*
X104566784Y-55081544D01*
X104714354Y-55180147D01*
X104839853Y-55305646D01*
X104938456Y-55453216D01*
X105006376Y-55617188D01*
X105041000Y-55791259D01*
X105041000Y-55968741D01*
X105006376Y-56142812D01*
X104938456Y-56306784D01*
X104839853Y-56454354D01*
X104714354Y-56579853D01*
X104566784Y-56678456D01*
X104402812Y-56746376D01*
X104253512Y-56776073D01*
X104228742Y-56781000D01*
X104051258Y-56781000D01*
X104026488Y-56776073D01*
X103877188Y-56746376D01*
X103713216Y-56678456D01*
X103565646Y-56579853D01*
X103440147Y-56454354D01*
X103341544Y-56306784D01*
X103273624Y-56142812D01*
X103239000Y-55968741D01*
X103239000Y-55791259D01*
X103273624Y-55617188D01*
X103341544Y-55453216D01*
X103440147Y-55305646D01*
X103565646Y-55180147D01*
X103713216Y-55081544D01*
X103877188Y-55013624D01*
X104026488Y-54983927D01*
X104051258Y-54979000D01*
X104228742Y-54979000D01*
X104253512Y-54983927D01*
G37*
G36*
X158381000Y-54241000D02*
G01*
X156579000Y-54241000D01*
X156579000Y-52439000D01*
X158381000Y-52439000D01*
X158381000Y-54241000D01*
G37*
G36*
X105041000Y-54241000D02*
G01*
X103239000Y-54241000D01*
X103239000Y-52439000D01*
X105041000Y-52439000D01*
X105041000Y-54241000D01*
G37*
M02*
