M48
; DRILL file {KiCad 5.1.6-c6e7f7d~87~ubuntu18.04.1} date Sat Aug  1 20:03:28 2020
; FORMAT={-:-/ absolute / metric / decimal}
; #@! TF.CreationDate,2020-08-01T20:03:28-04:00
; #@! TF.GenerationSoftware,Kicad,Pcbnew,5.1.6-c6e7f7d~87~ubuntu18.04.1
FMAT,2
METRIC
T1C0.400
T2C0.550
T3C0.762
T4C0.800
T5C1.000
%
G90
G05
T1
X109.982Y-58.293
X109.982Y-85.852
X121.412Y-88.138
X121.53Y-80.645
X124.019Y-76.296
X126.619Y-69.85
X130.683Y-68.415
X130.81Y-81.661
X149.86Y-83.947
T2
X131.44Y-57.39
X132.08Y-72.39
X135.88Y-72.39
X136.52Y-57.39
X120.645Y-57.39
X121.285Y-72.39
X125.085Y-72.39
X125.725Y-57.39
T3
X131.572Y-60.96
X131.953Y-64.77
X136.017Y-64.77
X136.525Y-60.96
X120.777Y-60.96
X121.158Y-64.77
X125.222Y-64.77
X125.73Y-60.96
T4
X114.427Y-86.36
X116.078Y-82.169
X118.364Y-85.852
X120.142Y-86.36
X130.175Y-84.709
X132.207Y-89.662
X132.207Y-94.869
X138.557Y-59.055
X146.05Y-65.786
X147.955Y-58.039
X157.48Y-77.597
X110.49Y-91.44
X110.49Y-93.98
X110.49Y-96.52
X123.19Y-91.44
X123.19Y-93.98
X123.19Y-96.52
X139.78Y-56.515
X144.78Y-56.515
X116.84Y-91.44
X116.84Y-93.98
X116.84Y-96.52
X110.57Y-69.215
X115.57Y-69.215
T5
X157.48Y-53.34
X157.48Y-55.88
X157.48Y-58.42
X157.48Y-60.96
X151.13Y-66.04
X151.13Y-68.58
X151.13Y-71.12
X153.67Y-66.04
X153.67Y-68.58
X153.67Y-71.12
X157.48Y-81.28
X157.48Y-83.82
X157.48Y-86.36
X157.48Y-88.9
X157.48Y-91.44
X157.48Y-93.98
X157.48Y-96.52
X157.48Y-99.06
X104.14Y-91.44
X104.14Y-93.98
X104.14Y-96.52
X104.14Y-99.06
X104.14Y-53.34
X104.14Y-55.88
X104.14Y-58.42
X104.14Y-60.96
T0
M30
