G04 #@! TF.GenerationSoftware,KiCad,Pcbnew,5.1.6-c6e7f7d~87~ubuntu18.04.1*
G04 #@! TF.CreationDate,2020-08-02T08:38:56-04:00*
G04 #@! TF.ProjectId,minimoog_LPF,6d696e69-6d6f-46f6-975f-4c50462e6b69,0*
G04 #@! TF.SameCoordinates,Original*
G04 #@! TF.FileFunction,Soldermask,Top*
G04 #@! TF.FilePolarity,Negative*
%FSLAX46Y46*%
G04 Gerber Fmt 4.6, Leading zero omitted, Abs format (unit mm)*
G04 Created by KiCad (PCBNEW 5.1.6-c6e7f7d~87~ubuntu18.04.1) date 2020-08-02 08:38:56*
%MOMM*%
%LPD*%
G01*
G04 APERTURE LIST*
%ADD10C,0.100000*%
G04 APERTURE END LIST*
D10*
G36*
X182985679Y-123562369D02*
G01*
X183142812Y-123593624D01*
X183306784Y-123661544D01*
X183454354Y-123760147D01*
X183579853Y-123885646D01*
X183678456Y-124033216D01*
X183746376Y-124197188D01*
X183781000Y-124371259D01*
X183781000Y-124548741D01*
X183746376Y-124722812D01*
X183678456Y-124886784D01*
X183579853Y-125034354D01*
X183454354Y-125159853D01*
X183306784Y-125258456D01*
X183142812Y-125326376D01*
X182993512Y-125356073D01*
X182968742Y-125361000D01*
X182791258Y-125361000D01*
X182766488Y-125356073D01*
X182617188Y-125326376D01*
X182453216Y-125258456D01*
X182305646Y-125159853D01*
X182180147Y-125034354D01*
X182081544Y-124886784D01*
X182013624Y-124722812D01*
X181979000Y-124548741D01*
X181979000Y-124371259D01*
X182013624Y-124197188D01*
X182081544Y-124033216D01*
X182180147Y-123885646D01*
X182305646Y-123760147D01*
X182453216Y-123661544D01*
X182617188Y-123593624D01*
X182774321Y-123562369D01*
X182791258Y-123559000D01*
X182968742Y-123559000D01*
X182985679Y-123562369D01*
G37*
G36*
X129645679Y-123562369D02*
G01*
X129802812Y-123593624D01*
X129966784Y-123661544D01*
X130114354Y-123760147D01*
X130239853Y-123885646D01*
X130338456Y-124033216D01*
X130406376Y-124197188D01*
X130441000Y-124371259D01*
X130441000Y-124548741D01*
X130406376Y-124722812D01*
X130338456Y-124886784D01*
X130239853Y-125034354D01*
X130114354Y-125159853D01*
X129966784Y-125258456D01*
X129802812Y-125326376D01*
X129653512Y-125356073D01*
X129628742Y-125361000D01*
X129451258Y-125361000D01*
X129426488Y-125356073D01*
X129277188Y-125326376D01*
X129113216Y-125258456D01*
X128965646Y-125159853D01*
X128840147Y-125034354D01*
X128741544Y-124886784D01*
X128673624Y-124722812D01*
X128639000Y-124548741D01*
X128639000Y-124371259D01*
X128673624Y-124197188D01*
X128741544Y-124033216D01*
X128840147Y-123885646D01*
X128965646Y-123760147D01*
X129113216Y-123661544D01*
X129277188Y-123593624D01*
X129434321Y-123562369D01*
X129451258Y-123559000D01*
X129628742Y-123559000D01*
X129645679Y-123562369D01*
G37*
G36*
X180420674Y-123520965D02*
G01*
X180458367Y-123532399D01*
X180493103Y-123550966D01*
X180523548Y-123575952D01*
X180548534Y-123606397D01*
X180567101Y-123641133D01*
X180578535Y-123678826D01*
X180583000Y-123724161D01*
X180583000Y-124560839D01*
X180578535Y-124606174D01*
X180567101Y-124643867D01*
X180548534Y-124678603D01*
X180523548Y-124709048D01*
X180493103Y-124734034D01*
X180458367Y-124752601D01*
X180420674Y-124764035D01*
X180375339Y-124768500D01*
X179288661Y-124768500D01*
X179243326Y-124764035D01*
X179205633Y-124752601D01*
X179170897Y-124734034D01*
X179140452Y-124709048D01*
X179115466Y-124678603D01*
X179096899Y-124643867D01*
X179085465Y-124606174D01*
X179081000Y-124560839D01*
X179081000Y-123724161D01*
X179085465Y-123678826D01*
X179096899Y-123641133D01*
X179115466Y-123606397D01*
X179140452Y-123575952D01*
X179170897Y-123550966D01*
X179205633Y-123532399D01*
X179243326Y-123520965D01*
X179288661Y-123516500D01*
X180375339Y-123516500D01*
X180420674Y-123520965D01*
G37*
G36*
X153877674Y-122568465D02*
G01*
X153915367Y-122579899D01*
X153950103Y-122598466D01*
X153980548Y-122623452D01*
X154005534Y-122653897D01*
X154024101Y-122688633D01*
X154035535Y-122726326D01*
X154040000Y-122771661D01*
X154040000Y-123608339D01*
X154035535Y-123653674D01*
X154024101Y-123691367D01*
X154005534Y-123726103D01*
X153980548Y-123756548D01*
X153950103Y-123781534D01*
X153915367Y-123800101D01*
X153877674Y-123811535D01*
X153832339Y-123816000D01*
X152745661Y-123816000D01*
X152700326Y-123811535D01*
X152662633Y-123800101D01*
X152627897Y-123781534D01*
X152597452Y-123756548D01*
X152572466Y-123726103D01*
X152553899Y-123691367D01*
X152542465Y-123653674D01*
X152538000Y-123608339D01*
X152538000Y-122771661D01*
X152542465Y-122726326D01*
X152553899Y-122688633D01*
X152572466Y-122653897D01*
X152597452Y-122623452D01*
X152627897Y-122598466D01*
X152662633Y-122579899D01*
X152700326Y-122568465D01*
X152745661Y-122564000D01*
X153832339Y-122564000D01*
X153877674Y-122568465D01*
G37*
G36*
X141095589Y-121793876D02*
G01*
X141194893Y-121813629D01*
X141335206Y-121871748D01*
X141461484Y-121956125D01*
X141568875Y-122063516D01*
X141653252Y-122189794D01*
X141711371Y-122330107D01*
X141711371Y-122330109D01*
X141734489Y-122446327D01*
X141741000Y-122479063D01*
X141741000Y-122630937D01*
X141711371Y-122779893D01*
X141653252Y-122920206D01*
X141568875Y-123046484D01*
X141461484Y-123153875D01*
X141335206Y-123238252D01*
X141194893Y-123296371D01*
X141095589Y-123316124D01*
X141045938Y-123326000D01*
X140894062Y-123326000D01*
X140844411Y-123316124D01*
X140745107Y-123296371D01*
X140604794Y-123238252D01*
X140478516Y-123153875D01*
X140371125Y-123046484D01*
X140286748Y-122920206D01*
X140228629Y-122779893D01*
X140199000Y-122630937D01*
X140199000Y-122479063D01*
X140205512Y-122446327D01*
X140228629Y-122330109D01*
X140228629Y-122330107D01*
X140286748Y-122189794D01*
X140371125Y-122063516D01*
X140478516Y-121956125D01*
X140604794Y-121871748D01*
X140745107Y-121813629D01*
X140844411Y-121793876D01*
X140894062Y-121784000D01*
X141045938Y-121784000D01*
X141095589Y-121793876D01*
G37*
G36*
X134745589Y-121793876D02*
G01*
X134844893Y-121813629D01*
X134985206Y-121871748D01*
X135111484Y-121956125D01*
X135218875Y-122063516D01*
X135303252Y-122189794D01*
X135361371Y-122330107D01*
X135361371Y-122330109D01*
X135384489Y-122446327D01*
X135391000Y-122479063D01*
X135391000Y-122630937D01*
X135361371Y-122779893D01*
X135303252Y-122920206D01*
X135218875Y-123046484D01*
X135111484Y-123153875D01*
X134985206Y-123238252D01*
X134844893Y-123296371D01*
X134745589Y-123316124D01*
X134695938Y-123326000D01*
X134544062Y-123326000D01*
X134494411Y-123316124D01*
X134395107Y-123296371D01*
X134254794Y-123238252D01*
X134128516Y-123153875D01*
X134021125Y-123046484D01*
X133936748Y-122920206D01*
X133878629Y-122779893D01*
X133849000Y-122630937D01*
X133849000Y-122479063D01*
X133855512Y-122446327D01*
X133878629Y-122330109D01*
X133878629Y-122330107D01*
X133936748Y-122189794D01*
X134021125Y-122063516D01*
X134128516Y-121956125D01*
X134254794Y-121871748D01*
X134395107Y-121813629D01*
X134494411Y-121793876D01*
X134544062Y-121784000D01*
X134695938Y-121784000D01*
X134745589Y-121793876D01*
G37*
G36*
X147445589Y-121793876D02*
G01*
X147544893Y-121813629D01*
X147685206Y-121871748D01*
X147811484Y-121956125D01*
X147918875Y-122063516D01*
X148003252Y-122189794D01*
X148061371Y-122330107D01*
X148061371Y-122330109D01*
X148084489Y-122446327D01*
X148091000Y-122479063D01*
X148091000Y-122630937D01*
X148061371Y-122779893D01*
X148003252Y-122920206D01*
X147918875Y-123046484D01*
X147811484Y-123153875D01*
X147685206Y-123238252D01*
X147544893Y-123296371D01*
X147445589Y-123316124D01*
X147395938Y-123326000D01*
X147244062Y-123326000D01*
X147194411Y-123316124D01*
X147095107Y-123296371D01*
X146954794Y-123238252D01*
X146828516Y-123153875D01*
X146721125Y-123046484D01*
X146636748Y-122920206D01*
X146578629Y-122779893D01*
X146549000Y-122630937D01*
X146549000Y-122479063D01*
X146555512Y-122446327D01*
X146578629Y-122330109D01*
X146578629Y-122330107D01*
X146636748Y-122189794D01*
X146721125Y-122063516D01*
X146828516Y-121956125D01*
X146954794Y-121871748D01*
X147095107Y-121813629D01*
X147194411Y-121793876D01*
X147244062Y-121784000D01*
X147395938Y-121784000D01*
X147445589Y-121793876D01*
G37*
G36*
X129653512Y-121023927D02*
G01*
X129802812Y-121053624D01*
X129966784Y-121121544D01*
X130114354Y-121220147D01*
X130239853Y-121345646D01*
X130338456Y-121493216D01*
X130406376Y-121657188D01*
X130441000Y-121831259D01*
X130441000Y-122008741D01*
X130406376Y-122182812D01*
X130338456Y-122346784D01*
X130239853Y-122494354D01*
X130114354Y-122619853D01*
X129966784Y-122718456D01*
X129802812Y-122786376D01*
X129653512Y-122816073D01*
X129628742Y-122821000D01*
X129451258Y-122821000D01*
X129426488Y-122816073D01*
X129277188Y-122786376D01*
X129113216Y-122718456D01*
X128965646Y-122619853D01*
X128840147Y-122494354D01*
X128741544Y-122346784D01*
X128673624Y-122182812D01*
X128639000Y-122008741D01*
X128639000Y-121831259D01*
X128673624Y-121657188D01*
X128741544Y-121493216D01*
X128840147Y-121345646D01*
X128965646Y-121220147D01*
X129113216Y-121121544D01*
X129277188Y-121053624D01*
X129426488Y-121023927D01*
X129451258Y-121019000D01*
X129628742Y-121019000D01*
X129653512Y-121023927D01*
G37*
G36*
X182993512Y-121023927D02*
G01*
X183142812Y-121053624D01*
X183306784Y-121121544D01*
X183454354Y-121220147D01*
X183579853Y-121345646D01*
X183678456Y-121493216D01*
X183746376Y-121657188D01*
X183781000Y-121831259D01*
X183781000Y-122008741D01*
X183746376Y-122182812D01*
X183678456Y-122346784D01*
X183579853Y-122494354D01*
X183454354Y-122619853D01*
X183306784Y-122718456D01*
X183142812Y-122786376D01*
X182993512Y-122816073D01*
X182968742Y-122821000D01*
X182791258Y-122821000D01*
X182766488Y-122816073D01*
X182617188Y-122786376D01*
X182453216Y-122718456D01*
X182305646Y-122619853D01*
X182180147Y-122494354D01*
X182081544Y-122346784D01*
X182013624Y-122182812D01*
X181979000Y-122008741D01*
X181979000Y-121831259D01*
X182013624Y-121657188D01*
X182081544Y-121493216D01*
X182180147Y-121345646D01*
X182305646Y-121220147D01*
X182453216Y-121121544D01*
X182617188Y-121053624D01*
X182766488Y-121023927D01*
X182791258Y-121019000D01*
X182968742Y-121019000D01*
X182993512Y-121023927D01*
G37*
G36*
X180420674Y-121470965D02*
G01*
X180458367Y-121482399D01*
X180493103Y-121500966D01*
X180523548Y-121525952D01*
X180548534Y-121556397D01*
X180567101Y-121591133D01*
X180578535Y-121628826D01*
X180583000Y-121674161D01*
X180583000Y-122510839D01*
X180578535Y-122556174D01*
X180567101Y-122593867D01*
X180548534Y-122628603D01*
X180523548Y-122659048D01*
X180493103Y-122684034D01*
X180458367Y-122702601D01*
X180420674Y-122714035D01*
X180375339Y-122718500D01*
X179288661Y-122718500D01*
X179243326Y-122714035D01*
X179205633Y-122702601D01*
X179170897Y-122684034D01*
X179140452Y-122659048D01*
X179115466Y-122628603D01*
X179096899Y-122593867D01*
X179085465Y-122556174D01*
X179081000Y-122510839D01*
X179081000Y-121674161D01*
X179085465Y-121628826D01*
X179096899Y-121591133D01*
X179115466Y-121556397D01*
X179140452Y-121525952D01*
X179170897Y-121500966D01*
X179205633Y-121482399D01*
X179243326Y-121470965D01*
X179288661Y-121466500D01*
X180375339Y-121466500D01*
X180420674Y-121470965D01*
G37*
G36*
X153877674Y-120518465D02*
G01*
X153915367Y-120529899D01*
X153950103Y-120548466D01*
X153980548Y-120573452D01*
X154005534Y-120603897D01*
X154024101Y-120638633D01*
X154035535Y-120676326D01*
X154040000Y-120721661D01*
X154040000Y-121558339D01*
X154035535Y-121603674D01*
X154024101Y-121641367D01*
X154005534Y-121676103D01*
X153980548Y-121706548D01*
X153950103Y-121731534D01*
X153915367Y-121750101D01*
X153877674Y-121761535D01*
X153832339Y-121766000D01*
X152745661Y-121766000D01*
X152700326Y-121761535D01*
X152662633Y-121750101D01*
X152627897Y-121731534D01*
X152597452Y-121706548D01*
X152572466Y-121676103D01*
X152553899Y-121641367D01*
X152542465Y-121603674D01*
X152538000Y-121558339D01*
X152538000Y-120721661D01*
X152542465Y-120676326D01*
X152553899Y-120638633D01*
X152572466Y-120603897D01*
X152597452Y-120573452D01*
X152627897Y-120548466D01*
X152662633Y-120529899D01*
X152700326Y-120518465D01*
X152745661Y-120514000D01*
X153832339Y-120514000D01*
X153877674Y-120518465D01*
G37*
G36*
X147445589Y-119253876D02*
G01*
X147544893Y-119273629D01*
X147685206Y-119331748D01*
X147811484Y-119416125D01*
X147918875Y-119523516D01*
X148003252Y-119649794D01*
X148061371Y-119790107D01*
X148061371Y-119790109D01*
X148090014Y-119934103D01*
X148091000Y-119939063D01*
X148091000Y-120090937D01*
X148061371Y-120239893D01*
X148003252Y-120380206D01*
X147918875Y-120506484D01*
X147811484Y-120613875D01*
X147685206Y-120698252D01*
X147544893Y-120756371D01*
X147445589Y-120776124D01*
X147395938Y-120786000D01*
X147244062Y-120786000D01*
X147194411Y-120776124D01*
X147095107Y-120756371D01*
X146954794Y-120698252D01*
X146828516Y-120613875D01*
X146721125Y-120506484D01*
X146636748Y-120380206D01*
X146578629Y-120239893D01*
X146549000Y-120090937D01*
X146549000Y-119939063D01*
X146549987Y-119934103D01*
X146578629Y-119790109D01*
X146578629Y-119790107D01*
X146636748Y-119649794D01*
X146721125Y-119523516D01*
X146828516Y-119416125D01*
X146954794Y-119331748D01*
X147095107Y-119273629D01*
X147194411Y-119253876D01*
X147244062Y-119244000D01*
X147395938Y-119244000D01*
X147445589Y-119253876D01*
G37*
G36*
X141095589Y-119253876D02*
G01*
X141194893Y-119273629D01*
X141335206Y-119331748D01*
X141461484Y-119416125D01*
X141568875Y-119523516D01*
X141653252Y-119649794D01*
X141711371Y-119790107D01*
X141711371Y-119790109D01*
X141740014Y-119934103D01*
X141741000Y-119939063D01*
X141741000Y-120090937D01*
X141711371Y-120239893D01*
X141653252Y-120380206D01*
X141568875Y-120506484D01*
X141461484Y-120613875D01*
X141335206Y-120698252D01*
X141194893Y-120756371D01*
X141095589Y-120776124D01*
X141045938Y-120786000D01*
X140894062Y-120786000D01*
X140844411Y-120776124D01*
X140745107Y-120756371D01*
X140604794Y-120698252D01*
X140478516Y-120613875D01*
X140371125Y-120506484D01*
X140286748Y-120380206D01*
X140228629Y-120239893D01*
X140199000Y-120090937D01*
X140199000Y-119939063D01*
X140199987Y-119934103D01*
X140228629Y-119790109D01*
X140228629Y-119790107D01*
X140286748Y-119649794D01*
X140371125Y-119523516D01*
X140478516Y-119416125D01*
X140604794Y-119331748D01*
X140745107Y-119273629D01*
X140844411Y-119253876D01*
X140894062Y-119244000D01*
X141045938Y-119244000D01*
X141095589Y-119253876D01*
G37*
G36*
X134745589Y-119253876D02*
G01*
X134844893Y-119273629D01*
X134985206Y-119331748D01*
X135111484Y-119416125D01*
X135218875Y-119523516D01*
X135303252Y-119649794D01*
X135361371Y-119790107D01*
X135361371Y-119790109D01*
X135390014Y-119934103D01*
X135391000Y-119939063D01*
X135391000Y-120090937D01*
X135361371Y-120239893D01*
X135303252Y-120380206D01*
X135218875Y-120506484D01*
X135111484Y-120613875D01*
X134985206Y-120698252D01*
X134844893Y-120756371D01*
X134745589Y-120776124D01*
X134695938Y-120786000D01*
X134544062Y-120786000D01*
X134494411Y-120776124D01*
X134395107Y-120756371D01*
X134254794Y-120698252D01*
X134128516Y-120613875D01*
X134021125Y-120506484D01*
X133936748Y-120380206D01*
X133878629Y-120239893D01*
X133849000Y-120090937D01*
X133849000Y-119939063D01*
X133849987Y-119934103D01*
X133878629Y-119790109D01*
X133878629Y-119790107D01*
X133936748Y-119649794D01*
X134021125Y-119523516D01*
X134128516Y-119416125D01*
X134254794Y-119331748D01*
X134395107Y-119273629D01*
X134494411Y-119253876D01*
X134544062Y-119244000D01*
X134695938Y-119244000D01*
X134745589Y-119253876D01*
G37*
G36*
X129653512Y-118483927D02*
G01*
X129802812Y-118513624D01*
X129966784Y-118581544D01*
X130114354Y-118680147D01*
X130239853Y-118805646D01*
X130338456Y-118953216D01*
X130406376Y-119117188D01*
X130441000Y-119291259D01*
X130441000Y-119468741D01*
X130406376Y-119642812D01*
X130338456Y-119806784D01*
X130239853Y-119954354D01*
X130114354Y-120079853D01*
X129966784Y-120178456D01*
X129802812Y-120246376D01*
X129653512Y-120276073D01*
X129628742Y-120281000D01*
X129451258Y-120281000D01*
X129426488Y-120276073D01*
X129277188Y-120246376D01*
X129113216Y-120178456D01*
X128965646Y-120079853D01*
X128840147Y-119954354D01*
X128741544Y-119806784D01*
X128673624Y-119642812D01*
X128639000Y-119468741D01*
X128639000Y-119291259D01*
X128673624Y-119117188D01*
X128741544Y-118953216D01*
X128840147Y-118805646D01*
X128965646Y-118680147D01*
X129113216Y-118581544D01*
X129277188Y-118513624D01*
X129426488Y-118483927D01*
X129451258Y-118479000D01*
X129628742Y-118479000D01*
X129653512Y-118483927D01*
G37*
G36*
X182993512Y-118483927D02*
G01*
X183142812Y-118513624D01*
X183306784Y-118581544D01*
X183454354Y-118680147D01*
X183579853Y-118805646D01*
X183678456Y-118953216D01*
X183746376Y-119117188D01*
X183781000Y-119291259D01*
X183781000Y-119468741D01*
X183746376Y-119642812D01*
X183678456Y-119806784D01*
X183579853Y-119954354D01*
X183454354Y-120079853D01*
X183306784Y-120178456D01*
X183142812Y-120246376D01*
X182993512Y-120276073D01*
X182968742Y-120281000D01*
X182791258Y-120281000D01*
X182766488Y-120276073D01*
X182617188Y-120246376D01*
X182453216Y-120178456D01*
X182305646Y-120079853D01*
X182180147Y-119954354D01*
X182081544Y-119806784D01*
X182013624Y-119642812D01*
X181979000Y-119468741D01*
X181979000Y-119291259D01*
X182013624Y-119117188D01*
X182081544Y-118953216D01*
X182180147Y-118805646D01*
X182305646Y-118680147D01*
X182453216Y-118581544D01*
X182617188Y-118513624D01*
X182766488Y-118483927D01*
X182791258Y-118479000D01*
X182968742Y-118479000D01*
X182993512Y-118483927D01*
G37*
G36*
X180420674Y-118776465D02*
G01*
X180458367Y-118787899D01*
X180493103Y-118806466D01*
X180523548Y-118831452D01*
X180548534Y-118861897D01*
X180567101Y-118896633D01*
X180578535Y-118934326D01*
X180583000Y-118979661D01*
X180583000Y-119816339D01*
X180578535Y-119861674D01*
X180567101Y-119899367D01*
X180548534Y-119934103D01*
X180523548Y-119964548D01*
X180493103Y-119989534D01*
X180458367Y-120008101D01*
X180420674Y-120019535D01*
X180375339Y-120024000D01*
X179288661Y-120024000D01*
X179243326Y-120019535D01*
X179205633Y-120008101D01*
X179170897Y-119989534D01*
X179140452Y-119964548D01*
X179115466Y-119934103D01*
X179096899Y-119899367D01*
X179085465Y-119861674D01*
X179081000Y-119816339D01*
X179081000Y-118979661D01*
X179085465Y-118934326D01*
X179096899Y-118896633D01*
X179115466Y-118861897D01*
X179140452Y-118831452D01*
X179170897Y-118806466D01*
X179205633Y-118787899D01*
X179243326Y-118776465D01*
X179288661Y-118772000D01*
X180375339Y-118772000D01*
X180420674Y-118776465D01*
G37*
G36*
X167546000Y-119638000D02*
G01*
X165544000Y-119638000D01*
X165544000Y-118736000D01*
X167546000Y-118736000D01*
X167546000Y-119638000D01*
G37*
G36*
X154211000Y-119638000D02*
G01*
X152209000Y-119638000D01*
X152209000Y-118736000D01*
X154211000Y-118736000D01*
X154211000Y-119638000D01*
G37*
G36*
X160942000Y-119638000D02*
G01*
X158940000Y-119638000D01*
X158940000Y-118736000D01*
X160942000Y-118736000D01*
X160942000Y-119638000D01*
G37*
G36*
X157211000Y-118688000D02*
G01*
X155209000Y-118688000D01*
X155209000Y-117786000D01*
X157211000Y-117786000D01*
X157211000Y-118688000D01*
G37*
G36*
X163942000Y-118688000D02*
G01*
X161940000Y-118688000D01*
X161940000Y-117786000D01*
X163942000Y-117786000D01*
X163942000Y-118688000D01*
G37*
G36*
X170546000Y-118688000D02*
G01*
X168544000Y-118688000D01*
X168544000Y-117786000D01*
X170546000Y-117786000D01*
X170546000Y-118688000D01*
G37*
G36*
X134745589Y-116713876D02*
G01*
X134844893Y-116733629D01*
X134985206Y-116791748D01*
X135111484Y-116876125D01*
X135218875Y-116983516D01*
X135303252Y-117109794D01*
X135361371Y-117250107D01*
X135391000Y-117399063D01*
X135391000Y-117550937D01*
X135361371Y-117699893D01*
X135303252Y-117840206D01*
X135218875Y-117966484D01*
X135111484Y-118073875D01*
X134985206Y-118158252D01*
X134844893Y-118216371D01*
X134745589Y-118236124D01*
X134695938Y-118246000D01*
X134544062Y-118246000D01*
X134494411Y-118236124D01*
X134395107Y-118216371D01*
X134254794Y-118158252D01*
X134128516Y-118073875D01*
X134021125Y-117966484D01*
X133936748Y-117840206D01*
X133878629Y-117699893D01*
X133849000Y-117550937D01*
X133849000Y-117399063D01*
X133878629Y-117250107D01*
X133936748Y-117109794D01*
X134021125Y-116983516D01*
X134128516Y-116876125D01*
X134254794Y-116791748D01*
X134395107Y-116733629D01*
X134494411Y-116713876D01*
X134544062Y-116704000D01*
X134695938Y-116704000D01*
X134745589Y-116713876D01*
G37*
G36*
X141095589Y-116713876D02*
G01*
X141194893Y-116733629D01*
X141335206Y-116791748D01*
X141461484Y-116876125D01*
X141568875Y-116983516D01*
X141653252Y-117109794D01*
X141711371Y-117250107D01*
X141741000Y-117399063D01*
X141741000Y-117550937D01*
X141711371Y-117699893D01*
X141653252Y-117840206D01*
X141568875Y-117966484D01*
X141461484Y-118073875D01*
X141335206Y-118158252D01*
X141194893Y-118216371D01*
X141095589Y-118236124D01*
X141045938Y-118246000D01*
X140894062Y-118246000D01*
X140844411Y-118236124D01*
X140745107Y-118216371D01*
X140604794Y-118158252D01*
X140478516Y-118073875D01*
X140371125Y-117966484D01*
X140286748Y-117840206D01*
X140228629Y-117699893D01*
X140199000Y-117550937D01*
X140199000Y-117399063D01*
X140228629Y-117250107D01*
X140286748Y-117109794D01*
X140371125Y-116983516D01*
X140478516Y-116876125D01*
X140604794Y-116791748D01*
X140745107Y-116733629D01*
X140844411Y-116713876D01*
X140894062Y-116704000D01*
X141045938Y-116704000D01*
X141095589Y-116713876D01*
G37*
G36*
X147445589Y-116713876D02*
G01*
X147544893Y-116733629D01*
X147685206Y-116791748D01*
X147811484Y-116876125D01*
X147918875Y-116983516D01*
X148003252Y-117109794D01*
X148061371Y-117250107D01*
X148091000Y-117399063D01*
X148091000Y-117550937D01*
X148061371Y-117699893D01*
X148003252Y-117840206D01*
X147918875Y-117966484D01*
X147811484Y-118073875D01*
X147685206Y-118158252D01*
X147544893Y-118216371D01*
X147445589Y-118236124D01*
X147395938Y-118246000D01*
X147244062Y-118246000D01*
X147194411Y-118236124D01*
X147095107Y-118216371D01*
X146954794Y-118158252D01*
X146828516Y-118073875D01*
X146721125Y-117966484D01*
X146636748Y-117840206D01*
X146578629Y-117699893D01*
X146549000Y-117550937D01*
X146549000Y-117399063D01*
X146578629Y-117250107D01*
X146636748Y-117109794D01*
X146721125Y-116983516D01*
X146828516Y-116876125D01*
X146954794Y-116791748D01*
X147095107Y-116733629D01*
X147194411Y-116713876D01*
X147244062Y-116704000D01*
X147395938Y-116704000D01*
X147445589Y-116713876D01*
G37*
G36*
X180420674Y-116726465D02*
G01*
X180458367Y-116737899D01*
X180493103Y-116756466D01*
X180523548Y-116781452D01*
X180548534Y-116811897D01*
X180567101Y-116846633D01*
X180578535Y-116884326D01*
X180583000Y-116929661D01*
X180583000Y-117766339D01*
X180578535Y-117811674D01*
X180567101Y-117849367D01*
X180548534Y-117884103D01*
X180523548Y-117914548D01*
X180493103Y-117939534D01*
X180458367Y-117958101D01*
X180420674Y-117969535D01*
X180375339Y-117974000D01*
X179288661Y-117974000D01*
X179243326Y-117969535D01*
X179205633Y-117958101D01*
X179170897Y-117939534D01*
X179140452Y-117914548D01*
X179115466Y-117884103D01*
X179096899Y-117849367D01*
X179085465Y-117811674D01*
X179081000Y-117766339D01*
X179081000Y-116929661D01*
X179085465Y-116884326D01*
X179096899Y-116846633D01*
X179115466Y-116811897D01*
X179140452Y-116781452D01*
X179170897Y-116756466D01*
X179205633Y-116737899D01*
X179243326Y-116726465D01*
X179288661Y-116722000D01*
X180375339Y-116722000D01*
X180420674Y-116726465D01*
G37*
G36*
X130441000Y-117741000D02*
G01*
X128639000Y-117741000D01*
X128639000Y-115939000D01*
X130441000Y-115939000D01*
X130441000Y-117741000D01*
G37*
G36*
X182993512Y-115943927D02*
G01*
X183142812Y-115973624D01*
X183306784Y-116041544D01*
X183454354Y-116140147D01*
X183579853Y-116265646D01*
X183678456Y-116413216D01*
X183746376Y-116577188D01*
X183781000Y-116751259D01*
X183781000Y-116928741D01*
X183746376Y-117102812D01*
X183678456Y-117266784D01*
X183579853Y-117414354D01*
X183454354Y-117539853D01*
X183306784Y-117638456D01*
X183142812Y-117706376D01*
X182993512Y-117736073D01*
X182968742Y-117741000D01*
X182791258Y-117741000D01*
X182766488Y-117736073D01*
X182617188Y-117706376D01*
X182453216Y-117638456D01*
X182305646Y-117539853D01*
X182180147Y-117414354D01*
X182081544Y-117266784D01*
X182013624Y-117102812D01*
X181979000Y-116928741D01*
X181979000Y-116751259D01*
X182013624Y-116577188D01*
X182081544Y-116413216D01*
X182180147Y-116265646D01*
X182305646Y-116140147D01*
X182453216Y-116041544D01*
X182617188Y-115973624D01*
X182766488Y-115943927D01*
X182791258Y-115939000D01*
X182968742Y-115939000D01*
X182993512Y-115943927D01*
G37*
G36*
X167546000Y-117738000D02*
G01*
X165544000Y-117738000D01*
X165544000Y-116836000D01*
X167546000Y-116836000D01*
X167546000Y-117738000D01*
G37*
G36*
X154211000Y-117738000D02*
G01*
X152209000Y-117738000D01*
X152209000Y-116836000D01*
X154211000Y-116836000D01*
X154211000Y-117738000D01*
G37*
G36*
X160942000Y-117738000D02*
G01*
X158940000Y-117738000D01*
X158940000Y-116836000D01*
X160942000Y-116836000D01*
X160942000Y-117738000D01*
G37*
G36*
X182989228Y-113403075D02*
G01*
X183142812Y-113433624D01*
X183306784Y-113501544D01*
X183454354Y-113600147D01*
X183579853Y-113725646D01*
X183678456Y-113873216D01*
X183746376Y-114037188D01*
X183781000Y-114211259D01*
X183781000Y-114388741D01*
X183746376Y-114562812D01*
X183678456Y-114726784D01*
X183579853Y-114874354D01*
X183454354Y-114999853D01*
X183306784Y-115098456D01*
X183142812Y-115166376D01*
X182993512Y-115196073D01*
X182968742Y-115201000D01*
X182791258Y-115201000D01*
X182766488Y-115196073D01*
X182617188Y-115166376D01*
X182453216Y-115098456D01*
X182305646Y-114999853D01*
X182180147Y-114874354D01*
X182081544Y-114726784D01*
X182013624Y-114562812D01*
X181979000Y-114388741D01*
X181979000Y-114211259D01*
X182013624Y-114037188D01*
X182081544Y-113873216D01*
X182180147Y-113725646D01*
X182305646Y-113600147D01*
X182453216Y-113501544D01*
X182617188Y-113433624D01*
X182770772Y-113403075D01*
X182791258Y-113399000D01*
X182968742Y-113399000D01*
X182989228Y-113403075D01*
G37*
G36*
X153686000Y-114674000D02*
G01*
X152384000Y-114674000D01*
X152384000Y-113672000D01*
X153686000Y-113672000D01*
X153686000Y-114674000D01*
G37*
G36*
X176229674Y-113188465D02*
G01*
X176267367Y-113199899D01*
X176302103Y-113218466D01*
X176332548Y-113243452D01*
X176357534Y-113273897D01*
X176376101Y-113308633D01*
X176387535Y-113346326D01*
X176392000Y-113391661D01*
X176392000Y-114228339D01*
X176387535Y-114273674D01*
X176376101Y-114311367D01*
X176357534Y-114346103D01*
X176332548Y-114376548D01*
X176302103Y-114401534D01*
X176267367Y-114420101D01*
X176229674Y-114431535D01*
X176184339Y-114436000D01*
X175097661Y-114436000D01*
X175052326Y-114431535D01*
X175014633Y-114420101D01*
X174979897Y-114401534D01*
X174949452Y-114376548D01*
X174924466Y-114346103D01*
X174905899Y-114311367D01*
X174894465Y-114273674D01*
X174890000Y-114228339D01*
X174890000Y-113391661D01*
X174894465Y-113346326D01*
X174905899Y-113308633D01*
X174924466Y-113273897D01*
X174949452Y-113243452D01*
X174979897Y-113218466D01*
X175014633Y-113199899D01*
X175052326Y-113188465D01*
X175097661Y-113184000D01*
X176184339Y-113184000D01*
X176229674Y-113188465D01*
G37*
G36*
X178388674Y-113188465D02*
G01*
X178426367Y-113199899D01*
X178461103Y-113218466D01*
X178491548Y-113243452D01*
X178516534Y-113273897D01*
X178535101Y-113308633D01*
X178546535Y-113346326D01*
X178551000Y-113391661D01*
X178551000Y-114228339D01*
X178546535Y-114273674D01*
X178535101Y-114311367D01*
X178516534Y-114346103D01*
X178491548Y-114376548D01*
X178461103Y-114401534D01*
X178426367Y-114420101D01*
X178388674Y-114431535D01*
X178343339Y-114436000D01*
X177256661Y-114436000D01*
X177211326Y-114431535D01*
X177173633Y-114420101D01*
X177138897Y-114401534D01*
X177108452Y-114376548D01*
X177083466Y-114346103D01*
X177064899Y-114311367D01*
X177053465Y-114273674D01*
X177049000Y-114228339D01*
X177049000Y-113391661D01*
X177053465Y-113346326D01*
X177064899Y-113308633D01*
X177083466Y-113273897D01*
X177108452Y-113243452D01*
X177138897Y-113218466D01*
X177173633Y-113199899D01*
X177211326Y-113188465D01*
X177256661Y-113184000D01*
X178343339Y-113184000D01*
X178388674Y-113188465D01*
G37*
G36*
X166577674Y-113043465D02*
G01*
X166615367Y-113054899D01*
X166650103Y-113073466D01*
X166680548Y-113098452D01*
X166705534Y-113128897D01*
X166724101Y-113163633D01*
X166735535Y-113201326D01*
X166740000Y-113246661D01*
X166740000Y-114083339D01*
X166735535Y-114128674D01*
X166724101Y-114166367D01*
X166705534Y-114201103D01*
X166680548Y-114231548D01*
X166650103Y-114256534D01*
X166615367Y-114275101D01*
X166577674Y-114286535D01*
X166532339Y-114291000D01*
X165445661Y-114291000D01*
X165400326Y-114286535D01*
X165362633Y-114275101D01*
X165327897Y-114256534D01*
X165297452Y-114231548D01*
X165272466Y-114201103D01*
X165253899Y-114166367D01*
X165242465Y-114128674D01*
X165238000Y-114083339D01*
X165238000Y-113246661D01*
X165242465Y-113201326D01*
X165253899Y-113163633D01*
X165272466Y-113128897D01*
X165297452Y-113098452D01*
X165327897Y-113073466D01*
X165362633Y-113054899D01*
X165400326Y-113043465D01*
X165445661Y-113039000D01*
X166532339Y-113039000D01*
X166577674Y-113043465D01*
G37*
G36*
X168736674Y-113043465D02*
G01*
X168774367Y-113054899D01*
X168809103Y-113073466D01*
X168839548Y-113098452D01*
X168864534Y-113128897D01*
X168883101Y-113163633D01*
X168894535Y-113201326D01*
X168899000Y-113246661D01*
X168899000Y-114083339D01*
X168894535Y-114128674D01*
X168883101Y-114166367D01*
X168864534Y-114201103D01*
X168839548Y-114231548D01*
X168809103Y-114256534D01*
X168774367Y-114275101D01*
X168736674Y-114286535D01*
X168691339Y-114291000D01*
X167604661Y-114291000D01*
X167559326Y-114286535D01*
X167521633Y-114275101D01*
X167486897Y-114256534D01*
X167456452Y-114231548D01*
X167431466Y-114201103D01*
X167412899Y-114166367D01*
X167401465Y-114128674D01*
X167397000Y-114083339D01*
X167397000Y-113246661D01*
X167401465Y-113201326D01*
X167412899Y-113163633D01*
X167431466Y-113128897D01*
X167456452Y-113098452D01*
X167486897Y-113073466D01*
X167521633Y-113054899D01*
X167559326Y-113043465D01*
X167604661Y-113039000D01*
X168691339Y-113039000D01*
X168736674Y-113043465D01*
G37*
G36*
X159612674Y-112537465D02*
G01*
X159650367Y-112548899D01*
X159685103Y-112567466D01*
X159715548Y-112592452D01*
X159740534Y-112622897D01*
X159759101Y-112657633D01*
X159770535Y-112695326D01*
X159775000Y-112740661D01*
X159775000Y-113827339D01*
X159770535Y-113872674D01*
X159759101Y-113910367D01*
X159740534Y-113945103D01*
X159715548Y-113975548D01*
X159685103Y-114000534D01*
X159650367Y-114019101D01*
X159612674Y-114030535D01*
X159567339Y-114035000D01*
X158730661Y-114035000D01*
X158685326Y-114030535D01*
X158647633Y-114019101D01*
X158612897Y-114000534D01*
X158582452Y-113975548D01*
X158557466Y-113945103D01*
X158538899Y-113910367D01*
X158527465Y-113872674D01*
X158523000Y-113827339D01*
X158523000Y-112740661D01*
X158527465Y-112695326D01*
X158538899Y-112657633D01*
X158557466Y-112622897D01*
X158582452Y-112592452D01*
X158612897Y-112567466D01*
X158647633Y-112548899D01*
X158685326Y-112537465D01*
X158730661Y-112533000D01*
X159567339Y-112533000D01*
X159612674Y-112537465D01*
G37*
G36*
X157562674Y-112537465D02*
G01*
X157600367Y-112548899D01*
X157635103Y-112567466D01*
X157665548Y-112592452D01*
X157690534Y-112622897D01*
X157709101Y-112657633D01*
X157720535Y-112695326D01*
X157725000Y-112740661D01*
X157725000Y-113827339D01*
X157720535Y-113872674D01*
X157709101Y-113910367D01*
X157690534Y-113945103D01*
X157665548Y-113975548D01*
X157635103Y-114000534D01*
X157600367Y-114019101D01*
X157562674Y-114030535D01*
X157517339Y-114035000D01*
X156680661Y-114035000D01*
X156635326Y-114030535D01*
X156597633Y-114019101D01*
X156562897Y-114000534D01*
X156532452Y-113975548D01*
X156507466Y-113945103D01*
X156488899Y-113910367D01*
X156477465Y-113872674D01*
X156473000Y-113827339D01*
X156473000Y-112740661D01*
X156477465Y-112695326D01*
X156488899Y-112657633D01*
X156507466Y-112622897D01*
X156532452Y-112592452D01*
X156562897Y-112567466D01*
X156597633Y-112548899D01*
X156635326Y-112537465D01*
X156680661Y-112533000D01*
X157517339Y-112533000D01*
X157562674Y-112537465D01*
G37*
G36*
X174156000Y-113544000D02*
G01*
X172554000Y-113544000D01*
X172554000Y-112892000D01*
X174156000Y-112892000D01*
X174156000Y-113544000D01*
G37*
G36*
X171256000Y-113544000D02*
G01*
X169654000Y-113544000D01*
X169654000Y-112892000D01*
X171256000Y-112892000D01*
X171256000Y-113544000D01*
G37*
G36*
X182993512Y-110863927D02*
G01*
X183142812Y-110893624D01*
X183306784Y-110961544D01*
X183454354Y-111060147D01*
X183579853Y-111185646D01*
X183678456Y-111333216D01*
X183746376Y-111497188D01*
X183781000Y-111671259D01*
X183781000Y-111848741D01*
X183746376Y-112022812D01*
X183678456Y-112186784D01*
X183579853Y-112334354D01*
X183454354Y-112459853D01*
X183306784Y-112558456D01*
X183142812Y-112626376D01*
X183004124Y-112653962D01*
X182968742Y-112661000D01*
X182791258Y-112661000D01*
X182755876Y-112653962D01*
X182617188Y-112626376D01*
X182453216Y-112558456D01*
X182305646Y-112459853D01*
X182180147Y-112334354D01*
X182081544Y-112186784D01*
X182013624Y-112022812D01*
X181979000Y-111848741D01*
X181979000Y-111671259D01*
X182013624Y-111497188D01*
X182081544Y-111333216D01*
X182180147Y-111185646D01*
X182305646Y-111060147D01*
X182453216Y-110961544D01*
X182617188Y-110893624D01*
X182766488Y-110863927D01*
X182791258Y-110859000D01*
X182968742Y-110859000D01*
X182993512Y-110863927D01*
G37*
G36*
X174156000Y-112594000D02*
G01*
X172554000Y-112594000D01*
X172554000Y-111942000D01*
X174156000Y-111942000D01*
X174156000Y-112594000D01*
G37*
G36*
X171256000Y-112594000D02*
G01*
X169654000Y-112594000D01*
X169654000Y-111942000D01*
X171256000Y-111942000D01*
X171256000Y-112594000D01*
G37*
G36*
X176229674Y-111138465D02*
G01*
X176267367Y-111149899D01*
X176302103Y-111168466D01*
X176332548Y-111193452D01*
X176357534Y-111223897D01*
X176376101Y-111258633D01*
X176387535Y-111296326D01*
X176392000Y-111341661D01*
X176392000Y-112178339D01*
X176387535Y-112223674D01*
X176376101Y-112261367D01*
X176357534Y-112296103D01*
X176332548Y-112326548D01*
X176302103Y-112351534D01*
X176267367Y-112370101D01*
X176229674Y-112381535D01*
X176184339Y-112386000D01*
X175097661Y-112386000D01*
X175052326Y-112381535D01*
X175014633Y-112370101D01*
X174979897Y-112351534D01*
X174949452Y-112326548D01*
X174924466Y-112296103D01*
X174905899Y-112261367D01*
X174894465Y-112223674D01*
X174890000Y-112178339D01*
X174890000Y-111341661D01*
X174894465Y-111296326D01*
X174905899Y-111258633D01*
X174924466Y-111223897D01*
X174949452Y-111193452D01*
X174979897Y-111168466D01*
X175014633Y-111149899D01*
X175052326Y-111138465D01*
X175097661Y-111134000D01*
X176184339Y-111134000D01*
X176229674Y-111138465D01*
G37*
G36*
X178388674Y-111138465D02*
G01*
X178426367Y-111149899D01*
X178461103Y-111168466D01*
X178491548Y-111193452D01*
X178516534Y-111223897D01*
X178535101Y-111258633D01*
X178546535Y-111296326D01*
X178551000Y-111341661D01*
X178551000Y-112178339D01*
X178546535Y-112223674D01*
X178535101Y-112261367D01*
X178516534Y-112296103D01*
X178491548Y-112326548D01*
X178461103Y-112351534D01*
X178426367Y-112370101D01*
X178388674Y-112381535D01*
X178343339Y-112386000D01*
X177256661Y-112386000D01*
X177211326Y-112381535D01*
X177173633Y-112370101D01*
X177138897Y-112351534D01*
X177108452Y-112326548D01*
X177083466Y-112296103D01*
X177064899Y-112261367D01*
X177053465Y-112223674D01*
X177049000Y-112178339D01*
X177049000Y-111341661D01*
X177053465Y-111296326D01*
X177064899Y-111258633D01*
X177083466Y-111223897D01*
X177108452Y-111193452D01*
X177138897Y-111168466D01*
X177173633Y-111149899D01*
X177211326Y-111138465D01*
X177256661Y-111134000D01*
X178343339Y-111134000D01*
X178388674Y-111138465D01*
G37*
G36*
X166577674Y-110993465D02*
G01*
X166615367Y-111004899D01*
X166650103Y-111023466D01*
X166680548Y-111048452D01*
X166705534Y-111078897D01*
X166724101Y-111113633D01*
X166735535Y-111151326D01*
X166740000Y-111196661D01*
X166740000Y-112033339D01*
X166735535Y-112078674D01*
X166724101Y-112116367D01*
X166705534Y-112151103D01*
X166680548Y-112181548D01*
X166650103Y-112206534D01*
X166615367Y-112225101D01*
X166577674Y-112236535D01*
X166532339Y-112241000D01*
X165445661Y-112241000D01*
X165400326Y-112236535D01*
X165362633Y-112225101D01*
X165327897Y-112206534D01*
X165297452Y-112181548D01*
X165272466Y-112151103D01*
X165253899Y-112116367D01*
X165242465Y-112078674D01*
X165238000Y-112033339D01*
X165238000Y-111196661D01*
X165242465Y-111151326D01*
X165253899Y-111113633D01*
X165272466Y-111078897D01*
X165297452Y-111048452D01*
X165327897Y-111023466D01*
X165362633Y-111004899D01*
X165400326Y-110993465D01*
X165445661Y-110989000D01*
X166532339Y-110989000D01*
X166577674Y-110993465D01*
G37*
G36*
X168736674Y-110993465D02*
G01*
X168774367Y-111004899D01*
X168809103Y-111023466D01*
X168839548Y-111048452D01*
X168864534Y-111078897D01*
X168883101Y-111113633D01*
X168894535Y-111151326D01*
X168899000Y-111196661D01*
X168899000Y-112033339D01*
X168894535Y-112078674D01*
X168883101Y-112116367D01*
X168864534Y-112151103D01*
X168839548Y-112181548D01*
X168809103Y-112206534D01*
X168774367Y-112225101D01*
X168736674Y-112236535D01*
X168691339Y-112241000D01*
X167604661Y-112241000D01*
X167559326Y-112236535D01*
X167521633Y-112225101D01*
X167486897Y-112206534D01*
X167456452Y-112181548D01*
X167431466Y-112151103D01*
X167412899Y-112116367D01*
X167401465Y-112078674D01*
X167397000Y-112033339D01*
X167397000Y-111196661D01*
X167401465Y-111151326D01*
X167412899Y-111113633D01*
X167431466Y-111078897D01*
X167456452Y-111048452D01*
X167486897Y-111023466D01*
X167521633Y-111004899D01*
X167559326Y-110993465D01*
X167604661Y-110989000D01*
X168691339Y-110989000D01*
X168736674Y-110993465D01*
G37*
G36*
X174156000Y-111644000D02*
G01*
X172554000Y-111644000D01*
X172554000Y-110992000D01*
X174156000Y-110992000D01*
X174156000Y-111644000D01*
G37*
G36*
X171256000Y-111644000D02*
G01*
X169654000Y-111644000D01*
X169654000Y-110992000D01*
X171256000Y-110992000D01*
X171256000Y-111644000D01*
G37*
G36*
X153686000Y-111374000D02*
G01*
X152384000Y-111374000D01*
X152384000Y-110372000D01*
X153686000Y-110372000D01*
X153686000Y-111374000D01*
G37*
G36*
X182989228Y-108323075D02*
G01*
X183142812Y-108353624D01*
X183306784Y-108421544D01*
X183454354Y-108520147D01*
X183579853Y-108645646D01*
X183678456Y-108793216D01*
X183746376Y-108957188D01*
X183781000Y-109131259D01*
X183781000Y-109308741D01*
X183746376Y-109482812D01*
X183678456Y-109646784D01*
X183579853Y-109794354D01*
X183454354Y-109919853D01*
X183306784Y-110018456D01*
X183142812Y-110086376D01*
X182993512Y-110116073D01*
X182968742Y-110121000D01*
X182791258Y-110121000D01*
X182766488Y-110116073D01*
X182617188Y-110086376D01*
X182453216Y-110018456D01*
X182305646Y-109919853D01*
X182180147Y-109794354D01*
X182081544Y-109646784D01*
X182013624Y-109482812D01*
X181979000Y-109308741D01*
X181979000Y-109131259D01*
X182013624Y-108957188D01*
X182081544Y-108793216D01*
X182180147Y-108645646D01*
X182305646Y-108520147D01*
X182453216Y-108421544D01*
X182617188Y-108353624D01*
X182770772Y-108323075D01*
X182791258Y-108319000D01*
X182968742Y-108319000D01*
X182989228Y-108323075D01*
G37*
G36*
X137367674Y-108108465D02*
G01*
X137405367Y-108119899D01*
X137440103Y-108138466D01*
X137470548Y-108163452D01*
X137495534Y-108193897D01*
X137514101Y-108228633D01*
X137525535Y-108266326D01*
X137530000Y-108311661D01*
X137530000Y-109148339D01*
X137525535Y-109193674D01*
X137514101Y-109231367D01*
X137495534Y-109266103D01*
X137470548Y-109296548D01*
X137440103Y-109321534D01*
X137405367Y-109340101D01*
X137367674Y-109351535D01*
X137322339Y-109356000D01*
X136235661Y-109356000D01*
X136190326Y-109351535D01*
X136152633Y-109340101D01*
X136117897Y-109321534D01*
X136087452Y-109296548D01*
X136062466Y-109266103D01*
X136043899Y-109231367D01*
X136032465Y-109193674D01*
X136028000Y-109148339D01*
X136028000Y-108311661D01*
X136032465Y-108266326D01*
X136043899Y-108228633D01*
X136062466Y-108193897D01*
X136087452Y-108163452D01*
X136117897Y-108138466D01*
X136152633Y-108119899D01*
X136190326Y-108108465D01*
X136235661Y-108104000D01*
X137322339Y-108104000D01*
X137367674Y-108108465D01*
G37*
G36*
X141685674Y-108108465D02*
G01*
X141723367Y-108119899D01*
X141758103Y-108138466D01*
X141788548Y-108163452D01*
X141813534Y-108193897D01*
X141832101Y-108228633D01*
X141843535Y-108266326D01*
X141848000Y-108311661D01*
X141848000Y-109148339D01*
X141843535Y-109193674D01*
X141832101Y-109231367D01*
X141813534Y-109266103D01*
X141788548Y-109296548D01*
X141758103Y-109321534D01*
X141723367Y-109340101D01*
X141685674Y-109351535D01*
X141640339Y-109356000D01*
X140553661Y-109356000D01*
X140508326Y-109351535D01*
X140470633Y-109340101D01*
X140435897Y-109321534D01*
X140405452Y-109296548D01*
X140380466Y-109266103D01*
X140361899Y-109231367D01*
X140350465Y-109193674D01*
X140346000Y-109148339D01*
X140346000Y-108311661D01*
X140350465Y-108266326D01*
X140361899Y-108228633D01*
X140380466Y-108193897D01*
X140405452Y-108163452D01*
X140435897Y-108138466D01*
X140470633Y-108119899D01*
X140508326Y-108108465D01*
X140553661Y-108104000D01*
X141640339Y-108104000D01*
X141685674Y-108108465D01*
G37*
G36*
X146003674Y-108108465D02*
G01*
X146041367Y-108119899D01*
X146076103Y-108138466D01*
X146106548Y-108163452D01*
X146131534Y-108193897D01*
X146150101Y-108228633D01*
X146161535Y-108266326D01*
X146166000Y-108311661D01*
X146166000Y-109148339D01*
X146161535Y-109193674D01*
X146150101Y-109231367D01*
X146131534Y-109266103D01*
X146106548Y-109296548D01*
X146076103Y-109321534D01*
X146041367Y-109340101D01*
X146003674Y-109351535D01*
X145958339Y-109356000D01*
X144871661Y-109356000D01*
X144826326Y-109351535D01*
X144788633Y-109340101D01*
X144753897Y-109321534D01*
X144723452Y-109296548D01*
X144698466Y-109266103D01*
X144679899Y-109231367D01*
X144668465Y-109193674D01*
X144664000Y-109148339D01*
X144664000Y-108311661D01*
X144668465Y-108266326D01*
X144679899Y-108228633D01*
X144698466Y-108193897D01*
X144723452Y-108163452D01*
X144753897Y-108138466D01*
X144788633Y-108119899D01*
X144826326Y-108108465D01*
X144871661Y-108104000D01*
X145958339Y-108104000D01*
X146003674Y-108108465D01*
G37*
G36*
X143844674Y-108099465D02*
G01*
X143882367Y-108110899D01*
X143917103Y-108129466D01*
X143947548Y-108154452D01*
X143972534Y-108184897D01*
X143991101Y-108219633D01*
X144002535Y-108257326D01*
X144007000Y-108302661D01*
X144007000Y-109139339D01*
X144002535Y-109184674D01*
X143991101Y-109222367D01*
X143972534Y-109257103D01*
X143947548Y-109287548D01*
X143917103Y-109312534D01*
X143882367Y-109331101D01*
X143844674Y-109342535D01*
X143799339Y-109347000D01*
X142712661Y-109347000D01*
X142667326Y-109342535D01*
X142629633Y-109331101D01*
X142594897Y-109312534D01*
X142564452Y-109287548D01*
X142539466Y-109257103D01*
X142520899Y-109222367D01*
X142509465Y-109184674D01*
X142505000Y-109139339D01*
X142505000Y-108302661D01*
X142509465Y-108257326D01*
X142520899Y-108219633D01*
X142539466Y-108184897D01*
X142564452Y-108154452D01*
X142594897Y-108129466D01*
X142629633Y-108110899D01*
X142667326Y-108099465D01*
X142712661Y-108095000D01*
X143799339Y-108095000D01*
X143844674Y-108099465D01*
G37*
G36*
X135208674Y-108090465D02*
G01*
X135246367Y-108101899D01*
X135281103Y-108120466D01*
X135311548Y-108145452D01*
X135336534Y-108175897D01*
X135355101Y-108210633D01*
X135366535Y-108248326D01*
X135371000Y-108293661D01*
X135371000Y-109130339D01*
X135366535Y-109175674D01*
X135355101Y-109213367D01*
X135336534Y-109248103D01*
X135311548Y-109278548D01*
X135281103Y-109303534D01*
X135246367Y-109322101D01*
X135208674Y-109333535D01*
X135163339Y-109338000D01*
X134076661Y-109338000D01*
X134031326Y-109333535D01*
X133993633Y-109322101D01*
X133958897Y-109303534D01*
X133928452Y-109278548D01*
X133903466Y-109248103D01*
X133884899Y-109213367D01*
X133873465Y-109175674D01*
X133869000Y-109130339D01*
X133869000Y-108293661D01*
X133873465Y-108248326D01*
X133884899Y-108210633D01*
X133903466Y-108175897D01*
X133928452Y-108145452D01*
X133958897Y-108120466D01*
X133993633Y-108101899D01*
X134031326Y-108090465D01*
X134076661Y-108086000D01*
X135163339Y-108086000D01*
X135208674Y-108090465D01*
G37*
G36*
X139526674Y-108090465D02*
G01*
X139564367Y-108101899D01*
X139599103Y-108120466D01*
X139629548Y-108145452D01*
X139654534Y-108175897D01*
X139673101Y-108210633D01*
X139684535Y-108248326D01*
X139689000Y-108293661D01*
X139689000Y-109130339D01*
X139684535Y-109175674D01*
X139673101Y-109213367D01*
X139654534Y-109248103D01*
X139629548Y-109278548D01*
X139599103Y-109303534D01*
X139564367Y-109322101D01*
X139526674Y-109333535D01*
X139481339Y-109338000D01*
X138394661Y-109338000D01*
X138349326Y-109333535D01*
X138311633Y-109322101D01*
X138276897Y-109303534D01*
X138246452Y-109278548D01*
X138221466Y-109248103D01*
X138202899Y-109213367D01*
X138191465Y-109175674D01*
X138187000Y-109130339D01*
X138187000Y-108293661D01*
X138191465Y-108248326D01*
X138202899Y-108210633D01*
X138221466Y-108175897D01*
X138246452Y-108145452D01*
X138276897Y-108120466D01*
X138311633Y-108101899D01*
X138349326Y-108090465D01*
X138394661Y-108086000D01*
X139481339Y-108086000D01*
X139526674Y-108090465D01*
G37*
G36*
X152013228Y-106750703D02*
G01*
X152168100Y-106814853D01*
X152307481Y-106907985D01*
X152426015Y-107026519D01*
X152519147Y-107165900D01*
X152583297Y-107320772D01*
X152616000Y-107485184D01*
X152616000Y-107652816D01*
X152583297Y-107817228D01*
X152519147Y-107972100D01*
X152426015Y-108111481D01*
X152307481Y-108230015D01*
X152168100Y-108323147D01*
X152013228Y-108387297D01*
X151848816Y-108420000D01*
X151681184Y-108420000D01*
X151516772Y-108387297D01*
X151361900Y-108323147D01*
X151222519Y-108230015D01*
X151103985Y-108111481D01*
X151010853Y-107972100D01*
X150946703Y-107817228D01*
X150914000Y-107652816D01*
X150914000Y-107485184D01*
X150946703Y-107320772D01*
X151010853Y-107165900D01*
X151103985Y-107026519D01*
X151222519Y-106907985D01*
X151361900Y-106814853D01*
X151516772Y-106750703D01*
X151681184Y-106718000D01*
X151848816Y-106718000D01*
X152013228Y-106750703D01*
G37*
G36*
X162386674Y-107092465D02*
G01*
X162424367Y-107103899D01*
X162459103Y-107122466D01*
X162489548Y-107147452D01*
X162514534Y-107177897D01*
X162533101Y-107212633D01*
X162544535Y-107250326D01*
X162549000Y-107295661D01*
X162549000Y-108132339D01*
X162544535Y-108177674D01*
X162533101Y-108215367D01*
X162514534Y-108250103D01*
X162489548Y-108280548D01*
X162459103Y-108305534D01*
X162424367Y-108324101D01*
X162386674Y-108335535D01*
X162341339Y-108340000D01*
X161254661Y-108340000D01*
X161209326Y-108335535D01*
X161171633Y-108324101D01*
X161136897Y-108305534D01*
X161106452Y-108280548D01*
X161081466Y-108250103D01*
X161062899Y-108215367D01*
X161051465Y-108177674D01*
X161047000Y-108132339D01*
X161047000Y-107295661D01*
X161051465Y-107250326D01*
X161062899Y-107212633D01*
X161081466Y-107177897D01*
X161106452Y-107147452D01*
X161136897Y-107122466D01*
X161171633Y-107103899D01*
X161209326Y-107092465D01*
X161254661Y-107088000D01*
X162341339Y-107088000D01*
X162386674Y-107092465D01*
G37*
G36*
X160100674Y-107092465D02*
G01*
X160138367Y-107103899D01*
X160173103Y-107122466D01*
X160203548Y-107147452D01*
X160228534Y-107177897D01*
X160247101Y-107212633D01*
X160258535Y-107250326D01*
X160263000Y-107295661D01*
X160263000Y-108132339D01*
X160258535Y-108177674D01*
X160247101Y-108215367D01*
X160228534Y-108250103D01*
X160203548Y-108280548D01*
X160173103Y-108305534D01*
X160138367Y-108324101D01*
X160100674Y-108335535D01*
X160055339Y-108340000D01*
X158968661Y-108340000D01*
X158923326Y-108335535D01*
X158885633Y-108324101D01*
X158850897Y-108305534D01*
X158820452Y-108280548D01*
X158795466Y-108250103D01*
X158776899Y-108215367D01*
X158765465Y-108177674D01*
X158761000Y-108132339D01*
X158761000Y-107295661D01*
X158765465Y-107250326D01*
X158776899Y-107212633D01*
X158795466Y-107177897D01*
X158820452Y-107147452D01*
X158850897Y-107122466D01*
X158885633Y-107103899D01*
X158923326Y-107092465D01*
X158968661Y-107088000D01*
X160055339Y-107088000D01*
X160100674Y-107092465D01*
G37*
G36*
X157814674Y-107092465D02*
G01*
X157852367Y-107103899D01*
X157887103Y-107122466D01*
X157917548Y-107147452D01*
X157942534Y-107177897D01*
X157961101Y-107212633D01*
X157972535Y-107250326D01*
X157977000Y-107295661D01*
X157977000Y-108132339D01*
X157972535Y-108177674D01*
X157961101Y-108215367D01*
X157942534Y-108250103D01*
X157917548Y-108280548D01*
X157887103Y-108305534D01*
X157852367Y-108324101D01*
X157814674Y-108335535D01*
X157769339Y-108340000D01*
X156682661Y-108340000D01*
X156637326Y-108335535D01*
X156599633Y-108324101D01*
X156564897Y-108305534D01*
X156534452Y-108280548D01*
X156509466Y-108250103D01*
X156490899Y-108215367D01*
X156479465Y-108177674D01*
X156475000Y-108132339D01*
X156475000Y-107295661D01*
X156479465Y-107250326D01*
X156490899Y-107212633D01*
X156509466Y-107177897D01*
X156534452Y-107147452D01*
X156564897Y-107122466D01*
X156599633Y-107103899D01*
X156637326Y-107092465D01*
X156682661Y-107088000D01*
X157769339Y-107088000D01*
X157814674Y-107092465D01*
G37*
G36*
X183781000Y-107581000D02*
G01*
X181979000Y-107581000D01*
X181979000Y-105779000D01*
X183781000Y-105779000D01*
X183781000Y-107581000D01*
G37*
G36*
X137367674Y-106058465D02*
G01*
X137405367Y-106069899D01*
X137440103Y-106088466D01*
X137470548Y-106113452D01*
X137495534Y-106143897D01*
X137514101Y-106178633D01*
X137525535Y-106216326D01*
X137530000Y-106261661D01*
X137530000Y-107098339D01*
X137525535Y-107143674D01*
X137514101Y-107181367D01*
X137495534Y-107216103D01*
X137470548Y-107246548D01*
X137440103Y-107271534D01*
X137405367Y-107290101D01*
X137367674Y-107301535D01*
X137322339Y-107306000D01*
X136235661Y-107306000D01*
X136190326Y-107301535D01*
X136152633Y-107290101D01*
X136117897Y-107271534D01*
X136087452Y-107246548D01*
X136062466Y-107216103D01*
X136043899Y-107181367D01*
X136032465Y-107143674D01*
X136028000Y-107098339D01*
X136028000Y-106261661D01*
X136032465Y-106216326D01*
X136043899Y-106178633D01*
X136062466Y-106143897D01*
X136087452Y-106113452D01*
X136117897Y-106088466D01*
X136152633Y-106069899D01*
X136190326Y-106058465D01*
X136235661Y-106054000D01*
X137322339Y-106054000D01*
X137367674Y-106058465D01*
G37*
G36*
X141685674Y-106058465D02*
G01*
X141723367Y-106069899D01*
X141758103Y-106088466D01*
X141788548Y-106113452D01*
X141813534Y-106143897D01*
X141832101Y-106178633D01*
X141843535Y-106216326D01*
X141848000Y-106261661D01*
X141848000Y-107098339D01*
X141843535Y-107143674D01*
X141832101Y-107181367D01*
X141813534Y-107216103D01*
X141788548Y-107246548D01*
X141758103Y-107271534D01*
X141723367Y-107290101D01*
X141685674Y-107301535D01*
X141640339Y-107306000D01*
X140553661Y-107306000D01*
X140508326Y-107301535D01*
X140470633Y-107290101D01*
X140435897Y-107271534D01*
X140405452Y-107246548D01*
X140380466Y-107216103D01*
X140361899Y-107181367D01*
X140350465Y-107143674D01*
X140346000Y-107098339D01*
X140346000Y-106261661D01*
X140350465Y-106216326D01*
X140361899Y-106178633D01*
X140380466Y-106143897D01*
X140405452Y-106113452D01*
X140435897Y-106088466D01*
X140470633Y-106069899D01*
X140508326Y-106058465D01*
X140553661Y-106054000D01*
X141640339Y-106054000D01*
X141685674Y-106058465D01*
G37*
G36*
X146003674Y-106058465D02*
G01*
X146041367Y-106069899D01*
X146076103Y-106088466D01*
X146106548Y-106113452D01*
X146131534Y-106143897D01*
X146150101Y-106178633D01*
X146161535Y-106216326D01*
X146166000Y-106261661D01*
X146166000Y-107098339D01*
X146161535Y-107143674D01*
X146150101Y-107181367D01*
X146131534Y-107216103D01*
X146106548Y-107246548D01*
X146076103Y-107271534D01*
X146041367Y-107290101D01*
X146003674Y-107301535D01*
X145958339Y-107306000D01*
X144871661Y-107306000D01*
X144826326Y-107301535D01*
X144788633Y-107290101D01*
X144753897Y-107271534D01*
X144723452Y-107246548D01*
X144698466Y-107216103D01*
X144679899Y-107181367D01*
X144668465Y-107143674D01*
X144664000Y-107098339D01*
X144664000Y-106261661D01*
X144668465Y-106216326D01*
X144679899Y-106178633D01*
X144698466Y-106143897D01*
X144723452Y-106113452D01*
X144753897Y-106088466D01*
X144788633Y-106069899D01*
X144826326Y-106058465D01*
X144871661Y-106054000D01*
X145958339Y-106054000D01*
X146003674Y-106058465D01*
G37*
G36*
X143844674Y-106049465D02*
G01*
X143882367Y-106060899D01*
X143917103Y-106079466D01*
X143947548Y-106104452D01*
X143972534Y-106134897D01*
X143991101Y-106169633D01*
X144002535Y-106207326D01*
X144007000Y-106252661D01*
X144007000Y-107089339D01*
X144002535Y-107134674D01*
X143991101Y-107172367D01*
X143972534Y-107207103D01*
X143947548Y-107237548D01*
X143917103Y-107262534D01*
X143882367Y-107281101D01*
X143844674Y-107292535D01*
X143799339Y-107297000D01*
X142712661Y-107297000D01*
X142667326Y-107292535D01*
X142629633Y-107281101D01*
X142594897Y-107262534D01*
X142564452Y-107237548D01*
X142539466Y-107207103D01*
X142520899Y-107172367D01*
X142509465Y-107134674D01*
X142505000Y-107089339D01*
X142505000Y-106252661D01*
X142509465Y-106207326D01*
X142520899Y-106169633D01*
X142539466Y-106134897D01*
X142564452Y-106104452D01*
X142594897Y-106079466D01*
X142629633Y-106060899D01*
X142667326Y-106049465D01*
X142712661Y-106045000D01*
X143799339Y-106045000D01*
X143844674Y-106049465D01*
G37*
G36*
X139526674Y-106040465D02*
G01*
X139564367Y-106051899D01*
X139599103Y-106070466D01*
X139629548Y-106095452D01*
X139654534Y-106125897D01*
X139673101Y-106160633D01*
X139684535Y-106198326D01*
X139689000Y-106243661D01*
X139689000Y-107080339D01*
X139684535Y-107125674D01*
X139673101Y-107163367D01*
X139654534Y-107198103D01*
X139629548Y-107228548D01*
X139599103Y-107253534D01*
X139564367Y-107272101D01*
X139526674Y-107283535D01*
X139481339Y-107288000D01*
X138394661Y-107288000D01*
X138349326Y-107283535D01*
X138311633Y-107272101D01*
X138276897Y-107253534D01*
X138246452Y-107228548D01*
X138221466Y-107198103D01*
X138202899Y-107163367D01*
X138191465Y-107125674D01*
X138187000Y-107080339D01*
X138187000Y-106243661D01*
X138191465Y-106198326D01*
X138202899Y-106160633D01*
X138221466Y-106125897D01*
X138246452Y-106095452D01*
X138276897Y-106070466D01*
X138311633Y-106051899D01*
X138349326Y-106040465D01*
X138394661Y-106036000D01*
X139481339Y-106036000D01*
X139526674Y-106040465D01*
G37*
G36*
X135208674Y-106040465D02*
G01*
X135246367Y-106051899D01*
X135281103Y-106070466D01*
X135311548Y-106095452D01*
X135336534Y-106125897D01*
X135355101Y-106160633D01*
X135366535Y-106198326D01*
X135371000Y-106243661D01*
X135371000Y-107080339D01*
X135366535Y-107125674D01*
X135355101Y-107163367D01*
X135336534Y-107198103D01*
X135311548Y-107228548D01*
X135281103Y-107253534D01*
X135246367Y-107272101D01*
X135208674Y-107283535D01*
X135163339Y-107288000D01*
X134076661Y-107288000D01*
X134031326Y-107283535D01*
X133993633Y-107272101D01*
X133958897Y-107253534D01*
X133928452Y-107228548D01*
X133903466Y-107198103D01*
X133884899Y-107163367D01*
X133873465Y-107125674D01*
X133869000Y-107080339D01*
X133869000Y-106243661D01*
X133873465Y-106198326D01*
X133884899Y-106160633D01*
X133903466Y-106125897D01*
X133928452Y-106095452D01*
X133958897Y-106070466D01*
X133993633Y-106051899D01*
X134031326Y-106040465D01*
X134076661Y-106036000D01*
X135163339Y-106036000D01*
X135208674Y-106040465D01*
G37*
G36*
X157814674Y-105042465D02*
G01*
X157852367Y-105053899D01*
X157887103Y-105072466D01*
X157917548Y-105097452D01*
X157942534Y-105127897D01*
X157961101Y-105162633D01*
X157972535Y-105200326D01*
X157977000Y-105245661D01*
X157977000Y-106082339D01*
X157972535Y-106127674D01*
X157961101Y-106165367D01*
X157942534Y-106200103D01*
X157917548Y-106230548D01*
X157887103Y-106255534D01*
X157852367Y-106274101D01*
X157814674Y-106285535D01*
X157769339Y-106290000D01*
X156682661Y-106290000D01*
X156637326Y-106285535D01*
X156599633Y-106274101D01*
X156564897Y-106255534D01*
X156534452Y-106230548D01*
X156509466Y-106200103D01*
X156490899Y-106165367D01*
X156479465Y-106127674D01*
X156475000Y-106082339D01*
X156475000Y-105245661D01*
X156479465Y-105200326D01*
X156490899Y-105162633D01*
X156509466Y-105127897D01*
X156534452Y-105097452D01*
X156564897Y-105072466D01*
X156599633Y-105053899D01*
X156637326Y-105042465D01*
X156682661Y-105038000D01*
X157769339Y-105038000D01*
X157814674Y-105042465D01*
G37*
G36*
X162386674Y-105042465D02*
G01*
X162424367Y-105053899D01*
X162459103Y-105072466D01*
X162489548Y-105097452D01*
X162514534Y-105127897D01*
X162533101Y-105162633D01*
X162544535Y-105200326D01*
X162549000Y-105245661D01*
X162549000Y-106082339D01*
X162544535Y-106127674D01*
X162533101Y-106165367D01*
X162514534Y-106200103D01*
X162489548Y-106230548D01*
X162459103Y-106255534D01*
X162424367Y-106274101D01*
X162386674Y-106285535D01*
X162341339Y-106290000D01*
X161254661Y-106290000D01*
X161209326Y-106285535D01*
X161171633Y-106274101D01*
X161136897Y-106255534D01*
X161106452Y-106230548D01*
X161081466Y-106200103D01*
X161062899Y-106165367D01*
X161051465Y-106127674D01*
X161047000Y-106082339D01*
X161047000Y-105245661D01*
X161051465Y-105200326D01*
X161062899Y-105162633D01*
X161081466Y-105127897D01*
X161106452Y-105097452D01*
X161136897Y-105072466D01*
X161171633Y-105053899D01*
X161209326Y-105042465D01*
X161254661Y-105038000D01*
X162341339Y-105038000D01*
X162386674Y-105042465D01*
G37*
G36*
X160100674Y-105042465D02*
G01*
X160138367Y-105053899D01*
X160173103Y-105072466D01*
X160203548Y-105097452D01*
X160228534Y-105127897D01*
X160247101Y-105162633D01*
X160258535Y-105200326D01*
X160263000Y-105245661D01*
X160263000Y-106082339D01*
X160258535Y-106127674D01*
X160247101Y-106165367D01*
X160228534Y-106200103D01*
X160203548Y-106230548D01*
X160173103Y-106255534D01*
X160138367Y-106274101D01*
X160100674Y-106285535D01*
X160055339Y-106290000D01*
X158968661Y-106290000D01*
X158923326Y-106285535D01*
X158885633Y-106274101D01*
X158850897Y-106255534D01*
X158820452Y-106230548D01*
X158795466Y-106200103D01*
X158776899Y-106165367D01*
X158765465Y-106127674D01*
X158761000Y-106082339D01*
X158761000Y-105245661D01*
X158765465Y-105200326D01*
X158776899Y-105162633D01*
X158795466Y-105127897D01*
X158820452Y-105097452D01*
X158850897Y-105072466D01*
X158885633Y-105053899D01*
X158923326Y-105042465D01*
X158968661Y-105038000D01*
X160055339Y-105038000D01*
X160100674Y-105042465D01*
G37*
G36*
X152616000Y-105920000D02*
G01*
X150914000Y-105920000D01*
X150914000Y-104218000D01*
X152616000Y-104218000D01*
X152616000Y-105920000D01*
G37*
G36*
X165856228Y-103321703D02*
G01*
X166011100Y-103385853D01*
X166150481Y-103478985D01*
X166269015Y-103597519D01*
X166362147Y-103736900D01*
X166426297Y-103891772D01*
X166459000Y-104056184D01*
X166459000Y-104223816D01*
X166426297Y-104388228D01*
X166362147Y-104543100D01*
X166269015Y-104682481D01*
X166150481Y-104801015D01*
X166011100Y-104894147D01*
X165856228Y-104958297D01*
X165691816Y-104991000D01*
X165524184Y-104991000D01*
X165359772Y-104958297D01*
X165204900Y-104894147D01*
X165065519Y-104801015D01*
X164946985Y-104682481D01*
X164853853Y-104543100D01*
X164789703Y-104388228D01*
X164757000Y-104223816D01*
X164757000Y-104056184D01*
X164789703Y-103891772D01*
X164853853Y-103736900D01*
X164946985Y-103597519D01*
X165065519Y-103478985D01*
X165204900Y-103385853D01*
X165359772Y-103321703D01*
X165524184Y-103289000D01*
X165691816Y-103289000D01*
X165856228Y-103321703D01*
G37*
G36*
X179912674Y-103536465D02*
G01*
X179950367Y-103547899D01*
X179985103Y-103566466D01*
X180015548Y-103591452D01*
X180040534Y-103621897D01*
X180059101Y-103656633D01*
X180070535Y-103694326D01*
X180075000Y-103739661D01*
X180075000Y-104576339D01*
X180070535Y-104621674D01*
X180059101Y-104659367D01*
X180040534Y-104694103D01*
X180015548Y-104724548D01*
X179985103Y-104749534D01*
X179950367Y-104768101D01*
X179912674Y-104779535D01*
X179867339Y-104784000D01*
X178780661Y-104784000D01*
X178735326Y-104779535D01*
X178697633Y-104768101D01*
X178662897Y-104749534D01*
X178632452Y-104724548D01*
X178607466Y-104694103D01*
X178588899Y-104659367D01*
X178577465Y-104621674D01*
X178573000Y-104576339D01*
X178573000Y-103739661D01*
X178577465Y-103694326D01*
X178588899Y-103656633D01*
X178607466Y-103621897D01*
X178632452Y-103591452D01*
X178662897Y-103566466D01*
X178697633Y-103547899D01*
X178735326Y-103536465D01*
X178780661Y-103532000D01*
X179867339Y-103532000D01*
X179912674Y-103536465D01*
G37*
G36*
X174832674Y-103536465D02*
G01*
X174870367Y-103547899D01*
X174905103Y-103566466D01*
X174935548Y-103591452D01*
X174960534Y-103621897D01*
X174979101Y-103656633D01*
X174990535Y-103694326D01*
X174995000Y-103739661D01*
X174995000Y-104576339D01*
X174990535Y-104621674D01*
X174979101Y-104659367D01*
X174960534Y-104694103D01*
X174935548Y-104724548D01*
X174905103Y-104749534D01*
X174870367Y-104768101D01*
X174832674Y-104779535D01*
X174787339Y-104784000D01*
X173700661Y-104784000D01*
X173655326Y-104779535D01*
X173617633Y-104768101D01*
X173582897Y-104749534D01*
X173552452Y-104724548D01*
X173527466Y-104694103D01*
X173508899Y-104659367D01*
X173497465Y-104621674D01*
X173493000Y-104576339D01*
X173493000Y-103739661D01*
X173497465Y-103694326D01*
X173508899Y-103656633D01*
X173527466Y-103621897D01*
X173552452Y-103591452D01*
X173582897Y-103566466D01*
X173617633Y-103547899D01*
X173655326Y-103536465D01*
X173700661Y-103532000D01*
X174787339Y-103532000D01*
X174832674Y-103536465D01*
G37*
G36*
X177372674Y-103536465D02*
G01*
X177410367Y-103547899D01*
X177445103Y-103566466D01*
X177475548Y-103591452D01*
X177500534Y-103621897D01*
X177519101Y-103656633D01*
X177530535Y-103694326D01*
X177535000Y-103739661D01*
X177535000Y-104576339D01*
X177530535Y-104621674D01*
X177519101Y-104659367D01*
X177500534Y-104694103D01*
X177475548Y-104724548D01*
X177445103Y-104749534D01*
X177410367Y-104768101D01*
X177372674Y-104779535D01*
X177327339Y-104784000D01*
X176240661Y-104784000D01*
X176195326Y-104779535D01*
X176157633Y-104768101D01*
X176122897Y-104749534D01*
X176092452Y-104724548D01*
X176067466Y-104694103D01*
X176048899Y-104659367D01*
X176037465Y-104621674D01*
X176033000Y-104576339D01*
X176033000Y-103739661D01*
X176037465Y-103694326D01*
X176048899Y-103656633D01*
X176067466Y-103621897D01*
X176092452Y-103591452D01*
X176122897Y-103566466D01*
X176157633Y-103547899D01*
X176195326Y-103536465D01*
X176240661Y-103532000D01*
X177327339Y-103532000D01*
X177372674Y-103536465D01*
G37*
G36*
X172292674Y-103527465D02*
G01*
X172330367Y-103538899D01*
X172365103Y-103557466D01*
X172395548Y-103582452D01*
X172420534Y-103612897D01*
X172439101Y-103647633D01*
X172450535Y-103685326D01*
X172455000Y-103730661D01*
X172455000Y-104567339D01*
X172450535Y-104612674D01*
X172439101Y-104650367D01*
X172420534Y-104685103D01*
X172395548Y-104715548D01*
X172365103Y-104740534D01*
X172330367Y-104759101D01*
X172292674Y-104770535D01*
X172247339Y-104775000D01*
X171160661Y-104775000D01*
X171115326Y-104770535D01*
X171077633Y-104759101D01*
X171042897Y-104740534D01*
X171012452Y-104715548D01*
X170987466Y-104685103D01*
X170968899Y-104650367D01*
X170957465Y-104612674D01*
X170953000Y-104567339D01*
X170953000Y-103730661D01*
X170957465Y-103685326D01*
X170968899Y-103647633D01*
X170987466Y-103612897D01*
X171012452Y-103582452D01*
X171042897Y-103557466D01*
X171077633Y-103538899D01*
X171115326Y-103527465D01*
X171160661Y-103523000D01*
X172247339Y-103523000D01*
X172292674Y-103527465D01*
G37*
G36*
X147898000Y-103720000D02*
G01*
X146996000Y-103720000D01*
X146996000Y-101718000D01*
X147898000Y-101718000D01*
X147898000Y-103720000D01*
G37*
G36*
X157110000Y-103343000D02*
G01*
X156458000Y-103343000D01*
X156458000Y-101741000D01*
X157110000Y-101741000D01*
X157110000Y-103343000D01*
G37*
G36*
X159010000Y-103343000D02*
G01*
X158358000Y-103343000D01*
X158358000Y-101741000D01*
X159010000Y-101741000D01*
X159010000Y-103343000D01*
G37*
G36*
X161296000Y-103343000D02*
G01*
X160644000Y-103343000D01*
X160644000Y-101741000D01*
X161296000Y-101741000D01*
X161296000Y-103343000D01*
G37*
G36*
X158060000Y-103343000D02*
G01*
X157408000Y-103343000D01*
X157408000Y-101741000D01*
X158060000Y-101741000D01*
X158060000Y-103343000D01*
G37*
G36*
X160346000Y-103343000D02*
G01*
X159694000Y-103343000D01*
X159694000Y-101741000D01*
X160346000Y-101741000D01*
X160346000Y-103343000D01*
G37*
G36*
X162246000Y-103343000D02*
G01*
X161594000Y-103343000D01*
X161594000Y-101741000D01*
X162246000Y-101741000D01*
X162246000Y-103343000D01*
G37*
G36*
X174832674Y-101486465D02*
G01*
X174870367Y-101497899D01*
X174905103Y-101516466D01*
X174935548Y-101541452D01*
X174960534Y-101571897D01*
X174979101Y-101606633D01*
X174990535Y-101644326D01*
X174995000Y-101689661D01*
X174995000Y-102526339D01*
X174990535Y-102571674D01*
X174979101Y-102609367D01*
X174960534Y-102644103D01*
X174935548Y-102674548D01*
X174905103Y-102699534D01*
X174870367Y-102718101D01*
X174832674Y-102729535D01*
X174787339Y-102734000D01*
X173700661Y-102734000D01*
X173655326Y-102729535D01*
X173617633Y-102718101D01*
X173582897Y-102699534D01*
X173552452Y-102674548D01*
X173527466Y-102644103D01*
X173508899Y-102609367D01*
X173497465Y-102571674D01*
X173493000Y-102526339D01*
X173493000Y-101689661D01*
X173497465Y-101644326D01*
X173508899Y-101606633D01*
X173527466Y-101571897D01*
X173552452Y-101541452D01*
X173582897Y-101516466D01*
X173617633Y-101497899D01*
X173655326Y-101486465D01*
X173700661Y-101482000D01*
X174787339Y-101482000D01*
X174832674Y-101486465D01*
G37*
G36*
X179912674Y-101486465D02*
G01*
X179950367Y-101497899D01*
X179985103Y-101516466D01*
X180015548Y-101541452D01*
X180040534Y-101571897D01*
X180059101Y-101606633D01*
X180070535Y-101644326D01*
X180075000Y-101689661D01*
X180075000Y-102526339D01*
X180070535Y-102571674D01*
X180059101Y-102609367D01*
X180040534Y-102644103D01*
X180015548Y-102674548D01*
X179985103Y-102699534D01*
X179950367Y-102718101D01*
X179912674Y-102729535D01*
X179867339Y-102734000D01*
X178780661Y-102734000D01*
X178735326Y-102729535D01*
X178697633Y-102718101D01*
X178662897Y-102699534D01*
X178632452Y-102674548D01*
X178607466Y-102644103D01*
X178588899Y-102609367D01*
X178577465Y-102571674D01*
X178573000Y-102526339D01*
X178573000Y-101689661D01*
X178577465Y-101644326D01*
X178588899Y-101606633D01*
X178607466Y-101571897D01*
X178632452Y-101541452D01*
X178662897Y-101516466D01*
X178697633Y-101497899D01*
X178735326Y-101486465D01*
X178780661Y-101482000D01*
X179867339Y-101482000D01*
X179912674Y-101486465D01*
G37*
G36*
X177372674Y-101486465D02*
G01*
X177410367Y-101497899D01*
X177445103Y-101516466D01*
X177475548Y-101541452D01*
X177500534Y-101571897D01*
X177519101Y-101606633D01*
X177530535Y-101644326D01*
X177535000Y-101689661D01*
X177535000Y-102526339D01*
X177530535Y-102571674D01*
X177519101Y-102609367D01*
X177500534Y-102644103D01*
X177475548Y-102674548D01*
X177445103Y-102699534D01*
X177410367Y-102718101D01*
X177372674Y-102729535D01*
X177327339Y-102734000D01*
X176240661Y-102734000D01*
X176195326Y-102729535D01*
X176157633Y-102718101D01*
X176122897Y-102699534D01*
X176092452Y-102674548D01*
X176067466Y-102644103D01*
X176048899Y-102609367D01*
X176037465Y-102571674D01*
X176033000Y-102526339D01*
X176033000Y-101689661D01*
X176037465Y-101644326D01*
X176048899Y-101606633D01*
X176067466Y-101571897D01*
X176092452Y-101541452D01*
X176122897Y-101516466D01*
X176157633Y-101497899D01*
X176195326Y-101486465D01*
X176240661Y-101482000D01*
X177327339Y-101482000D01*
X177372674Y-101486465D01*
G37*
G36*
X172292674Y-101477465D02*
G01*
X172330367Y-101488899D01*
X172365103Y-101507466D01*
X172395548Y-101532452D01*
X172420534Y-101562897D01*
X172439101Y-101597633D01*
X172450535Y-101635326D01*
X172455000Y-101680661D01*
X172455000Y-102517339D01*
X172450535Y-102562674D01*
X172439101Y-102600367D01*
X172420534Y-102635103D01*
X172395548Y-102665548D01*
X172365103Y-102690534D01*
X172330367Y-102709101D01*
X172292674Y-102720535D01*
X172247339Y-102725000D01*
X171160661Y-102725000D01*
X171115326Y-102720535D01*
X171077633Y-102709101D01*
X171042897Y-102690534D01*
X171012452Y-102665548D01*
X170987466Y-102635103D01*
X170968899Y-102600367D01*
X170957465Y-102562674D01*
X170953000Y-102517339D01*
X170953000Y-101680661D01*
X170957465Y-101635326D01*
X170968899Y-101597633D01*
X170987466Y-101562897D01*
X171012452Y-101532452D01*
X171042897Y-101507466D01*
X171077633Y-101488899D01*
X171115326Y-101477465D01*
X171160661Y-101473000D01*
X172247339Y-101473000D01*
X172292674Y-101477465D01*
G37*
G36*
X145114674Y-101105465D02*
G01*
X145152367Y-101116899D01*
X145187103Y-101135466D01*
X145217548Y-101160452D01*
X145242534Y-101190897D01*
X145261101Y-101225633D01*
X145272535Y-101263326D01*
X145277000Y-101308661D01*
X145277000Y-102145339D01*
X145272535Y-102190674D01*
X145261101Y-102228367D01*
X145242534Y-102263103D01*
X145217548Y-102293548D01*
X145187103Y-102318534D01*
X145152367Y-102337101D01*
X145114674Y-102348535D01*
X145069339Y-102353000D01*
X143982661Y-102353000D01*
X143937326Y-102348535D01*
X143899633Y-102337101D01*
X143864897Y-102318534D01*
X143834452Y-102293548D01*
X143809466Y-102263103D01*
X143790899Y-102228367D01*
X143779465Y-102190674D01*
X143775000Y-102145339D01*
X143775000Y-101308661D01*
X143779465Y-101263326D01*
X143790899Y-101225633D01*
X143809466Y-101190897D01*
X143834452Y-101160452D01*
X143864897Y-101135466D01*
X143899633Y-101116899D01*
X143937326Y-101105465D01*
X143982661Y-101101000D01*
X145069339Y-101101000D01*
X145114674Y-101105465D01*
G37*
G36*
X134487228Y-100360703D02*
G01*
X134642100Y-100424853D01*
X134781481Y-100517985D01*
X134900015Y-100636519D01*
X134993147Y-100775900D01*
X135057297Y-100930772D01*
X135090000Y-101095184D01*
X135090000Y-101262816D01*
X135057297Y-101427228D01*
X134993147Y-101582100D01*
X134900015Y-101721481D01*
X134781481Y-101840015D01*
X134642100Y-101933147D01*
X134487228Y-101997297D01*
X134322816Y-102030000D01*
X134155184Y-102030000D01*
X133990772Y-101997297D01*
X133835900Y-101933147D01*
X133696519Y-101840015D01*
X133577985Y-101721481D01*
X133484853Y-101582100D01*
X133420703Y-101427228D01*
X133388000Y-101262816D01*
X133388000Y-101095184D01*
X133420703Y-100930772D01*
X133484853Y-100775900D01*
X133577985Y-100636519D01*
X133696519Y-100517985D01*
X133835900Y-100424853D01*
X133990772Y-100360703D01*
X134155184Y-100328000D01*
X134322816Y-100328000D01*
X134487228Y-100360703D01*
G37*
G36*
X155528674Y-100742465D02*
G01*
X155566367Y-100753899D01*
X155601103Y-100772466D01*
X155631548Y-100797452D01*
X155656534Y-100827897D01*
X155675101Y-100862633D01*
X155686535Y-100900326D01*
X155691000Y-100945661D01*
X155691000Y-101782339D01*
X155686535Y-101827674D01*
X155675101Y-101865367D01*
X155656534Y-101900103D01*
X155631548Y-101930548D01*
X155601103Y-101955534D01*
X155566367Y-101974101D01*
X155528674Y-101985535D01*
X155483339Y-101990000D01*
X154396661Y-101990000D01*
X154351326Y-101985535D01*
X154313633Y-101974101D01*
X154278897Y-101955534D01*
X154248452Y-101930548D01*
X154223466Y-101900103D01*
X154204899Y-101865367D01*
X154193465Y-101827674D01*
X154189000Y-101782339D01*
X154189000Y-100945661D01*
X154193465Y-100900326D01*
X154204899Y-100862633D01*
X154223466Y-100827897D01*
X154248452Y-100797452D01*
X154278897Y-100772466D01*
X154313633Y-100753899D01*
X154351326Y-100742465D01*
X154396661Y-100738000D01*
X155483339Y-100738000D01*
X155528674Y-100742465D01*
G37*
G36*
X148848000Y-100720000D02*
G01*
X147946000Y-100720000D01*
X147946000Y-98718000D01*
X148848000Y-98718000D01*
X148848000Y-100720000D01*
G37*
G36*
X146948000Y-100720000D02*
G01*
X146046000Y-100720000D01*
X146046000Y-98718000D01*
X146948000Y-98718000D01*
X146948000Y-100720000D01*
G37*
G36*
X161296000Y-100443000D02*
G01*
X160644000Y-100443000D01*
X160644000Y-98841000D01*
X161296000Y-98841000D01*
X161296000Y-100443000D01*
G37*
G36*
X160346000Y-100443000D02*
G01*
X159694000Y-100443000D01*
X159694000Y-98841000D01*
X160346000Y-98841000D01*
X160346000Y-100443000D01*
G37*
G36*
X158060000Y-100443000D02*
G01*
X157408000Y-100443000D01*
X157408000Y-98841000D01*
X158060000Y-98841000D01*
X158060000Y-100443000D01*
G37*
G36*
X157110000Y-100443000D02*
G01*
X156458000Y-100443000D01*
X156458000Y-98841000D01*
X157110000Y-98841000D01*
X157110000Y-100443000D01*
G37*
G36*
X162246000Y-100443000D02*
G01*
X161594000Y-100443000D01*
X161594000Y-98841000D01*
X162246000Y-98841000D01*
X162246000Y-100443000D01*
G37*
G36*
X159010000Y-100443000D02*
G01*
X158358000Y-100443000D01*
X158358000Y-98841000D01*
X159010000Y-98841000D01*
X159010000Y-100443000D01*
G37*
G36*
X182706674Y-99091465D02*
G01*
X182744367Y-99102899D01*
X182779103Y-99121466D01*
X182809548Y-99146452D01*
X182834534Y-99176897D01*
X182853101Y-99211633D01*
X182864535Y-99249326D01*
X182869000Y-99294661D01*
X182869000Y-100131339D01*
X182864535Y-100176674D01*
X182853101Y-100214367D01*
X182834534Y-100249103D01*
X182809548Y-100279548D01*
X182779103Y-100304534D01*
X182744367Y-100323101D01*
X182706674Y-100334535D01*
X182661339Y-100339000D01*
X181574661Y-100339000D01*
X181529326Y-100334535D01*
X181491633Y-100323101D01*
X181456897Y-100304534D01*
X181426452Y-100279548D01*
X181401466Y-100249103D01*
X181382899Y-100214367D01*
X181371465Y-100176674D01*
X181367000Y-100131339D01*
X181367000Y-99294661D01*
X181371465Y-99249326D01*
X181382899Y-99211633D01*
X181401466Y-99176897D01*
X181426452Y-99146452D01*
X181456897Y-99121466D01*
X181491633Y-99102899D01*
X181529326Y-99091465D01*
X181574661Y-99087000D01*
X182661339Y-99087000D01*
X182706674Y-99091465D01*
G37*
G36*
X172292674Y-99091465D02*
G01*
X172330367Y-99102899D01*
X172365103Y-99121466D01*
X172395548Y-99146452D01*
X172420534Y-99176897D01*
X172439101Y-99211633D01*
X172450535Y-99249326D01*
X172455000Y-99294661D01*
X172455000Y-100131339D01*
X172450535Y-100176674D01*
X172439101Y-100214367D01*
X172420534Y-100249103D01*
X172395548Y-100279548D01*
X172365103Y-100304534D01*
X172330367Y-100323101D01*
X172292674Y-100334535D01*
X172247339Y-100339000D01*
X171160661Y-100339000D01*
X171115326Y-100334535D01*
X171077633Y-100323101D01*
X171042897Y-100304534D01*
X171012452Y-100279548D01*
X170987466Y-100249103D01*
X170968899Y-100214367D01*
X170957465Y-100176674D01*
X170953000Y-100131339D01*
X170953000Y-99294661D01*
X170957465Y-99249326D01*
X170968899Y-99211633D01*
X170987466Y-99176897D01*
X171012452Y-99146452D01*
X171042897Y-99121466D01*
X171077633Y-99102899D01*
X171115326Y-99091465D01*
X171160661Y-99087000D01*
X172247339Y-99087000D01*
X172292674Y-99091465D01*
G37*
G36*
X145114674Y-99055465D02*
G01*
X145152367Y-99066899D01*
X145187103Y-99085466D01*
X145217548Y-99110452D01*
X145242534Y-99140897D01*
X145261101Y-99175633D01*
X145272535Y-99213326D01*
X145277000Y-99258661D01*
X145277000Y-100095339D01*
X145272535Y-100140674D01*
X145261101Y-100178367D01*
X145242534Y-100213103D01*
X145217548Y-100243548D01*
X145187103Y-100268534D01*
X145152367Y-100287101D01*
X145114674Y-100298535D01*
X145069339Y-100303000D01*
X143982661Y-100303000D01*
X143937326Y-100298535D01*
X143899633Y-100287101D01*
X143864897Y-100268534D01*
X143834452Y-100243548D01*
X143809466Y-100213103D01*
X143790899Y-100178367D01*
X143779465Y-100140674D01*
X143775000Y-100095339D01*
X143775000Y-99258661D01*
X143779465Y-99213326D01*
X143790899Y-99175633D01*
X143809466Y-99140897D01*
X143834452Y-99110452D01*
X143864897Y-99085466D01*
X143899633Y-99066899D01*
X143937326Y-99055465D01*
X143982661Y-99051000D01*
X145069339Y-99051000D01*
X145114674Y-99055465D01*
G37*
G36*
X175392928Y-98225764D02*
G01*
X175414009Y-98232160D01*
X175433445Y-98242548D01*
X175450476Y-98256524D01*
X175464452Y-98273555D01*
X175474840Y-98292991D01*
X175481236Y-98314072D01*
X175484000Y-98342140D01*
X175484000Y-100155860D01*
X175481236Y-100183928D01*
X175474840Y-100205009D01*
X175464452Y-100224445D01*
X175450476Y-100241476D01*
X175433445Y-100255452D01*
X175414009Y-100265840D01*
X175392928Y-100272236D01*
X175364860Y-100275000D01*
X174901140Y-100275000D01*
X174873072Y-100272236D01*
X174851991Y-100265840D01*
X174832555Y-100255452D01*
X174815524Y-100241476D01*
X174801548Y-100224445D01*
X174791160Y-100205009D01*
X174784764Y-100183928D01*
X174782000Y-100155860D01*
X174782000Y-98342140D01*
X174784764Y-98314072D01*
X174791160Y-98292991D01*
X174801548Y-98273555D01*
X174815524Y-98256524D01*
X174832555Y-98242548D01*
X174851991Y-98232160D01*
X174873072Y-98225764D01*
X174901140Y-98223000D01*
X175364860Y-98223000D01*
X175392928Y-98225764D01*
G37*
G36*
X176662928Y-98225764D02*
G01*
X176684009Y-98232160D01*
X176703445Y-98242548D01*
X176720476Y-98256524D01*
X176734452Y-98273555D01*
X176744840Y-98292991D01*
X176751236Y-98314072D01*
X176754000Y-98342140D01*
X176754000Y-100155860D01*
X176751236Y-100183928D01*
X176744840Y-100205009D01*
X176734452Y-100224445D01*
X176720476Y-100241476D01*
X176703445Y-100255452D01*
X176684009Y-100265840D01*
X176662928Y-100272236D01*
X176634860Y-100275000D01*
X176171140Y-100275000D01*
X176143072Y-100272236D01*
X176121991Y-100265840D01*
X176102555Y-100255452D01*
X176085524Y-100241476D01*
X176071548Y-100224445D01*
X176061160Y-100205009D01*
X176054764Y-100183928D01*
X176052000Y-100155860D01*
X176052000Y-98342140D01*
X176054764Y-98314072D01*
X176061160Y-98292991D01*
X176071548Y-98273555D01*
X176085524Y-98256524D01*
X176102555Y-98242548D01*
X176121991Y-98232160D01*
X176143072Y-98225764D01*
X176171140Y-98223000D01*
X176634860Y-98223000D01*
X176662928Y-98225764D01*
G37*
G36*
X174122928Y-98225764D02*
G01*
X174144009Y-98232160D01*
X174163445Y-98242548D01*
X174180476Y-98256524D01*
X174194452Y-98273555D01*
X174204840Y-98292991D01*
X174211236Y-98314072D01*
X174214000Y-98342140D01*
X174214000Y-100155860D01*
X174211236Y-100183928D01*
X174204840Y-100205009D01*
X174194452Y-100224445D01*
X174180476Y-100241476D01*
X174163445Y-100255452D01*
X174144009Y-100265840D01*
X174122928Y-100272236D01*
X174094860Y-100275000D01*
X173631140Y-100275000D01*
X173603072Y-100272236D01*
X173581991Y-100265840D01*
X173562555Y-100255452D01*
X173545524Y-100241476D01*
X173531548Y-100224445D01*
X173521160Y-100205009D01*
X173514764Y-100183928D01*
X173512000Y-100155860D01*
X173512000Y-98342140D01*
X173514764Y-98314072D01*
X173521160Y-98292991D01*
X173531548Y-98273555D01*
X173545524Y-98256524D01*
X173562555Y-98242548D01*
X173581991Y-98232160D01*
X173603072Y-98225764D01*
X173631140Y-98223000D01*
X174094860Y-98223000D01*
X174122928Y-98225764D01*
G37*
G36*
X177932928Y-98225764D02*
G01*
X177954009Y-98232160D01*
X177973445Y-98242548D01*
X177990476Y-98256524D01*
X178004452Y-98273555D01*
X178014840Y-98292991D01*
X178021236Y-98314072D01*
X178024000Y-98342140D01*
X178024000Y-100155860D01*
X178021236Y-100183928D01*
X178014840Y-100205009D01*
X178004452Y-100224445D01*
X177990476Y-100241476D01*
X177973445Y-100255452D01*
X177954009Y-100265840D01*
X177932928Y-100272236D01*
X177904860Y-100275000D01*
X177441140Y-100275000D01*
X177413072Y-100272236D01*
X177391991Y-100265840D01*
X177372555Y-100255452D01*
X177355524Y-100241476D01*
X177341548Y-100224445D01*
X177331160Y-100205009D01*
X177324764Y-100183928D01*
X177322000Y-100155860D01*
X177322000Y-98342140D01*
X177324764Y-98314072D01*
X177331160Y-98292991D01*
X177341548Y-98273555D01*
X177355524Y-98256524D01*
X177372555Y-98242548D01*
X177391991Y-98232160D01*
X177413072Y-98225764D01*
X177441140Y-98223000D01*
X177904860Y-98223000D01*
X177932928Y-98225764D01*
G37*
G36*
X165856228Y-98321703D02*
G01*
X166011100Y-98385853D01*
X166150481Y-98478985D01*
X166269015Y-98597519D01*
X166362147Y-98736900D01*
X166426297Y-98891772D01*
X166459000Y-99056184D01*
X166459000Y-99223816D01*
X166426297Y-99388228D01*
X166362147Y-99543100D01*
X166269015Y-99682481D01*
X166150481Y-99801015D01*
X166011100Y-99894147D01*
X165856228Y-99958297D01*
X165691816Y-99991000D01*
X165524184Y-99991000D01*
X165359772Y-99958297D01*
X165204900Y-99894147D01*
X165065519Y-99801015D01*
X164946985Y-99682481D01*
X164853853Y-99543100D01*
X164789703Y-99388228D01*
X164757000Y-99223816D01*
X164757000Y-99056184D01*
X164789703Y-98891772D01*
X164853853Y-98736900D01*
X164946985Y-98597519D01*
X165065519Y-98478985D01*
X165204900Y-98385853D01*
X165359772Y-98321703D01*
X165524184Y-98289000D01*
X165691816Y-98289000D01*
X165856228Y-98321703D01*
G37*
G36*
X155528674Y-98692465D02*
G01*
X155566367Y-98703899D01*
X155601103Y-98722466D01*
X155631548Y-98747452D01*
X155656534Y-98777897D01*
X155675101Y-98812633D01*
X155686535Y-98850326D01*
X155691000Y-98895661D01*
X155691000Y-99732339D01*
X155686535Y-99777674D01*
X155675101Y-99815367D01*
X155656534Y-99850103D01*
X155631548Y-99880548D01*
X155601103Y-99905534D01*
X155566367Y-99924101D01*
X155528674Y-99935535D01*
X155483339Y-99940000D01*
X154396661Y-99940000D01*
X154351326Y-99935535D01*
X154313633Y-99924101D01*
X154278897Y-99905534D01*
X154248452Y-99880548D01*
X154223466Y-99850103D01*
X154204899Y-99815367D01*
X154193465Y-99777674D01*
X154189000Y-99732339D01*
X154189000Y-98895661D01*
X154193465Y-98850326D01*
X154204899Y-98812633D01*
X154223466Y-98777897D01*
X154248452Y-98747452D01*
X154278897Y-98722466D01*
X154313633Y-98703899D01*
X154351326Y-98692465D01*
X154396661Y-98688000D01*
X155483339Y-98688000D01*
X155528674Y-98692465D01*
G37*
G36*
X135090000Y-99530000D02*
G01*
X133388000Y-99530000D01*
X133388000Y-97828000D01*
X135090000Y-97828000D01*
X135090000Y-99530000D01*
G37*
G36*
X182706674Y-97041465D02*
G01*
X182744367Y-97052899D01*
X182779103Y-97071466D01*
X182809548Y-97096452D01*
X182834534Y-97126897D01*
X182853101Y-97161633D01*
X182864535Y-97199326D01*
X182869000Y-97244661D01*
X182869000Y-98081339D01*
X182864535Y-98126674D01*
X182853101Y-98164367D01*
X182834534Y-98199103D01*
X182809548Y-98229548D01*
X182779103Y-98254534D01*
X182744367Y-98273101D01*
X182706674Y-98284535D01*
X182661339Y-98289000D01*
X181574661Y-98289000D01*
X181529326Y-98284535D01*
X181491633Y-98273101D01*
X181456897Y-98254534D01*
X181426452Y-98229548D01*
X181401466Y-98199103D01*
X181382899Y-98164367D01*
X181371465Y-98126674D01*
X181367000Y-98081339D01*
X181367000Y-97244661D01*
X181371465Y-97199326D01*
X181382899Y-97161633D01*
X181401466Y-97126897D01*
X181426452Y-97096452D01*
X181456897Y-97071466D01*
X181491633Y-97052899D01*
X181529326Y-97041465D01*
X181574661Y-97037000D01*
X182661339Y-97037000D01*
X182706674Y-97041465D01*
G37*
G36*
X172292674Y-97041465D02*
G01*
X172330367Y-97052899D01*
X172365103Y-97071466D01*
X172395548Y-97096452D01*
X172420534Y-97126897D01*
X172439101Y-97161633D01*
X172450535Y-97199326D01*
X172455000Y-97244661D01*
X172455000Y-98081339D01*
X172450535Y-98126674D01*
X172439101Y-98164367D01*
X172420534Y-98199103D01*
X172395548Y-98229548D01*
X172365103Y-98254534D01*
X172330367Y-98273101D01*
X172292674Y-98284535D01*
X172247339Y-98289000D01*
X171160661Y-98289000D01*
X171115326Y-98284535D01*
X171077633Y-98273101D01*
X171042897Y-98254534D01*
X171012452Y-98229548D01*
X170987466Y-98199103D01*
X170968899Y-98164367D01*
X170957465Y-98126674D01*
X170953000Y-98081339D01*
X170953000Y-97244661D01*
X170957465Y-97199326D01*
X170968899Y-97161633D01*
X170987466Y-97126897D01*
X171012452Y-97096452D01*
X171042897Y-97071466D01*
X171077633Y-97052899D01*
X171115326Y-97041465D01*
X171160661Y-97037000D01*
X172247339Y-97037000D01*
X172292674Y-97041465D01*
G37*
G36*
X146948000Y-97878000D02*
G01*
X146046000Y-97878000D01*
X146046000Y-95876000D01*
X146948000Y-95876000D01*
X146948000Y-97878000D01*
G37*
G36*
X148848000Y-97878000D02*
G01*
X147946000Y-97878000D01*
X147946000Y-95876000D01*
X148848000Y-95876000D01*
X148848000Y-97878000D01*
G37*
G36*
X162386674Y-95771465D02*
G01*
X162424367Y-95782899D01*
X162459103Y-95801466D01*
X162489548Y-95826452D01*
X162514534Y-95856897D01*
X162533101Y-95891633D01*
X162544535Y-95929326D01*
X162549000Y-95974661D01*
X162549000Y-96811339D01*
X162544535Y-96856674D01*
X162533101Y-96894367D01*
X162514534Y-96929103D01*
X162489548Y-96959548D01*
X162459103Y-96984534D01*
X162424367Y-97003101D01*
X162386674Y-97014535D01*
X162341339Y-97019000D01*
X161254661Y-97019000D01*
X161209326Y-97014535D01*
X161171633Y-97003101D01*
X161136897Y-96984534D01*
X161106452Y-96959548D01*
X161081466Y-96929103D01*
X161062899Y-96894367D01*
X161051465Y-96856674D01*
X161047000Y-96811339D01*
X161047000Y-95974661D01*
X161051465Y-95929326D01*
X161062899Y-95891633D01*
X161081466Y-95856897D01*
X161106452Y-95826452D01*
X161136897Y-95801466D01*
X161171633Y-95782899D01*
X161209326Y-95771465D01*
X161254661Y-95767000D01*
X162341339Y-95767000D01*
X162386674Y-95771465D01*
G37*
G36*
X157814674Y-95771465D02*
G01*
X157852367Y-95782899D01*
X157887103Y-95801466D01*
X157917548Y-95826452D01*
X157942534Y-95856897D01*
X157961101Y-95891633D01*
X157972535Y-95929326D01*
X157977000Y-95974661D01*
X157977000Y-96811339D01*
X157972535Y-96856674D01*
X157961101Y-96894367D01*
X157942534Y-96929103D01*
X157917548Y-96959548D01*
X157887103Y-96984534D01*
X157852367Y-97003101D01*
X157814674Y-97014535D01*
X157769339Y-97019000D01*
X156682661Y-97019000D01*
X156637326Y-97014535D01*
X156599633Y-97003101D01*
X156564897Y-96984534D01*
X156534452Y-96959548D01*
X156509466Y-96929103D01*
X156490899Y-96894367D01*
X156479465Y-96856674D01*
X156475000Y-96811339D01*
X156475000Y-95974661D01*
X156479465Y-95929326D01*
X156490899Y-95891633D01*
X156509466Y-95856897D01*
X156534452Y-95826452D01*
X156564897Y-95801466D01*
X156599633Y-95782899D01*
X156637326Y-95771465D01*
X156682661Y-95767000D01*
X157769339Y-95767000D01*
X157814674Y-95771465D01*
G37*
G36*
X160100674Y-95771465D02*
G01*
X160138367Y-95782899D01*
X160173103Y-95801466D01*
X160203548Y-95826452D01*
X160228534Y-95856897D01*
X160247101Y-95891633D01*
X160258535Y-95929326D01*
X160263000Y-95974661D01*
X160263000Y-96811339D01*
X160258535Y-96856674D01*
X160247101Y-96894367D01*
X160228534Y-96929103D01*
X160203548Y-96959548D01*
X160173103Y-96984534D01*
X160138367Y-97003101D01*
X160100674Y-97014535D01*
X160055339Y-97019000D01*
X158968661Y-97019000D01*
X158923326Y-97014535D01*
X158885633Y-97003101D01*
X158850897Y-96984534D01*
X158820452Y-96959548D01*
X158795466Y-96929103D01*
X158776899Y-96894367D01*
X158765465Y-96856674D01*
X158761000Y-96811339D01*
X158761000Y-95974661D01*
X158765465Y-95929326D01*
X158776899Y-95891633D01*
X158795466Y-95856897D01*
X158820452Y-95826452D01*
X158850897Y-95801466D01*
X158885633Y-95782899D01*
X158923326Y-95771465D01*
X158968661Y-95767000D01*
X160055339Y-95767000D01*
X160100674Y-95771465D01*
G37*
G36*
X165856228Y-95193703D02*
G01*
X166011100Y-95257853D01*
X166150481Y-95350985D01*
X166269015Y-95469519D01*
X166362147Y-95608900D01*
X166426297Y-95763772D01*
X166459000Y-95928184D01*
X166459000Y-96095816D01*
X166426297Y-96260228D01*
X166362147Y-96415100D01*
X166269015Y-96554481D01*
X166150481Y-96673015D01*
X166011100Y-96766147D01*
X165856228Y-96830297D01*
X165691816Y-96863000D01*
X165524184Y-96863000D01*
X165359772Y-96830297D01*
X165204900Y-96766147D01*
X165065519Y-96673015D01*
X164946985Y-96554481D01*
X164853853Y-96415100D01*
X164789703Y-96260228D01*
X164757000Y-96095816D01*
X164757000Y-95928184D01*
X164789703Y-95763772D01*
X164853853Y-95608900D01*
X164946985Y-95469519D01*
X165065519Y-95350985D01*
X165204900Y-95257853D01*
X165359772Y-95193703D01*
X165524184Y-95161000D01*
X165691816Y-95161000D01*
X165856228Y-95193703D01*
G37*
G36*
X182706674Y-95263465D02*
G01*
X182744367Y-95274899D01*
X182779103Y-95293466D01*
X182809548Y-95318452D01*
X182834534Y-95348897D01*
X182853101Y-95383633D01*
X182864535Y-95421326D01*
X182869000Y-95466661D01*
X182869000Y-96303339D01*
X182864535Y-96348674D01*
X182853101Y-96386367D01*
X182834534Y-96421103D01*
X182809548Y-96451548D01*
X182779103Y-96476534D01*
X182744367Y-96495101D01*
X182706674Y-96506535D01*
X182661339Y-96511000D01*
X181574661Y-96511000D01*
X181529326Y-96506535D01*
X181491633Y-96495101D01*
X181456897Y-96476534D01*
X181426452Y-96451548D01*
X181401466Y-96421103D01*
X181382899Y-96386367D01*
X181371465Y-96348674D01*
X181367000Y-96303339D01*
X181367000Y-95466661D01*
X181371465Y-95421326D01*
X181382899Y-95383633D01*
X181401466Y-95348897D01*
X181426452Y-95318452D01*
X181456897Y-95293466D01*
X181491633Y-95274899D01*
X181529326Y-95263465D01*
X181574661Y-95259000D01*
X182661339Y-95259000D01*
X182706674Y-95263465D01*
G37*
G36*
X172292674Y-95263465D02*
G01*
X172330367Y-95274899D01*
X172365103Y-95293466D01*
X172395548Y-95318452D01*
X172420534Y-95348897D01*
X172439101Y-95383633D01*
X172450535Y-95421326D01*
X172455000Y-95466661D01*
X172455000Y-96303339D01*
X172450535Y-96348674D01*
X172439101Y-96386367D01*
X172420534Y-96421103D01*
X172395548Y-96451548D01*
X172365103Y-96476534D01*
X172330367Y-96495101D01*
X172292674Y-96506535D01*
X172247339Y-96511000D01*
X171160661Y-96511000D01*
X171115326Y-96506535D01*
X171077633Y-96495101D01*
X171042897Y-96476534D01*
X171012452Y-96451548D01*
X170987466Y-96421103D01*
X170968899Y-96386367D01*
X170957465Y-96348674D01*
X170953000Y-96303339D01*
X170953000Y-95466661D01*
X170957465Y-95421326D01*
X170968899Y-95383633D01*
X170987466Y-95348897D01*
X171012452Y-95318452D01*
X171042897Y-95293466D01*
X171077633Y-95274899D01*
X171115326Y-95263465D01*
X171160661Y-95259000D01*
X172247339Y-95259000D01*
X172292674Y-95263465D01*
G37*
G36*
X174122928Y-93275764D02*
G01*
X174144009Y-93282160D01*
X174163445Y-93292548D01*
X174180476Y-93306524D01*
X174194452Y-93323555D01*
X174204840Y-93342991D01*
X174211236Y-93364072D01*
X174214000Y-93392140D01*
X174214000Y-95205860D01*
X174211236Y-95233928D01*
X174204840Y-95255009D01*
X174194452Y-95274445D01*
X174180476Y-95291476D01*
X174163445Y-95305452D01*
X174144009Y-95315840D01*
X174122928Y-95322236D01*
X174094860Y-95325000D01*
X173631140Y-95325000D01*
X173603072Y-95322236D01*
X173581991Y-95315840D01*
X173562555Y-95305452D01*
X173545524Y-95291476D01*
X173531548Y-95274445D01*
X173521160Y-95255009D01*
X173514764Y-95233928D01*
X173512000Y-95205860D01*
X173512000Y-93392140D01*
X173514764Y-93364072D01*
X173521160Y-93342991D01*
X173531548Y-93323555D01*
X173545524Y-93306524D01*
X173562555Y-93292548D01*
X173581991Y-93282160D01*
X173603072Y-93275764D01*
X173631140Y-93273000D01*
X174094860Y-93273000D01*
X174122928Y-93275764D01*
G37*
G36*
X176662928Y-93275764D02*
G01*
X176684009Y-93282160D01*
X176703445Y-93292548D01*
X176720476Y-93306524D01*
X176734452Y-93323555D01*
X176744840Y-93342991D01*
X176751236Y-93364072D01*
X176754000Y-93392140D01*
X176754000Y-95205860D01*
X176751236Y-95233928D01*
X176744840Y-95255009D01*
X176734452Y-95274445D01*
X176720476Y-95291476D01*
X176703445Y-95305452D01*
X176684009Y-95315840D01*
X176662928Y-95322236D01*
X176634860Y-95325000D01*
X176171140Y-95325000D01*
X176143072Y-95322236D01*
X176121991Y-95315840D01*
X176102555Y-95305452D01*
X176085524Y-95291476D01*
X176071548Y-95274445D01*
X176061160Y-95255009D01*
X176054764Y-95233928D01*
X176052000Y-95205860D01*
X176052000Y-93392140D01*
X176054764Y-93364072D01*
X176061160Y-93342991D01*
X176071548Y-93323555D01*
X176085524Y-93306524D01*
X176102555Y-93292548D01*
X176121991Y-93282160D01*
X176143072Y-93275764D01*
X176171140Y-93273000D01*
X176634860Y-93273000D01*
X176662928Y-93275764D01*
G37*
G36*
X177932928Y-93275764D02*
G01*
X177954009Y-93282160D01*
X177973445Y-93292548D01*
X177990476Y-93306524D01*
X178004452Y-93323555D01*
X178014840Y-93342991D01*
X178021236Y-93364072D01*
X178024000Y-93392140D01*
X178024000Y-95205860D01*
X178021236Y-95233928D01*
X178014840Y-95255009D01*
X178004452Y-95274445D01*
X177990476Y-95291476D01*
X177973445Y-95305452D01*
X177954009Y-95315840D01*
X177932928Y-95322236D01*
X177904860Y-95325000D01*
X177441140Y-95325000D01*
X177413072Y-95322236D01*
X177391991Y-95315840D01*
X177372555Y-95305452D01*
X177355524Y-95291476D01*
X177341548Y-95274445D01*
X177331160Y-95255009D01*
X177324764Y-95233928D01*
X177322000Y-95205860D01*
X177322000Y-93392140D01*
X177324764Y-93364072D01*
X177331160Y-93342991D01*
X177341548Y-93323555D01*
X177355524Y-93306524D01*
X177372555Y-93292548D01*
X177391991Y-93282160D01*
X177413072Y-93275764D01*
X177441140Y-93273000D01*
X177904860Y-93273000D01*
X177932928Y-93275764D01*
G37*
G36*
X175392928Y-93275764D02*
G01*
X175414009Y-93282160D01*
X175433445Y-93292548D01*
X175450476Y-93306524D01*
X175464452Y-93323555D01*
X175474840Y-93342991D01*
X175481236Y-93364072D01*
X175484000Y-93392140D01*
X175484000Y-95205860D01*
X175481236Y-95233928D01*
X175474840Y-95255009D01*
X175464452Y-95274445D01*
X175450476Y-95291476D01*
X175433445Y-95305452D01*
X175414009Y-95315840D01*
X175392928Y-95322236D01*
X175364860Y-95325000D01*
X174901140Y-95325000D01*
X174873072Y-95322236D01*
X174851991Y-95315840D01*
X174832555Y-95305452D01*
X174815524Y-95291476D01*
X174801548Y-95274445D01*
X174791160Y-95255009D01*
X174784764Y-95233928D01*
X174782000Y-95205860D01*
X174782000Y-93392140D01*
X174784764Y-93364072D01*
X174791160Y-93342991D01*
X174801548Y-93323555D01*
X174815524Y-93306524D01*
X174832555Y-93292548D01*
X174851991Y-93282160D01*
X174873072Y-93275764D01*
X174901140Y-93273000D01*
X175364860Y-93273000D01*
X175392928Y-93275764D01*
G37*
G36*
X157814674Y-93721465D02*
G01*
X157852367Y-93732899D01*
X157887103Y-93751466D01*
X157917548Y-93776452D01*
X157942534Y-93806897D01*
X157961101Y-93841633D01*
X157972535Y-93879326D01*
X157977000Y-93924661D01*
X157977000Y-94761339D01*
X157972535Y-94806674D01*
X157961101Y-94844367D01*
X157942534Y-94879103D01*
X157917548Y-94909548D01*
X157887103Y-94934534D01*
X157852367Y-94953101D01*
X157814674Y-94964535D01*
X157769339Y-94969000D01*
X156682661Y-94969000D01*
X156637326Y-94964535D01*
X156599633Y-94953101D01*
X156564897Y-94934534D01*
X156534452Y-94909548D01*
X156509466Y-94879103D01*
X156490899Y-94844367D01*
X156479465Y-94806674D01*
X156475000Y-94761339D01*
X156475000Y-93924661D01*
X156479465Y-93879326D01*
X156490899Y-93841633D01*
X156509466Y-93806897D01*
X156534452Y-93776452D01*
X156564897Y-93751466D01*
X156599633Y-93732899D01*
X156637326Y-93721465D01*
X156682661Y-93717000D01*
X157769339Y-93717000D01*
X157814674Y-93721465D01*
G37*
G36*
X160100674Y-93721465D02*
G01*
X160138367Y-93732899D01*
X160173103Y-93751466D01*
X160203548Y-93776452D01*
X160228534Y-93806897D01*
X160247101Y-93841633D01*
X160258535Y-93879326D01*
X160263000Y-93924661D01*
X160263000Y-94761339D01*
X160258535Y-94806674D01*
X160247101Y-94844367D01*
X160228534Y-94879103D01*
X160203548Y-94909548D01*
X160173103Y-94934534D01*
X160138367Y-94953101D01*
X160100674Y-94964535D01*
X160055339Y-94969000D01*
X158968661Y-94969000D01*
X158923326Y-94964535D01*
X158885633Y-94953101D01*
X158850897Y-94934534D01*
X158820452Y-94909548D01*
X158795466Y-94879103D01*
X158776899Y-94844367D01*
X158765465Y-94806674D01*
X158761000Y-94761339D01*
X158761000Y-93924661D01*
X158765465Y-93879326D01*
X158776899Y-93841633D01*
X158795466Y-93806897D01*
X158820452Y-93776452D01*
X158850897Y-93751466D01*
X158885633Y-93732899D01*
X158923326Y-93721465D01*
X158968661Y-93717000D01*
X160055339Y-93717000D01*
X160100674Y-93721465D01*
G37*
G36*
X162386674Y-93721465D02*
G01*
X162424367Y-93732899D01*
X162459103Y-93751466D01*
X162489548Y-93776452D01*
X162514534Y-93806897D01*
X162533101Y-93841633D01*
X162544535Y-93879326D01*
X162549000Y-93924661D01*
X162549000Y-94761339D01*
X162544535Y-94806674D01*
X162533101Y-94844367D01*
X162514534Y-94879103D01*
X162489548Y-94909548D01*
X162459103Y-94934534D01*
X162424367Y-94953101D01*
X162386674Y-94964535D01*
X162341339Y-94969000D01*
X161254661Y-94969000D01*
X161209326Y-94964535D01*
X161171633Y-94953101D01*
X161136897Y-94934534D01*
X161106452Y-94909548D01*
X161081466Y-94879103D01*
X161062899Y-94844367D01*
X161051465Y-94806674D01*
X161047000Y-94761339D01*
X161047000Y-93924661D01*
X161051465Y-93879326D01*
X161062899Y-93841633D01*
X161081466Y-93806897D01*
X161106452Y-93776452D01*
X161136897Y-93751466D01*
X161171633Y-93732899D01*
X161209326Y-93721465D01*
X161254661Y-93717000D01*
X162341339Y-93717000D01*
X162386674Y-93721465D01*
G37*
G36*
X147898000Y-94878000D02*
G01*
X146996000Y-94878000D01*
X146996000Y-92876000D01*
X147898000Y-92876000D01*
X147898000Y-94878000D01*
G37*
G36*
X134487228Y-92994703D02*
G01*
X134642100Y-93058853D01*
X134781481Y-93151985D01*
X134900015Y-93270519D01*
X134993147Y-93409900D01*
X135057297Y-93564772D01*
X135090000Y-93729184D01*
X135090000Y-93896816D01*
X135057297Y-94061228D01*
X134993147Y-94216100D01*
X134900015Y-94355481D01*
X134781481Y-94474015D01*
X134642100Y-94567147D01*
X134487228Y-94631297D01*
X134322816Y-94664000D01*
X134155184Y-94664000D01*
X133990772Y-94631297D01*
X133835900Y-94567147D01*
X133696519Y-94474015D01*
X133577985Y-94355481D01*
X133484853Y-94216100D01*
X133420703Y-94061228D01*
X133388000Y-93896816D01*
X133388000Y-93729184D01*
X133420703Y-93564772D01*
X133484853Y-93409900D01*
X133577985Y-93270519D01*
X133696519Y-93151985D01*
X133835900Y-93058853D01*
X133990772Y-92994703D01*
X134155184Y-92962000D01*
X134322816Y-92962000D01*
X134487228Y-92994703D01*
G37*
G36*
X182706674Y-93213465D02*
G01*
X182744367Y-93224899D01*
X182779103Y-93243466D01*
X182809548Y-93268452D01*
X182834534Y-93298897D01*
X182853101Y-93333633D01*
X182864535Y-93371326D01*
X182869000Y-93416661D01*
X182869000Y-94253339D01*
X182864535Y-94298674D01*
X182853101Y-94336367D01*
X182834534Y-94371103D01*
X182809548Y-94401548D01*
X182779103Y-94426534D01*
X182744367Y-94445101D01*
X182706674Y-94456535D01*
X182661339Y-94461000D01*
X181574661Y-94461000D01*
X181529326Y-94456535D01*
X181491633Y-94445101D01*
X181456897Y-94426534D01*
X181426452Y-94401548D01*
X181401466Y-94371103D01*
X181382899Y-94336367D01*
X181371465Y-94298674D01*
X181367000Y-94253339D01*
X181367000Y-93416661D01*
X181371465Y-93371326D01*
X181382899Y-93333633D01*
X181401466Y-93298897D01*
X181426452Y-93268452D01*
X181456897Y-93243466D01*
X181491633Y-93224899D01*
X181529326Y-93213465D01*
X181574661Y-93209000D01*
X182661339Y-93209000D01*
X182706674Y-93213465D01*
G37*
G36*
X172292674Y-93213465D02*
G01*
X172330367Y-93224899D01*
X172365103Y-93243466D01*
X172395548Y-93268452D01*
X172420534Y-93298897D01*
X172439101Y-93333633D01*
X172450535Y-93371326D01*
X172455000Y-93416661D01*
X172455000Y-94253339D01*
X172450535Y-94298674D01*
X172439101Y-94336367D01*
X172420534Y-94371103D01*
X172395548Y-94401548D01*
X172365103Y-94426534D01*
X172330367Y-94445101D01*
X172292674Y-94456535D01*
X172247339Y-94461000D01*
X171160661Y-94461000D01*
X171115326Y-94456535D01*
X171077633Y-94445101D01*
X171042897Y-94426534D01*
X171012452Y-94401548D01*
X170987466Y-94371103D01*
X170968899Y-94336367D01*
X170957465Y-94298674D01*
X170953000Y-94253339D01*
X170953000Y-93416661D01*
X170957465Y-93371326D01*
X170968899Y-93333633D01*
X170987466Y-93298897D01*
X171012452Y-93268452D01*
X171042897Y-93243466D01*
X171077633Y-93224899D01*
X171115326Y-93213465D01*
X171160661Y-93209000D01*
X172247339Y-93209000D01*
X172292674Y-93213465D01*
G37*
G36*
X144098674Y-91834465D02*
G01*
X144136367Y-91845899D01*
X144171103Y-91864466D01*
X144201548Y-91889452D01*
X144226534Y-91919897D01*
X144245101Y-91954633D01*
X144256535Y-91992326D01*
X144261000Y-92037661D01*
X144261000Y-92874339D01*
X144256535Y-92919674D01*
X144245101Y-92957367D01*
X144226534Y-92992103D01*
X144201548Y-93022548D01*
X144171103Y-93047534D01*
X144136367Y-93066101D01*
X144098674Y-93077535D01*
X144053339Y-93082000D01*
X142966661Y-93082000D01*
X142921326Y-93077535D01*
X142883633Y-93066101D01*
X142848897Y-93047534D01*
X142818452Y-93022548D01*
X142793466Y-92992103D01*
X142774899Y-92957367D01*
X142763465Y-92919674D01*
X142759000Y-92874339D01*
X142759000Y-92037661D01*
X142763465Y-91992326D01*
X142774899Y-91954633D01*
X142793466Y-91919897D01*
X142818452Y-91889452D01*
X142848897Y-91864466D01*
X142883633Y-91845899D01*
X142921326Y-91834465D01*
X142966661Y-91830000D01*
X144053339Y-91830000D01*
X144098674Y-91834465D01*
G37*
G36*
X141812674Y-91834465D02*
G01*
X141850367Y-91845899D01*
X141885103Y-91864466D01*
X141915548Y-91889452D01*
X141940534Y-91919897D01*
X141959101Y-91954633D01*
X141970535Y-91992326D01*
X141975000Y-92037661D01*
X141975000Y-92874339D01*
X141970535Y-92919674D01*
X141959101Y-92957367D01*
X141940534Y-92992103D01*
X141915548Y-93022548D01*
X141885103Y-93047534D01*
X141850367Y-93066101D01*
X141812674Y-93077535D01*
X141767339Y-93082000D01*
X140680661Y-93082000D01*
X140635326Y-93077535D01*
X140597633Y-93066101D01*
X140562897Y-93047534D01*
X140532452Y-93022548D01*
X140507466Y-92992103D01*
X140488899Y-92957367D01*
X140477465Y-92919674D01*
X140473000Y-92874339D01*
X140473000Y-92037661D01*
X140477465Y-91992326D01*
X140488899Y-91954633D01*
X140507466Y-91919897D01*
X140532452Y-91889452D01*
X140562897Y-91864466D01*
X140597633Y-91845899D01*
X140635326Y-91834465D01*
X140680661Y-91830000D01*
X141767339Y-91830000D01*
X141812674Y-91834465D01*
G37*
G36*
X139526674Y-91834465D02*
G01*
X139564367Y-91845899D01*
X139599103Y-91864466D01*
X139629548Y-91889452D01*
X139654534Y-91919897D01*
X139673101Y-91954633D01*
X139684535Y-91992326D01*
X139689000Y-92037661D01*
X139689000Y-92874339D01*
X139684535Y-92919674D01*
X139673101Y-92957367D01*
X139654534Y-92992103D01*
X139629548Y-93022548D01*
X139599103Y-93047534D01*
X139564367Y-93066101D01*
X139526674Y-93077535D01*
X139481339Y-93082000D01*
X138394661Y-93082000D01*
X138349326Y-93077535D01*
X138311633Y-93066101D01*
X138276897Y-93047534D01*
X138246452Y-93022548D01*
X138221466Y-92992103D01*
X138202899Y-92957367D01*
X138191465Y-92919674D01*
X138187000Y-92874339D01*
X138187000Y-92037661D01*
X138191465Y-91992326D01*
X138202899Y-91954633D01*
X138221466Y-91919897D01*
X138246452Y-91889452D01*
X138276897Y-91864466D01*
X138311633Y-91845899D01*
X138349326Y-91834465D01*
X138394661Y-91830000D01*
X139481339Y-91830000D01*
X139526674Y-91834465D01*
G37*
G36*
X135090000Y-92164000D02*
G01*
X133388000Y-92164000D01*
X133388000Y-90462000D01*
X135090000Y-90462000D01*
X135090000Y-92164000D01*
G37*
G36*
X175086674Y-90818465D02*
G01*
X175124367Y-90829899D01*
X175159103Y-90848466D01*
X175189548Y-90873452D01*
X175214534Y-90903897D01*
X175233101Y-90938633D01*
X175244535Y-90976326D01*
X175249000Y-91021661D01*
X175249000Y-91858339D01*
X175244535Y-91903674D01*
X175233101Y-91941367D01*
X175214534Y-91976103D01*
X175189548Y-92006548D01*
X175159103Y-92031534D01*
X175124367Y-92050101D01*
X175086674Y-92061535D01*
X175041339Y-92066000D01*
X173954661Y-92066000D01*
X173909326Y-92061535D01*
X173871633Y-92050101D01*
X173836897Y-92031534D01*
X173806452Y-92006548D01*
X173781466Y-91976103D01*
X173762899Y-91941367D01*
X173751465Y-91903674D01*
X173747000Y-91858339D01*
X173747000Y-91021661D01*
X173751465Y-90976326D01*
X173762899Y-90938633D01*
X173781466Y-90903897D01*
X173806452Y-90873452D01*
X173836897Y-90848466D01*
X173871633Y-90829899D01*
X173909326Y-90818465D01*
X173954661Y-90814000D01*
X175041339Y-90814000D01*
X175086674Y-90818465D01*
G37*
G36*
X177626674Y-90818465D02*
G01*
X177664367Y-90829899D01*
X177699103Y-90848466D01*
X177729548Y-90873452D01*
X177754534Y-90903897D01*
X177773101Y-90938633D01*
X177784535Y-90976326D01*
X177789000Y-91021661D01*
X177789000Y-91858339D01*
X177784535Y-91903674D01*
X177773101Y-91941367D01*
X177754534Y-91976103D01*
X177729548Y-92006548D01*
X177699103Y-92031534D01*
X177664367Y-92050101D01*
X177626674Y-92061535D01*
X177581339Y-92066000D01*
X176494661Y-92066000D01*
X176449326Y-92061535D01*
X176411633Y-92050101D01*
X176376897Y-92031534D01*
X176346452Y-92006548D01*
X176321466Y-91976103D01*
X176302899Y-91941367D01*
X176291465Y-91903674D01*
X176287000Y-91858339D01*
X176287000Y-91021661D01*
X176291465Y-90976326D01*
X176302899Y-90938633D01*
X176321466Y-90903897D01*
X176346452Y-90873452D01*
X176376897Y-90848466D01*
X176411633Y-90829899D01*
X176449326Y-90818465D01*
X176494661Y-90814000D01*
X177581339Y-90814000D01*
X177626674Y-90818465D01*
G37*
G36*
X165856228Y-90193703D02*
G01*
X166011100Y-90257853D01*
X166150481Y-90350985D01*
X166269015Y-90469519D01*
X166362147Y-90608900D01*
X166426297Y-90763772D01*
X166459000Y-90928184D01*
X166459000Y-91095816D01*
X166426297Y-91260228D01*
X166362147Y-91415100D01*
X166269015Y-91554481D01*
X166150481Y-91673015D01*
X166011100Y-91766147D01*
X165856228Y-91830297D01*
X165691816Y-91863000D01*
X165524184Y-91863000D01*
X165359772Y-91830297D01*
X165204900Y-91766147D01*
X165065519Y-91673015D01*
X164946985Y-91554481D01*
X164853853Y-91415100D01*
X164789703Y-91260228D01*
X164757000Y-91095816D01*
X164757000Y-90928184D01*
X164789703Y-90763772D01*
X164853853Y-90608900D01*
X164946985Y-90469519D01*
X165065519Y-90350985D01*
X165204900Y-90257853D01*
X165359772Y-90193703D01*
X165524184Y-90161000D01*
X165691816Y-90161000D01*
X165856228Y-90193703D01*
G37*
G36*
X144098674Y-89784465D02*
G01*
X144136367Y-89795899D01*
X144171103Y-89814466D01*
X144201548Y-89839452D01*
X144226534Y-89869897D01*
X144245101Y-89904633D01*
X144256535Y-89942326D01*
X144261000Y-89987661D01*
X144261000Y-90824339D01*
X144256535Y-90869674D01*
X144245101Y-90907367D01*
X144226534Y-90942103D01*
X144201548Y-90972548D01*
X144171103Y-90997534D01*
X144136367Y-91016101D01*
X144098674Y-91027535D01*
X144053339Y-91032000D01*
X142966661Y-91032000D01*
X142921326Y-91027535D01*
X142883633Y-91016101D01*
X142848897Y-90997534D01*
X142818452Y-90972548D01*
X142793466Y-90942103D01*
X142774899Y-90907367D01*
X142763465Y-90869674D01*
X142759000Y-90824339D01*
X142759000Y-89987661D01*
X142763465Y-89942326D01*
X142774899Y-89904633D01*
X142793466Y-89869897D01*
X142818452Y-89839452D01*
X142848897Y-89814466D01*
X142883633Y-89795899D01*
X142921326Y-89784465D01*
X142966661Y-89780000D01*
X144053339Y-89780000D01*
X144098674Y-89784465D01*
G37*
G36*
X141812674Y-89784465D02*
G01*
X141850367Y-89795899D01*
X141885103Y-89814466D01*
X141915548Y-89839452D01*
X141940534Y-89869897D01*
X141959101Y-89904633D01*
X141970535Y-89942326D01*
X141975000Y-89987661D01*
X141975000Y-90824339D01*
X141970535Y-90869674D01*
X141959101Y-90907367D01*
X141940534Y-90942103D01*
X141915548Y-90972548D01*
X141885103Y-90997534D01*
X141850367Y-91016101D01*
X141812674Y-91027535D01*
X141767339Y-91032000D01*
X140680661Y-91032000D01*
X140635326Y-91027535D01*
X140597633Y-91016101D01*
X140562897Y-90997534D01*
X140532452Y-90972548D01*
X140507466Y-90942103D01*
X140488899Y-90907367D01*
X140477465Y-90869674D01*
X140473000Y-90824339D01*
X140473000Y-89987661D01*
X140477465Y-89942326D01*
X140488899Y-89904633D01*
X140507466Y-89869897D01*
X140532452Y-89839452D01*
X140562897Y-89814466D01*
X140597633Y-89795899D01*
X140635326Y-89784465D01*
X140680661Y-89780000D01*
X141767339Y-89780000D01*
X141812674Y-89784465D01*
G37*
G36*
X139526674Y-89784465D02*
G01*
X139564367Y-89795899D01*
X139599103Y-89814466D01*
X139629548Y-89839452D01*
X139654534Y-89869897D01*
X139673101Y-89904633D01*
X139684535Y-89942326D01*
X139689000Y-89987661D01*
X139689000Y-90824339D01*
X139684535Y-90869674D01*
X139673101Y-90907367D01*
X139654534Y-90942103D01*
X139629548Y-90972548D01*
X139599103Y-90997534D01*
X139564367Y-91016101D01*
X139526674Y-91027535D01*
X139481339Y-91032000D01*
X138394661Y-91032000D01*
X138349326Y-91027535D01*
X138311633Y-91016101D01*
X138276897Y-90997534D01*
X138246452Y-90972548D01*
X138221466Y-90942103D01*
X138202899Y-90907367D01*
X138191465Y-90869674D01*
X138187000Y-90824339D01*
X138187000Y-89987661D01*
X138191465Y-89942326D01*
X138202899Y-89904633D01*
X138221466Y-89869897D01*
X138246452Y-89839452D01*
X138276897Y-89814466D01*
X138311633Y-89795899D01*
X138349326Y-89784465D01*
X138394661Y-89780000D01*
X139481339Y-89780000D01*
X139526674Y-89784465D01*
G37*
G36*
X175086674Y-88768465D02*
G01*
X175124367Y-88779899D01*
X175159103Y-88798466D01*
X175189548Y-88823452D01*
X175214534Y-88853897D01*
X175233101Y-88888633D01*
X175244535Y-88926326D01*
X175249000Y-88971661D01*
X175249000Y-89808339D01*
X175244535Y-89853674D01*
X175233101Y-89891367D01*
X175214534Y-89926103D01*
X175189548Y-89956548D01*
X175159103Y-89981534D01*
X175124367Y-90000101D01*
X175086674Y-90011535D01*
X175041339Y-90016000D01*
X173954661Y-90016000D01*
X173909326Y-90011535D01*
X173871633Y-90000101D01*
X173836897Y-89981534D01*
X173806452Y-89956548D01*
X173781466Y-89926103D01*
X173762899Y-89891367D01*
X173751465Y-89853674D01*
X173747000Y-89808339D01*
X173747000Y-88971661D01*
X173751465Y-88926326D01*
X173762899Y-88888633D01*
X173781466Y-88853897D01*
X173806452Y-88823452D01*
X173836897Y-88798466D01*
X173871633Y-88779899D01*
X173909326Y-88768465D01*
X173954661Y-88764000D01*
X175041339Y-88764000D01*
X175086674Y-88768465D01*
G37*
G36*
X177626674Y-88768465D02*
G01*
X177664367Y-88779899D01*
X177699103Y-88798466D01*
X177729548Y-88823452D01*
X177754534Y-88853897D01*
X177773101Y-88888633D01*
X177784535Y-88926326D01*
X177789000Y-88971661D01*
X177789000Y-89808339D01*
X177784535Y-89853674D01*
X177773101Y-89891367D01*
X177754534Y-89926103D01*
X177729548Y-89956548D01*
X177699103Y-89981534D01*
X177664367Y-90000101D01*
X177626674Y-90011535D01*
X177581339Y-90016000D01*
X176494661Y-90016000D01*
X176449326Y-90011535D01*
X176411633Y-90000101D01*
X176376897Y-89981534D01*
X176346452Y-89956548D01*
X176321466Y-89926103D01*
X176302899Y-89891367D01*
X176291465Y-89853674D01*
X176287000Y-89808339D01*
X176287000Y-88971661D01*
X176291465Y-88926326D01*
X176302899Y-88888633D01*
X176321466Y-88853897D01*
X176346452Y-88823452D01*
X176376897Y-88798466D01*
X176411633Y-88779899D01*
X176449326Y-88768465D01*
X176494661Y-88764000D01*
X177581339Y-88764000D01*
X177626674Y-88768465D01*
G37*
G36*
X164222000Y-89193000D02*
G01*
X163570000Y-89193000D01*
X163570000Y-87591000D01*
X164222000Y-87591000D01*
X164222000Y-89193000D01*
G37*
G36*
X165172000Y-89193000D02*
G01*
X164520000Y-89193000D01*
X164520000Y-87591000D01*
X165172000Y-87591000D01*
X165172000Y-89193000D01*
G37*
G36*
X166122000Y-89193000D02*
G01*
X165470000Y-89193000D01*
X165470000Y-87591000D01*
X166122000Y-87591000D01*
X166122000Y-89193000D01*
G37*
G36*
X154946000Y-89119000D02*
G01*
X154294000Y-89119000D01*
X154294000Y-87517000D01*
X154946000Y-87517000D01*
X154946000Y-89119000D01*
G37*
G36*
X142820000Y-89119000D02*
G01*
X142168000Y-89119000D01*
X142168000Y-87517000D01*
X142820000Y-87517000D01*
X142820000Y-89119000D01*
G37*
G36*
X159584000Y-89119000D02*
G01*
X158932000Y-89119000D01*
X158932000Y-87517000D01*
X159584000Y-87517000D01*
X159584000Y-89119000D01*
G37*
G36*
X158634000Y-89119000D02*
G01*
X157982000Y-89119000D01*
X157982000Y-87517000D01*
X158634000Y-87517000D01*
X158634000Y-89119000D01*
G37*
G36*
X141870000Y-89119000D02*
G01*
X141218000Y-89119000D01*
X141218000Y-87517000D01*
X141870000Y-87517000D01*
X141870000Y-89119000D01*
G37*
G36*
X153996000Y-89119000D02*
G01*
X153344000Y-89119000D01*
X153344000Y-87517000D01*
X153996000Y-87517000D01*
X153996000Y-89119000D01*
G37*
G36*
X143770000Y-89119000D02*
G01*
X143118000Y-89119000D01*
X143118000Y-87517000D01*
X143770000Y-87517000D01*
X143770000Y-89119000D01*
G37*
G36*
X147458000Y-89119000D02*
G01*
X146806000Y-89119000D01*
X146806000Y-87517000D01*
X147458000Y-87517000D01*
X147458000Y-89119000D01*
G37*
G36*
X148408000Y-89119000D02*
G01*
X147756000Y-89119000D01*
X147756000Y-87517000D01*
X148408000Y-87517000D01*
X148408000Y-89119000D01*
G37*
G36*
X149358000Y-89119000D02*
G01*
X148706000Y-89119000D01*
X148706000Y-87517000D01*
X149358000Y-87517000D01*
X149358000Y-89119000D01*
G37*
G36*
X153046000Y-89119000D02*
G01*
X152394000Y-89119000D01*
X152394000Y-87517000D01*
X153046000Y-87517000D01*
X153046000Y-89119000D01*
G37*
G36*
X160534000Y-89119000D02*
G01*
X159882000Y-89119000D01*
X159882000Y-87517000D01*
X160534000Y-87517000D01*
X160534000Y-89119000D01*
G37*
G36*
X134319674Y-87389465D02*
G01*
X134357367Y-87400899D01*
X134392103Y-87419466D01*
X134422548Y-87444452D01*
X134447534Y-87474897D01*
X134466101Y-87509633D01*
X134477535Y-87547326D01*
X134482000Y-87592661D01*
X134482000Y-88429339D01*
X134477535Y-88474674D01*
X134466101Y-88512367D01*
X134447534Y-88547103D01*
X134422548Y-88577548D01*
X134392103Y-88602534D01*
X134357367Y-88621101D01*
X134319674Y-88632535D01*
X134274339Y-88637000D01*
X133187661Y-88637000D01*
X133142326Y-88632535D01*
X133104633Y-88621101D01*
X133069897Y-88602534D01*
X133039452Y-88577548D01*
X133014466Y-88547103D01*
X132995899Y-88512367D01*
X132984465Y-88474674D01*
X132980000Y-88429339D01*
X132980000Y-87592661D01*
X132984465Y-87547326D01*
X132995899Y-87509633D01*
X133014466Y-87474897D01*
X133039452Y-87444452D01*
X133069897Y-87419466D01*
X133104633Y-87400899D01*
X133142326Y-87389465D01*
X133187661Y-87385000D01*
X134274339Y-87385000D01*
X134319674Y-87389465D01*
G37*
G36*
X157052674Y-87271465D02*
G01*
X157090367Y-87282899D01*
X157125103Y-87301466D01*
X157155548Y-87326452D01*
X157180534Y-87356897D01*
X157199101Y-87391633D01*
X157210535Y-87429326D01*
X157215000Y-87474661D01*
X157215000Y-88311339D01*
X157210535Y-88356674D01*
X157199101Y-88394367D01*
X157180534Y-88429103D01*
X157155548Y-88459548D01*
X157125103Y-88484534D01*
X157090367Y-88503101D01*
X157052674Y-88514535D01*
X157007339Y-88519000D01*
X155920661Y-88519000D01*
X155875326Y-88514535D01*
X155837633Y-88503101D01*
X155802897Y-88484534D01*
X155772452Y-88459548D01*
X155747466Y-88429103D01*
X155728899Y-88394367D01*
X155717465Y-88356674D01*
X155713000Y-88311339D01*
X155713000Y-87474661D01*
X155717465Y-87429326D01*
X155728899Y-87391633D01*
X155747466Y-87356897D01*
X155772452Y-87326452D01*
X155802897Y-87301466D01*
X155837633Y-87282899D01*
X155875326Y-87271465D01*
X155920661Y-87267000D01*
X157007339Y-87267000D01*
X157052674Y-87271465D01*
G37*
G36*
X145876674Y-87271465D02*
G01*
X145914367Y-87282899D01*
X145949103Y-87301466D01*
X145979548Y-87326452D01*
X146004534Y-87356897D01*
X146023101Y-87391633D01*
X146034535Y-87429326D01*
X146039000Y-87474661D01*
X146039000Y-88311339D01*
X146034535Y-88356674D01*
X146023101Y-88394367D01*
X146004534Y-88429103D01*
X145979548Y-88459548D01*
X145949103Y-88484534D01*
X145914367Y-88503101D01*
X145876674Y-88514535D01*
X145831339Y-88519000D01*
X144744661Y-88519000D01*
X144699326Y-88514535D01*
X144661633Y-88503101D01*
X144626897Y-88484534D01*
X144596452Y-88459548D01*
X144571466Y-88429103D01*
X144552899Y-88394367D01*
X144541465Y-88356674D01*
X144537000Y-88311339D01*
X144537000Y-87474661D01*
X144541465Y-87429326D01*
X144552899Y-87391633D01*
X144571466Y-87356897D01*
X144596452Y-87326452D01*
X144626897Y-87301466D01*
X144661633Y-87282899D01*
X144699326Y-87271465D01*
X144744661Y-87267000D01*
X145831339Y-87267000D01*
X145876674Y-87271465D01*
G37*
G36*
X162640674Y-87271465D02*
G01*
X162678367Y-87282899D01*
X162713103Y-87301466D01*
X162743548Y-87326452D01*
X162768534Y-87356897D01*
X162787101Y-87391633D01*
X162798535Y-87429326D01*
X162803000Y-87474661D01*
X162803000Y-88311339D01*
X162798535Y-88356674D01*
X162787101Y-88394367D01*
X162768534Y-88429103D01*
X162743548Y-88459548D01*
X162713103Y-88484534D01*
X162678367Y-88503101D01*
X162640674Y-88514535D01*
X162595339Y-88519000D01*
X161508661Y-88519000D01*
X161463326Y-88514535D01*
X161425633Y-88503101D01*
X161390897Y-88484534D01*
X161360452Y-88459548D01*
X161335466Y-88429103D01*
X161316899Y-88394367D01*
X161305465Y-88356674D01*
X161301000Y-88311339D01*
X161301000Y-87474661D01*
X161305465Y-87429326D01*
X161316899Y-87391633D01*
X161335466Y-87356897D01*
X161360452Y-87326452D01*
X161390897Y-87301466D01*
X161425633Y-87282899D01*
X161463326Y-87271465D01*
X161508661Y-87267000D01*
X162595339Y-87267000D01*
X162640674Y-87271465D01*
G37*
G36*
X151464674Y-87262465D02*
G01*
X151502367Y-87273899D01*
X151537103Y-87292466D01*
X151567548Y-87317452D01*
X151592534Y-87347897D01*
X151611101Y-87382633D01*
X151622535Y-87420326D01*
X151627000Y-87465661D01*
X151627000Y-88302339D01*
X151622535Y-88347674D01*
X151611101Y-88385367D01*
X151592534Y-88420103D01*
X151567548Y-88450548D01*
X151537103Y-88475534D01*
X151502367Y-88494101D01*
X151464674Y-88505535D01*
X151419339Y-88510000D01*
X150332661Y-88510000D01*
X150287326Y-88505535D01*
X150249633Y-88494101D01*
X150214897Y-88475534D01*
X150184452Y-88450548D01*
X150159466Y-88420103D01*
X150140899Y-88385367D01*
X150129465Y-88347674D01*
X150125000Y-88302339D01*
X150125000Y-87465661D01*
X150129465Y-87420326D01*
X150140899Y-87382633D01*
X150159466Y-87347897D01*
X150184452Y-87317452D01*
X150214897Y-87292466D01*
X150249633Y-87273899D01*
X150287326Y-87262465D01*
X150332661Y-87258000D01*
X151419339Y-87258000D01*
X151464674Y-87262465D01*
G37*
G36*
X129653512Y-85463927D02*
G01*
X129802812Y-85493624D01*
X129966784Y-85561544D01*
X130114354Y-85660147D01*
X130239853Y-85785646D01*
X130338456Y-85933216D01*
X130406376Y-86097188D01*
X130426195Y-86196827D01*
X130441000Y-86271258D01*
X130441000Y-86448742D01*
X130436970Y-86469000D01*
X130406376Y-86622812D01*
X130338456Y-86786784D01*
X130239853Y-86934354D01*
X130114354Y-87059853D01*
X129966784Y-87158456D01*
X129802812Y-87226376D01*
X129653512Y-87256073D01*
X129628742Y-87261000D01*
X129451258Y-87261000D01*
X129426488Y-87256073D01*
X129277188Y-87226376D01*
X129113216Y-87158456D01*
X128965646Y-87059853D01*
X128840147Y-86934354D01*
X128741544Y-86786784D01*
X128673624Y-86622812D01*
X128643030Y-86469000D01*
X128639000Y-86448742D01*
X128639000Y-86271258D01*
X128653805Y-86196827D01*
X128673624Y-86097188D01*
X128741544Y-85933216D01*
X128840147Y-85785646D01*
X128965646Y-85660147D01*
X129113216Y-85561544D01*
X129277188Y-85493624D01*
X129426488Y-85463927D01*
X129451258Y-85459000D01*
X129628742Y-85459000D01*
X129653512Y-85463927D01*
G37*
G36*
X182993512Y-85463927D02*
G01*
X183142812Y-85493624D01*
X183306784Y-85561544D01*
X183454354Y-85660147D01*
X183579853Y-85785646D01*
X183678456Y-85933216D01*
X183746376Y-86097188D01*
X183766195Y-86196827D01*
X183781000Y-86271258D01*
X183781000Y-86448742D01*
X183776970Y-86469000D01*
X183746376Y-86622812D01*
X183678456Y-86786784D01*
X183579853Y-86934354D01*
X183454354Y-87059853D01*
X183306784Y-87158456D01*
X183142812Y-87226376D01*
X182993512Y-87256073D01*
X182968742Y-87261000D01*
X182791258Y-87261000D01*
X182766488Y-87256073D01*
X182617188Y-87226376D01*
X182453216Y-87158456D01*
X182305646Y-87059853D01*
X182180147Y-86934354D01*
X182081544Y-86786784D01*
X182013624Y-86622812D01*
X181983030Y-86469000D01*
X181979000Y-86448742D01*
X181979000Y-86271258D01*
X181993805Y-86196827D01*
X182013624Y-86097188D01*
X182081544Y-85933216D01*
X182180147Y-85785646D01*
X182305646Y-85660147D01*
X182453216Y-85561544D01*
X182617188Y-85493624D01*
X182766488Y-85463927D01*
X182791258Y-85459000D01*
X182968742Y-85459000D01*
X182993512Y-85463927D01*
G37*
G36*
X134319674Y-85339465D02*
G01*
X134357367Y-85350899D01*
X134392103Y-85369466D01*
X134422548Y-85394452D01*
X134447534Y-85424897D01*
X134466101Y-85459633D01*
X134477535Y-85497326D01*
X134482000Y-85542661D01*
X134482000Y-86379339D01*
X134477535Y-86424674D01*
X134466101Y-86462367D01*
X134447534Y-86497103D01*
X134422548Y-86527548D01*
X134392103Y-86552534D01*
X134357367Y-86571101D01*
X134319674Y-86582535D01*
X134274339Y-86587000D01*
X133187661Y-86587000D01*
X133142326Y-86582535D01*
X133104633Y-86571101D01*
X133069897Y-86552534D01*
X133039452Y-86527548D01*
X133014466Y-86497103D01*
X132995899Y-86462367D01*
X132984465Y-86424674D01*
X132980000Y-86379339D01*
X132980000Y-85542661D01*
X132984465Y-85497326D01*
X132995899Y-85459633D01*
X133014466Y-85424897D01*
X133039452Y-85394452D01*
X133069897Y-85369466D01*
X133104633Y-85350899D01*
X133142326Y-85339465D01*
X133187661Y-85335000D01*
X134274339Y-85335000D01*
X134319674Y-85339465D01*
G37*
G36*
X162640674Y-85221465D02*
G01*
X162678367Y-85232899D01*
X162713103Y-85251466D01*
X162743548Y-85276452D01*
X162768534Y-85306897D01*
X162787101Y-85341633D01*
X162798535Y-85379326D01*
X162803000Y-85424661D01*
X162803000Y-86261339D01*
X162798535Y-86306674D01*
X162787101Y-86344367D01*
X162768534Y-86379103D01*
X162743548Y-86409548D01*
X162713103Y-86434534D01*
X162678367Y-86453101D01*
X162640674Y-86464535D01*
X162595339Y-86469000D01*
X161508661Y-86469000D01*
X161463326Y-86464535D01*
X161425633Y-86453101D01*
X161390897Y-86434534D01*
X161360452Y-86409548D01*
X161335466Y-86379103D01*
X161316899Y-86344367D01*
X161305465Y-86306674D01*
X161301000Y-86261339D01*
X161301000Y-85424661D01*
X161305465Y-85379326D01*
X161316899Y-85341633D01*
X161335466Y-85306897D01*
X161360452Y-85276452D01*
X161390897Y-85251466D01*
X161425633Y-85232899D01*
X161463326Y-85221465D01*
X161508661Y-85217000D01*
X162595339Y-85217000D01*
X162640674Y-85221465D01*
G37*
G36*
X145876674Y-85221465D02*
G01*
X145914367Y-85232899D01*
X145949103Y-85251466D01*
X145979548Y-85276452D01*
X146004534Y-85306897D01*
X146023101Y-85341633D01*
X146034535Y-85379326D01*
X146039000Y-85424661D01*
X146039000Y-86261339D01*
X146034535Y-86306674D01*
X146023101Y-86344367D01*
X146004534Y-86379103D01*
X145979548Y-86409548D01*
X145949103Y-86434534D01*
X145914367Y-86453101D01*
X145876674Y-86464535D01*
X145831339Y-86469000D01*
X144744661Y-86469000D01*
X144699326Y-86464535D01*
X144661633Y-86453101D01*
X144626897Y-86434534D01*
X144596452Y-86409548D01*
X144571466Y-86379103D01*
X144552899Y-86344367D01*
X144541465Y-86306674D01*
X144537000Y-86261339D01*
X144537000Y-85424661D01*
X144541465Y-85379326D01*
X144552899Y-85341633D01*
X144571466Y-85306897D01*
X144596452Y-85276452D01*
X144626897Y-85251466D01*
X144661633Y-85232899D01*
X144699326Y-85221465D01*
X144744661Y-85217000D01*
X145831339Y-85217000D01*
X145876674Y-85221465D01*
G37*
G36*
X157052674Y-85221465D02*
G01*
X157090367Y-85232899D01*
X157125103Y-85251466D01*
X157155548Y-85276452D01*
X157180534Y-85306897D01*
X157199101Y-85341633D01*
X157210535Y-85379326D01*
X157215000Y-85424661D01*
X157215000Y-86261339D01*
X157210535Y-86306674D01*
X157199101Y-86344367D01*
X157180534Y-86379103D01*
X157155548Y-86409548D01*
X157125103Y-86434534D01*
X157090367Y-86453101D01*
X157052674Y-86464535D01*
X157007339Y-86469000D01*
X155920661Y-86469000D01*
X155875326Y-86464535D01*
X155837633Y-86453101D01*
X155802897Y-86434534D01*
X155772452Y-86409548D01*
X155747466Y-86379103D01*
X155728899Y-86344367D01*
X155717465Y-86306674D01*
X155713000Y-86261339D01*
X155713000Y-85424661D01*
X155717465Y-85379326D01*
X155728899Y-85341633D01*
X155747466Y-85306897D01*
X155772452Y-85276452D01*
X155802897Y-85251466D01*
X155837633Y-85232899D01*
X155875326Y-85221465D01*
X155920661Y-85217000D01*
X157007339Y-85217000D01*
X157052674Y-85221465D01*
G37*
G36*
X151464674Y-85212465D02*
G01*
X151502367Y-85223899D01*
X151537103Y-85242466D01*
X151567548Y-85267452D01*
X151592534Y-85297897D01*
X151611101Y-85332633D01*
X151622535Y-85370326D01*
X151627000Y-85415661D01*
X151627000Y-86252339D01*
X151622535Y-86297674D01*
X151611101Y-86335367D01*
X151592534Y-86370103D01*
X151567548Y-86400548D01*
X151537103Y-86425534D01*
X151502367Y-86444101D01*
X151464674Y-86455535D01*
X151419339Y-86460000D01*
X150332661Y-86460000D01*
X150287326Y-86455535D01*
X150249633Y-86444101D01*
X150214897Y-86425534D01*
X150184452Y-86400548D01*
X150159466Y-86370103D01*
X150140899Y-86335367D01*
X150129465Y-86297674D01*
X150125000Y-86252339D01*
X150125000Y-85415661D01*
X150129465Y-85370326D01*
X150140899Y-85332633D01*
X150159466Y-85297897D01*
X150184452Y-85267452D01*
X150214897Y-85242466D01*
X150249633Y-85223899D01*
X150287326Y-85212465D01*
X150332661Y-85208000D01*
X151419339Y-85208000D01*
X151464674Y-85212465D01*
G37*
G36*
X164222000Y-86293000D02*
G01*
X163570000Y-86293000D01*
X163570000Y-84691000D01*
X164222000Y-84691000D01*
X164222000Y-86293000D01*
G37*
G36*
X166122000Y-86293000D02*
G01*
X165470000Y-86293000D01*
X165470000Y-84691000D01*
X166122000Y-84691000D01*
X166122000Y-86293000D01*
G37*
G36*
X165172000Y-86293000D02*
G01*
X164520000Y-86293000D01*
X164520000Y-84691000D01*
X165172000Y-84691000D01*
X165172000Y-86293000D01*
G37*
G36*
X147458000Y-86219000D02*
G01*
X146806000Y-86219000D01*
X146806000Y-84617000D01*
X147458000Y-84617000D01*
X147458000Y-86219000D01*
G37*
G36*
X160534000Y-86219000D02*
G01*
X159882000Y-86219000D01*
X159882000Y-84617000D01*
X160534000Y-84617000D01*
X160534000Y-86219000D01*
G37*
G36*
X159584000Y-86219000D02*
G01*
X158932000Y-86219000D01*
X158932000Y-84617000D01*
X159584000Y-84617000D01*
X159584000Y-86219000D01*
G37*
G36*
X158634000Y-86219000D02*
G01*
X157982000Y-86219000D01*
X157982000Y-84617000D01*
X158634000Y-84617000D01*
X158634000Y-86219000D01*
G37*
G36*
X154946000Y-86219000D02*
G01*
X154294000Y-86219000D01*
X154294000Y-84617000D01*
X154946000Y-84617000D01*
X154946000Y-86219000D01*
G37*
G36*
X153996000Y-86219000D02*
G01*
X153344000Y-86219000D01*
X153344000Y-84617000D01*
X153996000Y-84617000D01*
X153996000Y-86219000D01*
G37*
G36*
X149358000Y-86219000D02*
G01*
X148706000Y-86219000D01*
X148706000Y-84617000D01*
X149358000Y-84617000D01*
X149358000Y-86219000D01*
G37*
G36*
X153046000Y-86219000D02*
G01*
X152394000Y-86219000D01*
X152394000Y-84617000D01*
X153046000Y-84617000D01*
X153046000Y-86219000D01*
G37*
G36*
X148408000Y-86219000D02*
G01*
X147756000Y-86219000D01*
X147756000Y-84617000D01*
X148408000Y-84617000D01*
X148408000Y-86219000D01*
G37*
G36*
X143770000Y-86219000D02*
G01*
X143118000Y-86219000D01*
X143118000Y-84617000D01*
X143770000Y-84617000D01*
X143770000Y-86219000D01*
G37*
G36*
X142820000Y-86219000D02*
G01*
X142168000Y-86219000D01*
X142168000Y-84617000D01*
X142820000Y-84617000D01*
X142820000Y-86219000D01*
G37*
G36*
X141870000Y-86219000D02*
G01*
X141218000Y-86219000D01*
X141218000Y-84617000D01*
X141870000Y-84617000D01*
X141870000Y-86219000D01*
G37*
G36*
X176270228Y-83382703D02*
G01*
X176425100Y-83446853D01*
X176564481Y-83539985D01*
X176683015Y-83658519D01*
X176776147Y-83797900D01*
X176840297Y-83952772D01*
X176873000Y-84117184D01*
X176873000Y-84284816D01*
X176840297Y-84449228D01*
X176776147Y-84604100D01*
X176683015Y-84743481D01*
X176564481Y-84862015D01*
X176425100Y-84955147D01*
X176270228Y-85019297D01*
X176105816Y-85052000D01*
X175938184Y-85052000D01*
X175773772Y-85019297D01*
X175618900Y-84955147D01*
X175479519Y-84862015D01*
X175360985Y-84743481D01*
X175267853Y-84604100D01*
X175203703Y-84449228D01*
X175171000Y-84284816D01*
X175171000Y-84117184D01*
X175203703Y-83952772D01*
X175267853Y-83797900D01*
X175360985Y-83658519D01*
X175479519Y-83539985D01*
X175618900Y-83446853D01*
X175773772Y-83382703D01*
X175938184Y-83350000D01*
X176105816Y-83350000D01*
X176270228Y-83382703D01*
G37*
G36*
X129653512Y-82923927D02*
G01*
X129802812Y-82953624D01*
X129966784Y-83021544D01*
X130114354Y-83120147D01*
X130239853Y-83245646D01*
X130338456Y-83393216D01*
X130406376Y-83557188D01*
X130441000Y-83731259D01*
X130441000Y-83908741D01*
X130406376Y-84082812D01*
X130338456Y-84246784D01*
X130239853Y-84394354D01*
X130114354Y-84519853D01*
X129966784Y-84618456D01*
X129802812Y-84686376D01*
X129653512Y-84716073D01*
X129628742Y-84721000D01*
X129451258Y-84721000D01*
X129426488Y-84716073D01*
X129277188Y-84686376D01*
X129113216Y-84618456D01*
X128965646Y-84519853D01*
X128840147Y-84394354D01*
X128741544Y-84246784D01*
X128673624Y-84082812D01*
X128639000Y-83908741D01*
X128639000Y-83731259D01*
X128673624Y-83557188D01*
X128741544Y-83393216D01*
X128840147Y-83245646D01*
X128965646Y-83120147D01*
X129113216Y-83021544D01*
X129277188Y-82953624D01*
X129426488Y-82923927D01*
X129451258Y-82919000D01*
X129628742Y-82919000D01*
X129653512Y-82923927D01*
G37*
G36*
X182993512Y-82923927D02*
G01*
X183142812Y-82953624D01*
X183306784Y-83021544D01*
X183454354Y-83120147D01*
X183579853Y-83245646D01*
X183678456Y-83393216D01*
X183746376Y-83557188D01*
X183781000Y-83731259D01*
X183781000Y-83908741D01*
X183746376Y-84082812D01*
X183678456Y-84246784D01*
X183579853Y-84394354D01*
X183454354Y-84519853D01*
X183306784Y-84618456D01*
X183142812Y-84686376D01*
X182993512Y-84716073D01*
X182968742Y-84721000D01*
X182791258Y-84721000D01*
X182766488Y-84716073D01*
X182617188Y-84686376D01*
X182453216Y-84618456D01*
X182305646Y-84519853D01*
X182180147Y-84394354D01*
X182081544Y-84246784D01*
X182013624Y-84082812D01*
X181979000Y-83908741D01*
X181979000Y-83731259D01*
X182013624Y-83557188D01*
X182081544Y-83393216D01*
X182180147Y-83245646D01*
X182305646Y-83120147D01*
X182453216Y-83021544D01*
X182617188Y-82953624D01*
X182766488Y-82923927D01*
X182791258Y-82919000D01*
X182968742Y-82919000D01*
X182993512Y-82923927D01*
G37*
G36*
X136900228Y-81945703D02*
G01*
X137055100Y-82009853D01*
X137194481Y-82102985D01*
X137313015Y-82221519D01*
X137406147Y-82360900D01*
X137470297Y-82515772D01*
X137503000Y-82680184D01*
X137503000Y-82847816D01*
X137470297Y-83012228D01*
X137406147Y-83167100D01*
X137313015Y-83306481D01*
X137194481Y-83425015D01*
X137055100Y-83518147D01*
X136900228Y-83582297D01*
X136735816Y-83615000D01*
X136568184Y-83615000D01*
X136403772Y-83582297D01*
X136248900Y-83518147D01*
X136109519Y-83425015D01*
X135990985Y-83306481D01*
X135897853Y-83167100D01*
X135833703Y-83012228D01*
X135801000Y-82847816D01*
X135801000Y-82680184D01*
X135833703Y-82515772D01*
X135897853Y-82360900D01*
X135990985Y-82221519D01*
X136109519Y-82102985D01*
X136248900Y-82009853D01*
X136403772Y-81945703D01*
X136568184Y-81913000D01*
X136735816Y-81913000D01*
X136900228Y-81945703D01*
G37*
G36*
X167359674Y-81676465D02*
G01*
X167397367Y-81687899D01*
X167432103Y-81706466D01*
X167462548Y-81731452D01*
X167487534Y-81761897D01*
X167506101Y-81796633D01*
X167517535Y-81834326D01*
X167522000Y-81879661D01*
X167522000Y-82966339D01*
X167517535Y-83011674D01*
X167506101Y-83049367D01*
X167487534Y-83084103D01*
X167462548Y-83114548D01*
X167432103Y-83139534D01*
X167397367Y-83158101D01*
X167359674Y-83169535D01*
X167314339Y-83174000D01*
X166477661Y-83174000D01*
X166432326Y-83169535D01*
X166394633Y-83158101D01*
X166359897Y-83139534D01*
X166329452Y-83114548D01*
X166304466Y-83084103D01*
X166285899Y-83049367D01*
X166274465Y-83011674D01*
X166270000Y-82966339D01*
X166270000Y-81879661D01*
X166274465Y-81834326D01*
X166285899Y-81796633D01*
X166304466Y-81761897D01*
X166329452Y-81731452D01*
X166359897Y-81706466D01*
X166394633Y-81687899D01*
X166432326Y-81676465D01*
X166477661Y-81672000D01*
X167314339Y-81672000D01*
X167359674Y-81676465D01*
G37*
G36*
X165309674Y-81676465D02*
G01*
X165347367Y-81687899D01*
X165382103Y-81706466D01*
X165412548Y-81731452D01*
X165437534Y-81761897D01*
X165456101Y-81796633D01*
X165467535Y-81834326D01*
X165472000Y-81879661D01*
X165472000Y-82966339D01*
X165467535Y-83011674D01*
X165456101Y-83049367D01*
X165437534Y-83084103D01*
X165412548Y-83114548D01*
X165382103Y-83139534D01*
X165347367Y-83158101D01*
X165309674Y-83169535D01*
X165264339Y-83174000D01*
X164427661Y-83174000D01*
X164382326Y-83169535D01*
X164344633Y-83158101D01*
X164309897Y-83139534D01*
X164279452Y-83114548D01*
X164254466Y-83084103D01*
X164235899Y-83049367D01*
X164224465Y-83011674D01*
X164220000Y-82966339D01*
X164220000Y-81879661D01*
X164224465Y-81834326D01*
X164235899Y-81796633D01*
X164254466Y-81761897D01*
X164279452Y-81731452D01*
X164309897Y-81706466D01*
X164344633Y-81687899D01*
X164382326Y-81676465D01*
X164427661Y-81672000D01*
X165264339Y-81672000D01*
X165309674Y-81676465D01*
G37*
G36*
X159721674Y-81676465D02*
G01*
X159759367Y-81687899D01*
X159794103Y-81706466D01*
X159824548Y-81731452D01*
X159849534Y-81761897D01*
X159868101Y-81796633D01*
X159879535Y-81834326D01*
X159884000Y-81879661D01*
X159884000Y-82966339D01*
X159879535Y-83011674D01*
X159868101Y-83049367D01*
X159849534Y-83084103D01*
X159824548Y-83114548D01*
X159794103Y-83139534D01*
X159759367Y-83158101D01*
X159721674Y-83169535D01*
X159676339Y-83174000D01*
X158839661Y-83174000D01*
X158794326Y-83169535D01*
X158756633Y-83158101D01*
X158721897Y-83139534D01*
X158691452Y-83114548D01*
X158666466Y-83084103D01*
X158647899Y-83049367D01*
X158636465Y-83011674D01*
X158632000Y-82966339D01*
X158632000Y-81879661D01*
X158636465Y-81834326D01*
X158647899Y-81796633D01*
X158666466Y-81761897D01*
X158691452Y-81731452D01*
X158721897Y-81706466D01*
X158756633Y-81687899D01*
X158794326Y-81676465D01*
X158839661Y-81672000D01*
X159676339Y-81672000D01*
X159721674Y-81676465D01*
G37*
G36*
X161771674Y-81676465D02*
G01*
X161809367Y-81687899D01*
X161844103Y-81706466D01*
X161874548Y-81731452D01*
X161899534Y-81761897D01*
X161918101Y-81796633D01*
X161929535Y-81834326D01*
X161934000Y-81879661D01*
X161934000Y-82966339D01*
X161929535Y-83011674D01*
X161918101Y-83049367D01*
X161899534Y-83084103D01*
X161874548Y-83114548D01*
X161844103Y-83139534D01*
X161809367Y-83158101D01*
X161771674Y-83169535D01*
X161726339Y-83174000D01*
X160889661Y-83174000D01*
X160844326Y-83169535D01*
X160806633Y-83158101D01*
X160771897Y-83139534D01*
X160741452Y-83114548D01*
X160716466Y-83084103D01*
X160697899Y-83049367D01*
X160686465Y-83011674D01*
X160682000Y-82966339D01*
X160682000Y-81879661D01*
X160686465Y-81834326D01*
X160697899Y-81796633D01*
X160716466Y-81761897D01*
X160741452Y-81731452D01*
X160771897Y-81706466D01*
X160806633Y-81687899D01*
X160844326Y-81676465D01*
X160889661Y-81672000D01*
X161726339Y-81672000D01*
X161771674Y-81676465D01*
G37*
G36*
X154124674Y-81676465D02*
G01*
X154162367Y-81687899D01*
X154197103Y-81706466D01*
X154227548Y-81731452D01*
X154252534Y-81761897D01*
X154271101Y-81796633D01*
X154282535Y-81834326D01*
X154287000Y-81879661D01*
X154287000Y-82966339D01*
X154282535Y-83011674D01*
X154271101Y-83049367D01*
X154252534Y-83084103D01*
X154227548Y-83114548D01*
X154197103Y-83139534D01*
X154162367Y-83158101D01*
X154124674Y-83169535D01*
X154079339Y-83174000D01*
X153242661Y-83174000D01*
X153197326Y-83169535D01*
X153159633Y-83158101D01*
X153124897Y-83139534D01*
X153094452Y-83114548D01*
X153069466Y-83084103D01*
X153050899Y-83049367D01*
X153039465Y-83011674D01*
X153035000Y-82966339D01*
X153035000Y-81879661D01*
X153039465Y-81834326D01*
X153050899Y-81796633D01*
X153069466Y-81761897D01*
X153094452Y-81731452D01*
X153124897Y-81706466D01*
X153159633Y-81687899D01*
X153197326Y-81676465D01*
X153242661Y-81672000D01*
X154079339Y-81672000D01*
X154124674Y-81676465D01*
G37*
G36*
X156174674Y-81676465D02*
G01*
X156212367Y-81687899D01*
X156247103Y-81706466D01*
X156277548Y-81731452D01*
X156302534Y-81761897D01*
X156321101Y-81796633D01*
X156332535Y-81834326D01*
X156337000Y-81879661D01*
X156337000Y-82966339D01*
X156332535Y-83011674D01*
X156321101Y-83049367D01*
X156302534Y-83084103D01*
X156277548Y-83114548D01*
X156247103Y-83139534D01*
X156212367Y-83158101D01*
X156174674Y-83169535D01*
X156129339Y-83174000D01*
X155292661Y-83174000D01*
X155247326Y-83169535D01*
X155209633Y-83158101D01*
X155174897Y-83139534D01*
X155144452Y-83114548D01*
X155119466Y-83084103D01*
X155100899Y-83049367D01*
X155089465Y-83011674D01*
X155085000Y-82966339D01*
X155085000Y-81879661D01*
X155089465Y-81834326D01*
X155100899Y-81796633D01*
X155119466Y-81761897D01*
X155144452Y-81731452D01*
X155174897Y-81706466D01*
X155209633Y-81687899D01*
X155247326Y-81676465D01*
X155292661Y-81672000D01*
X156129339Y-81672000D01*
X156174674Y-81676465D01*
G37*
G36*
X148527674Y-81676465D02*
G01*
X148565367Y-81687899D01*
X148600103Y-81706466D01*
X148630548Y-81731452D01*
X148655534Y-81761897D01*
X148674101Y-81796633D01*
X148685535Y-81834326D01*
X148690000Y-81879661D01*
X148690000Y-82966339D01*
X148685535Y-83011674D01*
X148674101Y-83049367D01*
X148655534Y-83084103D01*
X148630548Y-83114548D01*
X148600103Y-83139534D01*
X148565367Y-83158101D01*
X148527674Y-83169535D01*
X148482339Y-83174000D01*
X147645661Y-83174000D01*
X147600326Y-83169535D01*
X147562633Y-83158101D01*
X147527897Y-83139534D01*
X147497452Y-83114548D01*
X147472466Y-83084103D01*
X147453899Y-83049367D01*
X147442465Y-83011674D01*
X147438000Y-82966339D01*
X147438000Y-81879661D01*
X147442465Y-81834326D01*
X147453899Y-81796633D01*
X147472466Y-81761897D01*
X147497452Y-81731452D01*
X147527897Y-81706466D01*
X147562633Y-81687899D01*
X147600326Y-81676465D01*
X147645661Y-81672000D01*
X148482339Y-81672000D01*
X148527674Y-81676465D01*
G37*
G36*
X150577674Y-81676465D02*
G01*
X150615367Y-81687899D01*
X150650103Y-81706466D01*
X150680548Y-81731452D01*
X150705534Y-81761897D01*
X150724101Y-81796633D01*
X150735535Y-81834326D01*
X150740000Y-81879661D01*
X150740000Y-82966339D01*
X150735535Y-83011674D01*
X150724101Y-83049367D01*
X150705534Y-83084103D01*
X150680548Y-83114548D01*
X150650103Y-83139534D01*
X150615367Y-83158101D01*
X150577674Y-83169535D01*
X150532339Y-83174000D01*
X149695661Y-83174000D01*
X149650326Y-83169535D01*
X149612633Y-83158101D01*
X149577897Y-83139534D01*
X149547452Y-83114548D01*
X149522466Y-83084103D01*
X149503899Y-83049367D01*
X149492465Y-83011674D01*
X149488000Y-82966339D01*
X149488000Y-81879661D01*
X149492465Y-81834326D01*
X149503899Y-81796633D01*
X149522466Y-81761897D01*
X149547452Y-81731452D01*
X149577897Y-81706466D01*
X149612633Y-81687899D01*
X149650326Y-81676465D01*
X149695661Y-81672000D01*
X150532339Y-81672000D01*
X150577674Y-81676465D01*
G37*
G36*
X141812674Y-81810465D02*
G01*
X141850367Y-81821899D01*
X141885103Y-81840466D01*
X141915548Y-81865452D01*
X141940534Y-81895897D01*
X141959101Y-81930633D01*
X141970535Y-81968326D01*
X141975000Y-82013661D01*
X141975000Y-82850339D01*
X141970535Y-82895674D01*
X141959101Y-82933367D01*
X141940534Y-82968103D01*
X141915548Y-82998548D01*
X141885103Y-83023534D01*
X141850367Y-83042101D01*
X141812674Y-83053535D01*
X141767339Y-83058000D01*
X140680661Y-83058000D01*
X140635326Y-83053535D01*
X140597633Y-83042101D01*
X140562897Y-83023534D01*
X140532452Y-82998548D01*
X140507466Y-82968103D01*
X140488899Y-82933367D01*
X140477465Y-82895674D01*
X140473000Y-82850339D01*
X140473000Y-82013661D01*
X140477465Y-81968326D01*
X140488899Y-81930633D01*
X140507466Y-81895897D01*
X140532452Y-81865452D01*
X140562897Y-81840466D01*
X140597633Y-81821899D01*
X140635326Y-81810465D01*
X140680661Y-81806000D01*
X141767339Y-81806000D01*
X141812674Y-81810465D01*
G37*
G36*
X144098674Y-81801465D02*
G01*
X144136367Y-81812899D01*
X144171103Y-81831466D01*
X144201548Y-81856452D01*
X144226534Y-81886897D01*
X144245101Y-81921633D01*
X144256535Y-81959326D01*
X144261000Y-82004661D01*
X144261000Y-82841339D01*
X144256535Y-82886674D01*
X144245101Y-82924367D01*
X144226534Y-82959103D01*
X144201548Y-82989548D01*
X144171103Y-83014534D01*
X144136367Y-83033101D01*
X144098674Y-83044535D01*
X144053339Y-83049000D01*
X142966661Y-83049000D01*
X142921326Y-83044535D01*
X142883633Y-83033101D01*
X142848897Y-83014534D01*
X142818452Y-82989548D01*
X142793466Y-82959103D01*
X142774899Y-82924367D01*
X142763465Y-82886674D01*
X142759000Y-82841339D01*
X142759000Y-82004661D01*
X142763465Y-81959326D01*
X142774899Y-81921633D01*
X142793466Y-81886897D01*
X142818452Y-81856452D01*
X142848897Y-81831466D01*
X142883633Y-81812899D01*
X142921326Y-81801465D01*
X142966661Y-81797000D01*
X144053339Y-81797000D01*
X144098674Y-81801465D01*
G37*
G36*
X176873000Y-82552000D02*
G01*
X175171000Y-82552000D01*
X175171000Y-80850000D01*
X176873000Y-80850000D01*
X176873000Y-82552000D01*
G37*
G36*
X182993512Y-80383927D02*
G01*
X183142812Y-80413624D01*
X183306784Y-80481544D01*
X183454354Y-80580147D01*
X183579853Y-80705646D01*
X183678456Y-80853216D01*
X183746376Y-81017188D01*
X183781000Y-81191259D01*
X183781000Y-81368741D01*
X183746376Y-81542812D01*
X183678456Y-81706784D01*
X183579853Y-81854354D01*
X183454354Y-81979853D01*
X183306784Y-82078456D01*
X183142812Y-82146376D01*
X182993512Y-82176073D01*
X182968742Y-82181000D01*
X182791258Y-82181000D01*
X182766488Y-82176073D01*
X182617188Y-82146376D01*
X182453216Y-82078456D01*
X182305646Y-81979853D01*
X182180147Y-81854354D01*
X182081544Y-81706784D01*
X182013624Y-81542812D01*
X181979000Y-81368741D01*
X181979000Y-81191259D01*
X182013624Y-81017188D01*
X182081544Y-80853216D01*
X182180147Y-80705646D01*
X182305646Y-80580147D01*
X182453216Y-80481544D01*
X182617188Y-80413624D01*
X182766488Y-80383927D01*
X182791258Y-80379000D01*
X182968742Y-80379000D01*
X182993512Y-80383927D01*
G37*
G36*
X129653512Y-80383927D02*
G01*
X129802812Y-80413624D01*
X129966784Y-80481544D01*
X130114354Y-80580147D01*
X130239853Y-80705646D01*
X130338456Y-80853216D01*
X130406376Y-81017188D01*
X130441000Y-81191259D01*
X130441000Y-81368741D01*
X130406376Y-81542812D01*
X130338456Y-81706784D01*
X130239853Y-81854354D01*
X130114354Y-81979853D01*
X129966784Y-82078456D01*
X129802812Y-82146376D01*
X129653512Y-82176073D01*
X129628742Y-82181000D01*
X129451258Y-82181000D01*
X129426488Y-82176073D01*
X129277188Y-82146376D01*
X129113216Y-82078456D01*
X128965646Y-81979853D01*
X128840147Y-81854354D01*
X128741544Y-81706784D01*
X128673624Y-81542812D01*
X128639000Y-81368741D01*
X128639000Y-81191259D01*
X128673624Y-81017188D01*
X128741544Y-80853216D01*
X128840147Y-80705646D01*
X128965646Y-80580147D01*
X129113216Y-80481544D01*
X129277188Y-80413624D01*
X129426488Y-80383927D01*
X129451258Y-80379000D01*
X129628742Y-80379000D01*
X129653512Y-80383927D01*
G37*
G36*
X137503000Y-81115000D02*
G01*
X135801000Y-81115000D01*
X135801000Y-79413000D01*
X137503000Y-79413000D01*
X137503000Y-81115000D01*
G37*
G36*
X141812674Y-79760465D02*
G01*
X141850367Y-79771899D01*
X141885103Y-79790466D01*
X141915548Y-79815452D01*
X141940534Y-79845897D01*
X141959101Y-79880633D01*
X141970535Y-79918326D01*
X141975000Y-79963661D01*
X141975000Y-80800339D01*
X141970535Y-80845674D01*
X141959101Y-80883367D01*
X141940534Y-80918103D01*
X141915548Y-80948548D01*
X141885103Y-80973534D01*
X141850367Y-80992101D01*
X141812674Y-81003535D01*
X141767339Y-81008000D01*
X140680661Y-81008000D01*
X140635326Y-81003535D01*
X140597633Y-80992101D01*
X140562897Y-80973534D01*
X140532452Y-80948548D01*
X140507466Y-80918103D01*
X140488899Y-80883367D01*
X140477465Y-80845674D01*
X140473000Y-80800339D01*
X140473000Y-79963661D01*
X140477465Y-79918326D01*
X140488899Y-79880633D01*
X140507466Y-79845897D01*
X140532452Y-79815452D01*
X140562897Y-79790466D01*
X140597633Y-79771899D01*
X140635326Y-79760465D01*
X140680661Y-79756000D01*
X141767339Y-79756000D01*
X141812674Y-79760465D01*
G37*
G36*
X144098674Y-79751465D02*
G01*
X144136367Y-79762899D01*
X144171103Y-79781466D01*
X144201548Y-79806452D01*
X144226534Y-79836897D01*
X144245101Y-79871633D01*
X144256535Y-79909326D01*
X144261000Y-79954661D01*
X144261000Y-80791339D01*
X144256535Y-80836674D01*
X144245101Y-80874367D01*
X144226534Y-80909103D01*
X144201548Y-80939548D01*
X144171103Y-80964534D01*
X144136367Y-80983101D01*
X144098674Y-80994535D01*
X144053339Y-80999000D01*
X142966661Y-80999000D01*
X142921326Y-80994535D01*
X142883633Y-80983101D01*
X142848897Y-80964534D01*
X142818452Y-80939548D01*
X142793466Y-80909103D01*
X142774899Y-80874367D01*
X142763465Y-80836674D01*
X142759000Y-80791339D01*
X142759000Y-79954661D01*
X142763465Y-79909326D01*
X142774899Y-79871633D01*
X142793466Y-79836897D01*
X142818452Y-79806452D01*
X142848897Y-79781466D01*
X142883633Y-79762899D01*
X142921326Y-79751465D01*
X142966661Y-79747000D01*
X144053339Y-79747000D01*
X144098674Y-79751465D01*
G37*
G36*
X167341674Y-78755465D02*
G01*
X167379367Y-78766899D01*
X167414103Y-78785466D01*
X167444548Y-78810452D01*
X167469534Y-78840897D01*
X167488101Y-78875633D01*
X167499535Y-78913326D01*
X167504000Y-78958661D01*
X167504000Y-80045339D01*
X167499535Y-80090674D01*
X167488101Y-80128367D01*
X167469534Y-80163103D01*
X167444548Y-80193548D01*
X167414103Y-80218534D01*
X167379367Y-80237101D01*
X167341674Y-80248535D01*
X167296339Y-80253000D01*
X166459661Y-80253000D01*
X166414326Y-80248535D01*
X166376633Y-80237101D01*
X166341897Y-80218534D01*
X166311452Y-80193548D01*
X166286466Y-80163103D01*
X166267899Y-80128367D01*
X166256465Y-80090674D01*
X166252000Y-80045339D01*
X166252000Y-78958661D01*
X166256465Y-78913326D01*
X166267899Y-78875633D01*
X166286466Y-78840897D01*
X166311452Y-78810452D01*
X166341897Y-78785466D01*
X166376633Y-78766899D01*
X166414326Y-78755465D01*
X166459661Y-78751000D01*
X167296339Y-78751000D01*
X167341674Y-78755465D01*
G37*
G36*
X165291674Y-78755465D02*
G01*
X165329367Y-78766899D01*
X165364103Y-78785466D01*
X165394548Y-78810452D01*
X165419534Y-78840897D01*
X165438101Y-78875633D01*
X165449535Y-78913326D01*
X165454000Y-78958661D01*
X165454000Y-80045339D01*
X165449535Y-80090674D01*
X165438101Y-80128367D01*
X165419534Y-80163103D01*
X165394548Y-80193548D01*
X165364103Y-80218534D01*
X165329367Y-80237101D01*
X165291674Y-80248535D01*
X165246339Y-80253000D01*
X164409661Y-80253000D01*
X164364326Y-80248535D01*
X164326633Y-80237101D01*
X164291897Y-80218534D01*
X164261452Y-80193548D01*
X164236466Y-80163103D01*
X164217899Y-80128367D01*
X164206465Y-80090674D01*
X164202000Y-80045339D01*
X164202000Y-78958661D01*
X164206465Y-78913326D01*
X164217899Y-78875633D01*
X164236466Y-78840897D01*
X164261452Y-78810452D01*
X164291897Y-78785466D01*
X164326633Y-78766899D01*
X164364326Y-78755465D01*
X164409661Y-78751000D01*
X165246339Y-78751000D01*
X165291674Y-78755465D01*
G37*
G36*
X150595674Y-78628465D02*
G01*
X150633367Y-78639899D01*
X150668103Y-78658466D01*
X150698548Y-78683452D01*
X150723534Y-78713897D01*
X150742101Y-78748633D01*
X150753535Y-78786326D01*
X150758000Y-78831661D01*
X150758000Y-79918339D01*
X150753535Y-79963674D01*
X150742101Y-80001367D01*
X150723534Y-80036103D01*
X150698548Y-80066548D01*
X150668103Y-80091534D01*
X150633367Y-80110101D01*
X150595674Y-80121535D01*
X150550339Y-80126000D01*
X149713661Y-80126000D01*
X149668326Y-80121535D01*
X149630633Y-80110101D01*
X149595897Y-80091534D01*
X149565452Y-80066548D01*
X149540466Y-80036103D01*
X149521899Y-80001367D01*
X149510465Y-79963674D01*
X149506000Y-79918339D01*
X149506000Y-78831661D01*
X149510465Y-78786326D01*
X149521899Y-78748633D01*
X149540466Y-78713897D01*
X149565452Y-78683452D01*
X149595897Y-78658466D01*
X149630633Y-78639899D01*
X149668326Y-78628465D01*
X149713661Y-78624000D01*
X150550339Y-78624000D01*
X150595674Y-78628465D01*
G37*
G36*
X148545674Y-78628465D02*
G01*
X148583367Y-78639899D01*
X148618103Y-78658466D01*
X148648548Y-78683452D01*
X148673534Y-78713897D01*
X148692101Y-78748633D01*
X148703535Y-78786326D01*
X148708000Y-78831661D01*
X148708000Y-79918339D01*
X148703535Y-79963674D01*
X148692101Y-80001367D01*
X148673534Y-80036103D01*
X148648548Y-80066548D01*
X148618103Y-80091534D01*
X148583367Y-80110101D01*
X148545674Y-80121535D01*
X148500339Y-80126000D01*
X147663661Y-80126000D01*
X147618326Y-80121535D01*
X147580633Y-80110101D01*
X147545897Y-80091534D01*
X147515452Y-80066548D01*
X147490466Y-80036103D01*
X147471899Y-80001367D01*
X147460465Y-79963674D01*
X147456000Y-79918339D01*
X147456000Y-78831661D01*
X147460465Y-78786326D01*
X147471899Y-78748633D01*
X147490466Y-78713897D01*
X147515452Y-78683452D01*
X147545897Y-78658466D01*
X147580633Y-78639899D01*
X147618326Y-78628465D01*
X147663661Y-78624000D01*
X148500339Y-78624000D01*
X148545674Y-78628465D01*
G37*
G36*
X130441000Y-79641000D02*
G01*
X128639000Y-79641000D01*
X128639000Y-77839000D01*
X130441000Y-77839000D01*
X130441000Y-79641000D01*
G37*
G36*
X183781000Y-79641000D02*
G01*
X181979000Y-79641000D01*
X181979000Y-77839000D01*
X183781000Y-77839000D01*
X183781000Y-79641000D01*
G37*
M02*
