G04 #@! TF.GenerationSoftware,KiCad,Pcbnew,5.1.10-88a1d61d58~90~ubuntu20.04.1*
G04 #@! TF.CreationDate,2021-09-06T13:30:35-04:00*
G04 #@! TF.ProjectId,four_pole_lpf,666f7572-5f70-46f6-9c65-5f6c70662e6b,0.1*
G04 #@! TF.SameCoordinates,Original*
G04 #@! TF.FileFunction,Legend,Bot*
G04 #@! TF.FilePolarity,Positive*
%FSLAX46Y46*%
G04 Gerber Fmt 4.6, Leading zero omitted, Abs format (unit mm)*
G04 Created by KiCad (PCBNEW 5.1.10-88a1d61d58~90~ubuntu20.04.1) date 2021-09-06 13:30:35*
%MOMM*%
%LPD*%
G01*
G04 APERTURE LIST*
%ADD10C,0.150000*%
%ADD11C,0.120000*%
%ADD12C,1.542000*%
%ADD13O,1.802000X1.802000*%
G04 APERTURE END LIST*
D10*
X144492023Y-67779761D02*
X144349166Y-67827380D01*
X144111071Y-67827380D01*
X144015833Y-67779761D01*
X143968214Y-67732142D01*
X143920595Y-67636904D01*
X143920595Y-67541666D01*
X143968214Y-67446428D01*
X144015833Y-67398809D01*
X144111071Y-67351190D01*
X144301547Y-67303571D01*
X144396785Y-67255952D01*
X144444404Y-67208333D01*
X144492023Y-67113095D01*
X144492023Y-67017857D01*
X144444404Y-66922619D01*
X144396785Y-66875000D01*
X144301547Y-66827380D01*
X144063452Y-66827380D01*
X143920595Y-66875000D01*
X143539642Y-67779761D02*
X143396785Y-67827380D01*
X143158690Y-67827380D01*
X143063452Y-67779761D01*
X143015833Y-67732142D01*
X142968214Y-67636904D01*
X142968214Y-67541666D01*
X143015833Y-67446428D01*
X143063452Y-67398809D01*
X143158690Y-67351190D01*
X143349166Y-67303571D01*
X143444404Y-67255952D01*
X143492023Y-67208333D01*
X143539642Y-67113095D01*
X143539642Y-67017857D01*
X143492023Y-66922619D01*
X143444404Y-66875000D01*
X143349166Y-66827380D01*
X143111071Y-66827380D01*
X142968214Y-66875000D01*
X142539642Y-67827380D02*
X142539642Y-66827380D01*
X142111071Y-66922619D02*
X142063452Y-66875000D01*
X141968214Y-66827380D01*
X141730119Y-66827380D01*
X141634880Y-66875000D01*
X141587261Y-66922619D01*
X141539642Y-67017857D01*
X141539642Y-67113095D01*
X141587261Y-67255952D01*
X142158690Y-67827380D01*
X141539642Y-67827380D01*
X140587261Y-67827380D02*
X141158690Y-67827380D01*
X140872976Y-67827380D02*
X140872976Y-66827380D01*
X140968214Y-66970238D01*
X141063452Y-67065476D01*
X141158690Y-67113095D01*
X139730119Y-66827380D02*
X139920595Y-66827380D01*
X140015833Y-66875000D01*
X140063452Y-66922619D01*
X140158690Y-67065476D01*
X140206309Y-67255952D01*
X140206309Y-67636904D01*
X140158690Y-67732142D01*
X140111071Y-67779761D01*
X140015833Y-67827380D01*
X139825357Y-67827380D01*
X139730119Y-67779761D01*
X139682500Y-67732142D01*
X139634880Y-67636904D01*
X139634880Y-67398809D01*
X139682500Y-67303571D01*
X139730119Y-67255952D01*
X139825357Y-67208333D01*
X140015833Y-67208333D01*
X140111071Y-67255952D01*
X140158690Y-67303571D01*
X140206309Y-67398809D01*
X138777738Y-67160714D02*
X138777738Y-67827380D01*
X139015833Y-66779761D02*
X139253928Y-67494047D01*
X138634880Y-67494047D01*
X137063452Y-67160714D02*
X137063452Y-67827380D01*
X137301547Y-66779761D02*
X137539642Y-67494047D01*
X136920595Y-67494047D01*
X136539642Y-67446428D02*
X135777738Y-67446428D01*
X135301547Y-67160714D02*
X135301547Y-68160714D01*
X135301547Y-67208333D02*
X135206309Y-67160714D01*
X135015833Y-67160714D01*
X134920595Y-67208333D01*
X134872976Y-67255952D01*
X134825357Y-67351190D01*
X134825357Y-67636904D01*
X134872976Y-67732142D01*
X134920595Y-67779761D01*
X135015833Y-67827380D01*
X135206309Y-67827380D01*
X135301547Y-67779761D01*
X134253928Y-67827380D02*
X134349166Y-67779761D01*
X134396785Y-67732142D01*
X134444404Y-67636904D01*
X134444404Y-67351190D01*
X134396785Y-67255952D01*
X134349166Y-67208333D01*
X134253928Y-67160714D01*
X134111071Y-67160714D01*
X134015833Y-67208333D01*
X133968214Y-67255952D01*
X133920595Y-67351190D01*
X133920595Y-67636904D01*
X133968214Y-67732142D01*
X134015833Y-67779761D01*
X134111071Y-67827380D01*
X134253928Y-67827380D01*
X133349166Y-67827380D02*
X133444404Y-67779761D01*
X133492023Y-67684523D01*
X133492023Y-66827380D01*
X132587261Y-67779761D02*
X132682500Y-67827380D01*
X132872976Y-67827380D01*
X132968214Y-67779761D01*
X133015833Y-67684523D01*
X133015833Y-67303571D01*
X132968214Y-67208333D01*
X132872976Y-67160714D01*
X132682500Y-67160714D01*
X132587261Y-67208333D01*
X132539642Y-67303571D01*
X132539642Y-67398809D01*
X133015833Y-67494047D01*
X130872976Y-67827380D02*
X131349166Y-67827380D01*
X131349166Y-66827380D01*
X130539642Y-67827380D02*
X130539642Y-66827380D01*
X130158690Y-66827380D01*
X130063452Y-66875000D01*
X130015833Y-66922619D01*
X129968214Y-67017857D01*
X129968214Y-67160714D01*
X130015833Y-67255952D01*
X130063452Y-67303571D01*
X130158690Y-67351190D01*
X130539642Y-67351190D01*
X129206309Y-67303571D02*
X129539642Y-67303571D01*
X129539642Y-67827380D02*
X129539642Y-66827380D01*
X129063452Y-66827380D01*
X144444404Y-69477380D02*
X144444404Y-68810714D01*
X144444404Y-69001190D02*
X144396785Y-68905952D01*
X144349166Y-68858333D01*
X144253928Y-68810714D01*
X144158690Y-68810714D01*
X143444404Y-69429761D02*
X143539642Y-69477380D01*
X143730119Y-69477380D01*
X143825357Y-69429761D01*
X143872976Y-69334523D01*
X143872976Y-68953571D01*
X143825357Y-68858333D01*
X143730119Y-68810714D01*
X143539642Y-68810714D01*
X143444404Y-68858333D01*
X143396785Y-68953571D01*
X143396785Y-69048809D01*
X143872976Y-69144047D01*
X143063452Y-68810714D02*
X142825357Y-69477380D01*
X142587261Y-68810714D01*
X141253928Y-68477380D02*
X141158690Y-68477380D01*
X141063452Y-68525000D01*
X141015833Y-68572619D01*
X140968214Y-68667857D01*
X140920595Y-68858333D01*
X140920595Y-69096428D01*
X140968214Y-69286904D01*
X141015833Y-69382142D01*
X141063452Y-69429761D01*
X141158690Y-69477380D01*
X141253928Y-69477380D01*
X141349166Y-69429761D01*
X141396785Y-69382142D01*
X141444404Y-69286904D01*
X141492023Y-69096428D01*
X141492023Y-68858333D01*
X141444404Y-68667857D01*
X141396785Y-68572619D01*
X141349166Y-68525000D01*
X141253928Y-68477380D01*
X140492023Y-69382142D02*
X140444404Y-69429761D01*
X140492023Y-69477380D01*
X140539642Y-69429761D01*
X140492023Y-69382142D01*
X140492023Y-69477380D01*
X139492023Y-69477380D02*
X140063452Y-69477380D01*
X139777738Y-69477380D02*
X139777738Y-68477380D01*
X139872976Y-68620238D01*
X139968214Y-68715476D01*
X140063452Y-68763095D01*
X144492023Y-70222619D02*
X144444404Y-70175000D01*
X144349166Y-70127380D01*
X144111071Y-70127380D01*
X144015833Y-70175000D01*
X143968214Y-70222619D01*
X143920595Y-70317857D01*
X143920595Y-70413095D01*
X143968214Y-70555952D01*
X144539642Y-71127380D01*
X143920595Y-71127380D01*
X143301547Y-70127380D02*
X143206309Y-70127380D01*
X143111071Y-70175000D01*
X143063452Y-70222619D01*
X143015833Y-70317857D01*
X142968214Y-70508333D01*
X142968214Y-70746428D01*
X143015833Y-70936904D01*
X143063452Y-71032142D01*
X143111071Y-71079761D01*
X143206309Y-71127380D01*
X143301547Y-71127380D01*
X143396785Y-71079761D01*
X143444404Y-71032142D01*
X143492023Y-70936904D01*
X143539642Y-70746428D01*
X143539642Y-70508333D01*
X143492023Y-70317857D01*
X143444404Y-70222619D01*
X143396785Y-70175000D01*
X143301547Y-70127380D01*
X142587261Y-70222619D02*
X142539642Y-70175000D01*
X142444404Y-70127380D01*
X142206309Y-70127380D01*
X142111071Y-70175000D01*
X142063452Y-70222619D01*
X142015833Y-70317857D01*
X142015833Y-70413095D01*
X142063452Y-70555952D01*
X142634880Y-71127380D01*
X142015833Y-71127380D01*
X141063452Y-71127380D02*
X141634880Y-71127380D01*
X141349166Y-71127380D02*
X141349166Y-70127380D01*
X141444404Y-70270238D01*
X141539642Y-70365476D01*
X141634880Y-70413095D01*
X140634880Y-70746428D02*
X139872976Y-70746428D01*
X139206309Y-70127380D02*
X139111071Y-70127380D01*
X139015833Y-70175000D01*
X138968214Y-70222619D01*
X138920595Y-70317857D01*
X138872976Y-70508333D01*
X138872976Y-70746428D01*
X138920595Y-70936904D01*
X138968214Y-71032142D01*
X139015833Y-71079761D01*
X139111071Y-71127380D01*
X139206309Y-71127380D01*
X139301547Y-71079761D01*
X139349166Y-71032142D01*
X139396785Y-70936904D01*
X139444404Y-70746428D01*
X139444404Y-70508333D01*
X139396785Y-70317857D01*
X139349166Y-70222619D01*
X139301547Y-70175000D01*
X139206309Y-70127380D01*
X138396785Y-71127380D02*
X138206309Y-71127380D01*
X138111071Y-71079761D01*
X138063452Y-71032142D01*
X137968214Y-70889285D01*
X137920595Y-70698809D01*
X137920595Y-70317857D01*
X137968214Y-70222619D01*
X138015833Y-70175000D01*
X138111071Y-70127380D01*
X138301547Y-70127380D01*
X138396785Y-70175000D01*
X138444404Y-70222619D01*
X138492023Y-70317857D01*
X138492023Y-70555952D01*
X138444404Y-70651190D01*
X138396785Y-70698809D01*
X138301547Y-70746428D01*
X138111071Y-70746428D01*
X138015833Y-70698809D01*
X137968214Y-70651190D01*
X137920595Y-70555952D01*
X137492023Y-70746428D02*
X136730119Y-70746428D01*
X136063452Y-70127380D02*
X135968214Y-70127380D01*
X135872976Y-70175000D01*
X135825357Y-70222619D01*
X135777738Y-70317857D01*
X135730119Y-70508333D01*
X135730119Y-70746428D01*
X135777738Y-70936904D01*
X135825357Y-71032142D01*
X135872976Y-71079761D01*
X135968214Y-71127380D01*
X136063452Y-71127380D01*
X136158690Y-71079761D01*
X136206309Y-71032142D01*
X136253928Y-70936904D01*
X136301547Y-70746428D01*
X136301547Y-70508333D01*
X136253928Y-70317857D01*
X136206309Y-70222619D01*
X136158690Y-70175000D01*
X136063452Y-70127380D01*
X134825357Y-70127380D02*
X135301547Y-70127380D01*
X135349166Y-70603571D01*
X135301547Y-70555952D01*
X135206309Y-70508333D01*
X134968214Y-70508333D01*
X134872976Y-70555952D01*
X134825357Y-70603571D01*
X134777738Y-70698809D01*
X134777738Y-70936904D01*
X134825357Y-71032142D01*
X134872976Y-71079761D01*
X134968214Y-71127380D01*
X135206309Y-71127380D01*
X135301547Y-71079761D01*
X135349166Y-71032142D01*
X144015833Y-72110714D02*
X144015833Y-72920238D01*
X144063452Y-73015476D01*
X144111071Y-73063095D01*
X144206309Y-73110714D01*
X144349166Y-73110714D01*
X144444404Y-73063095D01*
X144015833Y-72729761D02*
X144111071Y-72777380D01*
X144301547Y-72777380D01*
X144396785Y-72729761D01*
X144444404Y-72682142D01*
X144492023Y-72586904D01*
X144492023Y-72301190D01*
X144444404Y-72205952D01*
X144396785Y-72158333D01*
X144301547Y-72110714D01*
X144111071Y-72110714D01*
X144015833Y-72158333D01*
X143539642Y-72777380D02*
X143539642Y-72110714D01*
X143539642Y-71777380D02*
X143587261Y-71825000D01*
X143539642Y-71872619D01*
X143492023Y-71825000D01*
X143539642Y-71777380D01*
X143539642Y-71872619D01*
X143206309Y-72110714D02*
X142825357Y-72110714D01*
X143063452Y-71777380D02*
X143063452Y-72634523D01*
X143015833Y-72729761D01*
X142920595Y-72777380D01*
X142825357Y-72777380D01*
X142492023Y-72777380D02*
X142492023Y-71777380D01*
X142063452Y-72777380D02*
X142063452Y-72253571D01*
X142111071Y-72158333D01*
X142206309Y-72110714D01*
X142349166Y-72110714D01*
X142444404Y-72158333D01*
X142492023Y-72205952D01*
X141158690Y-72110714D02*
X141158690Y-72777380D01*
X141587261Y-72110714D02*
X141587261Y-72634523D01*
X141539642Y-72729761D01*
X141444404Y-72777380D01*
X141301547Y-72777380D01*
X141206309Y-72729761D01*
X141158690Y-72682142D01*
X140682500Y-72777380D02*
X140682500Y-71777380D01*
X140682500Y-72158333D02*
X140587261Y-72110714D01*
X140396785Y-72110714D01*
X140301547Y-72158333D01*
X140253928Y-72205952D01*
X140206309Y-72301190D01*
X140206309Y-72586904D01*
X140253928Y-72682142D01*
X140301547Y-72729761D01*
X140396785Y-72777380D01*
X140587261Y-72777380D01*
X140682500Y-72729761D01*
X139777738Y-72682142D02*
X139730119Y-72729761D01*
X139777738Y-72777380D01*
X139825357Y-72729761D01*
X139777738Y-72682142D01*
X139777738Y-72777380D01*
X138872976Y-72729761D02*
X138968214Y-72777380D01*
X139158690Y-72777380D01*
X139253928Y-72729761D01*
X139301547Y-72682142D01*
X139349166Y-72586904D01*
X139349166Y-72301190D01*
X139301547Y-72205952D01*
X139253928Y-72158333D01*
X139158690Y-72110714D01*
X138968214Y-72110714D01*
X138872976Y-72158333D01*
X138301547Y-72777380D02*
X138396785Y-72729761D01*
X138444404Y-72682142D01*
X138492023Y-72586904D01*
X138492023Y-72301190D01*
X138444404Y-72205952D01*
X138396785Y-72158333D01*
X138301547Y-72110714D01*
X138158690Y-72110714D01*
X138063452Y-72158333D01*
X138015833Y-72205952D01*
X137968214Y-72301190D01*
X137968214Y-72586904D01*
X138015833Y-72682142D01*
X138063452Y-72729761D01*
X138158690Y-72777380D01*
X138301547Y-72777380D01*
X137539642Y-72777380D02*
X137539642Y-72110714D01*
X137539642Y-72205952D02*
X137492023Y-72158333D01*
X137396785Y-72110714D01*
X137253928Y-72110714D01*
X137158690Y-72158333D01*
X137111071Y-72253571D01*
X137111071Y-72777380D01*
X137111071Y-72253571D02*
X137063452Y-72158333D01*
X136968214Y-72110714D01*
X136825357Y-72110714D01*
X136730119Y-72158333D01*
X136682500Y-72253571D01*
X136682500Y-72777380D01*
X135492023Y-71729761D02*
X136349166Y-73015476D01*
X134872976Y-71777380D02*
X134872976Y-72491666D01*
X134920595Y-72634523D01*
X135015833Y-72729761D01*
X135158690Y-72777380D01*
X135253928Y-72777380D01*
X134253928Y-72777380D02*
X134349166Y-72729761D01*
X134396785Y-72682142D01*
X134444404Y-72586904D01*
X134444404Y-72301190D01*
X134396785Y-72205952D01*
X134349166Y-72158333D01*
X134253928Y-72110714D01*
X134111071Y-72110714D01*
X134015833Y-72158333D01*
X133968214Y-72205952D01*
X133920595Y-72301190D01*
X133920595Y-72586904D01*
X133968214Y-72682142D01*
X134015833Y-72729761D01*
X134111071Y-72777380D01*
X134253928Y-72777380D01*
X133492023Y-72777380D02*
X133492023Y-72110714D01*
X133492023Y-72301190D02*
X133444404Y-72205952D01*
X133396785Y-72158333D01*
X133301547Y-72110714D01*
X133206309Y-72110714D01*
X132444404Y-72777380D02*
X132444404Y-71777380D01*
X132444404Y-72729761D02*
X132539642Y-72777380D01*
X132730119Y-72777380D01*
X132825357Y-72729761D01*
X132872976Y-72682142D01*
X132920595Y-72586904D01*
X132920595Y-72301190D01*
X132872976Y-72205952D01*
X132825357Y-72158333D01*
X132730119Y-72110714D01*
X132539642Y-72110714D01*
X132444404Y-72158333D01*
X131539642Y-72777380D02*
X131539642Y-72253571D01*
X131587261Y-72158333D01*
X131682500Y-72110714D01*
X131872976Y-72110714D01*
X131968214Y-72158333D01*
X131539642Y-72729761D02*
X131634880Y-72777380D01*
X131872976Y-72777380D01*
X131968214Y-72729761D01*
X132015833Y-72634523D01*
X132015833Y-72539285D01*
X131968214Y-72444047D01*
X131872976Y-72396428D01*
X131634880Y-72396428D01*
X131539642Y-72348809D01*
X131063452Y-72110714D02*
X131063452Y-72777380D01*
X131063452Y-72205952D02*
X131015833Y-72158333D01*
X130920595Y-72110714D01*
X130777738Y-72110714D01*
X130682500Y-72158333D01*
X130634880Y-72253571D01*
X130634880Y-72777380D01*
X130206309Y-72491666D02*
X129730119Y-72491666D01*
X130301547Y-72777380D02*
X129968214Y-71777380D01*
X129634880Y-72777380D01*
X128872976Y-72729761D02*
X128968214Y-72777380D01*
X129158690Y-72777380D01*
X129253928Y-72729761D01*
X129301547Y-72682142D01*
X129349166Y-72586904D01*
X129349166Y-72301190D01*
X129301547Y-72205952D01*
X129253928Y-72158333D01*
X129158690Y-72110714D01*
X128968214Y-72110714D01*
X128872976Y-72158333D01*
X128063452Y-72729761D02*
X128158690Y-72777380D01*
X128349166Y-72777380D01*
X128444404Y-72729761D01*
X128492023Y-72634523D01*
X128492023Y-72253571D01*
X128444404Y-72158333D01*
X128349166Y-72110714D01*
X128158690Y-72110714D01*
X128063452Y-72158333D01*
X128015833Y-72253571D01*
X128015833Y-72348809D01*
X128492023Y-72444047D01*
X127730119Y-72110714D02*
X127349166Y-72110714D01*
X127587261Y-71777380D02*
X127587261Y-72634523D01*
X127539642Y-72729761D01*
X127444404Y-72777380D01*
X127349166Y-72777380D01*
X126872976Y-72777380D02*
X126968214Y-72729761D01*
X127015833Y-72682142D01*
X127063452Y-72586904D01*
X127063452Y-72301190D01*
X127015833Y-72205952D01*
X126968214Y-72158333D01*
X126872976Y-72110714D01*
X126730119Y-72110714D01*
X126634880Y-72158333D01*
X126587261Y-72205952D01*
X126539642Y-72301190D01*
X126539642Y-72586904D01*
X126587261Y-72682142D01*
X126634880Y-72729761D01*
X126730119Y-72777380D01*
X126872976Y-72777380D01*
X125396785Y-71729761D02*
X126253928Y-73015476D01*
X125206309Y-71777380D02*
X124872976Y-72777380D01*
X124539642Y-71777380D01*
X123634880Y-72682142D02*
X123682500Y-72729761D01*
X123825357Y-72777380D01*
X123920595Y-72777380D01*
X124063452Y-72729761D01*
X124158690Y-72634523D01*
X124206309Y-72539285D01*
X124253928Y-72348809D01*
X124253928Y-72205952D01*
X124206309Y-72015476D01*
X124158690Y-71920238D01*
X124063452Y-71825000D01*
X123920595Y-71777380D01*
X123825357Y-71777380D01*
X123682500Y-71825000D01*
X123634880Y-71872619D01*
X122872976Y-72253571D02*
X123206309Y-72253571D01*
X123206309Y-72777380D02*
X123206309Y-71777380D01*
X122730119Y-71777380D01*
X122587261Y-72872619D02*
X121825357Y-72872619D01*
X121587261Y-72110714D02*
X121587261Y-73110714D01*
X121587261Y-72158333D02*
X121492023Y-72110714D01*
X121301547Y-72110714D01*
X121206309Y-72158333D01*
X121158690Y-72205952D01*
X121111071Y-72301190D01*
X121111071Y-72586904D01*
X121158690Y-72682142D01*
X121206309Y-72729761D01*
X121301547Y-72777380D01*
X121492023Y-72777380D01*
X121587261Y-72729761D01*
X120539642Y-72777380D02*
X120634880Y-72729761D01*
X120682500Y-72634523D01*
X120682500Y-71777380D01*
X119730119Y-72110714D02*
X119730119Y-72777380D01*
X120158690Y-72110714D02*
X120158690Y-72634523D01*
X120111071Y-72729761D01*
X120015833Y-72777380D01*
X119872976Y-72777380D01*
X119777738Y-72729761D01*
X119730119Y-72682142D01*
X118825357Y-72110714D02*
X118825357Y-72920238D01*
X118872976Y-73015476D01*
X118920595Y-73063095D01*
X119015833Y-73110714D01*
X119158690Y-73110714D01*
X119253928Y-73063095D01*
X118825357Y-72729761D02*
X118920595Y-72777380D01*
X119111071Y-72777380D01*
X119206309Y-72729761D01*
X119253928Y-72682142D01*
X119301547Y-72586904D01*
X119301547Y-72301190D01*
X119253928Y-72205952D01*
X119206309Y-72158333D01*
X119111071Y-72110714D01*
X118920595Y-72110714D01*
X118825357Y-72158333D01*
X118587261Y-72872619D02*
X117825357Y-72872619D01*
X117587261Y-72777380D02*
X117587261Y-72110714D01*
X117587261Y-71777380D02*
X117634880Y-71825000D01*
X117587261Y-71872619D01*
X117539642Y-71825000D01*
X117587261Y-71777380D01*
X117587261Y-71872619D01*
X117111071Y-72110714D02*
X117111071Y-72777380D01*
X117111071Y-72205952D02*
X117063452Y-72158333D01*
X116968214Y-72110714D01*
X116825357Y-72110714D01*
X116730119Y-72158333D01*
X116682500Y-72253571D01*
X116682500Y-72777380D01*
X116444404Y-72872619D02*
X115682500Y-72872619D01*
X115444404Y-72777380D02*
X115444404Y-71777380D01*
X115444404Y-72158333D02*
X115349166Y-72110714D01*
X115158690Y-72110714D01*
X115063452Y-72158333D01*
X115015833Y-72205952D01*
X114968214Y-72301190D01*
X114968214Y-72586904D01*
X115015833Y-72682142D01*
X115063452Y-72729761D01*
X115158690Y-72777380D01*
X115349166Y-72777380D01*
X115444404Y-72729761D01*
X114396785Y-72777380D02*
X114492023Y-72729761D01*
X114539642Y-72682142D01*
X114587261Y-72586904D01*
X114587261Y-72301190D01*
X114539642Y-72205952D01*
X114492023Y-72158333D01*
X114396785Y-72110714D01*
X114253928Y-72110714D01*
X114158690Y-72158333D01*
X114111071Y-72205952D01*
X114063452Y-72301190D01*
X114063452Y-72586904D01*
X114111071Y-72682142D01*
X114158690Y-72729761D01*
X114253928Y-72777380D01*
X114396785Y-72777380D01*
X113206309Y-72777380D02*
X113206309Y-72253571D01*
X113253928Y-72158333D01*
X113349166Y-72110714D01*
X113539642Y-72110714D01*
X113634880Y-72158333D01*
X113206309Y-72729761D02*
X113301547Y-72777380D01*
X113539642Y-72777380D01*
X113634880Y-72729761D01*
X113682500Y-72634523D01*
X113682500Y-72539285D01*
X113634880Y-72444047D01*
X113539642Y-72396428D01*
X113301547Y-72396428D01*
X113206309Y-72348809D01*
X112730119Y-72777380D02*
X112730119Y-72110714D01*
X112730119Y-72301190D02*
X112682500Y-72205952D01*
X112634880Y-72158333D01*
X112539642Y-72110714D01*
X112444404Y-72110714D01*
X111682500Y-72777380D02*
X111682500Y-71777380D01*
X111682500Y-72729761D02*
X111777738Y-72777380D01*
X111968214Y-72777380D01*
X112063452Y-72729761D01*
X112111071Y-72682142D01*
X112158690Y-72586904D01*
X112158690Y-72301190D01*
X112111071Y-72205952D01*
X112063452Y-72158333D01*
X111968214Y-72110714D01*
X111777738Y-72110714D01*
X111682500Y-72158333D01*
X111253928Y-72729761D02*
X111158690Y-72777380D01*
X110968214Y-72777380D01*
X110872976Y-72729761D01*
X110825357Y-72634523D01*
X110825357Y-72586904D01*
X110872976Y-72491666D01*
X110968214Y-72444047D01*
X111111071Y-72444047D01*
X111206309Y-72396428D01*
X111253928Y-72301190D01*
X111253928Y-72253571D01*
X111206309Y-72158333D01*
X111111071Y-72110714D01*
X110968214Y-72110714D01*
X110872976Y-72158333D01*
D11*
X148650000Y-95190000D02*
X147320000Y-95190000D01*
X148650000Y-96520000D02*
X148650000Y-95190000D01*
X148650000Y-97790000D02*
X145990000Y-97790000D01*
X145990000Y-97790000D02*
X145990000Y-115630000D01*
X148650000Y-97790000D02*
X148650000Y-115630000D01*
X148650000Y-115630000D02*
X145990000Y-115630000D01*
X148650000Y-67250000D02*
X147320000Y-67250000D01*
X148650000Y-68580000D02*
X148650000Y-67250000D01*
X148650000Y-69850000D02*
X145990000Y-69850000D01*
X145990000Y-69850000D02*
X145990000Y-77530000D01*
X148650000Y-69850000D02*
X148650000Y-77530000D01*
X148650000Y-77530000D02*
X145990000Y-77530000D01*
X95310000Y-105350000D02*
X93980000Y-105350000D01*
X95310000Y-106680000D02*
X95310000Y-105350000D01*
X95310000Y-107950000D02*
X92650000Y-107950000D01*
X92650000Y-107950000D02*
X92650000Y-115630000D01*
X95310000Y-107950000D02*
X95310000Y-115630000D01*
X95310000Y-115630000D02*
X92650000Y-115630000D01*
X95310000Y-67250000D02*
X93980000Y-67250000D01*
X95310000Y-68580000D02*
X95310000Y-67250000D01*
X95310000Y-69850000D02*
X92650000Y-69850000D01*
X92650000Y-69850000D02*
X92650000Y-77530000D01*
X95310000Y-69850000D02*
X95310000Y-77530000D01*
X95310000Y-77530000D02*
X92650000Y-77530000D01*
D10*
X147653333Y-93642380D02*
X147653333Y-94356666D01*
X147700952Y-94499523D01*
X147796190Y-94594761D01*
X147939047Y-94642380D01*
X148034285Y-94642380D01*
X146748571Y-93975714D02*
X146748571Y-94642380D01*
X146986666Y-93594761D02*
X147224761Y-94309047D01*
X146605714Y-94309047D01*
X147653333Y-78192380D02*
X147653333Y-78906666D01*
X147700952Y-79049523D01*
X147796190Y-79144761D01*
X147939047Y-79192380D01*
X148034285Y-79192380D01*
X147272380Y-78192380D02*
X146653333Y-78192380D01*
X146986666Y-78573333D01*
X146843809Y-78573333D01*
X146748571Y-78620952D01*
X146700952Y-78668571D01*
X146653333Y-78763809D01*
X146653333Y-79001904D01*
X146700952Y-79097142D01*
X146748571Y-79144761D01*
X146843809Y-79192380D01*
X147129523Y-79192380D01*
X147224761Y-79144761D01*
X147272380Y-79097142D01*
X94313333Y-103802380D02*
X94313333Y-104516666D01*
X94360952Y-104659523D01*
X94456190Y-104754761D01*
X94599047Y-104802380D01*
X94694285Y-104802380D01*
X93884761Y-103897619D02*
X93837142Y-103850000D01*
X93741904Y-103802380D01*
X93503809Y-103802380D01*
X93408571Y-103850000D01*
X93360952Y-103897619D01*
X93313333Y-103992857D01*
X93313333Y-104088095D01*
X93360952Y-104230952D01*
X93932380Y-104802380D01*
X93313333Y-104802380D01*
X94313333Y-78192380D02*
X94313333Y-78906666D01*
X94360952Y-79049523D01*
X94456190Y-79144761D01*
X94599047Y-79192380D01*
X94694285Y-79192380D01*
X93313333Y-79192380D02*
X93884761Y-79192380D01*
X93599047Y-79192380D02*
X93599047Y-78192380D01*
X93694285Y-78335238D01*
X93789523Y-78430476D01*
X93884761Y-78478095D01*
%LPC*%
D12*
X110490000Y-106680000D03*
X110490000Y-109220000D03*
X110490000Y-111760000D03*
X104775000Y-106680000D03*
X104775000Y-109220000D03*
X104775000Y-111760000D03*
X99060000Y-106680000D03*
X99060000Y-109220000D03*
X99060000Y-111760000D03*
D13*
X147320000Y-114300000D03*
X147320000Y-111760000D03*
X147320000Y-109220000D03*
X147320000Y-106680000D03*
X147320000Y-104140000D03*
X147320000Y-101600000D03*
X147320000Y-99060000D03*
G36*
G01*
X148221000Y-95670000D02*
X148221000Y-97370000D01*
G75*
G02*
X148170000Y-97421000I-51000J0D01*
G01*
X146470000Y-97421000D01*
G75*
G02*
X146419000Y-97370000I0J51000D01*
G01*
X146419000Y-95670000D01*
G75*
G02*
X146470000Y-95619000I51000J0D01*
G01*
X148170000Y-95619000D01*
G75*
G02*
X148221000Y-95670000I0J-51000D01*
G01*
G37*
X147320000Y-76200000D03*
X147320000Y-73660000D03*
X147320000Y-71120000D03*
G36*
G01*
X148221000Y-67730000D02*
X148221000Y-69430000D01*
G75*
G02*
X148170000Y-69481000I-51000J0D01*
G01*
X146470000Y-69481000D01*
G75*
G02*
X146419000Y-69430000I0J51000D01*
G01*
X146419000Y-67730000D01*
G75*
G02*
X146470000Y-67679000I51000J0D01*
G01*
X148170000Y-67679000D01*
G75*
G02*
X148221000Y-67730000I0J-51000D01*
G01*
G37*
X93980000Y-114300000D03*
X93980000Y-111760000D03*
X93980000Y-109220000D03*
G36*
G01*
X94881000Y-105830000D02*
X94881000Y-107530000D01*
G75*
G02*
X94830000Y-107581000I-51000J0D01*
G01*
X93130000Y-107581000D01*
G75*
G02*
X93079000Y-107530000I0J51000D01*
G01*
X93079000Y-105830000D01*
G75*
G02*
X93130000Y-105779000I51000J0D01*
G01*
X94830000Y-105779000D01*
G75*
G02*
X94881000Y-105830000I0J-51000D01*
G01*
G37*
X93980000Y-76200000D03*
X93980000Y-73660000D03*
X93980000Y-71120000D03*
G36*
G01*
X94881000Y-67730000D02*
X94881000Y-69430000D01*
G75*
G02*
X94830000Y-69481000I-51000J0D01*
G01*
X93130000Y-69481000D01*
G75*
G02*
X93079000Y-69430000I0J51000D01*
G01*
X93079000Y-67730000D01*
G75*
G02*
X93130000Y-67679000I51000J0D01*
G01*
X94830000Y-67679000D01*
G75*
G02*
X94881000Y-67730000I0J-51000D01*
G01*
G37*
M02*
