G04 #@! TF.GenerationSoftware,KiCad,Pcbnew,5.1.10-88a1d61d58~90~ubuntu20.04.1*
G04 #@! TF.CreationDate,2021-09-06T13:30:35-04:00*
G04 #@! TF.ProjectId,four_pole_lpf,666f7572-5f70-46f6-9c65-5f6c70662e6b,0.1*
G04 #@! TF.SameCoordinates,Original*
G04 #@! TF.FileFunction,Soldermask,Bot*
G04 #@! TF.FilePolarity,Negative*
%FSLAX46Y46*%
G04 Gerber Fmt 4.6, Leading zero omitted, Abs format (unit mm)*
G04 Created by KiCad (PCBNEW 5.1.10-88a1d61d58~90~ubuntu20.04.1) date 2021-09-06 13:30:35*
%MOMM*%
%LPD*%
G01*
G04 APERTURE LIST*
%ADD10C,1.542000*%
%ADD11O,1.802000X1.802000*%
G04 APERTURE END LIST*
D10*
X110490000Y-106680000D03*
X110490000Y-109220000D03*
X110490000Y-111760000D03*
X104775000Y-106680000D03*
X104775000Y-109220000D03*
X104775000Y-111760000D03*
X99060000Y-106680000D03*
X99060000Y-109220000D03*
X99060000Y-111760000D03*
D11*
X147320000Y-114300000D03*
X147320000Y-111760000D03*
X147320000Y-109220000D03*
X147320000Y-106680000D03*
X147320000Y-104140000D03*
X147320000Y-101600000D03*
X147320000Y-99060000D03*
G36*
G01*
X148221000Y-95670000D02*
X148221000Y-97370000D01*
G75*
G02*
X148170000Y-97421000I-51000J0D01*
G01*
X146470000Y-97421000D01*
G75*
G02*
X146419000Y-97370000I0J51000D01*
G01*
X146419000Y-95670000D01*
G75*
G02*
X146470000Y-95619000I51000J0D01*
G01*
X148170000Y-95619000D01*
G75*
G02*
X148221000Y-95670000I0J-51000D01*
G01*
G37*
X147320000Y-76200000D03*
X147320000Y-73660000D03*
X147320000Y-71120000D03*
G36*
G01*
X148221000Y-67730000D02*
X148221000Y-69430000D01*
G75*
G02*
X148170000Y-69481000I-51000J0D01*
G01*
X146470000Y-69481000D01*
G75*
G02*
X146419000Y-69430000I0J51000D01*
G01*
X146419000Y-67730000D01*
G75*
G02*
X146470000Y-67679000I51000J0D01*
G01*
X148170000Y-67679000D01*
G75*
G02*
X148221000Y-67730000I0J-51000D01*
G01*
G37*
X93980000Y-114300000D03*
X93980000Y-111760000D03*
X93980000Y-109220000D03*
G36*
G01*
X94881000Y-105830000D02*
X94881000Y-107530000D01*
G75*
G02*
X94830000Y-107581000I-51000J0D01*
G01*
X93130000Y-107581000D01*
G75*
G02*
X93079000Y-107530000I0J51000D01*
G01*
X93079000Y-105830000D01*
G75*
G02*
X93130000Y-105779000I51000J0D01*
G01*
X94830000Y-105779000D01*
G75*
G02*
X94881000Y-105830000I0J-51000D01*
G01*
G37*
X93980000Y-76200000D03*
X93980000Y-73660000D03*
X93980000Y-71120000D03*
G36*
G01*
X94881000Y-67730000D02*
X94881000Y-69430000D01*
G75*
G02*
X94830000Y-69481000I-51000J0D01*
G01*
X93130000Y-69481000D01*
G75*
G02*
X93079000Y-69430000I0J51000D01*
G01*
X93079000Y-67730000D01*
G75*
G02*
X93130000Y-67679000I51000J0D01*
G01*
X94830000Y-67679000D01*
G75*
G02*
X94881000Y-67730000I0J-51000D01*
G01*
G37*
M02*
