G04 #@! TF.GenerationSoftware,KiCad,Pcbnew,5.1.10-88a1d61d58~90~ubuntu20.04.1*
G04 #@! TF.CreationDate,2021-09-06T13:30:35-04:00*
G04 #@! TF.ProjectId,four_pole_lpf,666f7572-5f70-46f6-9c65-5f6c70662e6b,0.1*
G04 #@! TF.SameCoordinates,Original*
G04 #@! TF.FileFunction,Paste,Top*
G04 #@! TF.FilePolarity,Positive*
%FSLAX46Y46*%
G04 Gerber Fmt 4.6, Leading zero omitted, Abs format (unit mm)*
G04 Created by KiCad (PCBNEW 5.1.10-88a1d61d58~90~ubuntu20.04.1) date 2021-09-06 13:30:35*
%MOMM*%
%LPD*%
G01*
G04 APERTURE LIST*
%ADD10R,1.200000X0.900000*%
%ADD11R,0.900000X1.200000*%
G04 APERTURE END LIST*
G36*
G01*
X122659000Y-105132000D02*
X122959000Y-105132000D01*
G75*
G02*
X123109000Y-105282000I0J-150000D01*
G01*
X123109000Y-106932000D01*
G75*
G02*
X122959000Y-107082000I-150000J0D01*
G01*
X122659000Y-107082000D01*
G75*
G02*
X122509000Y-106932000I0J150000D01*
G01*
X122509000Y-105282000D01*
G75*
G02*
X122659000Y-105132000I150000J0D01*
G01*
G37*
G36*
G01*
X121389000Y-105132000D02*
X121689000Y-105132000D01*
G75*
G02*
X121839000Y-105282000I0J-150000D01*
G01*
X121839000Y-106932000D01*
G75*
G02*
X121689000Y-107082000I-150000J0D01*
G01*
X121389000Y-107082000D01*
G75*
G02*
X121239000Y-106932000I0J150000D01*
G01*
X121239000Y-105282000D01*
G75*
G02*
X121389000Y-105132000I150000J0D01*
G01*
G37*
G36*
G01*
X120119000Y-105132000D02*
X120419000Y-105132000D01*
G75*
G02*
X120569000Y-105282000I0J-150000D01*
G01*
X120569000Y-106932000D01*
G75*
G02*
X120419000Y-107082000I-150000J0D01*
G01*
X120119000Y-107082000D01*
G75*
G02*
X119969000Y-106932000I0J150000D01*
G01*
X119969000Y-105282000D01*
G75*
G02*
X120119000Y-105132000I150000J0D01*
G01*
G37*
G36*
G01*
X118849000Y-105132000D02*
X119149000Y-105132000D01*
G75*
G02*
X119299000Y-105282000I0J-150000D01*
G01*
X119299000Y-106932000D01*
G75*
G02*
X119149000Y-107082000I-150000J0D01*
G01*
X118849000Y-107082000D01*
G75*
G02*
X118699000Y-106932000I0J150000D01*
G01*
X118699000Y-105282000D01*
G75*
G02*
X118849000Y-105132000I150000J0D01*
G01*
G37*
G36*
G01*
X118849000Y-100182000D02*
X119149000Y-100182000D01*
G75*
G02*
X119299000Y-100332000I0J-150000D01*
G01*
X119299000Y-101982000D01*
G75*
G02*
X119149000Y-102132000I-150000J0D01*
G01*
X118849000Y-102132000D01*
G75*
G02*
X118699000Y-101982000I0J150000D01*
G01*
X118699000Y-100332000D01*
G75*
G02*
X118849000Y-100182000I150000J0D01*
G01*
G37*
G36*
G01*
X120119000Y-100182000D02*
X120419000Y-100182000D01*
G75*
G02*
X120569000Y-100332000I0J-150000D01*
G01*
X120569000Y-101982000D01*
G75*
G02*
X120419000Y-102132000I-150000J0D01*
G01*
X120119000Y-102132000D01*
G75*
G02*
X119969000Y-101982000I0J150000D01*
G01*
X119969000Y-100332000D01*
G75*
G02*
X120119000Y-100182000I150000J0D01*
G01*
G37*
G36*
G01*
X121389000Y-100182000D02*
X121689000Y-100182000D01*
G75*
G02*
X121839000Y-100332000I0J-150000D01*
G01*
X121839000Y-101982000D01*
G75*
G02*
X121689000Y-102132000I-150000J0D01*
G01*
X121389000Y-102132000D01*
G75*
G02*
X121239000Y-101982000I0J150000D01*
G01*
X121239000Y-100332000D01*
G75*
G02*
X121389000Y-100182000I150000J0D01*
G01*
G37*
G36*
G01*
X122659000Y-100182000D02*
X122959000Y-100182000D01*
G75*
G02*
X123109000Y-100332000I0J-150000D01*
G01*
X123109000Y-101982000D01*
G75*
G02*
X122959000Y-102132000I-150000J0D01*
G01*
X122659000Y-102132000D01*
G75*
G02*
X122509000Y-101982000I0J150000D01*
G01*
X122509000Y-100332000D01*
G75*
G02*
X122659000Y-100182000I150000J0D01*
G01*
G37*
G36*
G01*
X137518000Y-105132000D02*
X137818000Y-105132000D01*
G75*
G02*
X137968000Y-105282000I0J-150000D01*
G01*
X137968000Y-106932000D01*
G75*
G02*
X137818000Y-107082000I-150000J0D01*
G01*
X137518000Y-107082000D01*
G75*
G02*
X137368000Y-106932000I0J150000D01*
G01*
X137368000Y-105282000D01*
G75*
G02*
X137518000Y-105132000I150000J0D01*
G01*
G37*
G36*
G01*
X136248000Y-105132000D02*
X136548000Y-105132000D01*
G75*
G02*
X136698000Y-105282000I0J-150000D01*
G01*
X136698000Y-106932000D01*
G75*
G02*
X136548000Y-107082000I-150000J0D01*
G01*
X136248000Y-107082000D01*
G75*
G02*
X136098000Y-106932000I0J150000D01*
G01*
X136098000Y-105282000D01*
G75*
G02*
X136248000Y-105132000I150000J0D01*
G01*
G37*
G36*
G01*
X134978000Y-105132000D02*
X135278000Y-105132000D01*
G75*
G02*
X135428000Y-105282000I0J-150000D01*
G01*
X135428000Y-106932000D01*
G75*
G02*
X135278000Y-107082000I-150000J0D01*
G01*
X134978000Y-107082000D01*
G75*
G02*
X134828000Y-106932000I0J150000D01*
G01*
X134828000Y-105282000D01*
G75*
G02*
X134978000Y-105132000I150000J0D01*
G01*
G37*
G36*
G01*
X133708000Y-105132000D02*
X134008000Y-105132000D01*
G75*
G02*
X134158000Y-105282000I0J-150000D01*
G01*
X134158000Y-106932000D01*
G75*
G02*
X134008000Y-107082000I-150000J0D01*
G01*
X133708000Y-107082000D01*
G75*
G02*
X133558000Y-106932000I0J150000D01*
G01*
X133558000Y-105282000D01*
G75*
G02*
X133708000Y-105132000I150000J0D01*
G01*
G37*
G36*
G01*
X132438000Y-105132000D02*
X132738000Y-105132000D01*
G75*
G02*
X132888000Y-105282000I0J-150000D01*
G01*
X132888000Y-106932000D01*
G75*
G02*
X132738000Y-107082000I-150000J0D01*
G01*
X132438000Y-107082000D01*
G75*
G02*
X132288000Y-106932000I0J150000D01*
G01*
X132288000Y-105282000D01*
G75*
G02*
X132438000Y-105132000I150000J0D01*
G01*
G37*
G36*
G01*
X131168000Y-105132000D02*
X131468000Y-105132000D01*
G75*
G02*
X131618000Y-105282000I0J-150000D01*
G01*
X131618000Y-106932000D01*
G75*
G02*
X131468000Y-107082000I-150000J0D01*
G01*
X131168000Y-107082000D01*
G75*
G02*
X131018000Y-106932000I0J150000D01*
G01*
X131018000Y-105282000D01*
G75*
G02*
X131168000Y-105132000I150000J0D01*
G01*
G37*
G36*
G01*
X129898000Y-105132000D02*
X130198000Y-105132000D01*
G75*
G02*
X130348000Y-105282000I0J-150000D01*
G01*
X130348000Y-106932000D01*
G75*
G02*
X130198000Y-107082000I-150000J0D01*
G01*
X129898000Y-107082000D01*
G75*
G02*
X129748000Y-106932000I0J150000D01*
G01*
X129748000Y-105282000D01*
G75*
G02*
X129898000Y-105132000I150000J0D01*
G01*
G37*
G36*
G01*
X128628000Y-105132000D02*
X128928000Y-105132000D01*
G75*
G02*
X129078000Y-105282000I0J-150000D01*
G01*
X129078000Y-106932000D01*
G75*
G02*
X128928000Y-107082000I-150000J0D01*
G01*
X128628000Y-107082000D01*
G75*
G02*
X128478000Y-106932000I0J150000D01*
G01*
X128478000Y-105282000D01*
G75*
G02*
X128628000Y-105132000I150000J0D01*
G01*
G37*
G36*
G01*
X128628000Y-100182000D02*
X128928000Y-100182000D01*
G75*
G02*
X129078000Y-100332000I0J-150000D01*
G01*
X129078000Y-101982000D01*
G75*
G02*
X128928000Y-102132000I-150000J0D01*
G01*
X128628000Y-102132000D01*
G75*
G02*
X128478000Y-101982000I0J150000D01*
G01*
X128478000Y-100332000D01*
G75*
G02*
X128628000Y-100182000I150000J0D01*
G01*
G37*
G36*
G01*
X129898000Y-100182000D02*
X130198000Y-100182000D01*
G75*
G02*
X130348000Y-100332000I0J-150000D01*
G01*
X130348000Y-101982000D01*
G75*
G02*
X130198000Y-102132000I-150000J0D01*
G01*
X129898000Y-102132000D01*
G75*
G02*
X129748000Y-101982000I0J150000D01*
G01*
X129748000Y-100332000D01*
G75*
G02*
X129898000Y-100182000I150000J0D01*
G01*
G37*
G36*
G01*
X131168000Y-100182000D02*
X131468000Y-100182000D01*
G75*
G02*
X131618000Y-100332000I0J-150000D01*
G01*
X131618000Y-101982000D01*
G75*
G02*
X131468000Y-102132000I-150000J0D01*
G01*
X131168000Y-102132000D01*
G75*
G02*
X131018000Y-101982000I0J150000D01*
G01*
X131018000Y-100332000D01*
G75*
G02*
X131168000Y-100182000I150000J0D01*
G01*
G37*
G36*
G01*
X132438000Y-100182000D02*
X132738000Y-100182000D01*
G75*
G02*
X132888000Y-100332000I0J-150000D01*
G01*
X132888000Y-101982000D01*
G75*
G02*
X132738000Y-102132000I-150000J0D01*
G01*
X132438000Y-102132000D01*
G75*
G02*
X132288000Y-101982000I0J150000D01*
G01*
X132288000Y-100332000D01*
G75*
G02*
X132438000Y-100182000I150000J0D01*
G01*
G37*
G36*
G01*
X133708000Y-100182000D02*
X134008000Y-100182000D01*
G75*
G02*
X134158000Y-100332000I0J-150000D01*
G01*
X134158000Y-101982000D01*
G75*
G02*
X134008000Y-102132000I-150000J0D01*
G01*
X133708000Y-102132000D01*
G75*
G02*
X133558000Y-101982000I0J150000D01*
G01*
X133558000Y-100332000D01*
G75*
G02*
X133708000Y-100182000I150000J0D01*
G01*
G37*
G36*
G01*
X134978000Y-100182000D02*
X135278000Y-100182000D01*
G75*
G02*
X135428000Y-100332000I0J-150000D01*
G01*
X135428000Y-101982000D01*
G75*
G02*
X135278000Y-102132000I-150000J0D01*
G01*
X134978000Y-102132000D01*
G75*
G02*
X134828000Y-101982000I0J150000D01*
G01*
X134828000Y-100332000D01*
G75*
G02*
X134978000Y-100182000I150000J0D01*
G01*
G37*
G36*
G01*
X136248000Y-100182000D02*
X136548000Y-100182000D01*
G75*
G02*
X136698000Y-100332000I0J-150000D01*
G01*
X136698000Y-101982000D01*
G75*
G02*
X136548000Y-102132000I-150000J0D01*
G01*
X136248000Y-102132000D01*
G75*
G02*
X136098000Y-101982000I0J150000D01*
G01*
X136098000Y-100332000D01*
G75*
G02*
X136248000Y-100182000I150000J0D01*
G01*
G37*
G36*
G01*
X137518000Y-100182000D02*
X137818000Y-100182000D01*
G75*
G02*
X137968000Y-100332000I0J-150000D01*
G01*
X137968000Y-101982000D01*
G75*
G02*
X137818000Y-102132000I-150000J0D01*
G01*
X137518000Y-102132000D01*
G75*
G02*
X137368000Y-101982000I0J150000D01*
G01*
X137368000Y-100332000D01*
G75*
G02*
X137518000Y-100182000I150000J0D01*
G01*
G37*
G36*
G01*
X103355000Y-79605000D02*
X103655000Y-79605000D01*
G75*
G02*
X103805000Y-79755000I0J-150000D01*
G01*
X103805000Y-81405000D01*
G75*
G02*
X103655000Y-81555000I-150000J0D01*
G01*
X103355000Y-81555000D01*
G75*
G02*
X103205000Y-81405000I0J150000D01*
G01*
X103205000Y-79755000D01*
G75*
G02*
X103355000Y-79605000I150000J0D01*
G01*
G37*
G36*
G01*
X102085000Y-79605000D02*
X102385000Y-79605000D01*
G75*
G02*
X102535000Y-79755000I0J-150000D01*
G01*
X102535000Y-81405000D01*
G75*
G02*
X102385000Y-81555000I-150000J0D01*
G01*
X102085000Y-81555000D01*
G75*
G02*
X101935000Y-81405000I0J150000D01*
G01*
X101935000Y-79755000D01*
G75*
G02*
X102085000Y-79605000I150000J0D01*
G01*
G37*
G36*
G01*
X100815000Y-79605000D02*
X101115000Y-79605000D01*
G75*
G02*
X101265000Y-79755000I0J-150000D01*
G01*
X101265000Y-81405000D01*
G75*
G02*
X101115000Y-81555000I-150000J0D01*
G01*
X100815000Y-81555000D01*
G75*
G02*
X100665000Y-81405000I0J150000D01*
G01*
X100665000Y-79755000D01*
G75*
G02*
X100815000Y-79605000I150000J0D01*
G01*
G37*
G36*
G01*
X99545000Y-79605000D02*
X99845000Y-79605000D01*
G75*
G02*
X99995000Y-79755000I0J-150000D01*
G01*
X99995000Y-81405000D01*
G75*
G02*
X99845000Y-81555000I-150000J0D01*
G01*
X99545000Y-81555000D01*
G75*
G02*
X99395000Y-81405000I0J150000D01*
G01*
X99395000Y-79755000D01*
G75*
G02*
X99545000Y-79605000I150000J0D01*
G01*
G37*
G36*
G01*
X99545000Y-74655000D02*
X99845000Y-74655000D01*
G75*
G02*
X99995000Y-74805000I0J-150000D01*
G01*
X99995000Y-76455000D01*
G75*
G02*
X99845000Y-76605000I-150000J0D01*
G01*
X99545000Y-76605000D01*
G75*
G02*
X99395000Y-76455000I0J150000D01*
G01*
X99395000Y-74805000D01*
G75*
G02*
X99545000Y-74655000I150000J0D01*
G01*
G37*
G36*
G01*
X100815000Y-74655000D02*
X101115000Y-74655000D01*
G75*
G02*
X101265000Y-74805000I0J-150000D01*
G01*
X101265000Y-76455000D01*
G75*
G02*
X101115000Y-76605000I-150000J0D01*
G01*
X100815000Y-76605000D01*
G75*
G02*
X100665000Y-76455000I0J150000D01*
G01*
X100665000Y-74805000D01*
G75*
G02*
X100815000Y-74655000I150000J0D01*
G01*
G37*
G36*
G01*
X102085000Y-74655000D02*
X102385000Y-74655000D01*
G75*
G02*
X102535000Y-74805000I0J-150000D01*
G01*
X102535000Y-76455000D01*
G75*
G02*
X102385000Y-76605000I-150000J0D01*
G01*
X102085000Y-76605000D01*
G75*
G02*
X101935000Y-76455000I0J150000D01*
G01*
X101935000Y-74805000D01*
G75*
G02*
X102085000Y-74655000I150000J0D01*
G01*
G37*
G36*
G01*
X103355000Y-74655000D02*
X103655000Y-74655000D01*
G75*
G02*
X103805000Y-74805000I0J-150000D01*
G01*
X103805000Y-76455000D01*
G75*
G02*
X103655000Y-76605000I-150000J0D01*
G01*
X103355000Y-76605000D01*
G75*
G02*
X103205000Y-76455000I0J150000D01*
G01*
X103205000Y-74805000D01*
G75*
G02*
X103355000Y-74655000I150000J0D01*
G01*
G37*
G36*
G01*
X127108000Y-91461000D02*
X127108000Y-90911000D01*
G75*
G02*
X127308000Y-90711000I200000J0D01*
G01*
X127708000Y-90711000D01*
G75*
G02*
X127908000Y-90911000I0J-200000D01*
G01*
X127908000Y-91461000D01*
G75*
G02*
X127708000Y-91661000I-200000J0D01*
G01*
X127308000Y-91661000D01*
G75*
G02*
X127108000Y-91461000I0J200000D01*
G01*
G37*
G36*
G01*
X125458000Y-91461000D02*
X125458000Y-90911000D01*
G75*
G02*
X125658000Y-90711000I200000J0D01*
G01*
X126058000Y-90711000D01*
G75*
G02*
X126258000Y-90911000I0J-200000D01*
G01*
X126258000Y-91461000D01*
G75*
G02*
X126058000Y-91661000I-200000J0D01*
G01*
X125658000Y-91661000D01*
G75*
G02*
X125458000Y-91461000I0J200000D01*
G01*
G37*
G36*
G01*
X140566000Y-79605000D02*
X140866000Y-79605000D01*
G75*
G02*
X141016000Y-79755000I0J-150000D01*
G01*
X141016000Y-81405000D01*
G75*
G02*
X140866000Y-81555000I-150000J0D01*
G01*
X140566000Y-81555000D01*
G75*
G02*
X140416000Y-81405000I0J150000D01*
G01*
X140416000Y-79755000D01*
G75*
G02*
X140566000Y-79605000I150000J0D01*
G01*
G37*
G36*
G01*
X139296000Y-79605000D02*
X139596000Y-79605000D01*
G75*
G02*
X139746000Y-79755000I0J-150000D01*
G01*
X139746000Y-81405000D01*
G75*
G02*
X139596000Y-81555000I-150000J0D01*
G01*
X139296000Y-81555000D01*
G75*
G02*
X139146000Y-81405000I0J150000D01*
G01*
X139146000Y-79755000D01*
G75*
G02*
X139296000Y-79605000I150000J0D01*
G01*
G37*
G36*
G01*
X138026000Y-79605000D02*
X138326000Y-79605000D01*
G75*
G02*
X138476000Y-79755000I0J-150000D01*
G01*
X138476000Y-81405000D01*
G75*
G02*
X138326000Y-81555000I-150000J0D01*
G01*
X138026000Y-81555000D01*
G75*
G02*
X137876000Y-81405000I0J150000D01*
G01*
X137876000Y-79755000D01*
G75*
G02*
X138026000Y-79605000I150000J0D01*
G01*
G37*
G36*
G01*
X136756000Y-79605000D02*
X137056000Y-79605000D01*
G75*
G02*
X137206000Y-79755000I0J-150000D01*
G01*
X137206000Y-81405000D01*
G75*
G02*
X137056000Y-81555000I-150000J0D01*
G01*
X136756000Y-81555000D01*
G75*
G02*
X136606000Y-81405000I0J150000D01*
G01*
X136606000Y-79755000D01*
G75*
G02*
X136756000Y-79605000I150000J0D01*
G01*
G37*
G36*
G01*
X136756000Y-74655000D02*
X137056000Y-74655000D01*
G75*
G02*
X137206000Y-74805000I0J-150000D01*
G01*
X137206000Y-76455000D01*
G75*
G02*
X137056000Y-76605000I-150000J0D01*
G01*
X136756000Y-76605000D01*
G75*
G02*
X136606000Y-76455000I0J150000D01*
G01*
X136606000Y-74805000D01*
G75*
G02*
X136756000Y-74655000I150000J0D01*
G01*
G37*
G36*
G01*
X138026000Y-74655000D02*
X138326000Y-74655000D01*
G75*
G02*
X138476000Y-74805000I0J-150000D01*
G01*
X138476000Y-76455000D01*
G75*
G02*
X138326000Y-76605000I-150000J0D01*
G01*
X138026000Y-76605000D01*
G75*
G02*
X137876000Y-76455000I0J150000D01*
G01*
X137876000Y-74805000D01*
G75*
G02*
X138026000Y-74655000I150000J0D01*
G01*
G37*
G36*
G01*
X139296000Y-74655000D02*
X139596000Y-74655000D01*
G75*
G02*
X139746000Y-74805000I0J-150000D01*
G01*
X139746000Y-76455000D01*
G75*
G02*
X139596000Y-76605000I-150000J0D01*
G01*
X139296000Y-76605000D01*
G75*
G02*
X139146000Y-76455000I0J150000D01*
G01*
X139146000Y-74805000D01*
G75*
G02*
X139296000Y-74655000I150000J0D01*
G01*
G37*
G36*
G01*
X140566000Y-74655000D02*
X140866000Y-74655000D01*
G75*
G02*
X141016000Y-74805000I0J-150000D01*
G01*
X141016000Y-76455000D01*
G75*
G02*
X140866000Y-76605000I-150000J0D01*
G01*
X140566000Y-76605000D01*
G75*
G02*
X140416000Y-76455000I0J150000D01*
G01*
X140416000Y-74805000D01*
G75*
G02*
X140566000Y-74655000I150000J0D01*
G01*
G37*
G36*
G01*
X131041000Y-79605000D02*
X131341000Y-79605000D01*
G75*
G02*
X131491000Y-79755000I0J-150000D01*
G01*
X131491000Y-81405000D01*
G75*
G02*
X131341000Y-81555000I-150000J0D01*
G01*
X131041000Y-81555000D01*
G75*
G02*
X130891000Y-81405000I0J150000D01*
G01*
X130891000Y-79755000D01*
G75*
G02*
X131041000Y-79605000I150000J0D01*
G01*
G37*
G36*
G01*
X129771000Y-79605000D02*
X130071000Y-79605000D01*
G75*
G02*
X130221000Y-79755000I0J-150000D01*
G01*
X130221000Y-81405000D01*
G75*
G02*
X130071000Y-81555000I-150000J0D01*
G01*
X129771000Y-81555000D01*
G75*
G02*
X129621000Y-81405000I0J150000D01*
G01*
X129621000Y-79755000D01*
G75*
G02*
X129771000Y-79605000I150000J0D01*
G01*
G37*
G36*
G01*
X128501000Y-79605000D02*
X128801000Y-79605000D01*
G75*
G02*
X128951000Y-79755000I0J-150000D01*
G01*
X128951000Y-81405000D01*
G75*
G02*
X128801000Y-81555000I-150000J0D01*
G01*
X128501000Y-81555000D01*
G75*
G02*
X128351000Y-81405000I0J150000D01*
G01*
X128351000Y-79755000D01*
G75*
G02*
X128501000Y-79605000I150000J0D01*
G01*
G37*
G36*
G01*
X127231000Y-79605000D02*
X127531000Y-79605000D01*
G75*
G02*
X127681000Y-79755000I0J-150000D01*
G01*
X127681000Y-81405000D01*
G75*
G02*
X127531000Y-81555000I-150000J0D01*
G01*
X127231000Y-81555000D01*
G75*
G02*
X127081000Y-81405000I0J150000D01*
G01*
X127081000Y-79755000D01*
G75*
G02*
X127231000Y-79605000I150000J0D01*
G01*
G37*
G36*
G01*
X127231000Y-74655000D02*
X127531000Y-74655000D01*
G75*
G02*
X127681000Y-74805000I0J-150000D01*
G01*
X127681000Y-76455000D01*
G75*
G02*
X127531000Y-76605000I-150000J0D01*
G01*
X127231000Y-76605000D01*
G75*
G02*
X127081000Y-76455000I0J150000D01*
G01*
X127081000Y-74805000D01*
G75*
G02*
X127231000Y-74655000I150000J0D01*
G01*
G37*
G36*
G01*
X128501000Y-74655000D02*
X128801000Y-74655000D01*
G75*
G02*
X128951000Y-74805000I0J-150000D01*
G01*
X128951000Y-76455000D01*
G75*
G02*
X128801000Y-76605000I-150000J0D01*
G01*
X128501000Y-76605000D01*
G75*
G02*
X128351000Y-76455000I0J150000D01*
G01*
X128351000Y-74805000D01*
G75*
G02*
X128501000Y-74655000I150000J0D01*
G01*
G37*
G36*
G01*
X129771000Y-74655000D02*
X130071000Y-74655000D01*
G75*
G02*
X130221000Y-74805000I0J-150000D01*
G01*
X130221000Y-76455000D01*
G75*
G02*
X130071000Y-76605000I-150000J0D01*
G01*
X129771000Y-76605000D01*
G75*
G02*
X129621000Y-76455000I0J150000D01*
G01*
X129621000Y-74805000D01*
G75*
G02*
X129771000Y-74655000I150000J0D01*
G01*
G37*
G36*
G01*
X131041000Y-74655000D02*
X131341000Y-74655000D01*
G75*
G02*
X131491000Y-74805000I0J-150000D01*
G01*
X131491000Y-76455000D01*
G75*
G02*
X131341000Y-76605000I-150000J0D01*
G01*
X131041000Y-76605000D01*
G75*
G02*
X130891000Y-76455000I0J150000D01*
G01*
X130891000Y-74805000D01*
G75*
G02*
X131041000Y-74655000I150000J0D01*
G01*
G37*
G36*
G01*
X121516000Y-79605000D02*
X121816000Y-79605000D01*
G75*
G02*
X121966000Y-79755000I0J-150000D01*
G01*
X121966000Y-81405000D01*
G75*
G02*
X121816000Y-81555000I-150000J0D01*
G01*
X121516000Y-81555000D01*
G75*
G02*
X121366000Y-81405000I0J150000D01*
G01*
X121366000Y-79755000D01*
G75*
G02*
X121516000Y-79605000I150000J0D01*
G01*
G37*
G36*
G01*
X120246000Y-79605000D02*
X120546000Y-79605000D01*
G75*
G02*
X120696000Y-79755000I0J-150000D01*
G01*
X120696000Y-81405000D01*
G75*
G02*
X120546000Y-81555000I-150000J0D01*
G01*
X120246000Y-81555000D01*
G75*
G02*
X120096000Y-81405000I0J150000D01*
G01*
X120096000Y-79755000D01*
G75*
G02*
X120246000Y-79605000I150000J0D01*
G01*
G37*
G36*
G01*
X118976000Y-79605000D02*
X119276000Y-79605000D01*
G75*
G02*
X119426000Y-79755000I0J-150000D01*
G01*
X119426000Y-81405000D01*
G75*
G02*
X119276000Y-81555000I-150000J0D01*
G01*
X118976000Y-81555000D01*
G75*
G02*
X118826000Y-81405000I0J150000D01*
G01*
X118826000Y-79755000D01*
G75*
G02*
X118976000Y-79605000I150000J0D01*
G01*
G37*
G36*
G01*
X117706000Y-79605000D02*
X118006000Y-79605000D01*
G75*
G02*
X118156000Y-79755000I0J-150000D01*
G01*
X118156000Y-81405000D01*
G75*
G02*
X118006000Y-81555000I-150000J0D01*
G01*
X117706000Y-81555000D01*
G75*
G02*
X117556000Y-81405000I0J150000D01*
G01*
X117556000Y-79755000D01*
G75*
G02*
X117706000Y-79605000I150000J0D01*
G01*
G37*
G36*
G01*
X116436000Y-79605000D02*
X116736000Y-79605000D01*
G75*
G02*
X116886000Y-79755000I0J-150000D01*
G01*
X116886000Y-81405000D01*
G75*
G02*
X116736000Y-81555000I-150000J0D01*
G01*
X116436000Y-81555000D01*
G75*
G02*
X116286000Y-81405000I0J150000D01*
G01*
X116286000Y-79755000D01*
G75*
G02*
X116436000Y-79605000I150000J0D01*
G01*
G37*
G36*
G01*
X115166000Y-79605000D02*
X115466000Y-79605000D01*
G75*
G02*
X115616000Y-79755000I0J-150000D01*
G01*
X115616000Y-81405000D01*
G75*
G02*
X115466000Y-81555000I-150000J0D01*
G01*
X115166000Y-81555000D01*
G75*
G02*
X115016000Y-81405000I0J150000D01*
G01*
X115016000Y-79755000D01*
G75*
G02*
X115166000Y-79605000I150000J0D01*
G01*
G37*
G36*
G01*
X113896000Y-79605000D02*
X114196000Y-79605000D01*
G75*
G02*
X114346000Y-79755000I0J-150000D01*
G01*
X114346000Y-81405000D01*
G75*
G02*
X114196000Y-81555000I-150000J0D01*
G01*
X113896000Y-81555000D01*
G75*
G02*
X113746000Y-81405000I0J150000D01*
G01*
X113746000Y-79755000D01*
G75*
G02*
X113896000Y-79605000I150000J0D01*
G01*
G37*
G36*
G01*
X112626000Y-79605000D02*
X112926000Y-79605000D01*
G75*
G02*
X113076000Y-79755000I0J-150000D01*
G01*
X113076000Y-81405000D01*
G75*
G02*
X112926000Y-81555000I-150000J0D01*
G01*
X112626000Y-81555000D01*
G75*
G02*
X112476000Y-81405000I0J150000D01*
G01*
X112476000Y-79755000D01*
G75*
G02*
X112626000Y-79605000I150000J0D01*
G01*
G37*
G36*
G01*
X112626000Y-74655000D02*
X112926000Y-74655000D01*
G75*
G02*
X113076000Y-74805000I0J-150000D01*
G01*
X113076000Y-76455000D01*
G75*
G02*
X112926000Y-76605000I-150000J0D01*
G01*
X112626000Y-76605000D01*
G75*
G02*
X112476000Y-76455000I0J150000D01*
G01*
X112476000Y-74805000D01*
G75*
G02*
X112626000Y-74655000I150000J0D01*
G01*
G37*
G36*
G01*
X113896000Y-74655000D02*
X114196000Y-74655000D01*
G75*
G02*
X114346000Y-74805000I0J-150000D01*
G01*
X114346000Y-76455000D01*
G75*
G02*
X114196000Y-76605000I-150000J0D01*
G01*
X113896000Y-76605000D01*
G75*
G02*
X113746000Y-76455000I0J150000D01*
G01*
X113746000Y-74805000D01*
G75*
G02*
X113896000Y-74655000I150000J0D01*
G01*
G37*
G36*
G01*
X115166000Y-74655000D02*
X115466000Y-74655000D01*
G75*
G02*
X115616000Y-74805000I0J-150000D01*
G01*
X115616000Y-76455000D01*
G75*
G02*
X115466000Y-76605000I-150000J0D01*
G01*
X115166000Y-76605000D01*
G75*
G02*
X115016000Y-76455000I0J150000D01*
G01*
X115016000Y-74805000D01*
G75*
G02*
X115166000Y-74655000I150000J0D01*
G01*
G37*
G36*
G01*
X116436000Y-74655000D02*
X116736000Y-74655000D01*
G75*
G02*
X116886000Y-74805000I0J-150000D01*
G01*
X116886000Y-76455000D01*
G75*
G02*
X116736000Y-76605000I-150000J0D01*
G01*
X116436000Y-76605000D01*
G75*
G02*
X116286000Y-76455000I0J150000D01*
G01*
X116286000Y-74805000D01*
G75*
G02*
X116436000Y-74655000I150000J0D01*
G01*
G37*
G36*
G01*
X117706000Y-74655000D02*
X118006000Y-74655000D01*
G75*
G02*
X118156000Y-74805000I0J-150000D01*
G01*
X118156000Y-76455000D01*
G75*
G02*
X118006000Y-76605000I-150000J0D01*
G01*
X117706000Y-76605000D01*
G75*
G02*
X117556000Y-76455000I0J150000D01*
G01*
X117556000Y-74805000D01*
G75*
G02*
X117706000Y-74655000I150000J0D01*
G01*
G37*
G36*
G01*
X118976000Y-74655000D02*
X119276000Y-74655000D01*
G75*
G02*
X119426000Y-74805000I0J-150000D01*
G01*
X119426000Y-76455000D01*
G75*
G02*
X119276000Y-76605000I-150000J0D01*
G01*
X118976000Y-76605000D01*
G75*
G02*
X118826000Y-76455000I0J150000D01*
G01*
X118826000Y-74805000D01*
G75*
G02*
X118976000Y-74655000I150000J0D01*
G01*
G37*
G36*
G01*
X120246000Y-74655000D02*
X120546000Y-74655000D01*
G75*
G02*
X120696000Y-74805000I0J-150000D01*
G01*
X120696000Y-76455000D01*
G75*
G02*
X120546000Y-76605000I-150000J0D01*
G01*
X120246000Y-76605000D01*
G75*
G02*
X120096000Y-76455000I0J150000D01*
G01*
X120096000Y-74805000D01*
G75*
G02*
X120246000Y-74655000I150000J0D01*
G01*
G37*
G36*
G01*
X121516000Y-74655000D02*
X121816000Y-74655000D01*
G75*
G02*
X121966000Y-74805000I0J-150000D01*
G01*
X121966000Y-76455000D01*
G75*
G02*
X121816000Y-76605000I-150000J0D01*
G01*
X121516000Y-76605000D01*
G75*
G02*
X121366000Y-76455000I0J150000D01*
G01*
X121366000Y-74805000D01*
G75*
G02*
X121516000Y-74655000I150000J0D01*
G01*
G37*
G36*
G01*
X126321000Y-94213000D02*
X126321000Y-94763000D01*
G75*
G02*
X126121000Y-94963000I-200000J0D01*
G01*
X125721000Y-94963000D01*
G75*
G02*
X125521000Y-94763000I0J200000D01*
G01*
X125521000Y-94213000D01*
G75*
G02*
X125721000Y-94013000I200000J0D01*
G01*
X126121000Y-94013000D01*
G75*
G02*
X126321000Y-94213000I0J-200000D01*
G01*
G37*
G36*
G01*
X127971000Y-94213000D02*
X127971000Y-94763000D01*
G75*
G02*
X127771000Y-94963000I-200000J0D01*
G01*
X127371000Y-94963000D01*
G75*
G02*
X127171000Y-94763000I0J200000D01*
G01*
X127171000Y-94213000D01*
G75*
G02*
X127371000Y-94013000I200000J0D01*
G01*
X127771000Y-94013000D01*
G75*
G02*
X127971000Y-94213000I0J-200000D01*
G01*
G37*
G36*
G01*
X131489000Y-91461000D02*
X131489000Y-90911000D01*
G75*
G02*
X131689000Y-90711000I200000J0D01*
G01*
X132089000Y-90711000D01*
G75*
G02*
X132289000Y-90911000I0J-200000D01*
G01*
X132289000Y-91461000D01*
G75*
G02*
X132089000Y-91661000I-200000J0D01*
G01*
X131689000Y-91661000D01*
G75*
G02*
X131489000Y-91461000I0J200000D01*
G01*
G37*
G36*
G01*
X129839000Y-91461000D02*
X129839000Y-90911000D01*
G75*
G02*
X130039000Y-90711000I200000J0D01*
G01*
X130439000Y-90711000D01*
G75*
G02*
X130639000Y-90911000I0J-200000D01*
G01*
X130639000Y-91461000D01*
G75*
G02*
X130439000Y-91661000I-200000J0D01*
G01*
X130039000Y-91661000D01*
G75*
G02*
X129839000Y-91461000I0J200000D01*
G01*
G37*
G36*
G01*
X123170000Y-91461000D02*
X123170000Y-90911000D01*
G75*
G02*
X123370000Y-90711000I200000J0D01*
G01*
X123770000Y-90711000D01*
G75*
G02*
X123970000Y-90911000I0J-200000D01*
G01*
X123970000Y-91461000D01*
G75*
G02*
X123770000Y-91661000I-200000J0D01*
G01*
X123370000Y-91661000D01*
G75*
G02*
X123170000Y-91461000I0J200000D01*
G01*
G37*
G36*
G01*
X121520000Y-91461000D02*
X121520000Y-90911000D01*
G75*
G02*
X121720000Y-90711000I200000J0D01*
G01*
X122120000Y-90711000D01*
G75*
G02*
X122320000Y-90911000I0J-200000D01*
G01*
X122320000Y-91461000D01*
G75*
G02*
X122120000Y-91661000I-200000J0D01*
G01*
X121720000Y-91661000D01*
G75*
G02*
X121520000Y-91461000I0J200000D01*
G01*
G37*
G36*
G01*
X122320000Y-97769000D02*
X122320000Y-98319000D01*
G75*
G02*
X122120000Y-98519000I-200000J0D01*
G01*
X121720000Y-98519000D01*
G75*
G02*
X121520000Y-98319000I0J200000D01*
G01*
X121520000Y-97769000D01*
G75*
G02*
X121720000Y-97569000I200000J0D01*
G01*
X122120000Y-97569000D01*
G75*
G02*
X122320000Y-97769000I0J-200000D01*
G01*
G37*
G36*
G01*
X123970000Y-97769000D02*
X123970000Y-98319000D01*
G75*
G02*
X123770000Y-98519000I-200000J0D01*
G01*
X123370000Y-98519000D01*
G75*
G02*
X123170000Y-98319000I0J200000D01*
G01*
X123170000Y-97769000D01*
G75*
G02*
X123370000Y-97569000I200000J0D01*
G01*
X123770000Y-97569000D01*
G75*
G02*
X123970000Y-97769000I0J-200000D01*
G01*
G37*
G36*
G01*
X117456000Y-111019000D02*
X117456000Y-110469000D01*
G75*
G02*
X117656000Y-110269000I200000J0D01*
G01*
X118056000Y-110269000D01*
G75*
G02*
X118256000Y-110469000I0J-200000D01*
G01*
X118256000Y-111019000D01*
G75*
G02*
X118056000Y-111219000I-200000J0D01*
G01*
X117656000Y-111219000D01*
G75*
G02*
X117456000Y-111019000I0J200000D01*
G01*
G37*
G36*
G01*
X115806000Y-111019000D02*
X115806000Y-110469000D01*
G75*
G02*
X116006000Y-110269000I200000J0D01*
G01*
X116406000Y-110269000D01*
G75*
G02*
X116606000Y-110469000I0J-200000D01*
G01*
X116606000Y-111019000D01*
G75*
G02*
X116406000Y-111219000I-200000J0D01*
G01*
X116006000Y-111219000D01*
G75*
G02*
X115806000Y-111019000I0J200000D01*
G01*
G37*
G36*
G01*
X127362000Y-98319000D02*
X127362000Y-97769000D01*
G75*
G02*
X127562000Y-97569000I200000J0D01*
G01*
X127962000Y-97569000D01*
G75*
G02*
X128162000Y-97769000I0J-200000D01*
G01*
X128162000Y-98319000D01*
G75*
G02*
X127962000Y-98519000I-200000J0D01*
G01*
X127562000Y-98519000D01*
G75*
G02*
X127362000Y-98319000I0J200000D01*
G01*
G37*
G36*
G01*
X125712000Y-98319000D02*
X125712000Y-97769000D01*
G75*
G02*
X125912000Y-97569000I200000J0D01*
G01*
X126312000Y-97569000D01*
G75*
G02*
X126512000Y-97769000I0J-200000D01*
G01*
X126512000Y-98319000D01*
G75*
G02*
X126312000Y-98519000I-200000J0D01*
G01*
X125912000Y-98519000D01*
G75*
G02*
X125712000Y-98319000I0J200000D01*
G01*
G37*
G36*
G01*
X130576000Y-97769000D02*
X130576000Y-98319000D01*
G75*
G02*
X130376000Y-98519000I-200000J0D01*
G01*
X129976000Y-98519000D01*
G75*
G02*
X129776000Y-98319000I0J200000D01*
G01*
X129776000Y-97769000D01*
G75*
G02*
X129976000Y-97569000I200000J0D01*
G01*
X130376000Y-97569000D01*
G75*
G02*
X130576000Y-97769000I0J-200000D01*
G01*
G37*
G36*
G01*
X132226000Y-97769000D02*
X132226000Y-98319000D01*
G75*
G02*
X132026000Y-98519000I-200000J0D01*
G01*
X131626000Y-98519000D01*
G75*
G02*
X131426000Y-98319000I0J200000D01*
G01*
X131426000Y-97769000D01*
G75*
G02*
X131626000Y-97569000I200000J0D01*
G01*
X132026000Y-97569000D01*
G75*
G02*
X132226000Y-97769000I0J-200000D01*
G01*
G37*
G36*
G01*
X125710000Y-114575000D02*
X125710000Y-114025000D01*
G75*
G02*
X125910000Y-113825000I200000J0D01*
G01*
X126310000Y-113825000D01*
G75*
G02*
X126510000Y-114025000I0J-200000D01*
G01*
X126510000Y-114575000D01*
G75*
G02*
X126310000Y-114775000I-200000J0D01*
G01*
X125910000Y-114775000D01*
G75*
G02*
X125710000Y-114575000I0J200000D01*
G01*
G37*
G36*
G01*
X124060000Y-114575000D02*
X124060000Y-114025000D01*
G75*
G02*
X124260000Y-113825000I200000J0D01*
G01*
X124660000Y-113825000D01*
G75*
G02*
X124860000Y-114025000I0J-200000D01*
G01*
X124860000Y-114575000D01*
G75*
G02*
X124660000Y-114775000I-200000J0D01*
G01*
X124260000Y-114775000D01*
G75*
G02*
X124060000Y-114575000I0J200000D01*
G01*
G37*
G36*
G01*
X129648000Y-111019000D02*
X129648000Y-110469000D01*
G75*
G02*
X129848000Y-110269000I200000J0D01*
G01*
X130248000Y-110269000D01*
G75*
G02*
X130448000Y-110469000I0J-200000D01*
G01*
X130448000Y-111019000D01*
G75*
G02*
X130248000Y-111219000I-200000J0D01*
G01*
X129848000Y-111219000D01*
G75*
G02*
X129648000Y-111019000I0J200000D01*
G01*
G37*
G36*
G01*
X127998000Y-111019000D02*
X127998000Y-110469000D01*
G75*
G02*
X128198000Y-110269000I200000J0D01*
G01*
X128598000Y-110269000D01*
G75*
G02*
X128798000Y-110469000I0J-200000D01*
G01*
X128798000Y-111019000D01*
G75*
G02*
X128598000Y-111219000I-200000J0D01*
G01*
X128198000Y-111219000D01*
G75*
G02*
X127998000Y-111019000I0J200000D01*
G01*
G37*
G36*
G01*
X124860000Y-110469000D02*
X124860000Y-111019000D01*
G75*
G02*
X124660000Y-111219000I-200000J0D01*
G01*
X124260000Y-111219000D01*
G75*
G02*
X124060000Y-111019000I0J200000D01*
G01*
X124060000Y-110469000D01*
G75*
G02*
X124260000Y-110269000I200000J0D01*
G01*
X124660000Y-110269000D01*
G75*
G02*
X124860000Y-110469000I0J-200000D01*
G01*
G37*
G36*
G01*
X126510000Y-110469000D02*
X126510000Y-111019000D01*
G75*
G02*
X126310000Y-111219000I-200000J0D01*
G01*
X125910000Y-111219000D01*
G75*
G02*
X125710000Y-111019000I0J200000D01*
G01*
X125710000Y-110469000D01*
G75*
G02*
X125910000Y-110269000I200000J0D01*
G01*
X126310000Y-110269000D01*
G75*
G02*
X126510000Y-110469000I0J-200000D01*
G01*
G37*
G36*
G01*
X102382000Y-71734000D02*
X102382000Y-72284000D01*
G75*
G02*
X102182000Y-72484000I-200000J0D01*
G01*
X101782000Y-72484000D01*
G75*
G02*
X101582000Y-72284000I0J200000D01*
G01*
X101582000Y-71734000D01*
G75*
G02*
X101782000Y-71534000I200000J0D01*
G01*
X102182000Y-71534000D01*
G75*
G02*
X102382000Y-71734000I0J-200000D01*
G01*
G37*
G36*
G01*
X104032000Y-71734000D02*
X104032000Y-72284000D01*
G75*
G02*
X103832000Y-72484000I-200000J0D01*
G01*
X103432000Y-72484000D01*
G75*
G02*
X103232000Y-72284000I0J200000D01*
G01*
X103232000Y-71734000D01*
G75*
G02*
X103432000Y-71534000I200000J0D01*
G01*
X103832000Y-71534000D01*
G75*
G02*
X104032000Y-71734000I0J-200000D01*
G01*
G37*
G36*
G01*
X108478000Y-87609000D02*
X108478000Y-88159000D01*
G75*
G02*
X108278000Y-88359000I-200000J0D01*
G01*
X107878000Y-88359000D01*
G75*
G02*
X107678000Y-88159000I0J200000D01*
G01*
X107678000Y-87609000D01*
G75*
G02*
X107878000Y-87409000I200000J0D01*
G01*
X108278000Y-87409000D01*
G75*
G02*
X108478000Y-87609000I0J-200000D01*
G01*
G37*
G36*
G01*
X110128000Y-87609000D02*
X110128000Y-88159000D01*
G75*
G02*
X109928000Y-88359000I-200000J0D01*
G01*
X109528000Y-88359000D01*
G75*
G02*
X109328000Y-88159000I0J200000D01*
G01*
X109328000Y-87609000D01*
G75*
G02*
X109528000Y-87409000I200000J0D01*
G01*
X109928000Y-87409000D01*
G75*
G02*
X110128000Y-87609000I0J-200000D01*
G01*
G37*
G36*
G01*
X98064000Y-87609000D02*
X98064000Y-88159000D01*
G75*
G02*
X97864000Y-88359000I-200000J0D01*
G01*
X97464000Y-88359000D01*
G75*
G02*
X97264000Y-88159000I0J200000D01*
G01*
X97264000Y-87609000D01*
G75*
G02*
X97464000Y-87409000I200000J0D01*
G01*
X97864000Y-87409000D01*
G75*
G02*
X98064000Y-87609000I0J-200000D01*
G01*
G37*
G36*
G01*
X99714000Y-87609000D02*
X99714000Y-88159000D01*
G75*
G02*
X99514000Y-88359000I-200000J0D01*
G01*
X99114000Y-88359000D01*
G75*
G02*
X98914000Y-88159000I0J200000D01*
G01*
X98914000Y-87609000D01*
G75*
G02*
X99114000Y-87409000I200000J0D01*
G01*
X99514000Y-87409000D01*
G75*
G02*
X99714000Y-87609000I0J-200000D01*
G01*
G37*
G36*
G01*
X98064000Y-84307000D02*
X98064000Y-84857000D01*
G75*
G02*
X97864000Y-85057000I-200000J0D01*
G01*
X97464000Y-85057000D01*
G75*
G02*
X97264000Y-84857000I0J200000D01*
G01*
X97264000Y-84307000D01*
G75*
G02*
X97464000Y-84107000I200000J0D01*
G01*
X97864000Y-84107000D01*
G75*
G02*
X98064000Y-84307000I0J-200000D01*
G01*
G37*
G36*
G01*
X99714000Y-84307000D02*
X99714000Y-84857000D01*
G75*
G02*
X99514000Y-85057000I-200000J0D01*
G01*
X99114000Y-85057000D01*
G75*
G02*
X98914000Y-84857000I0J200000D01*
G01*
X98914000Y-84307000D01*
G75*
G02*
X99114000Y-84107000I200000J0D01*
G01*
X99514000Y-84107000D01*
G75*
G02*
X99714000Y-84307000I0J-200000D01*
G01*
G37*
G36*
G01*
X138830000Y-87609000D02*
X138830000Y-88159000D01*
G75*
G02*
X138630000Y-88359000I-200000J0D01*
G01*
X138230000Y-88359000D01*
G75*
G02*
X138030000Y-88159000I0J200000D01*
G01*
X138030000Y-87609000D01*
G75*
G02*
X138230000Y-87409000I200000J0D01*
G01*
X138630000Y-87409000D01*
G75*
G02*
X138830000Y-87609000I0J-200000D01*
G01*
G37*
G36*
G01*
X140480000Y-87609000D02*
X140480000Y-88159000D01*
G75*
G02*
X140280000Y-88359000I-200000J0D01*
G01*
X139880000Y-88359000D01*
G75*
G02*
X139680000Y-88159000I0J200000D01*
G01*
X139680000Y-87609000D01*
G75*
G02*
X139880000Y-87409000I200000J0D01*
G01*
X140280000Y-87409000D01*
G75*
G02*
X140480000Y-87609000I0J-200000D01*
G01*
G37*
G36*
G01*
X120923000Y-84307000D02*
X120923000Y-84857000D01*
G75*
G02*
X120723000Y-85057000I-200000J0D01*
G01*
X120323000Y-85057000D01*
G75*
G02*
X120123000Y-84857000I0J200000D01*
G01*
X120123000Y-84307000D01*
G75*
G02*
X120323000Y-84107000I200000J0D01*
G01*
X120723000Y-84107000D01*
G75*
G02*
X120923000Y-84307000I0J-200000D01*
G01*
G37*
G36*
G01*
X122573000Y-84307000D02*
X122573000Y-84857000D01*
G75*
G02*
X122373000Y-85057000I-200000J0D01*
G01*
X121973000Y-85057000D01*
G75*
G02*
X121773000Y-84857000I0J200000D01*
G01*
X121773000Y-84307000D01*
G75*
G02*
X121973000Y-84107000I200000J0D01*
G01*
X122373000Y-84107000D01*
G75*
G02*
X122573000Y-84307000I0J-200000D01*
G01*
G37*
G36*
G01*
X134005000Y-87609000D02*
X134005000Y-88159000D01*
G75*
G02*
X133805000Y-88359000I-200000J0D01*
G01*
X133405000Y-88359000D01*
G75*
G02*
X133205000Y-88159000I0J200000D01*
G01*
X133205000Y-87609000D01*
G75*
G02*
X133405000Y-87409000I200000J0D01*
G01*
X133805000Y-87409000D01*
G75*
G02*
X134005000Y-87609000I0J-200000D01*
G01*
G37*
G36*
G01*
X135655000Y-87609000D02*
X135655000Y-88159000D01*
G75*
G02*
X135455000Y-88359000I-200000J0D01*
G01*
X135055000Y-88359000D01*
G75*
G02*
X134855000Y-88159000I0J200000D01*
G01*
X134855000Y-87609000D01*
G75*
G02*
X135055000Y-87409000I200000J0D01*
G01*
X135455000Y-87409000D01*
G75*
G02*
X135655000Y-87609000I0J-200000D01*
G01*
G37*
G36*
G01*
X129052000Y-87609000D02*
X129052000Y-88159000D01*
G75*
G02*
X128852000Y-88359000I-200000J0D01*
G01*
X128452000Y-88359000D01*
G75*
G02*
X128252000Y-88159000I0J200000D01*
G01*
X128252000Y-87609000D01*
G75*
G02*
X128452000Y-87409000I200000J0D01*
G01*
X128852000Y-87409000D01*
G75*
G02*
X129052000Y-87609000I0J-200000D01*
G01*
G37*
G36*
G01*
X130702000Y-87609000D02*
X130702000Y-88159000D01*
G75*
G02*
X130502000Y-88359000I-200000J0D01*
G01*
X130102000Y-88359000D01*
G75*
G02*
X129902000Y-88159000I0J200000D01*
G01*
X129902000Y-87609000D01*
G75*
G02*
X130102000Y-87409000I200000J0D01*
G01*
X130502000Y-87409000D01*
G75*
G02*
X130702000Y-87609000I0J-200000D01*
G01*
G37*
G36*
G01*
X113900000Y-84857000D02*
X113900000Y-84307000D01*
G75*
G02*
X114100000Y-84107000I200000J0D01*
G01*
X114500000Y-84107000D01*
G75*
G02*
X114700000Y-84307000I0J-200000D01*
G01*
X114700000Y-84857000D01*
G75*
G02*
X114500000Y-85057000I-200000J0D01*
G01*
X114100000Y-85057000D01*
G75*
G02*
X113900000Y-84857000I0J200000D01*
G01*
G37*
G36*
G01*
X112250000Y-84857000D02*
X112250000Y-84307000D01*
G75*
G02*
X112450000Y-84107000I200000J0D01*
G01*
X112850000Y-84107000D01*
G75*
G02*
X113050000Y-84307000I0J-200000D01*
G01*
X113050000Y-84857000D01*
G75*
G02*
X112850000Y-85057000I-200000J0D01*
G01*
X112450000Y-85057000D01*
G75*
G02*
X112250000Y-84857000I0J200000D01*
G01*
G37*
G36*
G01*
X124988000Y-87609000D02*
X124988000Y-88159000D01*
G75*
G02*
X124788000Y-88359000I-200000J0D01*
G01*
X124388000Y-88359000D01*
G75*
G02*
X124188000Y-88159000I0J200000D01*
G01*
X124188000Y-87609000D01*
G75*
G02*
X124388000Y-87409000I200000J0D01*
G01*
X124788000Y-87409000D01*
G75*
G02*
X124988000Y-87609000I0J-200000D01*
G01*
G37*
G36*
G01*
X126638000Y-87609000D02*
X126638000Y-88159000D01*
G75*
G02*
X126438000Y-88359000I-200000J0D01*
G01*
X126038000Y-88359000D01*
G75*
G02*
X125838000Y-88159000I0J200000D01*
G01*
X125838000Y-87609000D01*
G75*
G02*
X126038000Y-87409000I200000J0D01*
G01*
X126438000Y-87409000D01*
G75*
G02*
X126638000Y-87609000I0J-200000D01*
G01*
G37*
G36*
G01*
X139339000Y-68305000D02*
X139339000Y-68855000D01*
G75*
G02*
X139139000Y-69055000I-200000J0D01*
G01*
X138739000Y-69055000D01*
G75*
G02*
X138539000Y-68855000I0J200000D01*
G01*
X138539000Y-68305000D01*
G75*
G02*
X138739000Y-68105000I200000J0D01*
G01*
X139139000Y-68105000D01*
G75*
G02*
X139339000Y-68305000I0J-200000D01*
G01*
G37*
G36*
G01*
X140989000Y-68305000D02*
X140989000Y-68855000D01*
G75*
G02*
X140789000Y-69055000I-200000J0D01*
G01*
X140389000Y-69055000D01*
G75*
G02*
X140189000Y-68855000I0J200000D01*
G01*
X140189000Y-68305000D01*
G75*
G02*
X140389000Y-68105000I200000J0D01*
G01*
X140789000Y-68105000D01*
G75*
G02*
X140989000Y-68305000I0J-200000D01*
G01*
G37*
G36*
G01*
X120923000Y-71734000D02*
X120923000Y-72284000D01*
G75*
G02*
X120723000Y-72484000I-200000J0D01*
G01*
X120323000Y-72484000D01*
G75*
G02*
X120123000Y-72284000I0J200000D01*
G01*
X120123000Y-71734000D01*
G75*
G02*
X120323000Y-71534000I200000J0D01*
G01*
X120723000Y-71534000D01*
G75*
G02*
X120923000Y-71734000I0J-200000D01*
G01*
G37*
G36*
G01*
X122573000Y-71734000D02*
X122573000Y-72284000D01*
G75*
G02*
X122373000Y-72484000I-200000J0D01*
G01*
X121973000Y-72484000D01*
G75*
G02*
X121773000Y-72284000I0J200000D01*
G01*
X121773000Y-71734000D01*
G75*
G02*
X121973000Y-71534000I200000J0D01*
G01*
X122373000Y-71534000D01*
G75*
G02*
X122573000Y-71734000I0J-200000D01*
G01*
G37*
G36*
G01*
X134830000Y-68305000D02*
X134830000Y-68855000D01*
G75*
G02*
X134630000Y-69055000I-200000J0D01*
G01*
X134230000Y-69055000D01*
G75*
G02*
X134030000Y-68855000I0J200000D01*
G01*
X134030000Y-68305000D01*
G75*
G02*
X134230000Y-68105000I200000J0D01*
G01*
X134630000Y-68105000D01*
G75*
G02*
X134830000Y-68305000I0J-200000D01*
G01*
G37*
G36*
G01*
X136480000Y-68305000D02*
X136480000Y-68855000D01*
G75*
G02*
X136280000Y-69055000I-200000J0D01*
G01*
X135880000Y-69055000D01*
G75*
G02*
X135680000Y-68855000I0J200000D01*
G01*
X135680000Y-68305000D01*
G75*
G02*
X135880000Y-68105000I200000J0D01*
G01*
X136280000Y-68105000D01*
G75*
G02*
X136480000Y-68305000I0J-200000D01*
G01*
G37*
G36*
G01*
X129750000Y-68305000D02*
X129750000Y-68855000D01*
G75*
G02*
X129550000Y-69055000I-200000J0D01*
G01*
X129150000Y-69055000D01*
G75*
G02*
X128950000Y-68855000I0J200000D01*
G01*
X128950000Y-68305000D01*
G75*
G02*
X129150000Y-68105000I200000J0D01*
G01*
X129550000Y-68105000D01*
G75*
G02*
X129750000Y-68305000I0J-200000D01*
G01*
G37*
G36*
G01*
X131400000Y-68305000D02*
X131400000Y-68855000D01*
G75*
G02*
X131200000Y-69055000I-200000J0D01*
G01*
X130800000Y-69055000D01*
G75*
G02*
X130600000Y-68855000I0J200000D01*
G01*
X130600000Y-68305000D01*
G75*
G02*
X130800000Y-68105000I200000J0D01*
G01*
X131200000Y-68105000D01*
G75*
G02*
X131400000Y-68305000I0J-200000D01*
G01*
G37*
G36*
G01*
X113900000Y-72284000D02*
X113900000Y-71734000D01*
G75*
G02*
X114100000Y-71534000I200000J0D01*
G01*
X114500000Y-71534000D01*
G75*
G02*
X114700000Y-71734000I0J-200000D01*
G01*
X114700000Y-72284000D01*
G75*
G02*
X114500000Y-72484000I-200000J0D01*
G01*
X114100000Y-72484000D01*
G75*
G02*
X113900000Y-72284000I0J200000D01*
G01*
G37*
G36*
G01*
X112250000Y-72284000D02*
X112250000Y-71734000D01*
G75*
G02*
X112450000Y-71534000I200000J0D01*
G01*
X112850000Y-71534000D01*
G75*
G02*
X113050000Y-71734000I0J-200000D01*
G01*
X113050000Y-72284000D01*
G75*
G02*
X112850000Y-72484000I-200000J0D01*
G01*
X112450000Y-72484000D01*
G75*
G02*
X112250000Y-72284000I0J200000D01*
G01*
G37*
G36*
G01*
X108605000Y-71734000D02*
X108605000Y-72284000D01*
G75*
G02*
X108405000Y-72484000I-200000J0D01*
G01*
X108005000Y-72484000D01*
G75*
G02*
X107805000Y-72284000I0J200000D01*
G01*
X107805000Y-71734000D01*
G75*
G02*
X108005000Y-71534000I200000J0D01*
G01*
X108405000Y-71534000D01*
G75*
G02*
X108605000Y-71734000I0J-200000D01*
G01*
G37*
G36*
G01*
X110255000Y-71734000D02*
X110255000Y-72284000D01*
G75*
G02*
X110055000Y-72484000I-200000J0D01*
G01*
X109655000Y-72484000D01*
G75*
G02*
X109455000Y-72284000I0J200000D01*
G01*
X109455000Y-71734000D01*
G75*
G02*
X109655000Y-71534000I200000J0D01*
G01*
X110055000Y-71534000D01*
G75*
G02*
X110255000Y-71734000I0J-200000D01*
G01*
G37*
G36*
G01*
X108605000Y-68305000D02*
X108605000Y-68855000D01*
G75*
G02*
X108405000Y-69055000I-200000J0D01*
G01*
X108005000Y-69055000D01*
G75*
G02*
X107805000Y-68855000I0J200000D01*
G01*
X107805000Y-68305000D01*
G75*
G02*
X108005000Y-68105000I200000J0D01*
G01*
X108405000Y-68105000D01*
G75*
G02*
X108605000Y-68305000I0J-200000D01*
G01*
G37*
G36*
G01*
X110255000Y-68305000D02*
X110255000Y-68855000D01*
G75*
G02*
X110055000Y-69055000I-200000J0D01*
G01*
X109655000Y-69055000D01*
G75*
G02*
X109455000Y-68855000I0J200000D01*
G01*
X109455000Y-68305000D01*
G75*
G02*
X109655000Y-68105000I200000J0D01*
G01*
X110055000Y-68105000D01*
G75*
G02*
X110255000Y-68305000I0J-200000D01*
G01*
G37*
D10*
X143256000Y-99822000D03*
X143256000Y-96522000D03*
D11*
X102059200Y-88239600D03*
X105359200Y-88239600D03*
X102059200Y-84582000D03*
X105359200Y-84582000D03*
G36*
G01*
X123198000Y-94963000D02*
X123198000Y-94013000D01*
G75*
G02*
X123448000Y-93763000I250000J0D01*
G01*
X123948000Y-93763000D01*
G75*
G02*
X124198000Y-94013000I0J-250000D01*
G01*
X124198000Y-94963000D01*
G75*
G02*
X123948000Y-95213000I-250000J0D01*
G01*
X123448000Y-95213000D01*
G75*
G02*
X123198000Y-94963000I0J250000D01*
G01*
G37*
G36*
G01*
X121298000Y-94963000D02*
X121298000Y-94013000D01*
G75*
G02*
X121548000Y-93763000I250000J0D01*
G01*
X122048000Y-93763000D01*
G75*
G02*
X122298000Y-94013000I0J-250000D01*
G01*
X122298000Y-94963000D01*
G75*
G02*
X122048000Y-95213000I-250000J0D01*
G01*
X121548000Y-95213000D01*
G75*
G02*
X121298000Y-94963000I0J250000D01*
G01*
G37*
G36*
G01*
X121343000Y-110994000D02*
X121343000Y-110494000D01*
G75*
G02*
X121568000Y-110269000I225000J0D01*
G01*
X122018000Y-110269000D01*
G75*
G02*
X122243000Y-110494000I0J-225000D01*
G01*
X122243000Y-110994000D01*
G75*
G02*
X122018000Y-111219000I-225000J0D01*
G01*
X121568000Y-111219000D01*
G75*
G02*
X121343000Y-110994000I0J225000D01*
G01*
G37*
G36*
G01*
X119793000Y-110994000D02*
X119793000Y-110494000D01*
G75*
G02*
X120018000Y-110269000I225000J0D01*
G01*
X120468000Y-110269000D01*
G75*
G02*
X120693000Y-110494000I0J-225000D01*
G01*
X120693000Y-110994000D01*
G75*
G02*
X120468000Y-111219000I-225000J0D01*
G01*
X120018000Y-111219000D01*
G75*
G02*
X119793000Y-110994000I0J225000D01*
G01*
G37*
G36*
G01*
X131402000Y-94738000D02*
X131402000Y-94238000D01*
G75*
G02*
X131627000Y-94013000I225000J0D01*
G01*
X132077000Y-94013000D01*
G75*
G02*
X132302000Y-94238000I0J-225000D01*
G01*
X132302000Y-94738000D01*
G75*
G02*
X132077000Y-94963000I-225000J0D01*
G01*
X131627000Y-94963000D01*
G75*
G02*
X131402000Y-94738000I0J225000D01*
G01*
G37*
G36*
G01*
X129852000Y-94738000D02*
X129852000Y-94238000D01*
G75*
G02*
X130077000Y-94013000I225000J0D01*
G01*
X130527000Y-94013000D01*
G75*
G02*
X130752000Y-94238000I0J-225000D01*
G01*
X130752000Y-94738000D01*
G75*
G02*
X130527000Y-94963000I-225000J0D01*
G01*
X130077000Y-94963000D01*
G75*
G02*
X129852000Y-94738000I0J225000D01*
G01*
G37*
G36*
G01*
X128948000Y-114050000D02*
X128948000Y-114550000D01*
G75*
G02*
X128723000Y-114775000I-225000J0D01*
G01*
X128273000Y-114775000D01*
G75*
G02*
X128048000Y-114550000I0J225000D01*
G01*
X128048000Y-114050000D01*
G75*
G02*
X128273000Y-113825000I225000J0D01*
G01*
X128723000Y-113825000D01*
G75*
G02*
X128948000Y-114050000I0J-225000D01*
G01*
G37*
G36*
G01*
X130498000Y-114050000D02*
X130498000Y-114550000D01*
G75*
G02*
X130273000Y-114775000I-225000J0D01*
G01*
X129823000Y-114775000D01*
G75*
G02*
X129598000Y-114550000I0J225000D01*
G01*
X129598000Y-114050000D01*
G75*
G02*
X129823000Y-113825000I225000J0D01*
G01*
X130273000Y-113825000D01*
G75*
G02*
X130498000Y-114050000I0J-225000D01*
G01*
G37*
G36*
G01*
X103254000Y-69182000D02*
X103254000Y-68232000D01*
G75*
G02*
X103504000Y-67982000I250000J0D01*
G01*
X104004000Y-67982000D01*
G75*
G02*
X104254000Y-68232000I0J-250000D01*
G01*
X104254000Y-69182000D01*
G75*
G02*
X104004000Y-69432000I-250000J0D01*
G01*
X103504000Y-69432000D01*
G75*
G02*
X103254000Y-69182000I0J250000D01*
G01*
G37*
G36*
G01*
X101354000Y-69182000D02*
X101354000Y-68232000D01*
G75*
G02*
X101604000Y-67982000I250000J0D01*
G01*
X102104000Y-67982000D01*
G75*
G02*
X102354000Y-68232000I0J-250000D01*
G01*
X102354000Y-69182000D01*
G75*
G02*
X102104000Y-69432000I-250000J0D01*
G01*
X101604000Y-69432000D01*
G75*
G02*
X101354000Y-69182000I0J250000D01*
G01*
G37*
G36*
G01*
X143060000Y-104136000D02*
X143060000Y-103636000D01*
G75*
G02*
X143285000Y-103411000I225000J0D01*
G01*
X143735000Y-103411000D01*
G75*
G02*
X143960000Y-103636000I0J-225000D01*
G01*
X143960000Y-104136000D01*
G75*
G02*
X143735000Y-104361000I-225000J0D01*
G01*
X143285000Y-104361000D01*
G75*
G02*
X143060000Y-104136000I0J225000D01*
G01*
G37*
G36*
G01*
X141510000Y-104136000D02*
X141510000Y-103636000D01*
G75*
G02*
X141735000Y-103411000I225000J0D01*
G01*
X142185000Y-103411000D01*
G75*
G02*
X142410000Y-103636000I0J-225000D01*
G01*
X142410000Y-104136000D01*
G75*
G02*
X142185000Y-104361000I-225000J0D01*
G01*
X141735000Y-104361000D01*
G75*
G02*
X141510000Y-104136000I0J225000D01*
G01*
G37*
G36*
G01*
X142423000Y-110494000D02*
X142423000Y-110994000D01*
G75*
G02*
X142198000Y-111219000I-225000J0D01*
G01*
X141748000Y-111219000D01*
G75*
G02*
X141523000Y-110994000I0J225000D01*
G01*
X141523000Y-110494000D01*
G75*
G02*
X141748000Y-110269000I225000J0D01*
G01*
X142198000Y-110269000D01*
G75*
G02*
X142423000Y-110494000I0J-225000D01*
G01*
G37*
G36*
G01*
X143973000Y-110494000D02*
X143973000Y-110994000D01*
G75*
G02*
X143748000Y-111219000I-225000J0D01*
G01*
X143298000Y-111219000D01*
G75*
G02*
X143073000Y-110994000I0J225000D01*
G01*
X143073000Y-110494000D01*
G75*
G02*
X143298000Y-110269000I225000J0D01*
G01*
X143748000Y-110269000D01*
G75*
G02*
X143973000Y-110494000I0J-225000D01*
G01*
G37*
G36*
G01*
X126369000Y-102433000D02*
X126869000Y-102433000D01*
G75*
G02*
X127094000Y-102658000I0J-225000D01*
G01*
X127094000Y-103108000D01*
G75*
G02*
X126869000Y-103333000I-225000J0D01*
G01*
X126369000Y-103333000D01*
G75*
G02*
X126144000Y-103108000I0J225000D01*
G01*
X126144000Y-102658000D01*
G75*
G02*
X126369000Y-102433000I225000J0D01*
G01*
G37*
G36*
G01*
X126369000Y-100883000D02*
X126869000Y-100883000D01*
G75*
G02*
X127094000Y-101108000I0J-225000D01*
G01*
X127094000Y-101558000D01*
G75*
G02*
X126869000Y-101783000I-225000J0D01*
G01*
X126369000Y-101783000D01*
G75*
G02*
X126144000Y-101558000I0J225000D01*
G01*
X126144000Y-101108000D01*
G75*
G02*
X126369000Y-100883000I225000J0D01*
G01*
G37*
G36*
G01*
X126369000Y-105468000D02*
X126869000Y-105468000D01*
G75*
G02*
X127094000Y-105693000I0J-225000D01*
G01*
X127094000Y-106143000D01*
G75*
G02*
X126869000Y-106368000I-225000J0D01*
G01*
X126369000Y-106368000D01*
G75*
G02*
X126144000Y-106143000I0J225000D01*
G01*
X126144000Y-105693000D01*
G75*
G02*
X126369000Y-105468000I225000J0D01*
G01*
G37*
G36*
G01*
X126369000Y-103918000D02*
X126869000Y-103918000D01*
G75*
G02*
X127094000Y-104143000I0J-225000D01*
G01*
X127094000Y-104593000D01*
G75*
G02*
X126869000Y-104818000I-225000J0D01*
G01*
X126369000Y-104818000D01*
G75*
G02*
X126144000Y-104593000I0J225000D01*
G01*
X126144000Y-104143000D01*
G75*
G02*
X126369000Y-103918000I225000J0D01*
G01*
G37*
G36*
G01*
X134497000Y-76906000D02*
X134997000Y-76906000D01*
G75*
G02*
X135222000Y-77131000I0J-225000D01*
G01*
X135222000Y-77581000D01*
G75*
G02*
X134997000Y-77806000I-225000J0D01*
G01*
X134497000Y-77806000D01*
G75*
G02*
X134272000Y-77581000I0J225000D01*
G01*
X134272000Y-77131000D01*
G75*
G02*
X134497000Y-76906000I225000J0D01*
G01*
G37*
G36*
G01*
X134497000Y-75356000D02*
X134997000Y-75356000D01*
G75*
G02*
X135222000Y-75581000I0J-225000D01*
G01*
X135222000Y-76031000D01*
G75*
G02*
X134997000Y-76256000I-225000J0D01*
G01*
X134497000Y-76256000D01*
G75*
G02*
X134272000Y-76031000I0J225000D01*
G01*
X134272000Y-75581000D01*
G75*
G02*
X134497000Y-75356000I225000J0D01*
G01*
G37*
G36*
G01*
X134497000Y-79941000D02*
X134997000Y-79941000D01*
G75*
G02*
X135222000Y-80166000I0J-225000D01*
G01*
X135222000Y-80616000D01*
G75*
G02*
X134997000Y-80841000I-225000J0D01*
G01*
X134497000Y-80841000D01*
G75*
G02*
X134272000Y-80616000I0J225000D01*
G01*
X134272000Y-80166000D01*
G75*
G02*
X134497000Y-79941000I225000J0D01*
G01*
G37*
G36*
G01*
X134497000Y-78391000D02*
X134997000Y-78391000D01*
G75*
G02*
X135222000Y-78616000I0J-225000D01*
G01*
X135222000Y-79066000D01*
G75*
G02*
X134997000Y-79291000I-225000J0D01*
G01*
X134497000Y-79291000D01*
G75*
G02*
X134272000Y-79066000I0J225000D01*
G01*
X134272000Y-78616000D01*
G75*
G02*
X134497000Y-78391000I225000J0D01*
G01*
G37*
G36*
G01*
X124845000Y-76906000D02*
X125345000Y-76906000D01*
G75*
G02*
X125570000Y-77131000I0J-225000D01*
G01*
X125570000Y-77581000D01*
G75*
G02*
X125345000Y-77806000I-225000J0D01*
G01*
X124845000Y-77806000D01*
G75*
G02*
X124620000Y-77581000I0J225000D01*
G01*
X124620000Y-77131000D01*
G75*
G02*
X124845000Y-76906000I225000J0D01*
G01*
G37*
G36*
G01*
X124845000Y-75356000D02*
X125345000Y-75356000D01*
G75*
G02*
X125570000Y-75581000I0J-225000D01*
G01*
X125570000Y-76031000D01*
G75*
G02*
X125345000Y-76256000I-225000J0D01*
G01*
X124845000Y-76256000D01*
G75*
G02*
X124620000Y-76031000I0J225000D01*
G01*
X124620000Y-75581000D01*
G75*
G02*
X124845000Y-75356000I225000J0D01*
G01*
G37*
G36*
G01*
X124845000Y-79954000D02*
X125345000Y-79954000D01*
G75*
G02*
X125570000Y-80179000I0J-225000D01*
G01*
X125570000Y-80629000D01*
G75*
G02*
X125345000Y-80854000I-225000J0D01*
G01*
X124845000Y-80854000D01*
G75*
G02*
X124620000Y-80629000I0J225000D01*
G01*
X124620000Y-80179000D01*
G75*
G02*
X124845000Y-79954000I225000J0D01*
G01*
G37*
G36*
G01*
X124845000Y-78404000D02*
X125345000Y-78404000D01*
G75*
G02*
X125570000Y-78629000I0J-225000D01*
G01*
X125570000Y-79079000D01*
G75*
G02*
X125345000Y-79304000I-225000J0D01*
G01*
X124845000Y-79304000D01*
G75*
G02*
X124620000Y-79079000I0J225000D01*
G01*
X124620000Y-78629000D01*
G75*
G02*
X124845000Y-78404000I225000J0D01*
G01*
G37*
G36*
G01*
X108462000Y-76906000D02*
X108962000Y-76906000D01*
G75*
G02*
X109187000Y-77131000I0J-225000D01*
G01*
X109187000Y-77581000D01*
G75*
G02*
X108962000Y-77806000I-225000J0D01*
G01*
X108462000Y-77806000D01*
G75*
G02*
X108237000Y-77581000I0J225000D01*
G01*
X108237000Y-77131000D01*
G75*
G02*
X108462000Y-76906000I225000J0D01*
G01*
G37*
G36*
G01*
X108462000Y-75356000D02*
X108962000Y-75356000D01*
G75*
G02*
X109187000Y-75581000I0J-225000D01*
G01*
X109187000Y-76031000D01*
G75*
G02*
X108962000Y-76256000I-225000J0D01*
G01*
X108462000Y-76256000D01*
G75*
G02*
X108237000Y-76031000I0J225000D01*
G01*
X108237000Y-75581000D01*
G75*
G02*
X108462000Y-75356000I225000J0D01*
G01*
G37*
G36*
G01*
X108462000Y-79954000D02*
X108962000Y-79954000D01*
G75*
G02*
X109187000Y-80179000I0J-225000D01*
G01*
X109187000Y-80629000D01*
G75*
G02*
X108962000Y-80854000I-225000J0D01*
G01*
X108462000Y-80854000D01*
G75*
G02*
X108237000Y-80629000I0J225000D01*
G01*
X108237000Y-80179000D01*
G75*
G02*
X108462000Y-79954000I225000J0D01*
G01*
G37*
G36*
G01*
X108462000Y-78404000D02*
X108962000Y-78404000D01*
G75*
G02*
X109187000Y-78629000I0J-225000D01*
G01*
X109187000Y-79079000D01*
G75*
G02*
X108962000Y-79304000I-225000J0D01*
G01*
X108462000Y-79304000D01*
G75*
G02*
X108237000Y-79079000I0J225000D01*
G01*
X108237000Y-78629000D01*
G75*
G02*
X108462000Y-78404000I225000J0D01*
G01*
G37*
G36*
G01*
X143010000Y-107663000D02*
X143010000Y-106713000D01*
G75*
G02*
X143260000Y-106463000I250000J0D01*
G01*
X143760000Y-106463000D01*
G75*
G02*
X144010000Y-106713000I0J-250000D01*
G01*
X144010000Y-107663000D01*
G75*
G02*
X143760000Y-107913000I-250000J0D01*
G01*
X143260000Y-107913000D01*
G75*
G02*
X143010000Y-107663000I0J250000D01*
G01*
G37*
G36*
G01*
X141110000Y-107663000D02*
X141110000Y-106713000D01*
G75*
G02*
X141360000Y-106463000I250000J0D01*
G01*
X141860000Y-106463000D01*
G75*
G02*
X142110000Y-106713000I0J-250000D01*
G01*
X142110000Y-107663000D01*
G75*
G02*
X141860000Y-107913000I-250000J0D01*
G01*
X141360000Y-107913000D01*
G75*
G02*
X141110000Y-107663000I0J250000D01*
G01*
G37*
G36*
G01*
X142110000Y-114079000D02*
X142110000Y-115029000D01*
G75*
G02*
X141860000Y-115279000I-250000J0D01*
G01*
X141360000Y-115279000D01*
G75*
G02*
X141110000Y-115029000I0J250000D01*
G01*
X141110000Y-114079000D01*
G75*
G02*
X141360000Y-113829000I250000J0D01*
G01*
X141860000Y-113829000D01*
G75*
G02*
X142110000Y-114079000I0J-250000D01*
G01*
G37*
G36*
G01*
X144010000Y-114079000D02*
X144010000Y-115029000D01*
G75*
G02*
X143760000Y-115279000I-250000J0D01*
G01*
X143260000Y-115279000D01*
G75*
G02*
X143010000Y-115029000I0J250000D01*
G01*
X143010000Y-114079000D01*
G75*
G02*
X143260000Y-113829000I250000J0D01*
G01*
X143760000Y-113829000D01*
G75*
G02*
X144010000Y-114079000I0J-250000D01*
G01*
G37*
G36*
G01*
X108654000Y-84332000D02*
X108654000Y-84832000D01*
G75*
G02*
X108429000Y-85057000I-225000J0D01*
G01*
X107979000Y-85057000D01*
G75*
G02*
X107754000Y-84832000I0J225000D01*
G01*
X107754000Y-84332000D01*
G75*
G02*
X107979000Y-84107000I225000J0D01*
G01*
X108429000Y-84107000D01*
G75*
G02*
X108654000Y-84332000I0J-225000D01*
G01*
G37*
G36*
G01*
X110204000Y-84332000D02*
X110204000Y-84832000D01*
G75*
G02*
X109979000Y-85057000I-225000J0D01*
G01*
X109529000Y-85057000D01*
G75*
G02*
X109304000Y-84832000I0J225000D01*
G01*
X109304000Y-84332000D01*
G75*
G02*
X109529000Y-84107000I225000J0D01*
G01*
X109979000Y-84107000D01*
G75*
G02*
X110204000Y-84332000I0J-225000D01*
G01*
G37*
G36*
G01*
X138615000Y-84107000D02*
X138615000Y-85057000D01*
G75*
G02*
X138365000Y-85307000I-250000J0D01*
G01*
X137865000Y-85307000D01*
G75*
G02*
X137615000Y-85057000I0J250000D01*
G01*
X137615000Y-84107000D01*
G75*
G02*
X137865000Y-83857000I250000J0D01*
G01*
X138365000Y-83857000D01*
G75*
G02*
X138615000Y-84107000I0J-250000D01*
G01*
G37*
G36*
G01*
X140515000Y-84107000D02*
X140515000Y-85057000D01*
G75*
G02*
X140265000Y-85307000I-250000J0D01*
G01*
X139765000Y-85307000D01*
G75*
G02*
X139515000Y-85057000I0J250000D01*
G01*
X139515000Y-84107000D01*
G75*
G02*
X139765000Y-83857000I250000J0D01*
G01*
X140265000Y-83857000D01*
G75*
G02*
X140515000Y-84107000I0J-250000D01*
G01*
G37*
G36*
G01*
X121597000Y-88134000D02*
X121597000Y-87634000D01*
G75*
G02*
X121822000Y-87409000I225000J0D01*
G01*
X122272000Y-87409000D01*
G75*
G02*
X122497000Y-87634000I0J-225000D01*
G01*
X122497000Y-88134000D01*
G75*
G02*
X122272000Y-88359000I-225000J0D01*
G01*
X121822000Y-88359000D01*
G75*
G02*
X121597000Y-88134000I0J225000D01*
G01*
G37*
G36*
G01*
X120047000Y-88134000D02*
X120047000Y-87634000D01*
G75*
G02*
X120272000Y-87409000I225000J0D01*
G01*
X120722000Y-87409000D01*
G75*
G02*
X120947000Y-87634000I0J-225000D01*
G01*
X120947000Y-88134000D01*
G75*
G02*
X120722000Y-88359000I-225000J0D01*
G01*
X120272000Y-88359000D01*
G75*
G02*
X120047000Y-88134000I0J225000D01*
G01*
G37*
G36*
G01*
X128770000Y-84107000D02*
X128770000Y-85057000D01*
G75*
G02*
X128520000Y-85307000I-250000J0D01*
G01*
X128020000Y-85307000D01*
G75*
G02*
X127770000Y-85057000I0J250000D01*
G01*
X127770000Y-84107000D01*
G75*
G02*
X128020000Y-83857000I250000J0D01*
G01*
X128520000Y-83857000D01*
G75*
G02*
X128770000Y-84107000I0J-250000D01*
G01*
G37*
G36*
G01*
X130670000Y-84107000D02*
X130670000Y-85057000D01*
G75*
G02*
X130420000Y-85307000I-250000J0D01*
G01*
X129920000Y-85307000D01*
G75*
G02*
X129670000Y-85057000I0J250000D01*
G01*
X129670000Y-84107000D01*
G75*
G02*
X129920000Y-83857000I250000J0D01*
G01*
X130420000Y-83857000D01*
G75*
G02*
X130670000Y-84107000I0J-250000D01*
G01*
G37*
G36*
G01*
X113200000Y-87634000D02*
X113200000Y-88134000D01*
G75*
G02*
X112975000Y-88359000I-225000J0D01*
G01*
X112525000Y-88359000D01*
G75*
G02*
X112300000Y-88134000I0J225000D01*
G01*
X112300000Y-87634000D01*
G75*
G02*
X112525000Y-87409000I225000J0D01*
G01*
X112975000Y-87409000D01*
G75*
G02*
X113200000Y-87634000I0J-225000D01*
G01*
G37*
G36*
G01*
X114750000Y-87634000D02*
X114750000Y-88134000D01*
G75*
G02*
X114525000Y-88359000I-225000J0D01*
G01*
X114075000Y-88359000D01*
G75*
G02*
X113850000Y-88134000I0J225000D01*
G01*
X113850000Y-87634000D01*
G75*
G02*
X114075000Y-87409000I225000J0D01*
G01*
X114525000Y-87409000D01*
G75*
G02*
X114750000Y-87634000I0J-225000D01*
G01*
G37*
G36*
G01*
X139189000Y-71534000D02*
X139189000Y-72484000D01*
G75*
G02*
X138939000Y-72734000I-250000J0D01*
G01*
X138439000Y-72734000D01*
G75*
G02*
X138189000Y-72484000I0J250000D01*
G01*
X138189000Y-71534000D01*
G75*
G02*
X138439000Y-71284000I250000J0D01*
G01*
X138939000Y-71284000D01*
G75*
G02*
X139189000Y-71534000I0J-250000D01*
G01*
G37*
G36*
G01*
X141089000Y-71534000D02*
X141089000Y-72484000D01*
G75*
G02*
X140839000Y-72734000I-250000J0D01*
G01*
X140339000Y-72734000D01*
G75*
G02*
X140089000Y-72484000I0J250000D01*
G01*
X140089000Y-71534000D01*
G75*
G02*
X140339000Y-71284000I250000J0D01*
G01*
X140839000Y-71284000D01*
G75*
G02*
X141089000Y-71534000I0J-250000D01*
G01*
G37*
G36*
G01*
X121623000Y-68830000D02*
X121623000Y-68330000D01*
G75*
G02*
X121848000Y-68105000I225000J0D01*
G01*
X122298000Y-68105000D01*
G75*
G02*
X122523000Y-68330000I0J-225000D01*
G01*
X122523000Y-68830000D01*
G75*
G02*
X122298000Y-69055000I-225000J0D01*
G01*
X121848000Y-69055000D01*
G75*
G02*
X121623000Y-68830000I0J225000D01*
G01*
G37*
G36*
G01*
X120073000Y-68830000D02*
X120073000Y-68330000D01*
G75*
G02*
X120298000Y-68105000I225000J0D01*
G01*
X120748000Y-68105000D01*
G75*
G02*
X120973000Y-68330000I0J-225000D01*
G01*
X120973000Y-68830000D01*
G75*
G02*
X120748000Y-69055000I-225000J0D01*
G01*
X120298000Y-69055000D01*
G75*
G02*
X120073000Y-68830000I0J225000D01*
G01*
G37*
G36*
G01*
X129786000Y-71534000D02*
X129786000Y-72484000D01*
G75*
G02*
X129536000Y-72734000I-250000J0D01*
G01*
X129036000Y-72734000D01*
G75*
G02*
X128786000Y-72484000I0J250000D01*
G01*
X128786000Y-71534000D01*
G75*
G02*
X129036000Y-71284000I250000J0D01*
G01*
X129536000Y-71284000D01*
G75*
G02*
X129786000Y-71534000I0J-250000D01*
G01*
G37*
G36*
G01*
X131686000Y-71534000D02*
X131686000Y-72484000D01*
G75*
G02*
X131436000Y-72734000I-250000J0D01*
G01*
X130936000Y-72734000D01*
G75*
G02*
X130686000Y-72484000I0J250000D01*
G01*
X130686000Y-71534000D01*
G75*
G02*
X130936000Y-71284000I250000J0D01*
G01*
X131436000Y-71284000D01*
G75*
G02*
X131686000Y-71534000I0J-250000D01*
G01*
G37*
G36*
G01*
X113200000Y-68330000D02*
X113200000Y-68830000D01*
G75*
G02*
X112975000Y-69055000I-225000J0D01*
G01*
X112525000Y-69055000D01*
G75*
G02*
X112300000Y-68830000I0J225000D01*
G01*
X112300000Y-68330000D01*
G75*
G02*
X112525000Y-68105000I225000J0D01*
G01*
X112975000Y-68105000D01*
G75*
G02*
X113200000Y-68330000I0J-225000D01*
G01*
G37*
G36*
G01*
X114750000Y-68330000D02*
X114750000Y-68830000D01*
G75*
G02*
X114525000Y-69055000I-225000J0D01*
G01*
X114075000Y-69055000D01*
G75*
G02*
X113850000Y-68830000I0J225000D01*
G01*
X113850000Y-68330000D01*
G75*
G02*
X114075000Y-68105000I225000J0D01*
G01*
X114525000Y-68105000D01*
G75*
G02*
X114750000Y-68330000I0J-225000D01*
G01*
G37*
M02*
