M48
; DRILL file {KiCad 5.1.10-88a1d61d58~90~ubuntu20.04.1} date Mon Sep  6 13:30:36 2021
; FORMAT={-:-/ absolute / metric / decimal}
; #@! TF.CreationDate,2021-09-06T13:30:36-04:00
; #@! TF.GenerationSoftware,Kicad,Pcbnew,5.1.10-88a1d61d58~90~ubuntu20.04.1
; #@! TF.FileFunction,Plated,1,4,PTH
FMAT,2
METRIC
T1C0.400
T2C0.800
T3C1.000
%
G90
G05
T1
X99.695Y-82.296
X100.965Y-73.914
X102.235Y-73.533
X107.442Y-75.819
X107.442Y-80.391
X110.744Y-84.582
X111.366Y-77.356
X111.379Y-80.518
X111.506Y-75.692
X111.76Y-74.295
X115.316Y-73.66
X115.57Y-68.58
X115.57Y-87.884
X115.824Y-83.693
X116.586Y-73.787
X116.586Y-82.55
X117.856Y-73.787
X117.856Y-82.423
X118.999Y-108.077
X119.253Y-68.58
X119.253Y-87.884
X120.269Y-99.187
X120.269Y-108.458
X123.698Y-80.391
X123.825Y-75.819
X124.587Y-89.027
X125.222Y-101.346
X125.222Y-105.918
X126.746Y-85.344
X127.381Y-82.296
X127.635Y-72.517
X127.889Y-102.87
X127.889Y-106.045
X128.651Y-73.533
X128.778Y-99.06
X129.032Y-94.488
X130.099Y-99.238
X131.445Y-114.3
X132.715Y-86.868
X132.715Y-107.95
X133.223Y-91.059
X133.35Y-80.391
X133.477Y-75.819
X133.858Y-99.441
X133.858Y-107.823
X135.128Y-99.568
X135.128Y-107.823
X136.398Y-99.314
X136.398Y-107.823
X136.652Y-84.074
X136.906Y-82.423
X137.287Y-71.374
X138.176Y-73.787
X140.208Y-114.554
X140.335Y-107.188
X140.716Y-110.744
X140.843Y-103.886
X141.478Y-82.804
X141.986Y-75.438
X142.621Y-81.788
T2
X99.06Y-106.68
X99.06Y-109.22
X99.06Y-111.76
X104.775Y-106.68
X104.775Y-109.22
X104.775Y-111.76
X110.49Y-106.68
X110.49Y-109.22
X110.49Y-111.76
T3
X93.98Y-68.58
X93.98Y-71.12
X93.98Y-73.66
X93.98Y-76.2
X93.98Y-106.68
X93.98Y-109.22
X93.98Y-111.76
X93.98Y-114.3
X147.32Y-68.58
X147.32Y-71.12
X147.32Y-73.66
X147.32Y-76.2
X147.32Y-96.52
X147.32Y-99.06
X147.32Y-101.6
X147.32Y-104.14
X147.32Y-106.68
X147.32Y-109.22
X147.32Y-111.76
X147.32Y-114.3
T0
M30
