G04 #@! TF.GenerationSoftware,KiCad,Pcbnew,5.1.10-88a1d61d58~90~ubuntu20.04.1*
G04 #@! TF.CreationDate,2021-09-06T13:30:35-04:00*
G04 #@! TF.ProjectId,four_pole_lpf,666f7572-5f70-46f6-9c65-5f6c70662e6b,0.1*
G04 #@! TF.SameCoordinates,Original*
G04 #@! TF.FileFunction,Copper,L3,Inr*
G04 #@! TF.FilePolarity,Positive*
%FSLAX46Y46*%
G04 Gerber Fmt 4.6, Leading zero omitted, Abs format (unit mm)*
G04 Created by KiCad (PCBNEW 5.1.10-88a1d61d58~90~ubuntu20.04.1) date 2021-09-06 13:30:35*
%MOMM*%
%LPD*%
G01*
G04 APERTURE LIST*
G04 #@! TA.AperFunction,ComponentPad*
%ADD10C,1.440000*%
G04 #@! TD*
G04 #@! TA.AperFunction,ComponentPad*
%ADD11O,1.700000X1.700000*%
G04 #@! TD*
G04 #@! TA.AperFunction,ComponentPad*
%ADD12R,1.700000X1.700000*%
G04 #@! TD*
G04 #@! TA.AperFunction,ViaPad*
%ADD13C,0.800000*%
G04 #@! TD*
G04 #@! TA.AperFunction,Conductor*
%ADD14C,0.254000*%
G04 #@! TD*
G04 #@! TA.AperFunction,Conductor*
%ADD15C,0.100000*%
G04 #@! TD*
G04 APERTURE END LIST*
D10*
X110490000Y-106680000D03*
X110490000Y-109220000D03*
X110490000Y-111760000D03*
X104775000Y-106680000D03*
X104775000Y-109220000D03*
X104775000Y-111760000D03*
X99060000Y-106680000D03*
X99060000Y-109220000D03*
X99060000Y-111760000D03*
D11*
X147320000Y-114300000D03*
X147320000Y-111760000D03*
X147320000Y-109220000D03*
X147320000Y-106680000D03*
X147320000Y-104140000D03*
X147320000Y-101600000D03*
X147320000Y-99060000D03*
D12*
X147320000Y-96520000D03*
D11*
X147320000Y-76200000D03*
X147320000Y-73660000D03*
X147320000Y-71120000D03*
D12*
X147320000Y-68580000D03*
D11*
X93980000Y-114300000D03*
X93980000Y-111760000D03*
X93980000Y-109220000D03*
D12*
X93980000Y-106680000D03*
D11*
X93980000Y-76200000D03*
X93980000Y-73660000D03*
X93980000Y-71120000D03*
D12*
X93980000Y-68580000D03*
D13*
X141478000Y-82804000D03*
X115570000Y-68580000D03*
X119253000Y-68580000D03*
X111506000Y-75692000D03*
X111760000Y-74295000D03*
X107442000Y-75819000D03*
X107442000Y-80391000D03*
X100965000Y-73914000D03*
X99695000Y-82296000D03*
X123825000Y-75819000D03*
X123698000Y-80391000D03*
X127381000Y-82296000D03*
X138176000Y-73787000D03*
X133477000Y-75819000D03*
X133350000Y-80391000D03*
X136906000Y-82423000D03*
X115570000Y-87884000D03*
X119253000Y-87884000D03*
X118999000Y-108077000D03*
X125222000Y-105918000D03*
X125222000Y-101346000D03*
X140843000Y-103886000D03*
X140335000Y-107188000D03*
X140716000Y-110744000D03*
X140208000Y-114554000D03*
X131445000Y-114300000D03*
X129032000Y-94488000D03*
X128651000Y-73532988D03*
X120269000Y-99186996D03*
X128778000Y-99060000D03*
X111379000Y-80518000D03*
X111366000Y-77356000D03*
X127889000Y-106045000D03*
X127889000Y-102870000D03*
X127635000Y-72517000D03*
X116586000Y-73787000D03*
X117856000Y-73787000D03*
X137287000Y-71374000D03*
X141986000Y-75438000D03*
X124587000Y-89027000D03*
X116586000Y-82550000D03*
X126746000Y-85344000D03*
X133223000Y-91059000D03*
X132715000Y-86868000D03*
X117856000Y-82423000D03*
X136652000Y-84074000D03*
X142621000Y-81788000D03*
X110744000Y-84582000D03*
X115824000Y-83693000D03*
X115316000Y-73660000D03*
X133858000Y-107823000D03*
X102235000Y-73533000D03*
X133858000Y-99440998D03*
X132715000Y-107950000D03*
X120269000Y-108458000D03*
X135128000Y-107823000D03*
X135127997Y-99567997D03*
X136398000Y-107823000D03*
X136398000Y-99314000D03*
X130099000Y-99238000D03*
D14*
X149200000Y-116180000D02*
X92100000Y-116180000D01*
X92100000Y-111613740D01*
X92495000Y-111613740D01*
X92495000Y-111906260D01*
X92552068Y-112193158D01*
X92664010Y-112463411D01*
X92826525Y-112706632D01*
X93033368Y-112913475D01*
X93207760Y-113030000D01*
X93033368Y-113146525D01*
X92826525Y-113353368D01*
X92664010Y-113596589D01*
X92552068Y-113866842D01*
X92495000Y-114153740D01*
X92495000Y-114446260D01*
X92552068Y-114733158D01*
X92664010Y-115003411D01*
X92826525Y-115246632D01*
X93033368Y-115453475D01*
X93276589Y-115615990D01*
X93546842Y-115727932D01*
X93833740Y-115785000D01*
X94126260Y-115785000D01*
X94413158Y-115727932D01*
X94683411Y-115615990D01*
X94926632Y-115453475D01*
X95133475Y-115246632D01*
X95295990Y-115003411D01*
X95407932Y-114733158D01*
X95465000Y-114446260D01*
X95465000Y-114153740D01*
X95407932Y-113866842D01*
X95295990Y-113596589D01*
X95133475Y-113353368D01*
X94926632Y-113146525D01*
X94752240Y-113030000D01*
X94926632Y-112913475D01*
X95133475Y-112706632D01*
X95140873Y-112695560D01*
X98304045Y-112695560D01*
X98365932Y-112931368D01*
X98607790Y-113044266D01*
X98867027Y-113107811D01*
X99133680Y-113119561D01*
X99397501Y-113079063D01*
X99648353Y-112987875D01*
X99754068Y-112931368D01*
X99815955Y-112695560D01*
X99060000Y-111939605D01*
X98304045Y-112695560D01*
X95140873Y-112695560D01*
X95295990Y-112463411D01*
X95407932Y-112193158D01*
X95465000Y-111906260D01*
X95465000Y-111833680D01*
X97700439Y-111833680D01*
X97740937Y-112097501D01*
X97832125Y-112348353D01*
X97888632Y-112454068D01*
X98124440Y-112515955D01*
X98880395Y-111760000D01*
X99239605Y-111760000D01*
X99995560Y-112515955D01*
X100231368Y-112454068D01*
X100344266Y-112212210D01*
X100407811Y-111952973D01*
X100419561Y-111686320D01*
X100379063Y-111422499D01*
X100287875Y-111171647D01*
X100231368Y-111065932D01*
X99995560Y-111004045D01*
X99239605Y-111760000D01*
X98880395Y-111760000D01*
X98124440Y-111004045D01*
X97888632Y-111065932D01*
X97775734Y-111307790D01*
X97712189Y-111567027D01*
X97700439Y-111833680D01*
X95465000Y-111833680D01*
X95465000Y-111613740D01*
X95407932Y-111326842D01*
X95295990Y-111056589D01*
X95133475Y-110813368D01*
X94926632Y-110606525D01*
X94744466Y-110484805D01*
X94861355Y-110415178D01*
X95077588Y-110220269D01*
X95251641Y-109986920D01*
X95376825Y-109724099D01*
X95421476Y-109576890D01*
X95300155Y-109347000D01*
X94107000Y-109347000D01*
X94107000Y-109367000D01*
X93853000Y-109367000D01*
X93853000Y-109347000D01*
X92659845Y-109347000D01*
X92538524Y-109576890D01*
X92583175Y-109724099D01*
X92708359Y-109986920D01*
X92882412Y-110220269D01*
X93098645Y-110415178D01*
X93215534Y-110484805D01*
X93033368Y-110606525D01*
X92826525Y-110813368D01*
X92664010Y-111056589D01*
X92552068Y-111326842D01*
X92495000Y-111613740D01*
X92100000Y-111613740D01*
X92100000Y-107530000D01*
X92491928Y-107530000D01*
X92504188Y-107654482D01*
X92540498Y-107774180D01*
X92599463Y-107884494D01*
X92678815Y-107981185D01*
X92775506Y-108060537D01*
X92885820Y-108119502D01*
X92966466Y-108143966D01*
X92882412Y-108219731D01*
X92708359Y-108453080D01*
X92583175Y-108715901D01*
X92538524Y-108863110D01*
X92659845Y-109093000D01*
X93853000Y-109093000D01*
X93853000Y-106807000D01*
X94107000Y-106807000D01*
X94107000Y-109093000D01*
X95300155Y-109093000D01*
X95421476Y-108863110D01*
X95376825Y-108715901D01*
X95251641Y-108453080D01*
X95077588Y-108219731D01*
X94993534Y-108143966D01*
X95074180Y-108119502D01*
X95184494Y-108060537D01*
X95281185Y-107981185D01*
X95360537Y-107884494D01*
X95419502Y-107774180D01*
X95455812Y-107654482D01*
X95468072Y-107530000D01*
X95465000Y-106965750D01*
X95306250Y-106807000D01*
X94107000Y-106807000D01*
X93853000Y-106807000D01*
X92653750Y-106807000D01*
X92495000Y-106965750D01*
X92491928Y-107530000D01*
X92100000Y-107530000D01*
X92100000Y-105830000D01*
X92491928Y-105830000D01*
X92495000Y-106394250D01*
X92653750Y-106553000D01*
X93853000Y-106553000D01*
X93853000Y-105353750D01*
X94107000Y-105353750D01*
X94107000Y-106553000D01*
X95306250Y-106553000D01*
X95312706Y-106546544D01*
X97705000Y-106546544D01*
X97705000Y-106813456D01*
X97757072Y-107075239D01*
X97859215Y-107321833D01*
X98007503Y-107543762D01*
X98196238Y-107732497D01*
X98418167Y-107880785D01*
X98585266Y-107950000D01*
X98418167Y-108019215D01*
X98196238Y-108167503D01*
X98007503Y-108356238D01*
X97859215Y-108578167D01*
X97757072Y-108824761D01*
X97705000Y-109086544D01*
X97705000Y-109353456D01*
X97757072Y-109615239D01*
X97859215Y-109861833D01*
X98007503Y-110083762D01*
X98196238Y-110272497D01*
X98418167Y-110420785D01*
X98586324Y-110490438D01*
X98471647Y-110532125D01*
X98365932Y-110588632D01*
X98304045Y-110824440D01*
X99060000Y-111580395D01*
X99815955Y-110824440D01*
X99754068Y-110588632D01*
X99538993Y-110488236D01*
X99701833Y-110420785D01*
X99923762Y-110272497D01*
X100112497Y-110083762D01*
X100260785Y-109861833D01*
X100362928Y-109615239D01*
X100415000Y-109353456D01*
X100415000Y-109086544D01*
X103420000Y-109086544D01*
X103420000Y-109353456D01*
X103472072Y-109615239D01*
X103574215Y-109861833D01*
X103722503Y-110083762D01*
X103911238Y-110272497D01*
X104133167Y-110420785D01*
X104300266Y-110490000D01*
X104133167Y-110559215D01*
X103911238Y-110707503D01*
X103722503Y-110896238D01*
X103574215Y-111118167D01*
X103472072Y-111364761D01*
X103420000Y-111626544D01*
X103420000Y-111893456D01*
X103472072Y-112155239D01*
X103574215Y-112401833D01*
X103722503Y-112623762D01*
X103911238Y-112812497D01*
X104133167Y-112960785D01*
X104379761Y-113062928D01*
X104641544Y-113115000D01*
X104908456Y-113115000D01*
X105170239Y-113062928D01*
X105416833Y-112960785D01*
X105638762Y-112812497D01*
X105755699Y-112695560D01*
X109734045Y-112695560D01*
X109795932Y-112931368D01*
X110037790Y-113044266D01*
X110297027Y-113107811D01*
X110563680Y-113119561D01*
X110827501Y-113079063D01*
X111078353Y-112987875D01*
X111184068Y-112931368D01*
X111245955Y-112695560D01*
X110490000Y-111939605D01*
X109734045Y-112695560D01*
X105755699Y-112695560D01*
X105827497Y-112623762D01*
X105975785Y-112401833D01*
X106077928Y-112155239D01*
X106130000Y-111893456D01*
X106130000Y-111833680D01*
X109130439Y-111833680D01*
X109170937Y-112097501D01*
X109262125Y-112348353D01*
X109318632Y-112454068D01*
X109554440Y-112515955D01*
X110310395Y-111760000D01*
X110669605Y-111760000D01*
X111425560Y-112515955D01*
X111661368Y-112454068D01*
X111774266Y-112212210D01*
X111837811Y-111952973D01*
X111849561Y-111686320D01*
X111809063Y-111422499D01*
X111717875Y-111171647D01*
X111661368Y-111065932D01*
X111425560Y-111004045D01*
X110669605Y-111760000D01*
X110310395Y-111760000D01*
X109554440Y-111004045D01*
X109318632Y-111065932D01*
X109205734Y-111307790D01*
X109142189Y-111567027D01*
X109130439Y-111833680D01*
X106130000Y-111833680D01*
X106130000Y-111626544D01*
X106077928Y-111364761D01*
X105975785Y-111118167D01*
X105827497Y-110896238D01*
X105638762Y-110707503D01*
X105416833Y-110559215D01*
X105249734Y-110490000D01*
X105416833Y-110420785D01*
X105638762Y-110272497D01*
X105827497Y-110083762D01*
X105975785Y-109861833D01*
X106077928Y-109615239D01*
X106130000Y-109353456D01*
X106130000Y-109086544D01*
X106077928Y-108824761D01*
X105975785Y-108578167D01*
X105827497Y-108356238D01*
X105638762Y-108167503D01*
X105416833Y-108019215D01*
X105248676Y-107949562D01*
X105363353Y-107907875D01*
X105469068Y-107851368D01*
X105530955Y-107615560D01*
X104775000Y-106859605D01*
X104019045Y-107615560D01*
X104080932Y-107851368D01*
X104296007Y-107951764D01*
X104133167Y-108019215D01*
X103911238Y-108167503D01*
X103722503Y-108356238D01*
X103574215Y-108578167D01*
X103472072Y-108824761D01*
X103420000Y-109086544D01*
X100415000Y-109086544D01*
X100362928Y-108824761D01*
X100260785Y-108578167D01*
X100112497Y-108356238D01*
X99923762Y-108167503D01*
X99701833Y-108019215D01*
X99534734Y-107950000D01*
X99701833Y-107880785D01*
X99923762Y-107732497D01*
X100112497Y-107543762D01*
X100260785Y-107321833D01*
X100362928Y-107075239D01*
X100415000Y-106813456D01*
X100415000Y-106753680D01*
X103415439Y-106753680D01*
X103455937Y-107017501D01*
X103547125Y-107268353D01*
X103603632Y-107374068D01*
X103839440Y-107435955D01*
X104595395Y-106680000D01*
X104954605Y-106680000D01*
X105710560Y-107435955D01*
X105946368Y-107374068D01*
X106059266Y-107132210D01*
X106122811Y-106872973D01*
X106134561Y-106606320D01*
X106125386Y-106546544D01*
X109135000Y-106546544D01*
X109135000Y-106813456D01*
X109187072Y-107075239D01*
X109289215Y-107321833D01*
X109437503Y-107543762D01*
X109626238Y-107732497D01*
X109848167Y-107880785D01*
X110015266Y-107950000D01*
X109848167Y-108019215D01*
X109626238Y-108167503D01*
X109437503Y-108356238D01*
X109289215Y-108578167D01*
X109187072Y-108824761D01*
X109135000Y-109086544D01*
X109135000Y-109353456D01*
X109187072Y-109615239D01*
X109289215Y-109861833D01*
X109437503Y-110083762D01*
X109626238Y-110272497D01*
X109848167Y-110420785D01*
X110016324Y-110490438D01*
X109901647Y-110532125D01*
X109795932Y-110588632D01*
X109734045Y-110824440D01*
X110490000Y-111580395D01*
X111245955Y-110824440D01*
X111184068Y-110588632D01*
X110968993Y-110488236D01*
X111131833Y-110420785D01*
X111353762Y-110272497D01*
X111542497Y-110083762D01*
X111690785Y-109861833D01*
X111792928Y-109615239D01*
X111845000Y-109353456D01*
X111845000Y-109086544D01*
X111792928Y-108824761D01*
X111690785Y-108578167D01*
X111542497Y-108356238D01*
X111542320Y-108356061D01*
X119234000Y-108356061D01*
X119234000Y-108559939D01*
X119273774Y-108759898D01*
X119351795Y-108948256D01*
X119465063Y-109117774D01*
X119609226Y-109261937D01*
X119778744Y-109375205D01*
X119967102Y-109453226D01*
X120167061Y-109493000D01*
X120370939Y-109493000D01*
X120570898Y-109453226D01*
X120759256Y-109375205D01*
X120928774Y-109261937D01*
X121072937Y-109117774D01*
X121186205Y-108948256D01*
X121264226Y-108759898D01*
X121304000Y-108559939D01*
X121304000Y-108356061D01*
X121264226Y-108156102D01*
X121186205Y-107967744D01*
X121106236Y-107848061D01*
X131680000Y-107848061D01*
X131680000Y-108051939D01*
X131719774Y-108251898D01*
X131797795Y-108440256D01*
X131911063Y-108609774D01*
X132055226Y-108753937D01*
X132224744Y-108867205D01*
X132413102Y-108945226D01*
X132613061Y-108985000D01*
X132816939Y-108985000D01*
X133016898Y-108945226D01*
X133205256Y-108867205D01*
X133374774Y-108753937D01*
X133382425Y-108746286D01*
X133556102Y-108818226D01*
X133756061Y-108858000D01*
X133959939Y-108858000D01*
X134159898Y-108818226D01*
X134348256Y-108740205D01*
X134493000Y-108643490D01*
X134637744Y-108740205D01*
X134826102Y-108818226D01*
X135026061Y-108858000D01*
X135229939Y-108858000D01*
X135429898Y-108818226D01*
X135618256Y-108740205D01*
X135763000Y-108643490D01*
X135907744Y-108740205D01*
X136096102Y-108818226D01*
X136296061Y-108858000D01*
X136499939Y-108858000D01*
X136699898Y-108818226D01*
X136888256Y-108740205D01*
X137057774Y-108626937D01*
X137201937Y-108482774D01*
X137315205Y-108313256D01*
X137393226Y-108124898D01*
X137433000Y-107924939D01*
X137433000Y-107721061D01*
X137393226Y-107521102D01*
X137315205Y-107332744D01*
X137201937Y-107163226D01*
X137057774Y-107019063D01*
X136888256Y-106905795D01*
X136699898Y-106827774D01*
X136499939Y-106788000D01*
X136296061Y-106788000D01*
X136096102Y-106827774D01*
X135907744Y-106905795D01*
X135763000Y-107002510D01*
X135618256Y-106905795D01*
X135429898Y-106827774D01*
X135229939Y-106788000D01*
X135026061Y-106788000D01*
X134826102Y-106827774D01*
X134637744Y-106905795D01*
X134493000Y-107002510D01*
X134348256Y-106905795D01*
X134159898Y-106827774D01*
X133959939Y-106788000D01*
X133756061Y-106788000D01*
X133556102Y-106827774D01*
X133367744Y-106905795D01*
X133198226Y-107019063D01*
X133190575Y-107026714D01*
X133016898Y-106954774D01*
X132816939Y-106915000D01*
X132613061Y-106915000D01*
X132413102Y-106954774D01*
X132224744Y-107032795D01*
X132055226Y-107146063D01*
X131911063Y-107290226D01*
X131797795Y-107459744D01*
X131719774Y-107648102D01*
X131680000Y-107848061D01*
X121106236Y-107848061D01*
X121072937Y-107798226D01*
X120928774Y-107654063D01*
X120759256Y-107540795D01*
X120570898Y-107462774D01*
X120370939Y-107423000D01*
X120167061Y-107423000D01*
X119967102Y-107462774D01*
X119778744Y-107540795D01*
X119609226Y-107654063D01*
X119465063Y-107798226D01*
X119351795Y-107967744D01*
X119273774Y-108156102D01*
X119234000Y-108356061D01*
X111542320Y-108356061D01*
X111353762Y-108167503D01*
X111131833Y-108019215D01*
X110964734Y-107950000D01*
X111131833Y-107880785D01*
X111353762Y-107732497D01*
X111542497Y-107543762D01*
X111690785Y-107321833D01*
X111792928Y-107075239D01*
X111845000Y-106813456D01*
X111845000Y-106546544D01*
X111792928Y-106284761D01*
X111690785Y-106038167D01*
X111627238Y-105943061D01*
X126854000Y-105943061D01*
X126854000Y-106146939D01*
X126893774Y-106346898D01*
X126971795Y-106535256D01*
X127085063Y-106704774D01*
X127229226Y-106848937D01*
X127398744Y-106962205D01*
X127587102Y-107040226D01*
X127787061Y-107080000D01*
X127990939Y-107080000D01*
X128190898Y-107040226D01*
X128379256Y-106962205D01*
X128548774Y-106848937D01*
X128692937Y-106704774D01*
X128806205Y-106535256D01*
X128884226Y-106346898D01*
X128924000Y-106146939D01*
X128924000Y-105943061D01*
X128884226Y-105743102D01*
X128806205Y-105554744D01*
X128692937Y-105385226D01*
X128548774Y-105241063D01*
X128379256Y-105127795D01*
X128190898Y-105049774D01*
X127990939Y-105010000D01*
X127787061Y-105010000D01*
X127587102Y-105049774D01*
X127398744Y-105127795D01*
X127229226Y-105241063D01*
X127085063Y-105385226D01*
X126971795Y-105554744D01*
X126893774Y-105743102D01*
X126854000Y-105943061D01*
X111627238Y-105943061D01*
X111542497Y-105816238D01*
X111353762Y-105627503D01*
X111131833Y-105479215D01*
X110885239Y-105377072D01*
X110623456Y-105325000D01*
X110356544Y-105325000D01*
X110094761Y-105377072D01*
X109848167Y-105479215D01*
X109626238Y-105627503D01*
X109437503Y-105816238D01*
X109289215Y-106038167D01*
X109187072Y-106284761D01*
X109135000Y-106546544D01*
X106125386Y-106546544D01*
X106094063Y-106342499D01*
X106002875Y-106091647D01*
X105946368Y-105985932D01*
X105710560Y-105924045D01*
X104954605Y-106680000D01*
X104595395Y-106680000D01*
X103839440Y-105924045D01*
X103603632Y-105985932D01*
X103490734Y-106227790D01*
X103427189Y-106487027D01*
X103415439Y-106753680D01*
X100415000Y-106753680D01*
X100415000Y-106546544D01*
X100362928Y-106284761D01*
X100260785Y-106038167D01*
X100112497Y-105816238D01*
X100040699Y-105744440D01*
X104019045Y-105744440D01*
X104775000Y-106500395D01*
X105530955Y-105744440D01*
X105469068Y-105508632D01*
X105227210Y-105395734D01*
X104967973Y-105332189D01*
X104701320Y-105320439D01*
X104437499Y-105360937D01*
X104186647Y-105452125D01*
X104080932Y-105508632D01*
X104019045Y-105744440D01*
X100040699Y-105744440D01*
X99923762Y-105627503D01*
X99701833Y-105479215D01*
X99455239Y-105377072D01*
X99193456Y-105325000D01*
X98926544Y-105325000D01*
X98664761Y-105377072D01*
X98418167Y-105479215D01*
X98196238Y-105627503D01*
X98007503Y-105816238D01*
X97859215Y-106038167D01*
X97757072Y-106284761D01*
X97705000Y-106546544D01*
X95312706Y-106546544D01*
X95465000Y-106394250D01*
X95468072Y-105830000D01*
X95455812Y-105705518D01*
X95419502Y-105585820D01*
X95360537Y-105475506D01*
X95281185Y-105378815D01*
X95184494Y-105299463D01*
X95074180Y-105240498D01*
X94954482Y-105204188D01*
X94830000Y-105191928D01*
X94265750Y-105195000D01*
X94107000Y-105353750D01*
X93853000Y-105353750D01*
X93694250Y-105195000D01*
X93130000Y-105191928D01*
X93005518Y-105204188D01*
X92885820Y-105240498D01*
X92775506Y-105299463D01*
X92678815Y-105378815D01*
X92599463Y-105475506D01*
X92540498Y-105585820D01*
X92504188Y-105705518D01*
X92491928Y-105830000D01*
X92100000Y-105830000D01*
X92100000Y-102768061D01*
X126854000Y-102768061D01*
X126854000Y-102971939D01*
X126893774Y-103171898D01*
X126971795Y-103360256D01*
X127085063Y-103529774D01*
X127229226Y-103673937D01*
X127398744Y-103787205D01*
X127587102Y-103865226D01*
X127787061Y-103905000D01*
X127990939Y-103905000D01*
X128190898Y-103865226D01*
X128379256Y-103787205D01*
X128548774Y-103673937D01*
X128692937Y-103529774D01*
X128806205Y-103360256D01*
X128884226Y-103171898D01*
X128924000Y-102971939D01*
X128924000Y-102768061D01*
X128884226Y-102568102D01*
X128806205Y-102379744D01*
X128692937Y-102210226D01*
X128548774Y-102066063D01*
X128379256Y-101952795D01*
X128190898Y-101874774D01*
X127990939Y-101835000D01*
X127787061Y-101835000D01*
X127587102Y-101874774D01*
X127398744Y-101952795D01*
X127229226Y-102066063D01*
X127085063Y-102210226D01*
X126971795Y-102379744D01*
X126893774Y-102568102D01*
X126854000Y-102768061D01*
X92100000Y-102768061D01*
X92100000Y-101453740D01*
X145835000Y-101453740D01*
X145835000Y-101746260D01*
X145892068Y-102033158D01*
X146004010Y-102303411D01*
X146166525Y-102546632D01*
X146373368Y-102753475D01*
X146547760Y-102870000D01*
X146373368Y-102986525D01*
X146166525Y-103193368D01*
X146004010Y-103436589D01*
X145892068Y-103706842D01*
X145835000Y-103993740D01*
X145835000Y-104286260D01*
X145892068Y-104573158D01*
X146004010Y-104843411D01*
X146166525Y-105086632D01*
X146373368Y-105293475D01*
X146547760Y-105410000D01*
X146373368Y-105526525D01*
X146166525Y-105733368D01*
X146004010Y-105976589D01*
X145892068Y-106246842D01*
X145835000Y-106533740D01*
X145835000Y-106826260D01*
X145892068Y-107113158D01*
X146004010Y-107383411D01*
X146166525Y-107626632D01*
X146373368Y-107833475D01*
X146547760Y-107950000D01*
X146373368Y-108066525D01*
X146166525Y-108273368D01*
X146004010Y-108516589D01*
X145892068Y-108786842D01*
X145835000Y-109073740D01*
X145835000Y-109366260D01*
X145892068Y-109653158D01*
X146004010Y-109923411D01*
X146166525Y-110166632D01*
X146373368Y-110373475D01*
X146547760Y-110490000D01*
X146373368Y-110606525D01*
X146166525Y-110813368D01*
X146004010Y-111056589D01*
X145892068Y-111326842D01*
X145835000Y-111613740D01*
X145835000Y-111906260D01*
X145892068Y-112193158D01*
X146004010Y-112463411D01*
X146166525Y-112706632D01*
X146373368Y-112913475D01*
X146547760Y-113030000D01*
X146373368Y-113146525D01*
X146166525Y-113353368D01*
X146004010Y-113596589D01*
X145892068Y-113866842D01*
X145835000Y-114153740D01*
X145835000Y-114446260D01*
X145892068Y-114733158D01*
X146004010Y-115003411D01*
X146166525Y-115246632D01*
X146373368Y-115453475D01*
X146616589Y-115615990D01*
X146886842Y-115727932D01*
X147173740Y-115785000D01*
X147466260Y-115785000D01*
X147753158Y-115727932D01*
X148023411Y-115615990D01*
X148266632Y-115453475D01*
X148473475Y-115246632D01*
X148635990Y-115003411D01*
X148747932Y-114733158D01*
X148805000Y-114446260D01*
X148805000Y-114153740D01*
X148747932Y-113866842D01*
X148635990Y-113596589D01*
X148473475Y-113353368D01*
X148266632Y-113146525D01*
X148092240Y-113030000D01*
X148266632Y-112913475D01*
X148473475Y-112706632D01*
X148635990Y-112463411D01*
X148747932Y-112193158D01*
X148805000Y-111906260D01*
X148805000Y-111613740D01*
X148747932Y-111326842D01*
X148635990Y-111056589D01*
X148473475Y-110813368D01*
X148266632Y-110606525D01*
X148092240Y-110490000D01*
X148266632Y-110373475D01*
X148473475Y-110166632D01*
X148635990Y-109923411D01*
X148747932Y-109653158D01*
X148805000Y-109366260D01*
X148805000Y-109073740D01*
X148747932Y-108786842D01*
X148635990Y-108516589D01*
X148473475Y-108273368D01*
X148266632Y-108066525D01*
X148092240Y-107950000D01*
X148266632Y-107833475D01*
X148473475Y-107626632D01*
X148635990Y-107383411D01*
X148747932Y-107113158D01*
X148805000Y-106826260D01*
X148805000Y-106533740D01*
X148747932Y-106246842D01*
X148635990Y-105976589D01*
X148473475Y-105733368D01*
X148266632Y-105526525D01*
X148092240Y-105410000D01*
X148266632Y-105293475D01*
X148473475Y-105086632D01*
X148635990Y-104843411D01*
X148747932Y-104573158D01*
X148805000Y-104286260D01*
X148805000Y-103993740D01*
X148747932Y-103706842D01*
X148635990Y-103436589D01*
X148473475Y-103193368D01*
X148266632Y-102986525D01*
X148092240Y-102870000D01*
X148266632Y-102753475D01*
X148473475Y-102546632D01*
X148635990Y-102303411D01*
X148747932Y-102033158D01*
X148805000Y-101746260D01*
X148805000Y-101453740D01*
X148747932Y-101166842D01*
X148635990Y-100896589D01*
X148473475Y-100653368D01*
X148266632Y-100446525D01*
X148084466Y-100324805D01*
X148201355Y-100255178D01*
X148417588Y-100060269D01*
X148591641Y-99826920D01*
X148716825Y-99564099D01*
X148761476Y-99416890D01*
X148640155Y-99187000D01*
X147447000Y-99187000D01*
X147447000Y-99207000D01*
X147193000Y-99207000D01*
X147193000Y-99187000D01*
X145999845Y-99187000D01*
X145878524Y-99416890D01*
X145923175Y-99564099D01*
X146048359Y-99826920D01*
X146222412Y-100060269D01*
X146438645Y-100255178D01*
X146555534Y-100324805D01*
X146373368Y-100446525D01*
X146166525Y-100653368D01*
X146004010Y-100896589D01*
X145892068Y-101166842D01*
X145835000Y-101453740D01*
X92100000Y-101453740D01*
X92100000Y-99136061D01*
X129064000Y-99136061D01*
X129064000Y-99339939D01*
X129103774Y-99539898D01*
X129181795Y-99728256D01*
X129295063Y-99897774D01*
X129439226Y-100041937D01*
X129608744Y-100155205D01*
X129797102Y-100233226D01*
X129997061Y-100273000D01*
X130200939Y-100273000D01*
X130400898Y-100233226D01*
X130589256Y-100155205D01*
X130758774Y-100041937D01*
X130902937Y-99897774D01*
X131016205Y-99728256D01*
X131094226Y-99539898D01*
X131134000Y-99339939D01*
X131134000Y-99339059D01*
X132823000Y-99339059D01*
X132823000Y-99542937D01*
X132862774Y-99742896D01*
X132940795Y-99931254D01*
X133054063Y-100100772D01*
X133198226Y-100244935D01*
X133367744Y-100358203D01*
X133556102Y-100436224D01*
X133756061Y-100475998D01*
X133959939Y-100475998D01*
X134159898Y-100436224D01*
X134348256Y-100358203D01*
X134411940Y-100315651D01*
X134468223Y-100371934D01*
X134637741Y-100485202D01*
X134826099Y-100563223D01*
X135026058Y-100602997D01*
X135229936Y-100602997D01*
X135429895Y-100563223D01*
X135618253Y-100485202D01*
X135787771Y-100371934D01*
X135922421Y-100237284D01*
X136096102Y-100309226D01*
X136296061Y-100349000D01*
X136499939Y-100349000D01*
X136699898Y-100309226D01*
X136888256Y-100231205D01*
X137057774Y-100117937D01*
X137201937Y-99973774D01*
X137315205Y-99804256D01*
X137393226Y-99615898D01*
X137433000Y-99415939D01*
X137433000Y-99212061D01*
X137393226Y-99012102D01*
X137315205Y-98823744D01*
X137201937Y-98654226D01*
X137057774Y-98510063D01*
X136888256Y-98396795D01*
X136699898Y-98318774D01*
X136499939Y-98279000D01*
X136296061Y-98279000D01*
X136096102Y-98318774D01*
X135907744Y-98396795D01*
X135738226Y-98510063D01*
X135603576Y-98644713D01*
X135429895Y-98572771D01*
X135229936Y-98532997D01*
X135026058Y-98532997D01*
X134826099Y-98572771D01*
X134637741Y-98650792D01*
X134574057Y-98693344D01*
X134517774Y-98637061D01*
X134348256Y-98523793D01*
X134159898Y-98445772D01*
X133959939Y-98405998D01*
X133756061Y-98405998D01*
X133556102Y-98445772D01*
X133367744Y-98523793D01*
X133198226Y-98637061D01*
X133054063Y-98781224D01*
X132940795Y-98950742D01*
X132862774Y-99139100D01*
X132823000Y-99339059D01*
X131134000Y-99339059D01*
X131134000Y-99136061D01*
X131094226Y-98936102D01*
X131016205Y-98747744D01*
X130902937Y-98578226D01*
X130758774Y-98434063D01*
X130589256Y-98320795D01*
X130400898Y-98242774D01*
X130200939Y-98203000D01*
X129997061Y-98203000D01*
X129797102Y-98242774D01*
X129608744Y-98320795D01*
X129439226Y-98434063D01*
X129295063Y-98578226D01*
X129181795Y-98747744D01*
X129103774Y-98936102D01*
X129064000Y-99136061D01*
X92100000Y-99136061D01*
X92100000Y-97370000D01*
X145831928Y-97370000D01*
X145844188Y-97494482D01*
X145880498Y-97614180D01*
X145939463Y-97724494D01*
X146018815Y-97821185D01*
X146115506Y-97900537D01*
X146225820Y-97959502D01*
X146306466Y-97983966D01*
X146222412Y-98059731D01*
X146048359Y-98293080D01*
X145923175Y-98555901D01*
X145878524Y-98703110D01*
X145999845Y-98933000D01*
X147193000Y-98933000D01*
X147193000Y-96647000D01*
X147447000Y-96647000D01*
X147447000Y-98933000D01*
X148640155Y-98933000D01*
X148761476Y-98703110D01*
X148716825Y-98555901D01*
X148591641Y-98293080D01*
X148417588Y-98059731D01*
X148333534Y-97983966D01*
X148414180Y-97959502D01*
X148524494Y-97900537D01*
X148621185Y-97821185D01*
X148700537Y-97724494D01*
X148759502Y-97614180D01*
X148795812Y-97494482D01*
X148808072Y-97370000D01*
X148805000Y-96805750D01*
X148646250Y-96647000D01*
X147447000Y-96647000D01*
X147193000Y-96647000D01*
X145993750Y-96647000D01*
X145835000Y-96805750D01*
X145831928Y-97370000D01*
X92100000Y-97370000D01*
X92100000Y-95670000D01*
X145831928Y-95670000D01*
X145835000Y-96234250D01*
X145993750Y-96393000D01*
X147193000Y-96393000D01*
X147193000Y-95193750D01*
X147447000Y-95193750D01*
X147447000Y-96393000D01*
X148646250Y-96393000D01*
X148805000Y-96234250D01*
X148808072Y-95670000D01*
X148795812Y-95545518D01*
X148759502Y-95425820D01*
X148700537Y-95315506D01*
X148621185Y-95218815D01*
X148524494Y-95139463D01*
X148414180Y-95080498D01*
X148294482Y-95044188D01*
X148170000Y-95031928D01*
X147605750Y-95035000D01*
X147447000Y-95193750D01*
X147193000Y-95193750D01*
X147034250Y-95035000D01*
X146470000Y-95031928D01*
X146345518Y-95044188D01*
X146225820Y-95080498D01*
X146115506Y-95139463D01*
X146018815Y-95218815D01*
X145939463Y-95315506D01*
X145880498Y-95425820D01*
X145844188Y-95545518D01*
X145831928Y-95670000D01*
X92100000Y-95670000D01*
X92100000Y-90957061D01*
X132188000Y-90957061D01*
X132188000Y-91160939D01*
X132227774Y-91360898D01*
X132305795Y-91549256D01*
X132419063Y-91718774D01*
X132563226Y-91862937D01*
X132732744Y-91976205D01*
X132921102Y-92054226D01*
X133121061Y-92094000D01*
X133324939Y-92094000D01*
X133524898Y-92054226D01*
X133713256Y-91976205D01*
X133882774Y-91862937D01*
X134026937Y-91718774D01*
X134140205Y-91549256D01*
X134218226Y-91360898D01*
X134258000Y-91160939D01*
X134258000Y-90957061D01*
X134218226Y-90757102D01*
X134140205Y-90568744D01*
X134026937Y-90399226D01*
X133882774Y-90255063D01*
X133713256Y-90141795D01*
X133524898Y-90063774D01*
X133324939Y-90024000D01*
X133121061Y-90024000D01*
X132921102Y-90063774D01*
X132732744Y-90141795D01*
X132563226Y-90255063D01*
X132419063Y-90399226D01*
X132305795Y-90568744D01*
X132227774Y-90757102D01*
X132188000Y-90957061D01*
X92100000Y-90957061D01*
X92100000Y-88925061D01*
X123552000Y-88925061D01*
X123552000Y-89128939D01*
X123591774Y-89328898D01*
X123669795Y-89517256D01*
X123783063Y-89686774D01*
X123927226Y-89830937D01*
X124096744Y-89944205D01*
X124285102Y-90022226D01*
X124485061Y-90062000D01*
X124688939Y-90062000D01*
X124888898Y-90022226D01*
X125077256Y-89944205D01*
X125246774Y-89830937D01*
X125390937Y-89686774D01*
X125504205Y-89517256D01*
X125582226Y-89328898D01*
X125622000Y-89128939D01*
X125622000Y-88925061D01*
X125582226Y-88725102D01*
X125504205Y-88536744D01*
X125390937Y-88367226D01*
X125246774Y-88223063D01*
X125077256Y-88109795D01*
X124888898Y-88031774D01*
X124688939Y-87992000D01*
X124485061Y-87992000D01*
X124285102Y-88031774D01*
X124096744Y-88109795D01*
X123927226Y-88223063D01*
X123783063Y-88367226D01*
X123669795Y-88536744D01*
X123591774Y-88725102D01*
X123552000Y-88925061D01*
X92100000Y-88925061D01*
X92100000Y-86766061D01*
X131680000Y-86766061D01*
X131680000Y-86969939D01*
X131719774Y-87169898D01*
X131797795Y-87358256D01*
X131911063Y-87527774D01*
X132055226Y-87671937D01*
X132224744Y-87785205D01*
X132413102Y-87863226D01*
X132613061Y-87903000D01*
X132816939Y-87903000D01*
X133016898Y-87863226D01*
X133205256Y-87785205D01*
X133374774Y-87671937D01*
X133518937Y-87527774D01*
X133632205Y-87358256D01*
X133710226Y-87169898D01*
X133750000Y-86969939D01*
X133750000Y-86766061D01*
X133710226Y-86566102D01*
X133632205Y-86377744D01*
X133518937Y-86208226D01*
X133374774Y-86064063D01*
X133205256Y-85950795D01*
X133016898Y-85872774D01*
X132816939Y-85833000D01*
X132613061Y-85833000D01*
X132413102Y-85872774D01*
X132224744Y-85950795D01*
X132055226Y-86064063D01*
X131911063Y-86208226D01*
X131797795Y-86377744D01*
X131719774Y-86566102D01*
X131680000Y-86766061D01*
X92100000Y-86766061D01*
X92100000Y-84480061D01*
X109709000Y-84480061D01*
X109709000Y-84683939D01*
X109748774Y-84883898D01*
X109826795Y-85072256D01*
X109940063Y-85241774D01*
X110084226Y-85385937D01*
X110253744Y-85499205D01*
X110442102Y-85577226D01*
X110642061Y-85617000D01*
X110845939Y-85617000D01*
X111045898Y-85577226D01*
X111234256Y-85499205D01*
X111403774Y-85385937D01*
X111547650Y-85242061D01*
X125711000Y-85242061D01*
X125711000Y-85445939D01*
X125750774Y-85645898D01*
X125828795Y-85834256D01*
X125942063Y-86003774D01*
X126086226Y-86147937D01*
X126255744Y-86261205D01*
X126444102Y-86339226D01*
X126644061Y-86379000D01*
X126847939Y-86379000D01*
X127047898Y-86339226D01*
X127236256Y-86261205D01*
X127405774Y-86147937D01*
X127549937Y-86003774D01*
X127663205Y-85834256D01*
X127741226Y-85645898D01*
X127781000Y-85445939D01*
X127781000Y-85242061D01*
X127741226Y-85042102D01*
X127663205Y-84853744D01*
X127549937Y-84684226D01*
X127405774Y-84540063D01*
X127236256Y-84426795D01*
X127047898Y-84348774D01*
X126847939Y-84309000D01*
X126644061Y-84309000D01*
X126444102Y-84348774D01*
X126255744Y-84426795D01*
X126086226Y-84540063D01*
X125942063Y-84684226D01*
X125828795Y-84853744D01*
X125750774Y-85042102D01*
X125711000Y-85242061D01*
X111547650Y-85242061D01*
X111547937Y-85241774D01*
X111661205Y-85072256D01*
X111739226Y-84883898D01*
X111779000Y-84683939D01*
X111779000Y-84480061D01*
X111739226Y-84280102D01*
X111661205Y-84091744D01*
X111547937Y-83922226D01*
X111403774Y-83778063D01*
X111234256Y-83664795D01*
X111056248Y-83591061D01*
X114789000Y-83591061D01*
X114789000Y-83794939D01*
X114828774Y-83994898D01*
X114906795Y-84183256D01*
X115020063Y-84352774D01*
X115164226Y-84496937D01*
X115333744Y-84610205D01*
X115522102Y-84688226D01*
X115722061Y-84728000D01*
X115925939Y-84728000D01*
X116125898Y-84688226D01*
X116314256Y-84610205D01*
X116483774Y-84496937D01*
X116627937Y-84352774D01*
X116741205Y-84183256D01*
X116819226Y-83994898D01*
X116823768Y-83972061D01*
X135617000Y-83972061D01*
X135617000Y-84175939D01*
X135656774Y-84375898D01*
X135734795Y-84564256D01*
X135848063Y-84733774D01*
X135992226Y-84877937D01*
X136161744Y-84991205D01*
X136350102Y-85069226D01*
X136550061Y-85109000D01*
X136753939Y-85109000D01*
X136953898Y-85069226D01*
X137142256Y-84991205D01*
X137311774Y-84877937D01*
X137455937Y-84733774D01*
X137569205Y-84564256D01*
X137647226Y-84375898D01*
X137687000Y-84175939D01*
X137687000Y-83972061D01*
X137647226Y-83772102D01*
X137569205Y-83583744D01*
X137455937Y-83414226D01*
X137311774Y-83270063D01*
X137142256Y-83156795D01*
X136953898Y-83078774D01*
X136753939Y-83039000D01*
X136550061Y-83039000D01*
X136350102Y-83078774D01*
X136161744Y-83156795D01*
X135992226Y-83270063D01*
X135848063Y-83414226D01*
X135734795Y-83583744D01*
X135656774Y-83772102D01*
X135617000Y-83972061D01*
X116823768Y-83972061D01*
X116859000Y-83794939D01*
X116859000Y-83591061D01*
X116851330Y-83552500D01*
X116887898Y-83545226D01*
X117076256Y-83467205D01*
X117245774Y-83353937D01*
X117302059Y-83297652D01*
X117365744Y-83340205D01*
X117554102Y-83418226D01*
X117754061Y-83458000D01*
X117957939Y-83458000D01*
X118157898Y-83418226D01*
X118346256Y-83340205D01*
X118515774Y-83226937D01*
X118659937Y-83082774D01*
X118773205Y-82913256D01*
X118851226Y-82724898D01*
X118855768Y-82702061D01*
X140443000Y-82702061D01*
X140443000Y-82905939D01*
X140482774Y-83105898D01*
X140560795Y-83294256D01*
X140674063Y-83463774D01*
X140818226Y-83607937D01*
X140987744Y-83721205D01*
X141176102Y-83799226D01*
X141376061Y-83839000D01*
X141579939Y-83839000D01*
X141779898Y-83799226D01*
X141968256Y-83721205D01*
X142137774Y-83607937D01*
X142281937Y-83463774D01*
X142395205Y-83294256D01*
X142473226Y-83105898D01*
X142513000Y-82905939D01*
X142513000Y-82821794D01*
X142519061Y-82823000D01*
X142722939Y-82823000D01*
X142922898Y-82783226D01*
X143111256Y-82705205D01*
X143280774Y-82591937D01*
X143424937Y-82447774D01*
X143538205Y-82278256D01*
X143616226Y-82089898D01*
X143656000Y-81889939D01*
X143656000Y-81686061D01*
X143616226Y-81486102D01*
X143538205Y-81297744D01*
X143424937Y-81128226D01*
X143280774Y-80984063D01*
X143111256Y-80870795D01*
X142922898Y-80792774D01*
X142722939Y-80753000D01*
X142519061Y-80753000D01*
X142319102Y-80792774D01*
X142130744Y-80870795D01*
X141961226Y-80984063D01*
X141817063Y-81128226D01*
X141703795Y-81297744D01*
X141625774Y-81486102D01*
X141586000Y-81686061D01*
X141586000Y-81770206D01*
X141579939Y-81769000D01*
X141376061Y-81769000D01*
X141176102Y-81808774D01*
X140987744Y-81886795D01*
X140818226Y-82000063D01*
X140674063Y-82144226D01*
X140560795Y-82313744D01*
X140482774Y-82502102D01*
X140443000Y-82702061D01*
X118855768Y-82702061D01*
X118891000Y-82524939D01*
X118891000Y-82321061D01*
X118851226Y-82121102D01*
X118773205Y-81932744D01*
X118659937Y-81763226D01*
X118515774Y-81619063D01*
X118346256Y-81505795D01*
X118157898Y-81427774D01*
X117957939Y-81388000D01*
X117754061Y-81388000D01*
X117554102Y-81427774D01*
X117365744Y-81505795D01*
X117196226Y-81619063D01*
X117139941Y-81675348D01*
X117076256Y-81632795D01*
X116887898Y-81554774D01*
X116687939Y-81515000D01*
X116484061Y-81515000D01*
X116284102Y-81554774D01*
X116095744Y-81632795D01*
X115926226Y-81746063D01*
X115782063Y-81890226D01*
X115668795Y-82059744D01*
X115590774Y-82248102D01*
X115551000Y-82448061D01*
X115551000Y-82651939D01*
X115558670Y-82690500D01*
X115522102Y-82697774D01*
X115333744Y-82775795D01*
X115164226Y-82889063D01*
X115020063Y-83033226D01*
X114906795Y-83202744D01*
X114828774Y-83391102D01*
X114789000Y-83591061D01*
X111056248Y-83591061D01*
X111045898Y-83586774D01*
X110845939Y-83547000D01*
X110642061Y-83547000D01*
X110442102Y-83586774D01*
X110253744Y-83664795D01*
X110084226Y-83778063D01*
X109940063Y-83922226D01*
X109826795Y-84091744D01*
X109748774Y-84280102D01*
X109709000Y-84480061D01*
X92100000Y-84480061D01*
X92100000Y-80416061D01*
X110344000Y-80416061D01*
X110344000Y-80619939D01*
X110383774Y-80819898D01*
X110461795Y-81008256D01*
X110575063Y-81177774D01*
X110719226Y-81321937D01*
X110888744Y-81435205D01*
X111077102Y-81513226D01*
X111277061Y-81553000D01*
X111480939Y-81553000D01*
X111680898Y-81513226D01*
X111869256Y-81435205D01*
X112038774Y-81321937D01*
X112182937Y-81177774D01*
X112296205Y-81008256D01*
X112374226Y-80819898D01*
X112414000Y-80619939D01*
X112414000Y-80416061D01*
X112374226Y-80216102D01*
X112296205Y-80027744D01*
X112182937Y-79858226D01*
X112038774Y-79714063D01*
X111869256Y-79600795D01*
X111680898Y-79522774D01*
X111480939Y-79483000D01*
X111277061Y-79483000D01*
X111077102Y-79522774D01*
X110888744Y-79600795D01*
X110719226Y-79714063D01*
X110575063Y-79858226D01*
X110461795Y-80027744D01*
X110383774Y-80216102D01*
X110344000Y-80416061D01*
X92100000Y-80416061D01*
X92100000Y-73513740D01*
X92495000Y-73513740D01*
X92495000Y-73806260D01*
X92552068Y-74093158D01*
X92664010Y-74363411D01*
X92826525Y-74606632D01*
X93033368Y-74813475D01*
X93207760Y-74930000D01*
X93033368Y-75046525D01*
X92826525Y-75253368D01*
X92664010Y-75496589D01*
X92552068Y-75766842D01*
X92495000Y-76053740D01*
X92495000Y-76346260D01*
X92552068Y-76633158D01*
X92664010Y-76903411D01*
X92826525Y-77146632D01*
X93033368Y-77353475D01*
X93276589Y-77515990D01*
X93546842Y-77627932D01*
X93833740Y-77685000D01*
X94126260Y-77685000D01*
X94413158Y-77627932D01*
X94683411Y-77515990D01*
X94926632Y-77353475D01*
X95026046Y-77254061D01*
X110331000Y-77254061D01*
X110331000Y-77457939D01*
X110370774Y-77657898D01*
X110448795Y-77846256D01*
X110562063Y-78015774D01*
X110706226Y-78159937D01*
X110875744Y-78273205D01*
X111064102Y-78351226D01*
X111264061Y-78391000D01*
X111467939Y-78391000D01*
X111667898Y-78351226D01*
X111856256Y-78273205D01*
X112025774Y-78159937D01*
X112169937Y-78015774D01*
X112283205Y-77846256D01*
X112361226Y-77657898D01*
X112401000Y-77457939D01*
X112401000Y-77254061D01*
X112361226Y-77054102D01*
X112283205Y-76865744D01*
X112169937Y-76696226D01*
X112025774Y-76552063D01*
X111856256Y-76438795D01*
X111667898Y-76360774D01*
X111467939Y-76321000D01*
X111264061Y-76321000D01*
X111064102Y-76360774D01*
X110875744Y-76438795D01*
X110706226Y-76552063D01*
X110562063Y-76696226D01*
X110448795Y-76865744D01*
X110370774Y-77054102D01*
X110331000Y-77254061D01*
X95026046Y-77254061D01*
X95133475Y-77146632D01*
X95295990Y-76903411D01*
X95407932Y-76633158D01*
X95465000Y-76346260D01*
X95465000Y-76053740D01*
X95407932Y-75766842D01*
X95295990Y-75496589D01*
X95188729Y-75336061D01*
X140951000Y-75336061D01*
X140951000Y-75539939D01*
X140990774Y-75739898D01*
X141068795Y-75928256D01*
X141182063Y-76097774D01*
X141326226Y-76241937D01*
X141495744Y-76355205D01*
X141684102Y-76433226D01*
X141884061Y-76473000D01*
X142087939Y-76473000D01*
X142287898Y-76433226D01*
X142476256Y-76355205D01*
X142645774Y-76241937D01*
X142789937Y-76097774D01*
X142903205Y-75928256D01*
X142981226Y-75739898D01*
X143021000Y-75539939D01*
X143021000Y-75336061D01*
X142981226Y-75136102D01*
X142903205Y-74947744D01*
X142789937Y-74778226D01*
X142645774Y-74634063D01*
X142476256Y-74520795D01*
X142287898Y-74442774D01*
X142087939Y-74403000D01*
X141884061Y-74403000D01*
X141684102Y-74442774D01*
X141495744Y-74520795D01*
X141326226Y-74634063D01*
X141182063Y-74778226D01*
X141068795Y-74947744D01*
X140990774Y-75136102D01*
X140951000Y-75336061D01*
X95188729Y-75336061D01*
X95133475Y-75253368D01*
X94926632Y-75046525D01*
X94752240Y-74930000D01*
X94926632Y-74813475D01*
X95133475Y-74606632D01*
X95295990Y-74363411D01*
X95407932Y-74093158D01*
X95465000Y-73806260D01*
X95465000Y-73513740D01*
X95448554Y-73431061D01*
X101200000Y-73431061D01*
X101200000Y-73634939D01*
X101239774Y-73834898D01*
X101317795Y-74023256D01*
X101431063Y-74192774D01*
X101575226Y-74336937D01*
X101744744Y-74450205D01*
X101933102Y-74528226D01*
X102133061Y-74568000D01*
X102336939Y-74568000D01*
X102536898Y-74528226D01*
X102725256Y-74450205D01*
X102894774Y-74336937D01*
X103038937Y-74192774D01*
X103152205Y-74023256D01*
X103230226Y-73834898D01*
X103270000Y-73634939D01*
X103270000Y-73558061D01*
X114281000Y-73558061D01*
X114281000Y-73761939D01*
X114320774Y-73961898D01*
X114398795Y-74150256D01*
X114512063Y-74319774D01*
X114656226Y-74463937D01*
X114825744Y-74577205D01*
X115014102Y-74655226D01*
X115214061Y-74695000D01*
X115417939Y-74695000D01*
X115617898Y-74655226D01*
X115806256Y-74577205D01*
X115869941Y-74534652D01*
X115926226Y-74590937D01*
X116095744Y-74704205D01*
X116284102Y-74782226D01*
X116484061Y-74822000D01*
X116687939Y-74822000D01*
X116887898Y-74782226D01*
X117076256Y-74704205D01*
X117221000Y-74607490D01*
X117365744Y-74704205D01*
X117554102Y-74782226D01*
X117754061Y-74822000D01*
X117957939Y-74822000D01*
X118157898Y-74782226D01*
X118346256Y-74704205D01*
X118515774Y-74590937D01*
X118659937Y-74446774D01*
X118773205Y-74277256D01*
X118851226Y-74088898D01*
X118891000Y-73888939D01*
X118891000Y-73685061D01*
X118851226Y-73485102D01*
X118773205Y-73296744D01*
X118659937Y-73127226D01*
X118515774Y-72983063D01*
X118346256Y-72869795D01*
X118157898Y-72791774D01*
X117957939Y-72752000D01*
X117754061Y-72752000D01*
X117554102Y-72791774D01*
X117365744Y-72869795D01*
X117221000Y-72966510D01*
X117076256Y-72869795D01*
X116887898Y-72791774D01*
X116687939Y-72752000D01*
X116484061Y-72752000D01*
X116284102Y-72791774D01*
X116095744Y-72869795D01*
X116032059Y-72912348D01*
X115975774Y-72856063D01*
X115806256Y-72742795D01*
X115617898Y-72664774D01*
X115417939Y-72625000D01*
X115214061Y-72625000D01*
X115014102Y-72664774D01*
X114825744Y-72742795D01*
X114656226Y-72856063D01*
X114512063Y-73000226D01*
X114398795Y-73169744D01*
X114320774Y-73358102D01*
X114281000Y-73558061D01*
X103270000Y-73558061D01*
X103270000Y-73431061D01*
X103230226Y-73231102D01*
X103152205Y-73042744D01*
X103038937Y-72873226D01*
X102894774Y-72729063D01*
X102725256Y-72615795D01*
X102536898Y-72537774D01*
X102336939Y-72498000D01*
X102133061Y-72498000D01*
X101933102Y-72537774D01*
X101744744Y-72615795D01*
X101575226Y-72729063D01*
X101431063Y-72873226D01*
X101317795Y-73042744D01*
X101239774Y-73231102D01*
X101200000Y-73431061D01*
X95448554Y-73431061D01*
X95407932Y-73226842D01*
X95295990Y-72956589D01*
X95133475Y-72713368D01*
X94926632Y-72506525D01*
X94789748Y-72415061D01*
X126600000Y-72415061D01*
X126600000Y-72618939D01*
X126639774Y-72818898D01*
X126717795Y-73007256D01*
X126831063Y-73176774D01*
X126975226Y-73320937D01*
X127144744Y-73434205D01*
X127333102Y-73512226D01*
X127533061Y-73552000D01*
X127736939Y-73552000D01*
X127929286Y-73513740D01*
X145835000Y-73513740D01*
X145835000Y-73806260D01*
X145892068Y-74093158D01*
X146004010Y-74363411D01*
X146166525Y-74606632D01*
X146373368Y-74813475D01*
X146547760Y-74930000D01*
X146373368Y-75046525D01*
X146166525Y-75253368D01*
X146004010Y-75496589D01*
X145892068Y-75766842D01*
X145835000Y-76053740D01*
X145835000Y-76346260D01*
X145892068Y-76633158D01*
X146004010Y-76903411D01*
X146166525Y-77146632D01*
X146373368Y-77353475D01*
X146616589Y-77515990D01*
X146886842Y-77627932D01*
X147173740Y-77685000D01*
X147466260Y-77685000D01*
X147753158Y-77627932D01*
X148023411Y-77515990D01*
X148266632Y-77353475D01*
X148473475Y-77146632D01*
X148635990Y-76903411D01*
X148747932Y-76633158D01*
X148805000Y-76346260D01*
X148805000Y-76053740D01*
X148747932Y-75766842D01*
X148635990Y-75496589D01*
X148473475Y-75253368D01*
X148266632Y-75046525D01*
X148092240Y-74930000D01*
X148266632Y-74813475D01*
X148473475Y-74606632D01*
X148635990Y-74363411D01*
X148747932Y-74093158D01*
X148805000Y-73806260D01*
X148805000Y-73513740D01*
X148747932Y-73226842D01*
X148635990Y-72956589D01*
X148473475Y-72713368D01*
X148266632Y-72506525D01*
X148084466Y-72384805D01*
X148201355Y-72315178D01*
X148417588Y-72120269D01*
X148591641Y-71886920D01*
X148716825Y-71624099D01*
X148761476Y-71476890D01*
X148640155Y-71247000D01*
X147447000Y-71247000D01*
X147447000Y-71267000D01*
X147193000Y-71267000D01*
X147193000Y-71247000D01*
X145999845Y-71247000D01*
X145878524Y-71476890D01*
X145923175Y-71624099D01*
X146048359Y-71886920D01*
X146222412Y-72120269D01*
X146438645Y-72315178D01*
X146555534Y-72384805D01*
X146373368Y-72506525D01*
X146166525Y-72713368D01*
X146004010Y-72956589D01*
X145892068Y-73226842D01*
X145835000Y-73513740D01*
X127929286Y-73513740D01*
X127936898Y-73512226D01*
X128125256Y-73434205D01*
X128294774Y-73320937D01*
X128438937Y-73176774D01*
X128552205Y-73007256D01*
X128630226Y-72818898D01*
X128670000Y-72618939D01*
X128670000Y-72415061D01*
X128630226Y-72215102D01*
X128552205Y-72026744D01*
X128438937Y-71857226D01*
X128294774Y-71713063D01*
X128125256Y-71599795D01*
X127936898Y-71521774D01*
X127736939Y-71482000D01*
X127533061Y-71482000D01*
X127333102Y-71521774D01*
X127144744Y-71599795D01*
X126975226Y-71713063D01*
X126831063Y-71857226D01*
X126717795Y-72026744D01*
X126639774Y-72215102D01*
X126600000Y-72415061D01*
X94789748Y-72415061D01*
X94744466Y-72384805D01*
X94861355Y-72315178D01*
X95077588Y-72120269D01*
X95251641Y-71886920D01*
X95376825Y-71624099D01*
X95421476Y-71476890D01*
X95313381Y-71272061D01*
X136252000Y-71272061D01*
X136252000Y-71475939D01*
X136291774Y-71675898D01*
X136369795Y-71864256D01*
X136483063Y-72033774D01*
X136627226Y-72177937D01*
X136796744Y-72291205D01*
X136985102Y-72369226D01*
X137185061Y-72409000D01*
X137388939Y-72409000D01*
X137588898Y-72369226D01*
X137777256Y-72291205D01*
X137946774Y-72177937D01*
X138090937Y-72033774D01*
X138204205Y-71864256D01*
X138282226Y-71675898D01*
X138322000Y-71475939D01*
X138322000Y-71272061D01*
X138282226Y-71072102D01*
X138204205Y-70883744D01*
X138090937Y-70714226D01*
X137946774Y-70570063D01*
X137777256Y-70456795D01*
X137588898Y-70378774D01*
X137388939Y-70339000D01*
X137185061Y-70339000D01*
X136985102Y-70378774D01*
X136796744Y-70456795D01*
X136627226Y-70570063D01*
X136483063Y-70714226D01*
X136369795Y-70883744D01*
X136291774Y-71072102D01*
X136252000Y-71272061D01*
X95313381Y-71272061D01*
X95300155Y-71247000D01*
X94107000Y-71247000D01*
X94107000Y-71267000D01*
X93853000Y-71267000D01*
X93853000Y-71247000D01*
X92659845Y-71247000D01*
X92538524Y-71476890D01*
X92583175Y-71624099D01*
X92708359Y-71886920D01*
X92882412Y-72120269D01*
X93098645Y-72315178D01*
X93215534Y-72384805D01*
X93033368Y-72506525D01*
X92826525Y-72713368D01*
X92664010Y-72956589D01*
X92552068Y-73226842D01*
X92495000Y-73513740D01*
X92100000Y-73513740D01*
X92100000Y-69430000D01*
X92491928Y-69430000D01*
X92504188Y-69554482D01*
X92540498Y-69674180D01*
X92599463Y-69784494D01*
X92678815Y-69881185D01*
X92775506Y-69960537D01*
X92885820Y-70019502D01*
X92966466Y-70043966D01*
X92882412Y-70119731D01*
X92708359Y-70353080D01*
X92583175Y-70615901D01*
X92538524Y-70763110D01*
X92659845Y-70993000D01*
X93853000Y-70993000D01*
X93853000Y-68707000D01*
X94107000Y-68707000D01*
X94107000Y-70993000D01*
X95300155Y-70993000D01*
X95421476Y-70763110D01*
X95376825Y-70615901D01*
X95251641Y-70353080D01*
X95077588Y-70119731D01*
X94993534Y-70043966D01*
X95074180Y-70019502D01*
X95184494Y-69960537D01*
X95281185Y-69881185D01*
X95360537Y-69784494D01*
X95419502Y-69674180D01*
X95455812Y-69554482D01*
X95468072Y-69430000D01*
X145831928Y-69430000D01*
X145844188Y-69554482D01*
X145880498Y-69674180D01*
X145939463Y-69784494D01*
X146018815Y-69881185D01*
X146115506Y-69960537D01*
X146225820Y-70019502D01*
X146306466Y-70043966D01*
X146222412Y-70119731D01*
X146048359Y-70353080D01*
X145923175Y-70615901D01*
X145878524Y-70763110D01*
X145999845Y-70993000D01*
X147193000Y-70993000D01*
X147193000Y-68707000D01*
X147447000Y-68707000D01*
X147447000Y-70993000D01*
X148640155Y-70993000D01*
X148761476Y-70763110D01*
X148716825Y-70615901D01*
X148591641Y-70353080D01*
X148417588Y-70119731D01*
X148333534Y-70043966D01*
X148414180Y-70019502D01*
X148524494Y-69960537D01*
X148621185Y-69881185D01*
X148700537Y-69784494D01*
X148759502Y-69674180D01*
X148795812Y-69554482D01*
X148808072Y-69430000D01*
X148805000Y-68865750D01*
X148646250Y-68707000D01*
X147447000Y-68707000D01*
X147193000Y-68707000D01*
X145993750Y-68707000D01*
X145835000Y-68865750D01*
X145831928Y-69430000D01*
X95468072Y-69430000D01*
X95465000Y-68865750D01*
X95306250Y-68707000D01*
X94107000Y-68707000D01*
X93853000Y-68707000D01*
X92653750Y-68707000D01*
X92495000Y-68865750D01*
X92491928Y-69430000D01*
X92100000Y-69430000D01*
X92100000Y-67730000D01*
X92491928Y-67730000D01*
X92495000Y-68294250D01*
X92653750Y-68453000D01*
X93853000Y-68453000D01*
X93853000Y-67253750D01*
X94107000Y-67253750D01*
X94107000Y-68453000D01*
X95306250Y-68453000D01*
X95465000Y-68294250D01*
X95468072Y-67730000D01*
X145831928Y-67730000D01*
X145835000Y-68294250D01*
X145993750Y-68453000D01*
X147193000Y-68453000D01*
X147193000Y-67253750D01*
X147447000Y-67253750D01*
X147447000Y-68453000D01*
X148646250Y-68453000D01*
X148805000Y-68294250D01*
X148808072Y-67730000D01*
X148795812Y-67605518D01*
X148759502Y-67485820D01*
X148700537Y-67375506D01*
X148621185Y-67278815D01*
X148524494Y-67199463D01*
X148414180Y-67140498D01*
X148294482Y-67104188D01*
X148170000Y-67091928D01*
X147605750Y-67095000D01*
X147447000Y-67253750D01*
X147193000Y-67253750D01*
X147034250Y-67095000D01*
X146470000Y-67091928D01*
X146345518Y-67104188D01*
X146225820Y-67140498D01*
X146115506Y-67199463D01*
X146018815Y-67278815D01*
X145939463Y-67375506D01*
X145880498Y-67485820D01*
X145844188Y-67605518D01*
X145831928Y-67730000D01*
X95468072Y-67730000D01*
X95455812Y-67605518D01*
X95419502Y-67485820D01*
X95360537Y-67375506D01*
X95281185Y-67278815D01*
X95184494Y-67199463D01*
X95074180Y-67140498D01*
X94954482Y-67104188D01*
X94830000Y-67091928D01*
X94265750Y-67095000D01*
X94107000Y-67253750D01*
X93853000Y-67253750D01*
X93694250Y-67095000D01*
X93130000Y-67091928D01*
X93005518Y-67104188D01*
X92885820Y-67140498D01*
X92775506Y-67199463D01*
X92678815Y-67278815D01*
X92599463Y-67375506D01*
X92540498Y-67485820D01*
X92504188Y-67605518D01*
X92491928Y-67730000D01*
X92100000Y-67730000D01*
X92100000Y-66700000D01*
X149200001Y-66700000D01*
X149200000Y-116180000D01*
G04 #@! TA.AperFunction,Conductor*
D15*
G36*
X149200000Y-116180000D02*
G01*
X92100000Y-116180000D01*
X92100000Y-111613740D01*
X92495000Y-111613740D01*
X92495000Y-111906260D01*
X92552068Y-112193158D01*
X92664010Y-112463411D01*
X92826525Y-112706632D01*
X93033368Y-112913475D01*
X93207760Y-113030000D01*
X93033368Y-113146525D01*
X92826525Y-113353368D01*
X92664010Y-113596589D01*
X92552068Y-113866842D01*
X92495000Y-114153740D01*
X92495000Y-114446260D01*
X92552068Y-114733158D01*
X92664010Y-115003411D01*
X92826525Y-115246632D01*
X93033368Y-115453475D01*
X93276589Y-115615990D01*
X93546842Y-115727932D01*
X93833740Y-115785000D01*
X94126260Y-115785000D01*
X94413158Y-115727932D01*
X94683411Y-115615990D01*
X94926632Y-115453475D01*
X95133475Y-115246632D01*
X95295990Y-115003411D01*
X95407932Y-114733158D01*
X95465000Y-114446260D01*
X95465000Y-114153740D01*
X95407932Y-113866842D01*
X95295990Y-113596589D01*
X95133475Y-113353368D01*
X94926632Y-113146525D01*
X94752240Y-113030000D01*
X94926632Y-112913475D01*
X95133475Y-112706632D01*
X95140873Y-112695560D01*
X98304045Y-112695560D01*
X98365932Y-112931368D01*
X98607790Y-113044266D01*
X98867027Y-113107811D01*
X99133680Y-113119561D01*
X99397501Y-113079063D01*
X99648353Y-112987875D01*
X99754068Y-112931368D01*
X99815955Y-112695560D01*
X99060000Y-111939605D01*
X98304045Y-112695560D01*
X95140873Y-112695560D01*
X95295990Y-112463411D01*
X95407932Y-112193158D01*
X95465000Y-111906260D01*
X95465000Y-111833680D01*
X97700439Y-111833680D01*
X97740937Y-112097501D01*
X97832125Y-112348353D01*
X97888632Y-112454068D01*
X98124440Y-112515955D01*
X98880395Y-111760000D01*
X99239605Y-111760000D01*
X99995560Y-112515955D01*
X100231368Y-112454068D01*
X100344266Y-112212210D01*
X100407811Y-111952973D01*
X100419561Y-111686320D01*
X100379063Y-111422499D01*
X100287875Y-111171647D01*
X100231368Y-111065932D01*
X99995560Y-111004045D01*
X99239605Y-111760000D01*
X98880395Y-111760000D01*
X98124440Y-111004045D01*
X97888632Y-111065932D01*
X97775734Y-111307790D01*
X97712189Y-111567027D01*
X97700439Y-111833680D01*
X95465000Y-111833680D01*
X95465000Y-111613740D01*
X95407932Y-111326842D01*
X95295990Y-111056589D01*
X95133475Y-110813368D01*
X94926632Y-110606525D01*
X94744466Y-110484805D01*
X94861355Y-110415178D01*
X95077588Y-110220269D01*
X95251641Y-109986920D01*
X95376825Y-109724099D01*
X95421476Y-109576890D01*
X95300155Y-109347000D01*
X94107000Y-109347000D01*
X94107000Y-109367000D01*
X93853000Y-109367000D01*
X93853000Y-109347000D01*
X92659845Y-109347000D01*
X92538524Y-109576890D01*
X92583175Y-109724099D01*
X92708359Y-109986920D01*
X92882412Y-110220269D01*
X93098645Y-110415178D01*
X93215534Y-110484805D01*
X93033368Y-110606525D01*
X92826525Y-110813368D01*
X92664010Y-111056589D01*
X92552068Y-111326842D01*
X92495000Y-111613740D01*
X92100000Y-111613740D01*
X92100000Y-107530000D01*
X92491928Y-107530000D01*
X92504188Y-107654482D01*
X92540498Y-107774180D01*
X92599463Y-107884494D01*
X92678815Y-107981185D01*
X92775506Y-108060537D01*
X92885820Y-108119502D01*
X92966466Y-108143966D01*
X92882412Y-108219731D01*
X92708359Y-108453080D01*
X92583175Y-108715901D01*
X92538524Y-108863110D01*
X92659845Y-109093000D01*
X93853000Y-109093000D01*
X93853000Y-106807000D01*
X94107000Y-106807000D01*
X94107000Y-109093000D01*
X95300155Y-109093000D01*
X95421476Y-108863110D01*
X95376825Y-108715901D01*
X95251641Y-108453080D01*
X95077588Y-108219731D01*
X94993534Y-108143966D01*
X95074180Y-108119502D01*
X95184494Y-108060537D01*
X95281185Y-107981185D01*
X95360537Y-107884494D01*
X95419502Y-107774180D01*
X95455812Y-107654482D01*
X95468072Y-107530000D01*
X95465000Y-106965750D01*
X95306250Y-106807000D01*
X94107000Y-106807000D01*
X93853000Y-106807000D01*
X92653750Y-106807000D01*
X92495000Y-106965750D01*
X92491928Y-107530000D01*
X92100000Y-107530000D01*
X92100000Y-105830000D01*
X92491928Y-105830000D01*
X92495000Y-106394250D01*
X92653750Y-106553000D01*
X93853000Y-106553000D01*
X93853000Y-105353750D01*
X94107000Y-105353750D01*
X94107000Y-106553000D01*
X95306250Y-106553000D01*
X95312706Y-106546544D01*
X97705000Y-106546544D01*
X97705000Y-106813456D01*
X97757072Y-107075239D01*
X97859215Y-107321833D01*
X98007503Y-107543762D01*
X98196238Y-107732497D01*
X98418167Y-107880785D01*
X98585266Y-107950000D01*
X98418167Y-108019215D01*
X98196238Y-108167503D01*
X98007503Y-108356238D01*
X97859215Y-108578167D01*
X97757072Y-108824761D01*
X97705000Y-109086544D01*
X97705000Y-109353456D01*
X97757072Y-109615239D01*
X97859215Y-109861833D01*
X98007503Y-110083762D01*
X98196238Y-110272497D01*
X98418167Y-110420785D01*
X98586324Y-110490438D01*
X98471647Y-110532125D01*
X98365932Y-110588632D01*
X98304045Y-110824440D01*
X99060000Y-111580395D01*
X99815955Y-110824440D01*
X99754068Y-110588632D01*
X99538993Y-110488236D01*
X99701833Y-110420785D01*
X99923762Y-110272497D01*
X100112497Y-110083762D01*
X100260785Y-109861833D01*
X100362928Y-109615239D01*
X100415000Y-109353456D01*
X100415000Y-109086544D01*
X103420000Y-109086544D01*
X103420000Y-109353456D01*
X103472072Y-109615239D01*
X103574215Y-109861833D01*
X103722503Y-110083762D01*
X103911238Y-110272497D01*
X104133167Y-110420785D01*
X104300266Y-110490000D01*
X104133167Y-110559215D01*
X103911238Y-110707503D01*
X103722503Y-110896238D01*
X103574215Y-111118167D01*
X103472072Y-111364761D01*
X103420000Y-111626544D01*
X103420000Y-111893456D01*
X103472072Y-112155239D01*
X103574215Y-112401833D01*
X103722503Y-112623762D01*
X103911238Y-112812497D01*
X104133167Y-112960785D01*
X104379761Y-113062928D01*
X104641544Y-113115000D01*
X104908456Y-113115000D01*
X105170239Y-113062928D01*
X105416833Y-112960785D01*
X105638762Y-112812497D01*
X105755699Y-112695560D01*
X109734045Y-112695560D01*
X109795932Y-112931368D01*
X110037790Y-113044266D01*
X110297027Y-113107811D01*
X110563680Y-113119561D01*
X110827501Y-113079063D01*
X111078353Y-112987875D01*
X111184068Y-112931368D01*
X111245955Y-112695560D01*
X110490000Y-111939605D01*
X109734045Y-112695560D01*
X105755699Y-112695560D01*
X105827497Y-112623762D01*
X105975785Y-112401833D01*
X106077928Y-112155239D01*
X106130000Y-111893456D01*
X106130000Y-111833680D01*
X109130439Y-111833680D01*
X109170937Y-112097501D01*
X109262125Y-112348353D01*
X109318632Y-112454068D01*
X109554440Y-112515955D01*
X110310395Y-111760000D01*
X110669605Y-111760000D01*
X111425560Y-112515955D01*
X111661368Y-112454068D01*
X111774266Y-112212210D01*
X111837811Y-111952973D01*
X111849561Y-111686320D01*
X111809063Y-111422499D01*
X111717875Y-111171647D01*
X111661368Y-111065932D01*
X111425560Y-111004045D01*
X110669605Y-111760000D01*
X110310395Y-111760000D01*
X109554440Y-111004045D01*
X109318632Y-111065932D01*
X109205734Y-111307790D01*
X109142189Y-111567027D01*
X109130439Y-111833680D01*
X106130000Y-111833680D01*
X106130000Y-111626544D01*
X106077928Y-111364761D01*
X105975785Y-111118167D01*
X105827497Y-110896238D01*
X105638762Y-110707503D01*
X105416833Y-110559215D01*
X105249734Y-110490000D01*
X105416833Y-110420785D01*
X105638762Y-110272497D01*
X105827497Y-110083762D01*
X105975785Y-109861833D01*
X106077928Y-109615239D01*
X106130000Y-109353456D01*
X106130000Y-109086544D01*
X106077928Y-108824761D01*
X105975785Y-108578167D01*
X105827497Y-108356238D01*
X105638762Y-108167503D01*
X105416833Y-108019215D01*
X105248676Y-107949562D01*
X105363353Y-107907875D01*
X105469068Y-107851368D01*
X105530955Y-107615560D01*
X104775000Y-106859605D01*
X104019045Y-107615560D01*
X104080932Y-107851368D01*
X104296007Y-107951764D01*
X104133167Y-108019215D01*
X103911238Y-108167503D01*
X103722503Y-108356238D01*
X103574215Y-108578167D01*
X103472072Y-108824761D01*
X103420000Y-109086544D01*
X100415000Y-109086544D01*
X100362928Y-108824761D01*
X100260785Y-108578167D01*
X100112497Y-108356238D01*
X99923762Y-108167503D01*
X99701833Y-108019215D01*
X99534734Y-107950000D01*
X99701833Y-107880785D01*
X99923762Y-107732497D01*
X100112497Y-107543762D01*
X100260785Y-107321833D01*
X100362928Y-107075239D01*
X100415000Y-106813456D01*
X100415000Y-106753680D01*
X103415439Y-106753680D01*
X103455937Y-107017501D01*
X103547125Y-107268353D01*
X103603632Y-107374068D01*
X103839440Y-107435955D01*
X104595395Y-106680000D01*
X104954605Y-106680000D01*
X105710560Y-107435955D01*
X105946368Y-107374068D01*
X106059266Y-107132210D01*
X106122811Y-106872973D01*
X106134561Y-106606320D01*
X106125386Y-106546544D01*
X109135000Y-106546544D01*
X109135000Y-106813456D01*
X109187072Y-107075239D01*
X109289215Y-107321833D01*
X109437503Y-107543762D01*
X109626238Y-107732497D01*
X109848167Y-107880785D01*
X110015266Y-107950000D01*
X109848167Y-108019215D01*
X109626238Y-108167503D01*
X109437503Y-108356238D01*
X109289215Y-108578167D01*
X109187072Y-108824761D01*
X109135000Y-109086544D01*
X109135000Y-109353456D01*
X109187072Y-109615239D01*
X109289215Y-109861833D01*
X109437503Y-110083762D01*
X109626238Y-110272497D01*
X109848167Y-110420785D01*
X110016324Y-110490438D01*
X109901647Y-110532125D01*
X109795932Y-110588632D01*
X109734045Y-110824440D01*
X110490000Y-111580395D01*
X111245955Y-110824440D01*
X111184068Y-110588632D01*
X110968993Y-110488236D01*
X111131833Y-110420785D01*
X111353762Y-110272497D01*
X111542497Y-110083762D01*
X111690785Y-109861833D01*
X111792928Y-109615239D01*
X111845000Y-109353456D01*
X111845000Y-109086544D01*
X111792928Y-108824761D01*
X111690785Y-108578167D01*
X111542497Y-108356238D01*
X111542320Y-108356061D01*
X119234000Y-108356061D01*
X119234000Y-108559939D01*
X119273774Y-108759898D01*
X119351795Y-108948256D01*
X119465063Y-109117774D01*
X119609226Y-109261937D01*
X119778744Y-109375205D01*
X119967102Y-109453226D01*
X120167061Y-109493000D01*
X120370939Y-109493000D01*
X120570898Y-109453226D01*
X120759256Y-109375205D01*
X120928774Y-109261937D01*
X121072937Y-109117774D01*
X121186205Y-108948256D01*
X121264226Y-108759898D01*
X121304000Y-108559939D01*
X121304000Y-108356061D01*
X121264226Y-108156102D01*
X121186205Y-107967744D01*
X121106236Y-107848061D01*
X131680000Y-107848061D01*
X131680000Y-108051939D01*
X131719774Y-108251898D01*
X131797795Y-108440256D01*
X131911063Y-108609774D01*
X132055226Y-108753937D01*
X132224744Y-108867205D01*
X132413102Y-108945226D01*
X132613061Y-108985000D01*
X132816939Y-108985000D01*
X133016898Y-108945226D01*
X133205256Y-108867205D01*
X133374774Y-108753937D01*
X133382425Y-108746286D01*
X133556102Y-108818226D01*
X133756061Y-108858000D01*
X133959939Y-108858000D01*
X134159898Y-108818226D01*
X134348256Y-108740205D01*
X134493000Y-108643490D01*
X134637744Y-108740205D01*
X134826102Y-108818226D01*
X135026061Y-108858000D01*
X135229939Y-108858000D01*
X135429898Y-108818226D01*
X135618256Y-108740205D01*
X135763000Y-108643490D01*
X135907744Y-108740205D01*
X136096102Y-108818226D01*
X136296061Y-108858000D01*
X136499939Y-108858000D01*
X136699898Y-108818226D01*
X136888256Y-108740205D01*
X137057774Y-108626937D01*
X137201937Y-108482774D01*
X137315205Y-108313256D01*
X137393226Y-108124898D01*
X137433000Y-107924939D01*
X137433000Y-107721061D01*
X137393226Y-107521102D01*
X137315205Y-107332744D01*
X137201937Y-107163226D01*
X137057774Y-107019063D01*
X136888256Y-106905795D01*
X136699898Y-106827774D01*
X136499939Y-106788000D01*
X136296061Y-106788000D01*
X136096102Y-106827774D01*
X135907744Y-106905795D01*
X135763000Y-107002510D01*
X135618256Y-106905795D01*
X135429898Y-106827774D01*
X135229939Y-106788000D01*
X135026061Y-106788000D01*
X134826102Y-106827774D01*
X134637744Y-106905795D01*
X134493000Y-107002510D01*
X134348256Y-106905795D01*
X134159898Y-106827774D01*
X133959939Y-106788000D01*
X133756061Y-106788000D01*
X133556102Y-106827774D01*
X133367744Y-106905795D01*
X133198226Y-107019063D01*
X133190575Y-107026714D01*
X133016898Y-106954774D01*
X132816939Y-106915000D01*
X132613061Y-106915000D01*
X132413102Y-106954774D01*
X132224744Y-107032795D01*
X132055226Y-107146063D01*
X131911063Y-107290226D01*
X131797795Y-107459744D01*
X131719774Y-107648102D01*
X131680000Y-107848061D01*
X121106236Y-107848061D01*
X121072937Y-107798226D01*
X120928774Y-107654063D01*
X120759256Y-107540795D01*
X120570898Y-107462774D01*
X120370939Y-107423000D01*
X120167061Y-107423000D01*
X119967102Y-107462774D01*
X119778744Y-107540795D01*
X119609226Y-107654063D01*
X119465063Y-107798226D01*
X119351795Y-107967744D01*
X119273774Y-108156102D01*
X119234000Y-108356061D01*
X111542320Y-108356061D01*
X111353762Y-108167503D01*
X111131833Y-108019215D01*
X110964734Y-107950000D01*
X111131833Y-107880785D01*
X111353762Y-107732497D01*
X111542497Y-107543762D01*
X111690785Y-107321833D01*
X111792928Y-107075239D01*
X111845000Y-106813456D01*
X111845000Y-106546544D01*
X111792928Y-106284761D01*
X111690785Y-106038167D01*
X111627238Y-105943061D01*
X126854000Y-105943061D01*
X126854000Y-106146939D01*
X126893774Y-106346898D01*
X126971795Y-106535256D01*
X127085063Y-106704774D01*
X127229226Y-106848937D01*
X127398744Y-106962205D01*
X127587102Y-107040226D01*
X127787061Y-107080000D01*
X127990939Y-107080000D01*
X128190898Y-107040226D01*
X128379256Y-106962205D01*
X128548774Y-106848937D01*
X128692937Y-106704774D01*
X128806205Y-106535256D01*
X128884226Y-106346898D01*
X128924000Y-106146939D01*
X128924000Y-105943061D01*
X128884226Y-105743102D01*
X128806205Y-105554744D01*
X128692937Y-105385226D01*
X128548774Y-105241063D01*
X128379256Y-105127795D01*
X128190898Y-105049774D01*
X127990939Y-105010000D01*
X127787061Y-105010000D01*
X127587102Y-105049774D01*
X127398744Y-105127795D01*
X127229226Y-105241063D01*
X127085063Y-105385226D01*
X126971795Y-105554744D01*
X126893774Y-105743102D01*
X126854000Y-105943061D01*
X111627238Y-105943061D01*
X111542497Y-105816238D01*
X111353762Y-105627503D01*
X111131833Y-105479215D01*
X110885239Y-105377072D01*
X110623456Y-105325000D01*
X110356544Y-105325000D01*
X110094761Y-105377072D01*
X109848167Y-105479215D01*
X109626238Y-105627503D01*
X109437503Y-105816238D01*
X109289215Y-106038167D01*
X109187072Y-106284761D01*
X109135000Y-106546544D01*
X106125386Y-106546544D01*
X106094063Y-106342499D01*
X106002875Y-106091647D01*
X105946368Y-105985932D01*
X105710560Y-105924045D01*
X104954605Y-106680000D01*
X104595395Y-106680000D01*
X103839440Y-105924045D01*
X103603632Y-105985932D01*
X103490734Y-106227790D01*
X103427189Y-106487027D01*
X103415439Y-106753680D01*
X100415000Y-106753680D01*
X100415000Y-106546544D01*
X100362928Y-106284761D01*
X100260785Y-106038167D01*
X100112497Y-105816238D01*
X100040699Y-105744440D01*
X104019045Y-105744440D01*
X104775000Y-106500395D01*
X105530955Y-105744440D01*
X105469068Y-105508632D01*
X105227210Y-105395734D01*
X104967973Y-105332189D01*
X104701320Y-105320439D01*
X104437499Y-105360937D01*
X104186647Y-105452125D01*
X104080932Y-105508632D01*
X104019045Y-105744440D01*
X100040699Y-105744440D01*
X99923762Y-105627503D01*
X99701833Y-105479215D01*
X99455239Y-105377072D01*
X99193456Y-105325000D01*
X98926544Y-105325000D01*
X98664761Y-105377072D01*
X98418167Y-105479215D01*
X98196238Y-105627503D01*
X98007503Y-105816238D01*
X97859215Y-106038167D01*
X97757072Y-106284761D01*
X97705000Y-106546544D01*
X95312706Y-106546544D01*
X95465000Y-106394250D01*
X95468072Y-105830000D01*
X95455812Y-105705518D01*
X95419502Y-105585820D01*
X95360537Y-105475506D01*
X95281185Y-105378815D01*
X95184494Y-105299463D01*
X95074180Y-105240498D01*
X94954482Y-105204188D01*
X94830000Y-105191928D01*
X94265750Y-105195000D01*
X94107000Y-105353750D01*
X93853000Y-105353750D01*
X93694250Y-105195000D01*
X93130000Y-105191928D01*
X93005518Y-105204188D01*
X92885820Y-105240498D01*
X92775506Y-105299463D01*
X92678815Y-105378815D01*
X92599463Y-105475506D01*
X92540498Y-105585820D01*
X92504188Y-105705518D01*
X92491928Y-105830000D01*
X92100000Y-105830000D01*
X92100000Y-102768061D01*
X126854000Y-102768061D01*
X126854000Y-102971939D01*
X126893774Y-103171898D01*
X126971795Y-103360256D01*
X127085063Y-103529774D01*
X127229226Y-103673937D01*
X127398744Y-103787205D01*
X127587102Y-103865226D01*
X127787061Y-103905000D01*
X127990939Y-103905000D01*
X128190898Y-103865226D01*
X128379256Y-103787205D01*
X128548774Y-103673937D01*
X128692937Y-103529774D01*
X128806205Y-103360256D01*
X128884226Y-103171898D01*
X128924000Y-102971939D01*
X128924000Y-102768061D01*
X128884226Y-102568102D01*
X128806205Y-102379744D01*
X128692937Y-102210226D01*
X128548774Y-102066063D01*
X128379256Y-101952795D01*
X128190898Y-101874774D01*
X127990939Y-101835000D01*
X127787061Y-101835000D01*
X127587102Y-101874774D01*
X127398744Y-101952795D01*
X127229226Y-102066063D01*
X127085063Y-102210226D01*
X126971795Y-102379744D01*
X126893774Y-102568102D01*
X126854000Y-102768061D01*
X92100000Y-102768061D01*
X92100000Y-101453740D01*
X145835000Y-101453740D01*
X145835000Y-101746260D01*
X145892068Y-102033158D01*
X146004010Y-102303411D01*
X146166525Y-102546632D01*
X146373368Y-102753475D01*
X146547760Y-102870000D01*
X146373368Y-102986525D01*
X146166525Y-103193368D01*
X146004010Y-103436589D01*
X145892068Y-103706842D01*
X145835000Y-103993740D01*
X145835000Y-104286260D01*
X145892068Y-104573158D01*
X146004010Y-104843411D01*
X146166525Y-105086632D01*
X146373368Y-105293475D01*
X146547760Y-105410000D01*
X146373368Y-105526525D01*
X146166525Y-105733368D01*
X146004010Y-105976589D01*
X145892068Y-106246842D01*
X145835000Y-106533740D01*
X145835000Y-106826260D01*
X145892068Y-107113158D01*
X146004010Y-107383411D01*
X146166525Y-107626632D01*
X146373368Y-107833475D01*
X146547760Y-107950000D01*
X146373368Y-108066525D01*
X146166525Y-108273368D01*
X146004010Y-108516589D01*
X145892068Y-108786842D01*
X145835000Y-109073740D01*
X145835000Y-109366260D01*
X145892068Y-109653158D01*
X146004010Y-109923411D01*
X146166525Y-110166632D01*
X146373368Y-110373475D01*
X146547760Y-110490000D01*
X146373368Y-110606525D01*
X146166525Y-110813368D01*
X146004010Y-111056589D01*
X145892068Y-111326842D01*
X145835000Y-111613740D01*
X145835000Y-111906260D01*
X145892068Y-112193158D01*
X146004010Y-112463411D01*
X146166525Y-112706632D01*
X146373368Y-112913475D01*
X146547760Y-113030000D01*
X146373368Y-113146525D01*
X146166525Y-113353368D01*
X146004010Y-113596589D01*
X145892068Y-113866842D01*
X145835000Y-114153740D01*
X145835000Y-114446260D01*
X145892068Y-114733158D01*
X146004010Y-115003411D01*
X146166525Y-115246632D01*
X146373368Y-115453475D01*
X146616589Y-115615990D01*
X146886842Y-115727932D01*
X147173740Y-115785000D01*
X147466260Y-115785000D01*
X147753158Y-115727932D01*
X148023411Y-115615990D01*
X148266632Y-115453475D01*
X148473475Y-115246632D01*
X148635990Y-115003411D01*
X148747932Y-114733158D01*
X148805000Y-114446260D01*
X148805000Y-114153740D01*
X148747932Y-113866842D01*
X148635990Y-113596589D01*
X148473475Y-113353368D01*
X148266632Y-113146525D01*
X148092240Y-113030000D01*
X148266632Y-112913475D01*
X148473475Y-112706632D01*
X148635990Y-112463411D01*
X148747932Y-112193158D01*
X148805000Y-111906260D01*
X148805000Y-111613740D01*
X148747932Y-111326842D01*
X148635990Y-111056589D01*
X148473475Y-110813368D01*
X148266632Y-110606525D01*
X148092240Y-110490000D01*
X148266632Y-110373475D01*
X148473475Y-110166632D01*
X148635990Y-109923411D01*
X148747932Y-109653158D01*
X148805000Y-109366260D01*
X148805000Y-109073740D01*
X148747932Y-108786842D01*
X148635990Y-108516589D01*
X148473475Y-108273368D01*
X148266632Y-108066525D01*
X148092240Y-107950000D01*
X148266632Y-107833475D01*
X148473475Y-107626632D01*
X148635990Y-107383411D01*
X148747932Y-107113158D01*
X148805000Y-106826260D01*
X148805000Y-106533740D01*
X148747932Y-106246842D01*
X148635990Y-105976589D01*
X148473475Y-105733368D01*
X148266632Y-105526525D01*
X148092240Y-105410000D01*
X148266632Y-105293475D01*
X148473475Y-105086632D01*
X148635990Y-104843411D01*
X148747932Y-104573158D01*
X148805000Y-104286260D01*
X148805000Y-103993740D01*
X148747932Y-103706842D01*
X148635990Y-103436589D01*
X148473475Y-103193368D01*
X148266632Y-102986525D01*
X148092240Y-102870000D01*
X148266632Y-102753475D01*
X148473475Y-102546632D01*
X148635990Y-102303411D01*
X148747932Y-102033158D01*
X148805000Y-101746260D01*
X148805000Y-101453740D01*
X148747932Y-101166842D01*
X148635990Y-100896589D01*
X148473475Y-100653368D01*
X148266632Y-100446525D01*
X148084466Y-100324805D01*
X148201355Y-100255178D01*
X148417588Y-100060269D01*
X148591641Y-99826920D01*
X148716825Y-99564099D01*
X148761476Y-99416890D01*
X148640155Y-99187000D01*
X147447000Y-99187000D01*
X147447000Y-99207000D01*
X147193000Y-99207000D01*
X147193000Y-99187000D01*
X145999845Y-99187000D01*
X145878524Y-99416890D01*
X145923175Y-99564099D01*
X146048359Y-99826920D01*
X146222412Y-100060269D01*
X146438645Y-100255178D01*
X146555534Y-100324805D01*
X146373368Y-100446525D01*
X146166525Y-100653368D01*
X146004010Y-100896589D01*
X145892068Y-101166842D01*
X145835000Y-101453740D01*
X92100000Y-101453740D01*
X92100000Y-99136061D01*
X129064000Y-99136061D01*
X129064000Y-99339939D01*
X129103774Y-99539898D01*
X129181795Y-99728256D01*
X129295063Y-99897774D01*
X129439226Y-100041937D01*
X129608744Y-100155205D01*
X129797102Y-100233226D01*
X129997061Y-100273000D01*
X130200939Y-100273000D01*
X130400898Y-100233226D01*
X130589256Y-100155205D01*
X130758774Y-100041937D01*
X130902937Y-99897774D01*
X131016205Y-99728256D01*
X131094226Y-99539898D01*
X131134000Y-99339939D01*
X131134000Y-99339059D01*
X132823000Y-99339059D01*
X132823000Y-99542937D01*
X132862774Y-99742896D01*
X132940795Y-99931254D01*
X133054063Y-100100772D01*
X133198226Y-100244935D01*
X133367744Y-100358203D01*
X133556102Y-100436224D01*
X133756061Y-100475998D01*
X133959939Y-100475998D01*
X134159898Y-100436224D01*
X134348256Y-100358203D01*
X134411940Y-100315651D01*
X134468223Y-100371934D01*
X134637741Y-100485202D01*
X134826099Y-100563223D01*
X135026058Y-100602997D01*
X135229936Y-100602997D01*
X135429895Y-100563223D01*
X135618253Y-100485202D01*
X135787771Y-100371934D01*
X135922421Y-100237284D01*
X136096102Y-100309226D01*
X136296061Y-100349000D01*
X136499939Y-100349000D01*
X136699898Y-100309226D01*
X136888256Y-100231205D01*
X137057774Y-100117937D01*
X137201937Y-99973774D01*
X137315205Y-99804256D01*
X137393226Y-99615898D01*
X137433000Y-99415939D01*
X137433000Y-99212061D01*
X137393226Y-99012102D01*
X137315205Y-98823744D01*
X137201937Y-98654226D01*
X137057774Y-98510063D01*
X136888256Y-98396795D01*
X136699898Y-98318774D01*
X136499939Y-98279000D01*
X136296061Y-98279000D01*
X136096102Y-98318774D01*
X135907744Y-98396795D01*
X135738226Y-98510063D01*
X135603576Y-98644713D01*
X135429895Y-98572771D01*
X135229936Y-98532997D01*
X135026058Y-98532997D01*
X134826099Y-98572771D01*
X134637741Y-98650792D01*
X134574057Y-98693344D01*
X134517774Y-98637061D01*
X134348256Y-98523793D01*
X134159898Y-98445772D01*
X133959939Y-98405998D01*
X133756061Y-98405998D01*
X133556102Y-98445772D01*
X133367744Y-98523793D01*
X133198226Y-98637061D01*
X133054063Y-98781224D01*
X132940795Y-98950742D01*
X132862774Y-99139100D01*
X132823000Y-99339059D01*
X131134000Y-99339059D01*
X131134000Y-99136061D01*
X131094226Y-98936102D01*
X131016205Y-98747744D01*
X130902937Y-98578226D01*
X130758774Y-98434063D01*
X130589256Y-98320795D01*
X130400898Y-98242774D01*
X130200939Y-98203000D01*
X129997061Y-98203000D01*
X129797102Y-98242774D01*
X129608744Y-98320795D01*
X129439226Y-98434063D01*
X129295063Y-98578226D01*
X129181795Y-98747744D01*
X129103774Y-98936102D01*
X129064000Y-99136061D01*
X92100000Y-99136061D01*
X92100000Y-97370000D01*
X145831928Y-97370000D01*
X145844188Y-97494482D01*
X145880498Y-97614180D01*
X145939463Y-97724494D01*
X146018815Y-97821185D01*
X146115506Y-97900537D01*
X146225820Y-97959502D01*
X146306466Y-97983966D01*
X146222412Y-98059731D01*
X146048359Y-98293080D01*
X145923175Y-98555901D01*
X145878524Y-98703110D01*
X145999845Y-98933000D01*
X147193000Y-98933000D01*
X147193000Y-96647000D01*
X147447000Y-96647000D01*
X147447000Y-98933000D01*
X148640155Y-98933000D01*
X148761476Y-98703110D01*
X148716825Y-98555901D01*
X148591641Y-98293080D01*
X148417588Y-98059731D01*
X148333534Y-97983966D01*
X148414180Y-97959502D01*
X148524494Y-97900537D01*
X148621185Y-97821185D01*
X148700537Y-97724494D01*
X148759502Y-97614180D01*
X148795812Y-97494482D01*
X148808072Y-97370000D01*
X148805000Y-96805750D01*
X148646250Y-96647000D01*
X147447000Y-96647000D01*
X147193000Y-96647000D01*
X145993750Y-96647000D01*
X145835000Y-96805750D01*
X145831928Y-97370000D01*
X92100000Y-97370000D01*
X92100000Y-95670000D01*
X145831928Y-95670000D01*
X145835000Y-96234250D01*
X145993750Y-96393000D01*
X147193000Y-96393000D01*
X147193000Y-95193750D01*
X147447000Y-95193750D01*
X147447000Y-96393000D01*
X148646250Y-96393000D01*
X148805000Y-96234250D01*
X148808072Y-95670000D01*
X148795812Y-95545518D01*
X148759502Y-95425820D01*
X148700537Y-95315506D01*
X148621185Y-95218815D01*
X148524494Y-95139463D01*
X148414180Y-95080498D01*
X148294482Y-95044188D01*
X148170000Y-95031928D01*
X147605750Y-95035000D01*
X147447000Y-95193750D01*
X147193000Y-95193750D01*
X147034250Y-95035000D01*
X146470000Y-95031928D01*
X146345518Y-95044188D01*
X146225820Y-95080498D01*
X146115506Y-95139463D01*
X146018815Y-95218815D01*
X145939463Y-95315506D01*
X145880498Y-95425820D01*
X145844188Y-95545518D01*
X145831928Y-95670000D01*
X92100000Y-95670000D01*
X92100000Y-90957061D01*
X132188000Y-90957061D01*
X132188000Y-91160939D01*
X132227774Y-91360898D01*
X132305795Y-91549256D01*
X132419063Y-91718774D01*
X132563226Y-91862937D01*
X132732744Y-91976205D01*
X132921102Y-92054226D01*
X133121061Y-92094000D01*
X133324939Y-92094000D01*
X133524898Y-92054226D01*
X133713256Y-91976205D01*
X133882774Y-91862937D01*
X134026937Y-91718774D01*
X134140205Y-91549256D01*
X134218226Y-91360898D01*
X134258000Y-91160939D01*
X134258000Y-90957061D01*
X134218226Y-90757102D01*
X134140205Y-90568744D01*
X134026937Y-90399226D01*
X133882774Y-90255063D01*
X133713256Y-90141795D01*
X133524898Y-90063774D01*
X133324939Y-90024000D01*
X133121061Y-90024000D01*
X132921102Y-90063774D01*
X132732744Y-90141795D01*
X132563226Y-90255063D01*
X132419063Y-90399226D01*
X132305795Y-90568744D01*
X132227774Y-90757102D01*
X132188000Y-90957061D01*
X92100000Y-90957061D01*
X92100000Y-88925061D01*
X123552000Y-88925061D01*
X123552000Y-89128939D01*
X123591774Y-89328898D01*
X123669795Y-89517256D01*
X123783063Y-89686774D01*
X123927226Y-89830937D01*
X124096744Y-89944205D01*
X124285102Y-90022226D01*
X124485061Y-90062000D01*
X124688939Y-90062000D01*
X124888898Y-90022226D01*
X125077256Y-89944205D01*
X125246774Y-89830937D01*
X125390937Y-89686774D01*
X125504205Y-89517256D01*
X125582226Y-89328898D01*
X125622000Y-89128939D01*
X125622000Y-88925061D01*
X125582226Y-88725102D01*
X125504205Y-88536744D01*
X125390937Y-88367226D01*
X125246774Y-88223063D01*
X125077256Y-88109795D01*
X124888898Y-88031774D01*
X124688939Y-87992000D01*
X124485061Y-87992000D01*
X124285102Y-88031774D01*
X124096744Y-88109795D01*
X123927226Y-88223063D01*
X123783063Y-88367226D01*
X123669795Y-88536744D01*
X123591774Y-88725102D01*
X123552000Y-88925061D01*
X92100000Y-88925061D01*
X92100000Y-86766061D01*
X131680000Y-86766061D01*
X131680000Y-86969939D01*
X131719774Y-87169898D01*
X131797795Y-87358256D01*
X131911063Y-87527774D01*
X132055226Y-87671937D01*
X132224744Y-87785205D01*
X132413102Y-87863226D01*
X132613061Y-87903000D01*
X132816939Y-87903000D01*
X133016898Y-87863226D01*
X133205256Y-87785205D01*
X133374774Y-87671937D01*
X133518937Y-87527774D01*
X133632205Y-87358256D01*
X133710226Y-87169898D01*
X133750000Y-86969939D01*
X133750000Y-86766061D01*
X133710226Y-86566102D01*
X133632205Y-86377744D01*
X133518937Y-86208226D01*
X133374774Y-86064063D01*
X133205256Y-85950795D01*
X133016898Y-85872774D01*
X132816939Y-85833000D01*
X132613061Y-85833000D01*
X132413102Y-85872774D01*
X132224744Y-85950795D01*
X132055226Y-86064063D01*
X131911063Y-86208226D01*
X131797795Y-86377744D01*
X131719774Y-86566102D01*
X131680000Y-86766061D01*
X92100000Y-86766061D01*
X92100000Y-84480061D01*
X109709000Y-84480061D01*
X109709000Y-84683939D01*
X109748774Y-84883898D01*
X109826795Y-85072256D01*
X109940063Y-85241774D01*
X110084226Y-85385937D01*
X110253744Y-85499205D01*
X110442102Y-85577226D01*
X110642061Y-85617000D01*
X110845939Y-85617000D01*
X111045898Y-85577226D01*
X111234256Y-85499205D01*
X111403774Y-85385937D01*
X111547650Y-85242061D01*
X125711000Y-85242061D01*
X125711000Y-85445939D01*
X125750774Y-85645898D01*
X125828795Y-85834256D01*
X125942063Y-86003774D01*
X126086226Y-86147937D01*
X126255744Y-86261205D01*
X126444102Y-86339226D01*
X126644061Y-86379000D01*
X126847939Y-86379000D01*
X127047898Y-86339226D01*
X127236256Y-86261205D01*
X127405774Y-86147937D01*
X127549937Y-86003774D01*
X127663205Y-85834256D01*
X127741226Y-85645898D01*
X127781000Y-85445939D01*
X127781000Y-85242061D01*
X127741226Y-85042102D01*
X127663205Y-84853744D01*
X127549937Y-84684226D01*
X127405774Y-84540063D01*
X127236256Y-84426795D01*
X127047898Y-84348774D01*
X126847939Y-84309000D01*
X126644061Y-84309000D01*
X126444102Y-84348774D01*
X126255744Y-84426795D01*
X126086226Y-84540063D01*
X125942063Y-84684226D01*
X125828795Y-84853744D01*
X125750774Y-85042102D01*
X125711000Y-85242061D01*
X111547650Y-85242061D01*
X111547937Y-85241774D01*
X111661205Y-85072256D01*
X111739226Y-84883898D01*
X111779000Y-84683939D01*
X111779000Y-84480061D01*
X111739226Y-84280102D01*
X111661205Y-84091744D01*
X111547937Y-83922226D01*
X111403774Y-83778063D01*
X111234256Y-83664795D01*
X111056248Y-83591061D01*
X114789000Y-83591061D01*
X114789000Y-83794939D01*
X114828774Y-83994898D01*
X114906795Y-84183256D01*
X115020063Y-84352774D01*
X115164226Y-84496937D01*
X115333744Y-84610205D01*
X115522102Y-84688226D01*
X115722061Y-84728000D01*
X115925939Y-84728000D01*
X116125898Y-84688226D01*
X116314256Y-84610205D01*
X116483774Y-84496937D01*
X116627937Y-84352774D01*
X116741205Y-84183256D01*
X116819226Y-83994898D01*
X116823768Y-83972061D01*
X135617000Y-83972061D01*
X135617000Y-84175939D01*
X135656774Y-84375898D01*
X135734795Y-84564256D01*
X135848063Y-84733774D01*
X135992226Y-84877937D01*
X136161744Y-84991205D01*
X136350102Y-85069226D01*
X136550061Y-85109000D01*
X136753939Y-85109000D01*
X136953898Y-85069226D01*
X137142256Y-84991205D01*
X137311774Y-84877937D01*
X137455937Y-84733774D01*
X137569205Y-84564256D01*
X137647226Y-84375898D01*
X137687000Y-84175939D01*
X137687000Y-83972061D01*
X137647226Y-83772102D01*
X137569205Y-83583744D01*
X137455937Y-83414226D01*
X137311774Y-83270063D01*
X137142256Y-83156795D01*
X136953898Y-83078774D01*
X136753939Y-83039000D01*
X136550061Y-83039000D01*
X136350102Y-83078774D01*
X136161744Y-83156795D01*
X135992226Y-83270063D01*
X135848063Y-83414226D01*
X135734795Y-83583744D01*
X135656774Y-83772102D01*
X135617000Y-83972061D01*
X116823768Y-83972061D01*
X116859000Y-83794939D01*
X116859000Y-83591061D01*
X116851330Y-83552500D01*
X116887898Y-83545226D01*
X117076256Y-83467205D01*
X117245774Y-83353937D01*
X117302059Y-83297652D01*
X117365744Y-83340205D01*
X117554102Y-83418226D01*
X117754061Y-83458000D01*
X117957939Y-83458000D01*
X118157898Y-83418226D01*
X118346256Y-83340205D01*
X118515774Y-83226937D01*
X118659937Y-83082774D01*
X118773205Y-82913256D01*
X118851226Y-82724898D01*
X118855768Y-82702061D01*
X140443000Y-82702061D01*
X140443000Y-82905939D01*
X140482774Y-83105898D01*
X140560795Y-83294256D01*
X140674063Y-83463774D01*
X140818226Y-83607937D01*
X140987744Y-83721205D01*
X141176102Y-83799226D01*
X141376061Y-83839000D01*
X141579939Y-83839000D01*
X141779898Y-83799226D01*
X141968256Y-83721205D01*
X142137774Y-83607937D01*
X142281937Y-83463774D01*
X142395205Y-83294256D01*
X142473226Y-83105898D01*
X142513000Y-82905939D01*
X142513000Y-82821794D01*
X142519061Y-82823000D01*
X142722939Y-82823000D01*
X142922898Y-82783226D01*
X143111256Y-82705205D01*
X143280774Y-82591937D01*
X143424937Y-82447774D01*
X143538205Y-82278256D01*
X143616226Y-82089898D01*
X143656000Y-81889939D01*
X143656000Y-81686061D01*
X143616226Y-81486102D01*
X143538205Y-81297744D01*
X143424937Y-81128226D01*
X143280774Y-80984063D01*
X143111256Y-80870795D01*
X142922898Y-80792774D01*
X142722939Y-80753000D01*
X142519061Y-80753000D01*
X142319102Y-80792774D01*
X142130744Y-80870795D01*
X141961226Y-80984063D01*
X141817063Y-81128226D01*
X141703795Y-81297744D01*
X141625774Y-81486102D01*
X141586000Y-81686061D01*
X141586000Y-81770206D01*
X141579939Y-81769000D01*
X141376061Y-81769000D01*
X141176102Y-81808774D01*
X140987744Y-81886795D01*
X140818226Y-82000063D01*
X140674063Y-82144226D01*
X140560795Y-82313744D01*
X140482774Y-82502102D01*
X140443000Y-82702061D01*
X118855768Y-82702061D01*
X118891000Y-82524939D01*
X118891000Y-82321061D01*
X118851226Y-82121102D01*
X118773205Y-81932744D01*
X118659937Y-81763226D01*
X118515774Y-81619063D01*
X118346256Y-81505795D01*
X118157898Y-81427774D01*
X117957939Y-81388000D01*
X117754061Y-81388000D01*
X117554102Y-81427774D01*
X117365744Y-81505795D01*
X117196226Y-81619063D01*
X117139941Y-81675348D01*
X117076256Y-81632795D01*
X116887898Y-81554774D01*
X116687939Y-81515000D01*
X116484061Y-81515000D01*
X116284102Y-81554774D01*
X116095744Y-81632795D01*
X115926226Y-81746063D01*
X115782063Y-81890226D01*
X115668795Y-82059744D01*
X115590774Y-82248102D01*
X115551000Y-82448061D01*
X115551000Y-82651939D01*
X115558670Y-82690500D01*
X115522102Y-82697774D01*
X115333744Y-82775795D01*
X115164226Y-82889063D01*
X115020063Y-83033226D01*
X114906795Y-83202744D01*
X114828774Y-83391102D01*
X114789000Y-83591061D01*
X111056248Y-83591061D01*
X111045898Y-83586774D01*
X110845939Y-83547000D01*
X110642061Y-83547000D01*
X110442102Y-83586774D01*
X110253744Y-83664795D01*
X110084226Y-83778063D01*
X109940063Y-83922226D01*
X109826795Y-84091744D01*
X109748774Y-84280102D01*
X109709000Y-84480061D01*
X92100000Y-84480061D01*
X92100000Y-80416061D01*
X110344000Y-80416061D01*
X110344000Y-80619939D01*
X110383774Y-80819898D01*
X110461795Y-81008256D01*
X110575063Y-81177774D01*
X110719226Y-81321937D01*
X110888744Y-81435205D01*
X111077102Y-81513226D01*
X111277061Y-81553000D01*
X111480939Y-81553000D01*
X111680898Y-81513226D01*
X111869256Y-81435205D01*
X112038774Y-81321937D01*
X112182937Y-81177774D01*
X112296205Y-81008256D01*
X112374226Y-80819898D01*
X112414000Y-80619939D01*
X112414000Y-80416061D01*
X112374226Y-80216102D01*
X112296205Y-80027744D01*
X112182937Y-79858226D01*
X112038774Y-79714063D01*
X111869256Y-79600795D01*
X111680898Y-79522774D01*
X111480939Y-79483000D01*
X111277061Y-79483000D01*
X111077102Y-79522774D01*
X110888744Y-79600795D01*
X110719226Y-79714063D01*
X110575063Y-79858226D01*
X110461795Y-80027744D01*
X110383774Y-80216102D01*
X110344000Y-80416061D01*
X92100000Y-80416061D01*
X92100000Y-73513740D01*
X92495000Y-73513740D01*
X92495000Y-73806260D01*
X92552068Y-74093158D01*
X92664010Y-74363411D01*
X92826525Y-74606632D01*
X93033368Y-74813475D01*
X93207760Y-74930000D01*
X93033368Y-75046525D01*
X92826525Y-75253368D01*
X92664010Y-75496589D01*
X92552068Y-75766842D01*
X92495000Y-76053740D01*
X92495000Y-76346260D01*
X92552068Y-76633158D01*
X92664010Y-76903411D01*
X92826525Y-77146632D01*
X93033368Y-77353475D01*
X93276589Y-77515990D01*
X93546842Y-77627932D01*
X93833740Y-77685000D01*
X94126260Y-77685000D01*
X94413158Y-77627932D01*
X94683411Y-77515990D01*
X94926632Y-77353475D01*
X95026046Y-77254061D01*
X110331000Y-77254061D01*
X110331000Y-77457939D01*
X110370774Y-77657898D01*
X110448795Y-77846256D01*
X110562063Y-78015774D01*
X110706226Y-78159937D01*
X110875744Y-78273205D01*
X111064102Y-78351226D01*
X111264061Y-78391000D01*
X111467939Y-78391000D01*
X111667898Y-78351226D01*
X111856256Y-78273205D01*
X112025774Y-78159937D01*
X112169937Y-78015774D01*
X112283205Y-77846256D01*
X112361226Y-77657898D01*
X112401000Y-77457939D01*
X112401000Y-77254061D01*
X112361226Y-77054102D01*
X112283205Y-76865744D01*
X112169937Y-76696226D01*
X112025774Y-76552063D01*
X111856256Y-76438795D01*
X111667898Y-76360774D01*
X111467939Y-76321000D01*
X111264061Y-76321000D01*
X111064102Y-76360774D01*
X110875744Y-76438795D01*
X110706226Y-76552063D01*
X110562063Y-76696226D01*
X110448795Y-76865744D01*
X110370774Y-77054102D01*
X110331000Y-77254061D01*
X95026046Y-77254061D01*
X95133475Y-77146632D01*
X95295990Y-76903411D01*
X95407932Y-76633158D01*
X95465000Y-76346260D01*
X95465000Y-76053740D01*
X95407932Y-75766842D01*
X95295990Y-75496589D01*
X95188729Y-75336061D01*
X140951000Y-75336061D01*
X140951000Y-75539939D01*
X140990774Y-75739898D01*
X141068795Y-75928256D01*
X141182063Y-76097774D01*
X141326226Y-76241937D01*
X141495744Y-76355205D01*
X141684102Y-76433226D01*
X141884061Y-76473000D01*
X142087939Y-76473000D01*
X142287898Y-76433226D01*
X142476256Y-76355205D01*
X142645774Y-76241937D01*
X142789937Y-76097774D01*
X142903205Y-75928256D01*
X142981226Y-75739898D01*
X143021000Y-75539939D01*
X143021000Y-75336061D01*
X142981226Y-75136102D01*
X142903205Y-74947744D01*
X142789937Y-74778226D01*
X142645774Y-74634063D01*
X142476256Y-74520795D01*
X142287898Y-74442774D01*
X142087939Y-74403000D01*
X141884061Y-74403000D01*
X141684102Y-74442774D01*
X141495744Y-74520795D01*
X141326226Y-74634063D01*
X141182063Y-74778226D01*
X141068795Y-74947744D01*
X140990774Y-75136102D01*
X140951000Y-75336061D01*
X95188729Y-75336061D01*
X95133475Y-75253368D01*
X94926632Y-75046525D01*
X94752240Y-74930000D01*
X94926632Y-74813475D01*
X95133475Y-74606632D01*
X95295990Y-74363411D01*
X95407932Y-74093158D01*
X95465000Y-73806260D01*
X95465000Y-73513740D01*
X95448554Y-73431061D01*
X101200000Y-73431061D01*
X101200000Y-73634939D01*
X101239774Y-73834898D01*
X101317795Y-74023256D01*
X101431063Y-74192774D01*
X101575226Y-74336937D01*
X101744744Y-74450205D01*
X101933102Y-74528226D01*
X102133061Y-74568000D01*
X102336939Y-74568000D01*
X102536898Y-74528226D01*
X102725256Y-74450205D01*
X102894774Y-74336937D01*
X103038937Y-74192774D01*
X103152205Y-74023256D01*
X103230226Y-73834898D01*
X103270000Y-73634939D01*
X103270000Y-73558061D01*
X114281000Y-73558061D01*
X114281000Y-73761939D01*
X114320774Y-73961898D01*
X114398795Y-74150256D01*
X114512063Y-74319774D01*
X114656226Y-74463937D01*
X114825744Y-74577205D01*
X115014102Y-74655226D01*
X115214061Y-74695000D01*
X115417939Y-74695000D01*
X115617898Y-74655226D01*
X115806256Y-74577205D01*
X115869941Y-74534652D01*
X115926226Y-74590937D01*
X116095744Y-74704205D01*
X116284102Y-74782226D01*
X116484061Y-74822000D01*
X116687939Y-74822000D01*
X116887898Y-74782226D01*
X117076256Y-74704205D01*
X117221000Y-74607490D01*
X117365744Y-74704205D01*
X117554102Y-74782226D01*
X117754061Y-74822000D01*
X117957939Y-74822000D01*
X118157898Y-74782226D01*
X118346256Y-74704205D01*
X118515774Y-74590937D01*
X118659937Y-74446774D01*
X118773205Y-74277256D01*
X118851226Y-74088898D01*
X118891000Y-73888939D01*
X118891000Y-73685061D01*
X118851226Y-73485102D01*
X118773205Y-73296744D01*
X118659937Y-73127226D01*
X118515774Y-72983063D01*
X118346256Y-72869795D01*
X118157898Y-72791774D01*
X117957939Y-72752000D01*
X117754061Y-72752000D01*
X117554102Y-72791774D01*
X117365744Y-72869795D01*
X117221000Y-72966510D01*
X117076256Y-72869795D01*
X116887898Y-72791774D01*
X116687939Y-72752000D01*
X116484061Y-72752000D01*
X116284102Y-72791774D01*
X116095744Y-72869795D01*
X116032059Y-72912348D01*
X115975774Y-72856063D01*
X115806256Y-72742795D01*
X115617898Y-72664774D01*
X115417939Y-72625000D01*
X115214061Y-72625000D01*
X115014102Y-72664774D01*
X114825744Y-72742795D01*
X114656226Y-72856063D01*
X114512063Y-73000226D01*
X114398795Y-73169744D01*
X114320774Y-73358102D01*
X114281000Y-73558061D01*
X103270000Y-73558061D01*
X103270000Y-73431061D01*
X103230226Y-73231102D01*
X103152205Y-73042744D01*
X103038937Y-72873226D01*
X102894774Y-72729063D01*
X102725256Y-72615795D01*
X102536898Y-72537774D01*
X102336939Y-72498000D01*
X102133061Y-72498000D01*
X101933102Y-72537774D01*
X101744744Y-72615795D01*
X101575226Y-72729063D01*
X101431063Y-72873226D01*
X101317795Y-73042744D01*
X101239774Y-73231102D01*
X101200000Y-73431061D01*
X95448554Y-73431061D01*
X95407932Y-73226842D01*
X95295990Y-72956589D01*
X95133475Y-72713368D01*
X94926632Y-72506525D01*
X94789748Y-72415061D01*
X126600000Y-72415061D01*
X126600000Y-72618939D01*
X126639774Y-72818898D01*
X126717795Y-73007256D01*
X126831063Y-73176774D01*
X126975226Y-73320937D01*
X127144744Y-73434205D01*
X127333102Y-73512226D01*
X127533061Y-73552000D01*
X127736939Y-73552000D01*
X127929286Y-73513740D01*
X145835000Y-73513740D01*
X145835000Y-73806260D01*
X145892068Y-74093158D01*
X146004010Y-74363411D01*
X146166525Y-74606632D01*
X146373368Y-74813475D01*
X146547760Y-74930000D01*
X146373368Y-75046525D01*
X146166525Y-75253368D01*
X146004010Y-75496589D01*
X145892068Y-75766842D01*
X145835000Y-76053740D01*
X145835000Y-76346260D01*
X145892068Y-76633158D01*
X146004010Y-76903411D01*
X146166525Y-77146632D01*
X146373368Y-77353475D01*
X146616589Y-77515990D01*
X146886842Y-77627932D01*
X147173740Y-77685000D01*
X147466260Y-77685000D01*
X147753158Y-77627932D01*
X148023411Y-77515990D01*
X148266632Y-77353475D01*
X148473475Y-77146632D01*
X148635990Y-76903411D01*
X148747932Y-76633158D01*
X148805000Y-76346260D01*
X148805000Y-76053740D01*
X148747932Y-75766842D01*
X148635990Y-75496589D01*
X148473475Y-75253368D01*
X148266632Y-75046525D01*
X148092240Y-74930000D01*
X148266632Y-74813475D01*
X148473475Y-74606632D01*
X148635990Y-74363411D01*
X148747932Y-74093158D01*
X148805000Y-73806260D01*
X148805000Y-73513740D01*
X148747932Y-73226842D01*
X148635990Y-72956589D01*
X148473475Y-72713368D01*
X148266632Y-72506525D01*
X148084466Y-72384805D01*
X148201355Y-72315178D01*
X148417588Y-72120269D01*
X148591641Y-71886920D01*
X148716825Y-71624099D01*
X148761476Y-71476890D01*
X148640155Y-71247000D01*
X147447000Y-71247000D01*
X147447000Y-71267000D01*
X147193000Y-71267000D01*
X147193000Y-71247000D01*
X145999845Y-71247000D01*
X145878524Y-71476890D01*
X145923175Y-71624099D01*
X146048359Y-71886920D01*
X146222412Y-72120269D01*
X146438645Y-72315178D01*
X146555534Y-72384805D01*
X146373368Y-72506525D01*
X146166525Y-72713368D01*
X146004010Y-72956589D01*
X145892068Y-73226842D01*
X145835000Y-73513740D01*
X127929286Y-73513740D01*
X127936898Y-73512226D01*
X128125256Y-73434205D01*
X128294774Y-73320937D01*
X128438937Y-73176774D01*
X128552205Y-73007256D01*
X128630226Y-72818898D01*
X128670000Y-72618939D01*
X128670000Y-72415061D01*
X128630226Y-72215102D01*
X128552205Y-72026744D01*
X128438937Y-71857226D01*
X128294774Y-71713063D01*
X128125256Y-71599795D01*
X127936898Y-71521774D01*
X127736939Y-71482000D01*
X127533061Y-71482000D01*
X127333102Y-71521774D01*
X127144744Y-71599795D01*
X126975226Y-71713063D01*
X126831063Y-71857226D01*
X126717795Y-72026744D01*
X126639774Y-72215102D01*
X126600000Y-72415061D01*
X94789748Y-72415061D01*
X94744466Y-72384805D01*
X94861355Y-72315178D01*
X95077588Y-72120269D01*
X95251641Y-71886920D01*
X95376825Y-71624099D01*
X95421476Y-71476890D01*
X95313381Y-71272061D01*
X136252000Y-71272061D01*
X136252000Y-71475939D01*
X136291774Y-71675898D01*
X136369795Y-71864256D01*
X136483063Y-72033774D01*
X136627226Y-72177937D01*
X136796744Y-72291205D01*
X136985102Y-72369226D01*
X137185061Y-72409000D01*
X137388939Y-72409000D01*
X137588898Y-72369226D01*
X137777256Y-72291205D01*
X137946774Y-72177937D01*
X138090937Y-72033774D01*
X138204205Y-71864256D01*
X138282226Y-71675898D01*
X138322000Y-71475939D01*
X138322000Y-71272061D01*
X138282226Y-71072102D01*
X138204205Y-70883744D01*
X138090937Y-70714226D01*
X137946774Y-70570063D01*
X137777256Y-70456795D01*
X137588898Y-70378774D01*
X137388939Y-70339000D01*
X137185061Y-70339000D01*
X136985102Y-70378774D01*
X136796744Y-70456795D01*
X136627226Y-70570063D01*
X136483063Y-70714226D01*
X136369795Y-70883744D01*
X136291774Y-71072102D01*
X136252000Y-71272061D01*
X95313381Y-71272061D01*
X95300155Y-71247000D01*
X94107000Y-71247000D01*
X94107000Y-71267000D01*
X93853000Y-71267000D01*
X93853000Y-71247000D01*
X92659845Y-71247000D01*
X92538524Y-71476890D01*
X92583175Y-71624099D01*
X92708359Y-71886920D01*
X92882412Y-72120269D01*
X93098645Y-72315178D01*
X93215534Y-72384805D01*
X93033368Y-72506525D01*
X92826525Y-72713368D01*
X92664010Y-72956589D01*
X92552068Y-73226842D01*
X92495000Y-73513740D01*
X92100000Y-73513740D01*
X92100000Y-69430000D01*
X92491928Y-69430000D01*
X92504188Y-69554482D01*
X92540498Y-69674180D01*
X92599463Y-69784494D01*
X92678815Y-69881185D01*
X92775506Y-69960537D01*
X92885820Y-70019502D01*
X92966466Y-70043966D01*
X92882412Y-70119731D01*
X92708359Y-70353080D01*
X92583175Y-70615901D01*
X92538524Y-70763110D01*
X92659845Y-70993000D01*
X93853000Y-70993000D01*
X93853000Y-68707000D01*
X94107000Y-68707000D01*
X94107000Y-70993000D01*
X95300155Y-70993000D01*
X95421476Y-70763110D01*
X95376825Y-70615901D01*
X95251641Y-70353080D01*
X95077588Y-70119731D01*
X94993534Y-70043966D01*
X95074180Y-70019502D01*
X95184494Y-69960537D01*
X95281185Y-69881185D01*
X95360537Y-69784494D01*
X95419502Y-69674180D01*
X95455812Y-69554482D01*
X95468072Y-69430000D01*
X145831928Y-69430000D01*
X145844188Y-69554482D01*
X145880498Y-69674180D01*
X145939463Y-69784494D01*
X146018815Y-69881185D01*
X146115506Y-69960537D01*
X146225820Y-70019502D01*
X146306466Y-70043966D01*
X146222412Y-70119731D01*
X146048359Y-70353080D01*
X145923175Y-70615901D01*
X145878524Y-70763110D01*
X145999845Y-70993000D01*
X147193000Y-70993000D01*
X147193000Y-68707000D01*
X147447000Y-68707000D01*
X147447000Y-70993000D01*
X148640155Y-70993000D01*
X148761476Y-70763110D01*
X148716825Y-70615901D01*
X148591641Y-70353080D01*
X148417588Y-70119731D01*
X148333534Y-70043966D01*
X148414180Y-70019502D01*
X148524494Y-69960537D01*
X148621185Y-69881185D01*
X148700537Y-69784494D01*
X148759502Y-69674180D01*
X148795812Y-69554482D01*
X148808072Y-69430000D01*
X148805000Y-68865750D01*
X148646250Y-68707000D01*
X147447000Y-68707000D01*
X147193000Y-68707000D01*
X145993750Y-68707000D01*
X145835000Y-68865750D01*
X145831928Y-69430000D01*
X95468072Y-69430000D01*
X95465000Y-68865750D01*
X95306250Y-68707000D01*
X94107000Y-68707000D01*
X93853000Y-68707000D01*
X92653750Y-68707000D01*
X92495000Y-68865750D01*
X92491928Y-69430000D01*
X92100000Y-69430000D01*
X92100000Y-67730000D01*
X92491928Y-67730000D01*
X92495000Y-68294250D01*
X92653750Y-68453000D01*
X93853000Y-68453000D01*
X93853000Y-67253750D01*
X94107000Y-67253750D01*
X94107000Y-68453000D01*
X95306250Y-68453000D01*
X95465000Y-68294250D01*
X95468072Y-67730000D01*
X145831928Y-67730000D01*
X145835000Y-68294250D01*
X145993750Y-68453000D01*
X147193000Y-68453000D01*
X147193000Y-67253750D01*
X147447000Y-67253750D01*
X147447000Y-68453000D01*
X148646250Y-68453000D01*
X148805000Y-68294250D01*
X148808072Y-67730000D01*
X148795812Y-67605518D01*
X148759502Y-67485820D01*
X148700537Y-67375506D01*
X148621185Y-67278815D01*
X148524494Y-67199463D01*
X148414180Y-67140498D01*
X148294482Y-67104188D01*
X148170000Y-67091928D01*
X147605750Y-67095000D01*
X147447000Y-67253750D01*
X147193000Y-67253750D01*
X147034250Y-67095000D01*
X146470000Y-67091928D01*
X146345518Y-67104188D01*
X146225820Y-67140498D01*
X146115506Y-67199463D01*
X146018815Y-67278815D01*
X145939463Y-67375506D01*
X145880498Y-67485820D01*
X145844188Y-67605518D01*
X145831928Y-67730000D01*
X95468072Y-67730000D01*
X95455812Y-67605518D01*
X95419502Y-67485820D01*
X95360537Y-67375506D01*
X95281185Y-67278815D01*
X95184494Y-67199463D01*
X95074180Y-67140498D01*
X94954482Y-67104188D01*
X94830000Y-67091928D01*
X94265750Y-67095000D01*
X94107000Y-67253750D01*
X93853000Y-67253750D01*
X93694250Y-67095000D01*
X93130000Y-67091928D01*
X93005518Y-67104188D01*
X92885820Y-67140498D01*
X92775506Y-67199463D01*
X92678815Y-67278815D01*
X92599463Y-67375506D01*
X92540498Y-67485820D01*
X92504188Y-67605518D01*
X92491928Y-67730000D01*
X92100000Y-67730000D01*
X92100000Y-66700000D01*
X149200001Y-66700000D01*
X149200000Y-116180000D01*
G37*
G04 #@! TD.AperFunction*
M02*
