G04 #@! TF.GenerationSoftware,KiCad,Pcbnew,5.1.6-c6e7f7d~87~ubuntu18.04.1*
G04 #@! TF.CreationDate,2020-08-19T17:04:45-04:00*
G04 #@! TF.ProjectId,late_MS20_VCF_plug_in_board,6c617465-5f4d-4533-9230-5f5643465f70,0*
G04 #@! TF.SameCoordinates,Original*
G04 #@! TF.FileFunction,Soldermask,Top*
G04 #@! TF.FilePolarity,Negative*
%FSLAX46Y46*%
G04 Gerber Fmt 4.6, Leading zero omitted, Abs format (unit mm)*
G04 Created by KiCad (PCBNEW 5.1.6-c6e7f7d~87~ubuntu18.04.1) date 2020-08-19 17:04:45*
%MOMM*%
%LPD*%
G01*
G04 APERTURE LIST*
%ADD10C,0.100000*%
G04 APERTURE END LIST*
D10*
G36*
X147433512Y-113403927D02*
G01*
X147582812Y-113433624D01*
X147746784Y-113501544D01*
X147894354Y-113600147D01*
X148019853Y-113725646D01*
X148118456Y-113873216D01*
X148186376Y-114037188D01*
X148221000Y-114211259D01*
X148221000Y-114388741D01*
X148186376Y-114562812D01*
X148118456Y-114726784D01*
X148019853Y-114874354D01*
X147894354Y-114999853D01*
X147746784Y-115098456D01*
X147582812Y-115166376D01*
X147446271Y-115193535D01*
X147408742Y-115201000D01*
X147231258Y-115201000D01*
X147193729Y-115193535D01*
X147057188Y-115166376D01*
X146893216Y-115098456D01*
X146745646Y-114999853D01*
X146620147Y-114874354D01*
X146521544Y-114726784D01*
X146453624Y-114562812D01*
X146419000Y-114388741D01*
X146419000Y-114211259D01*
X146453624Y-114037188D01*
X146521544Y-113873216D01*
X146620147Y-113725646D01*
X146745646Y-113600147D01*
X146893216Y-113501544D01*
X147057188Y-113433624D01*
X147206488Y-113403927D01*
X147231258Y-113399000D01*
X147408742Y-113399000D01*
X147433512Y-113403927D01*
G37*
G36*
X94093512Y-113403927D02*
G01*
X94242812Y-113433624D01*
X94406784Y-113501544D01*
X94554354Y-113600147D01*
X94679853Y-113725646D01*
X94778456Y-113873216D01*
X94846376Y-114037188D01*
X94881000Y-114211259D01*
X94881000Y-114388741D01*
X94846376Y-114562812D01*
X94778456Y-114726784D01*
X94679853Y-114874354D01*
X94554354Y-114999853D01*
X94406784Y-115098456D01*
X94242812Y-115166376D01*
X94106271Y-115193535D01*
X94068742Y-115201000D01*
X93891258Y-115201000D01*
X93853729Y-115193535D01*
X93717188Y-115166376D01*
X93553216Y-115098456D01*
X93405646Y-114999853D01*
X93280147Y-114874354D01*
X93181544Y-114726784D01*
X93113624Y-114562812D01*
X93079000Y-114388741D01*
X93079000Y-114211259D01*
X93113624Y-114037188D01*
X93181544Y-113873216D01*
X93280147Y-113725646D01*
X93405646Y-113600147D01*
X93553216Y-113501544D01*
X93717188Y-113433624D01*
X93866488Y-113403927D01*
X93891258Y-113399000D01*
X94068742Y-113399000D01*
X94093512Y-113403927D01*
G37*
G36*
X119714674Y-113950465D02*
G01*
X119752367Y-113961899D01*
X119787103Y-113980466D01*
X119817548Y-114005452D01*
X119842534Y-114035897D01*
X119861101Y-114070633D01*
X119872535Y-114108326D01*
X119877000Y-114153661D01*
X119877000Y-114990339D01*
X119872535Y-115035674D01*
X119861101Y-115073367D01*
X119842534Y-115108103D01*
X119817548Y-115138548D01*
X119787103Y-115163534D01*
X119752367Y-115182101D01*
X119714674Y-115193535D01*
X119669339Y-115198000D01*
X118582661Y-115198000D01*
X118537326Y-115193535D01*
X118499633Y-115182101D01*
X118464897Y-115163534D01*
X118434452Y-115138548D01*
X118409466Y-115108103D01*
X118390899Y-115073367D01*
X118379465Y-115035674D01*
X118375000Y-114990339D01*
X118375000Y-114153661D01*
X118379465Y-114108326D01*
X118390899Y-114070633D01*
X118409466Y-114035897D01*
X118434452Y-114005452D01*
X118464897Y-113980466D01*
X118499633Y-113961899D01*
X118537326Y-113950465D01*
X118582661Y-113946000D01*
X119669339Y-113946000D01*
X119714674Y-113950465D01*
G37*
G36*
X141179674Y-113553465D02*
G01*
X141217367Y-113564899D01*
X141252103Y-113583466D01*
X141282548Y-113608452D01*
X141307534Y-113638897D01*
X141326101Y-113673633D01*
X141337535Y-113711326D01*
X141342000Y-113756661D01*
X141342000Y-114843339D01*
X141337535Y-114888674D01*
X141326101Y-114926367D01*
X141307534Y-114961103D01*
X141282548Y-114991548D01*
X141252103Y-115016534D01*
X141217367Y-115035101D01*
X141179674Y-115046535D01*
X141134339Y-115051000D01*
X140297661Y-115051000D01*
X140252326Y-115046535D01*
X140214633Y-115035101D01*
X140179897Y-115016534D01*
X140149452Y-114991548D01*
X140124466Y-114961103D01*
X140105899Y-114926367D01*
X140094465Y-114888674D01*
X140090000Y-114843339D01*
X140090000Y-113756661D01*
X140094465Y-113711326D01*
X140105899Y-113673633D01*
X140124466Y-113638897D01*
X140149452Y-113608452D01*
X140179897Y-113583466D01*
X140214633Y-113564899D01*
X140252326Y-113553465D01*
X140297661Y-113549000D01*
X141134339Y-113549000D01*
X141179674Y-113553465D01*
G37*
G36*
X143229674Y-113553465D02*
G01*
X143267367Y-113564899D01*
X143302103Y-113583466D01*
X143332548Y-113608452D01*
X143357534Y-113638897D01*
X143376101Y-113673633D01*
X143387535Y-113711326D01*
X143392000Y-113756661D01*
X143392000Y-114843339D01*
X143387535Y-114888674D01*
X143376101Y-114926367D01*
X143357534Y-114961103D01*
X143332548Y-114991548D01*
X143302103Y-115016534D01*
X143267367Y-115035101D01*
X143229674Y-115046535D01*
X143184339Y-115051000D01*
X142347661Y-115051000D01*
X142302326Y-115046535D01*
X142264633Y-115035101D01*
X142229897Y-115016534D01*
X142199452Y-114991548D01*
X142174466Y-114961103D01*
X142155899Y-114926367D01*
X142144465Y-114888674D01*
X142140000Y-114843339D01*
X142140000Y-113756661D01*
X142144465Y-113711326D01*
X142155899Y-113673633D01*
X142174466Y-113638897D01*
X142199452Y-113608452D01*
X142229897Y-113583466D01*
X142264633Y-113564899D01*
X142302326Y-113553465D01*
X142347661Y-113549000D01*
X143184339Y-113549000D01*
X143229674Y-113553465D01*
G37*
G36*
X135161000Y-114939000D02*
G01*
X133159000Y-114939000D01*
X133159000Y-114037000D01*
X135161000Y-114037000D01*
X135161000Y-114939000D01*
G37*
G36*
X122969000Y-114939000D02*
G01*
X120967000Y-114939000D01*
X120967000Y-114037000D01*
X122969000Y-114037000D01*
X122969000Y-114939000D01*
G37*
G36*
X129065000Y-114939000D02*
G01*
X127063000Y-114939000D01*
X127063000Y-114037000D01*
X129065000Y-114037000D01*
X129065000Y-114939000D01*
G37*
G36*
X125969000Y-113989000D02*
G01*
X123967000Y-113989000D01*
X123967000Y-113087000D01*
X125969000Y-113087000D01*
X125969000Y-113989000D01*
G37*
G36*
X132065000Y-113989000D02*
G01*
X130063000Y-113989000D01*
X130063000Y-113087000D01*
X132065000Y-113087000D01*
X132065000Y-113989000D01*
G37*
G36*
X138161000Y-113989000D02*
G01*
X136159000Y-113989000D01*
X136159000Y-113087000D01*
X138161000Y-113087000D01*
X138161000Y-113989000D01*
G37*
G36*
X119714674Y-111900465D02*
G01*
X119752367Y-111911899D01*
X119787103Y-111930466D01*
X119817548Y-111955452D01*
X119842534Y-111985897D01*
X119861101Y-112020633D01*
X119872535Y-112058326D01*
X119877000Y-112103661D01*
X119877000Y-112940339D01*
X119872535Y-112985674D01*
X119861101Y-113023367D01*
X119842534Y-113058103D01*
X119817548Y-113088548D01*
X119787103Y-113113534D01*
X119752367Y-113132101D01*
X119714674Y-113143535D01*
X119669339Y-113148000D01*
X118582661Y-113148000D01*
X118537326Y-113143535D01*
X118499633Y-113132101D01*
X118464897Y-113113534D01*
X118434452Y-113088548D01*
X118409466Y-113058103D01*
X118390899Y-113023367D01*
X118379465Y-112985674D01*
X118375000Y-112940339D01*
X118375000Y-112103661D01*
X118379465Y-112058326D01*
X118390899Y-112020633D01*
X118409466Y-111985897D01*
X118434452Y-111955452D01*
X118464897Y-111930466D01*
X118499633Y-111911899D01*
X118537326Y-111900465D01*
X118582661Y-111896000D01*
X119669339Y-111896000D01*
X119714674Y-111900465D01*
G37*
G36*
X122969000Y-113039000D02*
G01*
X120967000Y-113039000D01*
X120967000Y-112137000D01*
X122969000Y-112137000D01*
X122969000Y-113039000D01*
G37*
G36*
X135161000Y-113039000D02*
G01*
X133159000Y-113039000D01*
X133159000Y-112137000D01*
X135161000Y-112137000D01*
X135161000Y-113039000D01*
G37*
G36*
X129065000Y-113039000D02*
G01*
X127063000Y-113039000D01*
X127063000Y-112137000D01*
X129065000Y-112137000D01*
X129065000Y-113039000D01*
G37*
G36*
X147433512Y-110863927D02*
G01*
X147582812Y-110893624D01*
X147746784Y-110961544D01*
X147894354Y-111060147D01*
X148019853Y-111185646D01*
X148118456Y-111333216D01*
X148186376Y-111497188D01*
X148221000Y-111671259D01*
X148221000Y-111848741D01*
X148186376Y-112022812D01*
X148118456Y-112186784D01*
X148019853Y-112334354D01*
X147894354Y-112459853D01*
X147746784Y-112558456D01*
X147582812Y-112626376D01*
X147433512Y-112656073D01*
X147408742Y-112661000D01*
X147231258Y-112661000D01*
X147206488Y-112656073D01*
X147057188Y-112626376D01*
X146893216Y-112558456D01*
X146745646Y-112459853D01*
X146620147Y-112334354D01*
X146521544Y-112186784D01*
X146453624Y-112022812D01*
X146419000Y-111848741D01*
X146419000Y-111671259D01*
X146453624Y-111497188D01*
X146521544Y-111333216D01*
X146620147Y-111185646D01*
X146745646Y-111060147D01*
X146893216Y-110961544D01*
X147057188Y-110893624D01*
X147206488Y-110863927D01*
X147231258Y-110859000D01*
X147408742Y-110859000D01*
X147433512Y-110863927D01*
G37*
G36*
X94093512Y-110863927D02*
G01*
X94242812Y-110893624D01*
X94406784Y-110961544D01*
X94554354Y-111060147D01*
X94679853Y-111185646D01*
X94778456Y-111333216D01*
X94846376Y-111497188D01*
X94881000Y-111671259D01*
X94881000Y-111848741D01*
X94846376Y-112022812D01*
X94778456Y-112186784D01*
X94679853Y-112334354D01*
X94554354Y-112459853D01*
X94406784Y-112558456D01*
X94242812Y-112626376D01*
X94093512Y-112656073D01*
X94068742Y-112661000D01*
X93891258Y-112661000D01*
X93866488Y-112656073D01*
X93717188Y-112626376D01*
X93553216Y-112558456D01*
X93405646Y-112459853D01*
X93280147Y-112334354D01*
X93181544Y-112186784D01*
X93113624Y-112022812D01*
X93079000Y-111848741D01*
X93079000Y-111671259D01*
X93113624Y-111497188D01*
X93181544Y-111333216D01*
X93280147Y-111185646D01*
X93405646Y-111060147D01*
X93553216Y-110961544D01*
X93717188Y-110893624D01*
X93866488Y-110863927D01*
X93891258Y-110859000D01*
X94068742Y-110859000D01*
X94093512Y-110863927D01*
G37*
G36*
X99185589Y-110998876D02*
G01*
X99284893Y-111018629D01*
X99425206Y-111076748D01*
X99551484Y-111161125D01*
X99658875Y-111268516D01*
X99743252Y-111394794D01*
X99801371Y-111535107D01*
X99831000Y-111684063D01*
X99831000Y-111835937D01*
X99801371Y-111984893D01*
X99743252Y-112125206D01*
X99658875Y-112251484D01*
X99551484Y-112358875D01*
X99425206Y-112443252D01*
X99284893Y-112501371D01*
X99185589Y-112521124D01*
X99135938Y-112531000D01*
X98984062Y-112531000D01*
X98934411Y-112521124D01*
X98835107Y-112501371D01*
X98694794Y-112443252D01*
X98568516Y-112358875D01*
X98461125Y-112251484D01*
X98376748Y-112125206D01*
X98318629Y-111984893D01*
X98289000Y-111835937D01*
X98289000Y-111684063D01*
X98318629Y-111535107D01*
X98376748Y-111394794D01*
X98461125Y-111268516D01*
X98568516Y-111161125D01*
X98694794Y-111076748D01*
X98835107Y-111018629D01*
X98934411Y-110998876D01*
X98984062Y-110989000D01*
X99135938Y-110989000D01*
X99185589Y-110998876D01*
G37*
G36*
X105535589Y-110998876D02*
G01*
X105634893Y-111018629D01*
X105775206Y-111076748D01*
X105901484Y-111161125D01*
X106008875Y-111268516D01*
X106093252Y-111394794D01*
X106151371Y-111535107D01*
X106181000Y-111684063D01*
X106181000Y-111835937D01*
X106151371Y-111984893D01*
X106093252Y-112125206D01*
X106008875Y-112251484D01*
X105901484Y-112358875D01*
X105775206Y-112443252D01*
X105634893Y-112501371D01*
X105535589Y-112521124D01*
X105485938Y-112531000D01*
X105334062Y-112531000D01*
X105284411Y-112521124D01*
X105185107Y-112501371D01*
X105044794Y-112443252D01*
X104918516Y-112358875D01*
X104811125Y-112251484D01*
X104726748Y-112125206D01*
X104668629Y-111984893D01*
X104639000Y-111835937D01*
X104639000Y-111684063D01*
X104668629Y-111535107D01*
X104726748Y-111394794D01*
X104811125Y-111268516D01*
X104918516Y-111161125D01*
X105044794Y-111076748D01*
X105185107Y-111018629D01*
X105284411Y-110998876D01*
X105334062Y-110989000D01*
X105485938Y-110989000D01*
X105535589Y-110998876D01*
G37*
G36*
X111885589Y-110998876D02*
G01*
X111984893Y-111018629D01*
X112125206Y-111076748D01*
X112251484Y-111161125D01*
X112358875Y-111268516D01*
X112443252Y-111394794D01*
X112501371Y-111535107D01*
X112531000Y-111684063D01*
X112531000Y-111835937D01*
X112501371Y-111984893D01*
X112443252Y-112125206D01*
X112358875Y-112251484D01*
X112251484Y-112358875D01*
X112125206Y-112443252D01*
X111984893Y-112501371D01*
X111885589Y-112521124D01*
X111835938Y-112531000D01*
X111684062Y-112531000D01*
X111634411Y-112521124D01*
X111535107Y-112501371D01*
X111394794Y-112443252D01*
X111268516Y-112358875D01*
X111161125Y-112251484D01*
X111076748Y-112125206D01*
X111018629Y-111984893D01*
X110989000Y-111835937D01*
X110989000Y-111684063D01*
X111018629Y-111535107D01*
X111076748Y-111394794D01*
X111161125Y-111268516D01*
X111268516Y-111161125D01*
X111394794Y-111076748D01*
X111535107Y-111018629D01*
X111634411Y-110998876D01*
X111684062Y-110989000D01*
X111835938Y-110989000D01*
X111885589Y-110998876D01*
G37*
G36*
X128637000Y-110750000D02*
G01*
X127035000Y-110750000D01*
X127035000Y-110098000D01*
X128637000Y-110098000D01*
X128637000Y-110750000D01*
G37*
G36*
X131537000Y-110750000D02*
G01*
X129935000Y-110750000D01*
X129935000Y-110098000D01*
X131537000Y-110098000D01*
X131537000Y-110750000D01*
G37*
G36*
X116729000Y-110483000D02*
G01*
X115427000Y-110483000D01*
X115427000Y-109481000D01*
X116729000Y-109481000D01*
X116729000Y-110483000D01*
G37*
G36*
X123635674Y-108727465D02*
G01*
X123673367Y-108738899D01*
X123708103Y-108757466D01*
X123738548Y-108782452D01*
X123763534Y-108812897D01*
X123782101Y-108847633D01*
X123793535Y-108885326D01*
X123798000Y-108930661D01*
X123798000Y-110017339D01*
X123793535Y-110062674D01*
X123782101Y-110100367D01*
X123763534Y-110135103D01*
X123738548Y-110165548D01*
X123708103Y-110190534D01*
X123673367Y-110209101D01*
X123635674Y-110220535D01*
X123590339Y-110225000D01*
X122753661Y-110225000D01*
X122708326Y-110220535D01*
X122670633Y-110209101D01*
X122635897Y-110190534D01*
X122605452Y-110165548D01*
X122580466Y-110135103D01*
X122561899Y-110100367D01*
X122550465Y-110062674D01*
X122546000Y-110017339D01*
X122546000Y-108930661D01*
X122550465Y-108885326D01*
X122561899Y-108847633D01*
X122580466Y-108812897D01*
X122605452Y-108782452D01*
X122635897Y-108757466D01*
X122670633Y-108738899D01*
X122708326Y-108727465D01*
X122753661Y-108723000D01*
X123590339Y-108723000D01*
X123635674Y-108727465D01*
G37*
G36*
X125685674Y-108727465D02*
G01*
X125723367Y-108738899D01*
X125758103Y-108757466D01*
X125788548Y-108782452D01*
X125813534Y-108812897D01*
X125832101Y-108847633D01*
X125843535Y-108885326D01*
X125848000Y-108930661D01*
X125848000Y-110017339D01*
X125843535Y-110062674D01*
X125832101Y-110100367D01*
X125813534Y-110135103D01*
X125788548Y-110165548D01*
X125758103Y-110190534D01*
X125723367Y-110209101D01*
X125685674Y-110220535D01*
X125640339Y-110225000D01*
X124803661Y-110225000D01*
X124758326Y-110220535D01*
X124720633Y-110209101D01*
X124685897Y-110190534D01*
X124655452Y-110165548D01*
X124630466Y-110135103D01*
X124611899Y-110100367D01*
X124600465Y-110062674D01*
X124596000Y-110017339D01*
X124596000Y-108930661D01*
X124600465Y-108885326D01*
X124611899Y-108847633D01*
X124630466Y-108812897D01*
X124655452Y-108782452D01*
X124685897Y-108757466D01*
X124720633Y-108738899D01*
X124758326Y-108727465D01*
X124803661Y-108723000D01*
X125640339Y-108723000D01*
X125685674Y-108727465D01*
G37*
G36*
X135863674Y-108727465D02*
G01*
X135901367Y-108738899D01*
X135936103Y-108757466D01*
X135966548Y-108782452D01*
X135991534Y-108812897D01*
X136010101Y-108847633D01*
X136021535Y-108885326D01*
X136026000Y-108930661D01*
X136026000Y-110017339D01*
X136021535Y-110062674D01*
X136010101Y-110100367D01*
X135991534Y-110135103D01*
X135966548Y-110165548D01*
X135936103Y-110190534D01*
X135901367Y-110209101D01*
X135863674Y-110220535D01*
X135818339Y-110225000D01*
X134981661Y-110225000D01*
X134936326Y-110220535D01*
X134898633Y-110209101D01*
X134863897Y-110190534D01*
X134833452Y-110165548D01*
X134808466Y-110135103D01*
X134789899Y-110100367D01*
X134778465Y-110062674D01*
X134774000Y-110017339D01*
X134774000Y-108930661D01*
X134778465Y-108885326D01*
X134789899Y-108847633D01*
X134808466Y-108812897D01*
X134833452Y-108782452D01*
X134863897Y-108757466D01*
X134898633Y-108738899D01*
X134936326Y-108727465D01*
X134981661Y-108723000D01*
X135818339Y-108723000D01*
X135863674Y-108727465D01*
G37*
G36*
X133813674Y-108727465D02*
G01*
X133851367Y-108738899D01*
X133886103Y-108757466D01*
X133916548Y-108782452D01*
X133941534Y-108812897D01*
X133960101Y-108847633D01*
X133971535Y-108885326D01*
X133976000Y-108930661D01*
X133976000Y-110017339D01*
X133971535Y-110062674D01*
X133960101Y-110100367D01*
X133941534Y-110135103D01*
X133916548Y-110165548D01*
X133886103Y-110190534D01*
X133851367Y-110209101D01*
X133813674Y-110220535D01*
X133768339Y-110225000D01*
X132931661Y-110225000D01*
X132886326Y-110220535D01*
X132848633Y-110209101D01*
X132813897Y-110190534D01*
X132783452Y-110165548D01*
X132758466Y-110135103D01*
X132739899Y-110100367D01*
X132728465Y-110062674D01*
X132724000Y-110017339D01*
X132724000Y-108930661D01*
X132728465Y-108885326D01*
X132739899Y-108847633D01*
X132758466Y-108812897D01*
X132783452Y-108782452D01*
X132813897Y-108757466D01*
X132848633Y-108738899D01*
X132886326Y-108727465D01*
X132931661Y-108723000D01*
X133768339Y-108723000D01*
X133813674Y-108727465D01*
G37*
G36*
X147433512Y-108323927D02*
G01*
X147582812Y-108353624D01*
X147746784Y-108421544D01*
X147894354Y-108520147D01*
X148019853Y-108645646D01*
X148118456Y-108793216D01*
X148186376Y-108957188D01*
X148221000Y-109131259D01*
X148221000Y-109308741D01*
X148186376Y-109482812D01*
X148118456Y-109646784D01*
X148019853Y-109794354D01*
X147894354Y-109919853D01*
X147746784Y-110018456D01*
X147582812Y-110086376D01*
X147433512Y-110116073D01*
X147408742Y-110121000D01*
X147231258Y-110121000D01*
X147206488Y-110116073D01*
X147057188Y-110086376D01*
X146893216Y-110018456D01*
X146745646Y-109919853D01*
X146620147Y-109794354D01*
X146521544Y-109646784D01*
X146453624Y-109482812D01*
X146419000Y-109308741D01*
X146419000Y-109131259D01*
X146453624Y-108957188D01*
X146521544Y-108793216D01*
X146620147Y-108645646D01*
X146745646Y-108520147D01*
X146893216Y-108421544D01*
X147057188Y-108353624D01*
X147206488Y-108323927D01*
X147231258Y-108319000D01*
X147408742Y-108319000D01*
X147433512Y-108323927D01*
G37*
G36*
X94093512Y-108323927D02*
G01*
X94242812Y-108353624D01*
X94406784Y-108421544D01*
X94554354Y-108520147D01*
X94679853Y-108645646D01*
X94778456Y-108793216D01*
X94846376Y-108957188D01*
X94881000Y-109131259D01*
X94881000Y-109308741D01*
X94846376Y-109482812D01*
X94778456Y-109646784D01*
X94679853Y-109794354D01*
X94554354Y-109919853D01*
X94406784Y-110018456D01*
X94242812Y-110086376D01*
X94093512Y-110116073D01*
X94068742Y-110121000D01*
X93891258Y-110121000D01*
X93866488Y-110116073D01*
X93717188Y-110086376D01*
X93553216Y-110018456D01*
X93405646Y-109919853D01*
X93280147Y-109794354D01*
X93181544Y-109646784D01*
X93113624Y-109482812D01*
X93079000Y-109308741D01*
X93079000Y-109131259D01*
X93113624Y-108957188D01*
X93181544Y-108793216D01*
X93280147Y-108645646D01*
X93405646Y-108520147D01*
X93553216Y-108421544D01*
X93717188Y-108353624D01*
X93866488Y-108323927D01*
X93891258Y-108319000D01*
X94068742Y-108319000D01*
X94093512Y-108323927D01*
G37*
G36*
X99185589Y-108458876D02*
G01*
X99284893Y-108478629D01*
X99425206Y-108536748D01*
X99551484Y-108621125D01*
X99658875Y-108728516D01*
X99743252Y-108854794D01*
X99801371Y-108995107D01*
X99831000Y-109144063D01*
X99831000Y-109295937D01*
X99801371Y-109444893D01*
X99743252Y-109585206D01*
X99658875Y-109711484D01*
X99551484Y-109818875D01*
X99425206Y-109903252D01*
X99284893Y-109961371D01*
X99185589Y-109981124D01*
X99135938Y-109991000D01*
X98984062Y-109991000D01*
X98934411Y-109981124D01*
X98835107Y-109961371D01*
X98694794Y-109903252D01*
X98568516Y-109818875D01*
X98461125Y-109711484D01*
X98376748Y-109585206D01*
X98318629Y-109444893D01*
X98289000Y-109295937D01*
X98289000Y-109144063D01*
X98318629Y-108995107D01*
X98376748Y-108854794D01*
X98461125Y-108728516D01*
X98568516Y-108621125D01*
X98694794Y-108536748D01*
X98835107Y-108478629D01*
X98934411Y-108458876D01*
X98984062Y-108449000D01*
X99135938Y-108449000D01*
X99185589Y-108458876D01*
G37*
G36*
X111885589Y-108458876D02*
G01*
X111984893Y-108478629D01*
X112125206Y-108536748D01*
X112251484Y-108621125D01*
X112358875Y-108728516D01*
X112443252Y-108854794D01*
X112501371Y-108995107D01*
X112531000Y-109144063D01*
X112531000Y-109295937D01*
X112501371Y-109444893D01*
X112443252Y-109585206D01*
X112358875Y-109711484D01*
X112251484Y-109818875D01*
X112125206Y-109903252D01*
X111984893Y-109961371D01*
X111885589Y-109981124D01*
X111835938Y-109991000D01*
X111684062Y-109991000D01*
X111634411Y-109981124D01*
X111535107Y-109961371D01*
X111394794Y-109903252D01*
X111268516Y-109818875D01*
X111161125Y-109711484D01*
X111076748Y-109585206D01*
X111018629Y-109444893D01*
X110989000Y-109295937D01*
X110989000Y-109144063D01*
X111018629Y-108995107D01*
X111076748Y-108854794D01*
X111161125Y-108728516D01*
X111268516Y-108621125D01*
X111394794Y-108536748D01*
X111535107Y-108478629D01*
X111634411Y-108458876D01*
X111684062Y-108449000D01*
X111835938Y-108449000D01*
X111885589Y-108458876D01*
G37*
G36*
X105535589Y-108458876D02*
G01*
X105634893Y-108478629D01*
X105775206Y-108536748D01*
X105901484Y-108621125D01*
X106008875Y-108728516D01*
X106093252Y-108854794D01*
X106151371Y-108995107D01*
X106181000Y-109144063D01*
X106181000Y-109295937D01*
X106151371Y-109444893D01*
X106093252Y-109585206D01*
X106008875Y-109711484D01*
X105901484Y-109818875D01*
X105775206Y-109903252D01*
X105634893Y-109961371D01*
X105535589Y-109981124D01*
X105485938Y-109991000D01*
X105334062Y-109991000D01*
X105284411Y-109981124D01*
X105185107Y-109961371D01*
X105044794Y-109903252D01*
X104918516Y-109818875D01*
X104811125Y-109711484D01*
X104726748Y-109585206D01*
X104668629Y-109444893D01*
X104639000Y-109295937D01*
X104639000Y-109144063D01*
X104668629Y-108995107D01*
X104726748Y-108854794D01*
X104811125Y-108728516D01*
X104918516Y-108621125D01*
X105044794Y-108536748D01*
X105185107Y-108478629D01*
X105284411Y-108458876D01*
X105334062Y-108449000D01*
X105485938Y-108449000D01*
X105535589Y-108458876D01*
G37*
G36*
X141161674Y-108473465D02*
G01*
X141199367Y-108484899D01*
X141234103Y-108503466D01*
X141264548Y-108528452D01*
X141289534Y-108558897D01*
X141308101Y-108593633D01*
X141319535Y-108631326D01*
X141324000Y-108676661D01*
X141324000Y-109763339D01*
X141319535Y-109808674D01*
X141308101Y-109846367D01*
X141289534Y-109881103D01*
X141264548Y-109911548D01*
X141234103Y-109936534D01*
X141199367Y-109955101D01*
X141161674Y-109966535D01*
X141116339Y-109971000D01*
X140279661Y-109971000D01*
X140234326Y-109966535D01*
X140196633Y-109955101D01*
X140161897Y-109936534D01*
X140131452Y-109911548D01*
X140106466Y-109881103D01*
X140087899Y-109846367D01*
X140076465Y-109808674D01*
X140072000Y-109763339D01*
X140072000Y-108676661D01*
X140076465Y-108631326D01*
X140087899Y-108593633D01*
X140106466Y-108558897D01*
X140131452Y-108528452D01*
X140161897Y-108503466D01*
X140196633Y-108484899D01*
X140234326Y-108473465D01*
X140279661Y-108469000D01*
X141116339Y-108469000D01*
X141161674Y-108473465D01*
G37*
G36*
X143211674Y-108473465D02*
G01*
X143249367Y-108484899D01*
X143284103Y-108503466D01*
X143314548Y-108528452D01*
X143339534Y-108558897D01*
X143358101Y-108593633D01*
X143369535Y-108631326D01*
X143374000Y-108676661D01*
X143374000Y-109763339D01*
X143369535Y-109808674D01*
X143358101Y-109846367D01*
X143339534Y-109881103D01*
X143314548Y-109911548D01*
X143284103Y-109936534D01*
X143249367Y-109955101D01*
X143211674Y-109966535D01*
X143166339Y-109971000D01*
X142329661Y-109971000D01*
X142284326Y-109966535D01*
X142246633Y-109955101D01*
X142211897Y-109936534D01*
X142181452Y-109911548D01*
X142156466Y-109881103D01*
X142137899Y-109846367D01*
X142126465Y-109808674D01*
X142122000Y-109763339D01*
X142122000Y-108676661D01*
X142126465Y-108631326D01*
X142137899Y-108593633D01*
X142156466Y-108558897D01*
X142181452Y-108528452D01*
X142211897Y-108503466D01*
X142246633Y-108484899D01*
X142284326Y-108473465D01*
X142329661Y-108469000D01*
X143166339Y-108469000D01*
X143211674Y-108473465D01*
G37*
G36*
X128637000Y-109800000D02*
G01*
X127035000Y-109800000D01*
X127035000Y-109148000D01*
X128637000Y-109148000D01*
X128637000Y-109800000D01*
G37*
G36*
X131537000Y-109800000D02*
G01*
X129935000Y-109800000D01*
X129935000Y-109148000D01*
X131537000Y-109148000D01*
X131537000Y-109800000D01*
G37*
G36*
X119714674Y-108362465D02*
G01*
X119752367Y-108373899D01*
X119787103Y-108392466D01*
X119817548Y-108417452D01*
X119842534Y-108447897D01*
X119861101Y-108482633D01*
X119872535Y-108520326D01*
X119877000Y-108565661D01*
X119877000Y-109402339D01*
X119872535Y-109447674D01*
X119861101Y-109485367D01*
X119842534Y-109520103D01*
X119817548Y-109550548D01*
X119787103Y-109575534D01*
X119752367Y-109594101D01*
X119714674Y-109605535D01*
X119669339Y-109610000D01*
X118582661Y-109610000D01*
X118537326Y-109605535D01*
X118499633Y-109594101D01*
X118464897Y-109575534D01*
X118434452Y-109550548D01*
X118409466Y-109520103D01*
X118390899Y-109485367D01*
X118379465Y-109447674D01*
X118375000Y-109402339D01*
X118375000Y-108565661D01*
X118379465Y-108520326D01*
X118390899Y-108482633D01*
X118409466Y-108447897D01*
X118434452Y-108417452D01*
X118464897Y-108392466D01*
X118499633Y-108373899D01*
X118537326Y-108362465D01*
X118582661Y-108358000D01*
X119669339Y-108358000D01*
X119714674Y-108362465D01*
G37*
G36*
X131537000Y-108850000D02*
G01*
X129935000Y-108850000D01*
X129935000Y-108198000D01*
X131537000Y-108198000D01*
X131537000Y-108850000D01*
G37*
G36*
X128637000Y-108850000D02*
G01*
X127035000Y-108850000D01*
X127035000Y-108198000D01*
X128637000Y-108198000D01*
X128637000Y-108850000D01*
G37*
G36*
X133813674Y-106187465D02*
G01*
X133851367Y-106198899D01*
X133886103Y-106217466D01*
X133916548Y-106242452D01*
X133941534Y-106272897D01*
X133960101Y-106307633D01*
X133971535Y-106345326D01*
X133976000Y-106390661D01*
X133976000Y-107477339D01*
X133971535Y-107522674D01*
X133960101Y-107560367D01*
X133941534Y-107595103D01*
X133916548Y-107625548D01*
X133886103Y-107650534D01*
X133851367Y-107669101D01*
X133813674Y-107680535D01*
X133768339Y-107685000D01*
X132931661Y-107685000D01*
X132886326Y-107680535D01*
X132848633Y-107669101D01*
X132813897Y-107650534D01*
X132783452Y-107625548D01*
X132758466Y-107595103D01*
X132739899Y-107560367D01*
X132728465Y-107522674D01*
X132724000Y-107477339D01*
X132724000Y-106390661D01*
X132728465Y-106345326D01*
X132739899Y-106307633D01*
X132758466Y-106272897D01*
X132783452Y-106242452D01*
X132813897Y-106217466D01*
X132848633Y-106198899D01*
X132886326Y-106187465D01*
X132931661Y-106183000D01*
X133768339Y-106183000D01*
X133813674Y-106187465D01*
G37*
G36*
X135863674Y-106187465D02*
G01*
X135901367Y-106198899D01*
X135936103Y-106217466D01*
X135966548Y-106242452D01*
X135991534Y-106272897D01*
X136010101Y-106307633D01*
X136021535Y-106345326D01*
X136026000Y-106390661D01*
X136026000Y-107477339D01*
X136021535Y-107522674D01*
X136010101Y-107560367D01*
X135991534Y-107595103D01*
X135966548Y-107625548D01*
X135936103Y-107650534D01*
X135901367Y-107669101D01*
X135863674Y-107680535D01*
X135818339Y-107685000D01*
X134981661Y-107685000D01*
X134936326Y-107680535D01*
X134898633Y-107669101D01*
X134863897Y-107650534D01*
X134833452Y-107625548D01*
X134808466Y-107595103D01*
X134789899Y-107560367D01*
X134778465Y-107522674D01*
X134774000Y-107477339D01*
X134774000Y-106390661D01*
X134778465Y-106345326D01*
X134789899Y-106307633D01*
X134808466Y-106272897D01*
X134833452Y-106242452D01*
X134863897Y-106217466D01*
X134898633Y-106198899D01*
X134936326Y-106187465D01*
X134981661Y-106183000D01*
X135818339Y-106183000D01*
X135863674Y-106187465D01*
G37*
G36*
X147433512Y-105783927D02*
G01*
X147582812Y-105813624D01*
X147746784Y-105881544D01*
X147894354Y-105980147D01*
X148019853Y-106105646D01*
X148118456Y-106253216D01*
X148186376Y-106417188D01*
X148221000Y-106591259D01*
X148221000Y-106768741D01*
X148186376Y-106942812D01*
X148118456Y-107106784D01*
X148019853Y-107254354D01*
X147894354Y-107379853D01*
X147746784Y-107478456D01*
X147582812Y-107546376D01*
X147433512Y-107576073D01*
X147408742Y-107581000D01*
X147231258Y-107581000D01*
X147206488Y-107576073D01*
X147057188Y-107546376D01*
X146893216Y-107478456D01*
X146745646Y-107379853D01*
X146620147Y-107254354D01*
X146521544Y-107106784D01*
X146453624Y-106942812D01*
X146419000Y-106768741D01*
X146419000Y-106591259D01*
X146453624Y-106417188D01*
X146521544Y-106253216D01*
X146620147Y-106105646D01*
X146745646Y-105980147D01*
X146893216Y-105881544D01*
X147057188Y-105813624D01*
X147206488Y-105783927D01*
X147231258Y-105779000D01*
X147408742Y-105779000D01*
X147433512Y-105783927D01*
G37*
G36*
X94881000Y-107581000D02*
G01*
X93079000Y-107581000D01*
X93079000Y-105779000D01*
X94881000Y-105779000D01*
X94881000Y-107581000D01*
G37*
G36*
X119714674Y-106312465D02*
G01*
X119752367Y-106323899D01*
X119787103Y-106342466D01*
X119817548Y-106367452D01*
X119842534Y-106397897D01*
X119861101Y-106432633D01*
X119872535Y-106470326D01*
X119877000Y-106515661D01*
X119877000Y-107352339D01*
X119872535Y-107397674D01*
X119861101Y-107435367D01*
X119842534Y-107470103D01*
X119817548Y-107500548D01*
X119787103Y-107525534D01*
X119752367Y-107544101D01*
X119714674Y-107555535D01*
X119669339Y-107560000D01*
X118582661Y-107560000D01*
X118537326Y-107555535D01*
X118499633Y-107544101D01*
X118464897Y-107525534D01*
X118434452Y-107500548D01*
X118409466Y-107470103D01*
X118390899Y-107435367D01*
X118379465Y-107397674D01*
X118375000Y-107352339D01*
X118375000Y-106515661D01*
X118379465Y-106470326D01*
X118390899Y-106432633D01*
X118409466Y-106397897D01*
X118434452Y-106367452D01*
X118464897Y-106342466D01*
X118499633Y-106323899D01*
X118537326Y-106312465D01*
X118582661Y-106308000D01*
X119669339Y-106308000D01*
X119714674Y-106312465D01*
G37*
G36*
X111885589Y-105918876D02*
G01*
X111984893Y-105938629D01*
X112125206Y-105996748D01*
X112251484Y-106081125D01*
X112358875Y-106188516D01*
X112443252Y-106314794D01*
X112501371Y-106455107D01*
X112531000Y-106604063D01*
X112531000Y-106755937D01*
X112501371Y-106904893D01*
X112443252Y-107045206D01*
X112358875Y-107171484D01*
X112251484Y-107278875D01*
X112125206Y-107363252D01*
X111984893Y-107421371D01*
X111896074Y-107439038D01*
X111835938Y-107451000D01*
X111684062Y-107451000D01*
X111623926Y-107439038D01*
X111535107Y-107421371D01*
X111394794Y-107363252D01*
X111268516Y-107278875D01*
X111161125Y-107171484D01*
X111076748Y-107045206D01*
X111018629Y-106904893D01*
X110989000Y-106755937D01*
X110989000Y-106604063D01*
X111018629Y-106455107D01*
X111076748Y-106314794D01*
X111161125Y-106188516D01*
X111268516Y-106081125D01*
X111394794Y-105996748D01*
X111535107Y-105938629D01*
X111634411Y-105918876D01*
X111684062Y-105909000D01*
X111835938Y-105909000D01*
X111885589Y-105918876D01*
G37*
G36*
X105535589Y-105918876D02*
G01*
X105634893Y-105938629D01*
X105775206Y-105996748D01*
X105901484Y-106081125D01*
X106008875Y-106188516D01*
X106093252Y-106314794D01*
X106151371Y-106455107D01*
X106181000Y-106604063D01*
X106181000Y-106755937D01*
X106151371Y-106904893D01*
X106093252Y-107045206D01*
X106008875Y-107171484D01*
X105901484Y-107278875D01*
X105775206Y-107363252D01*
X105634893Y-107421371D01*
X105546074Y-107439038D01*
X105485938Y-107451000D01*
X105334062Y-107451000D01*
X105273926Y-107439038D01*
X105185107Y-107421371D01*
X105044794Y-107363252D01*
X104918516Y-107278875D01*
X104811125Y-107171484D01*
X104726748Y-107045206D01*
X104668629Y-106904893D01*
X104639000Y-106755937D01*
X104639000Y-106604063D01*
X104668629Y-106455107D01*
X104726748Y-106314794D01*
X104811125Y-106188516D01*
X104918516Y-106081125D01*
X105044794Y-105996748D01*
X105185107Y-105938629D01*
X105284411Y-105918876D01*
X105334062Y-105909000D01*
X105485938Y-105909000D01*
X105535589Y-105918876D01*
G37*
G36*
X99185589Y-105918876D02*
G01*
X99284893Y-105938629D01*
X99425206Y-105996748D01*
X99551484Y-106081125D01*
X99658875Y-106188516D01*
X99743252Y-106314794D01*
X99801371Y-106455107D01*
X99831000Y-106604063D01*
X99831000Y-106755937D01*
X99801371Y-106904893D01*
X99743252Y-107045206D01*
X99658875Y-107171484D01*
X99551484Y-107278875D01*
X99425206Y-107363252D01*
X99284893Y-107421371D01*
X99196074Y-107439038D01*
X99135938Y-107451000D01*
X98984062Y-107451000D01*
X98923926Y-107439038D01*
X98835107Y-107421371D01*
X98694794Y-107363252D01*
X98568516Y-107278875D01*
X98461125Y-107171484D01*
X98376748Y-107045206D01*
X98318629Y-106904893D01*
X98289000Y-106755937D01*
X98289000Y-106604063D01*
X98318629Y-106455107D01*
X98376748Y-106314794D01*
X98461125Y-106188516D01*
X98568516Y-106081125D01*
X98694794Y-105996748D01*
X98835107Y-105938629D01*
X98934411Y-105918876D01*
X98984062Y-105909000D01*
X99135938Y-105909000D01*
X99185589Y-105918876D01*
G37*
G36*
X116729000Y-107183000D02*
G01*
X115427000Y-107183000D01*
X115427000Y-106181000D01*
X116729000Y-106181000D01*
X116729000Y-107183000D01*
G37*
G36*
X147433512Y-103243927D02*
G01*
X147582812Y-103273624D01*
X147746784Y-103341544D01*
X147894354Y-103440147D01*
X148019853Y-103565646D01*
X148118456Y-103713216D01*
X148186376Y-103877188D01*
X148221000Y-104051259D01*
X148221000Y-104228741D01*
X148186376Y-104402812D01*
X148118456Y-104566784D01*
X148019853Y-104714354D01*
X147894354Y-104839853D01*
X147746784Y-104938456D01*
X147582812Y-105006376D01*
X147433512Y-105036073D01*
X147408742Y-105041000D01*
X147231258Y-105041000D01*
X147206488Y-105036073D01*
X147057188Y-105006376D01*
X146893216Y-104938456D01*
X146745646Y-104839853D01*
X146620147Y-104714354D01*
X146521544Y-104566784D01*
X146453624Y-104402812D01*
X146419000Y-104228741D01*
X146419000Y-104051259D01*
X146453624Y-103877188D01*
X146521544Y-103713216D01*
X146620147Y-103565646D01*
X146745646Y-103440147D01*
X146893216Y-103341544D01*
X147057188Y-103273624D01*
X147206488Y-103243927D01*
X147231258Y-103239000D01*
X147408742Y-103239000D01*
X147433512Y-103243927D01*
G37*
G36*
X147433512Y-100703927D02*
G01*
X147582812Y-100733624D01*
X147746784Y-100801544D01*
X147894354Y-100900147D01*
X148019853Y-101025646D01*
X148118456Y-101173216D01*
X148186376Y-101337188D01*
X148221000Y-101511259D01*
X148221000Y-101688741D01*
X148186376Y-101862812D01*
X148118456Y-102026784D01*
X148019853Y-102174354D01*
X147894354Y-102299853D01*
X147746784Y-102398456D01*
X147582812Y-102466376D01*
X147433512Y-102496073D01*
X147408742Y-102501000D01*
X147231258Y-102501000D01*
X147206488Y-102496073D01*
X147057188Y-102466376D01*
X146893216Y-102398456D01*
X146745646Y-102299853D01*
X146620147Y-102174354D01*
X146521544Y-102026784D01*
X146453624Y-101862812D01*
X146419000Y-101688741D01*
X146419000Y-101511259D01*
X146453624Y-101337188D01*
X146521544Y-101173216D01*
X146620147Y-101025646D01*
X146745646Y-100900147D01*
X146893216Y-100801544D01*
X147057188Y-100733624D01*
X147206488Y-100703927D01*
X147231258Y-100699000D01*
X147408742Y-100699000D01*
X147433512Y-100703927D01*
G37*
G36*
X100775674Y-100599465D02*
G01*
X100813367Y-100610899D01*
X100848103Y-100629466D01*
X100878548Y-100654452D01*
X100903534Y-100684897D01*
X100922101Y-100719633D01*
X100933535Y-100757326D01*
X100938000Y-100802661D01*
X100938000Y-101889339D01*
X100933535Y-101934674D01*
X100922101Y-101972367D01*
X100903534Y-102007103D01*
X100878548Y-102037548D01*
X100848103Y-102062534D01*
X100813367Y-102081101D01*
X100775674Y-102092535D01*
X100730339Y-102097000D01*
X99893661Y-102097000D01*
X99848326Y-102092535D01*
X99810633Y-102081101D01*
X99775897Y-102062534D01*
X99745452Y-102037548D01*
X99720466Y-102007103D01*
X99701899Y-101972367D01*
X99690465Y-101934674D01*
X99686000Y-101889339D01*
X99686000Y-100802661D01*
X99690465Y-100757326D01*
X99701899Y-100719633D01*
X99720466Y-100684897D01*
X99745452Y-100654452D01*
X99775897Y-100629466D01*
X99810633Y-100610899D01*
X99848326Y-100599465D01*
X99893661Y-100595000D01*
X100730339Y-100595000D01*
X100775674Y-100599465D01*
G37*
G36*
X102825674Y-100599465D02*
G01*
X102863367Y-100610899D01*
X102898103Y-100629466D01*
X102928548Y-100654452D01*
X102953534Y-100684897D01*
X102972101Y-100719633D01*
X102983535Y-100757326D01*
X102988000Y-100802661D01*
X102988000Y-101889339D01*
X102983535Y-101934674D01*
X102972101Y-101972367D01*
X102953534Y-102007103D01*
X102928548Y-102037548D01*
X102898103Y-102062534D01*
X102863367Y-102081101D01*
X102825674Y-102092535D01*
X102780339Y-102097000D01*
X101943661Y-102097000D01*
X101898326Y-102092535D01*
X101860633Y-102081101D01*
X101825897Y-102062534D01*
X101795452Y-102037548D01*
X101770466Y-102007103D01*
X101751899Y-101972367D01*
X101740465Y-101934674D01*
X101736000Y-101889339D01*
X101736000Y-100802661D01*
X101740465Y-100757326D01*
X101751899Y-100719633D01*
X101770466Y-100684897D01*
X101795452Y-100654452D01*
X101825897Y-100629466D01*
X101860633Y-100610899D01*
X101898326Y-100599465D01*
X101943661Y-100595000D01*
X102780339Y-100595000D01*
X102825674Y-100599465D01*
G37*
G36*
X112713674Y-99837465D02*
G01*
X112751367Y-99848899D01*
X112786103Y-99867466D01*
X112816548Y-99892452D01*
X112841534Y-99922897D01*
X112860101Y-99957633D01*
X112871535Y-99995326D01*
X112876000Y-100040661D01*
X112876000Y-101127339D01*
X112871535Y-101172674D01*
X112860101Y-101210367D01*
X112841534Y-101245103D01*
X112816548Y-101275548D01*
X112786103Y-101300534D01*
X112751367Y-101319101D01*
X112713674Y-101330535D01*
X112668339Y-101335000D01*
X111831661Y-101335000D01*
X111786326Y-101330535D01*
X111748633Y-101319101D01*
X111713897Y-101300534D01*
X111683452Y-101275548D01*
X111658466Y-101245103D01*
X111639899Y-101210367D01*
X111628465Y-101172674D01*
X111624000Y-101127339D01*
X111624000Y-100040661D01*
X111628465Y-99995326D01*
X111639899Y-99957633D01*
X111658466Y-99922897D01*
X111683452Y-99892452D01*
X111713897Y-99867466D01*
X111748633Y-99848899D01*
X111786326Y-99837465D01*
X111831661Y-99833000D01*
X112668339Y-99833000D01*
X112713674Y-99837465D01*
G37*
G36*
X114763674Y-99837465D02*
G01*
X114801367Y-99848899D01*
X114836103Y-99867466D01*
X114866548Y-99892452D01*
X114891534Y-99922897D01*
X114910101Y-99957633D01*
X114921535Y-99995326D01*
X114926000Y-100040661D01*
X114926000Y-101127339D01*
X114921535Y-101172674D01*
X114910101Y-101210367D01*
X114891534Y-101245103D01*
X114866548Y-101275548D01*
X114836103Y-101300534D01*
X114801367Y-101319101D01*
X114763674Y-101330535D01*
X114718339Y-101335000D01*
X113881661Y-101335000D01*
X113836326Y-101330535D01*
X113798633Y-101319101D01*
X113763897Y-101300534D01*
X113733452Y-101275548D01*
X113708466Y-101245103D01*
X113689899Y-101210367D01*
X113678465Y-101172674D01*
X113674000Y-101127339D01*
X113674000Y-100040661D01*
X113678465Y-99995326D01*
X113689899Y-99957633D01*
X113708466Y-99922897D01*
X113733452Y-99892452D01*
X113763897Y-99867466D01*
X113798633Y-99848899D01*
X113836326Y-99837465D01*
X113881661Y-99833000D01*
X114718339Y-99833000D01*
X114763674Y-99837465D01*
G37*
G36*
X123163674Y-98567465D02*
G01*
X123201367Y-98578899D01*
X123236103Y-98597466D01*
X123266548Y-98622452D01*
X123291534Y-98652897D01*
X123310101Y-98687633D01*
X123321535Y-98725326D01*
X123326000Y-98770661D01*
X123326000Y-99857339D01*
X123321535Y-99902674D01*
X123310101Y-99940367D01*
X123291534Y-99975103D01*
X123266548Y-100005548D01*
X123236103Y-100030534D01*
X123201367Y-100049101D01*
X123163674Y-100060535D01*
X123118339Y-100065000D01*
X122281661Y-100065000D01*
X122236326Y-100060535D01*
X122198633Y-100049101D01*
X122163897Y-100030534D01*
X122133452Y-100005548D01*
X122108466Y-99975103D01*
X122089899Y-99940367D01*
X122078465Y-99902674D01*
X122074000Y-99857339D01*
X122074000Y-98770661D01*
X122078465Y-98725326D01*
X122089899Y-98687633D01*
X122108466Y-98652897D01*
X122133452Y-98622452D01*
X122163897Y-98597466D01*
X122198633Y-98578899D01*
X122236326Y-98567465D01*
X122281661Y-98563000D01*
X123118339Y-98563000D01*
X123163674Y-98567465D01*
G37*
G36*
X121113674Y-98567465D02*
G01*
X121151367Y-98578899D01*
X121186103Y-98597466D01*
X121216548Y-98622452D01*
X121241534Y-98652897D01*
X121260101Y-98687633D01*
X121271535Y-98725326D01*
X121276000Y-98770661D01*
X121276000Y-99857339D01*
X121271535Y-99902674D01*
X121260101Y-99940367D01*
X121241534Y-99975103D01*
X121216548Y-100005548D01*
X121186103Y-100030534D01*
X121151367Y-100049101D01*
X121113674Y-100060535D01*
X121068339Y-100065000D01*
X120231661Y-100065000D01*
X120186326Y-100060535D01*
X120148633Y-100049101D01*
X120113897Y-100030534D01*
X120083452Y-100005548D01*
X120058466Y-99975103D01*
X120039899Y-99940367D01*
X120028465Y-99902674D01*
X120024000Y-99857339D01*
X120024000Y-98770661D01*
X120028465Y-98725326D01*
X120039899Y-98687633D01*
X120058466Y-98652897D01*
X120083452Y-98622452D01*
X120113897Y-98597466D01*
X120148633Y-98578899D01*
X120186326Y-98567465D01*
X120231661Y-98563000D01*
X121068339Y-98563000D01*
X121113674Y-98567465D01*
G37*
G36*
X147433512Y-98163927D02*
G01*
X147582812Y-98193624D01*
X147746784Y-98261544D01*
X147894354Y-98360147D01*
X148019853Y-98485646D01*
X148118456Y-98633216D01*
X148186376Y-98797188D01*
X148221000Y-98971259D01*
X148221000Y-99148741D01*
X148186376Y-99322812D01*
X148118456Y-99486784D01*
X148019853Y-99634354D01*
X147894354Y-99759853D01*
X147746784Y-99858456D01*
X147582812Y-99926376D01*
X147444124Y-99953962D01*
X147408742Y-99961000D01*
X147231258Y-99961000D01*
X147195876Y-99953962D01*
X147057188Y-99926376D01*
X146893216Y-99858456D01*
X146745646Y-99759853D01*
X146620147Y-99634354D01*
X146521544Y-99486784D01*
X146453624Y-99322812D01*
X146419000Y-99148741D01*
X146419000Y-98971259D01*
X146453624Y-98797188D01*
X146521544Y-98633216D01*
X146620147Y-98485646D01*
X146745646Y-98360147D01*
X146893216Y-98261544D01*
X147057188Y-98193624D01*
X147206488Y-98163927D01*
X147231258Y-98159000D01*
X147408742Y-98159000D01*
X147433512Y-98163927D01*
G37*
G36*
X100775674Y-98059465D02*
G01*
X100813367Y-98070899D01*
X100848103Y-98089466D01*
X100878548Y-98114452D01*
X100903534Y-98144897D01*
X100922101Y-98179633D01*
X100933535Y-98217326D01*
X100938000Y-98262661D01*
X100938000Y-99349339D01*
X100933535Y-99394674D01*
X100922101Y-99432367D01*
X100903534Y-99467103D01*
X100878548Y-99497548D01*
X100848103Y-99522534D01*
X100813367Y-99541101D01*
X100775674Y-99552535D01*
X100730339Y-99557000D01*
X99893661Y-99557000D01*
X99848326Y-99552535D01*
X99810633Y-99541101D01*
X99775897Y-99522534D01*
X99745452Y-99497548D01*
X99720466Y-99467103D01*
X99701899Y-99432367D01*
X99690465Y-99394674D01*
X99686000Y-99349339D01*
X99686000Y-98262661D01*
X99690465Y-98217326D01*
X99701899Y-98179633D01*
X99720466Y-98144897D01*
X99745452Y-98114452D01*
X99775897Y-98089466D01*
X99810633Y-98070899D01*
X99848326Y-98059465D01*
X99893661Y-98055000D01*
X100730339Y-98055000D01*
X100775674Y-98059465D01*
G37*
G36*
X102825674Y-98059465D02*
G01*
X102863367Y-98070899D01*
X102898103Y-98089466D01*
X102928548Y-98114452D01*
X102953534Y-98144897D01*
X102972101Y-98179633D01*
X102983535Y-98217326D01*
X102988000Y-98262661D01*
X102988000Y-99349339D01*
X102983535Y-99394674D01*
X102972101Y-99432367D01*
X102953534Y-99467103D01*
X102928548Y-99497548D01*
X102898103Y-99522534D01*
X102863367Y-99541101D01*
X102825674Y-99552535D01*
X102780339Y-99557000D01*
X101943661Y-99557000D01*
X101898326Y-99552535D01*
X101860633Y-99541101D01*
X101825897Y-99522534D01*
X101795452Y-99497548D01*
X101770466Y-99467103D01*
X101751899Y-99432367D01*
X101740465Y-99394674D01*
X101736000Y-99349339D01*
X101736000Y-98262661D01*
X101740465Y-98217326D01*
X101751899Y-98179633D01*
X101770466Y-98144897D01*
X101795452Y-98114452D01*
X101825897Y-98089466D01*
X101860633Y-98070899D01*
X101898326Y-98059465D01*
X101943661Y-98055000D01*
X102780339Y-98055000D01*
X102825674Y-98059465D01*
G37*
G36*
X107896674Y-97043465D02*
G01*
X107934367Y-97054899D01*
X107969103Y-97073466D01*
X107999548Y-97098452D01*
X108024534Y-97128897D01*
X108043101Y-97163633D01*
X108054535Y-97201326D01*
X108059000Y-97246661D01*
X108059000Y-98333339D01*
X108054535Y-98378674D01*
X108043101Y-98416367D01*
X108024534Y-98451103D01*
X107999548Y-98481548D01*
X107969103Y-98506534D01*
X107934367Y-98525101D01*
X107896674Y-98536535D01*
X107851339Y-98541000D01*
X107014661Y-98541000D01*
X106969326Y-98536535D01*
X106931633Y-98525101D01*
X106896897Y-98506534D01*
X106866452Y-98481548D01*
X106841466Y-98451103D01*
X106822899Y-98416367D01*
X106811465Y-98378674D01*
X106807000Y-98333339D01*
X106807000Y-97246661D01*
X106811465Y-97201326D01*
X106822899Y-97163633D01*
X106841466Y-97128897D01*
X106866452Y-97098452D01*
X106896897Y-97073466D01*
X106931633Y-97054899D01*
X106969326Y-97043465D01*
X107014661Y-97039000D01*
X107851339Y-97039000D01*
X107896674Y-97043465D01*
G37*
G36*
X109946674Y-97043465D02*
G01*
X109984367Y-97054899D01*
X110019103Y-97073466D01*
X110049548Y-97098452D01*
X110074534Y-97128897D01*
X110093101Y-97163633D01*
X110104535Y-97201326D01*
X110109000Y-97246661D01*
X110109000Y-98333339D01*
X110104535Y-98378674D01*
X110093101Y-98416367D01*
X110074534Y-98451103D01*
X110049548Y-98481548D01*
X110019103Y-98506534D01*
X109984367Y-98525101D01*
X109946674Y-98536535D01*
X109901339Y-98541000D01*
X109064661Y-98541000D01*
X109019326Y-98536535D01*
X108981633Y-98525101D01*
X108946897Y-98506534D01*
X108916452Y-98481548D01*
X108891466Y-98451103D01*
X108872899Y-98416367D01*
X108861465Y-98378674D01*
X108857000Y-98333339D01*
X108857000Y-97246661D01*
X108861465Y-97201326D01*
X108872899Y-97163633D01*
X108891466Y-97128897D01*
X108916452Y-97098452D01*
X108946897Y-97073466D01*
X108981633Y-97054899D01*
X109019326Y-97043465D01*
X109064661Y-97039000D01*
X109901339Y-97039000D01*
X109946674Y-97043465D01*
G37*
G36*
X113521928Y-97060764D02*
G01*
X113543009Y-97067160D01*
X113562445Y-97077548D01*
X113579476Y-97091524D01*
X113593452Y-97108555D01*
X113603840Y-97127991D01*
X113610236Y-97149072D01*
X113613000Y-97177140D01*
X113613000Y-97640860D01*
X113610236Y-97668928D01*
X113603840Y-97690009D01*
X113593452Y-97709445D01*
X113579476Y-97726476D01*
X113562445Y-97740452D01*
X113543009Y-97750840D01*
X113521928Y-97757236D01*
X113493860Y-97760000D01*
X111680140Y-97760000D01*
X111652072Y-97757236D01*
X111630991Y-97750840D01*
X111611555Y-97740452D01*
X111594524Y-97726476D01*
X111580548Y-97709445D01*
X111570160Y-97690009D01*
X111563764Y-97668928D01*
X111561000Y-97640860D01*
X111561000Y-97177140D01*
X111563764Y-97149072D01*
X111570160Y-97127991D01*
X111580548Y-97108555D01*
X111594524Y-97091524D01*
X111611555Y-97077548D01*
X111630991Y-97067160D01*
X111652072Y-97060764D01*
X111680140Y-97058000D01*
X113493860Y-97058000D01*
X113521928Y-97060764D01*
G37*
G36*
X118471928Y-97060764D02*
G01*
X118493009Y-97067160D01*
X118512445Y-97077548D01*
X118529476Y-97091524D01*
X118543452Y-97108555D01*
X118553840Y-97127991D01*
X118560236Y-97149072D01*
X118563000Y-97177140D01*
X118563000Y-97640860D01*
X118560236Y-97668928D01*
X118553840Y-97690009D01*
X118543452Y-97709445D01*
X118529476Y-97726476D01*
X118512445Y-97740452D01*
X118493009Y-97750840D01*
X118471928Y-97757236D01*
X118443860Y-97760000D01*
X116630140Y-97760000D01*
X116602072Y-97757236D01*
X116580991Y-97750840D01*
X116561555Y-97740452D01*
X116544524Y-97726476D01*
X116530548Y-97709445D01*
X116520160Y-97690009D01*
X116513764Y-97668928D01*
X116511000Y-97640860D01*
X116511000Y-97177140D01*
X116513764Y-97149072D01*
X116520160Y-97127991D01*
X116530548Y-97108555D01*
X116544524Y-97091524D01*
X116561555Y-97077548D01*
X116580991Y-97067160D01*
X116602072Y-97060764D01*
X116630140Y-97058000D01*
X118443860Y-97058000D01*
X118471928Y-97060764D01*
G37*
G36*
X123145674Y-96027465D02*
G01*
X123183367Y-96038899D01*
X123218103Y-96057466D01*
X123248548Y-96082452D01*
X123273534Y-96112897D01*
X123292101Y-96147633D01*
X123303535Y-96185326D01*
X123308000Y-96230661D01*
X123308000Y-97317339D01*
X123303535Y-97362674D01*
X123292101Y-97400367D01*
X123273534Y-97435103D01*
X123248548Y-97465548D01*
X123218103Y-97490534D01*
X123183367Y-97509101D01*
X123145674Y-97520535D01*
X123100339Y-97525000D01*
X122263661Y-97525000D01*
X122218326Y-97520535D01*
X122180633Y-97509101D01*
X122145897Y-97490534D01*
X122115452Y-97465548D01*
X122090466Y-97435103D01*
X122071899Y-97400367D01*
X122060465Y-97362674D01*
X122056000Y-97317339D01*
X122056000Y-96230661D01*
X122060465Y-96185326D01*
X122071899Y-96147633D01*
X122090466Y-96112897D01*
X122115452Y-96082452D01*
X122145897Y-96057466D01*
X122180633Y-96038899D01*
X122218326Y-96027465D01*
X122263661Y-96023000D01*
X123100339Y-96023000D01*
X123145674Y-96027465D01*
G37*
G36*
X121095674Y-96027465D02*
G01*
X121133367Y-96038899D01*
X121168103Y-96057466D01*
X121198548Y-96082452D01*
X121223534Y-96112897D01*
X121242101Y-96147633D01*
X121253535Y-96185326D01*
X121258000Y-96230661D01*
X121258000Y-97317339D01*
X121253535Y-97362674D01*
X121242101Y-97400367D01*
X121223534Y-97435103D01*
X121198548Y-97465548D01*
X121168103Y-97490534D01*
X121133367Y-97509101D01*
X121095674Y-97520535D01*
X121050339Y-97525000D01*
X120213661Y-97525000D01*
X120168326Y-97520535D01*
X120130633Y-97509101D01*
X120095897Y-97490534D01*
X120065452Y-97465548D01*
X120040466Y-97435103D01*
X120021899Y-97400367D01*
X120010465Y-97362674D01*
X120006000Y-97317339D01*
X120006000Y-96230661D01*
X120010465Y-96185326D01*
X120021899Y-96147633D01*
X120040466Y-96112897D01*
X120065452Y-96082452D01*
X120095897Y-96057466D01*
X120130633Y-96038899D01*
X120168326Y-96027465D01*
X120213661Y-96023000D01*
X121050339Y-96023000D01*
X121095674Y-96027465D01*
G37*
G36*
X148221000Y-97421000D02*
G01*
X146419000Y-97421000D01*
X146419000Y-95619000D01*
X148221000Y-95619000D01*
X148221000Y-97421000D01*
G37*
G36*
X139813512Y-95623927D02*
G01*
X139962812Y-95653624D01*
X140126784Y-95721544D01*
X140274354Y-95820147D01*
X140399853Y-95945646D01*
X140498456Y-96093216D01*
X140566376Y-96257188D01*
X140601000Y-96431259D01*
X140601000Y-96608741D01*
X140566376Y-96782812D01*
X140498456Y-96946784D01*
X140399853Y-97094354D01*
X140274354Y-97219853D01*
X140126784Y-97318456D01*
X139962812Y-97386376D01*
X139813512Y-97416073D01*
X139788742Y-97421000D01*
X139611258Y-97421000D01*
X139586488Y-97416073D01*
X139437188Y-97386376D01*
X139273216Y-97318456D01*
X139125646Y-97219853D01*
X139000147Y-97094354D01*
X138901544Y-96946784D01*
X138833624Y-96782812D01*
X138799000Y-96608741D01*
X138799000Y-96431259D01*
X138833624Y-96257188D01*
X138901544Y-96093216D01*
X139000147Y-95945646D01*
X139125646Y-95820147D01*
X139273216Y-95721544D01*
X139437188Y-95653624D01*
X139586488Y-95623927D01*
X139611258Y-95619000D01*
X139788742Y-95619000D01*
X139813512Y-95623927D01*
G37*
G36*
X137273512Y-95623927D02*
G01*
X137422812Y-95653624D01*
X137586784Y-95721544D01*
X137734354Y-95820147D01*
X137859853Y-95945646D01*
X137958456Y-96093216D01*
X138026376Y-96257188D01*
X138061000Y-96431259D01*
X138061000Y-96608741D01*
X138026376Y-96782812D01*
X137958456Y-96946784D01*
X137859853Y-97094354D01*
X137734354Y-97219853D01*
X137586784Y-97318456D01*
X137422812Y-97386376D01*
X137273512Y-97416073D01*
X137248742Y-97421000D01*
X137071258Y-97421000D01*
X137046488Y-97416073D01*
X136897188Y-97386376D01*
X136733216Y-97318456D01*
X136585646Y-97219853D01*
X136460147Y-97094354D01*
X136361544Y-96946784D01*
X136293624Y-96782812D01*
X136259000Y-96608741D01*
X136259000Y-96431259D01*
X136293624Y-96257188D01*
X136361544Y-96093216D01*
X136460147Y-95945646D01*
X136585646Y-95820147D01*
X136733216Y-95721544D01*
X136897188Y-95653624D01*
X137046488Y-95623927D01*
X137071258Y-95619000D01*
X137248742Y-95619000D01*
X137273512Y-95623927D01*
G37*
G36*
X132981000Y-97421000D02*
G01*
X131179000Y-97421000D01*
X131179000Y-95619000D01*
X132981000Y-95619000D01*
X132981000Y-97421000D01*
G37*
G36*
X134733512Y-95623927D02*
G01*
X134882812Y-95653624D01*
X135046784Y-95721544D01*
X135194354Y-95820147D01*
X135319853Y-95945646D01*
X135418456Y-96093216D01*
X135486376Y-96257188D01*
X135521000Y-96431259D01*
X135521000Y-96608741D01*
X135486376Y-96782812D01*
X135418456Y-96946784D01*
X135319853Y-97094354D01*
X135194354Y-97219853D01*
X135046784Y-97318456D01*
X134882812Y-97386376D01*
X134733512Y-97416073D01*
X134708742Y-97421000D01*
X134531258Y-97421000D01*
X134506488Y-97416073D01*
X134357188Y-97386376D01*
X134193216Y-97318456D01*
X134045646Y-97219853D01*
X133920147Y-97094354D01*
X133821544Y-96946784D01*
X133753624Y-96782812D01*
X133719000Y-96608741D01*
X133719000Y-96431259D01*
X133753624Y-96257188D01*
X133821544Y-96093216D01*
X133920147Y-95945646D01*
X134045646Y-95820147D01*
X134193216Y-95721544D01*
X134357188Y-95653624D01*
X134506488Y-95623927D01*
X134531258Y-95619000D01*
X134708742Y-95619000D01*
X134733512Y-95623927D01*
G37*
G36*
X101125000Y-96651000D02*
G01*
X99123000Y-96651000D01*
X99123000Y-95749000D01*
X101125000Y-95749000D01*
X101125000Y-96651000D01*
G37*
G36*
X95283000Y-96651000D02*
G01*
X93281000Y-96651000D01*
X93281000Y-95749000D01*
X95283000Y-95749000D01*
X95283000Y-96651000D01*
G37*
G36*
X118471928Y-95790764D02*
G01*
X118493009Y-95797160D01*
X118512445Y-95807548D01*
X118529476Y-95821524D01*
X118543452Y-95838555D01*
X118553840Y-95857991D01*
X118560236Y-95879072D01*
X118563000Y-95907140D01*
X118563000Y-96370860D01*
X118560236Y-96398928D01*
X118553840Y-96420009D01*
X118543452Y-96439445D01*
X118529476Y-96456476D01*
X118512445Y-96470452D01*
X118493009Y-96480840D01*
X118471928Y-96487236D01*
X118443860Y-96490000D01*
X116630140Y-96490000D01*
X116602072Y-96487236D01*
X116580991Y-96480840D01*
X116561555Y-96470452D01*
X116544524Y-96456476D01*
X116530548Y-96439445D01*
X116520160Y-96420009D01*
X116513764Y-96398928D01*
X116511000Y-96370860D01*
X116511000Y-95907140D01*
X116513764Y-95879072D01*
X116520160Y-95857991D01*
X116530548Y-95838555D01*
X116544524Y-95821524D01*
X116561555Y-95807548D01*
X116580991Y-95797160D01*
X116602072Y-95790764D01*
X116630140Y-95788000D01*
X118443860Y-95788000D01*
X118471928Y-95790764D01*
G37*
G36*
X113521928Y-95790764D02*
G01*
X113543009Y-95797160D01*
X113562445Y-95807548D01*
X113579476Y-95821524D01*
X113593452Y-95838555D01*
X113603840Y-95857991D01*
X113610236Y-95879072D01*
X113613000Y-95907140D01*
X113613000Y-96370860D01*
X113610236Y-96398928D01*
X113603840Y-96420009D01*
X113593452Y-96439445D01*
X113579476Y-96456476D01*
X113562445Y-96470452D01*
X113543009Y-96480840D01*
X113521928Y-96487236D01*
X113493860Y-96490000D01*
X111680140Y-96490000D01*
X111652072Y-96487236D01*
X111630991Y-96480840D01*
X111611555Y-96470452D01*
X111594524Y-96456476D01*
X111580548Y-96439445D01*
X111570160Y-96420009D01*
X111563764Y-96398928D01*
X111561000Y-96370860D01*
X111561000Y-95907140D01*
X111563764Y-95879072D01*
X111570160Y-95857991D01*
X111580548Y-95838555D01*
X111594524Y-95821524D01*
X111611555Y-95807548D01*
X111630991Y-95797160D01*
X111652072Y-95790764D01*
X111680140Y-95788000D01*
X113493860Y-95788000D01*
X113521928Y-95790764D01*
G37*
G36*
X107887674Y-94503465D02*
G01*
X107925367Y-94514899D01*
X107960103Y-94533466D01*
X107990548Y-94558452D01*
X108015534Y-94588897D01*
X108034101Y-94623633D01*
X108045535Y-94661326D01*
X108050000Y-94706661D01*
X108050000Y-95793339D01*
X108045535Y-95838674D01*
X108034101Y-95876367D01*
X108015534Y-95911103D01*
X107990548Y-95941548D01*
X107960103Y-95966534D01*
X107925367Y-95985101D01*
X107887674Y-95996535D01*
X107842339Y-96001000D01*
X107005661Y-96001000D01*
X106960326Y-95996535D01*
X106922633Y-95985101D01*
X106887897Y-95966534D01*
X106857452Y-95941548D01*
X106832466Y-95911103D01*
X106813899Y-95876367D01*
X106802465Y-95838674D01*
X106798000Y-95793339D01*
X106798000Y-94706661D01*
X106802465Y-94661326D01*
X106813899Y-94623633D01*
X106832466Y-94588897D01*
X106857452Y-94558452D01*
X106887897Y-94533466D01*
X106922633Y-94514899D01*
X106960326Y-94503465D01*
X107005661Y-94499000D01*
X107842339Y-94499000D01*
X107887674Y-94503465D01*
G37*
G36*
X109937674Y-94503465D02*
G01*
X109975367Y-94514899D01*
X110010103Y-94533466D01*
X110040548Y-94558452D01*
X110065534Y-94588897D01*
X110084101Y-94623633D01*
X110095535Y-94661326D01*
X110100000Y-94706661D01*
X110100000Y-95793339D01*
X110095535Y-95838674D01*
X110084101Y-95876367D01*
X110065534Y-95911103D01*
X110040548Y-95941548D01*
X110010103Y-95966534D01*
X109975367Y-95985101D01*
X109937674Y-95996535D01*
X109892339Y-96001000D01*
X109055661Y-96001000D01*
X109010326Y-95996535D01*
X108972633Y-95985101D01*
X108937897Y-95966534D01*
X108907452Y-95941548D01*
X108882466Y-95911103D01*
X108863899Y-95876367D01*
X108852465Y-95838674D01*
X108848000Y-95793339D01*
X108848000Y-94706661D01*
X108852465Y-94661326D01*
X108863899Y-94623633D01*
X108882466Y-94588897D01*
X108907452Y-94558452D01*
X108937897Y-94533466D01*
X108972633Y-94514899D01*
X109010326Y-94503465D01*
X109055661Y-94499000D01*
X109892339Y-94499000D01*
X109937674Y-94503465D01*
G37*
G36*
X104125000Y-95701000D02*
G01*
X102123000Y-95701000D01*
X102123000Y-94799000D01*
X104125000Y-94799000D01*
X104125000Y-95701000D01*
G37*
G36*
X98283000Y-95701000D02*
G01*
X96281000Y-95701000D01*
X96281000Y-94799000D01*
X98283000Y-94799000D01*
X98283000Y-95701000D01*
G37*
G36*
X118471928Y-94520764D02*
G01*
X118493009Y-94527160D01*
X118512445Y-94537548D01*
X118529476Y-94551524D01*
X118543452Y-94568555D01*
X118553840Y-94587991D01*
X118560236Y-94609072D01*
X118563000Y-94637140D01*
X118563000Y-95100860D01*
X118560236Y-95128928D01*
X118553840Y-95150009D01*
X118543452Y-95169445D01*
X118529476Y-95186476D01*
X118512445Y-95200452D01*
X118493009Y-95210840D01*
X118471928Y-95217236D01*
X118443860Y-95220000D01*
X116630140Y-95220000D01*
X116602072Y-95217236D01*
X116580991Y-95210840D01*
X116561555Y-95200452D01*
X116544524Y-95186476D01*
X116530548Y-95169445D01*
X116520160Y-95150009D01*
X116513764Y-95128928D01*
X116511000Y-95100860D01*
X116511000Y-94637140D01*
X116513764Y-94609072D01*
X116520160Y-94587991D01*
X116530548Y-94568555D01*
X116544524Y-94551524D01*
X116561555Y-94537548D01*
X116580991Y-94527160D01*
X116602072Y-94520764D01*
X116630140Y-94518000D01*
X118443860Y-94518000D01*
X118471928Y-94520764D01*
G37*
G36*
X113521928Y-94520764D02*
G01*
X113543009Y-94527160D01*
X113562445Y-94537548D01*
X113579476Y-94551524D01*
X113593452Y-94568555D01*
X113603840Y-94587991D01*
X113610236Y-94609072D01*
X113613000Y-94637140D01*
X113613000Y-95100860D01*
X113610236Y-95128928D01*
X113603840Y-95150009D01*
X113593452Y-95169445D01*
X113579476Y-95186476D01*
X113562445Y-95200452D01*
X113543009Y-95210840D01*
X113521928Y-95217236D01*
X113493860Y-95220000D01*
X111680140Y-95220000D01*
X111652072Y-95217236D01*
X111630991Y-95210840D01*
X111611555Y-95200452D01*
X111594524Y-95186476D01*
X111580548Y-95169445D01*
X111570160Y-95150009D01*
X111563764Y-95128928D01*
X111561000Y-95100860D01*
X111561000Y-94637140D01*
X111563764Y-94609072D01*
X111570160Y-94587991D01*
X111580548Y-94568555D01*
X111594524Y-94551524D01*
X111611555Y-94537548D01*
X111630991Y-94527160D01*
X111652072Y-94520764D01*
X111680140Y-94518000D01*
X113493860Y-94518000D01*
X113521928Y-94520764D01*
G37*
G36*
X123145674Y-93487465D02*
G01*
X123183367Y-93498899D01*
X123218103Y-93517466D01*
X123248548Y-93542452D01*
X123273534Y-93572897D01*
X123292101Y-93607633D01*
X123303535Y-93645326D01*
X123308000Y-93690661D01*
X123308000Y-94777339D01*
X123303535Y-94822674D01*
X123292101Y-94860367D01*
X123273534Y-94895103D01*
X123248548Y-94925548D01*
X123218103Y-94950534D01*
X123183367Y-94969101D01*
X123145674Y-94980535D01*
X123100339Y-94985000D01*
X122263661Y-94985000D01*
X122218326Y-94980535D01*
X122180633Y-94969101D01*
X122145897Y-94950534D01*
X122115452Y-94925548D01*
X122090466Y-94895103D01*
X122071899Y-94860367D01*
X122060465Y-94822674D01*
X122056000Y-94777339D01*
X122056000Y-93690661D01*
X122060465Y-93645326D01*
X122071899Y-93607633D01*
X122090466Y-93572897D01*
X122115452Y-93542452D01*
X122145897Y-93517466D01*
X122180633Y-93498899D01*
X122218326Y-93487465D01*
X122263661Y-93483000D01*
X123100339Y-93483000D01*
X123145674Y-93487465D01*
G37*
G36*
X121095674Y-93487465D02*
G01*
X121133367Y-93498899D01*
X121168103Y-93517466D01*
X121198548Y-93542452D01*
X121223534Y-93572897D01*
X121242101Y-93607633D01*
X121253535Y-93645326D01*
X121258000Y-93690661D01*
X121258000Y-94777339D01*
X121253535Y-94822674D01*
X121242101Y-94860367D01*
X121223534Y-94895103D01*
X121198548Y-94925548D01*
X121168103Y-94950534D01*
X121133367Y-94969101D01*
X121095674Y-94980535D01*
X121050339Y-94985000D01*
X120213661Y-94985000D01*
X120168326Y-94980535D01*
X120130633Y-94969101D01*
X120095897Y-94950534D01*
X120065452Y-94925548D01*
X120040466Y-94895103D01*
X120021899Y-94860367D01*
X120010465Y-94822674D01*
X120006000Y-94777339D01*
X120006000Y-93690661D01*
X120010465Y-93645326D01*
X120021899Y-93607633D01*
X120040466Y-93572897D01*
X120065452Y-93542452D01*
X120095897Y-93517466D01*
X120130633Y-93498899D01*
X120168326Y-93487465D01*
X120213661Y-93483000D01*
X121050339Y-93483000D01*
X121095674Y-93487465D01*
G37*
G36*
X132193512Y-93083927D02*
G01*
X132342812Y-93113624D01*
X132506784Y-93181544D01*
X132654354Y-93280147D01*
X132779853Y-93405646D01*
X132878456Y-93553216D01*
X132946376Y-93717188D01*
X132981000Y-93891259D01*
X132981000Y-94068741D01*
X132946376Y-94242812D01*
X132878456Y-94406784D01*
X132779853Y-94554354D01*
X132654354Y-94679853D01*
X132506784Y-94778456D01*
X132342812Y-94846376D01*
X132193512Y-94876073D01*
X132168742Y-94881000D01*
X131991258Y-94881000D01*
X131966488Y-94876073D01*
X131817188Y-94846376D01*
X131653216Y-94778456D01*
X131505646Y-94679853D01*
X131380147Y-94554354D01*
X131281544Y-94406784D01*
X131213624Y-94242812D01*
X131179000Y-94068741D01*
X131179000Y-93891259D01*
X131213624Y-93717188D01*
X131281544Y-93553216D01*
X131380147Y-93405646D01*
X131505646Y-93280147D01*
X131653216Y-93181544D01*
X131817188Y-93113624D01*
X131966488Y-93083927D01*
X131991258Y-93079000D01*
X132168742Y-93079000D01*
X132193512Y-93083927D01*
G37*
G36*
X134733512Y-93083927D02*
G01*
X134882812Y-93113624D01*
X135046784Y-93181544D01*
X135194354Y-93280147D01*
X135319853Y-93405646D01*
X135418456Y-93553216D01*
X135486376Y-93717188D01*
X135521000Y-93891259D01*
X135521000Y-94068741D01*
X135486376Y-94242812D01*
X135418456Y-94406784D01*
X135319853Y-94554354D01*
X135194354Y-94679853D01*
X135046784Y-94778456D01*
X134882812Y-94846376D01*
X134733512Y-94876073D01*
X134708742Y-94881000D01*
X134531258Y-94881000D01*
X134506488Y-94876073D01*
X134357188Y-94846376D01*
X134193216Y-94778456D01*
X134045646Y-94679853D01*
X133920147Y-94554354D01*
X133821544Y-94406784D01*
X133753624Y-94242812D01*
X133719000Y-94068741D01*
X133719000Y-93891259D01*
X133753624Y-93717188D01*
X133821544Y-93553216D01*
X133920147Y-93405646D01*
X134045646Y-93280147D01*
X134193216Y-93181544D01*
X134357188Y-93113624D01*
X134506488Y-93083927D01*
X134531258Y-93079000D01*
X134708742Y-93079000D01*
X134733512Y-93083927D01*
G37*
G36*
X137273512Y-93083927D02*
G01*
X137422812Y-93113624D01*
X137586784Y-93181544D01*
X137734354Y-93280147D01*
X137859853Y-93405646D01*
X137958456Y-93553216D01*
X138026376Y-93717188D01*
X138061000Y-93891259D01*
X138061000Y-94068741D01*
X138026376Y-94242812D01*
X137958456Y-94406784D01*
X137859853Y-94554354D01*
X137734354Y-94679853D01*
X137586784Y-94778456D01*
X137422812Y-94846376D01*
X137273512Y-94876073D01*
X137248742Y-94881000D01*
X137071258Y-94881000D01*
X137046488Y-94876073D01*
X136897188Y-94846376D01*
X136733216Y-94778456D01*
X136585646Y-94679853D01*
X136460147Y-94554354D01*
X136361544Y-94406784D01*
X136293624Y-94242812D01*
X136259000Y-94068741D01*
X136259000Y-93891259D01*
X136293624Y-93717188D01*
X136361544Y-93553216D01*
X136460147Y-93405646D01*
X136585646Y-93280147D01*
X136733216Y-93181544D01*
X136897188Y-93113624D01*
X137046488Y-93083927D01*
X137071258Y-93079000D01*
X137248742Y-93079000D01*
X137273512Y-93083927D01*
G37*
G36*
X139813512Y-93083927D02*
G01*
X139962812Y-93113624D01*
X140126784Y-93181544D01*
X140274354Y-93280147D01*
X140399853Y-93405646D01*
X140498456Y-93553216D01*
X140566376Y-93717188D01*
X140601000Y-93891259D01*
X140601000Y-94068741D01*
X140566376Y-94242812D01*
X140498456Y-94406784D01*
X140399853Y-94554354D01*
X140274354Y-94679853D01*
X140126784Y-94778456D01*
X139962812Y-94846376D01*
X139813512Y-94876073D01*
X139788742Y-94881000D01*
X139611258Y-94881000D01*
X139586488Y-94876073D01*
X139437188Y-94846376D01*
X139273216Y-94778456D01*
X139125646Y-94679853D01*
X139000147Y-94554354D01*
X138901544Y-94406784D01*
X138833624Y-94242812D01*
X138799000Y-94068741D01*
X138799000Y-93891259D01*
X138833624Y-93717188D01*
X138901544Y-93553216D01*
X139000147Y-93405646D01*
X139125646Y-93280147D01*
X139273216Y-93181544D01*
X139437188Y-93113624D01*
X139586488Y-93083927D01*
X139611258Y-93079000D01*
X139788742Y-93079000D01*
X139813512Y-93083927D01*
G37*
G36*
X95283000Y-94751000D02*
G01*
X93281000Y-94751000D01*
X93281000Y-93849000D01*
X95283000Y-93849000D01*
X95283000Y-94751000D01*
G37*
G36*
X101125000Y-94751000D02*
G01*
X99123000Y-94751000D01*
X99123000Y-93849000D01*
X101125000Y-93849000D01*
X101125000Y-94751000D01*
G37*
G36*
X118471928Y-93250764D02*
G01*
X118493009Y-93257160D01*
X118512445Y-93267548D01*
X118529476Y-93281524D01*
X118543452Y-93298555D01*
X118553840Y-93317991D01*
X118560236Y-93339072D01*
X118563000Y-93367140D01*
X118563000Y-93830860D01*
X118560236Y-93858928D01*
X118553840Y-93880009D01*
X118543452Y-93899445D01*
X118529476Y-93916476D01*
X118512445Y-93930452D01*
X118493009Y-93940840D01*
X118471928Y-93947236D01*
X118443860Y-93950000D01*
X116630140Y-93950000D01*
X116602072Y-93947236D01*
X116580991Y-93940840D01*
X116561555Y-93930452D01*
X116544524Y-93916476D01*
X116530548Y-93899445D01*
X116520160Y-93880009D01*
X116513764Y-93858928D01*
X116511000Y-93830860D01*
X116511000Y-93367140D01*
X116513764Y-93339072D01*
X116520160Y-93317991D01*
X116530548Y-93298555D01*
X116544524Y-93281524D01*
X116561555Y-93267548D01*
X116580991Y-93257160D01*
X116602072Y-93250764D01*
X116630140Y-93248000D01*
X118443860Y-93248000D01*
X118471928Y-93250764D01*
G37*
G36*
X113521928Y-93250764D02*
G01*
X113543009Y-93257160D01*
X113562445Y-93267548D01*
X113579476Y-93281524D01*
X113593452Y-93298555D01*
X113603840Y-93317991D01*
X113610236Y-93339072D01*
X113613000Y-93367140D01*
X113613000Y-93830860D01*
X113610236Y-93858928D01*
X113603840Y-93880009D01*
X113593452Y-93899445D01*
X113579476Y-93916476D01*
X113562445Y-93930452D01*
X113543009Y-93940840D01*
X113521928Y-93947236D01*
X113493860Y-93950000D01*
X111680140Y-93950000D01*
X111652072Y-93947236D01*
X111630991Y-93940840D01*
X111611555Y-93930452D01*
X111594524Y-93916476D01*
X111580548Y-93899445D01*
X111570160Y-93880009D01*
X111563764Y-93858928D01*
X111561000Y-93830860D01*
X111561000Y-93367140D01*
X111563764Y-93339072D01*
X111570160Y-93317991D01*
X111580548Y-93298555D01*
X111594524Y-93281524D01*
X111611555Y-93267548D01*
X111630991Y-93257160D01*
X111652072Y-93250764D01*
X111680140Y-93248000D01*
X113493860Y-93248000D01*
X113521928Y-93250764D01*
G37*
G36*
X109955674Y-91963465D02*
G01*
X109993367Y-91974899D01*
X110028103Y-91993466D01*
X110058548Y-92018452D01*
X110083534Y-92048897D01*
X110102101Y-92083633D01*
X110113535Y-92121326D01*
X110118000Y-92166661D01*
X110118000Y-93253339D01*
X110113535Y-93298674D01*
X110102101Y-93336367D01*
X110083534Y-93371103D01*
X110058548Y-93401548D01*
X110028103Y-93426534D01*
X109993367Y-93445101D01*
X109955674Y-93456535D01*
X109910339Y-93461000D01*
X109073661Y-93461000D01*
X109028326Y-93456535D01*
X108990633Y-93445101D01*
X108955897Y-93426534D01*
X108925452Y-93401548D01*
X108900466Y-93371103D01*
X108881899Y-93336367D01*
X108870465Y-93298674D01*
X108866000Y-93253339D01*
X108866000Y-92166661D01*
X108870465Y-92121326D01*
X108881899Y-92083633D01*
X108900466Y-92048897D01*
X108925452Y-92018452D01*
X108955897Y-91993466D01*
X108990633Y-91974899D01*
X109028326Y-91963465D01*
X109073661Y-91959000D01*
X109910339Y-91959000D01*
X109955674Y-91963465D01*
G37*
G36*
X107905674Y-91963465D02*
G01*
X107943367Y-91974899D01*
X107978103Y-91993466D01*
X108008548Y-92018452D01*
X108033534Y-92048897D01*
X108052101Y-92083633D01*
X108063535Y-92121326D01*
X108068000Y-92166661D01*
X108068000Y-93253339D01*
X108063535Y-93298674D01*
X108052101Y-93336367D01*
X108033534Y-93371103D01*
X108008548Y-93401548D01*
X107978103Y-93426534D01*
X107943367Y-93445101D01*
X107905674Y-93456535D01*
X107860339Y-93461000D01*
X107023661Y-93461000D01*
X106978326Y-93456535D01*
X106940633Y-93445101D01*
X106905897Y-93426534D01*
X106875452Y-93401548D01*
X106850466Y-93371103D01*
X106831899Y-93336367D01*
X106820465Y-93298674D01*
X106816000Y-93253339D01*
X106816000Y-92166661D01*
X106820465Y-92121326D01*
X106831899Y-92083633D01*
X106850466Y-92048897D01*
X106875452Y-92018452D01*
X106905897Y-91993466D01*
X106940633Y-91974899D01*
X106978326Y-91963465D01*
X107023661Y-91959000D01*
X107860339Y-91959000D01*
X107905674Y-91963465D01*
G37*
G36*
X100664674Y-91598465D02*
G01*
X100702367Y-91609899D01*
X100737103Y-91628466D01*
X100767548Y-91653452D01*
X100792534Y-91683897D01*
X100811101Y-91718633D01*
X100822535Y-91756326D01*
X100827000Y-91801661D01*
X100827000Y-92638339D01*
X100822535Y-92683674D01*
X100811101Y-92721367D01*
X100792534Y-92756103D01*
X100767548Y-92786548D01*
X100737103Y-92811534D01*
X100702367Y-92830101D01*
X100664674Y-92841535D01*
X100619339Y-92846000D01*
X99532661Y-92846000D01*
X99487326Y-92841535D01*
X99449633Y-92830101D01*
X99414897Y-92811534D01*
X99384452Y-92786548D01*
X99359466Y-92756103D01*
X99340899Y-92721367D01*
X99329465Y-92683674D01*
X99325000Y-92638339D01*
X99325000Y-91801661D01*
X99329465Y-91756326D01*
X99340899Y-91718633D01*
X99359466Y-91683897D01*
X99384452Y-91653452D01*
X99414897Y-91628466D01*
X99449633Y-91609899D01*
X99487326Y-91598465D01*
X99532661Y-91594000D01*
X100619339Y-91594000D01*
X100664674Y-91598465D01*
G37*
G36*
X123163674Y-90947465D02*
G01*
X123201367Y-90958899D01*
X123236103Y-90977466D01*
X123266548Y-91002452D01*
X123291534Y-91032897D01*
X123310101Y-91067633D01*
X123321535Y-91105326D01*
X123326000Y-91150661D01*
X123326000Y-92237339D01*
X123321535Y-92282674D01*
X123310101Y-92320367D01*
X123291534Y-92355103D01*
X123266548Y-92385548D01*
X123236103Y-92410534D01*
X123201367Y-92429101D01*
X123163674Y-92440535D01*
X123118339Y-92445000D01*
X122281661Y-92445000D01*
X122236326Y-92440535D01*
X122198633Y-92429101D01*
X122163897Y-92410534D01*
X122133452Y-92385548D01*
X122108466Y-92355103D01*
X122089899Y-92320367D01*
X122078465Y-92282674D01*
X122074000Y-92237339D01*
X122074000Y-91150661D01*
X122078465Y-91105326D01*
X122089899Y-91067633D01*
X122108466Y-91032897D01*
X122133452Y-91002452D01*
X122163897Y-90977466D01*
X122198633Y-90958899D01*
X122236326Y-90947465D01*
X122281661Y-90943000D01*
X123118339Y-90943000D01*
X123163674Y-90947465D01*
G37*
G36*
X121113674Y-90947465D02*
G01*
X121151367Y-90958899D01*
X121186103Y-90977466D01*
X121216548Y-91002452D01*
X121241534Y-91032897D01*
X121260101Y-91067633D01*
X121271535Y-91105326D01*
X121276000Y-91150661D01*
X121276000Y-92237339D01*
X121271535Y-92282674D01*
X121260101Y-92320367D01*
X121241534Y-92355103D01*
X121216548Y-92385548D01*
X121186103Y-92410534D01*
X121151367Y-92429101D01*
X121113674Y-92440535D01*
X121068339Y-92445000D01*
X120231661Y-92445000D01*
X120186326Y-92440535D01*
X120148633Y-92429101D01*
X120113897Y-92410534D01*
X120083452Y-92385548D01*
X120058466Y-92355103D01*
X120039899Y-92320367D01*
X120028465Y-92282674D01*
X120024000Y-92237339D01*
X120024000Y-91150661D01*
X120028465Y-91105326D01*
X120039899Y-91067633D01*
X120058466Y-91032897D01*
X120083452Y-91002452D01*
X120113897Y-90977466D01*
X120148633Y-90958899D01*
X120186326Y-90947465D01*
X120231661Y-90943000D01*
X121068339Y-90943000D01*
X121113674Y-90947465D01*
G37*
G36*
X100664674Y-89548465D02*
G01*
X100702367Y-89559899D01*
X100737103Y-89578466D01*
X100767548Y-89603452D01*
X100792534Y-89633897D01*
X100811101Y-89668633D01*
X100822535Y-89706326D01*
X100827000Y-89751661D01*
X100827000Y-90588339D01*
X100822535Y-90633674D01*
X100811101Y-90671367D01*
X100792534Y-90706103D01*
X100767548Y-90736548D01*
X100737103Y-90761534D01*
X100702367Y-90780101D01*
X100664674Y-90791535D01*
X100619339Y-90796000D01*
X99532661Y-90796000D01*
X99487326Y-90791535D01*
X99449633Y-90780101D01*
X99414897Y-90761534D01*
X99384452Y-90736548D01*
X99359466Y-90706103D01*
X99340899Y-90671367D01*
X99329465Y-90633674D01*
X99325000Y-90588339D01*
X99325000Y-89751661D01*
X99329465Y-89706326D01*
X99340899Y-89668633D01*
X99359466Y-89633897D01*
X99384452Y-89603452D01*
X99414897Y-89578466D01*
X99449633Y-89559899D01*
X99487326Y-89548465D01*
X99532661Y-89544000D01*
X100619339Y-89544000D01*
X100664674Y-89548465D01*
G37*
G36*
X117031674Y-89169465D02*
G01*
X117069367Y-89180899D01*
X117104103Y-89199466D01*
X117134548Y-89224452D01*
X117159534Y-89254897D01*
X117178101Y-89289633D01*
X117189535Y-89327326D01*
X117194000Y-89372661D01*
X117194000Y-90459339D01*
X117189535Y-90504674D01*
X117178101Y-90542367D01*
X117159534Y-90577103D01*
X117134548Y-90607548D01*
X117104103Y-90632534D01*
X117069367Y-90651101D01*
X117031674Y-90662535D01*
X116986339Y-90667000D01*
X116149661Y-90667000D01*
X116104326Y-90662535D01*
X116066633Y-90651101D01*
X116031897Y-90632534D01*
X116001452Y-90607548D01*
X115976466Y-90577103D01*
X115957899Y-90542367D01*
X115946465Y-90504674D01*
X115942000Y-90459339D01*
X115942000Y-89372661D01*
X115946465Y-89327326D01*
X115957899Y-89289633D01*
X115976466Y-89254897D01*
X116001452Y-89224452D01*
X116031897Y-89199466D01*
X116066633Y-89180899D01*
X116104326Y-89169465D01*
X116149661Y-89165000D01*
X116986339Y-89165000D01*
X117031674Y-89169465D01*
G37*
G36*
X119081674Y-89169465D02*
G01*
X119119367Y-89180899D01*
X119154103Y-89199466D01*
X119184548Y-89224452D01*
X119209534Y-89254897D01*
X119228101Y-89289633D01*
X119239535Y-89327326D01*
X119244000Y-89372661D01*
X119244000Y-90459339D01*
X119239535Y-90504674D01*
X119228101Y-90542367D01*
X119209534Y-90577103D01*
X119184548Y-90607548D01*
X119154103Y-90632534D01*
X119119367Y-90651101D01*
X119081674Y-90662535D01*
X119036339Y-90667000D01*
X118199661Y-90667000D01*
X118154326Y-90662535D01*
X118116633Y-90651101D01*
X118081897Y-90632534D01*
X118051452Y-90607548D01*
X118026466Y-90577103D01*
X118007899Y-90542367D01*
X117996465Y-90504674D01*
X117992000Y-90459339D01*
X117992000Y-89372661D01*
X117996465Y-89327326D01*
X118007899Y-89289633D01*
X118026466Y-89254897D01*
X118051452Y-89224452D01*
X118081897Y-89199466D01*
X118116633Y-89180899D01*
X118154326Y-89169465D01*
X118199661Y-89165000D01*
X119036339Y-89165000D01*
X119081674Y-89169465D01*
G37*
G36*
X104537000Y-86353000D02*
G01*
X103235000Y-86353000D01*
X103235000Y-85351000D01*
X104537000Y-85351000D01*
X104537000Y-86353000D01*
G37*
G36*
X101489000Y-86351000D02*
G01*
X100187000Y-86351000D01*
X100187000Y-85349000D01*
X101489000Y-85349000D01*
X101489000Y-86351000D01*
G37*
G36*
X124794674Y-84486465D02*
G01*
X124832367Y-84497899D01*
X124867103Y-84516466D01*
X124897548Y-84541452D01*
X124922534Y-84571897D01*
X124941101Y-84606633D01*
X124952535Y-84644326D01*
X124957000Y-84689661D01*
X124957000Y-85526339D01*
X124952535Y-85571674D01*
X124941101Y-85609367D01*
X124922534Y-85644103D01*
X124897548Y-85674548D01*
X124867103Y-85699534D01*
X124832367Y-85718101D01*
X124794674Y-85729535D01*
X124749339Y-85734000D01*
X123662661Y-85734000D01*
X123617326Y-85729535D01*
X123579633Y-85718101D01*
X123544897Y-85699534D01*
X123514452Y-85674548D01*
X123489466Y-85644103D01*
X123470899Y-85609367D01*
X123459465Y-85571674D01*
X123455000Y-85526339D01*
X123455000Y-84689661D01*
X123459465Y-84644326D01*
X123470899Y-84606633D01*
X123489466Y-84571897D01*
X123514452Y-84541452D01*
X123544897Y-84516466D01*
X123579633Y-84497899D01*
X123617326Y-84486465D01*
X123662661Y-84482000D01*
X124749339Y-84482000D01*
X124794674Y-84486465D01*
G37*
G36*
X122000674Y-84486465D02*
G01*
X122038367Y-84497899D01*
X122073103Y-84516466D01*
X122103548Y-84541452D01*
X122128534Y-84571897D01*
X122147101Y-84606633D01*
X122158535Y-84644326D01*
X122163000Y-84689661D01*
X122163000Y-85526339D01*
X122158535Y-85571674D01*
X122147101Y-85609367D01*
X122128534Y-85644103D01*
X122103548Y-85674548D01*
X122073103Y-85699534D01*
X122038367Y-85718101D01*
X122000674Y-85729535D01*
X121955339Y-85734000D01*
X120868661Y-85734000D01*
X120823326Y-85729535D01*
X120785633Y-85718101D01*
X120750897Y-85699534D01*
X120720452Y-85674548D01*
X120695466Y-85644103D01*
X120676899Y-85609367D01*
X120665465Y-85571674D01*
X120661000Y-85526339D01*
X120661000Y-84689661D01*
X120665465Y-84644326D01*
X120676899Y-84606633D01*
X120695466Y-84571897D01*
X120720452Y-84541452D01*
X120750897Y-84516466D01*
X120785633Y-84497899D01*
X120823326Y-84486465D01*
X120868661Y-84482000D01*
X121955339Y-84482000D01*
X122000674Y-84486465D01*
G37*
G36*
X138764674Y-84486465D02*
G01*
X138802367Y-84497899D01*
X138837103Y-84516466D01*
X138867548Y-84541452D01*
X138892534Y-84571897D01*
X138911101Y-84606633D01*
X138922535Y-84644326D01*
X138927000Y-84689661D01*
X138927000Y-85526339D01*
X138922535Y-85571674D01*
X138911101Y-85609367D01*
X138892534Y-85644103D01*
X138867548Y-85674548D01*
X138837103Y-85699534D01*
X138802367Y-85718101D01*
X138764674Y-85729535D01*
X138719339Y-85734000D01*
X137632661Y-85734000D01*
X137587326Y-85729535D01*
X137549633Y-85718101D01*
X137514897Y-85699534D01*
X137484452Y-85674548D01*
X137459466Y-85644103D01*
X137440899Y-85609367D01*
X137429465Y-85571674D01*
X137425000Y-85526339D01*
X137425000Y-84689661D01*
X137429465Y-84644326D01*
X137440899Y-84606633D01*
X137459466Y-84571897D01*
X137484452Y-84541452D01*
X137514897Y-84516466D01*
X137549633Y-84497899D01*
X137587326Y-84486465D01*
X137632661Y-84482000D01*
X138719339Y-84482000D01*
X138764674Y-84486465D01*
G37*
G36*
X111586674Y-84486465D02*
G01*
X111624367Y-84497899D01*
X111659103Y-84516466D01*
X111689548Y-84541452D01*
X111714534Y-84571897D01*
X111733101Y-84606633D01*
X111744535Y-84644326D01*
X111749000Y-84689661D01*
X111749000Y-85526339D01*
X111744535Y-85571674D01*
X111733101Y-85609367D01*
X111714534Y-85644103D01*
X111689548Y-85674548D01*
X111659103Y-85699534D01*
X111624367Y-85718101D01*
X111586674Y-85729535D01*
X111541339Y-85734000D01*
X110454661Y-85734000D01*
X110409326Y-85729535D01*
X110371633Y-85718101D01*
X110336897Y-85699534D01*
X110306452Y-85674548D01*
X110281466Y-85644103D01*
X110262899Y-85609367D01*
X110251465Y-85571674D01*
X110247000Y-85526339D01*
X110247000Y-84689661D01*
X110251465Y-84644326D01*
X110262899Y-84606633D01*
X110281466Y-84571897D01*
X110306452Y-84541452D01*
X110336897Y-84516466D01*
X110371633Y-84497899D01*
X110409326Y-84486465D01*
X110454661Y-84482000D01*
X111541339Y-84482000D01*
X111586674Y-84486465D01*
G37*
G36*
X114380674Y-84477465D02*
G01*
X114418367Y-84488899D01*
X114453103Y-84507466D01*
X114483548Y-84532452D01*
X114508534Y-84562897D01*
X114527101Y-84597633D01*
X114538535Y-84635326D01*
X114543000Y-84680661D01*
X114543000Y-85517339D01*
X114538535Y-85562674D01*
X114527101Y-85600367D01*
X114508534Y-85635103D01*
X114483548Y-85665548D01*
X114453103Y-85690534D01*
X114418367Y-85709101D01*
X114380674Y-85720535D01*
X114335339Y-85725000D01*
X113248661Y-85725000D01*
X113203326Y-85720535D01*
X113165633Y-85709101D01*
X113130897Y-85690534D01*
X113100452Y-85665548D01*
X113075466Y-85635103D01*
X113056899Y-85600367D01*
X113045465Y-85562674D01*
X113041000Y-85517339D01*
X113041000Y-84680661D01*
X113045465Y-84635326D01*
X113056899Y-84597633D01*
X113075466Y-84562897D01*
X113100452Y-84532452D01*
X113130897Y-84507466D01*
X113165633Y-84488899D01*
X113203326Y-84477465D01*
X113248661Y-84473000D01*
X114335339Y-84473000D01*
X114380674Y-84477465D01*
G37*
G36*
X135970674Y-84477465D02*
G01*
X136008367Y-84488899D01*
X136043103Y-84507466D01*
X136073548Y-84532452D01*
X136098534Y-84562897D01*
X136117101Y-84597633D01*
X136128535Y-84635326D01*
X136133000Y-84680661D01*
X136133000Y-85517339D01*
X136128535Y-85562674D01*
X136117101Y-85600367D01*
X136098534Y-85635103D01*
X136073548Y-85665548D01*
X136043103Y-85690534D01*
X136008367Y-85709101D01*
X135970674Y-85720535D01*
X135925339Y-85725000D01*
X134838661Y-85725000D01*
X134793326Y-85720535D01*
X134755633Y-85709101D01*
X134720897Y-85690534D01*
X134690452Y-85665548D01*
X134665466Y-85635103D01*
X134646899Y-85600367D01*
X134635465Y-85562674D01*
X134631000Y-85517339D01*
X134631000Y-84680661D01*
X134635465Y-84635326D01*
X134646899Y-84597633D01*
X134665466Y-84562897D01*
X134690452Y-84532452D01*
X134720897Y-84507466D01*
X134755633Y-84488899D01*
X134793326Y-84477465D01*
X134838661Y-84473000D01*
X135925339Y-84473000D01*
X135970674Y-84477465D01*
G37*
G36*
X130382674Y-84468465D02*
G01*
X130420367Y-84479899D01*
X130455103Y-84498466D01*
X130485548Y-84523452D01*
X130510534Y-84553897D01*
X130529101Y-84588633D01*
X130540535Y-84626326D01*
X130545000Y-84671661D01*
X130545000Y-85508339D01*
X130540535Y-85553674D01*
X130529101Y-85591367D01*
X130510534Y-85626103D01*
X130485548Y-85656548D01*
X130455103Y-85681534D01*
X130420367Y-85700101D01*
X130382674Y-85711535D01*
X130337339Y-85716000D01*
X129250661Y-85716000D01*
X129205326Y-85711535D01*
X129167633Y-85700101D01*
X129132897Y-85681534D01*
X129102452Y-85656548D01*
X129077466Y-85626103D01*
X129058899Y-85591367D01*
X129047465Y-85553674D01*
X129043000Y-85508339D01*
X129043000Y-84671661D01*
X129047465Y-84626326D01*
X129058899Y-84588633D01*
X129077466Y-84553897D01*
X129102452Y-84523452D01*
X129132897Y-84498466D01*
X129167633Y-84479899D01*
X129205326Y-84468465D01*
X129250661Y-84464000D01*
X130337339Y-84464000D01*
X130382674Y-84468465D01*
G37*
G36*
X127588674Y-84468465D02*
G01*
X127626367Y-84479899D01*
X127661103Y-84498466D01*
X127691548Y-84523452D01*
X127716534Y-84553897D01*
X127735101Y-84588633D01*
X127746535Y-84626326D01*
X127751000Y-84671661D01*
X127751000Y-85508339D01*
X127746535Y-85553674D01*
X127735101Y-85591367D01*
X127716534Y-85626103D01*
X127691548Y-85656548D01*
X127661103Y-85681534D01*
X127626367Y-85700101D01*
X127588674Y-85711535D01*
X127543339Y-85716000D01*
X126456661Y-85716000D01*
X126411326Y-85711535D01*
X126373633Y-85700101D01*
X126338897Y-85681534D01*
X126308452Y-85656548D01*
X126283466Y-85626103D01*
X126264899Y-85591367D01*
X126253465Y-85553674D01*
X126249000Y-85508339D01*
X126249000Y-84671661D01*
X126253465Y-84626326D01*
X126264899Y-84588633D01*
X126283466Y-84553897D01*
X126308452Y-84523452D01*
X126338897Y-84498466D01*
X126373633Y-84479899D01*
X126411326Y-84468465D01*
X126456661Y-84464000D01*
X127543339Y-84464000D01*
X127588674Y-84468465D01*
G37*
G36*
X108792674Y-84468465D02*
G01*
X108830367Y-84479899D01*
X108865103Y-84498466D01*
X108895548Y-84523452D01*
X108920534Y-84553897D01*
X108939101Y-84588633D01*
X108950535Y-84626326D01*
X108955000Y-84671661D01*
X108955000Y-85508339D01*
X108950535Y-85553674D01*
X108939101Y-85591367D01*
X108920534Y-85626103D01*
X108895548Y-85656548D01*
X108865103Y-85681534D01*
X108830367Y-85700101D01*
X108792674Y-85711535D01*
X108747339Y-85716000D01*
X107660661Y-85716000D01*
X107615326Y-85711535D01*
X107577633Y-85700101D01*
X107542897Y-85681534D01*
X107512452Y-85656548D01*
X107487466Y-85626103D01*
X107468899Y-85591367D01*
X107457465Y-85553674D01*
X107453000Y-85508339D01*
X107453000Y-84671661D01*
X107457465Y-84626326D01*
X107468899Y-84588633D01*
X107487466Y-84553897D01*
X107512452Y-84523452D01*
X107542897Y-84498466D01*
X107577633Y-84479899D01*
X107615326Y-84468465D01*
X107660661Y-84464000D01*
X108747339Y-84464000D01*
X108792674Y-84468465D01*
G37*
G36*
X133176674Y-84468465D02*
G01*
X133214367Y-84479899D01*
X133249103Y-84498466D01*
X133279548Y-84523452D01*
X133304534Y-84553897D01*
X133323101Y-84588633D01*
X133334535Y-84626326D01*
X133339000Y-84671661D01*
X133339000Y-85508339D01*
X133334535Y-85553674D01*
X133323101Y-85591367D01*
X133304534Y-85626103D01*
X133279548Y-85656548D01*
X133249103Y-85681534D01*
X133214367Y-85700101D01*
X133176674Y-85711535D01*
X133131339Y-85716000D01*
X132044661Y-85716000D01*
X131999326Y-85711535D01*
X131961633Y-85700101D01*
X131926897Y-85681534D01*
X131896452Y-85656548D01*
X131871466Y-85626103D01*
X131852899Y-85591367D01*
X131841465Y-85553674D01*
X131837000Y-85508339D01*
X131837000Y-84671661D01*
X131841465Y-84626326D01*
X131852899Y-84588633D01*
X131871466Y-84553897D01*
X131896452Y-84523452D01*
X131926897Y-84498466D01*
X131961633Y-84479899D01*
X131999326Y-84468465D01*
X132044661Y-84464000D01*
X133131339Y-84464000D01*
X133176674Y-84468465D01*
G37*
G36*
X138764674Y-82436465D02*
G01*
X138802367Y-82447899D01*
X138837103Y-82466466D01*
X138867548Y-82491452D01*
X138892534Y-82521897D01*
X138911101Y-82556633D01*
X138922535Y-82594326D01*
X138927000Y-82639661D01*
X138927000Y-83476339D01*
X138922535Y-83521674D01*
X138911101Y-83559367D01*
X138892534Y-83594103D01*
X138867548Y-83624548D01*
X138837103Y-83649534D01*
X138802367Y-83668101D01*
X138764674Y-83679535D01*
X138719339Y-83684000D01*
X137632661Y-83684000D01*
X137587326Y-83679535D01*
X137549633Y-83668101D01*
X137514897Y-83649534D01*
X137484452Y-83624548D01*
X137459466Y-83594103D01*
X137440899Y-83559367D01*
X137429465Y-83521674D01*
X137425000Y-83476339D01*
X137425000Y-82639661D01*
X137429465Y-82594326D01*
X137440899Y-82556633D01*
X137459466Y-82521897D01*
X137484452Y-82491452D01*
X137514897Y-82466466D01*
X137549633Y-82447899D01*
X137587326Y-82436465D01*
X137632661Y-82432000D01*
X138719339Y-82432000D01*
X138764674Y-82436465D01*
G37*
G36*
X122000674Y-82436465D02*
G01*
X122038367Y-82447899D01*
X122073103Y-82466466D01*
X122103548Y-82491452D01*
X122128534Y-82521897D01*
X122147101Y-82556633D01*
X122158535Y-82594326D01*
X122163000Y-82639661D01*
X122163000Y-83476339D01*
X122158535Y-83521674D01*
X122147101Y-83559367D01*
X122128534Y-83594103D01*
X122103548Y-83624548D01*
X122073103Y-83649534D01*
X122038367Y-83668101D01*
X122000674Y-83679535D01*
X121955339Y-83684000D01*
X120868661Y-83684000D01*
X120823326Y-83679535D01*
X120785633Y-83668101D01*
X120750897Y-83649534D01*
X120720452Y-83624548D01*
X120695466Y-83594103D01*
X120676899Y-83559367D01*
X120665465Y-83521674D01*
X120661000Y-83476339D01*
X120661000Y-82639661D01*
X120665465Y-82594326D01*
X120676899Y-82556633D01*
X120695466Y-82521897D01*
X120720452Y-82491452D01*
X120750897Y-82466466D01*
X120785633Y-82447899D01*
X120823326Y-82436465D01*
X120868661Y-82432000D01*
X121955339Y-82432000D01*
X122000674Y-82436465D01*
G37*
G36*
X124794674Y-82436465D02*
G01*
X124832367Y-82447899D01*
X124867103Y-82466466D01*
X124897548Y-82491452D01*
X124922534Y-82521897D01*
X124941101Y-82556633D01*
X124952535Y-82594326D01*
X124957000Y-82639661D01*
X124957000Y-83476339D01*
X124952535Y-83521674D01*
X124941101Y-83559367D01*
X124922534Y-83594103D01*
X124897548Y-83624548D01*
X124867103Y-83649534D01*
X124832367Y-83668101D01*
X124794674Y-83679535D01*
X124749339Y-83684000D01*
X123662661Y-83684000D01*
X123617326Y-83679535D01*
X123579633Y-83668101D01*
X123544897Y-83649534D01*
X123514452Y-83624548D01*
X123489466Y-83594103D01*
X123470899Y-83559367D01*
X123459465Y-83521674D01*
X123455000Y-83476339D01*
X123455000Y-82639661D01*
X123459465Y-82594326D01*
X123470899Y-82556633D01*
X123489466Y-82521897D01*
X123514452Y-82491452D01*
X123544897Y-82466466D01*
X123579633Y-82447899D01*
X123617326Y-82436465D01*
X123662661Y-82432000D01*
X124749339Y-82432000D01*
X124794674Y-82436465D01*
G37*
G36*
X111586674Y-82436465D02*
G01*
X111624367Y-82447899D01*
X111659103Y-82466466D01*
X111689548Y-82491452D01*
X111714534Y-82521897D01*
X111733101Y-82556633D01*
X111744535Y-82594326D01*
X111749000Y-82639661D01*
X111749000Y-83476339D01*
X111744535Y-83521674D01*
X111733101Y-83559367D01*
X111714534Y-83594103D01*
X111689548Y-83624548D01*
X111659103Y-83649534D01*
X111624367Y-83668101D01*
X111586674Y-83679535D01*
X111541339Y-83684000D01*
X110454661Y-83684000D01*
X110409326Y-83679535D01*
X110371633Y-83668101D01*
X110336897Y-83649534D01*
X110306452Y-83624548D01*
X110281466Y-83594103D01*
X110262899Y-83559367D01*
X110251465Y-83521674D01*
X110247000Y-83476339D01*
X110247000Y-82639661D01*
X110251465Y-82594326D01*
X110262899Y-82556633D01*
X110281466Y-82521897D01*
X110306452Y-82491452D01*
X110336897Y-82466466D01*
X110371633Y-82447899D01*
X110409326Y-82436465D01*
X110454661Y-82432000D01*
X111541339Y-82432000D01*
X111586674Y-82436465D01*
G37*
G36*
X114380674Y-82427465D02*
G01*
X114418367Y-82438899D01*
X114453103Y-82457466D01*
X114483548Y-82482452D01*
X114508534Y-82512897D01*
X114527101Y-82547633D01*
X114538535Y-82585326D01*
X114543000Y-82630661D01*
X114543000Y-83467339D01*
X114538535Y-83512674D01*
X114527101Y-83550367D01*
X114508534Y-83585103D01*
X114483548Y-83615548D01*
X114453103Y-83640534D01*
X114418367Y-83659101D01*
X114380674Y-83670535D01*
X114335339Y-83675000D01*
X113248661Y-83675000D01*
X113203326Y-83670535D01*
X113165633Y-83659101D01*
X113130897Y-83640534D01*
X113100452Y-83615548D01*
X113075466Y-83585103D01*
X113056899Y-83550367D01*
X113045465Y-83512674D01*
X113041000Y-83467339D01*
X113041000Y-82630661D01*
X113045465Y-82585326D01*
X113056899Y-82547633D01*
X113075466Y-82512897D01*
X113100452Y-82482452D01*
X113130897Y-82457466D01*
X113165633Y-82438899D01*
X113203326Y-82427465D01*
X113248661Y-82423000D01*
X114335339Y-82423000D01*
X114380674Y-82427465D01*
G37*
G36*
X135970674Y-82427465D02*
G01*
X136008367Y-82438899D01*
X136043103Y-82457466D01*
X136073548Y-82482452D01*
X136098534Y-82512897D01*
X136117101Y-82547633D01*
X136128535Y-82585326D01*
X136133000Y-82630661D01*
X136133000Y-83467339D01*
X136128535Y-83512674D01*
X136117101Y-83550367D01*
X136098534Y-83585103D01*
X136073548Y-83615548D01*
X136043103Y-83640534D01*
X136008367Y-83659101D01*
X135970674Y-83670535D01*
X135925339Y-83675000D01*
X134838661Y-83675000D01*
X134793326Y-83670535D01*
X134755633Y-83659101D01*
X134720897Y-83640534D01*
X134690452Y-83615548D01*
X134665466Y-83585103D01*
X134646899Y-83550367D01*
X134635465Y-83512674D01*
X134631000Y-83467339D01*
X134631000Y-82630661D01*
X134635465Y-82585326D01*
X134646899Y-82547633D01*
X134665466Y-82512897D01*
X134690452Y-82482452D01*
X134720897Y-82457466D01*
X134755633Y-82438899D01*
X134793326Y-82427465D01*
X134838661Y-82423000D01*
X135925339Y-82423000D01*
X135970674Y-82427465D01*
G37*
G36*
X127588674Y-82418465D02*
G01*
X127626367Y-82429899D01*
X127661103Y-82448466D01*
X127691548Y-82473452D01*
X127716534Y-82503897D01*
X127735101Y-82538633D01*
X127746535Y-82576326D01*
X127751000Y-82621661D01*
X127751000Y-83458339D01*
X127746535Y-83503674D01*
X127735101Y-83541367D01*
X127716534Y-83576103D01*
X127691548Y-83606548D01*
X127661103Y-83631534D01*
X127626367Y-83650101D01*
X127588674Y-83661535D01*
X127543339Y-83666000D01*
X126456661Y-83666000D01*
X126411326Y-83661535D01*
X126373633Y-83650101D01*
X126338897Y-83631534D01*
X126308452Y-83606548D01*
X126283466Y-83576103D01*
X126264899Y-83541367D01*
X126253465Y-83503674D01*
X126249000Y-83458339D01*
X126249000Y-82621661D01*
X126253465Y-82576326D01*
X126264899Y-82538633D01*
X126283466Y-82503897D01*
X126308452Y-82473452D01*
X126338897Y-82448466D01*
X126373633Y-82429899D01*
X126411326Y-82418465D01*
X126456661Y-82414000D01*
X127543339Y-82414000D01*
X127588674Y-82418465D01*
G37*
G36*
X130382674Y-82418465D02*
G01*
X130420367Y-82429899D01*
X130455103Y-82448466D01*
X130485548Y-82473452D01*
X130510534Y-82503897D01*
X130529101Y-82538633D01*
X130540535Y-82576326D01*
X130545000Y-82621661D01*
X130545000Y-83458339D01*
X130540535Y-83503674D01*
X130529101Y-83541367D01*
X130510534Y-83576103D01*
X130485548Y-83606548D01*
X130455103Y-83631534D01*
X130420367Y-83650101D01*
X130382674Y-83661535D01*
X130337339Y-83666000D01*
X129250661Y-83666000D01*
X129205326Y-83661535D01*
X129167633Y-83650101D01*
X129132897Y-83631534D01*
X129102452Y-83606548D01*
X129077466Y-83576103D01*
X129058899Y-83541367D01*
X129047465Y-83503674D01*
X129043000Y-83458339D01*
X129043000Y-82621661D01*
X129047465Y-82576326D01*
X129058899Y-82538633D01*
X129077466Y-82503897D01*
X129102452Y-82473452D01*
X129132897Y-82448466D01*
X129167633Y-82429899D01*
X129205326Y-82418465D01*
X129250661Y-82414000D01*
X130337339Y-82414000D01*
X130382674Y-82418465D01*
G37*
G36*
X133176674Y-82418465D02*
G01*
X133214367Y-82429899D01*
X133249103Y-82448466D01*
X133279548Y-82473452D01*
X133304534Y-82503897D01*
X133323101Y-82538633D01*
X133334535Y-82576326D01*
X133339000Y-82621661D01*
X133339000Y-83458339D01*
X133334535Y-83503674D01*
X133323101Y-83541367D01*
X133304534Y-83576103D01*
X133279548Y-83606548D01*
X133249103Y-83631534D01*
X133214367Y-83650101D01*
X133176674Y-83661535D01*
X133131339Y-83666000D01*
X132044661Y-83666000D01*
X131999326Y-83661535D01*
X131961633Y-83650101D01*
X131926897Y-83631534D01*
X131896452Y-83606548D01*
X131871466Y-83576103D01*
X131852899Y-83541367D01*
X131841465Y-83503674D01*
X131837000Y-83458339D01*
X131837000Y-82621661D01*
X131841465Y-82576326D01*
X131852899Y-82538633D01*
X131871466Y-82503897D01*
X131896452Y-82473452D01*
X131926897Y-82448466D01*
X131961633Y-82429899D01*
X131999326Y-82418465D01*
X132044661Y-82414000D01*
X133131339Y-82414000D01*
X133176674Y-82418465D01*
G37*
G36*
X108792674Y-82418465D02*
G01*
X108830367Y-82429899D01*
X108865103Y-82448466D01*
X108895548Y-82473452D01*
X108920534Y-82503897D01*
X108939101Y-82538633D01*
X108950535Y-82576326D01*
X108955000Y-82621661D01*
X108955000Y-83458339D01*
X108950535Y-83503674D01*
X108939101Y-83541367D01*
X108920534Y-83576103D01*
X108895548Y-83606548D01*
X108865103Y-83631534D01*
X108830367Y-83650101D01*
X108792674Y-83661535D01*
X108747339Y-83666000D01*
X107660661Y-83666000D01*
X107615326Y-83661535D01*
X107577633Y-83650101D01*
X107542897Y-83631534D01*
X107512452Y-83606548D01*
X107487466Y-83576103D01*
X107468899Y-83541367D01*
X107457465Y-83503674D01*
X107453000Y-83458339D01*
X107453000Y-82621661D01*
X107457465Y-82576326D01*
X107468899Y-82538633D01*
X107487466Y-82503897D01*
X107512452Y-82473452D01*
X107542897Y-82448466D01*
X107577633Y-82429899D01*
X107615326Y-82418465D01*
X107660661Y-82414000D01*
X108747339Y-82414000D01*
X108792674Y-82418465D01*
G37*
G36*
X104537000Y-83053000D02*
G01*
X103235000Y-83053000D01*
X103235000Y-82051000D01*
X104537000Y-82051000D01*
X104537000Y-83053000D01*
G37*
G36*
X101489000Y-83051000D02*
G01*
X100187000Y-83051000D01*
X100187000Y-82049000D01*
X101489000Y-82049000D01*
X101489000Y-83051000D01*
G37*
G36*
X144266228Y-79699703D02*
G01*
X144421100Y-79763853D01*
X144560481Y-79856985D01*
X144679015Y-79975519D01*
X144772147Y-80114900D01*
X144836297Y-80269772D01*
X144869000Y-80434184D01*
X144869000Y-80601816D01*
X144836297Y-80766228D01*
X144772147Y-80921100D01*
X144679015Y-81060481D01*
X144560481Y-81179015D01*
X144421100Y-81272147D01*
X144266228Y-81336297D01*
X144101816Y-81369000D01*
X143934184Y-81369000D01*
X143769772Y-81336297D01*
X143614900Y-81272147D01*
X143475519Y-81179015D01*
X143356985Y-81060481D01*
X143263853Y-80921100D01*
X143199703Y-80766228D01*
X143167000Y-80601816D01*
X143167000Y-80434184D01*
X143199703Y-80269772D01*
X143263853Y-80114900D01*
X143356985Y-79975519D01*
X143475519Y-79856985D01*
X143614900Y-79763853D01*
X143769772Y-79699703D01*
X143934184Y-79667000D01*
X144101816Y-79667000D01*
X144266228Y-79699703D01*
G37*
G36*
X141766228Y-79699703D02*
G01*
X141921100Y-79763853D01*
X142060481Y-79856985D01*
X142179015Y-79975519D01*
X142272147Y-80114900D01*
X142336297Y-80269772D01*
X142369000Y-80434184D01*
X142369000Y-80601816D01*
X142336297Y-80766228D01*
X142272147Y-80921100D01*
X142179015Y-81060481D01*
X142060481Y-81179015D01*
X141921100Y-81272147D01*
X141766228Y-81336297D01*
X141601816Y-81369000D01*
X141434184Y-81369000D01*
X141269772Y-81336297D01*
X141114900Y-81272147D01*
X140975519Y-81179015D01*
X140856985Y-81060481D01*
X140763853Y-80921100D01*
X140699703Y-80766228D01*
X140667000Y-80601816D01*
X140667000Y-80434184D01*
X140699703Y-80269772D01*
X140763853Y-80114900D01*
X140856985Y-79975519D01*
X140975519Y-79856985D01*
X141114900Y-79763853D01*
X141269772Y-79699703D01*
X141434184Y-79667000D01*
X141601816Y-79667000D01*
X141766228Y-79699703D01*
G37*
G36*
X104537000Y-81273000D02*
G01*
X103235000Y-81273000D01*
X103235000Y-80271000D01*
X104537000Y-80271000D01*
X104537000Y-81273000D01*
G37*
G36*
X101489000Y-81273000D02*
G01*
X100187000Y-81273000D01*
X100187000Y-80271000D01*
X101489000Y-80271000D01*
X101489000Y-81273000D01*
G37*
G36*
X123778674Y-79896465D02*
G01*
X123816367Y-79907899D01*
X123851103Y-79926466D01*
X123881548Y-79951452D01*
X123906534Y-79981897D01*
X123925101Y-80016633D01*
X123936535Y-80054326D01*
X123941000Y-80099661D01*
X123941000Y-80936339D01*
X123936535Y-80981674D01*
X123925101Y-81019367D01*
X123906534Y-81054103D01*
X123881548Y-81084548D01*
X123851103Y-81109534D01*
X123816367Y-81128101D01*
X123778674Y-81139535D01*
X123733339Y-81144000D01*
X122646661Y-81144000D01*
X122601326Y-81139535D01*
X122563633Y-81128101D01*
X122528897Y-81109534D01*
X122498452Y-81084548D01*
X122473466Y-81054103D01*
X122454899Y-81019367D01*
X122443465Y-80981674D01*
X122439000Y-80936339D01*
X122439000Y-80099661D01*
X122443465Y-80054326D01*
X122454899Y-80016633D01*
X122473466Y-79981897D01*
X122498452Y-79951452D01*
X122528897Y-79926466D01*
X122563633Y-79907899D01*
X122601326Y-79896465D01*
X122646661Y-79892000D01*
X123733339Y-79892000D01*
X123778674Y-79896465D01*
G37*
G36*
X112146928Y-78921764D02*
G01*
X112168009Y-78928160D01*
X112187445Y-78938548D01*
X112204476Y-78952524D01*
X112218452Y-78969555D01*
X112228840Y-78988991D01*
X112235236Y-79010072D01*
X112238000Y-79038140D01*
X112238000Y-80851860D01*
X112235236Y-80879928D01*
X112228840Y-80901009D01*
X112218452Y-80920445D01*
X112204476Y-80937476D01*
X112187445Y-80951452D01*
X112168009Y-80961840D01*
X112146928Y-80968236D01*
X112118860Y-80971000D01*
X111655140Y-80971000D01*
X111627072Y-80968236D01*
X111605991Y-80961840D01*
X111586555Y-80951452D01*
X111569524Y-80937476D01*
X111555548Y-80920445D01*
X111545160Y-80901009D01*
X111538764Y-80879928D01*
X111536000Y-80851860D01*
X111536000Y-79038140D01*
X111538764Y-79010072D01*
X111545160Y-78988991D01*
X111555548Y-78969555D01*
X111569524Y-78952524D01*
X111586555Y-78938548D01*
X111605991Y-78928160D01*
X111627072Y-78921764D01*
X111655140Y-78919000D01*
X112118860Y-78919000D01*
X112146928Y-78921764D01*
G37*
G36*
X113416928Y-78921764D02*
G01*
X113438009Y-78928160D01*
X113457445Y-78938548D01*
X113474476Y-78952524D01*
X113488452Y-78969555D01*
X113498840Y-78988991D01*
X113505236Y-79010072D01*
X113508000Y-79038140D01*
X113508000Y-80851860D01*
X113505236Y-80879928D01*
X113498840Y-80901009D01*
X113488452Y-80920445D01*
X113474476Y-80937476D01*
X113457445Y-80951452D01*
X113438009Y-80961840D01*
X113416928Y-80968236D01*
X113388860Y-80971000D01*
X112925140Y-80971000D01*
X112897072Y-80968236D01*
X112875991Y-80961840D01*
X112856555Y-80951452D01*
X112839524Y-80937476D01*
X112825548Y-80920445D01*
X112815160Y-80901009D01*
X112808764Y-80879928D01*
X112806000Y-80851860D01*
X112806000Y-79038140D01*
X112808764Y-79010072D01*
X112815160Y-78988991D01*
X112825548Y-78969555D01*
X112839524Y-78952524D01*
X112856555Y-78938548D01*
X112875991Y-78928160D01*
X112897072Y-78921764D01*
X112925140Y-78919000D01*
X113388860Y-78919000D01*
X113416928Y-78921764D01*
G37*
G36*
X109606928Y-78921764D02*
G01*
X109628009Y-78928160D01*
X109647445Y-78938548D01*
X109664476Y-78952524D01*
X109678452Y-78969555D01*
X109688840Y-78988991D01*
X109695236Y-79010072D01*
X109698000Y-79038140D01*
X109698000Y-80851860D01*
X109695236Y-80879928D01*
X109688840Y-80901009D01*
X109678452Y-80920445D01*
X109664476Y-80937476D01*
X109647445Y-80951452D01*
X109628009Y-80961840D01*
X109606928Y-80968236D01*
X109578860Y-80971000D01*
X109115140Y-80971000D01*
X109087072Y-80968236D01*
X109065991Y-80961840D01*
X109046555Y-80951452D01*
X109029524Y-80937476D01*
X109015548Y-80920445D01*
X109005160Y-80901009D01*
X108998764Y-80879928D01*
X108996000Y-80851860D01*
X108996000Y-79038140D01*
X108998764Y-79010072D01*
X109005160Y-78988991D01*
X109015548Y-78969555D01*
X109029524Y-78952524D01*
X109046555Y-78938548D01*
X109065991Y-78928160D01*
X109087072Y-78921764D01*
X109115140Y-78919000D01*
X109578860Y-78919000D01*
X109606928Y-78921764D01*
G37*
G36*
X110876928Y-78921764D02*
G01*
X110898009Y-78928160D01*
X110917445Y-78938548D01*
X110934476Y-78952524D01*
X110948452Y-78969555D01*
X110958840Y-78988991D01*
X110965236Y-79010072D01*
X110968000Y-79038140D01*
X110968000Y-80851860D01*
X110965236Y-80879928D01*
X110958840Y-80901009D01*
X110948452Y-80920445D01*
X110934476Y-80937476D01*
X110917445Y-80951452D01*
X110898009Y-80961840D01*
X110876928Y-80968236D01*
X110848860Y-80971000D01*
X110385140Y-80971000D01*
X110357072Y-80968236D01*
X110335991Y-80961840D01*
X110316555Y-80951452D01*
X110299524Y-80937476D01*
X110285548Y-80920445D01*
X110275160Y-80901009D01*
X110268764Y-80879928D01*
X110266000Y-80851860D01*
X110266000Y-79038140D01*
X110268764Y-79010072D01*
X110275160Y-78988991D01*
X110285548Y-78969555D01*
X110299524Y-78952524D01*
X110316555Y-78938548D01*
X110335991Y-78928160D01*
X110357072Y-78921764D01*
X110385140Y-78919000D01*
X110848860Y-78919000D01*
X110876928Y-78921764D01*
G37*
G36*
X133736928Y-78921764D02*
G01*
X133758009Y-78928160D01*
X133777445Y-78938548D01*
X133794476Y-78952524D01*
X133808452Y-78969555D01*
X133818840Y-78988991D01*
X133825236Y-79010072D01*
X133828000Y-79038140D01*
X133828000Y-80851860D01*
X133825236Y-80879928D01*
X133818840Y-80901009D01*
X133808452Y-80920445D01*
X133794476Y-80937476D01*
X133777445Y-80951452D01*
X133758009Y-80961840D01*
X133736928Y-80968236D01*
X133708860Y-80971000D01*
X133245140Y-80971000D01*
X133217072Y-80968236D01*
X133195991Y-80961840D01*
X133176555Y-80951452D01*
X133159524Y-80937476D01*
X133145548Y-80920445D01*
X133135160Y-80901009D01*
X133128764Y-80879928D01*
X133126000Y-80851860D01*
X133126000Y-79038140D01*
X133128764Y-79010072D01*
X133135160Y-78988991D01*
X133145548Y-78969555D01*
X133159524Y-78952524D01*
X133176555Y-78938548D01*
X133195991Y-78928160D01*
X133217072Y-78921764D01*
X133245140Y-78919000D01*
X133708860Y-78919000D01*
X133736928Y-78921764D01*
G37*
G36*
X135006928Y-78921764D02*
G01*
X135028009Y-78928160D01*
X135047445Y-78938548D01*
X135064476Y-78952524D01*
X135078452Y-78969555D01*
X135088840Y-78988991D01*
X135095236Y-79010072D01*
X135098000Y-79038140D01*
X135098000Y-80851860D01*
X135095236Y-80879928D01*
X135088840Y-80901009D01*
X135078452Y-80920445D01*
X135064476Y-80937476D01*
X135047445Y-80951452D01*
X135028009Y-80961840D01*
X135006928Y-80968236D01*
X134978860Y-80971000D01*
X134515140Y-80971000D01*
X134487072Y-80968236D01*
X134465991Y-80961840D01*
X134446555Y-80951452D01*
X134429524Y-80937476D01*
X134415548Y-80920445D01*
X134405160Y-80901009D01*
X134398764Y-80879928D01*
X134396000Y-80851860D01*
X134396000Y-79038140D01*
X134398764Y-79010072D01*
X134405160Y-78988991D01*
X134415548Y-78969555D01*
X134429524Y-78952524D01*
X134446555Y-78938548D01*
X134465991Y-78928160D01*
X134487072Y-78921764D01*
X134515140Y-78919000D01*
X134978860Y-78919000D01*
X135006928Y-78921764D01*
G37*
G36*
X131196928Y-78921764D02*
G01*
X131218009Y-78928160D01*
X131237445Y-78938548D01*
X131254476Y-78952524D01*
X131268452Y-78969555D01*
X131278840Y-78988991D01*
X131285236Y-79010072D01*
X131288000Y-79038140D01*
X131288000Y-80851860D01*
X131285236Y-80879928D01*
X131278840Y-80901009D01*
X131268452Y-80920445D01*
X131254476Y-80937476D01*
X131237445Y-80951452D01*
X131218009Y-80961840D01*
X131196928Y-80968236D01*
X131168860Y-80971000D01*
X130705140Y-80971000D01*
X130677072Y-80968236D01*
X130655991Y-80961840D01*
X130636555Y-80951452D01*
X130619524Y-80937476D01*
X130605548Y-80920445D01*
X130595160Y-80901009D01*
X130588764Y-80879928D01*
X130586000Y-80851860D01*
X130586000Y-79038140D01*
X130588764Y-79010072D01*
X130595160Y-78988991D01*
X130605548Y-78969555D01*
X130619524Y-78952524D01*
X130636555Y-78938548D01*
X130655991Y-78928160D01*
X130677072Y-78921764D01*
X130705140Y-78919000D01*
X131168860Y-78919000D01*
X131196928Y-78921764D01*
G37*
G36*
X132466928Y-78921764D02*
G01*
X132488009Y-78928160D01*
X132507445Y-78938548D01*
X132524476Y-78952524D01*
X132538452Y-78969555D01*
X132548840Y-78988991D01*
X132555236Y-79010072D01*
X132558000Y-79038140D01*
X132558000Y-80851860D01*
X132555236Y-80879928D01*
X132548840Y-80901009D01*
X132538452Y-80920445D01*
X132524476Y-80937476D01*
X132507445Y-80951452D01*
X132488009Y-80961840D01*
X132466928Y-80968236D01*
X132438860Y-80971000D01*
X131975140Y-80971000D01*
X131947072Y-80968236D01*
X131925991Y-80961840D01*
X131906555Y-80951452D01*
X131889524Y-80937476D01*
X131875548Y-80920445D01*
X131865160Y-80901009D01*
X131858764Y-80879928D01*
X131856000Y-80851860D01*
X131856000Y-79038140D01*
X131858764Y-79010072D01*
X131865160Y-78988991D01*
X131875548Y-78969555D01*
X131889524Y-78952524D01*
X131906555Y-78938548D01*
X131925991Y-78928160D01*
X131947072Y-78921764D01*
X131975140Y-78919000D01*
X132438860Y-78919000D01*
X132466928Y-78921764D01*
G37*
G36*
X126116928Y-78921764D02*
G01*
X126138009Y-78928160D01*
X126157445Y-78938548D01*
X126174476Y-78952524D01*
X126188452Y-78969555D01*
X126198840Y-78988991D01*
X126205236Y-79010072D01*
X126208000Y-79038140D01*
X126208000Y-80851860D01*
X126205236Y-80879928D01*
X126198840Y-80901009D01*
X126188452Y-80920445D01*
X126174476Y-80937476D01*
X126157445Y-80951452D01*
X126138009Y-80961840D01*
X126116928Y-80968236D01*
X126088860Y-80971000D01*
X125625140Y-80971000D01*
X125597072Y-80968236D01*
X125575991Y-80961840D01*
X125556555Y-80951452D01*
X125539524Y-80937476D01*
X125525548Y-80920445D01*
X125515160Y-80901009D01*
X125508764Y-80879928D01*
X125506000Y-80851860D01*
X125506000Y-79038140D01*
X125508764Y-79010072D01*
X125515160Y-78988991D01*
X125525548Y-78969555D01*
X125539524Y-78952524D01*
X125556555Y-78938548D01*
X125575991Y-78928160D01*
X125597072Y-78921764D01*
X125625140Y-78919000D01*
X126088860Y-78919000D01*
X126116928Y-78921764D01*
G37*
G36*
X127386928Y-78921764D02*
G01*
X127408009Y-78928160D01*
X127427445Y-78938548D01*
X127444476Y-78952524D01*
X127458452Y-78969555D01*
X127468840Y-78988991D01*
X127475236Y-79010072D01*
X127478000Y-79038140D01*
X127478000Y-80851860D01*
X127475236Y-80879928D01*
X127468840Y-80901009D01*
X127458452Y-80920445D01*
X127444476Y-80937476D01*
X127427445Y-80951452D01*
X127408009Y-80961840D01*
X127386928Y-80968236D01*
X127358860Y-80971000D01*
X126895140Y-80971000D01*
X126867072Y-80968236D01*
X126845991Y-80961840D01*
X126826555Y-80951452D01*
X126809524Y-80937476D01*
X126795548Y-80920445D01*
X126785160Y-80901009D01*
X126778764Y-80879928D01*
X126776000Y-80851860D01*
X126776000Y-79038140D01*
X126778764Y-79010072D01*
X126785160Y-78988991D01*
X126795548Y-78969555D01*
X126809524Y-78952524D01*
X126826555Y-78938548D01*
X126845991Y-78928160D01*
X126867072Y-78921764D01*
X126895140Y-78919000D01*
X127358860Y-78919000D01*
X127386928Y-78921764D01*
G37*
G36*
X128656928Y-78921764D02*
G01*
X128678009Y-78928160D01*
X128697445Y-78938548D01*
X128714476Y-78952524D01*
X128728452Y-78969555D01*
X128738840Y-78988991D01*
X128745236Y-79010072D01*
X128748000Y-79038140D01*
X128748000Y-80851860D01*
X128745236Y-80879928D01*
X128738840Y-80901009D01*
X128728452Y-80920445D01*
X128714476Y-80937476D01*
X128697445Y-80951452D01*
X128678009Y-80961840D01*
X128656928Y-80968236D01*
X128628860Y-80971000D01*
X128165140Y-80971000D01*
X128137072Y-80968236D01*
X128115991Y-80961840D01*
X128096555Y-80951452D01*
X128079524Y-80937476D01*
X128065548Y-80920445D01*
X128055160Y-80901009D01*
X128048764Y-80879928D01*
X128046000Y-80851860D01*
X128046000Y-79038140D01*
X128048764Y-79010072D01*
X128055160Y-78988991D01*
X128065548Y-78969555D01*
X128079524Y-78952524D01*
X128096555Y-78938548D01*
X128115991Y-78928160D01*
X128137072Y-78921764D01*
X128165140Y-78919000D01*
X128628860Y-78919000D01*
X128656928Y-78921764D01*
G37*
G36*
X129926928Y-78921764D02*
G01*
X129948009Y-78928160D01*
X129967445Y-78938548D01*
X129984476Y-78952524D01*
X129998452Y-78969555D01*
X130008840Y-78988991D01*
X130015236Y-79010072D01*
X130018000Y-79038140D01*
X130018000Y-80851860D01*
X130015236Y-80879928D01*
X130008840Y-80901009D01*
X129998452Y-80920445D01*
X129984476Y-80937476D01*
X129967445Y-80951452D01*
X129948009Y-80961840D01*
X129926928Y-80968236D01*
X129898860Y-80971000D01*
X129435140Y-80971000D01*
X129407072Y-80968236D01*
X129385991Y-80961840D01*
X129366555Y-80951452D01*
X129349524Y-80937476D01*
X129335548Y-80920445D01*
X129325160Y-80901009D01*
X129318764Y-80879928D01*
X129316000Y-80851860D01*
X129316000Y-79038140D01*
X129318764Y-79010072D01*
X129325160Y-78988991D01*
X129335548Y-78969555D01*
X129349524Y-78952524D01*
X129366555Y-78938548D01*
X129385991Y-78928160D01*
X129407072Y-78921764D01*
X129435140Y-78919000D01*
X129898860Y-78919000D01*
X129926928Y-78921764D01*
G37*
G36*
X123778674Y-77846465D02*
G01*
X123816367Y-77857899D01*
X123851103Y-77876466D01*
X123881548Y-77901452D01*
X123906534Y-77931897D01*
X123925101Y-77966633D01*
X123936535Y-78004326D01*
X123941000Y-78049661D01*
X123941000Y-78886339D01*
X123936535Y-78931674D01*
X123925101Y-78969367D01*
X123906534Y-79004103D01*
X123881548Y-79034548D01*
X123851103Y-79059534D01*
X123816367Y-79078101D01*
X123778674Y-79089535D01*
X123733339Y-79094000D01*
X122646661Y-79094000D01*
X122601326Y-79089535D01*
X122563633Y-79078101D01*
X122528897Y-79059534D01*
X122498452Y-79034548D01*
X122473466Y-79004103D01*
X122454899Y-78969367D01*
X122443465Y-78931674D01*
X122439000Y-78886339D01*
X122439000Y-78049661D01*
X122443465Y-78004326D01*
X122454899Y-77966633D01*
X122473466Y-77931897D01*
X122498452Y-77901452D01*
X122528897Y-77876466D01*
X122563633Y-77857899D01*
X122601326Y-77846465D01*
X122646661Y-77842000D01*
X123733339Y-77842000D01*
X123778674Y-77846465D01*
G37*
G36*
X104537000Y-77973000D02*
G01*
X103235000Y-77973000D01*
X103235000Y-76971000D01*
X104537000Y-76971000D01*
X104537000Y-77973000D01*
G37*
G36*
X101489000Y-77973000D02*
G01*
X100187000Y-77973000D01*
X100187000Y-76971000D01*
X101489000Y-76971000D01*
X101489000Y-77973000D01*
G37*
G36*
X94093512Y-75303927D02*
G01*
X94242812Y-75333624D01*
X94406784Y-75401544D01*
X94554354Y-75500147D01*
X94679853Y-75625646D01*
X94778456Y-75773216D01*
X94846376Y-75937188D01*
X94881000Y-76111259D01*
X94881000Y-76288741D01*
X94846376Y-76462812D01*
X94778456Y-76626784D01*
X94679853Y-76774354D01*
X94554354Y-76899853D01*
X94406784Y-76998456D01*
X94242812Y-77066376D01*
X94093512Y-77096073D01*
X94068742Y-77101000D01*
X93891258Y-77101000D01*
X93866488Y-77096073D01*
X93717188Y-77066376D01*
X93553216Y-76998456D01*
X93405646Y-76899853D01*
X93280147Y-76774354D01*
X93181544Y-76626784D01*
X93113624Y-76462812D01*
X93079000Y-76288741D01*
X93079000Y-76111259D01*
X93113624Y-75937188D01*
X93181544Y-75773216D01*
X93280147Y-75625646D01*
X93405646Y-75500147D01*
X93553216Y-75401544D01*
X93717188Y-75333624D01*
X93866488Y-75303927D01*
X93891258Y-75299000D01*
X94068742Y-75299000D01*
X94093512Y-75303927D01*
G37*
G36*
X147433512Y-75303927D02*
G01*
X147582812Y-75333624D01*
X147746784Y-75401544D01*
X147894354Y-75500147D01*
X148019853Y-75625646D01*
X148118456Y-75773216D01*
X148186376Y-75937188D01*
X148221000Y-76111259D01*
X148221000Y-76288741D01*
X148186376Y-76462812D01*
X148118456Y-76626784D01*
X148019853Y-76774354D01*
X147894354Y-76899853D01*
X147746784Y-76998456D01*
X147582812Y-77066376D01*
X147433512Y-77096073D01*
X147408742Y-77101000D01*
X147231258Y-77101000D01*
X147206488Y-77096073D01*
X147057188Y-77066376D01*
X146893216Y-76998456D01*
X146745646Y-76899853D01*
X146620147Y-76774354D01*
X146521544Y-76626784D01*
X146453624Y-76462812D01*
X146419000Y-76288741D01*
X146419000Y-76111259D01*
X146453624Y-75937188D01*
X146521544Y-75773216D01*
X146620147Y-75625646D01*
X146745646Y-75500147D01*
X146893216Y-75401544D01*
X147057188Y-75333624D01*
X147206488Y-75303927D01*
X147231258Y-75299000D01*
X147408742Y-75299000D01*
X147433512Y-75303927D01*
G37*
G36*
X123778674Y-75832465D02*
G01*
X123816367Y-75843899D01*
X123851103Y-75862466D01*
X123881548Y-75887452D01*
X123906534Y-75917897D01*
X123925101Y-75952633D01*
X123936535Y-75990326D01*
X123941000Y-76035661D01*
X123941000Y-76872339D01*
X123936535Y-76917674D01*
X123925101Y-76955367D01*
X123906534Y-76990103D01*
X123881548Y-77020548D01*
X123851103Y-77045534D01*
X123816367Y-77064101D01*
X123778674Y-77075535D01*
X123733339Y-77080000D01*
X122646661Y-77080000D01*
X122601326Y-77075535D01*
X122563633Y-77064101D01*
X122528897Y-77045534D01*
X122498452Y-77020548D01*
X122473466Y-76990103D01*
X122454899Y-76955367D01*
X122443465Y-76917674D01*
X122439000Y-76872339D01*
X122439000Y-76035661D01*
X122443465Y-75990326D01*
X122454899Y-75952633D01*
X122473466Y-75917897D01*
X122498452Y-75887452D01*
X122528897Y-75862466D01*
X122563633Y-75843899D01*
X122601326Y-75832465D01*
X122646661Y-75828000D01*
X123733339Y-75828000D01*
X123778674Y-75832465D01*
G37*
G36*
X104537000Y-76193000D02*
G01*
X103235000Y-76193000D01*
X103235000Y-75191000D01*
X104537000Y-75191000D01*
X104537000Y-76193000D01*
G37*
G36*
X101489000Y-76191000D02*
G01*
X100187000Y-76191000D01*
X100187000Y-75189000D01*
X101489000Y-75189000D01*
X101489000Y-76191000D01*
G37*
G36*
X135006928Y-73971764D02*
G01*
X135028009Y-73978160D01*
X135047445Y-73988548D01*
X135064476Y-74002524D01*
X135078452Y-74019555D01*
X135088840Y-74038991D01*
X135095236Y-74060072D01*
X135098000Y-74088140D01*
X135098000Y-75901860D01*
X135095236Y-75929928D01*
X135088840Y-75951009D01*
X135078452Y-75970445D01*
X135064476Y-75987476D01*
X135047445Y-76001452D01*
X135028009Y-76011840D01*
X135006928Y-76018236D01*
X134978860Y-76021000D01*
X134515140Y-76021000D01*
X134487072Y-76018236D01*
X134465991Y-76011840D01*
X134446555Y-76001452D01*
X134429524Y-75987476D01*
X134415548Y-75970445D01*
X134405160Y-75951009D01*
X134398764Y-75929928D01*
X134396000Y-75901860D01*
X134396000Y-74088140D01*
X134398764Y-74060072D01*
X134405160Y-74038991D01*
X134415548Y-74019555D01*
X134429524Y-74002524D01*
X134446555Y-73988548D01*
X134465991Y-73978160D01*
X134487072Y-73971764D01*
X134515140Y-73969000D01*
X134978860Y-73969000D01*
X135006928Y-73971764D01*
G37*
G36*
X133736928Y-73971764D02*
G01*
X133758009Y-73978160D01*
X133777445Y-73988548D01*
X133794476Y-74002524D01*
X133808452Y-74019555D01*
X133818840Y-74038991D01*
X133825236Y-74060072D01*
X133828000Y-74088140D01*
X133828000Y-75901860D01*
X133825236Y-75929928D01*
X133818840Y-75951009D01*
X133808452Y-75970445D01*
X133794476Y-75987476D01*
X133777445Y-76001452D01*
X133758009Y-76011840D01*
X133736928Y-76018236D01*
X133708860Y-76021000D01*
X133245140Y-76021000D01*
X133217072Y-76018236D01*
X133195991Y-76011840D01*
X133176555Y-76001452D01*
X133159524Y-75987476D01*
X133145548Y-75970445D01*
X133135160Y-75951009D01*
X133128764Y-75929928D01*
X133126000Y-75901860D01*
X133126000Y-74088140D01*
X133128764Y-74060072D01*
X133135160Y-74038991D01*
X133145548Y-74019555D01*
X133159524Y-74002524D01*
X133176555Y-73988548D01*
X133195991Y-73978160D01*
X133217072Y-73971764D01*
X133245140Y-73969000D01*
X133708860Y-73969000D01*
X133736928Y-73971764D01*
G37*
G36*
X131196928Y-73971764D02*
G01*
X131218009Y-73978160D01*
X131237445Y-73988548D01*
X131254476Y-74002524D01*
X131268452Y-74019555D01*
X131278840Y-74038991D01*
X131285236Y-74060072D01*
X131288000Y-74088140D01*
X131288000Y-75901860D01*
X131285236Y-75929928D01*
X131278840Y-75951009D01*
X131268452Y-75970445D01*
X131254476Y-75987476D01*
X131237445Y-76001452D01*
X131218009Y-76011840D01*
X131196928Y-76018236D01*
X131168860Y-76021000D01*
X130705140Y-76021000D01*
X130677072Y-76018236D01*
X130655991Y-76011840D01*
X130636555Y-76001452D01*
X130619524Y-75987476D01*
X130605548Y-75970445D01*
X130595160Y-75951009D01*
X130588764Y-75929928D01*
X130586000Y-75901860D01*
X130586000Y-74088140D01*
X130588764Y-74060072D01*
X130595160Y-74038991D01*
X130605548Y-74019555D01*
X130619524Y-74002524D01*
X130636555Y-73988548D01*
X130655991Y-73978160D01*
X130677072Y-73971764D01*
X130705140Y-73969000D01*
X131168860Y-73969000D01*
X131196928Y-73971764D01*
G37*
G36*
X109606928Y-73971764D02*
G01*
X109628009Y-73978160D01*
X109647445Y-73988548D01*
X109664476Y-74002524D01*
X109678452Y-74019555D01*
X109688840Y-74038991D01*
X109695236Y-74060072D01*
X109698000Y-74088140D01*
X109698000Y-75901860D01*
X109695236Y-75929928D01*
X109688840Y-75951009D01*
X109678452Y-75970445D01*
X109664476Y-75987476D01*
X109647445Y-76001452D01*
X109628009Y-76011840D01*
X109606928Y-76018236D01*
X109578860Y-76021000D01*
X109115140Y-76021000D01*
X109087072Y-76018236D01*
X109065991Y-76011840D01*
X109046555Y-76001452D01*
X109029524Y-75987476D01*
X109015548Y-75970445D01*
X109005160Y-75951009D01*
X108998764Y-75929928D01*
X108996000Y-75901860D01*
X108996000Y-74088140D01*
X108998764Y-74060072D01*
X109005160Y-74038991D01*
X109015548Y-74019555D01*
X109029524Y-74002524D01*
X109046555Y-73988548D01*
X109065991Y-73978160D01*
X109087072Y-73971764D01*
X109115140Y-73969000D01*
X109578860Y-73969000D01*
X109606928Y-73971764D01*
G37*
G36*
X113416928Y-73971764D02*
G01*
X113438009Y-73978160D01*
X113457445Y-73988548D01*
X113474476Y-74002524D01*
X113488452Y-74019555D01*
X113498840Y-74038991D01*
X113505236Y-74060072D01*
X113508000Y-74088140D01*
X113508000Y-75901860D01*
X113505236Y-75929928D01*
X113498840Y-75951009D01*
X113488452Y-75970445D01*
X113474476Y-75987476D01*
X113457445Y-76001452D01*
X113438009Y-76011840D01*
X113416928Y-76018236D01*
X113388860Y-76021000D01*
X112925140Y-76021000D01*
X112897072Y-76018236D01*
X112875991Y-76011840D01*
X112856555Y-76001452D01*
X112839524Y-75987476D01*
X112825548Y-75970445D01*
X112815160Y-75951009D01*
X112808764Y-75929928D01*
X112806000Y-75901860D01*
X112806000Y-74088140D01*
X112808764Y-74060072D01*
X112815160Y-74038991D01*
X112825548Y-74019555D01*
X112839524Y-74002524D01*
X112856555Y-73988548D01*
X112875991Y-73978160D01*
X112897072Y-73971764D01*
X112925140Y-73969000D01*
X113388860Y-73969000D01*
X113416928Y-73971764D01*
G37*
G36*
X110876928Y-73971764D02*
G01*
X110898009Y-73978160D01*
X110917445Y-73988548D01*
X110934476Y-74002524D01*
X110948452Y-74019555D01*
X110958840Y-74038991D01*
X110965236Y-74060072D01*
X110968000Y-74088140D01*
X110968000Y-75901860D01*
X110965236Y-75929928D01*
X110958840Y-75951009D01*
X110948452Y-75970445D01*
X110934476Y-75987476D01*
X110917445Y-76001452D01*
X110898009Y-76011840D01*
X110876928Y-76018236D01*
X110848860Y-76021000D01*
X110385140Y-76021000D01*
X110357072Y-76018236D01*
X110335991Y-76011840D01*
X110316555Y-76001452D01*
X110299524Y-75987476D01*
X110285548Y-75970445D01*
X110275160Y-75951009D01*
X110268764Y-75929928D01*
X110266000Y-75901860D01*
X110266000Y-74088140D01*
X110268764Y-74060072D01*
X110275160Y-74038991D01*
X110285548Y-74019555D01*
X110299524Y-74002524D01*
X110316555Y-73988548D01*
X110335991Y-73978160D01*
X110357072Y-73971764D01*
X110385140Y-73969000D01*
X110848860Y-73969000D01*
X110876928Y-73971764D01*
G37*
G36*
X129926928Y-73971764D02*
G01*
X129948009Y-73978160D01*
X129967445Y-73988548D01*
X129984476Y-74002524D01*
X129998452Y-74019555D01*
X130008840Y-74038991D01*
X130015236Y-74060072D01*
X130018000Y-74088140D01*
X130018000Y-75901860D01*
X130015236Y-75929928D01*
X130008840Y-75951009D01*
X129998452Y-75970445D01*
X129984476Y-75987476D01*
X129967445Y-76001452D01*
X129948009Y-76011840D01*
X129926928Y-76018236D01*
X129898860Y-76021000D01*
X129435140Y-76021000D01*
X129407072Y-76018236D01*
X129385991Y-76011840D01*
X129366555Y-76001452D01*
X129349524Y-75987476D01*
X129335548Y-75970445D01*
X129325160Y-75951009D01*
X129318764Y-75929928D01*
X129316000Y-75901860D01*
X129316000Y-74088140D01*
X129318764Y-74060072D01*
X129325160Y-74038991D01*
X129335548Y-74019555D01*
X129349524Y-74002524D01*
X129366555Y-73988548D01*
X129385991Y-73978160D01*
X129407072Y-73971764D01*
X129435140Y-73969000D01*
X129898860Y-73969000D01*
X129926928Y-73971764D01*
G37*
G36*
X128656928Y-73971764D02*
G01*
X128678009Y-73978160D01*
X128697445Y-73988548D01*
X128714476Y-74002524D01*
X128728452Y-74019555D01*
X128738840Y-74038991D01*
X128745236Y-74060072D01*
X128748000Y-74088140D01*
X128748000Y-75901860D01*
X128745236Y-75929928D01*
X128738840Y-75951009D01*
X128728452Y-75970445D01*
X128714476Y-75987476D01*
X128697445Y-76001452D01*
X128678009Y-76011840D01*
X128656928Y-76018236D01*
X128628860Y-76021000D01*
X128165140Y-76021000D01*
X128137072Y-76018236D01*
X128115991Y-76011840D01*
X128096555Y-76001452D01*
X128079524Y-75987476D01*
X128065548Y-75970445D01*
X128055160Y-75951009D01*
X128048764Y-75929928D01*
X128046000Y-75901860D01*
X128046000Y-74088140D01*
X128048764Y-74060072D01*
X128055160Y-74038991D01*
X128065548Y-74019555D01*
X128079524Y-74002524D01*
X128096555Y-73988548D01*
X128115991Y-73978160D01*
X128137072Y-73971764D01*
X128165140Y-73969000D01*
X128628860Y-73969000D01*
X128656928Y-73971764D01*
G37*
G36*
X127386928Y-73971764D02*
G01*
X127408009Y-73978160D01*
X127427445Y-73988548D01*
X127444476Y-74002524D01*
X127458452Y-74019555D01*
X127468840Y-74038991D01*
X127475236Y-74060072D01*
X127478000Y-74088140D01*
X127478000Y-75901860D01*
X127475236Y-75929928D01*
X127468840Y-75951009D01*
X127458452Y-75970445D01*
X127444476Y-75987476D01*
X127427445Y-76001452D01*
X127408009Y-76011840D01*
X127386928Y-76018236D01*
X127358860Y-76021000D01*
X126895140Y-76021000D01*
X126867072Y-76018236D01*
X126845991Y-76011840D01*
X126826555Y-76001452D01*
X126809524Y-75987476D01*
X126795548Y-75970445D01*
X126785160Y-75951009D01*
X126778764Y-75929928D01*
X126776000Y-75901860D01*
X126776000Y-74088140D01*
X126778764Y-74060072D01*
X126785160Y-74038991D01*
X126795548Y-74019555D01*
X126809524Y-74002524D01*
X126826555Y-73988548D01*
X126845991Y-73978160D01*
X126867072Y-73971764D01*
X126895140Y-73969000D01*
X127358860Y-73969000D01*
X127386928Y-73971764D01*
G37*
G36*
X126116928Y-73971764D02*
G01*
X126138009Y-73978160D01*
X126157445Y-73988548D01*
X126174476Y-74002524D01*
X126188452Y-74019555D01*
X126198840Y-74038991D01*
X126205236Y-74060072D01*
X126208000Y-74088140D01*
X126208000Y-75901860D01*
X126205236Y-75929928D01*
X126198840Y-75951009D01*
X126188452Y-75970445D01*
X126174476Y-75987476D01*
X126157445Y-76001452D01*
X126138009Y-76011840D01*
X126116928Y-76018236D01*
X126088860Y-76021000D01*
X125625140Y-76021000D01*
X125597072Y-76018236D01*
X125575991Y-76011840D01*
X125556555Y-76001452D01*
X125539524Y-75987476D01*
X125525548Y-75970445D01*
X125515160Y-75951009D01*
X125508764Y-75929928D01*
X125506000Y-75901860D01*
X125506000Y-74088140D01*
X125508764Y-74060072D01*
X125515160Y-74038991D01*
X125525548Y-74019555D01*
X125539524Y-74002524D01*
X125556555Y-73988548D01*
X125575991Y-73978160D01*
X125597072Y-73971764D01*
X125625140Y-73969000D01*
X126088860Y-73969000D01*
X126116928Y-73971764D01*
G37*
G36*
X112146928Y-73971764D02*
G01*
X112168009Y-73978160D01*
X112187445Y-73988548D01*
X112204476Y-74002524D01*
X112218452Y-74019555D01*
X112228840Y-74038991D01*
X112235236Y-74060072D01*
X112238000Y-74088140D01*
X112238000Y-75901860D01*
X112235236Y-75929928D01*
X112228840Y-75951009D01*
X112218452Y-75970445D01*
X112204476Y-75987476D01*
X112187445Y-76001452D01*
X112168009Y-76011840D01*
X112146928Y-76018236D01*
X112118860Y-76021000D01*
X111655140Y-76021000D01*
X111627072Y-76018236D01*
X111605991Y-76011840D01*
X111586555Y-76001452D01*
X111569524Y-75987476D01*
X111555548Y-75970445D01*
X111545160Y-75951009D01*
X111538764Y-75929928D01*
X111536000Y-75901860D01*
X111536000Y-74088140D01*
X111538764Y-74060072D01*
X111545160Y-74038991D01*
X111555548Y-74019555D01*
X111569524Y-74002524D01*
X111586555Y-73988548D01*
X111605991Y-73978160D01*
X111627072Y-73971764D01*
X111655140Y-73969000D01*
X112118860Y-73969000D01*
X112146928Y-73971764D01*
G37*
G36*
X132466928Y-73971764D02*
G01*
X132488009Y-73978160D01*
X132507445Y-73988548D01*
X132524476Y-74002524D01*
X132538452Y-74019555D01*
X132548840Y-74038991D01*
X132555236Y-74060072D01*
X132558000Y-74088140D01*
X132558000Y-75901860D01*
X132555236Y-75929928D01*
X132548840Y-75951009D01*
X132538452Y-75970445D01*
X132524476Y-75987476D01*
X132507445Y-76001452D01*
X132488009Y-76011840D01*
X132466928Y-76018236D01*
X132438860Y-76021000D01*
X131975140Y-76021000D01*
X131947072Y-76018236D01*
X131925991Y-76011840D01*
X131906555Y-76001452D01*
X131889524Y-75987476D01*
X131875548Y-75970445D01*
X131865160Y-75951009D01*
X131858764Y-75929928D01*
X131856000Y-75901860D01*
X131856000Y-74088140D01*
X131858764Y-74060072D01*
X131865160Y-74038991D01*
X131875548Y-74019555D01*
X131889524Y-74002524D01*
X131906555Y-73988548D01*
X131925991Y-73978160D01*
X131947072Y-73971764D01*
X131975140Y-73969000D01*
X132438860Y-73969000D01*
X132466928Y-73971764D01*
G37*
G36*
X123778674Y-73782465D02*
G01*
X123816367Y-73793899D01*
X123851103Y-73812466D01*
X123881548Y-73837452D01*
X123906534Y-73867897D01*
X123925101Y-73902633D01*
X123936535Y-73940326D01*
X123941000Y-73985661D01*
X123941000Y-74822339D01*
X123936535Y-74867674D01*
X123925101Y-74905367D01*
X123906534Y-74940103D01*
X123881548Y-74970548D01*
X123851103Y-74995534D01*
X123816367Y-75014101D01*
X123778674Y-75025535D01*
X123733339Y-75030000D01*
X122646661Y-75030000D01*
X122601326Y-75025535D01*
X122563633Y-75014101D01*
X122528897Y-74995534D01*
X122498452Y-74970548D01*
X122473466Y-74940103D01*
X122454899Y-74905367D01*
X122443465Y-74867674D01*
X122439000Y-74822339D01*
X122439000Y-73985661D01*
X122443465Y-73940326D01*
X122454899Y-73902633D01*
X122473466Y-73867897D01*
X122498452Y-73837452D01*
X122528897Y-73812466D01*
X122563633Y-73793899D01*
X122601326Y-73782465D01*
X122646661Y-73778000D01*
X123733339Y-73778000D01*
X123778674Y-73782465D01*
G37*
G36*
X94093512Y-72763927D02*
G01*
X94242812Y-72793624D01*
X94406784Y-72861544D01*
X94554354Y-72960147D01*
X94679853Y-73085646D01*
X94778456Y-73233216D01*
X94846376Y-73397188D01*
X94881000Y-73571259D01*
X94881000Y-73748741D01*
X94846376Y-73922812D01*
X94778456Y-74086784D01*
X94679853Y-74234354D01*
X94554354Y-74359853D01*
X94406784Y-74458456D01*
X94242812Y-74526376D01*
X94093512Y-74556073D01*
X94068742Y-74561000D01*
X93891258Y-74561000D01*
X93866488Y-74556073D01*
X93717188Y-74526376D01*
X93553216Y-74458456D01*
X93405646Y-74359853D01*
X93280147Y-74234354D01*
X93181544Y-74086784D01*
X93113624Y-73922812D01*
X93079000Y-73748741D01*
X93079000Y-73571259D01*
X93113624Y-73397188D01*
X93181544Y-73233216D01*
X93280147Y-73085646D01*
X93405646Y-72960147D01*
X93553216Y-72861544D01*
X93717188Y-72793624D01*
X93866488Y-72763927D01*
X93891258Y-72759000D01*
X94068742Y-72759000D01*
X94093512Y-72763927D01*
G37*
G36*
X147433512Y-72763927D02*
G01*
X147582812Y-72793624D01*
X147746784Y-72861544D01*
X147894354Y-72960147D01*
X148019853Y-73085646D01*
X148118456Y-73233216D01*
X148186376Y-73397188D01*
X148221000Y-73571259D01*
X148221000Y-73748741D01*
X148186376Y-73922812D01*
X148118456Y-74086784D01*
X148019853Y-74234354D01*
X147894354Y-74359853D01*
X147746784Y-74458456D01*
X147582812Y-74526376D01*
X147433512Y-74556073D01*
X147408742Y-74561000D01*
X147231258Y-74561000D01*
X147206488Y-74556073D01*
X147057188Y-74526376D01*
X146893216Y-74458456D01*
X146745646Y-74359853D01*
X146620147Y-74234354D01*
X146521544Y-74086784D01*
X146453624Y-73922812D01*
X146419000Y-73748741D01*
X146419000Y-73571259D01*
X146453624Y-73397188D01*
X146521544Y-73233216D01*
X146620147Y-73085646D01*
X146745646Y-72960147D01*
X146893216Y-72861544D01*
X147057188Y-72793624D01*
X147206488Y-72763927D01*
X147231258Y-72759000D01*
X147408742Y-72759000D01*
X147433512Y-72763927D01*
G37*
G36*
X104537000Y-72893000D02*
G01*
X103235000Y-72893000D01*
X103235000Y-71891000D01*
X104537000Y-71891000D01*
X104537000Y-72893000D01*
G37*
G36*
X101489000Y-72891000D02*
G01*
X100187000Y-72891000D01*
X100187000Y-71889000D01*
X101489000Y-71889000D01*
X101489000Y-72891000D01*
G37*
G36*
X127588674Y-71278465D02*
G01*
X127626367Y-71289899D01*
X127661103Y-71308466D01*
X127691548Y-71333452D01*
X127716534Y-71363897D01*
X127735101Y-71398633D01*
X127746535Y-71436326D01*
X127751000Y-71481661D01*
X127751000Y-72318339D01*
X127746535Y-72363674D01*
X127735101Y-72401367D01*
X127716534Y-72436103D01*
X127691548Y-72466548D01*
X127661103Y-72491534D01*
X127626367Y-72510101D01*
X127588674Y-72521535D01*
X127543339Y-72526000D01*
X126456661Y-72526000D01*
X126411326Y-72521535D01*
X126373633Y-72510101D01*
X126338897Y-72491534D01*
X126308452Y-72466548D01*
X126283466Y-72436103D01*
X126264899Y-72401367D01*
X126253465Y-72363674D01*
X126249000Y-72318339D01*
X126249000Y-71481661D01*
X126253465Y-71436326D01*
X126264899Y-71398633D01*
X126283466Y-71363897D01*
X126308452Y-71333452D01*
X126338897Y-71308466D01*
X126373633Y-71289899D01*
X126411326Y-71278465D01*
X126456661Y-71274000D01*
X127543339Y-71274000D01*
X127588674Y-71278465D01*
G37*
G36*
X124794674Y-71278465D02*
G01*
X124832367Y-71289899D01*
X124867103Y-71308466D01*
X124897548Y-71333452D01*
X124922534Y-71363897D01*
X124941101Y-71398633D01*
X124952535Y-71436326D01*
X124957000Y-71481661D01*
X124957000Y-72318339D01*
X124952535Y-72363674D01*
X124941101Y-72401367D01*
X124922534Y-72436103D01*
X124897548Y-72466548D01*
X124867103Y-72491534D01*
X124832367Y-72510101D01*
X124794674Y-72521535D01*
X124749339Y-72526000D01*
X123662661Y-72526000D01*
X123617326Y-72521535D01*
X123579633Y-72510101D01*
X123544897Y-72491534D01*
X123514452Y-72466548D01*
X123489466Y-72436103D01*
X123470899Y-72401367D01*
X123459465Y-72363674D01*
X123455000Y-72318339D01*
X123455000Y-71481661D01*
X123459465Y-71436326D01*
X123470899Y-71398633D01*
X123489466Y-71363897D01*
X123514452Y-71333452D01*
X123544897Y-71308466D01*
X123579633Y-71289899D01*
X123617326Y-71278465D01*
X123662661Y-71274000D01*
X124749339Y-71274000D01*
X124794674Y-71278465D01*
G37*
G36*
X138764674Y-71260465D02*
G01*
X138802367Y-71271899D01*
X138837103Y-71290466D01*
X138867548Y-71315452D01*
X138892534Y-71345897D01*
X138911101Y-71380633D01*
X138922535Y-71418326D01*
X138927000Y-71463661D01*
X138927000Y-72300339D01*
X138922535Y-72345674D01*
X138911101Y-72383367D01*
X138892534Y-72418103D01*
X138867548Y-72448548D01*
X138837103Y-72473534D01*
X138802367Y-72492101D01*
X138764674Y-72503535D01*
X138719339Y-72508000D01*
X137632661Y-72508000D01*
X137587326Y-72503535D01*
X137549633Y-72492101D01*
X137514897Y-72473534D01*
X137484452Y-72448548D01*
X137459466Y-72418103D01*
X137440899Y-72383367D01*
X137429465Y-72345674D01*
X137425000Y-72300339D01*
X137425000Y-71463661D01*
X137429465Y-71418326D01*
X137440899Y-71380633D01*
X137459466Y-71345897D01*
X137484452Y-71315452D01*
X137514897Y-71290466D01*
X137549633Y-71271899D01*
X137587326Y-71260465D01*
X137632661Y-71256000D01*
X138719339Y-71256000D01*
X138764674Y-71260465D01*
G37*
G36*
X122000674Y-71260465D02*
G01*
X122038367Y-71271899D01*
X122073103Y-71290466D01*
X122103548Y-71315452D01*
X122128534Y-71345897D01*
X122147101Y-71380633D01*
X122158535Y-71418326D01*
X122163000Y-71463661D01*
X122163000Y-72300339D01*
X122158535Y-72345674D01*
X122147101Y-72383367D01*
X122128534Y-72418103D01*
X122103548Y-72448548D01*
X122073103Y-72473534D01*
X122038367Y-72492101D01*
X122000674Y-72503535D01*
X121955339Y-72508000D01*
X120868661Y-72508000D01*
X120823326Y-72503535D01*
X120785633Y-72492101D01*
X120750897Y-72473534D01*
X120720452Y-72448548D01*
X120695466Y-72418103D01*
X120676899Y-72383367D01*
X120665465Y-72345674D01*
X120661000Y-72300339D01*
X120661000Y-71463661D01*
X120665465Y-71418326D01*
X120676899Y-71380633D01*
X120695466Y-71345897D01*
X120720452Y-71315452D01*
X120750897Y-71290466D01*
X120785633Y-71271899D01*
X120823326Y-71260465D01*
X120868661Y-71256000D01*
X121955339Y-71256000D01*
X122000674Y-71260465D01*
G37*
G36*
X133176674Y-71260465D02*
G01*
X133214367Y-71271899D01*
X133249103Y-71290466D01*
X133279548Y-71315452D01*
X133304534Y-71345897D01*
X133323101Y-71380633D01*
X133334535Y-71418326D01*
X133339000Y-71463661D01*
X133339000Y-72300339D01*
X133334535Y-72345674D01*
X133323101Y-72383367D01*
X133304534Y-72418103D01*
X133279548Y-72448548D01*
X133249103Y-72473534D01*
X133214367Y-72492101D01*
X133176674Y-72503535D01*
X133131339Y-72508000D01*
X132044661Y-72508000D01*
X131999326Y-72503535D01*
X131961633Y-72492101D01*
X131926897Y-72473534D01*
X131896452Y-72448548D01*
X131871466Y-72418103D01*
X131852899Y-72383367D01*
X131841465Y-72345674D01*
X131837000Y-72300339D01*
X131837000Y-71463661D01*
X131841465Y-71418326D01*
X131852899Y-71380633D01*
X131871466Y-71345897D01*
X131896452Y-71315452D01*
X131926897Y-71290466D01*
X131961633Y-71271899D01*
X131999326Y-71260465D01*
X132044661Y-71256000D01*
X133131339Y-71256000D01*
X133176674Y-71260465D01*
G37*
G36*
X135970674Y-71260465D02*
G01*
X136008367Y-71271899D01*
X136043103Y-71290466D01*
X136073548Y-71315452D01*
X136098534Y-71345897D01*
X136117101Y-71380633D01*
X136128535Y-71418326D01*
X136133000Y-71463661D01*
X136133000Y-72300339D01*
X136128535Y-72345674D01*
X136117101Y-72383367D01*
X136098534Y-72418103D01*
X136073548Y-72448548D01*
X136043103Y-72473534D01*
X136008367Y-72492101D01*
X135970674Y-72503535D01*
X135925339Y-72508000D01*
X134838661Y-72508000D01*
X134793326Y-72503535D01*
X134755633Y-72492101D01*
X134720897Y-72473534D01*
X134690452Y-72448548D01*
X134665466Y-72418103D01*
X134646899Y-72383367D01*
X134635465Y-72345674D01*
X134631000Y-72300339D01*
X134631000Y-71463661D01*
X134635465Y-71418326D01*
X134646899Y-71380633D01*
X134665466Y-71345897D01*
X134690452Y-71315452D01*
X134720897Y-71290466D01*
X134755633Y-71271899D01*
X134793326Y-71260465D01*
X134838661Y-71256000D01*
X135925339Y-71256000D01*
X135970674Y-71260465D01*
G37*
G36*
X110062674Y-71260465D02*
G01*
X110100367Y-71271899D01*
X110135103Y-71290466D01*
X110165548Y-71315452D01*
X110190534Y-71345897D01*
X110209101Y-71380633D01*
X110220535Y-71418326D01*
X110225000Y-71463661D01*
X110225000Y-72300339D01*
X110220535Y-72345674D01*
X110209101Y-72383367D01*
X110190534Y-72418103D01*
X110165548Y-72448548D01*
X110135103Y-72473534D01*
X110100367Y-72492101D01*
X110062674Y-72503535D01*
X110017339Y-72508000D01*
X108930661Y-72508000D01*
X108885326Y-72503535D01*
X108847633Y-72492101D01*
X108812897Y-72473534D01*
X108782452Y-72448548D01*
X108757466Y-72418103D01*
X108738899Y-72383367D01*
X108727465Y-72345674D01*
X108723000Y-72300339D01*
X108723000Y-71463661D01*
X108727465Y-71418326D01*
X108738899Y-71380633D01*
X108757466Y-71345897D01*
X108782452Y-71315452D01*
X108812897Y-71290466D01*
X108847633Y-71271899D01*
X108885326Y-71260465D01*
X108930661Y-71256000D01*
X110017339Y-71256000D01*
X110062674Y-71260465D01*
G37*
G36*
X130382674Y-71260465D02*
G01*
X130420367Y-71271899D01*
X130455103Y-71290466D01*
X130485548Y-71315452D01*
X130510534Y-71345897D01*
X130529101Y-71380633D01*
X130540535Y-71418326D01*
X130545000Y-71463661D01*
X130545000Y-72300339D01*
X130540535Y-72345674D01*
X130529101Y-72383367D01*
X130510534Y-72418103D01*
X130485548Y-72448548D01*
X130455103Y-72473534D01*
X130420367Y-72492101D01*
X130382674Y-72503535D01*
X130337339Y-72508000D01*
X129250661Y-72508000D01*
X129205326Y-72503535D01*
X129167633Y-72492101D01*
X129132897Y-72473534D01*
X129102452Y-72448548D01*
X129077466Y-72418103D01*
X129058899Y-72383367D01*
X129047465Y-72345674D01*
X129043000Y-72300339D01*
X129043000Y-71463661D01*
X129047465Y-71418326D01*
X129058899Y-71380633D01*
X129077466Y-71345897D01*
X129102452Y-71315452D01*
X129132897Y-71290466D01*
X129167633Y-71271899D01*
X129205326Y-71260465D01*
X129250661Y-71256000D01*
X130337339Y-71256000D01*
X130382674Y-71260465D01*
G37*
G36*
X94093512Y-70223927D02*
G01*
X94242812Y-70253624D01*
X94406784Y-70321544D01*
X94554354Y-70420147D01*
X94679853Y-70545646D01*
X94778456Y-70693216D01*
X94846376Y-70857188D01*
X94881000Y-71031259D01*
X94881000Y-71208741D01*
X94846376Y-71382812D01*
X94778456Y-71546784D01*
X94679853Y-71694354D01*
X94554354Y-71819853D01*
X94406784Y-71918456D01*
X94242812Y-71986376D01*
X94093512Y-72016073D01*
X94068742Y-72021000D01*
X93891258Y-72021000D01*
X93866488Y-72016073D01*
X93717188Y-71986376D01*
X93553216Y-71918456D01*
X93405646Y-71819853D01*
X93280147Y-71694354D01*
X93181544Y-71546784D01*
X93113624Y-71382812D01*
X93079000Y-71208741D01*
X93079000Y-71031259D01*
X93113624Y-70857188D01*
X93181544Y-70693216D01*
X93280147Y-70545646D01*
X93405646Y-70420147D01*
X93553216Y-70321544D01*
X93717188Y-70253624D01*
X93866488Y-70223927D01*
X93891258Y-70219000D01*
X94068742Y-70219000D01*
X94093512Y-70223927D01*
G37*
G36*
X147433512Y-70223927D02*
G01*
X147582812Y-70253624D01*
X147746784Y-70321544D01*
X147894354Y-70420147D01*
X148019853Y-70545646D01*
X148118456Y-70693216D01*
X148186376Y-70857188D01*
X148221000Y-71031259D01*
X148221000Y-71208741D01*
X148186376Y-71382812D01*
X148118456Y-71546784D01*
X148019853Y-71694354D01*
X147894354Y-71819853D01*
X147746784Y-71918456D01*
X147582812Y-71986376D01*
X147433512Y-72016073D01*
X147408742Y-72021000D01*
X147231258Y-72021000D01*
X147206488Y-72016073D01*
X147057188Y-71986376D01*
X146893216Y-71918456D01*
X146745646Y-71819853D01*
X146620147Y-71694354D01*
X146521544Y-71546784D01*
X146453624Y-71382812D01*
X146419000Y-71208741D01*
X146419000Y-71031259D01*
X146453624Y-70857188D01*
X146521544Y-70693216D01*
X146620147Y-70545646D01*
X146745646Y-70420147D01*
X146893216Y-70321544D01*
X147057188Y-70253624D01*
X147206488Y-70223927D01*
X147231258Y-70219000D01*
X147408742Y-70219000D01*
X147433512Y-70223927D01*
G37*
G36*
X124794674Y-69228465D02*
G01*
X124832367Y-69239899D01*
X124867103Y-69258466D01*
X124897548Y-69283452D01*
X124922534Y-69313897D01*
X124941101Y-69348633D01*
X124952535Y-69386326D01*
X124957000Y-69431661D01*
X124957000Y-70268339D01*
X124952535Y-70313674D01*
X124941101Y-70351367D01*
X124922534Y-70386103D01*
X124897548Y-70416548D01*
X124867103Y-70441534D01*
X124832367Y-70460101D01*
X124794674Y-70471535D01*
X124749339Y-70476000D01*
X123662661Y-70476000D01*
X123617326Y-70471535D01*
X123579633Y-70460101D01*
X123544897Y-70441534D01*
X123514452Y-70416548D01*
X123489466Y-70386103D01*
X123470899Y-70351367D01*
X123459465Y-70313674D01*
X123455000Y-70268339D01*
X123455000Y-69431661D01*
X123459465Y-69386326D01*
X123470899Y-69348633D01*
X123489466Y-69313897D01*
X123514452Y-69283452D01*
X123544897Y-69258466D01*
X123579633Y-69239899D01*
X123617326Y-69228465D01*
X123662661Y-69224000D01*
X124749339Y-69224000D01*
X124794674Y-69228465D01*
G37*
G36*
X127588674Y-69228465D02*
G01*
X127626367Y-69239899D01*
X127661103Y-69258466D01*
X127691548Y-69283452D01*
X127716534Y-69313897D01*
X127735101Y-69348633D01*
X127746535Y-69386326D01*
X127751000Y-69431661D01*
X127751000Y-70268339D01*
X127746535Y-70313674D01*
X127735101Y-70351367D01*
X127716534Y-70386103D01*
X127691548Y-70416548D01*
X127661103Y-70441534D01*
X127626367Y-70460101D01*
X127588674Y-70471535D01*
X127543339Y-70476000D01*
X126456661Y-70476000D01*
X126411326Y-70471535D01*
X126373633Y-70460101D01*
X126338897Y-70441534D01*
X126308452Y-70416548D01*
X126283466Y-70386103D01*
X126264899Y-70351367D01*
X126253465Y-70313674D01*
X126249000Y-70268339D01*
X126249000Y-69431661D01*
X126253465Y-69386326D01*
X126264899Y-69348633D01*
X126283466Y-69313897D01*
X126308452Y-69283452D01*
X126338897Y-69258466D01*
X126373633Y-69239899D01*
X126411326Y-69228465D01*
X126456661Y-69224000D01*
X127543339Y-69224000D01*
X127588674Y-69228465D01*
G37*
G36*
X122000674Y-69210465D02*
G01*
X122038367Y-69221899D01*
X122073103Y-69240466D01*
X122103548Y-69265452D01*
X122128534Y-69295897D01*
X122147101Y-69330633D01*
X122158535Y-69368326D01*
X122163000Y-69413661D01*
X122163000Y-70250339D01*
X122158535Y-70295674D01*
X122147101Y-70333367D01*
X122128534Y-70368103D01*
X122103548Y-70398548D01*
X122073103Y-70423534D01*
X122038367Y-70442101D01*
X122000674Y-70453535D01*
X121955339Y-70458000D01*
X120868661Y-70458000D01*
X120823326Y-70453535D01*
X120785633Y-70442101D01*
X120750897Y-70423534D01*
X120720452Y-70398548D01*
X120695466Y-70368103D01*
X120676899Y-70333367D01*
X120665465Y-70295674D01*
X120661000Y-70250339D01*
X120661000Y-69413661D01*
X120665465Y-69368326D01*
X120676899Y-69330633D01*
X120695466Y-69295897D01*
X120720452Y-69265452D01*
X120750897Y-69240466D01*
X120785633Y-69221899D01*
X120823326Y-69210465D01*
X120868661Y-69206000D01*
X121955339Y-69206000D01*
X122000674Y-69210465D01*
G37*
G36*
X130382674Y-69210465D02*
G01*
X130420367Y-69221899D01*
X130455103Y-69240466D01*
X130485548Y-69265452D01*
X130510534Y-69295897D01*
X130529101Y-69330633D01*
X130540535Y-69368326D01*
X130545000Y-69413661D01*
X130545000Y-70250339D01*
X130540535Y-70295674D01*
X130529101Y-70333367D01*
X130510534Y-70368103D01*
X130485548Y-70398548D01*
X130455103Y-70423534D01*
X130420367Y-70442101D01*
X130382674Y-70453535D01*
X130337339Y-70458000D01*
X129250661Y-70458000D01*
X129205326Y-70453535D01*
X129167633Y-70442101D01*
X129132897Y-70423534D01*
X129102452Y-70398548D01*
X129077466Y-70368103D01*
X129058899Y-70333367D01*
X129047465Y-70295674D01*
X129043000Y-70250339D01*
X129043000Y-69413661D01*
X129047465Y-69368326D01*
X129058899Y-69330633D01*
X129077466Y-69295897D01*
X129102452Y-69265452D01*
X129132897Y-69240466D01*
X129167633Y-69221899D01*
X129205326Y-69210465D01*
X129250661Y-69206000D01*
X130337339Y-69206000D01*
X130382674Y-69210465D01*
G37*
G36*
X133176674Y-69210465D02*
G01*
X133214367Y-69221899D01*
X133249103Y-69240466D01*
X133279548Y-69265452D01*
X133304534Y-69295897D01*
X133323101Y-69330633D01*
X133334535Y-69368326D01*
X133339000Y-69413661D01*
X133339000Y-70250339D01*
X133334535Y-70295674D01*
X133323101Y-70333367D01*
X133304534Y-70368103D01*
X133279548Y-70398548D01*
X133249103Y-70423534D01*
X133214367Y-70442101D01*
X133176674Y-70453535D01*
X133131339Y-70458000D01*
X132044661Y-70458000D01*
X131999326Y-70453535D01*
X131961633Y-70442101D01*
X131926897Y-70423534D01*
X131896452Y-70398548D01*
X131871466Y-70368103D01*
X131852899Y-70333367D01*
X131841465Y-70295674D01*
X131837000Y-70250339D01*
X131837000Y-69413661D01*
X131841465Y-69368326D01*
X131852899Y-69330633D01*
X131871466Y-69295897D01*
X131896452Y-69265452D01*
X131926897Y-69240466D01*
X131961633Y-69221899D01*
X131999326Y-69210465D01*
X132044661Y-69206000D01*
X133131339Y-69206000D01*
X133176674Y-69210465D01*
G37*
G36*
X110062674Y-69210465D02*
G01*
X110100367Y-69221899D01*
X110135103Y-69240466D01*
X110165548Y-69265452D01*
X110190534Y-69295897D01*
X110209101Y-69330633D01*
X110220535Y-69368326D01*
X110225000Y-69413661D01*
X110225000Y-70250339D01*
X110220535Y-70295674D01*
X110209101Y-70333367D01*
X110190534Y-70368103D01*
X110165548Y-70398548D01*
X110135103Y-70423534D01*
X110100367Y-70442101D01*
X110062674Y-70453535D01*
X110017339Y-70458000D01*
X108930661Y-70458000D01*
X108885326Y-70453535D01*
X108847633Y-70442101D01*
X108812897Y-70423534D01*
X108782452Y-70398548D01*
X108757466Y-70368103D01*
X108738899Y-70333367D01*
X108727465Y-70295674D01*
X108723000Y-70250339D01*
X108723000Y-69413661D01*
X108727465Y-69368326D01*
X108738899Y-69330633D01*
X108757466Y-69295897D01*
X108782452Y-69265452D01*
X108812897Y-69240466D01*
X108847633Y-69221899D01*
X108885326Y-69210465D01*
X108930661Y-69206000D01*
X110017339Y-69206000D01*
X110062674Y-69210465D01*
G37*
G36*
X135970674Y-69210465D02*
G01*
X136008367Y-69221899D01*
X136043103Y-69240466D01*
X136073548Y-69265452D01*
X136098534Y-69295897D01*
X136117101Y-69330633D01*
X136128535Y-69368326D01*
X136133000Y-69413661D01*
X136133000Y-70250339D01*
X136128535Y-70295674D01*
X136117101Y-70333367D01*
X136098534Y-70368103D01*
X136073548Y-70398548D01*
X136043103Y-70423534D01*
X136008367Y-70442101D01*
X135970674Y-70453535D01*
X135925339Y-70458000D01*
X134838661Y-70458000D01*
X134793326Y-70453535D01*
X134755633Y-70442101D01*
X134720897Y-70423534D01*
X134690452Y-70398548D01*
X134665466Y-70368103D01*
X134646899Y-70333367D01*
X134635465Y-70295674D01*
X134631000Y-70250339D01*
X134631000Y-69413661D01*
X134635465Y-69368326D01*
X134646899Y-69330633D01*
X134665466Y-69295897D01*
X134690452Y-69265452D01*
X134720897Y-69240466D01*
X134755633Y-69221899D01*
X134793326Y-69210465D01*
X134838661Y-69206000D01*
X135925339Y-69206000D01*
X135970674Y-69210465D01*
G37*
G36*
X138764674Y-69210465D02*
G01*
X138802367Y-69221899D01*
X138837103Y-69240466D01*
X138867548Y-69265452D01*
X138892534Y-69295897D01*
X138911101Y-69330633D01*
X138922535Y-69368326D01*
X138927000Y-69413661D01*
X138927000Y-70250339D01*
X138922535Y-70295674D01*
X138911101Y-70333367D01*
X138892534Y-70368103D01*
X138867548Y-70398548D01*
X138837103Y-70423534D01*
X138802367Y-70442101D01*
X138764674Y-70453535D01*
X138719339Y-70458000D01*
X137632661Y-70458000D01*
X137587326Y-70453535D01*
X137549633Y-70442101D01*
X137514897Y-70423534D01*
X137484452Y-70398548D01*
X137459466Y-70368103D01*
X137440899Y-70333367D01*
X137429465Y-70295674D01*
X137425000Y-70250339D01*
X137425000Y-69413661D01*
X137429465Y-69368326D01*
X137440899Y-69330633D01*
X137459466Y-69295897D01*
X137484452Y-69265452D01*
X137514897Y-69240466D01*
X137549633Y-69221899D01*
X137587326Y-69210465D01*
X137632661Y-69206000D01*
X138719339Y-69206000D01*
X138764674Y-69210465D01*
G37*
G36*
X94881000Y-69481000D02*
G01*
X93079000Y-69481000D01*
X93079000Y-67679000D01*
X94881000Y-67679000D01*
X94881000Y-69481000D01*
G37*
G36*
X148221000Y-69481000D02*
G01*
X146419000Y-69481000D01*
X146419000Y-67679000D01*
X148221000Y-67679000D01*
X148221000Y-69481000D01*
G37*
M02*
