G04 #@! TF.GenerationSoftware,KiCad,Pcbnew,5.1.6-c6e7f7d~87~ubuntu18.04.1*
G04 #@! TF.CreationDate,2020-08-19T17:04:45-04:00*
G04 #@! TF.ProjectId,late_MS20_VCF_plug_in_board,6c617465-5f4d-4533-9230-5f5643465f70,0*
G04 #@! TF.SameCoordinates,Original*
G04 #@! TF.FileFunction,Paste,Top*
G04 #@! TF.FilePolarity,Positive*
%FSLAX46Y46*%
G04 Gerber Fmt 4.6, Leading zero omitted, Abs format (unit mm)*
G04 Created by KiCad (PCBNEW 5.1.6-c6e7f7d~87~ubuntu18.04.1) date 2020-08-19 17:04:45*
%MOMM*%
%LPD*%
G01*
G04 APERTURE LIST*
%ADD10R,1.900000X0.800000*%
%ADD11R,1.500000X0.550000*%
%ADD12R,1.200000X0.900000*%
G04 APERTURE END LIST*
G36*
G01*
X108017000Y-92259999D02*
X108017000Y-93160001D01*
G75*
G02*
X107767001Y-93410000I-249999J0D01*
G01*
X107116999Y-93410000D01*
G75*
G02*
X106867000Y-93160001I0J249999D01*
G01*
X106867000Y-92259999D01*
G75*
G02*
X107116999Y-92010000I249999J0D01*
G01*
X107767001Y-92010000D01*
G75*
G02*
X108017000Y-92259999I0J-249999D01*
G01*
G37*
G36*
G01*
X110067000Y-92259999D02*
X110067000Y-93160001D01*
G75*
G02*
X109817001Y-93410000I-249999J0D01*
G01*
X109166999Y-93410000D01*
G75*
G02*
X108917000Y-93160001I0J249999D01*
G01*
X108917000Y-92259999D01*
G75*
G02*
X109166999Y-92010000I249999J0D01*
G01*
X109817001Y-92010000D01*
G75*
G02*
X110067000Y-92259999I0J-249999D01*
G01*
G37*
G36*
G01*
X108008000Y-97339999D02*
X108008000Y-98240001D01*
G75*
G02*
X107758001Y-98490000I-249999J0D01*
G01*
X107107999Y-98490000D01*
G75*
G02*
X106858000Y-98240001I0J249999D01*
G01*
X106858000Y-97339999D01*
G75*
G02*
X107107999Y-97090000I249999J0D01*
G01*
X107758001Y-97090000D01*
G75*
G02*
X108008000Y-97339999I0J-249999D01*
G01*
G37*
G36*
G01*
X110058000Y-97339999D02*
X110058000Y-98240001D01*
G75*
G02*
X109808001Y-98490000I-249999J0D01*
G01*
X109157999Y-98490000D01*
G75*
G02*
X108908000Y-98240001I0J249999D01*
G01*
X108908000Y-97339999D01*
G75*
G02*
X109157999Y-97090000I249999J0D01*
G01*
X109808001Y-97090000D01*
G75*
G02*
X110058000Y-97339999I0J-249999D01*
G01*
G37*
G36*
G01*
X100526001Y-90745000D02*
X99625999Y-90745000D01*
G75*
G02*
X99376000Y-90495001I0J249999D01*
G01*
X99376000Y-89844999D01*
G75*
G02*
X99625999Y-89595000I249999J0D01*
G01*
X100526001Y-89595000D01*
G75*
G02*
X100776000Y-89844999I0J-249999D01*
G01*
X100776000Y-90495001D01*
G75*
G02*
X100526001Y-90745000I-249999J0D01*
G01*
G37*
G36*
G01*
X100526001Y-92795000D02*
X99625999Y-92795000D01*
G75*
G02*
X99376000Y-92545001I0J249999D01*
G01*
X99376000Y-91894999D01*
G75*
G02*
X99625999Y-91645000I249999J0D01*
G01*
X100526001Y-91645000D01*
G75*
G02*
X100776000Y-91894999I0J-249999D01*
G01*
X100776000Y-92545001D01*
G75*
G02*
X100526001Y-92795000I-249999J0D01*
G01*
G37*
G36*
G01*
X101787000Y-99256001D02*
X101787000Y-98355999D01*
G75*
G02*
X102036999Y-98106000I249999J0D01*
G01*
X102687001Y-98106000D01*
G75*
G02*
X102937000Y-98355999I0J-249999D01*
G01*
X102937000Y-99256001D01*
G75*
G02*
X102687001Y-99506000I-249999J0D01*
G01*
X102036999Y-99506000D01*
G75*
G02*
X101787000Y-99256001I0J249999D01*
G01*
G37*
G36*
G01*
X99737000Y-99256001D02*
X99737000Y-98355999D01*
G75*
G02*
X99986999Y-98106000I249999J0D01*
G01*
X100637001Y-98106000D01*
G75*
G02*
X100887000Y-98355999I0J-249999D01*
G01*
X100887000Y-99256001D01*
G75*
G02*
X100637001Y-99506000I-249999J0D01*
G01*
X99986999Y-99506000D01*
G75*
G02*
X99737000Y-99256001I0J249999D01*
G01*
G37*
G36*
G01*
X101787000Y-101796001D02*
X101787000Y-100895999D01*
G75*
G02*
X102036999Y-100646000I249999J0D01*
G01*
X102687001Y-100646000D01*
G75*
G02*
X102937000Y-100895999I0J-249999D01*
G01*
X102937000Y-101796001D01*
G75*
G02*
X102687001Y-102046000I-249999J0D01*
G01*
X102036999Y-102046000D01*
G75*
G02*
X101787000Y-101796001I0J249999D01*
G01*
G37*
G36*
G01*
X99737000Y-101796001D02*
X99737000Y-100895999D01*
G75*
G02*
X99986999Y-100646000I249999J0D01*
G01*
X100637001Y-100646000D01*
G75*
G02*
X100887000Y-100895999I0J-249999D01*
G01*
X100887000Y-101796001D01*
G75*
G02*
X100637001Y-102046000I-249999J0D01*
G01*
X99986999Y-102046000D01*
G75*
G02*
X99737000Y-101796001I0J249999D01*
G01*
G37*
G36*
G01*
X121862001Y-83633000D02*
X120961999Y-83633000D01*
G75*
G02*
X120712000Y-83383001I0J249999D01*
G01*
X120712000Y-82732999D01*
G75*
G02*
X120961999Y-82483000I249999J0D01*
G01*
X121862001Y-82483000D01*
G75*
G02*
X122112000Y-82732999I0J-249999D01*
G01*
X122112000Y-83383001D01*
G75*
G02*
X121862001Y-83633000I-249999J0D01*
G01*
G37*
G36*
G01*
X121862001Y-85683000D02*
X120961999Y-85683000D01*
G75*
G02*
X120712000Y-85433001I0J249999D01*
G01*
X120712000Y-84782999D01*
G75*
G02*
X120961999Y-84533000I249999J0D01*
G01*
X121862001Y-84533000D01*
G75*
G02*
X122112000Y-84782999I0J-249999D01*
G01*
X122112000Y-85433001D01*
G75*
G02*
X121862001Y-85683000I-249999J0D01*
G01*
G37*
G36*
G01*
X138626001Y-83633000D02*
X137725999Y-83633000D01*
G75*
G02*
X137476000Y-83383001I0J249999D01*
G01*
X137476000Y-82732999D01*
G75*
G02*
X137725999Y-82483000I249999J0D01*
G01*
X138626001Y-82483000D01*
G75*
G02*
X138876000Y-82732999I0J-249999D01*
G01*
X138876000Y-83383001D01*
G75*
G02*
X138626001Y-83633000I-249999J0D01*
G01*
G37*
G36*
G01*
X138626001Y-85683000D02*
X137725999Y-85683000D01*
G75*
G02*
X137476000Y-85433001I0J249999D01*
G01*
X137476000Y-84782999D01*
G75*
G02*
X137725999Y-84533000I249999J0D01*
G01*
X138626001Y-84533000D01*
G75*
G02*
X138876000Y-84782999I0J-249999D01*
G01*
X138876000Y-85433001D01*
G75*
G02*
X138626001Y-85683000I-249999J0D01*
G01*
G37*
G36*
G01*
X134931999Y-84524000D02*
X135832001Y-84524000D01*
G75*
G02*
X136082000Y-84773999I0J-249999D01*
G01*
X136082000Y-85424001D01*
G75*
G02*
X135832001Y-85674000I-249999J0D01*
G01*
X134931999Y-85674000D01*
G75*
G02*
X134682000Y-85424001I0J249999D01*
G01*
X134682000Y-84773999D01*
G75*
G02*
X134931999Y-84524000I249999J0D01*
G01*
G37*
G36*
G01*
X134931999Y-82474000D02*
X135832001Y-82474000D01*
G75*
G02*
X136082000Y-82723999I0J-249999D01*
G01*
X136082000Y-83374001D01*
G75*
G02*
X135832001Y-83624000I-249999J0D01*
G01*
X134931999Y-83624000D01*
G75*
G02*
X134682000Y-83374001I0J249999D01*
G01*
X134682000Y-82723999D01*
G75*
G02*
X134931999Y-82474000I249999J0D01*
G01*
G37*
G36*
G01*
X127450001Y-83615000D02*
X126549999Y-83615000D01*
G75*
G02*
X126300000Y-83365001I0J249999D01*
G01*
X126300000Y-82714999D01*
G75*
G02*
X126549999Y-82465000I249999J0D01*
G01*
X127450001Y-82465000D01*
G75*
G02*
X127700000Y-82714999I0J-249999D01*
G01*
X127700000Y-83365001D01*
G75*
G02*
X127450001Y-83615000I-249999J0D01*
G01*
G37*
G36*
G01*
X127450001Y-85665000D02*
X126549999Y-85665000D01*
G75*
G02*
X126300000Y-85415001I0J249999D01*
G01*
X126300000Y-84764999D01*
G75*
G02*
X126549999Y-84515000I249999J0D01*
G01*
X127450001Y-84515000D01*
G75*
G02*
X127700000Y-84764999I0J-249999D01*
G01*
X127700000Y-85415001D01*
G75*
G02*
X127450001Y-85665000I-249999J0D01*
G01*
G37*
G36*
G01*
X107753999Y-84515000D02*
X108654001Y-84515000D01*
G75*
G02*
X108904000Y-84764999I0J-249999D01*
G01*
X108904000Y-85415001D01*
G75*
G02*
X108654001Y-85665000I-249999J0D01*
G01*
X107753999Y-85665000D01*
G75*
G02*
X107504000Y-85415001I0J249999D01*
G01*
X107504000Y-84764999D01*
G75*
G02*
X107753999Y-84515000I249999J0D01*
G01*
G37*
G36*
G01*
X107753999Y-82465000D02*
X108654001Y-82465000D01*
G75*
G02*
X108904000Y-82714999I0J-249999D01*
G01*
X108904000Y-83365001D01*
G75*
G02*
X108654001Y-83615000I-249999J0D01*
G01*
X107753999Y-83615000D01*
G75*
G02*
X107504000Y-83365001I0J249999D01*
G01*
X107504000Y-82714999D01*
G75*
G02*
X107753999Y-82465000I249999J0D01*
G01*
G37*
G36*
G01*
X132137999Y-84515000D02*
X133038001Y-84515000D01*
G75*
G02*
X133288000Y-84764999I0J-249999D01*
G01*
X133288000Y-85415001D01*
G75*
G02*
X133038001Y-85665000I-249999J0D01*
G01*
X132137999Y-85665000D01*
G75*
G02*
X131888000Y-85415001I0J249999D01*
G01*
X131888000Y-84764999D01*
G75*
G02*
X132137999Y-84515000I249999J0D01*
G01*
G37*
G36*
G01*
X132137999Y-82465000D02*
X133038001Y-82465000D01*
G75*
G02*
X133288000Y-82714999I0J-249999D01*
G01*
X133288000Y-83365001D01*
G75*
G02*
X133038001Y-83615000I-249999J0D01*
G01*
X132137999Y-83615000D01*
G75*
G02*
X131888000Y-83365001I0J249999D01*
G01*
X131888000Y-82714999D01*
G75*
G02*
X132137999Y-82465000I249999J0D01*
G01*
G37*
G36*
G01*
X124656001Y-83633000D02*
X123755999Y-83633000D01*
G75*
G02*
X123506000Y-83383001I0J249999D01*
G01*
X123506000Y-82732999D01*
G75*
G02*
X123755999Y-82483000I249999J0D01*
G01*
X124656001Y-82483000D01*
G75*
G02*
X124906000Y-82732999I0J-249999D01*
G01*
X124906000Y-83383001D01*
G75*
G02*
X124656001Y-83633000I-249999J0D01*
G01*
G37*
G36*
G01*
X124656001Y-85683000D02*
X123755999Y-85683000D01*
G75*
G02*
X123506000Y-85433001I0J249999D01*
G01*
X123506000Y-84782999D01*
G75*
G02*
X123755999Y-84533000I249999J0D01*
G01*
X124656001Y-84533000D01*
G75*
G02*
X124906000Y-84782999I0J-249999D01*
G01*
X124906000Y-85433001D01*
G75*
G02*
X124656001Y-85683000I-249999J0D01*
G01*
G37*
G36*
G01*
X110547999Y-84533000D02*
X111448001Y-84533000D01*
G75*
G02*
X111698000Y-84782999I0J-249999D01*
G01*
X111698000Y-85433001D01*
G75*
G02*
X111448001Y-85683000I-249999J0D01*
G01*
X110547999Y-85683000D01*
G75*
G02*
X110298000Y-85433001I0J249999D01*
G01*
X110298000Y-84782999D01*
G75*
G02*
X110547999Y-84533000I249999J0D01*
G01*
G37*
G36*
G01*
X110547999Y-82483000D02*
X111448001Y-82483000D01*
G75*
G02*
X111698000Y-82732999I0J-249999D01*
G01*
X111698000Y-83383001D01*
G75*
G02*
X111448001Y-83633000I-249999J0D01*
G01*
X110547999Y-83633000D01*
G75*
G02*
X110298000Y-83383001I0J249999D01*
G01*
X110298000Y-82732999D01*
G75*
G02*
X110547999Y-82483000I249999J0D01*
G01*
G37*
G36*
G01*
X120961999Y-71307000D02*
X121862001Y-71307000D01*
G75*
G02*
X122112000Y-71556999I0J-249999D01*
G01*
X122112000Y-72207001D01*
G75*
G02*
X121862001Y-72457000I-249999J0D01*
G01*
X120961999Y-72457000D01*
G75*
G02*
X120712000Y-72207001I0J249999D01*
G01*
X120712000Y-71556999D01*
G75*
G02*
X120961999Y-71307000I249999J0D01*
G01*
G37*
G36*
G01*
X120961999Y-69257000D02*
X121862001Y-69257000D01*
G75*
G02*
X122112000Y-69506999I0J-249999D01*
G01*
X122112000Y-70157001D01*
G75*
G02*
X121862001Y-70407000I-249999J0D01*
G01*
X120961999Y-70407000D01*
G75*
G02*
X120712000Y-70157001I0J249999D01*
G01*
X120712000Y-69506999D01*
G75*
G02*
X120961999Y-69257000I249999J0D01*
G01*
G37*
G36*
G01*
X137725999Y-71307000D02*
X138626001Y-71307000D01*
G75*
G02*
X138876000Y-71556999I0J-249999D01*
G01*
X138876000Y-72207001D01*
G75*
G02*
X138626001Y-72457000I-249999J0D01*
G01*
X137725999Y-72457000D01*
G75*
G02*
X137476000Y-72207001I0J249999D01*
G01*
X137476000Y-71556999D01*
G75*
G02*
X137725999Y-71307000I249999J0D01*
G01*
G37*
G36*
G01*
X137725999Y-69257000D02*
X138626001Y-69257000D01*
G75*
G02*
X138876000Y-69506999I0J-249999D01*
G01*
X138876000Y-70157001D01*
G75*
G02*
X138626001Y-70407000I-249999J0D01*
G01*
X137725999Y-70407000D01*
G75*
G02*
X137476000Y-70157001I0J249999D01*
G01*
X137476000Y-69506999D01*
G75*
G02*
X137725999Y-69257000I249999J0D01*
G01*
G37*
G36*
G01*
X135832001Y-70407000D02*
X134931999Y-70407000D01*
G75*
G02*
X134682000Y-70157001I0J249999D01*
G01*
X134682000Y-69506999D01*
G75*
G02*
X134931999Y-69257000I249999J0D01*
G01*
X135832001Y-69257000D01*
G75*
G02*
X136082000Y-69506999I0J-249999D01*
G01*
X136082000Y-70157001D01*
G75*
G02*
X135832001Y-70407000I-249999J0D01*
G01*
G37*
G36*
G01*
X135832001Y-72457000D02*
X134931999Y-72457000D01*
G75*
G02*
X134682000Y-72207001I0J249999D01*
G01*
X134682000Y-71556999D01*
G75*
G02*
X134931999Y-71307000I249999J0D01*
G01*
X135832001Y-71307000D01*
G75*
G02*
X136082000Y-71556999I0J-249999D01*
G01*
X136082000Y-72207001D01*
G75*
G02*
X135832001Y-72457000I-249999J0D01*
G01*
G37*
G36*
G01*
X124656001Y-70425000D02*
X123755999Y-70425000D01*
G75*
G02*
X123506000Y-70175001I0J249999D01*
G01*
X123506000Y-69524999D01*
G75*
G02*
X123755999Y-69275000I249999J0D01*
G01*
X124656001Y-69275000D01*
G75*
G02*
X124906000Y-69524999I0J-249999D01*
G01*
X124906000Y-70175001D01*
G75*
G02*
X124656001Y-70425000I-249999J0D01*
G01*
G37*
G36*
G01*
X124656001Y-72475000D02*
X123755999Y-72475000D01*
G75*
G02*
X123506000Y-72225001I0J249999D01*
G01*
X123506000Y-71574999D01*
G75*
G02*
X123755999Y-71325000I249999J0D01*
G01*
X124656001Y-71325000D01*
G75*
G02*
X124906000Y-71574999I0J-249999D01*
G01*
X124906000Y-72225001D01*
G75*
G02*
X124656001Y-72475000I-249999J0D01*
G01*
G37*
G36*
G01*
X133038001Y-70407000D02*
X132137999Y-70407000D01*
G75*
G02*
X131888000Y-70157001I0J249999D01*
G01*
X131888000Y-69506999D01*
G75*
G02*
X132137999Y-69257000I249999J0D01*
G01*
X133038001Y-69257000D01*
G75*
G02*
X133288000Y-69506999I0J-249999D01*
G01*
X133288000Y-70157001D01*
G75*
G02*
X133038001Y-70407000I-249999J0D01*
G01*
G37*
G36*
G01*
X133038001Y-72457000D02*
X132137999Y-72457000D01*
G75*
G02*
X131888000Y-72207001I0J249999D01*
G01*
X131888000Y-71556999D01*
G75*
G02*
X132137999Y-71307000I249999J0D01*
G01*
X133038001Y-71307000D01*
G75*
G02*
X133288000Y-71556999I0J-249999D01*
G01*
X133288000Y-72207001D01*
G75*
G02*
X133038001Y-72457000I-249999J0D01*
G01*
G37*
G36*
G01*
X127450001Y-70425000D02*
X126549999Y-70425000D01*
G75*
G02*
X126300000Y-70175001I0J249999D01*
G01*
X126300000Y-69524999D01*
G75*
G02*
X126549999Y-69275000I249999J0D01*
G01*
X127450001Y-69275000D01*
G75*
G02*
X127700000Y-69524999I0J-249999D01*
G01*
X127700000Y-70175001D01*
G75*
G02*
X127450001Y-70425000I-249999J0D01*
G01*
G37*
G36*
G01*
X127450001Y-72475000D02*
X126549999Y-72475000D01*
G75*
G02*
X126300000Y-72225001I0J249999D01*
G01*
X126300000Y-71574999D01*
G75*
G02*
X126549999Y-71325000I249999J0D01*
G01*
X127450001Y-71325000D01*
G75*
G02*
X127700000Y-71574999I0J-249999D01*
G01*
X127700000Y-72225001D01*
G75*
G02*
X127450001Y-72475000I-249999J0D01*
G01*
G37*
G36*
G01*
X116562000Y-93749000D02*
X116562000Y-93449000D01*
G75*
G02*
X116712000Y-93299000I150000J0D01*
G01*
X118362000Y-93299000D01*
G75*
G02*
X118512000Y-93449000I0J-150000D01*
G01*
X118512000Y-93749000D01*
G75*
G02*
X118362000Y-93899000I-150000J0D01*
G01*
X116712000Y-93899000D01*
G75*
G02*
X116562000Y-93749000I0J150000D01*
G01*
G37*
G36*
G01*
X116562000Y-95019000D02*
X116562000Y-94719000D01*
G75*
G02*
X116712000Y-94569000I150000J0D01*
G01*
X118362000Y-94569000D01*
G75*
G02*
X118512000Y-94719000I0J-150000D01*
G01*
X118512000Y-95019000D01*
G75*
G02*
X118362000Y-95169000I-150000J0D01*
G01*
X116712000Y-95169000D01*
G75*
G02*
X116562000Y-95019000I0J150000D01*
G01*
G37*
G36*
G01*
X116562000Y-96289000D02*
X116562000Y-95989000D01*
G75*
G02*
X116712000Y-95839000I150000J0D01*
G01*
X118362000Y-95839000D01*
G75*
G02*
X118512000Y-95989000I0J-150000D01*
G01*
X118512000Y-96289000D01*
G75*
G02*
X118362000Y-96439000I-150000J0D01*
G01*
X116712000Y-96439000D01*
G75*
G02*
X116562000Y-96289000I0J150000D01*
G01*
G37*
G36*
G01*
X116562000Y-97559000D02*
X116562000Y-97259000D01*
G75*
G02*
X116712000Y-97109000I150000J0D01*
G01*
X118362000Y-97109000D01*
G75*
G02*
X118512000Y-97259000I0J-150000D01*
G01*
X118512000Y-97559000D01*
G75*
G02*
X118362000Y-97709000I-150000J0D01*
G01*
X116712000Y-97709000D01*
G75*
G02*
X116562000Y-97559000I0J150000D01*
G01*
G37*
G36*
G01*
X111612000Y-97559000D02*
X111612000Y-97259000D01*
G75*
G02*
X111762000Y-97109000I150000J0D01*
G01*
X113412000Y-97109000D01*
G75*
G02*
X113562000Y-97259000I0J-150000D01*
G01*
X113562000Y-97559000D01*
G75*
G02*
X113412000Y-97709000I-150000J0D01*
G01*
X111762000Y-97709000D01*
G75*
G02*
X111612000Y-97559000I0J150000D01*
G01*
G37*
G36*
G01*
X111612000Y-96289000D02*
X111612000Y-95989000D01*
G75*
G02*
X111762000Y-95839000I150000J0D01*
G01*
X113412000Y-95839000D01*
G75*
G02*
X113562000Y-95989000I0J-150000D01*
G01*
X113562000Y-96289000D01*
G75*
G02*
X113412000Y-96439000I-150000J0D01*
G01*
X111762000Y-96439000D01*
G75*
G02*
X111612000Y-96289000I0J150000D01*
G01*
G37*
G36*
G01*
X111612000Y-95019000D02*
X111612000Y-94719000D01*
G75*
G02*
X111762000Y-94569000I150000J0D01*
G01*
X113412000Y-94569000D01*
G75*
G02*
X113562000Y-94719000I0J-150000D01*
G01*
X113562000Y-95019000D01*
G75*
G02*
X113412000Y-95169000I-150000J0D01*
G01*
X111762000Y-95169000D01*
G75*
G02*
X111612000Y-95019000I0J150000D01*
G01*
G37*
G36*
G01*
X111612000Y-93749000D02*
X111612000Y-93449000D01*
G75*
G02*
X111762000Y-93299000I150000J0D01*
G01*
X113412000Y-93299000D01*
G75*
G02*
X113562000Y-93449000I0J-150000D01*
G01*
X113562000Y-93749000D01*
G75*
G02*
X113412000Y-93899000I-150000J0D01*
G01*
X111762000Y-93899000D01*
G75*
G02*
X111612000Y-93749000I0J150000D01*
G01*
G37*
G36*
G01*
X134597000Y-78970000D02*
X134897000Y-78970000D01*
G75*
G02*
X135047000Y-79120000I0J-150000D01*
G01*
X135047000Y-80770000D01*
G75*
G02*
X134897000Y-80920000I-150000J0D01*
G01*
X134597000Y-80920000D01*
G75*
G02*
X134447000Y-80770000I0J150000D01*
G01*
X134447000Y-79120000D01*
G75*
G02*
X134597000Y-78970000I150000J0D01*
G01*
G37*
G36*
G01*
X133327000Y-78970000D02*
X133627000Y-78970000D01*
G75*
G02*
X133777000Y-79120000I0J-150000D01*
G01*
X133777000Y-80770000D01*
G75*
G02*
X133627000Y-80920000I-150000J0D01*
G01*
X133327000Y-80920000D01*
G75*
G02*
X133177000Y-80770000I0J150000D01*
G01*
X133177000Y-79120000D01*
G75*
G02*
X133327000Y-78970000I150000J0D01*
G01*
G37*
G36*
G01*
X132057000Y-78970000D02*
X132357000Y-78970000D01*
G75*
G02*
X132507000Y-79120000I0J-150000D01*
G01*
X132507000Y-80770000D01*
G75*
G02*
X132357000Y-80920000I-150000J0D01*
G01*
X132057000Y-80920000D01*
G75*
G02*
X131907000Y-80770000I0J150000D01*
G01*
X131907000Y-79120000D01*
G75*
G02*
X132057000Y-78970000I150000J0D01*
G01*
G37*
G36*
G01*
X130787000Y-78970000D02*
X131087000Y-78970000D01*
G75*
G02*
X131237000Y-79120000I0J-150000D01*
G01*
X131237000Y-80770000D01*
G75*
G02*
X131087000Y-80920000I-150000J0D01*
G01*
X130787000Y-80920000D01*
G75*
G02*
X130637000Y-80770000I0J150000D01*
G01*
X130637000Y-79120000D01*
G75*
G02*
X130787000Y-78970000I150000J0D01*
G01*
G37*
G36*
G01*
X129517000Y-78970000D02*
X129817000Y-78970000D01*
G75*
G02*
X129967000Y-79120000I0J-150000D01*
G01*
X129967000Y-80770000D01*
G75*
G02*
X129817000Y-80920000I-150000J0D01*
G01*
X129517000Y-80920000D01*
G75*
G02*
X129367000Y-80770000I0J150000D01*
G01*
X129367000Y-79120000D01*
G75*
G02*
X129517000Y-78970000I150000J0D01*
G01*
G37*
G36*
G01*
X128247000Y-78970000D02*
X128547000Y-78970000D01*
G75*
G02*
X128697000Y-79120000I0J-150000D01*
G01*
X128697000Y-80770000D01*
G75*
G02*
X128547000Y-80920000I-150000J0D01*
G01*
X128247000Y-80920000D01*
G75*
G02*
X128097000Y-80770000I0J150000D01*
G01*
X128097000Y-79120000D01*
G75*
G02*
X128247000Y-78970000I150000J0D01*
G01*
G37*
G36*
G01*
X126977000Y-78970000D02*
X127277000Y-78970000D01*
G75*
G02*
X127427000Y-79120000I0J-150000D01*
G01*
X127427000Y-80770000D01*
G75*
G02*
X127277000Y-80920000I-150000J0D01*
G01*
X126977000Y-80920000D01*
G75*
G02*
X126827000Y-80770000I0J150000D01*
G01*
X126827000Y-79120000D01*
G75*
G02*
X126977000Y-78970000I150000J0D01*
G01*
G37*
G36*
G01*
X125707000Y-78970000D02*
X126007000Y-78970000D01*
G75*
G02*
X126157000Y-79120000I0J-150000D01*
G01*
X126157000Y-80770000D01*
G75*
G02*
X126007000Y-80920000I-150000J0D01*
G01*
X125707000Y-80920000D01*
G75*
G02*
X125557000Y-80770000I0J150000D01*
G01*
X125557000Y-79120000D01*
G75*
G02*
X125707000Y-78970000I150000J0D01*
G01*
G37*
G36*
G01*
X125707000Y-74020000D02*
X126007000Y-74020000D01*
G75*
G02*
X126157000Y-74170000I0J-150000D01*
G01*
X126157000Y-75820000D01*
G75*
G02*
X126007000Y-75970000I-150000J0D01*
G01*
X125707000Y-75970000D01*
G75*
G02*
X125557000Y-75820000I0J150000D01*
G01*
X125557000Y-74170000D01*
G75*
G02*
X125707000Y-74020000I150000J0D01*
G01*
G37*
G36*
G01*
X126977000Y-74020000D02*
X127277000Y-74020000D01*
G75*
G02*
X127427000Y-74170000I0J-150000D01*
G01*
X127427000Y-75820000D01*
G75*
G02*
X127277000Y-75970000I-150000J0D01*
G01*
X126977000Y-75970000D01*
G75*
G02*
X126827000Y-75820000I0J150000D01*
G01*
X126827000Y-74170000D01*
G75*
G02*
X126977000Y-74020000I150000J0D01*
G01*
G37*
G36*
G01*
X128247000Y-74020000D02*
X128547000Y-74020000D01*
G75*
G02*
X128697000Y-74170000I0J-150000D01*
G01*
X128697000Y-75820000D01*
G75*
G02*
X128547000Y-75970000I-150000J0D01*
G01*
X128247000Y-75970000D01*
G75*
G02*
X128097000Y-75820000I0J150000D01*
G01*
X128097000Y-74170000D01*
G75*
G02*
X128247000Y-74020000I150000J0D01*
G01*
G37*
G36*
G01*
X129517000Y-74020000D02*
X129817000Y-74020000D01*
G75*
G02*
X129967000Y-74170000I0J-150000D01*
G01*
X129967000Y-75820000D01*
G75*
G02*
X129817000Y-75970000I-150000J0D01*
G01*
X129517000Y-75970000D01*
G75*
G02*
X129367000Y-75820000I0J150000D01*
G01*
X129367000Y-74170000D01*
G75*
G02*
X129517000Y-74020000I150000J0D01*
G01*
G37*
G36*
G01*
X130787000Y-74020000D02*
X131087000Y-74020000D01*
G75*
G02*
X131237000Y-74170000I0J-150000D01*
G01*
X131237000Y-75820000D01*
G75*
G02*
X131087000Y-75970000I-150000J0D01*
G01*
X130787000Y-75970000D01*
G75*
G02*
X130637000Y-75820000I0J150000D01*
G01*
X130637000Y-74170000D01*
G75*
G02*
X130787000Y-74020000I150000J0D01*
G01*
G37*
G36*
G01*
X132057000Y-74020000D02*
X132357000Y-74020000D01*
G75*
G02*
X132507000Y-74170000I0J-150000D01*
G01*
X132507000Y-75820000D01*
G75*
G02*
X132357000Y-75970000I-150000J0D01*
G01*
X132057000Y-75970000D01*
G75*
G02*
X131907000Y-75820000I0J150000D01*
G01*
X131907000Y-74170000D01*
G75*
G02*
X132057000Y-74020000I150000J0D01*
G01*
G37*
G36*
G01*
X133327000Y-74020000D02*
X133627000Y-74020000D01*
G75*
G02*
X133777000Y-74170000I0J-150000D01*
G01*
X133777000Y-75820000D01*
G75*
G02*
X133627000Y-75970000I-150000J0D01*
G01*
X133327000Y-75970000D01*
G75*
G02*
X133177000Y-75820000I0J150000D01*
G01*
X133177000Y-74170000D01*
G75*
G02*
X133327000Y-74020000I150000J0D01*
G01*
G37*
G36*
G01*
X134597000Y-74020000D02*
X134897000Y-74020000D01*
G75*
G02*
X135047000Y-74170000I0J-150000D01*
G01*
X135047000Y-75820000D01*
G75*
G02*
X134897000Y-75970000I-150000J0D01*
G01*
X134597000Y-75970000D01*
G75*
G02*
X134447000Y-75820000I0J150000D01*
G01*
X134447000Y-74170000D01*
G75*
G02*
X134597000Y-74020000I150000J0D01*
G01*
G37*
G36*
G01*
X113007000Y-78970000D02*
X113307000Y-78970000D01*
G75*
G02*
X113457000Y-79120000I0J-150000D01*
G01*
X113457000Y-80770000D01*
G75*
G02*
X113307000Y-80920000I-150000J0D01*
G01*
X113007000Y-80920000D01*
G75*
G02*
X112857000Y-80770000I0J150000D01*
G01*
X112857000Y-79120000D01*
G75*
G02*
X113007000Y-78970000I150000J0D01*
G01*
G37*
G36*
G01*
X111737000Y-78970000D02*
X112037000Y-78970000D01*
G75*
G02*
X112187000Y-79120000I0J-150000D01*
G01*
X112187000Y-80770000D01*
G75*
G02*
X112037000Y-80920000I-150000J0D01*
G01*
X111737000Y-80920000D01*
G75*
G02*
X111587000Y-80770000I0J150000D01*
G01*
X111587000Y-79120000D01*
G75*
G02*
X111737000Y-78970000I150000J0D01*
G01*
G37*
G36*
G01*
X110467000Y-78970000D02*
X110767000Y-78970000D01*
G75*
G02*
X110917000Y-79120000I0J-150000D01*
G01*
X110917000Y-80770000D01*
G75*
G02*
X110767000Y-80920000I-150000J0D01*
G01*
X110467000Y-80920000D01*
G75*
G02*
X110317000Y-80770000I0J150000D01*
G01*
X110317000Y-79120000D01*
G75*
G02*
X110467000Y-78970000I150000J0D01*
G01*
G37*
G36*
G01*
X109197000Y-78970000D02*
X109497000Y-78970000D01*
G75*
G02*
X109647000Y-79120000I0J-150000D01*
G01*
X109647000Y-80770000D01*
G75*
G02*
X109497000Y-80920000I-150000J0D01*
G01*
X109197000Y-80920000D01*
G75*
G02*
X109047000Y-80770000I0J150000D01*
G01*
X109047000Y-79120000D01*
G75*
G02*
X109197000Y-78970000I150000J0D01*
G01*
G37*
G36*
G01*
X109197000Y-74020000D02*
X109497000Y-74020000D01*
G75*
G02*
X109647000Y-74170000I0J-150000D01*
G01*
X109647000Y-75820000D01*
G75*
G02*
X109497000Y-75970000I-150000J0D01*
G01*
X109197000Y-75970000D01*
G75*
G02*
X109047000Y-75820000I0J150000D01*
G01*
X109047000Y-74170000D01*
G75*
G02*
X109197000Y-74020000I150000J0D01*
G01*
G37*
G36*
G01*
X110467000Y-74020000D02*
X110767000Y-74020000D01*
G75*
G02*
X110917000Y-74170000I0J-150000D01*
G01*
X110917000Y-75820000D01*
G75*
G02*
X110767000Y-75970000I-150000J0D01*
G01*
X110467000Y-75970000D01*
G75*
G02*
X110317000Y-75820000I0J150000D01*
G01*
X110317000Y-74170000D01*
G75*
G02*
X110467000Y-74020000I150000J0D01*
G01*
G37*
G36*
G01*
X111737000Y-74020000D02*
X112037000Y-74020000D01*
G75*
G02*
X112187000Y-74170000I0J-150000D01*
G01*
X112187000Y-75820000D01*
G75*
G02*
X112037000Y-75970000I-150000J0D01*
G01*
X111737000Y-75970000D01*
G75*
G02*
X111587000Y-75820000I0J150000D01*
G01*
X111587000Y-74170000D01*
G75*
G02*
X111737000Y-74020000I150000J0D01*
G01*
G37*
G36*
G01*
X113007000Y-74020000D02*
X113307000Y-74020000D01*
G75*
G02*
X113457000Y-74170000I0J-150000D01*
G01*
X113457000Y-75820000D01*
G75*
G02*
X113307000Y-75970000I-150000J0D01*
G01*
X113007000Y-75970000D01*
G75*
G02*
X112857000Y-75820000I0J150000D01*
G01*
X112857000Y-74170000D01*
G75*
G02*
X113007000Y-74020000I150000J0D01*
G01*
G37*
G36*
G01*
X119576001Y-107509000D02*
X118675999Y-107509000D01*
G75*
G02*
X118426000Y-107259001I0J249999D01*
G01*
X118426000Y-106608999D01*
G75*
G02*
X118675999Y-106359000I249999J0D01*
G01*
X119576001Y-106359000D01*
G75*
G02*
X119826000Y-106608999I0J-249999D01*
G01*
X119826000Y-107259001D01*
G75*
G02*
X119576001Y-107509000I-249999J0D01*
G01*
G37*
G36*
G01*
X119576001Y-109559000D02*
X118675999Y-109559000D01*
G75*
G02*
X118426000Y-109309001I0J249999D01*
G01*
X118426000Y-108658999D01*
G75*
G02*
X118675999Y-108409000I249999J0D01*
G01*
X119576001Y-108409000D01*
G75*
G02*
X119826000Y-108658999I0J-249999D01*
G01*
X119826000Y-109309001D01*
G75*
G02*
X119576001Y-109559000I-249999J0D01*
G01*
G37*
G36*
G01*
X119576001Y-113097000D02*
X118675999Y-113097000D01*
G75*
G02*
X118426000Y-112847001I0J249999D01*
G01*
X118426000Y-112196999D01*
G75*
G02*
X118675999Y-111947000I249999J0D01*
G01*
X119576001Y-111947000D01*
G75*
G02*
X119826000Y-112196999I0J-249999D01*
G01*
X119826000Y-112847001D01*
G75*
G02*
X119576001Y-113097000I-249999J0D01*
G01*
G37*
G36*
G01*
X119576001Y-115147000D02*
X118675999Y-115147000D01*
G75*
G02*
X118426000Y-114897001I0J249999D01*
G01*
X118426000Y-114246999D01*
G75*
G02*
X118675999Y-113997000I249999J0D01*
G01*
X119576001Y-113997000D01*
G75*
G02*
X119826000Y-114246999I0J-249999D01*
G01*
X119826000Y-114897001D01*
G75*
G02*
X119576001Y-115147000I-249999J0D01*
G01*
G37*
G36*
G01*
X133925000Y-106483999D02*
X133925000Y-107384001D01*
G75*
G02*
X133675001Y-107634000I-249999J0D01*
G01*
X133024999Y-107634000D01*
G75*
G02*
X132775000Y-107384001I0J249999D01*
G01*
X132775000Y-106483999D01*
G75*
G02*
X133024999Y-106234000I249999J0D01*
G01*
X133675001Y-106234000D01*
G75*
G02*
X133925000Y-106483999I0J-249999D01*
G01*
G37*
G36*
G01*
X135975000Y-106483999D02*
X135975000Y-107384001D01*
G75*
G02*
X135725001Y-107634000I-249999J0D01*
G01*
X135074999Y-107634000D01*
G75*
G02*
X134825000Y-107384001I0J249999D01*
G01*
X134825000Y-106483999D01*
G75*
G02*
X135074999Y-106234000I249999J0D01*
G01*
X135725001Y-106234000D01*
G75*
G02*
X135975000Y-106483999I0J-249999D01*
G01*
G37*
G36*
G01*
X133925000Y-109023999D02*
X133925000Y-109924001D01*
G75*
G02*
X133675001Y-110174000I-249999J0D01*
G01*
X133024999Y-110174000D01*
G75*
G02*
X132775000Y-109924001I0J249999D01*
G01*
X132775000Y-109023999D01*
G75*
G02*
X133024999Y-108774000I249999J0D01*
G01*
X133675001Y-108774000D01*
G75*
G02*
X133925000Y-109023999I0J-249999D01*
G01*
G37*
G36*
G01*
X135975000Y-109023999D02*
X135975000Y-109924001D01*
G75*
G02*
X135725001Y-110174000I-249999J0D01*
G01*
X135074999Y-110174000D01*
G75*
G02*
X134825000Y-109924001I0J249999D01*
G01*
X134825000Y-109023999D01*
G75*
G02*
X135074999Y-108774000I249999J0D01*
G01*
X135725001Y-108774000D01*
G75*
G02*
X135975000Y-109023999I0J-249999D01*
G01*
G37*
G36*
G01*
X122107000Y-94684001D02*
X122107000Y-93783999D01*
G75*
G02*
X122356999Y-93534000I249999J0D01*
G01*
X123007001Y-93534000D01*
G75*
G02*
X123257000Y-93783999I0J-249999D01*
G01*
X123257000Y-94684001D01*
G75*
G02*
X123007001Y-94934000I-249999J0D01*
G01*
X122356999Y-94934000D01*
G75*
G02*
X122107000Y-94684001I0J249999D01*
G01*
G37*
G36*
G01*
X120057000Y-94684001D02*
X120057000Y-93783999D01*
G75*
G02*
X120306999Y-93534000I249999J0D01*
G01*
X120957001Y-93534000D01*
G75*
G02*
X121207000Y-93783999I0J-249999D01*
G01*
X121207000Y-94684001D01*
G75*
G02*
X120957001Y-94934000I-249999J0D01*
G01*
X120306999Y-94934000D01*
G75*
G02*
X120057000Y-94684001I0J249999D01*
G01*
G37*
G36*
G01*
X122107000Y-97224001D02*
X122107000Y-96323999D01*
G75*
G02*
X122356999Y-96074000I249999J0D01*
G01*
X123007001Y-96074000D01*
G75*
G02*
X123257000Y-96323999I0J-249999D01*
G01*
X123257000Y-97224001D01*
G75*
G02*
X123007001Y-97474000I-249999J0D01*
G01*
X122356999Y-97474000D01*
G75*
G02*
X122107000Y-97224001I0J249999D01*
G01*
G37*
G36*
G01*
X120057000Y-97224001D02*
X120057000Y-96323999D01*
G75*
G02*
X120306999Y-96074000I249999J0D01*
G01*
X120957001Y-96074000D01*
G75*
G02*
X121207000Y-96323999I0J-249999D01*
G01*
X121207000Y-97224001D01*
G75*
G02*
X120957001Y-97474000I-249999J0D01*
G01*
X120306999Y-97474000D01*
G75*
G02*
X120057000Y-97224001I0J249999D01*
G01*
G37*
G36*
G01*
X124647000Y-109924001D02*
X124647000Y-109023999D01*
G75*
G02*
X124896999Y-108774000I249999J0D01*
G01*
X125547001Y-108774000D01*
G75*
G02*
X125797000Y-109023999I0J-249999D01*
G01*
X125797000Y-109924001D01*
G75*
G02*
X125547001Y-110174000I-249999J0D01*
G01*
X124896999Y-110174000D01*
G75*
G02*
X124647000Y-109924001I0J249999D01*
G01*
G37*
G36*
G01*
X122597000Y-109924001D02*
X122597000Y-109023999D01*
G75*
G02*
X122846999Y-108774000I249999J0D01*
G01*
X123497001Y-108774000D01*
G75*
G02*
X123747000Y-109023999I0J-249999D01*
G01*
X123747000Y-109924001D01*
G75*
G02*
X123497001Y-110174000I-249999J0D01*
G01*
X122846999Y-110174000D01*
G75*
G02*
X122597000Y-109924001I0J249999D01*
G01*
G37*
G36*
G01*
X121225000Y-98863999D02*
X121225000Y-99764001D01*
G75*
G02*
X120975001Y-100014000I-249999J0D01*
G01*
X120324999Y-100014000D01*
G75*
G02*
X120075000Y-99764001I0J249999D01*
G01*
X120075000Y-98863999D01*
G75*
G02*
X120324999Y-98614000I249999J0D01*
G01*
X120975001Y-98614000D01*
G75*
G02*
X121225000Y-98863999I0J-249999D01*
G01*
G37*
G36*
G01*
X123275000Y-98863999D02*
X123275000Y-99764001D01*
G75*
G02*
X123025001Y-100014000I-249999J0D01*
G01*
X122374999Y-100014000D01*
G75*
G02*
X122125000Y-99764001I0J249999D01*
G01*
X122125000Y-98863999D01*
G75*
G02*
X122374999Y-98614000I249999J0D01*
G01*
X123025001Y-98614000D01*
G75*
G02*
X123275000Y-98863999I0J-249999D01*
G01*
G37*
G36*
G01*
X122125000Y-92144001D02*
X122125000Y-91243999D01*
G75*
G02*
X122374999Y-90994000I249999J0D01*
G01*
X123025001Y-90994000D01*
G75*
G02*
X123275000Y-91243999I0J-249999D01*
G01*
X123275000Y-92144001D01*
G75*
G02*
X123025001Y-92394000I-249999J0D01*
G01*
X122374999Y-92394000D01*
G75*
G02*
X122125000Y-92144001I0J249999D01*
G01*
G37*
G36*
G01*
X120075000Y-92144001D02*
X120075000Y-91243999D01*
G75*
G02*
X120324999Y-90994000I249999J0D01*
G01*
X120975001Y-90994000D01*
G75*
G02*
X121225000Y-91243999I0J-249999D01*
G01*
X121225000Y-92144001D01*
G75*
G02*
X120975001Y-92394000I-249999J0D01*
G01*
X120324999Y-92394000D01*
G75*
G02*
X120075000Y-92144001I0J249999D01*
G01*
G37*
D10*
X97282000Y-95250000D03*
X94282000Y-96200000D03*
X94282000Y-94300000D03*
X103124000Y-95250000D03*
X100124000Y-96200000D03*
X100124000Y-94300000D03*
X124968000Y-113538000D03*
X121968000Y-114488000D03*
X121968000Y-112588000D03*
X131064000Y-113538000D03*
X128064000Y-114488000D03*
X128064000Y-112588000D03*
X137160000Y-113538000D03*
X134160000Y-114488000D03*
X134160000Y-112588000D03*
D11*
X130736000Y-108524000D03*
X130736000Y-109474000D03*
X130736000Y-110424000D03*
X127836000Y-110424000D03*
X127836000Y-109474000D03*
X127836000Y-108524000D03*
D12*
X116078000Y-109982000D03*
X116078000Y-106682000D03*
X103886000Y-75692000D03*
X103886000Y-72392000D03*
X100838000Y-72390000D03*
X100838000Y-75690000D03*
X103886000Y-80772000D03*
X103886000Y-77472000D03*
X100838000Y-77472000D03*
X100838000Y-80772000D03*
X103886000Y-85852000D03*
X103886000Y-82552000D03*
X100838000Y-82550000D03*
X100838000Y-85850000D03*
G36*
G01*
X113725000Y-101034001D02*
X113725000Y-100133999D01*
G75*
G02*
X113974999Y-99884000I249999J0D01*
G01*
X114625001Y-99884000D01*
G75*
G02*
X114875000Y-100133999I0J-249999D01*
G01*
X114875000Y-101034001D01*
G75*
G02*
X114625001Y-101284000I-249999J0D01*
G01*
X113974999Y-101284000D01*
G75*
G02*
X113725000Y-101034001I0J249999D01*
G01*
G37*
G36*
G01*
X111675000Y-101034001D02*
X111675000Y-100133999D01*
G75*
G02*
X111924999Y-99884000I249999J0D01*
G01*
X112575001Y-99884000D01*
G75*
G02*
X112825000Y-100133999I0J-249999D01*
G01*
X112825000Y-101034001D01*
G75*
G02*
X112575001Y-101284000I-249999J0D01*
G01*
X111924999Y-101284000D01*
G75*
G02*
X111675000Y-101034001I0J249999D01*
G01*
G37*
G36*
G01*
X118043000Y-90366001D02*
X118043000Y-89465999D01*
G75*
G02*
X118292999Y-89216000I249999J0D01*
G01*
X118943001Y-89216000D01*
G75*
G02*
X119193000Y-89465999I0J-249999D01*
G01*
X119193000Y-90366001D01*
G75*
G02*
X118943001Y-90616000I-249999J0D01*
G01*
X118292999Y-90616000D01*
G75*
G02*
X118043000Y-90366001I0J249999D01*
G01*
G37*
G36*
G01*
X115993000Y-90366001D02*
X115993000Y-89465999D01*
G75*
G02*
X116242999Y-89216000I249999J0D01*
G01*
X116893001Y-89216000D01*
G75*
G02*
X117143000Y-89465999I0J-249999D01*
G01*
X117143000Y-90366001D01*
G75*
G02*
X116893001Y-90616000I-249999J0D01*
G01*
X116242999Y-90616000D01*
G75*
G02*
X115993000Y-90366001I0J249999D01*
G01*
G37*
G36*
G01*
X122739999Y-75879000D02*
X123640001Y-75879000D01*
G75*
G02*
X123890000Y-76128999I0J-249999D01*
G01*
X123890000Y-76779001D01*
G75*
G02*
X123640001Y-77029000I-249999J0D01*
G01*
X122739999Y-77029000D01*
G75*
G02*
X122490000Y-76779001I0J249999D01*
G01*
X122490000Y-76128999D01*
G75*
G02*
X122739999Y-75879000I249999J0D01*
G01*
G37*
G36*
G01*
X122739999Y-73829000D02*
X123640001Y-73829000D01*
G75*
G02*
X123890000Y-74078999I0J-249999D01*
G01*
X123890000Y-74729001D01*
G75*
G02*
X123640001Y-74979000I-249999J0D01*
G01*
X122739999Y-74979000D01*
G75*
G02*
X122490000Y-74729001I0J249999D01*
G01*
X122490000Y-74078999D01*
G75*
G02*
X122739999Y-73829000I249999J0D01*
G01*
G37*
G36*
G01*
X122739999Y-79943000D02*
X123640001Y-79943000D01*
G75*
G02*
X123890000Y-80192999I0J-249999D01*
G01*
X123890000Y-80843001D01*
G75*
G02*
X123640001Y-81093000I-249999J0D01*
G01*
X122739999Y-81093000D01*
G75*
G02*
X122490000Y-80843001I0J249999D01*
G01*
X122490000Y-80192999D01*
G75*
G02*
X122739999Y-79943000I249999J0D01*
G01*
G37*
G36*
G01*
X122739999Y-77893000D02*
X123640001Y-77893000D01*
G75*
G02*
X123890000Y-78142999I0J-249999D01*
G01*
X123890000Y-78793001D01*
G75*
G02*
X123640001Y-79043000I-249999J0D01*
G01*
X122739999Y-79043000D01*
G75*
G02*
X122490000Y-78793001I0J249999D01*
G01*
X122490000Y-78142999D01*
G75*
G02*
X122739999Y-77893000I249999J0D01*
G01*
G37*
G36*
G01*
X109023999Y-71307000D02*
X109924001Y-71307000D01*
G75*
G02*
X110174000Y-71556999I0J-249999D01*
G01*
X110174000Y-72207001D01*
G75*
G02*
X109924001Y-72457000I-249999J0D01*
G01*
X109023999Y-72457000D01*
G75*
G02*
X108774000Y-72207001I0J249999D01*
G01*
X108774000Y-71556999D01*
G75*
G02*
X109023999Y-71307000I249999J0D01*
G01*
G37*
G36*
G01*
X109023999Y-69257000D02*
X109924001Y-69257000D01*
G75*
G02*
X110174000Y-69506999I0J-249999D01*
G01*
X110174000Y-70157001D01*
G75*
G02*
X109924001Y-70407000I-249999J0D01*
G01*
X109023999Y-70407000D01*
G75*
G02*
X108774000Y-70157001I0J249999D01*
G01*
X108774000Y-69506999D01*
G75*
G02*
X109023999Y-69257000I249999J0D01*
G01*
G37*
G36*
G01*
X113341999Y-84524000D02*
X114242001Y-84524000D01*
G75*
G02*
X114492000Y-84773999I0J-249999D01*
G01*
X114492000Y-85424001D01*
G75*
G02*
X114242001Y-85674000I-249999J0D01*
G01*
X113341999Y-85674000D01*
G75*
G02*
X113092000Y-85424001I0J249999D01*
G01*
X113092000Y-84773999D01*
G75*
G02*
X113341999Y-84524000I249999J0D01*
G01*
G37*
G36*
G01*
X113341999Y-82474000D02*
X114242001Y-82474000D01*
G75*
G02*
X114492000Y-82723999I0J-249999D01*
G01*
X114492000Y-83374001D01*
G75*
G02*
X114242001Y-83624000I-249999J0D01*
G01*
X113341999Y-83624000D01*
G75*
G02*
X113092000Y-83374001I0J249999D01*
G01*
X113092000Y-82723999D01*
G75*
G02*
X113341999Y-82474000I249999J0D01*
G01*
G37*
G36*
G01*
X142173000Y-109670001D02*
X142173000Y-108769999D01*
G75*
G02*
X142422999Y-108520000I249999J0D01*
G01*
X143073001Y-108520000D01*
G75*
G02*
X143323000Y-108769999I0J-249999D01*
G01*
X143323000Y-109670001D01*
G75*
G02*
X143073001Y-109920000I-249999J0D01*
G01*
X142422999Y-109920000D01*
G75*
G02*
X142173000Y-109670001I0J249999D01*
G01*
G37*
G36*
G01*
X140123000Y-109670001D02*
X140123000Y-108769999D01*
G75*
G02*
X140372999Y-108520000I249999J0D01*
G01*
X141023001Y-108520000D01*
G75*
G02*
X141273000Y-108769999I0J-249999D01*
G01*
X141273000Y-109670001D01*
G75*
G02*
X141023001Y-109920000I-249999J0D01*
G01*
X140372999Y-109920000D01*
G75*
G02*
X140123000Y-109670001I0J249999D01*
G01*
G37*
G36*
G01*
X141291000Y-113849999D02*
X141291000Y-114750001D01*
G75*
G02*
X141041001Y-115000000I-249999J0D01*
G01*
X140390999Y-115000000D01*
G75*
G02*
X140141000Y-114750001I0J249999D01*
G01*
X140141000Y-113849999D01*
G75*
G02*
X140390999Y-113600000I249999J0D01*
G01*
X141041001Y-113600000D01*
G75*
G02*
X141291000Y-113849999I0J-249999D01*
G01*
G37*
G36*
G01*
X143341000Y-113849999D02*
X143341000Y-114750001D01*
G75*
G02*
X143091001Y-115000000I-249999J0D01*
G01*
X142440999Y-115000000D01*
G75*
G02*
X142191000Y-114750001I0J249999D01*
G01*
X142191000Y-113849999D01*
G75*
G02*
X142440999Y-113600000I249999J0D01*
G01*
X143091001Y-113600000D01*
G75*
G02*
X143341000Y-113849999I0J-249999D01*
G01*
G37*
G36*
G01*
X108899000Y-95700001D02*
X108899000Y-94799999D01*
G75*
G02*
X109148999Y-94550000I249999J0D01*
G01*
X109799001Y-94550000D01*
G75*
G02*
X110049000Y-94799999I0J-249999D01*
G01*
X110049000Y-95700001D01*
G75*
G02*
X109799001Y-95950000I-249999J0D01*
G01*
X109148999Y-95950000D01*
G75*
G02*
X108899000Y-95700001I0J249999D01*
G01*
G37*
G36*
G01*
X106849000Y-95700001D02*
X106849000Y-94799999D01*
G75*
G02*
X107098999Y-94550000I249999J0D01*
G01*
X107749001Y-94550000D01*
G75*
G02*
X107999000Y-94799999I0J-249999D01*
G01*
X107999000Y-95700001D01*
G75*
G02*
X107749001Y-95950000I-249999J0D01*
G01*
X107098999Y-95950000D01*
G75*
G02*
X106849000Y-95700001I0J249999D01*
G01*
G37*
G36*
G01*
X129343999Y-84515000D02*
X130244001Y-84515000D01*
G75*
G02*
X130494000Y-84764999I0J-249999D01*
G01*
X130494000Y-85415001D01*
G75*
G02*
X130244001Y-85665000I-249999J0D01*
G01*
X129343999Y-85665000D01*
G75*
G02*
X129094000Y-85415001I0J249999D01*
G01*
X129094000Y-84764999D01*
G75*
G02*
X129343999Y-84515000I249999J0D01*
G01*
G37*
G36*
G01*
X129343999Y-82465000D02*
X130244001Y-82465000D01*
G75*
G02*
X130494000Y-82714999I0J-249999D01*
G01*
X130494000Y-83365001D01*
G75*
G02*
X130244001Y-83615000I-249999J0D01*
G01*
X129343999Y-83615000D01*
G75*
G02*
X129094000Y-83365001I0J249999D01*
G01*
X129094000Y-82714999D01*
G75*
G02*
X129343999Y-82465000I249999J0D01*
G01*
G37*
G36*
G01*
X130244001Y-70407000D02*
X129343999Y-70407000D01*
G75*
G02*
X129094000Y-70157001I0J249999D01*
G01*
X129094000Y-69506999D01*
G75*
G02*
X129343999Y-69257000I249999J0D01*
G01*
X130244001Y-69257000D01*
G75*
G02*
X130494000Y-69506999I0J-249999D01*
G01*
X130494000Y-70157001D01*
G75*
G02*
X130244001Y-70407000I-249999J0D01*
G01*
G37*
G36*
G01*
X130244001Y-72457000D02*
X129343999Y-72457000D01*
G75*
G02*
X129094000Y-72207001I0J249999D01*
G01*
X129094000Y-71556999D01*
G75*
G02*
X129343999Y-71307000I249999J0D01*
G01*
X130244001Y-71307000D01*
G75*
G02*
X130494000Y-71556999I0J-249999D01*
G01*
X130494000Y-72207001D01*
G75*
G02*
X130244001Y-72457000I-249999J0D01*
G01*
G37*
M02*
