M48
; DRILL file {KiCad 5.1.6-c6e7f7d~87~ubuntu18.04.1} date Wed Aug 19 17:04:43 2020
; FORMAT={3:3/ absolute / metric / suppress leading zeros}
; #@! TF.CreationDate,2020-08-19T17:04:43-04:00
; #@! TF.GenerationSoftware,Kicad,Pcbnew,5.1.6-c6e7f7d~87~ubuntu18.04.1
FMAT,2
METRIC,TZ
T1C0.400
T2C0.800
T3C1.000
%
G90
G05
T1
X94234Y-92964
X97282Y-93789
X97536Y-67183
X101727Y-90043
X107887Y-69723
X108141Y-86487
X109347Y-81407
X109347Y-87567
X110807Y-100521
X111062Y-96139
X111951Y-69850
X112014Y-78359
X112395Y-86297
X116459Y-71946
X118364Y-81090
X118491Y-86233
X119181Y-95686
X119317Y-99378
X120269Y-84201
X120333Y-89154
X120432Y-76545
X120523Y-70676
X121730Y-75375
X121793Y-73279
X121793Y-109474
X122682Y-100902
X124460Y-80518
X124523Y-74359
X124905Y-82106
X124905Y-111951
X125793Y-96584
X125857Y-73551
X126429Y-110744
X128333Y-69977
X128461Y-84963
X130747Y-107759
X131255Y-68390
X133985Y-69850
X133985Y-85154
X136969Y-70803
X136969Y-84011
X138303Y-109347
X139256Y-114173
X141542Y-87249
X142558Y-106871
T2
X114772Y-76545
X115067Y-97404
X116223Y-78468
X116568Y-91867
X147549Y-81305
X105410Y-106680
X105410Y-109220
X105410Y-111760
X141518Y-80518
X144018Y-80518
X111760Y-106680
X111760Y-109220
X111760Y-111760
X99060Y-106680
X99060Y-109220
X99060Y-111760
T3
X147320Y-68580
X147320Y-71120
X147320Y-73660
X147320Y-76200
X93980Y-106680
X93980Y-109220
X93980Y-111760
X93980Y-114300
X132080Y-93980
X132080Y-96520
X134620Y-93980
X134620Y-96520
X137160Y-93980
X137160Y-96520
X139700Y-93980
X139700Y-96520
X93980Y-68580
X93980Y-71120
X93980Y-73660
X93980Y-76200
X147320Y-96520
X147320Y-99060
X147320Y-101600
X147320Y-104140
X147320Y-106680
X147320Y-109220
X147320Y-111760
X147320Y-114300
T0
M30
