G04 #@! TF.GenerationSoftware,KiCad,Pcbnew,5.1.6-c6e7f7d~87~ubuntu18.04.1*
G04 #@! TF.CreationDate,2020-08-19T17:04:45-04:00*
G04 #@! TF.ProjectId,late_MS20_VCF_plug_in_board,6c617465-5f4d-4533-9230-5f5643465f70,0*
G04 #@! TF.SameCoordinates,Original*
G04 #@! TF.FileFunction,Legend,Top*
G04 #@! TF.FilePolarity,Positive*
%FSLAX46Y46*%
G04 Gerber Fmt 4.6, Leading zero omitted, Abs format (unit mm)*
G04 Created by KiCad (PCBNEW 5.1.6-c6e7f7d~87~ubuntu18.04.1) date 2020-08-19 17:04:45*
%MOMM*%
%LPD*%
G01*
G04 APERTURE LIST*
%ADD10C,0.120000*%
%ADD11C,0.150000*%
%ADD12C,0.125000*%
%ADD13C,0.127000*%
G04 APERTURE END LIST*
D10*
X130810000Y-90170000D02*
X130175000Y-90805000D01*
X130810000Y-90170000D02*
X130175000Y-89535000D01*
X129540000Y-90170000D02*
X130810000Y-90170000D01*
X133350000Y-100330000D02*
X132715000Y-100965000D01*
X133350000Y-100330000D02*
X132715000Y-99695000D01*
X130175000Y-100330000D02*
X133350000Y-100330000D01*
X136525000Y-99187000D02*
G75*
G02*
X137795000Y-99187000I635000J0D01*
G01*
X136525000Y-101727000D02*
X136525000Y-99187000D01*
X137795000Y-101727000D02*
X137795000Y-99187000D01*
X137795000Y-101727000D02*
G75*
G02*
X136525000Y-101727000I-635000J0D01*
G01*
X133985000Y-99187000D02*
G75*
G02*
X135255000Y-99187000I635000J0D01*
G01*
X133985000Y-101727000D02*
X133985000Y-99187000D01*
X135255000Y-101727000D02*
X135255000Y-99187000D01*
X135255000Y-101727000D02*
G75*
G02*
X133985000Y-101727000I-635000J0D01*
G01*
X139065000Y-88773000D02*
G75*
G02*
X140335000Y-88773000I635000J0D01*
G01*
X139065000Y-91313000D02*
X139065000Y-88773000D01*
X140335000Y-91313000D02*
X140335000Y-88773000D01*
X140335000Y-91313000D02*
G75*
G02*
X139065000Y-91313000I-635000J0D01*
G01*
X132715000Y-91313000D02*
X132715000Y-88773000D01*
X132715000Y-91313000D02*
G75*
G02*
X131445000Y-91313000I-635000J0D01*
G01*
X131445000Y-88773000D02*
G75*
G02*
X132715000Y-88773000I635000J0D01*
G01*
X131445000Y-91313000D02*
X131445000Y-88773000D01*
D11*
X127936666Y-90622380D02*
X127841428Y-90574761D01*
X127793809Y-90479523D01*
X127793809Y-89622380D01*
X128317619Y-89955714D02*
X128317619Y-90955714D01*
X128317619Y-90003333D02*
X128412857Y-89955714D01*
X128603333Y-89955714D01*
X128698571Y-90003333D01*
X128746190Y-90050952D01*
X128793809Y-90146190D01*
X128793809Y-90431904D01*
X128746190Y-90527142D01*
X128698571Y-90574761D01*
X128603333Y-90622380D01*
X128412857Y-90622380D01*
X128317619Y-90574761D01*
X128238333Y-100782380D02*
X128238333Y-99782380D01*
X128666904Y-100782380D02*
X128666904Y-100258571D01*
X128619285Y-100163333D01*
X128524047Y-100115714D01*
X128381190Y-100115714D01*
X128285952Y-100163333D01*
X128238333Y-100210952D01*
X129143095Y-100115714D02*
X129143095Y-101115714D01*
X129143095Y-100163333D02*
X129238333Y-100115714D01*
X129428809Y-100115714D01*
X129524047Y-100163333D01*
X129571666Y-100210952D01*
X129619285Y-100306190D01*
X129619285Y-100591904D01*
X129571666Y-100687142D01*
X129524047Y-100734761D01*
X129428809Y-100782380D01*
X129238333Y-100782380D01*
X129143095Y-100734761D01*
X97655238Y-116022380D02*
X97655238Y-115022380D01*
X97655238Y-115974761D02*
X97560000Y-116022380D01*
X97369523Y-116022380D01*
X97274285Y-115974761D01*
X97226666Y-115927142D01*
X97179047Y-115831904D01*
X97179047Y-115546190D01*
X97226666Y-115450952D01*
X97274285Y-115403333D01*
X97369523Y-115355714D01*
X97560000Y-115355714D01*
X97655238Y-115403333D01*
X98512380Y-115974761D02*
X98417142Y-116022380D01*
X98226666Y-116022380D01*
X98131428Y-115974761D01*
X98083809Y-115879523D01*
X98083809Y-115498571D01*
X98131428Y-115403333D01*
X98226666Y-115355714D01*
X98417142Y-115355714D01*
X98512380Y-115403333D01*
X98560000Y-115498571D01*
X98560000Y-115593809D01*
X98083809Y-115689047D01*
X98988571Y-115355714D02*
X98988571Y-116355714D01*
X98988571Y-115403333D02*
X99083809Y-115355714D01*
X99274285Y-115355714D01*
X99369523Y-115403333D01*
X99417142Y-115450952D01*
X99464761Y-115546190D01*
X99464761Y-115831904D01*
X99417142Y-115927142D01*
X99369523Y-115974761D01*
X99274285Y-116022380D01*
X99083809Y-116022380D01*
X98988571Y-115974761D01*
X99750476Y-115355714D02*
X100131428Y-115355714D01*
X99893333Y-115022380D02*
X99893333Y-115879523D01*
X99940952Y-115974761D01*
X100036190Y-116022380D01*
X100131428Y-116022380D01*
X100464761Y-116022380D02*
X100464761Y-115022380D01*
X100893333Y-116022380D02*
X100893333Y-115498571D01*
X100845714Y-115403333D01*
X100750476Y-115355714D01*
X100607619Y-115355714D01*
X100512380Y-115403333D01*
X100464761Y-115450952D01*
X103743333Y-115974761D02*
X103648095Y-116022380D01*
X103457619Y-116022380D01*
X103362380Y-115974761D01*
X103314761Y-115927142D01*
X103267142Y-115831904D01*
X103267142Y-115546190D01*
X103314761Y-115450952D01*
X103362380Y-115403333D01*
X103457619Y-115355714D01*
X103648095Y-115355714D01*
X103743333Y-115403333D01*
X104552857Y-115974761D02*
X104457619Y-116022380D01*
X104267142Y-116022380D01*
X104171904Y-115974761D01*
X104124285Y-115879523D01*
X104124285Y-115498571D01*
X104171904Y-115403333D01*
X104267142Y-115355714D01*
X104457619Y-115355714D01*
X104552857Y-115403333D01*
X104600476Y-115498571D01*
X104600476Y-115593809D01*
X104124285Y-115689047D01*
X105029047Y-115355714D02*
X105029047Y-116022380D01*
X105029047Y-115450952D02*
X105076666Y-115403333D01*
X105171904Y-115355714D01*
X105314761Y-115355714D01*
X105410000Y-115403333D01*
X105457619Y-115498571D01*
X105457619Y-116022380D01*
X105790952Y-115355714D02*
X106171904Y-115355714D01*
X105933809Y-115022380D02*
X105933809Y-115879523D01*
X105981428Y-115974761D01*
X106076666Y-116022380D01*
X106171904Y-116022380D01*
X106886190Y-115974761D02*
X106790952Y-116022380D01*
X106600476Y-116022380D01*
X106505238Y-115974761D01*
X106457619Y-115879523D01*
X106457619Y-115498571D01*
X106505238Y-115403333D01*
X106600476Y-115355714D01*
X106790952Y-115355714D01*
X106886190Y-115403333D01*
X106933809Y-115498571D01*
X106933809Y-115593809D01*
X106457619Y-115689047D01*
X107362380Y-116022380D02*
X107362380Y-115355714D01*
X107362380Y-115546190D02*
X107410000Y-115450952D01*
X107457619Y-115403333D01*
X107552857Y-115355714D01*
X107648095Y-115355714D01*
X108521904Y-115355714D02*
X108902857Y-115355714D01*
X108664761Y-116022380D02*
X108664761Y-115165238D01*
X108712380Y-115070000D01*
X108807619Y-115022380D01*
X108902857Y-115022380D01*
X109617142Y-115974761D02*
X109521904Y-116022380D01*
X109331428Y-116022380D01*
X109236190Y-115974761D01*
X109188571Y-115879523D01*
X109188571Y-115498571D01*
X109236190Y-115403333D01*
X109331428Y-115355714D01*
X109521904Y-115355714D01*
X109617142Y-115403333D01*
X109664761Y-115498571D01*
X109664761Y-115593809D01*
X109188571Y-115689047D01*
X110474285Y-115974761D02*
X110379047Y-116022380D01*
X110188571Y-116022380D01*
X110093333Y-115974761D01*
X110045714Y-115879523D01*
X110045714Y-115498571D01*
X110093333Y-115403333D01*
X110188571Y-115355714D01*
X110379047Y-115355714D01*
X110474285Y-115403333D01*
X110521904Y-115498571D01*
X110521904Y-115593809D01*
X110045714Y-115689047D01*
X111379047Y-116022380D02*
X111379047Y-115022380D01*
X111379047Y-115974761D02*
X111283809Y-116022380D01*
X111093333Y-116022380D01*
X110998095Y-115974761D01*
X110950476Y-115927142D01*
X110902857Y-115831904D01*
X110902857Y-115546190D01*
X110950476Y-115450952D01*
X110998095Y-115403333D01*
X111093333Y-115355714D01*
X111283809Y-115355714D01*
X111379047Y-115403333D01*
X111855238Y-116022380D02*
X111855238Y-115022380D01*
X111855238Y-115403333D02*
X111950476Y-115355714D01*
X112140952Y-115355714D01*
X112236190Y-115403333D01*
X112283809Y-115450952D01*
X112331428Y-115546190D01*
X112331428Y-115831904D01*
X112283809Y-115927142D01*
X112236190Y-115974761D01*
X112140952Y-116022380D01*
X111950476Y-116022380D01*
X111855238Y-115974761D01*
X113188571Y-116022380D02*
X113188571Y-115498571D01*
X113140952Y-115403333D01*
X113045714Y-115355714D01*
X112855238Y-115355714D01*
X112760000Y-115403333D01*
X113188571Y-115974761D02*
X113093333Y-116022380D01*
X112855238Y-116022380D01*
X112760000Y-115974761D01*
X112712380Y-115879523D01*
X112712380Y-115784285D01*
X112760000Y-115689047D01*
X112855238Y-115641428D01*
X113093333Y-115641428D01*
X113188571Y-115593809D01*
X114093333Y-115974761D02*
X113998095Y-116022380D01*
X113807619Y-116022380D01*
X113712380Y-115974761D01*
X113664761Y-115927142D01*
X113617142Y-115831904D01*
X113617142Y-115546190D01*
X113664761Y-115450952D01*
X113712380Y-115403333D01*
X113807619Y-115355714D01*
X113998095Y-115355714D01*
X114093333Y-115403333D01*
X114521904Y-116022380D02*
X114521904Y-115022380D01*
X114617142Y-115641428D02*
X114902857Y-116022380D01*
X114902857Y-115355714D02*
X114521904Y-115736666D01*
D10*
X108728252Y-93420000D02*
X108205748Y-93420000D01*
X108728252Y-92000000D02*
X108205748Y-92000000D01*
X108719252Y-98500000D02*
X108196748Y-98500000D01*
X108719252Y-97080000D02*
X108196748Y-97080000D01*
X99366000Y-91456252D02*
X99366000Y-90933748D01*
X100786000Y-91456252D02*
X100786000Y-90933748D01*
X101075748Y-98096000D02*
X101598252Y-98096000D01*
X101075748Y-99516000D02*
X101598252Y-99516000D01*
X101075748Y-100636000D02*
X101598252Y-100636000D01*
X101075748Y-102056000D02*
X101598252Y-102056000D01*
X120702000Y-84344252D02*
X120702000Y-83821748D01*
X122122000Y-84344252D02*
X122122000Y-83821748D01*
X137466000Y-84344252D02*
X137466000Y-83821748D01*
X138886000Y-84344252D02*
X138886000Y-83821748D01*
X136092000Y-83812748D02*
X136092000Y-84335252D01*
X134672000Y-83812748D02*
X134672000Y-84335252D01*
X126290000Y-84326252D02*
X126290000Y-83803748D01*
X127710000Y-84326252D02*
X127710000Y-83803748D01*
X108914000Y-83803748D02*
X108914000Y-84326252D01*
X107494000Y-83803748D02*
X107494000Y-84326252D01*
X133298000Y-83803748D02*
X133298000Y-84326252D01*
X131878000Y-83803748D02*
X131878000Y-84326252D01*
X123496000Y-84344252D02*
X123496000Y-83821748D01*
X124916000Y-84344252D02*
X124916000Y-83821748D01*
X111708000Y-83821748D02*
X111708000Y-84344252D01*
X110288000Y-83821748D02*
X110288000Y-84344252D01*
X122122000Y-70595748D02*
X122122000Y-71118252D01*
X120702000Y-70595748D02*
X120702000Y-71118252D01*
X138886000Y-70595748D02*
X138886000Y-71118252D01*
X137466000Y-70595748D02*
X137466000Y-71118252D01*
X134672000Y-71118252D02*
X134672000Y-70595748D01*
X136092000Y-71118252D02*
X136092000Y-70595748D01*
X123496000Y-71136252D02*
X123496000Y-70613748D01*
X124916000Y-71136252D02*
X124916000Y-70613748D01*
X131878000Y-71118252D02*
X131878000Y-70595748D01*
X133298000Y-71118252D02*
X133298000Y-70595748D01*
X126290000Y-71136252D02*
X126290000Y-70613748D01*
X127710000Y-71136252D02*
X127710000Y-70613748D01*
X115062000Y-98064000D02*
X117012000Y-98064000D01*
X115062000Y-98064000D02*
X113112000Y-98064000D01*
X115062000Y-92944000D02*
X117012000Y-92944000D01*
X115062000Y-92944000D02*
X111612000Y-92944000D01*
X125242000Y-77470000D02*
X125242000Y-79420000D01*
X125242000Y-77470000D02*
X125242000Y-75520000D01*
X135362000Y-77470000D02*
X135362000Y-79420000D01*
X135362000Y-77470000D02*
X135362000Y-74020000D01*
X108692000Y-77470000D02*
X108692000Y-79420000D01*
X108692000Y-77470000D02*
X108692000Y-75520000D01*
X113812000Y-77470000D02*
X113812000Y-79420000D01*
X113812000Y-77470000D02*
X113812000Y-74020000D01*
X114290000Y-104335000D02*
X114290000Y-114105000D01*
X109220000Y-104335000D02*
X109220000Y-114105000D01*
X114290000Y-104335000D02*
X109220000Y-104335000D01*
X114290000Y-114105000D02*
X109220000Y-114105000D01*
X107940000Y-104335000D02*
X107940000Y-114105000D01*
X102870000Y-104335000D02*
X102870000Y-114105000D01*
X107940000Y-104335000D02*
X102870000Y-104335000D01*
X107940000Y-114105000D02*
X102870000Y-114105000D01*
X101590000Y-104335000D02*
X101590000Y-114105000D01*
X96520000Y-104335000D02*
X96520000Y-114105000D01*
X101590000Y-104335000D02*
X96520000Y-104335000D01*
X101590000Y-114105000D02*
X96520000Y-114105000D01*
X118416000Y-108220252D02*
X118416000Y-107697748D01*
X119836000Y-108220252D02*
X119836000Y-107697748D01*
X118416000Y-113808252D02*
X118416000Y-113285748D01*
X119836000Y-113808252D02*
X119836000Y-113285748D01*
X134636252Y-107644000D02*
X134113748Y-107644000D01*
X134636252Y-106224000D02*
X134113748Y-106224000D01*
X134636252Y-110184000D02*
X134113748Y-110184000D01*
X134636252Y-108764000D02*
X134113748Y-108764000D01*
X121395748Y-93524000D02*
X121918252Y-93524000D01*
X121395748Y-94944000D02*
X121918252Y-94944000D01*
X121395748Y-96064000D02*
X121918252Y-96064000D01*
X121395748Y-97484000D02*
X121918252Y-97484000D01*
X123935748Y-108764000D02*
X124458252Y-108764000D01*
X123935748Y-110184000D02*
X124458252Y-110184000D01*
X121936252Y-100024000D02*
X121413748Y-100024000D01*
X121936252Y-98604000D02*
X121413748Y-98604000D01*
X121413748Y-90984000D02*
X121936252Y-90984000D01*
X121413748Y-92404000D02*
X121936252Y-92404000D01*
X96542000Y-96830000D02*
X96542000Y-95900000D01*
X96542000Y-93670000D02*
X96542000Y-94600000D01*
X96542000Y-93670000D02*
X93382000Y-93670000D01*
X96542000Y-96830000D02*
X95082000Y-96830000D01*
X102384000Y-96830000D02*
X102384000Y-95900000D01*
X102384000Y-93670000D02*
X102384000Y-94600000D01*
X102384000Y-93670000D02*
X99224000Y-93670000D01*
X102384000Y-96830000D02*
X100924000Y-96830000D01*
X124228000Y-115118000D02*
X124228000Y-114188000D01*
X124228000Y-111958000D02*
X124228000Y-112888000D01*
X124228000Y-111958000D02*
X121068000Y-111958000D01*
X124228000Y-115118000D02*
X122768000Y-115118000D01*
X130324000Y-115118000D02*
X130324000Y-114188000D01*
X130324000Y-111958000D02*
X130324000Y-112888000D01*
X130324000Y-111958000D02*
X127164000Y-111958000D01*
X130324000Y-115118000D02*
X128864000Y-115118000D01*
X136420000Y-115118000D02*
X136420000Y-114188000D01*
X136420000Y-111958000D02*
X136420000Y-112888000D01*
X136420000Y-111958000D02*
X133260000Y-111958000D01*
X136420000Y-115118000D02*
X134960000Y-115118000D01*
D12*
X128886000Y-108324000D02*
G75*
G03*
X128886000Y-108324000I-50000J0D01*
G01*
X130036000Y-108024000D02*
X130036000Y-110924000D01*
X130036000Y-110924000D02*
X128536000Y-110924000D01*
X128536000Y-110924000D02*
X128536000Y-108024000D01*
X128536000Y-108024000D02*
X130036000Y-108024000D01*
D10*
X141030000Y-97850000D02*
X141030000Y-92650000D01*
X133350000Y-97850000D02*
X141030000Y-97850000D01*
X130750000Y-92650000D02*
X141030000Y-92650000D01*
X133350000Y-97850000D02*
X133350000Y-95250000D01*
X133350000Y-95250000D02*
X130750000Y-95250000D01*
X130750000Y-95250000D02*
X130750000Y-92650000D01*
X132080000Y-97850000D02*
X130750000Y-97850000D01*
X130750000Y-97850000D02*
X130750000Y-96520000D01*
X117078000Y-106082000D02*
X115078000Y-106082000D01*
X115078000Y-106082000D02*
X115078000Y-109982000D01*
X117078000Y-106082000D02*
X117078000Y-109982000D01*
X104886000Y-71792000D02*
X102886000Y-71792000D01*
X102886000Y-71792000D02*
X102886000Y-75692000D01*
X104886000Y-71792000D02*
X104886000Y-75692000D01*
X99838000Y-76290000D02*
X101838000Y-76290000D01*
X101838000Y-76290000D02*
X101838000Y-72390000D01*
X99838000Y-76290000D02*
X99838000Y-72390000D01*
X104886000Y-76872000D02*
X102886000Y-76872000D01*
X102886000Y-76872000D02*
X102886000Y-80772000D01*
X104886000Y-76872000D02*
X104886000Y-80772000D01*
X99838000Y-81372000D02*
X101838000Y-81372000D01*
X101838000Y-81372000D02*
X101838000Y-77472000D01*
X99838000Y-81372000D02*
X99838000Y-77472000D01*
X104886000Y-81952000D02*
X102886000Y-81952000D01*
X102886000Y-81952000D02*
X102886000Y-85852000D01*
X104886000Y-81952000D02*
X104886000Y-85852000D01*
X99838000Y-86450000D02*
X101838000Y-86450000D01*
X101838000Y-86450000D02*
X101838000Y-82550000D01*
X99838000Y-86450000D02*
X99838000Y-82550000D01*
X113013748Y-99874000D02*
X113536252Y-99874000D01*
X113013748Y-101294000D02*
X113536252Y-101294000D01*
X117331748Y-89206000D02*
X117854252Y-89206000D01*
X117331748Y-90626000D02*
X117854252Y-90626000D01*
X123900000Y-75167748D02*
X123900000Y-75690252D01*
X122480000Y-75167748D02*
X122480000Y-75690252D01*
X123900000Y-79231748D02*
X123900000Y-79754252D01*
X122480000Y-79231748D02*
X122480000Y-79754252D01*
X110184000Y-70595748D02*
X110184000Y-71118252D01*
X108764000Y-70595748D02*
X108764000Y-71118252D01*
X114502000Y-83812748D02*
X114502000Y-84335252D01*
X113082000Y-83812748D02*
X113082000Y-84335252D01*
X141461748Y-108510000D02*
X141984252Y-108510000D01*
X141461748Y-109930000D02*
X141984252Y-109930000D01*
X142002252Y-115010000D02*
X141479748Y-115010000D01*
X142002252Y-113590000D02*
X141479748Y-113590000D01*
X108187748Y-94540000D02*
X108710252Y-94540000D01*
X108187748Y-95960000D02*
X108710252Y-95960000D01*
X146038000Y-80518000D02*
G75*
G03*
X146038000Y-80518000I-3270000J0D01*
G01*
X130504000Y-83803748D02*
X130504000Y-84326252D01*
X129084000Y-83803748D02*
X129084000Y-84326252D01*
X129084000Y-71118252D02*
X129084000Y-70595748D01*
X130504000Y-71118252D02*
X130504000Y-70595748D01*
D11*
X104513142Y-93162380D02*
X104179809Y-92686190D01*
X103941714Y-93162380D02*
X103941714Y-92162380D01*
X104322666Y-92162380D01*
X104417904Y-92210000D01*
X104465523Y-92257619D01*
X104513142Y-92352857D01*
X104513142Y-92495714D01*
X104465523Y-92590952D01*
X104417904Y-92638571D01*
X104322666Y-92686190D01*
X103941714Y-92686190D01*
X104894095Y-92257619D02*
X104941714Y-92210000D01*
X105036952Y-92162380D01*
X105275047Y-92162380D01*
X105370285Y-92210000D01*
X105417904Y-92257619D01*
X105465523Y-92352857D01*
X105465523Y-92448095D01*
X105417904Y-92590952D01*
X104846476Y-93162380D01*
X105465523Y-93162380D01*
X106036952Y-92590952D02*
X105941714Y-92543333D01*
X105894095Y-92495714D01*
X105846476Y-92400476D01*
X105846476Y-92352857D01*
X105894095Y-92257619D01*
X105941714Y-92210000D01*
X106036952Y-92162380D01*
X106227428Y-92162380D01*
X106322666Y-92210000D01*
X106370285Y-92257619D01*
X106417904Y-92352857D01*
X106417904Y-92400476D01*
X106370285Y-92495714D01*
X106322666Y-92543333D01*
X106227428Y-92590952D01*
X106036952Y-92590952D01*
X105941714Y-92638571D01*
X105894095Y-92686190D01*
X105846476Y-92781428D01*
X105846476Y-92971904D01*
X105894095Y-93067142D01*
X105941714Y-93114761D01*
X106036952Y-93162380D01*
X106227428Y-93162380D01*
X106322666Y-93114761D01*
X106370285Y-93067142D01*
X106417904Y-92971904D01*
X106417904Y-92781428D01*
X106370285Y-92686190D01*
X106322666Y-92638571D01*
X106227428Y-92590952D01*
X104513142Y-98242380D02*
X104179809Y-97766190D01*
X103941714Y-98242380D02*
X103941714Y-97242380D01*
X104322666Y-97242380D01*
X104417904Y-97290000D01*
X104465523Y-97337619D01*
X104513142Y-97432857D01*
X104513142Y-97575714D01*
X104465523Y-97670952D01*
X104417904Y-97718571D01*
X104322666Y-97766190D01*
X103941714Y-97766190D01*
X104894095Y-97337619D02*
X104941714Y-97290000D01*
X105036952Y-97242380D01*
X105275047Y-97242380D01*
X105370285Y-97290000D01*
X105417904Y-97337619D01*
X105465523Y-97432857D01*
X105465523Y-97528095D01*
X105417904Y-97670952D01*
X104846476Y-98242380D01*
X105465523Y-98242380D01*
X105798857Y-97242380D02*
X106465523Y-97242380D01*
X106036952Y-98242380D01*
X99433142Y-89098380D02*
X99099809Y-88622190D01*
X98861714Y-89098380D02*
X98861714Y-88098380D01*
X99242666Y-88098380D01*
X99337904Y-88146000D01*
X99385523Y-88193619D01*
X99433142Y-88288857D01*
X99433142Y-88431714D01*
X99385523Y-88526952D01*
X99337904Y-88574571D01*
X99242666Y-88622190D01*
X98861714Y-88622190D01*
X99814095Y-88193619D02*
X99861714Y-88146000D01*
X99956952Y-88098380D01*
X100195047Y-88098380D01*
X100290285Y-88146000D01*
X100337904Y-88193619D01*
X100385523Y-88288857D01*
X100385523Y-88384095D01*
X100337904Y-88526952D01*
X99766476Y-89098380D01*
X100385523Y-89098380D01*
X101242666Y-88098380D02*
X101052190Y-88098380D01*
X100956952Y-88146000D01*
X100909333Y-88193619D01*
X100814095Y-88336476D01*
X100766476Y-88526952D01*
X100766476Y-88907904D01*
X100814095Y-89003142D01*
X100861714Y-89050761D01*
X100956952Y-89098380D01*
X101147428Y-89098380D01*
X101242666Y-89050761D01*
X101290285Y-89003142D01*
X101337904Y-88907904D01*
X101337904Y-88669809D01*
X101290285Y-88574571D01*
X101242666Y-88526952D01*
X101147428Y-88479333D01*
X100956952Y-88479333D01*
X100861714Y-88526952D01*
X100814095Y-88574571D01*
X100766476Y-88669809D01*
X97401142Y-99258380D02*
X97067809Y-98782190D01*
X96829714Y-99258380D02*
X96829714Y-98258380D01*
X97210666Y-98258380D01*
X97305904Y-98306000D01*
X97353523Y-98353619D01*
X97401142Y-98448857D01*
X97401142Y-98591714D01*
X97353523Y-98686952D01*
X97305904Y-98734571D01*
X97210666Y-98782190D01*
X96829714Y-98782190D01*
X97782095Y-98353619D02*
X97829714Y-98306000D01*
X97924952Y-98258380D01*
X98163047Y-98258380D01*
X98258285Y-98306000D01*
X98305904Y-98353619D01*
X98353523Y-98448857D01*
X98353523Y-98544095D01*
X98305904Y-98686952D01*
X97734476Y-99258380D01*
X98353523Y-99258380D01*
X99258285Y-98258380D02*
X98782095Y-98258380D01*
X98734476Y-98734571D01*
X98782095Y-98686952D01*
X98877333Y-98639333D01*
X99115428Y-98639333D01*
X99210666Y-98686952D01*
X99258285Y-98734571D01*
X99305904Y-98829809D01*
X99305904Y-99067904D01*
X99258285Y-99163142D01*
X99210666Y-99210761D01*
X99115428Y-99258380D01*
X98877333Y-99258380D01*
X98782095Y-99210761D01*
X98734476Y-99163142D01*
X97401142Y-101798380D02*
X97067809Y-101322190D01*
X96829714Y-101798380D02*
X96829714Y-100798380D01*
X97210666Y-100798380D01*
X97305904Y-100846000D01*
X97353523Y-100893619D01*
X97401142Y-100988857D01*
X97401142Y-101131714D01*
X97353523Y-101226952D01*
X97305904Y-101274571D01*
X97210666Y-101322190D01*
X96829714Y-101322190D01*
X97782095Y-100893619D02*
X97829714Y-100846000D01*
X97924952Y-100798380D01*
X98163047Y-100798380D01*
X98258285Y-100846000D01*
X98305904Y-100893619D01*
X98353523Y-100988857D01*
X98353523Y-101084095D01*
X98305904Y-101226952D01*
X97734476Y-101798380D01*
X98353523Y-101798380D01*
X99210666Y-101131714D02*
X99210666Y-101798380D01*
X98972571Y-100750761D02*
X98734476Y-101465047D01*
X99353523Y-101465047D01*
X120769142Y-87066380D02*
X120435809Y-86590190D01*
X120197714Y-87066380D02*
X120197714Y-86066380D01*
X120578666Y-86066380D01*
X120673904Y-86114000D01*
X120721523Y-86161619D01*
X120769142Y-86256857D01*
X120769142Y-86399714D01*
X120721523Y-86494952D01*
X120673904Y-86542571D01*
X120578666Y-86590190D01*
X120197714Y-86590190D01*
X121721523Y-87066380D02*
X121150095Y-87066380D01*
X121435809Y-87066380D02*
X121435809Y-86066380D01*
X121340571Y-86209238D01*
X121245333Y-86304476D01*
X121150095Y-86352095D01*
X122578666Y-86399714D02*
X122578666Y-87066380D01*
X122340571Y-86018761D02*
X122102476Y-86733047D01*
X122721523Y-86733047D01*
X137533142Y-87066380D02*
X137199809Y-86590190D01*
X136961714Y-87066380D02*
X136961714Y-86066380D01*
X137342666Y-86066380D01*
X137437904Y-86114000D01*
X137485523Y-86161619D01*
X137533142Y-86256857D01*
X137533142Y-86399714D01*
X137485523Y-86494952D01*
X137437904Y-86542571D01*
X137342666Y-86590190D01*
X136961714Y-86590190D01*
X138485523Y-87066380D02*
X137914095Y-87066380D01*
X138199809Y-87066380D02*
X138199809Y-86066380D01*
X138104571Y-86209238D01*
X138009333Y-86304476D01*
X137914095Y-86352095D01*
X138818857Y-86066380D02*
X139437904Y-86066380D01*
X139104571Y-86447333D01*
X139247428Y-86447333D01*
X139342666Y-86494952D01*
X139390285Y-86542571D01*
X139437904Y-86637809D01*
X139437904Y-86875904D01*
X139390285Y-86971142D01*
X139342666Y-87018761D01*
X139247428Y-87066380D01*
X138961714Y-87066380D01*
X138866476Y-87018761D01*
X138818857Y-86971142D01*
X134739142Y-87066380D02*
X134405809Y-86590190D01*
X134167714Y-87066380D02*
X134167714Y-86066380D01*
X134548666Y-86066380D01*
X134643904Y-86114000D01*
X134691523Y-86161619D01*
X134739142Y-86256857D01*
X134739142Y-86399714D01*
X134691523Y-86494952D01*
X134643904Y-86542571D01*
X134548666Y-86590190D01*
X134167714Y-86590190D01*
X135691523Y-87066380D02*
X135120095Y-87066380D01*
X135405809Y-87066380D02*
X135405809Y-86066380D01*
X135310571Y-86209238D01*
X135215333Y-86304476D01*
X135120095Y-86352095D01*
X136072476Y-86161619D02*
X136120095Y-86114000D01*
X136215333Y-86066380D01*
X136453428Y-86066380D01*
X136548666Y-86114000D01*
X136596285Y-86161619D01*
X136643904Y-86256857D01*
X136643904Y-86352095D01*
X136596285Y-86494952D01*
X136024857Y-87066380D01*
X136643904Y-87066380D01*
X126357142Y-87066380D02*
X126023809Y-86590190D01*
X125785714Y-87066380D02*
X125785714Y-86066380D01*
X126166666Y-86066380D01*
X126261904Y-86114000D01*
X126309523Y-86161619D01*
X126357142Y-86256857D01*
X126357142Y-86399714D01*
X126309523Y-86494952D01*
X126261904Y-86542571D01*
X126166666Y-86590190D01*
X125785714Y-86590190D01*
X127309523Y-87066380D02*
X126738095Y-87066380D01*
X127023809Y-87066380D02*
X127023809Y-86066380D01*
X126928571Y-86209238D01*
X126833333Y-86304476D01*
X126738095Y-86352095D01*
X128261904Y-87066380D02*
X127690476Y-87066380D01*
X127976190Y-87066380D02*
X127976190Y-86066380D01*
X127880952Y-86209238D01*
X127785714Y-86304476D01*
X127690476Y-86352095D01*
X107561142Y-87066380D02*
X107227809Y-86590190D01*
X106989714Y-87066380D02*
X106989714Y-86066380D01*
X107370666Y-86066380D01*
X107465904Y-86114000D01*
X107513523Y-86161619D01*
X107561142Y-86256857D01*
X107561142Y-86399714D01*
X107513523Y-86494952D01*
X107465904Y-86542571D01*
X107370666Y-86590190D01*
X106989714Y-86590190D01*
X108513523Y-87066380D02*
X107942095Y-87066380D01*
X108227809Y-87066380D02*
X108227809Y-86066380D01*
X108132571Y-86209238D01*
X108037333Y-86304476D01*
X107942095Y-86352095D01*
X109132571Y-86066380D02*
X109227809Y-86066380D01*
X109323047Y-86114000D01*
X109370666Y-86161619D01*
X109418285Y-86256857D01*
X109465904Y-86447333D01*
X109465904Y-86685428D01*
X109418285Y-86875904D01*
X109370666Y-86971142D01*
X109323047Y-87018761D01*
X109227809Y-87066380D01*
X109132571Y-87066380D01*
X109037333Y-87018761D01*
X108989714Y-86971142D01*
X108942095Y-86875904D01*
X108894476Y-86685428D01*
X108894476Y-86447333D01*
X108942095Y-86256857D01*
X108989714Y-86161619D01*
X109037333Y-86114000D01*
X109132571Y-86066380D01*
X132421333Y-87066380D02*
X132088000Y-86590190D01*
X131849904Y-87066380D02*
X131849904Y-86066380D01*
X132230857Y-86066380D01*
X132326095Y-86114000D01*
X132373714Y-86161619D01*
X132421333Y-86256857D01*
X132421333Y-86399714D01*
X132373714Y-86494952D01*
X132326095Y-86542571D01*
X132230857Y-86590190D01*
X131849904Y-86590190D01*
X132897523Y-87066380D02*
X133088000Y-87066380D01*
X133183238Y-87018761D01*
X133230857Y-86971142D01*
X133326095Y-86828285D01*
X133373714Y-86637809D01*
X133373714Y-86256857D01*
X133326095Y-86161619D01*
X133278476Y-86114000D01*
X133183238Y-86066380D01*
X132992761Y-86066380D01*
X132897523Y-86114000D01*
X132849904Y-86161619D01*
X132802285Y-86256857D01*
X132802285Y-86494952D01*
X132849904Y-86590190D01*
X132897523Y-86637809D01*
X132992761Y-86685428D01*
X133183238Y-86685428D01*
X133278476Y-86637809D01*
X133326095Y-86590190D01*
X133373714Y-86494952D01*
X124039333Y-87066380D02*
X123706000Y-86590190D01*
X123467904Y-87066380D02*
X123467904Y-86066380D01*
X123848857Y-86066380D01*
X123944095Y-86114000D01*
X123991714Y-86161619D01*
X124039333Y-86256857D01*
X124039333Y-86399714D01*
X123991714Y-86494952D01*
X123944095Y-86542571D01*
X123848857Y-86590190D01*
X123467904Y-86590190D01*
X124610761Y-86494952D02*
X124515523Y-86447333D01*
X124467904Y-86399714D01*
X124420285Y-86304476D01*
X124420285Y-86256857D01*
X124467904Y-86161619D01*
X124515523Y-86114000D01*
X124610761Y-86066380D01*
X124801238Y-86066380D01*
X124896476Y-86114000D01*
X124944095Y-86161619D01*
X124991714Y-86256857D01*
X124991714Y-86304476D01*
X124944095Y-86399714D01*
X124896476Y-86447333D01*
X124801238Y-86494952D01*
X124610761Y-86494952D01*
X124515523Y-86542571D01*
X124467904Y-86590190D01*
X124420285Y-86685428D01*
X124420285Y-86875904D01*
X124467904Y-86971142D01*
X124515523Y-87018761D01*
X124610761Y-87066380D01*
X124801238Y-87066380D01*
X124896476Y-87018761D01*
X124944095Y-86971142D01*
X124991714Y-86875904D01*
X124991714Y-86685428D01*
X124944095Y-86590190D01*
X124896476Y-86542571D01*
X124801238Y-86494952D01*
X110831333Y-87066380D02*
X110498000Y-86590190D01*
X110259904Y-87066380D02*
X110259904Y-86066380D01*
X110640857Y-86066380D01*
X110736095Y-86114000D01*
X110783714Y-86161619D01*
X110831333Y-86256857D01*
X110831333Y-86399714D01*
X110783714Y-86494952D01*
X110736095Y-86542571D01*
X110640857Y-86590190D01*
X110259904Y-86590190D01*
X111164666Y-86066380D02*
X111831333Y-86066380D01*
X111402761Y-87066380D01*
X121245333Y-68778380D02*
X120912000Y-68302190D01*
X120673904Y-68778380D02*
X120673904Y-67778380D01*
X121054857Y-67778380D01*
X121150095Y-67826000D01*
X121197714Y-67873619D01*
X121245333Y-67968857D01*
X121245333Y-68111714D01*
X121197714Y-68206952D01*
X121150095Y-68254571D01*
X121054857Y-68302190D01*
X120673904Y-68302190D01*
X122102476Y-67778380D02*
X121912000Y-67778380D01*
X121816761Y-67826000D01*
X121769142Y-67873619D01*
X121673904Y-68016476D01*
X121626285Y-68206952D01*
X121626285Y-68587904D01*
X121673904Y-68683142D01*
X121721523Y-68730761D01*
X121816761Y-68778380D01*
X122007238Y-68778380D01*
X122102476Y-68730761D01*
X122150095Y-68683142D01*
X122197714Y-68587904D01*
X122197714Y-68349809D01*
X122150095Y-68254571D01*
X122102476Y-68206952D01*
X122007238Y-68159333D01*
X121816761Y-68159333D01*
X121721523Y-68206952D01*
X121673904Y-68254571D01*
X121626285Y-68349809D01*
X138009333Y-68778380D02*
X137676000Y-68302190D01*
X137437904Y-68778380D02*
X137437904Y-67778380D01*
X137818857Y-67778380D01*
X137914095Y-67826000D01*
X137961714Y-67873619D01*
X138009333Y-67968857D01*
X138009333Y-68111714D01*
X137961714Y-68206952D01*
X137914095Y-68254571D01*
X137818857Y-68302190D01*
X137437904Y-68302190D01*
X138914095Y-67778380D02*
X138437904Y-67778380D01*
X138390285Y-68254571D01*
X138437904Y-68206952D01*
X138533142Y-68159333D01*
X138771238Y-68159333D01*
X138866476Y-68206952D01*
X138914095Y-68254571D01*
X138961714Y-68349809D01*
X138961714Y-68587904D01*
X138914095Y-68683142D01*
X138866476Y-68730761D01*
X138771238Y-68778380D01*
X138533142Y-68778380D01*
X138437904Y-68730761D01*
X138390285Y-68683142D01*
X135215333Y-68778380D02*
X134882000Y-68302190D01*
X134643904Y-68778380D02*
X134643904Y-67778380D01*
X135024857Y-67778380D01*
X135120095Y-67826000D01*
X135167714Y-67873619D01*
X135215333Y-67968857D01*
X135215333Y-68111714D01*
X135167714Y-68206952D01*
X135120095Y-68254571D01*
X135024857Y-68302190D01*
X134643904Y-68302190D01*
X136072476Y-68111714D02*
X136072476Y-68778380D01*
X135834380Y-67730761D02*
X135596285Y-68445047D01*
X136215333Y-68445047D01*
X124039333Y-68778380D02*
X123706000Y-68302190D01*
X123467904Y-68778380D02*
X123467904Y-67778380D01*
X123848857Y-67778380D01*
X123944095Y-67826000D01*
X123991714Y-67873619D01*
X124039333Y-67968857D01*
X124039333Y-68111714D01*
X123991714Y-68206952D01*
X123944095Y-68254571D01*
X123848857Y-68302190D01*
X123467904Y-68302190D01*
X124372666Y-67778380D02*
X124991714Y-67778380D01*
X124658380Y-68159333D01*
X124801238Y-68159333D01*
X124896476Y-68206952D01*
X124944095Y-68254571D01*
X124991714Y-68349809D01*
X124991714Y-68587904D01*
X124944095Y-68683142D01*
X124896476Y-68730761D01*
X124801238Y-68778380D01*
X124515523Y-68778380D01*
X124420285Y-68730761D01*
X124372666Y-68683142D01*
X132421333Y-68778380D02*
X132088000Y-68302190D01*
X131849904Y-68778380D02*
X131849904Y-67778380D01*
X132230857Y-67778380D01*
X132326095Y-67826000D01*
X132373714Y-67873619D01*
X132421333Y-67968857D01*
X132421333Y-68111714D01*
X132373714Y-68206952D01*
X132326095Y-68254571D01*
X132230857Y-68302190D01*
X131849904Y-68302190D01*
X132802285Y-67873619D02*
X132849904Y-67826000D01*
X132945142Y-67778380D01*
X133183238Y-67778380D01*
X133278476Y-67826000D01*
X133326095Y-67873619D01*
X133373714Y-67968857D01*
X133373714Y-68064095D01*
X133326095Y-68206952D01*
X132754666Y-68778380D01*
X133373714Y-68778380D01*
X126833333Y-68778380D02*
X126500000Y-68302190D01*
X126261904Y-68778380D02*
X126261904Y-67778380D01*
X126642857Y-67778380D01*
X126738095Y-67826000D01*
X126785714Y-67873619D01*
X126833333Y-67968857D01*
X126833333Y-68111714D01*
X126785714Y-68206952D01*
X126738095Y-68254571D01*
X126642857Y-68302190D01*
X126261904Y-68302190D01*
X127785714Y-68778380D02*
X127214285Y-68778380D01*
X127500000Y-68778380D02*
X127500000Y-67778380D01*
X127404761Y-67921238D01*
X127309523Y-68016476D01*
X127214285Y-68064095D01*
X114300095Y-91556380D02*
X114300095Y-92365904D01*
X114347714Y-92461142D01*
X114395333Y-92508761D01*
X114490571Y-92556380D01*
X114681047Y-92556380D01*
X114776285Y-92508761D01*
X114823904Y-92461142D01*
X114871523Y-92365904D01*
X114871523Y-91556380D01*
X115252476Y-91556380D02*
X115871523Y-91556380D01*
X115538190Y-91937333D01*
X115681047Y-91937333D01*
X115776285Y-91984952D01*
X115823904Y-92032571D01*
X115871523Y-92127809D01*
X115871523Y-92365904D01*
X115823904Y-92461142D01*
X115776285Y-92508761D01*
X115681047Y-92556380D01*
X115395333Y-92556380D01*
X115300095Y-92508761D01*
X115252476Y-92461142D01*
X135636095Y-76922380D02*
X135636095Y-77731904D01*
X135683714Y-77827142D01*
X135731333Y-77874761D01*
X135826571Y-77922380D01*
X136017047Y-77922380D01*
X136112285Y-77874761D01*
X136159904Y-77827142D01*
X136207523Y-77731904D01*
X136207523Y-76922380D01*
X136636095Y-77017619D02*
X136683714Y-76970000D01*
X136778952Y-76922380D01*
X137017047Y-76922380D01*
X137112285Y-76970000D01*
X137159904Y-77017619D01*
X137207523Y-77112857D01*
X137207523Y-77208095D01*
X137159904Y-77350952D01*
X136588476Y-77922380D01*
X137207523Y-77922380D01*
X114300095Y-76922380D02*
X114300095Y-77731904D01*
X114347714Y-77827142D01*
X114395333Y-77874761D01*
X114490571Y-77922380D01*
X114681047Y-77922380D01*
X114776285Y-77874761D01*
X114823904Y-77827142D01*
X114871523Y-77731904D01*
X114871523Y-76922380D01*
X115871523Y-77922380D02*
X115300095Y-77922380D01*
X115585809Y-77922380D02*
X115585809Y-76922380D01*
X115490571Y-77065238D01*
X115395333Y-77160476D01*
X115300095Y-77208095D01*
X111164761Y-103957380D02*
X110831428Y-103481190D01*
X110593333Y-103957380D02*
X110593333Y-102957380D01*
X110974285Y-102957380D01*
X111069523Y-103005000D01*
X111117142Y-103052619D01*
X111164761Y-103147857D01*
X111164761Y-103290714D01*
X111117142Y-103385952D01*
X111069523Y-103433571D01*
X110974285Y-103481190D01*
X110593333Y-103481190D01*
X111450476Y-102957380D02*
X111783809Y-103957380D01*
X112117142Y-102957380D01*
X112355238Y-102957380D02*
X112974285Y-102957380D01*
X112640952Y-103338333D01*
X112783809Y-103338333D01*
X112879047Y-103385952D01*
X112926666Y-103433571D01*
X112974285Y-103528809D01*
X112974285Y-103766904D01*
X112926666Y-103862142D01*
X112879047Y-103909761D01*
X112783809Y-103957380D01*
X112498095Y-103957380D01*
X112402857Y-103909761D01*
X112355238Y-103862142D01*
X104814761Y-103957380D02*
X104481428Y-103481190D01*
X104243333Y-103957380D02*
X104243333Y-102957380D01*
X104624285Y-102957380D01*
X104719523Y-103005000D01*
X104767142Y-103052619D01*
X104814761Y-103147857D01*
X104814761Y-103290714D01*
X104767142Y-103385952D01*
X104719523Y-103433571D01*
X104624285Y-103481190D01*
X104243333Y-103481190D01*
X105100476Y-102957380D02*
X105433809Y-103957380D01*
X105767142Y-102957380D01*
X106052857Y-103052619D02*
X106100476Y-103005000D01*
X106195714Y-102957380D01*
X106433809Y-102957380D01*
X106529047Y-103005000D01*
X106576666Y-103052619D01*
X106624285Y-103147857D01*
X106624285Y-103243095D01*
X106576666Y-103385952D01*
X106005238Y-103957380D01*
X106624285Y-103957380D01*
X98464761Y-103957380D02*
X98131428Y-103481190D01*
X97893333Y-103957380D02*
X97893333Y-102957380D01*
X98274285Y-102957380D01*
X98369523Y-103005000D01*
X98417142Y-103052619D01*
X98464761Y-103147857D01*
X98464761Y-103290714D01*
X98417142Y-103385952D01*
X98369523Y-103433571D01*
X98274285Y-103481190D01*
X97893333Y-103481190D01*
X98750476Y-102957380D02*
X99083809Y-103957380D01*
X99417142Y-102957380D01*
X100274285Y-103957380D02*
X99702857Y-103957380D01*
X99988571Y-103957380D02*
X99988571Y-102957380D01*
X99893333Y-103100238D01*
X99798095Y-103195476D01*
X99702857Y-103243095D01*
X118483142Y-105862380D02*
X118149809Y-105386190D01*
X117911714Y-105862380D02*
X117911714Y-104862380D01*
X118292666Y-104862380D01*
X118387904Y-104910000D01*
X118435523Y-104957619D01*
X118483142Y-105052857D01*
X118483142Y-105195714D01*
X118435523Y-105290952D01*
X118387904Y-105338571D01*
X118292666Y-105386190D01*
X117911714Y-105386190D01*
X118864095Y-104957619D02*
X118911714Y-104910000D01*
X119006952Y-104862380D01*
X119245047Y-104862380D01*
X119340285Y-104910000D01*
X119387904Y-104957619D01*
X119435523Y-105052857D01*
X119435523Y-105148095D01*
X119387904Y-105290952D01*
X118816476Y-105862380D01*
X119435523Y-105862380D01*
X119768857Y-104862380D02*
X120387904Y-104862380D01*
X120054571Y-105243333D01*
X120197428Y-105243333D01*
X120292666Y-105290952D01*
X120340285Y-105338571D01*
X120387904Y-105433809D01*
X120387904Y-105671904D01*
X120340285Y-105767142D01*
X120292666Y-105814761D01*
X120197428Y-105862380D01*
X119911714Y-105862380D01*
X119816476Y-105814761D01*
X119768857Y-105767142D01*
X118483142Y-111450380D02*
X118149809Y-110974190D01*
X117911714Y-111450380D02*
X117911714Y-110450380D01*
X118292666Y-110450380D01*
X118387904Y-110498000D01*
X118435523Y-110545619D01*
X118483142Y-110640857D01*
X118483142Y-110783714D01*
X118435523Y-110878952D01*
X118387904Y-110926571D01*
X118292666Y-110974190D01*
X117911714Y-110974190D01*
X118864095Y-110545619D02*
X118911714Y-110498000D01*
X119006952Y-110450380D01*
X119245047Y-110450380D01*
X119340285Y-110498000D01*
X119387904Y-110545619D01*
X119435523Y-110640857D01*
X119435523Y-110736095D01*
X119387904Y-110878952D01*
X118816476Y-111450380D01*
X119435523Y-111450380D01*
X119816476Y-110545619D02*
X119864095Y-110498000D01*
X119959333Y-110450380D01*
X120197428Y-110450380D01*
X120292666Y-110498000D01*
X120340285Y-110545619D01*
X120387904Y-110640857D01*
X120387904Y-110736095D01*
X120340285Y-110878952D01*
X119768857Y-111450380D01*
X120387904Y-111450380D01*
X137025142Y-107386380D02*
X136691809Y-106910190D01*
X136453714Y-107386380D02*
X136453714Y-106386380D01*
X136834666Y-106386380D01*
X136929904Y-106434000D01*
X136977523Y-106481619D01*
X137025142Y-106576857D01*
X137025142Y-106719714D01*
X136977523Y-106814952D01*
X136929904Y-106862571D01*
X136834666Y-106910190D01*
X136453714Y-106910190D01*
X137406095Y-106481619D02*
X137453714Y-106434000D01*
X137548952Y-106386380D01*
X137787047Y-106386380D01*
X137882285Y-106434000D01*
X137929904Y-106481619D01*
X137977523Y-106576857D01*
X137977523Y-106672095D01*
X137929904Y-106814952D01*
X137358476Y-107386380D01*
X137977523Y-107386380D01*
X138929904Y-107386380D02*
X138358476Y-107386380D01*
X138644190Y-107386380D02*
X138644190Y-106386380D01*
X138548952Y-106529238D01*
X138453714Y-106624476D01*
X138358476Y-106672095D01*
X137025142Y-109926380D02*
X136691809Y-109450190D01*
X136453714Y-109926380D02*
X136453714Y-108926380D01*
X136834666Y-108926380D01*
X136929904Y-108974000D01*
X136977523Y-109021619D01*
X137025142Y-109116857D01*
X137025142Y-109259714D01*
X136977523Y-109354952D01*
X136929904Y-109402571D01*
X136834666Y-109450190D01*
X136453714Y-109450190D01*
X137406095Y-109021619D02*
X137453714Y-108974000D01*
X137548952Y-108926380D01*
X137787047Y-108926380D01*
X137882285Y-108974000D01*
X137929904Y-109021619D01*
X137977523Y-109116857D01*
X137977523Y-109212095D01*
X137929904Y-109354952D01*
X137358476Y-109926380D01*
X137977523Y-109926380D01*
X138596571Y-108926380D02*
X138691809Y-108926380D01*
X138787047Y-108974000D01*
X138834666Y-109021619D01*
X138882285Y-109116857D01*
X138929904Y-109307333D01*
X138929904Y-109545428D01*
X138882285Y-109735904D01*
X138834666Y-109831142D01*
X138787047Y-109878761D01*
X138691809Y-109926380D01*
X138596571Y-109926380D01*
X138501333Y-109878761D01*
X138453714Y-109831142D01*
X138406095Y-109735904D01*
X138358476Y-109545428D01*
X138358476Y-109307333D01*
X138406095Y-109116857D01*
X138453714Y-109021619D01*
X138501333Y-108974000D01*
X138596571Y-108926380D01*
X124325142Y-94686380D02*
X123991809Y-94210190D01*
X123753714Y-94686380D02*
X123753714Y-93686380D01*
X124134666Y-93686380D01*
X124229904Y-93734000D01*
X124277523Y-93781619D01*
X124325142Y-93876857D01*
X124325142Y-94019714D01*
X124277523Y-94114952D01*
X124229904Y-94162571D01*
X124134666Y-94210190D01*
X123753714Y-94210190D01*
X125277523Y-94686380D02*
X124706095Y-94686380D01*
X124991809Y-94686380D02*
X124991809Y-93686380D01*
X124896571Y-93829238D01*
X124801333Y-93924476D01*
X124706095Y-93972095D01*
X125753714Y-94686380D02*
X125944190Y-94686380D01*
X126039428Y-94638761D01*
X126087047Y-94591142D01*
X126182285Y-94448285D01*
X126229904Y-94257809D01*
X126229904Y-93876857D01*
X126182285Y-93781619D01*
X126134666Y-93734000D01*
X126039428Y-93686380D01*
X125848952Y-93686380D01*
X125753714Y-93734000D01*
X125706095Y-93781619D01*
X125658476Y-93876857D01*
X125658476Y-94114952D01*
X125706095Y-94210190D01*
X125753714Y-94257809D01*
X125848952Y-94305428D01*
X126039428Y-94305428D01*
X126134666Y-94257809D01*
X126182285Y-94210190D01*
X126229904Y-94114952D01*
X124325142Y-97226380D02*
X123991809Y-96750190D01*
X123753714Y-97226380D02*
X123753714Y-96226380D01*
X124134666Y-96226380D01*
X124229904Y-96274000D01*
X124277523Y-96321619D01*
X124325142Y-96416857D01*
X124325142Y-96559714D01*
X124277523Y-96654952D01*
X124229904Y-96702571D01*
X124134666Y-96750190D01*
X123753714Y-96750190D01*
X125277523Y-97226380D02*
X124706095Y-97226380D01*
X124991809Y-97226380D02*
X124991809Y-96226380D01*
X124896571Y-96369238D01*
X124801333Y-96464476D01*
X124706095Y-96512095D01*
X125848952Y-96654952D02*
X125753714Y-96607333D01*
X125706095Y-96559714D01*
X125658476Y-96464476D01*
X125658476Y-96416857D01*
X125706095Y-96321619D01*
X125753714Y-96274000D01*
X125848952Y-96226380D01*
X126039428Y-96226380D01*
X126134666Y-96274000D01*
X126182285Y-96321619D01*
X126229904Y-96416857D01*
X126229904Y-96464476D01*
X126182285Y-96559714D01*
X126134666Y-96607333D01*
X126039428Y-96654952D01*
X125848952Y-96654952D01*
X125753714Y-96702571D01*
X125706095Y-96750190D01*
X125658476Y-96845428D01*
X125658476Y-97035904D01*
X125706095Y-97131142D01*
X125753714Y-97178761D01*
X125848952Y-97226380D01*
X126039428Y-97226380D01*
X126134666Y-97178761D01*
X126182285Y-97131142D01*
X126229904Y-97035904D01*
X126229904Y-96845428D01*
X126182285Y-96750190D01*
X126134666Y-96702571D01*
X126039428Y-96654952D01*
X123563142Y-108402380D02*
X123229809Y-107926190D01*
X122991714Y-108402380D02*
X122991714Y-107402380D01*
X123372666Y-107402380D01*
X123467904Y-107450000D01*
X123515523Y-107497619D01*
X123563142Y-107592857D01*
X123563142Y-107735714D01*
X123515523Y-107830952D01*
X123467904Y-107878571D01*
X123372666Y-107926190D01*
X122991714Y-107926190D01*
X124515523Y-108402380D02*
X123944095Y-108402380D01*
X124229809Y-108402380D02*
X124229809Y-107402380D01*
X124134571Y-107545238D01*
X124039333Y-107640476D01*
X123944095Y-107688095D01*
X124848857Y-107402380D02*
X125515523Y-107402380D01*
X125086952Y-108402380D01*
X124325142Y-99766380D02*
X123991809Y-99290190D01*
X123753714Y-99766380D02*
X123753714Y-98766380D01*
X124134666Y-98766380D01*
X124229904Y-98814000D01*
X124277523Y-98861619D01*
X124325142Y-98956857D01*
X124325142Y-99099714D01*
X124277523Y-99194952D01*
X124229904Y-99242571D01*
X124134666Y-99290190D01*
X123753714Y-99290190D01*
X125277523Y-99766380D02*
X124706095Y-99766380D01*
X124991809Y-99766380D02*
X124991809Y-98766380D01*
X124896571Y-98909238D01*
X124801333Y-99004476D01*
X124706095Y-99052095D01*
X126134666Y-98766380D02*
X125944190Y-98766380D01*
X125848952Y-98814000D01*
X125801333Y-98861619D01*
X125706095Y-99004476D01*
X125658476Y-99194952D01*
X125658476Y-99575904D01*
X125706095Y-99671142D01*
X125753714Y-99718761D01*
X125848952Y-99766380D01*
X126039428Y-99766380D01*
X126134666Y-99718761D01*
X126182285Y-99671142D01*
X126229904Y-99575904D01*
X126229904Y-99337809D01*
X126182285Y-99242571D01*
X126134666Y-99194952D01*
X126039428Y-99147333D01*
X125848952Y-99147333D01*
X125753714Y-99194952D01*
X125706095Y-99242571D01*
X125658476Y-99337809D01*
X124343142Y-92146380D02*
X124009809Y-91670190D01*
X123771714Y-92146380D02*
X123771714Y-91146380D01*
X124152666Y-91146380D01*
X124247904Y-91194000D01*
X124295523Y-91241619D01*
X124343142Y-91336857D01*
X124343142Y-91479714D01*
X124295523Y-91574952D01*
X124247904Y-91622571D01*
X124152666Y-91670190D01*
X123771714Y-91670190D01*
X125295523Y-92146380D02*
X124724095Y-92146380D01*
X125009809Y-92146380D02*
X125009809Y-91146380D01*
X124914571Y-91289238D01*
X124819333Y-91384476D01*
X124724095Y-91432095D01*
X126200285Y-91146380D02*
X125724095Y-91146380D01*
X125676476Y-91622571D01*
X125724095Y-91574952D01*
X125819333Y-91527333D01*
X126057428Y-91527333D01*
X126152666Y-91574952D01*
X126200285Y-91622571D01*
X126247904Y-91717809D01*
X126247904Y-91955904D01*
X126200285Y-92051142D01*
X126152666Y-92098761D01*
X126057428Y-92146380D01*
X125819333Y-92146380D01*
X125724095Y-92098761D01*
X125676476Y-92051142D01*
X97694761Y-94527619D02*
X97599523Y-94480000D01*
X97504285Y-94384761D01*
X97361428Y-94241904D01*
X97266190Y-94194285D01*
X97170952Y-94194285D01*
X97218571Y-94432380D02*
X97123333Y-94384761D01*
X97028095Y-94289523D01*
X96980476Y-94099047D01*
X96980476Y-93765714D01*
X97028095Y-93575238D01*
X97123333Y-93480000D01*
X97218571Y-93432380D01*
X97409047Y-93432380D01*
X97504285Y-93480000D01*
X97599523Y-93575238D01*
X97647142Y-93765714D01*
X97647142Y-94099047D01*
X97599523Y-94289523D01*
X97504285Y-94384761D01*
X97409047Y-94432380D01*
X97218571Y-94432380D01*
X98504285Y-93432380D02*
X98313809Y-93432380D01*
X98218571Y-93480000D01*
X98170952Y-93527619D01*
X98075714Y-93670476D01*
X98028095Y-93860952D01*
X98028095Y-94241904D01*
X98075714Y-94337142D01*
X98123333Y-94384761D01*
X98218571Y-94432380D01*
X98409047Y-94432380D01*
X98504285Y-94384761D01*
X98551904Y-94337142D01*
X98599523Y-94241904D01*
X98599523Y-94003809D01*
X98551904Y-93908571D01*
X98504285Y-93860952D01*
X98409047Y-93813333D01*
X98218571Y-93813333D01*
X98123333Y-93860952D01*
X98075714Y-93908571D01*
X98028095Y-94003809D01*
X103409761Y-94527619D02*
X103314523Y-94480000D01*
X103219285Y-94384761D01*
X103076428Y-94241904D01*
X102981190Y-94194285D01*
X102885952Y-94194285D01*
X102933571Y-94432380D02*
X102838333Y-94384761D01*
X102743095Y-94289523D01*
X102695476Y-94099047D01*
X102695476Y-93765714D01*
X102743095Y-93575238D01*
X102838333Y-93480000D01*
X102933571Y-93432380D01*
X103124047Y-93432380D01*
X103219285Y-93480000D01*
X103314523Y-93575238D01*
X103362142Y-93765714D01*
X103362142Y-94099047D01*
X103314523Y-94289523D01*
X103219285Y-94384761D01*
X103124047Y-94432380D01*
X102933571Y-94432380D01*
X104266904Y-93432380D02*
X103790714Y-93432380D01*
X103743095Y-93908571D01*
X103790714Y-93860952D01*
X103885952Y-93813333D01*
X104124047Y-93813333D01*
X104219285Y-93860952D01*
X104266904Y-93908571D01*
X104314523Y-94003809D01*
X104314523Y-94241904D01*
X104266904Y-94337142D01*
X104219285Y-94384761D01*
X104124047Y-94432380D01*
X103885952Y-94432380D01*
X103790714Y-94384761D01*
X103743095Y-94337142D01*
X125380761Y-115355619D02*
X125285523Y-115308000D01*
X125190285Y-115212761D01*
X125047428Y-115069904D01*
X124952190Y-115022285D01*
X124856952Y-115022285D01*
X124904571Y-115260380D02*
X124809333Y-115212761D01*
X124714095Y-115117523D01*
X124666476Y-114927047D01*
X124666476Y-114593714D01*
X124714095Y-114403238D01*
X124809333Y-114308000D01*
X124904571Y-114260380D01*
X125095047Y-114260380D01*
X125190285Y-114308000D01*
X125285523Y-114403238D01*
X125333142Y-114593714D01*
X125333142Y-114927047D01*
X125285523Y-115117523D01*
X125190285Y-115212761D01*
X125095047Y-115260380D01*
X124904571Y-115260380D01*
X126190285Y-114593714D02*
X126190285Y-115260380D01*
X125952190Y-114212761D02*
X125714095Y-114927047D01*
X126333142Y-114927047D01*
X131476761Y-115355619D02*
X131381523Y-115308000D01*
X131286285Y-115212761D01*
X131143428Y-115069904D01*
X131048190Y-115022285D01*
X130952952Y-115022285D01*
X131000571Y-115260380D02*
X130905333Y-115212761D01*
X130810095Y-115117523D01*
X130762476Y-114927047D01*
X130762476Y-114593714D01*
X130810095Y-114403238D01*
X130905333Y-114308000D01*
X131000571Y-114260380D01*
X131191047Y-114260380D01*
X131286285Y-114308000D01*
X131381523Y-114403238D01*
X131429142Y-114593714D01*
X131429142Y-114927047D01*
X131381523Y-115117523D01*
X131286285Y-115212761D01*
X131191047Y-115260380D01*
X131000571Y-115260380D01*
X131762476Y-114260380D02*
X132381523Y-114260380D01*
X132048190Y-114641333D01*
X132191047Y-114641333D01*
X132286285Y-114688952D01*
X132333904Y-114736571D01*
X132381523Y-114831809D01*
X132381523Y-115069904D01*
X132333904Y-115165142D01*
X132286285Y-115212761D01*
X132191047Y-115260380D01*
X131905333Y-115260380D01*
X131810095Y-115212761D01*
X131762476Y-115165142D01*
X137572761Y-115355619D02*
X137477523Y-115308000D01*
X137382285Y-115212761D01*
X137239428Y-115069904D01*
X137144190Y-115022285D01*
X137048952Y-115022285D01*
X137096571Y-115260380D02*
X137001333Y-115212761D01*
X136906095Y-115117523D01*
X136858476Y-114927047D01*
X136858476Y-114593714D01*
X136906095Y-114403238D01*
X137001333Y-114308000D01*
X137096571Y-114260380D01*
X137287047Y-114260380D01*
X137382285Y-114308000D01*
X137477523Y-114403238D01*
X137525142Y-114593714D01*
X137525142Y-114927047D01*
X137477523Y-115117523D01*
X137382285Y-115212761D01*
X137287047Y-115260380D01*
X137096571Y-115260380D01*
X137906095Y-114355619D02*
X137953714Y-114308000D01*
X138048952Y-114260380D01*
X138287047Y-114260380D01*
X138382285Y-114308000D01*
X138429904Y-114355619D01*
X138477523Y-114450857D01*
X138477523Y-114546095D01*
X138429904Y-114688952D01*
X137858476Y-115260380D01*
X138477523Y-115260380D01*
D13*
X129564190Y-109522380D02*
X129540000Y-109570761D01*
X129491619Y-109619142D01*
X129419047Y-109691714D01*
X129394857Y-109740095D01*
X129394857Y-109788476D01*
X129515809Y-109764285D02*
X129491619Y-109812666D01*
X129443238Y-109861047D01*
X129346476Y-109885238D01*
X129177142Y-109885238D01*
X129080380Y-109861047D01*
X129032000Y-109812666D01*
X129007809Y-109764285D01*
X129007809Y-109667523D01*
X129032000Y-109619142D01*
X129080380Y-109570761D01*
X129177142Y-109546571D01*
X129346476Y-109546571D01*
X129443238Y-109570761D01*
X129491619Y-109619142D01*
X129515809Y-109667523D01*
X129515809Y-109764285D01*
X129515809Y-109062761D02*
X129515809Y-109353047D01*
X129515809Y-109207904D02*
X129007809Y-109207904D01*
X129080380Y-109256285D01*
X129128761Y-109304666D01*
X129152952Y-109353047D01*
D11*
X141906666Y-94702380D02*
X141906666Y-95416666D01*
X141859047Y-95559523D01*
X141763809Y-95654761D01*
X141620952Y-95702380D01*
X141525714Y-95702380D01*
X142859047Y-94702380D02*
X142382857Y-94702380D01*
X142335238Y-95178571D01*
X142382857Y-95130952D01*
X142478095Y-95083333D01*
X142716190Y-95083333D01*
X142811428Y-95130952D01*
X142859047Y-95178571D01*
X142906666Y-95273809D01*
X142906666Y-95511904D01*
X142859047Y-95607142D01*
X142811428Y-95654761D01*
X142716190Y-95702380D01*
X142478095Y-95702380D01*
X142382857Y-95654761D01*
X142335238Y-95607142D01*
X115339904Y-105608380D02*
X115339904Y-104608380D01*
X115578000Y-104608380D01*
X115720857Y-104656000D01*
X115816095Y-104751238D01*
X115863714Y-104846476D01*
X115911333Y-105036952D01*
X115911333Y-105179809D01*
X115863714Y-105370285D01*
X115816095Y-105465523D01*
X115720857Y-105560761D01*
X115578000Y-105608380D01*
X115339904Y-105608380D01*
X116244666Y-104608380D02*
X116911333Y-104608380D01*
X116482761Y-105608380D01*
X105147904Y-74494380D02*
X105147904Y-73494380D01*
X105386000Y-73494380D01*
X105528857Y-73542000D01*
X105624095Y-73637238D01*
X105671714Y-73732476D01*
X105719333Y-73922952D01*
X105719333Y-74065809D01*
X105671714Y-74256285D01*
X105624095Y-74351523D01*
X105528857Y-74446761D01*
X105386000Y-74494380D01*
X105147904Y-74494380D01*
X106576476Y-73494380D02*
X106386000Y-73494380D01*
X106290761Y-73542000D01*
X106243142Y-73589619D01*
X106147904Y-73732476D01*
X106100285Y-73922952D01*
X106100285Y-74303904D01*
X106147904Y-74399142D01*
X106195523Y-74446761D01*
X106290761Y-74494380D01*
X106481238Y-74494380D01*
X106576476Y-74446761D01*
X106624095Y-74399142D01*
X106671714Y-74303904D01*
X106671714Y-74065809D01*
X106624095Y-73970571D01*
X106576476Y-73922952D01*
X106481238Y-73875333D01*
X106290761Y-73875333D01*
X106195523Y-73922952D01*
X106147904Y-73970571D01*
X106100285Y-74065809D01*
X98099904Y-74492380D02*
X98099904Y-73492380D01*
X98338000Y-73492380D01*
X98480857Y-73540000D01*
X98576095Y-73635238D01*
X98623714Y-73730476D01*
X98671333Y-73920952D01*
X98671333Y-74063809D01*
X98623714Y-74254285D01*
X98576095Y-74349523D01*
X98480857Y-74444761D01*
X98338000Y-74492380D01*
X98099904Y-74492380D01*
X99576095Y-73492380D02*
X99099904Y-73492380D01*
X99052285Y-73968571D01*
X99099904Y-73920952D01*
X99195142Y-73873333D01*
X99433238Y-73873333D01*
X99528476Y-73920952D01*
X99576095Y-73968571D01*
X99623714Y-74063809D01*
X99623714Y-74301904D01*
X99576095Y-74397142D01*
X99528476Y-74444761D01*
X99433238Y-74492380D01*
X99195142Y-74492380D01*
X99099904Y-74444761D01*
X99052285Y-74397142D01*
X105147904Y-79574380D02*
X105147904Y-78574380D01*
X105386000Y-78574380D01*
X105528857Y-78622000D01*
X105624095Y-78717238D01*
X105671714Y-78812476D01*
X105719333Y-79002952D01*
X105719333Y-79145809D01*
X105671714Y-79336285D01*
X105624095Y-79431523D01*
X105528857Y-79526761D01*
X105386000Y-79574380D01*
X105147904Y-79574380D01*
X106576476Y-78907714D02*
X106576476Y-79574380D01*
X106338380Y-78526761D02*
X106100285Y-79241047D01*
X106719333Y-79241047D01*
X98099904Y-79574380D02*
X98099904Y-78574380D01*
X98338000Y-78574380D01*
X98480857Y-78622000D01*
X98576095Y-78717238D01*
X98623714Y-78812476D01*
X98671333Y-79002952D01*
X98671333Y-79145809D01*
X98623714Y-79336285D01*
X98576095Y-79431523D01*
X98480857Y-79526761D01*
X98338000Y-79574380D01*
X98099904Y-79574380D01*
X99004666Y-78574380D02*
X99623714Y-78574380D01*
X99290380Y-78955333D01*
X99433238Y-78955333D01*
X99528476Y-79002952D01*
X99576095Y-79050571D01*
X99623714Y-79145809D01*
X99623714Y-79383904D01*
X99576095Y-79479142D01*
X99528476Y-79526761D01*
X99433238Y-79574380D01*
X99147523Y-79574380D01*
X99052285Y-79526761D01*
X99004666Y-79479142D01*
X105147904Y-84654380D02*
X105147904Y-83654380D01*
X105386000Y-83654380D01*
X105528857Y-83702000D01*
X105624095Y-83797238D01*
X105671714Y-83892476D01*
X105719333Y-84082952D01*
X105719333Y-84225809D01*
X105671714Y-84416285D01*
X105624095Y-84511523D01*
X105528857Y-84606761D01*
X105386000Y-84654380D01*
X105147904Y-84654380D01*
X106100285Y-83749619D02*
X106147904Y-83702000D01*
X106243142Y-83654380D01*
X106481238Y-83654380D01*
X106576476Y-83702000D01*
X106624095Y-83749619D01*
X106671714Y-83844857D01*
X106671714Y-83940095D01*
X106624095Y-84082952D01*
X106052666Y-84654380D01*
X106671714Y-84654380D01*
X98099904Y-84652380D02*
X98099904Y-83652380D01*
X98338000Y-83652380D01*
X98480857Y-83700000D01*
X98576095Y-83795238D01*
X98623714Y-83890476D01*
X98671333Y-84080952D01*
X98671333Y-84223809D01*
X98623714Y-84414285D01*
X98576095Y-84509523D01*
X98480857Y-84604761D01*
X98338000Y-84652380D01*
X98099904Y-84652380D01*
X99623714Y-84652380D02*
X99052285Y-84652380D01*
X99338000Y-84652380D02*
X99338000Y-83652380D01*
X99242761Y-83795238D01*
X99147523Y-83890476D01*
X99052285Y-83938095D01*
X112632142Y-99417142D02*
X112584523Y-99464761D01*
X112441666Y-99512380D01*
X112346428Y-99512380D01*
X112203571Y-99464761D01*
X112108333Y-99369523D01*
X112060714Y-99274285D01*
X112013095Y-99083809D01*
X112013095Y-98940952D01*
X112060714Y-98750476D01*
X112108333Y-98655238D01*
X112203571Y-98560000D01*
X112346428Y-98512380D01*
X112441666Y-98512380D01*
X112584523Y-98560000D01*
X112632142Y-98607619D01*
X113584523Y-99512380D02*
X113013095Y-99512380D01*
X113298809Y-99512380D02*
X113298809Y-98512380D01*
X113203571Y-98655238D01*
X113108333Y-98750476D01*
X113013095Y-98798095D01*
X113965476Y-98607619D02*
X114013095Y-98560000D01*
X114108333Y-98512380D01*
X114346428Y-98512380D01*
X114441666Y-98560000D01*
X114489285Y-98607619D01*
X114536904Y-98702857D01*
X114536904Y-98798095D01*
X114489285Y-98940952D01*
X113917857Y-99512380D01*
X114536904Y-99512380D01*
X116950142Y-88623142D02*
X116902523Y-88670761D01*
X116759666Y-88718380D01*
X116664428Y-88718380D01*
X116521571Y-88670761D01*
X116426333Y-88575523D01*
X116378714Y-88480285D01*
X116331095Y-88289809D01*
X116331095Y-88146952D01*
X116378714Y-87956476D01*
X116426333Y-87861238D01*
X116521571Y-87766000D01*
X116664428Y-87718380D01*
X116759666Y-87718380D01*
X116902523Y-87766000D01*
X116950142Y-87813619D01*
X117902523Y-88718380D02*
X117331095Y-88718380D01*
X117616809Y-88718380D02*
X117616809Y-87718380D01*
X117521571Y-87861238D01*
X117426333Y-87956476D01*
X117331095Y-88004095D01*
X118854904Y-88718380D02*
X118283476Y-88718380D01*
X118569190Y-88718380D02*
X118569190Y-87718380D01*
X118473952Y-87861238D01*
X118378714Y-87956476D01*
X118283476Y-88004095D01*
X120007142Y-75795142D02*
X119959523Y-75842761D01*
X119816666Y-75890380D01*
X119721428Y-75890380D01*
X119578571Y-75842761D01*
X119483333Y-75747523D01*
X119435714Y-75652285D01*
X119388095Y-75461809D01*
X119388095Y-75318952D01*
X119435714Y-75128476D01*
X119483333Y-75033238D01*
X119578571Y-74938000D01*
X119721428Y-74890380D01*
X119816666Y-74890380D01*
X119959523Y-74938000D01*
X120007142Y-74985619D01*
X120959523Y-75890380D02*
X120388095Y-75890380D01*
X120673809Y-75890380D02*
X120673809Y-74890380D01*
X120578571Y-75033238D01*
X120483333Y-75128476D01*
X120388095Y-75176095D01*
X121578571Y-74890380D02*
X121673809Y-74890380D01*
X121769047Y-74938000D01*
X121816666Y-74985619D01*
X121864285Y-75080857D01*
X121911904Y-75271333D01*
X121911904Y-75509428D01*
X121864285Y-75699904D01*
X121816666Y-75795142D01*
X121769047Y-75842761D01*
X121673809Y-75890380D01*
X121578571Y-75890380D01*
X121483333Y-75842761D01*
X121435714Y-75795142D01*
X121388095Y-75699904D01*
X121340476Y-75509428D01*
X121340476Y-75271333D01*
X121388095Y-75080857D01*
X121435714Y-74985619D01*
X121483333Y-74938000D01*
X121578571Y-74890380D01*
X120991333Y-79859142D02*
X120943714Y-79906761D01*
X120800857Y-79954380D01*
X120705619Y-79954380D01*
X120562761Y-79906761D01*
X120467523Y-79811523D01*
X120419904Y-79716285D01*
X120372285Y-79525809D01*
X120372285Y-79382952D01*
X120419904Y-79192476D01*
X120467523Y-79097238D01*
X120562761Y-79002000D01*
X120705619Y-78954380D01*
X120800857Y-78954380D01*
X120943714Y-79002000D01*
X120991333Y-79049619D01*
X121467523Y-79954380D02*
X121658000Y-79954380D01*
X121753238Y-79906761D01*
X121800857Y-79859142D01*
X121896095Y-79716285D01*
X121943714Y-79525809D01*
X121943714Y-79144857D01*
X121896095Y-79049619D01*
X121848476Y-79002000D01*
X121753238Y-78954380D01*
X121562761Y-78954380D01*
X121467523Y-79002000D01*
X121419904Y-79049619D01*
X121372285Y-79144857D01*
X121372285Y-79382952D01*
X121419904Y-79478190D01*
X121467523Y-79525809D01*
X121562761Y-79573428D01*
X121753238Y-79573428D01*
X121848476Y-79525809D01*
X121896095Y-79478190D01*
X121943714Y-79382952D01*
X109307333Y-68683142D02*
X109259714Y-68730761D01*
X109116857Y-68778380D01*
X109021619Y-68778380D01*
X108878761Y-68730761D01*
X108783523Y-68635523D01*
X108735904Y-68540285D01*
X108688285Y-68349809D01*
X108688285Y-68206952D01*
X108735904Y-68016476D01*
X108783523Y-67921238D01*
X108878761Y-67826000D01*
X109021619Y-67778380D01*
X109116857Y-67778380D01*
X109259714Y-67826000D01*
X109307333Y-67873619D01*
X109878761Y-68206952D02*
X109783523Y-68159333D01*
X109735904Y-68111714D01*
X109688285Y-68016476D01*
X109688285Y-67968857D01*
X109735904Y-67873619D01*
X109783523Y-67826000D01*
X109878761Y-67778380D01*
X110069238Y-67778380D01*
X110164476Y-67826000D01*
X110212095Y-67873619D01*
X110259714Y-67968857D01*
X110259714Y-68016476D01*
X110212095Y-68111714D01*
X110164476Y-68159333D01*
X110069238Y-68206952D01*
X109878761Y-68206952D01*
X109783523Y-68254571D01*
X109735904Y-68302190D01*
X109688285Y-68397428D01*
X109688285Y-68587904D01*
X109735904Y-68683142D01*
X109783523Y-68730761D01*
X109878761Y-68778380D01*
X110069238Y-68778380D01*
X110164476Y-68730761D01*
X110212095Y-68683142D01*
X110259714Y-68587904D01*
X110259714Y-68397428D01*
X110212095Y-68302190D01*
X110164476Y-68254571D01*
X110069238Y-68206952D01*
X113625333Y-86971142D02*
X113577714Y-87018761D01*
X113434857Y-87066380D01*
X113339619Y-87066380D01*
X113196761Y-87018761D01*
X113101523Y-86923523D01*
X113053904Y-86828285D01*
X113006285Y-86637809D01*
X113006285Y-86494952D01*
X113053904Y-86304476D01*
X113101523Y-86209238D01*
X113196761Y-86114000D01*
X113339619Y-86066380D01*
X113434857Y-86066380D01*
X113577714Y-86114000D01*
X113625333Y-86161619D01*
X113958666Y-86066380D02*
X114625333Y-86066380D01*
X114196761Y-87066380D01*
X141556333Y-107927142D02*
X141508714Y-107974761D01*
X141365857Y-108022380D01*
X141270619Y-108022380D01*
X141127761Y-107974761D01*
X141032523Y-107879523D01*
X140984904Y-107784285D01*
X140937285Y-107593809D01*
X140937285Y-107450952D01*
X140984904Y-107260476D01*
X141032523Y-107165238D01*
X141127761Y-107070000D01*
X141270619Y-107022380D01*
X141365857Y-107022380D01*
X141508714Y-107070000D01*
X141556333Y-107117619D01*
X142413476Y-107022380D02*
X142223000Y-107022380D01*
X142127761Y-107070000D01*
X142080142Y-107117619D01*
X141984904Y-107260476D01*
X141937285Y-107450952D01*
X141937285Y-107831904D01*
X141984904Y-107927142D01*
X142032523Y-107974761D01*
X142127761Y-108022380D01*
X142318238Y-108022380D01*
X142413476Y-107974761D01*
X142461095Y-107927142D01*
X142508714Y-107831904D01*
X142508714Y-107593809D01*
X142461095Y-107498571D01*
X142413476Y-107450952D01*
X142318238Y-107403333D01*
X142127761Y-107403333D01*
X142032523Y-107450952D01*
X141984904Y-107498571D01*
X141937285Y-107593809D01*
X141565333Y-113133142D02*
X141517714Y-113180761D01*
X141374857Y-113228380D01*
X141279619Y-113228380D01*
X141136761Y-113180761D01*
X141041523Y-113085523D01*
X140993904Y-112990285D01*
X140946285Y-112799809D01*
X140946285Y-112656952D01*
X140993904Y-112466476D01*
X141041523Y-112371238D01*
X141136761Y-112276000D01*
X141279619Y-112228380D01*
X141374857Y-112228380D01*
X141517714Y-112276000D01*
X141565333Y-112323619D01*
X142470095Y-112228380D02*
X141993904Y-112228380D01*
X141946285Y-112704571D01*
X141993904Y-112656952D01*
X142089142Y-112609333D01*
X142327238Y-112609333D01*
X142422476Y-112656952D01*
X142470095Y-112704571D01*
X142517714Y-112799809D01*
X142517714Y-113037904D01*
X142470095Y-113133142D01*
X142422476Y-113180761D01*
X142327238Y-113228380D01*
X142089142Y-113228380D01*
X141993904Y-113180761D01*
X141946285Y-113133142D01*
X105497333Y-95607142D02*
X105449714Y-95654761D01*
X105306857Y-95702380D01*
X105211619Y-95702380D01*
X105068761Y-95654761D01*
X104973523Y-95559523D01*
X104925904Y-95464285D01*
X104878285Y-95273809D01*
X104878285Y-95130952D01*
X104925904Y-94940476D01*
X104973523Y-94845238D01*
X105068761Y-94750000D01*
X105211619Y-94702380D01*
X105306857Y-94702380D01*
X105449714Y-94750000D01*
X105497333Y-94797619D01*
X106354476Y-95035714D02*
X106354476Y-95702380D01*
X106116380Y-94654761D02*
X105878285Y-95369047D01*
X106497333Y-95369047D01*
X142581333Y-76811142D02*
X142533714Y-76858761D01*
X142390857Y-76906380D01*
X142295619Y-76906380D01*
X142152761Y-76858761D01*
X142057523Y-76763523D01*
X142009904Y-76668285D01*
X141962285Y-76477809D01*
X141962285Y-76334952D01*
X142009904Y-76144476D01*
X142057523Y-76049238D01*
X142152761Y-75954000D01*
X142295619Y-75906380D01*
X142390857Y-75906380D01*
X142533714Y-75954000D01*
X142581333Y-76001619D01*
X142914666Y-75906380D02*
X143533714Y-75906380D01*
X143200380Y-76287333D01*
X143343238Y-76287333D01*
X143438476Y-76334952D01*
X143486095Y-76382571D01*
X143533714Y-76477809D01*
X143533714Y-76715904D01*
X143486095Y-76811142D01*
X143438476Y-76858761D01*
X143343238Y-76906380D01*
X143057523Y-76906380D01*
X142962285Y-76858761D01*
X142914666Y-76811142D01*
X129627333Y-86971142D02*
X129579714Y-87018761D01*
X129436857Y-87066380D01*
X129341619Y-87066380D01*
X129198761Y-87018761D01*
X129103523Y-86923523D01*
X129055904Y-86828285D01*
X129008285Y-86637809D01*
X129008285Y-86494952D01*
X129055904Y-86304476D01*
X129103523Y-86209238D01*
X129198761Y-86114000D01*
X129341619Y-86066380D01*
X129436857Y-86066380D01*
X129579714Y-86114000D01*
X129627333Y-86161619D01*
X130008285Y-86161619D02*
X130055904Y-86114000D01*
X130151142Y-86066380D01*
X130389238Y-86066380D01*
X130484476Y-86114000D01*
X130532095Y-86161619D01*
X130579714Y-86256857D01*
X130579714Y-86352095D01*
X130532095Y-86494952D01*
X129960666Y-87066380D01*
X130579714Y-87066380D01*
X129627333Y-68683142D02*
X129579714Y-68730761D01*
X129436857Y-68778380D01*
X129341619Y-68778380D01*
X129198761Y-68730761D01*
X129103523Y-68635523D01*
X129055904Y-68540285D01*
X129008285Y-68349809D01*
X129008285Y-68206952D01*
X129055904Y-68016476D01*
X129103523Y-67921238D01*
X129198761Y-67826000D01*
X129341619Y-67778380D01*
X129436857Y-67778380D01*
X129579714Y-67826000D01*
X129627333Y-67873619D01*
X130579714Y-68778380D02*
X130008285Y-68778380D01*
X130294000Y-68778380D02*
X130294000Y-67778380D01*
X130198761Y-67921238D01*
X130103523Y-68016476D01*
X130008285Y-68064095D01*
M02*
