G04 #@! TF.GenerationSoftware,KiCad,Pcbnew,5.1.6-c6e7f7d~87~ubuntu18.04.1*
G04 #@! TF.CreationDate,2020-08-19T17:04:45-04:00*
G04 #@! TF.ProjectId,late_MS20_VCF_plug_in_board,6c617465-5f4d-4533-9230-5f5643465f70,0*
G04 #@! TF.SameCoordinates,Original*
G04 #@! TF.FileFunction,Legend,Bot*
G04 #@! TF.FilePolarity,Positive*
%FSLAX46Y46*%
G04 Gerber Fmt 4.6, Leading zero omitted, Abs format (unit mm)*
G04 Created by KiCad (PCBNEW 5.1.6-c6e7f7d~87~ubuntu18.04.1) date 2020-08-19 17:04:45*
%MOMM*%
%LPD*%
G01*
G04 APERTURE LIST*
%ADD10C,0.150000*%
%ADD11C,0.120000*%
G04 APERTURE END LIST*
D10*
X144222214Y-67890380D02*
X144698404Y-67890380D01*
X144698404Y-66890380D01*
X143460309Y-67890380D02*
X143460309Y-67366571D01*
X143507928Y-67271333D01*
X143603166Y-67223714D01*
X143793642Y-67223714D01*
X143888880Y-67271333D01*
X143460309Y-67842761D02*
X143555547Y-67890380D01*
X143793642Y-67890380D01*
X143888880Y-67842761D01*
X143936500Y-67747523D01*
X143936500Y-67652285D01*
X143888880Y-67557047D01*
X143793642Y-67509428D01*
X143555547Y-67509428D01*
X143460309Y-67461809D01*
X143126976Y-67223714D02*
X142746023Y-67223714D01*
X142984119Y-66890380D02*
X142984119Y-67747523D01*
X142936500Y-67842761D01*
X142841261Y-67890380D01*
X142746023Y-67890380D01*
X142031738Y-67842761D02*
X142126976Y-67890380D01*
X142317452Y-67890380D01*
X142412690Y-67842761D01*
X142460309Y-67747523D01*
X142460309Y-67366571D01*
X142412690Y-67271333D01*
X142317452Y-67223714D01*
X142126976Y-67223714D01*
X142031738Y-67271333D01*
X141984119Y-67366571D01*
X141984119Y-67461809D01*
X142460309Y-67557047D01*
X140793642Y-67890380D02*
X140793642Y-66890380D01*
X140460309Y-67604666D01*
X140126976Y-66890380D01*
X140126976Y-67890380D01*
X139698404Y-67842761D02*
X139555547Y-67890380D01*
X139317452Y-67890380D01*
X139222214Y-67842761D01*
X139174595Y-67795142D01*
X139126976Y-67699904D01*
X139126976Y-67604666D01*
X139174595Y-67509428D01*
X139222214Y-67461809D01*
X139317452Y-67414190D01*
X139507928Y-67366571D01*
X139603166Y-67318952D01*
X139650785Y-67271333D01*
X139698404Y-67176095D01*
X139698404Y-67080857D01*
X139650785Y-66985619D01*
X139603166Y-66938000D01*
X139507928Y-66890380D01*
X139269833Y-66890380D01*
X139126976Y-66938000D01*
X138746023Y-66985619D02*
X138698404Y-66938000D01*
X138603166Y-66890380D01*
X138365071Y-66890380D01*
X138269833Y-66938000D01*
X138222214Y-66985619D01*
X138174595Y-67080857D01*
X138174595Y-67176095D01*
X138222214Y-67318952D01*
X138793642Y-67890380D01*
X138174595Y-67890380D01*
X137555547Y-66890380D02*
X137460309Y-66890380D01*
X137365071Y-66938000D01*
X137317452Y-66985619D01*
X137269833Y-67080857D01*
X137222214Y-67271333D01*
X137222214Y-67509428D01*
X137269833Y-67699904D01*
X137317452Y-67795142D01*
X137365071Y-67842761D01*
X137460309Y-67890380D01*
X137555547Y-67890380D01*
X137650785Y-67842761D01*
X137698404Y-67795142D01*
X137746023Y-67699904D01*
X137793642Y-67509428D01*
X137793642Y-67271333D01*
X137746023Y-67080857D01*
X137698404Y-66985619D01*
X137650785Y-66938000D01*
X137555547Y-66890380D01*
X136174595Y-66890380D02*
X135841261Y-67890380D01*
X135507928Y-66890380D01*
X134603166Y-67795142D02*
X134650785Y-67842761D01*
X134793642Y-67890380D01*
X134888880Y-67890380D01*
X135031738Y-67842761D01*
X135126976Y-67747523D01*
X135174595Y-67652285D01*
X135222214Y-67461809D01*
X135222214Y-67318952D01*
X135174595Y-67128476D01*
X135126976Y-67033238D01*
X135031738Y-66938000D01*
X134888880Y-66890380D01*
X134793642Y-66890380D01*
X134650785Y-66938000D01*
X134603166Y-66985619D01*
X133841261Y-67366571D02*
X134174595Y-67366571D01*
X134174595Y-67890380D02*
X134174595Y-66890380D01*
X133698404Y-66890380D01*
X144698404Y-69540380D02*
X144698404Y-68873714D01*
X144698404Y-69064190D02*
X144650785Y-68968952D01*
X144603166Y-68921333D01*
X144507928Y-68873714D01*
X144412690Y-68873714D01*
X143698404Y-69492761D02*
X143793642Y-69540380D01*
X143984119Y-69540380D01*
X144079357Y-69492761D01*
X144126976Y-69397523D01*
X144126976Y-69016571D01*
X144079357Y-68921333D01*
X143984119Y-68873714D01*
X143793642Y-68873714D01*
X143698404Y-68921333D01*
X143650785Y-69016571D01*
X143650785Y-69111809D01*
X144126976Y-69207047D01*
X143317452Y-68873714D02*
X143079357Y-69540380D01*
X142841261Y-68873714D01*
X141507928Y-68540380D02*
X141412690Y-68540380D01*
X141317452Y-68588000D01*
X141269833Y-68635619D01*
X141222214Y-68730857D01*
X141174595Y-68921333D01*
X141174595Y-69159428D01*
X141222214Y-69349904D01*
X141269833Y-69445142D01*
X141317452Y-69492761D01*
X141412690Y-69540380D01*
X141507928Y-69540380D01*
X141603166Y-69492761D01*
X141650785Y-69445142D01*
X141698404Y-69349904D01*
X141746023Y-69159428D01*
X141746023Y-68921333D01*
X141698404Y-68730857D01*
X141650785Y-68635619D01*
X141603166Y-68588000D01*
X141507928Y-68540380D01*
X144746023Y-70285619D02*
X144698404Y-70238000D01*
X144603166Y-70190380D01*
X144365071Y-70190380D01*
X144269833Y-70238000D01*
X144222214Y-70285619D01*
X144174595Y-70380857D01*
X144174595Y-70476095D01*
X144222214Y-70618952D01*
X144793642Y-71190380D01*
X144174595Y-71190380D01*
X143555547Y-70190380D02*
X143460309Y-70190380D01*
X143365071Y-70238000D01*
X143317452Y-70285619D01*
X143269833Y-70380857D01*
X143222214Y-70571333D01*
X143222214Y-70809428D01*
X143269833Y-70999904D01*
X143317452Y-71095142D01*
X143365071Y-71142761D01*
X143460309Y-71190380D01*
X143555547Y-71190380D01*
X143650785Y-71142761D01*
X143698404Y-71095142D01*
X143746023Y-70999904D01*
X143793642Y-70809428D01*
X143793642Y-70571333D01*
X143746023Y-70380857D01*
X143698404Y-70285619D01*
X143650785Y-70238000D01*
X143555547Y-70190380D01*
X142269833Y-71190380D02*
X142841261Y-71190380D01*
X142555547Y-71190380D02*
X142555547Y-70190380D01*
X142650785Y-70333238D01*
X142746023Y-70428476D01*
X142841261Y-70476095D01*
X141698404Y-70618952D02*
X141793642Y-70571333D01*
X141841261Y-70523714D01*
X141888880Y-70428476D01*
X141888880Y-70380857D01*
X141841261Y-70285619D01*
X141793642Y-70238000D01*
X141698404Y-70190380D01*
X141507928Y-70190380D01*
X141412690Y-70238000D01*
X141365071Y-70285619D01*
X141317452Y-70380857D01*
X141317452Y-70428476D01*
X141365071Y-70523714D01*
X141412690Y-70571333D01*
X141507928Y-70618952D01*
X141698404Y-70618952D01*
X141793642Y-70666571D01*
X141841261Y-70714190D01*
X141888880Y-70809428D01*
X141888880Y-70999904D01*
X141841261Y-71095142D01*
X141793642Y-71142761D01*
X141698404Y-71190380D01*
X141507928Y-71190380D01*
X141412690Y-71142761D01*
X141365071Y-71095142D01*
X141317452Y-70999904D01*
X141317452Y-70809428D01*
X141365071Y-70714190D01*
X141412690Y-70666571D01*
X141507928Y-70618952D01*
X140888880Y-70809428D02*
X140126976Y-70809428D01*
X139460309Y-70190380D02*
X139365071Y-70190380D01*
X139269833Y-70238000D01*
X139222214Y-70285619D01*
X139174595Y-70380857D01*
X139126976Y-70571333D01*
X139126976Y-70809428D01*
X139174595Y-70999904D01*
X139222214Y-71095142D01*
X139269833Y-71142761D01*
X139365071Y-71190380D01*
X139460309Y-71190380D01*
X139555547Y-71142761D01*
X139603166Y-71095142D01*
X139650785Y-70999904D01*
X139698404Y-70809428D01*
X139698404Y-70571333D01*
X139650785Y-70380857D01*
X139603166Y-70285619D01*
X139555547Y-70238000D01*
X139460309Y-70190380D01*
X138555547Y-70618952D02*
X138650785Y-70571333D01*
X138698404Y-70523714D01*
X138746023Y-70428476D01*
X138746023Y-70380857D01*
X138698404Y-70285619D01*
X138650785Y-70238000D01*
X138555547Y-70190380D01*
X138365071Y-70190380D01*
X138269833Y-70238000D01*
X138222214Y-70285619D01*
X138174595Y-70380857D01*
X138174595Y-70428476D01*
X138222214Y-70523714D01*
X138269833Y-70571333D01*
X138365071Y-70618952D01*
X138555547Y-70618952D01*
X138650785Y-70666571D01*
X138698404Y-70714190D01*
X138746023Y-70809428D01*
X138746023Y-70999904D01*
X138698404Y-71095142D01*
X138650785Y-71142761D01*
X138555547Y-71190380D01*
X138365071Y-71190380D01*
X138269833Y-71142761D01*
X138222214Y-71095142D01*
X138174595Y-70999904D01*
X138174595Y-70809428D01*
X138222214Y-70714190D01*
X138269833Y-70666571D01*
X138365071Y-70618952D01*
X137746023Y-70809428D02*
X136984119Y-70809428D01*
X135984119Y-71190380D02*
X136555547Y-71190380D01*
X136269833Y-71190380D02*
X136269833Y-70190380D01*
X136365071Y-70333238D01*
X136460309Y-70428476D01*
X136555547Y-70476095D01*
X135412690Y-70618952D02*
X135507928Y-70571333D01*
X135555547Y-70523714D01*
X135603166Y-70428476D01*
X135603166Y-70380857D01*
X135555547Y-70285619D01*
X135507928Y-70238000D01*
X135412690Y-70190380D01*
X135222214Y-70190380D01*
X135126976Y-70238000D01*
X135079357Y-70285619D01*
X135031738Y-70380857D01*
X135031738Y-70428476D01*
X135079357Y-70523714D01*
X135126976Y-70571333D01*
X135222214Y-70618952D01*
X135412690Y-70618952D01*
X135507928Y-70666571D01*
X135555547Y-70714190D01*
X135603166Y-70809428D01*
X135603166Y-70999904D01*
X135555547Y-71095142D01*
X135507928Y-71142761D01*
X135412690Y-71190380D01*
X135222214Y-71190380D01*
X135126976Y-71142761D01*
X135079357Y-71095142D01*
X135031738Y-70999904D01*
X135031738Y-70809428D01*
X135079357Y-70714190D01*
X135126976Y-70666571D01*
X135222214Y-70618952D01*
D11*
X148650000Y-115630000D02*
X145990000Y-115630000D01*
X148650000Y-97790000D02*
X148650000Y-115630000D01*
X145990000Y-97790000D02*
X145990000Y-115630000D01*
X148650000Y-97790000D02*
X145990000Y-97790000D01*
X148650000Y-96520000D02*
X148650000Y-95190000D01*
X148650000Y-95190000D02*
X147320000Y-95190000D01*
X148650000Y-77530000D02*
X145990000Y-77530000D01*
X148650000Y-69850000D02*
X148650000Y-77530000D01*
X145990000Y-69850000D02*
X145990000Y-77530000D01*
X148650000Y-69850000D02*
X145990000Y-69850000D01*
X148650000Y-68580000D02*
X148650000Y-67250000D01*
X148650000Y-67250000D02*
X147320000Y-67250000D01*
X95310000Y-115630000D02*
X92650000Y-115630000D01*
X95310000Y-107950000D02*
X95310000Y-115630000D01*
X92650000Y-107950000D02*
X92650000Y-115630000D01*
X95310000Y-107950000D02*
X92650000Y-107950000D01*
X95310000Y-106680000D02*
X95310000Y-105350000D01*
X95310000Y-105350000D02*
X93980000Y-105350000D01*
X95310000Y-77530000D02*
X92650000Y-77530000D01*
X95310000Y-69850000D02*
X95310000Y-77530000D01*
X92650000Y-69850000D02*
X92650000Y-77530000D01*
X95310000Y-69850000D02*
X92650000Y-69850000D01*
X95310000Y-68580000D02*
X95310000Y-67250000D01*
X95310000Y-67250000D02*
X93980000Y-67250000D01*
D10*
X147653333Y-93642380D02*
X147653333Y-94356666D01*
X147700952Y-94499523D01*
X147796190Y-94594761D01*
X147939047Y-94642380D01*
X148034285Y-94642380D01*
X146748571Y-93975714D02*
X146748571Y-94642380D01*
X146986666Y-93594761D02*
X147224761Y-94309047D01*
X146605714Y-94309047D01*
X147653333Y-78192380D02*
X147653333Y-78906666D01*
X147700952Y-79049523D01*
X147796190Y-79144761D01*
X147939047Y-79192380D01*
X148034285Y-79192380D01*
X147272380Y-78192380D02*
X146653333Y-78192380D01*
X146986666Y-78573333D01*
X146843809Y-78573333D01*
X146748571Y-78620952D01*
X146700952Y-78668571D01*
X146653333Y-78763809D01*
X146653333Y-79001904D01*
X146700952Y-79097142D01*
X146748571Y-79144761D01*
X146843809Y-79192380D01*
X147129523Y-79192380D01*
X147224761Y-79144761D01*
X147272380Y-79097142D01*
X94313333Y-103802380D02*
X94313333Y-104516666D01*
X94360952Y-104659523D01*
X94456190Y-104754761D01*
X94599047Y-104802380D01*
X94694285Y-104802380D01*
X93884761Y-103897619D02*
X93837142Y-103850000D01*
X93741904Y-103802380D01*
X93503809Y-103802380D01*
X93408571Y-103850000D01*
X93360952Y-103897619D01*
X93313333Y-103992857D01*
X93313333Y-104088095D01*
X93360952Y-104230952D01*
X93932380Y-104802380D01*
X93313333Y-104802380D01*
X94313333Y-78192380D02*
X94313333Y-78906666D01*
X94360952Y-79049523D01*
X94456190Y-79144761D01*
X94599047Y-79192380D01*
X94694285Y-79192380D01*
X93313333Y-79192380D02*
X93884761Y-79192380D01*
X93599047Y-79192380D02*
X93599047Y-78192380D01*
X93694285Y-78335238D01*
X93789523Y-78430476D01*
X93884761Y-78478095D01*
M02*
