G04 #@! TF.GenerationSoftware,KiCad,Pcbnew,5.1.12-84ad8e8a86~92~ubuntu20.04.1*
G04 #@! TF.CreationDate,2021-12-08T10:45:37-05:00*
G04 #@! TF.ProjectId,2164_phasor_plug_in_board,32313634-5f70-4686-9173-6f725f706c75,0.1*
G04 #@! TF.SameCoordinates,Original*
G04 #@! TF.FileFunction,Legend,Bot*
G04 #@! TF.FilePolarity,Positive*
%FSLAX46Y46*%
G04 Gerber Fmt 4.6, Leading zero omitted, Abs format (unit mm)*
G04 Created by KiCad (PCBNEW 5.1.12-84ad8e8a86~92~ubuntu20.04.1) date 2021-12-08 10:45:37*
%MOMM*%
%LPD*%
G01*
G04 APERTURE LIST*
%ADD10C,0.150000*%
%ADD11C,0.120000*%
%ADD12C,1.702000*%
%ADD13C,1.542000*%
%ADD14O,1.802000X1.802000*%
G04 APERTURE END LIST*
D10*
X144873023Y-66541619D02*
X144825404Y-66494000D01*
X144730166Y-66446380D01*
X144492071Y-66446380D01*
X144396833Y-66494000D01*
X144349214Y-66541619D01*
X144301595Y-66636857D01*
X144301595Y-66732095D01*
X144349214Y-66874952D01*
X144920642Y-67446380D01*
X144301595Y-67446380D01*
X143349214Y-67446380D02*
X143920642Y-67446380D01*
X143634928Y-67446380D02*
X143634928Y-66446380D01*
X143730166Y-66589238D01*
X143825404Y-66684476D01*
X143920642Y-66732095D01*
X142492071Y-66446380D02*
X142682547Y-66446380D01*
X142777785Y-66494000D01*
X142825404Y-66541619D01*
X142920642Y-66684476D01*
X142968261Y-66874952D01*
X142968261Y-67255904D01*
X142920642Y-67351142D01*
X142873023Y-67398761D01*
X142777785Y-67446380D01*
X142587309Y-67446380D01*
X142492071Y-67398761D01*
X142444452Y-67351142D01*
X142396833Y-67255904D01*
X142396833Y-67017809D01*
X142444452Y-66922571D01*
X142492071Y-66874952D01*
X142587309Y-66827333D01*
X142777785Y-66827333D01*
X142873023Y-66874952D01*
X142920642Y-66922571D01*
X142968261Y-67017809D01*
X141539690Y-66779714D02*
X141539690Y-67446380D01*
X141777785Y-66398761D02*
X142015880Y-67113047D01*
X141396833Y-67113047D01*
X140253976Y-66779714D02*
X140253976Y-67779714D01*
X140253976Y-66827333D02*
X140158738Y-66779714D01*
X139968261Y-66779714D01*
X139873023Y-66827333D01*
X139825404Y-66874952D01*
X139777785Y-66970190D01*
X139777785Y-67255904D01*
X139825404Y-67351142D01*
X139873023Y-67398761D01*
X139968261Y-67446380D01*
X140158738Y-67446380D01*
X140253976Y-67398761D01*
X139349214Y-67446380D02*
X139349214Y-66446380D01*
X138920642Y-67446380D02*
X138920642Y-66922571D01*
X138968261Y-66827333D01*
X139063500Y-66779714D01*
X139206357Y-66779714D01*
X139301595Y-66827333D01*
X139349214Y-66874952D01*
X138015880Y-67446380D02*
X138015880Y-66922571D01*
X138063500Y-66827333D01*
X138158738Y-66779714D01*
X138349214Y-66779714D01*
X138444452Y-66827333D01*
X138015880Y-67398761D02*
X138111119Y-67446380D01*
X138349214Y-67446380D01*
X138444452Y-67398761D01*
X138492071Y-67303523D01*
X138492071Y-67208285D01*
X138444452Y-67113047D01*
X138349214Y-67065428D01*
X138111119Y-67065428D01*
X138015880Y-67017809D01*
X137587309Y-67398761D02*
X137492071Y-67446380D01*
X137301595Y-67446380D01*
X137206357Y-67398761D01*
X137158738Y-67303523D01*
X137158738Y-67255904D01*
X137206357Y-67160666D01*
X137301595Y-67113047D01*
X137444452Y-67113047D01*
X137539690Y-67065428D01*
X137587309Y-66970190D01*
X137587309Y-66922571D01*
X137539690Y-66827333D01*
X137444452Y-66779714D01*
X137301595Y-66779714D01*
X137206357Y-66827333D01*
X136349214Y-67398761D02*
X136444452Y-67446380D01*
X136634928Y-67446380D01*
X136730166Y-67398761D01*
X136777785Y-67303523D01*
X136777785Y-66922571D01*
X136730166Y-66827333D01*
X136634928Y-66779714D01*
X136444452Y-66779714D01*
X136349214Y-66827333D01*
X136301595Y-66922571D01*
X136301595Y-67017809D01*
X136777785Y-67113047D01*
X135158738Y-67398761D02*
X135063500Y-67446380D01*
X134873023Y-67446380D01*
X134777785Y-67398761D01*
X134730166Y-67303523D01*
X134730166Y-67255904D01*
X134777785Y-67160666D01*
X134873023Y-67113047D01*
X135015880Y-67113047D01*
X135111119Y-67065428D01*
X135158738Y-66970190D01*
X135158738Y-66922571D01*
X135111119Y-66827333D01*
X135015880Y-66779714D01*
X134873023Y-66779714D01*
X134777785Y-66827333D01*
X134301595Y-67446380D02*
X134301595Y-66446380D01*
X133873023Y-67446380D02*
X133873023Y-66922571D01*
X133920642Y-66827333D01*
X134015880Y-66779714D01*
X134158738Y-66779714D01*
X134253976Y-66827333D01*
X134301595Y-66874952D01*
X133396833Y-67446380D02*
X133396833Y-66779714D01*
X133396833Y-66446380D02*
X133444452Y-66494000D01*
X133396833Y-66541619D01*
X133349214Y-66494000D01*
X133396833Y-66446380D01*
X133396833Y-66541619D01*
X133063500Y-66779714D02*
X132682547Y-66779714D01*
X132920642Y-67446380D02*
X132920642Y-66589238D01*
X132873023Y-66494000D01*
X132777785Y-66446380D01*
X132682547Y-66446380D01*
X132492071Y-66779714D02*
X132111119Y-66779714D01*
X132349214Y-66446380D02*
X132349214Y-67303523D01*
X132301595Y-67398761D01*
X132206357Y-67446380D01*
X132111119Y-67446380D01*
X131396833Y-67398761D02*
X131492071Y-67446380D01*
X131682547Y-67446380D01*
X131777785Y-67398761D01*
X131825404Y-67303523D01*
X131825404Y-66922571D01*
X131777785Y-66827333D01*
X131682547Y-66779714D01*
X131492071Y-66779714D01*
X131396833Y-66827333D01*
X131349214Y-66922571D01*
X131349214Y-67017809D01*
X131825404Y-67113047D01*
X130920642Y-67446380D02*
X130920642Y-66779714D01*
X130920642Y-66970190D02*
X130873023Y-66874952D01*
X130825404Y-66827333D01*
X130730166Y-66779714D01*
X130634928Y-66779714D01*
X144825404Y-69096380D02*
X144825404Y-68429714D01*
X144825404Y-68620190D02*
X144777785Y-68524952D01*
X144730166Y-68477333D01*
X144634928Y-68429714D01*
X144539690Y-68429714D01*
X143825404Y-69048761D02*
X143920642Y-69096380D01*
X144111119Y-69096380D01*
X144206357Y-69048761D01*
X144253976Y-68953523D01*
X144253976Y-68572571D01*
X144206357Y-68477333D01*
X144111119Y-68429714D01*
X143920642Y-68429714D01*
X143825404Y-68477333D01*
X143777785Y-68572571D01*
X143777785Y-68667809D01*
X144253976Y-68763047D01*
X143444452Y-68429714D02*
X143206357Y-69096380D01*
X142968261Y-68429714D01*
X141634928Y-68096380D02*
X141539690Y-68096380D01*
X141444452Y-68144000D01*
X141396833Y-68191619D01*
X141349214Y-68286857D01*
X141301595Y-68477333D01*
X141301595Y-68715428D01*
X141349214Y-68905904D01*
X141396833Y-69001142D01*
X141444452Y-69048761D01*
X141539690Y-69096380D01*
X141634928Y-69096380D01*
X141730166Y-69048761D01*
X141777785Y-69001142D01*
X141825404Y-68905904D01*
X141873023Y-68715428D01*
X141873023Y-68477333D01*
X141825404Y-68286857D01*
X141777785Y-68191619D01*
X141730166Y-68144000D01*
X141634928Y-68096380D01*
X140873023Y-69001142D02*
X140825404Y-69048761D01*
X140873023Y-69096380D01*
X140920642Y-69048761D01*
X140873023Y-69001142D01*
X140873023Y-69096380D01*
X139873023Y-69096380D02*
X140444452Y-69096380D01*
X140158738Y-69096380D02*
X140158738Y-68096380D01*
X140253976Y-68239238D01*
X140349214Y-68334476D01*
X140444452Y-68382095D01*
X144873023Y-69841619D02*
X144825404Y-69794000D01*
X144730166Y-69746380D01*
X144492071Y-69746380D01*
X144396833Y-69794000D01*
X144349214Y-69841619D01*
X144301595Y-69936857D01*
X144301595Y-70032095D01*
X144349214Y-70174952D01*
X144920642Y-70746380D01*
X144301595Y-70746380D01*
X143682547Y-69746380D02*
X143587309Y-69746380D01*
X143492071Y-69794000D01*
X143444452Y-69841619D01*
X143396833Y-69936857D01*
X143349214Y-70127333D01*
X143349214Y-70365428D01*
X143396833Y-70555904D01*
X143444452Y-70651142D01*
X143492071Y-70698761D01*
X143587309Y-70746380D01*
X143682547Y-70746380D01*
X143777785Y-70698761D01*
X143825404Y-70651142D01*
X143873023Y-70555904D01*
X143920642Y-70365428D01*
X143920642Y-70127333D01*
X143873023Y-69936857D01*
X143825404Y-69841619D01*
X143777785Y-69794000D01*
X143682547Y-69746380D01*
X142968261Y-69841619D02*
X142920642Y-69794000D01*
X142825404Y-69746380D01*
X142587309Y-69746380D01*
X142492071Y-69794000D01*
X142444452Y-69841619D01*
X142396833Y-69936857D01*
X142396833Y-70032095D01*
X142444452Y-70174952D01*
X143015880Y-70746380D01*
X142396833Y-70746380D01*
X141444452Y-70746380D02*
X142015880Y-70746380D01*
X141730166Y-70746380D02*
X141730166Y-69746380D01*
X141825404Y-69889238D01*
X141920642Y-69984476D01*
X142015880Y-70032095D01*
X141015880Y-70365428D02*
X140253976Y-70365428D01*
X139253976Y-70746380D02*
X139825404Y-70746380D01*
X139539690Y-70746380D02*
X139539690Y-69746380D01*
X139634928Y-69889238D01*
X139730166Y-69984476D01*
X139825404Y-70032095D01*
X138873023Y-69841619D02*
X138825404Y-69794000D01*
X138730166Y-69746380D01*
X138492071Y-69746380D01*
X138396833Y-69794000D01*
X138349214Y-69841619D01*
X138301595Y-69936857D01*
X138301595Y-70032095D01*
X138349214Y-70174952D01*
X138920642Y-70746380D01*
X138301595Y-70746380D01*
X137873023Y-70365428D02*
X137111119Y-70365428D01*
X136444452Y-69746380D02*
X136349214Y-69746380D01*
X136253976Y-69794000D01*
X136206357Y-69841619D01*
X136158738Y-69936857D01*
X136111119Y-70127333D01*
X136111119Y-70365428D01*
X136158738Y-70555904D01*
X136206357Y-70651142D01*
X136253976Y-70698761D01*
X136349214Y-70746380D01*
X136444452Y-70746380D01*
X136539690Y-70698761D01*
X136587309Y-70651142D01*
X136634928Y-70555904D01*
X136682547Y-70365428D01*
X136682547Y-70127333D01*
X136634928Y-69936857D01*
X136587309Y-69841619D01*
X136539690Y-69794000D01*
X136444452Y-69746380D01*
X135539690Y-70174952D02*
X135634928Y-70127333D01*
X135682547Y-70079714D01*
X135730166Y-69984476D01*
X135730166Y-69936857D01*
X135682547Y-69841619D01*
X135634928Y-69794000D01*
X135539690Y-69746380D01*
X135349214Y-69746380D01*
X135253976Y-69794000D01*
X135206357Y-69841619D01*
X135158738Y-69936857D01*
X135158738Y-69984476D01*
X135206357Y-70079714D01*
X135253976Y-70127333D01*
X135349214Y-70174952D01*
X135539690Y-70174952D01*
X135634928Y-70222571D01*
X135682547Y-70270190D01*
X135730166Y-70365428D01*
X135730166Y-70555904D01*
X135682547Y-70651142D01*
X135634928Y-70698761D01*
X135539690Y-70746380D01*
X135349214Y-70746380D01*
X135253976Y-70698761D01*
X135206357Y-70651142D01*
X135158738Y-70555904D01*
X135158738Y-70365428D01*
X135206357Y-70270190D01*
X135253976Y-70222571D01*
X135349214Y-70174952D01*
X144396833Y-71729714D02*
X144396833Y-72539238D01*
X144444452Y-72634476D01*
X144492071Y-72682095D01*
X144587309Y-72729714D01*
X144730166Y-72729714D01*
X144825404Y-72682095D01*
X144396833Y-72348761D02*
X144492071Y-72396380D01*
X144682547Y-72396380D01*
X144777785Y-72348761D01*
X144825404Y-72301142D01*
X144873023Y-72205904D01*
X144873023Y-71920190D01*
X144825404Y-71824952D01*
X144777785Y-71777333D01*
X144682547Y-71729714D01*
X144492071Y-71729714D01*
X144396833Y-71777333D01*
X143920642Y-72396380D02*
X143920642Y-71729714D01*
X143920642Y-71396380D02*
X143968261Y-71444000D01*
X143920642Y-71491619D01*
X143873023Y-71444000D01*
X143920642Y-71396380D01*
X143920642Y-71491619D01*
X143587309Y-71729714D02*
X143206357Y-71729714D01*
X143444452Y-71396380D02*
X143444452Y-72253523D01*
X143396833Y-72348761D01*
X143301595Y-72396380D01*
X143206357Y-72396380D01*
X142873023Y-72396380D02*
X142873023Y-71396380D01*
X142444452Y-72396380D02*
X142444452Y-71872571D01*
X142492071Y-71777333D01*
X142587309Y-71729714D01*
X142730166Y-71729714D01*
X142825404Y-71777333D01*
X142873023Y-71824952D01*
X141539690Y-71729714D02*
X141539690Y-72396380D01*
X141968261Y-71729714D02*
X141968261Y-72253523D01*
X141920642Y-72348761D01*
X141825404Y-72396380D01*
X141682547Y-72396380D01*
X141587309Y-72348761D01*
X141539690Y-72301142D01*
X141063500Y-72396380D02*
X141063500Y-71396380D01*
X141063500Y-71777333D02*
X140968261Y-71729714D01*
X140777785Y-71729714D01*
X140682547Y-71777333D01*
X140634928Y-71824952D01*
X140587309Y-71920190D01*
X140587309Y-72205904D01*
X140634928Y-72301142D01*
X140682547Y-72348761D01*
X140777785Y-72396380D01*
X140968261Y-72396380D01*
X141063500Y-72348761D01*
X140158738Y-72301142D02*
X140111119Y-72348761D01*
X140158738Y-72396380D01*
X140206357Y-72348761D01*
X140158738Y-72301142D01*
X140158738Y-72396380D01*
X139253976Y-72348761D02*
X139349214Y-72396380D01*
X139539690Y-72396380D01*
X139634928Y-72348761D01*
X139682547Y-72301142D01*
X139730166Y-72205904D01*
X139730166Y-71920190D01*
X139682547Y-71824952D01*
X139634928Y-71777333D01*
X139539690Y-71729714D01*
X139349214Y-71729714D01*
X139253976Y-71777333D01*
X138682547Y-72396380D02*
X138777785Y-72348761D01*
X138825404Y-72301142D01*
X138873023Y-72205904D01*
X138873023Y-71920190D01*
X138825404Y-71824952D01*
X138777785Y-71777333D01*
X138682547Y-71729714D01*
X138539690Y-71729714D01*
X138444452Y-71777333D01*
X138396833Y-71824952D01*
X138349214Y-71920190D01*
X138349214Y-72205904D01*
X138396833Y-72301142D01*
X138444452Y-72348761D01*
X138539690Y-72396380D01*
X138682547Y-72396380D01*
X137920642Y-72396380D02*
X137920642Y-71729714D01*
X137920642Y-71824952D02*
X137873023Y-71777333D01*
X137777785Y-71729714D01*
X137634928Y-71729714D01*
X137539690Y-71777333D01*
X137492071Y-71872571D01*
X137492071Y-72396380D01*
X137492071Y-71872571D02*
X137444452Y-71777333D01*
X137349214Y-71729714D01*
X137206357Y-71729714D01*
X137111119Y-71777333D01*
X137063500Y-71872571D01*
X137063500Y-72396380D01*
X135873023Y-71348761D02*
X136730166Y-72634476D01*
X135253976Y-71396380D02*
X135253976Y-72110666D01*
X135301595Y-72253523D01*
X135396833Y-72348761D01*
X135539690Y-72396380D01*
X135634928Y-72396380D01*
X134634928Y-72396380D02*
X134730166Y-72348761D01*
X134777785Y-72301142D01*
X134825404Y-72205904D01*
X134825404Y-71920190D01*
X134777785Y-71824952D01*
X134730166Y-71777333D01*
X134634928Y-71729714D01*
X134492071Y-71729714D01*
X134396833Y-71777333D01*
X134349214Y-71824952D01*
X134301595Y-71920190D01*
X134301595Y-72205904D01*
X134349214Y-72301142D01*
X134396833Y-72348761D01*
X134492071Y-72396380D01*
X134634928Y-72396380D01*
X133873023Y-72396380D02*
X133873023Y-71729714D01*
X133873023Y-71920190D02*
X133825404Y-71824952D01*
X133777785Y-71777333D01*
X133682547Y-71729714D01*
X133587309Y-71729714D01*
X132825404Y-72396380D02*
X132825404Y-71396380D01*
X132825404Y-72348761D02*
X132920642Y-72396380D01*
X133111119Y-72396380D01*
X133206357Y-72348761D01*
X133253976Y-72301142D01*
X133301595Y-72205904D01*
X133301595Y-71920190D01*
X133253976Y-71824952D01*
X133206357Y-71777333D01*
X133111119Y-71729714D01*
X132920642Y-71729714D01*
X132825404Y-71777333D01*
X131920642Y-72396380D02*
X131920642Y-71872571D01*
X131968261Y-71777333D01*
X132063500Y-71729714D01*
X132253976Y-71729714D01*
X132349214Y-71777333D01*
X131920642Y-72348761D02*
X132015880Y-72396380D01*
X132253976Y-72396380D01*
X132349214Y-72348761D01*
X132396833Y-72253523D01*
X132396833Y-72158285D01*
X132349214Y-72063047D01*
X132253976Y-72015428D01*
X132015880Y-72015428D01*
X131920642Y-71967809D01*
X131444452Y-71729714D02*
X131444452Y-72396380D01*
X131444452Y-71824952D02*
X131396833Y-71777333D01*
X131301595Y-71729714D01*
X131158738Y-71729714D01*
X131063500Y-71777333D01*
X131015880Y-71872571D01*
X131015880Y-72396380D01*
X130587309Y-72110666D02*
X130111119Y-72110666D01*
X130682547Y-72396380D02*
X130349214Y-71396380D01*
X130015880Y-72396380D01*
X129253976Y-72348761D02*
X129349214Y-72396380D01*
X129539690Y-72396380D01*
X129634928Y-72348761D01*
X129682547Y-72301142D01*
X129730166Y-72205904D01*
X129730166Y-71920190D01*
X129682547Y-71824952D01*
X129634928Y-71777333D01*
X129539690Y-71729714D01*
X129349214Y-71729714D01*
X129253976Y-71777333D01*
X128444452Y-72348761D02*
X128539690Y-72396380D01*
X128730166Y-72396380D01*
X128825404Y-72348761D01*
X128873023Y-72253523D01*
X128873023Y-71872571D01*
X128825404Y-71777333D01*
X128730166Y-71729714D01*
X128539690Y-71729714D01*
X128444452Y-71777333D01*
X128396833Y-71872571D01*
X128396833Y-71967809D01*
X128873023Y-72063047D01*
X128111119Y-71729714D02*
X127730166Y-71729714D01*
X127968261Y-71396380D02*
X127968261Y-72253523D01*
X127920642Y-72348761D01*
X127825404Y-72396380D01*
X127730166Y-72396380D01*
X127253976Y-72396380D02*
X127349214Y-72348761D01*
X127396833Y-72301142D01*
X127444452Y-72205904D01*
X127444452Y-71920190D01*
X127396833Y-71824952D01*
X127349214Y-71777333D01*
X127253976Y-71729714D01*
X127111119Y-71729714D01*
X127015880Y-71777333D01*
X126968261Y-71824952D01*
X126920642Y-71920190D01*
X126920642Y-72205904D01*
X126968261Y-72301142D01*
X127015880Y-72348761D01*
X127111119Y-72396380D01*
X127253976Y-72396380D01*
X125777785Y-71348761D02*
X126634928Y-72634476D01*
X125587309Y-71396380D02*
X125253976Y-72396380D01*
X124920642Y-71396380D01*
X124015880Y-72301142D02*
X124063500Y-72348761D01*
X124206357Y-72396380D01*
X124301595Y-72396380D01*
X124444452Y-72348761D01*
X124539690Y-72253523D01*
X124587309Y-72158285D01*
X124634928Y-71967809D01*
X124634928Y-71824952D01*
X124587309Y-71634476D01*
X124539690Y-71539238D01*
X124444452Y-71444000D01*
X124301595Y-71396380D01*
X124206357Y-71396380D01*
X124063500Y-71444000D01*
X124015880Y-71491619D01*
X123253976Y-71872571D02*
X123587309Y-71872571D01*
X123587309Y-72396380D02*
X123587309Y-71396380D01*
X123111119Y-71396380D01*
X122968261Y-72491619D02*
X122206357Y-72491619D01*
X121968261Y-71729714D02*
X121968261Y-72729714D01*
X121968261Y-71777333D02*
X121873023Y-71729714D01*
X121682547Y-71729714D01*
X121587309Y-71777333D01*
X121539690Y-71824952D01*
X121492071Y-71920190D01*
X121492071Y-72205904D01*
X121539690Y-72301142D01*
X121587309Y-72348761D01*
X121682547Y-72396380D01*
X121873023Y-72396380D01*
X121968261Y-72348761D01*
X120920642Y-72396380D02*
X121015880Y-72348761D01*
X121063500Y-72253523D01*
X121063500Y-71396380D01*
X120111119Y-71729714D02*
X120111119Y-72396380D01*
X120539690Y-71729714D02*
X120539690Y-72253523D01*
X120492071Y-72348761D01*
X120396833Y-72396380D01*
X120253976Y-72396380D01*
X120158738Y-72348761D01*
X120111119Y-72301142D01*
X119206357Y-71729714D02*
X119206357Y-72539238D01*
X119253976Y-72634476D01*
X119301595Y-72682095D01*
X119396833Y-72729714D01*
X119539690Y-72729714D01*
X119634928Y-72682095D01*
X119206357Y-72348761D02*
X119301595Y-72396380D01*
X119492071Y-72396380D01*
X119587309Y-72348761D01*
X119634928Y-72301142D01*
X119682547Y-72205904D01*
X119682547Y-71920190D01*
X119634928Y-71824952D01*
X119587309Y-71777333D01*
X119492071Y-71729714D01*
X119301595Y-71729714D01*
X119206357Y-71777333D01*
X118968261Y-72491619D02*
X118206357Y-72491619D01*
X117968261Y-72396380D02*
X117968261Y-71729714D01*
X117968261Y-71396380D02*
X118015880Y-71444000D01*
X117968261Y-71491619D01*
X117920642Y-71444000D01*
X117968261Y-71396380D01*
X117968261Y-71491619D01*
X117492071Y-71729714D02*
X117492071Y-72396380D01*
X117492071Y-71824952D02*
X117444452Y-71777333D01*
X117349214Y-71729714D01*
X117206357Y-71729714D01*
X117111119Y-71777333D01*
X117063500Y-71872571D01*
X117063500Y-72396380D01*
X116825404Y-72491619D02*
X116063500Y-72491619D01*
X115825404Y-72396380D02*
X115825404Y-71396380D01*
X115825404Y-71777333D02*
X115730166Y-71729714D01*
X115539690Y-71729714D01*
X115444452Y-71777333D01*
X115396833Y-71824952D01*
X115349214Y-71920190D01*
X115349214Y-72205904D01*
X115396833Y-72301142D01*
X115444452Y-72348761D01*
X115539690Y-72396380D01*
X115730166Y-72396380D01*
X115825404Y-72348761D01*
X114777785Y-72396380D02*
X114873023Y-72348761D01*
X114920642Y-72301142D01*
X114968261Y-72205904D01*
X114968261Y-71920190D01*
X114920642Y-71824952D01*
X114873023Y-71777333D01*
X114777785Y-71729714D01*
X114634928Y-71729714D01*
X114539690Y-71777333D01*
X114492071Y-71824952D01*
X114444452Y-71920190D01*
X114444452Y-72205904D01*
X114492071Y-72301142D01*
X114539690Y-72348761D01*
X114634928Y-72396380D01*
X114777785Y-72396380D01*
X113587309Y-72396380D02*
X113587309Y-71872571D01*
X113634928Y-71777333D01*
X113730166Y-71729714D01*
X113920642Y-71729714D01*
X114015880Y-71777333D01*
X113587309Y-72348761D02*
X113682547Y-72396380D01*
X113920642Y-72396380D01*
X114015880Y-72348761D01*
X114063500Y-72253523D01*
X114063500Y-72158285D01*
X114015880Y-72063047D01*
X113920642Y-72015428D01*
X113682547Y-72015428D01*
X113587309Y-71967809D01*
X113111119Y-72396380D02*
X113111119Y-71729714D01*
X113111119Y-71920190D02*
X113063500Y-71824952D01*
X113015880Y-71777333D01*
X112920642Y-71729714D01*
X112825404Y-71729714D01*
X112063500Y-72396380D02*
X112063500Y-71396380D01*
X112063500Y-72348761D02*
X112158738Y-72396380D01*
X112349214Y-72396380D01*
X112444452Y-72348761D01*
X112492071Y-72301142D01*
X112539690Y-72205904D01*
X112539690Y-71920190D01*
X112492071Y-71824952D01*
X112444452Y-71777333D01*
X112349214Y-71729714D01*
X112158738Y-71729714D01*
X112063500Y-71777333D01*
X111634928Y-72348761D02*
X111539690Y-72396380D01*
X111349214Y-72396380D01*
X111253976Y-72348761D01*
X111206357Y-72253523D01*
X111206357Y-72205904D01*
X111253976Y-72110666D01*
X111349214Y-72063047D01*
X111492071Y-72063047D01*
X111587309Y-72015428D01*
X111634928Y-71920190D01*
X111634928Y-71872571D01*
X111587309Y-71777333D01*
X111492071Y-71729714D01*
X111349214Y-71729714D01*
X111253976Y-71777333D01*
D11*
X148650000Y-95190000D02*
X147320000Y-95190000D01*
X148650000Y-96520000D02*
X148650000Y-95190000D01*
X148650000Y-97790000D02*
X145990000Y-97790000D01*
X145990000Y-97790000D02*
X145990000Y-115630000D01*
X148650000Y-97790000D02*
X148650000Y-115630000D01*
X148650000Y-115630000D02*
X145990000Y-115630000D01*
X148650000Y-67250000D02*
X147320000Y-67250000D01*
X148650000Y-68580000D02*
X148650000Y-67250000D01*
X148650000Y-69850000D02*
X145990000Y-69850000D01*
X145990000Y-69850000D02*
X145990000Y-77530000D01*
X148650000Y-69850000D02*
X148650000Y-77530000D01*
X148650000Y-77530000D02*
X145990000Y-77530000D01*
X95310000Y-105350000D02*
X93980000Y-105350000D01*
X95310000Y-106680000D02*
X95310000Y-105350000D01*
X95310000Y-107950000D02*
X92650000Y-107950000D01*
X92650000Y-107950000D02*
X92650000Y-115630000D01*
X95310000Y-107950000D02*
X95310000Y-115630000D01*
X95310000Y-115630000D02*
X92650000Y-115630000D01*
X95310000Y-67250000D02*
X93980000Y-67250000D01*
X95310000Y-68580000D02*
X95310000Y-67250000D01*
X95310000Y-69850000D02*
X92650000Y-69850000D01*
X92650000Y-69850000D02*
X92650000Y-77530000D01*
X95310000Y-69850000D02*
X95310000Y-77530000D01*
X95310000Y-77530000D02*
X92650000Y-77530000D01*
D10*
X147653333Y-93642380D02*
X147653333Y-94356666D01*
X147700952Y-94499523D01*
X147796190Y-94594761D01*
X147939047Y-94642380D01*
X148034285Y-94642380D01*
X146748571Y-93975714D02*
X146748571Y-94642380D01*
X146986666Y-93594761D02*
X147224761Y-94309047D01*
X146605714Y-94309047D01*
X147653333Y-78192380D02*
X147653333Y-78906666D01*
X147700952Y-79049523D01*
X147796190Y-79144761D01*
X147939047Y-79192380D01*
X148034285Y-79192380D01*
X147272380Y-78192380D02*
X146653333Y-78192380D01*
X146986666Y-78573333D01*
X146843809Y-78573333D01*
X146748571Y-78620952D01*
X146700952Y-78668571D01*
X146653333Y-78763809D01*
X146653333Y-79001904D01*
X146700952Y-79097142D01*
X146748571Y-79144761D01*
X146843809Y-79192380D01*
X147129523Y-79192380D01*
X147224761Y-79144761D01*
X147272380Y-79097142D01*
X94313333Y-103802380D02*
X94313333Y-104516666D01*
X94360952Y-104659523D01*
X94456190Y-104754761D01*
X94599047Y-104802380D01*
X94694285Y-104802380D01*
X93884761Y-103897619D02*
X93837142Y-103850000D01*
X93741904Y-103802380D01*
X93503809Y-103802380D01*
X93408571Y-103850000D01*
X93360952Y-103897619D01*
X93313333Y-103992857D01*
X93313333Y-104088095D01*
X93360952Y-104230952D01*
X93932380Y-104802380D01*
X93313333Y-104802380D01*
X94313333Y-78192380D02*
X94313333Y-78906666D01*
X94360952Y-79049523D01*
X94456190Y-79144761D01*
X94599047Y-79192380D01*
X94694285Y-79192380D01*
X93313333Y-79192380D02*
X93884761Y-79192380D01*
X93599047Y-79192380D02*
X93599047Y-78192380D01*
X93694285Y-78335238D01*
X93789523Y-78430476D01*
X93884761Y-78478095D01*
%LPC*%
D12*
X143256000Y-78406000D03*
X143256000Y-73406000D03*
D13*
X104775000Y-106680000D03*
X104775000Y-109220000D03*
X104775000Y-111760000D03*
X99060000Y-106680000D03*
X99060000Y-109220000D03*
X99060000Y-111760000D03*
X110490000Y-106680000D03*
X110490000Y-109220000D03*
X110490000Y-111760000D03*
D14*
X147320000Y-114300000D03*
X147320000Y-111760000D03*
X147320000Y-109220000D03*
X147320000Y-106680000D03*
X147320000Y-104140000D03*
X147320000Y-101600000D03*
X147320000Y-99060000D03*
G36*
G01*
X148221000Y-95670000D02*
X148221000Y-97370000D01*
G75*
G02*
X148170000Y-97421000I-51000J0D01*
G01*
X146470000Y-97421000D01*
G75*
G02*
X146419000Y-97370000I0J51000D01*
G01*
X146419000Y-95670000D01*
G75*
G02*
X146470000Y-95619000I51000J0D01*
G01*
X148170000Y-95619000D01*
G75*
G02*
X148221000Y-95670000I0J-51000D01*
G01*
G37*
X147320000Y-76200000D03*
X147320000Y-73660000D03*
X147320000Y-71120000D03*
G36*
G01*
X148221000Y-67730000D02*
X148221000Y-69430000D01*
G75*
G02*
X148170000Y-69481000I-51000J0D01*
G01*
X146470000Y-69481000D01*
G75*
G02*
X146419000Y-69430000I0J51000D01*
G01*
X146419000Y-67730000D01*
G75*
G02*
X146470000Y-67679000I51000J0D01*
G01*
X148170000Y-67679000D01*
G75*
G02*
X148221000Y-67730000I0J-51000D01*
G01*
G37*
X93980000Y-114300000D03*
X93980000Y-111760000D03*
X93980000Y-109220000D03*
G36*
G01*
X94881000Y-105830000D02*
X94881000Y-107530000D01*
G75*
G02*
X94830000Y-107581000I-51000J0D01*
G01*
X93130000Y-107581000D01*
G75*
G02*
X93079000Y-107530000I0J51000D01*
G01*
X93079000Y-105830000D01*
G75*
G02*
X93130000Y-105779000I51000J0D01*
G01*
X94830000Y-105779000D01*
G75*
G02*
X94881000Y-105830000I0J-51000D01*
G01*
G37*
X93980000Y-76200000D03*
X93980000Y-73660000D03*
X93980000Y-71120000D03*
G36*
G01*
X94881000Y-67730000D02*
X94881000Y-69430000D01*
G75*
G02*
X94830000Y-69481000I-51000J0D01*
G01*
X93130000Y-69481000D01*
G75*
G02*
X93079000Y-69430000I0J51000D01*
G01*
X93079000Y-67730000D01*
G75*
G02*
X93130000Y-67679000I51000J0D01*
G01*
X94830000Y-67679000D01*
G75*
G02*
X94881000Y-67730000I0J-51000D01*
G01*
G37*
M02*
