G04 #@! TF.GenerationSoftware,KiCad,Pcbnew,5.1.12-84ad8e8a86~92~ubuntu20.04.1*
G04 #@! TF.CreationDate,2021-12-08T10:45:37-05:00*
G04 #@! TF.ProjectId,2164_phasor_plug_in_board,32313634-5f70-4686-9173-6f725f706c75,0.1*
G04 #@! TF.SameCoordinates,Original*
G04 #@! TF.FileFunction,Copper,L3,Inr*
G04 #@! TF.FilePolarity,Positive*
%FSLAX46Y46*%
G04 Gerber Fmt 4.6, Leading zero omitted, Abs format (unit mm)*
G04 Created by KiCad (PCBNEW 5.1.12-84ad8e8a86~92~ubuntu20.04.1) date 2021-12-08 10:45:37*
%MOMM*%
%LPD*%
G01*
G04 APERTURE LIST*
G04 #@! TA.AperFunction,ComponentPad*
%ADD10C,1.600000*%
G04 #@! TD*
G04 #@! TA.AperFunction,ComponentPad*
%ADD11C,1.440000*%
G04 #@! TD*
G04 #@! TA.AperFunction,ComponentPad*
%ADD12O,1.700000X1.700000*%
G04 #@! TD*
G04 #@! TA.AperFunction,ComponentPad*
%ADD13R,1.700000X1.700000*%
G04 #@! TD*
G04 #@! TA.AperFunction,ViaPad*
%ADD14C,0.800000*%
G04 #@! TD*
G04 #@! TA.AperFunction,Conductor*
%ADD15C,0.750000*%
G04 #@! TD*
G04 #@! TA.AperFunction,Conductor*
%ADD16C,0.400000*%
G04 #@! TD*
G04 APERTURE END LIST*
D10*
X143256000Y-78406000D03*
X143256000Y-73406000D03*
D11*
X104775000Y-106680000D03*
X104775000Y-109220000D03*
X104775000Y-111760000D03*
X99060000Y-106680000D03*
X99060000Y-109220000D03*
X99060000Y-111760000D03*
X110490000Y-106680000D03*
X110490000Y-109220000D03*
X110490000Y-111760000D03*
D12*
X147320000Y-114300000D03*
X147320000Y-111760000D03*
X147320000Y-109220000D03*
X147320000Y-106680000D03*
X147320000Y-104140000D03*
X147320000Y-101600000D03*
X147320000Y-99060000D03*
D13*
X147320000Y-96520000D03*
D12*
X147320000Y-76200000D03*
X147320000Y-73660000D03*
X147320000Y-71120000D03*
D13*
X147320000Y-68580000D03*
D12*
X93980000Y-114300000D03*
X93980000Y-111760000D03*
X93980000Y-109220000D03*
D13*
X93980000Y-106680000D03*
D12*
X93980000Y-76200000D03*
X93980000Y-73660000D03*
X93980000Y-71120000D03*
D13*
X93980000Y-68580000D03*
D14*
X113665000Y-91694000D03*
X113538000Y-86614000D03*
X137795000Y-91694000D03*
X137795000Y-86614000D03*
X101346000Y-85090000D03*
X101219000Y-89916000D03*
X115697000Y-89916000D03*
X115697000Y-85090000D03*
X125222000Y-85090000D03*
X125222000Y-89916000D03*
X139700000Y-85090000D03*
X92964000Y-82550000D03*
X92964000Y-92583000D03*
X97155000Y-92202000D03*
X97155000Y-82677000D03*
X107950000Y-77978000D03*
X131318000Y-77978000D03*
X104394000Y-99187000D03*
X109982000Y-99314000D03*
X129540000Y-97790000D03*
X121539000Y-82550000D03*
X121285000Y-92329000D03*
X135470990Y-97790000D03*
X126746000Y-106934000D03*
X124206000Y-113411000D03*
X140462000Y-106680000D03*
X140335000Y-102997000D03*
X144437010Y-82423000D03*
X144437010Y-92075000D03*
X140094000Y-89929000D03*
X141478000Y-108242990D03*
X140588996Y-110490000D03*
X140335000Y-111887000D03*
X139029010Y-88046990D03*
X96774000Y-93599000D03*
X108331000Y-91821000D03*
X97409000Y-96139000D03*
X115570000Y-74930000D03*
X108966000Y-74930000D03*
X102870000Y-74930000D03*
X101219000Y-97790000D03*
X108331000Y-83058000D03*
X96901000Y-80391000D03*
X108839000Y-71628000D03*
X96266000Y-78486000D03*
X115824000Y-70866000D03*
X132461000Y-82969000D03*
X120523000Y-79502000D03*
X123825000Y-82931000D03*
X123952000Y-97917000D03*
X139700000Y-96393000D03*
X132969000Y-91567000D03*
X136144000Y-103886000D03*
X129540000Y-103886000D03*
X137287000Y-92964000D03*
X137541000Y-77978000D03*
X97536000Y-78740000D03*
X109824844Y-83070924D03*
X133985000Y-83058000D03*
X119380000Y-94742000D03*
X129667000Y-94487998D03*
X120269000Y-68199000D03*
X119159003Y-91980997D03*
X134239000Y-91440000D03*
X141737807Y-96144807D03*
X146558000Y-87757000D03*
X137541000Y-73025000D03*
X107696000Y-79502000D03*
X107696000Y-99441000D03*
X110325000Y-91948000D03*
X118364000Y-115189000D03*
X114046000Y-100838000D03*
X119253000Y-114300000D03*
X117602000Y-76454000D03*
X130810000Y-74930000D03*
X119507000Y-103759000D03*
X125603000Y-100838000D03*
X136144000Y-100838000D03*
X137541010Y-75057000D03*
X109220000Y-100838000D03*
X109982000Y-93091000D03*
X130302000Y-82550000D03*
X111124988Y-82550000D03*
X131762500Y-92138500D03*
X131572000Y-107188000D03*
D15*
X113665000Y-91694000D02*
X113665000Y-86741000D01*
D16*
X113538000Y-86614000D02*
X113665000Y-86741000D01*
D15*
X137795000Y-91694000D02*
X137795000Y-86614000D01*
X145894999Y-110334999D02*
X147320000Y-111760000D01*
X145894999Y-107113997D02*
X145894999Y-110334999D01*
X144653000Y-105871998D02*
X145894999Y-107113997D01*
X144653000Y-100965000D02*
X144653000Y-105871998D01*
X140675001Y-96987001D02*
X144653000Y-100965000D01*
X140675001Y-94574001D02*
X140675001Y-96987001D01*
X137795000Y-91694000D02*
X140675001Y-94574001D01*
X142861990Y-91314285D02*
X142861990Y-97649990D01*
X139594695Y-88046990D02*
X142861990Y-91314285D01*
X139029010Y-88046990D02*
X139594695Y-88046990D01*
X142861990Y-97649990D02*
X145669000Y-100457000D01*
X145669000Y-105029000D02*
X147320000Y-106680000D01*
X145669000Y-100457000D02*
X145669000Y-105029000D01*
D16*
X102870000Y-96139000D02*
X101219000Y-97790000D01*
X102870000Y-74930000D02*
X102870000Y-96139000D01*
X123825000Y-97790000D02*
X123952000Y-97917000D01*
X123825000Y-82931000D02*
X123825000Y-97790000D01*
X136887001Y-92564001D02*
X136887001Y-78631999D01*
X136887001Y-78631999D02*
X137541000Y-77978000D01*
X137287000Y-92964000D02*
X136887001Y-92564001D01*
X133985000Y-83058000D02*
X132676999Y-81749999D01*
X132676999Y-81749999D02*
X129917999Y-81749999D01*
X129917999Y-81749999D02*
X129267001Y-82400997D01*
X129267001Y-82400997D02*
X129267001Y-94087999D01*
X129267001Y-94087999D02*
X129667000Y-94487998D01*
X120269000Y-68199000D02*
X119159003Y-69308997D01*
X119159003Y-69308997D02*
X119159003Y-91980997D01*
X141098998Y-73025000D02*
X137541000Y-73025000D01*
X146558000Y-78484002D02*
X141098998Y-73025000D01*
X146558000Y-87757000D02*
X146558000Y-78484002D01*
X107296001Y-99041001D02*
X107696000Y-99441000D01*
X107296001Y-79901999D02*
X107296001Y-99041001D01*
X107696000Y-79502000D02*
X107296001Y-79901999D01*
X111610001Y-93233001D02*
X111610001Y-108435001D01*
X110325000Y-91948000D02*
X111610001Y-93233001D01*
X111610001Y-108435001D02*
X118364000Y-115189000D01*
X119253000Y-106045000D02*
X119253000Y-114300000D01*
X114046000Y-100838000D02*
X119253000Y-106045000D01*
X117602000Y-91607996D02*
X117602000Y-76454000D01*
X117602000Y-101854000D02*
X117602000Y-91607996D01*
X119507000Y-103759000D02*
X117602000Y-101854000D01*
X136144000Y-100838000D02*
X136271000Y-100711000D01*
X136271000Y-100711000D02*
X136271000Y-76327010D01*
X136271000Y-76327010D02*
X137541010Y-75057000D01*
X108820001Y-94252999D02*
X109982000Y-93091000D01*
X108820001Y-100438001D02*
X108820001Y-94252999D01*
X109220000Y-100838000D02*
X108820001Y-100438001D01*
X130302000Y-90678000D02*
X131762500Y-92138500D01*
X130302000Y-82550000D02*
X130302000Y-90678000D01*
X131762500Y-92138500D02*
X131762500Y-106997500D01*
X131762500Y-106997500D02*
X131572000Y-107188000D01*
M02*
