%FSLAX45Y45*%
G04 Gerber Fmt 4.5, Leading zero omitted, Abs format (unit mm)*
G04 Created by KiCad (PCBNEW 5.1.12-84ad8e8a86~92~ubuntu20.04.1) date 2021-12-08 10:45:40*
%MOMM*%
%LPD*%
G01*
G04 APERTURE LIST*
%TA.AperFunction,Profile*%
%ADD10C,0.050000*%
%TD*%
%ADD11C,0.200000*%
%ADD12C,0.300000*%
G04 APERTURE END LIST*
D10*
X14986000Y-6604000D02*
X9144000Y-6604000D01*
X14986000Y-11684000D02*
X14986000Y-6604000D01*
X9144000Y-11684000D02*
X14986000Y-11684000D01*
X9144000Y-6604000D02*
X9144000Y-11684000D01*
D11*
X9276400Y-8235000D02*
X9316400Y-8275000D01*
X9316400Y-8235000D02*
X9276400Y-8275000D01*
X9276400Y-9238300D02*
X9316400Y-9278300D01*
X9316400Y-9238300D02*
X9276400Y-9278300D01*
X9606600Y-7828600D02*
X9646600Y-7868600D01*
X9646600Y-7828600D02*
X9606600Y-7868600D01*
X9657400Y-9339900D02*
X9697400Y-9379900D01*
X9697400Y-9339900D02*
X9657400Y-9379900D01*
X9670100Y-8019100D02*
X9710100Y-8059100D01*
X9710100Y-8019100D02*
X9670100Y-8059100D01*
X9695500Y-8247700D02*
X9735500Y-8287700D01*
X9735500Y-8247700D02*
X9695500Y-8287700D01*
X9695500Y-9200200D02*
X9735500Y-9240200D01*
X9735500Y-9200200D02*
X9695500Y-9240200D01*
X9720900Y-9593900D02*
X9760900Y-9633900D01*
X9760900Y-9593900D02*
X9720900Y-9633900D01*
X9733600Y-7854000D02*
X9773600Y-7894000D01*
X9773600Y-7854000D02*
X9733600Y-7894000D01*
X10101900Y-8971600D02*
X10141900Y-9011600D01*
X10141900Y-8971600D02*
X10101900Y-9011600D01*
X10101900Y-9759000D02*
X10141900Y-9799000D01*
X10141900Y-9759000D02*
X10101900Y-9799000D01*
X10114600Y-8489000D02*
X10154600Y-8529000D01*
X10154600Y-8489000D02*
X10114600Y-8529000D01*
X10267000Y-7473000D02*
X10307000Y-7513000D01*
X10307000Y-7473000D02*
X10267000Y-7513000D01*
X10419400Y-9898700D02*
X10459400Y-9938700D01*
X10459400Y-9898700D02*
X10419400Y-9938700D01*
X10749600Y-7930200D02*
X10789600Y-7970200D01*
X10789600Y-7930200D02*
X10749600Y-7970200D01*
X10749600Y-9924100D02*
X10789600Y-9964100D01*
X10789600Y-9924100D02*
X10749600Y-9964100D01*
X10775000Y-7777800D02*
X10815000Y-7817800D01*
X10815000Y-7777800D02*
X10775000Y-7817800D01*
X10813100Y-8285800D02*
X10853100Y-8325800D01*
X10853100Y-8285800D02*
X10813100Y-8325800D01*
X10813100Y-9162100D02*
X10853100Y-9202100D01*
X10853100Y-9162100D02*
X10813100Y-9202100D01*
X10863900Y-7142800D02*
X10903900Y-7182800D01*
X10903900Y-7142800D02*
X10863900Y-7182800D01*
X10876600Y-7473000D02*
X10916600Y-7513000D01*
X10916600Y-7473000D02*
X10876600Y-7513000D01*
X10902000Y-10063800D02*
X10942000Y-10103800D01*
X10942000Y-10063800D02*
X10902000Y-10103800D01*
X10962484Y-8287092D02*
X11002484Y-8327092D01*
X11002484Y-8287092D02*
X10962484Y-8327092D01*
X10978200Y-9289100D02*
X11018200Y-9329100D01*
X11018200Y-9289100D02*
X10978200Y-9329100D01*
X10978200Y-9911400D02*
X11018200Y-9951400D01*
X11018200Y-9911400D02*
X10978200Y-9951400D01*
X11012500Y-9174800D02*
X11052500Y-9214800D01*
X11052500Y-9174800D02*
X11012500Y-9214800D01*
X11092499Y-8235000D02*
X11132499Y-8275000D01*
X11132499Y-8235000D02*
X11092499Y-8275000D01*
X11333800Y-8641400D02*
X11373800Y-8681400D01*
X11373800Y-8641400D02*
X11333800Y-8681400D01*
X11346500Y-9149400D02*
X11386500Y-9189400D01*
X11386500Y-9149400D02*
X11346500Y-9189400D01*
X11384600Y-10063800D02*
X11424600Y-10103800D01*
X11424600Y-10063800D02*
X11384600Y-10103800D01*
X11537000Y-7473000D02*
X11577000Y-7513000D01*
X11577000Y-7473000D02*
X11537000Y-7513000D01*
X11549700Y-8489000D02*
X11589700Y-8529000D01*
X11589700Y-8489000D02*
X11549700Y-8529000D01*
X11549700Y-8971600D02*
X11589700Y-9011600D01*
X11589700Y-8971600D02*
X11549700Y-9011600D01*
X11562400Y-7066600D02*
X11602400Y-7106600D01*
X11602400Y-7066600D02*
X11562400Y-7106600D01*
X11740200Y-7625400D02*
X11780200Y-7665400D01*
X11780200Y-7625400D02*
X11740200Y-7665400D01*
X11816400Y-11498900D02*
X11856400Y-11538900D01*
X11856400Y-11498900D02*
X11816400Y-11538900D01*
X11895900Y-9178100D02*
X11935900Y-9218100D01*
X11935900Y-9178100D02*
X11895900Y-9218100D01*
X11905300Y-11410000D02*
X11945300Y-11450000D01*
X11945300Y-11410000D02*
X11905300Y-11450000D01*
X11918000Y-9454200D02*
X11958000Y-9494200D01*
X11958000Y-9454200D02*
X11918000Y-9494200D01*
X11930700Y-10355900D02*
X11970700Y-10395900D01*
X11970700Y-10355900D02*
X11930700Y-10395900D01*
X12006900Y-6799900D02*
X12046900Y-6839900D01*
X12046900Y-6799900D02*
X12006900Y-6839900D01*
X12032300Y-7930200D02*
X12072300Y-7970200D01*
X12072300Y-7930200D02*
X12032300Y-7970200D01*
X12108500Y-9212900D02*
X12148500Y-9252900D01*
X12148500Y-9212900D02*
X12108500Y-9252900D01*
X12133900Y-8235000D02*
X12173900Y-8275000D01*
X12173900Y-8235000D02*
X12133900Y-8275000D01*
X12362500Y-8273100D02*
X12402500Y-8313100D01*
X12402500Y-8273100D02*
X12362500Y-8313100D01*
X12375200Y-9771700D02*
X12415200Y-9811700D01*
X12415200Y-9771700D02*
X12375200Y-9811700D01*
X12400600Y-11321100D02*
X12440600Y-11361100D01*
X12440600Y-11321100D02*
X12400600Y-11361100D01*
X12502200Y-8489000D02*
X12542200Y-8529000D01*
X12542200Y-8489000D02*
X12502200Y-8529000D01*
X12502200Y-8971600D02*
X12542200Y-9011600D01*
X12542200Y-8971600D02*
X12502200Y-9011600D01*
X12540300Y-10063800D02*
X12580300Y-10103800D01*
X12580300Y-10063800D02*
X12540300Y-10103800D01*
X12654600Y-10673400D02*
X12694600Y-10713400D01*
X12694600Y-10673400D02*
X12654600Y-10713400D01*
X12934000Y-9759000D02*
X12974000Y-9799000D01*
X12974000Y-9759000D02*
X12934000Y-9799000D01*
X12934000Y-10368600D02*
X12974000Y-10408600D01*
X12974000Y-10368600D02*
X12934000Y-10408600D01*
X12946700Y-9428800D02*
X12986700Y-9468800D01*
X12986700Y-9428800D02*
X12946700Y-9468800D01*
X13010200Y-8235000D02*
X13050200Y-8275000D01*
X13050200Y-8235000D02*
X13010200Y-8275000D01*
X13061000Y-7473000D02*
X13101000Y-7513000D01*
X13101000Y-7473000D02*
X13061000Y-7513000D01*
X13111800Y-7777800D02*
X13151800Y-7817800D01*
X13151800Y-7777800D02*
X13111800Y-7817800D01*
X13137200Y-10698800D02*
X13177200Y-10738800D01*
X13177200Y-10698800D02*
X13137200Y-10738800D01*
X13156250Y-9193850D02*
X13196250Y-9233850D01*
X13196250Y-9193850D02*
X13156250Y-9233850D01*
X13226100Y-8276900D02*
X13266100Y-8316900D01*
X13266100Y-8276900D02*
X13226100Y-8316900D01*
X13276900Y-9136700D02*
X13316900Y-9176700D01*
X13316900Y-9136700D02*
X13276900Y-9176700D01*
X13378500Y-8285800D02*
X13418500Y-8325800D01*
X13418500Y-8285800D02*
X13378500Y-8325800D01*
X13403900Y-9124000D02*
X13443900Y-9164000D01*
X13443900Y-9124000D02*
X13403900Y-9164000D01*
X13527099Y-9759000D02*
X13567099Y-9799000D01*
X13567099Y-9759000D02*
X13527099Y-9799000D01*
X13594400Y-10063800D02*
X13634400Y-10103800D01*
X13634400Y-10063800D02*
X13594400Y-10103800D01*
X13594400Y-10368600D02*
X13634400Y-10408600D01*
X13634400Y-10368600D02*
X13594400Y-10408600D01*
X13708700Y-9276400D02*
X13748700Y-9316400D01*
X13748700Y-9276400D02*
X13708700Y-9316400D01*
X13734100Y-7282500D02*
X13774100Y-7322500D01*
X13774100Y-7282500D02*
X13734100Y-7322500D01*
X13734100Y-7777800D02*
X13774100Y-7817800D01*
X13774100Y-7777800D02*
X13734100Y-7817800D01*
X13734101Y-7485700D02*
X13774101Y-7525700D01*
X13774101Y-7485700D02*
X13734101Y-7525700D01*
X13759500Y-8641400D02*
X13799500Y-8681400D01*
X13799500Y-8641400D02*
X13759500Y-8681400D01*
X13759500Y-9149400D02*
X13799500Y-9189400D01*
X13799500Y-9149400D02*
X13759500Y-9189400D01*
X13882901Y-8784699D02*
X13922901Y-8824699D01*
X13922901Y-8784699D02*
X13882901Y-8824699D01*
X13950000Y-8489000D02*
X13990000Y-8529000D01*
X13990000Y-8489000D02*
X13950000Y-8529000D01*
X13950000Y-9619300D02*
X13990000Y-9659300D01*
X13990000Y-9619300D02*
X13950000Y-9659300D01*
X13989400Y-8972900D02*
X14029400Y-9012900D01*
X14029400Y-8972900D02*
X13989400Y-9012900D01*
X14013500Y-10279700D02*
X14053500Y-10319700D01*
X14053500Y-10279700D02*
X14013500Y-10319700D01*
X14013500Y-11168700D02*
X14053500Y-11208700D01*
X14053500Y-11168700D02*
X14013500Y-11208700D01*
X14026200Y-10648000D02*
X14066200Y-10688000D01*
X14066200Y-10648000D02*
X14026200Y-10688000D01*
X14038900Y-11029000D02*
X14078900Y-11069000D01*
X14078900Y-11029000D02*
X14038900Y-11069000D01*
X14127800Y-10804299D02*
X14167800Y-10844299D01*
X14167800Y-10804299D02*
X14127800Y-10844299D01*
X14153781Y-9594481D02*
X14193781Y-9634481D01*
X14193781Y-9594481D02*
X14153781Y-9634481D01*
X14423701Y-8222300D02*
X14463701Y-8262300D01*
X14463701Y-8222300D02*
X14423701Y-8262300D01*
X14423701Y-9187500D02*
X14463701Y-9227500D01*
X14463701Y-9187500D02*
X14423701Y-9227500D01*
X14635800Y-8755700D02*
X14675800Y-8795700D01*
X14675800Y-8755700D02*
X14635800Y-8795700D01*
X9946000Y-10668000D02*
G75*
G03*
X9946000Y-10668000I-40000J0D01*
G01*
X9946000Y-10922000D02*
G75*
G03*
X9946000Y-10922000I-40000J0D01*
G01*
X9946000Y-11176000D02*
G75*
G03*
X9946000Y-11176000I-40000J0D01*
G01*
X10517500Y-10668000D02*
G75*
G03*
X10517500Y-10668000I-40000J0D01*
G01*
X10517500Y-10922000D02*
G75*
G03*
X10517500Y-10922000I-40000J0D01*
G01*
X10517500Y-11176000D02*
G75*
G03*
X10517500Y-11176000I-40000J0D01*
G01*
X11089000Y-10668000D02*
G75*
G03*
X11089000Y-10668000I-40000J0D01*
G01*
X11089000Y-10922000D02*
G75*
G03*
X11089000Y-10922000I-40000J0D01*
G01*
X11089000Y-11176000D02*
G75*
G03*
X11089000Y-11176000I-40000J0D01*
G01*
X14365600Y-7340600D02*
G75*
G03*
X14365600Y-7340600I-40000J0D01*
G01*
X14365600Y-7840600D02*
G75*
G03*
X14365600Y-7840600I-40000J0D01*
G01*
X9398000Y-6808000D02*
X9398000Y-6908000D01*
X9348000Y-6858000D02*
X9448000Y-6858000D01*
X9398000Y-7062000D02*
X9398000Y-7162000D01*
X9348000Y-7112000D02*
X9448000Y-7112000D01*
X9398000Y-7316000D02*
X9398000Y-7416000D01*
X9348000Y-7366000D02*
X9448000Y-7366000D01*
X9398000Y-7570000D02*
X9398000Y-7670000D01*
X9348000Y-7620000D02*
X9448000Y-7620000D01*
X9398000Y-10618000D02*
X9398000Y-10718000D01*
X9348000Y-10668000D02*
X9448000Y-10668000D01*
X9398000Y-10872000D02*
X9398000Y-10972000D01*
X9348000Y-10922000D02*
X9448000Y-10922000D01*
X9398000Y-11126000D02*
X9398000Y-11226000D01*
X9348000Y-11176000D02*
X9448000Y-11176000D01*
X9398000Y-11380000D02*
X9398000Y-11480000D01*
X9348000Y-11430000D02*
X9448000Y-11430000D01*
X14732000Y-6808000D02*
X14732000Y-6908000D01*
X14682000Y-6858000D02*
X14782000Y-6858000D01*
X14732000Y-7062000D02*
X14732000Y-7162000D01*
X14682000Y-7112000D02*
X14782000Y-7112000D01*
X14732000Y-7316000D02*
X14732000Y-7416000D01*
X14682000Y-7366000D02*
X14782000Y-7366000D01*
X14732000Y-7570000D02*
X14732000Y-7670000D01*
X14682000Y-7620000D02*
X14782000Y-7620000D01*
X14732000Y-9602000D02*
X14732000Y-9702000D01*
X14682000Y-9652000D02*
X14782000Y-9652000D01*
X14732000Y-9856000D02*
X14732000Y-9956000D01*
X14682000Y-9906000D02*
X14782000Y-9906000D01*
X14732000Y-10110000D02*
X14732000Y-10210000D01*
X14682000Y-10160000D02*
X14782000Y-10160000D01*
X14732000Y-10364000D02*
X14732000Y-10464000D01*
X14682000Y-10414000D02*
X14782000Y-10414000D01*
X14732000Y-10618000D02*
X14732000Y-10718000D01*
X14682000Y-10668000D02*
X14782000Y-10668000D01*
X14732000Y-10872000D02*
X14732000Y-10972000D01*
X14682000Y-10922000D02*
X14782000Y-10922000D01*
X14732000Y-11126000D02*
X14732000Y-11226000D01*
X14682000Y-11176000D02*
X14782000Y-11176000D01*
X14732000Y-11380000D02*
X14732000Y-11480000D01*
X14682000Y-11430000D02*
X14782000Y-11430000D01*
D12*
X9427928Y-12152214D02*
X9427928Y-11852214D01*
X9499357Y-11852214D01*
X9542214Y-11866500D01*
X9570786Y-11895071D01*
X9585071Y-11923643D01*
X9599357Y-11980786D01*
X9599357Y-12023643D01*
X9585071Y-12080786D01*
X9570786Y-12109357D01*
X9542214Y-12137929D01*
X9499357Y-12152214D01*
X9427928Y-12152214D01*
X9727928Y-12152214D02*
X9727928Y-11952214D01*
X9727928Y-12009357D02*
X9742214Y-11980786D01*
X9756500Y-11966500D01*
X9785071Y-11952214D01*
X9813643Y-11952214D01*
X9913643Y-12152214D02*
X9913643Y-11952214D01*
X9913643Y-11852214D02*
X9899357Y-11866500D01*
X9913643Y-11880786D01*
X9927928Y-11866500D01*
X9913643Y-11852214D01*
X9913643Y-11880786D01*
X10099357Y-12152214D02*
X10070786Y-12137929D01*
X10056500Y-12109357D01*
X10056500Y-11852214D01*
X10256500Y-12152214D02*
X10227928Y-12137929D01*
X10213643Y-12109357D01*
X10213643Y-11852214D01*
X10599357Y-12152214D02*
X10599357Y-11852214D01*
X10699357Y-12066500D01*
X10799357Y-11852214D01*
X10799357Y-12152214D01*
X11070786Y-12152214D02*
X11070786Y-11995071D01*
X11056500Y-11966500D01*
X11027928Y-11952214D01*
X10970786Y-11952214D01*
X10942214Y-11966500D01*
X11070786Y-12137929D02*
X11042214Y-12152214D01*
X10970786Y-12152214D01*
X10942214Y-12137929D01*
X10927928Y-12109357D01*
X10927928Y-12080786D01*
X10942214Y-12052214D01*
X10970786Y-12037929D01*
X11042214Y-12037929D01*
X11070786Y-12023643D01*
X11213643Y-11952214D02*
X11213643Y-12252214D01*
X11213643Y-11966500D02*
X11242214Y-11952214D01*
X11299357Y-11952214D01*
X11327928Y-11966500D01*
X11342214Y-11980786D01*
X11356500Y-12009357D01*
X11356500Y-12095071D01*
X11342214Y-12123643D01*
X11327928Y-12137929D01*
X11299357Y-12152214D01*
X11242214Y-12152214D01*
X11213643Y-12137929D01*
X11485071Y-12123643D02*
X11499357Y-12137929D01*
X11485071Y-12152214D01*
X11470786Y-12137929D01*
X11485071Y-12123643D01*
X11485071Y-12152214D01*
X11485071Y-11966500D02*
X11499357Y-11980786D01*
X11485071Y-11995071D01*
X11470786Y-11980786D01*
X11485071Y-11966500D01*
X11485071Y-11995071D01*
X9101500Y-12626500D02*
X9141500Y-12666500D01*
X9141500Y-12626500D02*
X9101500Y-12666500D01*
X9485071Y-12482214D02*
X9513643Y-12482214D01*
X9542214Y-12496500D01*
X9556500Y-12510786D01*
X9570786Y-12539357D01*
X9585071Y-12596500D01*
X9585071Y-12667929D01*
X9570786Y-12725071D01*
X9556500Y-12753643D01*
X9542214Y-12767929D01*
X9513643Y-12782214D01*
X9485071Y-12782214D01*
X9456500Y-12767929D01*
X9442214Y-12753643D01*
X9427928Y-12725071D01*
X9413643Y-12667929D01*
X9413643Y-12596500D01*
X9427928Y-12539357D01*
X9442214Y-12510786D01*
X9456500Y-12496500D01*
X9485071Y-12482214D01*
X9713643Y-12753643D02*
X9727928Y-12767929D01*
X9713643Y-12782214D01*
X9699357Y-12767929D01*
X9713643Y-12753643D01*
X9713643Y-12782214D01*
X9985071Y-12582214D02*
X9985071Y-12782214D01*
X9913643Y-12467929D02*
X9842214Y-12682214D01*
X10027928Y-12682214D01*
X10199357Y-12482214D02*
X10227928Y-12482214D01*
X10256500Y-12496500D01*
X10270786Y-12510786D01*
X10285071Y-12539357D01*
X10299357Y-12596500D01*
X10299357Y-12667929D01*
X10285071Y-12725071D01*
X10270786Y-12753643D01*
X10256500Y-12767929D01*
X10227928Y-12782214D01*
X10199357Y-12782214D01*
X10170786Y-12767929D01*
X10156500Y-12753643D01*
X10142214Y-12725071D01*
X10127928Y-12667929D01*
X10127928Y-12596500D01*
X10142214Y-12539357D01*
X10156500Y-12510786D01*
X10170786Y-12496500D01*
X10199357Y-12482214D01*
X10485071Y-12482214D02*
X10513643Y-12482214D01*
X10542214Y-12496500D01*
X10556500Y-12510786D01*
X10570786Y-12539357D01*
X10585071Y-12596500D01*
X10585071Y-12667929D01*
X10570786Y-12725071D01*
X10556500Y-12753643D01*
X10542214Y-12767929D01*
X10513643Y-12782214D01*
X10485071Y-12782214D01*
X10456500Y-12767929D01*
X10442214Y-12753643D01*
X10427928Y-12725071D01*
X10413643Y-12667929D01*
X10413643Y-12596500D01*
X10427928Y-12539357D01*
X10442214Y-12510786D01*
X10456500Y-12496500D01*
X10485071Y-12482214D01*
X10713643Y-12782214D02*
X10713643Y-12582214D01*
X10713643Y-12610786D02*
X10727928Y-12596500D01*
X10756500Y-12582214D01*
X10799357Y-12582214D01*
X10827928Y-12596500D01*
X10842214Y-12625071D01*
X10842214Y-12782214D01*
X10842214Y-12625071D02*
X10856500Y-12596500D01*
X10885071Y-12582214D01*
X10927928Y-12582214D01*
X10956500Y-12596500D01*
X10970786Y-12625071D01*
X10970786Y-12782214D01*
X11113643Y-12782214D02*
X11113643Y-12582214D01*
X11113643Y-12610786D02*
X11127928Y-12596500D01*
X11156500Y-12582214D01*
X11199357Y-12582214D01*
X11227928Y-12596500D01*
X11242214Y-12625071D01*
X11242214Y-12782214D01*
X11242214Y-12625071D02*
X11256500Y-12596500D01*
X11285071Y-12582214D01*
X11327928Y-12582214D01*
X11356500Y-12596500D01*
X11370786Y-12625071D01*
X11370786Y-12782214D01*
X11956500Y-12467929D02*
X11699357Y-12853643D01*
X12342214Y-12482214D02*
X12370786Y-12482214D01*
X12399357Y-12496500D01*
X12413643Y-12510786D01*
X12427928Y-12539357D01*
X12442214Y-12596500D01*
X12442214Y-12667929D01*
X12427928Y-12725071D01*
X12413643Y-12753643D01*
X12399357Y-12767929D01*
X12370786Y-12782214D01*
X12342214Y-12782214D01*
X12313643Y-12767929D01*
X12299357Y-12753643D01*
X12285071Y-12725071D01*
X12270786Y-12667929D01*
X12270786Y-12596500D01*
X12285071Y-12539357D01*
X12299357Y-12510786D01*
X12313643Y-12496500D01*
X12342214Y-12482214D01*
X12570786Y-12753643D02*
X12585071Y-12767929D01*
X12570786Y-12782214D01*
X12556500Y-12767929D01*
X12570786Y-12753643D01*
X12570786Y-12782214D01*
X12770786Y-12482214D02*
X12799357Y-12482214D01*
X12827928Y-12496500D01*
X12842214Y-12510786D01*
X12856500Y-12539357D01*
X12870786Y-12596500D01*
X12870786Y-12667929D01*
X12856500Y-12725071D01*
X12842214Y-12753643D01*
X12827928Y-12767929D01*
X12799357Y-12782214D01*
X12770786Y-12782214D01*
X12742214Y-12767929D01*
X12727928Y-12753643D01*
X12713643Y-12725071D01*
X12699357Y-12667929D01*
X12699357Y-12596500D01*
X12713643Y-12539357D01*
X12727928Y-12510786D01*
X12742214Y-12496500D01*
X12770786Y-12482214D01*
X13156500Y-12782214D02*
X12985071Y-12782214D01*
X13070786Y-12782214D02*
X13070786Y-12482214D01*
X13042214Y-12525071D01*
X13013643Y-12553643D01*
X12985071Y-12567929D01*
X13427928Y-12482214D02*
X13285071Y-12482214D01*
X13270786Y-12625071D01*
X13285071Y-12610786D01*
X13313643Y-12596500D01*
X13385071Y-12596500D01*
X13413643Y-12610786D01*
X13427928Y-12625071D01*
X13442214Y-12653643D01*
X13442214Y-12725071D01*
X13427928Y-12753643D01*
X13413643Y-12767929D01*
X13385071Y-12782214D01*
X13313643Y-12782214D01*
X13285071Y-12767929D01*
X13270786Y-12753643D01*
X13542214Y-12482214D02*
X13742214Y-12482214D01*
X13613643Y-12782214D01*
X13842214Y-12482214D02*
X13842214Y-12539357D01*
X13956500Y-12482214D02*
X13956500Y-12539357D01*
X14399357Y-12896500D02*
X14385071Y-12882214D01*
X14356500Y-12839357D01*
X14342214Y-12810786D01*
X14327928Y-12767929D01*
X14313643Y-12696500D01*
X14313643Y-12639357D01*
X14327928Y-12567929D01*
X14342214Y-12525071D01*
X14356500Y-12496500D01*
X14385071Y-12453643D01*
X14399357Y-12439357D01*
X14556500Y-12610786D02*
X14527928Y-12596500D01*
X14513643Y-12582214D01*
X14499357Y-12553643D01*
X14499357Y-12539357D01*
X14513643Y-12510786D01*
X14527928Y-12496500D01*
X14556500Y-12482214D01*
X14613643Y-12482214D01*
X14642214Y-12496500D01*
X14656500Y-12510786D01*
X14670786Y-12539357D01*
X14670786Y-12553643D01*
X14656500Y-12582214D01*
X14642214Y-12596500D01*
X14613643Y-12610786D01*
X14556500Y-12610786D01*
X14527928Y-12625071D01*
X14513643Y-12639357D01*
X14499357Y-12667929D01*
X14499357Y-12725071D01*
X14513643Y-12753643D01*
X14527928Y-12767929D01*
X14556500Y-12782214D01*
X14613643Y-12782214D01*
X14642214Y-12767929D01*
X14656500Y-12753643D01*
X14670786Y-12725071D01*
X14670786Y-12667929D01*
X14656500Y-12639357D01*
X14642214Y-12625071D01*
X14613643Y-12610786D01*
X14942214Y-12482214D02*
X14799357Y-12482214D01*
X14785071Y-12625071D01*
X14799357Y-12610786D01*
X14827928Y-12596500D01*
X14899357Y-12596500D01*
X14927928Y-12610786D01*
X14942214Y-12625071D01*
X14956500Y-12653643D01*
X14956500Y-12725071D01*
X14942214Y-12753643D01*
X14927928Y-12767929D01*
X14899357Y-12782214D01*
X14827928Y-12782214D01*
X14799357Y-12767929D01*
X14785071Y-12753643D01*
X15313643Y-12782214D02*
X15313643Y-12482214D01*
X15442214Y-12782214D02*
X15442214Y-12625071D01*
X15427928Y-12596500D01*
X15399357Y-12582214D01*
X15356500Y-12582214D01*
X15327928Y-12596500D01*
X15313643Y-12610786D01*
X15627928Y-12782214D02*
X15599357Y-12767929D01*
X15585071Y-12753643D01*
X15570786Y-12725071D01*
X15570786Y-12639357D01*
X15585071Y-12610786D01*
X15599357Y-12596500D01*
X15627928Y-12582214D01*
X15670786Y-12582214D01*
X15699357Y-12596500D01*
X15713643Y-12610786D01*
X15727928Y-12639357D01*
X15727928Y-12725071D01*
X15713643Y-12753643D01*
X15699357Y-12767929D01*
X15670786Y-12782214D01*
X15627928Y-12782214D01*
X15899357Y-12782214D02*
X15870786Y-12767929D01*
X15856500Y-12739357D01*
X15856500Y-12482214D01*
X16127928Y-12767929D02*
X16099357Y-12782214D01*
X16042214Y-12782214D01*
X16013643Y-12767929D01*
X15999357Y-12739357D01*
X15999357Y-12625071D01*
X16013643Y-12596500D01*
X16042214Y-12582214D01*
X16099357Y-12582214D01*
X16127928Y-12596500D01*
X16142214Y-12625071D01*
X16142214Y-12653643D01*
X15999357Y-12682214D01*
X16256500Y-12767929D02*
X16285071Y-12782214D01*
X16342214Y-12782214D01*
X16370786Y-12767929D01*
X16385071Y-12739357D01*
X16385071Y-12725071D01*
X16370786Y-12696500D01*
X16342214Y-12682214D01*
X16299357Y-12682214D01*
X16270786Y-12667929D01*
X16256500Y-12639357D01*
X16256500Y-12625071D01*
X16270786Y-12596500D01*
X16299357Y-12582214D01*
X16342214Y-12582214D01*
X16370786Y-12596500D01*
X16485071Y-12896500D02*
X16499357Y-12882214D01*
X16527928Y-12839357D01*
X16542214Y-12810786D01*
X16556500Y-12767929D01*
X16570786Y-12696500D01*
X16570786Y-12639357D01*
X16556500Y-12567929D01*
X16542214Y-12525071D01*
X16527928Y-12496500D01*
X16499357Y-12453643D01*
X16485071Y-12439357D01*
X9141500Y-13042500D02*
G75*
G03*
X9141500Y-13042500I-40000J0D01*
G01*
X9485071Y-12878214D02*
X9513643Y-12878214D01*
X9542214Y-12892500D01*
X9556500Y-12906786D01*
X9570786Y-12935357D01*
X9585071Y-12992500D01*
X9585071Y-13063929D01*
X9570786Y-13121071D01*
X9556500Y-13149643D01*
X9542214Y-13163929D01*
X9513643Y-13178214D01*
X9485071Y-13178214D01*
X9456500Y-13163929D01*
X9442214Y-13149643D01*
X9427928Y-13121071D01*
X9413643Y-13063929D01*
X9413643Y-12992500D01*
X9427928Y-12935357D01*
X9442214Y-12906786D01*
X9456500Y-12892500D01*
X9485071Y-12878214D01*
X9713643Y-13149643D02*
X9727928Y-13163929D01*
X9713643Y-13178214D01*
X9699357Y-13163929D01*
X9713643Y-13149643D01*
X9713643Y-13178214D01*
X9899357Y-13006786D02*
X9870786Y-12992500D01*
X9856500Y-12978214D01*
X9842214Y-12949643D01*
X9842214Y-12935357D01*
X9856500Y-12906786D01*
X9870786Y-12892500D01*
X9899357Y-12878214D01*
X9956500Y-12878214D01*
X9985071Y-12892500D01*
X9999357Y-12906786D01*
X10013643Y-12935357D01*
X10013643Y-12949643D01*
X9999357Y-12978214D01*
X9985071Y-12992500D01*
X9956500Y-13006786D01*
X9899357Y-13006786D01*
X9870786Y-13021071D01*
X9856500Y-13035357D01*
X9842214Y-13063929D01*
X9842214Y-13121071D01*
X9856500Y-13149643D01*
X9870786Y-13163929D01*
X9899357Y-13178214D01*
X9956500Y-13178214D01*
X9985071Y-13163929D01*
X9999357Y-13149643D01*
X10013643Y-13121071D01*
X10013643Y-13063929D01*
X9999357Y-13035357D01*
X9985071Y-13021071D01*
X9956500Y-13006786D01*
X10199357Y-12878214D02*
X10227928Y-12878214D01*
X10256500Y-12892500D01*
X10270786Y-12906786D01*
X10285071Y-12935357D01*
X10299357Y-12992500D01*
X10299357Y-13063929D01*
X10285071Y-13121071D01*
X10270786Y-13149643D01*
X10256500Y-13163929D01*
X10227928Y-13178214D01*
X10199357Y-13178214D01*
X10170786Y-13163929D01*
X10156500Y-13149643D01*
X10142214Y-13121071D01*
X10127928Y-13063929D01*
X10127928Y-12992500D01*
X10142214Y-12935357D01*
X10156500Y-12906786D01*
X10170786Y-12892500D01*
X10199357Y-12878214D01*
X10485071Y-12878214D02*
X10513643Y-12878214D01*
X10542214Y-12892500D01*
X10556500Y-12906786D01*
X10570786Y-12935357D01*
X10585071Y-12992500D01*
X10585071Y-13063929D01*
X10570786Y-13121071D01*
X10556500Y-13149643D01*
X10542214Y-13163929D01*
X10513643Y-13178214D01*
X10485071Y-13178214D01*
X10456500Y-13163929D01*
X10442214Y-13149643D01*
X10427928Y-13121071D01*
X10413643Y-13063929D01*
X10413643Y-12992500D01*
X10427928Y-12935357D01*
X10442214Y-12906786D01*
X10456500Y-12892500D01*
X10485071Y-12878214D01*
X10713643Y-13178214D02*
X10713643Y-12978214D01*
X10713643Y-13006786D02*
X10727928Y-12992500D01*
X10756500Y-12978214D01*
X10799357Y-12978214D01*
X10827928Y-12992500D01*
X10842214Y-13021071D01*
X10842214Y-13178214D01*
X10842214Y-13021071D02*
X10856500Y-12992500D01*
X10885071Y-12978214D01*
X10927928Y-12978214D01*
X10956500Y-12992500D01*
X10970786Y-13021071D01*
X10970786Y-13178214D01*
X11113643Y-13178214D02*
X11113643Y-12978214D01*
X11113643Y-13006786D02*
X11127928Y-12992500D01*
X11156500Y-12978214D01*
X11199357Y-12978214D01*
X11227928Y-12992500D01*
X11242214Y-13021071D01*
X11242214Y-13178214D01*
X11242214Y-13021071D02*
X11256500Y-12992500D01*
X11285071Y-12978214D01*
X11327928Y-12978214D01*
X11356500Y-12992500D01*
X11370786Y-13021071D01*
X11370786Y-13178214D01*
X11956500Y-12863929D02*
X11699357Y-13249643D01*
X12342214Y-12878214D02*
X12370786Y-12878214D01*
X12399357Y-12892500D01*
X12413643Y-12906786D01*
X12427928Y-12935357D01*
X12442214Y-12992500D01*
X12442214Y-13063929D01*
X12427928Y-13121071D01*
X12413643Y-13149643D01*
X12399357Y-13163929D01*
X12370786Y-13178214D01*
X12342214Y-13178214D01*
X12313643Y-13163929D01*
X12299357Y-13149643D01*
X12285071Y-13121071D01*
X12270786Y-13063929D01*
X12270786Y-12992500D01*
X12285071Y-12935357D01*
X12299357Y-12906786D01*
X12313643Y-12892500D01*
X12342214Y-12878214D01*
X12570786Y-13149643D02*
X12585071Y-13163929D01*
X12570786Y-13178214D01*
X12556500Y-13163929D01*
X12570786Y-13149643D01*
X12570786Y-13178214D01*
X12770786Y-12878214D02*
X12799357Y-12878214D01*
X12827928Y-12892500D01*
X12842214Y-12906786D01*
X12856500Y-12935357D01*
X12870786Y-12992500D01*
X12870786Y-13063929D01*
X12856500Y-13121071D01*
X12842214Y-13149643D01*
X12827928Y-13163929D01*
X12799357Y-13178214D01*
X12770786Y-13178214D01*
X12742214Y-13163929D01*
X12727928Y-13149643D01*
X12713643Y-13121071D01*
X12699357Y-13063929D01*
X12699357Y-12992500D01*
X12713643Y-12935357D01*
X12727928Y-12906786D01*
X12742214Y-12892500D01*
X12770786Y-12878214D01*
X12970786Y-12878214D02*
X13156500Y-12878214D01*
X13056500Y-12992500D01*
X13099357Y-12992500D01*
X13127928Y-13006786D01*
X13142214Y-13021071D01*
X13156500Y-13049643D01*
X13156500Y-13121071D01*
X13142214Y-13149643D01*
X13127928Y-13163929D01*
X13099357Y-13178214D01*
X13013643Y-13178214D01*
X12985071Y-13163929D01*
X12970786Y-13149643D01*
X13442214Y-13178214D02*
X13270786Y-13178214D01*
X13356500Y-13178214D02*
X13356500Y-12878214D01*
X13327928Y-12921071D01*
X13299357Y-12949643D01*
X13270786Y-12963929D01*
X13713643Y-12878214D02*
X13570786Y-12878214D01*
X13556500Y-13021071D01*
X13570786Y-13006786D01*
X13599357Y-12992500D01*
X13670786Y-12992500D01*
X13699357Y-13006786D01*
X13713643Y-13021071D01*
X13727928Y-13049643D01*
X13727928Y-13121071D01*
X13713643Y-13149643D01*
X13699357Y-13163929D01*
X13670786Y-13178214D01*
X13599357Y-13178214D01*
X13570786Y-13163929D01*
X13556500Y-13149643D01*
X13842214Y-12878214D02*
X13842214Y-12935357D01*
X13956500Y-12878214D02*
X13956500Y-12935357D01*
X14399357Y-13292500D02*
X14385071Y-13278214D01*
X14356500Y-13235357D01*
X14342214Y-13206786D01*
X14327928Y-13163929D01*
X14313643Y-13092500D01*
X14313643Y-13035357D01*
X14327928Y-12963929D01*
X14342214Y-12921071D01*
X14356500Y-12892500D01*
X14385071Y-12849643D01*
X14399357Y-12835357D01*
X14670786Y-13178214D02*
X14499357Y-13178214D01*
X14585071Y-13178214D02*
X14585071Y-12878214D01*
X14556500Y-12921071D01*
X14527928Y-12949643D01*
X14499357Y-12963929D01*
X14956500Y-13178214D02*
X14785071Y-13178214D01*
X14870786Y-13178214D02*
X14870786Y-12878214D01*
X14842214Y-12921071D01*
X14813643Y-12949643D01*
X14785071Y-12963929D01*
X15313643Y-13178214D02*
X15313643Y-12878214D01*
X15442214Y-13178214D02*
X15442214Y-13021071D01*
X15427928Y-12992500D01*
X15399357Y-12978214D01*
X15356500Y-12978214D01*
X15327928Y-12992500D01*
X15313643Y-13006786D01*
X15627928Y-13178214D02*
X15599357Y-13163929D01*
X15585071Y-13149643D01*
X15570786Y-13121071D01*
X15570786Y-13035357D01*
X15585071Y-13006786D01*
X15599357Y-12992500D01*
X15627928Y-12978214D01*
X15670786Y-12978214D01*
X15699357Y-12992500D01*
X15713643Y-13006786D01*
X15727928Y-13035357D01*
X15727928Y-13121071D01*
X15713643Y-13149643D01*
X15699357Y-13163929D01*
X15670786Y-13178214D01*
X15627928Y-13178214D01*
X15899357Y-13178214D02*
X15870786Y-13163929D01*
X15856500Y-13135357D01*
X15856500Y-12878214D01*
X16127928Y-13163929D02*
X16099357Y-13178214D01*
X16042214Y-13178214D01*
X16013643Y-13163929D01*
X15999357Y-13135357D01*
X15999357Y-13021071D01*
X16013643Y-12992500D01*
X16042214Y-12978214D01*
X16099357Y-12978214D01*
X16127928Y-12992500D01*
X16142214Y-13021071D01*
X16142214Y-13049643D01*
X15999357Y-13078214D01*
X16256500Y-13163929D02*
X16285071Y-13178214D01*
X16342214Y-13178214D01*
X16370786Y-13163929D01*
X16385071Y-13135357D01*
X16385071Y-13121071D01*
X16370786Y-13092500D01*
X16342214Y-13078214D01*
X16299357Y-13078214D01*
X16270786Y-13063929D01*
X16256500Y-13035357D01*
X16256500Y-13021071D01*
X16270786Y-12992500D01*
X16299357Y-12978214D01*
X16342214Y-12978214D01*
X16370786Y-12992500D01*
X16485071Y-13292500D02*
X16499357Y-13278214D01*
X16527928Y-13235357D01*
X16542214Y-13206786D01*
X16556500Y-13163929D01*
X16570786Y-13092500D01*
X16570786Y-13035357D01*
X16556500Y-12963929D01*
X16542214Y-12921071D01*
X16527928Y-12892500D01*
X16499357Y-12849643D01*
X16485071Y-12835357D01*
X9091500Y-13388500D02*
X9091500Y-13488500D01*
X9041500Y-13438500D02*
X9141500Y-13438500D01*
X9585071Y-13574214D02*
X9413643Y-13574214D01*
X9499357Y-13574214D02*
X9499357Y-13274214D01*
X9470786Y-13317071D01*
X9442214Y-13345643D01*
X9413643Y-13359929D01*
X9713643Y-13545643D02*
X9727928Y-13559929D01*
X9713643Y-13574214D01*
X9699357Y-13559929D01*
X9713643Y-13545643D01*
X9713643Y-13574214D01*
X9913643Y-13274214D02*
X9942214Y-13274214D01*
X9970786Y-13288500D01*
X9985071Y-13302786D01*
X9999357Y-13331357D01*
X10013643Y-13388500D01*
X10013643Y-13459929D01*
X9999357Y-13517071D01*
X9985071Y-13545643D01*
X9970786Y-13559929D01*
X9942214Y-13574214D01*
X9913643Y-13574214D01*
X9885071Y-13559929D01*
X9870786Y-13545643D01*
X9856500Y-13517071D01*
X9842214Y-13459929D01*
X9842214Y-13388500D01*
X9856500Y-13331357D01*
X9870786Y-13302786D01*
X9885071Y-13288500D01*
X9913643Y-13274214D01*
X10199357Y-13274214D02*
X10227928Y-13274214D01*
X10256500Y-13288500D01*
X10270786Y-13302786D01*
X10285071Y-13331357D01*
X10299357Y-13388500D01*
X10299357Y-13459929D01*
X10285071Y-13517071D01*
X10270786Y-13545643D01*
X10256500Y-13559929D01*
X10227928Y-13574214D01*
X10199357Y-13574214D01*
X10170786Y-13559929D01*
X10156500Y-13545643D01*
X10142214Y-13517071D01*
X10127928Y-13459929D01*
X10127928Y-13388500D01*
X10142214Y-13331357D01*
X10156500Y-13302786D01*
X10170786Y-13288500D01*
X10199357Y-13274214D01*
X10485071Y-13274214D02*
X10513643Y-13274214D01*
X10542214Y-13288500D01*
X10556500Y-13302786D01*
X10570786Y-13331357D01*
X10585071Y-13388500D01*
X10585071Y-13459929D01*
X10570786Y-13517071D01*
X10556500Y-13545643D01*
X10542214Y-13559929D01*
X10513643Y-13574214D01*
X10485071Y-13574214D01*
X10456500Y-13559929D01*
X10442214Y-13545643D01*
X10427928Y-13517071D01*
X10413643Y-13459929D01*
X10413643Y-13388500D01*
X10427928Y-13331357D01*
X10442214Y-13302786D01*
X10456500Y-13288500D01*
X10485071Y-13274214D01*
X10713643Y-13574214D02*
X10713643Y-13374214D01*
X10713643Y-13402786D02*
X10727928Y-13388500D01*
X10756500Y-13374214D01*
X10799357Y-13374214D01*
X10827928Y-13388500D01*
X10842214Y-13417071D01*
X10842214Y-13574214D01*
X10842214Y-13417071D02*
X10856500Y-13388500D01*
X10885071Y-13374214D01*
X10927928Y-13374214D01*
X10956500Y-13388500D01*
X10970786Y-13417071D01*
X10970786Y-13574214D01*
X11113643Y-13574214D02*
X11113643Y-13374214D01*
X11113643Y-13402786D02*
X11127928Y-13388500D01*
X11156500Y-13374214D01*
X11199357Y-13374214D01*
X11227928Y-13388500D01*
X11242214Y-13417071D01*
X11242214Y-13574214D01*
X11242214Y-13417071D02*
X11256500Y-13388500D01*
X11285071Y-13374214D01*
X11327928Y-13374214D01*
X11356500Y-13388500D01*
X11370786Y-13417071D01*
X11370786Y-13574214D01*
X11956500Y-13259929D02*
X11699357Y-13645643D01*
X12342214Y-13274214D02*
X12370786Y-13274214D01*
X12399357Y-13288500D01*
X12413643Y-13302786D01*
X12427928Y-13331357D01*
X12442214Y-13388500D01*
X12442214Y-13459929D01*
X12427928Y-13517071D01*
X12413643Y-13545643D01*
X12399357Y-13559929D01*
X12370786Y-13574214D01*
X12342214Y-13574214D01*
X12313643Y-13559929D01*
X12299357Y-13545643D01*
X12285071Y-13517071D01*
X12270786Y-13459929D01*
X12270786Y-13388500D01*
X12285071Y-13331357D01*
X12299357Y-13302786D01*
X12313643Y-13288500D01*
X12342214Y-13274214D01*
X12570786Y-13545643D02*
X12585071Y-13559929D01*
X12570786Y-13574214D01*
X12556500Y-13559929D01*
X12570786Y-13545643D01*
X12570786Y-13574214D01*
X12770786Y-13274214D02*
X12799357Y-13274214D01*
X12827928Y-13288500D01*
X12842214Y-13302786D01*
X12856500Y-13331357D01*
X12870786Y-13388500D01*
X12870786Y-13459929D01*
X12856500Y-13517071D01*
X12842214Y-13545643D01*
X12827928Y-13559929D01*
X12799357Y-13574214D01*
X12770786Y-13574214D01*
X12742214Y-13559929D01*
X12727928Y-13545643D01*
X12713643Y-13517071D01*
X12699357Y-13459929D01*
X12699357Y-13388500D01*
X12713643Y-13331357D01*
X12727928Y-13302786D01*
X12742214Y-13288500D01*
X12770786Y-13274214D01*
X12970786Y-13274214D02*
X13156500Y-13274214D01*
X13056500Y-13388500D01*
X13099357Y-13388500D01*
X13127928Y-13402786D01*
X13142214Y-13417071D01*
X13156500Y-13445643D01*
X13156500Y-13517071D01*
X13142214Y-13545643D01*
X13127928Y-13559929D01*
X13099357Y-13574214D01*
X13013643Y-13574214D01*
X12985071Y-13559929D01*
X12970786Y-13545643D01*
X13299357Y-13574214D02*
X13356500Y-13574214D01*
X13385071Y-13559929D01*
X13399357Y-13545643D01*
X13427928Y-13502786D01*
X13442214Y-13445643D01*
X13442214Y-13331357D01*
X13427928Y-13302786D01*
X13413643Y-13288500D01*
X13385071Y-13274214D01*
X13327928Y-13274214D01*
X13299357Y-13288500D01*
X13285071Y-13302786D01*
X13270786Y-13331357D01*
X13270786Y-13402786D01*
X13285071Y-13431357D01*
X13299357Y-13445643D01*
X13327928Y-13459929D01*
X13385071Y-13459929D01*
X13413643Y-13445643D01*
X13427928Y-13431357D01*
X13442214Y-13402786D01*
X13699357Y-13374214D02*
X13699357Y-13574214D01*
X13627928Y-13259929D02*
X13556500Y-13474214D01*
X13742214Y-13474214D01*
X13842214Y-13274214D02*
X13842214Y-13331357D01*
X13956500Y-13274214D02*
X13956500Y-13331357D01*
X14399357Y-13688500D02*
X14385071Y-13674214D01*
X14356500Y-13631357D01*
X14342214Y-13602786D01*
X14327928Y-13559929D01*
X14313643Y-13488500D01*
X14313643Y-13431357D01*
X14327928Y-13359929D01*
X14342214Y-13317071D01*
X14356500Y-13288500D01*
X14385071Y-13245643D01*
X14399357Y-13231357D01*
X14499357Y-13302786D02*
X14513643Y-13288500D01*
X14542214Y-13274214D01*
X14613643Y-13274214D01*
X14642214Y-13288500D01*
X14656500Y-13302786D01*
X14670786Y-13331357D01*
X14670786Y-13359929D01*
X14656500Y-13402786D01*
X14485071Y-13574214D01*
X14670786Y-13574214D01*
X14856500Y-13274214D02*
X14885071Y-13274214D01*
X14913643Y-13288500D01*
X14927928Y-13302786D01*
X14942214Y-13331357D01*
X14956500Y-13388500D01*
X14956500Y-13459929D01*
X14942214Y-13517071D01*
X14927928Y-13545643D01*
X14913643Y-13559929D01*
X14885071Y-13574214D01*
X14856500Y-13574214D01*
X14827928Y-13559929D01*
X14813643Y-13545643D01*
X14799357Y-13517071D01*
X14785071Y-13459929D01*
X14785071Y-13388500D01*
X14799357Y-13331357D01*
X14813643Y-13302786D01*
X14827928Y-13288500D01*
X14856500Y-13274214D01*
X15313643Y-13574214D02*
X15313643Y-13274214D01*
X15442214Y-13574214D02*
X15442214Y-13417071D01*
X15427928Y-13388500D01*
X15399357Y-13374214D01*
X15356500Y-13374214D01*
X15327928Y-13388500D01*
X15313643Y-13402786D01*
X15627928Y-13574214D02*
X15599357Y-13559929D01*
X15585071Y-13545643D01*
X15570786Y-13517071D01*
X15570786Y-13431357D01*
X15585071Y-13402786D01*
X15599357Y-13388500D01*
X15627928Y-13374214D01*
X15670786Y-13374214D01*
X15699357Y-13388500D01*
X15713643Y-13402786D01*
X15727928Y-13431357D01*
X15727928Y-13517071D01*
X15713643Y-13545643D01*
X15699357Y-13559929D01*
X15670786Y-13574214D01*
X15627928Y-13574214D01*
X15899357Y-13574214D02*
X15870786Y-13559929D01*
X15856500Y-13531357D01*
X15856500Y-13274214D01*
X16127928Y-13559929D02*
X16099357Y-13574214D01*
X16042214Y-13574214D01*
X16013643Y-13559929D01*
X15999357Y-13531357D01*
X15999357Y-13417071D01*
X16013643Y-13388500D01*
X16042214Y-13374214D01*
X16099357Y-13374214D01*
X16127928Y-13388500D01*
X16142214Y-13417071D01*
X16142214Y-13445643D01*
X15999357Y-13474214D01*
X16256500Y-13559929D02*
X16285071Y-13574214D01*
X16342214Y-13574214D01*
X16370786Y-13559929D01*
X16385071Y-13531357D01*
X16385071Y-13517071D01*
X16370786Y-13488500D01*
X16342214Y-13474214D01*
X16299357Y-13474214D01*
X16270786Y-13459929D01*
X16256500Y-13431357D01*
X16256500Y-13417071D01*
X16270786Y-13388500D01*
X16299357Y-13374214D01*
X16342214Y-13374214D01*
X16370786Y-13388500D01*
X16485071Y-13688500D02*
X16499357Y-13674214D01*
X16527928Y-13631357D01*
X16542214Y-13602786D01*
X16556500Y-13559929D01*
X16570786Y-13488500D01*
X16570786Y-13431357D01*
X16556500Y-13359929D01*
X16542214Y-13317071D01*
X16527928Y-13288500D01*
X16499357Y-13245643D01*
X16485071Y-13231357D01*
M02*
