G04 #@! TF.GenerationSoftware,KiCad,Pcbnew,5.1.12-84ad8e8a86~92~ubuntu20.04.1*
G04 #@! TF.CreationDate,2021-12-08T10:45:37-05:00*
G04 #@! TF.ProjectId,2164_phasor_plug_in_board,32313634-5f70-4686-9173-6f725f706c75,0.1*
G04 #@! TF.SameCoordinates,Original*
G04 #@! TF.FileFunction,Legend,Top*
G04 #@! TF.FilePolarity,Positive*
%FSLAX46Y46*%
G04 Gerber Fmt 4.6, Leading zero omitted, Abs format (unit mm)*
G04 Created by KiCad (PCBNEW 5.1.12-84ad8e8a86~92~ubuntu20.04.1) date 2021-12-08 10:45:37*
%MOMM*%
%LPD*%
G01*
G04 APERTURE LIST*
%ADD10C,0.150000*%
%ADD11C,0.120000*%
%ADD12C,1.702000*%
%ADD13C,1.542000*%
%ADD14O,1.802000X1.802000*%
G04 APERTURE END LIST*
D10*
X97655238Y-116022380D02*
X97655238Y-115022380D01*
X97655238Y-115974761D02*
X97560000Y-116022380D01*
X97369523Y-116022380D01*
X97274285Y-115974761D01*
X97226666Y-115927142D01*
X97179047Y-115831904D01*
X97179047Y-115546190D01*
X97226666Y-115450952D01*
X97274285Y-115403333D01*
X97369523Y-115355714D01*
X97560000Y-115355714D01*
X97655238Y-115403333D01*
X98512380Y-115974761D02*
X98417142Y-116022380D01*
X98226666Y-116022380D01*
X98131428Y-115974761D01*
X98083809Y-115879523D01*
X98083809Y-115498571D01*
X98131428Y-115403333D01*
X98226666Y-115355714D01*
X98417142Y-115355714D01*
X98512380Y-115403333D01*
X98560000Y-115498571D01*
X98560000Y-115593809D01*
X98083809Y-115689047D01*
X98988571Y-115355714D02*
X98988571Y-116355714D01*
X98988571Y-115403333D02*
X99083809Y-115355714D01*
X99274285Y-115355714D01*
X99369523Y-115403333D01*
X99417142Y-115450952D01*
X99464761Y-115546190D01*
X99464761Y-115831904D01*
X99417142Y-115927142D01*
X99369523Y-115974761D01*
X99274285Y-116022380D01*
X99083809Y-116022380D01*
X98988571Y-115974761D01*
X99750476Y-115355714D02*
X100131428Y-115355714D01*
X99893333Y-115022380D02*
X99893333Y-115879523D01*
X99940952Y-115974761D01*
X100036190Y-116022380D01*
X100131428Y-116022380D01*
X100464761Y-116022380D02*
X100464761Y-115022380D01*
X100893333Y-116022380D02*
X100893333Y-115498571D01*
X100845714Y-115403333D01*
X100750476Y-115355714D01*
X100607619Y-115355714D01*
X100512380Y-115403333D01*
X100464761Y-115450952D01*
X103108333Y-115974761D02*
X103013095Y-116022380D01*
X102822619Y-116022380D01*
X102727380Y-115974761D01*
X102679761Y-115927142D01*
X102632142Y-115831904D01*
X102632142Y-115546190D01*
X102679761Y-115450952D01*
X102727380Y-115403333D01*
X102822619Y-115355714D01*
X103013095Y-115355714D01*
X103108333Y-115403333D01*
X103917857Y-115974761D02*
X103822619Y-116022380D01*
X103632142Y-116022380D01*
X103536904Y-115974761D01*
X103489285Y-115879523D01*
X103489285Y-115498571D01*
X103536904Y-115403333D01*
X103632142Y-115355714D01*
X103822619Y-115355714D01*
X103917857Y-115403333D01*
X103965476Y-115498571D01*
X103965476Y-115593809D01*
X103489285Y-115689047D01*
X104394047Y-115355714D02*
X104394047Y-116022380D01*
X104394047Y-115450952D02*
X104441666Y-115403333D01*
X104536904Y-115355714D01*
X104679761Y-115355714D01*
X104775000Y-115403333D01*
X104822619Y-115498571D01*
X104822619Y-116022380D01*
X105155952Y-115355714D02*
X105536904Y-115355714D01*
X105298809Y-115022380D02*
X105298809Y-115879523D01*
X105346428Y-115974761D01*
X105441666Y-116022380D01*
X105536904Y-116022380D01*
X106251190Y-115974761D02*
X106155952Y-116022380D01*
X105965476Y-116022380D01*
X105870238Y-115974761D01*
X105822619Y-115879523D01*
X105822619Y-115498571D01*
X105870238Y-115403333D01*
X105965476Y-115355714D01*
X106155952Y-115355714D01*
X106251190Y-115403333D01*
X106298809Y-115498571D01*
X106298809Y-115593809D01*
X105822619Y-115689047D01*
X106727380Y-116022380D02*
X106727380Y-115355714D01*
X106727380Y-115546190D02*
X106775000Y-115450952D01*
X106822619Y-115403333D01*
X106917857Y-115355714D01*
X107013095Y-115355714D01*
X107886904Y-115355714D02*
X108267857Y-115355714D01*
X108029761Y-116022380D02*
X108029761Y-115165238D01*
X108077380Y-115070000D01*
X108172619Y-115022380D01*
X108267857Y-115022380D01*
X108982142Y-115974761D02*
X108886904Y-116022380D01*
X108696428Y-116022380D01*
X108601190Y-115974761D01*
X108553571Y-115879523D01*
X108553571Y-115498571D01*
X108601190Y-115403333D01*
X108696428Y-115355714D01*
X108886904Y-115355714D01*
X108982142Y-115403333D01*
X109029761Y-115498571D01*
X109029761Y-115593809D01*
X108553571Y-115689047D01*
X109839285Y-115974761D02*
X109744047Y-116022380D01*
X109553571Y-116022380D01*
X109458333Y-115974761D01*
X109410714Y-115879523D01*
X109410714Y-115498571D01*
X109458333Y-115403333D01*
X109553571Y-115355714D01*
X109744047Y-115355714D01*
X109839285Y-115403333D01*
X109886904Y-115498571D01*
X109886904Y-115593809D01*
X109410714Y-115689047D01*
X110744047Y-116022380D02*
X110744047Y-115022380D01*
X110744047Y-115974761D02*
X110648809Y-116022380D01*
X110458333Y-116022380D01*
X110363095Y-115974761D01*
X110315476Y-115927142D01*
X110267857Y-115831904D01*
X110267857Y-115546190D01*
X110315476Y-115450952D01*
X110363095Y-115403333D01*
X110458333Y-115355714D01*
X110648809Y-115355714D01*
X110744047Y-115403333D01*
X111220238Y-116022380D02*
X111220238Y-115022380D01*
X111220238Y-115403333D02*
X111315476Y-115355714D01*
X111505952Y-115355714D01*
X111601190Y-115403333D01*
X111648809Y-115450952D01*
X111696428Y-115546190D01*
X111696428Y-115831904D01*
X111648809Y-115927142D01*
X111601190Y-115974761D01*
X111505952Y-116022380D01*
X111315476Y-116022380D01*
X111220238Y-115974761D01*
X112553571Y-116022380D02*
X112553571Y-115498571D01*
X112505952Y-115403333D01*
X112410714Y-115355714D01*
X112220238Y-115355714D01*
X112125000Y-115403333D01*
X112553571Y-115974761D02*
X112458333Y-116022380D01*
X112220238Y-116022380D01*
X112125000Y-115974761D01*
X112077380Y-115879523D01*
X112077380Y-115784285D01*
X112125000Y-115689047D01*
X112220238Y-115641428D01*
X112458333Y-115641428D01*
X112553571Y-115593809D01*
X113458333Y-115974761D02*
X113363095Y-116022380D01*
X113172619Y-116022380D01*
X113077380Y-115974761D01*
X113029761Y-115927142D01*
X112982142Y-115831904D01*
X112982142Y-115546190D01*
X113029761Y-115450952D01*
X113077380Y-115403333D01*
X113172619Y-115355714D01*
X113363095Y-115355714D01*
X113458333Y-115403333D01*
X113886904Y-116022380D02*
X113886904Y-115022380D01*
X113982142Y-115641428D02*
X114267857Y-116022380D01*
X114267857Y-115355714D02*
X113886904Y-115736666D01*
D11*
X137250000Y-110220000D02*
X133350000Y-110220000D01*
X137250000Y-108220000D02*
X133350000Y-108220000D01*
X137250000Y-110220000D02*
X137250000Y-108220000D01*
X137250000Y-112760000D02*
X133350000Y-112760000D01*
X137250000Y-110760000D02*
X133350000Y-110760000D01*
X137250000Y-112760000D02*
X137250000Y-110760000D01*
X141386000Y-72186000D02*
X145126000Y-72186000D01*
X141386000Y-79626000D02*
X145126000Y-79626000D01*
X145126000Y-79626000D02*
X145126000Y-72186000D01*
X141386000Y-79626000D02*
X141386000Y-72186000D01*
X128290000Y-87122000D02*
X128290000Y-89072000D01*
X128290000Y-87122000D02*
X128290000Y-85172000D01*
X138410000Y-87122000D02*
X138410000Y-89072000D01*
X138410000Y-87122000D02*
X138410000Y-83672000D01*
X142678000Y-87122000D02*
X142678000Y-89322000D01*
X142678000Y-87122000D02*
X142678000Y-84922000D01*
X147898000Y-87122000D02*
X147898000Y-89322000D01*
X147898000Y-87122000D02*
X147898000Y-83522000D01*
X118675000Y-87376000D02*
X118675000Y-89576000D01*
X118675000Y-87376000D02*
X118675000Y-85176000D01*
X123895000Y-87376000D02*
X123895000Y-89576000D01*
X123895000Y-87376000D02*
X123895000Y-83776000D01*
X94545000Y-87376000D02*
X94545000Y-89576000D01*
X94545000Y-87376000D02*
X94545000Y-85176000D01*
X99765000Y-87376000D02*
X99765000Y-89576000D01*
X99765000Y-87376000D02*
X99765000Y-83776000D01*
X120920742Y-110221500D02*
X121395258Y-110221500D01*
X120920742Y-111266500D02*
X121395258Y-111266500D01*
X117077258Y-111266500D02*
X116602742Y-111266500D01*
X117077258Y-110221500D02*
X116602742Y-110221500D01*
X117077258Y-108218500D02*
X116602742Y-108218500D01*
X117077258Y-107173500D02*
X116602742Y-107173500D01*
X117077258Y-114822500D02*
X116602742Y-114822500D01*
X117077258Y-113777500D02*
X116602742Y-113777500D01*
X107712742Y-97267500D02*
X108187258Y-97267500D01*
X107712742Y-98312500D02*
X108187258Y-98312500D01*
X103869258Y-95264500D02*
X103394742Y-95264500D01*
X103869258Y-94219500D02*
X103394742Y-94219500D01*
X111776742Y-100315500D02*
X112251258Y-100315500D01*
X111776742Y-101360500D02*
X112251258Y-101360500D01*
X111776742Y-94219500D02*
X112251258Y-94219500D01*
X111776742Y-95264500D02*
X112251258Y-95264500D01*
X107712742Y-94219500D02*
X108187258Y-94219500D01*
X107712742Y-95264500D02*
X108187258Y-95264500D01*
X139208742Y-80503500D02*
X139683258Y-80503500D01*
X139208742Y-81548500D02*
X139683258Y-81548500D01*
X122157258Y-95264500D02*
X121682742Y-95264500D01*
X122157258Y-94219500D02*
X121682742Y-94219500D01*
X117491742Y-78979500D02*
X117966258Y-78979500D01*
X117491742Y-80024500D02*
X117966258Y-80024500D01*
X139683258Y-75452500D02*
X139208742Y-75452500D01*
X139683258Y-74407500D02*
X139208742Y-74407500D01*
X139683258Y-72404500D02*
X139208742Y-72404500D01*
X139683258Y-71359500D02*
X139208742Y-71359500D01*
X139683258Y-78500500D02*
X139208742Y-78500500D01*
X139683258Y-77455500D02*
X139208742Y-77455500D01*
X122157258Y-104408500D02*
X121682742Y-104408500D01*
X122157258Y-103363500D02*
X121682742Y-103363500D01*
X122157258Y-101360500D02*
X121682742Y-101360500D01*
X122157258Y-100315500D02*
X121682742Y-100315500D01*
X121682742Y-97267500D02*
X122157258Y-97267500D01*
X121682742Y-98312500D02*
X122157258Y-98312500D01*
X117966258Y-75452500D02*
X117491742Y-75452500D01*
X117966258Y-74407500D02*
X117491742Y-74407500D01*
X117966258Y-68848500D02*
X117491742Y-68848500D01*
X117966258Y-67803500D02*
X117491742Y-67803500D01*
X117966258Y-72150500D02*
X117491742Y-72150500D01*
X117966258Y-71105500D02*
X117491742Y-71105500D01*
X134349258Y-107456500D02*
X133874742Y-107456500D01*
X134349258Y-106411500D02*
X133874742Y-106411500D01*
X133874742Y-67803500D02*
X134349258Y-67803500D01*
X133874742Y-68848500D02*
X134349258Y-68848500D01*
X110760742Y-67803500D02*
X111235258Y-67803500D01*
X110760742Y-68848500D02*
X111235258Y-68848500D01*
X133874742Y-94219500D02*
X134349258Y-94219500D01*
X133874742Y-95264500D02*
X134349258Y-95264500D01*
X134349258Y-81548500D02*
X133874742Y-81548500D01*
X134349258Y-80503500D02*
X133874742Y-80503500D01*
X111235258Y-81548500D02*
X110760742Y-81548500D01*
X111235258Y-80503500D02*
X110760742Y-80503500D01*
X133874742Y-100315500D02*
X134349258Y-100315500D01*
X133874742Y-101360500D02*
X134349258Y-101360500D01*
X134349258Y-75452500D02*
X133874742Y-75452500D01*
X134349258Y-74407500D02*
X133874742Y-74407500D01*
X111235258Y-75452500D02*
X110760742Y-75452500D01*
X111235258Y-74407500D02*
X110760742Y-74407500D01*
X133874742Y-103363500D02*
X134349258Y-103363500D01*
X133874742Y-104408500D02*
X134349258Y-104408500D01*
X134349258Y-72150500D02*
X133874742Y-72150500D01*
X134349258Y-71105500D02*
X133874742Y-71105500D01*
X111235258Y-72150500D02*
X110760742Y-72150500D01*
X111235258Y-71105500D02*
X110760742Y-71105500D01*
X127745258Y-104408500D02*
X127270742Y-104408500D01*
X127745258Y-103363500D02*
X127270742Y-103363500D01*
X128888258Y-72150500D02*
X128413742Y-72150500D01*
X128888258Y-71105500D02*
X128413742Y-71105500D01*
X104664742Y-71105500D02*
X105139258Y-71105500D01*
X104664742Y-72150500D02*
X105139258Y-72150500D01*
X127270742Y-94219500D02*
X127745258Y-94219500D01*
X127270742Y-95264500D02*
X127745258Y-95264500D01*
X128413742Y-80503500D02*
X128888258Y-80503500D01*
X128413742Y-81548500D02*
X128888258Y-81548500D01*
X104664742Y-80503500D02*
X105139258Y-80503500D01*
X104664742Y-81548500D02*
X105139258Y-81548500D01*
X127745258Y-101360500D02*
X127270742Y-101360500D01*
X127745258Y-100315500D02*
X127270742Y-100315500D01*
X128413742Y-74407500D02*
X128888258Y-74407500D01*
X128413742Y-75452500D02*
X128888258Y-75452500D01*
X105139258Y-75452500D02*
X104664742Y-75452500D01*
X105139258Y-74407500D02*
X104664742Y-74407500D01*
X147494258Y-80659500D02*
X147019742Y-80659500D01*
X147494258Y-79614500D02*
X147019742Y-79614500D01*
X142954742Y-67803500D02*
X143429258Y-67803500D01*
X142954742Y-68848500D02*
X143429258Y-68848500D01*
X94441742Y-94219500D02*
X94916258Y-94219500D01*
X94441742Y-95264500D02*
X94916258Y-95264500D01*
X98060742Y-94219500D02*
X98535258Y-94219500D01*
X98060742Y-95264500D02*
X98535258Y-95264500D01*
X121017420Y-107186000D02*
X121298580Y-107186000D01*
X121017420Y-108206000D02*
X121298580Y-108206000D01*
X140714000Y-89294580D02*
X140714000Y-89013420D01*
X141734000Y-89294580D02*
X141734000Y-89013420D01*
X140714000Y-85979580D02*
X140714000Y-85698420D01*
X141734000Y-85979580D02*
X141734000Y-85698420D01*
X126236000Y-89281580D02*
X126236000Y-89000420D01*
X127256000Y-89281580D02*
X127256000Y-89000420D01*
X126236000Y-85992580D02*
X126236000Y-85711420D01*
X127256000Y-85992580D02*
X127256000Y-85711420D01*
X116584000Y-89294580D02*
X116584000Y-89013420D01*
X117604000Y-89294580D02*
X117604000Y-89013420D01*
X116584000Y-85992580D02*
X116584000Y-85711420D01*
X117604000Y-85992580D02*
X117604000Y-85711420D01*
X102106000Y-89294580D02*
X102106000Y-89013420D01*
X103126000Y-89294580D02*
X103126000Y-89013420D01*
X102106000Y-85992580D02*
X102106000Y-85711420D01*
X103126000Y-85992580D02*
X103126000Y-85711420D01*
X92454000Y-89294580D02*
X92454000Y-89013420D01*
X93474000Y-89294580D02*
X93474000Y-89013420D01*
X92454000Y-85992580D02*
X92454000Y-85711420D01*
X93474000Y-85992580D02*
X93474000Y-85711420D01*
X142486748Y-105945000D02*
X143009252Y-105945000D01*
X142486748Y-107415000D02*
X143009252Y-107415000D01*
X143009252Y-112495000D02*
X142486748Y-112495000D01*
X143009252Y-111025000D02*
X142486748Y-111025000D01*
X121017420Y-113790000D02*
X121298580Y-113790000D01*
X121017420Y-114810000D02*
X121298580Y-114810000D01*
X103491420Y-97280000D02*
X103772580Y-97280000D01*
X103491420Y-98300000D02*
X103772580Y-98300000D01*
X112154580Y-98300000D02*
X111873420Y-98300000D01*
X112154580Y-97280000D02*
X111873420Y-97280000D01*
X143197252Y-95477000D02*
X142674748Y-95477000D01*
X143197252Y-94007000D02*
X142674748Y-94007000D01*
X117086748Y-94007000D02*
X117609252Y-94007000D01*
X117086748Y-95477000D02*
X117609252Y-95477000D01*
X99829252Y-80999000D02*
X99306748Y-80999000D01*
X99829252Y-79529000D02*
X99306748Y-79529000D01*
X133971420Y-97280000D02*
X134252580Y-97280000D01*
X133971420Y-98300000D02*
X134252580Y-98300000D01*
X134252580Y-78488000D02*
X133971420Y-78488000D01*
X134252580Y-77468000D02*
X133971420Y-77468000D01*
X111138580Y-78488000D02*
X110857420Y-78488000D01*
X111138580Y-77468000D02*
X110857420Y-77468000D01*
X138422748Y-94007000D02*
X138945252Y-94007000D01*
X138422748Y-95477000D02*
X138945252Y-95477000D01*
X123197252Y-80237000D02*
X122674748Y-80237000D01*
X123197252Y-78767000D02*
X122674748Y-78767000D01*
X94226748Y-79529000D02*
X94749252Y-79529000D01*
X94226748Y-80999000D02*
X94749252Y-80999000D01*
X127367420Y-97280000D02*
X127648580Y-97280000D01*
X127367420Y-98300000D02*
X127648580Y-98300000D01*
X128510420Y-77468000D02*
X128791580Y-77468000D01*
X128510420Y-78488000D02*
X128791580Y-78488000D01*
X104761420Y-77468000D02*
X105042580Y-77468000D01*
X104761420Y-78488000D02*
X105042580Y-78488000D01*
X94601420Y-97280000D02*
X94882580Y-97280000D01*
X94601420Y-98300000D02*
X94882580Y-98300000D01*
X130068000Y-110998000D02*
X130068000Y-107548000D01*
X130068000Y-110998000D02*
X130068000Y-112948000D01*
X124948000Y-110998000D02*
X124948000Y-109048000D01*
X124948000Y-110998000D02*
X124948000Y-112948000D01*
X114280000Y-87376000D02*
X114280000Y-83926000D01*
X114280000Y-87376000D02*
X114280000Y-89326000D01*
X104160000Y-87376000D02*
X104160000Y-85426000D01*
X104160000Y-87376000D02*
X104160000Y-89326000D01*
X107305000Y-114105000D02*
X102235000Y-114105000D01*
X107305000Y-104335000D02*
X102235000Y-104335000D01*
X102235000Y-104335000D02*
X102235000Y-114105000D01*
X107305000Y-104335000D02*
X107305000Y-114105000D01*
X101590000Y-114105000D02*
X96520000Y-114105000D01*
X101590000Y-104335000D02*
X96520000Y-104335000D01*
X96520000Y-104335000D02*
X96520000Y-114105000D01*
X101590000Y-104335000D02*
X101590000Y-114105000D01*
X113020000Y-114105000D02*
X107950000Y-114105000D01*
X113020000Y-104335000D02*
X107950000Y-104335000D01*
X107950000Y-104335000D02*
X107950000Y-114105000D01*
X113020000Y-104335000D02*
X113020000Y-114105000D01*
X139736000Y-100346000D02*
X143636000Y-100346000D01*
X139736000Y-102346000D02*
X143636000Y-102346000D01*
X139736000Y-100346000D02*
X139736000Y-102346000D01*
D10*
X137691904Y-109672380D02*
X137691904Y-108672380D01*
X137930000Y-108672380D01*
X138072857Y-108720000D01*
X138168095Y-108815238D01*
X138215714Y-108910476D01*
X138263333Y-109100952D01*
X138263333Y-109243809D01*
X138215714Y-109434285D01*
X138168095Y-109529523D01*
X138072857Y-109624761D01*
X137930000Y-109672380D01*
X137691904Y-109672380D01*
X138596666Y-108672380D02*
X139215714Y-108672380D01*
X138882380Y-109053333D01*
X139025238Y-109053333D01*
X139120476Y-109100952D01*
X139168095Y-109148571D01*
X139215714Y-109243809D01*
X139215714Y-109481904D01*
X139168095Y-109577142D01*
X139120476Y-109624761D01*
X139025238Y-109672380D01*
X138739523Y-109672380D01*
X138644285Y-109624761D01*
X138596666Y-109577142D01*
X137563904Y-112212380D02*
X137563904Y-111212380D01*
X137802000Y-111212380D01*
X137944857Y-111260000D01*
X138040095Y-111355238D01*
X138087714Y-111450476D01*
X138135333Y-111640952D01*
X138135333Y-111783809D01*
X138087714Y-111974285D01*
X138040095Y-112069523D01*
X137944857Y-112164761D01*
X137802000Y-112212380D01*
X137563904Y-112212380D01*
X138516285Y-111307619D02*
X138563904Y-111260000D01*
X138659142Y-111212380D01*
X138897238Y-111212380D01*
X138992476Y-111260000D01*
X139040095Y-111307619D01*
X139087714Y-111402857D01*
X139087714Y-111498095D01*
X139040095Y-111640952D01*
X138468666Y-112212380D01*
X139087714Y-112212380D01*
X142613142Y-71731142D02*
X142565523Y-71778761D01*
X142422666Y-71826380D01*
X142327428Y-71826380D01*
X142184571Y-71778761D01*
X142089333Y-71683523D01*
X142041714Y-71588285D01*
X141994095Y-71397809D01*
X141994095Y-71254952D01*
X142041714Y-71064476D01*
X142089333Y-70969238D01*
X142184571Y-70874000D01*
X142327428Y-70826380D01*
X142422666Y-70826380D01*
X142565523Y-70874000D01*
X142613142Y-70921619D01*
X143565523Y-71826380D02*
X142994095Y-71826380D01*
X143279809Y-71826380D02*
X143279809Y-70826380D01*
X143184571Y-70969238D01*
X143089333Y-71064476D01*
X142994095Y-71112095D01*
X144422666Y-71159714D02*
X144422666Y-71826380D01*
X144184571Y-70778761D02*
X143946476Y-71493047D01*
X144565523Y-71493047D01*
X138684095Y-86574380D02*
X138684095Y-87383904D01*
X138731714Y-87479142D01*
X138779333Y-87526761D01*
X138874571Y-87574380D01*
X139065047Y-87574380D01*
X139160285Y-87526761D01*
X139207904Y-87479142D01*
X139255523Y-87383904D01*
X139255523Y-86574380D01*
X140160285Y-86907714D02*
X140160285Y-87574380D01*
X139922190Y-86526761D02*
X139684095Y-87241047D01*
X140303142Y-87241047D01*
X148082095Y-86574380D02*
X148082095Y-87383904D01*
X148129714Y-87479142D01*
X148177333Y-87526761D01*
X148272571Y-87574380D01*
X148463047Y-87574380D01*
X148558285Y-87526761D01*
X148605904Y-87479142D01*
X148653523Y-87383904D01*
X148653523Y-86574380D01*
X149605904Y-86574380D02*
X149129714Y-86574380D01*
X149082095Y-87050571D01*
X149129714Y-87002952D01*
X149224952Y-86955333D01*
X149463047Y-86955333D01*
X149558285Y-87002952D01*
X149605904Y-87050571D01*
X149653523Y-87145809D01*
X149653523Y-87383904D01*
X149605904Y-87479142D01*
X149558285Y-87526761D01*
X149463047Y-87574380D01*
X149224952Y-87574380D01*
X149129714Y-87526761D01*
X149082095Y-87479142D01*
X124206095Y-86828380D02*
X124206095Y-87637904D01*
X124253714Y-87733142D01*
X124301333Y-87780761D01*
X124396571Y-87828380D01*
X124587047Y-87828380D01*
X124682285Y-87780761D01*
X124729904Y-87733142D01*
X124777523Y-87637904D01*
X124777523Y-86828380D01*
X125158476Y-86828380D02*
X125777523Y-86828380D01*
X125444190Y-87209333D01*
X125587047Y-87209333D01*
X125682285Y-87256952D01*
X125729904Y-87304571D01*
X125777523Y-87399809D01*
X125777523Y-87637904D01*
X125729904Y-87733142D01*
X125682285Y-87780761D01*
X125587047Y-87828380D01*
X125301333Y-87828380D01*
X125206095Y-87780761D01*
X125158476Y-87733142D01*
X100076095Y-86828380D02*
X100076095Y-87637904D01*
X100123714Y-87733142D01*
X100171333Y-87780761D01*
X100266571Y-87828380D01*
X100457047Y-87828380D01*
X100552285Y-87780761D01*
X100599904Y-87733142D01*
X100647523Y-87637904D01*
X100647523Y-86828380D01*
X101647523Y-87828380D02*
X101076095Y-87828380D01*
X101361809Y-87828380D02*
X101361809Y-86828380D01*
X101266571Y-86971238D01*
X101171333Y-87066476D01*
X101076095Y-87114095D01*
X120515142Y-109926380D02*
X120181809Y-109450190D01*
X119943714Y-109926380D02*
X119943714Y-108926380D01*
X120324666Y-108926380D01*
X120419904Y-108974000D01*
X120467523Y-109021619D01*
X120515142Y-109116857D01*
X120515142Y-109259714D01*
X120467523Y-109354952D01*
X120419904Y-109402571D01*
X120324666Y-109450190D01*
X119943714Y-109450190D01*
X121372285Y-109259714D02*
X121372285Y-109926380D01*
X121134190Y-108878761D02*
X120896095Y-109593047D01*
X121515142Y-109593047D01*
X122324666Y-108926380D02*
X122134190Y-108926380D01*
X122038952Y-108974000D01*
X121991333Y-109021619D01*
X121896095Y-109164476D01*
X121848476Y-109354952D01*
X121848476Y-109735904D01*
X121896095Y-109831142D01*
X121943714Y-109878761D01*
X122038952Y-109926380D01*
X122229428Y-109926380D01*
X122324666Y-109878761D01*
X122372285Y-109831142D01*
X122419904Y-109735904D01*
X122419904Y-109497809D01*
X122372285Y-109402571D01*
X122324666Y-109354952D01*
X122229428Y-109307333D01*
X122038952Y-109307333D01*
X121943714Y-109354952D01*
X121896095Y-109402571D01*
X121848476Y-109497809D01*
X116197142Y-109926380D02*
X115863809Y-109450190D01*
X115625714Y-109926380D02*
X115625714Y-108926380D01*
X116006666Y-108926380D01*
X116101904Y-108974000D01*
X116149523Y-109021619D01*
X116197142Y-109116857D01*
X116197142Y-109259714D01*
X116149523Y-109354952D01*
X116101904Y-109402571D01*
X116006666Y-109450190D01*
X115625714Y-109450190D01*
X117054285Y-109259714D02*
X117054285Y-109926380D01*
X116816190Y-108878761D02*
X116578095Y-109593047D01*
X117197142Y-109593047D01*
X118054285Y-108926380D02*
X117578095Y-108926380D01*
X117530476Y-109402571D01*
X117578095Y-109354952D01*
X117673333Y-109307333D01*
X117911428Y-109307333D01*
X118006666Y-109354952D01*
X118054285Y-109402571D01*
X118101904Y-109497809D01*
X118101904Y-109735904D01*
X118054285Y-109831142D01*
X118006666Y-109878761D01*
X117911428Y-109926380D01*
X117673333Y-109926380D01*
X117578095Y-109878761D01*
X117530476Y-109831142D01*
X116197142Y-106878380D02*
X115863809Y-106402190D01*
X115625714Y-106878380D02*
X115625714Y-105878380D01*
X116006666Y-105878380D01*
X116101904Y-105926000D01*
X116149523Y-105973619D01*
X116197142Y-106068857D01*
X116197142Y-106211714D01*
X116149523Y-106306952D01*
X116101904Y-106354571D01*
X116006666Y-106402190D01*
X115625714Y-106402190D01*
X117054285Y-106211714D02*
X117054285Y-106878380D01*
X116816190Y-105830761D02*
X116578095Y-106545047D01*
X117197142Y-106545047D01*
X118006666Y-106211714D02*
X118006666Y-106878380D01*
X117768571Y-105830761D02*
X117530476Y-106545047D01*
X118149523Y-106545047D01*
X116197142Y-113482380D02*
X115863809Y-113006190D01*
X115625714Y-113482380D02*
X115625714Y-112482380D01*
X116006666Y-112482380D01*
X116101904Y-112530000D01*
X116149523Y-112577619D01*
X116197142Y-112672857D01*
X116197142Y-112815714D01*
X116149523Y-112910952D01*
X116101904Y-112958571D01*
X116006666Y-113006190D01*
X115625714Y-113006190D01*
X117054285Y-112815714D02*
X117054285Y-113482380D01*
X116816190Y-112434761D02*
X116578095Y-113149047D01*
X117197142Y-113149047D01*
X117482857Y-112482380D02*
X118101904Y-112482380D01*
X117768571Y-112863333D01*
X117911428Y-112863333D01*
X118006666Y-112910952D01*
X118054285Y-112958571D01*
X118101904Y-113053809D01*
X118101904Y-113291904D01*
X118054285Y-113387142D01*
X118006666Y-113434761D01*
X117911428Y-113482380D01*
X117625714Y-113482380D01*
X117530476Y-113434761D01*
X117482857Y-113387142D01*
X107307142Y-96972380D02*
X106973809Y-96496190D01*
X106735714Y-96972380D02*
X106735714Y-95972380D01*
X107116666Y-95972380D01*
X107211904Y-96020000D01*
X107259523Y-96067619D01*
X107307142Y-96162857D01*
X107307142Y-96305714D01*
X107259523Y-96400952D01*
X107211904Y-96448571D01*
X107116666Y-96496190D01*
X106735714Y-96496190D01*
X108164285Y-96305714D02*
X108164285Y-96972380D01*
X107926190Y-95924761D02*
X107688095Y-96639047D01*
X108307142Y-96639047D01*
X108640476Y-96067619D02*
X108688095Y-96020000D01*
X108783333Y-95972380D01*
X109021428Y-95972380D01*
X109116666Y-96020000D01*
X109164285Y-96067619D01*
X109211904Y-96162857D01*
X109211904Y-96258095D01*
X109164285Y-96400952D01*
X108592857Y-96972380D01*
X109211904Y-96972380D01*
X102989142Y-93924380D02*
X102655809Y-93448190D01*
X102417714Y-93924380D02*
X102417714Y-92924380D01*
X102798666Y-92924380D01*
X102893904Y-92972000D01*
X102941523Y-93019619D01*
X102989142Y-93114857D01*
X102989142Y-93257714D01*
X102941523Y-93352952D01*
X102893904Y-93400571D01*
X102798666Y-93448190D01*
X102417714Y-93448190D01*
X103846285Y-93257714D02*
X103846285Y-93924380D01*
X103608190Y-92876761D02*
X103370095Y-93591047D01*
X103989142Y-93591047D01*
X104893904Y-93924380D02*
X104322476Y-93924380D01*
X104608190Y-93924380D02*
X104608190Y-92924380D01*
X104512952Y-93067238D01*
X104417714Y-93162476D01*
X104322476Y-93210095D01*
X111371142Y-100147380D02*
X111037809Y-99671190D01*
X110799714Y-100147380D02*
X110799714Y-99147380D01*
X111180666Y-99147380D01*
X111275904Y-99195000D01*
X111323523Y-99242619D01*
X111371142Y-99337857D01*
X111371142Y-99480714D01*
X111323523Y-99575952D01*
X111275904Y-99623571D01*
X111180666Y-99671190D01*
X110799714Y-99671190D01*
X112228285Y-99480714D02*
X112228285Y-100147380D01*
X111990190Y-99099761D02*
X111752095Y-99814047D01*
X112371142Y-99814047D01*
X112942571Y-99147380D02*
X113037809Y-99147380D01*
X113133047Y-99195000D01*
X113180666Y-99242619D01*
X113228285Y-99337857D01*
X113275904Y-99528333D01*
X113275904Y-99766428D01*
X113228285Y-99956904D01*
X113180666Y-100052142D01*
X113133047Y-100099761D01*
X113037809Y-100147380D01*
X112942571Y-100147380D01*
X112847333Y-100099761D01*
X112799714Y-100052142D01*
X112752095Y-99956904D01*
X112704476Y-99766428D01*
X112704476Y-99528333D01*
X112752095Y-99337857D01*
X112799714Y-99242619D01*
X112847333Y-99195000D01*
X112942571Y-99147380D01*
X111371142Y-93924380D02*
X111037809Y-93448190D01*
X110799714Y-93924380D02*
X110799714Y-92924380D01*
X111180666Y-92924380D01*
X111275904Y-92972000D01*
X111323523Y-93019619D01*
X111371142Y-93114857D01*
X111371142Y-93257714D01*
X111323523Y-93352952D01*
X111275904Y-93400571D01*
X111180666Y-93448190D01*
X110799714Y-93448190D01*
X111704476Y-92924380D02*
X112323523Y-92924380D01*
X111990190Y-93305333D01*
X112133047Y-93305333D01*
X112228285Y-93352952D01*
X112275904Y-93400571D01*
X112323523Y-93495809D01*
X112323523Y-93733904D01*
X112275904Y-93829142D01*
X112228285Y-93876761D01*
X112133047Y-93924380D01*
X111847333Y-93924380D01*
X111752095Y-93876761D01*
X111704476Y-93829142D01*
X112799714Y-93924380D02*
X112990190Y-93924380D01*
X113085428Y-93876761D01*
X113133047Y-93829142D01*
X113228285Y-93686285D01*
X113275904Y-93495809D01*
X113275904Y-93114857D01*
X113228285Y-93019619D01*
X113180666Y-92972000D01*
X113085428Y-92924380D01*
X112894952Y-92924380D01*
X112799714Y-92972000D01*
X112752095Y-93019619D01*
X112704476Y-93114857D01*
X112704476Y-93352952D01*
X112752095Y-93448190D01*
X112799714Y-93495809D01*
X112894952Y-93543428D01*
X113085428Y-93543428D01*
X113180666Y-93495809D01*
X113228285Y-93448190D01*
X113275904Y-93352952D01*
X107307142Y-93924380D02*
X106973809Y-93448190D01*
X106735714Y-93924380D02*
X106735714Y-92924380D01*
X107116666Y-92924380D01*
X107211904Y-92972000D01*
X107259523Y-93019619D01*
X107307142Y-93114857D01*
X107307142Y-93257714D01*
X107259523Y-93352952D01*
X107211904Y-93400571D01*
X107116666Y-93448190D01*
X106735714Y-93448190D01*
X107640476Y-92924380D02*
X108259523Y-92924380D01*
X107926190Y-93305333D01*
X108069047Y-93305333D01*
X108164285Y-93352952D01*
X108211904Y-93400571D01*
X108259523Y-93495809D01*
X108259523Y-93733904D01*
X108211904Y-93829142D01*
X108164285Y-93876761D01*
X108069047Y-93924380D01*
X107783333Y-93924380D01*
X107688095Y-93876761D01*
X107640476Y-93829142D01*
X108830952Y-93352952D02*
X108735714Y-93305333D01*
X108688095Y-93257714D01*
X108640476Y-93162476D01*
X108640476Y-93114857D01*
X108688095Y-93019619D01*
X108735714Y-92972000D01*
X108830952Y-92924380D01*
X109021428Y-92924380D01*
X109116666Y-92972000D01*
X109164285Y-93019619D01*
X109211904Y-93114857D01*
X109211904Y-93162476D01*
X109164285Y-93257714D01*
X109116666Y-93305333D01*
X109021428Y-93352952D01*
X108830952Y-93352952D01*
X108735714Y-93400571D01*
X108688095Y-93448190D01*
X108640476Y-93543428D01*
X108640476Y-93733904D01*
X108688095Y-93829142D01*
X108735714Y-93876761D01*
X108830952Y-93924380D01*
X109021428Y-93924380D01*
X109116666Y-93876761D01*
X109164285Y-93829142D01*
X109211904Y-93733904D01*
X109211904Y-93543428D01*
X109164285Y-93448190D01*
X109116666Y-93400571D01*
X109021428Y-93352952D01*
X138803142Y-80208380D02*
X138469809Y-79732190D01*
X138231714Y-80208380D02*
X138231714Y-79208380D01*
X138612666Y-79208380D01*
X138707904Y-79256000D01*
X138755523Y-79303619D01*
X138803142Y-79398857D01*
X138803142Y-79541714D01*
X138755523Y-79636952D01*
X138707904Y-79684571D01*
X138612666Y-79732190D01*
X138231714Y-79732190D01*
X139136476Y-79208380D02*
X139755523Y-79208380D01*
X139422190Y-79589333D01*
X139565047Y-79589333D01*
X139660285Y-79636952D01*
X139707904Y-79684571D01*
X139755523Y-79779809D01*
X139755523Y-80017904D01*
X139707904Y-80113142D01*
X139660285Y-80160761D01*
X139565047Y-80208380D01*
X139279333Y-80208380D01*
X139184095Y-80160761D01*
X139136476Y-80113142D01*
X140088857Y-79208380D02*
X140755523Y-79208380D01*
X140326952Y-80208380D01*
X121277142Y-93924380D02*
X120943809Y-93448190D01*
X120705714Y-93924380D02*
X120705714Y-92924380D01*
X121086666Y-92924380D01*
X121181904Y-92972000D01*
X121229523Y-93019619D01*
X121277142Y-93114857D01*
X121277142Y-93257714D01*
X121229523Y-93352952D01*
X121181904Y-93400571D01*
X121086666Y-93448190D01*
X120705714Y-93448190D01*
X121610476Y-92924380D02*
X122229523Y-92924380D01*
X121896190Y-93305333D01*
X122039047Y-93305333D01*
X122134285Y-93352952D01*
X122181904Y-93400571D01*
X122229523Y-93495809D01*
X122229523Y-93733904D01*
X122181904Y-93829142D01*
X122134285Y-93876761D01*
X122039047Y-93924380D01*
X121753333Y-93924380D01*
X121658095Y-93876761D01*
X121610476Y-93829142D01*
X123086666Y-92924380D02*
X122896190Y-92924380D01*
X122800952Y-92972000D01*
X122753333Y-93019619D01*
X122658095Y-93162476D01*
X122610476Y-93352952D01*
X122610476Y-93733904D01*
X122658095Y-93829142D01*
X122705714Y-93876761D01*
X122800952Y-93924380D01*
X122991428Y-93924380D01*
X123086666Y-93876761D01*
X123134285Y-93829142D01*
X123181904Y-93733904D01*
X123181904Y-93495809D01*
X123134285Y-93400571D01*
X123086666Y-93352952D01*
X122991428Y-93305333D01*
X122800952Y-93305333D01*
X122705714Y-93352952D01*
X122658095Y-93400571D01*
X122610476Y-93495809D01*
X117086142Y-78684380D02*
X116752809Y-78208190D01*
X116514714Y-78684380D02*
X116514714Y-77684380D01*
X116895666Y-77684380D01*
X116990904Y-77732000D01*
X117038523Y-77779619D01*
X117086142Y-77874857D01*
X117086142Y-78017714D01*
X117038523Y-78112952D01*
X116990904Y-78160571D01*
X116895666Y-78208190D01*
X116514714Y-78208190D01*
X117419476Y-77684380D02*
X118038523Y-77684380D01*
X117705190Y-78065333D01*
X117848047Y-78065333D01*
X117943285Y-78112952D01*
X117990904Y-78160571D01*
X118038523Y-78255809D01*
X118038523Y-78493904D01*
X117990904Y-78589142D01*
X117943285Y-78636761D01*
X117848047Y-78684380D01*
X117562333Y-78684380D01*
X117467095Y-78636761D01*
X117419476Y-78589142D01*
X118943285Y-77684380D02*
X118467095Y-77684380D01*
X118419476Y-78160571D01*
X118467095Y-78112952D01*
X118562333Y-78065333D01*
X118800428Y-78065333D01*
X118895666Y-78112952D01*
X118943285Y-78160571D01*
X118990904Y-78255809D01*
X118990904Y-78493904D01*
X118943285Y-78589142D01*
X118895666Y-78636761D01*
X118800428Y-78684380D01*
X118562333Y-78684380D01*
X118467095Y-78636761D01*
X118419476Y-78589142D01*
X138803142Y-74112380D02*
X138469809Y-73636190D01*
X138231714Y-74112380D02*
X138231714Y-73112380D01*
X138612666Y-73112380D01*
X138707904Y-73160000D01*
X138755523Y-73207619D01*
X138803142Y-73302857D01*
X138803142Y-73445714D01*
X138755523Y-73540952D01*
X138707904Y-73588571D01*
X138612666Y-73636190D01*
X138231714Y-73636190D01*
X139136476Y-73112380D02*
X139755523Y-73112380D01*
X139422190Y-73493333D01*
X139565047Y-73493333D01*
X139660285Y-73540952D01*
X139707904Y-73588571D01*
X139755523Y-73683809D01*
X139755523Y-73921904D01*
X139707904Y-74017142D01*
X139660285Y-74064761D01*
X139565047Y-74112380D01*
X139279333Y-74112380D01*
X139184095Y-74064761D01*
X139136476Y-74017142D01*
X140612666Y-73445714D02*
X140612666Y-74112380D01*
X140374571Y-73064761D02*
X140136476Y-73779047D01*
X140755523Y-73779047D01*
X138803142Y-71064380D02*
X138469809Y-70588190D01*
X138231714Y-71064380D02*
X138231714Y-70064380D01*
X138612666Y-70064380D01*
X138707904Y-70112000D01*
X138755523Y-70159619D01*
X138803142Y-70254857D01*
X138803142Y-70397714D01*
X138755523Y-70492952D01*
X138707904Y-70540571D01*
X138612666Y-70588190D01*
X138231714Y-70588190D01*
X139136476Y-70064380D02*
X139755523Y-70064380D01*
X139422190Y-70445333D01*
X139565047Y-70445333D01*
X139660285Y-70492952D01*
X139707904Y-70540571D01*
X139755523Y-70635809D01*
X139755523Y-70873904D01*
X139707904Y-70969142D01*
X139660285Y-71016761D01*
X139565047Y-71064380D01*
X139279333Y-71064380D01*
X139184095Y-71016761D01*
X139136476Y-70969142D01*
X140088857Y-70064380D02*
X140707904Y-70064380D01*
X140374571Y-70445333D01*
X140517428Y-70445333D01*
X140612666Y-70492952D01*
X140660285Y-70540571D01*
X140707904Y-70635809D01*
X140707904Y-70873904D01*
X140660285Y-70969142D01*
X140612666Y-71016761D01*
X140517428Y-71064380D01*
X140231714Y-71064380D01*
X140136476Y-71016761D01*
X140088857Y-70969142D01*
X138803142Y-77160380D02*
X138469809Y-76684190D01*
X138231714Y-77160380D02*
X138231714Y-76160380D01*
X138612666Y-76160380D01*
X138707904Y-76208000D01*
X138755523Y-76255619D01*
X138803142Y-76350857D01*
X138803142Y-76493714D01*
X138755523Y-76588952D01*
X138707904Y-76636571D01*
X138612666Y-76684190D01*
X138231714Y-76684190D01*
X139136476Y-76160380D02*
X139755523Y-76160380D01*
X139422190Y-76541333D01*
X139565047Y-76541333D01*
X139660285Y-76588952D01*
X139707904Y-76636571D01*
X139755523Y-76731809D01*
X139755523Y-76969904D01*
X139707904Y-77065142D01*
X139660285Y-77112761D01*
X139565047Y-77160380D01*
X139279333Y-77160380D01*
X139184095Y-77112761D01*
X139136476Y-77065142D01*
X140136476Y-76255619D02*
X140184095Y-76208000D01*
X140279333Y-76160380D01*
X140517428Y-76160380D01*
X140612666Y-76208000D01*
X140660285Y-76255619D01*
X140707904Y-76350857D01*
X140707904Y-76446095D01*
X140660285Y-76588952D01*
X140088857Y-77160380D01*
X140707904Y-77160380D01*
X121277142Y-103068380D02*
X120943809Y-102592190D01*
X120705714Y-103068380D02*
X120705714Y-102068380D01*
X121086666Y-102068380D01*
X121181904Y-102116000D01*
X121229523Y-102163619D01*
X121277142Y-102258857D01*
X121277142Y-102401714D01*
X121229523Y-102496952D01*
X121181904Y-102544571D01*
X121086666Y-102592190D01*
X120705714Y-102592190D01*
X121610476Y-102068380D02*
X122229523Y-102068380D01*
X121896190Y-102449333D01*
X122039047Y-102449333D01*
X122134285Y-102496952D01*
X122181904Y-102544571D01*
X122229523Y-102639809D01*
X122229523Y-102877904D01*
X122181904Y-102973142D01*
X122134285Y-103020761D01*
X122039047Y-103068380D01*
X121753333Y-103068380D01*
X121658095Y-103020761D01*
X121610476Y-102973142D01*
X123181904Y-103068380D02*
X122610476Y-103068380D01*
X122896190Y-103068380D02*
X122896190Y-102068380D01*
X122800952Y-102211238D01*
X122705714Y-102306476D01*
X122610476Y-102354095D01*
X121277142Y-100020380D02*
X120943809Y-99544190D01*
X120705714Y-100020380D02*
X120705714Y-99020380D01*
X121086666Y-99020380D01*
X121181904Y-99068000D01*
X121229523Y-99115619D01*
X121277142Y-99210857D01*
X121277142Y-99353714D01*
X121229523Y-99448952D01*
X121181904Y-99496571D01*
X121086666Y-99544190D01*
X120705714Y-99544190D01*
X121610476Y-99020380D02*
X122229523Y-99020380D01*
X121896190Y-99401333D01*
X122039047Y-99401333D01*
X122134285Y-99448952D01*
X122181904Y-99496571D01*
X122229523Y-99591809D01*
X122229523Y-99829904D01*
X122181904Y-99925142D01*
X122134285Y-99972761D01*
X122039047Y-100020380D01*
X121753333Y-100020380D01*
X121658095Y-99972761D01*
X121610476Y-99925142D01*
X122848571Y-99020380D02*
X122943809Y-99020380D01*
X123039047Y-99068000D01*
X123086666Y-99115619D01*
X123134285Y-99210857D01*
X123181904Y-99401333D01*
X123181904Y-99639428D01*
X123134285Y-99829904D01*
X123086666Y-99925142D01*
X123039047Y-99972761D01*
X122943809Y-100020380D01*
X122848571Y-100020380D01*
X122753333Y-99972761D01*
X122705714Y-99925142D01*
X122658095Y-99829904D01*
X122610476Y-99639428D01*
X122610476Y-99401333D01*
X122658095Y-99210857D01*
X122705714Y-99115619D01*
X122753333Y-99068000D01*
X122848571Y-99020380D01*
X121277142Y-96972380D02*
X120943809Y-96496190D01*
X120705714Y-96972380D02*
X120705714Y-95972380D01*
X121086666Y-95972380D01*
X121181904Y-96020000D01*
X121229523Y-96067619D01*
X121277142Y-96162857D01*
X121277142Y-96305714D01*
X121229523Y-96400952D01*
X121181904Y-96448571D01*
X121086666Y-96496190D01*
X120705714Y-96496190D01*
X121658095Y-96067619D02*
X121705714Y-96020000D01*
X121800952Y-95972380D01*
X122039047Y-95972380D01*
X122134285Y-96020000D01*
X122181904Y-96067619D01*
X122229523Y-96162857D01*
X122229523Y-96258095D01*
X122181904Y-96400952D01*
X121610476Y-96972380D01*
X122229523Y-96972380D01*
X122705714Y-96972380D02*
X122896190Y-96972380D01*
X122991428Y-96924761D01*
X123039047Y-96877142D01*
X123134285Y-96734285D01*
X123181904Y-96543809D01*
X123181904Y-96162857D01*
X123134285Y-96067619D01*
X123086666Y-96020000D01*
X122991428Y-95972380D01*
X122800952Y-95972380D01*
X122705714Y-96020000D01*
X122658095Y-96067619D01*
X122610476Y-96162857D01*
X122610476Y-96400952D01*
X122658095Y-96496190D01*
X122705714Y-96543809D01*
X122800952Y-96591428D01*
X122991428Y-96591428D01*
X123086666Y-96543809D01*
X123134285Y-96496190D01*
X123181904Y-96400952D01*
X117086142Y-74112380D02*
X116752809Y-73636190D01*
X116514714Y-74112380D02*
X116514714Y-73112380D01*
X116895666Y-73112380D01*
X116990904Y-73160000D01*
X117038523Y-73207619D01*
X117086142Y-73302857D01*
X117086142Y-73445714D01*
X117038523Y-73540952D01*
X116990904Y-73588571D01*
X116895666Y-73636190D01*
X116514714Y-73636190D01*
X117467095Y-73207619D02*
X117514714Y-73160000D01*
X117609952Y-73112380D01*
X117848047Y-73112380D01*
X117943285Y-73160000D01*
X117990904Y-73207619D01*
X118038523Y-73302857D01*
X118038523Y-73398095D01*
X117990904Y-73540952D01*
X117419476Y-74112380D01*
X118038523Y-74112380D01*
X118609952Y-73540952D02*
X118514714Y-73493333D01*
X118467095Y-73445714D01*
X118419476Y-73350476D01*
X118419476Y-73302857D01*
X118467095Y-73207619D01*
X118514714Y-73160000D01*
X118609952Y-73112380D01*
X118800428Y-73112380D01*
X118895666Y-73160000D01*
X118943285Y-73207619D01*
X118990904Y-73302857D01*
X118990904Y-73350476D01*
X118943285Y-73445714D01*
X118895666Y-73493333D01*
X118800428Y-73540952D01*
X118609952Y-73540952D01*
X118514714Y-73588571D01*
X118467095Y-73636190D01*
X118419476Y-73731428D01*
X118419476Y-73921904D01*
X118467095Y-74017142D01*
X118514714Y-74064761D01*
X118609952Y-74112380D01*
X118800428Y-74112380D01*
X118895666Y-74064761D01*
X118943285Y-74017142D01*
X118990904Y-73921904D01*
X118990904Y-73731428D01*
X118943285Y-73636190D01*
X118895666Y-73588571D01*
X118800428Y-73540952D01*
X117086142Y-67508380D02*
X116752809Y-67032190D01*
X116514714Y-67508380D02*
X116514714Y-66508380D01*
X116895666Y-66508380D01*
X116990904Y-66556000D01*
X117038523Y-66603619D01*
X117086142Y-66698857D01*
X117086142Y-66841714D01*
X117038523Y-66936952D01*
X116990904Y-66984571D01*
X116895666Y-67032190D01*
X116514714Y-67032190D01*
X117467095Y-66603619D02*
X117514714Y-66556000D01*
X117609952Y-66508380D01*
X117848047Y-66508380D01*
X117943285Y-66556000D01*
X117990904Y-66603619D01*
X118038523Y-66698857D01*
X118038523Y-66794095D01*
X117990904Y-66936952D01*
X117419476Y-67508380D01*
X118038523Y-67508380D01*
X118371857Y-66508380D02*
X119038523Y-66508380D01*
X118609952Y-67508380D01*
X117086142Y-70810380D02*
X116752809Y-70334190D01*
X116514714Y-70810380D02*
X116514714Y-69810380D01*
X116895666Y-69810380D01*
X116990904Y-69858000D01*
X117038523Y-69905619D01*
X117086142Y-70000857D01*
X117086142Y-70143714D01*
X117038523Y-70238952D01*
X116990904Y-70286571D01*
X116895666Y-70334190D01*
X116514714Y-70334190D01*
X117467095Y-69905619D02*
X117514714Y-69858000D01*
X117609952Y-69810380D01*
X117848047Y-69810380D01*
X117943285Y-69858000D01*
X117990904Y-69905619D01*
X118038523Y-70000857D01*
X118038523Y-70096095D01*
X117990904Y-70238952D01*
X117419476Y-70810380D01*
X118038523Y-70810380D01*
X118895666Y-69810380D02*
X118705190Y-69810380D01*
X118609952Y-69858000D01*
X118562333Y-69905619D01*
X118467095Y-70048476D01*
X118419476Y-70238952D01*
X118419476Y-70619904D01*
X118467095Y-70715142D01*
X118514714Y-70762761D01*
X118609952Y-70810380D01*
X118800428Y-70810380D01*
X118895666Y-70762761D01*
X118943285Y-70715142D01*
X118990904Y-70619904D01*
X118990904Y-70381809D01*
X118943285Y-70286571D01*
X118895666Y-70238952D01*
X118800428Y-70191333D01*
X118609952Y-70191333D01*
X118514714Y-70238952D01*
X118467095Y-70286571D01*
X118419476Y-70381809D01*
X133469142Y-106116380D02*
X133135809Y-105640190D01*
X132897714Y-106116380D02*
X132897714Y-105116380D01*
X133278666Y-105116380D01*
X133373904Y-105164000D01*
X133421523Y-105211619D01*
X133469142Y-105306857D01*
X133469142Y-105449714D01*
X133421523Y-105544952D01*
X133373904Y-105592571D01*
X133278666Y-105640190D01*
X132897714Y-105640190D01*
X133850095Y-105211619D02*
X133897714Y-105164000D01*
X133992952Y-105116380D01*
X134231047Y-105116380D01*
X134326285Y-105164000D01*
X134373904Y-105211619D01*
X134421523Y-105306857D01*
X134421523Y-105402095D01*
X134373904Y-105544952D01*
X133802476Y-106116380D01*
X134421523Y-106116380D01*
X135326285Y-105116380D02*
X134850095Y-105116380D01*
X134802476Y-105592571D01*
X134850095Y-105544952D01*
X134945333Y-105497333D01*
X135183428Y-105497333D01*
X135278666Y-105544952D01*
X135326285Y-105592571D01*
X135373904Y-105687809D01*
X135373904Y-105925904D01*
X135326285Y-106021142D01*
X135278666Y-106068761D01*
X135183428Y-106116380D01*
X134945333Y-106116380D01*
X134850095Y-106068761D01*
X134802476Y-106021142D01*
X133469142Y-67508380D02*
X133135809Y-67032190D01*
X132897714Y-67508380D02*
X132897714Y-66508380D01*
X133278666Y-66508380D01*
X133373904Y-66556000D01*
X133421523Y-66603619D01*
X133469142Y-66698857D01*
X133469142Y-66841714D01*
X133421523Y-66936952D01*
X133373904Y-66984571D01*
X133278666Y-67032190D01*
X132897714Y-67032190D01*
X133850095Y-66603619D02*
X133897714Y-66556000D01*
X133992952Y-66508380D01*
X134231047Y-66508380D01*
X134326285Y-66556000D01*
X134373904Y-66603619D01*
X134421523Y-66698857D01*
X134421523Y-66794095D01*
X134373904Y-66936952D01*
X133802476Y-67508380D01*
X134421523Y-67508380D01*
X135278666Y-66841714D02*
X135278666Y-67508380D01*
X135040571Y-66460761D02*
X134802476Y-67175047D01*
X135421523Y-67175047D01*
X110291142Y-67508380D02*
X109957809Y-67032190D01*
X109719714Y-67508380D02*
X109719714Y-66508380D01*
X110100666Y-66508380D01*
X110195904Y-66556000D01*
X110243523Y-66603619D01*
X110291142Y-66698857D01*
X110291142Y-66841714D01*
X110243523Y-66936952D01*
X110195904Y-66984571D01*
X110100666Y-67032190D01*
X109719714Y-67032190D01*
X110672095Y-66603619D02*
X110719714Y-66556000D01*
X110814952Y-66508380D01*
X111053047Y-66508380D01*
X111148285Y-66556000D01*
X111195904Y-66603619D01*
X111243523Y-66698857D01*
X111243523Y-66794095D01*
X111195904Y-66936952D01*
X110624476Y-67508380D01*
X111243523Y-67508380D01*
X111576857Y-66508380D02*
X112195904Y-66508380D01*
X111862571Y-66889333D01*
X112005428Y-66889333D01*
X112100666Y-66936952D01*
X112148285Y-66984571D01*
X112195904Y-67079809D01*
X112195904Y-67317904D01*
X112148285Y-67413142D01*
X112100666Y-67460761D01*
X112005428Y-67508380D01*
X111719714Y-67508380D01*
X111624476Y-67460761D01*
X111576857Y-67413142D01*
X133469142Y-93924380D02*
X133135809Y-93448190D01*
X132897714Y-93924380D02*
X132897714Y-92924380D01*
X133278666Y-92924380D01*
X133373904Y-92972000D01*
X133421523Y-93019619D01*
X133469142Y-93114857D01*
X133469142Y-93257714D01*
X133421523Y-93352952D01*
X133373904Y-93400571D01*
X133278666Y-93448190D01*
X132897714Y-93448190D01*
X133850095Y-93019619D02*
X133897714Y-92972000D01*
X133992952Y-92924380D01*
X134231047Y-92924380D01*
X134326285Y-92972000D01*
X134373904Y-93019619D01*
X134421523Y-93114857D01*
X134421523Y-93210095D01*
X134373904Y-93352952D01*
X133802476Y-93924380D01*
X134421523Y-93924380D01*
X134802476Y-93019619D02*
X134850095Y-92972000D01*
X134945333Y-92924380D01*
X135183428Y-92924380D01*
X135278666Y-92972000D01*
X135326285Y-93019619D01*
X135373904Y-93114857D01*
X135373904Y-93210095D01*
X135326285Y-93352952D01*
X134754857Y-93924380D01*
X135373904Y-93924380D01*
X133469142Y-80208380D02*
X133135809Y-79732190D01*
X132897714Y-80208380D02*
X132897714Y-79208380D01*
X133278666Y-79208380D01*
X133373904Y-79256000D01*
X133421523Y-79303619D01*
X133469142Y-79398857D01*
X133469142Y-79541714D01*
X133421523Y-79636952D01*
X133373904Y-79684571D01*
X133278666Y-79732190D01*
X132897714Y-79732190D01*
X133850095Y-79303619D02*
X133897714Y-79256000D01*
X133992952Y-79208380D01*
X134231047Y-79208380D01*
X134326285Y-79256000D01*
X134373904Y-79303619D01*
X134421523Y-79398857D01*
X134421523Y-79494095D01*
X134373904Y-79636952D01*
X133802476Y-80208380D01*
X134421523Y-80208380D01*
X135373904Y-80208380D02*
X134802476Y-80208380D01*
X135088190Y-80208380D02*
X135088190Y-79208380D01*
X134992952Y-79351238D01*
X134897714Y-79446476D01*
X134802476Y-79494095D01*
X110355142Y-80208380D02*
X110021809Y-79732190D01*
X109783714Y-80208380D02*
X109783714Y-79208380D01*
X110164666Y-79208380D01*
X110259904Y-79256000D01*
X110307523Y-79303619D01*
X110355142Y-79398857D01*
X110355142Y-79541714D01*
X110307523Y-79636952D01*
X110259904Y-79684571D01*
X110164666Y-79732190D01*
X109783714Y-79732190D01*
X110736095Y-79303619D02*
X110783714Y-79256000D01*
X110878952Y-79208380D01*
X111117047Y-79208380D01*
X111212285Y-79256000D01*
X111259904Y-79303619D01*
X111307523Y-79398857D01*
X111307523Y-79494095D01*
X111259904Y-79636952D01*
X110688476Y-80208380D01*
X111307523Y-80208380D01*
X111926571Y-79208380D02*
X112021809Y-79208380D01*
X112117047Y-79256000D01*
X112164666Y-79303619D01*
X112212285Y-79398857D01*
X112259904Y-79589333D01*
X112259904Y-79827428D01*
X112212285Y-80017904D01*
X112164666Y-80113142D01*
X112117047Y-80160761D01*
X112021809Y-80208380D01*
X111926571Y-80208380D01*
X111831333Y-80160761D01*
X111783714Y-80113142D01*
X111736095Y-80017904D01*
X111688476Y-79827428D01*
X111688476Y-79589333D01*
X111736095Y-79398857D01*
X111783714Y-79303619D01*
X111831333Y-79256000D01*
X111926571Y-79208380D01*
X133469142Y-100020380D02*
X133135809Y-99544190D01*
X132897714Y-100020380D02*
X132897714Y-99020380D01*
X133278666Y-99020380D01*
X133373904Y-99068000D01*
X133421523Y-99115619D01*
X133469142Y-99210857D01*
X133469142Y-99353714D01*
X133421523Y-99448952D01*
X133373904Y-99496571D01*
X133278666Y-99544190D01*
X132897714Y-99544190D01*
X134421523Y-100020380D02*
X133850095Y-100020380D01*
X134135809Y-100020380D02*
X134135809Y-99020380D01*
X134040571Y-99163238D01*
X133945333Y-99258476D01*
X133850095Y-99306095D01*
X134897714Y-100020380D02*
X135088190Y-100020380D01*
X135183428Y-99972761D01*
X135231047Y-99925142D01*
X135326285Y-99782285D01*
X135373904Y-99591809D01*
X135373904Y-99210857D01*
X135326285Y-99115619D01*
X135278666Y-99068000D01*
X135183428Y-99020380D01*
X134992952Y-99020380D01*
X134897714Y-99068000D01*
X134850095Y-99115619D01*
X134802476Y-99210857D01*
X134802476Y-99448952D01*
X134850095Y-99544190D01*
X134897714Y-99591809D01*
X134992952Y-99639428D01*
X135183428Y-99639428D01*
X135278666Y-99591809D01*
X135326285Y-99544190D01*
X135373904Y-99448952D01*
X133469142Y-74112380D02*
X133135809Y-73636190D01*
X132897714Y-74112380D02*
X132897714Y-73112380D01*
X133278666Y-73112380D01*
X133373904Y-73160000D01*
X133421523Y-73207619D01*
X133469142Y-73302857D01*
X133469142Y-73445714D01*
X133421523Y-73540952D01*
X133373904Y-73588571D01*
X133278666Y-73636190D01*
X132897714Y-73636190D01*
X134421523Y-74112380D02*
X133850095Y-74112380D01*
X134135809Y-74112380D02*
X134135809Y-73112380D01*
X134040571Y-73255238D01*
X133945333Y-73350476D01*
X133850095Y-73398095D01*
X134992952Y-73540952D02*
X134897714Y-73493333D01*
X134850095Y-73445714D01*
X134802476Y-73350476D01*
X134802476Y-73302857D01*
X134850095Y-73207619D01*
X134897714Y-73160000D01*
X134992952Y-73112380D01*
X135183428Y-73112380D01*
X135278666Y-73160000D01*
X135326285Y-73207619D01*
X135373904Y-73302857D01*
X135373904Y-73350476D01*
X135326285Y-73445714D01*
X135278666Y-73493333D01*
X135183428Y-73540952D01*
X134992952Y-73540952D01*
X134897714Y-73588571D01*
X134850095Y-73636190D01*
X134802476Y-73731428D01*
X134802476Y-73921904D01*
X134850095Y-74017142D01*
X134897714Y-74064761D01*
X134992952Y-74112380D01*
X135183428Y-74112380D01*
X135278666Y-74064761D01*
X135326285Y-74017142D01*
X135373904Y-73921904D01*
X135373904Y-73731428D01*
X135326285Y-73636190D01*
X135278666Y-73588571D01*
X135183428Y-73540952D01*
X110355142Y-74112380D02*
X110021809Y-73636190D01*
X109783714Y-74112380D02*
X109783714Y-73112380D01*
X110164666Y-73112380D01*
X110259904Y-73160000D01*
X110307523Y-73207619D01*
X110355142Y-73302857D01*
X110355142Y-73445714D01*
X110307523Y-73540952D01*
X110259904Y-73588571D01*
X110164666Y-73636190D01*
X109783714Y-73636190D01*
X111307523Y-74112380D02*
X110736095Y-74112380D01*
X111021809Y-74112380D02*
X111021809Y-73112380D01*
X110926571Y-73255238D01*
X110831333Y-73350476D01*
X110736095Y-73398095D01*
X111640857Y-73112380D02*
X112307523Y-73112380D01*
X111878952Y-74112380D01*
X133469142Y-103068380D02*
X133135809Y-102592190D01*
X132897714Y-103068380D02*
X132897714Y-102068380D01*
X133278666Y-102068380D01*
X133373904Y-102116000D01*
X133421523Y-102163619D01*
X133469142Y-102258857D01*
X133469142Y-102401714D01*
X133421523Y-102496952D01*
X133373904Y-102544571D01*
X133278666Y-102592190D01*
X132897714Y-102592190D01*
X134421523Y-103068380D02*
X133850095Y-103068380D01*
X134135809Y-103068380D02*
X134135809Y-102068380D01*
X134040571Y-102211238D01*
X133945333Y-102306476D01*
X133850095Y-102354095D01*
X135278666Y-102068380D02*
X135088190Y-102068380D01*
X134992952Y-102116000D01*
X134945333Y-102163619D01*
X134850095Y-102306476D01*
X134802476Y-102496952D01*
X134802476Y-102877904D01*
X134850095Y-102973142D01*
X134897714Y-103020761D01*
X134992952Y-103068380D01*
X135183428Y-103068380D01*
X135278666Y-103020761D01*
X135326285Y-102973142D01*
X135373904Y-102877904D01*
X135373904Y-102639809D01*
X135326285Y-102544571D01*
X135278666Y-102496952D01*
X135183428Y-102449333D01*
X134992952Y-102449333D01*
X134897714Y-102496952D01*
X134850095Y-102544571D01*
X134802476Y-102639809D01*
X133469142Y-70810380D02*
X133135809Y-70334190D01*
X132897714Y-70810380D02*
X132897714Y-69810380D01*
X133278666Y-69810380D01*
X133373904Y-69858000D01*
X133421523Y-69905619D01*
X133469142Y-70000857D01*
X133469142Y-70143714D01*
X133421523Y-70238952D01*
X133373904Y-70286571D01*
X133278666Y-70334190D01*
X132897714Y-70334190D01*
X134421523Y-70810380D02*
X133850095Y-70810380D01*
X134135809Y-70810380D02*
X134135809Y-69810380D01*
X134040571Y-69953238D01*
X133945333Y-70048476D01*
X133850095Y-70096095D01*
X135326285Y-69810380D02*
X134850095Y-69810380D01*
X134802476Y-70286571D01*
X134850095Y-70238952D01*
X134945333Y-70191333D01*
X135183428Y-70191333D01*
X135278666Y-70238952D01*
X135326285Y-70286571D01*
X135373904Y-70381809D01*
X135373904Y-70619904D01*
X135326285Y-70715142D01*
X135278666Y-70762761D01*
X135183428Y-70810380D01*
X134945333Y-70810380D01*
X134850095Y-70762761D01*
X134802476Y-70715142D01*
X110355142Y-70810380D02*
X110021809Y-70334190D01*
X109783714Y-70810380D02*
X109783714Y-69810380D01*
X110164666Y-69810380D01*
X110259904Y-69858000D01*
X110307523Y-69905619D01*
X110355142Y-70000857D01*
X110355142Y-70143714D01*
X110307523Y-70238952D01*
X110259904Y-70286571D01*
X110164666Y-70334190D01*
X109783714Y-70334190D01*
X111307523Y-70810380D02*
X110736095Y-70810380D01*
X111021809Y-70810380D02*
X111021809Y-69810380D01*
X110926571Y-69953238D01*
X110831333Y-70048476D01*
X110736095Y-70096095D01*
X112164666Y-70143714D02*
X112164666Y-70810380D01*
X111926571Y-69762761D02*
X111688476Y-70477047D01*
X112307523Y-70477047D01*
X126865142Y-103068380D02*
X126531809Y-102592190D01*
X126293714Y-103068380D02*
X126293714Y-102068380D01*
X126674666Y-102068380D01*
X126769904Y-102116000D01*
X126817523Y-102163619D01*
X126865142Y-102258857D01*
X126865142Y-102401714D01*
X126817523Y-102496952D01*
X126769904Y-102544571D01*
X126674666Y-102592190D01*
X126293714Y-102592190D01*
X127817523Y-103068380D02*
X127246095Y-103068380D01*
X127531809Y-103068380D02*
X127531809Y-102068380D01*
X127436571Y-102211238D01*
X127341333Y-102306476D01*
X127246095Y-102354095D01*
X128150857Y-102068380D02*
X128769904Y-102068380D01*
X128436571Y-102449333D01*
X128579428Y-102449333D01*
X128674666Y-102496952D01*
X128722285Y-102544571D01*
X128769904Y-102639809D01*
X128769904Y-102877904D01*
X128722285Y-102973142D01*
X128674666Y-103020761D01*
X128579428Y-103068380D01*
X128293714Y-103068380D01*
X128198476Y-103020761D01*
X128150857Y-102973142D01*
X128008142Y-70810380D02*
X127674809Y-70334190D01*
X127436714Y-70810380D02*
X127436714Y-69810380D01*
X127817666Y-69810380D01*
X127912904Y-69858000D01*
X127960523Y-69905619D01*
X128008142Y-70000857D01*
X128008142Y-70143714D01*
X127960523Y-70238952D01*
X127912904Y-70286571D01*
X127817666Y-70334190D01*
X127436714Y-70334190D01*
X128960523Y-70810380D02*
X128389095Y-70810380D01*
X128674809Y-70810380D02*
X128674809Y-69810380D01*
X128579571Y-69953238D01*
X128484333Y-70048476D01*
X128389095Y-70096095D01*
X129341476Y-69905619D02*
X129389095Y-69858000D01*
X129484333Y-69810380D01*
X129722428Y-69810380D01*
X129817666Y-69858000D01*
X129865285Y-69905619D01*
X129912904Y-70000857D01*
X129912904Y-70096095D01*
X129865285Y-70238952D01*
X129293857Y-70810380D01*
X129912904Y-70810380D01*
X104259142Y-70810380D02*
X103925809Y-70334190D01*
X103687714Y-70810380D02*
X103687714Y-69810380D01*
X104068666Y-69810380D01*
X104163904Y-69858000D01*
X104211523Y-69905619D01*
X104259142Y-70000857D01*
X104259142Y-70143714D01*
X104211523Y-70238952D01*
X104163904Y-70286571D01*
X104068666Y-70334190D01*
X103687714Y-70334190D01*
X105211523Y-70810380D02*
X104640095Y-70810380D01*
X104925809Y-70810380D02*
X104925809Y-69810380D01*
X104830571Y-69953238D01*
X104735333Y-70048476D01*
X104640095Y-70096095D01*
X106163904Y-70810380D02*
X105592476Y-70810380D01*
X105878190Y-70810380D02*
X105878190Y-69810380D01*
X105782952Y-69953238D01*
X105687714Y-70048476D01*
X105592476Y-70096095D01*
X126865142Y-93924380D02*
X126531809Y-93448190D01*
X126293714Y-93924380D02*
X126293714Y-92924380D01*
X126674666Y-92924380D01*
X126769904Y-92972000D01*
X126817523Y-93019619D01*
X126865142Y-93114857D01*
X126865142Y-93257714D01*
X126817523Y-93352952D01*
X126769904Y-93400571D01*
X126674666Y-93448190D01*
X126293714Y-93448190D01*
X127817523Y-93924380D02*
X127246095Y-93924380D01*
X127531809Y-93924380D02*
X127531809Y-92924380D01*
X127436571Y-93067238D01*
X127341333Y-93162476D01*
X127246095Y-93210095D01*
X128436571Y-92924380D02*
X128531809Y-92924380D01*
X128627047Y-92972000D01*
X128674666Y-93019619D01*
X128722285Y-93114857D01*
X128769904Y-93305333D01*
X128769904Y-93543428D01*
X128722285Y-93733904D01*
X128674666Y-93829142D01*
X128627047Y-93876761D01*
X128531809Y-93924380D01*
X128436571Y-93924380D01*
X128341333Y-93876761D01*
X128293714Y-93829142D01*
X128246095Y-93733904D01*
X128198476Y-93543428D01*
X128198476Y-93305333D01*
X128246095Y-93114857D01*
X128293714Y-93019619D01*
X128341333Y-92972000D01*
X128436571Y-92924380D01*
X128484333Y-80208380D02*
X128151000Y-79732190D01*
X127912904Y-80208380D02*
X127912904Y-79208380D01*
X128293857Y-79208380D01*
X128389095Y-79256000D01*
X128436714Y-79303619D01*
X128484333Y-79398857D01*
X128484333Y-79541714D01*
X128436714Y-79636952D01*
X128389095Y-79684571D01*
X128293857Y-79732190D01*
X127912904Y-79732190D01*
X128960523Y-80208380D02*
X129151000Y-80208380D01*
X129246238Y-80160761D01*
X129293857Y-80113142D01*
X129389095Y-79970285D01*
X129436714Y-79779809D01*
X129436714Y-79398857D01*
X129389095Y-79303619D01*
X129341476Y-79256000D01*
X129246238Y-79208380D01*
X129055761Y-79208380D01*
X128960523Y-79256000D01*
X128912904Y-79303619D01*
X128865285Y-79398857D01*
X128865285Y-79636952D01*
X128912904Y-79732190D01*
X128960523Y-79779809D01*
X129055761Y-79827428D01*
X129246238Y-79827428D01*
X129341476Y-79779809D01*
X129389095Y-79732190D01*
X129436714Y-79636952D01*
X104735333Y-80208380D02*
X104402000Y-79732190D01*
X104163904Y-80208380D02*
X104163904Y-79208380D01*
X104544857Y-79208380D01*
X104640095Y-79256000D01*
X104687714Y-79303619D01*
X104735333Y-79398857D01*
X104735333Y-79541714D01*
X104687714Y-79636952D01*
X104640095Y-79684571D01*
X104544857Y-79732190D01*
X104163904Y-79732190D01*
X105306761Y-79636952D02*
X105211523Y-79589333D01*
X105163904Y-79541714D01*
X105116285Y-79446476D01*
X105116285Y-79398857D01*
X105163904Y-79303619D01*
X105211523Y-79256000D01*
X105306761Y-79208380D01*
X105497238Y-79208380D01*
X105592476Y-79256000D01*
X105640095Y-79303619D01*
X105687714Y-79398857D01*
X105687714Y-79446476D01*
X105640095Y-79541714D01*
X105592476Y-79589333D01*
X105497238Y-79636952D01*
X105306761Y-79636952D01*
X105211523Y-79684571D01*
X105163904Y-79732190D01*
X105116285Y-79827428D01*
X105116285Y-80017904D01*
X105163904Y-80113142D01*
X105211523Y-80160761D01*
X105306761Y-80208380D01*
X105497238Y-80208380D01*
X105592476Y-80160761D01*
X105640095Y-80113142D01*
X105687714Y-80017904D01*
X105687714Y-79827428D01*
X105640095Y-79732190D01*
X105592476Y-79684571D01*
X105497238Y-79636952D01*
X127341333Y-100020380D02*
X127008000Y-99544190D01*
X126769904Y-100020380D02*
X126769904Y-99020380D01*
X127150857Y-99020380D01*
X127246095Y-99068000D01*
X127293714Y-99115619D01*
X127341333Y-99210857D01*
X127341333Y-99353714D01*
X127293714Y-99448952D01*
X127246095Y-99496571D01*
X127150857Y-99544190D01*
X126769904Y-99544190D01*
X127674666Y-99020380D02*
X128341333Y-99020380D01*
X127912761Y-100020380D01*
X128484333Y-74112380D02*
X128151000Y-73636190D01*
X127912904Y-74112380D02*
X127912904Y-73112380D01*
X128293857Y-73112380D01*
X128389095Y-73160000D01*
X128436714Y-73207619D01*
X128484333Y-73302857D01*
X128484333Y-73445714D01*
X128436714Y-73540952D01*
X128389095Y-73588571D01*
X128293857Y-73636190D01*
X127912904Y-73636190D01*
X129341476Y-73112380D02*
X129151000Y-73112380D01*
X129055761Y-73160000D01*
X129008142Y-73207619D01*
X128912904Y-73350476D01*
X128865285Y-73540952D01*
X128865285Y-73921904D01*
X128912904Y-74017142D01*
X128960523Y-74064761D01*
X129055761Y-74112380D01*
X129246238Y-74112380D01*
X129341476Y-74064761D01*
X129389095Y-74017142D01*
X129436714Y-73921904D01*
X129436714Y-73683809D01*
X129389095Y-73588571D01*
X129341476Y-73540952D01*
X129246238Y-73493333D01*
X129055761Y-73493333D01*
X128960523Y-73540952D01*
X128912904Y-73588571D01*
X128865285Y-73683809D01*
X104735333Y-74112380D02*
X104402000Y-73636190D01*
X104163904Y-74112380D02*
X104163904Y-73112380D01*
X104544857Y-73112380D01*
X104640095Y-73160000D01*
X104687714Y-73207619D01*
X104735333Y-73302857D01*
X104735333Y-73445714D01*
X104687714Y-73540952D01*
X104640095Y-73588571D01*
X104544857Y-73636190D01*
X104163904Y-73636190D01*
X105640095Y-73112380D02*
X105163904Y-73112380D01*
X105116285Y-73588571D01*
X105163904Y-73540952D01*
X105259142Y-73493333D01*
X105497238Y-73493333D01*
X105592476Y-73540952D01*
X105640095Y-73588571D01*
X105687714Y-73683809D01*
X105687714Y-73921904D01*
X105640095Y-74017142D01*
X105592476Y-74064761D01*
X105497238Y-74112380D01*
X105259142Y-74112380D01*
X105163904Y-74064761D01*
X105116285Y-74017142D01*
X147027333Y-79319380D02*
X146694000Y-78843190D01*
X146455904Y-79319380D02*
X146455904Y-78319380D01*
X146836857Y-78319380D01*
X146932095Y-78367000D01*
X146979714Y-78414619D01*
X147027333Y-78509857D01*
X147027333Y-78652714D01*
X146979714Y-78747952D01*
X146932095Y-78795571D01*
X146836857Y-78843190D01*
X146455904Y-78843190D01*
X147884476Y-78652714D02*
X147884476Y-79319380D01*
X147646380Y-78271761D02*
X147408285Y-78986047D01*
X148027333Y-78986047D01*
X143025333Y-67508380D02*
X142692000Y-67032190D01*
X142453904Y-67508380D02*
X142453904Y-66508380D01*
X142834857Y-66508380D01*
X142930095Y-66556000D01*
X142977714Y-66603619D01*
X143025333Y-66698857D01*
X143025333Y-66841714D01*
X142977714Y-66936952D01*
X142930095Y-66984571D01*
X142834857Y-67032190D01*
X142453904Y-67032190D01*
X143358666Y-66508380D02*
X143977714Y-66508380D01*
X143644380Y-66889333D01*
X143787238Y-66889333D01*
X143882476Y-66936952D01*
X143930095Y-66984571D01*
X143977714Y-67079809D01*
X143977714Y-67317904D01*
X143930095Y-67413142D01*
X143882476Y-67460761D01*
X143787238Y-67508380D01*
X143501523Y-67508380D01*
X143406285Y-67460761D01*
X143358666Y-67413142D01*
X94512333Y-93924380D02*
X94179000Y-93448190D01*
X93940904Y-93924380D02*
X93940904Y-92924380D01*
X94321857Y-92924380D01*
X94417095Y-92972000D01*
X94464714Y-93019619D01*
X94512333Y-93114857D01*
X94512333Y-93257714D01*
X94464714Y-93352952D01*
X94417095Y-93400571D01*
X94321857Y-93448190D01*
X93940904Y-93448190D01*
X94893285Y-93019619D02*
X94940904Y-92972000D01*
X95036142Y-92924380D01*
X95274238Y-92924380D01*
X95369476Y-92972000D01*
X95417095Y-93019619D01*
X95464714Y-93114857D01*
X95464714Y-93210095D01*
X95417095Y-93352952D01*
X94845666Y-93924380D01*
X95464714Y-93924380D01*
X98131333Y-93924380D02*
X97798000Y-93448190D01*
X97559904Y-93924380D02*
X97559904Y-92924380D01*
X97940857Y-92924380D01*
X98036095Y-92972000D01*
X98083714Y-93019619D01*
X98131333Y-93114857D01*
X98131333Y-93257714D01*
X98083714Y-93352952D01*
X98036095Y-93400571D01*
X97940857Y-93448190D01*
X97559904Y-93448190D01*
X99083714Y-93924380D02*
X98512285Y-93924380D01*
X98798000Y-93924380D02*
X98798000Y-92924380D01*
X98702761Y-93067238D01*
X98607523Y-93162476D01*
X98512285Y-93210095D01*
X120515142Y-106783142D02*
X120467523Y-106830761D01*
X120324666Y-106878380D01*
X120229428Y-106878380D01*
X120086571Y-106830761D01*
X119991333Y-106735523D01*
X119943714Y-106640285D01*
X119896095Y-106449809D01*
X119896095Y-106306952D01*
X119943714Y-106116476D01*
X119991333Y-106021238D01*
X120086571Y-105926000D01*
X120229428Y-105878380D01*
X120324666Y-105878380D01*
X120467523Y-105926000D01*
X120515142Y-105973619D01*
X120848476Y-105878380D02*
X121467523Y-105878380D01*
X121134190Y-106259333D01*
X121277047Y-106259333D01*
X121372285Y-106306952D01*
X121419904Y-106354571D01*
X121467523Y-106449809D01*
X121467523Y-106687904D01*
X121419904Y-106783142D01*
X121372285Y-106830761D01*
X121277047Y-106878380D01*
X120991333Y-106878380D01*
X120896095Y-106830761D01*
X120848476Y-106783142D01*
X122086571Y-105878380D02*
X122181809Y-105878380D01*
X122277047Y-105926000D01*
X122324666Y-105973619D01*
X122372285Y-106068857D01*
X122419904Y-106259333D01*
X122419904Y-106497428D01*
X122372285Y-106687904D01*
X122324666Y-106783142D01*
X122277047Y-106830761D01*
X122181809Y-106878380D01*
X122086571Y-106878380D01*
X121991333Y-106830761D01*
X121943714Y-106783142D01*
X121896095Y-106687904D01*
X121848476Y-106497428D01*
X121848476Y-106259333D01*
X121896095Y-106068857D01*
X121943714Y-105973619D01*
X121991333Y-105926000D01*
X122086571Y-105878380D01*
X140581142Y-91670142D02*
X140533523Y-91717761D01*
X140390666Y-91765380D01*
X140295428Y-91765380D01*
X140152571Y-91717761D01*
X140057333Y-91622523D01*
X140009714Y-91527285D01*
X139962095Y-91336809D01*
X139962095Y-91193952D01*
X140009714Y-91003476D01*
X140057333Y-90908238D01*
X140152571Y-90813000D01*
X140295428Y-90765380D01*
X140390666Y-90765380D01*
X140533523Y-90813000D01*
X140581142Y-90860619D01*
X140962095Y-90860619D02*
X141009714Y-90813000D01*
X141104952Y-90765380D01*
X141343047Y-90765380D01*
X141438285Y-90813000D01*
X141485904Y-90860619D01*
X141533523Y-90955857D01*
X141533523Y-91051095D01*
X141485904Y-91193952D01*
X140914476Y-91765380D01*
X141533523Y-91765380D01*
X142009714Y-91765380D02*
X142200190Y-91765380D01*
X142295428Y-91717761D01*
X142343047Y-91670142D01*
X142438285Y-91527285D01*
X142485904Y-91336809D01*
X142485904Y-90955857D01*
X142438285Y-90860619D01*
X142390666Y-90813000D01*
X142295428Y-90765380D01*
X142104952Y-90765380D01*
X142009714Y-90813000D01*
X141962095Y-90860619D01*
X141914476Y-90955857D01*
X141914476Y-91193952D01*
X141962095Y-91289190D01*
X142009714Y-91336809D01*
X142104952Y-91384428D01*
X142295428Y-91384428D01*
X142390666Y-91336809D01*
X142438285Y-91289190D01*
X142485904Y-91193952D01*
X140581142Y-84164142D02*
X140533523Y-84211761D01*
X140390666Y-84259380D01*
X140295428Y-84259380D01*
X140152571Y-84211761D01*
X140057333Y-84116523D01*
X140009714Y-84021285D01*
X139962095Y-83830809D01*
X139962095Y-83687952D01*
X140009714Y-83497476D01*
X140057333Y-83402238D01*
X140152571Y-83307000D01*
X140295428Y-83259380D01*
X140390666Y-83259380D01*
X140533523Y-83307000D01*
X140581142Y-83354619D01*
X140962095Y-83354619D02*
X141009714Y-83307000D01*
X141104952Y-83259380D01*
X141343047Y-83259380D01*
X141438285Y-83307000D01*
X141485904Y-83354619D01*
X141533523Y-83449857D01*
X141533523Y-83545095D01*
X141485904Y-83687952D01*
X140914476Y-84259380D01*
X141533523Y-84259380D01*
X142104952Y-83687952D02*
X142009714Y-83640333D01*
X141962095Y-83592714D01*
X141914476Y-83497476D01*
X141914476Y-83449857D01*
X141962095Y-83354619D01*
X142009714Y-83307000D01*
X142104952Y-83259380D01*
X142295428Y-83259380D01*
X142390666Y-83307000D01*
X142438285Y-83354619D01*
X142485904Y-83449857D01*
X142485904Y-83497476D01*
X142438285Y-83592714D01*
X142390666Y-83640333D01*
X142295428Y-83687952D01*
X142104952Y-83687952D01*
X142009714Y-83735571D01*
X141962095Y-83783190D01*
X141914476Y-83878428D01*
X141914476Y-84068904D01*
X141962095Y-84164142D01*
X142009714Y-84211761D01*
X142104952Y-84259380D01*
X142295428Y-84259380D01*
X142390666Y-84211761D01*
X142438285Y-84164142D01*
X142485904Y-84068904D01*
X142485904Y-83878428D01*
X142438285Y-83783190D01*
X142390666Y-83735571D01*
X142295428Y-83687952D01*
X126103142Y-91670142D02*
X126055523Y-91717761D01*
X125912666Y-91765380D01*
X125817428Y-91765380D01*
X125674571Y-91717761D01*
X125579333Y-91622523D01*
X125531714Y-91527285D01*
X125484095Y-91336809D01*
X125484095Y-91193952D01*
X125531714Y-91003476D01*
X125579333Y-90908238D01*
X125674571Y-90813000D01*
X125817428Y-90765380D01*
X125912666Y-90765380D01*
X126055523Y-90813000D01*
X126103142Y-90860619D01*
X126484095Y-90860619D02*
X126531714Y-90813000D01*
X126626952Y-90765380D01*
X126865047Y-90765380D01*
X126960285Y-90813000D01*
X127007904Y-90860619D01*
X127055523Y-90955857D01*
X127055523Y-91051095D01*
X127007904Y-91193952D01*
X126436476Y-91765380D01*
X127055523Y-91765380D01*
X127388857Y-90765380D02*
X128055523Y-90765380D01*
X127626952Y-91765380D01*
X126103142Y-84177142D02*
X126055523Y-84224761D01*
X125912666Y-84272380D01*
X125817428Y-84272380D01*
X125674571Y-84224761D01*
X125579333Y-84129523D01*
X125531714Y-84034285D01*
X125484095Y-83843809D01*
X125484095Y-83700952D01*
X125531714Y-83510476D01*
X125579333Y-83415238D01*
X125674571Y-83320000D01*
X125817428Y-83272380D01*
X125912666Y-83272380D01*
X126055523Y-83320000D01*
X126103142Y-83367619D01*
X126484095Y-83367619D02*
X126531714Y-83320000D01*
X126626952Y-83272380D01*
X126865047Y-83272380D01*
X126960285Y-83320000D01*
X127007904Y-83367619D01*
X127055523Y-83462857D01*
X127055523Y-83558095D01*
X127007904Y-83700952D01*
X126436476Y-84272380D01*
X127055523Y-84272380D01*
X127912666Y-83272380D02*
X127722190Y-83272380D01*
X127626952Y-83320000D01*
X127579333Y-83367619D01*
X127484095Y-83510476D01*
X127436476Y-83700952D01*
X127436476Y-84081904D01*
X127484095Y-84177142D01*
X127531714Y-84224761D01*
X127626952Y-84272380D01*
X127817428Y-84272380D01*
X127912666Y-84224761D01*
X127960285Y-84177142D01*
X128007904Y-84081904D01*
X128007904Y-83843809D01*
X127960285Y-83748571D01*
X127912666Y-83700952D01*
X127817428Y-83653333D01*
X127626952Y-83653333D01*
X127531714Y-83700952D01*
X127484095Y-83748571D01*
X127436476Y-83843809D01*
X116451142Y-91670142D02*
X116403523Y-91717761D01*
X116260666Y-91765380D01*
X116165428Y-91765380D01*
X116022571Y-91717761D01*
X115927333Y-91622523D01*
X115879714Y-91527285D01*
X115832095Y-91336809D01*
X115832095Y-91193952D01*
X115879714Y-91003476D01*
X115927333Y-90908238D01*
X116022571Y-90813000D01*
X116165428Y-90765380D01*
X116260666Y-90765380D01*
X116403523Y-90813000D01*
X116451142Y-90860619D01*
X116832095Y-90860619D02*
X116879714Y-90813000D01*
X116974952Y-90765380D01*
X117213047Y-90765380D01*
X117308285Y-90813000D01*
X117355904Y-90860619D01*
X117403523Y-90955857D01*
X117403523Y-91051095D01*
X117355904Y-91193952D01*
X116784476Y-91765380D01*
X117403523Y-91765380D01*
X118308285Y-90765380D02*
X117832095Y-90765380D01*
X117784476Y-91241571D01*
X117832095Y-91193952D01*
X117927333Y-91146333D01*
X118165428Y-91146333D01*
X118260666Y-91193952D01*
X118308285Y-91241571D01*
X118355904Y-91336809D01*
X118355904Y-91574904D01*
X118308285Y-91670142D01*
X118260666Y-91717761D01*
X118165428Y-91765380D01*
X117927333Y-91765380D01*
X117832095Y-91717761D01*
X117784476Y-91670142D01*
X116451142Y-84177142D02*
X116403523Y-84224761D01*
X116260666Y-84272380D01*
X116165428Y-84272380D01*
X116022571Y-84224761D01*
X115927333Y-84129523D01*
X115879714Y-84034285D01*
X115832095Y-83843809D01*
X115832095Y-83700952D01*
X115879714Y-83510476D01*
X115927333Y-83415238D01*
X116022571Y-83320000D01*
X116165428Y-83272380D01*
X116260666Y-83272380D01*
X116403523Y-83320000D01*
X116451142Y-83367619D01*
X116832095Y-83367619D02*
X116879714Y-83320000D01*
X116974952Y-83272380D01*
X117213047Y-83272380D01*
X117308285Y-83320000D01*
X117355904Y-83367619D01*
X117403523Y-83462857D01*
X117403523Y-83558095D01*
X117355904Y-83700952D01*
X116784476Y-84272380D01*
X117403523Y-84272380D01*
X118260666Y-83605714D02*
X118260666Y-84272380D01*
X118022571Y-83224761D02*
X117784476Y-83939047D01*
X118403523Y-83939047D01*
X101973142Y-91670142D02*
X101925523Y-91717761D01*
X101782666Y-91765380D01*
X101687428Y-91765380D01*
X101544571Y-91717761D01*
X101449333Y-91622523D01*
X101401714Y-91527285D01*
X101354095Y-91336809D01*
X101354095Y-91193952D01*
X101401714Y-91003476D01*
X101449333Y-90908238D01*
X101544571Y-90813000D01*
X101687428Y-90765380D01*
X101782666Y-90765380D01*
X101925523Y-90813000D01*
X101973142Y-90860619D01*
X102354095Y-90860619D02*
X102401714Y-90813000D01*
X102496952Y-90765380D01*
X102735047Y-90765380D01*
X102830285Y-90813000D01*
X102877904Y-90860619D01*
X102925523Y-90955857D01*
X102925523Y-91051095D01*
X102877904Y-91193952D01*
X102306476Y-91765380D01*
X102925523Y-91765380D01*
X103258857Y-90765380D02*
X103877904Y-90765380D01*
X103544571Y-91146333D01*
X103687428Y-91146333D01*
X103782666Y-91193952D01*
X103830285Y-91241571D01*
X103877904Y-91336809D01*
X103877904Y-91574904D01*
X103830285Y-91670142D01*
X103782666Y-91717761D01*
X103687428Y-91765380D01*
X103401714Y-91765380D01*
X103306476Y-91717761D01*
X103258857Y-91670142D01*
X101973142Y-84177142D02*
X101925523Y-84224761D01*
X101782666Y-84272380D01*
X101687428Y-84272380D01*
X101544571Y-84224761D01*
X101449333Y-84129523D01*
X101401714Y-84034285D01*
X101354095Y-83843809D01*
X101354095Y-83700952D01*
X101401714Y-83510476D01*
X101449333Y-83415238D01*
X101544571Y-83320000D01*
X101687428Y-83272380D01*
X101782666Y-83272380D01*
X101925523Y-83320000D01*
X101973142Y-83367619D01*
X102354095Y-83367619D02*
X102401714Y-83320000D01*
X102496952Y-83272380D01*
X102735047Y-83272380D01*
X102830285Y-83320000D01*
X102877904Y-83367619D01*
X102925523Y-83462857D01*
X102925523Y-83558095D01*
X102877904Y-83700952D01*
X102306476Y-84272380D01*
X102925523Y-84272380D01*
X103306476Y-83367619D02*
X103354095Y-83320000D01*
X103449333Y-83272380D01*
X103687428Y-83272380D01*
X103782666Y-83320000D01*
X103830285Y-83367619D01*
X103877904Y-83462857D01*
X103877904Y-83558095D01*
X103830285Y-83700952D01*
X103258857Y-84272380D01*
X103877904Y-84272380D01*
X92321142Y-91670142D02*
X92273523Y-91717761D01*
X92130666Y-91765380D01*
X92035428Y-91765380D01*
X91892571Y-91717761D01*
X91797333Y-91622523D01*
X91749714Y-91527285D01*
X91702095Y-91336809D01*
X91702095Y-91193952D01*
X91749714Y-91003476D01*
X91797333Y-90908238D01*
X91892571Y-90813000D01*
X92035428Y-90765380D01*
X92130666Y-90765380D01*
X92273523Y-90813000D01*
X92321142Y-90860619D01*
X92702095Y-90860619D02*
X92749714Y-90813000D01*
X92844952Y-90765380D01*
X93083047Y-90765380D01*
X93178285Y-90813000D01*
X93225904Y-90860619D01*
X93273523Y-90955857D01*
X93273523Y-91051095D01*
X93225904Y-91193952D01*
X92654476Y-91765380D01*
X93273523Y-91765380D01*
X94225904Y-91765380D02*
X93654476Y-91765380D01*
X93940190Y-91765380D02*
X93940190Y-90765380D01*
X93844952Y-90908238D01*
X93749714Y-91003476D01*
X93654476Y-91051095D01*
X92321142Y-84177142D02*
X92273523Y-84224761D01*
X92130666Y-84272380D01*
X92035428Y-84272380D01*
X91892571Y-84224761D01*
X91797333Y-84129523D01*
X91749714Y-84034285D01*
X91702095Y-83843809D01*
X91702095Y-83700952D01*
X91749714Y-83510476D01*
X91797333Y-83415238D01*
X91892571Y-83320000D01*
X92035428Y-83272380D01*
X92130666Y-83272380D01*
X92273523Y-83320000D01*
X92321142Y-83367619D01*
X92702095Y-83367619D02*
X92749714Y-83320000D01*
X92844952Y-83272380D01*
X93083047Y-83272380D01*
X93178285Y-83320000D01*
X93225904Y-83367619D01*
X93273523Y-83462857D01*
X93273523Y-83558095D01*
X93225904Y-83700952D01*
X92654476Y-84272380D01*
X93273523Y-84272380D01*
X93892571Y-83272380D02*
X93987809Y-83272380D01*
X94083047Y-83320000D01*
X94130666Y-83367619D01*
X94178285Y-83462857D01*
X94225904Y-83653333D01*
X94225904Y-83891428D01*
X94178285Y-84081904D01*
X94130666Y-84177142D01*
X94083047Y-84224761D01*
X93987809Y-84272380D01*
X93892571Y-84272380D01*
X93797333Y-84224761D01*
X93749714Y-84177142D01*
X93702095Y-84081904D01*
X93654476Y-83891428D01*
X93654476Y-83653333D01*
X93702095Y-83462857D01*
X93749714Y-83367619D01*
X93797333Y-83320000D01*
X93892571Y-83272380D01*
X142105142Y-105513142D02*
X142057523Y-105560761D01*
X141914666Y-105608380D01*
X141819428Y-105608380D01*
X141676571Y-105560761D01*
X141581333Y-105465523D01*
X141533714Y-105370285D01*
X141486095Y-105179809D01*
X141486095Y-105036952D01*
X141533714Y-104846476D01*
X141581333Y-104751238D01*
X141676571Y-104656000D01*
X141819428Y-104608380D01*
X141914666Y-104608380D01*
X142057523Y-104656000D01*
X142105142Y-104703619D01*
X143057523Y-105608380D02*
X142486095Y-105608380D01*
X142771809Y-105608380D02*
X142771809Y-104608380D01*
X142676571Y-104751238D01*
X142581333Y-104846476D01*
X142486095Y-104894095D01*
X143533714Y-105608380D02*
X143724190Y-105608380D01*
X143819428Y-105560761D01*
X143867047Y-105513142D01*
X143962285Y-105370285D01*
X144009904Y-105179809D01*
X144009904Y-104798857D01*
X143962285Y-104703619D01*
X143914666Y-104656000D01*
X143819428Y-104608380D01*
X143628952Y-104608380D01*
X143533714Y-104656000D01*
X143486095Y-104703619D01*
X143438476Y-104798857D01*
X143438476Y-105036952D01*
X143486095Y-105132190D01*
X143533714Y-105179809D01*
X143628952Y-105227428D01*
X143819428Y-105227428D01*
X143914666Y-105179809D01*
X143962285Y-105132190D01*
X144009904Y-105036952D01*
X142105142Y-110593142D02*
X142057523Y-110640761D01*
X141914666Y-110688380D01*
X141819428Y-110688380D01*
X141676571Y-110640761D01*
X141581333Y-110545523D01*
X141533714Y-110450285D01*
X141486095Y-110259809D01*
X141486095Y-110116952D01*
X141533714Y-109926476D01*
X141581333Y-109831238D01*
X141676571Y-109736000D01*
X141819428Y-109688380D01*
X141914666Y-109688380D01*
X142057523Y-109736000D01*
X142105142Y-109783619D01*
X143057523Y-110688380D02*
X142486095Y-110688380D01*
X142771809Y-110688380D02*
X142771809Y-109688380D01*
X142676571Y-109831238D01*
X142581333Y-109926476D01*
X142486095Y-109974095D01*
X143628952Y-110116952D02*
X143533714Y-110069333D01*
X143486095Y-110021714D01*
X143438476Y-109926476D01*
X143438476Y-109878857D01*
X143486095Y-109783619D01*
X143533714Y-109736000D01*
X143628952Y-109688380D01*
X143819428Y-109688380D01*
X143914666Y-109736000D01*
X143962285Y-109783619D01*
X144009904Y-109878857D01*
X144009904Y-109926476D01*
X143962285Y-110021714D01*
X143914666Y-110069333D01*
X143819428Y-110116952D01*
X143628952Y-110116952D01*
X143533714Y-110164571D01*
X143486095Y-110212190D01*
X143438476Y-110307428D01*
X143438476Y-110497904D01*
X143486095Y-110593142D01*
X143533714Y-110640761D01*
X143628952Y-110688380D01*
X143819428Y-110688380D01*
X143914666Y-110640761D01*
X143962285Y-110593142D01*
X144009904Y-110497904D01*
X144009904Y-110307428D01*
X143962285Y-110212190D01*
X143914666Y-110164571D01*
X143819428Y-110116952D01*
X120515142Y-113387142D02*
X120467523Y-113434761D01*
X120324666Y-113482380D01*
X120229428Y-113482380D01*
X120086571Y-113434761D01*
X119991333Y-113339523D01*
X119943714Y-113244285D01*
X119896095Y-113053809D01*
X119896095Y-112910952D01*
X119943714Y-112720476D01*
X119991333Y-112625238D01*
X120086571Y-112530000D01*
X120229428Y-112482380D01*
X120324666Y-112482380D01*
X120467523Y-112530000D01*
X120515142Y-112577619D01*
X121467523Y-113482380D02*
X120896095Y-113482380D01*
X121181809Y-113482380D02*
X121181809Y-112482380D01*
X121086571Y-112625238D01*
X120991333Y-112720476D01*
X120896095Y-112768095D01*
X121800857Y-112482380D02*
X122467523Y-112482380D01*
X122038952Y-113482380D01*
X102989142Y-96877142D02*
X102941523Y-96924761D01*
X102798666Y-96972380D01*
X102703428Y-96972380D01*
X102560571Y-96924761D01*
X102465333Y-96829523D01*
X102417714Y-96734285D01*
X102370095Y-96543809D01*
X102370095Y-96400952D01*
X102417714Y-96210476D01*
X102465333Y-96115238D01*
X102560571Y-96020000D01*
X102703428Y-95972380D01*
X102798666Y-95972380D01*
X102941523Y-96020000D01*
X102989142Y-96067619D01*
X103941523Y-96972380D02*
X103370095Y-96972380D01*
X103655809Y-96972380D02*
X103655809Y-95972380D01*
X103560571Y-96115238D01*
X103465333Y-96210476D01*
X103370095Y-96258095D01*
X104798666Y-95972380D02*
X104608190Y-95972380D01*
X104512952Y-96020000D01*
X104465333Y-96067619D01*
X104370095Y-96210476D01*
X104322476Y-96400952D01*
X104322476Y-96781904D01*
X104370095Y-96877142D01*
X104417714Y-96924761D01*
X104512952Y-96972380D01*
X104703428Y-96972380D01*
X104798666Y-96924761D01*
X104846285Y-96877142D01*
X104893904Y-96781904D01*
X104893904Y-96543809D01*
X104846285Y-96448571D01*
X104798666Y-96400952D01*
X104703428Y-96353333D01*
X104512952Y-96353333D01*
X104417714Y-96400952D01*
X104370095Y-96448571D01*
X104322476Y-96543809D01*
X111371142Y-96877142D02*
X111323523Y-96924761D01*
X111180666Y-96972380D01*
X111085428Y-96972380D01*
X110942571Y-96924761D01*
X110847333Y-96829523D01*
X110799714Y-96734285D01*
X110752095Y-96543809D01*
X110752095Y-96400952D01*
X110799714Y-96210476D01*
X110847333Y-96115238D01*
X110942571Y-96020000D01*
X111085428Y-95972380D01*
X111180666Y-95972380D01*
X111323523Y-96020000D01*
X111371142Y-96067619D01*
X112323523Y-96972380D02*
X111752095Y-96972380D01*
X112037809Y-96972380D02*
X112037809Y-95972380D01*
X111942571Y-96115238D01*
X111847333Y-96210476D01*
X111752095Y-96258095D01*
X113228285Y-95972380D02*
X112752095Y-95972380D01*
X112704476Y-96448571D01*
X112752095Y-96400952D01*
X112847333Y-96353333D01*
X113085428Y-96353333D01*
X113180666Y-96400952D01*
X113228285Y-96448571D01*
X113275904Y-96543809D01*
X113275904Y-96781904D01*
X113228285Y-96877142D01*
X113180666Y-96924761D01*
X113085428Y-96972380D01*
X112847333Y-96972380D01*
X112752095Y-96924761D01*
X112704476Y-96877142D01*
X142293142Y-93575142D02*
X142245523Y-93622761D01*
X142102666Y-93670380D01*
X142007428Y-93670380D01*
X141864571Y-93622761D01*
X141769333Y-93527523D01*
X141721714Y-93432285D01*
X141674095Y-93241809D01*
X141674095Y-93098952D01*
X141721714Y-92908476D01*
X141769333Y-92813238D01*
X141864571Y-92718000D01*
X142007428Y-92670380D01*
X142102666Y-92670380D01*
X142245523Y-92718000D01*
X142293142Y-92765619D01*
X143245523Y-93670380D02*
X142674095Y-93670380D01*
X142959809Y-93670380D02*
X142959809Y-92670380D01*
X142864571Y-92813238D01*
X142769333Y-92908476D01*
X142674095Y-92956095D01*
X143578857Y-92670380D02*
X144197904Y-92670380D01*
X143864571Y-93051333D01*
X144007428Y-93051333D01*
X144102666Y-93098952D01*
X144150285Y-93146571D01*
X144197904Y-93241809D01*
X144197904Y-93479904D01*
X144150285Y-93575142D01*
X144102666Y-93622761D01*
X144007428Y-93670380D01*
X143721714Y-93670380D01*
X143626476Y-93622761D01*
X143578857Y-93575142D01*
X116705142Y-93575142D02*
X116657523Y-93622761D01*
X116514666Y-93670380D01*
X116419428Y-93670380D01*
X116276571Y-93622761D01*
X116181333Y-93527523D01*
X116133714Y-93432285D01*
X116086095Y-93241809D01*
X116086095Y-93098952D01*
X116133714Y-92908476D01*
X116181333Y-92813238D01*
X116276571Y-92718000D01*
X116419428Y-92670380D01*
X116514666Y-92670380D01*
X116657523Y-92718000D01*
X116705142Y-92765619D01*
X117657523Y-93670380D02*
X117086095Y-93670380D01*
X117371809Y-93670380D02*
X117371809Y-92670380D01*
X117276571Y-92813238D01*
X117181333Y-92908476D01*
X117086095Y-92956095D01*
X118038476Y-92765619D02*
X118086095Y-92718000D01*
X118181333Y-92670380D01*
X118419428Y-92670380D01*
X118514666Y-92718000D01*
X118562285Y-92765619D01*
X118609904Y-92860857D01*
X118609904Y-92956095D01*
X118562285Y-93098952D01*
X117990857Y-93670380D01*
X118609904Y-93670380D01*
X98925142Y-79097142D02*
X98877523Y-79144761D01*
X98734666Y-79192380D01*
X98639428Y-79192380D01*
X98496571Y-79144761D01*
X98401333Y-79049523D01*
X98353714Y-78954285D01*
X98306095Y-78763809D01*
X98306095Y-78620952D01*
X98353714Y-78430476D01*
X98401333Y-78335238D01*
X98496571Y-78240000D01*
X98639428Y-78192380D01*
X98734666Y-78192380D01*
X98877523Y-78240000D01*
X98925142Y-78287619D01*
X99877523Y-79192380D02*
X99306095Y-79192380D01*
X99591809Y-79192380D02*
X99591809Y-78192380D01*
X99496571Y-78335238D01*
X99401333Y-78430476D01*
X99306095Y-78478095D01*
X100829904Y-79192380D02*
X100258476Y-79192380D01*
X100544190Y-79192380D02*
X100544190Y-78192380D01*
X100448952Y-78335238D01*
X100353714Y-78430476D01*
X100258476Y-78478095D01*
X133469142Y-96877142D02*
X133421523Y-96924761D01*
X133278666Y-96972380D01*
X133183428Y-96972380D01*
X133040571Y-96924761D01*
X132945333Y-96829523D01*
X132897714Y-96734285D01*
X132850095Y-96543809D01*
X132850095Y-96400952D01*
X132897714Y-96210476D01*
X132945333Y-96115238D01*
X133040571Y-96020000D01*
X133183428Y-95972380D01*
X133278666Y-95972380D01*
X133421523Y-96020000D01*
X133469142Y-96067619D01*
X134421523Y-96972380D02*
X133850095Y-96972380D01*
X134135809Y-96972380D02*
X134135809Y-95972380D01*
X134040571Y-96115238D01*
X133945333Y-96210476D01*
X133850095Y-96258095D01*
X135040571Y-95972380D02*
X135135809Y-95972380D01*
X135231047Y-96020000D01*
X135278666Y-96067619D01*
X135326285Y-96162857D01*
X135373904Y-96353333D01*
X135373904Y-96591428D01*
X135326285Y-96781904D01*
X135278666Y-96877142D01*
X135231047Y-96924761D01*
X135135809Y-96972380D01*
X135040571Y-96972380D01*
X134945333Y-96924761D01*
X134897714Y-96877142D01*
X134850095Y-96781904D01*
X134802476Y-96591428D01*
X134802476Y-96353333D01*
X134850095Y-96162857D01*
X134897714Y-96067619D01*
X134945333Y-96020000D01*
X135040571Y-95972380D01*
X133945333Y-77065142D02*
X133897714Y-77112761D01*
X133754857Y-77160380D01*
X133659619Y-77160380D01*
X133516761Y-77112761D01*
X133421523Y-77017523D01*
X133373904Y-76922285D01*
X133326285Y-76731809D01*
X133326285Y-76588952D01*
X133373904Y-76398476D01*
X133421523Y-76303238D01*
X133516761Y-76208000D01*
X133659619Y-76160380D01*
X133754857Y-76160380D01*
X133897714Y-76208000D01*
X133945333Y-76255619D01*
X134421523Y-77160380D02*
X134612000Y-77160380D01*
X134707238Y-77112761D01*
X134754857Y-77065142D01*
X134850095Y-76922285D01*
X134897714Y-76731809D01*
X134897714Y-76350857D01*
X134850095Y-76255619D01*
X134802476Y-76208000D01*
X134707238Y-76160380D01*
X134516761Y-76160380D01*
X134421523Y-76208000D01*
X134373904Y-76255619D01*
X134326285Y-76350857D01*
X134326285Y-76588952D01*
X134373904Y-76684190D01*
X134421523Y-76731809D01*
X134516761Y-76779428D01*
X134707238Y-76779428D01*
X134802476Y-76731809D01*
X134850095Y-76684190D01*
X134897714Y-76588952D01*
X110831333Y-77065142D02*
X110783714Y-77112761D01*
X110640857Y-77160380D01*
X110545619Y-77160380D01*
X110402761Y-77112761D01*
X110307523Y-77017523D01*
X110259904Y-76922285D01*
X110212285Y-76731809D01*
X110212285Y-76588952D01*
X110259904Y-76398476D01*
X110307523Y-76303238D01*
X110402761Y-76208000D01*
X110545619Y-76160380D01*
X110640857Y-76160380D01*
X110783714Y-76208000D01*
X110831333Y-76255619D01*
X111402761Y-76588952D02*
X111307523Y-76541333D01*
X111259904Y-76493714D01*
X111212285Y-76398476D01*
X111212285Y-76350857D01*
X111259904Y-76255619D01*
X111307523Y-76208000D01*
X111402761Y-76160380D01*
X111593238Y-76160380D01*
X111688476Y-76208000D01*
X111736095Y-76255619D01*
X111783714Y-76350857D01*
X111783714Y-76398476D01*
X111736095Y-76493714D01*
X111688476Y-76541333D01*
X111593238Y-76588952D01*
X111402761Y-76588952D01*
X111307523Y-76636571D01*
X111259904Y-76684190D01*
X111212285Y-76779428D01*
X111212285Y-76969904D01*
X111259904Y-77065142D01*
X111307523Y-77112761D01*
X111402761Y-77160380D01*
X111593238Y-77160380D01*
X111688476Y-77112761D01*
X111736095Y-77065142D01*
X111783714Y-76969904D01*
X111783714Y-76779428D01*
X111736095Y-76684190D01*
X111688476Y-76636571D01*
X111593238Y-76588952D01*
X138517333Y-93575142D02*
X138469714Y-93622761D01*
X138326857Y-93670380D01*
X138231619Y-93670380D01*
X138088761Y-93622761D01*
X137993523Y-93527523D01*
X137945904Y-93432285D01*
X137898285Y-93241809D01*
X137898285Y-93098952D01*
X137945904Y-92908476D01*
X137993523Y-92813238D01*
X138088761Y-92718000D01*
X138231619Y-92670380D01*
X138326857Y-92670380D01*
X138469714Y-92718000D01*
X138517333Y-92765619D01*
X138850666Y-92670380D02*
X139517333Y-92670380D01*
X139088761Y-93670380D01*
X122769333Y-78335142D02*
X122721714Y-78382761D01*
X122578857Y-78430380D01*
X122483619Y-78430380D01*
X122340761Y-78382761D01*
X122245523Y-78287523D01*
X122197904Y-78192285D01*
X122150285Y-78001809D01*
X122150285Y-77858952D01*
X122197904Y-77668476D01*
X122245523Y-77573238D01*
X122340761Y-77478000D01*
X122483619Y-77430380D01*
X122578857Y-77430380D01*
X122721714Y-77478000D01*
X122769333Y-77525619D01*
X123626476Y-77430380D02*
X123436000Y-77430380D01*
X123340761Y-77478000D01*
X123293142Y-77525619D01*
X123197904Y-77668476D01*
X123150285Y-77858952D01*
X123150285Y-78239904D01*
X123197904Y-78335142D01*
X123245523Y-78382761D01*
X123340761Y-78430380D01*
X123531238Y-78430380D01*
X123626476Y-78382761D01*
X123674095Y-78335142D01*
X123721714Y-78239904D01*
X123721714Y-78001809D01*
X123674095Y-77906571D01*
X123626476Y-77858952D01*
X123531238Y-77811333D01*
X123340761Y-77811333D01*
X123245523Y-77858952D01*
X123197904Y-77906571D01*
X123150285Y-78001809D01*
X94321333Y-79097142D02*
X94273714Y-79144761D01*
X94130857Y-79192380D01*
X94035619Y-79192380D01*
X93892761Y-79144761D01*
X93797523Y-79049523D01*
X93749904Y-78954285D01*
X93702285Y-78763809D01*
X93702285Y-78620952D01*
X93749904Y-78430476D01*
X93797523Y-78335238D01*
X93892761Y-78240000D01*
X94035619Y-78192380D01*
X94130857Y-78192380D01*
X94273714Y-78240000D01*
X94321333Y-78287619D01*
X95226095Y-78192380D02*
X94749904Y-78192380D01*
X94702285Y-78668571D01*
X94749904Y-78620952D01*
X94845142Y-78573333D01*
X95083238Y-78573333D01*
X95178476Y-78620952D01*
X95226095Y-78668571D01*
X95273714Y-78763809D01*
X95273714Y-79001904D01*
X95226095Y-79097142D01*
X95178476Y-79144761D01*
X95083238Y-79192380D01*
X94845142Y-79192380D01*
X94749904Y-79144761D01*
X94702285Y-79097142D01*
X127341333Y-96877142D02*
X127293714Y-96924761D01*
X127150857Y-96972380D01*
X127055619Y-96972380D01*
X126912761Y-96924761D01*
X126817523Y-96829523D01*
X126769904Y-96734285D01*
X126722285Y-96543809D01*
X126722285Y-96400952D01*
X126769904Y-96210476D01*
X126817523Y-96115238D01*
X126912761Y-96020000D01*
X127055619Y-95972380D01*
X127150857Y-95972380D01*
X127293714Y-96020000D01*
X127341333Y-96067619D01*
X128198476Y-96305714D02*
X128198476Y-96972380D01*
X127960380Y-95924761D02*
X127722285Y-96639047D01*
X128341333Y-96639047D01*
X128484333Y-77065142D02*
X128436714Y-77112761D01*
X128293857Y-77160380D01*
X128198619Y-77160380D01*
X128055761Y-77112761D01*
X127960523Y-77017523D01*
X127912904Y-76922285D01*
X127865285Y-76731809D01*
X127865285Y-76588952D01*
X127912904Y-76398476D01*
X127960523Y-76303238D01*
X128055761Y-76208000D01*
X128198619Y-76160380D01*
X128293857Y-76160380D01*
X128436714Y-76208000D01*
X128484333Y-76255619D01*
X128817666Y-76160380D02*
X129436714Y-76160380D01*
X129103380Y-76541333D01*
X129246238Y-76541333D01*
X129341476Y-76588952D01*
X129389095Y-76636571D01*
X129436714Y-76731809D01*
X129436714Y-76969904D01*
X129389095Y-77065142D01*
X129341476Y-77112761D01*
X129246238Y-77160380D01*
X128960523Y-77160380D01*
X128865285Y-77112761D01*
X128817666Y-77065142D01*
X104621333Y-77065142D02*
X104573714Y-77112761D01*
X104430857Y-77160380D01*
X104335619Y-77160380D01*
X104192761Y-77112761D01*
X104097523Y-77017523D01*
X104049904Y-76922285D01*
X104002285Y-76731809D01*
X104002285Y-76588952D01*
X104049904Y-76398476D01*
X104097523Y-76303238D01*
X104192761Y-76208000D01*
X104335619Y-76160380D01*
X104430857Y-76160380D01*
X104573714Y-76208000D01*
X104621333Y-76255619D01*
X105002285Y-76255619D02*
X105049904Y-76208000D01*
X105145142Y-76160380D01*
X105383238Y-76160380D01*
X105478476Y-76208000D01*
X105526095Y-76255619D01*
X105573714Y-76350857D01*
X105573714Y-76446095D01*
X105526095Y-76588952D01*
X104954666Y-77160380D01*
X105573714Y-77160380D01*
X94575333Y-96877142D02*
X94527714Y-96924761D01*
X94384857Y-96972380D01*
X94289619Y-96972380D01*
X94146761Y-96924761D01*
X94051523Y-96829523D01*
X94003904Y-96734285D01*
X93956285Y-96543809D01*
X93956285Y-96400952D01*
X94003904Y-96210476D01*
X94051523Y-96115238D01*
X94146761Y-96020000D01*
X94289619Y-95972380D01*
X94384857Y-95972380D01*
X94527714Y-96020000D01*
X94575333Y-96067619D01*
X95527714Y-96972380D02*
X94956285Y-96972380D01*
X95242000Y-96972380D02*
X95242000Y-95972380D01*
X95146761Y-96115238D01*
X95051523Y-96210476D01*
X94956285Y-96258095D01*
X130556095Y-110450380D02*
X130556095Y-111259904D01*
X130603714Y-111355142D01*
X130651333Y-111402761D01*
X130746571Y-111450380D01*
X130937047Y-111450380D01*
X131032285Y-111402761D01*
X131079904Y-111355142D01*
X131127523Y-111259904D01*
X131127523Y-110450380D01*
X132032285Y-110450380D02*
X131841809Y-110450380D01*
X131746571Y-110498000D01*
X131698952Y-110545619D01*
X131603714Y-110688476D01*
X131556095Y-110878952D01*
X131556095Y-111259904D01*
X131603714Y-111355142D01*
X131651333Y-111402761D01*
X131746571Y-111450380D01*
X131937047Y-111450380D01*
X132032285Y-111402761D01*
X132079904Y-111355142D01*
X132127523Y-111259904D01*
X132127523Y-111021809D01*
X132079904Y-110926571D01*
X132032285Y-110878952D01*
X131937047Y-110831333D01*
X131746571Y-110831333D01*
X131651333Y-110878952D01*
X131603714Y-110926571D01*
X131556095Y-111021809D01*
X114554095Y-86828380D02*
X114554095Y-87637904D01*
X114601714Y-87733142D01*
X114649333Y-87780761D01*
X114744571Y-87828380D01*
X114935047Y-87828380D01*
X115030285Y-87780761D01*
X115077904Y-87733142D01*
X115125523Y-87637904D01*
X115125523Y-86828380D01*
X115554095Y-86923619D02*
X115601714Y-86876000D01*
X115696952Y-86828380D01*
X115935047Y-86828380D01*
X116030285Y-86876000D01*
X116077904Y-86923619D01*
X116125523Y-87018857D01*
X116125523Y-87114095D01*
X116077904Y-87256952D01*
X115506476Y-87828380D01*
X116125523Y-87828380D01*
X104179761Y-103957380D02*
X103846428Y-103481190D01*
X103608333Y-103957380D02*
X103608333Y-102957380D01*
X103989285Y-102957380D01*
X104084523Y-103005000D01*
X104132142Y-103052619D01*
X104179761Y-103147857D01*
X104179761Y-103290714D01*
X104132142Y-103385952D01*
X104084523Y-103433571D01*
X103989285Y-103481190D01*
X103608333Y-103481190D01*
X104465476Y-102957380D02*
X104798809Y-103957380D01*
X105132142Y-102957380D01*
X105417857Y-103052619D02*
X105465476Y-103005000D01*
X105560714Y-102957380D01*
X105798809Y-102957380D01*
X105894047Y-103005000D01*
X105941666Y-103052619D01*
X105989285Y-103147857D01*
X105989285Y-103243095D01*
X105941666Y-103385952D01*
X105370238Y-103957380D01*
X105989285Y-103957380D01*
X98464761Y-103957380D02*
X98131428Y-103481190D01*
X97893333Y-103957380D02*
X97893333Y-102957380D01*
X98274285Y-102957380D01*
X98369523Y-103005000D01*
X98417142Y-103052619D01*
X98464761Y-103147857D01*
X98464761Y-103290714D01*
X98417142Y-103385952D01*
X98369523Y-103433571D01*
X98274285Y-103481190D01*
X97893333Y-103481190D01*
X98750476Y-102957380D02*
X99083809Y-103957380D01*
X99417142Y-102957380D01*
X100274285Y-103957380D02*
X99702857Y-103957380D01*
X99988571Y-103957380D02*
X99988571Y-102957380D01*
X99893333Y-103100238D01*
X99798095Y-103195476D01*
X99702857Y-103243095D01*
X109894761Y-103957380D02*
X109561428Y-103481190D01*
X109323333Y-103957380D02*
X109323333Y-102957380D01*
X109704285Y-102957380D01*
X109799523Y-103005000D01*
X109847142Y-103052619D01*
X109894761Y-103147857D01*
X109894761Y-103290714D01*
X109847142Y-103385952D01*
X109799523Y-103433571D01*
X109704285Y-103481190D01*
X109323333Y-103481190D01*
X110180476Y-102957380D02*
X110513809Y-103957380D01*
X110847142Y-102957380D01*
X111085238Y-102957380D02*
X111704285Y-102957380D01*
X111370952Y-103338333D01*
X111513809Y-103338333D01*
X111609047Y-103385952D01*
X111656666Y-103433571D01*
X111704285Y-103528809D01*
X111704285Y-103766904D01*
X111656666Y-103862142D01*
X111609047Y-103909761D01*
X111513809Y-103957380D01*
X111228095Y-103957380D01*
X111132857Y-103909761D01*
X111085238Y-103862142D01*
X141247904Y-99798380D02*
X141247904Y-98798380D01*
X141486000Y-98798380D01*
X141628857Y-98846000D01*
X141724095Y-98941238D01*
X141771714Y-99036476D01*
X141819333Y-99226952D01*
X141819333Y-99369809D01*
X141771714Y-99560285D01*
X141724095Y-99655523D01*
X141628857Y-99750761D01*
X141486000Y-99798380D01*
X141247904Y-99798380D01*
X142771714Y-99798380D02*
X142200285Y-99798380D01*
X142486000Y-99798380D02*
X142486000Y-98798380D01*
X142390761Y-98941238D01*
X142295523Y-99036476D01*
X142200285Y-99084095D01*
%LPC*%
G36*
G01*
X133851000Y-108620000D02*
X133851000Y-109820000D01*
G75*
G02*
X133800000Y-109871000I-51000J0D01*
G01*
X132900000Y-109871000D01*
G75*
G02*
X132849000Y-109820000I0J51000D01*
G01*
X132849000Y-108620000D01*
G75*
G02*
X132900000Y-108569000I51000J0D01*
G01*
X133800000Y-108569000D01*
G75*
G02*
X133851000Y-108620000I0J-51000D01*
G01*
G37*
G36*
G01*
X137151000Y-108620000D02*
X137151000Y-109820000D01*
G75*
G02*
X137100000Y-109871000I-51000J0D01*
G01*
X136200000Y-109871000D01*
G75*
G02*
X136149000Y-109820000I0J51000D01*
G01*
X136149000Y-108620000D01*
G75*
G02*
X136200000Y-108569000I51000J0D01*
G01*
X137100000Y-108569000D01*
G75*
G02*
X137151000Y-108620000I0J-51000D01*
G01*
G37*
G36*
G01*
X133851000Y-111160000D02*
X133851000Y-112360000D01*
G75*
G02*
X133800000Y-112411000I-51000J0D01*
G01*
X132900000Y-112411000D01*
G75*
G02*
X132849000Y-112360000I0J51000D01*
G01*
X132849000Y-111160000D01*
G75*
G02*
X132900000Y-111109000I51000J0D01*
G01*
X133800000Y-111109000D01*
G75*
G02*
X133851000Y-111160000I0J-51000D01*
G01*
G37*
G36*
G01*
X137151000Y-111160000D02*
X137151000Y-112360000D01*
G75*
G02*
X137100000Y-112411000I-51000J0D01*
G01*
X136200000Y-112411000D01*
G75*
G02*
X136149000Y-112360000I0J51000D01*
G01*
X136149000Y-111160000D01*
G75*
G02*
X136200000Y-111109000I51000J0D01*
G01*
X137100000Y-111109000D01*
G75*
G02*
X137151000Y-111160000I0J-51000D01*
G01*
G37*
D12*
X143256000Y-78406000D03*
X143256000Y-73406000D03*
G36*
G01*
X137619500Y-88571000D02*
X137970500Y-88571000D01*
G75*
G02*
X138146000Y-88746500I0J-175500D01*
G01*
X138146000Y-90447500D01*
G75*
G02*
X137970500Y-90623000I-175500J0D01*
G01*
X137619500Y-90623000D01*
G75*
G02*
X137444000Y-90447500I0J175500D01*
G01*
X137444000Y-88746500D01*
G75*
G02*
X137619500Y-88571000I175500J0D01*
G01*
G37*
G36*
G01*
X136349500Y-88571000D02*
X136700500Y-88571000D01*
G75*
G02*
X136876000Y-88746500I0J-175500D01*
G01*
X136876000Y-90447500D01*
G75*
G02*
X136700500Y-90623000I-175500J0D01*
G01*
X136349500Y-90623000D01*
G75*
G02*
X136174000Y-90447500I0J175500D01*
G01*
X136174000Y-88746500D01*
G75*
G02*
X136349500Y-88571000I175500J0D01*
G01*
G37*
G36*
G01*
X135079500Y-88571000D02*
X135430500Y-88571000D01*
G75*
G02*
X135606000Y-88746500I0J-175500D01*
G01*
X135606000Y-90447500D01*
G75*
G02*
X135430500Y-90623000I-175500J0D01*
G01*
X135079500Y-90623000D01*
G75*
G02*
X134904000Y-90447500I0J175500D01*
G01*
X134904000Y-88746500D01*
G75*
G02*
X135079500Y-88571000I175500J0D01*
G01*
G37*
G36*
G01*
X133809500Y-88571000D02*
X134160500Y-88571000D01*
G75*
G02*
X134336000Y-88746500I0J-175500D01*
G01*
X134336000Y-90447500D01*
G75*
G02*
X134160500Y-90623000I-175500J0D01*
G01*
X133809500Y-90623000D01*
G75*
G02*
X133634000Y-90447500I0J175500D01*
G01*
X133634000Y-88746500D01*
G75*
G02*
X133809500Y-88571000I175500J0D01*
G01*
G37*
G36*
G01*
X132539500Y-88571000D02*
X132890500Y-88571000D01*
G75*
G02*
X133066000Y-88746500I0J-175500D01*
G01*
X133066000Y-90447500D01*
G75*
G02*
X132890500Y-90623000I-175500J0D01*
G01*
X132539500Y-90623000D01*
G75*
G02*
X132364000Y-90447500I0J175500D01*
G01*
X132364000Y-88746500D01*
G75*
G02*
X132539500Y-88571000I175500J0D01*
G01*
G37*
G36*
G01*
X131269500Y-88571000D02*
X131620500Y-88571000D01*
G75*
G02*
X131796000Y-88746500I0J-175500D01*
G01*
X131796000Y-90447500D01*
G75*
G02*
X131620500Y-90623000I-175500J0D01*
G01*
X131269500Y-90623000D01*
G75*
G02*
X131094000Y-90447500I0J175500D01*
G01*
X131094000Y-88746500D01*
G75*
G02*
X131269500Y-88571000I175500J0D01*
G01*
G37*
G36*
G01*
X129999500Y-88571000D02*
X130350500Y-88571000D01*
G75*
G02*
X130526000Y-88746500I0J-175500D01*
G01*
X130526000Y-90447500D01*
G75*
G02*
X130350500Y-90623000I-175500J0D01*
G01*
X129999500Y-90623000D01*
G75*
G02*
X129824000Y-90447500I0J175500D01*
G01*
X129824000Y-88746500D01*
G75*
G02*
X129999500Y-88571000I175500J0D01*
G01*
G37*
G36*
G01*
X128729500Y-88571000D02*
X129080500Y-88571000D01*
G75*
G02*
X129256000Y-88746500I0J-175500D01*
G01*
X129256000Y-90447500D01*
G75*
G02*
X129080500Y-90623000I-175500J0D01*
G01*
X128729500Y-90623000D01*
G75*
G02*
X128554000Y-90447500I0J175500D01*
G01*
X128554000Y-88746500D01*
G75*
G02*
X128729500Y-88571000I175500J0D01*
G01*
G37*
G36*
G01*
X128729500Y-83621000D02*
X129080500Y-83621000D01*
G75*
G02*
X129256000Y-83796500I0J-175500D01*
G01*
X129256000Y-85497500D01*
G75*
G02*
X129080500Y-85673000I-175500J0D01*
G01*
X128729500Y-85673000D01*
G75*
G02*
X128554000Y-85497500I0J175500D01*
G01*
X128554000Y-83796500D01*
G75*
G02*
X128729500Y-83621000I175500J0D01*
G01*
G37*
G36*
G01*
X129999500Y-83621000D02*
X130350500Y-83621000D01*
G75*
G02*
X130526000Y-83796500I0J-175500D01*
G01*
X130526000Y-85497500D01*
G75*
G02*
X130350500Y-85673000I-175500J0D01*
G01*
X129999500Y-85673000D01*
G75*
G02*
X129824000Y-85497500I0J175500D01*
G01*
X129824000Y-83796500D01*
G75*
G02*
X129999500Y-83621000I175500J0D01*
G01*
G37*
G36*
G01*
X131269500Y-83621000D02*
X131620500Y-83621000D01*
G75*
G02*
X131796000Y-83796500I0J-175500D01*
G01*
X131796000Y-85497500D01*
G75*
G02*
X131620500Y-85673000I-175500J0D01*
G01*
X131269500Y-85673000D01*
G75*
G02*
X131094000Y-85497500I0J175500D01*
G01*
X131094000Y-83796500D01*
G75*
G02*
X131269500Y-83621000I175500J0D01*
G01*
G37*
G36*
G01*
X132539500Y-83621000D02*
X132890500Y-83621000D01*
G75*
G02*
X133066000Y-83796500I0J-175500D01*
G01*
X133066000Y-85497500D01*
G75*
G02*
X132890500Y-85673000I-175500J0D01*
G01*
X132539500Y-85673000D01*
G75*
G02*
X132364000Y-85497500I0J175500D01*
G01*
X132364000Y-83796500D01*
G75*
G02*
X132539500Y-83621000I175500J0D01*
G01*
G37*
G36*
G01*
X133809500Y-83621000D02*
X134160500Y-83621000D01*
G75*
G02*
X134336000Y-83796500I0J-175500D01*
G01*
X134336000Y-85497500D01*
G75*
G02*
X134160500Y-85673000I-175500J0D01*
G01*
X133809500Y-85673000D01*
G75*
G02*
X133634000Y-85497500I0J175500D01*
G01*
X133634000Y-83796500D01*
G75*
G02*
X133809500Y-83621000I175500J0D01*
G01*
G37*
G36*
G01*
X135079500Y-83621000D02*
X135430500Y-83621000D01*
G75*
G02*
X135606000Y-83796500I0J-175500D01*
G01*
X135606000Y-85497500D01*
G75*
G02*
X135430500Y-85673000I-175500J0D01*
G01*
X135079500Y-85673000D01*
G75*
G02*
X134904000Y-85497500I0J175500D01*
G01*
X134904000Y-83796500D01*
G75*
G02*
X135079500Y-83621000I175500J0D01*
G01*
G37*
G36*
G01*
X136349500Y-83621000D02*
X136700500Y-83621000D01*
G75*
G02*
X136876000Y-83796500I0J-175500D01*
G01*
X136876000Y-85497500D01*
G75*
G02*
X136700500Y-85673000I-175500J0D01*
G01*
X136349500Y-85673000D01*
G75*
G02*
X136174000Y-85497500I0J175500D01*
G01*
X136174000Y-83796500D01*
G75*
G02*
X136349500Y-83621000I175500J0D01*
G01*
G37*
G36*
G01*
X137619500Y-83621000D02*
X137970500Y-83621000D01*
G75*
G02*
X138146000Y-83796500I0J-175500D01*
G01*
X138146000Y-85497500D01*
G75*
G02*
X137970500Y-85673000I-175500J0D01*
G01*
X137619500Y-85673000D01*
G75*
G02*
X137444000Y-85497500I0J175500D01*
G01*
X137444000Y-83796500D01*
G75*
G02*
X137619500Y-83621000I175500J0D01*
G01*
G37*
G36*
G01*
X147112500Y-89196000D02*
X147363500Y-89196000D01*
G75*
G02*
X147489000Y-89321500I0J-125500D01*
G01*
X147489000Y-90647500D01*
G75*
G02*
X147363500Y-90773000I-125500J0D01*
G01*
X147112500Y-90773000D01*
G75*
G02*
X146987000Y-90647500I0J125500D01*
G01*
X146987000Y-89321500D01*
G75*
G02*
X147112500Y-89196000I125500J0D01*
G01*
G37*
G36*
G01*
X146462500Y-89196000D02*
X146713500Y-89196000D01*
G75*
G02*
X146839000Y-89321500I0J-125500D01*
G01*
X146839000Y-90647500D01*
G75*
G02*
X146713500Y-90773000I-125500J0D01*
G01*
X146462500Y-90773000D01*
G75*
G02*
X146337000Y-90647500I0J125500D01*
G01*
X146337000Y-89321500D01*
G75*
G02*
X146462500Y-89196000I125500J0D01*
G01*
G37*
G36*
G01*
X145812500Y-89196000D02*
X146063500Y-89196000D01*
G75*
G02*
X146189000Y-89321500I0J-125500D01*
G01*
X146189000Y-90647500D01*
G75*
G02*
X146063500Y-90773000I-125500J0D01*
G01*
X145812500Y-90773000D01*
G75*
G02*
X145687000Y-90647500I0J125500D01*
G01*
X145687000Y-89321500D01*
G75*
G02*
X145812500Y-89196000I125500J0D01*
G01*
G37*
G36*
G01*
X145162500Y-89196000D02*
X145413500Y-89196000D01*
G75*
G02*
X145539000Y-89321500I0J-125500D01*
G01*
X145539000Y-90647500D01*
G75*
G02*
X145413500Y-90773000I-125500J0D01*
G01*
X145162500Y-90773000D01*
G75*
G02*
X145037000Y-90647500I0J125500D01*
G01*
X145037000Y-89321500D01*
G75*
G02*
X145162500Y-89196000I125500J0D01*
G01*
G37*
G36*
G01*
X144512500Y-89196000D02*
X144763500Y-89196000D01*
G75*
G02*
X144889000Y-89321500I0J-125500D01*
G01*
X144889000Y-90647500D01*
G75*
G02*
X144763500Y-90773000I-125500J0D01*
G01*
X144512500Y-90773000D01*
G75*
G02*
X144387000Y-90647500I0J125500D01*
G01*
X144387000Y-89321500D01*
G75*
G02*
X144512500Y-89196000I125500J0D01*
G01*
G37*
G36*
G01*
X143862500Y-89196000D02*
X144113500Y-89196000D01*
G75*
G02*
X144239000Y-89321500I0J-125500D01*
G01*
X144239000Y-90647500D01*
G75*
G02*
X144113500Y-90773000I-125500J0D01*
G01*
X143862500Y-90773000D01*
G75*
G02*
X143737000Y-90647500I0J125500D01*
G01*
X143737000Y-89321500D01*
G75*
G02*
X143862500Y-89196000I125500J0D01*
G01*
G37*
G36*
G01*
X143212500Y-89196000D02*
X143463500Y-89196000D01*
G75*
G02*
X143589000Y-89321500I0J-125500D01*
G01*
X143589000Y-90647500D01*
G75*
G02*
X143463500Y-90773000I-125500J0D01*
G01*
X143212500Y-90773000D01*
G75*
G02*
X143087000Y-90647500I0J125500D01*
G01*
X143087000Y-89321500D01*
G75*
G02*
X143212500Y-89196000I125500J0D01*
G01*
G37*
G36*
G01*
X143212500Y-83471000D02*
X143463500Y-83471000D01*
G75*
G02*
X143589000Y-83596500I0J-125500D01*
G01*
X143589000Y-84922500D01*
G75*
G02*
X143463500Y-85048000I-125500J0D01*
G01*
X143212500Y-85048000D01*
G75*
G02*
X143087000Y-84922500I0J125500D01*
G01*
X143087000Y-83596500D01*
G75*
G02*
X143212500Y-83471000I125500J0D01*
G01*
G37*
G36*
G01*
X143862500Y-83471000D02*
X144113500Y-83471000D01*
G75*
G02*
X144239000Y-83596500I0J-125500D01*
G01*
X144239000Y-84922500D01*
G75*
G02*
X144113500Y-85048000I-125500J0D01*
G01*
X143862500Y-85048000D01*
G75*
G02*
X143737000Y-84922500I0J125500D01*
G01*
X143737000Y-83596500D01*
G75*
G02*
X143862500Y-83471000I125500J0D01*
G01*
G37*
G36*
G01*
X144512500Y-83471000D02*
X144763500Y-83471000D01*
G75*
G02*
X144889000Y-83596500I0J-125500D01*
G01*
X144889000Y-84922500D01*
G75*
G02*
X144763500Y-85048000I-125500J0D01*
G01*
X144512500Y-85048000D01*
G75*
G02*
X144387000Y-84922500I0J125500D01*
G01*
X144387000Y-83596500D01*
G75*
G02*
X144512500Y-83471000I125500J0D01*
G01*
G37*
G36*
G01*
X145162500Y-83471000D02*
X145413500Y-83471000D01*
G75*
G02*
X145539000Y-83596500I0J-125500D01*
G01*
X145539000Y-84922500D01*
G75*
G02*
X145413500Y-85048000I-125500J0D01*
G01*
X145162500Y-85048000D01*
G75*
G02*
X145037000Y-84922500I0J125500D01*
G01*
X145037000Y-83596500D01*
G75*
G02*
X145162500Y-83471000I125500J0D01*
G01*
G37*
G36*
G01*
X145812500Y-83471000D02*
X146063500Y-83471000D01*
G75*
G02*
X146189000Y-83596500I0J-125500D01*
G01*
X146189000Y-84922500D01*
G75*
G02*
X146063500Y-85048000I-125500J0D01*
G01*
X145812500Y-85048000D01*
G75*
G02*
X145687000Y-84922500I0J125500D01*
G01*
X145687000Y-83596500D01*
G75*
G02*
X145812500Y-83471000I125500J0D01*
G01*
G37*
G36*
G01*
X146462500Y-83471000D02*
X146713500Y-83471000D01*
G75*
G02*
X146839000Y-83596500I0J-125500D01*
G01*
X146839000Y-84922500D01*
G75*
G02*
X146713500Y-85048000I-125500J0D01*
G01*
X146462500Y-85048000D01*
G75*
G02*
X146337000Y-84922500I0J125500D01*
G01*
X146337000Y-83596500D01*
G75*
G02*
X146462500Y-83471000I125500J0D01*
G01*
G37*
G36*
G01*
X147112500Y-83471000D02*
X147363500Y-83471000D01*
G75*
G02*
X147489000Y-83596500I0J-125500D01*
G01*
X147489000Y-84922500D01*
G75*
G02*
X147363500Y-85048000I-125500J0D01*
G01*
X147112500Y-85048000D01*
G75*
G02*
X146987000Y-84922500I0J125500D01*
G01*
X146987000Y-83596500D01*
G75*
G02*
X147112500Y-83471000I125500J0D01*
G01*
G37*
G36*
G01*
X123109500Y-89450000D02*
X123360500Y-89450000D01*
G75*
G02*
X123486000Y-89575500I0J-125500D01*
G01*
X123486000Y-90901500D01*
G75*
G02*
X123360500Y-91027000I-125500J0D01*
G01*
X123109500Y-91027000D01*
G75*
G02*
X122984000Y-90901500I0J125500D01*
G01*
X122984000Y-89575500D01*
G75*
G02*
X123109500Y-89450000I125500J0D01*
G01*
G37*
G36*
G01*
X122459500Y-89450000D02*
X122710500Y-89450000D01*
G75*
G02*
X122836000Y-89575500I0J-125500D01*
G01*
X122836000Y-90901500D01*
G75*
G02*
X122710500Y-91027000I-125500J0D01*
G01*
X122459500Y-91027000D01*
G75*
G02*
X122334000Y-90901500I0J125500D01*
G01*
X122334000Y-89575500D01*
G75*
G02*
X122459500Y-89450000I125500J0D01*
G01*
G37*
G36*
G01*
X121809500Y-89450000D02*
X122060500Y-89450000D01*
G75*
G02*
X122186000Y-89575500I0J-125500D01*
G01*
X122186000Y-90901500D01*
G75*
G02*
X122060500Y-91027000I-125500J0D01*
G01*
X121809500Y-91027000D01*
G75*
G02*
X121684000Y-90901500I0J125500D01*
G01*
X121684000Y-89575500D01*
G75*
G02*
X121809500Y-89450000I125500J0D01*
G01*
G37*
G36*
G01*
X121159500Y-89450000D02*
X121410500Y-89450000D01*
G75*
G02*
X121536000Y-89575500I0J-125500D01*
G01*
X121536000Y-90901500D01*
G75*
G02*
X121410500Y-91027000I-125500J0D01*
G01*
X121159500Y-91027000D01*
G75*
G02*
X121034000Y-90901500I0J125500D01*
G01*
X121034000Y-89575500D01*
G75*
G02*
X121159500Y-89450000I125500J0D01*
G01*
G37*
G36*
G01*
X120509500Y-89450000D02*
X120760500Y-89450000D01*
G75*
G02*
X120886000Y-89575500I0J-125500D01*
G01*
X120886000Y-90901500D01*
G75*
G02*
X120760500Y-91027000I-125500J0D01*
G01*
X120509500Y-91027000D01*
G75*
G02*
X120384000Y-90901500I0J125500D01*
G01*
X120384000Y-89575500D01*
G75*
G02*
X120509500Y-89450000I125500J0D01*
G01*
G37*
G36*
G01*
X119859500Y-89450000D02*
X120110500Y-89450000D01*
G75*
G02*
X120236000Y-89575500I0J-125500D01*
G01*
X120236000Y-90901500D01*
G75*
G02*
X120110500Y-91027000I-125500J0D01*
G01*
X119859500Y-91027000D01*
G75*
G02*
X119734000Y-90901500I0J125500D01*
G01*
X119734000Y-89575500D01*
G75*
G02*
X119859500Y-89450000I125500J0D01*
G01*
G37*
G36*
G01*
X119209500Y-89450000D02*
X119460500Y-89450000D01*
G75*
G02*
X119586000Y-89575500I0J-125500D01*
G01*
X119586000Y-90901500D01*
G75*
G02*
X119460500Y-91027000I-125500J0D01*
G01*
X119209500Y-91027000D01*
G75*
G02*
X119084000Y-90901500I0J125500D01*
G01*
X119084000Y-89575500D01*
G75*
G02*
X119209500Y-89450000I125500J0D01*
G01*
G37*
G36*
G01*
X119209500Y-83725000D02*
X119460500Y-83725000D01*
G75*
G02*
X119586000Y-83850500I0J-125500D01*
G01*
X119586000Y-85176500D01*
G75*
G02*
X119460500Y-85302000I-125500J0D01*
G01*
X119209500Y-85302000D01*
G75*
G02*
X119084000Y-85176500I0J125500D01*
G01*
X119084000Y-83850500D01*
G75*
G02*
X119209500Y-83725000I125500J0D01*
G01*
G37*
G36*
G01*
X119859500Y-83725000D02*
X120110500Y-83725000D01*
G75*
G02*
X120236000Y-83850500I0J-125500D01*
G01*
X120236000Y-85176500D01*
G75*
G02*
X120110500Y-85302000I-125500J0D01*
G01*
X119859500Y-85302000D01*
G75*
G02*
X119734000Y-85176500I0J125500D01*
G01*
X119734000Y-83850500D01*
G75*
G02*
X119859500Y-83725000I125500J0D01*
G01*
G37*
G36*
G01*
X120509500Y-83725000D02*
X120760500Y-83725000D01*
G75*
G02*
X120886000Y-83850500I0J-125500D01*
G01*
X120886000Y-85176500D01*
G75*
G02*
X120760500Y-85302000I-125500J0D01*
G01*
X120509500Y-85302000D01*
G75*
G02*
X120384000Y-85176500I0J125500D01*
G01*
X120384000Y-83850500D01*
G75*
G02*
X120509500Y-83725000I125500J0D01*
G01*
G37*
G36*
G01*
X121159500Y-83725000D02*
X121410500Y-83725000D01*
G75*
G02*
X121536000Y-83850500I0J-125500D01*
G01*
X121536000Y-85176500D01*
G75*
G02*
X121410500Y-85302000I-125500J0D01*
G01*
X121159500Y-85302000D01*
G75*
G02*
X121034000Y-85176500I0J125500D01*
G01*
X121034000Y-83850500D01*
G75*
G02*
X121159500Y-83725000I125500J0D01*
G01*
G37*
G36*
G01*
X121809500Y-83725000D02*
X122060500Y-83725000D01*
G75*
G02*
X122186000Y-83850500I0J-125500D01*
G01*
X122186000Y-85176500D01*
G75*
G02*
X122060500Y-85302000I-125500J0D01*
G01*
X121809500Y-85302000D01*
G75*
G02*
X121684000Y-85176500I0J125500D01*
G01*
X121684000Y-83850500D01*
G75*
G02*
X121809500Y-83725000I125500J0D01*
G01*
G37*
G36*
G01*
X122459500Y-83725000D02*
X122710500Y-83725000D01*
G75*
G02*
X122836000Y-83850500I0J-125500D01*
G01*
X122836000Y-85176500D01*
G75*
G02*
X122710500Y-85302000I-125500J0D01*
G01*
X122459500Y-85302000D01*
G75*
G02*
X122334000Y-85176500I0J125500D01*
G01*
X122334000Y-83850500D01*
G75*
G02*
X122459500Y-83725000I125500J0D01*
G01*
G37*
G36*
G01*
X123109500Y-83725000D02*
X123360500Y-83725000D01*
G75*
G02*
X123486000Y-83850500I0J-125500D01*
G01*
X123486000Y-85176500D01*
G75*
G02*
X123360500Y-85302000I-125500J0D01*
G01*
X123109500Y-85302000D01*
G75*
G02*
X122984000Y-85176500I0J125500D01*
G01*
X122984000Y-83850500D01*
G75*
G02*
X123109500Y-83725000I125500J0D01*
G01*
G37*
G36*
G01*
X98979500Y-89450000D02*
X99230500Y-89450000D01*
G75*
G02*
X99356000Y-89575500I0J-125500D01*
G01*
X99356000Y-90901500D01*
G75*
G02*
X99230500Y-91027000I-125500J0D01*
G01*
X98979500Y-91027000D01*
G75*
G02*
X98854000Y-90901500I0J125500D01*
G01*
X98854000Y-89575500D01*
G75*
G02*
X98979500Y-89450000I125500J0D01*
G01*
G37*
G36*
G01*
X98329500Y-89450000D02*
X98580500Y-89450000D01*
G75*
G02*
X98706000Y-89575500I0J-125500D01*
G01*
X98706000Y-90901500D01*
G75*
G02*
X98580500Y-91027000I-125500J0D01*
G01*
X98329500Y-91027000D01*
G75*
G02*
X98204000Y-90901500I0J125500D01*
G01*
X98204000Y-89575500D01*
G75*
G02*
X98329500Y-89450000I125500J0D01*
G01*
G37*
G36*
G01*
X97679500Y-89450000D02*
X97930500Y-89450000D01*
G75*
G02*
X98056000Y-89575500I0J-125500D01*
G01*
X98056000Y-90901500D01*
G75*
G02*
X97930500Y-91027000I-125500J0D01*
G01*
X97679500Y-91027000D01*
G75*
G02*
X97554000Y-90901500I0J125500D01*
G01*
X97554000Y-89575500D01*
G75*
G02*
X97679500Y-89450000I125500J0D01*
G01*
G37*
G36*
G01*
X97029500Y-89450000D02*
X97280500Y-89450000D01*
G75*
G02*
X97406000Y-89575500I0J-125500D01*
G01*
X97406000Y-90901500D01*
G75*
G02*
X97280500Y-91027000I-125500J0D01*
G01*
X97029500Y-91027000D01*
G75*
G02*
X96904000Y-90901500I0J125500D01*
G01*
X96904000Y-89575500D01*
G75*
G02*
X97029500Y-89450000I125500J0D01*
G01*
G37*
G36*
G01*
X96379500Y-89450000D02*
X96630500Y-89450000D01*
G75*
G02*
X96756000Y-89575500I0J-125500D01*
G01*
X96756000Y-90901500D01*
G75*
G02*
X96630500Y-91027000I-125500J0D01*
G01*
X96379500Y-91027000D01*
G75*
G02*
X96254000Y-90901500I0J125500D01*
G01*
X96254000Y-89575500D01*
G75*
G02*
X96379500Y-89450000I125500J0D01*
G01*
G37*
G36*
G01*
X95729500Y-89450000D02*
X95980500Y-89450000D01*
G75*
G02*
X96106000Y-89575500I0J-125500D01*
G01*
X96106000Y-90901500D01*
G75*
G02*
X95980500Y-91027000I-125500J0D01*
G01*
X95729500Y-91027000D01*
G75*
G02*
X95604000Y-90901500I0J125500D01*
G01*
X95604000Y-89575500D01*
G75*
G02*
X95729500Y-89450000I125500J0D01*
G01*
G37*
G36*
G01*
X95079500Y-89450000D02*
X95330500Y-89450000D01*
G75*
G02*
X95456000Y-89575500I0J-125500D01*
G01*
X95456000Y-90901500D01*
G75*
G02*
X95330500Y-91027000I-125500J0D01*
G01*
X95079500Y-91027000D01*
G75*
G02*
X94954000Y-90901500I0J125500D01*
G01*
X94954000Y-89575500D01*
G75*
G02*
X95079500Y-89450000I125500J0D01*
G01*
G37*
G36*
G01*
X95079500Y-83725000D02*
X95330500Y-83725000D01*
G75*
G02*
X95456000Y-83850500I0J-125500D01*
G01*
X95456000Y-85176500D01*
G75*
G02*
X95330500Y-85302000I-125500J0D01*
G01*
X95079500Y-85302000D01*
G75*
G02*
X94954000Y-85176500I0J125500D01*
G01*
X94954000Y-83850500D01*
G75*
G02*
X95079500Y-83725000I125500J0D01*
G01*
G37*
G36*
G01*
X95729500Y-83725000D02*
X95980500Y-83725000D01*
G75*
G02*
X96106000Y-83850500I0J-125500D01*
G01*
X96106000Y-85176500D01*
G75*
G02*
X95980500Y-85302000I-125500J0D01*
G01*
X95729500Y-85302000D01*
G75*
G02*
X95604000Y-85176500I0J125500D01*
G01*
X95604000Y-83850500D01*
G75*
G02*
X95729500Y-83725000I125500J0D01*
G01*
G37*
G36*
G01*
X96379500Y-83725000D02*
X96630500Y-83725000D01*
G75*
G02*
X96756000Y-83850500I0J-125500D01*
G01*
X96756000Y-85176500D01*
G75*
G02*
X96630500Y-85302000I-125500J0D01*
G01*
X96379500Y-85302000D01*
G75*
G02*
X96254000Y-85176500I0J125500D01*
G01*
X96254000Y-83850500D01*
G75*
G02*
X96379500Y-83725000I125500J0D01*
G01*
G37*
G36*
G01*
X97029500Y-83725000D02*
X97280500Y-83725000D01*
G75*
G02*
X97406000Y-83850500I0J-125500D01*
G01*
X97406000Y-85176500D01*
G75*
G02*
X97280500Y-85302000I-125500J0D01*
G01*
X97029500Y-85302000D01*
G75*
G02*
X96904000Y-85176500I0J125500D01*
G01*
X96904000Y-83850500D01*
G75*
G02*
X97029500Y-83725000I125500J0D01*
G01*
G37*
G36*
G01*
X97679500Y-83725000D02*
X97930500Y-83725000D01*
G75*
G02*
X98056000Y-83850500I0J-125500D01*
G01*
X98056000Y-85176500D01*
G75*
G02*
X97930500Y-85302000I-125500J0D01*
G01*
X97679500Y-85302000D01*
G75*
G02*
X97554000Y-85176500I0J125500D01*
G01*
X97554000Y-83850500D01*
G75*
G02*
X97679500Y-83725000I125500J0D01*
G01*
G37*
G36*
G01*
X98329500Y-83725000D02*
X98580500Y-83725000D01*
G75*
G02*
X98706000Y-83850500I0J-125500D01*
G01*
X98706000Y-85176500D01*
G75*
G02*
X98580500Y-85302000I-125500J0D01*
G01*
X98329500Y-85302000D01*
G75*
G02*
X98204000Y-85176500I0J125500D01*
G01*
X98204000Y-83850500D01*
G75*
G02*
X98329500Y-83725000I125500J0D01*
G01*
G37*
G36*
G01*
X98979500Y-83725000D02*
X99230500Y-83725000D01*
G75*
G02*
X99356000Y-83850500I0J-125500D01*
G01*
X99356000Y-85176500D01*
G75*
G02*
X99230500Y-85302000I-125500J0D01*
G01*
X98979500Y-85302000D01*
G75*
G02*
X98854000Y-85176500I0J125500D01*
G01*
X98854000Y-83850500D01*
G75*
G02*
X98979500Y-83725000I125500J0D01*
G01*
G37*
G36*
G01*
X121532000Y-111044500D02*
X121532000Y-110443500D01*
G75*
G02*
X121757500Y-110218000I225500J0D01*
G01*
X122208500Y-110218000D01*
G75*
G02*
X122434000Y-110443500I0J-225500D01*
G01*
X122434000Y-111044500D01*
G75*
G02*
X122208500Y-111270000I-225500J0D01*
G01*
X121757500Y-111270000D01*
G75*
G02*
X121532000Y-111044500I0J225500D01*
G01*
G37*
G36*
G01*
X119882000Y-111044500D02*
X119882000Y-110443500D01*
G75*
G02*
X120107500Y-110218000I225500J0D01*
G01*
X120558500Y-110218000D01*
G75*
G02*
X120784000Y-110443500I0J-225500D01*
G01*
X120784000Y-111044500D01*
G75*
G02*
X120558500Y-111270000I-225500J0D01*
G01*
X120107500Y-111270000D01*
G75*
G02*
X119882000Y-111044500I0J225500D01*
G01*
G37*
G36*
G01*
X116466000Y-110443500D02*
X116466000Y-111044500D01*
G75*
G02*
X116240500Y-111270000I-225500J0D01*
G01*
X115789500Y-111270000D01*
G75*
G02*
X115564000Y-111044500I0J225500D01*
G01*
X115564000Y-110443500D01*
G75*
G02*
X115789500Y-110218000I225500J0D01*
G01*
X116240500Y-110218000D01*
G75*
G02*
X116466000Y-110443500I0J-225500D01*
G01*
G37*
G36*
G01*
X118116000Y-110443500D02*
X118116000Y-111044500D01*
G75*
G02*
X117890500Y-111270000I-225500J0D01*
G01*
X117439500Y-111270000D01*
G75*
G02*
X117214000Y-111044500I0J225500D01*
G01*
X117214000Y-110443500D01*
G75*
G02*
X117439500Y-110218000I225500J0D01*
G01*
X117890500Y-110218000D01*
G75*
G02*
X118116000Y-110443500I0J-225500D01*
G01*
G37*
G36*
G01*
X116466000Y-107395500D02*
X116466000Y-107996500D01*
G75*
G02*
X116240500Y-108222000I-225500J0D01*
G01*
X115789500Y-108222000D01*
G75*
G02*
X115564000Y-107996500I0J225500D01*
G01*
X115564000Y-107395500D01*
G75*
G02*
X115789500Y-107170000I225500J0D01*
G01*
X116240500Y-107170000D01*
G75*
G02*
X116466000Y-107395500I0J-225500D01*
G01*
G37*
G36*
G01*
X118116000Y-107395500D02*
X118116000Y-107996500D01*
G75*
G02*
X117890500Y-108222000I-225500J0D01*
G01*
X117439500Y-108222000D01*
G75*
G02*
X117214000Y-107996500I0J225500D01*
G01*
X117214000Y-107395500D01*
G75*
G02*
X117439500Y-107170000I225500J0D01*
G01*
X117890500Y-107170000D01*
G75*
G02*
X118116000Y-107395500I0J-225500D01*
G01*
G37*
G36*
G01*
X116466000Y-113999500D02*
X116466000Y-114600500D01*
G75*
G02*
X116240500Y-114826000I-225500J0D01*
G01*
X115789500Y-114826000D01*
G75*
G02*
X115564000Y-114600500I0J225500D01*
G01*
X115564000Y-113999500D01*
G75*
G02*
X115789500Y-113774000I225500J0D01*
G01*
X116240500Y-113774000D01*
G75*
G02*
X116466000Y-113999500I0J-225500D01*
G01*
G37*
G36*
G01*
X118116000Y-113999500D02*
X118116000Y-114600500D01*
G75*
G02*
X117890500Y-114826000I-225500J0D01*
G01*
X117439500Y-114826000D01*
G75*
G02*
X117214000Y-114600500I0J225500D01*
G01*
X117214000Y-113999500D01*
G75*
G02*
X117439500Y-113774000I225500J0D01*
G01*
X117890500Y-113774000D01*
G75*
G02*
X118116000Y-113999500I0J-225500D01*
G01*
G37*
G36*
G01*
X108324000Y-98090500D02*
X108324000Y-97489500D01*
G75*
G02*
X108549500Y-97264000I225500J0D01*
G01*
X109000500Y-97264000D01*
G75*
G02*
X109226000Y-97489500I0J-225500D01*
G01*
X109226000Y-98090500D01*
G75*
G02*
X109000500Y-98316000I-225500J0D01*
G01*
X108549500Y-98316000D01*
G75*
G02*
X108324000Y-98090500I0J225500D01*
G01*
G37*
G36*
G01*
X106674000Y-98090500D02*
X106674000Y-97489500D01*
G75*
G02*
X106899500Y-97264000I225500J0D01*
G01*
X107350500Y-97264000D01*
G75*
G02*
X107576000Y-97489500I0J-225500D01*
G01*
X107576000Y-98090500D01*
G75*
G02*
X107350500Y-98316000I-225500J0D01*
G01*
X106899500Y-98316000D01*
G75*
G02*
X106674000Y-98090500I0J225500D01*
G01*
G37*
G36*
G01*
X103258000Y-94441500D02*
X103258000Y-95042500D01*
G75*
G02*
X103032500Y-95268000I-225500J0D01*
G01*
X102581500Y-95268000D01*
G75*
G02*
X102356000Y-95042500I0J225500D01*
G01*
X102356000Y-94441500D01*
G75*
G02*
X102581500Y-94216000I225500J0D01*
G01*
X103032500Y-94216000D01*
G75*
G02*
X103258000Y-94441500I0J-225500D01*
G01*
G37*
G36*
G01*
X104908000Y-94441500D02*
X104908000Y-95042500D01*
G75*
G02*
X104682500Y-95268000I-225500J0D01*
G01*
X104231500Y-95268000D01*
G75*
G02*
X104006000Y-95042500I0J225500D01*
G01*
X104006000Y-94441500D01*
G75*
G02*
X104231500Y-94216000I225500J0D01*
G01*
X104682500Y-94216000D01*
G75*
G02*
X104908000Y-94441500I0J-225500D01*
G01*
G37*
G36*
G01*
X112388000Y-101138500D02*
X112388000Y-100537500D01*
G75*
G02*
X112613500Y-100312000I225500J0D01*
G01*
X113064500Y-100312000D01*
G75*
G02*
X113290000Y-100537500I0J-225500D01*
G01*
X113290000Y-101138500D01*
G75*
G02*
X113064500Y-101364000I-225500J0D01*
G01*
X112613500Y-101364000D01*
G75*
G02*
X112388000Y-101138500I0J225500D01*
G01*
G37*
G36*
G01*
X110738000Y-101138500D02*
X110738000Y-100537500D01*
G75*
G02*
X110963500Y-100312000I225500J0D01*
G01*
X111414500Y-100312000D01*
G75*
G02*
X111640000Y-100537500I0J-225500D01*
G01*
X111640000Y-101138500D01*
G75*
G02*
X111414500Y-101364000I-225500J0D01*
G01*
X110963500Y-101364000D01*
G75*
G02*
X110738000Y-101138500I0J225500D01*
G01*
G37*
G36*
G01*
X112388000Y-95042500D02*
X112388000Y-94441500D01*
G75*
G02*
X112613500Y-94216000I225500J0D01*
G01*
X113064500Y-94216000D01*
G75*
G02*
X113290000Y-94441500I0J-225500D01*
G01*
X113290000Y-95042500D01*
G75*
G02*
X113064500Y-95268000I-225500J0D01*
G01*
X112613500Y-95268000D01*
G75*
G02*
X112388000Y-95042500I0J225500D01*
G01*
G37*
G36*
G01*
X110738000Y-95042500D02*
X110738000Y-94441500D01*
G75*
G02*
X110963500Y-94216000I225500J0D01*
G01*
X111414500Y-94216000D01*
G75*
G02*
X111640000Y-94441500I0J-225500D01*
G01*
X111640000Y-95042500D01*
G75*
G02*
X111414500Y-95268000I-225500J0D01*
G01*
X110963500Y-95268000D01*
G75*
G02*
X110738000Y-95042500I0J225500D01*
G01*
G37*
G36*
G01*
X108324000Y-95042500D02*
X108324000Y-94441500D01*
G75*
G02*
X108549500Y-94216000I225500J0D01*
G01*
X109000500Y-94216000D01*
G75*
G02*
X109226000Y-94441500I0J-225500D01*
G01*
X109226000Y-95042500D01*
G75*
G02*
X109000500Y-95268000I-225500J0D01*
G01*
X108549500Y-95268000D01*
G75*
G02*
X108324000Y-95042500I0J225500D01*
G01*
G37*
G36*
G01*
X106674000Y-95042500D02*
X106674000Y-94441500D01*
G75*
G02*
X106899500Y-94216000I225500J0D01*
G01*
X107350500Y-94216000D01*
G75*
G02*
X107576000Y-94441500I0J-225500D01*
G01*
X107576000Y-95042500D01*
G75*
G02*
X107350500Y-95268000I-225500J0D01*
G01*
X106899500Y-95268000D01*
G75*
G02*
X106674000Y-95042500I0J225500D01*
G01*
G37*
G36*
G01*
X139820000Y-81326500D02*
X139820000Y-80725500D01*
G75*
G02*
X140045500Y-80500000I225500J0D01*
G01*
X140496500Y-80500000D01*
G75*
G02*
X140722000Y-80725500I0J-225500D01*
G01*
X140722000Y-81326500D01*
G75*
G02*
X140496500Y-81552000I-225500J0D01*
G01*
X140045500Y-81552000D01*
G75*
G02*
X139820000Y-81326500I0J225500D01*
G01*
G37*
G36*
G01*
X138170000Y-81326500D02*
X138170000Y-80725500D01*
G75*
G02*
X138395500Y-80500000I225500J0D01*
G01*
X138846500Y-80500000D01*
G75*
G02*
X139072000Y-80725500I0J-225500D01*
G01*
X139072000Y-81326500D01*
G75*
G02*
X138846500Y-81552000I-225500J0D01*
G01*
X138395500Y-81552000D01*
G75*
G02*
X138170000Y-81326500I0J225500D01*
G01*
G37*
G36*
G01*
X121546000Y-94441500D02*
X121546000Y-95042500D01*
G75*
G02*
X121320500Y-95268000I-225500J0D01*
G01*
X120869500Y-95268000D01*
G75*
G02*
X120644000Y-95042500I0J225500D01*
G01*
X120644000Y-94441500D01*
G75*
G02*
X120869500Y-94216000I225500J0D01*
G01*
X121320500Y-94216000D01*
G75*
G02*
X121546000Y-94441500I0J-225500D01*
G01*
G37*
G36*
G01*
X123196000Y-94441500D02*
X123196000Y-95042500D01*
G75*
G02*
X122970500Y-95268000I-225500J0D01*
G01*
X122519500Y-95268000D01*
G75*
G02*
X122294000Y-95042500I0J225500D01*
G01*
X122294000Y-94441500D01*
G75*
G02*
X122519500Y-94216000I225500J0D01*
G01*
X122970500Y-94216000D01*
G75*
G02*
X123196000Y-94441500I0J-225500D01*
G01*
G37*
G36*
G01*
X118103000Y-79802500D02*
X118103000Y-79201500D01*
G75*
G02*
X118328500Y-78976000I225500J0D01*
G01*
X118779500Y-78976000D01*
G75*
G02*
X119005000Y-79201500I0J-225500D01*
G01*
X119005000Y-79802500D01*
G75*
G02*
X118779500Y-80028000I-225500J0D01*
G01*
X118328500Y-80028000D01*
G75*
G02*
X118103000Y-79802500I0J225500D01*
G01*
G37*
G36*
G01*
X116453000Y-79802500D02*
X116453000Y-79201500D01*
G75*
G02*
X116678500Y-78976000I225500J0D01*
G01*
X117129500Y-78976000D01*
G75*
G02*
X117355000Y-79201500I0J-225500D01*
G01*
X117355000Y-79802500D01*
G75*
G02*
X117129500Y-80028000I-225500J0D01*
G01*
X116678500Y-80028000D01*
G75*
G02*
X116453000Y-79802500I0J225500D01*
G01*
G37*
G36*
G01*
X139072000Y-74629500D02*
X139072000Y-75230500D01*
G75*
G02*
X138846500Y-75456000I-225500J0D01*
G01*
X138395500Y-75456000D01*
G75*
G02*
X138170000Y-75230500I0J225500D01*
G01*
X138170000Y-74629500D01*
G75*
G02*
X138395500Y-74404000I225500J0D01*
G01*
X138846500Y-74404000D01*
G75*
G02*
X139072000Y-74629500I0J-225500D01*
G01*
G37*
G36*
G01*
X140722000Y-74629500D02*
X140722000Y-75230500D01*
G75*
G02*
X140496500Y-75456000I-225500J0D01*
G01*
X140045500Y-75456000D01*
G75*
G02*
X139820000Y-75230500I0J225500D01*
G01*
X139820000Y-74629500D01*
G75*
G02*
X140045500Y-74404000I225500J0D01*
G01*
X140496500Y-74404000D01*
G75*
G02*
X140722000Y-74629500I0J-225500D01*
G01*
G37*
G36*
G01*
X139072000Y-71581500D02*
X139072000Y-72182500D01*
G75*
G02*
X138846500Y-72408000I-225500J0D01*
G01*
X138395500Y-72408000D01*
G75*
G02*
X138170000Y-72182500I0J225500D01*
G01*
X138170000Y-71581500D01*
G75*
G02*
X138395500Y-71356000I225500J0D01*
G01*
X138846500Y-71356000D01*
G75*
G02*
X139072000Y-71581500I0J-225500D01*
G01*
G37*
G36*
G01*
X140722000Y-71581500D02*
X140722000Y-72182500D01*
G75*
G02*
X140496500Y-72408000I-225500J0D01*
G01*
X140045500Y-72408000D01*
G75*
G02*
X139820000Y-72182500I0J225500D01*
G01*
X139820000Y-71581500D01*
G75*
G02*
X140045500Y-71356000I225500J0D01*
G01*
X140496500Y-71356000D01*
G75*
G02*
X140722000Y-71581500I0J-225500D01*
G01*
G37*
G36*
G01*
X139072000Y-77677500D02*
X139072000Y-78278500D01*
G75*
G02*
X138846500Y-78504000I-225500J0D01*
G01*
X138395500Y-78504000D01*
G75*
G02*
X138170000Y-78278500I0J225500D01*
G01*
X138170000Y-77677500D01*
G75*
G02*
X138395500Y-77452000I225500J0D01*
G01*
X138846500Y-77452000D01*
G75*
G02*
X139072000Y-77677500I0J-225500D01*
G01*
G37*
G36*
G01*
X140722000Y-77677500D02*
X140722000Y-78278500D01*
G75*
G02*
X140496500Y-78504000I-225500J0D01*
G01*
X140045500Y-78504000D01*
G75*
G02*
X139820000Y-78278500I0J225500D01*
G01*
X139820000Y-77677500D01*
G75*
G02*
X140045500Y-77452000I225500J0D01*
G01*
X140496500Y-77452000D01*
G75*
G02*
X140722000Y-77677500I0J-225500D01*
G01*
G37*
G36*
G01*
X121546000Y-103585500D02*
X121546000Y-104186500D01*
G75*
G02*
X121320500Y-104412000I-225500J0D01*
G01*
X120869500Y-104412000D01*
G75*
G02*
X120644000Y-104186500I0J225500D01*
G01*
X120644000Y-103585500D01*
G75*
G02*
X120869500Y-103360000I225500J0D01*
G01*
X121320500Y-103360000D01*
G75*
G02*
X121546000Y-103585500I0J-225500D01*
G01*
G37*
G36*
G01*
X123196000Y-103585500D02*
X123196000Y-104186500D01*
G75*
G02*
X122970500Y-104412000I-225500J0D01*
G01*
X122519500Y-104412000D01*
G75*
G02*
X122294000Y-104186500I0J225500D01*
G01*
X122294000Y-103585500D01*
G75*
G02*
X122519500Y-103360000I225500J0D01*
G01*
X122970500Y-103360000D01*
G75*
G02*
X123196000Y-103585500I0J-225500D01*
G01*
G37*
G36*
G01*
X121546000Y-100537500D02*
X121546000Y-101138500D01*
G75*
G02*
X121320500Y-101364000I-225500J0D01*
G01*
X120869500Y-101364000D01*
G75*
G02*
X120644000Y-101138500I0J225500D01*
G01*
X120644000Y-100537500D01*
G75*
G02*
X120869500Y-100312000I225500J0D01*
G01*
X121320500Y-100312000D01*
G75*
G02*
X121546000Y-100537500I0J-225500D01*
G01*
G37*
G36*
G01*
X123196000Y-100537500D02*
X123196000Y-101138500D01*
G75*
G02*
X122970500Y-101364000I-225500J0D01*
G01*
X122519500Y-101364000D01*
G75*
G02*
X122294000Y-101138500I0J225500D01*
G01*
X122294000Y-100537500D01*
G75*
G02*
X122519500Y-100312000I225500J0D01*
G01*
X122970500Y-100312000D01*
G75*
G02*
X123196000Y-100537500I0J-225500D01*
G01*
G37*
G36*
G01*
X122294000Y-98090500D02*
X122294000Y-97489500D01*
G75*
G02*
X122519500Y-97264000I225500J0D01*
G01*
X122970500Y-97264000D01*
G75*
G02*
X123196000Y-97489500I0J-225500D01*
G01*
X123196000Y-98090500D01*
G75*
G02*
X122970500Y-98316000I-225500J0D01*
G01*
X122519500Y-98316000D01*
G75*
G02*
X122294000Y-98090500I0J225500D01*
G01*
G37*
G36*
G01*
X120644000Y-98090500D02*
X120644000Y-97489500D01*
G75*
G02*
X120869500Y-97264000I225500J0D01*
G01*
X121320500Y-97264000D01*
G75*
G02*
X121546000Y-97489500I0J-225500D01*
G01*
X121546000Y-98090500D01*
G75*
G02*
X121320500Y-98316000I-225500J0D01*
G01*
X120869500Y-98316000D01*
G75*
G02*
X120644000Y-98090500I0J225500D01*
G01*
G37*
G36*
G01*
X117355000Y-74629500D02*
X117355000Y-75230500D01*
G75*
G02*
X117129500Y-75456000I-225500J0D01*
G01*
X116678500Y-75456000D01*
G75*
G02*
X116453000Y-75230500I0J225500D01*
G01*
X116453000Y-74629500D01*
G75*
G02*
X116678500Y-74404000I225500J0D01*
G01*
X117129500Y-74404000D01*
G75*
G02*
X117355000Y-74629500I0J-225500D01*
G01*
G37*
G36*
G01*
X119005000Y-74629500D02*
X119005000Y-75230500D01*
G75*
G02*
X118779500Y-75456000I-225500J0D01*
G01*
X118328500Y-75456000D01*
G75*
G02*
X118103000Y-75230500I0J225500D01*
G01*
X118103000Y-74629500D01*
G75*
G02*
X118328500Y-74404000I225500J0D01*
G01*
X118779500Y-74404000D01*
G75*
G02*
X119005000Y-74629500I0J-225500D01*
G01*
G37*
G36*
G01*
X117355000Y-68025500D02*
X117355000Y-68626500D01*
G75*
G02*
X117129500Y-68852000I-225500J0D01*
G01*
X116678500Y-68852000D01*
G75*
G02*
X116453000Y-68626500I0J225500D01*
G01*
X116453000Y-68025500D01*
G75*
G02*
X116678500Y-67800000I225500J0D01*
G01*
X117129500Y-67800000D01*
G75*
G02*
X117355000Y-68025500I0J-225500D01*
G01*
G37*
G36*
G01*
X119005000Y-68025500D02*
X119005000Y-68626500D01*
G75*
G02*
X118779500Y-68852000I-225500J0D01*
G01*
X118328500Y-68852000D01*
G75*
G02*
X118103000Y-68626500I0J225500D01*
G01*
X118103000Y-68025500D01*
G75*
G02*
X118328500Y-67800000I225500J0D01*
G01*
X118779500Y-67800000D01*
G75*
G02*
X119005000Y-68025500I0J-225500D01*
G01*
G37*
G36*
G01*
X117355000Y-71327500D02*
X117355000Y-71928500D01*
G75*
G02*
X117129500Y-72154000I-225500J0D01*
G01*
X116678500Y-72154000D01*
G75*
G02*
X116453000Y-71928500I0J225500D01*
G01*
X116453000Y-71327500D01*
G75*
G02*
X116678500Y-71102000I225500J0D01*
G01*
X117129500Y-71102000D01*
G75*
G02*
X117355000Y-71327500I0J-225500D01*
G01*
G37*
G36*
G01*
X119005000Y-71327500D02*
X119005000Y-71928500D01*
G75*
G02*
X118779500Y-72154000I-225500J0D01*
G01*
X118328500Y-72154000D01*
G75*
G02*
X118103000Y-71928500I0J225500D01*
G01*
X118103000Y-71327500D01*
G75*
G02*
X118328500Y-71102000I225500J0D01*
G01*
X118779500Y-71102000D01*
G75*
G02*
X119005000Y-71327500I0J-225500D01*
G01*
G37*
G36*
G01*
X133738000Y-106633500D02*
X133738000Y-107234500D01*
G75*
G02*
X133512500Y-107460000I-225500J0D01*
G01*
X133061500Y-107460000D01*
G75*
G02*
X132836000Y-107234500I0J225500D01*
G01*
X132836000Y-106633500D01*
G75*
G02*
X133061500Y-106408000I225500J0D01*
G01*
X133512500Y-106408000D01*
G75*
G02*
X133738000Y-106633500I0J-225500D01*
G01*
G37*
G36*
G01*
X135388000Y-106633500D02*
X135388000Y-107234500D01*
G75*
G02*
X135162500Y-107460000I-225500J0D01*
G01*
X134711500Y-107460000D01*
G75*
G02*
X134486000Y-107234500I0J225500D01*
G01*
X134486000Y-106633500D01*
G75*
G02*
X134711500Y-106408000I225500J0D01*
G01*
X135162500Y-106408000D01*
G75*
G02*
X135388000Y-106633500I0J-225500D01*
G01*
G37*
G36*
G01*
X134486000Y-68626500D02*
X134486000Y-68025500D01*
G75*
G02*
X134711500Y-67800000I225500J0D01*
G01*
X135162500Y-67800000D01*
G75*
G02*
X135388000Y-68025500I0J-225500D01*
G01*
X135388000Y-68626500D01*
G75*
G02*
X135162500Y-68852000I-225500J0D01*
G01*
X134711500Y-68852000D01*
G75*
G02*
X134486000Y-68626500I0J225500D01*
G01*
G37*
G36*
G01*
X132836000Y-68626500D02*
X132836000Y-68025500D01*
G75*
G02*
X133061500Y-67800000I225500J0D01*
G01*
X133512500Y-67800000D01*
G75*
G02*
X133738000Y-68025500I0J-225500D01*
G01*
X133738000Y-68626500D01*
G75*
G02*
X133512500Y-68852000I-225500J0D01*
G01*
X133061500Y-68852000D01*
G75*
G02*
X132836000Y-68626500I0J225500D01*
G01*
G37*
G36*
G01*
X111372000Y-68626500D02*
X111372000Y-68025500D01*
G75*
G02*
X111597500Y-67800000I225500J0D01*
G01*
X112048500Y-67800000D01*
G75*
G02*
X112274000Y-68025500I0J-225500D01*
G01*
X112274000Y-68626500D01*
G75*
G02*
X112048500Y-68852000I-225500J0D01*
G01*
X111597500Y-68852000D01*
G75*
G02*
X111372000Y-68626500I0J225500D01*
G01*
G37*
G36*
G01*
X109722000Y-68626500D02*
X109722000Y-68025500D01*
G75*
G02*
X109947500Y-67800000I225500J0D01*
G01*
X110398500Y-67800000D01*
G75*
G02*
X110624000Y-68025500I0J-225500D01*
G01*
X110624000Y-68626500D01*
G75*
G02*
X110398500Y-68852000I-225500J0D01*
G01*
X109947500Y-68852000D01*
G75*
G02*
X109722000Y-68626500I0J225500D01*
G01*
G37*
G36*
G01*
X134486000Y-95042500D02*
X134486000Y-94441500D01*
G75*
G02*
X134711500Y-94216000I225500J0D01*
G01*
X135162500Y-94216000D01*
G75*
G02*
X135388000Y-94441500I0J-225500D01*
G01*
X135388000Y-95042500D01*
G75*
G02*
X135162500Y-95268000I-225500J0D01*
G01*
X134711500Y-95268000D01*
G75*
G02*
X134486000Y-95042500I0J225500D01*
G01*
G37*
G36*
G01*
X132836000Y-95042500D02*
X132836000Y-94441500D01*
G75*
G02*
X133061500Y-94216000I225500J0D01*
G01*
X133512500Y-94216000D01*
G75*
G02*
X133738000Y-94441500I0J-225500D01*
G01*
X133738000Y-95042500D01*
G75*
G02*
X133512500Y-95268000I-225500J0D01*
G01*
X133061500Y-95268000D01*
G75*
G02*
X132836000Y-95042500I0J225500D01*
G01*
G37*
G36*
G01*
X133738000Y-80725500D02*
X133738000Y-81326500D01*
G75*
G02*
X133512500Y-81552000I-225500J0D01*
G01*
X133061500Y-81552000D01*
G75*
G02*
X132836000Y-81326500I0J225500D01*
G01*
X132836000Y-80725500D01*
G75*
G02*
X133061500Y-80500000I225500J0D01*
G01*
X133512500Y-80500000D01*
G75*
G02*
X133738000Y-80725500I0J-225500D01*
G01*
G37*
G36*
G01*
X135388000Y-80725500D02*
X135388000Y-81326500D01*
G75*
G02*
X135162500Y-81552000I-225500J0D01*
G01*
X134711500Y-81552000D01*
G75*
G02*
X134486000Y-81326500I0J225500D01*
G01*
X134486000Y-80725500D01*
G75*
G02*
X134711500Y-80500000I225500J0D01*
G01*
X135162500Y-80500000D01*
G75*
G02*
X135388000Y-80725500I0J-225500D01*
G01*
G37*
G36*
G01*
X110624000Y-80725500D02*
X110624000Y-81326500D01*
G75*
G02*
X110398500Y-81552000I-225500J0D01*
G01*
X109947500Y-81552000D01*
G75*
G02*
X109722000Y-81326500I0J225500D01*
G01*
X109722000Y-80725500D01*
G75*
G02*
X109947500Y-80500000I225500J0D01*
G01*
X110398500Y-80500000D01*
G75*
G02*
X110624000Y-80725500I0J-225500D01*
G01*
G37*
G36*
G01*
X112274000Y-80725500D02*
X112274000Y-81326500D01*
G75*
G02*
X112048500Y-81552000I-225500J0D01*
G01*
X111597500Y-81552000D01*
G75*
G02*
X111372000Y-81326500I0J225500D01*
G01*
X111372000Y-80725500D01*
G75*
G02*
X111597500Y-80500000I225500J0D01*
G01*
X112048500Y-80500000D01*
G75*
G02*
X112274000Y-80725500I0J-225500D01*
G01*
G37*
G36*
G01*
X134486000Y-101138500D02*
X134486000Y-100537500D01*
G75*
G02*
X134711500Y-100312000I225500J0D01*
G01*
X135162500Y-100312000D01*
G75*
G02*
X135388000Y-100537500I0J-225500D01*
G01*
X135388000Y-101138500D01*
G75*
G02*
X135162500Y-101364000I-225500J0D01*
G01*
X134711500Y-101364000D01*
G75*
G02*
X134486000Y-101138500I0J225500D01*
G01*
G37*
G36*
G01*
X132836000Y-101138500D02*
X132836000Y-100537500D01*
G75*
G02*
X133061500Y-100312000I225500J0D01*
G01*
X133512500Y-100312000D01*
G75*
G02*
X133738000Y-100537500I0J-225500D01*
G01*
X133738000Y-101138500D01*
G75*
G02*
X133512500Y-101364000I-225500J0D01*
G01*
X133061500Y-101364000D01*
G75*
G02*
X132836000Y-101138500I0J225500D01*
G01*
G37*
G36*
G01*
X133738000Y-74629500D02*
X133738000Y-75230500D01*
G75*
G02*
X133512500Y-75456000I-225500J0D01*
G01*
X133061500Y-75456000D01*
G75*
G02*
X132836000Y-75230500I0J225500D01*
G01*
X132836000Y-74629500D01*
G75*
G02*
X133061500Y-74404000I225500J0D01*
G01*
X133512500Y-74404000D01*
G75*
G02*
X133738000Y-74629500I0J-225500D01*
G01*
G37*
G36*
G01*
X135388000Y-74629500D02*
X135388000Y-75230500D01*
G75*
G02*
X135162500Y-75456000I-225500J0D01*
G01*
X134711500Y-75456000D01*
G75*
G02*
X134486000Y-75230500I0J225500D01*
G01*
X134486000Y-74629500D01*
G75*
G02*
X134711500Y-74404000I225500J0D01*
G01*
X135162500Y-74404000D01*
G75*
G02*
X135388000Y-74629500I0J-225500D01*
G01*
G37*
G36*
G01*
X110624000Y-74629500D02*
X110624000Y-75230500D01*
G75*
G02*
X110398500Y-75456000I-225500J0D01*
G01*
X109947500Y-75456000D01*
G75*
G02*
X109722000Y-75230500I0J225500D01*
G01*
X109722000Y-74629500D01*
G75*
G02*
X109947500Y-74404000I225500J0D01*
G01*
X110398500Y-74404000D01*
G75*
G02*
X110624000Y-74629500I0J-225500D01*
G01*
G37*
G36*
G01*
X112274000Y-74629500D02*
X112274000Y-75230500D01*
G75*
G02*
X112048500Y-75456000I-225500J0D01*
G01*
X111597500Y-75456000D01*
G75*
G02*
X111372000Y-75230500I0J225500D01*
G01*
X111372000Y-74629500D01*
G75*
G02*
X111597500Y-74404000I225500J0D01*
G01*
X112048500Y-74404000D01*
G75*
G02*
X112274000Y-74629500I0J-225500D01*
G01*
G37*
G36*
G01*
X134486000Y-104186500D02*
X134486000Y-103585500D01*
G75*
G02*
X134711500Y-103360000I225500J0D01*
G01*
X135162500Y-103360000D01*
G75*
G02*
X135388000Y-103585500I0J-225500D01*
G01*
X135388000Y-104186500D01*
G75*
G02*
X135162500Y-104412000I-225500J0D01*
G01*
X134711500Y-104412000D01*
G75*
G02*
X134486000Y-104186500I0J225500D01*
G01*
G37*
G36*
G01*
X132836000Y-104186500D02*
X132836000Y-103585500D01*
G75*
G02*
X133061500Y-103360000I225500J0D01*
G01*
X133512500Y-103360000D01*
G75*
G02*
X133738000Y-103585500I0J-225500D01*
G01*
X133738000Y-104186500D01*
G75*
G02*
X133512500Y-104412000I-225500J0D01*
G01*
X133061500Y-104412000D01*
G75*
G02*
X132836000Y-104186500I0J225500D01*
G01*
G37*
G36*
G01*
X133738000Y-71327500D02*
X133738000Y-71928500D01*
G75*
G02*
X133512500Y-72154000I-225500J0D01*
G01*
X133061500Y-72154000D01*
G75*
G02*
X132836000Y-71928500I0J225500D01*
G01*
X132836000Y-71327500D01*
G75*
G02*
X133061500Y-71102000I225500J0D01*
G01*
X133512500Y-71102000D01*
G75*
G02*
X133738000Y-71327500I0J-225500D01*
G01*
G37*
G36*
G01*
X135388000Y-71327500D02*
X135388000Y-71928500D01*
G75*
G02*
X135162500Y-72154000I-225500J0D01*
G01*
X134711500Y-72154000D01*
G75*
G02*
X134486000Y-71928500I0J225500D01*
G01*
X134486000Y-71327500D01*
G75*
G02*
X134711500Y-71102000I225500J0D01*
G01*
X135162500Y-71102000D01*
G75*
G02*
X135388000Y-71327500I0J-225500D01*
G01*
G37*
G36*
G01*
X110624000Y-71327500D02*
X110624000Y-71928500D01*
G75*
G02*
X110398500Y-72154000I-225500J0D01*
G01*
X109947500Y-72154000D01*
G75*
G02*
X109722000Y-71928500I0J225500D01*
G01*
X109722000Y-71327500D01*
G75*
G02*
X109947500Y-71102000I225500J0D01*
G01*
X110398500Y-71102000D01*
G75*
G02*
X110624000Y-71327500I0J-225500D01*
G01*
G37*
G36*
G01*
X112274000Y-71327500D02*
X112274000Y-71928500D01*
G75*
G02*
X112048500Y-72154000I-225500J0D01*
G01*
X111597500Y-72154000D01*
G75*
G02*
X111372000Y-71928500I0J225500D01*
G01*
X111372000Y-71327500D01*
G75*
G02*
X111597500Y-71102000I225500J0D01*
G01*
X112048500Y-71102000D01*
G75*
G02*
X112274000Y-71327500I0J-225500D01*
G01*
G37*
G36*
G01*
X127134000Y-103585500D02*
X127134000Y-104186500D01*
G75*
G02*
X126908500Y-104412000I-225500J0D01*
G01*
X126457500Y-104412000D01*
G75*
G02*
X126232000Y-104186500I0J225500D01*
G01*
X126232000Y-103585500D01*
G75*
G02*
X126457500Y-103360000I225500J0D01*
G01*
X126908500Y-103360000D01*
G75*
G02*
X127134000Y-103585500I0J-225500D01*
G01*
G37*
G36*
G01*
X128784000Y-103585500D02*
X128784000Y-104186500D01*
G75*
G02*
X128558500Y-104412000I-225500J0D01*
G01*
X128107500Y-104412000D01*
G75*
G02*
X127882000Y-104186500I0J225500D01*
G01*
X127882000Y-103585500D01*
G75*
G02*
X128107500Y-103360000I225500J0D01*
G01*
X128558500Y-103360000D01*
G75*
G02*
X128784000Y-103585500I0J-225500D01*
G01*
G37*
G36*
G01*
X128277000Y-71327500D02*
X128277000Y-71928500D01*
G75*
G02*
X128051500Y-72154000I-225500J0D01*
G01*
X127600500Y-72154000D01*
G75*
G02*
X127375000Y-71928500I0J225500D01*
G01*
X127375000Y-71327500D01*
G75*
G02*
X127600500Y-71102000I225500J0D01*
G01*
X128051500Y-71102000D01*
G75*
G02*
X128277000Y-71327500I0J-225500D01*
G01*
G37*
G36*
G01*
X129927000Y-71327500D02*
X129927000Y-71928500D01*
G75*
G02*
X129701500Y-72154000I-225500J0D01*
G01*
X129250500Y-72154000D01*
G75*
G02*
X129025000Y-71928500I0J225500D01*
G01*
X129025000Y-71327500D01*
G75*
G02*
X129250500Y-71102000I225500J0D01*
G01*
X129701500Y-71102000D01*
G75*
G02*
X129927000Y-71327500I0J-225500D01*
G01*
G37*
G36*
G01*
X105276000Y-71928500D02*
X105276000Y-71327500D01*
G75*
G02*
X105501500Y-71102000I225500J0D01*
G01*
X105952500Y-71102000D01*
G75*
G02*
X106178000Y-71327500I0J-225500D01*
G01*
X106178000Y-71928500D01*
G75*
G02*
X105952500Y-72154000I-225500J0D01*
G01*
X105501500Y-72154000D01*
G75*
G02*
X105276000Y-71928500I0J225500D01*
G01*
G37*
G36*
G01*
X103626000Y-71928500D02*
X103626000Y-71327500D01*
G75*
G02*
X103851500Y-71102000I225500J0D01*
G01*
X104302500Y-71102000D01*
G75*
G02*
X104528000Y-71327500I0J-225500D01*
G01*
X104528000Y-71928500D01*
G75*
G02*
X104302500Y-72154000I-225500J0D01*
G01*
X103851500Y-72154000D01*
G75*
G02*
X103626000Y-71928500I0J225500D01*
G01*
G37*
G36*
G01*
X127882000Y-95042500D02*
X127882000Y-94441500D01*
G75*
G02*
X128107500Y-94216000I225500J0D01*
G01*
X128558500Y-94216000D01*
G75*
G02*
X128784000Y-94441500I0J-225500D01*
G01*
X128784000Y-95042500D01*
G75*
G02*
X128558500Y-95268000I-225500J0D01*
G01*
X128107500Y-95268000D01*
G75*
G02*
X127882000Y-95042500I0J225500D01*
G01*
G37*
G36*
G01*
X126232000Y-95042500D02*
X126232000Y-94441500D01*
G75*
G02*
X126457500Y-94216000I225500J0D01*
G01*
X126908500Y-94216000D01*
G75*
G02*
X127134000Y-94441500I0J-225500D01*
G01*
X127134000Y-95042500D01*
G75*
G02*
X126908500Y-95268000I-225500J0D01*
G01*
X126457500Y-95268000D01*
G75*
G02*
X126232000Y-95042500I0J225500D01*
G01*
G37*
G36*
G01*
X129025000Y-81326500D02*
X129025000Y-80725500D01*
G75*
G02*
X129250500Y-80500000I225500J0D01*
G01*
X129701500Y-80500000D01*
G75*
G02*
X129927000Y-80725500I0J-225500D01*
G01*
X129927000Y-81326500D01*
G75*
G02*
X129701500Y-81552000I-225500J0D01*
G01*
X129250500Y-81552000D01*
G75*
G02*
X129025000Y-81326500I0J225500D01*
G01*
G37*
G36*
G01*
X127375000Y-81326500D02*
X127375000Y-80725500D01*
G75*
G02*
X127600500Y-80500000I225500J0D01*
G01*
X128051500Y-80500000D01*
G75*
G02*
X128277000Y-80725500I0J-225500D01*
G01*
X128277000Y-81326500D01*
G75*
G02*
X128051500Y-81552000I-225500J0D01*
G01*
X127600500Y-81552000D01*
G75*
G02*
X127375000Y-81326500I0J225500D01*
G01*
G37*
G36*
G01*
X105276000Y-81326500D02*
X105276000Y-80725500D01*
G75*
G02*
X105501500Y-80500000I225500J0D01*
G01*
X105952500Y-80500000D01*
G75*
G02*
X106178000Y-80725500I0J-225500D01*
G01*
X106178000Y-81326500D01*
G75*
G02*
X105952500Y-81552000I-225500J0D01*
G01*
X105501500Y-81552000D01*
G75*
G02*
X105276000Y-81326500I0J225500D01*
G01*
G37*
G36*
G01*
X103626000Y-81326500D02*
X103626000Y-80725500D01*
G75*
G02*
X103851500Y-80500000I225500J0D01*
G01*
X104302500Y-80500000D01*
G75*
G02*
X104528000Y-80725500I0J-225500D01*
G01*
X104528000Y-81326500D01*
G75*
G02*
X104302500Y-81552000I-225500J0D01*
G01*
X103851500Y-81552000D01*
G75*
G02*
X103626000Y-81326500I0J225500D01*
G01*
G37*
G36*
G01*
X127134000Y-100537500D02*
X127134000Y-101138500D01*
G75*
G02*
X126908500Y-101364000I-225500J0D01*
G01*
X126457500Y-101364000D01*
G75*
G02*
X126232000Y-101138500I0J225500D01*
G01*
X126232000Y-100537500D01*
G75*
G02*
X126457500Y-100312000I225500J0D01*
G01*
X126908500Y-100312000D01*
G75*
G02*
X127134000Y-100537500I0J-225500D01*
G01*
G37*
G36*
G01*
X128784000Y-100537500D02*
X128784000Y-101138500D01*
G75*
G02*
X128558500Y-101364000I-225500J0D01*
G01*
X128107500Y-101364000D01*
G75*
G02*
X127882000Y-101138500I0J225500D01*
G01*
X127882000Y-100537500D01*
G75*
G02*
X128107500Y-100312000I225500J0D01*
G01*
X128558500Y-100312000D01*
G75*
G02*
X128784000Y-100537500I0J-225500D01*
G01*
G37*
G36*
G01*
X129025000Y-75230500D02*
X129025000Y-74629500D01*
G75*
G02*
X129250500Y-74404000I225500J0D01*
G01*
X129701500Y-74404000D01*
G75*
G02*
X129927000Y-74629500I0J-225500D01*
G01*
X129927000Y-75230500D01*
G75*
G02*
X129701500Y-75456000I-225500J0D01*
G01*
X129250500Y-75456000D01*
G75*
G02*
X129025000Y-75230500I0J225500D01*
G01*
G37*
G36*
G01*
X127375000Y-75230500D02*
X127375000Y-74629500D01*
G75*
G02*
X127600500Y-74404000I225500J0D01*
G01*
X128051500Y-74404000D01*
G75*
G02*
X128277000Y-74629500I0J-225500D01*
G01*
X128277000Y-75230500D01*
G75*
G02*
X128051500Y-75456000I-225500J0D01*
G01*
X127600500Y-75456000D01*
G75*
G02*
X127375000Y-75230500I0J225500D01*
G01*
G37*
G36*
G01*
X104528000Y-74629500D02*
X104528000Y-75230500D01*
G75*
G02*
X104302500Y-75456000I-225500J0D01*
G01*
X103851500Y-75456000D01*
G75*
G02*
X103626000Y-75230500I0J225500D01*
G01*
X103626000Y-74629500D01*
G75*
G02*
X103851500Y-74404000I225500J0D01*
G01*
X104302500Y-74404000D01*
G75*
G02*
X104528000Y-74629500I0J-225500D01*
G01*
G37*
G36*
G01*
X106178000Y-74629500D02*
X106178000Y-75230500D01*
G75*
G02*
X105952500Y-75456000I-225500J0D01*
G01*
X105501500Y-75456000D01*
G75*
G02*
X105276000Y-75230500I0J225500D01*
G01*
X105276000Y-74629500D01*
G75*
G02*
X105501500Y-74404000I225500J0D01*
G01*
X105952500Y-74404000D01*
G75*
G02*
X106178000Y-74629500I0J-225500D01*
G01*
G37*
G36*
G01*
X146883000Y-79836500D02*
X146883000Y-80437500D01*
G75*
G02*
X146657500Y-80663000I-225500J0D01*
G01*
X146206500Y-80663000D01*
G75*
G02*
X145981000Y-80437500I0J225500D01*
G01*
X145981000Y-79836500D01*
G75*
G02*
X146206500Y-79611000I225500J0D01*
G01*
X146657500Y-79611000D01*
G75*
G02*
X146883000Y-79836500I0J-225500D01*
G01*
G37*
G36*
G01*
X148533000Y-79836500D02*
X148533000Y-80437500D01*
G75*
G02*
X148307500Y-80663000I-225500J0D01*
G01*
X147856500Y-80663000D01*
G75*
G02*
X147631000Y-80437500I0J225500D01*
G01*
X147631000Y-79836500D01*
G75*
G02*
X147856500Y-79611000I225500J0D01*
G01*
X148307500Y-79611000D01*
G75*
G02*
X148533000Y-79836500I0J-225500D01*
G01*
G37*
G36*
G01*
X143566000Y-68626500D02*
X143566000Y-68025500D01*
G75*
G02*
X143791500Y-67800000I225500J0D01*
G01*
X144242500Y-67800000D01*
G75*
G02*
X144468000Y-68025500I0J-225500D01*
G01*
X144468000Y-68626500D01*
G75*
G02*
X144242500Y-68852000I-225500J0D01*
G01*
X143791500Y-68852000D01*
G75*
G02*
X143566000Y-68626500I0J225500D01*
G01*
G37*
G36*
G01*
X141916000Y-68626500D02*
X141916000Y-68025500D01*
G75*
G02*
X142141500Y-67800000I225500J0D01*
G01*
X142592500Y-67800000D01*
G75*
G02*
X142818000Y-68025500I0J-225500D01*
G01*
X142818000Y-68626500D01*
G75*
G02*
X142592500Y-68852000I-225500J0D01*
G01*
X142141500Y-68852000D01*
G75*
G02*
X141916000Y-68626500I0J225500D01*
G01*
G37*
G36*
G01*
X95053000Y-95042500D02*
X95053000Y-94441500D01*
G75*
G02*
X95278500Y-94216000I225500J0D01*
G01*
X95729500Y-94216000D01*
G75*
G02*
X95955000Y-94441500I0J-225500D01*
G01*
X95955000Y-95042500D01*
G75*
G02*
X95729500Y-95268000I-225500J0D01*
G01*
X95278500Y-95268000D01*
G75*
G02*
X95053000Y-95042500I0J225500D01*
G01*
G37*
G36*
G01*
X93403000Y-95042500D02*
X93403000Y-94441500D01*
G75*
G02*
X93628500Y-94216000I225500J0D01*
G01*
X94079500Y-94216000D01*
G75*
G02*
X94305000Y-94441500I0J-225500D01*
G01*
X94305000Y-95042500D01*
G75*
G02*
X94079500Y-95268000I-225500J0D01*
G01*
X93628500Y-95268000D01*
G75*
G02*
X93403000Y-95042500I0J225500D01*
G01*
G37*
G36*
G01*
X98672000Y-95042500D02*
X98672000Y-94441500D01*
G75*
G02*
X98897500Y-94216000I225500J0D01*
G01*
X99348500Y-94216000D01*
G75*
G02*
X99574000Y-94441500I0J-225500D01*
G01*
X99574000Y-95042500D01*
G75*
G02*
X99348500Y-95268000I-225500J0D01*
G01*
X98897500Y-95268000D01*
G75*
G02*
X98672000Y-95042500I0J225500D01*
G01*
G37*
G36*
G01*
X97022000Y-95042500D02*
X97022000Y-94441500D01*
G75*
G02*
X97247500Y-94216000I225500J0D01*
G01*
X97698500Y-94216000D01*
G75*
G02*
X97924000Y-94441500I0J-225500D01*
G01*
X97924000Y-95042500D01*
G75*
G02*
X97698500Y-95268000I-225500J0D01*
G01*
X97247500Y-95268000D01*
G75*
G02*
X97022000Y-95042500I0J225500D01*
G01*
G37*
G36*
G01*
X121432000Y-107971500D02*
X121432000Y-107420500D01*
G75*
G02*
X121682500Y-107170000I250500J0D01*
G01*
X122183500Y-107170000D01*
G75*
G02*
X122434000Y-107420500I0J-250500D01*
G01*
X122434000Y-107971500D01*
G75*
G02*
X122183500Y-108222000I-250500J0D01*
G01*
X121682500Y-108222000D01*
G75*
G02*
X121432000Y-107971500I0J250500D01*
G01*
G37*
G36*
G01*
X119882000Y-107971500D02*
X119882000Y-107420500D01*
G75*
G02*
X120132500Y-107170000I250500J0D01*
G01*
X120633500Y-107170000D01*
G75*
G02*
X120884000Y-107420500I0J-250500D01*
G01*
X120884000Y-107971500D01*
G75*
G02*
X120633500Y-108222000I-250500J0D01*
G01*
X120132500Y-108222000D01*
G75*
G02*
X119882000Y-107971500I0J250500D01*
G01*
G37*
G36*
G01*
X141499500Y-88880000D02*
X140948500Y-88880000D01*
G75*
G02*
X140698000Y-88629500I0J250500D01*
G01*
X140698000Y-88128500D01*
G75*
G02*
X140948500Y-87878000I250500J0D01*
G01*
X141499500Y-87878000D01*
G75*
G02*
X141750000Y-88128500I0J-250500D01*
G01*
X141750000Y-88629500D01*
G75*
G02*
X141499500Y-88880000I-250500J0D01*
G01*
G37*
G36*
G01*
X141499500Y-90430000D02*
X140948500Y-90430000D01*
G75*
G02*
X140698000Y-90179500I0J250500D01*
G01*
X140698000Y-89678500D01*
G75*
G02*
X140948500Y-89428000I250500J0D01*
G01*
X141499500Y-89428000D01*
G75*
G02*
X141750000Y-89678500I0J-250500D01*
G01*
X141750000Y-90179500D01*
G75*
G02*
X141499500Y-90430000I-250500J0D01*
G01*
G37*
G36*
G01*
X141499500Y-85565000D02*
X140948500Y-85565000D01*
G75*
G02*
X140698000Y-85314500I0J250500D01*
G01*
X140698000Y-84813500D01*
G75*
G02*
X140948500Y-84563000I250500J0D01*
G01*
X141499500Y-84563000D01*
G75*
G02*
X141750000Y-84813500I0J-250500D01*
G01*
X141750000Y-85314500D01*
G75*
G02*
X141499500Y-85565000I-250500J0D01*
G01*
G37*
G36*
G01*
X141499500Y-87115000D02*
X140948500Y-87115000D01*
G75*
G02*
X140698000Y-86864500I0J250500D01*
G01*
X140698000Y-86363500D01*
G75*
G02*
X140948500Y-86113000I250500J0D01*
G01*
X141499500Y-86113000D01*
G75*
G02*
X141750000Y-86363500I0J-250500D01*
G01*
X141750000Y-86864500D01*
G75*
G02*
X141499500Y-87115000I-250500J0D01*
G01*
G37*
G36*
G01*
X127021500Y-88867000D02*
X126470500Y-88867000D01*
G75*
G02*
X126220000Y-88616500I0J250500D01*
G01*
X126220000Y-88115500D01*
G75*
G02*
X126470500Y-87865000I250500J0D01*
G01*
X127021500Y-87865000D01*
G75*
G02*
X127272000Y-88115500I0J-250500D01*
G01*
X127272000Y-88616500D01*
G75*
G02*
X127021500Y-88867000I-250500J0D01*
G01*
G37*
G36*
G01*
X127021500Y-90417000D02*
X126470500Y-90417000D01*
G75*
G02*
X126220000Y-90166500I0J250500D01*
G01*
X126220000Y-89665500D01*
G75*
G02*
X126470500Y-89415000I250500J0D01*
G01*
X127021500Y-89415000D01*
G75*
G02*
X127272000Y-89665500I0J-250500D01*
G01*
X127272000Y-90166500D01*
G75*
G02*
X127021500Y-90417000I-250500J0D01*
G01*
G37*
G36*
G01*
X127021500Y-85578000D02*
X126470500Y-85578000D01*
G75*
G02*
X126220000Y-85327500I0J250500D01*
G01*
X126220000Y-84826500D01*
G75*
G02*
X126470500Y-84576000I250500J0D01*
G01*
X127021500Y-84576000D01*
G75*
G02*
X127272000Y-84826500I0J-250500D01*
G01*
X127272000Y-85327500D01*
G75*
G02*
X127021500Y-85578000I-250500J0D01*
G01*
G37*
G36*
G01*
X127021500Y-87128000D02*
X126470500Y-87128000D01*
G75*
G02*
X126220000Y-86877500I0J250500D01*
G01*
X126220000Y-86376500D01*
G75*
G02*
X126470500Y-86126000I250500J0D01*
G01*
X127021500Y-86126000D01*
G75*
G02*
X127272000Y-86376500I0J-250500D01*
G01*
X127272000Y-86877500D01*
G75*
G02*
X127021500Y-87128000I-250500J0D01*
G01*
G37*
G36*
G01*
X117369500Y-88880000D02*
X116818500Y-88880000D01*
G75*
G02*
X116568000Y-88629500I0J250500D01*
G01*
X116568000Y-88128500D01*
G75*
G02*
X116818500Y-87878000I250500J0D01*
G01*
X117369500Y-87878000D01*
G75*
G02*
X117620000Y-88128500I0J-250500D01*
G01*
X117620000Y-88629500D01*
G75*
G02*
X117369500Y-88880000I-250500J0D01*
G01*
G37*
G36*
G01*
X117369500Y-90430000D02*
X116818500Y-90430000D01*
G75*
G02*
X116568000Y-90179500I0J250500D01*
G01*
X116568000Y-89678500D01*
G75*
G02*
X116818500Y-89428000I250500J0D01*
G01*
X117369500Y-89428000D01*
G75*
G02*
X117620000Y-89678500I0J-250500D01*
G01*
X117620000Y-90179500D01*
G75*
G02*
X117369500Y-90430000I-250500J0D01*
G01*
G37*
G36*
G01*
X117369500Y-85578000D02*
X116818500Y-85578000D01*
G75*
G02*
X116568000Y-85327500I0J250500D01*
G01*
X116568000Y-84826500D01*
G75*
G02*
X116818500Y-84576000I250500J0D01*
G01*
X117369500Y-84576000D01*
G75*
G02*
X117620000Y-84826500I0J-250500D01*
G01*
X117620000Y-85327500D01*
G75*
G02*
X117369500Y-85578000I-250500J0D01*
G01*
G37*
G36*
G01*
X117369500Y-87128000D02*
X116818500Y-87128000D01*
G75*
G02*
X116568000Y-86877500I0J250500D01*
G01*
X116568000Y-86376500D01*
G75*
G02*
X116818500Y-86126000I250500J0D01*
G01*
X117369500Y-86126000D01*
G75*
G02*
X117620000Y-86376500I0J-250500D01*
G01*
X117620000Y-86877500D01*
G75*
G02*
X117369500Y-87128000I-250500J0D01*
G01*
G37*
G36*
G01*
X102891500Y-88880000D02*
X102340500Y-88880000D01*
G75*
G02*
X102090000Y-88629500I0J250500D01*
G01*
X102090000Y-88128500D01*
G75*
G02*
X102340500Y-87878000I250500J0D01*
G01*
X102891500Y-87878000D01*
G75*
G02*
X103142000Y-88128500I0J-250500D01*
G01*
X103142000Y-88629500D01*
G75*
G02*
X102891500Y-88880000I-250500J0D01*
G01*
G37*
G36*
G01*
X102891500Y-90430000D02*
X102340500Y-90430000D01*
G75*
G02*
X102090000Y-90179500I0J250500D01*
G01*
X102090000Y-89678500D01*
G75*
G02*
X102340500Y-89428000I250500J0D01*
G01*
X102891500Y-89428000D01*
G75*
G02*
X103142000Y-89678500I0J-250500D01*
G01*
X103142000Y-90179500D01*
G75*
G02*
X102891500Y-90430000I-250500J0D01*
G01*
G37*
G36*
G01*
X102891500Y-85578000D02*
X102340500Y-85578000D01*
G75*
G02*
X102090000Y-85327500I0J250500D01*
G01*
X102090000Y-84826500D01*
G75*
G02*
X102340500Y-84576000I250500J0D01*
G01*
X102891500Y-84576000D01*
G75*
G02*
X103142000Y-84826500I0J-250500D01*
G01*
X103142000Y-85327500D01*
G75*
G02*
X102891500Y-85578000I-250500J0D01*
G01*
G37*
G36*
G01*
X102891500Y-87128000D02*
X102340500Y-87128000D01*
G75*
G02*
X102090000Y-86877500I0J250500D01*
G01*
X102090000Y-86376500D01*
G75*
G02*
X102340500Y-86126000I250500J0D01*
G01*
X102891500Y-86126000D01*
G75*
G02*
X103142000Y-86376500I0J-250500D01*
G01*
X103142000Y-86877500D01*
G75*
G02*
X102891500Y-87128000I-250500J0D01*
G01*
G37*
G36*
G01*
X93239500Y-88880000D02*
X92688500Y-88880000D01*
G75*
G02*
X92438000Y-88629500I0J250500D01*
G01*
X92438000Y-88128500D01*
G75*
G02*
X92688500Y-87878000I250500J0D01*
G01*
X93239500Y-87878000D01*
G75*
G02*
X93490000Y-88128500I0J-250500D01*
G01*
X93490000Y-88629500D01*
G75*
G02*
X93239500Y-88880000I-250500J0D01*
G01*
G37*
G36*
G01*
X93239500Y-90430000D02*
X92688500Y-90430000D01*
G75*
G02*
X92438000Y-90179500I0J250500D01*
G01*
X92438000Y-89678500D01*
G75*
G02*
X92688500Y-89428000I250500J0D01*
G01*
X93239500Y-89428000D01*
G75*
G02*
X93490000Y-89678500I0J-250500D01*
G01*
X93490000Y-90179500D01*
G75*
G02*
X93239500Y-90430000I-250500J0D01*
G01*
G37*
G36*
G01*
X93239500Y-85578000D02*
X92688500Y-85578000D01*
G75*
G02*
X92438000Y-85327500I0J250500D01*
G01*
X92438000Y-84826500D01*
G75*
G02*
X92688500Y-84576000I250500J0D01*
G01*
X93239500Y-84576000D01*
G75*
G02*
X93490000Y-84826500I0J-250500D01*
G01*
X93490000Y-85327500D01*
G75*
G02*
X93239500Y-85578000I-250500J0D01*
G01*
G37*
G36*
G01*
X93239500Y-87128000D02*
X92688500Y-87128000D01*
G75*
G02*
X92438000Y-86877500I0J250500D01*
G01*
X92438000Y-86376500D01*
G75*
G02*
X92688500Y-86126000I250500J0D01*
G01*
X93239500Y-86126000D01*
G75*
G02*
X93490000Y-86376500I0J-250500D01*
G01*
X93490000Y-86877500D01*
G75*
G02*
X93239500Y-87128000I-250500J0D01*
G01*
G37*
G36*
G01*
X143147000Y-107180500D02*
X143147000Y-106179500D01*
G75*
G02*
X143422500Y-105904000I275500J0D01*
G01*
X143973500Y-105904000D01*
G75*
G02*
X144249000Y-106179500I0J-275500D01*
G01*
X144249000Y-107180500D01*
G75*
G02*
X143973500Y-107456000I-275500J0D01*
G01*
X143422500Y-107456000D01*
G75*
G02*
X143147000Y-107180500I0J275500D01*
G01*
G37*
G36*
G01*
X141247000Y-107180500D02*
X141247000Y-106179500D01*
G75*
G02*
X141522500Y-105904000I275500J0D01*
G01*
X142073500Y-105904000D01*
G75*
G02*
X142349000Y-106179500I0J-275500D01*
G01*
X142349000Y-107180500D01*
G75*
G02*
X142073500Y-107456000I-275500J0D01*
G01*
X141522500Y-107456000D01*
G75*
G02*
X141247000Y-107180500I0J275500D01*
G01*
G37*
G36*
G01*
X142349000Y-111259500D02*
X142349000Y-112260500D01*
G75*
G02*
X142073500Y-112536000I-275500J0D01*
G01*
X141522500Y-112536000D01*
G75*
G02*
X141247000Y-112260500I0J275500D01*
G01*
X141247000Y-111259500D01*
G75*
G02*
X141522500Y-110984000I275500J0D01*
G01*
X142073500Y-110984000D01*
G75*
G02*
X142349000Y-111259500I0J-275500D01*
G01*
G37*
G36*
G01*
X144249000Y-111259500D02*
X144249000Y-112260500D01*
G75*
G02*
X143973500Y-112536000I-275500J0D01*
G01*
X143422500Y-112536000D01*
G75*
G02*
X143147000Y-112260500I0J275500D01*
G01*
X143147000Y-111259500D01*
G75*
G02*
X143422500Y-110984000I275500J0D01*
G01*
X143973500Y-110984000D01*
G75*
G02*
X144249000Y-111259500I0J-275500D01*
G01*
G37*
G36*
G01*
X121432000Y-114575500D02*
X121432000Y-114024500D01*
G75*
G02*
X121682500Y-113774000I250500J0D01*
G01*
X122183500Y-113774000D01*
G75*
G02*
X122434000Y-114024500I0J-250500D01*
G01*
X122434000Y-114575500D01*
G75*
G02*
X122183500Y-114826000I-250500J0D01*
G01*
X121682500Y-114826000D01*
G75*
G02*
X121432000Y-114575500I0J250500D01*
G01*
G37*
G36*
G01*
X119882000Y-114575500D02*
X119882000Y-114024500D01*
G75*
G02*
X120132500Y-113774000I250500J0D01*
G01*
X120633500Y-113774000D01*
G75*
G02*
X120884000Y-114024500I0J-250500D01*
G01*
X120884000Y-114575500D01*
G75*
G02*
X120633500Y-114826000I-250500J0D01*
G01*
X120132500Y-114826000D01*
G75*
G02*
X119882000Y-114575500I0J250500D01*
G01*
G37*
G36*
G01*
X103906000Y-98065500D02*
X103906000Y-97514500D01*
G75*
G02*
X104156500Y-97264000I250500J0D01*
G01*
X104657500Y-97264000D01*
G75*
G02*
X104908000Y-97514500I0J-250500D01*
G01*
X104908000Y-98065500D01*
G75*
G02*
X104657500Y-98316000I-250500J0D01*
G01*
X104156500Y-98316000D01*
G75*
G02*
X103906000Y-98065500I0J250500D01*
G01*
G37*
G36*
G01*
X102356000Y-98065500D02*
X102356000Y-97514500D01*
G75*
G02*
X102606500Y-97264000I250500J0D01*
G01*
X103107500Y-97264000D01*
G75*
G02*
X103358000Y-97514500I0J-250500D01*
G01*
X103358000Y-98065500D01*
G75*
G02*
X103107500Y-98316000I-250500J0D01*
G01*
X102606500Y-98316000D01*
G75*
G02*
X102356000Y-98065500I0J250500D01*
G01*
G37*
G36*
G01*
X111740000Y-97514500D02*
X111740000Y-98065500D01*
G75*
G02*
X111489500Y-98316000I-250500J0D01*
G01*
X110988500Y-98316000D01*
G75*
G02*
X110738000Y-98065500I0J250500D01*
G01*
X110738000Y-97514500D01*
G75*
G02*
X110988500Y-97264000I250500J0D01*
G01*
X111489500Y-97264000D01*
G75*
G02*
X111740000Y-97514500I0J-250500D01*
G01*
G37*
G36*
G01*
X113290000Y-97514500D02*
X113290000Y-98065500D01*
G75*
G02*
X113039500Y-98316000I-250500J0D01*
G01*
X112538500Y-98316000D01*
G75*
G02*
X112288000Y-98065500I0J250500D01*
G01*
X112288000Y-97514500D01*
G75*
G02*
X112538500Y-97264000I250500J0D01*
G01*
X113039500Y-97264000D01*
G75*
G02*
X113290000Y-97514500I0J-250500D01*
G01*
G37*
G36*
G01*
X142537000Y-94241500D02*
X142537000Y-95242500D01*
G75*
G02*
X142261500Y-95518000I-275500J0D01*
G01*
X141710500Y-95518000D01*
G75*
G02*
X141435000Y-95242500I0J275500D01*
G01*
X141435000Y-94241500D01*
G75*
G02*
X141710500Y-93966000I275500J0D01*
G01*
X142261500Y-93966000D01*
G75*
G02*
X142537000Y-94241500I0J-275500D01*
G01*
G37*
G36*
G01*
X144437000Y-94241500D02*
X144437000Y-95242500D01*
G75*
G02*
X144161500Y-95518000I-275500J0D01*
G01*
X143610500Y-95518000D01*
G75*
G02*
X143335000Y-95242500I0J275500D01*
G01*
X143335000Y-94241500D01*
G75*
G02*
X143610500Y-93966000I275500J0D01*
G01*
X144161500Y-93966000D01*
G75*
G02*
X144437000Y-94241500I0J-275500D01*
G01*
G37*
G36*
G01*
X117747000Y-95242500D02*
X117747000Y-94241500D01*
G75*
G02*
X118022500Y-93966000I275500J0D01*
G01*
X118573500Y-93966000D01*
G75*
G02*
X118849000Y-94241500I0J-275500D01*
G01*
X118849000Y-95242500D01*
G75*
G02*
X118573500Y-95518000I-275500J0D01*
G01*
X118022500Y-95518000D01*
G75*
G02*
X117747000Y-95242500I0J275500D01*
G01*
G37*
G36*
G01*
X115847000Y-95242500D02*
X115847000Y-94241500D01*
G75*
G02*
X116122500Y-93966000I275500J0D01*
G01*
X116673500Y-93966000D01*
G75*
G02*
X116949000Y-94241500I0J-275500D01*
G01*
X116949000Y-95242500D01*
G75*
G02*
X116673500Y-95518000I-275500J0D01*
G01*
X116122500Y-95518000D01*
G75*
G02*
X115847000Y-95242500I0J275500D01*
G01*
G37*
G36*
G01*
X99169000Y-79763500D02*
X99169000Y-80764500D01*
G75*
G02*
X98893500Y-81040000I-275500J0D01*
G01*
X98342500Y-81040000D01*
G75*
G02*
X98067000Y-80764500I0J275500D01*
G01*
X98067000Y-79763500D01*
G75*
G02*
X98342500Y-79488000I275500J0D01*
G01*
X98893500Y-79488000D01*
G75*
G02*
X99169000Y-79763500I0J-275500D01*
G01*
G37*
G36*
G01*
X101069000Y-79763500D02*
X101069000Y-80764500D01*
G75*
G02*
X100793500Y-81040000I-275500J0D01*
G01*
X100242500Y-81040000D01*
G75*
G02*
X99967000Y-80764500I0J275500D01*
G01*
X99967000Y-79763500D01*
G75*
G02*
X100242500Y-79488000I275500J0D01*
G01*
X100793500Y-79488000D01*
G75*
G02*
X101069000Y-79763500I0J-275500D01*
G01*
G37*
G36*
G01*
X134386000Y-98065500D02*
X134386000Y-97514500D01*
G75*
G02*
X134636500Y-97264000I250500J0D01*
G01*
X135137500Y-97264000D01*
G75*
G02*
X135388000Y-97514500I0J-250500D01*
G01*
X135388000Y-98065500D01*
G75*
G02*
X135137500Y-98316000I-250500J0D01*
G01*
X134636500Y-98316000D01*
G75*
G02*
X134386000Y-98065500I0J250500D01*
G01*
G37*
G36*
G01*
X132836000Y-98065500D02*
X132836000Y-97514500D01*
G75*
G02*
X133086500Y-97264000I250500J0D01*
G01*
X133587500Y-97264000D01*
G75*
G02*
X133838000Y-97514500I0J-250500D01*
G01*
X133838000Y-98065500D01*
G75*
G02*
X133587500Y-98316000I-250500J0D01*
G01*
X133086500Y-98316000D01*
G75*
G02*
X132836000Y-98065500I0J250500D01*
G01*
G37*
G36*
G01*
X133838000Y-77702500D02*
X133838000Y-78253500D01*
G75*
G02*
X133587500Y-78504000I-250500J0D01*
G01*
X133086500Y-78504000D01*
G75*
G02*
X132836000Y-78253500I0J250500D01*
G01*
X132836000Y-77702500D01*
G75*
G02*
X133086500Y-77452000I250500J0D01*
G01*
X133587500Y-77452000D01*
G75*
G02*
X133838000Y-77702500I0J-250500D01*
G01*
G37*
G36*
G01*
X135388000Y-77702500D02*
X135388000Y-78253500D01*
G75*
G02*
X135137500Y-78504000I-250500J0D01*
G01*
X134636500Y-78504000D01*
G75*
G02*
X134386000Y-78253500I0J250500D01*
G01*
X134386000Y-77702500D01*
G75*
G02*
X134636500Y-77452000I250500J0D01*
G01*
X135137500Y-77452000D01*
G75*
G02*
X135388000Y-77702500I0J-250500D01*
G01*
G37*
G36*
G01*
X110724000Y-77702500D02*
X110724000Y-78253500D01*
G75*
G02*
X110473500Y-78504000I-250500J0D01*
G01*
X109972500Y-78504000D01*
G75*
G02*
X109722000Y-78253500I0J250500D01*
G01*
X109722000Y-77702500D01*
G75*
G02*
X109972500Y-77452000I250500J0D01*
G01*
X110473500Y-77452000D01*
G75*
G02*
X110724000Y-77702500I0J-250500D01*
G01*
G37*
G36*
G01*
X112274000Y-77702500D02*
X112274000Y-78253500D01*
G75*
G02*
X112023500Y-78504000I-250500J0D01*
G01*
X111522500Y-78504000D01*
G75*
G02*
X111272000Y-78253500I0J250500D01*
G01*
X111272000Y-77702500D01*
G75*
G02*
X111522500Y-77452000I250500J0D01*
G01*
X112023500Y-77452000D01*
G75*
G02*
X112274000Y-77702500I0J-250500D01*
G01*
G37*
G36*
G01*
X139083000Y-95242500D02*
X139083000Y-94241500D01*
G75*
G02*
X139358500Y-93966000I275500J0D01*
G01*
X139909500Y-93966000D01*
G75*
G02*
X140185000Y-94241500I0J-275500D01*
G01*
X140185000Y-95242500D01*
G75*
G02*
X139909500Y-95518000I-275500J0D01*
G01*
X139358500Y-95518000D01*
G75*
G02*
X139083000Y-95242500I0J275500D01*
G01*
G37*
G36*
G01*
X137183000Y-95242500D02*
X137183000Y-94241500D01*
G75*
G02*
X137458500Y-93966000I275500J0D01*
G01*
X138009500Y-93966000D01*
G75*
G02*
X138285000Y-94241500I0J-275500D01*
G01*
X138285000Y-95242500D01*
G75*
G02*
X138009500Y-95518000I-275500J0D01*
G01*
X137458500Y-95518000D01*
G75*
G02*
X137183000Y-95242500I0J275500D01*
G01*
G37*
G36*
G01*
X122537000Y-79001500D02*
X122537000Y-80002500D01*
G75*
G02*
X122261500Y-80278000I-275500J0D01*
G01*
X121710500Y-80278000D01*
G75*
G02*
X121435000Y-80002500I0J275500D01*
G01*
X121435000Y-79001500D01*
G75*
G02*
X121710500Y-78726000I275500J0D01*
G01*
X122261500Y-78726000D01*
G75*
G02*
X122537000Y-79001500I0J-275500D01*
G01*
G37*
G36*
G01*
X124437000Y-79001500D02*
X124437000Y-80002500D01*
G75*
G02*
X124161500Y-80278000I-275500J0D01*
G01*
X123610500Y-80278000D01*
G75*
G02*
X123335000Y-80002500I0J275500D01*
G01*
X123335000Y-79001500D01*
G75*
G02*
X123610500Y-78726000I275500J0D01*
G01*
X124161500Y-78726000D01*
G75*
G02*
X124437000Y-79001500I0J-275500D01*
G01*
G37*
G36*
G01*
X94887000Y-80764500D02*
X94887000Y-79763500D01*
G75*
G02*
X95162500Y-79488000I275500J0D01*
G01*
X95713500Y-79488000D01*
G75*
G02*
X95989000Y-79763500I0J-275500D01*
G01*
X95989000Y-80764500D01*
G75*
G02*
X95713500Y-81040000I-275500J0D01*
G01*
X95162500Y-81040000D01*
G75*
G02*
X94887000Y-80764500I0J275500D01*
G01*
G37*
G36*
G01*
X92987000Y-80764500D02*
X92987000Y-79763500D01*
G75*
G02*
X93262500Y-79488000I275500J0D01*
G01*
X93813500Y-79488000D01*
G75*
G02*
X94089000Y-79763500I0J-275500D01*
G01*
X94089000Y-80764500D01*
G75*
G02*
X93813500Y-81040000I-275500J0D01*
G01*
X93262500Y-81040000D01*
G75*
G02*
X92987000Y-80764500I0J275500D01*
G01*
G37*
G36*
G01*
X127782000Y-98065500D02*
X127782000Y-97514500D01*
G75*
G02*
X128032500Y-97264000I250500J0D01*
G01*
X128533500Y-97264000D01*
G75*
G02*
X128784000Y-97514500I0J-250500D01*
G01*
X128784000Y-98065500D01*
G75*
G02*
X128533500Y-98316000I-250500J0D01*
G01*
X128032500Y-98316000D01*
G75*
G02*
X127782000Y-98065500I0J250500D01*
G01*
G37*
G36*
G01*
X126232000Y-98065500D02*
X126232000Y-97514500D01*
G75*
G02*
X126482500Y-97264000I250500J0D01*
G01*
X126983500Y-97264000D01*
G75*
G02*
X127234000Y-97514500I0J-250500D01*
G01*
X127234000Y-98065500D01*
G75*
G02*
X126983500Y-98316000I-250500J0D01*
G01*
X126482500Y-98316000D01*
G75*
G02*
X126232000Y-98065500I0J250500D01*
G01*
G37*
G36*
G01*
X128925000Y-78253500D02*
X128925000Y-77702500D01*
G75*
G02*
X129175500Y-77452000I250500J0D01*
G01*
X129676500Y-77452000D01*
G75*
G02*
X129927000Y-77702500I0J-250500D01*
G01*
X129927000Y-78253500D01*
G75*
G02*
X129676500Y-78504000I-250500J0D01*
G01*
X129175500Y-78504000D01*
G75*
G02*
X128925000Y-78253500I0J250500D01*
G01*
G37*
G36*
G01*
X127375000Y-78253500D02*
X127375000Y-77702500D01*
G75*
G02*
X127625500Y-77452000I250500J0D01*
G01*
X128126500Y-77452000D01*
G75*
G02*
X128377000Y-77702500I0J-250500D01*
G01*
X128377000Y-78253500D01*
G75*
G02*
X128126500Y-78504000I-250500J0D01*
G01*
X127625500Y-78504000D01*
G75*
G02*
X127375000Y-78253500I0J250500D01*
G01*
G37*
G36*
G01*
X105176000Y-78253500D02*
X105176000Y-77702500D01*
G75*
G02*
X105426500Y-77452000I250500J0D01*
G01*
X105927500Y-77452000D01*
G75*
G02*
X106178000Y-77702500I0J-250500D01*
G01*
X106178000Y-78253500D01*
G75*
G02*
X105927500Y-78504000I-250500J0D01*
G01*
X105426500Y-78504000D01*
G75*
G02*
X105176000Y-78253500I0J250500D01*
G01*
G37*
G36*
G01*
X103626000Y-78253500D02*
X103626000Y-77702500D01*
G75*
G02*
X103876500Y-77452000I250500J0D01*
G01*
X104377500Y-77452000D01*
G75*
G02*
X104628000Y-77702500I0J-250500D01*
G01*
X104628000Y-78253500D01*
G75*
G02*
X104377500Y-78504000I-250500J0D01*
G01*
X103876500Y-78504000D01*
G75*
G02*
X103626000Y-78253500I0J250500D01*
G01*
G37*
G36*
G01*
X95016000Y-98065500D02*
X95016000Y-97514500D01*
G75*
G02*
X95266500Y-97264000I250500J0D01*
G01*
X95767500Y-97264000D01*
G75*
G02*
X96018000Y-97514500I0J-250500D01*
G01*
X96018000Y-98065500D01*
G75*
G02*
X95767500Y-98316000I-250500J0D01*
G01*
X95266500Y-98316000D01*
G75*
G02*
X95016000Y-98065500I0J250500D01*
G01*
G37*
G36*
G01*
X93466000Y-98065500D02*
X93466000Y-97514500D01*
G75*
G02*
X93716500Y-97264000I250500J0D01*
G01*
X94217500Y-97264000D01*
G75*
G02*
X94468000Y-97514500I0J-250500D01*
G01*
X94468000Y-98065500D01*
G75*
G02*
X94217500Y-98316000I-250500J0D01*
G01*
X93716500Y-98316000D01*
G75*
G02*
X93466000Y-98065500I0J250500D01*
G01*
G37*
G36*
G01*
X129237500Y-112447000D02*
X129588500Y-112447000D01*
G75*
G02*
X129764000Y-112622500I0J-175500D01*
G01*
X129764000Y-114323500D01*
G75*
G02*
X129588500Y-114499000I-175500J0D01*
G01*
X129237500Y-114499000D01*
G75*
G02*
X129062000Y-114323500I0J175500D01*
G01*
X129062000Y-112622500D01*
G75*
G02*
X129237500Y-112447000I175500J0D01*
G01*
G37*
G36*
G01*
X127967500Y-112447000D02*
X128318500Y-112447000D01*
G75*
G02*
X128494000Y-112622500I0J-175500D01*
G01*
X128494000Y-114323500D01*
G75*
G02*
X128318500Y-114499000I-175500J0D01*
G01*
X127967500Y-114499000D01*
G75*
G02*
X127792000Y-114323500I0J175500D01*
G01*
X127792000Y-112622500D01*
G75*
G02*
X127967500Y-112447000I175500J0D01*
G01*
G37*
G36*
G01*
X126697500Y-112447000D02*
X127048500Y-112447000D01*
G75*
G02*
X127224000Y-112622500I0J-175500D01*
G01*
X127224000Y-114323500D01*
G75*
G02*
X127048500Y-114499000I-175500J0D01*
G01*
X126697500Y-114499000D01*
G75*
G02*
X126522000Y-114323500I0J175500D01*
G01*
X126522000Y-112622500D01*
G75*
G02*
X126697500Y-112447000I175500J0D01*
G01*
G37*
G36*
G01*
X125427500Y-112447000D02*
X125778500Y-112447000D01*
G75*
G02*
X125954000Y-112622500I0J-175500D01*
G01*
X125954000Y-114323500D01*
G75*
G02*
X125778500Y-114499000I-175500J0D01*
G01*
X125427500Y-114499000D01*
G75*
G02*
X125252000Y-114323500I0J175500D01*
G01*
X125252000Y-112622500D01*
G75*
G02*
X125427500Y-112447000I175500J0D01*
G01*
G37*
G36*
G01*
X125427500Y-107497000D02*
X125778500Y-107497000D01*
G75*
G02*
X125954000Y-107672500I0J-175500D01*
G01*
X125954000Y-109373500D01*
G75*
G02*
X125778500Y-109549000I-175500J0D01*
G01*
X125427500Y-109549000D01*
G75*
G02*
X125252000Y-109373500I0J175500D01*
G01*
X125252000Y-107672500D01*
G75*
G02*
X125427500Y-107497000I175500J0D01*
G01*
G37*
G36*
G01*
X126697500Y-107497000D02*
X127048500Y-107497000D01*
G75*
G02*
X127224000Y-107672500I0J-175500D01*
G01*
X127224000Y-109373500D01*
G75*
G02*
X127048500Y-109549000I-175500J0D01*
G01*
X126697500Y-109549000D01*
G75*
G02*
X126522000Y-109373500I0J175500D01*
G01*
X126522000Y-107672500D01*
G75*
G02*
X126697500Y-107497000I175500J0D01*
G01*
G37*
G36*
G01*
X127967500Y-107497000D02*
X128318500Y-107497000D01*
G75*
G02*
X128494000Y-107672500I0J-175500D01*
G01*
X128494000Y-109373500D01*
G75*
G02*
X128318500Y-109549000I-175500J0D01*
G01*
X127967500Y-109549000D01*
G75*
G02*
X127792000Y-109373500I0J175500D01*
G01*
X127792000Y-107672500D01*
G75*
G02*
X127967500Y-107497000I175500J0D01*
G01*
G37*
G36*
G01*
X129237500Y-107497000D02*
X129588500Y-107497000D01*
G75*
G02*
X129764000Y-107672500I0J-175500D01*
G01*
X129764000Y-109373500D01*
G75*
G02*
X129588500Y-109549000I-175500J0D01*
G01*
X129237500Y-109549000D01*
G75*
G02*
X129062000Y-109373500I0J175500D01*
G01*
X129062000Y-107672500D01*
G75*
G02*
X129237500Y-107497000I175500J0D01*
G01*
G37*
G36*
G01*
X113489500Y-88825000D02*
X113840500Y-88825000D01*
G75*
G02*
X114016000Y-89000500I0J-175500D01*
G01*
X114016000Y-90701500D01*
G75*
G02*
X113840500Y-90877000I-175500J0D01*
G01*
X113489500Y-90877000D01*
G75*
G02*
X113314000Y-90701500I0J175500D01*
G01*
X113314000Y-89000500D01*
G75*
G02*
X113489500Y-88825000I175500J0D01*
G01*
G37*
G36*
G01*
X112219500Y-88825000D02*
X112570500Y-88825000D01*
G75*
G02*
X112746000Y-89000500I0J-175500D01*
G01*
X112746000Y-90701500D01*
G75*
G02*
X112570500Y-90877000I-175500J0D01*
G01*
X112219500Y-90877000D01*
G75*
G02*
X112044000Y-90701500I0J175500D01*
G01*
X112044000Y-89000500D01*
G75*
G02*
X112219500Y-88825000I175500J0D01*
G01*
G37*
G36*
G01*
X110949500Y-88825000D02*
X111300500Y-88825000D01*
G75*
G02*
X111476000Y-89000500I0J-175500D01*
G01*
X111476000Y-90701500D01*
G75*
G02*
X111300500Y-90877000I-175500J0D01*
G01*
X110949500Y-90877000D01*
G75*
G02*
X110774000Y-90701500I0J175500D01*
G01*
X110774000Y-89000500D01*
G75*
G02*
X110949500Y-88825000I175500J0D01*
G01*
G37*
G36*
G01*
X109679500Y-88825000D02*
X110030500Y-88825000D01*
G75*
G02*
X110206000Y-89000500I0J-175500D01*
G01*
X110206000Y-90701500D01*
G75*
G02*
X110030500Y-90877000I-175500J0D01*
G01*
X109679500Y-90877000D01*
G75*
G02*
X109504000Y-90701500I0J175500D01*
G01*
X109504000Y-89000500D01*
G75*
G02*
X109679500Y-88825000I175500J0D01*
G01*
G37*
G36*
G01*
X108409500Y-88825000D02*
X108760500Y-88825000D01*
G75*
G02*
X108936000Y-89000500I0J-175500D01*
G01*
X108936000Y-90701500D01*
G75*
G02*
X108760500Y-90877000I-175500J0D01*
G01*
X108409500Y-90877000D01*
G75*
G02*
X108234000Y-90701500I0J175500D01*
G01*
X108234000Y-89000500D01*
G75*
G02*
X108409500Y-88825000I175500J0D01*
G01*
G37*
G36*
G01*
X107139500Y-88825000D02*
X107490500Y-88825000D01*
G75*
G02*
X107666000Y-89000500I0J-175500D01*
G01*
X107666000Y-90701500D01*
G75*
G02*
X107490500Y-90877000I-175500J0D01*
G01*
X107139500Y-90877000D01*
G75*
G02*
X106964000Y-90701500I0J175500D01*
G01*
X106964000Y-89000500D01*
G75*
G02*
X107139500Y-88825000I175500J0D01*
G01*
G37*
G36*
G01*
X105869500Y-88825000D02*
X106220500Y-88825000D01*
G75*
G02*
X106396000Y-89000500I0J-175500D01*
G01*
X106396000Y-90701500D01*
G75*
G02*
X106220500Y-90877000I-175500J0D01*
G01*
X105869500Y-90877000D01*
G75*
G02*
X105694000Y-90701500I0J175500D01*
G01*
X105694000Y-89000500D01*
G75*
G02*
X105869500Y-88825000I175500J0D01*
G01*
G37*
G36*
G01*
X104599500Y-88825000D02*
X104950500Y-88825000D01*
G75*
G02*
X105126000Y-89000500I0J-175500D01*
G01*
X105126000Y-90701500D01*
G75*
G02*
X104950500Y-90877000I-175500J0D01*
G01*
X104599500Y-90877000D01*
G75*
G02*
X104424000Y-90701500I0J175500D01*
G01*
X104424000Y-89000500D01*
G75*
G02*
X104599500Y-88825000I175500J0D01*
G01*
G37*
G36*
G01*
X104599500Y-83875000D02*
X104950500Y-83875000D01*
G75*
G02*
X105126000Y-84050500I0J-175500D01*
G01*
X105126000Y-85751500D01*
G75*
G02*
X104950500Y-85927000I-175500J0D01*
G01*
X104599500Y-85927000D01*
G75*
G02*
X104424000Y-85751500I0J175500D01*
G01*
X104424000Y-84050500D01*
G75*
G02*
X104599500Y-83875000I175500J0D01*
G01*
G37*
G36*
G01*
X105869500Y-83875000D02*
X106220500Y-83875000D01*
G75*
G02*
X106396000Y-84050500I0J-175500D01*
G01*
X106396000Y-85751500D01*
G75*
G02*
X106220500Y-85927000I-175500J0D01*
G01*
X105869500Y-85927000D01*
G75*
G02*
X105694000Y-85751500I0J175500D01*
G01*
X105694000Y-84050500D01*
G75*
G02*
X105869500Y-83875000I175500J0D01*
G01*
G37*
G36*
G01*
X107139500Y-83875000D02*
X107490500Y-83875000D01*
G75*
G02*
X107666000Y-84050500I0J-175500D01*
G01*
X107666000Y-85751500D01*
G75*
G02*
X107490500Y-85927000I-175500J0D01*
G01*
X107139500Y-85927000D01*
G75*
G02*
X106964000Y-85751500I0J175500D01*
G01*
X106964000Y-84050500D01*
G75*
G02*
X107139500Y-83875000I175500J0D01*
G01*
G37*
G36*
G01*
X108409500Y-83875000D02*
X108760500Y-83875000D01*
G75*
G02*
X108936000Y-84050500I0J-175500D01*
G01*
X108936000Y-85751500D01*
G75*
G02*
X108760500Y-85927000I-175500J0D01*
G01*
X108409500Y-85927000D01*
G75*
G02*
X108234000Y-85751500I0J175500D01*
G01*
X108234000Y-84050500D01*
G75*
G02*
X108409500Y-83875000I175500J0D01*
G01*
G37*
G36*
G01*
X109679500Y-83875000D02*
X110030500Y-83875000D01*
G75*
G02*
X110206000Y-84050500I0J-175500D01*
G01*
X110206000Y-85751500D01*
G75*
G02*
X110030500Y-85927000I-175500J0D01*
G01*
X109679500Y-85927000D01*
G75*
G02*
X109504000Y-85751500I0J175500D01*
G01*
X109504000Y-84050500D01*
G75*
G02*
X109679500Y-83875000I175500J0D01*
G01*
G37*
G36*
G01*
X110949500Y-83875000D02*
X111300500Y-83875000D01*
G75*
G02*
X111476000Y-84050500I0J-175500D01*
G01*
X111476000Y-85751500D01*
G75*
G02*
X111300500Y-85927000I-175500J0D01*
G01*
X110949500Y-85927000D01*
G75*
G02*
X110774000Y-85751500I0J175500D01*
G01*
X110774000Y-84050500D01*
G75*
G02*
X110949500Y-83875000I175500J0D01*
G01*
G37*
G36*
G01*
X112219500Y-83875000D02*
X112570500Y-83875000D01*
G75*
G02*
X112746000Y-84050500I0J-175500D01*
G01*
X112746000Y-85751500D01*
G75*
G02*
X112570500Y-85927000I-175500J0D01*
G01*
X112219500Y-85927000D01*
G75*
G02*
X112044000Y-85751500I0J175500D01*
G01*
X112044000Y-84050500D01*
G75*
G02*
X112219500Y-83875000I175500J0D01*
G01*
G37*
G36*
G01*
X113489500Y-83875000D02*
X113840500Y-83875000D01*
G75*
G02*
X114016000Y-84050500I0J-175500D01*
G01*
X114016000Y-85751500D01*
G75*
G02*
X113840500Y-85927000I-175500J0D01*
G01*
X113489500Y-85927000D01*
G75*
G02*
X113314000Y-85751500I0J175500D01*
G01*
X113314000Y-84050500D01*
G75*
G02*
X113489500Y-83875000I175500J0D01*
G01*
G37*
D13*
X104775000Y-106680000D03*
X104775000Y-109220000D03*
X104775000Y-111760000D03*
X99060000Y-106680000D03*
X99060000Y-109220000D03*
X99060000Y-111760000D03*
X110490000Y-106680000D03*
X110490000Y-109220000D03*
X110490000Y-111760000D03*
D14*
X147320000Y-114300000D03*
X147320000Y-111760000D03*
X147320000Y-109220000D03*
X147320000Y-106680000D03*
X147320000Y-104140000D03*
X147320000Y-101600000D03*
X147320000Y-99060000D03*
G36*
G01*
X148221000Y-95670000D02*
X148221000Y-97370000D01*
G75*
G02*
X148170000Y-97421000I-51000J0D01*
G01*
X146470000Y-97421000D01*
G75*
G02*
X146419000Y-97370000I0J51000D01*
G01*
X146419000Y-95670000D01*
G75*
G02*
X146470000Y-95619000I51000J0D01*
G01*
X148170000Y-95619000D01*
G75*
G02*
X148221000Y-95670000I0J-51000D01*
G01*
G37*
X147320000Y-76200000D03*
X147320000Y-73660000D03*
X147320000Y-71120000D03*
G36*
G01*
X148221000Y-67730000D02*
X148221000Y-69430000D01*
G75*
G02*
X148170000Y-69481000I-51000J0D01*
G01*
X146470000Y-69481000D01*
G75*
G02*
X146419000Y-69430000I0J51000D01*
G01*
X146419000Y-67730000D01*
G75*
G02*
X146470000Y-67679000I51000J0D01*
G01*
X148170000Y-67679000D01*
G75*
G02*
X148221000Y-67730000I0J-51000D01*
G01*
G37*
X93980000Y-114300000D03*
X93980000Y-111760000D03*
X93980000Y-109220000D03*
G36*
G01*
X94881000Y-105830000D02*
X94881000Y-107530000D01*
G75*
G02*
X94830000Y-107581000I-51000J0D01*
G01*
X93130000Y-107581000D01*
G75*
G02*
X93079000Y-107530000I0J51000D01*
G01*
X93079000Y-105830000D01*
G75*
G02*
X93130000Y-105779000I51000J0D01*
G01*
X94830000Y-105779000D01*
G75*
G02*
X94881000Y-105830000I0J-51000D01*
G01*
G37*
X93980000Y-76200000D03*
X93980000Y-73660000D03*
X93980000Y-71120000D03*
G36*
G01*
X94881000Y-67730000D02*
X94881000Y-69430000D01*
G75*
G02*
X94830000Y-69481000I-51000J0D01*
G01*
X93130000Y-69481000D01*
G75*
G02*
X93079000Y-69430000I0J51000D01*
G01*
X93079000Y-67730000D01*
G75*
G02*
X93130000Y-67679000I51000J0D01*
G01*
X94830000Y-67679000D01*
G75*
G02*
X94881000Y-67730000I0J-51000D01*
G01*
G37*
G36*
G01*
X143135000Y-101946000D02*
X143135000Y-100746000D01*
G75*
G02*
X143186000Y-100695000I51000J0D01*
G01*
X144086000Y-100695000D01*
G75*
G02*
X144137000Y-100746000I0J-51000D01*
G01*
X144137000Y-101946000D01*
G75*
G02*
X144086000Y-101997000I-51000J0D01*
G01*
X143186000Y-101997000D01*
G75*
G02*
X143135000Y-101946000I0J51000D01*
G01*
G37*
G36*
G01*
X139835000Y-101946000D02*
X139835000Y-100746000D01*
G75*
G02*
X139886000Y-100695000I51000J0D01*
G01*
X140786000Y-100695000D01*
G75*
G02*
X140837000Y-100746000I0J-51000D01*
G01*
X140837000Y-101946000D01*
G75*
G02*
X140786000Y-101997000I-51000J0D01*
G01*
X139886000Y-101997000D01*
G75*
G02*
X139835000Y-101946000I0J51000D01*
G01*
G37*
M02*
