M48
; DRILL file {KiCad 5.1.12-84ad8e8a86~92~ubuntu20.04.1} date Wed 08 Dec 2021 10:45:41 AM EST
; FORMAT={-:-/ absolute / metric / decimal}
; #@! TF.CreationDate,2021-12-08T10:45:41-05:00
; #@! TF.GenerationSoftware,Kicad,Pcbnew,5.1.12-84ad8e8a86~92~ubuntu20.04.1
; #@! TF.FileFunction,Plated,1,4,PTH
FMAT,2
METRIC
T1C0.400
T2C0.800
T3C1.000
%
G90
G05
T1
X92.964Y-82.55
X92.964Y-92.583
X96.266Y-78.486
X96.774Y-93.599
X96.901Y-80.391
X97.155Y-82.677
X97.155Y-92.202
X97.409Y-96.139
X97.536Y-78.74
X101.219Y-89.916
X101.219Y-97.79
X101.346Y-85.09
X102.87Y-74.93
X104.394Y-99.187
X107.696Y-79.502
X107.696Y-99.441
X107.95Y-77.978
X108.331Y-83.058
X108.331Y-91.821
X108.839Y-71.628
X108.966Y-74.93
X109.22Y-100.838
X109.825Y-83.071
X109.982Y-93.091
X109.982Y-99.314
X110.325Y-91.948
X111.125Y-82.55
X113.538Y-86.614
X113.665Y-91.694
X114.046Y-100.838
X115.57Y-74.93
X115.697Y-85.09
X115.697Y-89.916
X115.824Y-70.866
X117.602Y-76.454
X118.364Y-115.189
X119.159Y-91.981
X119.253Y-114.3
X119.38Y-94.742
X119.507Y-103.759
X120.269Y-68.199
X120.523Y-79.502
X121.285Y-92.329
X121.539Y-82.55
X123.825Y-82.931
X123.952Y-97.917
X124.206Y-113.411
X125.222Y-85.09
X125.222Y-89.916
X125.603Y-100.838
X126.746Y-106.934
X129.54Y-97.79
X129.54Y-103.886
X129.667Y-94.488
X130.302Y-82.55
X130.81Y-74.93
X131.318Y-77.978
X131.572Y-107.188
X131.762Y-92.138
X132.461Y-82.969
X132.969Y-91.567
X133.985Y-83.058
X134.239Y-91.44
X135.471Y-97.79
X136.144Y-100.838
X136.144Y-103.886
X137.287Y-92.964
X137.541Y-73.025
X137.541Y-77.978
X137.541Y-75.057
X137.795Y-86.614
X137.795Y-91.694
X139.029Y-88.047
X139.7Y-85.09
X139.7Y-96.393
X140.094Y-89.929
X140.335Y-102.997
X140.335Y-111.887
X140.462Y-106.68
X140.589Y-110.49
X141.478Y-108.243
X141.738Y-96.145
X144.437Y-82.423
X144.437Y-92.075
X146.558Y-87.757
T2
X99.06Y-106.68
X99.06Y-109.22
X99.06Y-111.76
X104.775Y-106.68
X104.775Y-109.22
X104.775Y-111.76
X110.49Y-106.68
X110.49Y-109.22
X110.49Y-111.76
X143.256Y-73.406
X143.256Y-78.406
T3
X93.98Y-68.58
X93.98Y-71.12
X93.98Y-73.66
X93.98Y-76.2
X93.98Y-106.68
X93.98Y-109.22
X93.98Y-111.76
X93.98Y-114.3
X147.32Y-68.58
X147.32Y-71.12
X147.32Y-73.66
X147.32Y-76.2
X147.32Y-96.52
X147.32Y-99.06
X147.32Y-101.6
X147.32Y-104.14
X147.32Y-106.68
X147.32Y-109.22
X147.32Y-111.76
X147.32Y-114.3
T0
M30
