G04 #@! TF.GenerationSoftware,KiCad,Pcbnew,5.1.12-84ad8e8a86~92~ubuntu20.04.1*
G04 #@! TF.CreationDate,2021-12-08T10:45:37-05:00*
G04 #@! TF.ProjectId,2164_phasor_plug_in_board,32313634-5f70-4686-9173-6f725f706c75,0.1*
G04 #@! TF.SameCoordinates,Original*
G04 #@! TF.FileFunction,Paste,Top*
G04 #@! TF.FilePolarity,Positive*
%FSLAX46Y46*%
G04 Gerber Fmt 4.6, Leading zero omitted, Abs format (unit mm)*
G04 Created by KiCad (PCBNEW 5.1.12-84ad8e8a86~92~ubuntu20.04.1) date 2021-12-08 10:45:37*
%MOMM*%
%LPD*%
G01*
G04 APERTURE LIST*
%ADD10R,0.900000X1.200000*%
G04 APERTURE END LIST*
D10*
X133350000Y-109220000D03*
X136650000Y-109220000D03*
X133350000Y-111760000D03*
X136650000Y-111760000D03*
G36*
G01*
X137645000Y-88622000D02*
X137945000Y-88622000D01*
G75*
G02*
X138095000Y-88772000I0J-150000D01*
G01*
X138095000Y-90422000D01*
G75*
G02*
X137945000Y-90572000I-150000J0D01*
G01*
X137645000Y-90572000D01*
G75*
G02*
X137495000Y-90422000I0J150000D01*
G01*
X137495000Y-88772000D01*
G75*
G02*
X137645000Y-88622000I150000J0D01*
G01*
G37*
G36*
G01*
X136375000Y-88622000D02*
X136675000Y-88622000D01*
G75*
G02*
X136825000Y-88772000I0J-150000D01*
G01*
X136825000Y-90422000D01*
G75*
G02*
X136675000Y-90572000I-150000J0D01*
G01*
X136375000Y-90572000D01*
G75*
G02*
X136225000Y-90422000I0J150000D01*
G01*
X136225000Y-88772000D01*
G75*
G02*
X136375000Y-88622000I150000J0D01*
G01*
G37*
G36*
G01*
X135105000Y-88622000D02*
X135405000Y-88622000D01*
G75*
G02*
X135555000Y-88772000I0J-150000D01*
G01*
X135555000Y-90422000D01*
G75*
G02*
X135405000Y-90572000I-150000J0D01*
G01*
X135105000Y-90572000D01*
G75*
G02*
X134955000Y-90422000I0J150000D01*
G01*
X134955000Y-88772000D01*
G75*
G02*
X135105000Y-88622000I150000J0D01*
G01*
G37*
G36*
G01*
X133835000Y-88622000D02*
X134135000Y-88622000D01*
G75*
G02*
X134285000Y-88772000I0J-150000D01*
G01*
X134285000Y-90422000D01*
G75*
G02*
X134135000Y-90572000I-150000J0D01*
G01*
X133835000Y-90572000D01*
G75*
G02*
X133685000Y-90422000I0J150000D01*
G01*
X133685000Y-88772000D01*
G75*
G02*
X133835000Y-88622000I150000J0D01*
G01*
G37*
G36*
G01*
X132565000Y-88622000D02*
X132865000Y-88622000D01*
G75*
G02*
X133015000Y-88772000I0J-150000D01*
G01*
X133015000Y-90422000D01*
G75*
G02*
X132865000Y-90572000I-150000J0D01*
G01*
X132565000Y-90572000D01*
G75*
G02*
X132415000Y-90422000I0J150000D01*
G01*
X132415000Y-88772000D01*
G75*
G02*
X132565000Y-88622000I150000J0D01*
G01*
G37*
G36*
G01*
X131295000Y-88622000D02*
X131595000Y-88622000D01*
G75*
G02*
X131745000Y-88772000I0J-150000D01*
G01*
X131745000Y-90422000D01*
G75*
G02*
X131595000Y-90572000I-150000J0D01*
G01*
X131295000Y-90572000D01*
G75*
G02*
X131145000Y-90422000I0J150000D01*
G01*
X131145000Y-88772000D01*
G75*
G02*
X131295000Y-88622000I150000J0D01*
G01*
G37*
G36*
G01*
X130025000Y-88622000D02*
X130325000Y-88622000D01*
G75*
G02*
X130475000Y-88772000I0J-150000D01*
G01*
X130475000Y-90422000D01*
G75*
G02*
X130325000Y-90572000I-150000J0D01*
G01*
X130025000Y-90572000D01*
G75*
G02*
X129875000Y-90422000I0J150000D01*
G01*
X129875000Y-88772000D01*
G75*
G02*
X130025000Y-88622000I150000J0D01*
G01*
G37*
G36*
G01*
X128755000Y-88622000D02*
X129055000Y-88622000D01*
G75*
G02*
X129205000Y-88772000I0J-150000D01*
G01*
X129205000Y-90422000D01*
G75*
G02*
X129055000Y-90572000I-150000J0D01*
G01*
X128755000Y-90572000D01*
G75*
G02*
X128605000Y-90422000I0J150000D01*
G01*
X128605000Y-88772000D01*
G75*
G02*
X128755000Y-88622000I150000J0D01*
G01*
G37*
G36*
G01*
X128755000Y-83672000D02*
X129055000Y-83672000D01*
G75*
G02*
X129205000Y-83822000I0J-150000D01*
G01*
X129205000Y-85472000D01*
G75*
G02*
X129055000Y-85622000I-150000J0D01*
G01*
X128755000Y-85622000D01*
G75*
G02*
X128605000Y-85472000I0J150000D01*
G01*
X128605000Y-83822000D01*
G75*
G02*
X128755000Y-83672000I150000J0D01*
G01*
G37*
G36*
G01*
X130025000Y-83672000D02*
X130325000Y-83672000D01*
G75*
G02*
X130475000Y-83822000I0J-150000D01*
G01*
X130475000Y-85472000D01*
G75*
G02*
X130325000Y-85622000I-150000J0D01*
G01*
X130025000Y-85622000D01*
G75*
G02*
X129875000Y-85472000I0J150000D01*
G01*
X129875000Y-83822000D01*
G75*
G02*
X130025000Y-83672000I150000J0D01*
G01*
G37*
G36*
G01*
X131295000Y-83672000D02*
X131595000Y-83672000D01*
G75*
G02*
X131745000Y-83822000I0J-150000D01*
G01*
X131745000Y-85472000D01*
G75*
G02*
X131595000Y-85622000I-150000J0D01*
G01*
X131295000Y-85622000D01*
G75*
G02*
X131145000Y-85472000I0J150000D01*
G01*
X131145000Y-83822000D01*
G75*
G02*
X131295000Y-83672000I150000J0D01*
G01*
G37*
G36*
G01*
X132565000Y-83672000D02*
X132865000Y-83672000D01*
G75*
G02*
X133015000Y-83822000I0J-150000D01*
G01*
X133015000Y-85472000D01*
G75*
G02*
X132865000Y-85622000I-150000J0D01*
G01*
X132565000Y-85622000D01*
G75*
G02*
X132415000Y-85472000I0J150000D01*
G01*
X132415000Y-83822000D01*
G75*
G02*
X132565000Y-83672000I150000J0D01*
G01*
G37*
G36*
G01*
X133835000Y-83672000D02*
X134135000Y-83672000D01*
G75*
G02*
X134285000Y-83822000I0J-150000D01*
G01*
X134285000Y-85472000D01*
G75*
G02*
X134135000Y-85622000I-150000J0D01*
G01*
X133835000Y-85622000D01*
G75*
G02*
X133685000Y-85472000I0J150000D01*
G01*
X133685000Y-83822000D01*
G75*
G02*
X133835000Y-83672000I150000J0D01*
G01*
G37*
G36*
G01*
X135105000Y-83672000D02*
X135405000Y-83672000D01*
G75*
G02*
X135555000Y-83822000I0J-150000D01*
G01*
X135555000Y-85472000D01*
G75*
G02*
X135405000Y-85622000I-150000J0D01*
G01*
X135105000Y-85622000D01*
G75*
G02*
X134955000Y-85472000I0J150000D01*
G01*
X134955000Y-83822000D01*
G75*
G02*
X135105000Y-83672000I150000J0D01*
G01*
G37*
G36*
G01*
X136375000Y-83672000D02*
X136675000Y-83672000D01*
G75*
G02*
X136825000Y-83822000I0J-150000D01*
G01*
X136825000Y-85472000D01*
G75*
G02*
X136675000Y-85622000I-150000J0D01*
G01*
X136375000Y-85622000D01*
G75*
G02*
X136225000Y-85472000I0J150000D01*
G01*
X136225000Y-83822000D01*
G75*
G02*
X136375000Y-83672000I150000J0D01*
G01*
G37*
G36*
G01*
X137645000Y-83672000D02*
X137945000Y-83672000D01*
G75*
G02*
X138095000Y-83822000I0J-150000D01*
G01*
X138095000Y-85472000D01*
G75*
G02*
X137945000Y-85622000I-150000J0D01*
G01*
X137645000Y-85622000D01*
G75*
G02*
X137495000Y-85472000I0J150000D01*
G01*
X137495000Y-83822000D01*
G75*
G02*
X137645000Y-83672000I150000J0D01*
G01*
G37*
G36*
G01*
X147138000Y-89247000D02*
X147338000Y-89247000D01*
G75*
G02*
X147438000Y-89347000I0J-100000D01*
G01*
X147438000Y-90622000D01*
G75*
G02*
X147338000Y-90722000I-100000J0D01*
G01*
X147138000Y-90722000D01*
G75*
G02*
X147038000Y-90622000I0J100000D01*
G01*
X147038000Y-89347000D01*
G75*
G02*
X147138000Y-89247000I100000J0D01*
G01*
G37*
G36*
G01*
X146488000Y-89247000D02*
X146688000Y-89247000D01*
G75*
G02*
X146788000Y-89347000I0J-100000D01*
G01*
X146788000Y-90622000D01*
G75*
G02*
X146688000Y-90722000I-100000J0D01*
G01*
X146488000Y-90722000D01*
G75*
G02*
X146388000Y-90622000I0J100000D01*
G01*
X146388000Y-89347000D01*
G75*
G02*
X146488000Y-89247000I100000J0D01*
G01*
G37*
G36*
G01*
X145838000Y-89247000D02*
X146038000Y-89247000D01*
G75*
G02*
X146138000Y-89347000I0J-100000D01*
G01*
X146138000Y-90622000D01*
G75*
G02*
X146038000Y-90722000I-100000J0D01*
G01*
X145838000Y-90722000D01*
G75*
G02*
X145738000Y-90622000I0J100000D01*
G01*
X145738000Y-89347000D01*
G75*
G02*
X145838000Y-89247000I100000J0D01*
G01*
G37*
G36*
G01*
X145188000Y-89247000D02*
X145388000Y-89247000D01*
G75*
G02*
X145488000Y-89347000I0J-100000D01*
G01*
X145488000Y-90622000D01*
G75*
G02*
X145388000Y-90722000I-100000J0D01*
G01*
X145188000Y-90722000D01*
G75*
G02*
X145088000Y-90622000I0J100000D01*
G01*
X145088000Y-89347000D01*
G75*
G02*
X145188000Y-89247000I100000J0D01*
G01*
G37*
G36*
G01*
X144538000Y-89247000D02*
X144738000Y-89247000D01*
G75*
G02*
X144838000Y-89347000I0J-100000D01*
G01*
X144838000Y-90622000D01*
G75*
G02*
X144738000Y-90722000I-100000J0D01*
G01*
X144538000Y-90722000D01*
G75*
G02*
X144438000Y-90622000I0J100000D01*
G01*
X144438000Y-89347000D01*
G75*
G02*
X144538000Y-89247000I100000J0D01*
G01*
G37*
G36*
G01*
X143888000Y-89247000D02*
X144088000Y-89247000D01*
G75*
G02*
X144188000Y-89347000I0J-100000D01*
G01*
X144188000Y-90622000D01*
G75*
G02*
X144088000Y-90722000I-100000J0D01*
G01*
X143888000Y-90722000D01*
G75*
G02*
X143788000Y-90622000I0J100000D01*
G01*
X143788000Y-89347000D01*
G75*
G02*
X143888000Y-89247000I100000J0D01*
G01*
G37*
G36*
G01*
X143238000Y-89247000D02*
X143438000Y-89247000D01*
G75*
G02*
X143538000Y-89347000I0J-100000D01*
G01*
X143538000Y-90622000D01*
G75*
G02*
X143438000Y-90722000I-100000J0D01*
G01*
X143238000Y-90722000D01*
G75*
G02*
X143138000Y-90622000I0J100000D01*
G01*
X143138000Y-89347000D01*
G75*
G02*
X143238000Y-89247000I100000J0D01*
G01*
G37*
G36*
G01*
X143238000Y-83522000D02*
X143438000Y-83522000D01*
G75*
G02*
X143538000Y-83622000I0J-100000D01*
G01*
X143538000Y-84897000D01*
G75*
G02*
X143438000Y-84997000I-100000J0D01*
G01*
X143238000Y-84997000D01*
G75*
G02*
X143138000Y-84897000I0J100000D01*
G01*
X143138000Y-83622000D01*
G75*
G02*
X143238000Y-83522000I100000J0D01*
G01*
G37*
G36*
G01*
X143888000Y-83522000D02*
X144088000Y-83522000D01*
G75*
G02*
X144188000Y-83622000I0J-100000D01*
G01*
X144188000Y-84897000D01*
G75*
G02*
X144088000Y-84997000I-100000J0D01*
G01*
X143888000Y-84997000D01*
G75*
G02*
X143788000Y-84897000I0J100000D01*
G01*
X143788000Y-83622000D01*
G75*
G02*
X143888000Y-83522000I100000J0D01*
G01*
G37*
G36*
G01*
X144538000Y-83522000D02*
X144738000Y-83522000D01*
G75*
G02*
X144838000Y-83622000I0J-100000D01*
G01*
X144838000Y-84897000D01*
G75*
G02*
X144738000Y-84997000I-100000J0D01*
G01*
X144538000Y-84997000D01*
G75*
G02*
X144438000Y-84897000I0J100000D01*
G01*
X144438000Y-83622000D01*
G75*
G02*
X144538000Y-83522000I100000J0D01*
G01*
G37*
G36*
G01*
X145188000Y-83522000D02*
X145388000Y-83522000D01*
G75*
G02*
X145488000Y-83622000I0J-100000D01*
G01*
X145488000Y-84897000D01*
G75*
G02*
X145388000Y-84997000I-100000J0D01*
G01*
X145188000Y-84997000D01*
G75*
G02*
X145088000Y-84897000I0J100000D01*
G01*
X145088000Y-83622000D01*
G75*
G02*
X145188000Y-83522000I100000J0D01*
G01*
G37*
G36*
G01*
X145838000Y-83522000D02*
X146038000Y-83522000D01*
G75*
G02*
X146138000Y-83622000I0J-100000D01*
G01*
X146138000Y-84897000D01*
G75*
G02*
X146038000Y-84997000I-100000J0D01*
G01*
X145838000Y-84997000D01*
G75*
G02*
X145738000Y-84897000I0J100000D01*
G01*
X145738000Y-83622000D01*
G75*
G02*
X145838000Y-83522000I100000J0D01*
G01*
G37*
G36*
G01*
X146488000Y-83522000D02*
X146688000Y-83522000D01*
G75*
G02*
X146788000Y-83622000I0J-100000D01*
G01*
X146788000Y-84897000D01*
G75*
G02*
X146688000Y-84997000I-100000J0D01*
G01*
X146488000Y-84997000D01*
G75*
G02*
X146388000Y-84897000I0J100000D01*
G01*
X146388000Y-83622000D01*
G75*
G02*
X146488000Y-83522000I100000J0D01*
G01*
G37*
G36*
G01*
X147138000Y-83522000D02*
X147338000Y-83522000D01*
G75*
G02*
X147438000Y-83622000I0J-100000D01*
G01*
X147438000Y-84897000D01*
G75*
G02*
X147338000Y-84997000I-100000J0D01*
G01*
X147138000Y-84997000D01*
G75*
G02*
X147038000Y-84897000I0J100000D01*
G01*
X147038000Y-83622000D01*
G75*
G02*
X147138000Y-83522000I100000J0D01*
G01*
G37*
G36*
G01*
X123135000Y-89501000D02*
X123335000Y-89501000D01*
G75*
G02*
X123435000Y-89601000I0J-100000D01*
G01*
X123435000Y-90876000D01*
G75*
G02*
X123335000Y-90976000I-100000J0D01*
G01*
X123135000Y-90976000D01*
G75*
G02*
X123035000Y-90876000I0J100000D01*
G01*
X123035000Y-89601000D01*
G75*
G02*
X123135000Y-89501000I100000J0D01*
G01*
G37*
G36*
G01*
X122485000Y-89501000D02*
X122685000Y-89501000D01*
G75*
G02*
X122785000Y-89601000I0J-100000D01*
G01*
X122785000Y-90876000D01*
G75*
G02*
X122685000Y-90976000I-100000J0D01*
G01*
X122485000Y-90976000D01*
G75*
G02*
X122385000Y-90876000I0J100000D01*
G01*
X122385000Y-89601000D01*
G75*
G02*
X122485000Y-89501000I100000J0D01*
G01*
G37*
G36*
G01*
X121835000Y-89501000D02*
X122035000Y-89501000D01*
G75*
G02*
X122135000Y-89601000I0J-100000D01*
G01*
X122135000Y-90876000D01*
G75*
G02*
X122035000Y-90976000I-100000J0D01*
G01*
X121835000Y-90976000D01*
G75*
G02*
X121735000Y-90876000I0J100000D01*
G01*
X121735000Y-89601000D01*
G75*
G02*
X121835000Y-89501000I100000J0D01*
G01*
G37*
G36*
G01*
X121185000Y-89501000D02*
X121385000Y-89501000D01*
G75*
G02*
X121485000Y-89601000I0J-100000D01*
G01*
X121485000Y-90876000D01*
G75*
G02*
X121385000Y-90976000I-100000J0D01*
G01*
X121185000Y-90976000D01*
G75*
G02*
X121085000Y-90876000I0J100000D01*
G01*
X121085000Y-89601000D01*
G75*
G02*
X121185000Y-89501000I100000J0D01*
G01*
G37*
G36*
G01*
X120535000Y-89501000D02*
X120735000Y-89501000D01*
G75*
G02*
X120835000Y-89601000I0J-100000D01*
G01*
X120835000Y-90876000D01*
G75*
G02*
X120735000Y-90976000I-100000J0D01*
G01*
X120535000Y-90976000D01*
G75*
G02*
X120435000Y-90876000I0J100000D01*
G01*
X120435000Y-89601000D01*
G75*
G02*
X120535000Y-89501000I100000J0D01*
G01*
G37*
G36*
G01*
X119885000Y-89501000D02*
X120085000Y-89501000D01*
G75*
G02*
X120185000Y-89601000I0J-100000D01*
G01*
X120185000Y-90876000D01*
G75*
G02*
X120085000Y-90976000I-100000J0D01*
G01*
X119885000Y-90976000D01*
G75*
G02*
X119785000Y-90876000I0J100000D01*
G01*
X119785000Y-89601000D01*
G75*
G02*
X119885000Y-89501000I100000J0D01*
G01*
G37*
G36*
G01*
X119235000Y-89501000D02*
X119435000Y-89501000D01*
G75*
G02*
X119535000Y-89601000I0J-100000D01*
G01*
X119535000Y-90876000D01*
G75*
G02*
X119435000Y-90976000I-100000J0D01*
G01*
X119235000Y-90976000D01*
G75*
G02*
X119135000Y-90876000I0J100000D01*
G01*
X119135000Y-89601000D01*
G75*
G02*
X119235000Y-89501000I100000J0D01*
G01*
G37*
G36*
G01*
X119235000Y-83776000D02*
X119435000Y-83776000D01*
G75*
G02*
X119535000Y-83876000I0J-100000D01*
G01*
X119535000Y-85151000D01*
G75*
G02*
X119435000Y-85251000I-100000J0D01*
G01*
X119235000Y-85251000D01*
G75*
G02*
X119135000Y-85151000I0J100000D01*
G01*
X119135000Y-83876000D01*
G75*
G02*
X119235000Y-83776000I100000J0D01*
G01*
G37*
G36*
G01*
X119885000Y-83776000D02*
X120085000Y-83776000D01*
G75*
G02*
X120185000Y-83876000I0J-100000D01*
G01*
X120185000Y-85151000D01*
G75*
G02*
X120085000Y-85251000I-100000J0D01*
G01*
X119885000Y-85251000D01*
G75*
G02*
X119785000Y-85151000I0J100000D01*
G01*
X119785000Y-83876000D01*
G75*
G02*
X119885000Y-83776000I100000J0D01*
G01*
G37*
G36*
G01*
X120535000Y-83776000D02*
X120735000Y-83776000D01*
G75*
G02*
X120835000Y-83876000I0J-100000D01*
G01*
X120835000Y-85151000D01*
G75*
G02*
X120735000Y-85251000I-100000J0D01*
G01*
X120535000Y-85251000D01*
G75*
G02*
X120435000Y-85151000I0J100000D01*
G01*
X120435000Y-83876000D01*
G75*
G02*
X120535000Y-83776000I100000J0D01*
G01*
G37*
G36*
G01*
X121185000Y-83776000D02*
X121385000Y-83776000D01*
G75*
G02*
X121485000Y-83876000I0J-100000D01*
G01*
X121485000Y-85151000D01*
G75*
G02*
X121385000Y-85251000I-100000J0D01*
G01*
X121185000Y-85251000D01*
G75*
G02*
X121085000Y-85151000I0J100000D01*
G01*
X121085000Y-83876000D01*
G75*
G02*
X121185000Y-83776000I100000J0D01*
G01*
G37*
G36*
G01*
X121835000Y-83776000D02*
X122035000Y-83776000D01*
G75*
G02*
X122135000Y-83876000I0J-100000D01*
G01*
X122135000Y-85151000D01*
G75*
G02*
X122035000Y-85251000I-100000J0D01*
G01*
X121835000Y-85251000D01*
G75*
G02*
X121735000Y-85151000I0J100000D01*
G01*
X121735000Y-83876000D01*
G75*
G02*
X121835000Y-83776000I100000J0D01*
G01*
G37*
G36*
G01*
X122485000Y-83776000D02*
X122685000Y-83776000D01*
G75*
G02*
X122785000Y-83876000I0J-100000D01*
G01*
X122785000Y-85151000D01*
G75*
G02*
X122685000Y-85251000I-100000J0D01*
G01*
X122485000Y-85251000D01*
G75*
G02*
X122385000Y-85151000I0J100000D01*
G01*
X122385000Y-83876000D01*
G75*
G02*
X122485000Y-83776000I100000J0D01*
G01*
G37*
G36*
G01*
X123135000Y-83776000D02*
X123335000Y-83776000D01*
G75*
G02*
X123435000Y-83876000I0J-100000D01*
G01*
X123435000Y-85151000D01*
G75*
G02*
X123335000Y-85251000I-100000J0D01*
G01*
X123135000Y-85251000D01*
G75*
G02*
X123035000Y-85151000I0J100000D01*
G01*
X123035000Y-83876000D01*
G75*
G02*
X123135000Y-83776000I100000J0D01*
G01*
G37*
G36*
G01*
X99005000Y-89501000D02*
X99205000Y-89501000D01*
G75*
G02*
X99305000Y-89601000I0J-100000D01*
G01*
X99305000Y-90876000D01*
G75*
G02*
X99205000Y-90976000I-100000J0D01*
G01*
X99005000Y-90976000D01*
G75*
G02*
X98905000Y-90876000I0J100000D01*
G01*
X98905000Y-89601000D01*
G75*
G02*
X99005000Y-89501000I100000J0D01*
G01*
G37*
G36*
G01*
X98355000Y-89501000D02*
X98555000Y-89501000D01*
G75*
G02*
X98655000Y-89601000I0J-100000D01*
G01*
X98655000Y-90876000D01*
G75*
G02*
X98555000Y-90976000I-100000J0D01*
G01*
X98355000Y-90976000D01*
G75*
G02*
X98255000Y-90876000I0J100000D01*
G01*
X98255000Y-89601000D01*
G75*
G02*
X98355000Y-89501000I100000J0D01*
G01*
G37*
G36*
G01*
X97705000Y-89501000D02*
X97905000Y-89501000D01*
G75*
G02*
X98005000Y-89601000I0J-100000D01*
G01*
X98005000Y-90876000D01*
G75*
G02*
X97905000Y-90976000I-100000J0D01*
G01*
X97705000Y-90976000D01*
G75*
G02*
X97605000Y-90876000I0J100000D01*
G01*
X97605000Y-89601000D01*
G75*
G02*
X97705000Y-89501000I100000J0D01*
G01*
G37*
G36*
G01*
X97055000Y-89501000D02*
X97255000Y-89501000D01*
G75*
G02*
X97355000Y-89601000I0J-100000D01*
G01*
X97355000Y-90876000D01*
G75*
G02*
X97255000Y-90976000I-100000J0D01*
G01*
X97055000Y-90976000D01*
G75*
G02*
X96955000Y-90876000I0J100000D01*
G01*
X96955000Y-89601000D01*
G75*
G02*
X97055000Y-89501000I100000J0D01*
G01*
G37*
G36*
G01*
X96405000Y-89501000D02*
X96605000Y-89501000D01*
G75*
G02*
X96705000Y-89601000I0J-100000D01*
G01*
X96705000Y-90876000D01*
G75*
G02*
X96605000Y-90976000I-100000J0D01*
G01*
X96405000Y-90976000D01*
G75*
G02*
X96305000Y-90876000I0J100000D01*
G01*
X96305000Y-89601000D01*
G75*
G02*
X96405000Y-89501000I100000J0D01*
G01*
G37*
G36*
G01*
X95755000Y-89501000D02*
X95955000Y-89501000D01*
G75*
G02*
X96055000Y-89601000I0J-100000D01*
G01*
X96055000Y-90876000D01*
G75*
G02*
X95955000Y-90976000I-100000J0D01*
G01*
X95755000Y-90976000D01*
G75*
G02*
X95655000Y-90876000I0J100000D01*
G01*
X95655000Y-89601000D01*
G75*
G02*
X95755000Y-89501000I100000J0D01*
G01*
G37*
G36*
G01*
X95105000Y-89501000D02*
X95305000Y-89501000D01*
G75*
G02*
X95405000Y-89601000I0J-100000D01*
G01*
X95405000Y-90876000D01*
G75*
G02*
X95305000Y-90976000I-100000J0D01*
G01*
X95105000Y-90976000D01*
G75*
G02*
X95005000Y-90876000I0J100000D01*
G01*
X95005000Y-89601000D01*
G75*
G02*
X95105000Y-89501000I100000J0D01*
G01*
G37*
G36*
G01*
X95105000Y-83776000D02*
X95305000Y-83776000D01*
G75*
G02*
X95405000Y-83876000I0J-100000D01*
G01*
X95405000Y-85151000D01*
G75*
G02*
X95305000Y-85251000I-100000J0D01*
G01*
X95105000Y-85251000D01*
G75*
G02*
X95005000Y-85151000I0J100000D01*
G01*
X95005000Y-83876000D01*
G75*
G02*
X95105000Y-83776000I100000J0D01*
G01*
G37*
G36*
G01*
X95755000Y-83776000D02*
X95955000Y-83776000D01*
G75*
G02*
X96055000Y-83876000I0J-100000D01*
G01*
X96055000Y-85151000D01*
G75*
G02*
X95955000Y-85251000I-100000J0D01*
G01*
X95755000Y-85251000D01*
G75*
G02*
X95655000Y-85151000I0J100000D01*
G01*
X95655000Y-83876000D01*
G75*
G02*
X95755000Y-83776000I100000J0D01*
G01*
G37*
G36*
G01*
X96405000Y-83776000D02*
X96605000Y-83776000D01*
G75*
G02*
X96705000Y-83876000I0J-100000D01*
G01*
X96705000Y-85151000D01*
G75*
G02*
X96605000Y-85251000I-100000J0D01*
G01*
X96405000Y-85251000D01*
G75*
G02*
X96305000Y-85151000I0J100000D01*
G01*
X96305000Y-83876000D01*
G75*
G02*
X96405000Y-83776000I100000J0D01*
G01*
G37*
G36*
G01*
X97055000Y-83776000D02*
X97255000Y-83776000D01*
G75*
G02*
X97355000Y-83876000I0J-100000D01*
G01*
X97355000Y-85151000D01*
G75*
G02*
X97255000Y-85251000I-100000J0D01*
G01*
X97055000Y-85251000D01*
G75*
G02*
X96955000Y-85151000I0J100000D01*
G01*
X96955000Y-83876000D01*
G75*
G02*
X97055000Y-83776000I100000J0D01*
G01*
G37*
G36*
G01*
X97705000Y-83776000D02*
X97905000Y-83776000D01*
G75*
G02*
X98005000Y-83876000I0J-100000D01*
G01*
X98005000Y-85151000D01*
G75*
G02*
X97905000Y-85251000I-100000J0D01*
G01*
X97705000Y-85251000D01*
G75*
G02*
X97605000Y-85151000I0J100000D01*
G01*
X97605000Y-83876000D01*
G75*
G02*
X97705000Y-83776000I100000J0D01*
G01*
G37*
G36*
G01*
X98355000Y-83776000D02*
X98555000Y-83776000D01*
G75*
G02*
X98655000Y-83876000I0J-100000D01*
G01*
X98655000Y-85151000D01*
G75*
G02*
X98555000Y-85251000I-100000J0D01*
G01*
X98355000Y-85251000D01*
G75*
G02*
X98255000Y-85151000I0J100000D01*
G01*
X98255000Y-83876000D01*
G75*
G02*
X98355000Y-83776000I100000J0D01*
G01*
G37*
G36*
G01*
X99005000Y-83776000D02*
X99205000Y-83776000D01*
G75*
G02*
X99305000Y-83876000I0J-100000D01*
G01*
X99305000Y-85151000D01*
G75*
G02*
X99205000Y-85251000I-100000J0D01*
G01*
X99005000Y-85251000D01*
G75*
G02*
X98905000Y-85151000I0J100000D01*
G01*
X98905000Y-83876000D01*
G75*
G02*
X99005000Y-83776000I100000J0D01*
G01*
G37*
G36*
G01*
X121583000Y-111019000D02*
X121583000Y-110469000D01*
G75*
G02*
X121783000Y-110269000I200000J0D01*
G01*
X122183000Y-110269000D01*
G75*
G02*
X122383000Y-110469000I0J-200000D01*
G01*
X122383000Y-111019000D01*
G75*
G02*
X122183000Y-111219000I-200000J0D01*
G01*
X121783000Y-111219000D01*
G75*
G02*
X121583000Y-111019000I0J200000D01*
G01*
G37*
G36*
G01*
X119933000Y-111019000D02*
X119933000Y-110469000D01*
G75*
G02*
X120133000Y-110269000I200000J0D01*
G01*
X120533000Y-110269000D01*
G75*
G02*
X120733000Y-110469000I0J-200000D01*
G01*
X120733000Y-111019000D01*
G75*
G02*
X120533000Y-111219000I-200000J0D01*
G01*
X120133000Y-111219000D01*
G75*
G02*
X119933000Y-111019000I0J200000D01*
G01*
G37*
G36*
G01*
X116415000Y-110469000D02*
X116415000Y-111019000D01*
G75*
G02*
X116215000Y-111219000I-200000J0D01*
G01*
X115815000Y-111219000D01*
G75*
G02*
X115615000Y-111019000I0J200000D01*
G01*
X115615000Y-110469000D01*
G75*
G02*
X115815000Y-110269000I200000J0D01*
G01*
X116215000Y-110269000D01*
G75*
G02*
X116415000Y-110469000I0J-200000D01*
G01*
G37*
G36*
G01*
X118065000Y-110469000D02*
X118065000Y-111019000D01*
G75*
G02*
X117865000Y-111219000I-200000J0D01*
G01*
X117465000Y-111219000D01*
G75*
G02*
X117265000Y-111019000I0J200000D01*
G01*
X117265000Y-110469000D01*
G75*
G02*
X117465000Y-110269000I200000J0D01*
G01*
X117865000Y-110269000D01*
G75*
G02*
X118065000Y-110469000I0J-200000D01*
G01*
G37*
G36*
G01*
X116415000Y-107421000D02*
X116415000Y-107971000D01*
G75*
G02*
X116215000Y-108171000I-200000J0D01*
G01*
X115815000Y-108171000D01*
G75*
G02*
X115615000Y-107971000I0J200000D01*
G01*
X115615000Y-107421000D01*
G75*
G02*
X115815000Y-107221000I200000J0D01*
G01*
X116215000Y-107221000D01*
G75*
G02*
X116415000Y-107421000I0J-200000D01*
G01*
G37*
G36*
G01*
X118065000Y-107421000D02*
X118065000Y-107971000D01*
G75*
G02*
X117865000Y-108171000I-200000J0D01*
G01*
X117465000Y-108171000D01*
G75*
G02*
X117265000Y-107971000I0J200000D01*
G01*
X117265000Y-107421000D01*
G75*
G02*
X117465000Y-107221000I200000J0D01*
G01*
X117865000Y-107221000D01*
G75*
G02*
X118065000Y-107421000I0J-200000D01*
G01*
G37*
G36*
G01*
X116415000Y-114025000D02*
X116415000Y-114575000D01*
G75*
G02*
X116215000Y-114775000I-200000J0D01*
G01*
X115815000Y-114775000D01*
G75*
G02*
X115615000Y-114575000I0J200000D01*
G01*
X115615000Y-114025000D01*
G75*
G02*
X115815000Y-113825000I200000J0D01*
G01*
X116215000Y-113825000D01*
G75*
G02*
X116415000Y-114025000I0J-200000D01*
G01*
G37*
G36*
G01*
X118065000Y-114025000D02*
X118065000Y-114575000D01*
G75*
G02*
X117865000Y-114775000I-200000J0D01*
G01*
X117465000Y-114775000D01*
G75*
G02*
X117265000Y-114575000I0J200000D01*
G01*
X117265000Y-114025000D01*
G75*
G02*
X117465000Y-113825000I200000J0D01*
G01*
X117865000Y-113825000D01*
G75*
G02*
X118065000Y-114025000I0J-200000D01*
G01*
G37*
G36*
G01*
X108375000Y-98065000D02*
X108375000Y-97515000D01*
G75*
G02*
X108575000Y-97315000I200000J0D01*
G01*
X108975000Y-97315000D01*
G75*
G02*
X109175000Y-97515000I0J-200000D01*
G01*
X109175000Y-98065000D01*
G75*
G02*
X108975000Y-98265000I-200000J0D01*
G01*
X108575000Y-98265000D01*
G75*
G02*
X108375000Y-98065000I0J200000D01*
G01*
G37*
G36*
G01*
X106725000Y-98065000D02*
X106725000Y-97515000D01*
G75*
G02*
X106925000Y-97315000I200000J0D01*
G01*
X107325000Y-97315000D01*
G75*
G02*
X107525000Y-97515000I0J-200000D01*
G01*
X107525000Y-98065000D01*
G75*
G02*
X107325000Y-98265000I-200000J0D01*
G01*
X106925000Y-98265000D01*
G75*
G02*
X106725000Y-98065000I0J200000D01*
G01*
G37*
G36*
G01*
X103207000Y-94467000D02*
X103207000Y-95017000D01*
G75*
G02*
X103007000Y-95217000I-200000J0D01*
G01*
X102607000Y-95217000D01*
G75*
G02*
X102407000Y-95017000I0J200000D01*
G01*
X102407000Y-94467000D01*
G75*
G02*
X102607000Y-94267000I200000J0D01*
G01*
X103007000Y-94267000D01*
G75*
G02*
X103207000Y-94467000I0J-200000D01*
G01*
G37*
G36*
G01*
X104857000Y-94467000D02*
X104857000Y-95017000D01*
G75*
G02*
X104657000Y-95217000I-200000J0D01*
G01*
X104257000Y-95217000D01*
G75*
G02*
X104057000Y-95017000I0J200000D01*
G01*
X104057000Y-94467000D01*
G75*
G02*
X104257000Y-94267000I200000J0D01*
G01*
X104657000Y-94267000D01*
G75*
G02*
X104857000Y-94467000I0J-200000D01*
G01*
G37*
G36*
G01*
X112439000Y-101113000D02*
X112439000Y-100563000D01*
G75*
G02*
X112639000Y-100363000I200000J0D01*
G01*
X113039000Y-100363000D01*
G75*
G02*
X113239000Y-100563000I0J-200000D01*
G01*
X113239000Y-101113000D01*
G75*
G02*
X113039000Y-101313000I-200000J0D01*
G01*
X112639000Y-101313000D01*
G75*
G02*
X112439000Y-101113000I0J200000D01*
G01*
G37*
G36*
G01*
X110789000Y-101113000D02*
X110789000Y-100563000D01*
G75*
G02*
X110989000Y-100363000I200000J0D01*
G01*
X111389000Y-100363000D01*
G75*
G02*
X111589000Y-100563000I0J-200000D01*
G01*
X111589000Y-101113000D01*
G75*
G02*
X111389000Y-101313000I-200000J0D01*
G01*
X110989000Y-101313000D01*
G75*
G02*
X110789000Y-101113000I0J200000D01*
G01*
G37*
G36*
G01*
X112439000Y-95017000D02*
X112439000Y-94467000D01*
G75*
G02*
X112639000Y-94267000I200000J0D01*
G01*
X113039000Y-94267000D01*
G75*
G02*
X113239000Y-94467000I0J-200000D01*
G01*
X113239000Y-95017000D01*
G75*
G02*
X113039000Y-95217000I-200000J0D01*
G01*
X112639000Y-95217000D01*
G75*
G02*
X112439000Y-95017000I0J200000D01*
G01*
G37*
G36*
G01*
X110789000Y-95017000D02*
X110789000Y-94467000D01*
G75*
G02*
X110989000Y-94267000I200000J0D01*
G01*
X111389000Y-94267000D01*
G75*
G02*
X111589000Y-94467000I0J-200000D01*
G01*
X111589000Y-95017000D01*
G75*
G02*
X111389000Y-95217000I-200000J0D01*
G01*
X110989000Y-95217000D01*
G75*
G02*
X110789000Y-95017000I0J200000D01*
G01*
G37*
G36*
G01*
X108375000Y-95017000D02*
X108375000Y-94467000D01*
G75*
G02*
X108575000Y-94267000I200000J0D01*
G01*
X108975000Y-94267000D01*
G75*
G02*
X109175000Y-94467000I0J-200000D01*
G01*
X109175000Y-95017000D01*
G75*
G02*
X108975000Y-95217000I-200000J0D01*
G01*
X108575000Y-95217000D01*
G75*
G02*
X108375000Y-95017000I0J200000D01*
G01*
G37*
G36*
G01*
X106725000Y-95017000D02*
X106725000Y-94467000D01*
G75*
G02*
X106925000Y-94267000I200000J0D01*
G01*
X107325000Y-94267000D01*
G75*
G02*
X107525000Y-94467000I0J-200000D01*
G01*
X107525000Y-95017000D01*
G75*
G02*
X107325000Y-95217000I-200000J0D01*
G01*
X106925000Y-95217000D01*
G75*
G02*
X106725000Y-95017000I0J200000D01*
G01*
G37*
G36*
G01*
X139871000Y-81301000D02*
X139871000Y-80751000D01*
G75*
G02*
X140071000Y-80551000I200000J0D01*
G01*
X140471000Y-80551000D01*
G75*
G02*
X140671000Y-80751000I0J-200000D01*
G01*
X140671000Y-81301000D01*
G75*
G02*
X140471000Y-81501000I-200000J0D01*
G01*
X140071000Y-81501000D01*
G75*
G02*
X139871000Y-81301000I0J200000D01*
G01*
G37*
G36*
G01*
X138221000Y-81301000D02*
X138221000Y-80751000D01*
G75*
G02*
X138421000Y-80551000I200000J0D01*
G01*
X138821000Y-80551000D01*
G75*
G02*
X139021000Y-80751000I0J-200000D01*
G01*
X139021000Y-81301000D01*
G75*
G02*
X138821000Y-81501000I-200000J0D01*
G01*
X138421000Y-81501000D01*
G75*
G02*
X138221000Y-81301000I0J200000D01*
G01*
G37*
G36*
G01*
X121495000Y-94467000D02*
X121495000Y-95017000D01*
G75*
G02*
X121295000Y-95217000I-200000J0D01*
G01*
X120895000Y-95217000D01*
G75*
G02*
X120695000Y-95017000I0J200000D01*
G01*
X120695000Y-94467000D01*
G75*
G02*
X120895000Y-94267000I200000J0D01*
G01*
X121295000Y-94267000D01*
G75*
G02*
X121495000Y-94467000I0J-200000D01*
G01*
G37*
G36*
G01*
X123145000Y-94467000D02*
X123145000Y-95017000D01*
G75*
G02*
X122945000Y-95217000I-200000J0D01*
G01*
X122545000Y-95217000D01*
G75*
G02*
X122345000Y-95017000I0J200000D01*
G01*
X122345000Y-94467000D01*
G75*
G02*
X122545000Y-94267000I200000J0D01*
G01*
X122945000Y-94267000D01*
G75*
G02*
X123145000Y-94467000I0J-200000D01*
G01*
G37*
G36*
G01*
X118154000Y-79777000D02*
X118154000Y-79227000D01*
G75*
G02*
X118354000Y-79027000I200000J0D01*
G01*
X118754000Y-79027000D01*
G75*
G02*
X118954000Y-79227000I0J-200000D01*
G01*
X118954000Y-79777000D01*
G75*
G02*
X118754000Y-79977000I-200000J0D01*
G01*
X118354000Y-79977000D01*
G75*
G02*
X118154000Y-79777000I0J200000D01*
G01*
G37*
G36*
G01*
X116504000Y-79777000D02*
X116504000Y-79227000D01*
G75*
G02*
X116704000Y-79027000I200000J0D01*
G01*
X117104000Y-79027000D01*
G75*
G02*
X117304000Y-79227000I0J-200000D01*
G01*
X117304000Y-79777000D01*
G75*
G02*
X117104000Y-79977000I-200000J0D01*
G01*
X116704000Y-79977000D01*
G75*
G02*
X116504000Y-79777000I0J200000D01*
G01*
G37*
G36*
G01*
X139021000Y-74655000D02*
X139021000Y-75205000D01*
G75*
G02*
X138821000Y-75405000I-200000J0D01*
G01*
X138421000Y-75405000D01*
G75*
G02*
X138221000Y-75205000I0J200000D01*
G01*
X138221000Y-74655000D01*
G75*
G02*
X138421000Y-74455000I200000J0D01*
G01*
X138821000Y-74455000D01*
G75*
G02*
X139021000Y-74655000I0J-200000D01*
G01*
G37*
G36*
G01*
X140671000Y-74655000D02*
X140671000Y-75205000D01*
G75*
G02*
X140471000Y-75405000I-200000J0D01*
G01*
X140071000Y-75405000D01*
G75*
G02*
X139871000Y-75205000I0J200000D01*
G01*
X139871000Y-74655000D01*
G75*
G02*
X140071000Y-74455000I200000J0D01*
G01*
X140471000Y-74455000D01*
G75*
G02*
X140671000Y-74655000I0J-200000D01*
G01*
G37*
G36*
G01*
X139021000Y-71607000D02*
X139021000Y-72157000D01*
G75*
G02*
X138821000Y-72357000I-200000J0D01*
G01*
X138421000Y-72357000D01*
G75*
G02*
X138221000Y-72157000I0J200000D01*
G01*
X138221000Y-71607000D01*
G75*
G02*
X138421000Y-71407000I200000J0D01*
G01*
X138821000Y-71407000D01*
G75*
G02*
X139021000Y-71607000I0J-200000D01*
G01*
G37*
G36*
G01*
X140671000Y-71607000D02*
X140671000Y-72157000D01*
G75*
G02*
X140471000Y-72357000I-200000J0D01*
G01*
X140071000Y-72357000D01*
G75*
G02*
X139871000Y-72157000I0J200000D01*
G01*
X139871000Y-71607000D01*
G75*
G02*
X140071000Y-71407000I200000J0D01*
G01*
X140471000Y-71407000D01*
G75*
G02*
X140671000Y-71607000I0J-200000D01*
G01*
G37*
G36*
G01*
X139021000Y-77703000D02*
X139021000Y-78253000D01*
G75*
G02*
X138821000Y-78453000I-200000J0D01*
G01*
X138421000Y-78453000D01*
G75*
G02*
X138221000Y-78253000I0J200000D01*
G01*
X138221000Y-77703000D01*
G75*
G02*
X138421000Y-77503000I200000J0D01*
G01*
X138821000Y-77503000D01*
G75*
G02*
X139021000Y-77703000I0J-200000D01*
G01*
G37*
G36*
G01*
X140671000Y-77703000D02*
X140671000Y-78253000D01*
G75*
G02*
X140471000Y-78453000I-200000J0D01*
G01*
X140071000Y-78453000D01*
G75*
G02*
X139871000Y-78253000I0J200000D01*
G01*
X139871000Y-77703000D01*
G75*
G02*
X140071000Y-77503000I200000J0D01*
G01*
X140471000Y-77503000D01*
G75*
G02*
X140671000Y-77703000I0J-200000D01*
G01*
G37*
G36*
G01*
X121495000Y-103611000D02*
X121495000Y-104161000D01*
G75*
G02*
X121295000Y-104361000I-200000J0D01*
G01*
X120895000Y-104361000D01*
G75*
G02*
X120695000Y-104161000I0J200000D01*
G01*
X120695000Y-103611000D01*
G75*
G02*
X120895000Y-103411000I200000J0D01*
G01*
X121295000Y-103411000D01*
G75*
G02*
X121495000Y-103611000I0J-200000D01*
G01*
G37*
G36*
G01*
X123145000Y-103611000D02*
X123145000Y-104161000D01*
G75*
G02*
X122945000Y-104361000I-200000J0D01*
G01*
X122545000Y-104361000D01*
G75*
G02*
X122345000Y-104161000I0J200000D01*
G01*
X122345000Y-103611000D01*
G75*
G02*
X122545000Y-103411000I200000J0D01*
G01*
X122945000Y-103411000D01*
G75*
G02*
X123145000Y-103611000I0J-200000D01*
G01*
G37*
G36*
G01*
X121495000Y-100563000D02*
X121495000Y-101113000D01*
G75*
G02*
X121295000Y-101313000I-200000J0D01*
G01*
X120895000Y-101313000D01*
G75*
G02*
X120695000Y-101113000I0J200000D01*
G01*
X120695000Y-100563000D01*
G75*
G02*
X120895000Y-100363000I200000J0D01*
G01*
X121295000Y-100363000D01*
G75*
G02*
X121495000Y-100563000I0J-200000D01*
G01*
G37*
G36*
G01*
X123145000Y-100563000D02*
X123145000Y-101113000D01*
G75*
G02*
X122945000Y-101313000I-200000J0D01*
G01*
X122545000Y-101313000D01*
G75*
G02*
X122345000Y-101113000I0J200000D01*
G01*
X122345000Y-100563000D01*
G75*
G02*
X122545000Y-100363000I200000J0D01*
G01*
X122945000Y-100363000D01*
G75*
G02*
X123145000Y-100563000I0J-200000D01*
G01*
G37*
G36*
G01*
X122345000Y-98065000D02*
X122345000Y-97515000D01*
G75*
G02*
X122545000Y-97315000I200000J0D01*
G01*
X122945000Y-97315000D01*
G75*
G02*
X123145000Y-97515000I0J-200000D01*
G01*
X123145000Y-98065000D01*
G75*
G02*
X122945000Y-98265000I-200000J0D01*
G01*
X122545000Y-98265000D01*
G75*
G02*
X122345000Y-98065000I0J200000D01*
G01*
G37*
G36*
G01*
X120695000Y-98065000D02*
X120695000Y-97515000D01*
G75*
G02*
X120895000Y-97315000I200000J0D01*
G01*
X121295000Y-97315000D01*
G75*
G02*
X121495000Y-97515000I0J-200000D01*
G01*
X121495000Y-98065000D01*
G75*
G02*
X121295000Y-98265000I-200000J0D01*
G01*
X120895000Y-98265000D01*
G75*
G02*
X120695000Y-98065000I0J200000D01*
G01*
G37*
G36*
G01*
X117304000Y-74655000D02*
X117304000Y-75205000D01*
G75*
G02*
X117104000Y-75405000I-200000J0D01*
G01*
X116704000Y-75405000D01*
G75*
G02*
X116504000Y-75205000I0J200000D01*
G01*
X116504000Y-74655000D01*
G75*
G02*
X116704000Y-74455000I200000J0D01*
G01*
X117104000Y-74455000D01*
G75*
G02*
X117304000Y-74655000I0J-200000D01*
G01*
G37*
G36*
G01*
X118954000Y-74655000D02*
X118954000Y-75205000D01*
G75*
G02*
X118754000Y-75405000I-200000J0D01*
G01*
X118354000Y-75405000D01*
G75*
G02*
X118154000Y-75205000I0J200000D01*
G01*
X118154000Y-74655000D01*
G75*
G02*
X118354000Y-74455000I200000J0D01*
G01*
X118754000Y-74455000D01*
G75*
G02*
X118954000Y-74655000I0J-200000D01*
G01*
G37*
G36*
G01*
X117304000Y-68051000D02*
X117304000Y-68601000D01*
G75*
G02*
X117104000Y-68801000I-200000J0D01*
G01*
X116704000Y-68801000D01*
G75*
G02*
X116504000Y-68601000I0J200000D01*
G01*
X116504000Y-68051000D01*
G75*
G02*
X116704000Y-67851000I200000J0D01*
G01*
X117104000Y-67851000D01*
G75*
G02*
X117304000Y-68051000I0J-200000D01*
G01*
G37*
G36*
G01*
X118954000Y-68051000D02*
X118954000Y-68601000D01*
G75*
G02*
X118754000Y-68801000I-200000J0D01*
G01*
X118354000Y-68801000D01*
G75*
G02*
X118154000Y-68601000I0J200000D01*
G01*
X118154000Y-68051000D01*
G75*
G02*
X118354000Y-67851000I200000J0D01*
G01*
X118754000Y-67851000D01*
G75*
G02*
X118954000Y-68051000I0J-200000D01*
G01*
G37*
G36*
G01*
X117304000Y-71353000D02*
X117304000Y-71903000D01*
G75*
G02*
X117104000Y-72103000I-200000J0D01*
G01*
X116704000Y-72103000D01*
G75*
G02*
X116504000Y-71903000I0J200000D01*
G01*
X116504000Y-71353000D01*
G75*
G02*
X116704000Y-71153000I200000J0D01*
G01*
X117104000Y-71153000D01*
G75*
G02*
X117304000Y-71353000I0J-200000D01*
G01*
G37*
G36*
G01*
X118954000Y-71353000D02*
X118954000Y-71903000D01*
G75*
G02*
X118754000Y-72103000I-200000J0D01*
G01*
X118354000Y-72103000D01*
G75*
G02*
X118154000Y-71903000I0J200000D01*
G01*
X118154000Y-71353000D01*
G75*
G02*
X118354000Y-71153000I200000J0D01*
G01*
X118754000Y-71153000D01*
G75*
G02*
X118954000Y-71353000I0J-200000D01*
G01*
G37*
G36*
G01*
X133687000Y-106659000D02*
X133687000Y-107209000D01*
G75*
G02*
X133487000Y-107409000I-200000J0D01*
G01*
X133087000Y-107409000D01*
G75*
G02*
X132887000Y-107209000I0J200000D01*
G01*
X132887000Y-106659000D01*
G75*
G02*
X133087000Y-106459000I200000J0D01*
G01*
X133487000Y-106459000D01*
G75*
G02*
X133687000Y-106659000I0J-200000D01*
G01*
G37*
G36*
G01*
X135337000Y-106659000D02*
X135337000Y-107209000D01*
G75*
G02*
X135137000Y-107409000I-200000J0D01*
G01*
X134737000Y-107409000D01*
G75*
G02*
X134537000Y-107209000I0J200000D01*
G01*
X134537000Y-106659000D01*
G75*
G02*
X134737000Y-106459000I200000J0D01*
G01*
X135137000Y-106459000D01*
G75*
G02*
X135337000Y-106659000I0J-200000D01*
G01*
G37*
G36*
G01*
X134537000Y-68601000D02*
X134537000Y-68051000D01*
G75*
G02*
X134737000Y-67851000I200000J0D01*
G01*
X135137000Y-67851000D01*
G75*
G02*
X135337000Y-68051000I0J-200000D01*
G01*
X135337000Y-68601000D01*
G75*
G02*
X135137000Y-68801000I-200000J0D01*
G01*
X134737000Y-68801000D01*
G75*
G02*
X134537000Y-68601000I0J200000D01*
G01*
G37*
G36*
G01*
X132887000Y-68601000D02*
X132887000Y-68051000D01*
G75*
G02*
X133087000Y-67851000I200000J0D01*
G01*
X133487000Y-67851000D01*
G75*
G02*
X133687000Y-68051000I0J-200000D01*
G01*
X133687000Y-68601000D01*
G75*
G02*
X133487000Y-68801000I-200000J0D01*
G01*
X133087000Y-68801000D01*
G75*
G02*
X132887000Y-68601000I0J200000D01*
G01*
G37*
G36*
G01*
X111423000Y-68601000D02*
X111423000Y-68051000D01*
G75*
G02*
X111623000Y-67851000I200000J0D01*
G01*
X112023000Y-67851000D01*
G75*
G02*
X112223000Y-68051000I0J-200000D01*
G01*
X112223000Y-68601000D01*
G75*
G02*
X112023000Y-68801000I-200000J0D01*
G01*
X111623000Y-68801000D01*
G75*
G02*
X111423000Y-68601000I0J200000D01*
G01*
G37*
G36*
G01*
X109773000Y-68601000D02*
X109773000Y-68051000D01*
G75*
G02*
X109973000Y-67851000I200000J0D01*
G01*
X110373000Y-67851000D01*
G75*
G02*
X110573000Y-68051000I0J-200000D01*
G01*
X110573000Y-68601000D01*
G75*
G02*
X110373000Y-68801000I-200000J0D01*
G01*
X109973000Y-68801000D01*
G75*
G02*
X109773000Y-68601000I0J200000D01*
G01*
G37*
G36*
G01*
X134537000Y-95017000D02*
X134537000Y-94467000D01*
G75*
G02*
X134737000Y-94267000I200000J0D01*
G01*
X135137000Y-94267000D01*
G75*
G02*
X135337000Y-94467000I0J-200000D01*
G01*
X135337000Y-95017000D01*
G75*
G02*
X135137000Y-95217000I-200000J0D01*
G01*
X134737000Y-95217000D01*
G75*
G02*
X134537000Y-95017000I0J200000D01*
G01*
G37*
G36*
G01*
X132887000Y-95017000D02*
X132887000Y-94467000D01*
G75*
G02*
X133087000Y-94267000I200000J0D01*
G01*
X133487000Y-94267000D01*
G75*
G02*
X133687000Y-94467000I0J-200000D01*
G01*
X133687000Y-95017000D01*
G75*
G02*
X133487000Y-95217000I-200000J0D01*
G01*
X133087000Y-95217000D01*
G75*
G02*
X132887000Y-95017000I0J200000D01*
G01*
G37*
G36*
G01*
X133687000Y-80751000D02*
X133687000Y-81301000D01*
G75*
G02*
X133487000Y-81501000I-200000J0D01*
G01*
X133087000Y-81501000D01*
G75*
G02*
X132887000Y-81301000I0J200000D01*
G01*
X132887000Y-80751000D01*
G75*
G02*
X133087000Y-80551000I200000J0D01*
G01*
X133487000Y-80551000D01*
G75*
G02*
X133687000Y-80751000I0J-200000D01*
G01*
G37*
G36*
G01*
X135337000Y-80751000D02*
X135337000Y-81301000D01*
G75*
G02*
X135137000Y-81501000I-200000J0D01*
G01*
X134737000Y-81501000D01*
G75*
G02*
X134537000Y-81301000I0J200000D01*
G01*
X134537000Y-80751000D01*
G75*
G02*
X134737000Y-80551000I200000J0D01*
G01*
X135137000Y-80551000D01*
G75*
G02*
X135337000Y-80751000I0J-200000D01*
G01*
G37*
G36*
G01*
X110573000Y-80751000D02*
X110573000Y-81301000D01*
G75*
G02*
X110373000Y-81501000I-200000J0D01*
G01*
X109973000Y-81501000D01*
G75*
G02*
X109773000Y-81301000I0J200000D01*
G01*
X109773000Y-80751000D01*
G75*
G02*
X109973000Y-80551000I200000J0D01*
G01*
X110373000Y-80551000D01*
G75*
G02*
X110573000Y-80751000I0J-200000D01*
G01*
G37*
G36*
G01*
X112223000Y-80751000D02*
X112223000Y-81301000D01*
G75*
G02*
X112023000Y-81501000I-200000J0D01*
G01*
X111623000Y-81501000D01*
G75*
G02*
X111423000Y-81301000I0J200000D01*
G01*
X111423000Y-80751000D01*
G75*
G02*
X111623000Y-80551000I200000J0D01*
G01*
X112023000Y-80551000D01*
G75*
G02*
X112223000Y-80751000I0J-200000D01*
G01*
G37*
G36*
G01*
X134537000Y-101113000D02*
X134537000Y-100563000D01*
G75*
G02*
X134737000Y-100363000I200000J0D01*
G01*
X135137000Y-100363000D01*
G75*
G02*
X135337000Y-100563000I0J-200000D01*
G01*
X135337000Y-101113000D01*
G75*
G02*
X135137000Y-101313000I-200000J0D01*
G01*
X134737000Y-101313000D01*
G75*
G02*
X134537000Y-101113000I0J200000D01*
G01*
G37*
G36*
G01*
X132887000Y-101113000D02*
X132887000Y-100563000D01*
G75*
G02*
X133087000Y-100363000I200000J0D01*
G01*
X133487000Y-100363000D01*
G75*
G02*
X133687000Y-100563000I0J-200000D01*
G01*
X133687000Y-101113000D01*
G75*
G02*
X133487000Y-101313000I-200000J0D01*
G01*
X133087000Y-101313000D01*
G75*
G02*
X132887000Y-101113000I0J200000D01*
G01*
G37*
G36*
G01*
X133687000Y-74655000D02*
X133687000Y-75205000D01*
G75*
G02*
X133487000Y-75405000I-200000J0D01*
G01*
X133087000Y-75405000D01*
G75*
G02*
X132887000Y-75205000I0J200000D01*
G01*
X132887000Y-74655000D01*
G75*
G02*
X133087000Y-74455000I200000J0D01*
G01*
X133487000Y-74455000D01*
G75*
G02*
X133687000Y-74655000I0J-200000D01*
G01*
G37*
G36*
G01*
X135337000Y-74655000D02*
X135337000Y-75205000D01*
G75*
G02*
X135137000Y-75405000I-200000J0D01*
G01*
X134737000Y-75405000D01*
G75*
G02*
X134537000Y-75205000I0J200000D01*
G01*
X134537000Y-74655000D01*
G75*
G02*
X134737000Y-74455000I200000J0D01*
G01*
X135137000Y-74455000D01*
G75*
G02*
X135337000Y-74655000I0J-200000D01*
G01*
G37*
G36*
G01*
X110573000Y-74655000D02*
X110573000Y-75205000D01*
G75*
G02*
X110373000Y-75405000I-200000J0D01*
G01*
X109973000Y-75405000D01*
G75*
G02*
X109773000Y-75205000I0J200000D01*
G01*
X109773000Y-74655000D01*
G75*
G02*
X109973000Y-74455000I200000J0D01*
G01*
X110373000Y-74455000D01*
G75*
G02*
X110573000Y-74655000I0J-200000D01*
G01*
G37*
G36*
G01*
X112223000Y-74655000D02*
X112223000Y-75205000D01*
G75*
G02*
X112023000Y-75405000I-200000J0D01*
G01*
X111623000Y-75405000D01*
G75*
G02*
X111423000Y-75205000I0J200000D01*
G01*
X111423000Y-74655000D01*
G75*
G02*
X111623000Y-74455000I200000J0D01*
G01*
X112023000Y-74455000D01*
G75*
G02*
X112223000Y-74655000I0J-200000D01*
G01*
G37*
G36*
G01*
X134537000Y-104161000D02*
X134537000Y-103611000D01*
G75*
G02*
X134737000Y-103411000I200000J0D01*
G01*
X135137000Y-103411000D01*
G75*
G02*
X135337000Y-103611000I0J-200000D01*
G01*
X135337000Y-104161000D01*
G75*
G02*
X135137000Y-104361000I-200000J0D01*
G01*
X134737000Y-104361000D01*
G75*
G02*
X134537000Y-104161000I0J200000D01*
G01*
G37*
G36*
G01*
X132887000Y-104161000D02*
X132887000Y-103611000D01*
G75*
G02*
X133087000Y-103411000I200000J0D01*
G01*
X133487000Y-103411000D01*
G75*
G02*
X133687000Y-103611000I0J-200000D01*
G01*
X133687000Y-104161000D01*
G75*
G02*
X133487000Y-104361000I-200000J0D01*
G01*
X133087000Y-104361000D01*
G75*
G02*
X132887000Y-104161000I0J200000D01*
G01*
G37*
G36*
G01*
X133687000Y-71353000D02*
X133687000Y-71903000D01*
G75*
G02*
X133487000Y-72103000I-200000J0D01*
G01*
X133087000Y-72103000D01*
G75*
G02*
X132887000Y-71903000I0J200000D01*
G01*
X132887000Y-71353000D01*
G75*
G02*
X133087000Y-71153000I200000J0D01*
G01*
X133487000Y-71153000D01*
G75*
G02*
X133687000Y-71353000I0J-200000D01*
G01*
G37*
G36*
G01*
X135337000Y-71353000D02*
X135337000Y-71903000D01*
G75*
G02*
X135137000Y-72103000I-200000J0D01*
G01*
X134737000Y-72103000D01*
G75*
G02*
X134537000Y-71903000I0J200000D01*
G01*
X134537000Y-71353000D01*
G75*
G02*
X134737000Y-71153000I200000J0D01*
G01*
X135137000Y-71153000D01*
G75*
G02*
X135337000Y-71353000I0J-200000D01*
G01*
G37*
G36*
G01*
X110573000Y-71353000D02*
X110573000Y-71903000D01*
G75*
G02*
X110373000Y-72103000I-200000J0D01*
G01*
X109973000Y-72103000D01*
G75*
G02*
X109773000Y-71903000I0J200000D01*
G01*
X109773000Y-71353000D01*
G75*
G02*
X109973000Y-71153000I200000J0D01*
G01*
X110373000Y-71153000D01*
G75*
G02*
X110573000Y-71353000I0J-200000D01*
G01*
G37*
G36*
G01*
X112223000Y-71353000D02*
X112223000Y-71903000D01*
G75*
G02*
X112023000Y-72103000I-200000J0D01*
G01*
X111623000Y-72103000D01*
G75*
G02*
X111423000Y-71903000I0J200000D01*
G01*
X111423000Y-71353000D01*
G75*
G02*
X111623000Y-71153000I200000J0D01*
G01*
X112023000Y-71153000D01*
G75*
G02*
X112223000Y-71353000I0J-200000D01*
G01*
G37*
G36*
G01*
X127083000Y-103611000D02*
X127083000Y-104161000D01*
G75*
G02*
X126883000Y-104361000I-200000J0D01*
G01*
X126483000Y-104361000D01*
G75*
G02*
X126283000Y-104161000I0J200000D01*
G01*
X126283000Y-103611000D01*
G75*
G02*
X126483000Y-103411000I200000J0D01*
G01*
X126883000Y-103411000D01*
G75*
G02*
X127083000Y-103611000I0J-200000D01*
G01*
G37*
G36*
G01*
X128733000Y-103611000D02*
X128733000Y-104161000D01*
G75*
G02*
X128533000Y-104361000I-200000J0D01*
G01*
X128133000Y-104361000D01*
G75*
G02*
X127933000Y-104161000I0J200000D01*
G01*
X127933000Y-103611000D01*
G75*
G02*
X128133000Y-103411000I200000J0D01*
G01*
X128533000Y-103411000D01*
G75*
G02*
X128733000Y-103611000I0J-200000D01*
G01*
G37*
G36*
G01*
X128226000Y-71353000D02*
X128226000Y-71903000D01*
G75*
G02*
X128026000Y-72103000I-200000J0D01*
G01*
X127626000Y-72103000D01*
G75*
G02*
X127426000Y-71903000I0J200000D01*
G01*
X127426000Y-71353000D01*
G75*
G02*
X127626000Y-71153000I200000J0D01*
G01*
X128026000Y-71153000D01*
G75*
G02*
X128226000Y-71353000I0J-200000D01*
G01*
G37*
G36*
G01*
X129876000Y-71353000D02*
X129876000Y-71903000D01*
G75*
G02*
X129676000Y-72103000I-200000J0D01*
G01*
X129276000Y-72103000D01*
G75*
G02*
X129076000Y-71903000I0J200000D01*
G01*
X129076000Y-71353000D01*
G75*
G02*
X129276000Y-71153000I200000J0D01*
G01*
X129676000Y-71153000D01*
G75*
G02*
X129876000Y-71353000I0J-200000D01*
G01*
G37*
G36*
G01*
X105327000Y-71903000D02*
X105327000Y-71353000D01*
G75*
G02*
X105527000Y-71153000I200000J0D01*
G01*
X105927000Y-71153000D01*
G75*
G02*
X106127000Y-71353000I0J-200000D01*
G01*
X106127000Y-71903000D01*
G75*
G02*
X105927000Y-72103000I-200000J0D01*
G01*
X105527000Y-72103000D01*
G75*
G02*
X105327000Y-71903000I0J200000D01*
G01*
G37*
G36*
G01*
X103677000Y-71903000D02*
X103677000Y-71353000D01*
G75*
G02*
X103877000Y-71153000I200000J0D01*
G01*
X104277000Y-71153000D01*
G75*
G02*
X104477000Y-71353000I0J-200000D01*
G01*
X104477000Y-71903000D01*
G75*
G02*
X104277000Y-72103000I-200000J0D01*
G01*
X103877000Y-72103000D01*
G75*
G02*
X103677000Y-71903000I0J200000D01*
G01*
G37*
G36*
G01*
X127933000Y-95017000D02*
X127933000Y-94467000D01*
G75*
G02*
X128133000Y-94267000I200000J0D01*
G01*
X128533000Y-94267000D01*
G75*
G02*
X128733000Y-94467000I0J-200000D01*
G01*
X128733000Y-95017000D01*
G75*
G02*
X128533000Y-95217000I-200000J0D01*
G01*
X128133000Y-95217000D01*
G75*
G02*
X127933000Y-95017000I0J200000D01*
G01*
G37*
G36*
G01*
X126283000Y-95017000D02*
X126283000Y-94467000D01*
G75*
G02*
X126483000Y-94267000I200000J0D01*
G01*
X126883000Y-94267000D01*
G75*
G02*
X127083000Y-94467000I0J-200000D01*
G01*
X127083000Y-95017000D01*
G75*
G02*
X126883000Y-95217000I-200000J0D01*
G01*
X126483000Y-95217000D01*
G75*
G02*
X126283000Y-95017000I0J200000D01*
G01*
G37*
G36*
G01*
X129076000Y-81301000D02*
X129076000Y-80751000D01*
G75*
G02*
X129276000Y-80551000I200000J0D01*
G01*
X129676000Y-80551000D01*
G75*
G02*
X129876000Y-80751000I0J-200000D01*
G01*
X129876000Y-81301000D01*
G75*
G02*
X129676000Y-81501000I-200000J0D01*
G01*
X129276000Y-81501000D01*
G75*
G02*
X129076000Y-81301000I0J200000D01*
G01*
G37*
G36*
G01*
X127426000Y-81301000D02*
X127426000Y-80751000D01*
G75*
G02*
X127626000Y-80551000I200000J0D01*
G01*
X128026000Y-80551000D01*
G75*
G02*
X128226000Y-80751000I0J-200000D01*
G01*
X128226000Y-81301000D01*
G75*
G02*
X128026000Y-81501000I-200000J0D01*
G01*
X127626000Y-81501000D01*
G75*
G02*
X127426000Y-81301000I0J200000D01*
G01*
G37*
G36*
G01*
X105327000Y-81301000D02*
X105327000Y-80751000D01*
G75*
G02*
X105527000Y-80551000I200000J0D01*
G01*
X105927000Y-80551000D01*
G75*
G02*
X106127000Y-80751000I0J-200000D01*
G01*
X106127000Y-81301000D01*
G75*
G02*
X105927000Y-81501000I-200000J0D01*
G01*
X105527000Y-81501000D01*
G75*
G02*
X105327000Y-81301000I0J200000D01*
G01*
G37*
G36*
G01*
X103677000Y-81301000D02*
X103677000Y-80751000D01*
G75*
G02*
X103877000Y-80551000I200000J0D01*
G01*
X104277000Y-80551000D01*
G75*
G02*
X104477000Y-80751000I0J-200000D01*
G01*
X104477000Y-81301000D01*
G75*
G02*
X104277000Y-81501000I-200000J0D01*
G01*
X103877000Y-81501000D01*
G75*
G02*
X103677000Y-81301000I0J200000D01*
G01*
G37*
G36*
G01*
X127083000Y-100563000D02*
X127083000Y-101113000D01*
G75*
G02*
X126883000Y-101313000I-200000J0D01*
G01*
X126483000Y-101313000D01*
G75*
G02*
X126283000Y-101113000I0J200000D01*
G01*
X126283000Y-100563000D01*
G75*
G02*
X126483000Y-100363000I200000J0D01*
G01*
X126883000Y-100363000D01*
G75*
G02*
X127083000Y-100563000I0J-200000D01*
G01*
G37*
G36*
G01*
X128733000Y-100563000D02*
X128733000Y-101113000D01*
G75*
G02*
X128533000Y-101313000I-200000J0D01*
G01*
X128133000Y-101313000D01*
G75*
G02*
X127933000Y-101113000I0J200000D01*
G01*
X127933000Y-100563000D01*
G75*
G02*
X128133000Y-100363000I200000J0D01*
G01*
X128533000Y-100363000D01*
G75*
G02*
X128733000Y-100563000I0J-200000D01*
G01*
G37*
G36*
G01*
X129076000Y-75205000D02*
X129076000Y-74655000D01*
G75*
G02*
X129276000Y-74455000I200000J0D01*
G01*
X129676000Y-74455000D01*
G75*
G02*
X129876000Y-74655000I0J-200000D01*
G01*
X129876000Y-75205000D01*
G75*
G02*
X129676000Y-75405000I-200000J0D01*
G01*
X129276000Y-75405000D01*
G75*
G02*
X129076000Y-75205000I0J200000D01*
G01*
G37*
G36*
G01*
X127426000Y-75205000D02*
X127426000Y-74655000D01*
G75*
G02*
X127626000Y-74455000I200000J0D01*
G01*
X128026000Y-74455000D01*
G75*
G02*
X128226000Y-74655000I0J-200000D01*
G01*
X128226000Y-75205000D01*
G75*
G02*
X128026000Y-75405000I-200000J0D01*
G01*
X127626000Y-75405000D01*
G75*
G02*
X127426000Y-75205000I0J200000D01*
G01*
G37*
G36*
G01*
X104477000Y-74655000D02*
X104477000Y-75205000D01*
G75*
G02*
X104277000Y-75405000I-200000J0D01*
G01*
X103877000Y-75405000D01*
G75*
G02*
X103677000Y-75205000I0J200000D01*
G01*
X103677000Y-74655000D01*
G75*
G02*
X103877000Y-74455000I200000J0D01*
G01*
X104277000Y-74455000D01*
G75*
G02*
X104477000Y-74655000I0J-200000D01*
G01*
G37*
G36*
G01*
X106127000Y-74655000D02*
X106127000Y-75205000D01*
G75*
G02*
X105927000Y-75405000I-200000J0D01*
G01*
X105527000Y-75405000D01*
G75*
G02*
X105327000Y-75205000I0J200000D01*
G01*
X105327000Y-74655000D01*
G75*
G02*
X105527000Y-74455000I200000J0D01*
G01*
X105927000Y-74455000D01*
G75*
G02*
X106127000Y-74655000I0J-200000D01*
G01*
G37*
G36*
G01*
X146832000Y-79862000D02*
X146832000Y-80412000D01*
G75*
G02*
X146632000Y-80612000I-200000J0D01*
G01*
X146232000Y-80612000D01*
G75*
G02*
X146032000Y-80412000I0J200000D01*
G01*
X146032000Y-79862000D01*
G75*
G02*
X146232000Y-79662000I200000J0D01*
G01*
X146632000Y-79662000D01*
G75*
G02*
X146832000Y-79862000I0J-200000D01*
G01*
G37*
G36*
G01*
X148482000Y-79862000D02*
X148482000Y-80412000D01*
G75*
G02*
X148282000Y-80612000I-200000J0D01*
G01*
X147882000Y-80612000D01*
G75*
G02*
X147682000Y-80412000I0J200000D01*
G01*
X147682000Y-79862000D01*
G75*
G02*
X147882000Y-79662000I200000J0D01*
G01*
X148282000Y-79662000D01*
G75*
G02*
X148482000Y-79862000I0J-200000D01*
G01*
G37*
G36*
G01*
X143617000Y-68601000D02*
X143617000Y-68051000D01*
G75*
G02*
X143817000Y-67851000I200000J0D01*
G01*
X144217000Y-67851000D01*
G75*
G02*
X144417000Y-68051000I0J-200000D01*
G01*
X144417000Y-68601000D01*
G75*
G02*
X144217000Y-68801000I-200000J0D01*
G01*
X143817000Y-68801000D01*
G75*
G02*
X143617000Y-68601000I0J200000D01*
G01*
G37*
G36*
G01*
X141967000Y-68601000D02*
X141967000Y-68051000D01*
G75*
G02*
X142167000Y-67851000I200000J0D01*
G01*
X142567000Y-67851000D01*
G75*
G02*
X142767000Y-68051000I0J-200000D01*
G01*
X142767000Y-68601000D01*
G75*
G02*
X142567000Y-68801000I-200000J0D01*
G01*
X142167000Y-68801000D01*
G75*
G02*
X141967000Y-68601000I0J200000D01*
G01*
G37*
G36*
G01*
X95104000Y-95017000D02*
X95104000Y-94467000D01*
G75*
G02*
X95304000Y-94267000I200000J0D01*
G01*
X95704000Y-94267000D01*
G75*
G02*
X95904000Y-94467000I0J-200000D01*
G01*
X95904000Y-95017000D01*
G75*
G02*
X95704000Y-95217000I-200000J0D01*
G01*
X95304000Y-95217000D01*
G75*
G02*
X95104000Y-95017000I0J200000D01*
G01*
G37*
G36*
G01*
X93454000Y-95017000D02*
X93454000Y-94467000D01*
G75*
G02*
X93654000Y-94267000I200000J0D01*
G01*
X94054000Y-94267000D01*
G75*
G02*
X94254000Y-94467000I0J-200000D01*
G01*
X94254000Y-95017000D01*
G75*
G02*
X94054000Y-95217000I-200000J0D01*
G01*
X93654000Y-95217000D01*
G75*
G02*
X93454000Y-95017000I0J200000D01*
G01*
G37*
G36*
G01*
X98723000Y-95017000D02*
X98723000Y-94467000D01*
G75*
G02*
X98923000Y-94267000I200000J0D01*
G01*
X99323000Y-94267000D01*
G75*
G02*
X99523000Y-94467000I0J-200000D01*
G01*
X99523000Y-95017000D01*
G75*
G02*
X99323000Y-95217000I-200000J0D01*
G01*
X98923000Y-95217000D01*
G75*
G02*
X98723000Y-95017000I0J200000D01*
G01*
G37*
G36*
G01*
X97073000Y-95017000D02*
X97073000Y-94467000D01*
G75*
G02*
X97273000Y-94267000I200000J0D01*
G01*
X97673000Y-94267000D01*
G75*
G02*
X97873000Y-94467000I0J-200000D01*
G01*
X97873000Y-95017000D01*
G75*
G02*
X97673000Y-95217000I-200000J0D01*
G01*
X97273000Y-95217000D01*
G75*
G02*
X97073000Y-95017000I0J200000D01*
G01*
G37*
G36*
G01*
X121483000Y-107946000D02*
X121483000Y-107446000D01*
G75*
G02*
X121708000Y-107221000I225000J0D01*
G01*
X122158000Y-107221000D01*
G75*
G02*
X122383000Y-107446000I0J-225000D01*
G01*
X122383000Y-107946000D01*
G75*
G02*
X122158000Y-108171000I-225000J0D01*
G01*
X121708000Y-108171000D01*
G75*
G02*
X121483000Y-107946000I0J225000D01*
G01*
G37*
G36*
G01*
X119933000Y-107946000D02*
X119933000Y-107446000D01*
G75*
G02*
X120158000Y-107221000I225000J0D01*
G01*
X120608000Y-107221000D01*
G75*
G02*
X120833000Y-107446000I0J-225000D01*
G01*
X120833000Y-107946000D01*
G75*
G02*
X120608000Y-108171000I-225000J0D01*
G01*
X120158000Y-108171000D01*
G75*
G02*
X119933000Y-107946000I0J225000D01*
G01*
G37*
G36*
G01*
X141474000Y-88829000D02*
X140974000Y-88829000D01*
G75*
G02*
X140749000Y-88604000I0J225000D01*
G01*
X140749000Y-88154000D01*
G75*
G02*
X140974000Y-87929000I225000J0D01*
G01*
X141474000Y-87929000D01*
G75*
G02*
X141699000Y-88154000I0J-225000D01*
G01*
X141699000Y-88604000D01*
G75*
G02*
X141474000Y-88829000I-225000J0D01*
G01*
G37*
G36*
G01*
X141474000Y-90379000D02*
X140974000Y-90379000D01*
G75*
G02*
X140749000Y-90154000I0J225000D01*
G01*
X140749000Y-89704000D01*
G75*
G02*
X140974000Y-89479000I225000J0D01*
G01*
X141474000Y-89479000D01*
G75*
G02*
X141699000Y-89704000I0J-225000D01*
G01*
X141699000Y-90154000D01*
G75*
G02*
X141474000Y-90379000I-225000J0D01*
G01*
G37*
G36*
G01*
X141474000Y-85514000D02*
X140974000Y-85514000D01*
G75*
G02*
X140749000Y-85289000I0J225000D01*
G01*
X140749000Y-84839000D01*
G75*
G02*
X140974000Y-84614000I225000J0D01*
G01*
X141474000Y-84614000D01*
G75*
G02*
X141699000Y-84839000I0J-225000D01*
G01*
X141699000Y-85289000D01*
G75*
G02*
X141474000Y-85514000I-225000J0D01*
G01*
G37*
G36*
G01*
X141474000Y-87064000D02*
X140974000Y-87064000D01*
G75*
G02*
X140749000Y-86839000I0J225000D01*
G01*
X140749000Y-86389000D01*
G75*
G02*
X140974000Y-86164000I225000J0D01*
G01*
X141474000Y-86164000D01*
G75*
G02*
X141699000Y-86389000I0J-225000D01*
G01*
X141699000Y-86839000D01*
G75*
G02*
X141474000Y-87064000I-225000J0D01*
G01*
G37*
G36*
G01*
X126996000Y-88816000D02*
X126496000Y-88816000D01*
G75*
G02*
X126271000Y-88591000I0J225000D01*
G01*
X126271000Y-88141000D01*
G75*
G02*
X126496000Y-87916000I225000J0D01*
G01*
X126996000Y-87916000D01*
G75*
G02*
X127221000Y-88141000I0J-225000D01*
G01*
X127221000Y-88591000D01*
G75*
G02*
X126996000Y-88816000I-225000J0D01*
G01*
G37*
G36*
G01*
X126996000Y-90366000D02*
X126496000Y-90366000D01*
G75*
G02*
X126271000Y-90141000I0J225000D01*
G01*
X126271000Y-89691000D01*
G75*
G02*
X126496000Y-89466000I225000J0D01*
G01*
X126996000Y-89466000D01*
G75*
G02*
X127221000Y-89691000I0J-225000D01*
G01*
X127221000Y-90141000D01*
G75*
G02*
X126996000Y-90366000I-225000J0D01*
G01*
G37*
G36*
G01*
X126996000Y-85527000D02*
X126496000Y-85527000D01*
G75*
G02*
X126271000Y-85302000I0J225000D01*
G01*
X126271000Y-84852000D01*
G75*
G02*
X126496000Y-84627000I225000J0D01*
G01*
X126996000Y-84627000D01*
G75*
G02*
X127221000Y-84852000I0J-225000D01*
G01*
X127221000Y-85302000D01*
G75*
G02*
X126996000Y-85527000I-225000J0D01*
G01*
G37*
G36*
G01*
X126996000Y-87077000D02*
X126496000Y-87077000D01*
G75*
G02*
X126271000Y-86852000I0J225000D01*
G01*
X126271000Y-86402000D01*
G75*
G02*
X126496000Y-86177000I225000J0D01*
G01*
X126996000Y-86177000D01*
G75*
G02*
X127221000Y-86402000I0J-225000D01*
G01*
X127221000Y-86852000D01*
G75*
G02*
X126996000Y-87077000I-225000J0D01*
G01*
G37*
G36*
G01*
X117344000Y-88829000D02*
X116844000Y-88829000D01*
G75*
G02*
X116619000Y-88604000I0J225000D01*
G01*
X116619000Y-88154000D01*
G75*
G02*
X116844000Y-87929000I225000J0D01*
G01*
X117344000Y-87929000D01*
G75*
G02*
X117569000Y-88154000I0J-225000D01*
G01*
X117569000Y-88604000D01*
G75*
G02*
X117344000Y-88829000I-225000J0D01*
G01*
G37*
G36*
G01*
X117344000Y-90379000D02*
X116844000Y-90379000D01*
G75*
G02*
X116619000Y-90154000I0J225000D01*
G01*
X116619000Y-89704000D01*
G75*
G02*
X116844000Y-89479000I225000J0D01*
G01*
X117344000Y-89479000D01*
G75*
G02*
X117569000Y-89704000I0J-225000D01*
G01*
X117569000Y-90154000D01*
G75*
G02*
X117344000Y-90379000I-225000J0D01*
G01*
G37*
G36*
G01*
X117344000Y-85527000D02*
X116844000Y-85527000D01*
G75*
G02*
X116619000Y-85302000I0J225000D01*
G01*
X116619000Y-84852000D01*
G75*
G02*
X116844000Y-84627000I225000J0D01*
G01*
X117344000Y-84627000D01*
G75*
G02*
X117569000Y-84852000I0J-225000D01*
G01*
X117569000Y-85302000D01*
G75*
G02*
X117344000Y-85527000I-225000J0D01*
G01*
G37*
G36*
G01*
X117344000Y-87077000D02*
X116844000Y-87077000D01*
G75*
G02*
X116619000Y-86852000I0J225000D01*
G01*
X116619000Y-86402000D01*
G75*
G02*
X116844000Y-86177000I225000J0D01*
G01*
X117344000Y-86177000D01*
G75*
G02*
X117569000Y-86402000I0J-225000D01*
G01*
X117569000Y-86852000D01*
G75*
G02*
X117344000Y-87077000I-225000J0D01*
G01*
G37*
G36*
G01*
X102866000Y-88829000D02*
X102366000Y-88829000D01*
G75*
G02*
X102141000Y-88604000I0J225000D01*
G01*
X102141000Y-88154000D01*
G75*
G02*
X102366000Y-87929000I225000J0D01*
G01*
X102866000Y-87929000D01*
G75*
G02*
X103091000Y-88154000I0J-225000D01*
G01*
X103091000Y-88604000D01*
G75*
G02*
X102866000Y-88829000I-225000J0D01*
G01*
G37*
G36*
G01*
X102866000Y-90379000D02*
X102366000Y-90379000D01*
G75*
G02*
X102141000Y-90154000I0J225000D01*
G01*
X102141000Y-89704000D01*
G75*
G02*
X102366000Y-89479000I225000J0D01*
G01*
X102866000Y-89479000D01*
G75*
G02*
X103091000Y-89704000I0J-225000D01*
G01*
X103091000Y-90154000D01*
G75*
G02*
X102866000Y-90379000I-225000J0D01*
G01*
G37*
G36*
G01*
X102866000Y-85527000D02*
X102366000Y-85527000D01*
G75*
G02*
X102141000Y-85302000I0J225000D01*
G01*
X102141000Y-84852000D01*
G75*
G02*
X102366000Y-84627000I225000J0D01*
G01*
X102866000Y-84627000D01*
G75*
G02*
X103091000Y-84852000I0J-225000D01*
G01*
X103091000Y-85302000D01*
G75*
G02*
X102866000Y-85527000I-225000J0D01*
G01*
G37*
G36*
G01*
X102866000Y-87077000D02*
X102366000Y-87077000D01*
G75*
G02*
X102141000Y-86852000I0J225000D01*
G01*
X102141000Y-86402000D01*
G75*
G02*
X102366000Y-86177000I225000J0D01*
G01*
X102866000Y-86177000D01*
G75*
G02*
X103091000Y-86402000I0J-225000D01*
G01*
X103091000Y-86852000D01*
G75*
G02*
X102866000Y-87077000I-225000J0D01*
G01*
G37*
G36*
G01*
X93214000Y-88829000D02*
X92714000Y-88829000D01*
G75*
G02*
X92489000Y-88604000I0J225000D01*
G01*
X92489000Y-88154000D01*
G75*
G02*
X92714000Y-87929000I225000J0D01*
G01*
X93214000Y-87929000D01*
G75*
G02*
X93439000Y-88154000I0J-225000D01*
G01*
X93439000Y-88604000D01*
G75*
G02*
X93214000Y-88829000I-225000J0D01*
G01*
G37*
G36*
G01*
X93214000Y-90379000D02*
X92714000Y-90379000D01*
G75*
G02*
X92489000Y-90154000I0J225000D01*
G01*
X92489000Y-89704000D01*
G75*
G02*
X92714000Y-89479000I225000J0D01*
G01*
X93214000Y-89479000D01*
G75*
G02*
X93439000Y-89704000I0J-225000D01*
G01*
X93439000Y-90154000D01*
G75*
G02*
X93214000Y-90379000I-225000J0D01*
G01*
G37*
G36*
G01*
X93214000Y-85527000D02*
X92714000Y-85527000D01*
G75*
G02*
X92489000Y-85302000I0J225000D01*
G01*
X92489000Y-84852000D01*
G75*
G02*
X92714000Y-84627000I225000J0D01*
G01*
X93214000Y-84627000D01*
G75*
G02*
X93439000Y-84852000I0J-225000D01*
G01*
X93439000Y-85302000D01*
G75*
G02*
X93214000Y-85527000I-225000J0D01*
G01*
G37*
G36*
G01*
X93214000Y-87077000D02*
X92714000Y-87077000D01*
G75*
G02*
X92489000Y-86852000I0J225000D01*
G01*
X92489000Y-86402000D01*
G75*
G02*
X92714000Y-86177000I225000J0D01*
G01*
X93214000Y-86177000D01*
G75*
G02*
X93439000Y-86402000I0J-225000D01*
G01*
X93439000Y-86852000D01*
G75*
G02*
X93214000Y-87077000I-225000J0D01*
G01*
G37*
G36*
G01*
X143198000Y-107155000D02*
X143198000Y-106205000D01*
G75*
G02*
X143448000Y-105955000I250000J0D01*
G01*
X143948000Y-105955000D01*
G75*
G02*
X144198000Y-106205000I0J-250000D01*
G01*
X144198000Y-107155000D01*
G75*
G02*
X143948000Y-107405000I-250000J0D01*
G01*
X143448000Y-107405000D01*
G75*
G02*
X143198000Y-107155000I0J250000D01*
G01*
G37*
G36*
G01*
X141298000Y-107155000D02*
X141298000Y-106205000D01*
G75*
G02*
X141548000Y-105955000I250000J0D01*
G01*
X142048000Y-105955000D01*
G75*
G02*
X142298000Y-106205000I0J-250000D01*
G01*
X142298000Y-107155000D01*
G75*
G02*
X142048000Y-107405000I-250000J0D01*
G01*
X141548000Y-107405000D01*
G75*
G02*
X141298000Y-107155000I0J250000D01*
G01*
G37*
G36*
G01*
X142298000Y-111285000D02*
X142298000Y-112235000D01*
G75*
G02*
X142048000Y-112485000I-250000J0D01*
G01*
X141548000Y-112485000D01*
G75*
G02*
X141298000Y-112235000I0J250000D01*
G01*
X141298000Y-111285000D01*
G75*
G02*
X141548000Y-111035000I250000J0D01*
G01*
X142048000Y-111035000D01*
G75*
G02*
X142298000Y-111285000I0J-250000D01*
G01*
G37*
G36*
G01*
X144198000Y-111285000D02*
X144198000Y-112235000D01*
G75*
G02*
X143948000Y-112485000I-250000J0D01*
G01*
X143448000Y-112485000D01*
G75*
G02*
X143198000Y-112235000I0J250000D01*
G01*
X143198000Y-111285000D01*
G75*
G02*
X143448000Y-111035000I250000J0D01*
G01*
X143948000Y-111035000D01*
G75*
G02*
X144198000Y-111285000I0J-250000D01*
G01*
G37*
G36*
G01*
X121483000Y-114550000D02*
X121483000Y-114050000D01*
G75*
G02*
X121708000Y-113825000I225000J0D01*
G01*
X122158000Y-113825000D01*
G75*
G02*
X122383000Y-114050000I0J-225000D01*
G01*
X122383000Y-114550000D01*
G75*
G02*
X122158000Y-114775000I-225000J0D01*
G01*
X121708000Y-114775000D01*
G75*
G02*
X121483000Y-114550000I0J225000D01*
G01*
G37*
G36*
G01*
X119933000Y-114550000D02*
X119933000Y-114050000D01*
G75*
G02*
X120158000Y-113825000I225000J0D01*
G01*
X120608000Y-113825000D01*
G75*
G02*
X120833000Y-114050000I0J-225000D01*
G01*
X120833000Y-114550000D01*
G75*
G02*
X120608000Y-114775000I-225000J0D01*
G01*
X120158000Y-114775000D01*
G75*
G02*
X119933000Y-114550000I0J225000D01*
G01*
G37*
G36*
G01*
X103957000Y-98040000D02*
X103957000Y-97540000D01*
G75*
G02*
X104182000Y-97315000I225000J0D01*
G01*
X104632000Y-97315000D01*
G75*
G02*
X104857000Y-97540000I0J-225000D01*
G01*
X104857000Y-98040000D01*
G75*
G02*
X104632000Y-98265000I-225000J0D01*
G01*
X104182000Y-98265000D01*
G75*
G02*
X103957000Y-98040000I0J225000D01*
G01*
G37*
G36*
G01*
X102407000Y-98040000D02*
X102407000Y-97540000D01*
G75*
G02*
X102632000Y-97315000I225000J0D01*
G01*
X103082000Y-97315000D01*
G75*
G02*
X103307000Y-97540000I0J-225000D01*
G01*
X103307000Y-98040000D01*
G75*
G02*
X103082000Y-98265000I-225000J0D01*
G01*
X102632000Y-98265000D01*
G75*
G02*
X102407000Y-98040000I0J225000D01*
G01*
G37*
G36*
G01*
X111689000Y-97540000D02*
X111689000Y-98040000D01*
G75*
G02*
X111464000Y-98265000I-225000J0D01*
G01*
X111014000Y-98265000D01*
G75*
G02*
X110789000Y-98040000I0J225000D01*
G01*
X110789000Y-97540000D01*
G75*
G02*
X111014000Y-97315000I225000J0D01*
G01*
X111464000Y-97315000D01*
G75*
G02*
X111689000Y-97540000I0J-225000D01*
G01*
G37*
G36*
G01*
X113239000Y-97540000D02*
X113239000Y-98040000D01*
G75*
G02*
X113014000Y-98265000I-225000J0D01*
G01*
X112564000Y-98265000D01*
G75*
G02*
X112339000Y-98040000I0J225000D01*
G01*
X112339000Y-97540000D01*
G75*
G02*
X112564000Y-97315000I225000J0D01*
G01*
X113014000Y-97315000D01*
G75*
G02*
X113239000Y-97540000I0J-225000D01*
G01*
G37*
G36*
G01*
X142486000Y-94267000D02*
X142486000Y-95217000D01*
G75*
G02*
X142236000Y-95467000I-250000J0D01*
G01*
X141736000Y-95467000D01*
G75*
G02*
X141486000Y-95217000I0J250000D01*
G01*
X141486000Y-94267000D01*
G75*
G02*
X141736000Y-94017000I250000J0D01*
G01*
X142236000Y-94017000D01*
G75*
G02*
X142486000Y-94267000I0J-250000D01*
G01*
G37*
G36*
G01*
X144386000Y-94267000D02*
X144386000Y-95217000D01*
G75*
G02*
X144136000Y-95467000I-250000J0D01*
G01*
X143636000Y-95467000D01*
G75*
G02*
X143386000Y-95217000I0J250000D01*
G01*
X143386000Y-94267000D01*
G75*
G02*
X143636000Y-94017000I250000J0D01*
G01*
X144136000Y-94017000D01*
G75*
G02*
X144386000Y-94267000I0J-250000D01*
G01*
G37*
G36*
G01*
X117798000Y-95217000D02*
X117798000Y-94267000D01*
G75*
G02*
X118048000Y-94017000I250000J0D01*
G01*
X118548000Y-94017000D01*
G75*
G02*
X118798000Y-94267000I0J-250000D01*
G01*
X118798000Y-95217000D01*
G75*
G02*
X118548000Y-95467000I-250000J0D01*
G01*
X118048000Y-95467000D01*
G75*
G02*
X117798000Y-95217000I0J250000D01*
G01*
G37*
G36*
G01*
X115898000Y-95217000D02*
X115898000Y-94267000D01*
G75*
G02*
X116148000Y-94017000I250000J0D01*
G01*
X116648000Y-94017000D01*
G75*
G02*
X116898000Y-94267000I0J-250000D01*
G01*
X116898000Y-95217000D01*
G75*
G02*
X116648000Y-95467000I-250000J0D01*
G01*
X116148000Y-95467000D01*
G75*
G02*
X115898000Y-95217000I0J250000D01*
G01*
G37*
G36*
G01*
X99118000Y-79789000D02*
X99118000Y-80739000D01*
G75*
G02*
X98868000Y-80989000I-250000J0D01*
G01*
X98368000Y-80989000D01*
G75*
G02*
X98118000Y-80739000I0J250000D01*
G01*
X98118000Y-79789000D01*
G75*
G02*
X98368000Y-79539000I250000J0D01*
G01*
X98868000Y-79539000D01*
G75*
G02*
X99118000Y-79789000I0J-250000D01*
G01*
G37*
G36*
G01*
X101018000Y-79789000D02*
X101018000Y-80739000D01*
G75*
G02*
X100768000Y-80989000I-250000J0D01*
G01*
X100268000Y-80989000D01*
G75*
G02*
X100018000Y-80739000I0J250000D01*
G01*
X100018000Y-79789000D01*
G75*
G02*
X100268000Y-79539000I250000J0D01*
G01*
X100768000Y-79539000D01*
G75*
G02*
X101018000Y-79789000I0J-250000D01*
G01*
G37*
G36*
G01*
X134437000Y-98040000D02*
X134437000Y-97540000D01*
G75*
G02*
X134662000Y-97315000I225000J0D01*
G01*
X135112000Y-97315000D01*
G75*
G02*
X135337000Y-97540000I0J-225000D01*
G01*
X135337000Y-98040000D01*
G75*
G02*
X135112000Y-98265000I-225000J0D01*
G01*
X134662000Y-98265000D01*
G75*
G02*
X134437000Y-98040000I0J225000D01*
G01*
G37*
G36*
G01*
X132887000Y-98040000D02*
X132887000Y-97540000D01*
G75*
G02*
X133112000Y-97315000I225000J0D01*
G01*
X133562000Y-97315000D01*
G75*
G02*
X133787000Y-97540000I0J-225000D01*
G01*
X133787000Y-98040000D01*
G75*
G02*
X133562000Y-98265000I-225000J0D01*
G01*
X133112000Y-98265000D01*
G75*
G02*
X132887000Y-98040000I0J225000D01*
G01*
G37*
G36*
G01*
X133787000Y-77728000D02*
X133787000Y-78228000D01*
G75*
G02*
X133562000Y-78453000I-225000J0D01*
G01*
X133112000Y-78453000D01*
G75*
G02*
X132887000Y-78228000I0J225000D01*
G01*
X132887000Y-77728000D01*
G75*
G02*
X133112000Y-77503000I225000J0D01*
G01*
X133562000Y-77503000D01*
G75*
G02*
X133787000Y-77728000I0J-225000D01*
G01*
G37*
G36*
G01*
X135337000Y-77728000D02*
X135337000Y-78228000D01*
G75*
G02*
X135112000Y-78453000I-225000J0D01*
G01*
X134662000Y-78453000D01*
G75*
G02*
X134437000Y-78228000I0J225000D01*
G01*
X134437000Y-77728000D01*
G75*
G02*
X134662000Y-77503000I225000J0D01*
G01*
X135112000Y-77503000D01*
G75*
G02*
X135337000Y-77728000I0J-225000D01*
G01*
G37*
G36*
G01*
X110673000Y-77728000D02*
X110673000Y-78228000D01*
G75*
G02*
X110448000Y-78453000I-225000J0D01*
G01*
X109998000Y-78453000D01*
G75*
G02*
X109773000Y-78228000I0J225000D01*
G01*
X109773000Y-77728000D01*
G75*
G02*
X109998000Y-77503000I225000J0D01*
G01*
X110448000Y-77503000D01*
G75*
G02*
X110673000Y-77728000I0J-225000D01*
G01*
G37*
G36*
G01*
X112223000Y-77728000D02*
X112223000Y-78228000D01*
G75*
G02*
X111998000Y-78453000I-225000J0D01*
G01*
X111548000Y-78453000D01*
G75*
G02*
X111323000Y-78228000I0J225000D01*
G01*
X111323000Y-77728000D01*
G75*
G02*
X111548000Y-77503000I225000J0D01*
G01*
X111998000Y-77503000D01*
G75*
G02*
X112223000Y-77728000I0J-225000D01*
G01*
G37*
G36*
G01*
X139134000Y-95217000D02*
X139134000Y-94267000D01*
G75*
G02*
X139384000Y-94017000I250000J0D01*
G01*
X139884000Y-94017000D01*
G75*
G02*
X140134000Y-94267000I0J-250000D01*
G01*
X140134000Y-95217000D01*
G75*
G02*
X139884000Y-95467000I-250000J0D01*
G01*
X139384000Y-95467000D01*
G75*
G02*
X139134000Y-95217000I0J250000D01*
G01*
G37*
G36*
G01*
X137234000Y-95217000D02*
X137234000Y-94267000D01*
G75*
G02*
X137484000Y-94017000I250000J0D01*
G01*
X137984000Y-94017000D01*
G75*
G02*
X138234000Y-94267000I0J-250000D01*
G01*
X138234000Y-95217000D01*
G75*
G02*
X137984000Y-95467000I-250000J0D01*
G01*
X137484000Y-95467000D01*
G75*
G02*
X137234000Y-95217000I0J250000D01*
G01*
G37*
G36*
G01*
X122486000Y-79027000D02*
X122486000Y-79977000D01*
G75*
G02*
X122236000Y-80227000I-250000J0D01*
G01*
X121736000Y-80227000D01*
G75*
G02*
X121486000Y-79977000I0J250000D01*
G01*
X121486000Y-79027000D01*
G75*
G02*
X121736000Y-78777000I250000J0D01*
G01*
X122236000Y-78777000D01*
G75*
G02*
X122486000Y-79027000I0J-250000D01*
G01*
G37*
G36*
G01*
X124386000Y-79027000D02*
X124386000Y-79977000D01*
G75*
G02*
X124136000Y-80227000I-250000J0D01*
G01*
X123636000Y-80227000D01*
G75*
G02*
X123386000Y-79977000I0J250000D01*
G01*
X123386000Y-79027000D01*
G75*
G02*
X123636000Y-78777000I250000J0D01*
G01*
X124136000Y-78777000D01*
G75*
G02*
X124386000Y-79027000I0J-250000D01*
G01*
G37*
G36*
G01*
X94938000Y-80739000D02*
X94938000Y-79789000D01*
G75*
G02*
X95188000Y-79539000I250000J0D01*
G01*
X95688000Y-79539000D01*
G75*
G02*
X95938000Y-79789000I0J-250000D01*
G01*
X95938000Y-80739000D01*
G75*
G02*
X95688000Y-80989000I-250000J0D01*
G01*
X95188000Y-80989000D01*
G75*
G02*
X94938000Y-80739000I0J250000D01*
G01*
G37*
G36*
G01*
X93038000Y-80739000D02*
X93038000Y-79789000D01*
G75*
G02*
X93288000Y-79539000I250000J0D01*
G01*
X93788000Y-79539000D01*
G75*
G02*
X94038000Y-79789000I0J-250000D01*
G01*
X94038000Y-80739000D01*
G75*
G02*
X93788000Y-80989000I-250000J0D01*
G01*
X93288000Y-80989000D01*
G75*
G02*
X93038000Y-80739000I0J250000D01*
G01*
G37*
G36*
G01*
X127833000Y-98040000D02*
X127833000Y-97540000D01*
G75*
G02*
X128058000Y-97315000I225000J0D01*
G01*
X128508000Y-97315000D01*
G75*
G02*
X128733000Y-97540000I0J-225000D01*
G01*
X128733000Y-98040000D01*
G75*
G02*
X128508000Y-98265000I-225000J0D01*
G01*
X128058000Y-98265000D01*
G75*
G02*
X127833000Y-98040000I0J225000D01*
G01*
G37*
G36*
G01*
X126283000Y-98040000D02*
X126283000Y-97540000D01*
G75*
G02*
X126508000Y-97315000I225000J0D01*
G01*
X126958000Y-97315000D01*
G75*
G02*
X127183000Y-97540000I0J-225000D01*
G01*
X127183000Y-98040000D01*
G75*
G02*
X126958000Y-98265000I-225000J0D01*
G01*
X126508000Y-98265000D01*
G75*
G02*
X126283000Y-98040000I0J225000D01*
G01*
G37*
G36*
G01*
X128976000Y-78228000D02*
X128976000Y-77728000D01*
G75*
G02*
X129201000Y-77503000I225000J0D01*
G01*
X129651000Y-77503000D01*
G75*
G02*
X129876000Y-77728000I0J-225000D01*
G01*
X129876000Y-78228000D01*
G75*
G02*
X129651000Y-78453000I-225000J0D01*
G01*
X129201000Y-78453000D01*
G75*
G02*
X128976000Y-78228000I0J225000D01*
G01*
G37*
G36*
G01*
X127426000Y-78228000D02*
X127426000Y-77728000D01*
G75*
G02*
X127651000Y-77503000I225000J0D01*
G01*
X128101000Y-77503000D01*
G75*
G02*
X128326000Y-77728000I0J-225000D01*
G01*
X128326000Y-78228000D01*
G75*
G02*
X128101000Y-78453000I-225000J0D01*
G01*
X127651000Y-78453000D01*
G75*
G02*
X127426000Y-78228000I0J225000D01*
G01*
G37*
G36*
G01*
X105227000Y-78228000D02*
X105227000Y-77728000D01*
G75*
G02*
X105452000Y-77503000I225000J0D01*
G01*
X105902000Y-77503000D01*
G75*
G02*
X106127000Y-77728000I0J-225000D01*
G01*
X106127000Y-78228000D01*
G75*
G02*
X105902000Y-78453000I-225000J0D01*
G01*
X105452000Y-78453000D01*
G75*
G02*
X105227000Y-78228000I0J225000D01*
G01*
G37*
G36*
G01*
X103677000Y-78228000D02*
X103677000Y-77728000D01*
G75*
G02*
X103902000Y-77503000I225000J0D01*
G01*
X104352000Y-77503000D01*
G75*
G02*
X104577000Y-77728000I0J-225000D01*
G01*
X104577000Y-78228000D01*
G75*
G02*
X104352000Y-78453000I-225000J0D01*
G01*
X103902000Y-78453000D01*
G75*
G02*
X103677000Y-78228000I0J225000D01*
G01*
G37*
G36*
G01*
X95067000Y-98040000D02*
X95067000Y-97540000D01*
G75*
G02*
X95292000Y-97315000I225000J0D01*
G01*
X95742000Y-97315000D01*
G75*
G02*
X95967000Y-97540000I0J-225000D01*
G01*
X95967000Y-98040000D01*
G75*
G02*
X95742000Y-98265000I-225000J0D01*
G01*
X95292000Y-98265000D01*
G75*
G02*
X95067000Y-98040000I0J225000D01*
G01*
G37*
G36*
G01*
X93517000Y-98040000D02*
X93517000Y-97540000D01*
G75*
G02*
X93742000Y-97315000I225000J0D01*
G01*
X94192000Y-97315000D01*
G75*
G02*
X94417000Y-97540000I0J-225000D01*
G01*
X94417000Y-98040000D01*
G75*
G02*
X94192000Y-98265000I-225000J0D01*
G01*
X93742000Y-98265000D01*
G75*
G02*
X93517000Y-98040000I0J225000D01*
G01*
G37*
G36*
G01*
X129263000Y-112498000D02*
X129563000Y-112498000D01*
G75*
G02*
X129713000Y-112648000I0J-150000D01*
G01*
X129713000Y-114298000D01*
G75*
G02*
X129563000Y-114448000I-150000J0D01*
G01*
X129263000Y-114448000D01*
G75*
G02*
X129113000Y-114298000I0J150000D01*
G01*
X129113000Y-112648000D01*
G75*
G02*
X129263000Y-112498000I150000J0D01*
G01*
G37*
G36*
G01*
X127993000Y-112498000D02*
X128293000Y-112498000D01*
G75*
G02*
X128443000Y-112648000I0J-150000D01*
G01*
X128443000Y-114298000D01*
G75*
G02*
X128293000Y-114448000I-150000J0D01*
G01*
X127993000Y-114448000D01*
G75*
G02*
X127843000Y-114298000I0J150000D01*
G01*
X127843000Y-112648000D01*
G75*
G02*
X127993000Y-112498000I150000J0D01*
G01*
G37*
G36*
G01*
X126723000Y-112498000D02*
X127023000Y-112498000D01*
G75*
G02*
X127173000Y-112648000I0J-150000D01*
G01*
X127173000Y-114298000D01*
G75*
G02*
X127023000Y-114448000I-150000J0D01*
G01*
X126723000Y-114448000D01*
G75*
G02*
X126573000Y-114298000I0J150000D01*
G01*
X126573000Y-112648000D01*
G75*
G02*
X126723000Y-112498000I150000J0D01*
G01*
G37*
G36*
G01*
X125453000Y-112498000D02*
X125753000Y-112498000D01*
G75*
G02*
X125903000Y-112648000I0J-150000D01*
G01*
X125903000Y-114298000D01*
G75*
G02*
X125753000Y-114448000I-150000J0D01*
G01*
X125453000Y-114448000D01*
G75*
G02*
X125303000Y-114298000I0J150000D01*
G01*
X125303000Y-112648000D01*
G75*
G02*
X125453000Y-112498000I150000J0D01*
G01*
G37*
G36*
G01*
X125453000Y-107548000D02*
X125753000Y-107548000D01*
G75*
G02*
X125903000Y-107698000I0J-150000D01*
G01*
X125903000Y-109348000D01*
G75*
G02*
X125753000Y-109498000I-150000J0D01*
G01*
X125453000Y-109498000D01*
G75*
G02*
X125303000Y-109348000I0J150000D01*
G01*
X125303000Y-107698000D01*
G75*
G02*
X125453000Y-107548000I150000J0D01*
G01*
G37*
G36*
G01*
X126723000Y-107548000D02*
X127023000Y-107548000D01*
G75*
G02*
X127173000Y-107698000I0J-150000D01*
G01*
X127173000Y-109348000D01*
G75*
G02*
X127023000Y-109498000I-150000J0D01*
G01*
X126723000Y-109498000D01*
G75*
G02*
X126573000Y-109348000I0J150000D01*
G01*
X126573000Y-107698000D01*
G75*
G02*
X126723000Y-107548000I150000J0D01*
G01*
G37*
G36*
G01*
X127993000Y-107548000D02*
X128293000Y-107548000D01*
G75*
G02*
X128443000Y-107698000I0J-150000D01*
G01*
X128443000Y-109348000D01*
G75*
G02*
X128293000Y-109498000I-150000J0D01*
G01*
X127993000Y-109498000D01*
G75*
G02*
X127843000Y-109348000I0J150000D01*
G01*
X127843000Y-107698000D01*
G75*
G02*
X127993000Y-107548000I150000J0D01*
G01*
G37*
G36*
G01*
X129263000Y-107548000D02*
X129563000Y-107548000D01*
G75*
G02*
X129713000Y-107698000I0J-150000D01*
G01*
X129713000Y-109348000D01*
G75*
G02*
X129563000Y-109498000I-150000J0D01*
G01*
X129263000Y-109498000D01*
G75*
G02*
X129113000Y-109348000I0J150000D01*
G01*
X129113000Y-107698000D01*
G75*
G02*
X129263000Y-107548000I150000J0D01*
G01*
G37*
G36*
G01*
X113515000Y-88876000D02*
X113815000Y-88876000D01*
G75*
G02*
X113965000Y-89026000I0J-150000D01*
G01*
X113965000Y-90676000D01*
G75*
G02*
X113815000Y-90826000I-150000J0D01*
G01*
X113515000Y-90826000D01*
G75*
G02*
X113365000Y-90676000I0J150000D01*
G01*
X113365000Y-89026000D01*
G75*
G02*
X113515000Y-88876000I150000J0D01*
G01*
G37*
G36*
G01*
X112245000Y-88876000D02*
X112545000Y-88876000D01*
G75*
G02*
X112695000Y-89026000I0J-150000D01*
G01*
X112695000Y-90676000D01*
G75*
G02*
X112545000Y-90826000I-150000J0D01*
G01*
X112245000Y-90826000D01*
G75*
G02*
X112095000Y-90676000I0J150000D01*
G01*
X112095000Y-89026000D01*
G75*
G02*
X112245000Y-88876000I150000J0D01*
G01*
G37*
G36*
G01*
X110975000Y-88876000D02*
X111275000Y-88876000D01*
G75*
G02*
X111425000Y-89026000I0J-150000D01*
G01*
X111425000Y-90676000D01*
G75*
G02*
X111275000Y-90826000I-150000J0D01*
G01*
X110975000Y-90826000D01*
G75*
G02*
X110825000Y-90676000I0J150000D01*
G01*
X110825000Y-89026000D01*
G75*
G02*
X110975000Y-88876000I150000J0D01*
G01*
G37*
G36*
G01*
X109705000Y-88876000D02*
X110005000Y-88876000D01*
G75*
G02*
X110155000Y-89026000I0J-150000D01*
G01*
X110155000Y-90676000D01*
G75*
G02*
X110005000Y-90826000I-150000J0D01*
G01*
X109705000Y-90826000D01*
G75*
G02*
X109555000Y-90676000I0J150000D01*
G01*
X109555000Y-89026000D01*
G75*
G02*
X109705000Y-88876000I150000J0D01*
G01*
G37*
G36*
G01*
X108435000Y-88876000D02*
X108735000Y-88876000D01*
G75*
G02*
X108885000Y-89026000I0J-150000D01*
G01*
X108885000Y-90676000D01*
G75*
G02*
X108735000Y-90826000I-150000J0D01*
G01*
X108435000Y-90826000D01*
G75*
G02*
X108285000Y-90676000I0J150000D01*
G01*
X108285000Y-89026000D01*
G75*
G02*
X108435000Y-88876000I150000J0D01*
G01*
G37*
G36*
G01*
X107165000Y-88876000D02*
X107465000Y-88876000D01*
G75*
G02*
X107615000Y-89026000I0J-150000D01*
G01*
X107615000Y-90676000D01*
G75*
G02*
X107465000Y-90826000I-150000J0D01*
G01*
X107165000Y-90826000D01*
G75*
G02*
X107015000Y-90676000I0J150000D01*
G01*
X107015000Y-89026000D01*
G75*
G02*
X107165000Y-88876000I150000J0D01*
G01*
G37*
G36*
G01*
X105895000Y-88876000D02*
X106195000Y-88876000D01*
G75*
G02*
X106345000Y-89026000I0J-150000D01*
G01*
X106345000Y-90676000D01*
G75*
G02*
X106195000Y-90826000I-150000J0D01*
G01*
X105895000Y-90826000D01*
G75*
G02*
X105745000Y-90676000I0J150000D01*
G01*
X105745000Y-89026000D01*
G75*
G02*
X105895000Y-88876000I150000J0D01*
G01*
G37*
G36*
G01*
X104625000Y-88876000D02*
X104925000Y-88876000D01*
G75*
G02*
X105075000Y-89026000I0J-150000D01*
G01*
X105075000Y-90676000D01*
G75*
G02*
X104925000Y-90826000I-150000J0D01*
G01*
X104625000Y-90826000D01*
G75*
G02*
X104475000Y-90676000I0J150000D01*
G01*
X104475000Y-89026000D01*
G75*
G02*
X104625000Y-88876000I150000J0D01*
G01*
G37*
G36*
G01*
X104625000Y-83926000D02*
X104925000Y-83926000D01*
G75*
G02*
X105075000Y-84076000I0J-150000D01*
G01*
X105075000Y-85726000D01*
G75*
G02*
X104925000Y-85876000I-150000J0D01*
G01*
X104625000Y-85876000D01*
G75*
G02*
X104475000Y-85726000I0J150000D01*
G01*
X104475000Y-84076000D01*
G75*
G02*
X104625000Y-83926000I150000J0D01*
G01*
G37*
G36*
G01*
X105895000Y-83926000D02*
X106195000Y-83926000D01*
G75*
G02*
X106345000Y-84076000I0J-150000D01*
G01*
X106345000Y-85726000D01*
G75*
G02*
X106195000Y-85876000I-150000J0D01*
G01*
X105895000Y-85876000D01*
G75*
G02*
X105745000Y-85726000I0J150000D01*
G01*
X105745000Y-84076000D01*
G75*
G02*
X105895000Y-83926000I150000J0D01*
G01*
G37*
G36*
G01*
X107165000Y-83926000D02*
X107465000Y-83926000D01*
G75*
G02*
X107615000Y-84076000I0J-150000D01*
G01*
X107615000Y-85726000D01*
G75*
G02*
X107465000Y-85876000I-150000J0D01*
G01*
X107165000Y-85876000D01*
G75*
G02*
X107015000Y-85726000I0J150000D01*
G01*
X107015000Y-84076000D01*
G75*
G02*
X107165000Y-83926000I150000J0D01*
G01*
G37*
G36*
G01*
X108435000Y-83926000D02*
X108735000Y-83926000D01*
G75*
G02*
X108885000Y-84076000I0J-150000D01*
G01*
X108885000Y-85726000D01*
G75*
G02*
X108735000Y-85876000I-150000J0D01*
G01*
X108435000Y-85876000D01*
G75*
G02*
X108285000Y-85726000I0J150000D01*
G01*
X108285000Y-84076000D01*
G75*
G02*
X108435000Y-83926000I150000J0D01*
G01*
G37*
G36*
G01*
X109705000Y-83926000D02*
X110005000Y-83926000D01*
G75*
G02*
X110155000Y-84076000I0J-150000D01*
G01*
X110155000Y-85726000D01*
G75*
G02*
X110005000Y-85876000I-150000J0D01*
G01*
X109705000Y-85876000D01*
G75*
G02*
X109555000Y-85726000I0J150000D01*
G01*
X109555000Y-84076000D01*
G75*
G02*
X109705000Y-83926000I150000J0D01*
G01*
G37*
G36*
G01*
X110975000Y-83926000D02*
X111275000Y-83926000D01*
G75*
G02*
X111425000Y-84076000I0J-150000D01*
G01*
X111425000Y-85726000D01*
G75*
G02*
X111275000Y-85876000I-150000J0D01*
G01*
X110975000Y-85876000D01*
G75*
G02*
X110825000Y-85726000I0J150000D01*
G01*
X110825000Y-84076000D01*
G75*
G02*
X110975000Y-83926000I150000J0D01*
G01*
G37*
G36*
G01*
X112245000Y-83926000D02*
X112545000Y-83926000D01*
G75*
G02*
X112695000Y-84076000I0J-150000D01*
G01*
X112695000Y-85726000D01*
G75*
G02*
X112545000Y-85876000I-150000J0D01*
G01*
X112245000Y-85876000D01*
G75*
G02*
X112095000Y-85726000I0J150000D01*
G01*
X112095000Y-84076000D01*
G75*
G02*
X112245000Y-83926000I150000J0D01*
G01*
G37*
G36*
G01*
X113515000Y-83926000D02*
X113815000Y-83926000D01*
G75*
G02*
X113965000Y-84076000I0J-150000D01*
G01*
X113965000Y-85726000D01*
G75*
G02*
X113815000Y-85876000I-150000J0D01*
G01*
X113515000Y-85876000D01*
G75*
G02*
X113365000Y-85726000I0J150000D01*
G01*
X113365000Y-84076000D01*
G75*
G02*
X113515000Y-83926000I150000J0D01*
G01*
G37*
X143636000Y-101346000D03*
X140336000Y-101346000D03*
M02*
